<svg width="512" height="512" enable-background="new" version="1.0" xmlns="http://www.w3.org/2000/svg" xmlns:osb="http://www.openswatchbook.org/uri/2009/osb" xmlns:xlink="http://www.w3.org/1999/xlink">
 <defs>
  <filter id="a" x="-.022286" y="-.026" width="1.0446" height="1.052" color-interpolation-filters="sRGB">
   <feGaussianBlur stdDeviation="4.16"/>
  </filter>
 </defs>
 <g transform="translate(0,212)">
  <g display="none">
   <rect transform="scale(-1,1)" x="-720" y="-228" width="512" height="512" display="inline" enable-background="accumulate" fill="#e9e9e9"/>
   <text id="context" x="15.006836" y="332.48523" display="inline" enable-background="new" fill="#000000" font-family="'DejaVu Sans'" style="line-height:0%" xml:space="preserve"><tspan x="15.006836" y="332.48523" font-family="'DejaVu Sans'" font-size="18px" style="line-height:1.25">categories</tspan></text>
   <text id="icon-name" x="142.48828" y="332.48523" display="inline" enable-background="new" fill="#000000" font-family="'DejaVu Sans'" font-weight="bold" style="line-height:0%" xml:space="preserve"><tspan x="142.48828" y="332.48523" font-family="'DejaVu Sans'" font-size="18px" font-weight="bold" style="line-height:1.25">applications-development</tspan></text>
   <g fill="#e9e9e9">
    <rect transform="scale(-1,1)" x="-32" y="268" width="16" height="16" display="inline" enable-background="accumulate"/>
    <rect transform="scale(-1,1)" x="-76" y="260" width="24" height="24" display="inline" enable-background="accumulate"/>
    <rect transform="scale(-1,1)" x="-128" y="252" width="32" height="32" display="inline" enable-background="accumulate"/>
    <rect transform="scale(-1,1)" x="-192" y="236" width="48" height="48" display="inline" enable-background="accumulate"/>
   </g>
  </g>
  <g>
   <g transform="translate(-208,16)">
    <path d="m240-160v360c0 24 24 24 24 24h424v-360c0-24-24-24-24-24zm216.26 80h151.74v130.06zm-136.26 93.938 151.74 130.06h-151.74z" filter="url(#a)" opacity=".1" stroke="#000" stroke-width="8"/>
    <path d="m240-160v360c0 24 24 24 24 24h424v-360c0-24-24-24-24-24zm216.26 80h151.74v130.06zm-136.26 93.938 151.74 130.06h-151.74z" filter="url(#a)" opacity=".2"/>
    <path transform="translate(0,-244)" d="m240 80 448 384v-360c0-24-24-24-24-24zm216.26 80h151.74v130.06z" fill="#3f51b5"/>
    <path transform="translate(0,-244)" d="m240 80v360c0 24 24 24 24 24h424zm80 173.94 151.74 130.06h-151.74z" fill="#03a9f4"/>
    <path transform="translate(0,-244)" d="m240 80v2l445.67 382h2.334zm80 304v2h151.74l-2.334-2z" fill="#fff" opacity=".2"/>
    <path transform="translate(0,-244)" d="m240 80 2.334 2h421.67s24 0 24 24v-2c0-24-24-24-24-24zm216.26 82 151.74 130.06v-2l-149.41-128.06z" fill="#fff" opacity=".2"/>
    <path d="m688 220v-2l-445.67-382h-2.334zm-80-304v-2h-151.74l2.334 2z" opacity=".1"/>
    <path d="m688 220-2.334-2h-421.67s-24 0-24-24v2c0 24 24 24 24 24zm-216.26-82-151.74-130.06v2l149.41 128.06z" opacity=".1"/>
   </g>
  </g>
 </g>
</svg>
