<svg width="512" height="512" enable-background="new" version="1.0" xmlns="http://www.w3.org/2000/svg" xmlns:xlink="http://www.w3.org/1999/xlink">
 <defs>
  <filter id="b" x="-.026526" y="-.021913" width="1.0531" height="1.0438" color-interpolation-filters="sRGB">
   <feGaussianBlur stdDeviation="3.36"/>
  </filter>
  <filter id="a" x="-.026526" y="-.021913" width="1.0531" height="1.0438" color-interpolation-filters="sRGB">
   <feGaussianBlur stdDeviation="3.36"/>
  </filter>
 </defs>
 <g transform="translate(0,212)">
  <g display="none">
   <text id="context" x="15.006836" y="332.76685" display="inline" enable-background="new" fill="#000000" font-family="'DejaVu Sans'" style="line-height:0%" xml:space="preserve"><tspan x="15.006836" y="332.76685" font-family="'DejaVu Sans'" font-size="18px" style="line-height:1.25">apps</tspan></text>
   <text id="icon-name" x="142.48828" y="332.76685" display="inline" enable-background="new" fill="#000000" font-family="'DejaVu Sans'" font-weight="bold" style="line-height:0%" xml:space="preserve"><tspan x="142.48828" y="332.76685" font-family="'DejaVu Sans'" font-size="18px" font-weight="bold" style="line-height:1.25">preferences-desktop-font</tspan></text>
   <g fill="#e9e9e9">
    <rect transform="scale(-1,1)" x="-32" y="268" width="16" height="16" display="inline" enable-background="accumulate"/>
    <rect transform="scale(-1,1)" x="-76" y="260" width="24" height="24" display="inline" enable-background="accumulate"/>
    <rect transform="scale(-1,1)" x="-128" y="252" width="32" height="32" display="inline" enable-background="accumulate"/>
    <rect transform="scale(-1,1)" x="-192" y="236" width="48" height="48" display="inline" enable-background="accumulate"/>
    <rect transform="scale(-1,1)" x="-720" y="-228" width="512" height="512" display="inline" enable-background="accumulate"/>
   </g>
  </g>
  <g>
   <g transform="translate(-208,16)">
    <rect x="368" y="-192" width="304" height="368" rx="16" ry="16" filter="url(#a)" opacity=".1" stroke="#000" stroke-width="8"/>
    <rect x="368" y="-192" width="304" height="368" rx="16" ry="16" filter="url(#a)" opacity=".2"/>
    <rect x="368" y="-196" width="304" height="368" rx="16" ry="16" fill="#d8d8d8"/>
    <g transform="matrix(4.474 0 0 4.474 -344.17 -1074.9)" opacity=".49">
     <path d="m183.12 222.56h-1.68l-9.2 23.32c-0.8 2.08-0.96 2.36-1.56 3-0.64 0.76-1.76 1.24-2.84 1.24h-0.16v1.88h10.6v-1.88h-0.8c-2.16 0-3.24-0.76-3.24-2.28 0-0.48 0.12-1.04 0.36-1.68l1.32-3.52h10.6l2.16 5.36c0.24 0.6 0.32 0.88 0.32 1.08 0 0.64-1 1.04-2.48 1.04h-1.68v1.88h12.4v-1.88h-0.56c-2 0-2.44-0.32-3.36-2.56zm-1.96 6.56 4.52 11.36h-8.96z"/>
     <path d="m214.99 239.12c0-2.52-0.44-3.8-1.6-4.76-1.32-1.04-3.28-1.6-5.84-1.6-4.48 0-7.8 2.12-7.8 5 0 1.52 0.92 2.48 2.32 2.48 1.24 0 2.16-0.84 2.16-2.04 0-0.52-0.2-1.08-0.6-1.64-0.24-0.28-0.28-0.4-0.28-0.52 0-0.84 1.64-1.56 3.56-1.56 1.24 0 2.64 0.4 3.28 1 0.76 0.64 1.04 1.6 1.04 3.4v1.56c-4.2 0.72-5.48 1.04-7.44 1.8-3.44 1.28-5.12 3.16-5.12 5.68 0 2.84 2.28 4.68 5.8 4.68 2.76 0 5.24-1.12 6.96-3.16 0.64 2.04 1.64 2.84 3.52 2.84 1.8 0 3.68-1.16 3.68-2.32 0-0.28-0.2-0.48-0.4-0.48-0.16 0-0.32 0.04-0.6 0.16-0.64 0.24-0.8 0.28-1.12 0.28-1.12 0-1.52-0.76-1.52-2.76zm-3.76 4.88c0 2.4-0.12 2.96-0.8 4-1 1.48-2.84 2.48-4.56 2.48-1.8 0-3.16-1.32-3.16-3.12 0-1.68 0.84-2.88 2.6-3.72 1.24-0.56 2.8-0.96 5.92-1.48z"/>
    </g>
    <path d="m384-196c-8.864 0-16 7.136-16 16v2c0-8.864 7.136-16 16-16h272c8.864 0 16 7.136 16 16v-2c0-8.864-7.136-16-16-16z" fill="#fff" opacity=".4"/>
    <rect x="256" y="-112" width="304" height="368" rx="16" ry="16" filter="url(#b)" opacity=".1" stroke="#000" stroke-width="8"/>
    <rect x="256" y="-112" width="304" height="368" rx="16" ry="16" filter="url(#b)" opacity=".2"/>
    <rect x="256" y="-116" width="304" height="368" rx="16" ry="16" fill="#ebebeb"/>
    <g transform="matrix(11.2 0 0 11.2 -1309.3 -2911.2)" opacity=".5">
     <path d="m153.21 271.84-1.4677-3.75h-4.7258l-1.4516 3.75h-1.3871l4.6613-11.839h1.1532l4.6371 11.839zm-1.8952-4.9839-1.371-3.6532q-0.26613-0.69355-0.54839-1.7016-0.17742 0.77419-0.50806 1.7016l-1.3871 3.6532z"/>
     <path d="m161.48 271.84-0.26613-1.2581h-0.0645q-0.66129 0.83065-1.3226 1.129-0.65322 0.29033-1.6371 0.29033-1.3145 0-2.0645-0.67742-0.74193-0.67742-0.74193-1.9274 0-2.6774 4.2822-2.8064l1.5-0.0484v-0.54839q0-1.0403-0.45161-1.5323-0.44355-0.5-1.4274-0.5-1.1048 0-2.5 0.67742l-0.41129-1.0242q0.65323-0.35484 1.4274-0.55645 0.78226-0.20162 1.5645-0.20162 1.5806 0 2.3387 0.70162 0.76613 0.70161 0.76613 2.25v6.0323h-0.99194zm-3.0242-0.94355q1.25 0 1.9597-0.68549 0.71775-0.68548 0.71775-1.9194v-0.79839l-1.3387 0.0565q-1.5968 0.0564-2.3064 0.5-0.70162 0.43549-0.70162 1.3629 0 0.7258 0.43549 1.1048 0.44354 0.37904 1.2339 0.37904z"/>
    </g>
    <path d="m272-116c-8.864 0-16 7.136-16 16v2c0-8.864 7.136-16 16-16h272c8.864 0 16 7.136 16 16v-2c0-8.864-7.136-16-16-16z" fill="#fff" opacity=".4"/>
   </g>
  </g>
 </g>
</svg>
