<svg width="512" height="512" enable-background="new" version="1.0" xmlns="http://www.w3.org/2000/svg">
 <defs>
  <filter id="a" x="-.024" y="-.024" width="1.048" height="1.048" color-interpolation-filters="sRGB">
   <feGaussianBlur stdDeviation="4.8"/>
  </filter>
 </defs>
 <g transform="translate(5.3644e-6 208)">
  <g transform="translate(-208,16)">
   <circle cx="464" cy="30" r="240" opacity=".2"/>
   <circle cx="464" cy="32" r="240" filter="url(#a)" opacity=".1"/>
   <circle cx="464" cy="32" r="240" filter="url(#a)" opacity=".2"/>
   <circle cx="464" cy="28" r="240" fill="#2196f3"/>
   <path transform="translate(0,-244)" d="m 464,32 a 240,240 0 0 0 -240,240 240,240 0 0 0 0.041,1.17188 A 240,240 0 0 1 464,34 240,240 0 0 1 703.95898,272.82812 240,240 0 0 0 704,272 240,240 0 0 0 464,32 Z" fill="#fff" opacity=".2"/>
  </g>
 </g>
 <path d="m256 148c41.421 0 76.694 25.359 91.875 61.25 38.557 5.7316 68.125 38.599 68.125 78.75 0 44.183-35.817 80-80 80h-170c-38.66 0-70-31.34-70-70 0-35.931 27.016-65.374 61.875-69.375 9.0914-45.868 49.588-80.625 98.125-80.625z" enable-background="new" fill="#fff"/>
</svg>
