<svg width="512" height="512" enable-background="new" version="1.0" xmlns="http://www.w3.org/2000/svg" xmlns:osb="http://www.openswatchbook.org/uri/2009/osb" xmlns:xlink="http://www.w3.org/1999/xlink">
 <defs>
  <filter id="a" x="-.022286" y="-.026" width="1.0446" height="1.052" color-interpolation-filters="sRGB">
   <feGaussianBlur stdDeviation="4.1599986"/>
  </filter>
 </defs>
 <g transform="translate(0,212)">
  <g></g>
  <g transform="translate(-208,16)">
   <g>
    <rect transform="matrix(0,-1,-1,0,0,0)" x="-224" y="-688" width="384" height="448" rx="36" ry="36" enable-background="new" filter="url(#a)" opacity=".1"/>
    <rect transform="matrix(0,-1,-1,0,0,0)" x="-224" y="-688" width="384" height="448" rx="36" ry="36" enable-background="new" filter="url(#a)" opacity=".2"/>
    <rect transform="matrix(0,-1,-1,0,0,0)" x="-222" y="-688" width="384" height="448" rx="36" ry="36" enable-background="new" opacity=".2"/>
   </g>
   <rect transform="matrix(0,-1,-1,0,0,0)" x="-220" y="-688" width="384" height="448" rx="36" ry="36" enable-background="new" fill="#546e7a"/>
   <path d="m276-164c-19.944 0-36 16.056-36 36v2c0-19.944 16.056-36 36-36h376c19.944 0 36 16.056 36 36v-2c0-19.944-16.056-36-36-36z" enable-background="new" fill="#fff" opacity=".2"/>
   <path d="m428-116-3.1718 37.93a113.14 113.14 0 0 0-33.07 19.125l-34.473-16.234-36 62.359 31.301 21.734a113.14 113.14 0 0 0-1.7306 19.086 113.14 113.14 0 0 0 1.6484 19.164l-31.219 21.656 36 62.359 34.394-16.191a113.14 113.14 0 0 0 33.145 19.004l3.1758 38.008h72l3.1718-37.93a113.14 113.14 0 0 0 33.07-19.125l34.473 16.234 36-62.359-31.301-21.734a113.14 113.14 0 0 0 1.7306-19.086 113.14 113.14 0 0 0-1.6484-19.164l31.219-21.656-36-62.359-34.394 16.191a113.14 113.14 0 0 0-33.145-19.004l-3.1758-38.008zm36 96a48 48 0 0 1 48 48 48 48 0 0 1-48 48 48 48 0 0 1-48-48 48 48 0 0 1 48-48z" enable-background="new" fill="#cfd8dc"/>
  </g>
 </g>
</svg>
