<svg width="64" height="64" version="1.1" viewBox="0 0 64 64" xmlns="http://www.w3.org/2000/svg">
 <defs>
  <filter id="filter6636" x="-.075" y="-.075" width="1.15" height="1.15" color-interpolation-filters="sRGB">
   <feGaussianBlur stdDeviation="1.6875"/>
  </filter>
 </defs>
 <rect x="5" y="6" width="54" height="54" rx="9" ry="9" fill="#000000" filter="url(#filter6636)" opacity=".2" stroke-width="1.8"/>
 <rect x="5" y="5" width="54" height="54" rx="9" ry="9" fill="#2aaaff" stroke-width="1.8"/>
 <g fill="#ffffff" stroke-linecap="round" stroke-linejoin="round" stroke-width="2">
  <rect x="11" y="11" width="19" height="19" rx="3" ry="3"/>
  <path d="m37 11c-1.662 0-3 1.338-3 3v13c0 1.662 1.338 3 3 3h13c1.662 0 3-1.338 3-3v-13c0-1.662-1.338-3-3-3zm0 2h13c0.554 0 1 0.446 1 1v13c0 0.554-0.446 1-1 1h-13c-0.554 0-1-0.446-1-1v-13c0-0.554 0.446-1 1-1z"/>
  <path d="m37 34c-1.662 0-3 1.338-3 3v13c0 1.662 1.338 3 3 3h13c1.662 0 3-1.338 3-3v-13c0-1.662-1.338-3-3-3zm0 2h13c0.554 0 1 0.446 1 1v13c0 0.554-0.446 1-1 1h-13c-0.554 0-1-0.446-1-1v-13c0-0.554 0.446-1 1-1z"/>
  <path d="m14 34c-1.662 0-3 1.338-3 3v13c0 1.662 1.338 3 3 3h13c1.662 0 3-1.338 3-3v-13c0-1.662-1.338-3-3-3zm0 2h13c0.554 0 1 0.446 1 1v13c0 0.554-0.446 1-1 1h-13c-0.554 0-1-0.446-1-1v-13c0-0.554 0.446-1 1-1z"/>
 </g>
 <path d="m14 5c-4.986 0-9 4.014-9 9v1c0-4.986 4.014-9 9-9h36c4.986 0 9 4.014 9 9v-1c0-4.986-4.014-9-9-9h-36z" fill="#ffffff" opacity=".1" stroke-width="1.8"/>
</svg>
