<svg width="512" height="512" enable-background="new" version="1.0" xmlns="http://www.w3.org/2000/svg">
 <defs>
  <filter id="a" x="-.022615" y="-.025565" width="1.0452" height="1.0511" color-interpolation-filters="sRGB">
   <feGaussianBlur stdDeviation="3.92"/>
  </filter>
  <filter id="b" x="-.045" y="-.09" width="1.09" height="1.18" color-interpolation-filters="sRGB">
   <feGaussianBlur stdDeviation="3"/>
  </filter>
 </defs>
 <g transform="translate(0,212)">
  <g>
   <g transform="translate(-208,16)">
    <g>
     <path d="m400-112v19.437l-132.44 237.44c-7.3956 11.28-11.556 24.725-11.556 39.125 0 39.764 31.042 72 69.333 72h277.33c38.292 0 69.333-32.236 69.333-72 0-14.4-4.16-27.845-11.556-39.125l-132.44-237.44v-19.437z" enable-background="new" filter="url(#a)" opacity=".1"/>
     <path d="m400-112v19.437l-132.44 237.44c-7.3956 11.28-11.556 24.725-11.556 39.125 0 39.764 31.042 72 69.333 72h277.33c38.292 0 69.333-32.236 69.333-72 0-14.4-4.16-27.845-11.556-39.125l-132.44-237.44v-19.437z" enable-background="new" filter="url(#a)" opacity=".2"/>
     <path d="m400-114v19.437l-132.44 237.44c-7.3956 11.28-11.556 24.725-11.556 39.125 0 39.764 31.042 72 69.333 72h277.33c38.292 0 69.333-32.236 69.333-72 0-14.4-4.16-27.845-11.556-39.125l-132.44-237.44v-19.437z" enable-background="new" opacity=".2"/>
    </g>
    <path d="m400-148v51.437l-132.44 237.44c-7.3956 11.28-11.556 24.725-11.556 39.125 0 39.764 31.042 72 69.333 72h277.33c38.292 0 69.333-32.236 69.333-72 0-14.4-4.16-27.845-11.556-39.125l-132.44-237.44v-51.437z" enable-background="new" fill="#07ce8e"/>
    <path d="m302.22 180c0 13.255 10.347 24 23.111 24h277.33c12.764 0 23.111-10.745 23.111-24 0-5.04-1.6178-9.84-4.16-13.68l-52.924-95.04s-12.249-35.28-58.471-35.28-46.222 48-92.444 48-44.886-37.397-44.886-37.397l-66.51 119.72c-2.5422 3.84-4.16 8.64-4.16 13.68m138.67-216c-12.764 0-23.111 10.745-23.111 24s10.347 24 23.111 24c12.764 0 23.111-10.745 23.111-24s-10.347-24-23.111-24z" enable-background="new" fill="#fff"/>
    <rect x="384" y="-208" width="160" height="80" ry="16" filter="url(#b)" opacity=".2"/>
    <rect x="384" y="-212" width="160" height="80" ry="16" fill="#fff"/>
    <path transform="translate(0,-244)" d="m400 32c-8.864 0-16 7.136-16 16v2c0-8.864 7.136-16 16-16h128c8.864 0 16 7.136 16 16v-2c0-8.864-7.136-16-16-16z" fill="#fff" opacity=".2"/>
   </g>
  </g>
 </g>
</svg>
