<svg width="512" height="512" enable-background="new" version="1.0" xmlns="http://www.w3.org/2000/svg">
 <defs>
  <filter id="a-3" x="-.022667" y="-.0255" width="1.0453" height="1.051" color-interpolation-filters="sRGB">
   <feGaussianBlur stdDeviation="1.36"/>
  </filter>
  <filter id="b-7" x="-.038636" y="-.030357" width="1.0773" height="1.0607" color-interpolation-filters="sRGB">
   <feGaussianBlur stdDeviation="4"/>
  </filter>
 </defs>
 <rect x="304" y="94" width="144" height="128" ry="10" filter="url(#a-3)" opacity=".2"/>
 <rect x="304" y="92" width="144" height="144" ry="10" fill="#4bae4f"/>
 <rect x="304" y="198" width="144" height="128" ry="10" filter="url(#a-3)" opacity=".2"/>
 <rect x="304" y="196" width="144" height="128" ry="10" fill="#f34235"/>
 <rect x="304" y="302" width="144" height="128" ry="10" filter="url(#a-3)" opacity=".2"/>
 <rect x="304" y="300" width="144" height="128" ry="10" fill="#fec006"/>
 <path d="m314 300c-5.54 0-10 4.46-10 10v2c0-5.54 4.46-10 10-10h124c5.54 0 10 4.46 10 10v-2c0-5.54-4.46-10-10-10z" fill="#ffffff" opacity=".2"/>
 <path d="m314 92c-5.54 0-10 4.46-10 10v2c0-5.54 4.46-10 10-10h124c5.54 0 10 4.46 10 10v-2c0-5.54-4.46-10-10-10z" fill="#ffffff" opacity=".2"/>
 <path d="m314 196c-5.54 0-10 4.46-10 10v2c0-5.54 4.46-10 10-10h124c5.54 0 10 4.46 10 10v-2c0-5.54-4.46-10-10-10z" fill="#ffffff" opacity=".2"/>
 <path transform="matrix(-1,0,0,1,720,228)" d="m312-192c-13.296 0-24 10.704-24 24v400c0 13.296 10.704 24 24 24h304c13.296 0 24-10.704 24-24v-400c0-13.296-10.704-24-24-24h-152z" filter="url(#b-7)" opacity=".1" stroke="#000000" stroke-width="8"/>
 <path d="m104 36c-13.296 0-24 10.704-24 24v400c0 13.296 10.704 24 24 24h304c13.296 0 24-10.704 24-24v-400c0-13.296-10.704-24-24-24h-152z" filter="url(#b-7)" opacity=".2"/>
 <path d="m104 32c-13.296 0-24 10.704-24 24v400c0 13.296 10.704 24 24 24h304c13.296 0 24-10.704 24-24v-400c0-13.296-10.704-24-24-24h-152z" fill="#435ece"/>
 <path d="m104 32c-13.296 0-24 10.704-24 24v2c0-13.296 10.704-24 24-24h304c13.296 0 24 10.704 24 24v-2c0-13.296-10.704-24-24-24h-152z" fill="#ffffff" opacity=".2"/>
 <g transform="matrix(1.0026 0 0 1.0026 1.6437 1.3211)" fill="#ffffff" stroke-width="17.639">
  <path d="m253.69 142.3c29.226 0 52.917 23.692 52.917 52.917s-23.691 52.917-52.917 52.917c-29.226 0-52.917-23.692-52.917-52.917s23.691-52.917 52.917-52.917z"/>
  <path d="m253.69 277.53c105.83-0.053 105.83 70.554 105.83 70.554v17.627h-211.66v-17.627s0-70.507 105.84-70.568z"/>
 </g>
</svg>
