<svg width="512" height="512" enable-background="new" version="1.0" xmlns="http://www.w3.org/2000/svg">
 <defs>
  <filter id="b" x="-.024" y="-.024" width="1.048" height="1.048" color-interpolation-filters="sRGB">
   <feGaussianBlur stdDeviation="4.48"/>
  </filter>
  <filter id="a" x="-.024" y="-.024" width="1.048" height="1.048" color-interpolation-filters="sRGB">
   <feGaussianBlur stdDeviation="4.48"/>
  </filter>
 </defs>
 <rect transform="matrix(0,-1,-1,0,-208,228)" x="-256" y="-688" width="448" height="448" rx="224" ry="224" filter="url(#b)" opacity=".1" stroke="#000" stroke-width="8"/>
 <rect transform="matrix(0,-1,-1,0,-208,228)" x="-256" y="-688" width="448" height="448" rx="224" ry="224" filter="url(#a)" opacity=".2"/>
 <rect transform="matrix(0,-1,-1,0,0,0)" x="-480" y="-480" width="448" height="448" rx="224" ry="224" fill="#03a9f4"/>
 <path d="m256 32c-124.1 0-224 99.904-224 224 0 0.23298 0.0112 0.46332 0.0156 0.69531 0.69904-123.49 100.32-222.7 223.98-222.7 123.67 0 223.3 99.216 223.98 222.71 5e-3 -0.23849 0.0156-0.47532 0.0156-0.71484 0-124.1-99.904-224-224-224z" fill="#fff" opacity=".2"/>
 <path d="m256 480c-124.1 0-224-99.904-224-224 0-0.23297 0.0112-0.46332 0.0156-0.69531 0.69904 123.49 100.32 222.7 223.98 222.7 123.67 0 223.3-99.216 223.98-222.71 5e-3 0.23849 0.0156 0.47532 0.0156 0.71484 0 124.1-99.904 224-224 224z" opacity=".1"/>
 <path d="m277.79 154.42a62.654 62.654 0 0 0-55.656 34.327 43.091 43.091 0 0 0-23.329-6.8653 43.758 43.758 0 0 0-43.558 43.925c0 3.8659 0.5999 7.5985 1.5331 11.164a65.987 65.987 0 0 0-28.778 54.722c0 36.509 29.161 65.887 65.37 65.887h125.28c36.21 0 65.354-29.378 65.354-65.887a65.72 65.72 0 0 0-44.591-62.454c0.69985-3.7826 1.0164-7.6652 1.0164-11.664 0-34.876-28.044-63.154-62.638-63.154z" fill="#f9f9f9" overflow="visible" stroke-width="16.663"/>
</svg>
