<svg width="512" height="512" enable-background="new" version="1.0" xmlns="http://www.w3.org/2000/svg">
 <defs>
  <filter id="a" x="-.022714" y="-.02544" width="1.0454" height="1.0509" color-interpolation-filters="sRGB">
   <feGaussianBlur stdDeviation="4.2399902"/>
  </filter>
  <filter id="e" x="-.6" y="-.6" width="2.2" height="2.2" color-interpolation-filters="sRGB">
   <feGaussianBlur stdDeviation="4"/>
  </filter>
  <filter id="d" x="-.090375" y="-.090375" width="1.1808" height="1.1808" color-interpolation-filters="sRGB">
   <feGaussianBlur stdDeviation="3.615"/>
  </filter>
  <filter id="c" x="-.090375" y="-.090375" width="1.1808" height="1.1808" color-interpolation-filters="sRGB">
   <feGaussianBlur stdDeviation="3.615"/>
  </filter>
  <filter id="b" x="-.090375" y="-.090375" width="1.1808" height="1.1808" color-interpolation-filters="sRGB">
   <feGaussianBlur stdDeviation="3.615"/>
  </filter>
 </defs>
 <g transform="translate(0,212)">
  <g transform="translate(-208,656)">
   <path d="m264-800c-13.296 0-24 10.704-24 24v352c0 13.296 10.704 24 24 24h400c13.296 0 24-10.704 24-24v-352c0-13.296-10.704-24-24-24z" filter="url(#a)" opacity=".1"/>
   <path d="m264-800c-13.296 0-24 10.704-24 24v352c0 13.296 10.704 24 24 24h400c13.296 0 24-10.704 24-24v-352c0-13.296-10.704-24-24-24z" filter="url(#a)" opacity=".2"/>
   <path d="m264-802c-13.296 0-24 10.704-24 24v352c0 13.296 10.704 24 24 24h400c13.296 0 24-10.704 24-24v-352c0-13.296-10.704-24-24-24z" opacity=".2"/>
   <path d="m264-804c-13.296 0-24 10.704-24 24v24h448v-24c0-13.296-10.704-24-24-24z" fill="#4d4d4d"/>
   <path d="m240-756v328c0 13.296 10.704 24 24 24h400c13.296 0 24-10.704 24-24v-328z" fill="#03a9f4"/>
   <path d="m240-430v2c0 13.296 10.704 24 24 24h400c13.296 0 24-10.704 24-24v-2c0 13.296-10.704 24-24 24h-400c-13.296 0-24-10.704-24-24z" opacity=".2"/>
   <path d="m264-804c-13.296 0-24 10.704-24 24v2c0-13.296 10.704-24 24-24h400c13.296 0 24 10.704 24 24v-2c0-13.296-10.704-24-24-24z" fill="#fff" opacity=".1"/>
   <path transform="translate(208,-868)" d="m32 392.68v47.322c0 13.296 10.704 24 24 24h400c13.296 0 24-10.704 24-24v-47.322h-448z" opacity=".15"/>
  </g>
 </g>
 <g>
  <rect x="72" y="320.4" width="96" height="96" rx="0" ry="15.322" filter="url(#d)" opacity=".15" style="paint-order:normal"/>
  <rect x="72" y="316" width="96" height="96" rx="0" ry="15.322" fill="#a2e2fe" style="paint-order:normal"/>
  <rect x="342" y="340.4" width="96" height="96" rx="0" ry="15.322" filter="url(#c)" opacity=".15" style="paint-order:normal"/>
  <rect x="342" y="336" width="96" height="96" rx="0" ry="15.322" fill="#a2e2fe" style="paint-order:normal"/>
  <rect x="208" y="340.4" width="96" height="96" rx="0" ry="15.322" filter="url(#b)" opacity=".15" style="paint-order:normal"/>
  <rect x="208" y="336" width="96" height="96" rx="0" ry="15.322" fill="#a2e2fe" style="paint-order:normal"/>
  <circle cx="120" cy="434" r="8" fill="#fff" filter="url(#e)" style="paint-order:normal"/>
 </g>
</svg>
