<svg width="64" height="64" version="1.1" viewBox="0 0 64 64" xmlns="http://www.w3.org/2000/svg">
 <defs>
  <filter id="filter1374" x="-.033792" y="-.02816" width="1.0676" height="1.0563" color-interpolation-filters="sRGB">
   <feGaussianBlur stdDeviation="0.67583998"/>
  </filter>
  <filter id="filter1419" x="-.034335" y="-.027794" width="1.0687" height="1.0556" color-interpolation-filters="sRGB">
   <feGaussianBlur stdDeviation="0.6008625"/>
  </filter>
 </defs>
 <path d="m8 4v21.842c0.1152 8.2344 0.5928 15.055 4.0392 20.09 4.1544 6.0408 11.059 11.371 19.961 15.667 8.8824-4.2864 15.83-9.624 19.978-15.667 3.4464-5.0352 3.9072-11.856 4.0224-20.09v-21.842" fill="#000000" filter="url(#filter1374)" opacity=".35"/>
 <path d="m8 3v21.842c0.1152 8.2344 0.5928 15.055 4.0392 20.09 4.1544 6.0408 11.059 11.371 19.961 15.667 8.8824-4.2864 15.83-9.624 19.978-15.667 3.4464-5.0352 3.9072-11.856 4.0224-20.09v-21.842" fill="#ececec"/>
 <path d="m11 7v19.533c0.08124 5.9328 0.73048 10.781 2.3691 14.916l31.572-34.449h-33.941zm42 7.1719-32.043 37.367c3.1473 2.7887 6.7814 5.1594 11.154 7.3457 7.7314-3.8689 13.779-8.6633 17.389-14.111 3.0011-4.5443 3.3979-10.699 3.5-18.129v-12.473z" fill="#000000" filter="url(#filter1419)" opacity=".15"/>
 <path d="m53 13.172-32.042 37.366c3.1473 2.7887 6.7798 5.1609 11.153 7.3472 7.7314-3.8689 13.78-8.665 17.389-14.113 3.0011-4.5443 3.398-10.698 3.5001-18.128" fill="#c82a2a"/>
 <path d="m11 6v19.533c0.08124 5.9328 0.73113 10.781 2.3698 14.916l31.571-34.448" fill="#25a125"/>
</svg>
