<svg width="512" height="512" enable-background="new" version="1.0" xmlns="http://www.w3.org/2000/svg">
 <defs>
  <filter id="a" x="-.024" y="-.024" width="1.048" height="1.048" color-interpolation-filters="sRGB">
   <feGaussianBlur stdDeviation="4.48"/>
  </filter>
  <filter id="b" x="-.06" y="-.06" width="1.12" height="1.12" color-interpolation-filters="sRGB">
   <feGaussianBlur stdDeviation="6"/>
  </filter>
 </defs>
 <rect transform="matrix(0,-1,-1,0,-208,224.8)" x="-256" y="-688" width="448" height="448" rx="224" ry="224" filter="url(#a)" opacity=".1" stroke="#000" stroke-width="8"/>
 <rect transform="matrix(0,-1,-1,0,-208,224.8)" x="-256" y="-688" width="448" height="448" rx="224" ry="224" filter="url(#a)" opacity=".2"/>
 <rect transform="matrix(0,-1,-1,0,0,0)" x="-476.8" y="-480" width="448" height="448" rx="224" ry="224" fill="#3f51b5"/>
 <g fill="none" stroke="#fff">
  <circle cx="256" cy="252.8" r="152" stroke-linecap="round" stroke-linejoin="round" stroke-width="16"/>
  <path d="m104 252.8h304" stroke-width="16"/>
  <path d="m256.06 100.84a153.46 153.46 0 0 0-117.33 54.547c28.151 15.567 70.261 25.459 117.33 25.459 46.989 0 89.035-9.8602 117.19-25.383a153.46 153.46 0 0 0-117.19-54.623zm0 224.01c-47.952 0-90.762 10.264-118.9 26.34a153.46 153.46 0 0 0 118.9 56.582 153.46 153.46 0 0 0 118.89-56.59c-28.142-16.071-70.944-26.332-118.89-26.332z" stroke-linecap="round" stroke-linejoin="round" stroke-width="16"/>
  <path d="m256 100.8v306.92" stroke-width="16"/>
  <path d="m176 252.8c0-83.947 34.798-152 80-152s80 68.053 80 152-34.797 152-80 152c-45.202 0-80-68.052-80-152z" stroke-linecap="round" stroke-linejoin="round" stroke-width="16"/>
 </g>
 <path d="m256 28.8c-124.1 0-224 99.904-224 224 0 0.233 0.0112 0.4633 0.0156 0.6953 0.69904-123.49 100.32-222.7 223.98-222.7 123.67 0 223.3 99.216 223.98 222.71 5e-3 -0.2384 0.0156-0.4753 0.0156-0.7148 0-124.1-99.904-224-224-224z" fill="#fff" opacity=".1"/>
 <circle cx="376" cy="380.8" r="120" enable-background="new" filter="url(#b)" opacity=".5"/>
 <circle cx="376" cy="372.8" r="120" enable-background="new" fill="#f44336"/>
 <rect transform="rotate(90)" x="364.8" y="-448" width="16" height="144" rx="0" ry="0" fill="#fff"/>
</svg>
