<svg width="512" height="512" enable-background="new" version="1.0" xmlns="http://www.w3.org/2000/svg">
 <defs>
  <clipPath id="b">
   <circle cx="160" cy="184" r="15" fill="none" stroke="#fff" stroke-linecap="round" stroke-linejoin="round" stroke-width="2"/>
  </clipPath>
  <filter id="a" x="-.024" y="-.024" width="1.048" height="1.048" color-interpolation-filters="sRGB">
   <feGaussianBlur stdDeviation="4.48"/>
  </filter>
  <filter id="d" x="-.0675" y="-.054" width="1.135" height="1.108" color-interpolation-filters="sRGB">
   <feGaussianBlur stdDeviation="0.3375"/>
  </filter>
 </defs>
 <g transform="translate(0,212)">
  <g transform="translate(-208.48,2496)">
   <rect transform="matrix(0 -1 -1 0 0 -2480)" x="-256" y="-688" width="448" height="448" rx="224" ry="224" filter="url(#a)" opacity=".1" stroke="#000" stroke-width="8"/>
   <rect transform="matrix(0 -1 -1 0 0 -2480)" x="-256" y="-688" width="448" height="448" rx="224" ry="224" filter="url(#a)" opacity=".2"/>
   <rect transform="matrix(0,-1,-1,0,0,0)" x="2228" y="-688" width="448" height="448" rx="224" ry="224" fill="#3f51b5"/>
   <g fill="none" stroke="#fff">
    <circle cx="464" cy="-2452" r="152" stroke-linecap="round" stroke-linejoin="round" stroke-width="16"/>
    <path d="m312-2452h304" stroke-width="16"/>
    <path transform="matrix(10.231 0 0 10.231 -1172.9 -4333)" d="m160 162.82c-8.2843 0-15 3.134-15 7s6.7157 7 15 7 15-3.134 15-7-6.7157-7-15-7zm0 28.075c-8.2843 0-15 3.134-15 7s6.7157 7 15 7 15-3.134 15-7-6.7157-7-15-7z" clip-path="url(#b)" stroke-linecap="round" stroke-linejoin="round" stroke-width="1.5639"/>
    <path d="m464-2604v306.92" stroke-width="16"/>
    <path d="m384-2452c0-83.947 34.798-152 80-152s80 68.053 80 152-34.797 152-80 152c-45.202 0-80-68.052-80-152z" stroke-linecap="round" stroke-linejoin="round" stroke-width="16"/>
   </g>
   <path d="m464-2676c-124.1 0-224 99.904-224 224 0 0.233 0.0112 0.4633 0.0156 0.6953 0.69904-123.49 100.32-222.7 223.98-222.7 123.67 0 223.3 99.216 223.98 222.71 5e-3 -0.2384 0.0156-0.4753 0.0156-0.7148 0-124.1-99.904-224-224-224z" fill="#fff" opacity=".1"/>
   <g transform="matrix(16,0,0,16,-1340,32924)">
    <path d="m122-2211.4c-2.216 0-4 1.784-4 4v2h-1c-0.554 0-1 0.446-1 1v7c0 0.554 0.446 1 1 1h10c0.554 0 1-0.446 1-1v-7c0-0.554-0.446-1-1-1h-1v-2c0-2.216-1.784-4-4-4zm0 2c1.108 0 2 0.892 2 2v2h-4v-2c0-1.108 0.892-2 2-2z" enable-background="new" filter="url(#d)" opacity=".2"/>
    <path d="m122-2212c-2.216 0-4 1.784-4 4v2h2v-2c0-1.108 0.892-2 2-2s2 0.892 2 2v2h2v-2c0-2.216-1.784-4-4-4z" enable-background="new" fill="#f9f9f9"/>
    <rect transform="matrix(0,-1,-1,0,0,0)" x="2197" y="-128" width="9" height="12" rx="1" ry="1" enable-background="new" fill="#f9ce1d"/>
    <rect x="116" y="-2204" width="12" height="5" rx="0" ry="0" enable-background="new" fill="#fadd60"/>
   </g>
  </g>
 </g>
</svg>
