<svg width="512" height="512" enable-background="new" version="1.0" xmlns="http://www.w3.org/2000/svg">
 <defs>
  <clipPath id="c">
   <circle cx="160" cy="184" r="15" fill="none" stroke="#fff" stroke-linecap="round" stroke-linejoin="round" stroke-width="2"/>
  </clipPath>
  <filter id="a" x="-.024" y="-.024" width="1.048" height="1.048" color-interpolation-filters="sRGB">
   <feGaussianBlur stdDeviation="4.48"/>
  </filter>
  <filter id="b" x="-.06" y="-.06" width="1.12" height="1.12" color-interpolation-filters="sRGB">
   <feGaussianBlur stdDeviation="6"/>
  </filter>
 </defs>
 <g transform="translate(0,212)">
  <g transform="translate(-208 1852.8)">
   <rect transform="matrix(0 -1 -1 0 0 -1840)" x="-256" y="-688" width="448" height="448" rx="224" ry="224" filter="url(#a)" opacity=".1" stroke="#000" stroke-width="8"/>
   <rect transform="matrix(0 -1 -1 0 0 -1840)" x="-256" y="-688" width="448" height="448" rx="224" ry="224" filter="url(#a)" opacity=".2"/>
   <rect transform="matrix(0,-1,-1,0,0,0)" x="1588" y="-688" width="448" height="448" rx="224" ry="224" fill="#3f51b5"/>
   <g fill="none" stroke="#fff">
    <circle cx="464" cy="-1812" r="152" stroke-linecap="round" stroke-linejoin="round" stroke-width="16"/>
    <path d="m312-1812h304" stroke-width="16"/>
    <path transform="matrix(10.231 0 0 10.231 -1172.9 -3693)" d="m160 162.82c-8.2843 0-15 3.134-15 7s6.7157 7 15 7 15-3.134 15-7-6.7157-7-15-7zm0 28.075c-8.2843 0-15 3.134-15 7s6.7157 7 15 7 15-3.134 15-7-6.7157-7-15-7z" clip-path="url(#c)" stroke-linecap="round" stroke-linejoin="round" stroke-width="1.5639"/>
    <path d="m464-1964v306.92" stroke-width="16"/>
    <path d="m384-1812c0-83.947 34.798-152 80-152s80 68.053 80 152-34.797 152-80 152c-45.202 0-80-68.052-80-152z" stroke-linecap="round" stroke-linejoin="round" stroke-width="16"/>
   </g>
   <path d="m464-2036c-124.1 0-224 99.904-224 224 0 0.233 0.0112 0.4633 0.0156 0.6953 0.69904-123.49 100.32-222.7 223.98-222.7 123.67 0 223.3 99.216 223.98 222.71 5e-3 -0.2384 0.0156-0.4753 0.0156-0.7148 0-124.1-99.904-224-224-224z" fill="#fff" opacity=".1"/>
   <circle cx="584" cy="-1684" r="120" enable-background="new" filter="url(#b)" opacity=".5"/>
   <circle cx="584" cy="-1692" r="120" enable-background="new" fill="#f44336"/>
   <path transform="translate(0,-244)" d="m538.75-1504.6-11.314 11.312 45.254 45.256-45.254 45.254 11.314 11.314 45.254-45.254 45.254 45.254 11.314-11.314-45.254-45.254 45.254-45.256-11.314-11.312-45.254 45.254z" fill="#fff"/>
  </g>
 </g>
</svg>
