<svg width="512" height="512" enable-background="new" version="1.0" xmlns="http://www.w3.org/2000/svg" xmlns:osb="http://www.openswatchbook.org/uri/2009/osb">
 <defs>
  <filter id="a" x="-.024" y="-.024" width="1.048" height="1.048" color-interpolation-filters="sRGB">
   <feGaussianBlur stdDeviation="4.6600004"/>
  </filter>
 </defs>
 <g transform="translate(0,212)">
  <g>
   <g transform="translate(-208,16)">
    <path d="m455-201c-23.609 23.297-46.209 49.821-70.094 73h-89.906v89.906c-23.182 23.886-49.7 46.484-73 70.094 23.298 23.61 49.82 47.104 73 71.063v88.937h89.906c23.886 23.181 46.484 49.7 70.094 73 23.61-23.298 47.104-49.82 71.063-73h88.937v-88.969c23.181-23.955 49.702-47.423 73-71.031-23.298-23.61-49.82-46.207-73-70.094v-89.906h-88.937c-23.957-23.181-47.454-49.701-71.063-73zm0 137c-53.017 0-96 42.983-96 96s42.983 96 96 96z" filter="url(#a)" opacity=".1" stroke="#000" stroke-width="8"/>
    <path d="m455-201c-23.609 23.297-46.209 49.821-70.094 73h-89.906v89.906c-23.182 23.886-49.7 46.484-73 70.094 23.298 23.61 49.82 47.104 73 71.063v88.937h89.906c23.886 23.181 46.484 49.7 70.094 73 23.61-23.298 47.104-49.82 71.063-73h88.937v-88.969c23.181-23.955 49.702-47.423 73-71.031-23.298-23.61-49.82-46.207-73-70.094v-89.906h-88.937c-23.957-23.181-47.454-49.701-71.063-73zm0 137c-53.017 0-96 42.983-96 96s42.983 96 96 96z" filter="url(#a)" opacity=".2"/>
    <path d="m455-205c-23.609 23.297-46.209 49.821-70.094 73h-89.906v89.906c-23.182 23.886-49.7 46.484-73 70.094 23.298 23.61 49.82 47.104 73 71.063v88.937h89.906c23.886 23.181 46.484 49.7 70.094 73 23.61-23.298 47.104-49.82 71.063-73h88.937v-88.969c23.181-23.955 49.702-47.423 73-71.031-23.298-23.61-49.82-46.207-73-70.094v-89.906h-88.937c-23.957-23.181-47.454-49.701-71.063-73zm0 137c-53.017 0-96 42.983-96 96s42.983 96 96 96z" fill="#607d8b"/>
    <path d="m455-100a128 128 0 0 0-128 128 128 128 0 0 0 128 128z" fill="#fff"/>
    <path transform="translate(0,-244)" d="m455 39c-23.609 23.297-46.209 49.821-70.094 73h-89.906v2h89.906c23.885-23.179 46.485-49.703 70.094-73 23.609 23.299 47.105 49.819 71.062 73h88.938v-2h-88.938c-23.957-23.181-47.454-49.701-71.062-73zm-160 162.91c-23.182 23.886-49.7 46.484-73 70.094 0.32605 0.33043 0.67105 0.6601 1.0059 0.99023 23.057-23.245 49.143-45.539 71.994-69.084zm320 0v2c22.849 23.546 48.939 45.839 71.994 69.084 0.33481-0.33014 0.67979-0.65984 1.0059-0.99023-23.298-23.61-49.82-46.207-73-70.094z" fill="#fff" opacity=".2"/>
   </g>
  </g>
 </g>
</svg>
