<svg width="64" height="64" version="1.1" xmlns="http://www.w3.org/2000/svg">
 <defs>
  <filter id="a" x="-.040321" y="-.032515" width="1.0806" height="1.065" color-interpolation-filters="sRGB">
   <feGaussianBlur stdDeviation="0.75868674"/>
  </filter>
 </defs>
 <path d="m33.031 5.1545c-0.26669-0.00759-0.53097-0.00398-0.79297 0.00977-3.6541 0.19-7.2195 1.6463-7.4395 8.0664-0.1 2.94 0.59501 5.9722-0.125 8.8242-1.67 6.616-9.0151 11.344-9.4551 18.152-0.08783 1.3621-0.08588 2.8113 0.01172 4.2832-0.35523 0.49674-0.69414 1.0299-1.1445 1.3906-1.262 1.008-3.3796 1.138-4.0996 2.582-0.676 1.36 0.75091 3.0671 0.37891 4.5391-0.14 0.55999-0.98136 0.87516-0.94336 1.4512 0.092 1.458 1.5799 2.5938 2.8359 3.3398 1.5861 0.944 3.6399 0.63681 5.4199 1.1328 1.222 0.33999 2.3238 1.3098 3.5918 1.2598 0.94674-0.03627 2.0156-0.18181 2.9941-0.49609 2.7716 0.06426 5.9407-2.0137 8.8535-2.2129 1.7077-0.11542 3.5504 0.38202 5.3223 0.65625 0.06122 0.83638 0.29204 1.6088 0.87891 2.127 1.568 1.38 4.2936 0.91481 6.2617 0.2168 1.198-0.424 1.8591-1.732 2.8691-2.5 1.468-1.12 3.4912-1.6005 4.6152-3.0625 0.89001-1.16 1.8524-2.7643 1.3984-4.1523-0.18-0.54801-1.0761-0.53005-1.4141-0.99805-0.89001-1.23-0.19812-3.3396-1.3281-4.3516-0.23147-0.20667-0.49516-0.34564-0.77734-0.44531 0.32172-1.6035 0.47911-3.2148 0.45508-4.7598-0.108-6.764-7.5861-11.487-9.3281-18.027-0.748-2.804-0.23691-5.7973-0.37891-8.6953-0.28125-5.6776-4.6598-8.2163-8.6602-8.3301z" filter="url(#a)" opacity=".15"/>
 <path d="m24.674 20.904c0.72001-2.852 0.026-5.8841 0.126-8.8241 0.22-6.4201 3.784-7.8761 7.4381-8.0661 4.192-0.22 9.1541 2.264 9.4541 8.3201 0.142 2.898-0.37 5.8921 0.378 8.6961 1.742 6.5401 9.2201 11.262 9.3281 18.026 0.1 6.4281-2.86 14.004-8.3201 17.396-2.82 1.752-6.6461-0.35-9.9601-0.126-3.686 0.252-7.7861 3.526-10.966 1.64-5.7721-3.426-7.3641-12.21-6.9321-18.91 0.44-6.8081 7.7841-11.536 9.4541-18.152z" fill="#2f3133"/>
 <ellipse cx="34.94" cy="15.564" rx="2.964" ry="3.832" fill="#fcfcfc" fill-opacity=".941"/>
 <ellipse cx="27.92" cy="15.698" rx="2.094" ry="3.12" fill="#fcfcfc" fill-opacity=".941"/>
 <ellipse cx="34.572" cy="16.188" rx="1.214" ry="2.006" fill="#232629"/>
 <ellipse cx="27.93" cy="16.188" rx=".92401" ry="1.494" fill="#232629"/>
 <path d="m34.548 19.514a10.136 10.136 0 0 0-1.09 8e-3c-2.46 0.144-5.0961 1.11-6.4281 2.28-2.132 1.874-0.86801 3.696-1.786 6.3281s-3.228 6.0761-3.92 9.3601c-0.28 1.326-0.63601 2.652-0.88001 3.984l6.5861 8.0481c1.294 1.58-2.082 0.99401-5.2221-1.04 2.228 3.134 6.6481 6.2401 11.012 5.9461 4.648-0.312 10.136-5.1721 11.892-9.1461-1.704-0.288-3.36-2.852-1.996-4.7621 0.474-0.66201 1.492-0.72001 2.366-0.58001-0.526-2.036-1.574-3.86-2.1-5.3921-0.91201-2.672-1.972-3.42-2.94-5.7921-0.97001-2.372 0.054-6.7601-2.676-8.4681-0.76801-0.48-1.75-0.72001-2.818-0.77401z" fill="#f7f7f8"/>
 <g fill="#f7a931">
  <path d="m14.085 44.73c0.97401-0.78001 1.43-2.366 2.646-2.648 0.95201-0.22 2.02 0.326 2.774 0.94601 1.722 1.416 1.984 4.028 3.34 5.8001 0.90401 1.178 2.436 1.848 3.152 3.15 0.74601 1.36 1.708 3.156 1.008 4.538-0.94401 1.862-3.648 2.44-5.7361 2.52-1.268 0.05-2.37-0.92001-3.592-1.26-1.78-0.496-3.834-0.19-5.4201-1.134-1.256-0.74601-2.744-1.882-2.836-3.34-0.038-0.57601 0.80401-0.89001 0.94401-1.45 0.372-1.472-1.054-3.18-0.378-4.54 0.72001-1.444 2.836-1.574 4.098-2.582z"/>
  <path d="m42.28 42.538c-0.402 0.36-0.74201 0.81401-0.99001 1.264-1.076 1.954-0.35 4.48-0.95401 6.6261-0.404 1.43-1.578 2.62-1.76 4.092-0.19 1.54-0.42 3.564 0.74201 4.59 1.568 1.38 4.294 0.91401 6.2621 0.216 1.198-0.424 1.86-1.732 2.87-2.5 1.468-1.12 3.49-1.6 4.614-3.062 0.89001-1.16 1.854-2.764 1.4-4.152-0.18-0.54801-1.076-0.53001-1.414-0.99801-0.89001-1.23-0.2-3.34-1.33-4.352-0.84001-0.75001-2.074-0.66401-3.266-0.69601-0.57601 1.234-2.452 2.074-3.742 1.716-1.092-0.304-2.18-1.546-2.432-2.744z"/>
  <path d="m30.882 16.304c1.318-0.07 2.53 0.78401 3.72 1.354 1.15 0.55401 3.114 0.72001 3.276 1.986 0.186 1.438-1.84 2.286-3.024 3.12-1.058 0.74601-2.238 1.62-3.53 1.608-1.306-0.014-2.462-0.95001-3.53-1.702-0.88001-0.62001-2.266-1.192-2.3-2.27-0.038-1.152 1.38-1.886 2.3-2.584 0.91201-0.69201 1.944-1.452 3.088-1.512z"/>
 </g>
</svg>
