<svg width="512" height="512" version="1.1" xmlns="http://www.w3.org/2000/svg">
 <defs>
  <filter id="a" x="-.021429" y="-.027273" width="1.0429" height="1.0545" color-interpolation-filters="sRGB">
   <feGaussianBlur stdDeviation="4"/>
  </filter>
 </defs>
 <rect transform="matrix(0,-1,-1,0,0,0)" x="-434" y="-480" width="352" height="448" rx="24" ry="24" opacity=".2"/>
 <rect transform="matrix(0,-1,-1,0,-208,228)" x="-208" y="-688" width="352" height="448" rx="24" ry="24" filter="url(#a)" opacity=".1" stroke="#000" stroke-width="8"/>
 <rect transform="matrix(0,-1,-1,0,-208,228)" x="-208" y="-688" width="352" height="448" rx="24" ry="24" filter="url(#a)" opacity=".2"/>
 <rect transform="matrix(0,-1,-1,0,0,0)" x="-432" y="-480" width="352" height="448" rx="24" ry="24" fill="#78909c"/>
 <path d="m56 80c-13.296 0-24 10.704-24 24v2c0-13.296 10.704-24 24-24h400c13.296 0 24 10.704 24 24v-2c0-13.296-10.704-24-24-24z" fill="#fff" opacity=".2"/>
 <rect x="64" y="112" width="384" height="288" rx="0" ry="0" fill="#fff" opacity=".2"/>
 <g transform="matrix(12 0 0 12 -4550.8 -6149.6)" stroke-width=".66667">
  <path transform="translate(384.57,515.8)" d="m4 11v6h7v-5h-3l-1-1z" fill="#fff"/>
  <path d="m388.57 534.8v6h7v-5h-3l-1-1z" fill="#fff" opacity=".75"/>
  <path d="m398.57 526.8v6h5v-4l-2-2z" fill="#ffa86d"/>
  <path d="m401.57 526.8 2 2h-2z" fill="#ff7214" fill-rule="evenodd"/>
  <path d="m398.57 534.8v6h5v-4l-2-2z" fill="#94d669"/>
  <path d="m401.57 534.8 2 2h-2z" fill="#67b632" fill-rule="evenodd"/>
  <rect x="406.57" y="526.8" width="6" height="6" rx="2.6e-5" fill="#fff"/>
  <rect x="407.57" y="528.8" width="4" height="2" rx="1" opacity=".15"/>
  <rect x="409.57" y="528.8" width="2" height="2" rx="1" fill="#3daee9"/>
 </g>
</svg>
