<svg width="512" height="512" version="1.1" xmlns="http://www.w3.org/2000/svg">
 <defs>
  <filter id="a" x="-.022714" y="-.02544" width="1.0454" height="1.0509" color-interpolation-filters="sRGB">
   <feGaussianBlur stdDeviation="4.24"/>
  </filter>
  <linearGradient id="f" x1="-180" x2="-228" y1="-472" y2="-472" gradientTransform="translate(14)" gradientUnits="userSpaceOnUse">
   <stop offset="0"/>
   <stop stop-opacity="0" offset="1"/>
  </linearGradient>
  <filter id="c" color-interpolation-filters="sRGB">
   <feGaussianBlur stdDeviation="2.4"/>
  </filter>
 </defs>
 <g transform="translate(8.7479e-8 212)">
  <g transform="translate(-208,16)">
   <path d="m264-158c-13.296 0-24 10.704-24 24v304c0 13.296 10.704 24 24 24h104v40c0 4.432 3.568 8 8 8h176c4.432 0 8-3.568 8-8v-40h104c13.296 0 24-10.704 24-24v-304c0-13.296-10.704-24-24-24z" filter="url(#a)" opacity=".1"/>
   <path d="m264-158c-13.296 0-24 10.704-24 24v304c0 13.296 10.704 24 24 24h104v40c0 4.432 3.568 8 8 8h176c4.432 0 8-3.568 8-8v-40h104c13.296 0 24-10.704 24-24v-304c0-13.296-10.704-24-24-24z" filter="url(#a)" opacity=".2"/>
   <path d="m264-160c-13.296 0-24 10.704-24 24v304c0 13.296 10.704 24 24 24h104v40c0 4.432 3.568 8 8 8h176c4.432 0 8-3.568 8-8v-40h104c13.296 0 24-10.704 24-24v-304c0-13.296-10.704-24-24-24z" opacity=".2"/>
   <rect transform="matrix(0,-1,-1,0,0,0)" x="-238" y="-560" width="104" height="192" ry="8" fill="#b0bec5"/>
   <rect transform="matrix(0,-1,-1,0,0,0)" x="-238" y="-560" width="104" height="192" ry="8" fill="url(#f)" opacity=".2"/>
   <rect transform="matrix(0,-1,-1,0,0,0)" x="-190" y="-688" width="352" height="448" rx="24" ry="24" fill="#cfd8dc"/>
   <path d="m264-162c-13.296 0-24 10.704-24 24v2c0-13.296 10.704-24 24-24h400c13.296 0 24 10.704 24 24v-2c0-13.296-10.704-24-24-24z" fill="#fff" opacity=".2"/>
   <path d="m368 191h192" fill="none" filter="url(#c)" opacity=".2" stroke="#000" stroke-width="2"/>
   <rect transform="matrix(0,-1,-1,0,0,0)" x="-112" y="-672" width="256" height="416" ry="4" fill="#fff" opacity=".5"/>
   <rect transform="matrix(0,-1,-1,0,0,0)" x="-110" y="-672" width="256" height="416" ry="4" fill="#263238" opacity=".8"/>
  </g>
 </g>
 <g transform="matrix(8 0 0 7.9994 -13.016 7.7183)" opacity=".5">
  <path d="m18.948 10.286h20.001v2.0001h-20.001zm0 12.001h16.001v2.0001h-16.001zm0 4.0003h16.001v2.0001h-16.001zm0 4.0003h12.001v2.0001h-12.001zm0-16.001h16.001v2.0001h-16.001zm0 4.0003h12.001v2.0001h-12.001zm0 16.001h20.001v2.0001h-20.001zm0 4.0003h12.001v2.0001h-12.001z" fill="#fff" stroke-width="1.4142"/>
  <path d="m10.949 10.286h6.0004v2.0001h-6.0004zm0 4.0003h6.0004v2.0001h-6.0004zm0 4.0003h6.0004v2.0001h-6.0004zm0 4.0003h6.0004v2.0001h-6.0004zm0 4.0003h6.0004v2.0001h-6.0004zm0 4.0003h6.0004v2.0001h-6.0004zm0 4.0003h6.0004v2.0001h-6.0004zm0 4.0003h6.0004v2.0001h-6.0004z" fill="#41f045"/>
 </g>
</svg>
