<?xml version="1.0" encoding="UTF-8" standalone="no"?>
<svg
   width="512"
   height="512"
   version="1.1"
   viewBox="0 0 512 512"
   id="svg55"
   sodipodi:docname="preferences-system-splash.svg"
   inkscape:version="1.1 (c4e8f9ed74, 2021-05-24)"
   xmlns:inkscape="http://www.inkscape.org/namespaces/inkscape"
   xmlns:sodipodi="http://sodipodi.sourceforge.net/DTD/sodipodi-0.dtd"
   xmlns="http://www.w3.org/2000/svg"
   xmlns:svg="http://www.w3.org/2000/svg">
  <sodipodi:namedview
     id="namedview57"
     pagecolor="#ffffff"
     bordercolor="#666666"
     borderopacity="1.0"
     inkscape:pageshadow="2"
     inkscape:pageopacity="0.0"
     inkscape:pagecheckerboard="0"
     showgrid="false"
     inkscape:zoom="0.64160156"
     inkscape:cx="136.37747"
     inkscape:cy="226.77626"
     inkscape:window-width="1504"
     inkscape:window-height="913"
     inkscape:window-x="236"
     inkscape:window-y="270"
     inkscape:window-maximized="0"
     inkscape:current-layer="svg55">
    <inkscape:grid
       type="xygrid"
       id="grid1333" />
  </sodipodi:namedview>
  <defs
     id="defs13">
    <filter
       id="a"
       x="-0.022714284"
       y="-0.025439999"
       width="1.0454286"
       height="1.05088"
       color-interpolation-filters="sRGB">
      <feGaussianBlur
         stdDeviation="4.24"
         id="feGaussianBlur2" />
    </filter>
    <linearGradient
       id="f"
       x1="-180"
       x2="-228"
       y1="-472"
       y2="-472"
       gradientTransform="translate(14)"
       gradientUnits="userSpaceOnUse">
      <stop
         offset="0"
         id="stop5" />
      <stop
         stop-opacity="0"
         offset="1"
         id="stop7" />
    </linearGradient>
    <filter
       id="c"
       color-interpolation-filters="sRGB"
       x="-0.030000001"
       y="-inf"
       width="1.06"
       height="inf">
      <feGaussianBlur
         stdDeviation="2.4"
         id="feGaussianBlur10" />
    </filter>
    <filter
       inkscape:collect="always"
       style="color-interpolation-filters:sRGB"
       id="filter1353"
       x="-0.069590485"
       y="-0.24103712"
       width="1.139181"
       height="1.4820742">
      <feGaussianBlur
         inkscape:collect="always"
         stdDeviation="6.1963675"
         id="feGaussianBlur1355" />
    </filter>
  </defs>
  <linearGradient
     id="m"
     x1="16"
     x2="16"
     y1="18"
     y2="6"
     gradientTransform="translate(44.967,1009.3)"
     gradientUnits="userSpaceOnUse">
    <stop
       stop-color="#f0f0f0"
       offset="0"
       id="stop15" />
    <stop
       stop-color="#fcfcfc"
       offset="1"
       id="stop17" />
  </linearGradient>
  <linearGradient
     id="n"
     x1="19.514"
     x2="15"
     y1="15.555"
     y2="11"
     gradientTransform="translate(44.967,1009.3)"
     gradientUnits="userSpaceOnUse">
    <stop
       stop-color="#f3f3f3"
       offset="0"
       id="stop20" />
    <stop
       stop-color="#fcfcfc"
       stop-opacity="0"
       offset="1"
       id="stop22" />
  </linearGradient>
  <g
     transform="translate(8.7479e-8 212)"
     id="g47">
    <g
       transform="translate(-208,16)"
       id="g45">
      <path
         d="m264-158c-13.296 0-24 10.704-24 24v304c0 13.296 10.704 24 24 24h104v40c0 4.432 3.568 8 8 8h176c4.432 0 8-3.568 8-8v-40h104c13.296 0 24-10.704 24-24v-304c0-13.296-10.704-24-24-24z"
         filter="url(#a)"
         opacity=".1"
         id="path25" />
      <path
         d="m264-158c-13.296 0-24 10.704-24 24v304c0 13.296 10.704 24 24 24h104v40c0 4.432 3.568 8 8 8h176c4.432 0 8-3.568 8-8v-40h104c13.296 0 24-10.704 24-24v-304c0-13.296-10.704-24-24-24z"
         filter="url(#a)"
         opacity=".2"
         id="path27" />
      <path
         d="m264-160c-13.296 0-24 10.704-24 24v304c0 13.296 10.704 24 24 24h104v40c0 4.432 3.568 8 8 8h176c4.432 0 8-3.568 8-8v-40h104c13.296 0 24-10.704 24-24v-304c0-13.296-10.704-24-24-24z"
         opacity=".2"
         id="path29" />
      <rect
         transform="matrix(0,-1,-1,0,0,0)"
         x="-238"
         y="-560"
         width="104"
         height="192"
         ry="8"
         fill="#b0bec5"
         id="rect31" />
      <rect
         transform="matrix(0,-1,-1,0,0,0)"
         x="-238"
         y="-560"
         width="104"
         height="192"
         ry="8"
         fill="url(#f)"
         opacity=".2"
         id="rect33" />
      <rect
         transform="matrix(0,-1,-1,0,0,0)"
         x="-190"
         y="-688"
         width="352"
         height="448"
         rx="24"
         ry="24"
         fill="#cfd8dc"
         id="rect35" />
      <path
         d="m264-162c-13.296 0-24 10.704-24 24v2c0-13.296 10.704-24 24-24h400c13.296 0 24 10.704 24 24v-2c0-13.296-10.704-24-24-24z"
         fill="#fff"
         opacity=".2"
         id="path37" />
      <path
         d="m368 191h192"
         fill="none"
         filter="url(#c)"
         opacity=".2"
         stroke="#000"
         stroke-width="2"
         id="path39" />
      <rect
         transform="matrix(0,-1,-1,0,0,0)"
         x="-112"
         y="-672"
         width="256"
         height="416"
         ry="4"
         fill="#fff"
         opacity=".5"
         id="rect41" />
      <rect
         transform="matrix(0,-1,-1,0,0,0)"
         x="-110"
         y="-672"
         width="256"
         height="416"
         ry="4"
         fill="#263238"
         opacity=".8"
         id="rect43" />
    </g>
  </g>
  <rect
     style="opacity:0.35;fill:#000000;fill-opacity:1;stroke:none;stroke-width:2.30294;stroke-linecap:round;stroke-linejoin:round;paint-order:stroke fill markers;filter:url(#filter1353)"
     id="rect1331"
     width="213.69705"
     height="61.69706"
     x="149.15147"
     y="185"
     rx="14.286258"
     ry="14.286258" />
  <rect
     style="opacity:1;fill:#889296;fill-opacity:1;stroke:none;stroke-width:2.30294;stroke-linecap:round;stroke-linejoin:round;paint-order:stroke fill markers"
     id="rect976"
     width="213.69705"
     height="61.69706"
     x="149.15147"
     y="179.15147"
     rx="14.286258"
     ry="14.286258" />
  <circle
     style="opacity:1;fill:#ffffff;fill-opacity:1;stroke:none;stroke-width:2.87353;stroke-linecap:round;stroke-linejoin:round;paint-order:stroke fill markers"
     id="path6955"
     cx="178.04868"
     cy="210.01527"
     r="12" />
  <circle
     style="opacity:1;fill:#ffffff;fill-opacity:1;stroke:none;stroke-width:2.87353;stroke-linecap:round;stroke-linejoin:round;paint-order:stroke fill markers"
     id="circle7055"
     cx="213.33145"
     cy="210.01527"
     r="12" />
  <circle
     style="opacity:1;fill:#ffffff;fill-opacity:1;stroke:none;stroke-width:2.87353;stroke-linecap:round;stroke-linejoin:round;paint-order:stroke fill markers"
     id="circle7057"
     cx="248.61423"
     cy="210.01527"
     r="12" />
  <circle
     style="opacity:1;fill:#ffffff;fill-opacity:1;stroke:none;stroke-width:2.87353;stroke-linecap:round;stroke-linejoin:round;paint-order:stroke fill markers"
     id="circle7059"
     cx="283.897"
     cy="210.01527"
     r="12" />
  <rect
     style="opacity:1;fill:#ffffff;fill-opacity:1;stroke:none;stroke-width:1.40838;stroke-linecap:round;stroke-linejoin:round;paint-order:stroke fill markers"
     id="rect7083"
     width="2"
     height="48"
     x="308.14282"
     y="186"
     rx="0.24576683"
     ry="0.50441986" />
</svg>
