<svg width="512" height="512" version="1.1" xmlns="http://www.w3.org/2000/svg">
 <defs>
  <filter id="a" x="-.021429" y="-.027273" width="1.0429" height="1.0545" color-interpolation-filters="sRGB">
   <feGaussianBlur stdDeviation="4"/>
  </filter>
  <filter id="b" x="-.061756" y="-.058341" width="1.1235" height="1.1167" color-interpolation-filters="sRGB">
   <feGaussianBlur stdDeviation="3.5004532"/>
  </filter>
 </defs>
 <linearGradient id="k" x1="15" x2="9" y1="9" y2="9" gradientTransform="matrix(21.334 0 0 48 -38.01 -200)" gradientUnits="userSpaceOnUse">
  <stop stop-color="#fff" stop-opacity=".62222" offset="0"/>
  <stop stop-color="#fff" stop-opacity="0" offset="1"/>
 </linearGradient>
 <rect transform="matrix(0,-1,-1,0,0,0)" x="-434" y="-480" width="352" height="448" rx="24" ry="24" opacity=".2"/>
 <rect transform="matrix(0,-1,-1,0,-208,228)" x="-208" y="-688" width="352" height="448" rx="24" ry="24" filter="url(#a)" opacity=".1" stroke="#000" stroke-width="8"/>
 <rect transform="matrix(0,-1,-1,0,-208,228)" x="-208" y="-688" width="352" height="448" rx="24" ry="24" filter="url(#a)" opacity=".2"/>
 <rect transform="matrix(0,-1,-1,0,0,0)" x="-432" y="-480" width="352" height="448" rx="24" ry="24" fill="#78909c"/>
 <path d="m56 80c-13.296 0-24 10.704-24 24v2c0-13.296 10.704-24 24-24h400c13.296 0 24 10.704 24 24v-2c0-13.296-10.704-24-24-24z" fill="#fff" opacity=".2"/>
 <rect x="64" y="112" width="384" height="288" rx="0" ry="0" fill="#fff" opacity=".2"/>
 <g stroke-width="8">
  <path d="m153.99 184h128v48h-128z" fill="url(#k)" fill-rule="evenodd"/>
  <path d="m284.57 328 65.894-0.4216 7.4575-74.586c1.5635-15.121-17.178-21.416-22.373-7.4575 0.064-16.766-17.178-18.865-22.383-7.4678 0.6584-13.846-16.942-19.205-22.373-7.4575v-29.83c0-22.373-22.373-22.373-22.373 0v67.128c-37.298-37.298-46.442-10.492-46.442-10.492 25.346 17.106 40.836 70.728 62.592 70.584z" filter="url(#b)" opacity=".15"/>
  <path d="m284.57 328 65.894-0.4216 7.4575-74.586c1.5635-15.121-17.178-21.416-22.373-7.4575 0.064-16.766-17.178-18.865-22.383-7.4678 0.6584-13.846-16.942-19.205-22.373-7.4575v-29.83c0-22.373-22.373-22.373-22.373 0v67.128c-37.298-37.298-46.442-10.492-46.442-10.492 25.346 17.106 40.836 70.728 62.592 70.584z" fill="#fff"/>
 </g>
</svg>
