<svg width="512" height="512" version="1.1" xmlns="http://www.w3.org/2000/svg" xmlns:xlink="http://www.w3.org/1999/xlink">
 <defs>
  <filter id="c" x="-.027273" y="-.021429" width="1.0545" height="1.0429" color-interpolation-filters="sRGB">
   <feGaussianBlur stdDeviation="4"/>
  </filter>
  <filter id="d" x="-.06" y="-.06" width="1.12" height="1.12" color-interpolation-filters="sRGB">
   <feGaussianBlur stdDeviation="6"/>
  </filter>
 </defs>
 <linearGradient id="a">
  <stop stop-color="#292c2f" offset="0"/>
  <stop stop-opacity="0" offset="1"/>
 </linearGradient>
 <linearGradient id="b" x1="388.42" x2="388.42" y1="557.8" y2="505.8" gradientTransform="matrix(.58696 0 0 .53846 -271.92 -233.34)" gradientUnits="userSpaceOnUse">
  <stop stop-color="#7f8c8d" offset="0"/>
  <stop stop-color="#afb0b3" offset="1"/>
 </linearGradient>
 <use transform="translate(27,470)" width="100%" height="100%" fill="#1a1a1a" fill-rule="evenodd" xlink:href="#a"/>
 <use transform="translate(27.003,470.01)" width="100%" height="100%" fill="#ffffff" fill-rule="evenodd" opacity=".1" xlink:href="#b"/>
 <g transform="translate(-3.2215e-8 212)">
  <g transform="translate(-1008,656)">
   <rect transform="matrix(0,-1,-1,0,800,-640)" x="-256" y="-640" width="448" height="352" rx="24" ry="24" filter="url(#c)" opacity=".1" stroke="#000" stroke-width="8"/>
   <rect transform="matrix(0,-1,-1,0,800,-640)" x="-256" y="-640" width="448" height="352" rx="24" ry="24" filter="url(#c)" opacity=".2"/>
   <rect transform="matrix(0,-1,-1,0,0,0)" x="388" y="-1440" width="448" height="352" rx="24" ry="24" fill="#78909c"/>
   <path d="m1112-386c-13.296 0-24-10.704-24-24v-2c0 13.296 10.704 24 24 24h304c13.296 0 24-10.704 24-24v2c0 13.296-10.704 24-24 24z" opacity=".2"/>
   <path d="m1112-836c-13.296 0-24 10.704-24 24v2c0-13.296 10.704-24 24-24h304c13.296 0 24 10.704 24 24v-2c0-13.296-10.704-24-24-24z" fill="#fff" opacity=".2"/>
   <path d="m1264-770c61.856 0 112 50.144 112 112s-50.144 112-112 112h-112v-112c0-61.856 50.144-112 112-112zm0 56c-30.928 0-56 25.072-56 56s25.072 56 56 56 56-25.072 56-56-25.072-56-56-56z" enable-background="new" fill="#fff" opacity=".2"/>
   <path d="m1264-772c61.856 0 112 50.144 112 112s-50.144 112-112 112h-112v-112c0-61.856 50.144-112 112-112zm0 56c-30.928 0-56 25.072-56 56s25.072 56 56 56 56-25.072 56-56-25.072-56-56-56z" enable-background="new" fill="#455a64"/>
   <circle cx="1384" cy="-484" r="120" enable-background="new" filter="url(#d)" opacity=".5"/>
   <circle cx="1384" cy="-492" r="120" enable-background="new" fill="#f6b44d"/>
  </g>
 </g>
 <path d="m376 304c-39.888 0-72 32.112-72 72s32.112 72 72 72 72-32.112 72-72-32.112-72-72-72m0 9c34.902 0 63 28.098 63 63s-28.098 63-63 63-63-28.098-63-63 28.098-63 63-63m-9 9v63h54v-9h-45v-54z" fill="#fff" stroke-width="6"/>
</svg>
