<svg width="512" height="512" enable-background="new" version="1.0" xmlns="http://www.w3.org/2000/svg" xmlns:osb="http://www.openswatchbook.org/uri/2009/osb">
 <defs>
  <filter id="b" x="-.021429" y="-.027273" width="1.0429" height="1.0545" color-interpolation-filters="sRGB">
   <feGaussianBlur stdDeviation="3.9999896"/>
  </filter>
  <clipPath id="a">
   <rect x="240" y="-3908" width="448" height="352" ry="24" color="#000000" color-rendering="auto" enable-background="accumulate" fill="#f55" fill-rule="evenodd" image-rendering="auto" shape-rendering="auto" solid-color="#000000" style="isolation:auto;mix-blend-mode:normal"/>
  </clipPath>
 </defs>
 <g transform="translate(0,212)"></g>
 <g transform="translate(0,212)"></g>
 <g transform="translate(0,212)"></g>
 <g transform="translate(0,212)"></g>
 <g transform="translate(0,212)"></g>
 <g transform="translate(0,212)">
  <g>
   <g transform="translate(-208 3136)">
    <rect transform="matrix(0 -1 -1 0 .00195 -3120)" x="-208" y="-688" width="352" height="448" rx="24" ry="24" filter="url(#b)" opacity=".2"/>
    <rect transform="matrix(0 -1 -1 0 .00195 -3120)" x="-208" y="-688" width="352" height="448" rx="24" ry="24" filter="url(#b)" opacity=".1" stroke="#000" stroke-width="8"/>
    <path d="m264-3268c-13.296 0-24 10.704-24 24v304c0 13.296 10.704 24 24 24h400c13.296 0 24-10.704 24-24v-304c0-13.296-10.704-24-24-24z" fill="#03a9f4"/>
    <path d="m264-3268c-13.296 0-24 10.704-24 24v2c0-13.296 10.704-24 24-24h400c13.296 0 24 10.704 24 24v-2c0-13.296-10.704-24-24-24z" fill="#fff" opacity=".2"/>
    <path d="m264-2916c-13.296 0-24-10.704-24-24v-2c0 13.296 10.704 24 24 24h400c13.296 0 24-10.704 24-24v2c0 13.296-10.704 24-24 24z" opacity=".1"/>
    <g fill="#fff" fill-rule="evenodd" shape-rendering="auto">
     <circle transform="translate(0,640)" cx="240" cy="-3908" r="80" clip-path="url(#a)" color="#000000" color-rendering="auto" enable-background="accumulate" image-rendering="auto" solid-color="#000000" style="isolation:auto;mix-blend-mode:normal"/>
     <circle transform="matrix(-1,0,0,1,928,640)" cx="240" cy="-3908" r="80" clip-path="url(#a)" color="#000000" color-rendering="auto" enable-background="accumulate" image-rendering="auto" opacity=".6" solid-color="#000000" style="isolation:auto;mix-blend-mode:normal"/>
     <circle transform="rotate(180,464,-3412)" cx="240" cy="-3908" r="80" clip-path="url(#a)" color="#000000" color-rendering="auto" enable-background="accumulate" image-rendering="auto" opacity=".6" solid-color="#000000" style="isolation:auto;mix-blend-mode:normal"/>
     <circle transform="matrix(1,0,0,-1,0,-6824)" cx="240" cy="-3908" r="80" clip-path="url(#a)" color="#000000" color-rendering="auto" enable-background="accumulate" image-rendering="auto" opacity=".6" solid-color="#000000" style="isolation:auto;mix-blend-mode:normal"/>
    </g>
   </g>
  </g>
 </g>
</svg>
