<svg width="512" height="512" enable-background="new" version="1.0" xmlns="http://www.w3.org/2000/svg" xmlns:osb="http://www.openswatchbook.org/uri/2009/osb" xmlns:xlink="http://www.w3.org/1999/xlink">
 <defs>
  <filter id="a" x="-.024" y="-.024" width="1.048" height="1.048" color-interpolation-filters="sRGB">
   <feGaussianBlur stdDeviation="4.8"/>
  </filter>
 </defs>
 <g transform="translate(0,212)">
  <g display="none">
   <rect transform="scale(-1,1)" x="-720" y="-228" width="512" height="512" display="inline" enable-background="accumulate" fill="#e9e9e9"/>
   <text id="context" x="15.006836" y="332.48523" display="inline" enable-background="new" fill="#000000" font-family="'DejaVu Sans'" style="line-height:0%" xml:space="preserve"><tspan x="15.006836" y="332.48523" font-family="'DejaVu Sans'" font-size="18px" style="line-height:1.25">categories</tspan></text>
   <text id="icon-name" x="142.48828" y="332.48523" display="inline" enable-background="new" fill="#000000" font-family="'DejaVu Sans'" font-weight="bold" style="line-height:0%" xml:space="preserve"><tspan x="142.48828" y="332.48523" font-family="'DejaVu Sans'" font-size="18px" font-weight="bold" style="line-height:1.25">preferences-desktop-default-applications</tspan></text>
   <g fill="#e9e9e9">
    <rect transform="scale(-1,1)" x="-32" y="268" width="16" height="16" display="inline" enable-background="accumulate"/>
    <rect transform="scale(-1,1)" x="-76" y="260" width="24" height="24" display="inline" enable-background="accumulate"/>
    <rect transform="scale(-1,1)" x="-128" y="252" width="32" height="32" display="inline" enable-background="accumulate"/>
    <rect transform="scale(-1,1)" x="-192" y="236" width="48" height="48" display="inline" enable-background="accumulate"/>
   </g>
  </g>
  <g></g>
  <g transform="translate(-208,16)">
   <g>
    <circle cx="464" cy="32" r="240" enable-background="new" filter="url(#a)" opacity=".2"/>
    <circle cx="464" cy="30" r="240" enable-background="new" opacity=".2"/>
    <circle cx="464" cy="32" r="240" enable-background="new" filter="url(#a)" opacity=".1" stroke="#000" stroke-width="8"/>
   </g>
   <circle cx="464" cy="28" r="240" enable-background="new" fill="#607d8b"/>
   <path transform="translate(0,-244)" d="m 464,32 a 240,240 0 0 0 -240,240 240,240 0 0 0 0.041,1.17188 A 240,240 0 0 1 464,34 240,240 0 0 1 703.95898,272.82812 240,240 0 0 0 704,272 240,240 0 0 0 464,32 Z" enable-background="new" fill="#fff" opacity=".2"/>
   <path d="m464-138.17-42.375 109.9-117.62 6.3413 91.43 74.269-30.316 113.82 98.886-64.003 98.875 64.003-30.305-113.82 91.43-74.269-117.62-6.3413z" color="#000000" enable-background="accumulate" fill="#eceff1" style="text-decoration-line:none;text-indent:0;text-transform:none"/>
  </g>
 </g>
</svg>
