<svg width="512" height="512" enable-background="new" version="1.0" xmlns="http://www.w3.org/2000/svg" xmlns:osb="http://www.openswatchbook.org/uri/2009/osb" xmlns:xlink="http://www.w3.org/1999/xlink">
 <defs>
  <filter id="a" x="-.024" y="-.024" width="1.048" height="1.048" color-interpolation-filters="sRGB">
   <feGaussianBlur stdDeviation="4.48"/>
  </filter>
 </defs>
 <g transform="translate(0,212)">
  <g>
   <g transform="translate(-208,16)">
    <rect transform="matrix(0,-1,-1,0,0,0)" x="-256" y="-688" width="448" height="448" rx="224" ry="224" filter="url(#a)" opacity=".1" stroke="#000" stroke-width="8"/>
    <rect transform="matrix(0,-1,-1,0,0,0)" x="-256" y="-688" width="448" height="448" rx="224" ry="224" filter="url(#a)" opacity=".2"/>
    <rect transform="matrix(0,-1,-1,0,0,0)" x="-252" y="-688" width="448" height="448" rx="224" ry="224" fill="#2196f3"/>
    <path transform="translate(0,76)" d="m464-272c-124.1 0-224 99.904-224 224 0 0.67412 3e-3 1.3363 0 2 0-124.1 99.904-224 224-224s224 99.904 224 224c-3e-3 -0.66367 0-1.3259 0-2 0-124.1-99.904-224-224-224z" fill="#fff" opacity=".2"/>
    <path d="m464-100c-70.692 0-128 57.308-128 128s57.308 128 128 128h80s15 0 16-16c0-16-16-16-16-16h-80c-53.019 0-96-42.981-96-96s42.981-96 96-96 96 42.981 96 96v16c0 8.8365-7.1635 16-16 16s-16-7.1635-16-16v-16c0-35.346-28.654-64-64-64s-64 28.654-64 64 28.654 64 64 64c16.739 0 31.845-6.5744 43.25-17.094 9.1256 10.844 22.577 17.101 36.75 17.094 26.51 0 48-21.49 48-48v-16c0-70.692-57.308-128-128-128zm0 96c17.673 0 32 14.327 32 32s-14.327 32-32 32-32-14.327-32-32 14.327-32 32-32z" enable-background="new" fill="#fff"/>
    <path d="m464 252c-124.1 0-224-99.904-224-224 0-0.67412 3e-3 -1.3363 0-2 0 124.1 99.904 224 224 224s224-99.904 224-224c-3e-3 0.66367 0 1.3259 0 2 0 124.1-99.904 224-224 224z" opacity=".1"/>
   </g>
  </g>
 </g>
</svg>
