<svg width="512" height="512" enable-background="new" version="1.0" xmlns="http://www.w3.org/2000/svg">
 <defs>
  <filter id="a" x="-.024" y="-.024" width="1.048" height="1.048" color-interpolation-filters="sRGB">
   <feGaussianBlur stdDeviation="4.8"/>
  </filter>
 </defs>
 <g transform="translate(0,212)">
  <g transform="translate(-208,16)">
   <circle cx="464" cy="30" r="240" opacity=".2"/>
   <circle cx="464" cy="32" r="240" filter="url(#a)" opacity=".1"/>
   <circle cx="464" cy="32" r="240" filter="url(#a)" opacity=".2"/>
   <circle cx="464" cy="28" r="240" fill="#6391ed"/>
   <path transform="translate(0,-244)" d="m 464,32 a 240,240 0 0 0 -240,240 240,240 0 0 0 0.041,1.17188 A 240,240 0 0 1 464,34 240,240 0 0 1 703.95898,272.82812 240,240 0 0 0 704,272 240,240 0 0 0 464,32 Z" fill="#fff" opacity=".2"/>
   <path d="m428-116-3.1718 37.93a113.14 113.14 0 0 0-33.07 19.125l-34.473-16.234-36 62.359 31.301 21.734a113.14 113.14 0 0 0-1.7306 19.086 113.14 113.14 0 0 0 1.6484 19.164l-31.219 21.656 36 62.359 34.394-16.191a113.14 113.14 0 0 0 33.145 19.004l3.1758 38.008h72l3.1718-37.93a113.14 113.14 0 0 0 33.07-19.125l34.473 16.234 36-62.359-31.301-21.734a113.14 113.14 0 0 0 1.7306-19.086 113.14 113.14 0 0 0-1.6484-19.164l31.219-21.656-36-62.359-34.394 16.191a113.14 113.14 0 0 0-33.145-19.004l-3.1758-38.008zm36 96a48 48 0 0 1 48 48 48 48 0 0 1-48 48 48 48 0 0 1-48-48 48 48 0 0 1 48-48z" enable-background="new" fill="#fff"/>
  </g>
 </g>
</svg>
