<svg width="512" height="512" enable-background="new" version="1.0" xmlns="http://www.w3.org/2000/svg">
 <defs>
  <filter id="b" x="-.021429" y="-.027273" width="1.0429" height="1.0545" color-interpolation-filters="sRGB">
   <feGaussianBlur stdDeviation="3.9999896"/>
  </filter>
 </defs>
 <rect transform="matrix(0 -1 -1 0 -208 228)" x="-208" y="-688" width="352" height="448" rx="24" ry="24" filter="url(#b)" opacity=".2"/>
 <rect transform="matrix(0 -1 -1 0 -208 228)" x="-208" y="-688" width="352" height="448" rx="24" ry="24" filter="url(#b)" opacity=".1" stroke="#000" stroke-width="8"/>
 <path d="m56 80c-13.296 0-24 10.704-24 24v304c0 13.296 10.704 24 24 24h400c13.296 0 24-10.704 24-24v-304c0-13.296-10.704-24-24-24z" fill="#03a9f4"/>
 <path d="m56 80c-13.296 0-24 10.704-24 24v2c0-13.296 10.704-24 24-24h400c13.296 0 24 10.704 24 24v-2c0-13.296-10.704-24-24-24z" fill="#fff" opacity=".2"/>
 <path d="m56 432c-13.296 0-24-10.704-24-24v-2c0 13.296 10.704 24 24 24h400c13.296 0 24-10.704 24-24v2c0 13.296-10.704 24-24 24z" opacity=".1"/>
 <g fill="#fff" fill-rule="evenodd" shape-rendering="auto">
  <path d="m56 80c-13.296 0-24 10.704-24 24v56a80 80 0 0 0 80-80h-56z" color="#000000" color-rendering="auto" enable-background="accumulate" image-rendering="auto" solid-color="#000000" style="isolation:auto;mix-blend-mode:normal"/>
  <path d="m400 80a80 80 0 0 0 80 80v-56c0-13.296-10.704-24-24-24h-56z" color="#000000" color-rendering="auto" enable-background="accumulate" image-rendering="auto" opacity=".6" solid-color="#000000" style="isolation:auto;mix-blend-mode:normal"/>
  <path d="m480 352a80 80 0 0 0-80 80h56c13.296 0 24-10.704 24-24v-56z" color="#000000" color-rendering="auto" enable-background="accumulate" image-rendering="auto" opacity=".6" solid-color="#000000" style="isolation:auto;mix-blend-mode:normal"/>
  <path d="m32 352v56c0 13.296 10.704 24 24 24h56a80 80 0 0 0-80-80z" color="#000000" color-rendering="auto" enable-background="accumulate" image-rendering="auto" opacity=".6" solid-color="#000000" style="isolation:auto;mix-blend-mode:normal"/>
 </g>
</svg>
