<svg width="64" height="64" version="1.1" xmlns="http://www.w3.org/2000/svg">
 <defs>
  <filter id="a" x="-.036" y="-.036" width="1.072" height="1.072" color-interpolation-filters="sRGB">
   <feGaussianBlur stdDeviation="0.81"/>
  </filter>
 </defs>
 <rect x="5" y="5.6712" width="54" height="54" rx="27" filter="url(#a)" opacity=".2"/>
 <rect x="5" y="5" width="54" height="54" rx="27" fill="#3f51b5"/>
 <path d="m32 22.508c-3.052 2.12-6.48 3.192-9.9199 3.92 1.63 9.2439 5.14 13.198 9.9199 15.674 4.78-2.476 8.2899-6.43 9.9199-15.674-3.44-0.72799-6.868-1.8-9.9199-3.92zm0-4.508s-3.5 4.648-14 5.814c0 0 0 16.34 14 22.186 14-5.848 14-22.186 14-22.186-10.5-1.166-14-5.814-14-5.814zm0 2.41c2.776 2.354 6.786 3.922 11.98 4.714-0.28 2.528-0.554 4.43-1.206 6.27-1.376 3.866-2.976 6.22-4.41 7.9099-2.23 2.622-4.252 3.68-6.364 4.736-2.112-1.054-4.134-2.114-6.364-4.736-1.434-1.69-3.034-4.044-4.41-7.9099-0.652-1.84-0.92599-3.74-1.208-6.27 5.196-0.792 9.2059-2.36 11.982-4.714z" fill="#fff"/>
 <g fill="none" opacity=".35" stroke="#fff">
  <circle cx="32" cy="32" r="19" stroke-linecap="round" stroke-linejoin="round" stroke-width="2"/>
  <path d="m13 32h38" stroke-width="2"/>
  <path d="m32.01 13.004a19.183 19.183 0 0 0-14.662 6.8145c3.5189 1.9464 8.7778 3.1855 14.662 3.1855 5.8751 0 11.126-1.2365 14.645-3.1777a19.183 19.183 0 0 0-14.645-6.8223zm0 28c-5.9947 0-11.344 1.285-14.861 3.2949a19.183 19.183 0 0 0 14.861 7.0723 19.183 19.183 0 0 0 14.859-7.0742c-3.5178-2.0091-8.866-3.293-14.859-3.293z" stroke-linecap="round" stroke-linejoin="round" stroke-width="2"/>
  <path d="m32 13v38.365" stroke-width="2"/>
  <path d="m22 32c0-10.493 4.3498-19 10-19s10 8.5066 10 19-4.3496 19-10 19c-5.6502 0-10-8.5065-10-19z" stroke-linecap="round" stroke-linejoin="round" stroke-width="2"/>
 </g>
</svg>
