<svg width="512" height="512" enable-background="new" version="1.0" xmlns="http://www.w3.org/2000/svg">
 <defs>
  <filter id="a" x="-.019862" y="-.030316" width="1.0397" height="1.0606" color-interpolation-filters="sRGB">
   <feGaussianBlur stdDeviation="3.84"/>
  </filter>
  <filter id="c" x="-.024" y="-.024" width="1.048" height="1.048" color-interpolation-filters="sRGB">
   <feGaussianBlur stdDeviation="2.4"/>
  </filter>
  <filter id="b" x="-.018783" y="-.033231" width="1.0376" height="1.0665" color-interpolation-filters="sRGB">
   <feGaussianBlur stdDeviation="2.88"/>
  </filter>
 </defs>
 <g transform="translate(0,212)"></g>
 <g transform="translate(0,212)">
  <g transform="translate(-208,656)">
   <rect transform="matrix(0,-1,-1,0,-16,-640)" x="-190" y="-704" width="304" height="464" rx="24" ry="24" enable-background="new" filter="url(#a)" opacity=".1" stroke="#000" stroke-width="8"/>
   <rect transform="matrix(0,-1,-1,0,-16,-640)" x="-190" y="-704" width="304" height="464" rx="24" ry="24" enable-background="new" filter="url(#a)" opacity=".2"/>
   <rect transform="matrix(0,-1,-1,0,0,0)" x="452" y="-688" width="304" height="464" rx="24" ry="24" enable-background="new" fill="#78909c"/>
   <path d="m278-704c-3.324 0-6 2.676-6 6v36c0 3.324 2.676 6 6 6h36c3.324 0 6-2.676 6-6v-36c0-3.324-2.676-6-6-6zm80 0c-3.324 0-6 2.676-6 6v36c0 3.324 2.676 6 6 6h36c3.324 0 6-2.676 6-6v-36c0-3.324-2.676-6-6-6zm80 0c-3.324 0-6 2.676-6 6v36c0 3.324 2.676 6 6 6h36c3.324 0 6-2.676 6-6v-36c0-3.324-2.676-6-6-6zm80 0c-3.324 0-6 2.676-6 6v36c0 3.324 2.676 6 6 6h36c3.324 0 6-2.676 6-6v-36c0-3.324-2.676-6-6-6zm80 0c-3.324 0-6 2.676-6 6v36c0 3.324 2.676 6 6 6h36c3.324 0 6-2.676 6-6v-36c0-3.324-2.676-6-6-6zm-320 80c-3.324 0-6 2.676-6 6v36c0 3.324 2.676 6 6 6h36c3.324 0 6-2.676 6-6v-36c0-3.324-2.676-6-6-6zm80 0c-3.324 0-6 2.676-6 6v36c0 3.324 2.676 6 6 6h36c3.324 0 6-2.676 6-6v-36c0-3.324-2.676-6-6-6zm80 0c-3.324 0-6 2.676-6 6v36c0 3.324 2.676 6 6 6h36c3.324 0 6-2.676 6-6v-36c0-3.324-2.676-6-6-6zm80 0c-3.324 0-6 2.676-6 6v36c0 3.324 2.676 6 6 6h36c3.324 0 6-2.676 6-6v-36c0-3.324-2.676-6-6-6zm80 0c-3.324 0-6 2.676-6 6v36c0 3.324 2.676 6 6 6h36c3.324 0 6-2.676 6-6v-36c0-3.324-2.676-6-6-6zm-272 80c-3.324 0-6 2.676-6 6v36c0 3.324 2.676 6 6 6h260c3.324 0 6-2.676 6-6v-36c0-3.324-2.676-6-6-6z" enable-background="new" filter="url(#b)" opacity=".2"/>
   <path d="m278-708c-3.324 0-6 2.676-6 6v36c0 3.324 2.676 6 6 6h36c3.324 0 6-2.676 6-6v-36c0-3.324-2.676-6-6-6zm80 0c-3.324 0-6 2.676-6 6v36c0 3.324 2.676 6 6 6h36c3.324 0 6-2.676 6-6v-36c0-3.324-2.676-6-6-6zm80 0c-3.324 0-6 2.676-6 6v36c0 3.324 2.676 6 6 6h36c3.324 0 6-2.676 6-6v-36c0-3.324-2.676-6-6-6zm80 0c-3.324 0-6 2.676-6 6v36c0 3.324 2.676 6 6 6h36c3.324 0 6-2.676 6-6v-36c0-3.324-2.676-6-6-6zm80 0c-3.324 0-6 2.676-6 6v36c0 3.324 2.676 6 6 6h36c3.324 0 6-2.676 6-6v-36c0-3.324-2.676-6-6-6zm-320 80c-3.324 0-6 2.676-6 6v36c0 3.324 2.676 6 6 6h36c3.324 0 6-2.676 6-6v-36c0-3.324-2.676-6-6-6zm80 0c-3.324 0-6 2.676-6 6v36c0 3.324 2.676 6 6 6h36c3.324 0 6-2.676 6-6v-36c0-3.324-2.676-6-6-6zm80 0c-3.324 0-6 2.676-6 6v36c0 3.324 2.676 6 6 6h36c3.324 0 6-2.676 6-6v-36c0-3.324-2.676-6-6-6zm80 0c-3.324 0-6 2.676-6 6v36c0 3.324 2.676 6 6 6h36c3.324 0 6-2.676 6-6v-36c0-3.324-2.676-6-6-6zm80 0c-3.324 0-6 2.676-6 6v36c0 3.324 2.676 6 6 6h36c3.324 0 6-2.676 6-6v-36c0-3.324-2.676-6-6-6zm-272 80c-3.324 0-6 2.676-6 6v36c0 3.324 2.676 6 6 6h260c3.324 0 6-2.676 6-6v-36c0-3.324-2.676-6-6-6z" enable-background="new" fill="#fff"/>
   <path d="m248-756c-13.296 0-24 10.704-24 24v2c0-13.296 10.704-24 24-24h416c13.296 0 24 10.704 24 24v-2c0-13.296-10.704-24-24-24z" enable-background="new" fill="#fff" opacity=".2"/>
   <circle cx="584" cy="-486" r="120" enable-background="new" filter="url(#c)" opacity=".2"/>
   <circle cx="584" cy="-486" r="120" enable-background="new" filter="url(#c)" opacity=".1" stroke="#000" stroke-width="8"/>
   <circle cx="584" cy="-492" r="120" enable-background="new" fill="#5f7c8a"/>
   <path d="m566-564-1.5859 18.965a56.571 56.571 0 0 0-16.535 9.5625l-17.236-8.1172-18 31.18 15.65 10.867a56.571 56.571 0 0 0-0.86524 9.543 56.571 56.571 0 0 0 0.82422 9.582l-15.609 10.828 18 31.18 17.197-8.0957a56.571 56.571 0 0 0 16.572 9.502l1.5879 19.004h36l1.5859-18.965a56.571 56.571 0 0 0 16.535-9.5625l17.236 8.1172 18-31.18-15.65-10.867a56.571 56.571 0 0 0 0.8653-9.543 56.571 56.571 0 0 0-0.8242-9.582l15.609-10.828-18-31.18-17.197 8.0957a56.571 56.571 0 0 0-16.572-9.502l-1.5879-19.004zm18 48a24 24 0 0 1 24 24 24 24 0 0 1-24 24 24 24 0 0 1-24-24 24 24 0 0 1 24-24z" enable-background="new" fill="#fff"/>
  </g>
 </g>
</svg>
