<svg width="512" height="512" enable-background="new" version="1.0" xmlns="http://www.w3.org/2000/svg">
 <defs>
  <filter id="a" x="-.012" y="-.012" width="1.024" height="1.024" color-interpolation-filters="sRGB">
   <feGaussianBlur stdDeviation="2.24"/>
  </filter>
 </defs>
 <rect transform="matrix(0,-1,-1,0,-208,232)" x="-256" y="-688" width="448" height="448" rx="224" ry="224" enable-background="new" filter="url(#a)" opacity=".1"/>
 <rect transform="matrix(0,-1,-1,0,-208,228)" x="-256" y="-688" width="448" height="448" rx="224" ry="224" enable-background="new" filter="url(#a)" opacity=".2"/>
 <g stroke-width="11.19">
  <path d="m414.23 97.773c-1.5906 1.5905 65.754 158.25 65.754 158.25l-65.754 158.25s-158.25-83.651-158.25-158.25c0-74.598 158.25-158.25 158.25-158.25z" fill="#4caf50"/>
  <path d="m97.773 414.23c1.5904-1.5906-65.754-158.25-65.754-158.25l65.754-158.25s158.25 83.651 158.25 158.25c0 74.598-158.25 158.25-158.25 158.25z" fill="#f44336"/>
  <path d="m97.773 414.23 158.25 65.55s156.66-67.14 158.25-65.55l-158.25-158.25z" fill="#673ab7"/>
  <path d="m414.23 97.773c-1.5904 1.5905-158.25-65.754-158.25-65.754l-158.25 65.754 158.25 158.25z" fill="#ffeb3b"/>
  <path d="m256.04 32c-0.04444 57.266 21.872 114.55 65.752 158.43l92.848-92.848c-40.487-40.544-96.513-65.566-158.6-65.578z" fill="#cddc39"/>
  <path d="m414.64 97.578-92.848 92.848c43.822 43.823 101.01 65.741 158.2 65.754 4e-5 -0.06007 0.00195-0.11961 0.00195-0.17969 0-61.991-24.933-117.94-65.355-158.42z" fill="#8bc34a"/>
  <path d="m321.57 321.8c-43.822 43.822-65.741 101.01-65.754 158.2 0.06007 4e-5 0.11961 0.00195 0.17969 0.00195 61.991 0 117.94-24.933 158.42-65.355l-92.848-92.848z" fill="#3f51b5"/>
  <path d="m479.83 256.04c-57.208 0-114.42 21.918-158.25 65.754l92.848 92.848c40.544-40.487 65.566-96.513 65.578-158.6-0.05796-4e-5 -0.11587-0.00195-0.17383-0.00195z" fill="#009688"/>
  <path d="m190.43 321.57-92.961 92.961c40.488 40.488 96.487 65.465 158.54 65.465 0.05943 0 0.11832-0.00191 0.17773-0.00195 0.04395-57.265-21.873-114.54-65.752-158.42z" fill="#9c27b0"/>
  <path d="m32.174 255.82c-0.057312 0-0.11456 0.00191-0.17188 0.00196-4.6e-5 0.05941-0.001953 0.1183-0.001953 0.17773 0 62.048 24.977 118.05 65.465 158.54l92.961-92.961c-43.835-43.835-101.04-65.754-158.25-65.754z" fill="#e91e63"/>
  <path d="m256 32c-61.991 0-117.94 24.932-158.42 65.354l93.072 93.072c43.878-43.879 65.793-101.16 65.75-158.42-0.13383-2.32e-4 -0.2665-0.005859-0.40039-0.005859z" fill="#f9ce1d"/>
  <path d="m97.578 97.354c-40.554 40.497-65.578 96.541-65.578 158.65 0 0.05878 0.001908 0.11702 0.001953 0.17578 57.34 0.1015 114.71-21.813 158.65-65.75l-93.072-93.072z" fill="#ff5722"/>
 </g>
 <g fill="#fff">
  <path d="m256 96c88.365 0 160 71.635 160 160s-71.635 160-160 160-160-71.635-160-160 71.635-160 160-160z" opacity=".2" stroke-width="16"/>
  <circle cx="256" cy="256" r="93" opacity=".2" stroke-width="16"/>
  <path d="m256 32c-124.1 0-224 99.904-224 224 0 0.23298 0.0112 0.46332 0.0156 0.69531 0.69904-123.49 100.32-222.7 223.98-222.7 123.67 0 223.3 99.216 223.98 222.71 5e-3 -0.23848 0.0156-0.47532 0.0156-0.71484 0-124.1-99.904-224-224-224z" opacity=".2"/>
 </g>
 <path d="m256 480c-124.1 0-224-99.904-224-224 0-0.23298 0.0112-0.46332 0.0156-0.69531 0.69904 123.49 100.32 222.7 223.98 222.7 123.67 0 223.3-99.216 223.98-222.71 5e-3 0.23848 0.0156 0.47532 0.0156 0.71484 0 124.1-99.904 224-224 224z" opacity=".1"/>
</svg>
