<svg width="512" height="512" enable-background="new" version="1.0" xmlns="http://www.w3.org/2000/svg" xmlns:xlink="http://www.w3.org/1999/xlink">
 <defs>
  <filter id="a" x="-.024" y="-.024" width="1.048" height="1.048" color-interpolation-filters="sRGB">
   <feGaussianBlur stdDeviation="3.04"/>
  </filter>
 </defs>
 <g transform="translate(0,212)">
  <g>
   <g transform="translate(-208,16)">
    <g>
     <rect x="240" y="-48" width="304" height="304" rx="24" ry="24" filter="url(#a)" opacity=".1" stroke="#000" stroke-linecap="round" stroke-width="8"/>
     <path d="m408-194c-13.296 0-24 10.704-24 24v120h-120c-13.296 0-24 10.704-24 24v256c0 13.296 10.704 24 24 24h256c13.296 0 24-10.704 24-24v-120h120c13.296 0 24-10.704 24-24v-256c0-13.296-10.704-24-24-24z" opacity=".2"/>
     <rect x="240" y="-50" width="304" height="304" rx="24" ry="24" filter="url(#a)" opacity=".2"/>
    </g>
    <rect x="240" y="-52" width="304" height="304" rx="24" ry="24" fill="#e6e6e6"/>
    <path transform="translate(0,-244)" d="m264 192c-13.296 0-24 10.704-24 24v2c0-13.296 10.704-24 24-24h256c13.296 0 24 10.704 24 24v-2c0-13.296-10.704-24-24-24z" fill="#fff" opacity=".5"/>
    <path d="m362.74 18.095c6.603 4.5717 12.698 10.159 18.286 16.762l-9.9046 12.191c-6.0954-7.6192-12.445-13.968-19.048-19.048l10.667-9.9048m0 48c6.0952 4.5717 11.936 9.6509 17.524 15.238l-9.9046 12.952c-5.5874-7.111-11.683-13.206-18.286-18.286l10.667-9.9048m3.0477 52.571 12.191 8.3811c-6.0954 20.825-14.984 40.889-26.667 60.19l-12.952-9.9046c11.683-18.794 20.825-38.349 27.429-58.667m35.81-106.67 14.476 3.0475c-1.016 5.0797-2.5397 9.905-4.5714 14.476h59.428v13.714h-65.524l-6.8571 11.429c-2.0318 4.0635-5.3334 8.3811-9.9046 12.952l-9.143-10.666c9.6509-11.682 17.016-26.667 22.095-44.952m-3.8094 47.238h70.095c-3.2e-4 15.746-0.2544 30.476-0.7632 44.19h9.9046v13.714h-10.667c-1.016 10.667-1.7779 21.079-2.2856 31.238h11.428v12.952h-12.952c-2.0318 17.778-9.143 26.667-21.333 26.667-3.0477 0-7.3651-0.5088-12.952-1.5232l-2.2858-12.952c6.603 1.0144 11.683 1.5232 15.238 1.5232s5.8411-4.5715 6.8573-13.714h-59.429c2.0317-13.714 3.8094-28.444 5.3333-44.19h-10.667v-13.714h12.19c1.016-14.222 1.7778-28.952 2.2858-44.19m11.428 44.19h43.429c0.5088-10.667 0.7632-21.079 0.7632-31.238h-41.905c-0.5088 11.175-1.2704 21.587-2.2858 31.238m19.048-27.428c5.5872 3.5555 10.667 7.619 15.238 12.19l-9.1429 11.428c-4.5715-5.0792-9.651-9.6506-15.238-13.714l9.1427-9.9046m21.333 72.381c1.016-10.667 1.7776-21.079 2.2858-31.238h-43.429c-1.016 11.174-2.2858 21.587-3.8094 31.238h44.952m-23.619-27.428c6.095 3.5555 11.682 7.619 16.762 12.19l-9.9048 11.429c-5.0794-5.5874-10.413-10.413-16-14.476l9.1429-9.1429m-80-90.667v119.62h-13.714v-12.952h-12.952v19.81h-13.714v-126.48h40.381m-26.667 93.714h12.952v-80.762h-12.952v80.762" fill="#b3b3b3"/>
    <rect x="384" y="-192" width="304" height="304" rx="24" ry="24" filter="url(#a)" opacity=".1" stroke="#000" stroke-linecap="round" stroke-width="8"/>
    <rect x="384" y="-194" width="304" height="304" rx="24" ry="24" filter="url(#a)" opacity=".2"/>
    <rect x="384" y="-196" width="304" height="304" rx="24" ry="24" fill="#1e88e5"/>
    <path d="m516.49-28.884 4.319-16.196c4.8589-17.546 9.4478-38.061 13.767-56.687h1.08c4.589 18.356 9.4478 39.141 14.307 56.687l4.049 16.196h-37.521m56.417 72.884h42.11l-55.068-176h-47.779l-55.068 176h40.491l10.798-41.84h53.718l10.798 41.84" fill="#fff"/>
    <path d="m408-196c-13.296 0-24 10.704-24 24v2c0-13.296 10.704-24 24-24h256c13.296 0 24 10.704 24 24v-2c0-13.296-10.704-24-24-24z" fill="#fff" opacity=".2"/>
   </g>
  </g>
 </g>
</svg>
