<svg width="512" height="512" enable-background="new" version="1.0" xmlns="http://www.w3.org/2000/svg" xmlns:xlink="http://www.w3.org/1999/xlink">
 <defs>
  <filter id="b" x="-.024" y="-.024" width="1.048" height="1.048" color-interpolation-filters="sRGB">
   <feGaussianBlur stdDeviation="4.48"/>
  </filter>
  <filter id="a" x="-.024" y="-.024" width="1.048" height="1.048" color-interpolation-filters="sRGB">
   <feGaussianBlur stdDeviation="4.48"/>
  </filter>
 </defs>
 <g transform="translate(0,212)">
  <g>
   <g transform="translate(-208,16)">
    <rect transform="matrix(0,-1,-1,0,0,0)" x="-256" y="-688" width="448" height="448" rx="224" ry="224" enable-background="new" filter="url(#b)" opacity=".1" stroke="#000" stroke-width="8"/>
    <rect transform="matrix(0,-1,-1,0,0,0)" x="-256" y="-688" width="448" height="448" rx="224" ry="224" enable-background="new" filter="url(#a)" opacity=".2"/>
    <path d="m464-196c-124.1 0-224 99.904-224 224s99.904 224 224 224 224-99.904 224-224-99.904-224-224-224z" fill="#e91e63"/>
    <path transform="translate(0,-244)" d="m464 48c-124.1 0-224 99.904-224 224 0 0.67412 3e-3 1.3363 0 2 0-124.1 99.904-224 224-224s224 99.904 224 224c-3e-3 -0.66367 0-1.3259 0-2 0-124.1-99.904-224-224-224z" fill="#fff" opacity=".2"/>
    <path d="m464 252c-124.1 0-224-99.904-224-224 0-0.67412 3e-3 -1.3363 0-2 0 124.1 99.904 224 224 224s224-99.904 224-224c-3e-3 0.66367 0 1.3259 0 2 0 124.1-99.904 224-224 224z" opacity=".1"/>
    <path d="m411.98-120c-17.673 0-32 14.327-32 32s14.327 32 32 32 32-14.327 32-32-14.327-32-32-32zm-16 80c-10.667 0-18.202 6.5138-21.156 12.422-10.693 35.198-22.82 70.265-34.5 105.28-3.6576 10.52 12.575 15.39 15.312 4.5938l24.344-70.484v152.19c0 6.648 5.352 12 12 12s12-5.352 12-12v-84h16v84c0 6.648 5.352 12 12 12s12-5.352 12-12v-160.3l24.688 55.547c0.6912 1.5592 1.8629 2.8567 3.3438 3.7031l27.984 15.984v89.062c0 4.432 3.568 8 8 8s8-3.568 8-8v-40h16.063v40c0 4.432 3.568 8 8 8s8-3.568 8-8h-0.08v-83.719l27.562 18.375c8.921 6.1514 17.984-7.4437 8.875-13.312l-36-24c-1.3122-0.87608-2.8562-1.3437-4.4356-1.3438h-37.875l-23.875-13.641c-13.1-23.314-22.386-56.054-33.094-77.938-2.9541-5.9081-10.49-12.422-21.156-12.422zm128 40c-13.255 0-24 10.745-24 24s10.745 24 24 24 24-10.745 24-24-10.745-24-24-24z" fill="#fff"/>
   </g>
  </g>
 </g>
</svg>
