<svg width="64" height="64" version="1.1" xmlns="http://www.w3.org/2000/svg">
 <defs>
  <filter id="a" x="-.036" y="-.036" width="1.072" height="1.072" color-interpolation-filters="sRGB">
   <feGaussianBlur stdDeviation="0.81"/>
  </filter>
 </defs>
 <rect x="5" y="5.6712" width="54" height="54" rx="27" filter="url(#a)" opacity=".2"/>
 <rect x="5" y="5" width="54" height="54" rx="27" fill="#3f51b5"/>
 <path d="m32 18a4 4 0 0 0-4 4 4 4 0 0 0 0.062 0.676 12 12 0 0 0-8.062 11.324 12 12 0 0 0 12 12 12 12 0 0 0 12-12 12 12 0 0 0-2.27-7.004 2 2 0 0 0 0.27-0.996 2 2 0 0 0-2-2 2 2 0 0 0-1 0.27 12 12 0 0 0-3.06-1.59 4 4 0 0 0 0.06-0.68 4 4 0 0 0-4-4zm0 2a2 2 0 0 1 2 2 2 2 0 0 1-0.012 0.168 12 12 0 0 0-1.988-0.168 12 12 0 0 0-1.992 0.18 2 2 0 0 1-8e-3 -0.18 2 2 0 0 1 2-2zm0 4a10 10 0 0 1 0.882 0.042 10 10 0 0 1 0.118 8e-3 10 10 0 0 1 0.26 0.04 10 10 0 0 1 0.64 0.1 10 10 0 0 1 0.268 0.06 10 10 0 0 1 0.74 0.192 10 10 0 0 1 0.206 0.06 10 10 0 0 1 4e-3 0 10 10 0 0 1 0.124 0.048 10 10 0 0 1 0.684 0.266 10 10 0 0 1 0.266 0.12 10 10 0 0 1 0.656 0.334 10 10 0 0 1 0.176 0.1 10 10 0 0 1 0.73 0.47 10 10 0 0 1 0.028 0.016 10 10 0 0 1 0.12 0.09 10 10 0 0 1 0.098 0.07 10 10 0 0 1 1.984 1.984 10 10 0 0 1 4e-3 8e-3 10 10 0 0 1 0.532 0.78 10 10 0 0 1 0.026 0.04 10 10 0 0 1 0.016 0.032 10 10 0 0 1 0.45 0.832 10 10 0 0 1 8e-3 0.014 10 10 0 0 1 8e-3 0.016 10 10 0 0 1 0.35 0.844 10 10 0 0 1 0.044 0.118 10 10 0 0 1 0.24 0.776 10 10 0 0 1 0.06 0.246 10 10 0 0 1 0.13 0.646 10 10 0 0 1 0.062 0.4 10 10 0 0 1 0.05 0.56 10 10 0 0 1 0.036 0.688 10 10 0 0 1-0.042 0.882 10 10 0 0 1-0.052 0.42 10 10 0 0 1-0.086 0.55 10 10 0 0 1-0.106 0.472 10 10 0 0 1-0.12 0.484 10 10 0 0 1-0.168 0.5 10 10 0 0 1-0.16 0.442 10 10 0 0 1-0.24 0.524 10 10 0 0 1-0.17 0.354 10 10 0 0 1-0.29 0.508 10 10 0 0 1-0.23 0.376 10 10 0 0 1-0.316 0.44 10 10 0 0 1-0.274 0.36 10 10 0 0 1-0.348 0.4 10 10 0 0 1-0.332 0.354 10 10 0 0 1-0.356 0.332 10 10 0 0 1-0.398 0.348 10 10 0 0 1-0.36 0.274 10 10 0 0 1-0.44 0.316 10 10 0 0 1-0.376 0.23 10 10 0 0 1-0.508 0.29 10 10 0 0 1-0.354 0.172 10 10 0 0 1-0.524 0.238 10 10 0 0 1-0.44 0.16 10 10 0 0 1-0.5 0.168 10 10 0 0 1-0.486 0.12 10 10 0 0 1-0.472 0.106 10 10 0 0 1-0.552 0.086 10 10 0 0 1-0.418 0.052 10 10 0 0 1-0.882 0.042 10 10 0 0 1-0.882-0.042 10 10 0 0 1-0.42-0.052 10 10 0 0 1-0.55-0.086 10 10 0 0 1-0.472-0.106 10 10 0 0 1-0.484-0.12 10 10 0 0 1-0.5-0.168 10 10 0 0 1-0.442-0.16 10 10 0 0 1-0.524-0.24 10 10 0 0 1-0.354-0.17 10 10 0 0 1-0.508-0.29 10 10 0 0 1-0.376-0.23 10 10 0 0 1-0.44-0.316 10 10 0 0 1-0.36-0.274 10 10 0 0 1-0.4-0.348 10 10 0 0 1-0.354-0.332 10 10 0 0 1-0.332-0.356 10 10 0 0 1-0.348-0.398 10 10 0 0 1-0.274-0.36 10 10 0 0 1-0.316-0.44 10 10 0 0 1-0.23-0.376 10 10 0 0 1-0.29-0.508 10 10 0 0 1-0.172-0.354 10 10 0 0 1-0.238-0.524 10 10 0 0 1-0.16-0.44 10 10 0 0 1-0.168-0.5 10 10 0 0 1-0.12-0.486 10 10 0 0 1-0.106-0.472 10 10 0 0 1-0.086-0.552 10 10 0 0 1-0.052-0.418 10 10 0 0 1-0.042-0.882 10 10 0 0 1 0.042-0.882 10 10 0 0 1 0.048-0.38 10 10 0 0 1 0.1-0.636 10 10 0 0 1 0.064-0.29 10 10 0 0 1 0.176-0.684 10 10 0 0 1 0.094-0.284 10 10 0 0 1 0.234-0.644 10 10 0 0 1 0.144-0.32 10 10 0 0 1 0.29-0.59 10 10 0 0 1 0.136-0.244 10 10 0 0 1 0.39-0.636 10 10 0 0 1 0.126-0.172 10 10 0 0 1 0.492-0.644 10 10 0 0 1 0.078-0.09 10 10 0 0 1 0.628-0.672 10 10 0 0 1 0.74-0.648 10 10 0 0 1 0.046-0.04 10 10 0 0 1 0.754-0.534 10 10 0 0 1 0.082-0.052 10 10 0 0 1 0.812-0.464 10 10 0 0 1 0.91-0.406 10 10 0 0 1 2.242-0.582 10 10 0 0 1 0.052-8e-3 10 10 0 0 1 0.042-4e-3 10 10 0 0 1 0.742-0.066 10 10 0 0 1 0.228-0.016 10 10 0 0 1 0.308-0.012zm0 2v6a2 2 0 0 1 2 2h6a8 8 0 0 0-0.036-0.676 8 8 0 0 0-0.05-0.42 8 8 0 0 0-0.054-0.372 8 8 0 0 0-0.102-0.446 8 8 0 0 0-0.08-0.308 8 8 0 0 0-0.14-0.43 8 8 0 0 0-0.132-0.36 8 8 0 0 0-0.156-0.348 8 8 0 0 0-0.18-0.37 8 8 0 0 0-0.188-0.328 8 8 0 0 0-0.23-0.376 8 8 0 0 0-0.194-0.27 8 8 0 0 0-0.282-0.37 8 8 0 0 0-0.226-0.258 8 8 0 0 0-0.298-0.32 8 8 0 0 0-0.32-0.298 8 8 0 0 0-0.258-0.226 8 8 0 0 0-0.37-0.28 8 8 0 0 0-0.27-0.196 8 8 0 0 0-0.376-0.23 8 8 0 0 0-0.328-0.188 8 8 0 0 0-0.37-0.18 8 8 0 0 0-0.348-0.156 8 8 0 0 0-0.36-0.134 8 8 0 0 0-0.43-0.14 8 8 0 0 0-0.308-0.078 8 8 0 0 0-0.446-0.1 8 8 0 0 0-0.37-0.056 8 8 0 0 0-0.422-0.05 8 8 0 0 0-0.676-0.036z" fill="#fff"/>
 <g fill="none" opacity=".35" stroke="#fff">
  <circle cx="32" cy="32" r="19" stroke-linecap="round" stroke-linejoin="round" stroke-width="2"/>
  <path d="m13 32h38" stroke-width="2"/>
  <path d="m32.01 13.004a19.183 19.183 0 0 0-14.662 6.8145c3.5189 1.9464 8.7778 3.1855 14.662 3.1855 5.8751 0 11.126-1.2365 14.645-3.1777a19.183 19.183 0 0 0-14.645-6.8223zm0 28c-5.9947 0-11.344 1.285-14.861 3.2949a19.183 19.183 0 0 0 14.861 7.0723 19.183 19.183 0 0 0 14.859-7.0742c-3.5178-2.0091-8.866-3.293-14.859-3.293z" stroke-linecap="round" stroke-linejoin="round" stroke-width="2"/>
  <path d="m32 13v38.365" stroke-width="2"/>
  <path d="m22 32c0-10.493 4.3498-19 10-19s10 8.5066 10 19-4.3496 19-10 19c-5.6502 0-10-8.5065-10-19z" stroke-linecap="round" stroke-linejoin="round" stroke-width="2"/>
 </g>
</svg>
