<svg width="512" height="512" version="1.1" xmlns="http://www.w3.org/2000/svg">
 <defs>
  <filter id="a" x="-.022667" y="-.0255" width="1.0453" height="1.051" color-interpolation-filters="sRGB">
   <feGaussianBlur stdDeviation="1.36"/>
  </filter>
  <filter id="b" x="-.027273" y="-.021429" width="1.0545" height="1.0429" color-interpolation-filters="sRGB">
   <feGaussianBlur stdDeviation="4"/>
  </filter>
 </defs>
 <g transform="translate(-2.511e-7 212)">
  <g transform="translate(-208,16)">
   <rect x="512" y="-134" width="144" height="128" ry="10" filter="url(#a)" opacity=".2"/>
   <rect x="512" y="-136" width="144" height="144" ry="10" fill="#4bae4f"/>
   <rect x="512" y="-30" width="144" height="128" ry="10" filter="url(#a)" opacity=".2"/>
   <rect x="512" y="-32" width="144" height="128" ry="10" fill="#f34235"/>
   <rect x="512" y="74" width="144" height="128" ry="10" filter="url(#a)" opacity=".2"/>
   <rect x="512" y="72" width="144" height="128" ry="10" fill="#fec006"/>
   <g fill="#fff">
    <path d="m522 72c-5.54 0-10 4.46-10 10v2c0-5.54 4.46-10 10-10h124c5.54 0 10 4.46 10 10v-2c0-5.54-4.46-10-10-10z" opacity=".2"/>
    <path d="m522-136c-5.54 0-10 4.46-10 10v2c0-5.54 4.46-10 10-10h124c5.54 0 10 4.46 10 10v-2c0-5.54-4.46-10-10-10z" opacity=".2"/>
    <path d="m522-32c-5.54 0-10 4.46-10 10v2c0-5.54 4.46-10 10-10h124c5.54 0 10 4.46 10 10v-2c0-5.54-4.46-10-10-10z" opacity=".2"/>
   </g>
   <path transform="matrix(-1,0,0,1,928,0)" d="m312-192c-13.296 0-24 10.704-24 24v400c0 13.296 10.704 24 24 24h304c13.296 0 24-10.704 24-24v-400c0-13.296-10.704-24-24-24h-152z" filter="url(#b)" opacity=".1" stroke="#000" stroke-width="8"/>
   <path d="m312-192c-13.296 0-24 10.704-24 24v400c0 13.296 10.704 24 24 24h304c13.296 0 24-10.704 24-24v-400c0-13.296-10.704-24-24-24h-152z" filter="url(#b)" opacity=".2"/>
   <path transform="translate(0,-244)" d="m312 48c-13.296 0-24 10.704-24 24v400c0 13.296 10.704 24 24 24h304c13.296 0 24-10.704 24-24v-400c0-13.296-10.704-24-24-24h-152z" fill="#435ece"/>
   <path transform="translate(0,76)" d="m312-272c-13.296 0-24 10.704-24 24v2c0-13.296 10.704-24 24-24h304c13.296 0 24 10.704 24 24v-2c0-13.296-10.704-24-24-24h-152z" fill="#fff" opacity=".2"/>
   <path transform="translate(208,-228)" d="m256 152c-26.51 0-48 21.49-48 48s21.49 48 48 48 48-21.49 48-48-21.49-48-48-48zm0 128.12c-98.174-0.0436-95.996 77.518-95.996 77.518v10.361h95.996 36v-63.998a8.0008 8.0008 0 0 1 8-8h8v-5.9297c-13.072-6.0368-30.013-9.9388-52-9.9512zm68 23.881a8.0008 8.0008 0 0 1-8 8h-8v48h43.996v-2.3633s0.67866-24.26-15.928-45.637h-4.0684a8.0008 8.0008 0 0 1-8-8z" color="#000000" fill="#fff" style="text-decoration-line:none;text-indent:0;text-transform:none"/>
  </g>
 </g>
 <path d="m348 240c-17.673 0-32 14.327-32 32v32h-16v64h96v-64h-16v-32c0-17.673-14.327-32-32-32zm0 16c8.8366 0 16 7.1634 16 16v32h-32v-32c0-8.8366 7.1634-16 16-16z" fill="#fff" stroke-width="8"/>
</svg>
