<svg width="512" height="512" version="1.1" xmlns="http://www.w3.org/2000/svg" xmlns:xlink="http://www.w3.org/1999/xlink">
 <defs>
  <filter id="c" x="-.027273" y="-.021429" width="1.0545" height="1.0429" color-interpolation-filters="sRGB">
   <feGaussianBlur stdDeviation="4"/>
  </filter>
  <filter id="d" x="-.06" y="-.06" width="1.12" height="1.12" color-interpolation-filters="sRGB">
   <feGaussianBlur stdDeviation="6"/>
  </filter>
  <clipPath id="e">
   <circle cx="160" cy="184" r="15" fill="none" stroke="#fff" stroke-linecap="round" stroke-linejoin="round" stroke-width="2"/>
  </clipPath>
 </defs>
 <linearGradient id="a">
  <stop stop-color="#292c2f" offset="0"/>
  <stop stop-opacity="0" offset="1"/>
 </linearGradient>
 <linearGradient id="b" x1="388.42" x2="388.42" y1="557.8" y2="505.8" gradientTransform="matrix(.58696 0 0 .53846 -273.55 -235.91)" gradientUnits="userSpaceOnUse">
  <stop stop-color="#7f8c8d" offset="0"/>
  <stop stop-color="#afb0b3" offset="1"/>
 </linearGradient>
 <use transform="translate(27,470)" width="100%" height="100%" fill="#1a1a1a" fill-rule="evenodd" xlink:href="#a"/>
 <use transform="translate(27.003,470.01)" width="100%" height="100%" fill="#ffffff" fill-rule="evenodd" opacity=".1" xlink:href="#b"/>
 <rect transform="matrix(0,-1,-1,0,-208,228)" x="-256" y="-640" width="448" height="352" rx="24" ry="24" filter="url(#c)" opacity=".1" stroke="#000" stroke-width="8"/>
 <rect transform="matrix(0,-1,-1,0,-208,228)" x="-256" y="-640" width="448" height="352" rx="24" ry="24" filter="url(#c)" opacity=".2"/>
 <rect transform="matrix(0,-1,-1,0,0,0)" x="-480" y="-432" width="448" height="352" rx="24" ry="24" fill="#78909c"/>
 <path d="m104 482c-13.296 0-24-10.704-24-24v-2c0 13.296 10.704 24 24 24h304c13.296 0 24-10.704 24-24v2c0 13.296-10.704 24-24 24z" opacity=".2"/>
 <path d="m104 32c-13.296 0-24 10.704-24 24v2c0-13.296 10.704-24 24-24h304c13.296 0 24 10.704 24 24v-2c0-13.296-10.704-24-24-24z" fill="#fff" opacity=".2"/>
 <path d="m256 98c61.856 0 112 50.144 112 112s-50.144 112-112 112h-112v-112c0-61.856 50.144-112 112-112zm0 56c-30.928 0-56 25.072-56 56s25.072 56 56 56 56-25.072 56-56-25.072-56-56-56z" enable-background="new" fill="#fff" opacity=".2"/>
 <path d="m256 96c61.856 0 112 50.144 112 112s-50.144 112-112 112h-112v-112c0-61.856 50.144-112 112-112zm0 56c-30.928 0-56 25.072-56 56s25.072 56 56 56 56-25.072 56-56-25.072-56-56-56z" enable-background="new" fill="#455a64"/>
 <circle cx="376" cy="384" r="120" enable-background="new" filter="url(#d)" opacity=".5"/>
 <g transform="matrix(.53571 0 0 .53571 -20.32 215.61)">
  <rect transform="matrix(0,-1,-1,0,0,0)" x="-523.39" y="-963.8" width="448" height="448" rx="224" ry="224" fill="#3f51b5"/>
  <g transform="translate(2.1696 -13.017)" fill="none" stroke="#fff">
   <circle cx="737.63" cy="312.41" r="152" stroke-linecap="round" stroke-linejoin="round" stroke-width="16"/>
   <path d="m585.63 312.41h304" stroke-width="16"/>
   <path transform="matrix(10.231 0 0 10.231 -899.27 -1568.6)" d="m160 162.82c-8.2843 0-15 3.134-15 7s6.7157 7 15 7 15-3.134 15-7-6.7157-7-15-7zm0 28.075c-8.2843 0-15 3.134-15 7s6.7157 7 15 7 15-3.134 15-7-6.7157-7-15-7z" clip-path="url(#e)" stroke-linecap="round" stroke-linejoin="round" stroke-width="1.5639"/>
   <path d="m737.63 160.41v306.92" stroke-width="16"/>
   <path d="m657.63 312.41c0-83.947 34.798-152 80-152s80 68.053 80 152-34.797 152-80 152c-45.202 0-80-68.052-80-152z" stroke-linecap="round" stroke-linejoin="round" stroke-width="16"/>
  </g>
 </g>
</svg>
