<svg width="512" height="512" enable-background="new" version="1.0" xmlns="http://www.w3.org/2000/svg" xmlns:xlink="http://www.w3.org/1999/xlink">
 <defs>
  <clipPath id="b">
   <rect transform="matrix(0,-1,-1,0,0,0)" x="-280" y="-180" width="40" height="40" rx="20" ry="20" fill="#ccc"/>
  </clipPath>
  <filter id="a" x="-.012" y="-.012" width="1.024" height="1.024" color-interpolation-filters="sRGB">
   <feGaussianBlur stdDeviation="2.24"/>
  </filter>
 </defs>
 <g transform="translate(0,212)">
  <g>
   <g transform="translate(-208,16)">
    <rect transform="matrix(0,-1,-1,0,0,4)" x="-256" y="-688" width="448" height="448" rx="224" ry="224" enable-background="new" filter="url(#a)" opacity=".1"/>
    <rect transform="matrix(0,-1,-1,0,0,0)" x="-256" y="-688" width="448" height="448" rx="224" ry="224" enable-background="new" filter="url(#a)" opacity=".2"/>
    <g transform="matrix(11.19 0 0 11.19 -1326.4 -2881.4)">
     <path d="m174.14 245.86c-0.14214 0.14214 5.8761 14.142 5.8761 14.142l-5.8761 14.142s-14.142-7.4755-14.142-14.142 14.142-14.142 14.142-14.142z" fill="#4caf50"/>
     <path d="m145.86 274.14c0.14213-0.14214-5.8761-14.142-5.8761-14.142l5.8761-14.142s14.142 7.4755 14.142 14.142-14.142 14.142-14.142 14.142z" fill="#f44336"/>
     <path d="m174.14 245.86c-0.14213 0.14214-14.142-5.8761-14.142-5.8761l-14.142 5.8761 14.142 14.142z" fill="#ffeb3b"/>
     <path d="m145.86 274.14 14.142 5.8579s14-6 14.142-5.8579l-14.142-14.142z" fill="#673ab7"/>
     <g clip-path="url(#b)">
      <path d="m165.88 254.14c-7.8348-7.8348-7.8348-20.45 0-28.284 7.8347-7.8348 20.45-7.8348 28.284 0z" fill="#cddc39"/>
      <path d="m165.88 254.14c7.8347 7.8348 20.45 7.8348 28.284 0 7.8347-7.8347 7.8347-20.45 0-28.284z" fill="#8bc34a"/>
      <path d="m165.86 265.88c-7.8347 7.8347-7.8347 20.45 0 28.284 7.8348 7.8347 20.45 7.8347 28.284 0z" fill="#3f51b5"/>
      <path d="m165.86 265.88c7.8347-7.8348 20.45-7.8348 28.284 0 7.8347 7.8347 7.8347 20.45 0 28.284z" fill="#009688"/>
      <path d="m154.14 265.86c7.8347 7.8348 7.8347 20.45 0 28.284-7.8348 7.8347-20.45 7.8347-28.284 0z" fill="#9c27b0"/>
      <path d="m154.14 265.86c-7.8347-7.8347-20.45-7.8347-28.284 0-7.8347 7.8348-7.8347 20.45 0 28.284z" fill="#e91e63"/>
      <path d="m154.16 254.14c7.8347-7.8348 7.8347-20.45 0-28.284-7.8348-7.8348-20.45-7.8348-28.284 0z" fill="#f9ce1d"/>
      <path d="m154.16 254.14c-7.8347 7.8348-20.45 7.8348-28.284 0-7.8347-7.8347-7.8347-20.45 0-28.284z" fill="#ff5722"/>
     </g>
    </g>
    <g transform="matrix(16,0,0,16,-1200,-4260)" enable-background="new" fill="#fff">
     <path transform="translate(0,76)" d="m104 182c5.5228 0 10 4.4772 10 10s-4.4772 10-10 10c-5.5228 0-10-4.4772-10-10s4.4772-10 10-10z" opacity=".2"/>
     <circle cx="104" cy="268" r="5.8125" opacity=".2"/>
    </g>
    <path transform="translate(0,-244)" d="m464 48c-124.1 0-224 99.904-224 224 0 0.23298 0.0112 0.46332 0.0156 0.69531 0.69904-123.49 100.32-222.7 223.98-222.7 123.67 0 223.3 99.216 223.98 222.71 0.00461-0.23848 0.01562-0.47532 0.01562-0.71484 0-124.1-99.904-224-224-224z" fill="#fff" opacity=".2"/>
    <path d="m464 252c-124.1 0-224-99.904-224-224 0-0.23298 0.0112-0.46332 0.0156-0.69531 0.69904 123.49 100.32 222.7 223.98 222.7 123.67 0 223.3-99.216 223.98-222.71 5e-3 0.23848 0.0156 0.47532 0.0156 0.71484 0 124.1-99.904 224-224 224z" opacity=".1"/>
   </g>
  </g>
 </g>
</svg>
