<svg width="512" height="512" enable-background="new" version="1.0" xmlns="http://www.w3.org/2000/svg">
 <defs>
  <filter id="a" x="-.021429" y="-.027273" width="1.0429" height="1.0545" color-interpolation-filters="sRGB">
   <feGaussianBlur stdDeviation="4"/>
  </filter>
  <clipPath id="c">
   <path d="m720-1988h-304l-176 176v256l480-5e-4z" enable-background="accumulate" fill="#f00" opacity=".2"/>
  </clipPath>
  <filter id="b" x="-.06" y="-.06" width="1.12" height="1.12" color-interpolation-filters="sRGB">
   <feGaussianBlur stdDeviation="4.4"/>
  </filter>
 </defs>
 <g transform="translate(0,212)">
  <g transform="translate(-208 1856)">
   <rect transform="matrix(0,-1,-1,0,0,0)" x="1634" y="-688" width="352" height="448" rx="24" ry="24" opacity=".2"/>
   <rect transform="matrix(0 -1 -1 0 0 -1840)" x="-208" y="-688" width="352" height="448" rx="24" ry="24" filter="url(#a)" opacity=".1" stroke="#000" stroke-width="8"/>
   <rect transform="matrix(0 -1 -1 0 0 -1840)" x="-208" y="-688" width="352" height="448" rx="24" ry="24" filter="url(#a)" opacity=".2"/>
   <rect transform="matrix(0,-1,-1,0,0,0)" x="1636" y="-688" width="352" height="448" rx="24" ry="24" fill="#78909c"/>
   <path d="m264-1988c-13.296 0-24 10.704-24 24v2c0-13.296 10.704-24 24-24h400c13.296 0 24 10.704 24 24v-2c0-13.296-10.704-24-24-24z" fill="#fff" opacity=".2"/>
   <rect x="272" y="-1956" width="384" height="288" rx="0" ry="0" fill="#fff" opacity=".2"/>
   <g clip-path="url(#c)">
    <path d="m240-1808h152c13.255 0 24-10.745 24-24v-152h-1l-175 172z" enable-background="new" filter="url(#b)" opacity=".2"/>
   </g>
   <path d="m240-1812h152c13.255 0 24-10.745 24-24v-152h-1l-175 175z" enable-background="new" fill="#cfd8dc"/>
   <path transform="translate(0,-244)" d="m415-1744-175 175v1h1l174-174h1v-2z" enable-background="new" fill="#fff" opacity=".2"/>
  </g>
 </g>
</svg>
