<svg width="64" height="64" version="1.1" xmlns="http://www.w3.org/2000/svg">
 <defs>
  <filter id="a" x="-.0318" y="-.041478" width="1.0636" height="1.083" color-interpolation-filters="sRGB">
   <feGaussianBlur stdDeviation="0.79500015"/>
  </filter>
 </defs>
 <g stroke-width="3.7796">
  <path d="m3.002 10.017a0.99781 0.99781 0 0 0-1.002 1v7.998h0.00391v36c0 0.5556 0.44245 1.002 0.99805 1.002h58.002a0.99781 0.99781 0 0 0 0.99609-1.0019v-43.998a0.99781 0.99781 0 0 0-0.99805-1z" filter="url(#a)" opacity=".15" style="paint-order:markers stroke fill"/>
  <path d="m2.0032 18.002v35.997c0 0.5556 0.44221 1.0016 0.99781 1.0016h58.002a0.99781 0.99781 0 0 0 0.99782-1.0016v-36.001h-59.997z" fill="#f9f9f9" style="paint-order:markers stroke fill"/>
  <path d="m3.001 8.9992a0.99781 0.99781 0 0 0-1.0016 1.0016v7.9976h60.001v-7.9976a0.99781 0.99781 0 0 0-0.99782-1.0016z" fill="#666" style="paint-order:stroke markers fill"/>
  <rect x="56.002" y="12" width="3.001" height="3.001" ry="1.5005" opacity=".35" style="paint-order:stroke markers fill"/>
  <rect x="50" y="12" width="3.001" height="3.001" ry="1.5005" opacity=".35" style="paint-order:stroke markers fill"/>
  <rect x="44.002" y="12" width="3.001" height="3.001" ry="1.5005" opacity=".35" style="paint-order:stroke markers fill"/>
 </g>
 <g transform="translate(-.003401 .58592)" stroke-width=".57977">
  <path d="m12.003 26.414h3.5294l4.1177 11.429 4.1177-11.429h3.5294l-5.8824 16h-3.5294z" fill="#ef4a5b"/>
  <path d="m24.945 42.414 5.8824-16h3.5294l-5.8824 16zm11.765 0 5.8824-16h3.5294l-5.8824 16z" fill="#3e4143"/>
  <path d="m21.415 42.414 5.8824-16h3.5294l-5.8824 16zm11.765 0 5.8824-16h3.5294l-5.8824 16z" fill="#949b9d"/>
  <path d="m36.709 42.414h-3.5294l-5.8824-16h3.5294zm11.765 0h-3.5294l-5.8824-16h3.5294z" fill="#babfc2"/>
  <path d="m30.827 26.414 5.8824 16h3.5294l-5.8824-16zm11.765 0 5.8824 16h3.5294l-5.8824-16z" fill="#535353"/>
 </g>
</svg>
