<svg width="512" height="512" enable-background="new" version="1.0" xmlns="http://www.w3.org/2000/svg">
 <defs>
  <filter id="a" x="-.024" y="-.024" width="1.048" height="1.048" color-interpolation-filters="sRGB">
   <feGaussianBlur stdDeviation="4.8"/>
  </filter>
 </defs>
 <circle cx="256" cy="260" r="240" enable-background="new" filter="url(#a)" opacity=".1"/>
 <circle cx="256" cy="260" r="240" enable-background="new" filter="url(#a)" opacity=".2"/>
 <circle cx="256" cy="256" r="240" enable-background="new" fill="#0087ed"/>
 <path d="M 256,16 A 240,240 0 0 0 16,256 240,240 0 0 0 16.041,257.17188 240,240 0 0 1 256,18 240,240 0 0 1 495.95898,256.82812 240,240 0 0 0 496,256 240,240 0 0 0 256,16 Z" enable-background="new" fill="#fff" opacity=".2"/>
 <path d="m345.2 116c-55.292 0-65.643 83.997-34.558 83.997 31.085 0 89.85-83.997 34.558-83.997zm-87.767 9.5241c-31.614 4.4644-20.503 64.023-3.6377 65.147 16.799 1.0912 35.285-69.578 3.6377-65.147zm-57.21 18.519a19.379 19.379 0 0 0-5.1919 1.3227c-29.597 11.244-4.4975 57.607 12.103 54.499 15.543-2.9432 17.328-58.169-6.8785-55.788zm-38.89 37.302a15.708 15.708 0 0 0-8.565 2.4472c-24.339 14.352 8.2012 49.009 22.487 43.652 12.566-4.7289 4.5636-45.57-13.922-46.132zm113.49 28.01c-43.553-0.79358-101.03 22.09-110.82 67.991-10.615 49.704 43.685 118.65 100.37 118.65 27.878 0 60.021-26.356 66.04-59.724 4.5966-25.43-57.806-15.212-55.689 1.5873 1.7196 13.757-5.4896 20.9-15.41 21.165-13.558-1.6535-20.172-9.491-21.991-21.33-2.4141-31.019 95.373-53.176 87.634-101.29-2.8439-17.626-23.975-26.588-50.133-27.051z" fill="#fff" stroke-width="33.07"/>
</svg>
