<svg width="64" height="64" version="1.1" xmlns="http://www.w3.org/2000/svg">
 <defs>
  <filter id="a" x="-.036" y="-.036" width="1.072" height="1.072" color-interpolation-filters="sRGB">
   <feGaussianBlur stdDeviation="0.81"/>
  </filter>
 </defs>
 <rect x="5" y="5.6712" width="54" height="54" rx="27" filter="url(#a)" opacity=".2"/>
 <rect x="5" y="5" width="54" height="54" rx="27" fill="#3f51b5"/>
 <path d="m32 19c-3.324 0-6 2.676-6 6v6h-4v14h20v-14h-4v-6c0-3.324-2.676-6-6-6zm0 2c2.492 0 4 1.092 4 4v6h-8v-6c0-2.908 1.508-4 4-4z" fill="#fff"/>
 <g fill="none" opacity=".35" stroke="#fff">
  <circle cx="32" cy="32" r="19" stroke-linecap="round" stroke-linejoin="round" stroke-width="2"/>
  <path d="m13 32h38" stroke-width="2"/>
  <path d="m32.01 13.004a19.183 19.183 0 0 0-14.662 6.8145c3.5189 1.9464 8.7778 3.1855 14.662 3.1855 5.8751 0 11.126-1.2365 14.645-3.1777a19.183 19.183 0 0 0-14.645-6.8223zm0 28c-5.9947 0-11.344 1.285-14.861 3.2949a19.183 19.183 0 0 0 14.861 7.0723 19.183 19.183 0 0 0 14.859-7.0742c-3.5178-2.0091-8.866-3.293-14.859-3.293z" stroke-linecap="round" stroke-linejoin="round" stroke-width="2"/>
  <path d="m32 13v38.365" stroke-width="2"/>
  <path d="m22 32c0-10.493 4.3498-19 10-19s10 8.5066 10 19-4.3496 19-10 19c-5.6502 0-10-8.5065-10-19z" stroke-linecap="round" stroke-linejoin="round" stroke-width="2"/>
 </g>
</svg>
