<svg width="512" height="512" enable-background="new" version="1.0" xmlns="http://www.w3.org/2000/svg">
 <defs>
  <filter id="a" x="-.036" y="-.036" width="1.072" height="1.072" color-interpolation-filters="sRGB">
   <feGaussianBlur stdDeviation="6.72"/>
  </filter>
 </defs>
 <circle cx="256" cy="261.42" r="224" filter="url(#a)" opacity=".25" stroke-width=".93333"/>
 <circle cx="256" cy="256" r="224" fill="#8bdc6e" stroke-width=".93333"/>
 <path d="M 256,16 A 240,240 0 0 0 16,256 240,240 0 0 0 16.041,257.17188 240,240 0 0 1 256,18 240,240 0 0 1 495.95898,256.82812 240,240 0 0 0 496,256 240,240 0 0 0 256,16 Z" fill="#fff" opacity=".2"/>
 <path d="m222.4 121.6-2.9604 35.401a105.6 105.6 0 0 0-30.865 17.85l-32.175-15.152-33.6 58.202 29.214 20.285a105.6 105.6 0 0 0-1.6152 17.814 105.6 105.6 0 0 0 1.5385 17.886l-29.138 20.212 33.6 58.202 32.101-15.112a105.6 105.6 0 0 0 30.935 17.737l2.9641 35.474h67.2l2.9603-35.401a105.6 105.6 0 0 0 30.865-17.85l32.175 15.152 33.6-58.202-29.214-20.285a105.6 105.6 0 0 0 1.6152-17.814 105.6 105.6 0 0 0-1.5385-17.886l29.138-20.212-33.6-58.202-32.101 15.112a105.6 105.6 0 0 0-30.935-17.737l-2.9641-35.474zm33.6 89.6a44.8 44.8 0 0 1 44.8 44.8 44.8 44.8 0 0 1-44.8 44.8 44.8 44.8 0 0 1-44.8-44.8 44.8 44.8 0 0 1 44.8-44.8z" enable-background="new" fill="#fff" stroke-width=".93333"/>
</svg>
