<svg width="64" height="64" version="1.1" xmlns="http://www.w3.org/2000/svg">
 <defs>
  <filter id="d" x="-.035357" y="-.11" width="1.0707" height="1.22" color-interpolation-filters="sRGB">
   <feGaussianBlur stdDeviation="0.825"/>
  </filter>
  <filter id="c" x="-.035357" y="-.11" width="1.0707" height="1.22" color-interpolation-filters="sRGB">
   <feGaussianBlur stdDeviation="0.825"/>
  </filter>
  <filter id="b" x="-.035357" y="-.11" width="1.0707" height="1.22" color-interpolation-filters="sRGB">
   <feGaussianBlur stdDeviation="0.825"/>
  </filter>
  <filter id="a" x="-.06" y="-.06" width="1.12" height="1.12" color-interpolation-filters="sRGB">
   <feGaussianBlur stdDeviation="0.9"/>
  </filter>
 </defs>
 <g stroke-width="2">
  <rect transform="matrix(0,-1,-1,0,0,1.0314)" x="-23" y="-60" width="18" height="56" rx="2" ry="2" filter="url(#d)" opacity=".25"/>
  <rect transform="matrix(0,-1,-1,0,0,1.0314)" x="-41" y="-60" width="18" height="56" rx="2" ry="2" filter="url(#c)" opacity=".25"/>
  <rect transform="matrix(0,-1,-1,0,0,1.0314)" x="-59" y="-60" width="18" height="56" rx="2" ry="2" filter="url(#b)" opacity=".25"/>
  <rect transform="matrix(0,-1,-1,0,0,0)" x="-23" y="-60" width="18" height="56" rx="2" ry="2" fill="#787c82"/>
  <g fill="none" stroke="#545454" stroke-linecap="round">
   <path d="m25.024 10.44-4.0172 6.0228"/>
   <path d="m19.024 10.44-4.0172 6.0228"/>
   <path d="m13.024 10.44-4.0172 6.0228"/>
  </g>
  <rect x="40" y="11" width="4" height="4" ry="2" fill="#76ff03"/>
  <rect x="46" y="11" width="4" height="4" ry="2" fill="#ff0"/>
  <rect x="52" y="11" width="4" height="4" ry="2" fill="#ffcd40"/>
  <path d="m31.024 10.44-4.0172 6.0228" fill="none" stroke="#545454" stroke-linecap="round"/>
 </g>
 <path d="m6 5c-1.108 0-2 0.892-2 2v0.88867c0-1.0464 0.892-1.8887 2-1.8887h52c1.108 0 2 0.84223 2 1.8887v-0.88867c0-1.108-0.892-2-2-2z" fill="#fff" opacity=".15" stroke-width=".5"/>
 <g stroke-width="2">
  <path d="m6 23c-1.108 0-2-0.892-2-2v-0.88868c0 1.0464 0.892 1.8887 2 1.8887h52c1.108 0 2-0.84224 2-1.8887v0.88868c0 1.108-0.892 2-2 2z" opacity=".15"/>
  <rect transform="matrix(0,-1,-1,0,0,0)" x="-41" y="-60" width="18" height="56" rx="2" ry="2" fill="#787c82"/>
  <g fill="none" stroke="#545454" stroke-linecap="round">
   <path d="m25.024 28.44-4.0172 6.0228"/>
   <path d="m19.024 28.44-4.0172 6.0228"/>
   <path d="m13.024 28.44-4.0172 6.0228"/>
   <path d="m31.024 28.44-4.0172 6.0228"/>
  </g>
 </g>
 <path d="m6 23c-1.108 0-2 0.892-2 2v0.88867c0-1.0464 0.892-1.8887 2-1.8887h52c1.108 0 2 0.84223 2 1.8887v-0.88867c0-1.108-0.892-2-2-2z" fill="#fff" opacity=".15" stroke-width=".5"/>
 <g stroke-width="2">
  <path d="m6 41c-1.108 0-2-0.892-2-2v-0.88868c0 1.0464 0.892 1.8887 2 1.8887h52c1.108 0 2-0.84224 2-1.8887v0.88868c0 1.108-0.892 2-2 2z" opacity=".15"/>
  <rect transform="matrix(0,-1,-1,0,0,0)" x="-59" y="-60" width="18" height="56" rx="2" ry="2" fill="#787c82"/>
  <g fill="none" stroke="#545454" stroke-linecap="round">
   <path d="m25.024 46.44-4.0172 6.0228"/>
   <path d="m19.024 46.44-4.0172 6.0228"/>
   <path d="m13.024 46.44-4.0172 6.0228"/>
   <path d="m31.024 46.44-4.0172 6.0228"/>
  </g>
 </g>
 <path d="m6 41c-1.108 0-2 0.892-2 2v0.88867c0-1.0464 0.892-1.8887 2-1.8887h52c1.108 0 2 0.84223 2 1.8887v-0.88867c0-1.108-0.892-2-2-2z" fill="#fff" opacity=".15" stroke-width=".5"/>
 <path d="m6 59c-1.108 0-2-0.892-2-2v-0.88868c0 1.0464 0.892 1.8887 2 1.8887h52c1.108 0 2-0.84224 2-1.8887v0.88868c0 1.108-0.892 2-2 2z" opacity=".15" stroke-width="2"/>
 <circle cx="46" cy="46" r="18" fill-rule="evenodd" filter="url(#a)" opacity=".15" style="paint-order:fill markers stroke"/>
 <circle cx="46" cy="46" r="18" fill="#5687e3" fill-rule="evenodd" style="paint-order:fill markers stroke"/>
 <path d="m48 32.156v5.8438h6v2h-6v4h11.842a14 14 0 0 0-1.8418-5.1719v-0.0098a14 14 0 0 0-0.0293-0.04297 14 14 0 0 0-0.0059-0.01172 14 14 0 0 0-0.15625-0.23047 14 14 0 0 0-0.61524-0.91406 14 14 0 0 0-0.32226-0.38867 14 14 0 0 0-0.56445-0.67969 14 14 0 0 0-0.45703-0.45312 14 14 0 0 0-0.54102-0.53125 14 14 0 0 0-0.43555-0.35156 14 14 0 0 0-0.66016-0.53125 14 14 0 0 0-0.19922-0.13086 14 14 0 0 0-0.83398-0.55273h-0.01563a14 14 0 0 0-5.1641-1.8438zm-4 0.0078a14 14 0 0 0-5.1562 1.8359h-0.02539a14 14 0 0 0-4.8184 4.8203v0.02734a14 14 0 0 0-1.8379 5.1523h5.9668a4 4 0 0 1-0.12891-1v-1a4 4 0 0 1 4-4h2v-5.8359zm-2 7.8359a2.014 2.014 0 0 0-0.58984 0.08984 1.994 1.994 0 0 0-0.69922 0.38086 2 2 0 0 0-0.49219 0.62305 1.994 1.994 0 0 0-0.21875 0.90627v1a2 2 0 0 0 0.27344 1h3.7266v-4h-2zm-9.8418 8a14 14 0 0 0 1.8418 5.1719v0.0098a14 14 0 0 0 0.0293 0.04297 14 14 0 0 0 0.16211 0.24219 14 14 0 0 0 0.61524 0.91406 14 14 0 0 0 0.32226 0.38867 14 14 0 0 0 0.56445 0.67969 14 14 0 0 0 0.45703 0.45312 14 14 0 0 0 0.54102 0.53125 14 14 0 0 0 0.43555 0.35156 14 14 0 0 0 0.66016 0.53125 14 14 0 0 0 0.19922 0.13086 14 14 0 0 0 0.83398 0.55273h0.01563a14 14 0 0 0 5.1641 1.8438v-5.8438h-6v-2h6v-4h-11.842zm15.842 0v4h2a2.014 2.014 0 0 0 0.58984-0.08984 1.994 1.994 0 0 0 0.69922-0.38086 2 2 0 0 0 0.49219-0.62305 1.994 1.994 0 0 0 0.21875-0.90625v-1a2 2 0 0 0-0.27344-1h-3.7266zm5.8711 0a4 4 0 0 1 0.12891 1v1a4 4 0 0 1-4 4h-2v5.8359a14 14 0 0 0 5.1562-1.8359h0.02539a14 14 0 0 0 4.8184-4.8203v-0.02734a14 14 0 0 0 1.8379-5.1523h-5.9668z" fill="#fff" fill-rule="evenodd" style="paint-order:fill markers stroke"/>
</svg>
