<svg width="512" height="512" enable-background="new" version="1.0" xmlns="http://www.w3.org/2000/svg">
 <defs>
  <filter id="a" x="-.021429" y="-.027273" width="1.0429" height="1.0545" color-interpolation-filters="sRGB">
   <feGaussianBlur stdDeviation="4"/>
  </filter>
  <filter id="f" x="-.024026" y="-.023974" width="1.0481" height="1.0479" color-interpolation-filters="sRGB">
   <feGaussianBlur stdDeviation="4.4046966"/>
  </filter>
  <clipPath id="b">
   <path d="m482.16 43.278-72 124.71c-4.432 7.6764-1.82 17.424 5.8564 21.856s17.424 1.82 21.856-5.8564l72-124.71z" opacity=".2"/>
  </clipPath>
  <filter id="d" x="-.02022" y="-.029519" width="1.0404" height="1.059" color-interpolation-filters="sRGB">
   <feGaussianBlur stdDeviation="1.2529599"/>
  </filter>
  <filter id="e" x="-.18" y="-.036" width="1.36" height="1.072" color-interpolation-filters="sRGB">
   <feGaussianBlur stdDeviation="2.4"/>
  </filter>
  <filter id="c" x="-.12" y="-.12" width="1.24" height="1.24" color-interpolation-filters="sRGB">
   <feGaussianBlur stdDeviation="2.2"/>
  </filter>
 </defs>
 <rect transform="matrix(0,-1,-1,0,0,0)" x="-434" y="-480" width="352" height="448" rx="24" ry="24" opacity=".2"/>
 <rect transform="matrix(0,-1,-1,0,-208,228)" x="-208" y="-688" width="352" height="448" rx="24" ry="24" filter="url(#a)" opacity=".1" stroke="#000" stroke-width="8"/>
 <rect transform="matrix(0,-1,-1,0,-208,228)" x="-208" y="-688" width="352" height="448" rx="24" ry="24" filter="url(#a)" opacity=".2"/>
 <rect transform="matrix(0,-1,-1,0,0,0)" x="-432" y="-480" width="352" height="448" rx="24" ry="24" fill="#78909c"/>
 <path d="m56 80c-13.296 0-24 10.704-24 24v2c0-13.296 10.704-24 24-24h400c13.296 0 24 10.704 24 24v-2c0-13.296-10.704-24-24-24z" fill="#fff" opacity=".2"/>
 <rect x="64" y="112" width="384" height="288" rx="0" ry="0" fill="#fff" opacity=".2"/>
 <g transform="matrix(-.5223 0 0 .5223 441.12 231.54)">
  <g transform="translate(-208,16)">
   <path d="m240-184.73v395.99c0 0.1104 8e-3 0.2176 0.024 0.328-0.0992 7.6628 1.7558 15.456 5.8813 22.601 9.7866 16.951 28.994 24.898 47.114 21.07h386.98v-87.999h-230.17l199.12-114.96-0.4136-0.7144 0.4456-0.2576-43.999-76.209-76.204 43.999-124.53 71.896 71.896-124.53 43.999-76.204-76.209-43.999-43.999 76.204-43.999 76.209-27.935 48.382v-231.81h-87.999z" filter="url(#f)" opacity=".1" stroke="#000" stroke-width="8"/>
   <path d="m240-184.73v395.99c0 0.1104 8e-3 0.2176 0.024 0.328-0.0992 7.6628 1.7558 15.456 5.8813 22.601 9.7866 16.951 28.994 24.898 47.114 21.07h386.98v-87.999h-230.17l199.12-114.96-0.4136-0.7144 0.4456-0.2576-43.999-76.209-76.204 43.999-124.53 71.896 71.896-124.53 43.999-76.204-76.209-43.999-43.999 76.204-43.999 76.209-27.935 48.382v-231.81h-87.999z" filter="url(#f)" opacity=".2"/>
   <path d="m328 208c0 24.376-19.624 44-44 44h44z" fill="#03a9f4"/>
   <path d="m592 164v88h-88v-88z" fill="#81d4fa"/>
   <path d="m504 164v88h-88v-88z" fill="#4fc3f7"/>
   <path d="m416 164v88h-88v-88z" fill="#29b6f6"/>
   <path d="m680 164v88h-88v-88z" fill="#b3e5fc"/>
   <path transform="matrix(1.3871,2.4025,-2.4025,1.3871,119.05,-1054.4)" d="m408 32v144c0 8.864 7.136 16 16 16s16-7.136 16-16v-144z" clip-path="url(#b)" filter="url(#d)" opacity=".2"/>
   <path d="m300.14 147.86-27.953 16.141h37.266zm27.859 48.25v11.891c0 16.078-8.5673 30.043-21.375 37.719l37.516-21.656zm-87.969 12.469c8e-3 0.6304 0.056 1.2591 0.0936 1.8906-0.032-0.6288-0.0856-1.2547-0.0936-1.8906zm24.531 38.875c0.136 0.064 0.2696 0.1376 0.4064 0.2032-0.1368-0.064-0.2704-0.136-0.4064-0.2032zm3.7657 1.6406c0.228 0.0872 0.4584 0.1664 0.6872 0.2496-0.2296-0.0824-0.46-0.164-0.6872-0.2496zm3.9687 1.2969c0.296 0.0816 0.5928 0.1584 0.89064 0.2344-0.2984-0.072-0.5944-0.1536-0.89064-0.2344zm22.125 0.328c-0.3248 0.08-0.6408 0.1784-0.96872 0.2496 0.3248-0.072 0.6448-0.1704 0.96872-0.2496zm-18.094 0.5784c0.4056 0.072 0.81128 0.1264 1.2187 0.1872-0.4072-0.056-0.81512-0.1168-1.2187-0.1872zm14.109 0.1872c-0.4128 0.064-0.81816 0.1384-1.2344 0.1872 0.412-0.048 0.82288-0.1264 1.2344-0.1872zm-10.016 0.344c0.6592 0.056 1.3223 0.072 1.9844 0.0936-0.6632-0.024-1.3288-0.04-1.9844-0.0936zm6.2657 0.048c-0.6952 0.04-1.3898 0.0848-2.0938 0.0936 0.6984-8e-3 1.3947-0.048 2.0938-0.0936z" fill="#9c27b0"/>
   <path d="m528.77 15.856c55.364 2.9906 52.658 37.961 44 76.21l-76.21 44c-24.608-19.352-60.365-31.918-44-76.21z" fill="#ce93d8"/>
   <path d="m452.56 59.856 44 76.21-76.21 44c-50.814-5.6866-51.07-38.95-44-76.21z" fill="#ba68c8"/>
   <path d="m376.35 103.86 44 76.21-76.21 44-44-76.21z" fill="#ab47bc"/>
   <path d="m604.98-28.144 44 76.21-76.21 44-44-76.21z" fill="#e1bee7"/>
   <path transform="matrix(2.4025,1.3871,-1.3871,2.4025,-490.17,-804.12)" d="m408 32v144c0 8.864 7.136 16 16 16s16-7.136 16-16v-144z" clip-path="url(#b)" opacity=".2"/>
   <path d="m267.94 147.86-9.3126 16.141h37.266zm60.062 34.688v25.453c0 7.605-1.9126 14.74-5.2813 20.969l21.422-37.109zm-87.922 27.047c0.024 0.6624 0.04 1.3254 0.0936 1.9844-0.056-0.656-0.072-1.3209-0.0936-1.9844zm0.4376 4.8594c0.064 0.4072 0.1152 0.81344 0.1872 1.2187-0.072-0.4032-0.128-0.81136-0.1872-1.2187zm0.85944 4.3594c0.072 0.2976 0.1528 0.5944 0.2344 0.89064-0.0808-0.296-0.1592-0.592-0.2344-0.89064zm1.2812 4.1719c0.0832 0.2296 0.1632 0.4592 0.2496 0.6872-0.0864-0.2272-0.1672-0.4584-0.2496-0.6872zm1.6875 4.0469c0.064 0.136 0.136 0.2704 0.2032 0.4064-0.064-0.136-0.1376-0.2696-0.2032-0.4064zm78.281 2.0781c-0.2616 0.48-0.5648 0.93768-0.84368 1.4062 0.1128-0.1896 0.2488-0.3552 0.3592-0.5472l0.484-0.85936zm-2.8437 4.4844c-0.1048 0.1464-0.2064 0.2928-0.3128 0.4376 0.1064-0.1448 0.208-0.2912 0.3128-0.4376zm-2.625 3.3438c-0.2224 0.2552-0.4592 0.5-0.6872 0.7496 0.2288-0.2504 0.464-0.4928 0.6872-0.7496zm-2.9533 3.0625c-0.2704 0.2552-0.5512 0.5016-0.82808 0.7496 0.2776-0.2488 0.5568-0.4928 0.82808-0.7496zm-3.2187 2.75c-0.3304 0.2568-0.6624 0.5032-1 0.7496 0.336-0.2464 0.6696-0.4936 1-0.7496zm-3.4688 2.4375c-0.3736 0.236-0.7592 0.4624-1.1406 0.6872 0.3832-0.2256 0.764-0.4496 1.1406-0.6872zm-3.5 1.9843c-0.5456 0.2784-1.0975 0.5408-1.6562 0.7968 0.5576-0.2552 1.1092-0.5184 1.6562-0.7968zm-3.8125 1.7188c-0.5712 0.2256-1.1514 0.4384-1.7344 0.6408 0.5824-0.2024 1.1605-0.4136 1.7344-0.6408zm-4.1094 1.4062c-0.5616 0.1592-1.1326 0.2848-1.7031 0.4216 0.5688-0.1376 1.1401-0.2616 1.7031-0.4216zm-4.1562 0.95312c-0.584 0.1056-1.1738 0.1984-1.7657 0.2816 0.592-0.0832 1.1784-0.1744 1.7657-0.2816zm-4.2188 0.5624c-0.7224 0.056-1.4557 0.084-2.1874 0.1096 0.7304-0.024 1.4608-0.048 2.1874-0.1096zm-6.1874 0.064c0.6312 0.04 1.26 0.0848 1.8906 0.0936-0.636-8e-3 -1.2617-0.056-1.8906-0.0936z" fill="#d50000"/>
   <path d="m399.93-80.774c63.874-27.468 66.123 12.559 76.21 44l-44 76.21c-54.036 31.146-56.715-19.88-76.21-44z" fill="#ff8a80"/>
   <path d="m355.93-4.5641 76.21 44-44 76.21c-38.038 7.7949-62.158-9.1535-76.21-44z" fill="#ff5252"/>
   <path d="m311.93 71.646 76.21 44-44 76.21-76.21-44z" fill="#ff1744"/>
   <path transform="matrix(2.7742,0,0,2.7742,-891.15,-280.65)" d="m408 32v144c0 8.864 7.136 16 16 16s16-7.136 16-16v-144z" clip-path="url(#b)" filter="url(#e)" opacity=".2"/>
   <path d="m443.93-156.98 76.21 44-44 76.21-76.21-44z" fill="#ffc9c4"/>
   <path d="m240 164v44c0 24.376 19.624 44 44 44s44-19.624 44-44v-44c-29.333-42.346-58.667-28.748-88 0z" fill="#ff9800"/>
   <path d="m240-100c27.494-22.074 57.949-8.6155 88 0v88c-26.74 16.856-51.128 49.003-88 0z" fill="#ffcc80"/>
   <path d="m240-12h88v88c-34.313 39.837-64.968 50.411-88 0z" fill="#ffb74d"/>
   <path d="m240 76h88v88h-88z" fill="#ffa726"/>
   <path d="m240-188h88v88h-88z" fill="#ffe0b2"/>
   <path d="m306 214a22 22 0 0 1-22 22 22 22 0 0 1-22-22 22 22 0 0 1 22-22 22 22 0 0 1 22 22z" filter="url(#c)" opacity=".2"/>
   <path d="m306 208a22 22 0 0 1-22 22 22 22 0 0 1-22-22 22 22 0 0 1 22-22 22 22 0 0 1 22 22z" fill="#fff"/>
   <path transform="translate(0,76)" d="m240-264v2h88v-2zm203.94 31.016-44 76.203-44 76.219-27.938 48.391v2l27.938-48.391 44-76.219 44-76.203 75.336 43.5 0.86718-1.5zm161.05 128.84-76.203 44-76.219 44-49.062 28.641-6.9531 12.031 1.7422-1.0156 5.2109-9.0156 49.062-28.641 76.219-44 76.203-44 43.135 74.705 0.86524-0.50195zm-156.91 192.14-3.4668 2h235.39v-2h-176z" fill="#fff" opacity=".2"/>
  </g>
 </g>
</svg>
