<svg width="64" height="64" version="1.1" xmlns="http://www.w3.org/2000/svg" xmlns:xlink="http://www.w3.org/1999/xlink">
 <g transform="translate(0,1)" stroke-width=".5">
  <g id="a" transform="matrix(4,0,0,4,-222,-1044)" enable-background="new" stroke-width=".5">
   <rect transform="matrix(0,-1,-1,0,0,0)" x="-266.5" y="-70.5" width="4.5" height="14" rx=".5" ry=".5" fill="#787c82"/>
   <path d="m61.756 263.36-1.0043 1.5057" fill="none" stroke="#545454" stroke-linecap="round" stroke-width=".5"/>
   <path d="m60.256 263.36-1.0043 1.5057" fill="none" stroke="#545454" stroke-linecap="round" stroke-width=".5"/>
   <path d="m58.756 263.36-1.0043 1.5057" fill="none" stroke="#545454" stroke-linecap="round" stroke-width=".5"/>
   <rect x="65.5" y="263.5" width="1" height="1" ry=".5" fill="#76ff03"/>
   <rect x="67" y="263.5" width="1" height="1" ry=".5" fill="#ff0"/>
   <rect x="68.5" y="263.5" width="1" height="1" ry=".5" fill="#ffcd40"/>
   <path d="m63.256 263.36-1.0043 1.5057" fill="none" stroke="#545454" stroke-linecap="round" stroke-width=".5"/>
   <path transform="matrix(.25 0 0 .25 55.5 261)" d="m6 4c-1.108 0-2 0.892-2 2v0.88867c0-1.0464 0.892-1.8887 2-1.8887h52c1.108 0 2 0.84223 2 1.8887v-0.88867c0-1.108-0.892-2-2-2z" fill="#fff" opacity=".15"/>
   <path d="m57 266.5c-0.277 0-0.5-0.223-0.5-0.5v-0.22217c0 0.26161 0.223 0.47217 0.5 0.47217h13c0.277 0 0.5-0.21056 0.5-0.47217v0.22217c0 0.277-0.223 0.5-0.5 0.5z" opacity=".15"/>
  </g>
  <use transform="translate(0,18)" width="100%" height="100%" enable-background="new" xlink:href="#a"/>
  <use transform="translate(0,36)" width="100%" height="100%" enable-background="new" xlink:href="#a"/>
 </g>
</svg>
