<svg width="64" height="64" version="1" xmlns="http://www.w3.org/2000/svg">
 <defs>
  <filter id="filter839" x="-.037969" y="-.26276" width="1.0759" height="1.5255" color-interpolation-filters="sRGB">
   <feGaussianBlur stdDeviation="0.50624574"/>
  </filter>
  <filter id="filter843" x="-.023365" y="-.27" width="1.0467" height="1.54" color-interpolation-filters="sRGB">
   <feGaussianBlur stdDeviation="0.50624574"/>
  </filter>
  <filter id="filter847" x="-.04673" y="-.050625" width="1.0935" height="1.1013" color-interpolation-filters="sRGB">
   <feGaussianBlur stdDeviation="0.50624574"/>
  </filter>
 </defs>
 <path d="m16 51.376v2c0 1.454 1.1906 2.624 2.668 2.624h26.664c1.478 0 2.668-1.17 2.668-2.624v-2c0 1.454-1.19 2.624-2.668 2.624h-26.664c-1.4774 0-2.668-1.17-2.668-2.624z" filter="url(#filter839)" opacity=".2"/>
 <rect transform="matrix(0,-1,-1,0,0,0)" x="-55" y="-48" width="42" height="32" rx="2.626" ry="2.666" fill="#8e8e8e"/>
 <path d="m6.0004 45.5v2c0 1.384 1.1612 2.5 2.6016 2.5h46.796c1.44 0 2.602-1.116 2.602-2.5v-2c0 1.384-1.162 2.5-2.602 2.5h-46.796c-1.4408 0-2.602-1.116-2.602-2.5z" filter="url(#filter843)" opacity=".2"/>
 <rect transform="matrix(0,-1,-1,0,0,0)" x="-49" y="-58" width="40" height="52" rx="2.5" ry="2.6" fill="#4f4f4f"/>
 <rect transform="matrix(0,-1,-1,0,0,0)" x="-45" y="-54" width="32" height="44" rx="0" ry="0" fill="#2c80c2"/>
 <path d="m8.6016 9c-1.4404 0-2.6016 1.115-2.6016 2.5v1c0-1.385 1.1612-2.5 2.6016-2.5h46.797c1.44 0 2.6016 1.115 2.6016 2.5v-1c0-1.385-1.1616-2.5-2.6016-2.5h-46.797z" fill="#ffffff" opacity=".1"/>
 <path d="m20.301 18c-0.7202 0-1.3008 0.59486-1.3008 1.333v18.35c0 0.7381 0.58058 1.2998 1.3008 1.2998h5.6992v1.6647c0 0.73809 0.59635 1.4827 1.3008 1.333h4.6992 4.6992c0.7202 0 1.3008-0.59486 1.3008-1.333v-1.6647h5.6992c0.7202 0 1.3008-0.56168 1.3008-1.2998v-18.35c0-0.73809-0.58058-1.333-1.3008-1.333h-11.699zm2.6992 2.9977h9 9c0.554 0 1 0.44565 1 0.99922v12.989c0 0.55357-0.446 0.99922-1 0.99922h-9-9c-0.554 0-1-0.44565-1-0.99922v-12.989c0-0.55357 0.44939-0.93802 1-0.99922z" filter="url(#filter847)" opacity=".2"/>
 <path d="m20.301 17.001c-0.7202 0-1.3008 0.59486-1.3008 1.333v18.35c0 0.7381 0.58058 1.2998 1.3008 1.2998h5.6992v1.6647c0 0.73809 0.59635 1.4827 1.3008 1.333h4.6992 4.6992c0.7202 0 1.3008-0.59486 1.3008-1.333v-1.6647h5.6992c0.7202 0 1.3008-0.56168 1.3008-1.2998v-18.35c0-0.73809-0.5832-1.2716-1.3008-1.333h-11.699zm2.6992 2.9977h9 9c0.554 0 1 0.44565 1 0.99922v12.989c0 0.55357-0.446 0.99922-1 0.99922h-9-9c-0.554 0-1-0.44565-1-0.99922v-12.989c0-0.55357 0.44939-0.93802 1-0.99922z" fill="#ffffff"/>
</svg>
