<svg version="1.1" viewBox="0 0 48 48" xmlns="http://www.w3.org/2000/svg">
 <defs>
  <filter id="filter2557" x="-.027" y="-.027" width="1.054" height="1.054" color-interpolation-filters="sRGB">
   <feGaussianBlur stdDeviation="0.495"/>
  </filter>
  <filter id="filter2599" x="-.074999" y="-.075001" width="1.15" height="1.15" color-interpolation-filters="sRGB">
   <feGaussianBlur stdDeviation="0.9374902"/>
  </filter>
 </defs>
 <circle cx="24" cy="25" r="22" fill="#000000" filter="url(#filter2557)" opacity=".15" stroke-width=".95652"/>
 <circle cx="24" cy="24" r="22" fill="#62a336" stroke-width=".95652"/>
 <path d="m24 10c-0.66935 3.24e-4 -1.3375 0.057-2 0.15234v14.848h4v-14.85c-0.66256-0.094694-1.3307-0.15071-2-0.15039zm4 0.54492v4.2207c4.2169 1.6461 6.9978 5.7075 7 10.234 3e-3 6.0751-4.9249 11-11 11s-11-4.9249-11-11c1.51e-4 -4.5311 2.7791-8.5984 7-10.246v-4.1953c-6.494 1.7968-10.997 7.7034-11 14.441-0.00382 8.2843 6.7157 15 15 15s15-6.7157 15-15c-3.54e-4 -6.7431-4.5011-12.657-11-14.455z" fill="#000000" filter="url(#filter2599)" opacity=".15" style="paint-order:normal"/>
 <path d="m24 9c-0.66935 3.235e-4 -1.3375 0.056996-2 0.15234v14.848h4v-14.85c-0.66256-0.094694-1.3307-0.15071-2-0.15039zm4 0.54492v4.2207c4.2169 1.6461 6.9978 5.7075 7 10.234 3e-3 6.0751-4.9249 11-11 11s-11-4.9249-11-11c1.51e-4 -4.5311 2.7791-8.5984 7-10.246v-4.1953c-6.494 1.7968-10.997 7.7034-11 14.441-0.00382 8.2843 6.7157 15 15 15s15-6.7157 15-15c-3.54e-4 -6.7431-4.5011-12.657-11-14.455z" fill="#f9f9f9" style="paint-order:normal"/>
 <path d="m24 2a22 22 0 0 0-22 22 22 22 0 0 0 0.035156 0.5 22 22 0 0 1 21.965-21.5 22 22 0 0 1 21.98 21.262 22 22 0 0 0 0.019531-0.26172 22 22 0 0 0-22-22z" fill="#ffffff" opacity=".1" stroke-width=".95652"/>
</svg>
