<svg width="64" height="64" version="1.1" xmlns="http://www.w3.org/2000/svg">
 <defs>
  <filter id="a-5" x="-.039001" y="-.033428" width="1.078" height="1.0669" color-interpolation-filters="sRGB">
   <feGaussianBlur stdDeviation="0.20637525"/>
  </filter>
 </defs>
 <path transform="scale(3.7796)" d="m3.4395 1.3543c-0.73289 0-1.3229 0.59001-1.3229 1.3229v12.171c0 0.73289 0.59001 1.3229 1.3229 1.3229h10.054c0.73289 0 1.3229-0.59001 1.3229-1.3229v-10.319l-3.175-3.175z" fill-rule="evenodd" filter="url(#a-5)" opacity=".15" stroke-width=".26458" style="paint-order:stroke fill markers"/>
 <path d="m13 4c-2.77 0-5 2.23-5 5v46c0 2.77 2.23 5 5 5h38c2.77 0 5-2.23 5-5v-39l-12-12z" fill="#2095f2" fill-rule="evenodd" style="paint-order:stroke fill markers"/>
 <path d="m55.999 16-12-12v6.9998c0 2.77 2.23 5 5 5z" fill="#ffffff" fill-rule="evenodd" opacity=".35" stroke-width="3.7796" style="paint-order:stroke fill markers"/>
 <path d="m43.998 11v0.58399c0 3.0009 2.23 5.4162 5 5.4162h6.9998l5.37e-4 -1.0002-7.0006 1.89e-4c-2.77 7.4e-5 -5-2.23-5-5z" fill-rule="evenodd" opacity=".1" stroke-width="3.9338" style="paint-order:stroke fill markers"/>
 <path d="m19.4 22c-0.7756 0-1.4004 0.59532-1.4004 1.334v5.332c0 0.73867 0.62479 1.334 1.4004 1.334h25.199c0.7756 0 1.4004-0.59532 1.4004-1.334v-5.332c0-0.73867-0.62479-1.334-1.4004-1.334zm0.01563 11c-0.78484 0-1.416 0.63118-1.416 1.416v14.168c0 0.78483 0.63118 1.416 1.416 1.416h14.168c0.78483 0 1.416-0.63118 1.416-1.416v-14.168c0-0.78483-0.63118-1.416-1.416-1.416zm19.918 0c-0.73867 0-1.334 0.63118-1.334 1.416v14.168c0 0.78483 0.59532 1.416 1.334 1.416h5.332c0.73867 0 1.334-0.63118 1.334-1.416v-14.168c0-0.78483-0.59532-1.416-1.334-1.416z" fill="#ffffff"/>
</svg>
