<svg width="64" height="64" version="1.1" xmlns="http://www.w3.org/2000/svg">
 <defs>
  <filter id="a-3" x="-.039001" y="-.033428" width="1.078" height="1.0669" color-interpolation-filters="sRGB">
   <feGaussianBlur stdDeviation="0.20637525"/>
  </filter>
 </defs>
 <path transform="scale(3.7796)" d="m3.4395 1.3543c-0.73289 0-1.3229 0.59001-1.3229 1.3229v12.171c0 0.73289 0.59001 1.3229 1.3229 1.3229h10.054c0.73289 0 1.3229-0.59001 1.3229-1.3229v-10.319l-3.175-3.175z" fill-rule="evenodd" filter="url(#a-3)" opacity=".15" stroke-width=".26458" style="paint-order:stroke fill markers"/>
 <path d="m13 4c-2.77 0-5 2.23-5 5v46c0 2.77 2.23 5 5 5h38c2.77 0 5-2.23 5-5v-39l-12-12z" fill="#0a99d6" fill-rule="evenodd" style="paint-order:stroke fill markers"/>
 <path d="m55.999 16-12-12v6.9998c0 2.77 2.23 5 5 5z" fill="#ffffff" fill-rule="evenodd" opacity=".35" stroke-width="3.7796" style="paint-order:stroke fill markers"/>
 <path d="m43.998 11v0.58399c0 3.0009 2.23 5.4162 5 5.4162h6.9998l5.37e-4 -1.0002-7.0006 1.89e-4c-2.77 7.4e-5 -5-2.23-5-5z" fill-rule="evenodd" opacity=".1" stroke-width="3.9338" style="paint-order:stroke fill markers"/>
 <path d="m32 22c-7.732 0-14 6.268-14 14h8v-5.5996l8.5996 8.4004-8.5996 8.3984v-5.1992h-6.6191c2.3093 4.8644 7.2081 7.9931 12.619 8 7.732 0 14-6.268 14-14s-6.268-14-14-14z" fill="#ffffff"/>
</svg>
