<svg width="16" height="16" enable-background="new" version="1.1" xmlns="http://www.w3.org/2000/svg">
 <path d="m11 6c2 0 2 3 0 3s-2-3 0-3zm0 4c2.5 0 2.5 1.5 2.5 1.5v0.5h-5v-0.5s0-1.5 2.5-1.5z" fill="#555555"/>
 <path d="m2.5 2c-0.831 0-1.5 0.669-1.5 1.5v0.5 2 6c0 1.108 0.892 2 2 2h10c1.108 0 2-0.892 2-2v-6c0-1.108-0.892-2-2-2h-1-4l-2-2h-3.5zm8.5 3c0.75 0 1.4398 0.31726 1.873 0.80469s0.62695 1.0981 0.62695 1.6953c0 0.53001-0.16283 1.0658-0.5 1.5215v0.43164c0.39258 0.18109 0.73477 0.39187 0.95508 0.65625 0.5224 0.62688 0.54492 1.3906 0.54492 1.3906v0.5a1.0001 1.0001 0 0 1-1 1h-5a1.0001 1.0001 0 0 1-1-1h-4.5v-6h5.9844c0.047211-0.065287 0.087801-0.13369 0.14258-0.19531 0.43327-0.48743 1.123-0.80469 1.873-0.80469z" fill="#555555"/>
</svg>
