<svg width="16" height="16" enable-background="new" version="1.1" xmlns="http://www.w3.org/2000/svg">
 <path d="m2.5 2c-0.831 0-1.5 0.669-1.5 1.5v0.5 2 6c0 1.108 0.892 2 2 2h10c1.108 0 2-0.892 2-2v-6c0-1.108-0.892-2-2-2h-1-4l-2-2h-3.5zm0.5 4h7 0.021484 2.9785v0.75781c0.37286 0.18153 0.73302 0.38299 1.0605 0.62305a1.0001 1.0001 0 0 1 0.14844 1.4805l-1.209 1.3281v1.8105h-1.6465l-0.61328 0.67383a1.0001 1.0001 0 0 1-1.4766 0.001953l-0.61914-0.67578h-5.6445v-6z" fill="#555555"/>
 <path d="m 10,7 c 1.31,0 2.488,0.469 3.469,1.188 L 10,12 6.531,8.219 C 7.516,7.492 8.681,7 10.001,7 Z" fill="#555555"/>
</svg>
