<svg width="64" height="64" version="1.1" xmlns="http://www.w3.org/2000/svg" xmlns:xlink="http://www.w3.org/1999/xlink">
 <defs>
  <linearGradient id="a">
   <stop offset="0"/>
   <stop stop-opacity="0" offset="1"/>
  </linearGradient>
  <filter id="d" x="-.03075" y="-.043412" width="1.0615" height="1.0868" color-interpolation-filters="sRGB">
   <feGaussianBlur stdDeviation="0.3075"/>
  </filter>
  <linearGradient id="b" x1="31" x2="31" y1="1005.4" y2="1003.4" gradientTransform="matrix(.92593 0 0 1 2.3704 -988.36)" gradientUnits="userSpaceOnUse" xlink:href="#a"/>
  <radialGradient id="c" cx="32" cy="1021.9" r="25" gradientTransform="matrix(-1 0 0 -.080001 64 137.74)" gradientUnits="userSpaceOnUse" xlink:href="#a"/>
 </defs>
 <g transform="translate(0 -988.36)" stroke-width="1.4241">
  <path transform="translate(0 988.36)" d="m13 8.002c-1.108 0-2 0.892-2 2h-2.2148c-0.98928 0-1.7852 0.892-1.7852 2v6c0 1.108 0.79588 2 1.7852 2h46.43c0.98928 0 1.7852-0.892 1.7852-2v-6c0-1.108-0.79588-2-1.7852-2h-24.215c0-1.108-0.892-2-2-2z" fill="#AB47BC"/>
  <path transform="translate(0 988.36)" d="m13 8.002c-1.108 0-2 0.892-2 2h-2.2148c-0.98928 0-1.7852 0.892-1.7852 2v6c0 1.108 0.79588 2 1.7852 2h46.43c0.98928 0 1.7852-0.892 1.7852-2v-6c0-1.108-0.79588-2-1.7852-2h-24.215c0-1.108-0.892-2-2-2z" opacity=".15"/>
  <rect x="10" y="1001.4" width="44" height="7" rx=".88" ry="1" fill="#fff"/>
 </g>
 <rect x="7" y="15.04" width="50" height="2" ry="0" fill="url(#b)" opacity=".1" stroke-width="1.4088"/>
 <rect x="7" y="56.04" width="50" height="5" ry="0" fill="url(#c)" opacity=".1" stroke-width="1.4088"/>
 <rect x="4" y="17.04" width="56" height="39" rx="2" ry="2.0001" fill="#AB47BC" stroke-width="1.4241"/>
 <path d="m4 53.039v1c0 1.1081 0.892 2 2 2h52c1.108 0 2-0.89194 2-2v-1c0 1.108-0.892 2-2 2h-52c-1.108 0-2-0.892-2-2z" opacity=".15" stroke-width="1.4241"/>
 <path d="m40.262 34.24c-3.1066 0-5.7521 1.9595-6.8906 4.7329-2.8917 0.4429-5.1094 2.9826-5.1094 6.0853 0 3.414 2.6863 6.1818 6 6.1818h12.75c2.8995 0 5.25-2.4218 5.25-5.4091 0-2.7766-2.0262-5.0517-4.6406-5.3609-0.68186-3.5443-3.7191-6.23-7.3594-6.23z" enable-background="new" filter="url(#d)" opacity=".15"/>
 <path d="m40 34.04c-3.1066 0-5.7521 1.9595-6.8906 4.7329-2.8917 0.4429-5.1094 2.9826-5.1094 6.0853 0 3.414 2.6863 6.1818 6 6.1818h12.75c2.8995 0 5.25-2.4218 5.25-5.4091 0-2.7766-2.0262-5.0517-4.6406-5.3609-0.68186-3.5443-3.7191-6.23-7.3594-6.23z" enable-background="new" fill="#fff"/>
</svg>
