<svg width="512" height="512" enable-background="new" version="1.0" xmlns="http://www.w3.org/2000/svg" xmlns:osb="http://www.openswatchbook.org/uri/2009/osb" xmlns:xlink="http://www.w3.org/1999/xlink">
 <defs>
  <filter id="b" x="-.024" y="-.024" width="1.048" height="1.048" color-interpolation-filters="sRGB">
   <feGaussianBlur stdDeviation="4.8"/>
  </filter>
  <filter id="a" x="-.024" y="-.024" width="1.048" height="1.048" color-interpolation-filters="sRGB">
   <feGaussianBlur stdDeviation="4.8"/>
  </filter>
 </defs>
 <g transform="translate(0,212)">
  <g transform="translate(-208,16)" enable-background="new">
   <g>
    <circle cx="464" cy="32" r="240" filter="url(#b)" opacity=".2"/>
    <circle cx="464" cy="30" r="240" opacity=".2"/>
    <circle cx="464" cy="32" r="240" filter="url(#a)" opacity=".1" stroke="#000" stroke-width="8"/>
   </g>
   <circle cx="464" cy="28" r="240" fill="#a1887f"/>
   <path transform="translate(0,-244)" d="m 464,32 a 240,240 0 0 0 -240,240 240,240 0 0 0 0.041,1.17188 A 240,240 0 0 1 464,34 240,240 0 0 1 703.95898,272.82812 240,240 0 0 0 704,272 240,240 0 0 0 464,32 Z" fill="#fff" opacity=".2"/>
   <path d="m448-177.31a208 208 0 0 0-191.25 191.31h191.25zm32 0.0938v191.22h191.19a208 208 0 0 0-191.19-191.22zm-223.19 223.22a208 208 0 0 0 191.19 191.22v-191.22zm223.19 0v191.31a208 208 0 0 0 191.25-191.31z" fill="#fff" opacity=".2"/>
   <path d="m448-179.31a208 208 0 0 0-191.25 191.31h191.25zm32 0.0938v191.22h191.19a208 208 0 0 0-191.19-191.22zm-223.19 223.22a208 208 0 0 0 191.19 191.22v-191.22zm223.19 0v191.31a208 208 0 0 0 191.25-191.31z" fill="#6d4c41"/>
  </g>
 </g>
</svg>
