<svg width="512" height="512" enable-background="new" version="1.0" xmlns="http://www.w3.org/2000/svg">
 <defs>
  <filter id="a" x="-.024" y="-.024" width="1.048" height="1.048" color-interpolation-filters="sRGB">
   <feGaussianBlur stdDeviation="4.48"/>
  </filter>
  <filter id="b" x="-.024002" y="-.023998" width="1.048" height="1.048" color-interpolation-filters="sRGB">
   <feGaussianBlur stdDeviation="0.0933301"/>
  </filter>
  <filter id="c" x="-.028804" y="-.020569" width="1.0576" height="1.0411" color-interpolation-filters="sRGB">
   <feGaussianBlur stdDeviation="0.2400326"/>
  </filter>
 </defs>
 <rect transform="matrix(0,-1,-1,0,0,0)" x="-482" y="-480" width="448" height="448" rx="24" ry="24" opacity=".2"/>
 <path d="m56 482c-13.296 0-24-10.704-24-24v-2c0 13.296 10.704 24 24 24h400c13.296 0 24-10.704 24-24v2c0 13.296-10.704 24-24 24z" opacity=".2"/>
 <rect transform="matrix(0,-1,-1,0,-208,228)" x="-256" y="-688" width="448" height="448" rx="24" ry="24" filter="url(#a)" opacity=".1" stroke="#000" stroke-width="8"/>
 <rect transform="matrix(0,-1,-1,0,-208,228)" x="-256" y="-688" width="448" height="448" rx="24" ry="24" filter="url(#a)" opacity=".2"/>
 <rect transform="matrix(0,-1,-1,0,0,0)" x="-480" y="-480" width="448" height="448" rx="24" ry="24" fill="#d7ccc8"/>
 <path d="m56 32c-13.296 0-24 10.704-24 24v2c0-13.296 10.704-24 24-24h400c13.296 0 24 10.704 24 24v-2c0-13.296-10.704-24-24-24z" fill="#fff" opacity=".1"/>
 <path d="m456 480c13.296 0 24-10.704 24-24v-2c0 13.296-10.704 24-24 24h-400c-13.296 0-24-10.704-24-24v2c0 13.296 10.704 24 24 24z" opacity=".2"/>
 <g fill-rule="evenodd">
  <path d="M 54.4,480 256,278.4 457.6,480 Z" fill="#2196f3"/>
  <path d="M 480,457.6 278.4,256 480,54.4 Z" fill="#4caf50"/>
  <path d="m275.8 236.2-39.598 39.598 204.2 204.2h15.598c13.296 0 24-10.704 24-24v-15.598l-204.2-204.2z" color="#000000" color-rendering="auto" dominant-baseline="auto" enable-background="accumulate" fill="#feea3a" image-rendering="auto" shape-rendering="auto" solid-color="#000000" style="font-feature-settings:normal;font-variant-alternates:normal;font-variant-caps:normal;font-variant-ligatures:normal;font-variant-numeric:normal;font-variant-position:normal;isolation:auto;mix-blend-mode:normal;shape-padding:0;text-decoration-color:#000000;text-decoration-line:none;text-decoration-style:solid;text-indent:0;text-orientation:mixed;text-transform:none;white-space:normal"/>
 </g>
 <path d="m440.4 32-408.4 408.4v15.598c0 13.296 10.704 24 24 24h15.598l408.4-408.4v-15.598c0-13.296-10.704-24-24-24h-15.598z" color="#000000" color-rendering="auto" dominant-baseline="auto" enable-background="accumulate" fill="#fff" image-rendering="auto" shape-rendering="auto" solid-color="#000000" style="font-feature-settings:normal;font-variant-alternates:normal;font-variant-caps:normal;font-variant-ligatures:normal;font-variant-numeric:normal;font-variant-position:normal;isolation:auto;mix-blend-mode:normal;shape-padding:0;text-decoration-color:#000000;text-decoration-line:none;text-decoration-style:solid;text-indent:0;text-orientation:mixed;text-transform:none;white-space:normal"/>
 <path transform="matrix(12,0,0,12,-1784,-2842.1)" d="m180 238.34c-5.5228 0-10 4.4772-10 10 0 0.34518 0.0284 0.66382 0.0624 1 0.0274 0.3345 0.0716 0.67234 0.125 1 1.145 7.0289 5.8126 12.007 9.8126 16.007 4-4 8.6674-8.9778 9.8124-16.007 0.0534-0.32766 0.0976-0.6655 0.125-1 0.0342-0.33618 0.0624-0.65482 0.0624-1 0-5.5228-4.4772-10-10-10z" color="#000000" enable-background="new" filter="url(#c)" opacity=".2"/>
 <path d="m376 16c-66.275 0-120 53.726-120 120 0 4.1422 0.3408 7.9659 0.74881 12 0.3288 4.014 0.85921 8.0682 1.5 12 13.74 84.347 69.752 144.08 117.75 192.08 48-48 104.01-107.74 117.75-192.08 0.6408-3.932 1.1712-7.9861 1.5-12 0.41041-4.0342 0.74881-7.8579 0.74881-12 0-66.275-53.726-120-120-120z" color="#000000" enable-background="new" fill="#f44336"/>
 <path transform="matrix(12,0,0,12,-1784,-2840.1)" d="m180 243.51c-2.5694 0-4.666 2.0986-4.666 4.668s2.0966 4.666 4.666 4.666 4.666-2.0966 4.666-4.666-2.0966-4.668-4.666-4.668z" color="#000000" color-rendering="auto" enable-background="new" filter="url(#b)" image-rendering="auto" opacity=".2" shape-rendering="auto" solid-color="#000000" style="isolation:auto;mix-blend-mode:normal;text-decoration-color:#000000;text-decoration-line:none;text-decoration-style:solid;text-indent:0;text-transform:none;white-space:normal"/>
 <path d="m376 80c-30.833 0-55.993 25.16-55.993 55.993s25.16 56.016 55.993 56.016 55.993-25.183 55.993-56.016-25.16-55.993-55.993-55.993z" color="#000000" color-rendering="auto" enable-background="new" fill="#fff" image-rendering="auto" shape-rendering="auto" solid-color="#000000" style="isolation:auto;mix-blend-mode:normal;text-decoration-color:#000000;text-decoration-line:none;text-decoration-style:solid;text-indent:0;text-transform:none;white-space:normal"/>
 <path d="m376 16c-66.274 1e-3 -120 53.728-120 120 0 0.26353 0.0129 0.51626 0.0156 0.77735 0.65706-65.71 54.119-118.78 119.98-118.78h2e-3c65.87 1e-3 119.33 53.078 119.98 118.79 3e-3 -0.26628 0.0156-0.52414 0.0156-0.79297 3e-5 -66.274-53.724-120-120-120z" color="#000000" enable-background="new" fill="#fff" opacity=".2"/>
</svg>
