<svg xmlns="http://www.w3.org/2000/svg" width="512" height="512" enable-background="new" version="1.0"><defs><filter id="a" width="1.048" height="1.048" x="-.024" y="-.024" color-interpolation-filters="sRGB"><feGaussianBlur stdDeviation="4.48"/></filter><filter id="b" width="1.048" height="1.048" x="-.024" y="-.024" color-interpolation-filters="sRGB"><feGaussianBlur stdDeviation="3.52"/></filter></defs><g transform="translate(-208 228)"><rect width="448" height="448" x="-255.76" y="-688" stroke="#000" stroke-width="8" filter="url(#a)" opacity=".1" rx="224" ry="224" transform="scale(1 -1)rotate(90)"/><rect width="448" height="448" x="-255.76" y="-688" filter="url(#a)" opacity=".2" rx="224" ry="224" transform="scale(1 -1)rotate(90)"/><rect width="448" height="448" x="-252" y="-688" fill="#343434" rx="224" ry="224" transform="scale(1 -1)rotate(90)"/><circle cx="464" cy="32" r="176" filter="url(#b)" opacity=".2"/><path fill="#ebebeb" d="M464-148c-48.752 0-92.626 19.75-124.44 51.562s-51.562 75.686-51.562 124.44c0 97.504 78.496 176 176 176v-176l124.44-124.44C556.626-128.25 512.752-148 463.998-148z"/><path fill="#c4c4c4" d="M588.44-96.438 464 28.002v176c97.504 0 176-78.496 176-176 0-48.752-19.75-92.626-51.562-124.44z"/></g><path fill="none" stroke="#f34235" stroke-width="8" d="M256 256v176"/><g transform="translate(-208 228)"><path fill="#fff" d="M464-196c-124.1 0-224 99.904-224 224 0 .674.003 1.336 0 2 0-124.1 99.904-224 224-224S688-94.096 688 30c-.003-.664 0-1.326 0-2 0-124.1-99.904-224-224-224" opacity=".2"/><g color="#000"><path d="M585.03-96.918 463.9 16.762l-83.885-76.781-7.906 7.906 83.984 92.016.132-.132A11 11 0 0 0 464 42.997a11 11 0 0 0 7.773-3.226l.133.132 121.01-128.93-7.892-7.892z" enable-background="accumulate" opacity=".1" style="text-decoration-line:none;text-indent:0;text-transform:none"/><path fill="#636e73" d="M585.02-100.92 456.09 20.09l15.812 15.812 121.01-128.93z" enable-background="accumulate" style="text-decoration-line:none;text-indent:0;text-transform:none"/><path fill="#3b4245" d="m380.02-64.016-7.906 7.906 83.984 92.016 15.812-15.812z" enable-background="accumulate" style="text-decoration-line:none;text-indent:0;text-transform:none"/></g><circle cx="464" cy="28" r="11" fill="#3b4245"/></g></svg>