<svg width="512" height="512" enable-background="new" version="1.0" xmlns="http://www.w3.org/2000/svg" xmlns:xlink="http://www.w3.org/1999/xlink">
 <defs>
  <filter id="a" x="-.024" y="-.024" width="1.048" height="1.048" color-interpolation-filters="sRGB">
   <feGaussianBlur stdDeviation="4.48"/>
  </filter>
  <filter id="b" x="-.024" y="-.024" width="1.048" height="1.048" color-interpolation-filters="sRGB">
   <feGaussianBlur stdDeviation="3.52"/>
  </filter>
 </defs>
 <g transform="translate(0,212)">
  <g>
   <g transform="translate(-208,16)">
    <g>
     <rect transform="matrix(0,-1,-1,0,0,0)" x="-255.76" y="-688" width="448" height="448" rx="224" ry="224" filter="url(#a)" opacity=".1" stroke="#000" stroke-width="8"/>
     <rect transform="matrix(0,-1,-1,0,0,0)" x="-255.76" y="-688" width="448" height="448" rx="224" ry="224" filter="url(#a)" opacity=".2"/>
     <rect transform="matrix(0,-1,-1,0,0,0)" x="-252" y="-688" width="448" height="448" rx="224" ry="224" fill="#343434"/>
     <circle cx="464" cy="32" r="176" filter="url(#b)" opacity=".2"/>
     <path d="m464-148c-48.752 0-92.626 19.75-124.44 51.562s-51.562 75.686-51.562 124.44c0 97.504 78.496 176 176 176v-176l124.44-124.44c-31.812-31.812-75.686-51.562-124.44-51.562z" fill="#ebebeb"/>
     <path d="m588.44-96.438-124.44 124.44v176c97.504 0 176-78.496 176-176 0-48.752-19.75-92.626-51.562-124.44z" fill="#c4c4c4"/>
    </g>
    <path d="m464 28v176" fill="none" stroke="#f34235" stroke-width="8"/>
    <g>
     <path transform="translate(0,76)" d="m464-272c-124.1 0-224 99.904-224 224 0 0.67412 3e-3 1.3363 0 2 0-124.1 99.904-224 224-224s224 99.904 224 224c-3e-3 -0.66367 0-1.3259 0-2 0-124.1-99.904-224-224-224z" fill="#fff" opacity=".2"/>
     <g>
      <path d="m585.03-96.918-121.13 113.68-83.885-76.781-7.9062 7.9062 83.984 92.016 0.13255-0.13255a11 11 0 0 0 7.7735 3.2266 11 11 0 0 0 7.7734-3.2266l0.1331 0.13255 121.01-128.93-7.8926-7.8926z" color="#000000" enable-background="accumulate" opacity=".1" style="text-decoration-line:none;text-indent:0;text-transform:none"/>
      <path d="m585.02-100.92-128.93 121.01 15.812 15.812 121.01-128.93z" color="#000000" enable-background="accumulate" fill="#636e73" style="text-decoration-line:none;text-indent:0;text-transform:none"/>
      <path d="m380.02-64.016-7.9062 7.9062 83.984 92.016 15.812-15.812z" color="#000000" enable-background="accumulate" fill="#3b4245" style="text-decoration-line:none;text-indent:0;text-transform:none"/>
     </g>
     <circle cx="464" cy="28" r="11" fill="#3b4245"/>
    </g>
   </g>
  </g>
 </g>
</svg>
