<svg width="512" height="512" enable-background="new" version="1.0" xmlns="http://www.w3.org/2000/svg" xmlns:xlink="http://www.w3.org/1999/xlink">
 <defs>
  <filter id="a" x="-.024" y="-.024" width="1.048" height="1.048" color-interpolation-filters="sRGB">
   <feGaussianBlur stdDeviation="4.48"/>
  </filter>
  <filter id="b" x="-.06" y="-.06" width="1.12" height="1.12" color-interpolation-filters="sRGB">
   <feGaussianBlur stdDeviation="7.2"/>
  </filter>
  <clipPath id="c">
   <rect transform="scale(-1)" x="-196" y="-688" width="288" height="288" rx="24" ry="24" fill="#d8d8d8"/>
  </clipPath>
 </defs>
 <g transform="translate(0,212)">
  <g>
   <g transform="translate(-208,16)">
    <path d="m424-192c-13.296 0-24 10.704-24 24v136h-136c-13.296 0-24 10.704-24 24v240c0 13.296 10.704 24 24 24h240c13.296 0 24-10.704 24-24v-136h136c13.296 0 24-10.704 24-24v-240c0-13.296-10.704-24-24-24z" filter="url(#a)" opacity=".1" stroke="#000" stroke-width="8"/>
    <path d="m424-192c-13.296 0-24 10.704-24 24v136h-136c-13.296 0-24 10.704-24 24v240c0 13.296 10.704 24 24 24h240c13.296 0 24-10.704 24-24v-136h136c13.296 0 24-10.704 24-24v-240c0-13.296-10.704-24-24-24z" filter="url(#a)" opacity=".2"/>
    <rect transform="rotate(90)" x="-196" y="-688" width="288" height="288" rx="24" ry="24" fill="#d8d8d8"/>
    <g transform="matrix(10.213 0 0 10.213 -1033 -2803.9)" fill="#9d9d9d">
     <path d="m163.75 272.8v0.93628h-8.8011c0.0828 1.3177 0.47861 2.3234 1.1859 3.0169 0.7143 0.68668 1.7062 1.03 2.9754 1.03 0.73516 0 1.446-0.0907 2.1325-0.27058 0.69362-0.18023 1.3803-0.45075 2.06-0.81138v1.8102c-0.68662 0.29127-1.3906 0.51315-2.1118 0.66571-0.72144 0.15258-1.453 0.22891-2.1952 0.22891-1.8586 0-3.3324-0.54098-4.4213-1.6228-1.0819-1.082-1.6229-2.5454-1.6228-4.3902-1e-5 -1.9072 0.51319-3.4192 1.5397-4.5358 1.0334-1.1236 2.4239-1.6853 4.1717-1.6853 1.5673 1e-5 2.8054 0.50629 3.7138 1.5188 0.9156 1.0057 1.3732 2.3754 1.3732 4.1093m-1.9142-0.56169c-0.0131-1.0473-0.30862-1.8831-0.88429-2.5072-0.56863-0.6242-1.3246-0.93633-2.2679-0.93634-1.068 1e-5 -1.9246 0.30179-2.5696 0.90504-0.63792 0.60339-1.0058 1.453-1.1027 2.5489l6.8244-0.0123m-2.3094-9.2797h2.1118v2.1014h-2.1118v-2.1014m-4.0677 0h2.1119v2.1014h-2.1119v-2.1014" fill="#9d9d9d"/>
    </g>
    <rect transform="rotate(-90,2,2)" x="-252" y="240" width="288" height="288" rx="24" ry="24" clip-path="url(#c)" filter="url(#b)" opacity=".2"/>
    <path d="m664 92c13.296 0 24-10.704 24-24v-2c0 13.296-10.704 24-24 24h-240c-13.296 0-24-10.704-24-24v2c0 13.296 10.704 24 24 24z" opacity=".2"/>
    <rect transform="rotate(-90)" x="-252" y="240" width="288" height="288" rx="24" ry="24" fill="#ebebeb"/>
    <g transform="matrix(11.2,0,0,11.2,-1476.4,-2882)" fill="#7e7e7e">
     <path d="m171.02 270.32c-1.4269 1e-5 -2.4155 0.16317-2.9658 0.4895-0.5503 0.32634-0.82544 0.88303-0.82544 1.6701 0 0.62708 0.20476 1.1262 0.61428 1.4973 0.41591 0.36473 0.979 0.54709 1.6893 0.54709 0.979 0 1.7628-0.34553 2.3515-1.0366 0.59507-0.69746 0.89261-1.6221 0.89262-2.7738v-0.39352h-1.7564m3.5225-0.72945v6.1332h-1.766v-1.6317c-0.40313 0.65267-0.90542 1.1358-1.5069 1.4493-0.60148 0.30714-1.3373 0.4607-2.2076 0.4607-1.1006 0-1.9772-0.30713-2.6299-0.92141-0.64627-0.62068-0.96941-1.4493-0.96941-2.4859 0-1.2094 0.40312-2.1212 1.2094-2.7355 0.81264-0.61427 2.022-0.92141 3.6281-0.92141h2.4763v-0.17277c-1e-5 -0.81263-0.26875-1.4397-0.80624-1.8812-0.5311-0.4479-1.2798-0.67186-2.246-0.67187-0.61428 1e-5 -1.2126 0.0736-1.7948 0.22076-0.58229 0.14718-1.1422 0.36793-1.6797 0.66227v-1.6317c0.64627-0.24954 1.2733-0.4351 1.8812-0.55669 0.60788-0.12796 1.1998-0.19195 1.7756-0.19196 1.5549 1e-5 2.7162 0.40313 3.4841 1.2094 0.76784 0.80625 1.1518 2.0284 1.1518 3.6665m-5.9508-9.5885 2.7067 3.5897h-1.4685l-3.129-3.5897h1.8908" fill="#7e7e7e"/>
    </g>
    <path transform="translate(0,-244)" d="m264 208c-13.296 0-24 10.704-24 24v2c0-13.296 10.704-24 24-24h240c13.296 0 24 10.704 24 24v-2c0-13.296-10.704-24-24-24z" fill="#fff" opacity=".4"/>
    <path d="m424-196c-13.296 0-24 10.704-24 24v2c0-13.296 10.704-24 24-24h240c13.296 0 24 10.704 24 24v-2c0-13.296-10.704-24-24-24z" fill="#fff" opacity=".4"/>
    <path d="m504 252c13.296 0 24-10.704 24-24v-2c0 13.296-10.704 24-24 24h-240c-13.296 0-24-10.704-24-24v2c0 13.296 10.704 24 24 24z" opacity=".2"/>
   </g>
  </g>
 </g>
</svg>
