<svg xmlns="http://www.w3.org/2000/svg" width="512" height="512" enable-background="new" version="1.0"><defs><filter id="a" width="1.054" height="1.043" x="-.027" y="-.021" color-interpolation-filters="sRGB"><feGaussianBlur stdDeviation="4"/></filter><filter id="b" width="1.12" height="1.12" x="-.06" y="-.06" color-interpolation-filters="sRGB"><feGaussianBlur stdDeviation="6"/></filter></defs><g transform="translate(-208 226.8)"><path d="M640 230v-400c0-13.296-10.704-24-24-24H312c-13.296 0-24 10.704-24 24v400c0 13.296 10.704 24 24 24h304c13.296 0 24-10.704 24-24" opacity=".2"/><path stroke="#000" stroke-width="8" d="M640 232v-400c0-13.296-10.704-24-24-24H312c-13.296 0-24 10.704-24 24v400c0 13.296 10.704 24 24 24h304c13.296 0 24-10.704 24-24z" filter="url(#a)" opacity=".1"/><path d="M640 232v-400c0-13.296-10.704-24-24-24H312c-13.296 0-24 10.704-24 24v400c0 13.296 10.704 24 24 24h304c13.296 0 24-10.704 24-24" filter="url(#a)" opacity=".2"/><path fill="#ebebeb" d="M640 228v-400c0-13.296-10.704-24-24-24H312c-13.296 0-24 10.704-24 24v400c0 13.296 10.704 24 24 24h304c13.296 0 24-10.704 24-24"/><path fill="#fff" d="M312-196c-13.296 0-24 10.704-24 24v2c0-13.296 10.704-24 24-24h304c13.296 0 24 10.704 24 24v-2c0-13.296-10.704-24-24-24z" opacity=".1"/><circle cx="584" cy="152" r="120" enable-background="new" filter="url(#b)" opacity=".5"/><circle cx="584" cy="148" r="120" fill="#f44336" enable-background="new"/><path fill="#fff" d="M528 175.49V204h28.51l64.007-64.007-28.51-28.51zm117.74-60.626c3.016-3.015 3.016-7.767 0-10.783l-17.819-17.819c-3.016-3.016-7.767-3.016-10.783 0l-14.895 14.986 28.51 28.51z" enable-background="new"/></g></svg>