<svg xmlns="http://www.w3.org/2000/svg" width="512" height="512" enable-background="new" version="1.0"><defs><filter id="a" width="1.054" height="1.043" x="-.027" y="-.021" color-interpolation-filters="sRGB"><feGaussianBlur stdDeviation="4"/></filter><filter id="b" width="1.136" height="1.029" x="-.068" y="-.015" color-interpolation-filters="sRGB"><feGaussianBlur stdDeviation="1.36"/></filter></defs><path stroke="#000" stroke-width="8" d="M312-192c-13.296 0-24 10.704-24 24v400c0 13.296 10.704 24 24 24h304c13.296 0 24-10.704 24-24v-400c0-13.296-10.704-24-24-24H464z" filter="url(#a)" opacity=".1" transform="matrix(-1 0 0 1 720 228)"/><path d="M312-192c-13.296 0-24 10.704-24 24v400c0 13.296 10.704 24 24 24h304c13.296 0 24-10.704 24-24v-400c0-13.296-10.704-24-24-24H464z" filter="url(#a)" opacity=".2" transform="translate(-208 228)"/><path fill="#009688" d="M104 32c-13.296 0-24 10.704-24 24v400c0 13.296 10.704 24 24 24h304c13.296 0 24-10.704 24-24V56c0-13.296-10.704-24-24-24H256z"/><path d="M544 52v216l24-16 24 16V52z" enable-background="new" filter="url(#b)" opacity=".2" transform="translate(-208 -16)"/><path fill="#d8d8d8" d="M336 32v216l24-16 24 16V32z" enable-background="new"/><path d="M104 32c-13.296 0-24 10.704-24 24v400c0 13.296 10.704 24 24 24h40V32z" opacity=".2"/><path fill="#fff" d="M104 32c-13.296 0-24 10.704-24 24v2c0-13.296 10.704-24 24-24h304c13.296 0 24 10.704 24 24v-2c0-13.296-10.704-24-24-24H256z" opacity=".2"/><path d="M104 480c-13.296 0-24-10.704-24-24v-2c0 13.296 10.704 24 24 24h304c13.296 0 24-10.704 24-24v2c0 13.296-10.704 24-24 24H256z" opacity=".2"/></svg>