<svg width="512" height="512" enable-background="new" version="1.0" xmlns="http://www.w3.org/2000/svg" xmlns:osb="http://www.openswatchbook.org/uri/2009/osb">
 <defs>
  <filter id="a" x="-.027273" y="-.021429" width="1.0545" height="1.0429" color-interpolation-filters="sRGB">
   <feGaussianBlur stdDeviation="4"/>
  </filter>
  <filter id="b" x="-.068" y="-.014571" width="1.136" height="1.0291" color-interpolation-filters="sRGB">
   <feGaussianBlur stdDeviation="1.36"/>
  </filter>
 </defs>
 <g transform="translate(0,212)">
  <g>
   <g transform="translate(-208,16)">
    <path transform="matrix(-1 0 0 1 928 0)" d="m312-192c-13.296 0-24 10.704-24 24v400c0 13.296 10.704 24 24 24h304c13.296 0 24-10.704 24-24v-400c0-13.296-10.704-24-24-24h-152z" filter="url(#a)" opacity=".1" stroke="#000" stroke-width="8"/>
    <path d="m312-192c-13.296 0-24 10.704-24 24v400c0 13.296 10.704 24 24 24h304c13.296 0 24-10.704 24-24v-400c0-13.296-10.704-24-24-24h-152z" filter="url(#a)" opacity=".2"/>
    <path transform="translate(0,-244)" d="m312 48c-13.296 0-24 10.704-24 24v400c0 13.296 10.704 24 24 24h304c13.296 0 24-10.704 24-24v-400c0-13.296-10.704-24-24-24h-152z" fill="#009688"/>
    <path transform="translate(0,-244)" d="m544 52v216l24-16 24 16v-216z" enable-background="new" filter="url(#b)" opacity=".2"/>
    <path transform="translate(0,-244)" d="m544 48v216l24-16 24 16v-216z" enable-background="new" fill="#d8d8d8"/>
    <path transform="translate(0,-244)" d="m312 48c-13.296 0-24 10.704-24 24v400c0 13.296 10.704 24 24 24h40v-448z" opacity=".2"/>
    <path transform="translate(0,76)" d="m312-272c-13.296 0-24 10.704-24 24v2c0-13.296 10.704-24 24-24h304c13.296 0 24 10.704 24 24v-2c0-13.296-10.704-24-24-24h-152z" fill="#fff" opacity=".2"/>
    <path d="m312 252c-13.296 0-24-10.704-24-24v-2c0 13.296 10.704 24 24 24h304c13.296 0 24-10.704 24-24v2c0 13.296-10.704 24-24 24h-152z" opacity=".2"/>
   </g>
  </g>
 </g>
</svg>
