<svg xmlns="http://www.w3.org/2000/svg" width="512" height="512" enable-background="new" version="1.0"><defs><filter id="a" width="1.048" height="1.048" x="-.024" y="-.024" color-interpolation-filters="sRGB"><feGaussianBlur stdDeviation="4.48"/></filter></defs><g transform="translate(-208 228)"><path stroke="#000" stroke-width="8" d="M464-192C340.3-192 240-91.7 240 32s100.3 224 224 224c20.658 0 37.333-16.676 37.333-37.333 0-9.707-3.733-18.418-9.707-25.138-5.724-6.471-9.457-15.182-9.457-24.64 0-20.658 16.676-37.333 37.333-37.333h44.053c68.693 0 124.44-55.751 124.44-124.44 0-110.01-100.3-199.11-224-199.11z" enable-background="new" filter="url(#a)" opacity=".1"/><path d="M464-192C340.3-192 240-91.7 240 32s100.3 224 224 224c20.658 0 37.333-16.676 37.333-37.333 0-9.707-3.733-18.418-9.707-25.138-5.724-6.471-9.457-15.182-9.457-24.64 0-20.658 16.676-37.333 37.333-37.333h44.053c68.693 0 124.44-55.751 124.44-124.44 0-110.01-100.3-199.11-224-199.11z" enable-background="new" filter="url(#a)" opacity=".2"/><path fill="#ebebeb" d="M464-194C340.3-194 240-93.7 240 30s100.3 224 224 224c20.658 0 37.333-16.676 37.333-37.333 0-9.707-3.733-18.418-9.707-25.138-5.724-6.471-9.457-15.182-9.457-24.64 0-20.658 16.676-37.333 37.333-37.333h44.053c68.693 0 124.44-55.751 124.44-124.44 0-110.01-100.3-199.11-224-199.11z" enable-background="new"/><circle cx="394" cy="-92" r="40" fill="#fec006" enable-background="new"/><circle cx="520" cy="-108" r="40" fill="#4bae4f" enable-background="new"/><circle cx="328" cy="20" r="40" fill="#f34235" enable-background="new"/><circle cx="600" cy="-12" r="40" fill="#2095f2" enable-background="new"/><path fill="#fff" d="M464-196C340.3-196 240-95.7 240 28c0 .334.01.666.012 1 .54-123.24 100.62-223 223.99-223 123.34 0 223.41 88.59 223.99 198.16.003-.35.013-.698.013-1.049 0-110.01-100.3-199.11-224-199.11zm18.193 361.89c-.009.334-.025.666-.025 1.002 0 9.458 3.734 18.17 9.459 24.641 5.764 6.485 9.431 14.828 9.681 24.127.01-.33.026-.658.026-.99 0-9.707-3.734-18.417-9.707-25.137-5.522-6.243-9.181-14.572-9.434-23.643z" enable-background="new" opacity=".2"/></g></svg>