<svg xmlns="http://www.w3.org/2000/svg" width="512" height="512" enable-background="new" version="1.0"><defs><filter id="d" width="1.24" height="1.24" x="-.12" y="-.12" color-interpolation-filters="sRGB"><feGaussianBlur stdDeviation="1.2"/></filter><filter id="a" width="1.048" height="1.048" x="-.024" y="-.024" color-interpolation-filters="sRGB"><feGaussianBlur stdDeviation=".56"/></filter><clipPath id="b"><path fill="#fecd38" d="M207 224c-1.662 0-3 1.338-3 3v50c0 1.662 1.338 3 3 3h29l24-24v-29c0-1.662-1.338-3-3-3z"/></clipPath></defs><path stroke="#000" d="M207 225c-1.662 0-3 1.338-3 3v50c0 1.662 1.338 3 3 3h29l24-24v-29c0-1.662-1.338-3-3-3z" filter="url(#a)" opacity=".1" transform="matrix(8 0 0 8 -1600 -1764)"/><path d="M207 225c-1.662 0-3 1.338-3 3v50c0 1.662 1.338 3 3 3h29l24-24v-29c0-1.662-1.338-3-3-3z" filter="url(#a)" opacity=".2" transform="matrix(8 0 0 8 -1600 -1764)"/><path fill="#f9ce1d" d="M56 32c-13.296 0-24 10.704-24 24v400c0 13.296 10.704 24 24 24h232l192-192V56c0-13.296-10.704-24-24-24z"/><path d="M260 258h-21a3 3 0 0 0-3 3v21z" clip-path="url(#b)" enable-background="new" filter="url(#d)" opacity=".2" transform="matrix(8 0 0 8 -1600 -1760)"/><path fill="#fff59d" d="M480 288H312c-13.255 0-24 10.745-24 24v168z" enable-background="new"/><path fill="#fff" d="M56 32c-13.296 0-24 10.704-24 24v2c0-13.296 10.704-24 24-24h400c13.296 0 24 10.704 24 24v-2c0-13.296-10.704-24-24-24z" opacity=".2"/><path fill="#fff" d="M312 288c-13.255 0-24 10.745-24 24v2c0-13.255 10.745-24 24-24h166l2-2z" enable-background="new" opacity=".2"/><path fill="none" stroke="#fff" stroke-linecap="square" stroke-width="16" d="m104 234 25.729.56c50.64 1.101 98.739 13.755 116.68 41.668 41.869 65.126-41.059 86.244-74.378 40.25-31.136-50.483-20.377-155.37 24.485-167.55 81.175-18.538 94.618 110.57 144.59 85.368 38.602-19.47-24.404-107.96 13.358-129.01 16.186-9.023 50.044 24.208 50.044 24.208" opacity=".2"/><path fill="none" stroke="#cb9a05" stroke-linecap="square" stroke-width="16" d="m104 232 25.729.56c50.64 1.101 98.739 13.755 116.68 41.668 41.869 65.126-41.059 86.244-74.378 40.25-31.136-50.483-20.377-155.37 24.485-167.55 81.175-18.538 94.618 110.57 144.59 85.368 38.602-19.47-24.404-107.96 13.358-129.01 16.186-9.023 50.044 24.208 50.044 24.208"/></svg>