<svg xmlns="http://www.w3.org/2000/svg" width="512" height="512" enable-background="new" version="1.0"><defs><filter id="a" width="1.024" height="1.024" x="-.012" y="-.012" color-interpolation-filters="sRGB"><feGaussianBlur stdDeviation="2.24"/></filter><filter id="b" width="1.12" height="1.12" x="-.06" y="-.06" color-interpolation-filters="sRGB"><feGaussianBlur stdDeviation="6.4"/></filter></defs><g transform="translate(-208 227.32)"><rect width="448" height="448" x="240" y="-188" filter="url(#a)" opacity=".1" ry="24"/><rect width="448" height="448" x="240" y="-192" filter="url(#a)" opacity=".2" ry="24"/><path fill="gray" d="M264 252c-13.296 0-24-10.704-24-24V28h224v224z"/><path fill="#4d4d4d" d="M464-196V28h224v-200c0-13.296-10.704-24-24-24z"/><path fill="#b3b3b3" d="M264-196c-13.296 0-24 10.704-24 24V28h224v-224z"/><path fill="#666" d="M664 252c13.296 0 24-10.704 24-24V28H464v224z"/><path fill="#fff" d="M264-196c-13.296 0-24 10.704-24 24v2c0-13.296 10.704-24 24-24h400c13.296 0 24 10.704 24 24v-2c0-13.296-10.704-24-24-24z" opacity=".2"/><path fill="#ebebeb" d="M528-100v16h96v-16z" enable-background="new"/><path d="M264 252c-13.296 0-24-10.704-24-24v-2c0 13.296 10.704 24 24 24h400c13.296 0 24-10.704 24-24v2c0 13.296-10.704 24-24 24z" opacity=".1"/><circle cx="-584" cy="150" r="128" filter="url(#b)" opacity=".2" transform="matrix(-1 0 0 1 -8 -8)"/><circle cx="576" cy="140" r="128" fill="#00bfa5"/><path fill="#fff" d="M528 108v16h96v-16zm0 48v16h96v-16z" enable-background="new"/><g fill="#ebebeb"><path d="m391.6 89.088-39.598 39.598-39.598-39.598-11.314 11.314L340.688 140l-39.598 39.598 11.314 11.314 39.598-39.598 39.598 39.598 11.314-11.314L363.316 140l39.598-39.598z" enable-background="new"/><path d="M304-100v16h96v-16z"/><path d="M304-100v16h96v-16z"/><path d="M344-44h16v-96h-16z"/></g></g></svg>