<svg xmlns="http://www.w3.org/2000/svg" width="512" height="512" enable-background="new" version="1.0"><defs><filter id="a" width="1.043" height="1.054" x="-.021" y="-.027" color-interpolation-filters="sRGB"><feGaussianBlur stdDeviation="4"/></filter><filter id="c" width="1.048" height="1.048" x="-.024" y="-.024" color-interpolation-filters="sRGB"><feGaussianBlur stdDeviation="2.24"/></filter></defs><g transform="translate(-208 228)"><rect width="80" height="56" x="288" y="-164" fill="#fff" rx="0" ry="8"/><rect width="352" height="448" x="-208" y="-688" stroke="#000" stroke-width="8" filter="url(#a)" opacity=".1" rx="24" ry="24" transform="scale(1 -1)rotate(90)"/><rect width="352" height="448" x="-208" y="-688" filter="url(#a)" opacity=".2" rx="24" ry="24" transform="scale(1 -1)rotate(90)"/><rect width="448" height="352" x="240" y="-148" fill="#ccc" ry="24"/><path fill="#333" d="M240-116v288h448v-288z"/><circle cx="312" cy="-58" r="24" opacity=".2"/><circle cx="312" cy="-60" r="24" fill="#f9f9f9"/><path d="M264 204c-13.296 0-24-10.704-24-24v-2c0 13.296 10.704 24 24 24h400c13.296 0 24-10.704 24-24v2c0 13.296-10.704 24-24 24z" opacity=".2"/><path fill="#fff" d="M264-148c-13.296 0-24 10.704-24 24v2c0-13.296 10.704-24 24-24h400c13.296 0 24 10.704 24 24v-2c0-13.296-10.704-24-24-24z" opacity=".2"/><circle cx="496" cy="-32" r="112" fill="#fff" stroke="#000" stroke-linecap="round" stroke-linejoin="round" stroke-width="8" filter="url(#c)" opacity=".1" transform="rotate(180 496 0)"/><circle cx="496" cy="-32" r="112" filter="url(#c)" opacity=".2" transform="rotate(180 496 0)"/><circle cx="-496" cy="-28" r="112" fill="#fff" transform="scale(-1)"/><circle cx="-496" cy="28" r="96" fill="#009688" transform="scale(-1 1)"/><g fill="#fff"><path d="M453.573-14.365a60 60 0 0 1 84.854 0L496 28.062z" opacity=".2"/><path d="M453.573-14.365a60 60 0 0 0 0 84.854L496 28.062zM538.427 70.489a60 60 0 0 0 0-84.854L496 28.062z" opacity=".4"/><path d="M538.427 70.489a60 60 0 0 1-84.854 0L496 28.062z" opacity=".6"/></g><path fill="#fff" d="M496-84A112 112 0 0 0 384 28a112 112 0 0 0 .041 1.172 112 112 0 0 1 111.96-111.17 112 112 0 0 1 111.96 110.83l.041-.828a112 112 0 0 0-112-112z" opacity=".2"/><path d="M240-116v2h448v-2z" opacity=".2"/><path fill="#fff" d="M240 172v2h448v-2z" opacity=".2"/></g></svg>