<svg xmlns="http://www.w3.org/2000/svg" width="512" height="512" enable-background="new" version="1.0"><defs><filter id="a" width="1.048" height="1.048" x="-.024" y="-.024" color-interpolation-filters="sRGB"><feGaussianBlur stdDeviation="4.48"/></filter><filter id="d" width="1.12" height="1.12" x="-.06" y="-.06" color-interpolation-filters="sRGB"><feGaussianBlur stdDeviation="7.2"/></filter><clipPath id="b"><rect width="288" height="288" x="-196" y="-688" fill="#d8d8d8" rx="24" ry="24" transform="scale(-1)"/></clipPath></defs><g transform="translate(-208 228)"><path stroke="#000" stroke-width="8" d="M424-192c-13.296 0-24 10.704-24 24v136H264c-13.296 0-24 10.704-24 24v240c0 13.296 10.704 24 24 24h240c13.296 0 24-10.704 24-24V96h136c13.296 0 24-10.704 24-24v-240c0-13.296-10.704-24-24-24z" filter="url(#a)" opacity=".1"/><path d="M424-192c-13.296 0-24 10.704-24 24v136H264c-13.296 0-24 10.704-24 24v240c0 13.296 10.704 24 24 24h240c13.296 0 24-10.704 24-24V96h136c13.296 0 24-10.704 24-24v-240c0-13.296-10.704-24-24-24z" filter="url(#a)" opacity=".2"/><rect width="288" height="288" x="-196" y="-688" fill="#d8d8d8" rx="24" ry="24" transform="rotate(90)"/><path fill="#9d9d9d" d="M639.379-17.794v9.563h-89.886c.846 13.457 4.888 23.729 12.112 30.811q10.943 10.52 30.387 10.52c7.509 0 14.768-.927 21.78-2.764q10.626-2.76 21.038-8.286v18.487a117.3 117.3 0 0 1-21.567 6.799 108 108 0 0 1-22.42 2.338q-28.473 0-45.155-16.574-16.575-16.575-16.573-44.837-.001-29.217 15.725-46.324 15.83-17.212 42.605-17.212 24.012 0 37.93 15.512 14.025 15.405 14.024 41.968m-19.55-5.737c-.134-10.696-3.152-19.232-9.031-25.606q-8.711-9.563-23.162-9.563-16.362.001-26.244 9.244c-6.515 6.162-10.272 14.84-11.261 26.031l69.697-.125m-23.586-94.774h21.568v21.462h-21.568zm-41.543 0h21.569v21.462h-21.57z"/><rect width="288" height="288" x="-252" y="240" clip-path="url(#b)" filter="url(#d)" opacity=".2" rx="24" ry="24" transform="rotate(-90 2 2)"/><path d="M664 92c13.296 0 24-10.704 24-24v-2c0 13.296-10.704 24-24 24H424c-13.296 0-24-10.704-24-24v2c0 13.296 10.704 24 24 24z" opacity=".2"/><rect width="288" height="288" x="-252" y="240" fill="#ebebeb" rx="24" ry="24" transform="rotate(-90)"/><path fill="#7e7e7e" d="M439.024 145.584q-23.972 0-33.217 5.482t-9.245 18.706q0 10.534 6.88 16.77 6.987 6.126 18.92 6.127 16.447 0 26.337-11.61 9.997-11.718 9.997-31.067v-4.407zm39.452-8.17v68.692h-19.78v-18.275q-6.772 10.965-16.877 16.232-10.104 5.16-24.725 5.16-18.49 0-29.455-10.32-10.857-10.428-10.857-27.842 0-20.318 13.545-30.638 13.652-10.32 40.635-10.32h27.734v-1.935q0-13.651-9.03-21.069-8.922-7.525-25.155-7.525-10.32 0-20.101 2.473-9.783 2.472-18.813 7.417V91.19q10.856-4.192 21.07-6.235 10.212-2.15 19.886-2.15 26.121 0 39.022 13.545t12.9 41.065M411.827 30.024l30.315 40.205h-16.447L390.65 30.024z"/><path fill="#fff" d="M264-36c-13.296 0-24 10.704-24 24v2c0-13.296 10.704-24 24-24h240c13.296 0 24 10.704 24 24v-2c0-13.296-10.704-24-24-24zM424-196c-13.296 0-24 10.704-24 24v2c0-13.296 10.704-24 24-24h240c13.296 0 24 10.704 24 24v-2c0-13.296-10.704-24-24-24z" opacity=".4"/><path d="M504 252c13.296 0 24-10.704 24-24v-2c0 13.296-10.704 24-24 24H264c-13.296 0-24-10.704-24-24v2c0 13.296 10.704 24 24 24z" opacity=".2"/></g></svg>