<svg width="512" height="512" enable-background="new" version="1.0" xmlns="http://www.w3.org/2000/svg" xmlns:osb="http://www.openswatchbook.org/uri/2009/osb">
 <defs>
  <filter id="a" x="-.027273" y="-.021429" width="1.0545" height="1.0429" color-interpolation-filters="sRGB">
   <feGaussianBlur stdDeviation="4"/>
  </filter>
  <filter id="b" x="-.06" y="-.06" width="1.12" height="1.12" color-interpolation-filters="sRGB">
   <feGaussianBlur stdDeviation="6"/>
  </filter>
 </defs>
 <g transform="translate(0,212)">
  <g>
   <g transform="translate(-208 14.8)">
    <g>
     <path d="m640 230v-400c0-13.296-10.704-24-24-24h-304c-13.296 0-24 10.704-24 24v400c0 13.296 10.704 24 24 24h304c13.296 0 24-10.704 24-24z" opacity=".2"/>
     <path d="m640 232v-400c0-13.296-10.704-24-24-24h-304c-13.296 0-24 10.704-24 24v400c0 13.296 10.704 24 24 24h304c13.296 0 24-10.704 24-24z" filter="url(#a)" opacity=".1" stroke="#000" stroke-width="8"/>
     <path d="m640 232v-400c0-13.296-10.704-24-24-24h-304c-13.296 0-24 10.704-24 24v400c0 13.296 10.704 24 24 24h304c13.296 0 24-10.704 24-24z" filter="url(#a)" opacity=".2"/>
    </g>
    <path d="m640 228v-400c0-13.296-10.704-24-24-24h-304c-13.296 0-24 10.704-24 24v400c0 13.296 10.704 24 24 24h304c13.296 0 24-10.704 24-24z" fill="#ebebeb"/>
    <path d="m312-196c-13.296 0-24 10.704-24 24v2c0-13.296 10.704-24 24-24h304c13.296 0 24 10.704 24 24v-2c0-13.296-10.704-24-24-24z" fill="#fff" opacity=".1"/>
    <circle cx="584" cy="152" r="120" enable-background="new" filter="url(#b)" opacity=".5"/>
    <circle cx="584" cy="148" r="120" enable-background="new" fill="#f44336"/>
    <path d="m528 175.49v28.51h28.51l64.007-64.007-28.51-28.51zm117.74-60.626c3.0156-3.0155 3.0156-7.7672 0-10.783l-17.819-17.819c-3.0156-3.0156-7.7673-3.0156-10.783 0l-14.895 14.986 28.51 28.51z" enable-background="new" fill="#fff"/>
   </g>
  </g>
 </g>
</svg>
