<svg xmlns="http://www.w3.org/2000/svg" width="512" height="512" enable-background="new" version="1.0"><defs><filter id="a" width="1.043" height="1.054" x="-.021" y="-.027" color-interpolation-filters="sRGB"><feGaussianBlur stdDeviation="4"/></filter></defs><g transform="translate(-208 1468)"><rect width="352" height="448" x="1034" y="-688" opacity=".2" rx="24" ry="24" transform="scale(1 -1)rotate(90)"/><rect width="352" height="448" x="-208" y="-688" stroke="#000" stroke-width="8" filter="url(#a)" opacity=".1" rx="24" ry="24" transform="matrix(0 -1 -1 0 0 -1240)"/><rect width="352" height="448" x="-208" y="-688" filter="url(#a)" opacity=".2" rx="24" ry="24" transform="matrix(0 -1 -1 0 0 -1240)"/><rect width="352" height="448" x="1036" y="-688" fill="#78909c" rx="24" ry="24" transform="scale(1 -1)rotate(90)"/><path fill="#fff" d="M264-1388c-13.296 0-24 10.704-24 24v2c0-13.296 10.704-24 24-24h400c13.296 0 24 10.704 24 24v-2c0-13.296-10.704-24-24-24z" opacity=".2"/><rect width="384" height="288" x="272" y="-1356" fill="#fff" opacity=".2" rx="0" ry="0"/><path fill="#607d8b" d="M288-1340v72h16v-56h56v-16zm280 0v16h56v56h16v-72zm-280 184v72h72v-16h-56v-56zm336 0v56h-56v16h72v-72z"/></g></svg>