<svg xmlns="http://www.w3.org/2000/svg" width="512" height="512" enable-background="new" version="1.0"><defs><filter id="e" width="1.048" height="1.048" x="-.024" y="-.024" color-interpolation-filters="sRGB"><feGaussianBlur stdDeviation="2.4"/></filter><filter id="a" width="1.054" height="1.043" x="-.027" y="-.021" color-interpolation-filters="sRGB"><feGaussianBlur stdDeviation="4"/></filter><filter id="c" width="1.24" height="1.24" x="-.12" y="-.12"><feGaussianBlur stdDeviation=".9"/></filter><clipPath id="b"><path fill="#e1e1e1" d="M213 224c-1.662 0-3 1.338-3 3v50c0 1.662 1.338 3 3 3h38c1.662 0 3-1.338 3-3v-35l-18-18z"/></clipPath></defs><g transform="translate(-208 228)"><path d="M312-192c-13.296 0-24 10.704-24 24v400c0 13.296 10.704 24 24 24h304c13.296 0 24-10.704 24-24V-48L496-192z" enable-background="new" filter="url(#a)" opacity=".1"/><path d="M312-192c-13.296 0-24 10.704-24 24v400c0 13.296 10.704 24 24 24h304c13.296 0 24-10.704 24-24V-48L496-192z" enable-background="new" filter="url(#a)" opacity=".2"/><path fill="#333" d="M312-196c-13.296 0-24 10.704-24 24v400c0 13.296 10.704 24 24 24h304c13.296 0 24-10.704 24-24V-52L508-64l-12-132z" enable-background="new"/><path d="M236 224v16a3 3 0 0 0 3 3h15v-1z" clip-path="url(#b)" enable-background="new" filter="url(#c)" opacity=".2" transform="matrix(8 0 0 8 -1390.7 -1985.1)"/><path fill="#666" d="M496-196v120c0 13.255 10.745 24 24 24h120z" enable-background="new"/><path fill="#fff" d="M312-196c-13.296 0-24 10.704-24 24v2c0-13.296 10.704-24 24-24h184v-2z" enable-background="new" opacity=".2"/><path d="M288 226v2c0 13.296 10.704 24 24 24h304c13.296 0 24-10.704 24-24v-2c0 13.296-10.704 24-24 24H312c-13.296 0-24-10.704-24-24" enable-background="new" opacity=".1"/><path fill="#fff" d="M450.59-25.322c-5.074 0-9.819 2.484-10.966 6.583-4.263 15.714.508 40.017 8.465 70.297l-2.4 5.862c-6.093 14.85-13.708 29.642-20.405 42.767-27.65 54.098-49.158 83.287-63.5 85.332l-.055-.594c-.312-6.748 12.142-24.146 29.02-37.98 1.761-1.423 9.274-8.691 9.274-8.691s-10.14 5.353-12.419 6.734c-21.15 12.625-31.675 25.274-33.392 33.67-.51 2.494-.182 5.562 2.021 6.822l5.408 2.717c14.722 7.37 32.825-12.008 56.892-54.188 24.49-8.034 55.047-15.598 82.868-19.697 24.904 14.23 53.471 21.005 64.448 18.08 2.089-.553 4.286-2.192 5.408-3.702.88-1.39 2.11-6.949 2.11-6.949s-2.065 2.81-3.766 3.639c-6.946 3.279-28.878-2.192-51.383-13.203 19.46-2.072 35.67-2.151 44.333.618 11.003 3.512 11.012 7.112 10.866 7.846.149-.604.642-3.016.581-4.043-.25-2.64-1.063-4.999-3.057-6.949-4.073-4.013-14.13-6.035-27.833-6.216-10.33-.112-22.714.792-36.16 2.716-6.16-3.538-12.662-7.427-17.814-12.243-13.065-12.202-24.015-29.143-30.815-48.137.464-1.82.908-3.6 1.314-5.395 1.89-8.5 3.246-36.6 3.246-36.6s-5.382 21.11-6.228 24.295a96 96 0 0 1-1.996 6.419c-4.125-14.497-6.216-28.547-6.216-39.204 0-3.012.258-8.873 1.111-13.506.416-3.305 1.613-5.022 2.856-5.85 2.46.596 5.212 4.368 8.086 10.676 2.468 5.454 2.312 11.77 2.312 15.679 0 0 2.647-9.68 2.034-15.401-.373-3.435-3.64-12.27-10.587-12.167h-.569l-3.095-.033zm2.363 87.77c7.188 14.454 17.103 28.181 30.108 39.192 2.899 2.45 5.984 4.782 9.16 6.974-23.619 4.392-48.424 10.571-71.473 20.227 4.168-7.404 8.675-15.471 13.291-24.169 8.94-16.905 14.357-29.944 18.913-42.224z" color="#bebebe" enable-background="accumulate"/><circle cx="584" cy="156" r="120" enable-background="new" filter="url(#e)" opacity=".2" transform="matrix(1 0 0 -1 0 312)"/><circle cx="584" cy="156" r="120" stroke="#000" stroke-width="8" enable-background="new" filter="url(#e)" opacity=".1" transform="matrix(1 0 0 -1 0 312)"/><circle cx="584" cy="148" r="120" fill="#2095f2" enable-background="new"/><path fill="#fff" fill-rule="evenodd" d="M584 98.011c-15.508.151-31.121 3.694-44.629 11.348-5.384 3.506-11.848 8.035-16.719 12.598-7.665 7.504-14.225 16.26-18.652 26.055 12.149 26.795 38.859 46.435 68.242 49.336 19.274 2.181 39.444-1.148 56.387-10.683 5.384-3.506 11.848-8.035 16.719-12.598 7.665-7.504 14.225-16.26 18.652-26.055-12.15-26.794-38.858-46.438-68.242-49.336A102 102 0 0 0 584 98.011zm0 20c16.07-.356 30.303 14.018 30 30 .515 17.664-17.09 32.909-34.492 29.609-17.576-2.063-29.921-21.778-24.141-38.476 3.692-12.294 15.758-21.286 28.633-21.133m0 20a10 10 0 0 0-10 10 10 10 0 0 0 10 10 10 10 0 0 0 10-10 10 10 0 0 0-10-10" enable-background="new"/></g></svg>