<svg width="512" height="512" enable-background="new" version="1.0" xmlns="http://www.w3.org/2000/svg" xmlns:osb="http://www.openswatchbook.org/uri/2009/osb">
 <defs>
  <filter id="b" x="-.024" y="-.024" width="1.048" height="1.048" color-interpolation-filters="sRGB">
   <feGaussianBlur stdDeviation="2.4"/>
  </filter>
  <filter id="a" x="-.027273" y="-.021429" width="1.0545" height="1.0429" color-interpolation-filters="sRGB">
   <feGaussianBlur stdDeviation="4"/>
  </filter>
  <clipPath id="d">
   <path d="m213 224c-1.662 0-3 1.338-3 3v50c0 1.662 1.338 3 3 3h38c1.662 0 3-1.338 3-3v-35l-18-18z" fill="#e1e1e1"/>
  </clipPath>
  <filter id="c" x="-.12" y="-.12" width="1.24" height="1.24">
   <feGaussianBlur stdDeviation="0.9"/>
  </filter>
 </defs>
 <g transform="translate(0,212)">
  <g>
   <g transform="translate(-208,16)">
    <path d="m312-192c-13.296 0-24 10.704-24 24v400c0 13.296 10.704 24 24 24h304c13.296 0 24-10.704 24-24v-280l-144-144z" enable-background="new" filter="url(#a)" opacity=".1"/>
    <path d="m312-192c-13.296 0-24 10.704-24 24v400c0 13.296 10.704 24 24 24h304c13.296 0 24-10.704 24-24v-280l-144-144z" enable-background="new" filter="url(#a)" opacity=".2"/>
    <path d="m312-196c-13.296 0-24 10.704-24 24v400c0 13.296 10.704 24 24 24h304c13.296 0 24-10.704 24-24v-280l-132-12-12-132z" enable-background="new" fill="#c03630"/>
    <path transform="matrix(8 0 0 8 -1390.7 -1985.1)" d="m236 224v16c0 1.6568 1.3432 3 3 3h15v-1z" clip-path="url(#d)" enable-background="new" filter="url(#c)" opacity=".2"/>
    <path d="m496-196v120c0 13.255 10.745 24 24 24h120z" enable-background="new" fill="#f36961"/>
    <path d="m312-196c-13.296 0-24 10.704-24 24v2c0-13.296 10.704-24 24-24h184v-2z" enable-background="new" fill="#fff" opacity=".2"/>
    <path d="m288 226v2c0 13.296 10.704 24 24 24h304c13.296 0 24-10.704 24-24v-2c0 13.296-10.704 24-24 24h-304c-13.296 0-24-10.704-24-24z" enable-background="new" opacity=".1"/>
    <path d="m450.59-25.322c-5.0738 0-9.8187 2.4835-10.966 6.5825-4.2629 15.714 0.5082 40.017 8.4651 70.297l-2.4003 5.8624c-6.0925 14.851-13.708 29.642-20.405 42.767-27.649 54.098-49.158 83.287-63.5 85.332l-0.055-0.594c-0.3113-6.7481 12.142-24.146 29.021-37.979 1.7605-1.4238 9.2734-8.6923 9.2734-8.6923s-10.141 5.3534-12.419 6.734c-21.151 12.625-31.675 25.274-33.392 33.67-0.5093 2.4939-0.1826 5.5627 2.0213 6.8226l5.4076 2.7164c14.722 7.3695 32.825-12.008 56.892-54.188 24.49-8.034 55.047-15.598 82.868-19.697 24.904 14.23 53.471 21.005 64.448 18.08 2.0886-0.5522 4.2856-2.1916 5.4076-3.7017 0.88-1.3894 2.1101-6.9489 2.1101-6.9489s-2.065 2.8102-3.7653 3.6386c-6.9467 3.2792-28.878-2.1916-51.383-13.203 19.459-2.0711 35.67-2.1509 44.333 0.6182 11.003 3.5123 11.012 7.1125 10.866 7.8459 0.1485-0.60391 0.6413-3.016 0.5808-4.0428-0.2497-2.6407-1.0637-4.9987-3.0575-6.9489-4.0729-4.0127-14.13-6.0348-27.833-6.216-10.329-0.1122-22.714 0.792-36.159 2.7163-6.1613-3.538-12.663-7.4274-17.815-12.243-13.065-12.202-24.015-29.143-30.815-48.137 0.4642-1.8208 0.9086-3.6 1.3139-5.395 1.8901-8.4998 3.2468-36.601 3.2468-36.601s-5.3827 21.111-6.2284 24.296c-0.5434 2.0193-1.2195 4.1745-1.9962 6.4182-4.125-14.497-6.216-28.547-6.216-39.204 0-3.0117 0.2585-8.8722 1.1116-13.506 0.4158-3.305 1.6126-5.0212 2.8556-5.8497 2.4593 0.5962 5.2121 4.3679 8.086 10.676 2.4678 5.4538 2.3119 11.77 2.3119 15.679 0 0 2.6467-9.6799 2.0341-15.401-0.3729-3.4345-3.6406-12.27-10.587-12.167h-0.5687l-3.0953-0.033zm2.3626 87.77c7.1886 14.454 17.103 28.181 30.108 39.192 2.8993 2.4507 5.984 4.7823 9.1596 6.974-23.618 4.3924-48.423 10.571-71.472 20.227 4.168-7.404 8.6747-15.471 13.291-24.169 8.9403-16.905 14.357-29.944 18.913-42.224z" color="#bebebe" enable-background="accumulate" fill="#fff"/>
    <circle transform="matrix(1 0 0 -1 0 312)" cx="584" cy="156" r="120" enable-background="new" filter="url(#b)" opacity=".2"/>
    <circle transform="matrix(1 0 0 -1 0 312)" cx="584" cy="156" r="120" enable-background="new" filter="url(#b)" opacity=".1" stroke="#000" stroke-width="8"/>
    <circle cx="584" cy="148" r="120" enable-background="new" fill="#2095f2"/>
    <path d="m584 98.011c-15.508 0.15096-31.121 3.6936-44.629 11.348-5.3841 3.5062-11.848 8.0348-16.719 12.598-7.6649 7.5042-14.225 16.26-18.652 26.055 12.149 26.795 38.859 46.435 68.242 49.336 19.274 2.1812 39.444-1.1484 56.387-10.683 5.3839-3.5062 11.848-8.0348 16.719-12.598 7.665-7.5043 14.225-16.26 18.652-26.055-12.15-26.794-38.858-46.438-68.242-49.336-3.8988-0.4549-7.8329-0.66485-11.758-0.66485zm0 20c16.07-0.35593 30.303 14.018 30 30 0.51489 17.664-17.09 32.909-34.492 29.609-17.576-2.0633-29.921-21.778-24.141-38.476 3.6917-12.294 15.758-21.286 28.633-21.133zm0 20a10 10 0 0 0-10 10 10 10 0 0 0 10 9.9999 10 10 0 0 0 9.9999-9.9999 10 10 0 0 0-9.9999-10z" enable-background="new" fill="#fff" fill-rule="evenodd"/>
   </g>
  </g>
 </g>
</svg>
