<svg width="512" height="512" enable-background="new" version="1.0" xmlns="http://www.w3.org/2000/svg" xmlns:osb="http://www.openswatchbook.org/uri/2009/osb" xmlns:xlink="http://www.w3.org/1999/xlink">
 <defs>
  <filter id="a" x="-.024" y="-.024" width="1.048" height="1.048" color-interpolation-filters="sRGB">
   <feGaussianBlur stdDeviation="4.8"/>
  </filter>
  <clipPath id="c">
   <path d="m464-212c-132.55 0-240 107.45-240 240s107.45 240 240 240 240-107.45 240-240-107.45-240-240-240z" color="#000000" fill="#1565c0" stroke-linecap="round" stroke-linejoin="round" stroke-width="3"/>
  </clipPath>
  <filter id="b" x="-.022462" y="-.025764" width="1.0449" height="1.0515" color-interpolation-filters="sRGB">
   <feGaussianBlur stdDeviation="4.2187243"/>
  </filter>
 </defs>
 <g transform="translate(0,212)">
  <g>
   <g transform="translate(-208,16)">
    <g>
     <circle cx="464" cy="30" r="240" opacity=".2"/>
     <circle cx="464" cy="32" r="240" filter="url(#a)" opacity=".1"/>
     <circle cx="464" cy="32" r="240" filter="url(#a)" opacity=".2"/>
    </g>
    <path d="m464-212c-132.55 0-240 107.45-240 240s107.45 240 240 240 240-107.45 240-240-107.45-240-240-240z" color="#000000" fill="#3949ab" stroke-linecap="round" stroke-linejoin="round" stroke-width="3"/>
    <path d="m655.46-118.84c-2.1707-0.18192-4.4928-0.28092-7.0781 0.1176-20.683 3.182-67.744 20.686-82.594 24.398-14.849 3.7123-21.798 7.0377-45.609 4.7812-27.141-2.5727-39.337-2.7384-46.477-2.5317-10.69-0.94534-16.078-3.3047-16.078-3.3047l0.93756 10.523c-7.1073 5.4188-21.421 13.316-50.812 21.305-19.092 2.1213-35.009-3.7096-44.555 1.5937-9.5459 5.3033-39.769 18.553-55.148 22.266-15.38 3.7123-26.772 10.666-36.047 13.688-14.652 4.773 29.039 74.801 48 84 0 0-6.5623 6.8125-12.047 12.516-13.191 9.0124-23.578 9.6094-23.578 9.6094l0.65624 7.2187c-15.316 8.1365-30.477 11.941-35.531 12.656-1.2799 0.18102-6.2921 3.4471-13.547 8.5781 31.386 96.005 121.56 165.42 228.05 165.42 21.619 0 42.464-3.1246 62.391-8.4844 2.009-13.049 4.7171-31.529 6.3984-49.008 5.2098-7.6552 12.211-7.7578 12.211-7.7578s-9-25.5-8.1094-56.203c1.115-7.2823 3.0167-14.146 5.4141-20.672h9.0703s-1.1354-12.534 3.9844-25.266c16.862-25.628 39.868-42.757 49.688-50.297 9.2635-7.113 51.969-18.035 60.984-20.156 9.0156-2.1213 17.493-16.453 18.023-20.695 0.53028-4.2426-2.6484-12.188-2.6484-12.188l-23.859-5.2969-28.875-3.2578s39.641-58.728 46.781-65.531c7.5728-7.2151 11.25-16.077 11.25-24.562 0-8.4853-6.2344-19.898-6.2344-19.898 0 0-7.1585-3.635-18.867-3.1875-1.9514 0.0744-3.97-0.19308-6.1406-0.375z" clip-path="url(#c)" fill-rule="evenodd" filter="url(#b)" opacity=".2"/>
    <path transform="translate(0,-244)" d="m 464,32 a 240,240 0 0 0 -240,240 240,240 0 0 0 0.041,1.17188 A 240,240 0 0 1 464,34 240,240 0 0 1 703.95898,272.82812 240,240 0 0 0 704,272 240,240 0 0 0 464,32 Z" fill="#fff" opacity=".2"/>
    <g fill-rule="evenodd">
     <path d="m655.46-124.84c-2.1707-0.18192-4.4928-0.28092-7.0781 0.1176-20.683 3.182-67.744 20.686-82.594 24.398-14.849 3.7123-21.798 7.0377-45.609 4.7812-27.141-2.5727-39.337-2.7384-46.477-2.5317-10.69-0.94534-16.078-3.3047-16.078-3.3047l0.93756 10.523c-7.1073 5.4188-21.421 13.316-50.812 21.305-19.092 2.1213-35.009-3.7096-44.555 1.5937-9.5459 5.3033-39.769 18.553-55.148 22.266-15.38 3.7123-26.772 10.666-36.047 13.688-14.652 4.773 29.039 74.801 48 84 0 0-6.5623 6.8125-12.047 12.516-13.191 9.0124-23.578 9.6094-23.578 9.6094l0.65624 7.2187c-15.316 8.1365-30.477 11.941-35.531 12.656-1.2799 0.18102-6.2921 3.4471-13.547 8.5781 31.386 96.005 121.56 165.42 228.05 165.42 21.619 0 42.464-3.1246 62.391-8.4844 2.009-13.049 4.7171-31.529 6.3984-49.008 5.2098-7.6552 12.211-7.7578 12.211-7.7578s-9-25.5-8.1094-56.203c1.115-7.2823 3.0167-14.146 5.4141-20.672h9.0703s-1.1354-12.534 3.9844-25.266c16.862-25.628 39.868-42.757 49.688-50.297 9.2635-7.113 51.969-18.035 60.984-20.156 9.0156-2.1213 17.493-16.453 18.023-20.695 0.53028-4.2426-2.6484-12.188-2.6484-12.188l-23.859-5.2969-28.875-3.2578s39.641-58.728 46.781-65.531c7.5728-7.2151 11.25-16.077 11.25-24.562 0-8.4853-6.2344-19.898-6.2344-19.898 0 0-7.1585-3.635-18.867-3.1875-1.9514 0.0744-3.97-0.19308-6.1406-0.375z" fill="#2196f3"/>
     <path d="m683-116s-3.75-3.375-7.875-3.75-12.75 1.125-15.375 0.75-11.625-5.625-11.625-5.625 12-6.75 16.125-7.5 11.25-1.875 11.25-1.875 3 3.75 5.25 9 2.25 9 2.25 9z" fill="#1565c0"/>
     <path d="m667.84-5.2577c-8.1013 1.0826-9.6592 0.18048-9.6592 0.18048s1.8695-8.4811 3.8948-9.2028c2.0253-0.72192 7.9455 8.481 5.7644 9.0223z" fill="#fcfcfc"/>
     <path d="m445.25-15.5s32.992-4.9729 45.552-12.479c40.967-24.485 39.573-38.146 39.573-38.146s-43.335-17.339-73.292 18.41c-12.543 14.967-11.833 32.215-11.833 32.215z" fill="#34495e"/>
     <path d="m457.61-30.306s32.88-6.6291 45.078-15.645 17.236-13.789 15.645-16.971-13.523-7.955-28.373-4.2426c-14.849 3.7123-25.456 14.319-28.373 20.948-2.9168 6.6291-5.8336 13.789-3.9775 15.91z" fill="#fff"/>
     <path d="m323.58 37.546c12.087 9.2888 42.718 14.761 57.727 12.571 35.418-5.1668 37.235-2.5184 28.693-25.117-6.1635-16.307-42-33-66-9l-12-12c7.1127-10.243-6-34.125-12-36s-34.31 5.8336-36.935 8.4586 28.428 51.799 40.516 61.087z" fill="#1565c0"/>
     <path transform="translate(0,-244)" d="m675.5 110s-7.125 1.125-11.25 1.875c-4.0554 0.73734-15.601 7.2072-15.994 7.4277-20.746 3.2319-67.647 20.672-82.467 24.377-14.849 3.7123-21.798 7.0377-45.609 4.7812-27.141-2.5727-39.337-2.738-46.477-2.5312-10.69-0.94534-16.078-3.3047-16.078-3.3047l0.18359 2.0703c0.46796 0.19753 5.691 2.3321 15.895 3.2344 7.1392-0.20673 19.336-0.0415 46.477 2.5312 23.811 2.2564 30.76-1.0689 45.609-4.7812 14.82-3.705 61.721-21.145 82.467-24.377 0.39283-0.22052 11.939-6.6904 15.994-7.4277 4.125-0.75 11.25-1.875 11.25-1.875s3 3.75 5.25 9 2.25 9 2.25 9-0.0653-0.0516-0.0703-0.0566c1.6612 3.8884 3.5574 9.2738 3.7383 13.967 0.0187-0.42878 0.0352-0.85803 0.0352-1.2852 0-4.85-2.0282-10.597-3.7734-14.682 0.00527 0.0047 0.07025 0.0566 0.07025 0.0566s0-3.75-2.25-9-5.25-9-5.25-9zm-217.11 43.271c-7.1609 5.415-21.47 13.252-50.645 21.182-19.092 2.1213-35.009-3.7096-44.555 1.5938-9.5459 5.3033-39.769 18.553-55.148 22.266-15.38 3.7123-26.772 10.666-36.047 13.688-2.2862 0.74476-3.1513 3.0782-2.9121 6.5215 0.18582-2.3439 1.102-3.9318 2.9121-4.5215 9.2745-3.0213 20.667-9.9752 36.047-13.688 15.38-3.7123 45.602-16.962 55.148-22.266 9.546-5.3033 25.463 0.52756 44.555-1.5938 29.392-7.9886 43.705-15.886 50.812-21.305zm171.54 79.59c-0.18936 0.28007-1.2617 1.8574-1.2617 1.8574l28.875 3.2578 23.859 5.2969s2.2998 5.7574 2.6562 10.088c0.47184-4.2652-2.6562-12.088-2.6562-12.088l-23.859-5.2969zm-311.2 64.451c-1.1569 1.2011-5.8738 6.0981-10.783 11.203-13.191 9.0124-23.578 9.6094-23.578 9.6094l0.17969 1.9844c0.9237-0.0708 10.834-1.0095 23.398-9.5938 5.4846-5.7031 12.047-12.516 12.047-12.516-0.40866-0.19826-0.83287-0.43399-1.2637-0.6875zm-33.879 28.121c-15.256 8.0729-30.323 11.854-35.357 12.566-1.2799 0.18102-6.2921 3.4471-13.547 8.5781 0.17722 0.54209 0.36592 1.0788 0.54688 1.6192 6.9359-4.8905 11.755-8.0212 13-8.1973 5.054-0.7148 20.215-4.5198 35.531-12.656zm266.43 42.441c-0.01 0.75224-0.0129 1.4462 0 2h0.0918s-0.0627-0.75023-0.0918-2zm-14.447 28.414c-0.0901 24.329 5.6657 44.569 7.541 50.521 0.36201-0.04263 0.62305-0.06055 0.62305-0.06055s-7.9-22.385-8.1641-50.461z" fill="#fff" opacity=".2"/>
     <path d="m678.88-80.375s-26.625 12.75-39.375 32.625-21.75 40.125-21.75 40.125 9 1.875 17.25 4.875 23.25 3.75 29.625 2.625 8.25-4.125 1.875-6.75-15.75-4.5-16.125-10.125 11.625-38.25 15-43.5 13.5-19.875 13.5-19.875z" fill="#0d47a1"/>
     <path d="m643.47 0.11758c12.082 1.394 14.405 0.23244 14.405 0.23244s-2.7881-10.92-5.8085-11.849c-3.0204-0.9294-11.849 10.92-8.5966 11.617z" fill="#fcfcfc"/>
    </g>
   </g>
  </g>
 </g>
</svg>
