<svg xmlns="http://www.w3.org/2000/svg" width="512" height="512" enable-background="new" version="1.0"><defs><filter id="a" width="1.048" height="1.048" x="-.024" y="-.024" color-interpolation-filters="sRGB"><feGaussianBlur stdDeviation="4.8"/></filter><filter id="d" width="1.045" height="1.052" x="-.022" y="-.026" color-interpolation-filters="sRGB"><feGaussianBlur stdDeviation="4.219"/></filter><clipPath id="b"><path fill="#1565c0" stroke-linecap="round" stroke-linejoin="round" stroke-width="3" d="M464-212c-132.55 0-240 107.45-240 240s107.45 240 240 240S704 160.55 704 28 596.55-212 464-212" color="#000"/></clipPath></defs><g transform="translate(-208 228)"><circle cx="464" cy="30" r="240" opacity=".2"/><circle cx="464" cy="32" r="240" filter="url(#a)" opacity=".1"/><circle cx="464" cy="32" r="240" filter="url(#a)" opacity=".2"/></g><path fill="#3949ab" d="M256 16C123.45 16 16 123.45 16 256s107.45 240 240 240 240-107.45 240-240S388.55 16 256 16" color="#000"/><path fill-rule="evenodd" d="M655.46-118.84c-2.17-.182-4.493-.28-7.078.118-20.683 3.182-67.744 20.686-82.594 24.398s-21.798 7.037-45.61 4.78c-27.14-2.572-39.336-2.738-46.476-2.53-10.69-.946-16.078-3.306-16.078-3.306l.937 10.523c-7.107 5.42-21.42 13.316-50.812 21.305-19.092 2.122-35.009-3.71-44.555 1.594-9.545 5.303-39.769 18.553-55.148 22.266S281.274-29.026 272-26.004c-14.652 4.773 29.04 74.801 48 84 0 0-6.562 6.813-12.047 12.516-13.19 9.012-23.578 9.61-23.578 9.61l.657 7.218c-15.316 8.137-30.477 11.941-35.531 12.656-1.28.181-6.292 3.447-13.547 8.578 31.386 96.005 121.56 165.42 228.05 165.42 21.619 0 42.464-3.124 62.39-8.484 2.01-13.05 4.718-31.53 6.4-49.008 5.209-7.655 12.21-7.758 12.21-7.758s-9-25.5-8.11-56.203c1.116-7.282 3.017-14.146 5.415-20.672h9.07s-1.135-12.534 3.984-25.266c16.862-25.628 39.868-42.757 49.688-50.297 9.264-7.113 51.97-18.035 60.984-20.156 9.016-2.121 17.493-16.453 18.023-20.695S681.41 3.267 681.41 3.267L657.55-2.03l-28.875-3.258s39.641-58.728 46.781-65.53c7.573-7.216 11.25-16.078 11.25-24.563s-6.234-19.898-6.234-19.898-7.159-3.635-18.867-3.187c-1.952.074-3.97-.193-6.14-.375z" clip-path="url(#b)" filter="url(#d)" opacity=".2" transform="translate(-208 228)"/><path fill="#fff" d="M256 16A240 240 0 0 0 16 256l.041 1.172A240 240 0 0 1 256 18a240 240 0 0 1 239.959 238.828L496 256A240 240 0 0 0 256 16" opacity=".2"/><g fill-rule="evenodd"><path fill="#2196f3" d="M447.46 103.16c-2.17-.182-4.493-.28-7.078.118-20.683 3.182-67.744 20.686-82.594 24.398s-21.798 7.037-45.61 4.78c-27.14-2.572-39.336-2.738-46.476-2.53-10.69-.946-16.078-3.306-16.078-3.306l.937 10.523c-7.107 5.42-21.42 13.316-50.812 21.305-19.092 2.122-35.009-3.71-44.555 1.594-9.545 5.303-39.769 18.553-55.148 22.266S73.274 192.974 64 195.996c-14.652 4.773 29.04 74.801 48 84 0 0-6.562 6.813-12.047 12.516-13.19 9.012-23.578 9.61-23.578 9.61l.657 7.218c-15.316 8.137-30.477 11.941-35.531 12.656-1.28.181-6.292 3.447-13.547 8.578 31.386 96.005 121.56 165.42 228.05 165.42 21.619 0 42.464-3.124 62.39-8.484 2.01-13.05 4.718-31.53 6.4-49.008 5.209-7.655 12.21-7.758 12.21-7.758s-9-25.5-8.11-56.203c1.116-7.282 3.017-14.146 5.415-20.672h9.07s-1.135-12.534 3.985-25.266c16.862-25.628 39.868-42.757 49.688-50.297 9.263-7.113 51.969-18.035 60.984-20.156s17.493-16.453 18.023-20.695-2.649-12.188-2.649-12.188l-23.859-5.297-28.875-3.258s39.641-58.728 46.781-65.53c7.573-7.216 11.25-16.078 11.25-24.563s-6.234-19.898-6.234-19.898-7.159-3.635-18.867-3.187c-1.952.074-3.97-.193-6.14-.375z"/><path fill="#1565c0" d="M475 112s-3.75-3.375-7.875-3.75-12.75 1.125-15.375.75-11.625-5.625-11.625-5.625 12-6.75 16.125-7.5S467.5 94 467.5 94s3 3.75 5.25 9 2.25 9 2.25 9"/><path fill="#fcfcfc" d="M459.84 222.742c-8.101 1.083-9.66.18-9.66.18s1.87-8.48 3.896-9.202 7.945 8.481 5.764 9.022"/><path fill="#34495e" d="M237.25 212.5s32.992-4.973 45.552-12.479c40.967-24.485 39.573-38.146 39.573-38.146s-43.335-17.339-73.292 18.41C236.54 195.252 237.25 212.5 237.25 212.5"/><path fill="#fff" d="M249.61 197.694s32.88-6.63 45.078-15.645 17.236-13.789 15.645-16.971-13.523-7.955-28.373-4.243c-14.849 3.713-25.456 14.32-28.373 20.948-2.917 6.63-5.834 13.79-3.977 15.91z"/><path fill="#1565c0" d="M115.58 265.546c12.087 9.289 42.718 14.761 57.727 12.571C208.725 272.95 210.542 275.599 202 253c-6.163-16.307-42-33-66-9l-12-12c7.113-10.243-6-34.125-12-36s-34.31 5.834-36.935 8.459 28.428 51.799 40.516 61.087z"/><path fill="#fff" d="M467.5 94s-7.125 1.125-11.25 1.875c-4.055.737-15.601 7.207-15.994 7.428-20.746 3.232-67.647 20.672-82.467 24.377-14.849 3.712-21.798 7.037-45.609 4.78-27.141-2.572-39.337-2.737-46.477-2.53-10.69-.946-16.078-3.305-16.078-3.305l.184 2.07c.468.198 5.69 2.332 15.895 3.235 7.139-.207 19.336-.042 46.477 2.53 23.81 2.257 30.76-1.068 45.609-4.78 14.82-3.705 61.72-21.145 82.467-24.377.392-.22 11.939-6.69 15.994-7.428C460.376 97.125 467.5 96 467.5 96s3 3.75 5.25 9 2.25 9 2.25 9l-.07-.057c1.66 3.889 3.557 9.274 3.738 13.967.018-.428.035-.858.035-1.285 0-4.85-2.028-10.597-3.774-14.682l.07.057s0-3.75-2.25-9-5.25-9-5.25-9zm-217.11 43.271c-7.16 5.415-21.47 13.252-50.645 21.182-19.092 2.121-35.009-3.71-44.555 1.594-9.546 5.303-39.769 18.553-55.148 22.266S73.27 192.979 63.995 196c-2.286.745-3.151 3.078-2.912 6.521.186-2.344 1.102-3.932 2.912-4.521 9.274-3.022 20.667-9.975 36.047-13.688s45.602-16.962 55.148-22.266 25.463.527 44.555-1.594c29.392-7.989 43.705-15.886 50.812-21.305zm171.54 79.59-1.262 1.857 28.875 3.258 23.86 5.297s2.3 5.758 2.655 10.088c.472-4.265-2.656-12.088-2.656-12.088l-23.859-5.297zm-311.2 64.451c-1.157 1.201-5.874 6.098-10.783 11.203-13.191 9.012-23.578 9.61-23.578 9.61l.18 1.984c.923-.071 10.834-1.01 23.398-9.594 5.484-5.703 12.047-12.516 12.047-12.516a18 18 0 0 1-1.264-.688zm-33.879 28.121c-15.256 8.073-30.323 11.854-35.357 12.566-1.28.181-6.292 3.447-13.547 8.578.177.542.366 1.079.547 1.62 6.936-4.891 11.755-8.022 13-8.198 5.054-.715 20.215-4.52 35.53-12.656zm266.43 42.441c-.01.752-.013 1.446 0 2h.092s-.063-.75-.092-2m-14.447 28.414c-.09 24.329 5.666 44.569 7.541 50.521.362-.043.623-.06.623-.06s-7.9-22.386-8.164-50.462z" opacity=".2"/><path fill="#0d47a1" d="M470.88 147.625s-26.625 12.75-39.375 32.625-21.75 40.125-21.75 40.125 9 1.875 17.25 4.875 23.25 3.75 29.625 2.625 8.25-4.125 1.875-6.75-15.75-4.5-16.125-10.125 11.625-38.25 15-43.5 13.5-19.875 13.5-19.875"/><path fill="#fcfcfc" d="M435.47 228.118c12.082 1.394 14.405.232 14.405.232s-2.788-10.92-5.808-11.849-11.85 10.92-8.597 11.617z"/></g></svg>