<?xml version="1.0" encoding="UTF-8"?>
<svg width="64" height="64" version="1.1" xmlns="http://www.w3.org/2000/svg" xmlns:cc="http://creativecommons.org/ns#" xmlns:dc="http://purl.org/dc/elements/1.1/" xmlns:rdf="http://www.w3.org/1999/02/22-rdf-syntax-ns#">
 <defs>
  <filter id="filter966" x="-.035109" y="-.027307" width="1.0702" height="1.0546" color-interpolation-filters="sRGB">
   <feGaussianBlur stdDeviation="0.42325874"/>
  </filter>
  <filter id="filter1087" x="-.035912" y="-.021632" width="1.0718" height="1.0433" color-interpolation-filters="sRGB">
   <feGaussianBlur stdDeviation="0.55882315"/>
  </filter>
  <filter id="filter953" x="-.027" y="-.027" width="1.054" height="1.054" color-interpolation-filters="sRGB">
   <feGaussianBlur stdDeviation="0.585"/>
  </filter>
 </defs>
 <metadata>
  <rdf:RDF>
   <cc:Work rdf:about="">
    <dc:format>image/svg+xml</dc:format>
    <dc:type rdf:resource="http://purl.org/dc/dcmitype/StillImage"/>
    <dc:title/>
   </cc:Work>
  </rdf:RDF>
 </metadata>
 <circle cx="32" cy="32.277" r="26" filter="url(#filter953)" opacity=".35" stroke-linecap="round" stroke-linejoin="round" stroke-width="2.0929" style="paint-order:stroke fill markers"/>
 <circle cx="32" cy="32" r="26" fill="#f2f2f2" stroke-linecap="round" stroke-linejoin="round" stroke-width="2.0929" style="paint-order:stroke fill markers"/>
 <g stroke-width="1.158">
  <path d="m42.742 0.55859c-0.61092-0.008002-1.6089 1.3184-2.4023 2.5059-1.8086 2.7068-3.7014 5.6691-5.5508 9.3984-1.7931 3.6156-1.9909 3.6569-1.7969 10.855-0.23568-0.01268-0.47254-0.02632-0.69336-0.02734-1.2157 0.11315-2.3185 0.37306-3.3203 0.75195-3.3236-4.8142-8.6662-9.0326-15.178-12.74-0.57126-0.32533-0.98714-0.46178-1.2754-0.44336-2.018 0.129 2.2345 7.7405 3.4863 9.6758 1.1355 1.7553 3.9559 4.747 6.2109 7.168 0.41165 0.44192 0.77239 0.81811 1.127 1.1875-0.13354 0.2252-0.27652 0.44271-0.39844 0.67774-0.27701 0.85757-0.42578 1.8086-0.42578 2.8496 0 3.6008 1.1251 6.3827 0.80273 10.041-0.43681 4.958-4.1579 7.9525-2.5059 12.434 0.03428 0.10959 0.04575 0.20866 0.08594 0.32031 0.3411 0.9474 1.0189 1.9286 1.9727 3.0234 0.15443 0.17726 0.33758 0.33247 0.52539 0.48438 0.74945 0.61885 1.7394 1.0469 2.8789 1.3242 0.77926 0.18963 1.6241 0.31428 2.4961 0.38867 0.2969 0.02528 0.59645 0.04378 0.89844 0.05859l0.25781-0.0332c3.0604 0.11953 6.2675-0.22329 8.1426-0.32422 0.41149-0.02214 0.82436-0.07224 1.2363-0.13477a4.133 4.133 0 0 0 3.8203 2.5586 4.133 4.133 0 0 0 4.1328-4.1328 4.133 4.133 0 0 0-0.53711-2.0352c0.64861-0.63594 1.2117-1.3287 1.6387-2.0801 0.6568-1.1556 1.0114-2.4326 0.96094-3.7812-0.01668-1.3967-0.44603-2.8711-1.4199-4.373-3.1728-4.893-6.6142-10.901-6.793-17.441-0.09609-0.95292-0.43556-1.7832-0.95703-2.4922-0.40672-0.4987-0.91346-0.91184-1.4707-1.2676 0.14447-0.30829 0.28503-0.66878 0.41992-0.93945 2.7142-5.4479 3.2975-13.744 4.0723-20.324 0.27227-2.3127 0.03376-3.1265-0.44141-3.1328z" filter="url(#filter1087)" opacity=".35"/>
  <circle cx="43.136" cy="57.867" r="4.133" fill="#f33434"/>
  <path d="m42.742 3.6218e-5c-0.61092-0.0080018-1.6088 1.319-2.4022 2.5065-1.8086 2.7068-3.7018 5.6682-5.5511 9.3976-1.8393 3.7088-2.0077 3.5341-1.7884 11.31 1.3742 0.07619 4.2851 0.79959 5.568 1.4419 0.18715-0.32269 0.3706-0.85329 0.54352-1.2003 2.7142-5.4479 3.2977-13.743 4.0724-20.324 0.27227-2.3127 0.033024-3.1253-0.44215-3.1316zm-30.216 10.3c-2.018 0.129 2.2346 7.7411 3.4864 9.6764 1.1355 1.7553 3.9547 4.7475 6.2097 7.1685 0.48322 0.51875 0.91462 0.96874 1.3235 1.3941 0 0 0.26326 0.36295 0.43526 0.20736 0.9725-0.8798 4.1338-4.2953 5.34-4.7599l-0.15986-0.25183c-3.3093-4.9197-8.7342-9.2193-15.36-12.992-0.57126-0.32533-0.98744-0.46057-1.2757-0.44215z" fill="#965f2e"/>
  <path d="m32.298 23.227c-4.5539 0.42383-7.5654 2.843-9.3465 6.2765-0.27701 0.85757-0.42689 1.8094-0.42689 2.8504 0 3.6008 1.1252 6.3824 0.8029 10.041-0.43681 4.958-4.1569 7.9513-2.5049 12.432 0.03428 0.10959 0.04462 0.20972 0.08481 0.32137 0.3411 0.9474 1.0196 1.9289 1.9733 3.0237 0.15443 0.17726 0.33804 0.33155 0.52584 0.48345 0.74945 0.61885 1.7385 1.0473 2.878 1.3246 0.77926 0.18963 1.6243 0.31406 2.4963 0.38844 0.2969 0.02528 0.59704 0.04385 0.89902 0.05866l0.25727-0.03357c3.0604 0.11953 6.2671-0.22324 8.1421-0.32416 0.44788-0.0241 0.89746-0.07363 1.3457-0.1453 1.3846-0.22152 2.752-0.66486 4.0117-1.2855h0.0085c0.06096-0.03071 0.11486-0.07171 0.17528-0.10339 0.47996-0.24554 0.95056-0.50661 1.3909-0.80202 1.4095-0.94534 2.589-2.1332 3.3586-3.4876 0.6568-1.1556 1.0117-2.4323 0.96122-3.7809-0.01668-1.3967-0.44536-2.8715-1.4193-4.3734-3.1728-4.893-6.6149-10.9-6.7937-17.441-0.09609-0.95292-0.4341-1.7836-0.95557-2.4927-1.7911-2.1962-5.3669-2.9198-7.865-2.9314z" filter="url(#filter966)" opacity=".35"/>
  <path d="m32.298 22.733c-4.5539 0.42383-7.5654 2.843-9.3465 6.2765-0.27701 0.85757-0.42689 1.8094-0.42689 2.8504 0 3.6008 1.1252 6.3824 0.8029 10.041-0.43681 4.958-4.1569 7.9513-2.5049 12.432 0.03428 0.10959 0.04462 0.20972 0.08481 0.32137 0.3411 0.9474 1.0196 1.9289 1.9733 3.0237 0.15443 0.17726 0.33804 0.33155 0.52584 0.48345 0.74945 0.61885 1.7385 1.0473 2.878 1.3246 0.77926 0.18963 1.6243 0.31406 2.4963 0.38844 0.2969 0.02528 0.59704 0.04385 0.89902 0.05866l0.25727-0.03357c3.0604 0.11953 6.2671-0.22324 8.1421-0.32416 0.44788-0.0241 0.89746-0.07363 1.3457-0.1453 1.3846-0.22152 2.752-0.66486 4.0117-1.2855h0.0085c0.06096-0.03071 0.11486-0.07171 0.17528-0.10339 0.47996-0.24554 0.95056-0.50661 1.3909-0.80202 1.4095-0.94534 2.589-2.1332 3.3586-3.4876 0.6568-1.1556 1.0117-2.4323 0.96122-3.7809-0.01668-1.3967-0.44536-2.8715-1.4193-4.3734-3.1728-4.893-6.6149-10.9-6.7937-17.441-0.096094-0.95292-0.4341-1.7836-0.95557-2.4927-1.7911-2.1962-5.3669-2.9198-7.865-2.9314z" fill="#c47831"/>
  <path d="m38.913 41.342c1.6464 0 3.1684-0.03478 4.3052 0.36151 1.2269 0.42762 2.0047 1.3575 2.0047 3.3753 0 1.8454-2.871 4.5517-3.7247 7.0819 0.28725 2.1734 0.98612 4.3257 1.9479 5.9851 0.54479-0.269 1.0689-0.5714 1.5644-0.904 1.4087-0.94534 2.5871-2.1339 3.3563-3.4881 1.2976-2.2843 1.4311-5.0402-0.45759-7.8953-4.5777-8.918-22.639-2.5371-26.072 1.2337-0.17718 1.1983-2.2742 3.7993-0.91877 7.5656 0.34092 0.94738 1.019 1.9272 1.9722 3.022 0.77047 0.8848 1.9787 1.443 3.4028 1.7827 0.77884 0.1858 1.6222 0.30621 2.4938 0.37909 0.29673 0.02476 0.59664 0.04405 0.89847 0.05858-0.0019-1.3926 0.09838-2.7802 0.06835-4.1054-0.0025-0.11518-0.0063-0.22995-0.01089-0.34416-0.29955-3.0412-5.8916-3.6255-5.8916-7.8998 0-0.88632 0.29334-1.65 0.80334-2.3071 2.5347-3.2656 10.421-3.9016 14.257-3.9016z" fill="#837f7a"/>
  <path d="m38.913 41.342c-3.8363 0-11.723 0.63609-14.257 3.9016 1.7054 2.1973 3.0455 4.2217 4.2565 6.5612 0.57563 1.112 0.77759 2.3457 0.8317 3.6456 0.01089 0.11138 0.01459 0.2259 0.01089 0.34416 0.03003 1.3251-0.07038 2.7127-0.06832 4.1054 3.1346 0.15057 6.4679-0.21817 8.3943-0.32191 0.44764-0.0241 0.8971-0.07277 1.3451-0.14444 1.3868-0.22202 2.759-0.66532 4.0202-1.288-0.96184-1.6594-1.6608-3.8116-1.9479-5.9851-0.09465-0.71594-0.1446-1.434-0.1446-2.1377 0-2.2023 0.82571-6.0707 1.8645-8.3193-1.1368-0.39619-2.6589-0.3614-4.3052-0.3614z" fill="#d7d6d6"/>
  <path d="m28.912 51.803c-1.2112-2.3394-2.5511-4.3638-4.2565-6.5612-0.51 0.65714-0.80334 1.4208-0.80334 2.3071 0 4.2742 5.5921 4.8585 5.8916 7.8998-0.0541-1.2998-0.25607-2.5335-0.8317-3.6456z" fill="#3f3f3f"/>
  <path d="m43.219 41.701c-1.0389 2.2486-1.8645 6.1172-1.8645 8.3193 0 0.70371 0.04992 1.4218 0.1446 2.1377 0.85372-2.5301 3.7247-5.2365 3.7247-7.0819 0-2.0178-0.77782-2.9476-2.0047-3.3753z" fill="#3f3f3f"/>
  <path d="m37.092 31.092c-0.8764 0.24718-2.2927 4.0597-2.2941 5.3066-0.0021 1.6292 0.51329 2.2538 1.4979 2.9944 0.98457 0.74055 5.7228 1.6466 5.7343-0.08841 0.01138-1.7086-0.05138-3.1596-0.28085-4.1201-0.22949-0.96057-0.69674-2.7807-1.6385-3.5645-0.59176-0.49247-2.1422-0.77528-3.0187-0.5281z" fill="#fff"/>
  <circle cx="37.381" cy="36.685" r="1.5506" fill="#373737"/>
  <path d="m31.634 35.634c-0.17072-1.2765-1.8459-3.4359-2.9049-4.121-2.6746-1.73-4.469 1.2748-4.2456 3.7739 0.16597 1.8572 1.1602 6.979 3.4411 5.8994 2.2808-1.0795 4.1477-2.2763 3.7093-5.5525z" fill="#fff"/>
  <circle cx="29.114" cy="36.685" r="1.5506" fill="#373737"/>
  <path d="m32.299 22.732c-4.5539 0.42383-7.5666 2.8438-9.3477 6.2773-0.27701 0.85757-0.42578 1.8086-0.42578 2.8496 0 0.064099 0.00516 0.12391 0.005859 0.1875 0.017225-0.95378 0.15995-1.8328 0.41992-2.627 1.7811-3.3879 4.7938-5.7752 9.3477-6.1934 2.4981 0.011467 6.0721 0.72555 7.8633 2.8926 0.52147 0.69961 0.86094 1.5187 0.95703 2.459 0.1788 6.4539 3.6202 12.381 6.793 17.209 0.9648 1.4682 1.3919 2.9106 1.416 4.2773-7.4e-4 -0.031597 0.005092-0.062073 0.003906-0.09375-0.01668-1.3967-0.44603-2.8711-1.4199-4.373-3.1728-4.893-6.6142-10.901-6.793-17.441-0.096094-0.95292-0.43556-1.7832-0.95703-2.4922-1.7911-2.1962-5.3652-2.92-7.8633-2.9316zm-8.918 17.955c-0.003015 0.39561-0.0161 0.79712-0.052734 1.2129-0.3572 4.0544-2.9067 6.7966-2.9219 10.111 0.068065-3.2241 2.5685-5.9132 2.9219-9.8711 0.044679-0.50034 0.056828-0.98156 0.052734-1.4531z" fill="#fff" opacity=".1"/>
 </g>
</svg>
