<svg xmlns="http://www.w3.org/2000/svg" width="64" height="64"><defs><filter id="c" width="1.07" height="1.055" x="-.035" y="-.027" color-interpolation-filters="sRGB"><feGaussianBlur stdDeviation=".423"/></filter><filter id="b" width="1.072" height="1.043" x="-.036" y="-.022" color-interpolation-filters="sRGB"><feGaussianBlur stdDeviation=".559"/></filter><filter id="a" width="1.054" height="1.054" x="-.027" y="-.027" color-interpolation-filters="sRGB"><feGaussianBlur stdDeviation=".585"/></filter></defs><circle cx="32" cy="32.277" r="26" filter="url(#a)" opacity=".35" style="paint-order:stroke fill markers"/><circle cx="32" cy="32" r="26" fill="#f2f2f2" style="paint-order:stroke fill markers"/><g stroke-width="1.158"><path d="M42.742.559c-.61-.008-1.609 1.318-2.402 2.505-1.809 2.707-3.702 5.67-5.551 9.399-1.793 3.615-1.991 3.657-1.797 10.855-.236-.013-.473-.026-.693-.027a12.7 12.7 0 0 0-3.32.752c-3.324-4.815-8.667-9.033-15.179-12.74-.57-.326-.987-.462-1.275-.444-2.018.13 2.234 7.74 3.486 9.676 1.136 1.755 3.956 4.747 6.211 7.168.412.442.773.818 1.127 1.187-.133.226-.276.443-.398.678a9.2 9.2 0 0 0-.426 2.85c0 3.6 1.125 6.382.803 10.04-.437 4.959-4.158 7.953-2.506 12.435.034.11.045.208.086.32.34.947 1.019 1.929 1.972 3.023.155.178.338.333.526.485.75.619 1.74 1.047 2.879 1.324.779.19 1.624.314 2.496.389q.445.037.898.058l.258-.033c3.06.12 6.268-.223 8.143-.324.411-.022.824-.072 1.236-.135a4.13 4.13 0 0 0 3.82 2.559 4.133 4.133 0 0 0 4.133-4.133 4.13 4.13 0 0 0-.537-2.035c.649-.636 1.212-1.329 1.639-2.08.656-1.156 1.011-2.433.96-3.782-.016-1.396-.445-2.87-1.42-4.373-3.172-4.893-6.614-10.9-6.792-17.44a5 5 0 0 0-.957-2.493c-.407-.498-.914-.912-1.471-1.267.144-.309.285-.67.42-.94 2.714-5.448 3.297-13.744 4.072-20.324.272-2.313.034-3.126-.441-3.133z" filter="url(#b)" opacity=".35"/><circle cx="43.136" cy="57.867" r="4.133" fill="#f33434"/><path fill="#965f2e" d="M42.742 0c-.61-.008-1.609 1.319-2.402 2.507-1.809 2.706-3.702 5.668-5.551 9.397-1.84 3.709-2.008 3.534-1.789 11.31 1.374.076 4.285.8 5.568 1.442.187-.323.37-.853.544-1.2 2.714-5.448 3.298-13.743 4.072-20.324.272-2.313.033-3.126-.442-3.132zM12.526 10.3c-2.018.129 2.235 7.741 3.486 9.676 1.136 1.756 3.955 4.748 6.21 7.169.483.519.915.969 1.324 1.394 0 0 .263.363.435.207.972-.88 4.134-4.295 5.34-4.76l-.16-.251c-3.31-4.92-8.734-9.22-15.36-12.992-.571-.326-.987-.46-1.276-.442z"/><path d="M32.298 23.227c-4.554.424-7.565 2.843-9.346 6.277a9.2 9.2 0 0 0-.427 2.85c0 3.6 1.125 6.382.803 10.04-.437 4.959-4.157 7.952-2.505 12.433.034.11.044.21.084.321.342.948 1.02 1.93 1.974 3.024.154.177.338.332.526.483.749.62 1.738 1.048 2.878 1.325.779.19 1.624.314 2.496.388q.446.038.899.06l.257-.034c3.06.12 6.267-.224 8.142-.325q.673-.037 1.346-.145a14.2 14.2 0 0 0 4.012-1.285h.008c.061-.031.115-.072.175-.104.48-.245.951-.506 1.391-.802 1.41-.945 2.59-2.133 3.359-3.487.657-1.156 1.012-2.433.961-3.781-.017-1.397-.445-2.872-1.42-4.374-3.172-4.893-6.614-10.9-6.793-17.44a5 5 0 0 0-.955-2.493c-1.792-2.197-5.367-2.92-7.865-2.932z" filter="url(#c)" opacity=".35"/><path fill="#c47831" d="M32.298 22.733c-4.554.424-7.565 2.843-9.346 6.277a9.2 9.2 0 0 0-.427 2.85c0 3.6 1.125 6.382.803 10.04-.437 4.959-4.157 7.952-2.505 12.433.034.11.044.21.084.321.342.948 1.02 1.93 1.974 3.024.154.177.338.332.526.483.749.62 1.738 1.048 2.878 1.325.779.19 1.624.314 2.496.388q.446.038.899.06l.257-.034c3.06.12 6.267-.224 8.142-.325q.673-.037 1.346-.145a14.2 14.2 0 0 0 4.012-1.285h.008c.061-.031.115-.072.175-.104.48-.245.951-.506 1.391-.802 1.41-.945 2.59-2.133 3.359-3.487.657-1.156 1.012-2.433.961-3.781-.017-1.397-.445-2.872-1.42-4.374-3.172-4.893-6.614-10.9-6.793-17.44a5 5 0 0 0-.955-2.493c-1.792-2.197-5.367-2.92-7.865-2.932z"/><path fill="#837f7a" d="M38.913 41.342c1.646 0 3.168-.035 4.305.362 1.227.427 2.005 1.357 2.005 3.375 0 1.845-2.871 4.552-3.725 7.082.287 2.173.986 4.325 1.948 5.985a14 14 0 0 0 1.564-.904c1.41-.946 2.588-2.134 3.357-3.488 1.297-2.285 1.43-5.04-.458-7.896-4.577-8.918-22.639-2.537-26.072 1.234-.177 1.198-2.274 3.8-.919 7.566.341.947 1.02 1.927 1.973 3.022.77.885 1.978 1.443 3.402 1.782.78.186 1.623.307 2.494.38q.446.036.899.058c-.002-1.393.098-2.78.068-4.105q-.003-.173-.01-.344c-.3-3.042-5.892-3.626-5.892-7.9 0-.887.293-1.65.803-2.307 2.535-3.266 10.42-3.902 14.257-3.902z"/><path fill="#d7d6d6" d="M38.913 41.342c-3.836 0-11.723.636-14.257 3.902 1.705 2.197 3.046 4.221 4.257 6.56.575 1.113.777 2.346.831 3.646q.017.167.011.345c.03 1.325-.07 2.712-.068 4.105 3.134.15 6.468-.218 8.394-.322q.672-.037 1.345-.144a14.2 14.2 0 0 0 4.02-1.288c-.961-1.66-1.66-3.812-1.948-5.985a16 16 0 0 1-.144-2.138c0-2.202.826-6.07 1.864-8.32-1.136-.396-2.659-.36-4.305-.36z"/><path fill="#3f3f3f" d="M28.912 51.803c-1.211-2.34-2.551-4.364-4.256-6.561a3.68 3.68 0 0 0-.804 2.307c0 4.274 5.592 4.858 5.892 7.9-.054-1.3-.256-2.534-.832-3.646M43.219 41.701c-1.039 2.249-1.864 6.117-1.864 8.32 0 .703.05 1.421.144 2.137.854-2.53 3.725-5.236 3.725-7.082 0-2.018-.778-2.947-2.005-3.375z"/><path fill="#fff" d="M37.092 31.092c-.876.247-2.293 4.06-2.294 5.307-.002 1.629.513 2.253 1.498 2.994.984.74 5.723 1.647 5.734-.088.011-1.709-.051-3.16-.28-4.12-.23-.961-.697-2.781-1.64-3.565-.591-.492-2.141-.775-3.018-.528z"/><circle cx="37.381" cy="36.685" r="1.551" fill="#373737"/><path fill="#fff" d="M31.634 35.634c-.17-1.276-1.846-3.436-2.905-4.121-2.674-1.73-4.469 1.275-4.245 3.774.165 1.857 1.16 6.979 3.44 5.9 2.281-1.08 4.148-2.277 3.71-5.553z"/><circle cx="29.114" cy="36.685" r="1.551" fill="#373737"/><path fill="#fff" d="M32.299 22.732c-4.554.424-7.567 2.844-9.348 6.277a9.2 9.2 0 0 0-.425 2.85c0 .064.005.124.005.187.018-.953.16-1.832.42-2.627 1.781-3.388 4.794-5.775 9.348-6.193 2.498.011 6.072.726 7.863 2.893.522.7.861 1.518.957 2.459.18 6.454 3.62 12.38 6.793 17.209.965 1.468 1.392 2.91 1.416 4.277 0-.032.005-.062.004-.094-.016-1.397-.446-2.87-1.42-4.373-3.172-4.893-6.614-10.9-6.793-17.44a5 5 0 0 0-.957-2.493c-1.79-2.196-5.365-2.92-7.863-2.932zm-8.918 17.955c-.003.396-.016.797-.053 1.213-.357 4.054-2.906 6.796-2.922 10.11.068-3.223 2.569-5.912 2.922-9.87.045-.5.057-.982.053-1.453z" opacity=".1"/></g></svg>