<svg xmlns="http://www.w3.org/2000/svg" width="512" height="512" enable-background="new" version="1.0"><defs><filter id="a" width="1.048" height="1.048" x="-.024" y="-.024" color-interpolation-filters="sRGB"><feGaussianBlur stdDeviation="4.8"/></filter><filter id="f" width="1.12" height="1.12" x="-.06" y="-.06" color-interpolation-filters="sRGB"><feGaussianBlur stdDeviation=".1"/></filter><filter id="d" width="1.111" height="1.13" x="-.056" y="-.065" color-interpolation-filters="sRGB"><feGaussianBlur stdDeviation=".488"/></filter><filter id="b" width="1.18" height="1.09" x="-.09" y="-.045" color-interpolation-filters="sRGB"><feGaussianBlur stdDeviation=".338"/></filter><filter id="e" width="1.144" height="1.103" x="-.072" y="-.051" color-interpolation-filters="sRGB"><feGaussianBlur stdDeviation="4.815"/></filter></defs><g transform="translate(-208 228)"><circle cx="464" cy="32" r="240" filter="url(#a)" opacity=".1"/><circle cx="464" cy="32" r="240" filter="url(#a)" opacity=".2"/><circle cx="464" cy="28" r="240" fill="#78c257"/><path d="M464-212A240 240 0 0 0 224 28h480a240 240 0 0 0-240-240" opacity=".05"/><path fill="#fff" d="M464-212A240 240 0 0 0 224 28l.041 1.172A240 240 0 0 1 464-210 240 240 0 0 1 703.959 28.828L704 28a240 240 0 0 0-240-240" opacity=".2"/><path fill-rule="evenodd" d="M112.06 265.5a1.5 1.5 0 0 1 1.257.77l7.5 13.5.187 3.73-2.812-2.27-6.188-11.14v-4.585c.02 0 .037-.006.056-.006z" color="#000" enable-background="accumulate" filter="url(#b)" opacity=".2" style="isolation:auto;mix-blend-mode:normal;text-decoration-color:#000;text-decoration-line:none;text-decoration-style:solid;text-indent:0;text-transform:none;white-space:normal" transform="matrix(16 0 0 16 -1327.2 -4260)"/><path fill="#c6c6c6" fill-rule="evenodd" d="M465.64-20a24 24 0 0 1 20.109 12.328l120 216 3 59.672-45-36.328-99-178.22v-73.359c.304 0 .586-.096.891-.096z" color="#000" enable-background="accumulate" style="isolation:auto;mix-blend-mode:normal;text-decoration-color:#000;text-decoration-line:none;text-decoration-style:solid;text-indent:0;text-transform:none;white-space:normal"/><path d="M111.94 265.38a1.5 1.5 0 0 0-1.257.77l-7.5 13.5-.187 3.73 2.812-2.27 1.055-1.896a12 12 0 0 0 5.133 1.166 12 12 0 0 0 12-12h-3a9 9 0 0 1-9 9 9 9 0 0 1-3.671-.8l3.67-6.61v-4.584c-.018 0-.036-.006-.055-.006z" filter="url(#d)" opacity=".2" transform="matrix(16 0 0 16 -1327.2 -4260)"/><path fill="#fff" fill-rule="evenodd" d="M465.64 224c-.306 0-.587.096-.89.096v2c.303 0 .584-.096.89-.096v.002a24 24 0 0 1 20.109 12.328l120 216 2.895 57.588.105.084-3-59.672-120-216a24 24 0 0 0-20.109-12.328z" color="#000" enable-background="accumulate" opacity=".5" style="isolation:auto;mix-blend-mode:normal;text-decoration-color:#000;text-decoration-line:none;text-decoration-style:solid;text-indent:0;text-transform:none;white-space:normal" transform="translate(0 -244)"/><path fill="#e6e6e6" d="M463.86-20a24 24 0 0 0-20.109 12.328l-120 216-3 59.672 45-36.328 16.875-30.328A192 192 0 0 0 464.751 220a192 192 0 0 0 192-192h-48a144 144 0 0 1-144 144 144 144 0 0 1-58.734-12.797l58.734-105.75v-73.359c-.304 0-.586-.096-.891-.096z"/><path fill="#fff" d="M463.84-20a24.05 24.05 0 0 0-20.094 12.344l-120 216-3 59.656.105-.086 2.895-57.57 120-216A24.04 24.04 0 0 1 463.84-18h.031c.295.016.582.096.875.096v-2c-.293 0-.58-.08-.875-.096zm144.91 48c0 79.529-64.471 144-144 144a144 144 0 0 1-51.469-9.906v2A144 144 0 0 0 464.75 174c79.529 0 144-64.471 144-144h47.906q.052-1 .094-2z" opacity=".5"/><path d="M436.75-112v48H408c-24 0-24 24-24 24l.75 88 56 56c14.387 11.199 38.275 12.097 50.64-2.64L544.75 48 544-40s0-24-24-24h-27.25v-48z" filter="url(#e)" opacity=".2"/><path fill="#6a6a6a" d="M436.75-116v48H408c-24 0-24 24-24 24l.75 88 56 56c14.387 11.199 38.275 12.097 50.64-2.64L544.75 44 544-44s0-24-24-24h-27.25v-48z"/><circle cx="112" cy="266.25" r="2" filter="url(#f)" opacity=".2" transform="matrix(16 0 0 16 -1327.2 -4260)"/><circle cx="464.75" cy="-4" r="32" fill="#fff"/><path fill="#fff" d="M436.75-116v2h56v-2zM408-68c-24 0-24 24-24 24l.014 1.684C384.048-44.02 384.92-66 408-66h28.75v-2zm84.75 0v2H520c24 0 24 24 24 24l.732 86.018.018-.018-.75-88s0-24-24-24z" opacity=".3"/></g></svg>