<svg xmlns="http://www.w3.org/2000/svg" width="512" height="512" enable-background="new" version="1.0"><defs><filter id="a" width="1.054" height="1.043" x="-.027" y="-.021" color-interpolation-filters="sRGB"><feGaussianBlur stdDeviation="4"/></filter></defs><path d="M432 458V58c0-13.296-10.704-24-24-24H104c-13.296 0-24 10.704-24 24v400c0 13.296 10.704 24 24 24h304c13.296 0 24-10.704 24-24" opacity=".2"/><path stroke="#000" stroke-width="8" d="M640 232v-400c0-13.296-10.704-24-24-24H312c-13.296 0-24 10.704-24 24v400c0 13.296 10.704 24 24 24h304c13.296 0 24-10.704 24-24z" filter="url(#a)" opacity=".1" transform="translate(-208 228)"/><path d="M640 232v-400c0-13.296-10.704-24-24-24H312c-13.296 0-24 10.704-24 24v400c0 13.296 10.704 24 24 24h304c13.296 0 24-10.704 24-24" filter="url(#a)" opacity=".2" transform="translate(-208 228)"/><path fill="#666" d="M432 456V56c0-13.296-10.704-24-24-24H104c-13.296 0-24 10.704-24 24v400c0 13.296 10.704 24 24 24h304c13.296 0 24-10.704 24-24"/><path fill="#fff" d="M104 32c-13.296 0-24 10.704-24 24v2c0-13.296 10.704-24 24-24h304c13.296 0 24 10.704 24 24v-2c0-13.296-10.704-24-24-24z" opacity=".1"/><path d="M341.77 112.86c-7.501 2.081-20.073 18.827-26.451 20.066-7.29 1.417-29.139-13.183-34.204-7.753s10.938 26.834 10.033 34.204c-.904 7.37-21.842 24.061-18.242 30.555 3.6 6.495 28.842-2.226 35.572.912s15.969 27.867 23.258 26.451 6.793-27.86 11.857-33.292c5.064-5.43 31.474-6.767 32.38-14.138.904-7.37-24.219-14.94-27.819-21.434s3.081-32.433-3.648-35.572c-.841-.393-1.665-.298-2.737 0zM223.2 217.75c-13.736 1.884-15.533 51.513-25.539 61.111-10.005 9.598-59.114 9.157-61.567 22.802-2.453 13.646 43.673 30.843 49.709 43.325 6.036 12.481-9.484 59.121 2.736 65.671s42.814-32.32 56.55-34.204 53.386 27.384 63.391 17.786-17.503-50.657-15.05-64.303 42.52-42.244 36.484-54.726-53.45 1.077-65.67-5.473-27.31-53.873-41.045-51.989z" enable-background="new" opacity=".2"/><path fill="#90caf9" d="M341.77 110.86c-7.501 2.081-20.073 18.827-26.451 20.066-7.29 1.417-29.139-13.183-34.204-7.753s10.938 26.834 10.033 34.204c-.904 7.37-21.842 24.061-18.242 30.555 3.6 6.495 28.842-2.226 35.572.912s15.969 27.867 23.258 26.451 6.793-27.86 11.857-33.292c5.064-5.43 31.474-6.767 32.38-14.138.904-7.37-24.219-14.94-27.819-21.434s3.081-32.433-3.648-35.572c-.841-.393-1.665-.298-2.737 0zM223.2 215.75c-13.736 1.884-15.533 51.513-25.539 61.111-10.005 9.598-59.114 9.157-61.567 22.802-2.453 13.646 43.673 30.843 49.709 43.325 6.036 12.481-9.484 59.121 2.736 65.671s42.814-32.32 56.55-34.204 53.386 27.384 63.391 17.786-17.503-50.657-15.05-64.303 42.52-42.244 36.484-54.726-53.45 1.077-65.67-5.473-27.31-53.873-41.045-51.989z" enable-background="new"/></svg>