<svg width="512" height="512" enable-background="new" version="1.0" xmlns="http://www.w3.org/2000/svg" xmlns:osb="http://www.openswatchbook.org/uri/2009/osb">
 <defs>
  <filter id="a" x="-.027273" y="-.021429" width="1.0545" height="1.0429" color-interpolation-filters="sRGB">
   <feGaussianBlur stdDeviation="4"/>
  </filter>
 </defs>
 <g transform="translate(0,212)">
  <g>
   <g transform="translate(-208,16)">
    <g>
     <path d="m640 230v-400c0-13.296-10.704-24-24-24h-304c-13.296 0-24 10.704-24 24v400c0 13.296 10.704 24 24 24h304c13.296 0 24-10.704 24-24z" opacity=".2"/>
     <path d="m640 232v-400c0-13.296-10.704-24-24-24h-304c-13.296 0-24 10.704-24 24v400c0 13.296 10.704 24 24 24h304c13.296 0 24-10.704 24-24z" filter="url(#a)" opacity=".1" stroke="#000" stroke-width="8"/>
     <path d="m640 232v-400c0-13.296-10.704-24-24-24h-304c-13.296 0-24 10.704-24 24v400c0 13.296 10.704 24 24 24h304c13.296 0 24-10.704 24-24z" filter="url(#a)" opacity=".2"/>
    </g>
    <path d="m640 228v-400c0-13.296-10.704-24-24-24h-304c-13.296 0-24 10.704-24 24v400c0 13.296 10.704 24 24 24h304c13.296 0 24-10.704 24-24z" fill="#666"/>
    <path d="m312-196c-13.296 0-24 10.704-24 24v2c0-13.296 10.704-24 24-24h304c13.296 0 24 10.704 24 24v-2c0-13.296-10.704-24-24-24z" fill="#fff" opacity=".1"/>
    <path d="m549.77-115.14c-7.5013 2.0814-20.073 18.827-26.451 20.066-7.2894 1.4166-29.139-13.183-34.204-7.7528-5.0646 5.4303 10.938 26.834 10.033 34.204-0.90436 7.3701-21.842 24.061-18.242 30.555 3.5996 6.4946 28.842-2.2263 35.572 0.912 6.7295 3.1385 15.969 27.867 23.258 26.451 7.289-1.417 6.7928-27.861 11.857-33.292 5.0643-5.4303 31.474-6.7676 32.38-14.138 0.90436-7.3701-24.219-14.94-27.819-21.434-3.5996-6.4946 3.0812-32.433-3.6483-35.572-0.84109-0.39273-1.6646-0.29782-2.7362 0zm-118.57 104.89c-13.736 1.8839-15.533 51.513-25.539 61.111-10.005 9.5977-59.114 9.1568-61.567 22.802-2.4531 13.646 43.673 30.843 49.709 43.325 6.0361 12.481-9.4836 59.121 2.7362 65.671 12.22 6.5495 42.814-32.32 56.55-34.204 13.736-1.8839 53.386 27.384 63.391 17.786 10.005-9.5979-17.503-50.657-15.05-64.303 2.4529-13.646 42.52-42.244 36.484-54.726-6.0363-12.481-53.451 1.0767-65.671-5.4727-12.22-6.5497-27.309-53.873-41.044-51.989z" enable-background="new" opacity=".2"/>
    <path d="m549.77-117.14c-7.5013 2.0814-20.073 18.827-26.451 20.066-7.2894 1.4166-29.139-13.183-34.204-7.7528-5.0646 5.4303 10.938 26.834 10.033 34.204-0.90436 7.3701-21.842 24.061-18.242 30.555 3.5996 6.4946 28.842-2.2263 35.572 0.912 6.7295 3.1385 15.969 27.867 23.258 26.451 7.289-1.417 6.7928-27.861 11.857-33.292 5.0643-5.4303 31.474-6.7676 32.38-14.138 0.90436-7.3701-24.219-14.94-27.819-21.434-3.5996-6.4946 3.0812-32.433-3.6483-35.572-0.84109-0.39273-1.6646-0.29782-2.7362 0zm-118.57 104.89c-13.736 1.8839-15.533 51.513-25.539 61.111-10.005 9.5977-59.114 9.1568-61.567 22.802-2.4531 13.646 43.673 30.843 49.709 43.325 6.0361 12.481-9.4836 59.121 2.7362 65.671 12.22 6.5495 42.814-32.32 56.55-34.204 13.736-1.8839 53.386 27.384 63.391 17.786 10.005-9.5979-17.503-50.657-15.05-64.303 2.4529-13.646 42.52-42.244 36.484-54.726-6.0363-12.481-53.451 1.0767-65.671-5.4727-12.22-6.5497-27.309-53.873-41.044-51.989z" enable-background="new" fill="#90caf9"/>
   </g>
  </g>
 </g>
</svg>
