<svg xmlns="http://www.w3.org/2000/svg" width="512" height="512" enable-background="new" version="1.0"><defs><filter id="d" width="1.219" height="1.266" x="-.109" y="-.133" color-interpolation-filters="sRGB"><feGaussianBlur stdDeviation="1.78"/></filter><filter id="a" width="1.043" height="1.054" x="-.022" y="-.027" color-interpolation-filters="sRGB"><feGaussianBlur stdDeviation="4.035"/></filter><clipPath id="b"><path fill="#828b8f" d="m143 255 .134 5.945c.134.945.915 2.655 2.102 4.004A8.97 8.97 0 0 0 152 268h16l6 8c3 4 6.381.707 6-2l-1-19z"/></clipPath></defs><g transform="translate(-208 228)"><path stroke="#000" stroke-width="8" d="M352.53-150.96c-55.7 0-97.609 44.924-100.54 100.55l-11.178 212.25c-7.049 41.504 33.21 67.712 67.035 22.345l59.773-89.654c2.397.17 4.81.257 7.252.285h178.74l67.024 89.37c33.514 44.685 71.295 7.897 67.035-22.345L676.492-50.41c0-55.701-44.836-100.55-100.54-100.55h-223.43z" filter="url(#a)" opacity=".1"/><path d="M352.53-150.96c-55.7 0-97.609 44.924-100.54 100.55l-11.178 212.25c-7.049 41.504 33.21 67.712 67.035 22.345l59.773-89.654c2.397.17 4.81.257 7.252.285h178.74l67.024 89.37c33.514 44.685 71.295 7.897 67.035-22.345L676.492-50.41c0-55.701-44.836-100.55-100.54-100.55h-223.43z" filter="url(#a)" opacity=".2"/><path fill="#b3b3b3" d="m274.33-53.736 1.496 66.411c1.496 10.555 10.227 29.661 23.487 44.735C317.711 78.326 344.698 92 374.873 92h177.13l68.64 88.863c33.513 44.685 71.287 7.9 67.027-22.343L676.5-53.74z"/><path d="M150 246h20c4.986 0 9 4.014 9 9a8.97 8.97 0 0 1-2.236 5.95A8.97 8.97 0 0 1 170 264h-16l-8 12c-3.028 4.061-6.631 1.715-6-2l1-19c.262-4.98 4.014-9 9-9" clip-path="url(#b)" filter="url(#d)" opacity=".2" transform="translate(-1323.2 -2902.4)scale(11.171)"/><path fill="#e6e6e6" d="M352.57-156H576c55.7 0 100.5 46.564 100.5 102.26-1.893 58.409-49.987 97.071-100.54 97.736H397.22l-89.371 136.86c-33.825 45.367-74.077 19.161-67.028-22.343l11.171-212.26c2.928-55.623 44.887-102.26 100.59-102.26z"/><circle cx="352" cy="-52" r="72" fill="#333"/><rect width="32" height="96" x="336" y="-100" fill="#f2f2f2" ry="0"/><rect width="32" height="96" x="-68" y="-400" fill="#f2f2f2" ry="0" transform="rotate(90)"/><circle cx="576" cy="-52" r="72" fill="#333"/><g fill="#f44336"><circle cx="544" cy="-52" r="16"/><circle cx="576" cy="-84" r="16"/><circle cx="608" cy="-52" r="16"/><circle cx="576" cy="-20" r="16"/></g><path fill="#fff" d="M352.57-156c-55.7 0-97.66 46.64-100.59 102.26l-11.17 212.26c-.611 3.6-.86 7.081-.795 10.414.05-2.719.305-5.528.795-8.414l11.17-212.26C254.908-107.363 296.867-154 352.57-154H576c55.174 0 99.641 45.69 100.48 100.69.005-.142.015-.283.02-.426 0-55.7-44.796-102.26-100.5-102.26z" opacity=".2"/></g></svg>