<svg xmlns="http://www.w3.org/2000/svg" width="64" height="64" version="1"><defs><filter id="c" width="1.072" height="1.072" x="-.036" y="-.036" color-interpolation-filters="sRGB"><feGaussianBlur stdDeviation=".66"/></filter><filter id="a" width="1.072" height="1.072" x="-.036" y="-.036" color-interpolation-filters="sRGB"><feGaussianBlur stdDeviation=".66"/></filter><filter id="b" width="1.072" height="1.072" x="-.036" y="-.036" color-interpolation-filters="sRGB"><feGaussianBlur stdDeviation=".54"/></filter></defs><path d="M24.999 11c-1.152 0-2.306.43-3.167 1.291L4.29 29.834c-1.723 1.723-1.72 4.606.002 6.33l17.541 17.542c1.723 1.723 4.61 1.725 6.332.003l17.541-17.543c1.723-1.723 1.723-4.61 0-6.332l-17.54-17.543A4.47 4.47 0 0 0 24.998 11" filter="url(#a)" opacity=".35"/><path fill="#8e8e8e" d="M24.999 10c-1.152 0-2.306.43-3.167 1.291L4.29 28.834c-1.723 1.723-1.72 4.606.002 6.33l17.541 17.542c1.723 1.723 4.61 1.725 6.332.003l17.541-17.543c1.723-1.723 1.723-4.61 0-6.332l-17.54-17.543A4.47 4.47 0 0 0 24.998 10"/><path fill="#fff" d="M25 10c-1.152 0-2.306.43-3.168 1.291L4.291 28.834c-.985.985-1.386 2.348-1.244 3.658.108-.976.51-1.924 1.244-2.658l17.541-17.543A4.47 4.47 0 0 1 25 11c1.152 0 2.305.43 3.166 1.291l17.541 17.543c.736.736 1.139 1.687 1.246 2.666.144-1.313-.26-2.68-1.246-3.666L28.166 11.291A4.46 4.46 0 0 0 25 10" opacity=".2"/><rect width="26.292" height="26.292" x="27.87" y="-7.49" filter="url(#b)" opacity=".2" rx="1.43" ry="1.43" transform="rotate(45)"/><rect width="26.292" height="26.292" x="27.16" y="-8.2" fill="#fff" rx="1.43" ry="1.43" transform="rotate(45)"/><path d="M38.999 11c-1.152 0-2.306.43-3.167 1.291L18.29 29.834c-1.723 1.723-1.72 4.606.002 6.33l17.541 17.542c1.723 1.723 4.61 1.725 6.332.003l17.541-17.543c1.723-1.723 1.723-4.61 0-6.332l-17.54-17.543A4.47 4.47 0 0 0 38.998 11" filter="url(#c)" opacity=".35"/><path fill="#e52e38" d="M38.999 10c-1.152 0-2.306.43-3.167 1.291L18.29 28.834c-1.723 1.723-1.72 4.606.002 6.33l17.541 17.542c1.723 1.723 4.61 1.725 6.332.003l17.541-17.543c1.723-1.723 1.723-4.61 0-6.332l-17.54-17.543A4.47 4.47 0 0 0 38.998 10"/><path fill="#fff" d="M39 10c-1.152 0-2.306.43-3.168 1.291L18.291 28.834c-.985.985-1.386 2.348-1.244 3.658.108-.976.51-1.924 1.244-2.658l17.541-17.543C36.693 11.43 37.847 11 39 11s2.305.43 3.166 1.291l17.541 17.543c.736.736 1.139 1.687 1.246 2.666.144-1.313-.26-2.68-1.246-3.666L42.166 11.291A4.46 4.46 0 0 0 39 10" opacity=".2"/></svg>