<svg width="64" height="64" version="1" xmlns="http://www.w3.org/2000/svg">
 <defs>
  <filter id="filter842" x="-.036" y="-.036" width="1.072" height="1.072" color-interpolation-filters="sRGB">
   <feGaussianBlur stdDeviation="0.65999976"/>
  </filter>
  <filter id="filter858" x="-.036" y="-.036" width="1.072" height="1.072" color-interpolation-filters="sRGB">
   <feGaussianBlur stdDeviation="0.66000026"/>
  </filter>
  <filter id="filter874" x="-.036" y="-.036" width="1.072" height="1.072" color-interpolation-filters="sRGB">
   <feGaussianBlur stdDeviation="0.5400068"/>
  </filter>
 </defs>
 <path d="m24.999 11c-1.1524 0-2.3056 0.42955-3.1671 1.291l-17.541 17.543c-1.7229 1.7229-1.7205 4.6062 0.00248 6.3291l17.541 17.543c1.7229 1.7229 4.6088 1.7253 6.3318 0.0025l17.541-17.543c1.7229-1.7229 1.7229-4.6087 0-6.3316l-17.541-17.543c-0.86147-0.86145-2.0147-1.291-3.1671-1.291z" fill="#000000" filter="url(#filter858)" opacity=".35"/>
 <path d="m24.999 10c-1.1524 0-2.3056 0.42955-3.1671 1.291l-17.541 17.543c-1.7229 1.7229-1.7205 4.6062 0.00248 6.3291l17.541 17.543c1.7229 1.7229 4.6088 1.7253 6.3318 0.0025l17.541-17.543c1.7229-1.7229 1.7229-4.6087 0-6.3316l-17.541-17.543c-0.86147-0.86145-2.0147-1.291-3.1671-1.291z" fill="#8e8e8e"/>
 <path d="m25 10c-1.1524 0-2.3065 0.42957-3.168 1.291l-17.541 17.543c-0.9853 0.98528-1.3865 2.348-1.2441 3.6582 0.1078-0.97633 0.50972-1.9238 1.2441-2.6582l17.541-17.543c0.86147-0.86145 2.0155-1.291 3.168-1.291 1.1524 0 2.3045 0.42957 3.166 1.291l17.541 17.543c0.73616 0.73614 1.139 1.6867 1.2461 2.666 0.14354-1.3127-0.25931-2.6793-1.2461-3.666l-17.541-17.543c-0.86147-0.86145-2.0136-1.291-3.166-1.291z" fill="#ffffff" opacity=".2"/>
 <rect transform="rotate(45)" x="27.87" y="-7.49" width="26.292" height="26.292" rx="1.43" ry="1.43" fill="#000000" filter="url(#filter874)" opacity=".2"/>
 <rect transform="rotate(45)" x="27.16" y="-8.2" width="26.292" height="26.292" rx="1.43" ry="1.43" fill="#ffffff"/>
 <path d="m38.999 11c-1.1524 0-2.3056 0.42955-3.1671 1.291l-17.541 17.543c-1.7229 1.7229-1.7205 4.6062 0.0025 6.3291l17.541 17.543c1.7229 1.7229 4.6088 1.7253 6.3317 0.0025l17.541-17.543c1.7229-1.7229 1.7229-4.6087 0-6.3316l-17.541-17.543c-0.86147-0.86145-2.0147-1.291-3.1671-1.291z" fill="#000000" filter="url(#filter842)" opacity=".35"/>
 <path d="m38.999 10c-1.1524 0-2.3056 0.42955-3.1671 1.291l-17.541 17.543c-1.7229 1.7229-1.7205 4.6062 0.0025 6.3291l17.541 17.543c1.7229 1.7229 4.6088 1.7253 6.3317 0.0025l17.541-17.543c1.7229-1.7229 1.7229-4.6087 0-6.3316l-17.541-17.543c-0.86147-0.86145-2.0147-1.291-3.1671-1.291z" fill="#e52e38"/>
 <path d="m39 10c-1.1524 0-2.3065 0.42957-3.168 1.291l-17.541 17.543c-0.9853 0.98528-1.3865 2.348-1.2441 3.6582 0.1078-0.97633 0.50972-1.9238 1.2441-2.6582l17.541-17.543c0.86147-0.86145 2.0155-1.291 3.168-1.291s2.3045 0.42957 3.166 1.291l17.541 17.543c0.73616 0.73614 1.139 1.6867 1.2461 2.666 0.14354-1.3127-0.25931-2.6793-1.2461-3.666l-17.541-17.543c-0.86147-0.86145-2.0136-1.291-3.166-1.291z" fill="#ffffff" opacity=".2"/>
</svg>
