<svg xmlns="http://www.w3.org/2000/svg" width="64" height="64" enable-background="new" version="1.0"><defs><filter id="b" width="1.096" height="1.096" x="-.048" y="-.048" color-interpolation-filters="sRGB"><feGaussianBlur stdDeviation=".76"/></filter><filter id="a" width="1.096" height="1.096" x="-.048" y="-.048" color-interpolation-filters="sRGB"><feGaussianBlur stdDeviation="1.08"/></filter></defs><rect width="54" height="54" x="5" y="6" filter="url(#a)" opacity=".25" rx="7" ry="7" style="paint-order:stroke fill markers"/><rect width="54" height="54" x="5" y="5" fill="#0d9ff2" rx="7" ry="7" style="paint-order:stroke fill markers"/><path d="M15.666 14A2.66 2.66 0 0 0 13 16.666v10.668A2.66 2.66 0 0 0 15.666 30h10.668A2.66 2.66 0 0 0 29 27.334V16.666A2.66 2.66 0 0 0 26.334 14zm22 0A2.66 2.66 0 0 0 35 16.666v10.668A2.66 2.66 0 0 0 37.666 30h10.668A2.66 2.66 0 0 0 51 27.334V16.666A2.66 2.66 0 0 0 48.334 14zm-22 22A2.66 2.66 0 0 0 13 38.666v10.668A2.66 2.66 0 0 0 15.666 52h10.668A2.66 2.66 0 0 0 29 49.334V38.666A2.66 2.66 0 0 0 26.334 36zm22 0A2.66 2.66 0 0 0 35 38.666v10.668A2.66 2.66 0 0 0 37.666 52h10.668A2.66 2.66 0 0 0 51 49.334V38.666A2.66 2.66 0 0 0 48.334 36z" filter="url(#b)" opacity=".15" style="paint-order:stroke fill markers"/><rect width="16" height="16" x="13" y="13" fill="#fff" rx="2.667" ry="2.667" style="paint-order:stroke fill markers"/><rect width="16" height="16" x="35" y="13" fill="#9fd9f9" rx="2.667" ry="2.667" style="paint-order:stroke fill markers"/><rect width="16" height="16" x="13" y="35" fill="#9fd9f9" rx="2.667" ry="2.667" style="paint-order:stroke fill markers"/><rect width="16" height="16" x="35" y="35" fill="#9fd9f9" rx="2.667" ry="2.667" style="paint-order:stroke fill markers"/><path fill="#fff" d="M12 5c-3.878 0-7 3.122-7 7v1c0-3.878 3.122-7 7-7h40c3.878 0 7 3.122 7 7v-1c0-3.878-3.122-7-7-7z" opacity=".15" style="paint-order:stroke fill markers"/></svg>