<svg xmlns="http://www.w3.org/2000/svg" width="64" height="64"><defs><filter id="a" width="1.12" height="1.12" x="-.06" y="-.06" color-interpolation-filters="sRGB"><feGaussianBlur stdDeviation="1.15"/></filter></defs><path d="M24 18.125c12.703 0 23 10.297 23 23s-10.297 23-23 23-23-10.297-23-23 10.297-23 23-23" filter="url(#a)" opacity=".35" transform="translate(2.783 -17.425)scale(1.2174)"/><path fill="#c93939" d="M32 4c15.465 0 28 12.535 28 28S47.465 60 32 60 4 47.465 4 32 16.535 4 32 4"/><path fill="#fff" d="M32 16a4 4 0 1 0 0 8 4 4 0 0 0 0-8m-3 14v18h6V30z" enable-background="new"/></svg>