<svg xmlns="http://www.w3.org/2000/svg" width="512" height="512" enable-background="new" version="1.0"><defs><filter id="a" width="1.048" height="1.048" x="-.024" y="-.024" color-interpolation-filters="sRGB"><feGaussianBlur stdDeviation="4.8"/></filter></defs><g transform="translate(-208 228)"><circle cx="464" cy="30" r="240" opacity=".2"/><circle cx="464" cy="32" r="240" filter="url(#a)" opacity=".1"/><circle cx="464" cy="32" r="240" filter="url(#a)" opacity=".2"/><circle cx="464" cy="28" r="240" fill="#4db9c0"/><path fill="#fff" d="M464-212A240 240 0 0 0 224 28l.041 1.172A240 240 0 0 1 464-210 240 240 0 0 1 703.959 28.828L704 28a240 240 0 0 0-240-240" opacity=".2"/><path fill="#fff" d="M381.9-47.488a80.2 80.2 0 0 0-29.651 5.672c-9.406 3.748-18.005 9.267-25.254 16.24-7.25 6.974-13.05 15.312-17.003 24.492s-5.991 19.073-5.991 29.04 2.038 19.861 5.991 29.04c3.953 9.18 9.753 17.518 17.003 24.492s15.849 12.492 25.254 16.24c9.191 3.662 19.04 5.559 28.957 5.645v.014c.234.012.46.004.693.014 24.116 1.077 43.554-7.957 57.776-21.066 9.722-8.962 17.354-19.545 24.325-30.33 6.971 10.785 14.603 21.369 24.325 30.33 14.222 13.11 33.66 22.144 57.776 21.066.234-.01.46-.001.694-.014v-.014c9.917-.086 19.766-1.983 28.957-5.645 9.406-3.747 18.005-9.266 25.254-16.24l.055-.07c7.22-6.96 13.006-15.27 16.947-24.421A73.5 73.5 0 0 0 624 27.957a73.5 73.5 0 0 0-5.99-29.04l-.07-.14c-3.951-9.122-9.721-17.415-16.933-24.352-7.25-6.973-15.85-12.492-25.254-16.24a80.2 80.2 0 0 0-29.651-5.672c-25.407 0-45.467 9.867-60.286 23.576C477.255-15.992 470.3-6.934 464 2.328c-6.3-9.262-13.255-18.32-21.815-26.24-14.82-13.708-34.88-23.575-60.286-23.575zm0 26.627c18.972 0 31.086 6.22 42.202 16.503 8.81 8.151 16.542 19.224 24.2 31.315-8.74 14.126-17.19 27.044-26.683 35.794-10.465 9.646-21.306 14.967-39.026 14.035l-.347-.014h-.346a53.9 53.9 0 0 1-19.79-3.786c-6.134-2.444-11.79-6.067-16.462-10.512l-.195-.18c-4.707-4.529-8.479-9.976-10.998-15.824a47.1 47.1 0 0 1-3.827-18.514c0-6.298 1.309-12.666 3.827-18.514 2.519-5.849 6.29-11.296 10.998-15.824l.195-.18c4.67-4.446 10.328-8.07 16.462-10.512a53.9 53.9 0 0 1 19.79-3.787zm164.2 0a53.9 53.9 0 0 1 19.79 3.786c6.217 2.477 11.948 6.164 16.656 10.693 4.708 4.528 8.48 9.976 10.998 15.824a47.1 47.1 0 0 1 3.828 18.514c0 6.298-1.31 12.666-3.828 18.514-2.518 5.849-6.29 11.296-10.998 15.824s-10.439 8.216-16.656 10.693a53.9 53.9 0 0 1-19.79 3.786h-.347l-.346.014c-17.72.933-28.561-4.388-39.026-14.035-9.493-8.75-17.942-21.669-26.683-35.794 7.658-12.09 15.39-23.164 24.2-31.315C515.013-14.64 527.128-20.86 546.1-20.86zm-11.511 24.7v14.437h-14.437V33.24h14.437v14.548h15.033V33.24h14.437V18.276h-14.437V3.839h-10.595zm-177.28 16.143v11.649h53.379V19.983h-45.183z" color="#000" enable-background="accumulate" style="text-decoration-line:none;text-indent:0;text-transform:none"/></g></svg>