<svg width="512" height="512" enable-background="new" version="1.0" xmlns="http://www.w3.org/2000/svg" xmlns:osb="http://www.openswatchbook.org/uri/2009/osb" xmlns:xlink="http://www.w3.org/1999/xlink">
 <defs>
  <filter id="a" x="-.024" y="-.024" width="1.048" height="1.048" color-interpolation-filters="sRGB">
   <feGaussianBlur stdDeviation="4.8"/>
  </filter>
 </defs>
 <g transform="translate(0,212)">
  <g>
   <g transform="translate(-208,16)">
    <g>
     <circle cx="464" cy="30" r="240" opacity=".2"/>
     <circle cx="464" cy="32" r="240" filter="url(#a)" opacity=".1"/>
     <circle cx="464" cy="32" r="240" filter="url(#a)" opacity=".2"/>
    </g>
    <circle cx="464" cy="28" r="240" fill="#4db9c0"/>
    <path transform="translate(0,-244)" d="m 464,32 a 240,240 0 0 0 -240,240 240,240 0 0 0 0.041,1.17188 A 240,240 0 0 1 464,34 240,240 0 0 1 703.95898,272.82812 240,240 0 0 0 704,272 240,240 0 0 0 464,32 Z" fill="#fff" opacity=".2"/>
    <path d="m381.9-47.488c-10.153 0-20.245 1.9246-29.651 5.6722-9.4058 3.7476-18.005 9.2666-25.254 16.24-7.2495 6.9733-13.05 15.312-17.003 24.492-3.9527 9.1792-5.9912 19.073-5.9912 29.04s2.0384 19.861 5.9912 29.04c3.9527 9.1792 9.7532 17.518 17.003 24.492 7.2495 6.9733 15.849 12.492 25.254 16.24 9.191 3.662 19.04 5.5585 28.957 5.6444v0.014c0.23426 0.012 0.46004 4e-3 0.69342 0.014 24.116 1.0774 43.554-7.9566 57.776-21.066 9.7218-8.9615 17.354-19.545 24.325-30.33 6.9707 10.785 14.603 21.369 24.325 30.33 14.222 13.11 33.66 22.144 57.776 21.066 0.23336-0.01 0.45914-1e-3 0.6934-0.014v-0.014c9.9174-0.086 19.766-1.9825 28.957-5.6445 9.4058-3.7476 18.005-9.2666 25.254-16.24l0.0554-0.0694c7.2197-6.9608 13.006-15.27 16.947-24.422 3.9527-9.1792 5.9912-19.073 5.9912-29.04 0-9.9676-2.0384-19.861-5.9912-29.04l-0.0694-0.1388c-3.9512-9.123-9.7213-17.416-16.933-24.353-7.2495-6.9733-15.849-12.492-25.254-16.24-9.4058-3.7476-19.498-5.6722-29.651-5.6722-25.407 0-45.467 9.8671-60.286 23.576-8.5599 7.9191-15.515 16.977-21.815 26.239-6.3-9.2618-13.255-18.32-21.815-26.239-14.819-13.709-34.879-23.576-60.286-23.576zm0 26.627c18.972 0 31.086 6.2202 42.202 16.503 8.8107 8.1511 16.542 19.224 24.2 31.315-8.7403 14.126-17.19 27.044-26.683 35.794-10.465 9.6464-21.306 14.967-39.026 14.035l-0.34672-0.014h-0.3467c-6.7574 0-13.573-1.3091-19.79-3.7861-6.1333-2.4437-11.79-6.0672-16.462-10.512l-0.1942-0.1802c-4.7076-4.5283-8.4792-9.9755-10.998-15.824-2.5184-5.8484-3.8277-12.216-3.8277-18.514 0-6.2982 1.3093-12.666 3.8277-18.514 2.5184-5.8484 6.29-11.296 10.998-15.824l0.1942-0.1802c4.6713-4.4451 10.328-8.0686 16.462-10.512 6.2169-2.477 13.033-3.7861 19.79-3.7861zm164.2 0c6.7574 0 13.573 1.309 19.79 3.7861 6.2169 2.477 11.948 6.1643 16.656 10.693 4.7076 4.5283 8.4792 9.9755 10.998 15.824 2.5184 5.8484 3.8277 12.216 3.8277 18.514 0 6.2982-1.3093 12.666-3.8277 18.514-2.5184 5.8484-6.2901 11.296-10.998 15.824-4.7076 4.5283-10.439 8.2155-16.656 10.693-6.2169 2.477-13.033 3.7861-19.79 3.7861h-0.3467l-0.34672 0.014c-17.719 0.93264-28.561-4.3884-39.026-14.035-9.4928-8.7504-17.942-21.669-26.683-35.794 7.6585-12.091 15.39-23.164 24.2-31.315 11.115-10.283 23.23-16.503 42.202-16.503zm-11.511 24.7v4.4379 9.9991h-9.9991-4.4379v4.4379 6.0882 4.4379h4.4379 9.9991v10.11 4.4379h4.4379 6.1576 4.4379v-4.4379-10.11h9.9992 4.4379v-4.4379-6.0882-4.4379h-4.4379-9.9992v-9.9991-4.4379h-4.4379-6.1576zm-177.28 16.143v3.3562 4.951 3.3423h8.1963 36.987 8.1962v-3.3423-4.951-3.3562h-8.1962-36.987z" color="#000000" enable-background="accumulate" fill="#fff" style="text-decoration-line:none;text-indent:0;text-transform:none"/>
   </g>
  </g>
 </g>
</svg>
