<svg xmlns="http://www.w3.org/2000/svg" width="512" height="512" enable-background="new" version="1.0"><defs><filter id="a" width="1.048" height="1.048" x="-.024" y="-.024" color-interpolation-filters="sRGB"><feGaussianBlur stdDeviation="4.48"/></filter></defs><g transform="translate(-208 228)"><rect width="448" height="448" x="-256" y="-688" stroke="#000" stroke-width="8" filter="url(#a)" opacity=".1" rx="224" ry="224" transform="scale(1 -1)rotate(90)"/><rect width="448" height="448" x="-256" y="-688" filter="url(#a)" opacity=".2" rx="224" ry="224" transform="scale(1 -1)rotate(90)"/><path d="M464 252c-124.1 0-224-99.904-224-224 0-.674.003-1.336 0-2 0 124.1 99.904 224 224 224s224-99.904 224-224c-.003.664 0 1.326 0 2 0 124.1-99.904 224-224 224" opacity=".2"/></g><g transform="translate(-208 228)"><rect width="448" height="448" x="-252" y="-688" fill="#81c784" rx="224" ry="224" transform="scale(1 -1)rotate(90)"/><path fill="#fff" d="M464-196c-124.1 0-224 99.904-224 224 0 .334.01.666.012 1 .536-123.63 100.23-223 223.99-223s223.45 99.369 223.99 223c.001-.334.011-.666.011-1 0-124.1-99.904-224-224-224z" opacity=".2"/><path d="M464 252c-124.1 0-224-99.904-224-224 0-.334.01-.666.012-1 .536 123.63 100.23 223 223.99 223s223.45-99.369 223.99-223c0 .334.011.666.011 1 0 124.1-99.904 224-224 224z" opacity=".1"/><circle cx="464" cy="28" r="20" fill="#fff"/></g><g fill="none" stroke="#fff" stroke-linecap="round" stroke-width="10"><path d="M300.633 228.177a154.86 51.644 60 0 1 39.491 153.096 154.86 51.644 60 0 1-98.618-55.624 154.86 51.644 60 0 1-75-173.123 154.86 51.644 60 0 1 71.613-6.711"/><path d="M241.146 359.316a51.644 154.86 30 0 1-73.128 12.277 51.644 154.86 30 0 1 42.925-142.88A51.644 154.86 30 0 1 313.29 119.182a51.644 154.86 30 0 1 26.743 68.319"/><path d="M150.69 291.862a51.644 154.86 90 0 1-38.83-56.746 51.644 154.86 90 0 1 144.25-32.763 51.644 154.86 90 0 1 144.11 32.835 51.644 154.86 90 0 1-39.086 56.727"/></g></svg>