<svg xmlns="http://www.w3.org/2000/svg" width="512" height="512" enable-background="new" version="1.0"><defs><filter id="a" width="1.048" height="1.048" x="-.024" y="-.024" color-interpolation-filters="sRGB"><feGaussianBlur stdDeviation="4.8"/></filter></defs><g transform="translate(-208 228)"><circle cx="464" cy="32" r="240" enable-background="new" filter="url(#a)" opacity=".1"/><circle cx="464" cy="32" r="240" enable-background="new" filter="url(#a)" opacity=".2"/><circle cx="464" cy="28" r="240" fill="#232323" enable-background="new"/><path fill="#fff" d="M464-212A240 240 0 0 0 224 28l.041 1.172A240 240 0 0 1 464-210 240 240 0 0 1 703.959 28.828L704 28a240 240 0 0 0-240-240" enable-background="new" opacity=".2"/><path fill="#fff" d="M475.14-79.919c54.321 1.927 86.457 36.371 90 86.591 3.994 56.611-13.75 71.351-6.136 82.727 15.899 23.755-6.645 29.984-21.591 41.591-9.297 7.22-27.235 3.91-36.136-6.364-27.05-14.668-16.636 13.514-72.5 13.636-29.041-1.115-55.661-20.777-63.182-47.273-11.534-40.634 5.394-70.62 52.5-84.773 13.625-4.093 40.613-1.622 52.5-9.772 11.227-7.698 7.195-18.785-6.591-20.227-19.772-2.069-50.62 6.349-68.864 2.954-14.645-2.725-19.102-28.948-9.546-40.227 15.64-18.458 55.746-17.653 78.41-18.636 3.816-.165 7.514-.356 11.135-.227zm-7.273 121.36c-12.582 0-22.955 8.81-22.955 19.773s10.373 20 22.955 20 22.5-9.038 22.5-20-9.918-19.773-22.5-19.773" color="#000" enable-background="accumulate"/></g></svg>