<svg xmlns="http://www.w3.org/2000/svg" width="512" height="512" enable-background="new" version="1.0"><defs><filter id="a" width="1.046" height="1.051" x="-.023" y="-.025" color-interpolation-filters="sRGB"><feGaussianBlur stdDeviation="4.56"/></filter><filter id="d" width="1.088" height="1.189" x="-.044" y="-.094" color-interpolation-filters="sRGB"><feGaussianBlur stdDeviation="8.8"/></filter><clipPath id="b"><path fill="#6573c3" d="M464 48c-115.23 0-208 92.768-208 208v64.301q3.961-.3 8-.3h40v-64c0-88.64 71.36-160 160-160s160 71.36 160 160v64h48v-64c0-115.23-92.768-208-208-208z"/></clipPath></defs><g color="#000"><path fill="#feea3a" d="m435-16.25-8 24-43.75 132.5L279 140v16l110 .25h5.75l1.75-5.5L434.25 37l61 205.25 7 23 8.25-22.5 32.25-86.5L667 156v-16l-129.75.25h-5.5l-2 5-25.75 69.5L442.25 8z" enable-background="new" style="text-decoration-line:none;text-indent:0;text-transform:none" transform="translate(-207 228)"/><path fill="#fec006" d="m435 264.25-8-24-43.75-132.5L279 108V92l110-.25h5.75l1.75 5.5L434.25 211l61-205.25 7-23 8.25 22.5 32.25 86.5L667 92v16l-129.75-.25h-5.5l-2-5L504 33.25 442.25 240z" enable-background="new" style="text-decoration-line:none;text-indent:0;text-transform:none" transform="translate(-207 228)"/></g><path stroke="#000" stroke-linejoin="round" stroke-width="8" d="M464-192c-115.23 0-208 92.768-208 208v33.648A112 112 0 0 0 224 128a112 112 0 0 0 112 112h16c8.864 0 16-7.136 16-16V32c0-8.864-7.136-16-16-16h-16a112 112 0 0 0-32 4.723V16c0-88.64 71.36-160 160-160S624-72.64 624 16v4.76A112 112 0 0 0 592 16h-16c-8.864 0-16 7.136-16 16v192c0 8.864 7.136 16 16 16h16a112 112 0 0 0 112-112 112 112 0 0 0-32-78.23V16c0-115.23-92.768-208-208-208z" filter="url(#a)" opacity=".1" transform="matrix(-1 0 0 1 720 228)"/><path d="M464-192c-115.23 0-208 92.768-208 208v33.648A112 112 0 0 0 224 128a112 112 0 0 0 112 112h16c8.864 0 16-7.136 16-16V32c0-8.864-7.136-16-16-16h-16a112 112 0 0 0-32 4.723V16c0-88.64 71.36-160 160-160S624-72.64 624 16v4.76A112 112 0 0 0 592 16h-16c-8.864 0-16 7.136-16 16v192c0 8.864 7.136 16 16 16h16a112 112 0 0 0 112-112 112 112 0 0 0-32-78.23V16c0-115.23-92.768-208-208-208" filter="url(#a)" opacity=".2" transform="translate(-208 228)"/><path fill="#3e50b4" d="M256 32C140.77 32 48 124.768 48 240v64.301q3.961-.3 8-.3h40v-64c0-88.64 71.36-160 160-160s160 71.36 160 160v64h48v-64c0-115.23-92.768-208-208-208z"/><path d="M336 256a112 112 0 0 0-112 112 112 112 0 0 0 112 112h16c8.864 0 16-7.136 16-16V272c0-8.864-7.136-16-16-16zm240 0c-8.864 0-16 7.136-16 16v192c0 8.864 7.136 16 16 16h16a112 112 0 0 0 112-112 112 112 0 0 0-112-112z" clip-path="url(#b)" filter="url(#d)" opacity=".2" transform="translate(-208 -16)"/><path fill="#3e50b4" d="M128 240A112 112 0 0 0 16 352a112 112 0 0 0 112 112h16c8.864 0 16-7.136 16-16V256c0-8.864-7.136-16-16-16zm240 0c-8.864 0-16 7.136-16 16v192c0 8.864 7.136 16 16 16h16a112 112 0 0 0 112-112 112 112 0 0 0-112-112z"/><path fill="#fff" d="M128 240A112 112 0 0 0 16 352l.041.83A112 112 0 0 1 128.001 242h16c8.864 0 16 7.136 16 16v-2c0-8.864-7.136-16-16-16zm240 0c-8.864 0-16 7.136-16 16v2c0-8.864 7.136-16 16-16h16a112 112 0 0 1 111.96 111.17 112 112 0 0 0 .041-1.17 112 112 0 0 0-112-112z" opacity=".2"/><path fill="#fff" d="M256 32C140.77 32 48 124.768 48 240v2c0-115.23 92.768-208 208-208s208 92.768 208 208v-2c0-115.23-92.768-208-208-208" opacity=".2"/></svg>