<svg width="512" height="512" enable-background="new" version="1.0" xmlns="http://www.w3.org/2000/svg" xmlns:xlink="http://www.w3.org/1999/xlink">
 <defs>
  <filter id="a" x="-.0228" y="-.025333" width="1.0456" height="1.0507" color-interpolation-filters="sRGB">
   <feGaussianBlur stdDeviation="4.56"/>
  </filter>
  <filter id="b" x="-.044" y="-.094286" width="1.088" height="1.1886" color-interpolation-filters="sRGB">
   <feGaussianBlur stdDeviation="8.8"/>
  </filter>
  <clipPath id="c">
   <path d="m464 48c-115.23 0-208 92.768-208 208v64.301c2.6395-0.19895 5.3079-0.30078 8-0.30078h40v-64c0-88.64 71.36-160 160-160s160 71.36 160 160v64h48v-64c0-115.23-92.768-208-208-208z" fill="#6573c3"/>
  </clipPath>
 </defs>
 <g transform="translate(0,212)">
  <g>
   <g transform="translate(-208,16)">
    <g transform="translate(1)">
     <path d="m435-16.25-8 24-43.75 132.5-104.25-0.25v16l110 0.2496h5.75l1.75-5.5 37.75-113.75 61 205.25 7 23 8.25-22.5 32.25-86.5 124.25-0.2496v-16l-129.75 0.2496h-5.5l-2 5-25.75 69.5-61.75-206.75z" color="#000000" enable-background="new" fill="#feea3a" style="text-decoration-line:none;text-indent:0;text-transform:none"/>
     <path d="m435 264.25-8-24-43.75-132.5-104.25 0.25v-16l110-0.2496h5.75l1.75 5.5 37.75 113.75 61-205.25 7-23 8.25 22.5 32.25 86.5 124.25 0.2496v16l-129.75-0.2496h-5.5l-2-5-25.75-69.5-61.75 206.75z" color="#000000" enable-background="new" fill="#fec006" style="text-decoration-line:none;text-indent:0;text-transform:none"/>
    </g>
    <path transform="matrix(-1 0 0 1 928 0)" d="m464-192c-115.23 0-208 92.768-208 208v33.648a112 112 0 0 0-32 78.352 112 112 0 0 0 112 112h16c8.864 0 16-7.136 16-16v-192c0-8.864-7.136-16-16-16h-16a112 112 0 0 0-32 4.7227v-4.7227c0-88.64 71.36-160 160-160s160 71.36 160 160v4.7598a112 112 0 0 0-32-4.7598h-16c-8.864 0-16 7.136-16 16v192c0 8.864 7.136 16 16 16h16a112 112 0 0 0 112-112 112 112 0 0 0-32-78.23v-33.77c0-115.23-92.768-208-208-208z" filter="url(#a)" opacity=".1" stroke="#000" stroke-linejoin="round" stroke-width="8"/>
    <path d="m464-192c-115.23 0-208 92.768-208 208v33.648a112 112 0 0 0-32 78.352 112 112 0 0 0 112 112h16c8.864 0 16-7.136 16-16v-192c0-8.864-7.136-16-16-16h-16a112 112 0 0 0-32 4.7227v-4.7227c0-88.64 71.36-160 160-160s160 71.36 160 160v4.7598a112 112 0 0 0-32-4.7598h-16c-8.864 0-16 7.136-16 16v192c0 8.864 7.136 16 16 16h16a112 112 0 0 0 112-112 112 112 0 0 0-32-78.23v-33.77c0-115.23-92.768-208-208-208z" filter="url(#a)" opacity=".2"/>
    <path transform="translate(0,-244)" d="m464 48c-115.23 0-208 92.768-208 208v64.301c2.6395-0.19895 5.3079-0.30078 8-0.30078h40v-64c0-88.64 71.36-160 160-160s160 71.36 160 160v64h48v-64c0-115.23-92.768-208-208-208z" fill="#3e50b4"/>
    <path transform="translate(0,-244)" d="m336 256a112 112 0 0 0-112 112 112 112 0 0 0 112 112h16c8.864 0 16-7.136 16-16v-192c0-8.864-7.136-16-16-16zm240 0c-8.864 0-16 7.136-16 16v192c0 8.864 7.136 16 16 16h16a112 112 0 0 0 112-112 112 112 0 0 0-112-112z" clip-path="url(#c)" filter="url(#b)" opacity=".2"/>
    <path transform="translate(0,-244)" d="m336 256a112 112 0 0 0-112 112 112 112 0 0 0 112 112h16c8.864 0 16-7.136 16-16v-192c0-8.864-7.136-16-16-16zm240 0c-8.864 0-16 7.136-16 16v192c0 8.864 7.136 16 16 16h16a112 112 0 0 0 112-112 112 112 0 0 0-112-112z" fill="#3e50b4"/>
    <path transform="translate(0,-244)" d="m336 256a112 112 0 0 0-112 112 112 112 0 0 0 0.041 0.83008 112 112 0 0 1 111.96-110.83h16c8.864 0 16 7.136 16 16v-2c0-8.864-7.136-16-16-16zm240 0c-8.864 0-16 7.136-16 16v2c0-8.864 7.136-16 16-16h16a112 112 0 0 1 111.96 111.17 112 112 0 0 0 0.04102-1.1699 112 112 0 0 0-112-112z" fill="#fff" opacity=".2"/>
    <path transform="translate(0,-244)" d="m464 48c-115.23 0-208 92.768-208 208v2c0-115.23 92.768-208 208-208s208 92.768 208 208v-2c0-115.23-92.768-208-208-208z" fill="#fff" opacity=".2"/>
   </g>
  </g>
 </g>
</svg>
