<svg width="512" height="512" enable-background="new" version="1.0" xmlns="http://www.w3.org/2000/svg" xmlns:osb="http://www.openswatchbook.org/uri/2009/osb" xmlns:xlink="http://www.w3.org/1999/xlink">
 <defs>
  <filter id="b" x="-.024" y="-.024" width="1.048" height="1.048" color-interpolation-filters="sRGB">
   <feGaussianBlur stdDeviation="4.8"/>
  </filter>
  <filter id="a" x="-.024" y="-.024" width="1.048" height="1.048" color-interpolation-filters="sRGB">
   <feGaussianBlur stdDeviation="4.8"/>
  </filter>
 </defs>
 <g transform="translate(0,212)">
  <g>
   <g transform="translate(-208,16)">
    <g>
     <circle cx="464" cy="32" r="240" filter="url(#b)" opacity=".2"/>
     <circle cx="464" cy="30" r="240" opacity=".2"/>
     <circle cx="464" cy="32" r="240" filter="url(#a)" opacity=".1" stroke="#000" stroke-width="8"/>
    </g>
    <circle cx="464" cy="28" r="240" fill="#e91e63"/>
    <path transform="translate(0,-244)" d="m 464,32 a 240,240 0 0 0 -240,240 240,240 0 0 0 0.041,1.17188 A 240,240 0 0 1 464,34 240,240 0 0 1 703.95898,272.82812 240,240 0 0 0 704,272 240,240 0 0 0 464,32 Z" fill="#fff" opacity=".2"/>
    <g transform="matrix(3.218 0 0 3.218 -198.64 -940.87)" enable-background="new" fill="#fff">
     <path d="m199.99 286.44 16.56 16.561c2.394 2.393 6.273 2.391 8.667-2e-3 2.395-2.396 2.397-6.275 3e-3 -8.668l-16.561-16.562c-11.85-11.851-31.001-12.044-43.104-0.6-0.111 0.094-0.222 0.191-0.326 0.295-0.051 0.052-0.099 0.105-0.148 0.158-0.052 0.05-0.107 0.097-0.157 0.146-0.106 0.106-0.2 0.215-0.294 0.325-11.445 12.105-11.25 31.254 0.6 43.105l16.561 16.559c2.394 2.394 6.272 2.394 8.666 0 2.394-2.396 2.396-6.275 2e-3 -8.667l-16.56-16.562c-7.225-7.225-7.275-18.949-0.149-26.24 7.289-7.123 19.014-7.074 26.24 0.152z"/>
     <path d="m221.37 264.39c-2.394 2.394-2.392 6.274 2e-3 8.667l16.56 16.56c7.226 7.228 7.271 18.951 0.147 26.242-7.29 7.122-19.013 7.075-26.239-0.15l-16.559-16.561c-2.394-2.393-6.277-2.393-8.671 0-2.394 2.396-2.394 6.279 0 8.672l16.56 16.56c11.851 11.851 31.002 12.044 43.102 0.6 0.111-0.095 0.222-0.188 0.327-0.295 0.051-0.053 0.097-0.104 0.149-0.155 0.051-0.052 0.107-0.1 0.159-0.15 0.104-0.106 0.196-0.216 0.291-0.327 11.447-12.1 11.253-31.251-0.598-43.102l-16.558-16.56c-2.394-2.395-6.279-2.395-8.672-1e-3z"/>
    </g>
   </g>
  </g>
 </g>
</svg>
