<svg xmlns="http://www.w3.org/2000/svg" width="512" height="512" enable-background="new" version="1.0"><defs><filter id="a" width="1.048" height="1.048" x="-.024" y="-.024" color-interpolation-filters="sRGB"><feGaussianBlur stdDeviation="4.8"/></filter><filter id="c" width="1.048" height="1.048" x="-.024" y="-.024" color-interpolation-filters="sRGB"><feGaussianBlur stdDeviation="4.8"/></filter></defs><g transform="translate(-208 228)"><circle cx="464" cy="32" r="240" filter="url(#a)" opacity=".2"/><circle cx="464" cy="30" r="240" opacity=".2"/><circle cx="464" cy="32" r="240" stroke="#000" stroke-width="8" filter="url(#c)" opacity=".1"/><circle cx="464" cy="28" r="240" fill="#e91e63"/><path fill="#fff" d="M464-212A240 240 0 0 0 224 28l.041 1.172A240 240 0 0 1 464-210 240 240 0 0 1 703.959 28.828L704 28a240 240 0 0 0-240-240" opacity=".2"/><g fill="#fff"><path d="m444.928-19.106 53.29 53.293c7.704 7.7 20.186 7.694 27.89-.006 7.707-7.71 7.714-20.193.01-27.894l-53.293-53.296c-38.134-38.137-99.762-38.758-138.709-1.931-.357.302-.714.614-1.05.95-.163.166-.318.337-.475.508-.168.16-.345.312-.506.47-.34.34-.643.691-.946 1.045C294.31-7.013 294.937 54.61 333.07 92.745l53.293 53.287c7.704 7.704 20.184 7.704 27.888 0 7.704-7.71 7.71-20.193.006-27.89l-53.29-53.297c-23.25-23.25-23.411-60.978-.48-84.44 23.457-22.922 61.188-22.764 84.44.489"/><path d="M513.729-90.063c-7.704 7.704-7.698 20.19.006 27.89l53.29 53.29c23.253 23.26 23.398 60.985.473 84.447-23.459 22.919-61.184 22.768-84.437-.482l-53.287-53.294c-7.704-7.7-20.2-7.7-27.903 0-7.704 7.71-7.704 20.206 0 27.907l53.29 53.29c38.137 38.136 99.764 38.757 138.702 1.93.357-.305.715-.604 1.053-.949.164-.17.312-.334.48-.498.163-.168.343-.322.51-.483.335-.341.631-.695.937-1.052C633.68 62.995 633.055 1.367 594.92-36.77l-53.284-53.29c-7.704-7.707-20.206-7.707-27.906-.003"/></g></g></svg>