<svg xmlns="http://www.w3.org/2000/svg" width="512" height="512" enable-background="new" version="1.0"><defs><filter id="a" width="1.048" height="1.048" x="-.024" y="-.024" color-interpolation-filters="sRGB"><feGaussianBlur stdDeviation="4.48"/></filter><filter id="b" color-interpolation-filters="sRGB"><feColorMatrix result="result7" values="1 0 0 0 0 0 1 0 0 0 0 0 1 0 0 0 0 0 1 0"/><feGaussianBlur result="result6" stdDeviation="5"/><feComposite in="result6" in2="result7" operator="atop" result="result91"/><feComposite in2="result91" operator="in"/></filter></defs><g transform="matrix(0 -1 -1 0 -208 228)"><rect width="448" height="448" x="-256" y="-688" filter="url(#a)" opacity=".2" rx="36" ry="36"/><rect width="448" height="448" x="-254" y="-688" opacity=".2" rx="36" ry="36"/><rect width="448" height="448" x="-256" y="-688" stroke="#000" stroke-width="8" filter="url(#a)" opacity=".1" rx="36" ry="36"/></g><rect width="448" height="448" x="-480" y="-480" fill="#f2f2f2" rx="36" ry="36" transform="scale(1 -1)rotate(90)"/><path fill="#fff" d="M68 32c-19.944 0-36 16.056-36 36v2c0-19.944 16.056-36 36-36h376c19.944 0 36 16.056 36 36v-2c0-19.944-16.056-36-36-36z" opacity=".2"/><g transform="translate(-10533 -1997.1)scale(8.4528)"><g stroke-width=".642" transform="translate(1226.5 215.92)scale(5.8901)"><path fill="#1793e6" d="M8.475 6.407a1.426 1.426 0 1 0 0 2.852 1.426 1.426 0 0 0 0-2.852m.006.626a.805.805 0 0 1 .805.805.805.805 0 0 1-.805.805.805.805 0 0 1-.805-.805.805.805 0 0 1 .805-.805"/><path fill="#1793e6" d="M10.088 7.937c-.374 0-.708.148-.962.382l.408.472a1 1 0 0 1 .108-.09.7.7 0 0 1 .356-.127q.066-.005.14 0a.75.75 0 0 1 .663.433.8.8 0 0 1 .085.402v.002a.313.313 0 0 0 .625 0V9.36l-.004-.073-.001-.01-.001-.025h-.001a1.42 1.42 0 0 0-1.417-1.315m-3.254-.004a1.426 1.426 0 1 0 0 2.852 1.426 1.426 0 0 0 0-2.852m.006.626a.805.805 0 0 1 .804.805.805.805 0 0 1-.804.805.805.805 0 0 1-.805-.805.805.805 0 0 1 .805-.805"/><path fill="#f44" d="M6.973 7.471c-.365 0-.744.04-1.094.094a2.84 2.84 0 0 1 1.719 2.594c0 .16-.036.316-.063.469a3.84 3.84 0 0 1 2.938 2.063c.791 1.577.522 3.357-.719 4.594.962-.959 2.934-2.702 4.156-3.844-.512-3.375-3.409-5.969-6.938-5.969z" filter="url(#b)" transform="translate(5.407 6.407)scale(.20374)"/><path fill="#1793e6" d="m7.452 10.463-.652.026 2.295-2.13.41.46-1.78 1.653z"/><circle cx="11.213" cy="10.239" r=".306" fill="#1793e6"/></g><rect width="10" height="3" x="1266.3" y="290.04" fill="#f44" fill-rule="evenodd" rx="0" ry="0" style="paint-order:stroke fill markers"/><rect width="10" height="3" x="1276.3" y="290.04" fill="#1793e6" fill-rule="evenodd" rx="0" ry="0" style="paint-order:stroke fill markers"/></g></svg>