<svg xmlns="http://www.w3.org/2000/svg" width="512" height="512" enable-background="new" version="1.0"><defs><filter id="e" width="1.12" height="1.12" x="-.06" y="-.06" color-interpolation-filters="sRGB"><feGaussianBlur stdDeviation="3.2"/></filter><filter id="a" width="1.048" height="1.048" x="-.024" y="-.024" color-interpolation-filters="sRGB"><feGaussianBlur stdDeviation="3.2"/></filter><filter id="c" width="1.056" height="1.042" x="-.028" y="-.021" color-interpolation-filters="sRGB"><feGaussianBlur stdDeviation="3.52"/></filter><linearGradient id="d" x1="263.55" x2="584.45" y1="8" y2="8" gradientUnits="userSpaceOnUse"><stop offset="0"/></linearGradient></defs><g transform="translate(-208 228)"><circle cx="464" cy="96" r="160" stroke="#000" stroke-linejoin="round" stroke-width="8" enable-background="new" filter="url(#a)" opacity=".1"/><circle cx="464" cy="96" r="160" enable-background="new" filter="url(#a)" opacity=".2"/><circle cx="464" cy="92" r="160" fill="#ebebeb" enable-background="new"/><path d="M352-192c-18.651 1.67-80 7.633-80 80 0 0 0-32 80-32V96a112 112 0 0 0 112 112A112 112 0 0 0 576 96 112 112 0 0 0 464-16a112 112 0 0 0-64 20.248v-196.25z" enable-background="new" filter="url(#c)" opacity=".2"/><path fill="#fff" d="M464-68A160 160 0 0 0 304 92a160 160 0 0 0 .041 1.172 160 160 0 0 1 159.96-159.17 160 160 0 0 1 159.96 158.83l.041-.828a160 160 0 0 0-160-160z" enable-background="new" opacity=".6"/><path stroke="url(#d)" stroke-linejoin="round" stroke-width="8" d="M352-192c-18.651 1.67-80 7.633-80 80 0 0 0-32 80-32V96a112 112 0 0 0 112 112A112 112 0 0 0 576 96 112 112 0 0 0 464-16a112 112 0 0 0-64 20.248v-196.25z" enable-background="new" filter="url(#c)" opacity=".1"/><path fill="#3e50b4" d="M352-196c-18.651 1.67-80 7.633-80 80 0 0 0-32 80-32V92a112 112 0 0 0 112 112A112 112 0 0 0 576 92 112 112 0 0 0 464-20 112 112 0 0 0 400 .248v-196.25z" enable-background="new"/><circle cx="464" cy="96" r="64" filter="url(#e)" opacity=".2"/><circle cx="464" cy="92" r="64" fill="#fff"/><path fill="#fff" d="M352-196c-18.651 1.67-80 7.633-80 80 0 0 .007-.178.033-.459 1.38-70.035 61.53-75.889 79.967-77.541h48v-2zM464-20A112 112 0 0 0 400 .248v2A112 112 0 0 1 464-18 112 112 0 0 1 575.96 93.17a112 112 0 0 0 .041-1.17 112 112 0 0 0-112-112z" enable-background="new" opacity=".1"/></g></svg>