<svg width="512" height="512" enable-background="new" version="1.0" xmlns="http://www.w3.org/2000/svg" xmlns:osb="http://www.openswatchbook.org/uri/2009/osb" xmlns:xlink="http://www.w3.org/1999/xlink">
 <defs>
  <filter id="d" x="-.06" y="-.06" width="1.12" height="1.12" color-interpolation-filters="sRGB">
   <feGaussianBlur stdDeviation="3.2"/>
  </filter>
  <filter id="b" x="-.024" y="-.024" width="1.048" height="1.048" color-interpolation-filters="sRGB">
   <feGaussianBlur stdDeviation="3.2"/>
  </filter>
  <filter id="a" x="-.027789" y="-.02112" width="1.0556" height="1.0422" color-interpolation-filters="sRGB">
   <feGaussianBlur stdDeviation="3.52"/>
  </filter>
  <linearGradient id="c" x1="263.55" x2="584.45" y1="8" y2="8" gradientUnits="userSpaceOnUse">
   <stop offset="0"/>
  </linearGradient>
 </defs>
 <g transform="translate(0,212)">
  <g>
   <g transform="translate(-208,16)">
    <circle cx="464" cy="96" r="160" enable-background="new" filter="url(#b)" opacity=".1" stroke="#000" stroke-linejoin="round" stroke-width="8"/>
    <circle cx="464" cy="96" r="160" enable-background="new" filter="url(#b)" opacity=".2"/>
    <circle cx="464" cy="92" r="160" enable-background="new" fill="#ebebeb"/>
    <path d="m352-192c-18.651 1.6709-80 7.6333-80 80 0 0 0-32 80-32v240a112 112 0 0 0 112 112 112 112 0 0 0 112-112 112 112 0 0 0-112-112 112 112 0 0 0-64 20.248v-196.25z" enable-background="new" filter="url(#a)" opacity=".2"/>
    <path transform="translate(0,-244)" d="m464 176a160 160 0 0 0-160 160 160 160 0 0 0 0.041 1.1719 160 160 0 0 1 159.96-159.17 160 160 0 0 1 159.96 158.83 160 160 0 0 0 0.04102-0.82812 160 160 0 0 0-160-160z" enable-background="new" fill="#fff" opacity=".6"/>
    <path d="m352-192c-18.651 1.6709-80 7.6333-80 80 0 0 0-32 80-32v240a112 112 0 0 0 112 112 112 112 0 0 0 112-112 112 112 0 0 0-112-112 112 112 0 0 0-64 20.248v-196.25z" enable-background="new" filter="url(#a)" opacity=".1" stroke="url(#c)" stroke-linejoin="round" stroke-width="8"/>
    <path transform="translate(0,-244)" d="m352 48c-18.651 1.6709-80 7.6333-80 80 0 0 0-32 80-32v240a112 112 0 0 0 112 112 112 112 0 0 0 112-112 112 112 0 0 0-112-112 112 112 0 0 0-64 20.248v-196.25z" enable-background="new" fill="#3e50b4"/>
    <circle cx="464" cy="96" r="64" filter="url(#d)" opacity=".2"/>
    <circle cx="464" cy="92" r="64" fill="#fff"/>
    <path transform="translate(0,-244)" d="m352 48c-18.651 1.6709-80 7.6333-80 80 0 0 7e-3 -0.17821 0.0332-0.45898 1.3801-70.035 61.53-75.889 79.967-77.541h48v-2zm112 176a112 112 0 0 0-64 20.248v2a112 112 0 0 1 64-20.248 112 112 0 0 1 111.96 111.17 112 112 0 0 0 0.04102-1.1699 112 112 0 0 0-112-112z" enable-background="new" fill="#fff" opacity=".1"/>
   </g>
  </g>
 </g>
</svg>
