<svg xmlns="http://www.w3.org/2000/svg" width="512" height="512" enable-background="new" version="1.0"><defs><linearGradient id="b" x1="168" x2="168" y1="264" y2="244" gradientTransform="translate(-1456 -2940)scale(11.429)" gradientUnits="userSpaceOnUse"><stop offset="0" stop-color="#3b9de8"/><stop offset="1" stop-color="#52c1ea"/></linearGradient><filter id="a" width="1.047" height="1.049" x="-.024" y="-.024" color-interpolation-filters="sRGB"><feGaussianBlur stdDeviation="4.743"/></filter></defs><g color="#000"><path d="m464-204.57-22.857 22.857-22.857-11.429L399-164.213c-52.645 10.834-89.843 36.276-120.67 76.496C224.411-17.37 224 104.003 224 172.573s125.71 91.429 240 91.429 240-22.857 240-91.429c0-68.571-.411-189.94-54.33-260.29-30.827-40.219-68.025-65.662-120.67-76.496l-19.286-28.929-22.857 11.429z" enable-background="accumulate" filter="url(#a)" opacity=".1" style="isolation:auto;mix-blend-mode:normal;text-decoration-color:#000;text-decoration-line:none;text-decoration-style:solid;text-indent:0;text-transform:none;white-space:normal" transform="translate(-208 228)"/><path d="m464-204.57-22.857 22.857-22.857-11.429L399-164.213c-52.645 10.834-89.843 36.276-120.67 76.496C224.411-17.37 224 104.003 224 172.573s125.71 91.429 240 91.429 240-22.857 240-91.429c0-68.571-.411-189.94-54.33-260.29-30.827-40.219-68.025-65.662-120.67-76.496l-19.286-28.929-22.857 11.429z" enable-background="accumulate" filter="url(#a)" opacity=".2" style="isolation:auto;mix-blend-mode:normal;text-decoration-color:#000;text-decoration-line:none;text-decoration-style:solid;text-indent:0;text-transform:none;white-space:normal" transform="translate(-208 228)"/><path d="m464-206.57-22.857 22.857-22.857-11.429L399-166.213c-52.645 10.834-89.843 36.276-120.67 76.496C224.411-19.37 224 102.003 224 170.573s125.71 91.429 240 91.429 240-22.857 240-91.429c0-68.571-.411-189.94-54.33-260.29-30.827-40.219-68.025-65.662-120.67-76.496l-19.286-28.929-22.857 11.429z" enable-background="accumulate" opacity=".2" style="isolation:auto;mix-blend-mode:normal;text-decoration-color:#000;text-decoration-line:none;text-decoration-style:solid;text-indent:0;text-transform:none;white-space:normal" transform="translate(-208 228)"/><path fill="url(#b)" d="m464-208.57-22.857 22.857-22.857-11.429L399-168.213c-52.645 10.834-89.843 36.276-120.67 76.496C224.411-21.37 224 100.003 224 168.573s125.71 91.429 240 91.429 240-22.857 240-91.429c0-68.571-.411-189.94-54.33-260.29-30.827-40.219-68.025-65.662-120.67-76.496l-19.286-28.929-22.857 11.429z" enable-background="accumulate" style="isolation:auto;mix-blend-mode:normal;text-decoration-color:#000;text-decoration-line:none;text-decoration-style:solid;text-indent:0;text-transform:none;white-space:normal" transform="translate(-208 228)"/></g><path fill="#95551c" d="M202.03 388.22a62.42 62.42 0 0 0 53.968 31.21 62.42 62.42 0 0 0 53.968-31.21h-53.968z"/><path fill="#fbba1e" d="M464 77.012v93.61l-62.42-10.403c-9.265-.004-12.7-19.379-6.151-25.933l61.216-54.247a10.4 10.4 0 0 1 7.356-3.028z" color="#000" enable-background="accumulate" style="isolation:auto;mix-blend-mode:normal;text-decoration-color:#000;text-decoration-line:none;text-decoration-style:solid;text-indent:0;text-transform:none;white-space:normal" transform="translate(-208 228)"/><path fill="#ea8616" d="M464 77.012v93.61l62.42-10.403c9.266-.004 12.7-19.379 6.151-25.933l-61.216-54.247a10.4 10.4 0 0 0-7.356-3.028z" color="#000" enable-background="accumulate" style="isolation:auto;mix-blend-mode:normal;text-decoration-color:#000;text-decoration-line:none;text-decoration-style:solid;text-indent:0;text-transform:none;white-space:normal" transform="translate(-208 228)"/><g fill-rule="evenodd" color="#000" transform="translate(-208 228)"><path fill="#fff" d="M573.04-3.7a46.643 41.358 64.588 0 0-36.996 34.449 46.643 41.358 64.588 0 0-.463 8.393 46.643 41.358 64.588 0 1 .463-6.393A46.643 41.358 64.588 0 1 584.48-.306a46.643 41.358 64.588 0 1 35.768 47.168A46.643 41.358 64.588 0 0 584.48-2.306 46.643 41.358 64.588 0 0 573.041-3.7z" enable-background="accumulate" opacity=".2"/><ellipse cx="582" cy="-108.24" enable-background="accumulate" opacity=".7" rx="43.355" ry="44.793" transform="matrix(.96572 .25959 -.14658 .9892 0 0)"/><path fill="#fff" d="M357.31-4.2a41.358 46.643 25.412 0 0-11.439 1.395 41.358 46.643 25.412 0 0-35.768 49.168A41.358 46.643 25.412 0 1 345.871-.805a41.358 46.643 25.412 0 1 48.436 33.055 41.358 46.643 25.412 0 1 .463 6.392 41.358 46.643 25.412 0 0-.463-8.392A41.358 46.643 25.412 0 0 357.311-4.2z" enable-background="accumulate" opacity=".2"/><ellipse cx="353.51" cy="-451.93" fill="#fff" enable-background="accumulate" opacity=".764" rx="10.79" ry="16.882" transform="matrix(.57348 .81922 -.80655 .59116 0 0)"/><ellipse cx="-344.54" cy="134.4" enable-background="accumulate" opacity=".7" rx="43.355" ry="44.793" transform="matrix(-.96572 .25959 .14658 .9892 0 0)"/><ellipse cx="225.78" cy="-270.49" fill="#fff" enable-background="accumulate" opacity=".764" rx="10.729" ry="16.786" transform="matrix(.57348 .81922 -.80655 .59116 0 0)"/></g><g color="#000"><path fill="#fff" d="m464 35.428-22.857 22.857-22.857-11.428-19.285 28.928c-52.645 10.834-89.843 36.277-120.67 76.496-53.919 70.347-54.33 191.72-54.33 260.29l.002.086c.011-68.884.888-188.66 54.328-258.38 30.827-40.22 68.025-65.662 120.67-76.496l19.285-28.928 22.857 11.428L464 37.424l22.857 22.857 22.857-11.428 19.285 28.928c52.645 10.834 89.843 36.277 120.67 76.496 53.439 69.72 54.317 189.49 54.328 258.38l.002-.086c0-68.571-.411-189.94-54.33-260.29-30.827-40.219-68.025-65.662-120.67-76.496l-19.285-28.928-22.857 11.428z" enable-background="accumulate" opacity=".2" style="isolation:auto;mix-blend-mode:normal;text-decoration-color:#000;text-decoration-line:none;text-decoration-style:solid;text-indent:0;text-transform:none;white-space:normal" transform="translate(-208 -16)"/><path fill="#fff" d="M464 321.01q-.517 0-1.027.05c-.226.023-.448.062-.67.098-.1.017-.203.026-.303.045a10.34 10.34 0 0 0-5.355 2.834l-61.217 54.246c-2.501 2.503-3.537 6.874-3.358 11.322.166-3.723 1.234-7.197 3.358-9.322l61.217-54.246a10.34 10.34 0 0 1 5.355-2.834v91.082l2 .334V323.01a10.4 10.4 0 0 1 7.356 3.027l61.217 54.246c2.123 2.125 3.191 5.6 3.357 9.323.18-4.45-.857-8.82-3.357-11.322l-61.217-54.246A10.4 10.4 0 0 0 464 321.01z" enable-background="accumulate" opacity=".2" style="isolation:auto;mix-blend-mode:normal;text-decoration-color:#000;text-decoration-line:none;text-decoration-style:solid;text-indent:0;text-transform:none;white-space:normal" transform="translate(-208 -16)"/><path d="M464 31.429v228.57c114.29 0 240-22.857 240-91.429s-.411-189.94-54.33-260.29C646.858-105.716 464-105.716 464 31.43z" enable-background="accumulate" opacity=".1" style="isolation:auto;mix-blend-mode:normal;text-decoration-color:#000;text-decoration-line:none;text-decoration-style:solid;text-indent:0;text-transform:none;white-space:normal" transform="translate(-208 228)"/></g></svg>