<svg width="512" height="512" enable-background="new" version="1.0" xmlns="http://www.w3.org/2000/svg" xmlns:xlink="http://www.w3.org/1999/xlink">
 <defs>
  <linearGradient id="b" x1="168" x2="168" y1="264" y2="244" gradientTransform="matrix(11.429 0 0 11.429 -1456 -2940)" gradientUnits="userSpaceOnUse">
   <stop stop-color="#3b9de8" offset="0"/>
   <stop stop-color="#52c1ea" offset="1"/>
  </linearGradient>
  <filter id="a" x="-.023714" y="-.024293" width="1.0474" height="1.0486" color-interpolation-filters="sRGB">
   <feGaussianBlur stdDeviation="4.742857"/>
  </filter>
 </defs>
 <g transform="translate(0,212)">
  <g>
   <g transform="translate(-208,16)">
    <g shape-rendering="auto">
     <g>
      <path d="m464-204.57-22.857 22.857-22.857-11.429-19.286 28.929c-52.645 10.834-89.843 36.276-120.67 76.496-53.919 70.347-54.33 191.72-54.33 260.29 0 68.571 125.71 91.429 240 91.429s240-22.857 240-91.429c0-68.571-0.41143-189.94-54.33-260.29-30.827-40.219-68.025-65.662-120.67-76.496l-19.286-28.929-22.857 11.429z" color="#000000" color-rendering="auto" enable-background="accumulate" filter="url(#a)" image-rendering="auto" opacity=".1" solid-color="#000000" style="isolation:auto;mix-blend-mode:normal;text-decoration-color:#000000;text-decoration-line:none;text-decoration-style:solid;text-indent:0;text-transform:none;white-space:normal"/>
      <path d="m464-204.57-22.857 22.857-22.857-11.429-19.286 28.929c-52.645 10.834-89.843 36.276-120.67 76.496-53.919 70.347-54.33 191.72-54.33 260.29 0 68.571 125.71 91.429 240 91.429s240-22.857 240-91.429c0-68.571-0.41143-189.94-54.33-260.29-30.827-40.219-68.025-65.662-120.67-76.496l-19.286-28.929-22.857 11.429z" color="#000000" color-rendering="auto" enable-background="accumulate" filter="url(#a)" image-rendering="auto" opacity=".2" solid-color="#000000" style="isolation:auto;mix-blend-mode:normal;text-decoration-color:#000000;text-decoration-line:none;text-decoration-style:solid;text-indent:0;text-transform:none;white-space:normal"/>
      <path d="m464-206.57-22.857 22.857-22.857-11.429-19.286 28.929c-52.645 10.834-89.843 36.276-120.67 76.496-53.919 70.347-54.33 191.72-54.33 260.29 0 68.571 125.71 91.429 240 91.429s240-22.857 240-91.429c0-68.571-0.41143-189.94-54.33-260.29-30.827-40.219-68.025-65.662-120.67-76.496l-19.286-28.929-22.857 11.429z" color="#000000" color-rendering="auto" enable-background="accumulate" image-rendering="auto" opacity=".2" solid-color="#000000" style="isolation:auto;mix-blend-mode:normal;text-decoration-color:#000000;text-decoration-line:none;text-decoration-style:solid;text-indent:0;text-transform:none;white-space:normal"/>
     </g>
     <path d="m464-208.57-22.857 22.857-22.857-11.429-19.286 28.929c-52.645 10.834-89.843 36.276-120.67 76.496-53.919 70.347-54.33 191.72-54.33 260.29 0 68.571 125.71 91.429 240 91.429s240-22.857 240-91.429c0-68.571-0.41143-189.94-54.33-260.29-30.827-40.219-68.025-65.662-120.67-76.496l-19.286-28.929-22.857 11.429z" color="#000000" color-rendering="auto" enable-background="accumulate" fill="url(#b)" image-rendering="auto" solid-color="#000000" style="isolation:auto;mix-blend-mode:normal;text-decoration-color:#000000;text-decoration-line:none;text-decoration-style:solid;text-indent:0;text-transform:none;white-space:normal"/>
    </g>
    <path d="m410.03 160.22c11.134 19.285 31.699 31.178 53.968 31.21 22.268-0.0312 42.833-11.925 53.968-31.21h-53.968z" fill="#95551c"/>
    <path d="m464 77.012v93.61l-62.42-10.403c-9.2655-4e-3 -12.7-19.379-6.151-25.933l61.216-54.247c1.951-1.9518 4.6002-3.0255 7.3555-3.0276z" color="#000000" color-rendering="auto" enable-background="accumulate" fill="#fbba1e" image-rendering="auto" shape-rendering="auto" solid-color="#000000" style="isolation:auto;mix-blend-mode:normal;text-decoration-color:#000000;text-decoration-line:none;text-decoration-style:solid;text-indent:0;text-transform:none;white-space:normal"/>
    <path d="m464 77.012v93.61l62.42-10.403c9.2655-4e-3 12.7-19.379 6.151-25.933l-61.216-54.247c-1.951-1.9518-4.6002-3.0255-7.3555-3.0276z" color="#000000" color-rendering="auto" enable-background="accumulate" fill="#ea8616" image-rendering="auto" shape-rendering="auto" solid-color="#000000" style="isolation:auto;mix-blend-mode:normal;text-decoration-color:#000000;text-decoration-line:none;text-decoration-style:solid;text-indent:0;text-transform:none;white-space:normal"/>
    <g fill-rule="evenodd">
     <path transform="translate(0,-244)" d="m573.04 240.3a46.643 41.358 64.588 0 0-36.996 34.449 46.643 41.358 64.588 0 0-0.4629 8.3926 46.643 41.358 64.588 0 1 0.4629-6.3926 46.643 41.358 64.588 0 1 48.436-33.055 46.643 41.358 64.588 0 1 35.768 47.168 46.643 41.358 64.588 0 0-35.768-49.168 46.643 41.358 64.588 0 0-11.439-1.3945z" color="#000000" enable-background="accumulate" fill="#fff" opacity=".2"/>
     <ellipse transform="matrix(.96572 .25959 -.14658 .9892 0 0)" cx="582" cy="-108.24" rx="43.355" ry="44.793" color="#000000" enable-background="accumulate" opacity=".7"/>
     <path transform="translate(0,-244)" d="m357.31 239.8a41.358 46.643 25.412 0 0-11.439 1.3945 41.358 46.643 25.412 0 0-35.768 49.168 41.358 46.643 25.412 0 1 35.768-47.168 41.358 46.643 25.412 0 1 48.436 33.055 41.358 46.643 25.412 0 1 0.46289 6.3926 41.358 46.643 25.412 0 0-0.46289-8.3926 41.358 46.643 25.412 0 0-36.996-34.449z" color="#000000" enable-background="accumulate" fill="#fff" opacity=".2"/>
     <ellipse transform="matrix(.57348 .81922 -.80655 .59116 0 0)" cx="353.51" cy="-451.93" rx="10.79" ry="16.882" color="#000000" enable-background="accumulate" fill="#fff" opacity=".76382"/>
     <ellipse transform="matrix(-.96572 .25959 .14658 .9892 0 0)" cx="-344.54" cy="134.4" rx="43.355" ry="44.793" color="#000000" enable-background="accumulate" opacity=".7"/>
     <ellipse transform="matrix(.57348 .81922 -.80655 .59116 0 0)" cx="225.78" cy="-270.49" rx="10.729" ry="16.786" color="#000000" enable-background="accumulate" fill="#fff" opacity=".76382"/>
    </g>
    <g shape-rendering="auto">
     <path transform="translate(0,-244)" d="m464 35.428-22.857 22.857-22.857-11.428-19.285 28.928c-52.645 10.834-89.843 36.277-120.67 76.496-53.919 70.347-54.33 191.72-54.33 260.29 0 0.029 2e-3 0.057 2e-3 0.0859 0.0114-68.884 0.88847-188.66 54.328-258.38 30.827-40.219 68.025-65.662 120.67-76.496l19.285-28.928 22.857 11.428 22.857-22.857 22.857 22.857 22.857-11.428 19.285 28.928c52.645 10.834 89.843 36.277 120.67 76.496 53.439 69.721 54.317 189.49 54.328 258.38 4e-5 -0.0289 2e-3 -0.057 2e-3 -0.0859 0-68.571-0.41111-189.94-54.33-260.29-30.827-40.219-68.025-65.662-120.67-76.496l-19.285-28.928-22.857 11.428z" color="#000000" color-rendering="auto" enable-background="accumulate" fill="#fff" image-rendering="auto" opacity=".2" solid-color="#000000" style="isolation:auto;mix-blend-mode:normal;text-decoration-color:#000000;text-decoration-line:none;text-decoration-style:solid;text-indent:0;text-transform:none;white-space:normal"/>
     <path transform="translate(0,-244)" d="m464 321.01c-0.34468 2.6e-4 -0.68727 0.0171-1.0273 0.0508-0.22549 0.0221-0.44725 0.0612-0.66993 0.0977-0.10056 0.0165-0.20282 0.0256-0.30273 0.0449-2.0129 0.38958-3.8832 1.3611-5.3555 2.834l-61.217 54.246c-2.5006 2.5024-3.5369 6.8735-3.3574 11.322 0.16576-3.7233 1.234-7.1973 3.3574-9.3223l61.217-54.246c1.4722-1.4729 3.3425-2.4444 5.3555-2.834v91.082l2 0.33398v-91.609c2.7553 2e-3 5.4045 1.0755 7.3555 3.0273l61.217 54.246c2.1234 2.125 3.1917 5.599 3.3574 9.3223 0.17944-4.4488-0.85678-8.8198-3.3574-11.322l-61.217-54.246c-1.951-1.9518-4.6002-3.0253-7.3555-3.0273z" color="#000000" color-rendering="auto" enable-background="accumulate" fill="#fff" image-rendering="auto" opacity=".2" solid-color="#000000" style="isolation:auto;mix-blend-mode:normal;text-decoration-color:#000000;text-decoration-line:none;text-decoration-style:solid;text-indent:0;text-transform:none;white-space:normal"/>
     <path d="m464 31.429v228.57c114.29 0 240-22.857 240-91.429s-0.41143-189.94-54.33-260.29c-2.8125-13.996-185.67-13.996-185.67 123.15z" color="#000000" color-rendering="auto" enable-background="accumulate" image-rendering="auto" opacity=".1" solid-color="#000000" style="isolation:auto;mix-blend-mode:normal;text-decoration-color:#000000;text-decoration-line:none;text-decoration-style:solid;text-indent:0;text-transform:none;white-space:normal"/>
    </g>
   </g>
  </g>
 </g>
</svg>
