<svg width="512" height="512" enable-background="new" version="1.0" xmlns="http://www.w3.org/2000/svg" xmlns:osb="http://www.openswatchbook.org/uri/2009/osb" xmlns:xlink="http://www.w3.org/1999/xlink">
 <defs>
  <filter id="b" x="-.024" y="-.024" width="1.048" height="1.048" color-interpolation-filters="sRGB">
   <feGaussianBlur stdDeviation="4.8"/>
  </filter>
  <filter id="a" x="-.024" y="-.024" width="1.048" height="1.048" color-interpolation-filters="sRGB">
   <feGaussianBlur stdDeviation="4.8"/>
  </filter>
 </defs>
 <g transform="translate(0,212)">
  <g>
   <g transform="translate(-208,16)">
    <g>
     <circle cx="464" cy="32" r="240" filter="url(#b)" opacity=".2"/>
     <circle cx="464" cy="30" r="240" opacity=".2"/>
     <circle cx="464" cy="32" r="240" filter="url(#a)" opacity=".1" stroke="#000" stroke-width="8"/>
    </g>
    <circle cx="464" cy="28" r="240" fill="#ff9800"/>
    <path transform="translate(0,-244)" d="m 464,32 a 240,240 0 0 0 -240,240 240,240 0 0 0 0.041,1.17188 A 240,240 0 0 1 464,34 240,240 0 0 1 703.95898,272.82812 240,240 0 0 0 704,272 240,240 0 0 0 464,32 Z" fill="#fff" opacity=".2"/>
    <path d="m578.24-5.3539c5.0302-33.624-20.571-51.7-55.577-63.758l11.356-45.548-27.726-6.9096-11.055 44.348c-7.2887-1.8163-14.775-3.5299-22.214-5.2277l11.134-44.64-27.71-6.9097-11.363 45.533c-6.0331-1.374-11.956-2.7322-17.705-4.1615l0.032-0.1424-38.236-9.5472-7.3756 29.613s20.571 4.7144 20.137 5.0066c11.229 2.8034 13.259 10.234 12.919 16.125l-12.935 51.89c0.77387 0.19748 1.7768 0.4816 2.8823 0.92388-0.92389-0.2288-1.911-0.4816-2.9297-0.72651l-18.131 72.69c-1.3741 3.4114-4.8565 8.5285-12.706 6.5859 0.27625 0.40267-20.152-5.0302-20.152-5.0302l-13.764 31.737 36.08 8.9944c6.7122 1.682 13.29 3.443 19.766 5.1013l-11.474 46.07 27.694 6.9096 11.363-45.58c7.5651 2.0532 14.909 3.9484 22.095 5.733l-11.324 45.367 27.726 6.9097 11.474-45.983c47.278 8.947 82.829 5.3382 97.793-37.423 12.058-34.43-0.60016-54.29-25.475-67.241 18.115-4.1774 31.761-16.094 35.401-40.708zm-63.348 88.831c-8.568 34.43-66.538 15.817-85.332 11.15l15.225-61.034c18.794 4.6907 79.062 13.977 70.107 49.884zm8.5759-89.328c-7.8178 31.319-56.067 15.407-71.718 11.506l13.804-55.356c15.651 3.901 66.056 11.182 57.915 43.851z" enable-background="new" fill="#fff"/>
   </g>
  </g>
 </g>
</svg>
