<svg xmlns="http://www.w3.org/2000/svg" width="512" height="512" enable-background="new" version="1.0"><defs><filter id="a" width="1.048" height="1.048" x="-.024" y="-.024" color-interpolation-filters="sRGB"><feGaussianBlur stdDeviation="4.8"/></filter><filter id="c" width="1.048" height="1.048" x="-.024" y="-.024" color-interpolation-filters="sRGB"><feGaussianBlur stdDeviation="4.8"/></filter></defs><g transform="translate(-208 228)"><circle cx="464" cy="32" r="240" filter="url(#a)" opacity=".2"/><circle cx="464" cy="30" r="240" opacity=".2"/><circle cx="464" cy="32" r="240" stroke="#000" stroke-width="8" filter="url(#c)" opacity=".1"/><circle cx="464" cy="28" r="240" fill="#ff9800"/><path fill="#fff" d="M464-212A240 240 0 0 0 224 28l.041 1.172A240 240 0 0 1 464-210 240 240 0 0 1 703.959 28.828L704 28a240 240 0 0 0-240-240" opacity=".2"/><path fill="#fff" d="M578.24-5.354c5.03-33.624-20.571-51.7-55.577-63.758l11.356-45.548-27.726-6.91-11.055 44.348c-7.289-1.816-14.775-3.53-22.214-5.227l11.134-44.64-27.71-6.91-11.363 45.533c-6.033-1.374-11.956-2.732-17.705-4.161l.032-.143-38.236-9.547-7.376 29.613s20.571 4.714 20.137 5.007c11.23 2.803 13.26 10.234 12.92 16.125L401.92.318c.774.197 1.777.481 2.883.923-.924-.228-1.911-.481-2.93-.726l-18.131 72.69c-1.374 3.411-4.857 8.528-12.706 6.586.276.403-20.152-5.03-20.152-5.03l-13.764 31.737 36.08 8.994c6.712 1.682 13.29 3.443 19.766 5.101l-11.474 46.07 27.694 6.91 11.363-45.58a1054 1054 0 0 0 22.095 5.733l-11.324 45.367 27.726 6.91 11.474-45.983c47.278 8.947 82.829 5.338 97.793-37.423 12.058-34.43-.6-54.29-25.475-67.241 18.115-4.178 31.761-16.094 35.401-40.708zm-63.348 88.831c-8.568 34.43-66.538 15.817-85.332 11.15l15.225-61.034c18.794 4.69 79.062 13.977 70.107 49.884m8.576-89.328C515.65 25.47 467.4 9.556 451.75 5.655L465.554-49.7c15.65 3.901 66.056 11.182 57.915 43.851z" enable-background="new"/></g></svg>