<svg xmlns="http://www.w3.org/2000/svg" width="512" height="512" enable-background="new" version="1.0"><defs><filter id="a" width="1.048" height="1.048" x="-.024" y="-.024" color-interpolation-filters="sRGB"><feGaussianBlur stdDeviation="4.639"/></filter><filter id="b" width="1.048" height="1.048" x="-.024" y="-.024" color-interpolation-filters="sRGB"><feGaussianBlur stdDeviation="1.92"/></filter></defs><g transform="translate(-208 228)"><path stroke="#000" stroke-linecap="round" stroke-linejoin="round" stroke-width="8" d="M437.49-203.56c-8.18 0-16.359 3.135-22.627 9.402a31.93 31.93 0 0 0 0 45.254l88.902 88.902h-231.77c-17.728 0-32 14.272-32 32s14.272 32 32 32c33.318-.094 80.569-.103 125.82-.092l-163.97 163.97a31.93 31.93 0 0 0 0 45.254 31.93 31.93 0 0 0 45.254 0c24.068-24.205 58.544-58.694 91.238-91.369a160 160 0 0 0 158.33 138.23 160 160 0 0 0 160-160 160 160 0 0 0-54.83-120.42c-11.846-11.815-118.24-117.93-173.72-173.73-6.268-6.267-14.447-9.402-22.627-9.402z" filter="url(#a)" opacity=".1"/><path d="M437.49-211.56c-8.18 0-16.359 3.135-22.627 9.402a31.93 31.93 0 0 0 0 45.254l88.902 88.902h-231.77c-17.728 0-32 14.272-32 32s14.272 32 32 32c33.318-.094 80.569-.103 125.82-.092l-163.97 163.97a31.93 31.93 0 0 0 0 45.254 31.93 31.93 0 0 0 45.254 0c24.068-24.205 58.544-58.694 91.238-91.369a160 160 0 0 0 158.33 138.23 160 160 0 0 0 160-160 160 160 0 0 0-54.83-120.42c-11.846-11.815-118.24-117.93-173.72-173.73-6.268-6.267-14.447-9.402-22.627-9.402z" filter="url(#a)" opacity=".2"/><path fill="#f5792a" d="M437.49-211.56c-8.18 0-16.359 3.135-22.627 9.402a31.93 31.93 0 0 0 0 45.254l88.902 88.902h-231.77c-17.728 0-32 14.272-32 32s14.272 32 32 32c33.318-.094 80.569-.103 125.82-.092l-163.97 163.97a31.93 31.93 0 0 0 0 45.254 31.93 31.93 0 0 0 45.254 0c24.068-24.205 58.544-58.694 91.238-91.369a160 160 0 0 0 158.33 138.23 160 160 0 0 0 160-160 160 160 0 0 0-54.83-120.42c-11.846-11.815-118.24-117.93-173.72-173.73-6.268-6.267-14.447-9.402-22.627-9.402z"/><circle cx="528.67" cy="96" r="96" filter="url(#b)" opacity=".2"/><circle cx="528.67" cy="92" r="96" fill="#fff"/><circle cx="528.67" cy="92" r="54" fill="#0d528a"/><path fill="#fff" d="M437.49-211.559c-8.18 0-16.359 3.135-22.627 9.402a31.9 31.9 0 0 0-9.379 23.627 31.9 31.9 0 0 1 9.379-21.627c6.268-6.267 14.447-9.402 22.627-9.402s16.359 3.135 22.627 9.402c55.483 55.798 161.87 161.92 173.72 173.73a160 160 0 0 1 54.789 119.61 160 160 0 0 0 .041-1.181 160 160 0 0 0-54.83-120.42c-11.846-11.815-118.24-117.93-173.72-173.73-6.268-6.268-14.447-9.403-22.627-9.403zM272-67.999c-17.728 0-32 14.272-32 32 0 .335.015.667.025 1 .526-17.261 14.582-31 31.975-31h231.77l-2-2zM395.82-2.091l-161.97 161.97a31.9 31.9 0 0 0-9.379 23.627 31.9 31.9 0 0 1 9.379-21.627L397.82-2.091z" opacity=".2"/><path d="M405.48-180.529a31.9 31.9 0 0 0 9.379 23.627L501.76-70h2l-88.902-88.902a31.9 31.9 0 0 1-9.379-21.627M240.02-36.999c-.01.333-.025.665-.025 1 0 17.728 14.272 32 32 32 32.823-.093 79.185-.102 123.82-.092l2-2c-45.25-.011-92.501-.002-125.82.092-17.393 0-31.45-13.739-31.975-31zm448.6 128.18a160 160 0 0 1-159.96 158.82 160 160 0 0 1-158.33-138.23c-32.694 32.675-67.17 67.164-91.238 91.369a31.93 31.93 0 0 1-45.254 0 31.9 31.9 0 0 1-9.379-21.627 31.9 31.9 0 0 0 9.379 23.627 31.93 31.93 0 0 0 45.254 0c24.068-24.205 58.544-58.694 91.238-91.369a160 160 0 0 0 158.33 138.23 160 160 0 0 0 160-160l-.041-.818z" opacity=".2"/></g></svg>