<svg xmlns="http://www.w3.org/2000/svg" width="512" height="512" enable-background="new" version="1.0"><defs><filter id="a" width="1.061" height="1.039" x="-.031" y="-.02" color-interpolation-filters="sRGB"><feGaussianBlur stdDeviation="3.68"/></filter></defs><g opacity=".97" transform="translate(-208 228)"><rect width="448" height="288" x="-256" y="-608" stroke="#000" stroke-width="8" filter="url(#a)" opacity=".1" rx="160" ry="144" transform="scale(1 -1)rotate(90)"/><rect width="448" height="288" x="-256" y="-608" filter="url(#a)" opacity=".2" rx="160" ry="144" transform="scale(1 -1)rotate(90)"/><rect width="448" height="288" x="-252" y="-608" fill="#666" rx="160" ry="144" transform="scale(1 -1)rotate(90)"/><path fill="none" stroke="#fff" stroke-linecap="square" stroke-width="16" d="M392-44 536 92l-72 72v-280l72 72L392 76"/><path fill="#fff" d="M464-196c-79.776 0-144 71.36-144 160v2c0-88.64 64.224-160 144-160s144 71.36 144 160v-2c0-88.64-64.224-160-144-160" opacity=".1"/></g></svg>