<svg xmlns="http://www.w3.org/2000/svg" width="512" height="512" enable-background="new" version="1.0"><defs><filter id="a" width="1.054" height="1.043" x="-.027" y="-.021" color-interpolation-filters="sRGB"><feGaussianBlur stdDeviation="4"/></filter><filter id="e" width="1.136" height="1.029" x="-.068" y="-.015" color-interpolation-filters="sRGB"><feGaussianBlur stdDeviation="1.36"/></filter><filter id="c" width="1.096" height="1.032" x="-.048" y="-.016" color-interpolation-filters="sRGB"><feGaussianBlur stdDeviation=".4"/></filter><clipPath id="b"><path fill="#d8d8d8" d="M232 148v56h19c1.662 0 3-1.338 3-3v-50c0-1.662-1.338-3-3-3z"/></clipPath></defs><path d="M394.45 19.867q-1.207-.012-2.445.133l-136 16h-152c-13.296 0-24 10.704-24 24v400c0 13.296 10.704 24 24 24h152l136 16c10.84 1.275 20.052-6.76 23.004-17.035A23.94 23.94 0 0 0 432.005 460V60a23.94 23.94 0 0 0-16.996-22.965c-2.728-9.493-10.796-17.075-20.56-17.168z" filter="url(#a)" opacity=".2"/><path stroke="#000" stroke-width="8" d="M394.45 19.867q-1.207-.012-2.445.133l-136 16h-152c-13.296 0-24 10.704-24 24v400c0 13.296 10.704 24 24 24h152l136 16c10.84 1.275 20.052-6.76 23.004-17.035A23.94 23.94 0 0 0 432.005 460V60a23.94 23.94 0 0 0-16.996-22.965c-2.728-9.493-10.796-17.075-20.56-17.168z" filter="url(#a)" opacity=".1"/><path fill="#c83737" d="M104 32c-13.296 0-24 10.704-24 24v400c0 13.296 10.704 24 24 24h152V32z"/><path fill="#a02c2c" d="M256 32v448h152c13.296 0 24-10.704 24-24V56c0-13.296-10.704-24-24-24z"/><path d="M232 148v56l17 2c1.65.194 3-1.338 3-3v-54c0-1.662-1.35-3.194-3-3z" clip-path="url(#b)" filter="url(#c)" opacity=".2" transform="matrix(8 0 0 8 -1600 -1152)"/><path fill="#fff" d="M104 32c-13.296 0-24 10.704-24 24v2c0-13.296 10.704-24 24-24h304c13.296 0 24 10.704 24 24v-2c0-13.296-10.704-24-24-24H256z" opacity=".5"/><path fill="#d35f5f" d="M256 32v448l136 16c13.205 1.554 24-10.704 24-24V40c0-13.296-10.795-25.554-24-24z"/><path d="M208 36v216l24-16 24 16V36z" filter="url(#e)" opacity=".2"/><g fill="#fff"><path d="M208 32v216l24-16 24 16V32z" enable-background="new"/><path d="M394.45 15.87q-1.207-.012-2.445.133l-136 16v2l136-16c13.205-1.554 24 10.704 24 24v-2c0-12.465-9.488-24.018-21.555-24.133z" opacity=".8"/><path d="M216 16c-8 0-8 8-8 8v2s0-8 8-8h32s8 0 8 8v-2c0-8-8-8-8-8z" enable-background="new" opacity=".1"/></g></svg>