<svg xmlns="http://www.w3.org/2000/svg" width="512" height="512" enable-background="new" version="1.0"><defs><filter id="a" width="1.048" height="1.048" x="-.024" y="-.024" color-interpolation-filters="sRGB"><feGaussianBlur stdDeviation="4.48"/></filter><filter id="b" width="1.048" height="1.048" x="-.024" y="-.024" color-interpolation-filters="sRGB"><feGaussianBlur stdDeviation="3.52"/></filter></defs><g transform="translate(-208 228)"><rect width="448" height="448" x="-256" y="-688" stroke="#000" stroke-width="8" filter="url(#a)" opacity=".1" rx="24" ry="24" transform="scale(1 -1)rotate(90)"/><rect width="448" height="448" x="-256" y="-688" filter="url(#a)" opacity=".2" rx="24" ry="24" transform="scale(1 -1)rotate(90)"/><rect width="448" height="448" x="-252" y="-688" fill="#2196f3" rx="24" ry="24" transform="scale(1 -1)rotate(90)"/><path fill="#fff" d="M264-196c-13.296 0-24 10.704-24 24v2c0-13.296 10.704-24 24-24h400c13.296 0 24 10.704 24 24v-2c0-13.296-10.704-24-24-24z" opacity=".1"/><path d="M664 254c13.296 0 24-10.704 24-24v-2c0 13.296-10.704 24-24 24H264c-13.296 0-24-10.704-24-24v2c0 13.296 10.704 24 24 24z" opacity=".2"/><rect width="352" height="352" x="288" y="-144" filter="url(#b)" opacity=".2" rx="0" ry="11.2"/><rect width="352" height="352" x="288" y="-148" fill="#fff" rx="0" ry="11.2"/><path fill="#3f51b5" d="M352-84v224h96V92h-48V-36h48v-48zm128 0v48h48V92h-48v48h96V-84z"/></g></svg>