<svg width="512" height="512" enable-background="new" version="1.0" xmlns="http://www.w3.org/2000/svg">
 <defs>
  <filter id="a" x="-.026164" y="-.022167" width="1.0523" height="1.0443" color-interpolation-filters="sRGB">
   <feGaussianBlur stdDeviation="4.1377778"/>
  </filter>
 </defs>
 <g transform="translate(0,212)">
  <g>
   <g transform="translate(-208,16)">
    <g fill-rule="evenodd">
     <path d="m392-192-36 44-24-4-28 28 2 20-30 52c-4 8 0 12 0 12l48 184c4 24 28 40 28 40l100 68s8 4 12 4 12-4 12-4l100-68s24-16 28-40l48-184s4-4 0-12l-30-52 2-20-28-28-24 4-36-44h-72z" enable-background="new" filter="url(#a)" opacity=".1"/>
     <path d="m392-192-36 44-24-4-28 28 2 20-30 52c-4 8 0 12 0 12l48 184c4 24 28 40 28 40l100 68s8 4 12 4 12-4 12-4l100-68s24-16 28-40l48-184s4-4 0-12l-30-52 2-20-28-28-24 4-36-44h-72z" enable-background="new" filter="url(#a)" opacity=".2"/>
     <path d="m392-194-36 44-24-4-28 28 2 20-30 52c-4 8 0 12 0 12l48 184c4 24 28 40 28 40l100 68s8 4 12 4 12-4 12-4l100-68s24-16 28-40l48-184s4-4 0-12l-30-52 2-20-28-28-24 4-36-44h-72z" enable-background="new" opacity=".2"/>
    </g>
    <path d="m392-196-36 44-24-4-28 28 2 20-30 52c-4 8 0 12 0 12l48 184c4 24 28 40 28 40l100 68s8 4 12 4 12-4 12-4l100-68s24-16 28-40l48-184s4-4 0-12l-30-52 2-20-28-28-24 4-36-44h-72z" enable-background="new" fill="#ff5722" fill-rule="evenodd"/>
    <path d="m480.85 132.14c13.111-11.431 18.287-15.545 34.568-27.472 9.159-6.7102 10.603-8.4215 9.1057-10.795-1.1982-1.8996-30.747-16.779-44.873-22.597-14.859-6.1191-16.42-6.1261-30.833-0.13816-12.925 5.3695-42.005 20.091-44.445 22.501-2.5196 2.4877-1.2507 4.7688 5.0995 9.1676 13.082 9.0618 26.341 19.378 38.161 29.69 17.053 14.878 15.729 14.892 33.218-0.35632zm-68.548-56.427c17.735-8.5349 20.386-10.3 33.943-22.592 11.397-10.334 13.506-13.408 11.885-17.323-0.54922-1.3259-9.1134-9.4135-19.031-17.972-23.442-20.229-22.461-17.378-13.541-39.337 5.2971-13.04 6.68-17.403 6.6612-21.018-0.0283-5.4618-2.008-9.5601-5.9864-12.393-1.6132-1.1487-15.778-6.9969-31.477-12.996-15.699-5.999-28.454-11.305-28.344-11.79 0.25096-1.109 17.563-3.0381 30.131-3.3576l9.5068-0.24164 17.476 6.2473c15.249 5.4514 17.643 6.5704 18.787 8.7828 0.72112 1.3945 1.3013 3.2687 1.2893 4.1649-0.012 0.89618-2.8381 13.852-6.2801 28.792-6.0288 26.166-6.1987 27.223-4.6315 28.822 2.4868 2.5366 26.864 7.2256 34.474 6.6312 8.693-0.67888 26.451-4.9098 28.245-6.7294 1.4496-1.4706 1.175-3.1386-4.73-28.724-3.4479-14.939-6.2786-27.896-6.2904-28.792-0.0119-0.89618 0.57258-2.7782 1.2987-4.1823 1.1451-2.2144 3.3957-3.2963 16.976-8.1603 21.894-7.8415 21.449-7.7772 41.343-5.9683 9.2769 0.84352 17.239 1.8913 17.694 2.3283 0.48767 0.46889-0.0691 1.1414-1.3581 1.6404-1.2015 0.46515-14 5.3832-28.441 10.929-14.441 5.5458-27.773 11.086-29.627 12.312-4.3567 2.8819-6.4715 6.9983-6.5011 12.654-0.0187 3.5757 1.3548 7.9085 6.5082 20.531 3.5925 8.7997 6.5319 16.825 6.5319 17.834 0 4.0828-2.9732 7.3794-19.453 21.569-9.4686 8.1528-17.874 16.023-18.678 17.49-0.8041 1.4665-1.2635 3.7047-1.021 4.9736 0.41559 2.174 11.756 13.397 23.307 23.066 4.85 4.0597 34.232 18.889 38.939 19.653 3.9418 0.63968 8.155-1.3857 15.05-7.2349 6.7604-5.7352 10.79-11.475 13.529-19.271 2.5691-7.3126 1.9231-12.24-3.1581-24.089-3.8772-9.0413-4.9065-14.007-3.6058-17.397 0.29889-0.77893 10.79-10.944 23.314-22.59 27.281-25.367 31.655-29.912 33.151-34.444 1.6608-5.0322 0.48947-11.66-3.2386-18.327-8.9181-15.947-44.364-62.804-47.509-62.804-0.88801 0-11.114 1.832-22.725 4.0712s-22.207 4.0726-23.548 4.0743c-1.3409 2e-3 -7.045-1.4277-12.676-3.1765-24.042-7.467-31.84-9.496-36.495-9.496s-12.453 2.029-36.495 9.496c-5.6308 1.7488-11.397 3.1797-12.814 3.1797-1.4167 0-12.484-1.8764-24.594-4.1698-13.175-2.495-22.476-3.8587-23.159-3.3953-2.714 1.8433-25.734 32.007-35.705 46.784-11.725 17.377-12.905 19.612-13.859 26.228-1.3343 9.2581-0.0773 10.816 34.952 43.323 11.782 10.934 21.662 20.506 21.956 21.271 1.3143 3.4249 0.27573 8.5952-3.5446 17.646-5.2469 12.431-5.7168 15.882-3.1844 23.387 2.754 8.1617 7.4224 14.76 14.474 20.457 6.5572 5.2979 9.0932 6.6081 12.962 6.6962 1.3847 0.0316 9.1764-3.1471 17.315-7.0638z" enable-background="new" fill="#fff"/>
    <path d="m536-196 36 44 24-4 28 28-2 20 30 52c4 8 0 12 0 12l-48 184c-4 24-28 40-28 40l-100 68s-8 4-12 4v-448z" enable-background="new" fill-rule="evenodd" opacity=".05"/>
    <path transform="translate(0,-244)" d="m392 48-36 44-24-4-28 28 0.18164 1.8184 27.818-27.818 24 4 36-44h144l36 44 24-4 27.818 27.818 0.18164-1.8184-28-28-24 4-36-44h-72zm-86.17 88.295-29.83 51.705c-1.597 3.194-1.9104 5.7394-1.7207 7.6582 0.14232-1.5902 0.62603-3.4689 1.7207-5.6582l30-52zm316.34 0-0.16992 1.7051 30 52c1.0947 2.1893 1.5784 4.068 1.7207 5.6582 0.18974-1.9188-0.12368-4.4642-1.7207-7.6582z" enable-background="new" fill="#fff" fill-rule="evenodd" opacity=".2"/>
   </g>
  </g>
 </g>
</svg>
