<svg xmlns="http://www.w3.org/2000/svg" width="512" height="512" enable-background="new" version="1.0"><defs><filter id="a" width="1.052" height="1.044" x="-.026" y="-.022" color-interpolation-filters="sRGB"><feGaussianBlur stdDeviation="4.138"/></filter></defs><g fill-rule="evenodd"><path d="m392-192-36 44-24-4-28 28 2 20-30 52c-4 8 0 12 0 12l48 184c4 24 28 40 28 40l100 68s8 4 12 4 12-4 12-4l100-68s24-16 28-40l48-184s4-4 0-12l-30-52 2-20-28-28-24 4-36-44h-72z" enable-background="new" filter="url(#a)" opacity=".1" transform="translate(-208 228)"/><path d="m392-192-36 44-24-4-28 28 2 20-30 52c-4 8 0 12 0 12l48 184c4 24 28 40 28 40l100 68s8 4 12 4 12-4 12-4l100-68s24-16 28-40l48-184s4-4 0-12l-30-52 2-20-28-28-24 4-36-44h-72z" enable-background="new" filter="url(#a)" opacity=".2" transform="translate(-208 228)"/><path d="m184 34-36 44-24-4-28 28 2 20-30 52c-4 8 0 12 0 12l48 184c4 24 28 40 28 40l100 68s8 4 12 4 12-4 12-4l100-68s24-16 28-40l48-184s4-4 0-12l-30-52 2-20-28-28-24 4-36-44h-72z" enable-background="new" opacity=".2"/></g><path fill="#ff5722" fill-rule="evenodd" d="m184 32-36 44-24-4-28 28 2 20-30 52c-4 8 0 12 0 12l48 184c4 24 28 40 28 40l100 68s8 4 12 4 12-4 12-4l100-68s24-16 28-40l48-184s4-4 0-12l-30-52 2-20-28-28-24 4-36-44h-72z" enable-background="new"/><path fill="#fff" d="M272.85 360.14c13.111-11.431 18.287-15.545 34.568-27.472 9.159-6.71 10.603-8.421 9.106-10.795-1.198-1.9-30.747-16.779-44.873-22.597-14.86-6.12-16.42-6.126-30.833-.138-12.925 5.37-42.005 20.09-44.445 22.5-2.52 2.489-1.251 4.77 5.1 9.168 13.081 9.062 26.34 19.378 38.16 29.69 17.053 14.878 15.73 14.892 33.218-.356zm-68.548-56.427c17.735-8.535 20.386-10.3 33.943-22.592 11.397-10.334 13.506-13.408 11.885-17.323-.55-1.326-9.113-9.413-19.031-17.972-23.442-20.229-22.461-17.378-13.541-39.337 5.297-13.04 6.68-17.403 6.661-21.018-.028-5.462-2.008-9.56-5.986-12.393-1.613-1.149-15.778-6.997-31.477-12.996s-28.454-11.305-28.344-11.79c.25-1.109 17.563-3.038 30.13-3.358l9.508-.241 17.476 6.247c15.249 5.451 17.643 6.57 18.787 8.783.72 1.394 1.3 3.269 1.289 4.165s-2.838 13.852-6.28 28.792c-6.029 26.166-6.199 27.223-4.632 28.822 2.487 2.536 26.864 7.225 34.474 6.631 8.693-.679 26.451-4.91 28.245-6.73 1.45-1.47 1.175-3.138-4.73-28.723-3.448-14.94-6.278-27.896-6.29-28.792s.572-2.779 1.299-4.183c1.145-2.214 3.395-3.296 16.976-8.16 21.894-7.842 21.449-7.777 41.343-5.968 9.277.843 17.239 1.891 17.694 2.328.487.469-.07 1.141-1.358 1.64-1.202.466-14 5.384-28.441 10.93s-27.773 11.085-29.627 12.311c-4.357 2.882-6.472 6.999-6.502 12.654-.018 3.576 1.355 7.909 6.509 20.531 3.592 8.8 6.532 16.825 6.532 17.834 0 4.083-2.974 7.38-19.453 21.57-9.47 8.152-17.874 16.022-18.678 17.49-.805 1.466-1.264 3.704-1.021 4.973.415 2.174 11.756 13.397 23.307 23.066 4.85 4.06 34.232 18.889 38.939 19.653 3.941.64 8.155-1.386 15.05-7.235 6.76-5.735 10.79-11.475 13.529-19.27 2.569-7.314 1.923-12.24-3.159-24.09-3.877-9.041-4.906-14.007-3.605-17.397.298-.779 10.79-10.944 23.314-22.59 27.28-25.367 31.655-29.912 33.15-34.444 1.661-5.032.49-11.66-3.238-18.327-8.918-15.947-44.364-62.804-47.509-62.804-.888 0-11.114 1.832-22.725 4.071s-22.207 4.073-23.548 4.075-7.045-1.428-12.676-3.177c-24.042-7.467-31.84-9.496-36.495-9.496s-12.453 2.03-36.495 9.496c-5.63 1.749-11.397 3.18-12.814 3.18s-12.484-1.877-24.594-4.17c-13.175-2.495-22.476-3.859-23.159-3.395-2.714 1.843-25.734 32.007-35.705 46.784-11.725 17.377-12.905 19.612-13.859 26.228-1.334 9.258-.077 10.816 34.952 43.323 11.782 10.934 21.662 20.506 21.956 21.27 1.314 3.426.276 8.596-3.545 17.647-5.246 12.43-5.716 15.882-3.184 23.387 2.754 8.161 7.422 14.76 14.474 20.457 6.557 5.298 9.093 6.608 12.962 6.696 1.385.031 9.176-3.147 17.315-7.064z" enable-background="new"/><path fill-rule="evenodd" d="m328 32 36 44 24-4 28 28-2 20 30 52c4 8 0 12 0 12l-48 184c-4 24-28 40-28 40l-100 68s-8 4-12 4V32z" enable-background="new" opacity=".05"/><path fill="#fff" fill-rule="evenodd" d="m184 32-36 44-24-4-28 28 .182 1.818L124 74l24 4 36-44h144l36 44 24-4 27.818 27.818.181-1.818-28-28-24 4-36-44h-72zm-86.17 88.295L68 172c-1.597 3.194-1.91 5.74-1.72 7.658.142-1.59.625-3.469 1.72-5.658l30-52zm316.34 0L414 122l30 52c1.095 2.19 1.578 4.068 1.72 5.658.19-1.918-.123-4.464-1.72-7.658z" enable-background="new" opacity=".2"/></svg>