<svg xmlns="http://www.w3.org/2000/svg" width="64" height="64" viewBox="0 0 16.933 16.933"><defs><filter id="a" width="1.096" height="1.096" x="-.048" y="-.048" color-interpolation-filters="sRGB"><feGaussianBlur stdDeviation=".265"/></filter></defs><g stroke-width=".962" paint-order="markers stroke fill" transform="translate(-.339 -291.61)scale(1.04)"><rect width="13.229" height="13.229" x="1.852" y="281.97" filter="url(#a)" opacity=".35" rx=".763" ry=".763"/><rect width="13.229" height="13.229" x="1.852" y="281.92" fill="#2196f3" rx=".763" ry=".763"/></g><g fill="#fff"><g transform="matrix(.16297 0 0 .16297 4.07 3.89)"><rect width="16.695" height="12.328" x=".524" y="14.445" ry="2.636"/><rect width="16.695" height="12.328" x="19.651" y="14.445" ry="2.636"/><rect width="16.695" height="12.328" x=".305" y="29.384" ry="2.636"/><rect width="16.695" height="12.328" x="19.432" y="29.384" ry="2.636"/></g><path d="M8.575 4.233a4.23 4.23 0 0 0-2.83 1.1h1.37a3.5 3.5 0 0 1 1.461-.331 3.465 3.465 0 0 1 3.468 3.46v.005A3.465 3.465 0 0 1 8.58 11.93a3.5 3.5 0 0 1-1.468-.33H5.74A4.23 4.23 0 0 0 8.58 12.7a4.233 4.233 0 0 0 4.232-4.233v-.005a4.233 4.233 0 0 0-4.237-4.229z"/></g></svg>