<svg xmlns="http://www.w3.org/2000/svg" width="512" height="512" enable-background="new" version="1.0"><defs><filter id="a" width="1.045" height="1.052" x="-.022" y="-.026" color-interpolation-filters="sRGB"><feGaussianBlur stdDeviation="4.16"/></filter><filter id="b" width="1.187" height="1.088" x="-.093" y="-.044" color-interpolation-filters="sRGB"><feGaussianBlur stdDeviation="7.627"/></filter></defs><g transform="translate(-224 228)"><path d="M256 196v2c0 13.296 10.704 24 24 24h400c13.296 0 24-10.704 24-24v-2c0 13.296-10.704 24-24 24H280c-13.296 0-24-10.704-24-24" opacity=".2"/><rect width="384" height="448" x="-224" y="-704" stroke="#000" stroke-width="8" filter="url(#a)" opacity=".1" rx="24" ry="24" transform="scale(1 -1)rotate(90)"/><rect width="384" height="448" x="-224" y="-704" filter="url(#a)" opacity=".2" rx="24" ry="24" transform="scale(1 -1)rotate(90)"/></g><path fill="#ffcca3" d="M236 64v384h220c13.296 0 24-10.704 24-24V88c0-13.296-10.704-24-24-24z"/><path d="M652-172c13.264-.925 24 10.704 24 24v366c0 13.296-10.776 25.384-24 24l-172-18v-384z" filter="url(#b)" opacity=".2" transform="translate(-224 228)"/><path fill="#ffd6b5" d="M56 64c-13.296 0-24 10.704-24 24v336c0 13.296 10.704 24 24 24h200V64z"/><path fill="#fff" d="M56 64c-13.296 0-24 10.704-24 24v2c0-13.296 10.704-24 24-24h400c13.296 0 24 10.704 24 24v-2c0-13.296-10.704-24-24-24z" opacity=".5"/><g fill="#662d00" fill-opacity=".498"><path d="M112 144h32v8h-32z" color="#bebebe" enable-background="accumulate" opacity=".8"/><path d="M80.558 100h6.915v3.913a14.3 14.3 0 0 1 5.296 2.226q2.462 1.62 4.452 4.014l-4.081 5.161-1.788-2.26q-.675-.775-1.822-1.518a7.3 7.3 0 0 0-2.395-1.045v10.153q2.733.877 4.824 1.956 2.091 1.08 3.474 2.496a9.4 9.4 0 0 1 2.125 3.205q.71 1.754.709 4.014a11.4 11.4 0 0 1-.742 4.082 11.4 11.4 0 0 1-2.16 3.508q-1.382 1.585-3.372 2.732-1.99 1.146-4.52 1.653V148h-6.916v-3.508q-3.17-.54-6.105-2.125c-2.935-1.585-3.7-2.429-5.229-4.115l4.217-5.937 1.956 2.429q1.148 1.248 2.43 2.125 1.315.876 3.069 1.248V125.77q-2.463-.91-4.42-2.024-1.922-1.113-3.271-2.462a10.2 10.2 0 0 1-2.024-3.036q-.708-1.686-.708-3.677 0-1.888.708-3.609a10 10 0 0 1 2.024-3.103q1.316-1.384 3.17-2.361 1.89-1.013 4.183-1.485zm6.578 37.712q1.822-.64 2.935-1.821 1.146-1.18 1.147-3.137 0-1.62-1.012-2.834-.98-1.214-3.07-1.956zm-6.24-27.288q-1.418.37-2.294 1.315t-.877 2.429q0 1.08.708 2.226.709 1.148 2.463 1.754z" opacity=".8"/></g><path fill="#ffe1c9" d="M424 50c13.25-1.104 24 10.704 24 24v366c0 13.296-10.764 25.261-24 24l-168-16V64z"/><path fill="#fff" d="M425.23 49.934q-.613.015-1.234.066l-168 14v2l168-14c13.25-1.104 24 10.704 24 24v-2c0-12.88-10.09-24.365-22.766-24.066z" opacity=".5"/><path fill="none" stroke="#000" stroke-width="2" d="M255 64v384" opacity=".02"/></svg>