<svg xmlns="http://www.w3.org/2000/svg" width="512" height="512" enable-background="new" version="1.0"><defs><filter id="b" width="1.038" height="1.066" x="-.019" y="-.033" color-interpolation-filters="sRGB"><feGaussianBlur stdDeviation="3.52"/></filter><filter id="a" width="1.042" height="1.056" x="-.021" y="-.028" color-interpolation-filters="sRGB"><feGaussianBlur stdDeviation="2.24"/></filter></defs><g color="#000"><path d="M358.19-208c-35.142 44.295-45.703 66.112-33.027 94.307C336.654-88.136 366.366-75.105 351.434-16c24.525-28.797 44.027-65.369 24.77-94.871-19.59-30.006-30.334-48.233-18.014-97.129m96 0c-35.142 44.295-45.703 66.112-33.027 94.307C432.654-88.136 462.366-75.105 447.434-16c24.525-28.797 44.027-65.369 24.77-94.871-19.59-30.006-30.334-48.233-18.014-97.129m96 0c-35.142 44.295-45.703 66.112-33.027 94.307C528.654-88.136 558.366-75.105 543.434-16c24.525-28.797 44.027-65.369 24.77-94.871-19.59-30.006-30.334-48.233-18.014-97.129" filter="url(#a)" opacity=".1" transform="translate(-208 228)"/><path d="M358.19-208c-35.142 44.295-45.703 66.112-33.027 94.307C336.654-88.136 366.366-75.105 351.434-16c24.525-28.797 44.027-65.369 24.77-94.871-19.59-30.006-30.334-48.233-18.014-97.129m96 0c-35.142 44.295-45.703 66.112-33.027 94.307C432.654-88.136 462.366-75.105 447.434-16c24.525-28.797 44.027-65.369 24.77-94.871-19.59-30.006-30.334-48.233-18.014-97.129m96 0c-35.142 44.295-45.703 66.112-33.027 94.307C528.654-88.136 558.366-75.105 543.434-16c24.525-28.797 44.027-65.369 24.77-94.871-19.59-30.006-30.334-48.233-18.014-97.129" filter="url(#a)" opacity=".2" transform="translate(-208 228)"/><path d="M150.19 18c-35.142 44.295-45.703 66.112-33.027 94.307 11.491 25.557 41.203 38.588 26.271 97.693 24.525-28.797 44.027-65.369 24.77-94.871C148.614 85.123 137.87 66.896 150.19 18m96 0c-35.142 44.295-45.703 66.112-33.027 94.307 11.491 25.557 41.203 38.588 26.271 97.693 24.525-28.797 44.027-65.369 24.77-94.871C244.614 85.123 233.87 66.896 246.19 18m96 0c-35.142 44.295-45.703 66.112-33.027 94.307 11.491 25.557 41.203 38.588 26.271 97.693 24.525-28.797 44.027-65.369 24.77-94.871C340.614 85.123 329.87 66.896 342.19 18" opacity=".2"/><path d="M256 112c0 96 64 160 160 160h64c96 0 152.31-50.102 158.69-128h17.312c48 0 48-48 48-48V64c0-48-48-48-48-48h-400zm400-64c16-1.034 16.499 17 16.499 17v32c0 15-16.499 15-16.499 15h-16l.32-63.5z" filter="url(#b)" opacity=".1" transform="translate(-208 228)"/><path d="M256 112c0 96 64 160 160 160h64c96 0 152.31-50.102 158.69-128h17.312c48 0 48-48 48-48V64c0-48-48-48-48-48h-400zm400-64c16-1.034 16.499 17 16.499 17v32c0 15-16.499 15-16.499 15h-16l.32-63.5z" filter="url(#b)" opacity=".2" transform="translate(-208 228)"/><path d="M48 338c0 96 64 160 160 160h64c96 0 152.31-50.102 158.69-128h17.312c48 0 48-48 48-48v-32c0-48-48-48-48-48h-400zm400-64c16-1.034 16.499 17 16.499 17v32c0 15-16.499 15-16.499 15h-16l.32-63.5z" opacity=".2"/><path fill="#fef8e2" d="M48 336c0 96 64 160 160 160h64c96 0 152.31-50.102 158.69-128h17.312c48 0 48-48 48-48v-32c0-48-48-48-48-48h-400zm400-64c16-1.034 16.499 17 16.499 17v32c0 15-16.499 15-16.499 15h-16l.32-63.5z"/><path fill="#bcaaa4" d="M150.19 16c-35.142 44.295-45.703 66.112-33.027 94.307 11.491 25.557 41.203 38.588 26.271 97.693 24.525-28.797 44.027-65.369 24.77-94.871C148.614 83.123 137.87 64.896 150.19 16m96 0c-35.142 44.295-45.703 66.112-33.027 94.307 11.491 25.557 41.203 38.588 26.271 97.693 24.525-28.797 44.027-65.369 24.77-94.871C244.614 83.123 233.87 64.896 246.19 16m96 0c-35.142 44.295-45.703 66.112-33.027 94.307 11.491 25.557 41.203 38.588 26.271 97.693 24.525-28.797 44.027-65.369 24.77-94.871C340.614 83.123 329.87 64.896 342.19 16"/><path fill="#fff" d="M150.19 16c-25.994 32.764-38.524 53.229-38.164 73.074.485-19.045 12.827-39.043 37.463-70.18.23-.96.453-1.91.701-2.895zm96 0c-25.994 32.764-38.524 53.229-38.164 73.074.485-19.045 12.827-39.043 37.463-70.18.23-.96.453-1.91.701-2.895zm96 0c-25.994 32.764-38.524 53.229-38.164 73.074.485-19.045 12.827-39.043 37.463-70.18.23-.96.453-1.91.701-2.895zM144.96 52.705c-.396 25.284 9.126 40.796 23.246 62.424 5.247 8.039 7.599 16.604 7.773 25.393.166-9.488-2.128-18.745-7.773-27.393-13.742-21.049-23.118-36.315-23.246-60.424m96 0c-.396 25.284 9.126 40.796 23.246 62.424 5.247 8.039 7.599 16.604 7.773 25.393.166-9.488-2.128-18.745-7.773-27.393-13.742-21.049-23.118-36.315-23.246-60.424m96 0c-.396 25.284 9.126 40.796 23.246 62.424 5.247 8.039 7.599 16.604 7.773 25.393.166-9.488-2.128-18.745-7.773-27.393-13.742-21.049-23.118-36.315-23.246-60.424m-189.44 127.13c-.128 8.09-1.353 17.35-4.086 28.166q.329-.389.654-.78c2.464-10.506 3.488-19.523 3.432-27.386zm96 0c-.128 8.09-1.353 17.35-4.086 28.166q.328-.389.654-.78c2.464-10.506 3.488-19.523 3.432-27.386zm96 0c-.128 8.09-1.353 17.35-4.086 28.166q.328-.389.654-.78c2.464-10.506 3.488-19.523 3.432-27.386z" opacity=".4"/><path fill="#fff" d="M48 240v2h400s48 0 48 48v-2c0-48-48-48-48-48h-16zm416.5 81c0 15-16.5 15-16.5 15h-15.99l-.01 2h16s16.5 0 16.5-15z" opacity=".5"/></g></svg>