<svg width="512" height="512" enable-background="new" version="1.0" xmlns="http://www.w3.org/2000/svg">
 <defs>
  <filter id="b" x="-.018857" y="-.033" width="1.0377" height="1.066" color-interpolation-filters="sRGB">
   <feGaussianBlur stdDeviation="3.52"/>
  </filter>
  <filter id="a" x="-.021" y="-.028" width="1.042" height="1.056" color-interpolation-filters="sRGB">
   <feGaussianBlur stdDeviation="2.2400076"/>
  </filter>
 </defs>
 <g transform="translate(0,212)">
  <g></g>
  <g>
   <g transform="translate(-208,16)">
    <g>
     <path d="m358.19-208c-35.142 44.295-45.703 66.112-33.027 94.307 11.491 25.557 41.203 38.588 26.271 97.693 24.525-28.797 44.027-65.369 24.77-94.871-19.59-30.006-30.334-48.233-18.014-97.129zm96 0c-35.142 44.295-45.703 66.112-33.027 94.307 11.491 25.557 41.203 38.588 26.271 97.693 24.525-28.797 44.027-65.369 24.77-94.871-19.59-30.006-30.334-48.233-18.014-97.129zm96 0c-35.142 44.295-45.703 66.112-33.027 94.307 11.491 25.557 41.203 38.588 26.271 97.693 24.525-28.797 44.027-65.369 24.77-94.871-19.59-30.006-30.334-48.233-18.014-97.129z" color="#000000" filter="url(#a)" opacity=".1"/>
     <path d="m358.19-208c-35.142 44.295-45.703 66.112-33.027 94.307 11.491 25.557 41.203 38.588 26.271 97.693 24.525-28.797 44.027-65.369 24.77-94.871-19.59-30.006-30.334-48.233-18.014-97.129zm96 0c-35.142 44.295-45.703 66.112-33.027 94.307 11.491 25.557 41.203 38.588 26.271 97.693 24.525-28.797 44.027-65.369 24.77-94.871-19.59-30.006-30.334-48.233-18.014-97.129zm96 0c-35.142 44.295-45.703 66.112-33.027 94.307 11.491 25.557 41.203 38.588 26.271 97.693 24.525-28.797 44.027-65.369 24.77-94.871-19.59-30.006-30.334-48.233-18.014-97.129z" color="#000000" filter="url(#a)" opacity=".2"/>
     <path d="m358.19-210c-35.142 44.295-45.703 66.112-33.027 94.307 11.491 25.557 41.203 38.588 26.271 97.693 24.525-28.797 44.027-65.369 24.77-94.871-19.59-30.006-30.334-48.233-18.014-97.129zm96 0c-35.142 44.295-45.703 66.112-33.027 94.307 11.491 25.557 41.203 38.588 26.271 97.693 24.525-28.797 44.027-65.369 24.77-94.871-19.59-30.006-30.334-48.233-18.014-97.129zm96 0c-35.142 44.295-45.703 66.112-33.027 94.307 11.491 25.557 41.203 38.588 26.271 97.693 24.525-28.797 44.027-65.369 24.77-94.871-19.59-30.006-30.334-48.233-18.014-97.129z" color="#000000" opacity=".2"/>
     <path d="m256 112c0 96 64 160 160 160h64c96 0 152.31-50.102 158.69-128h17.312c48 0 48-48 48-48v-32c0-48-48-48-48-48h-400zm400-64c16-1.0336 16.499 17 16.499 17v32c0 15-16.499 15-16.499 15h-16l0.32-63.5z" color="#000000" filter="url(#b)" opacity=".1"/>
     <path d="m256 112c0 96 64 160 160 160h64c96 0 152.31-50.102 158.69-128h17.312c48 0 48-48 48-48v-32c0-48-48-48-48-48h-400zm400-64c16-1.0336 16.499 17 16.499 17v32c0 15-16.499 15-16.499 15h-16l0.32-63.5z" color="#000000" filter="url(#b)" opacity=".2"/>
     <path d="m256 110c0 96 64 160 160 160h64c96 0 152.31-50.102 158.69-128h17.312c48 0 48-48 48-48v-32c0-48-48-48-48-48h-400zm400-64c16-1.0336 16.499 17 16.499 17v32c0 15-16.499 15-16.499 15h-16l0.32-63.5z" color="#000000" opacity=".2"/>
    </g>
    <path d="m256 108c0 96 64 160 160 160h64c96 0 152.31-50.102 158.69-128h17.312c48 0 48-48 48-48v-32c0-48-48-48-48-48h-400zm400-64c16-1.0336 16.499 17 16.499 17v32c0 15-16.499 15-16.499 15h-16l0.32-63.5z" color="#000000" fill="#fef8e2"/>
    <path transform="translate(0,-244)" d="m358.19 32c-35.142 44.295-45.703 66.112-33.027 94.307 11.491 25.557 41.203 38.588 26.271 97.693 24.525-28.797 44.027-65.369 24.77-94.871-19.59-30.006-30.334-48.233-18.014-97.129zm96 0c-35.142 44.295-45.703 66.112-33.027 94.307 11.491 25.557 41.203 38.588 26.271 97.693 24.525-28.797 44.027-65.369 24.77-94.871-19.59-30.006-30.334-48.233-18.014-97.129zm96 0c-35.142 44.295-45.703 66.112-33.027 94.307 11.491 25.557 41.203 38.588 26.271 97.693 24.525-28.797 44.027-65.369 24.77-94.871-19.59-30.006-30.334-48.233-18.014-97.129z" color="#000000" fill="#bcaaa4"/>
    <path transform="translate(0,-244)" d="m358.19 32c-25.994 32.764-38.524 53.229-38.164 73.074 0.48482-19.045 12.827-39.043 37.463-70.18 0.22931-0.95929 0.45329-1.9108 0.70117-2.8945zm96 0c-25.994 32.764-38.524 53.229-38.164 73.074 0.48482-19.045 12.827-39.043 37.463-70.18 0.22931-0.95929 0.45329-1.9108 0.70117-2.8945zm96 0c-25.994 32.764-38.524 53.229-38.164 73.074 0.48482-19.045 12.827-39.043 37.463-70.18 0.22931-0.95929 0.45329-1.9108 0.70117-2.8945zm-197.23 36.705c-0.39561 25.284 9.1257 40.796 23.246 62.424 5.2473 8.0387 7.599 16.604 7.7734 25.393 0.16577-9.4882-2.1289-18.745-7.7734-27.393-13.742-21.049-23.118-36.315-23.246-60.424zm96 0c-0.39561 25.284 9.1257 40.796 23.246 62.424 5.2473 8.0387 7.599 16.604 7.7734 25.393 0.16577-9.4882-2.1289-18.745-7.7734-27.393-13.742-21.049-23.118-36.315-23.246-60.424zm96 0c-0.39561 25.284 9.1257 40.796 23.246 62.424 5.2473 8.0387 7.599 16.604 7.7734 25.393 0.16577-9.4882-2.1289-18.745-7.7734-27.393-13.742-21.049-23.118-36.315-23.246-60.424zm-189.44 127.13c-0.12757 8.0894-1.3535 17.35-4.0859 28.166 0.21947-0.25771 0.43565-0.52035 0.65429-0.7793 2.4633-10.507 3.4872-19.524 3.4316-27.387zm96 0c-0.12757 8.0894-1.3535 17.35-4.0859 28.166 0.21947-0.25771 0.43565-0.52035 0.65429-0.7793 2.4633-10.507 3.4872-19.524 3.4316-27.387zm96 0c-0.12757 8.0894-1.3535 17.35-4.0859 28.166 0.21947-0.25771 0.43565-0.52035 0.65429-0.7793 2.4633-10.507 3.4872-19.524 3.4316-27.387z" color="#000000" fill="#fff" opacity=".4"/>
    <path transform="translate(0,-244)" d="m256 256v2h400s48 0 48 48v-2c0-48-48-48-48-48h-16zm416.5 81c0 15-16.5 15-16.5 15h-15.99l-0.01 2h16s16.5 0 16.5-15z" color="#000000" fill="#fff" opacity=".5"/>
   </g>
  </g>
 </g>
</svg>
