<svg xmlns="http://www.w3.org/2000/svg" width="512" height="512" enable-background="new" version="1.0"><defs><filter id="a" width="1.048" height="1.048" x="-.024" y="-.024" color-interpolation-filters="sRGB"><feGaussianBlur stdDeviation="4.8"/></filter><filter id="b" width="1.066" height="1.62" x="-.033" y="-.31" color-interpolation-filters="sRGB"><feGaussianBlur stdDeviation="6.2"/></filter></defs><g transform="translate(-208 228)"><circle cx="464" cy="30" r="240" opacity=".2"/><circle cx="464" cy="32" r="240" filter="url(#a)" opacity=".1"/><circle cx="464" cy="32" r="240" filter="url(#a)" opacity=".2"/><circle cx="464" cy="28" r="240" fill="#ff9800"/><path fill="#fff" d="M464-212A240 240 0 0 0 224 28l.041 1.172A240 240 0 0 1 464-210 240 240 0 0 1 703.959 28.828L704 28a240 240 0 0 0-240-240" opacity=".2"/><path d="M250 168c-10 0-10 10-10 10v38h448v-38c0-11.08-10-10-10-10z" enable-background="new" filter="url(#b)" opacity=".2"/><path fill="#e6e6e6" d="M250 156c-10 0-10 10-10 10v38h448v-38c0-11.08-10-10-10-10z" enable-background="new"/><path fill="#fff" d="M678.43 155.97c-.273.008-.43.025-.43.025H250c-10 0-10 10-10 10v2s0-10 10-10h428s10-1.08 10 10v-2c0-9.695-7.656-10.08-9.57-10.025z" enable-background="new" opacity=".4"/></g></svg>