<svg xmlns="http://www.w3.org/2000/svg" width="512" height="512" enable-background="new" version="1.0"><defs><filter id="a" width="1.048" height="1.048" x="-.024" y="-.024" color-interpolation-filters="sRGB"><feGaussianBlur stdDeviation="4.48"/></filter><filter id="d" width="1.153" height="1.099" x="-.077" y="-.049" color-interpolation-filters="sRGB"><feGaussianBlur stdDeviation="9.2"/></filter><clipPath id="b"><path fill="#2196f3" d="M488-196v144h12v160h-52L300 252h352c19.944 0 36-16.056 36-36v-376c0-19.944-16.056-36-36-36z"/></clipPath></defs><g transform="translate(-208 4068)"><rect width="448" height="448" x="3586" y="-688" enable-background="new" opacity=".2" rx="36" ry="36" transform="scale(1 -1)rotate(90)"/><rect width="448" height="448" x="-256" y="-688" enable-background="new" filter="url(#a)" opacity=".1" rx="36" ry="36" transform="matrix(0 -1 -1 0 0 -3840)"/><rect width="448" height="448" x="-256" y="-688" enable-background="new" filter="url(#a)" opacity=".2" rx="36" ry="36" transform="matrix(0 -1 -1 0 0 -3840)"/></g><path fill="#2196f3" d="M280 32v144h200V68c0-19.944-16.056-36-36-36z" enable-background="new"/><path fill="#03a9f4" d="M292 176h188v160H292z" enable-background="new"/><path fill="#3f51b5" d="M240 336 92 480h352c19.944 0 36-16.056 36-36V336z" enable-background="new"/><path d="M528-194H276c-19.944 0-36 16.056-36 36v376c0 19.944 16.056 36 36 36h108l144-144z" clip-path="url(#b)" enable-background="new" filter="url(#d)" opacity=".2" transform="translate(-208 228)"/><path fill="#f2f2f2" d="M320 32H68c-19.944 0-36 16.056-36 36v376c0 19.944 16.056 36 36 36h108l144-144z" enable-background="new"/><path fill="#fff" d="M68 32c-19.944 0-36 16.056-36 36v2c0-19.944 16.056-36 36-36h376c19.944 0 36 16.056 36 36v-2c0-19.944-16.056-36-36-36z" enable-background="new" opacity=".2"/><path fill="#b3b3b3" d="m176 480 144-144H212c-19.944 0-36 16.056-36 36z" enable-background="new"/><path fill="#3f51b5" fill-rule="evenodd" d="M368-3988v56h32c9.002 0 16 6.998 16 16v8c0 9.002-6.998 16-16 16h-32v16h32c17.59 0 32-14.41 32-32v-8c0-17.59-14.41-32-32-32h-16v-24h40v-16z" color="#000" enable-background="accumulate" style="isolation:auto;mix-blend-mode:normal;text-decoration-color:#000;text-decoration-line:none;text-decoration-style:solid;text-indent:0;text-transform:none;white-space:normal" transform="translate(-208 4068)"/></svg>