<svg xmlns="http://www.w3.org/2000/svg" width="512" height="512" enable-background="new" version="1.0"><defs><filter id="a" width="1.048" height="1.048" x="-.024" y="-.024" color-interpolation-filters="sRGB"><feGaussianBlur stdDeviation="4.8"/></filter><filter id="c" width="1.048" height="1.048" x="-.024" y="-.024" color-interpolation-filters="sRGB"><feGaussianBlur stdDeviation="4.8"/></filter><filter id="d" width="1.048" height="1.048" x="-.024" y="-.024" color-interpolation-filters="sRGB"><feGaussianBlur stdDeviation="3.84"/></filter></defs><g transform="translate(-208 228)"><circle cx="464" cy="32" r="240" filter="url(#a)" opacity=".2"/><circle cx="464" cy="30" r="240" opacity=".2"/><circle cx="464" cy="32" r="240" stroke="#000" stroke-width="8" filter="url(#c)" opacity=".1"/></g><g transform="translate(-208 228)"><circle cx="464" cy="28" r="240" fill="#666"/><path fill="#fff" d="M464-212A240 240 0 0 0 224 28l.041 1.172A240 240 0 0 1 464-210 240 240 0 0 1 703.959 28.828L704 28a240 240 0 0 0-240-240" opacity=".2"/><circle cx="466" cy="32" r="192" filter="url(#d)" opacity=".2"/><circle cx="464" cy="30" r="192" opacity=".2"/><circle cx="464" cy="28" r="192" fill="#fff"/></g><path fill="#3f51b5" d="M256 128v149.48a56 56 0 0 0-24-5.48c-30.928 0-56 25.072-56 56s25.072 56 56 56 56-25.072 56-56V160h40v-32h-40z"/></svg>