<svg xmlns="http://www.w3.org/2000/svg" width="512" height="512" enable-background="new" version="1.0"><defs><filter id="a" width="1.048" height="1.048" x="-.024" y="-.024" color-interpolation-filters="sRGB"><feGaussianBlur stdDeviation="4.48"/></filter><filter id="b" width="1.12" height="1.12" x="-.06" y="-.06" color-interpolation-filters="sRGB"><feGaussianBlur stdDeviation="4.8"/></filter></defs><g transform="matrix(0 -1 -1 0 -208 228)"><rect width="448" height="448" x="-256" y="-688" enable-background="new" filter="url(#a)" opacity=".2" rx="36" ry="36"/><rect width="448" height="448" x="-254" y="-688" enable-background="new" opacity=".2" rx="36" ry="36"/><rect width="448" height="448" x="-256" y="-688" stroke="#000" stroke-width="8" enable-background="new" filter="url(#a)" opacity=".1" rx="36" ry="36"/></g><path fill="#160d28" d="M176 32v448h268c19.944 0 36-16.056 36-36V68c0-19.944-16.056-36-36-36z"/><circle cx="256" cy="306" r="96" opacity=".2"/><circle cx="256" cy="308" r="96" filter="url(#b)" opacity=".2"/><circle cx="256" cy="304" r="96" fill="#efebe9"/><g fill-rule="evenodd"><g fill="#c5cae9"><path d="m384 192 16 40-16 40-16-40z"/><path d="m344 232 40-16 40 16-40 16z"/></g><g fill="#fff" opacity=".5"><path d="m414.01 352.042-8 20 8 20 8-20z"/><path d="m434.01 372.042-20-8-20 8 20 8z"/></g><g fill="#c5cae9"><path d="m334 452 12-30-12-30-12 30z"/><path d="m304 422 30 12 30-12-30-12z"/></g><g fill="#fff" opacity=".5"><path d="m414.01 132.042-8 20 8 20 8-20z"/><path d="m434.01 152.042-20-8-20 8 20 8z"/></g><g fill="#c5cae9"><path d="m374.01 97.958-8-20 8-20 8 20z"/><path d="m394.01 77.958-20 8-20-8 20-8z"/></g><g fill="#fff"><g opacity=".2"><path d="m343.994 152.012-4-10 4-10 4 10z"/><path d="m353.993 142.012-10 4-10-4 10-4z"/></g><g opacity=".2"><path d="m443.994 92.012-4-10 4-10 4 10z"/><path d="m453.993 82.012-10 4-10-4 10-4z"/></g><g opacity=".2"><path d="m443.994 292.012-4-10 4-10 4 10z"/><path d="m453.993 282.012-10 4-10-4 10-4z"/></g><g opacity=".2"><path d="m363.994 352.042-4-10 4-10 4 10z"/><path d="m373.993 342.042-10 4-10-4 10-4z"/></g><g opacity=".2"><path d="m443.994 452.042-4-10 4-10 4 10z"/><path d="m453.993 442.042-10 4-10-4 10-4z"/></g><g opacity=".2"><path d="m383.994 452.042-4-10 4-10 4 10z"/><path d="m393.993 442.042-10 4-10-4 10-4z"/></g><g opacity=".2"><path d="m283.99 72.012-4-10 4-10 4 10z"/><path d="m293.99 62.012-10 4-10-4 10-4z"/></g></g></g><path fill="#d50000" d="M68.033 32.041c-19.944 0-36 16.056-36 36v376.01c0 19.944 16.056 36 36 36h158.81a364 364 0 0 0 79.156-226.02 364 364 0 0 0-75.807-221.98H68.032z"/><path fill="#fff" d="M68 32c-19.944 0-36 16.056-36 36v2c0-19.944 16.056-36 36-36h376c19.944 0 36 16.056 36 36v-2c0-19.944-16.056-36-36-36z" opacity=".2"/></svg>