<svg xmlns="http://www.w3.org/2000/svg" width="512" height="512" enable-background="new" version="1.0"><defs><filter id="a" width="1.027" height="1.021" x="-.014" y="-.011" color-interpolation-filters="sRGB"><feGaussianBlur stdDeviation="2"/></filter><filter id="b" width="1.12" height="1.12" x="-.06" y="-.06" color-interpolation-filters="sRGB"><feGaussianBlur stdDeviation="6.4"/></filter></defs><g transform="translate(-208 228)"><rect width="448" height="352" x="-256" y="-640" filter="url(#a)" opacity=".2" rx="24" ry="24" transform="matrix(0 -1 -1 0 0 -2)"/><rect width="448" height="352" x="-256" y="-640" filter="url(#a)" opacity=".1" rx="24" ry="24" transform="matrix(0 -1 -1 0 0 2)"/><rect width="448" height="352" x="-252" y="-640" fill="#9c27b0" rx="24" ry="24" transform="scale(1 -1)rotate(90)"/><path fill="#fff" d="M312-196c-13.296 0-24 10.704-24 24v2c0-13.296 10.704-24 24-24h304c13.296 0 24 10.704 24 24v-2c0-13.296-10.704-24-24-24z" opacity=".2"/><rect width="384" height="288" x="-220" y="-608" fill="#ebebeb" rx="0" ry="0" transform="scale(1 -1)rotate(90)"/><path d="M464-68c-53.019 0-96 42.981-96 96s42.981 96 96 96 96-42.981 96-96-42.981-96-96-96m-41.143 54.911c7.598 0 13.714 6.164 13.714 13.714 0 7.552-6.116 13.714-13.714 13.714-7.601 0-13.714-6.163-13.714-13.714 0-7.55 6.113-13.714 13.714-13.714m82.286 0c7.6 0 13.714 6.164 13.714 13.714 0 7.552-6.115 13.714-13.714 13.714S491.429 8.176 491.429.625c0-7.55 6.116-13.714 13.714-13.714m-79.902 66.188A54.85 54.85 0 0 0 464 69.197a54.82 54.82 0 0 0 38.759-16.098l9.696 9.696A68.56 68.56 0 0 1 464 82.911a68.53 68.53 0 0 1-48.455-20.116z" color="#bebebe" enable-background="accumulate" opacity=".2"/><path d="M312 252c-13.296 0-24-10.704-24-24v-2c0 13.296 10.704 24 24 24h304c13.296 0 24-10.704 24-24v2c0 13.296-10.704 24-24 24z" opacity=".1"/><rect width="256" height="256" x="-280" y="-664" filter="url(#b)" opacity=".2" rx="128" ry="128" transform="matrix(0 -1 -1 0 40 0)"/><circle cx="618.67" cy="-154.22" r="14.222" opacity=".2" transform="scale(1 -1)"/><rect width="256" height="256" x="-268" y="-704" fill="#e6e6e6" rx="128" ry="128" transform="scale(1 -1)rotate(90)"/><circle cx="576" cy="140" r="74.667" fill="#333"/><circle cx="576" cy="-140" r="53.333" fill="#e91e63" transform="scale(1 -1)"/><g fill="#fff"><path d="M598.63 117.37a32 32 0 0 0-45.255 0l22.627 22.627z" opacity=".2"/><path d="M598.63 117.37a32 32 0 0 1 0 45.255l-22.627-22.627zM553.37 162.63a32 32 0 0 1 0-45.255l22.627 22.627z" opacity=".4"/><path d="M553.37 162.63a32 32 0 0 0 45.255 0l-22.627-22.627z" opacity=".6"/></g><path d="M576 86.666A53.333 53.333 0 0 0 522.666 140a53 53 0 0 0 .043.82A53.333 53.333 0 0 1 576 88.666a53.333 53.333 0 0 1 53.281 52.273 53 53 0 0 0 .053-.94A53.333 53.333 0 0 0 576 86.667z" opacity=".2"/></g></svg>