<svg xmlns="http://www.w3.org/2000/svg" width="512" height="512" enable-background="new" version="1.0"><defs><filter id="a" width="1.123" height="1.089" x="-.061" y="-.045" color-interpolation-filters="sRGB"><feGaussianBlur stdDeviation="1.601"/></filter><filter id="c" width="1.128" height="1.094" x="-.064" y="-.047" color-interpolation-filters="sRGB"><feGaussianBlur stdDeviation="1.601"/></filter></defs><path d="m32.033 179.88-.017 9.25-23.563 19 4.75 9.5 11.613-3.94a9.75 9.75 0 0 0 7.637 3.69c5.113-.006 9.184-3.96 9.547-9.059v-.004 9.313c-.007 4.634-2.7 8.214-7.21 9.276-4.024.948-5.303-.287-10.138 1.684-7.348 2.996-12.147 9.275-12.148 17.21l10.195 10.399C17.052 256.198 12 260.443 12 265.818h58c0-6.005-4.498-9.62-9.505-9.62l10.458-10.193V217.38c0-15.879-12.872-28-28.75-28q-.255.01-.51.025a9.3 9.3 0 0 0-.224-2.342c-.962-4.197-5.13-7.175-9.436-7.183" filter="url(#a)" opacity=".15" transform="translate(-3.212 -704.83)scale(4.1656)"/><path d="M85.998 203.91c-12.215 0-22.118 9.902-22.118 22.117a22.12 22.12 0 0 0 15.08 20.948L64 277.826c-3.716 0-7.905 4.207-7.905 7.923l59.905.077c0-3.716-4.284-8-8-8l-14.968-30.858a22.12 22.12 0 0 0 15.083-20.94c0-12.216-9.902-22.118-22.117-22.118" filter="url(#c)" opacity=".15" transform="translate(-3.212 -704.83)scale(4.1656)"/><path fill="#3d3846" d="m130.225 36.897-.071 38.532L32 154.575l19.786 39.573 48.376-16.412a40.62 40.62 0 0 0 31.812 15.37c21.299-.024 38.257-16.495 39.77-37.735v-.017 38.794c-.03 19.304-11.248 34.216-30.035 38.64-16.762 3.95-22.09-1.195-42.23 7.015-30.61 12.48-50.6 38.636-50.604 71.69l42.468 43.318c-23.523-.004-44.568 17.679-44.568 40.07H288.38c0-25.015-18.737-40.074-39.594-40.074l43.564-42.46v-119.24c0-66.146-53.62-116.637-119.761-116.637-.708.03-1.416.062-2.125.104a38.5 38.5 0 0 0-.933-9.756c-4.007-17.483-21.37-29.888-39.306-29.921"/><path fill="#fff" fill-opacity=".071" d="m132.045 33.773-.02 12.167a38.5 38.5 0 0 1 20.844 26.085c.725 3.2 1.041 6.478.933 9.756q1.062-.062 2.124-.104c66.142 0 119.761 53.615 119.761 119.76v119.241l-26.897 34.129 43.56-42.46v-119.24c0-66.146-53.62-119.761-119.761-119.761q-1.062.042-2.125.104a38.5 38.5 0 0 0-.933-9.756 38.53 38.53 0 0 0-37.482-29.921zm-60.643 326.02a43.2 43.2 0 0 0-7.027 4.666c3.303-.833 6.744-1.32 10.306-1.32z"/><path fill="#deddda" d="M355.021 136.954c-50.883 0-92.134 41.248-92.134 92.131a92.14 92.14 0 0 0 62.817 87.261l-62.318 128.513c-15.479 0-32.929 17.525-32.929 33.004l249.54.32c0-15.479-17.845-33.324-33.324-33.324l-62.35-128.542a92.135 92.135 0 0 0 62.829-87.228c0-50.887-41.248-92.135-92.13-92.135"/><path fill="#f6f5f4" d="M479.998 478.2c0-14.433-17.488-24.993-33.325-24.993H263.386c-18.078 0-32.929 8.84-32.929 24.673 0-15.85 15.975-33.004 32.93-33.004h183.286c17.679 0 33.325 16.691 33.325 33.324"/><path fill="#c0bfbc" d="M263.79 228.598a92 92 0 0 0-.404 8.006 91.643 91.643 0 0 0 91.644 91.643 91.643 91.643 0 0 0 91.643-91.643 92 92 0 0 0-.404-7.931 91.643 91.643 0 0 1-91.24 83.637 91.643 91.643 0 0 1-91.239-83.712"/></svg>