<svg width="512" height="512" enable-background="new" version="1.0" xmlns="http://www.w3.org/2000/svg" xmlns:xlink="http://www.w3.org/1999/xlink">
 <defs>
  <filter id="b" x="-.061484" y="-.044715" width="1.123" height="1.0894" color-interpolation-filters="sRGB">
   <feGaussianBlur stdDeviation="1.6011375"/>
  </filter>
  <filter id="a" x="-.064147" y="-.046911" width="1.1283" height="1.0938" color-interpolation-filters="sRGB">
   <feGaussianBlur stdDeviation="1.6011375"/>
  </filter>
 </defs>
 <g transform="matrix(4.1656 0 0 4.1656 -3.212 -704.83)">
  <g>
   <path d="m32.033 179.88-0.017 9.25-23.563 19 4.75 9.5 11.613-3.94a9.75 9.75 0 0 0 7.637 3.69c5.113-6e-3 9.184-3.96 9.547-9.059v-4e-3 9.313c-7e-3 4.634-2.7 8.214-7.21 9.276-4.024 0.948-5.303-0.287-10.138 1.684-7.348 2.996-12.147 9.275-12.148 17.21l10.195 10.399c-5.647-1e-3 -10.699 4.244-10.699 9.619h58c0-6.005-4.498-9.62-9.505-9.62l10.458-10.193v-28.625c0-15.879-12.872-28-28.75-28-0.17 7e-3 -0.34 0.015-0.51 0.025a9.251 9.251 0 0 0-0.224-2.342c-0.962-4.197-5.13-7.175-9.436-7.183z" filter="url(#b)" opacity=".15"/>
   <path d="m85.998 203.91c-12.215 0-22.118 9.902-22.118 22.117a22.119 22.119 0 0 0 15.08 20.948l-14.96 30.851c-3.716 0-7.905 4.207-7.905 7.923l59.905 0.077c0-3.716-4.284-8-8-8l-14.968-30.858a22.118 22.118 0 0 0 15.083-20.94c0-12.216-9.902-22.118-22.117-22.118z" filter="url(#a)" opacity=".15"/>
   <path d="m32.033 178.06-0.017 9.25-23.563 19 4.75 9.5 11.613-3.94a9.75 9.75 0 0 0 7.637 3.69c5.113-6e-3 9.184-3.96 9.547-9.059v-4e-3 9.313c-7e-3 4.634-2.7 8.214-7.21 9.276-4.024 0.948-5.303-0.287-10.138 1.684-7.348 2.996-12.147 9.275-12.148 17.21l10.195 10.399c-5.647-1e-3 -10.699 4.244-10.699 9.619h58c0-6.005-4.498-9.62-9.505-9.62l10.458-10.193v-28.625c0-15.879-12.872-28-28.75-28-0.17 7e-3 -0.34 0.015-0.51 0.025a9.251 9.251 0 0 0-0.224-2.342c-0.962-4.197-5.13-7.175-9.436-7.183z" fill="#3d3846"/>
  </g>
  <path d="m32.47 177.31-5e-3 2.921a9.243 9.243 0 0 1 5.004 6.262c0.174 0.768 0.25 1.555 0.224 2.342 0.17-0.01 0.34-0.018 0.51-0.025 15.878 0 28.75 12.871 28.75 28.75v28.625l-6.457 8.193 10.457-10.193v-28.625c0-15.879-12.872-28.75-28.75-28.75-0.17 7e-3 -0.34 0.015-0.51 0.025a9.251 9.251 0 0 0-0.224-2.342 9.25 9.25 0 0 0-8.998-7.183zm-14.558 78.265c-0.6 0.32-1.166 0.694-1.687 1.12 0.793-0.2 1.619-0.317 2.474-0.317z" fill="#fff" fill-opacity=".071"/>
  <path d="m85.998 202.08c-12.215 0-22.118 9.902-22.118 22.117a22.119 22.119 0 0 0 15.08 20.948l-14.96 30.851c-3.716 0-7.905 4.207-7.905 7.923l59.905 0.077c0-3.716-4.284-8-8-8l-14.968-30.858a22.118 22.118 0 0 0 15.083-20.94c0-12.216-9.902-22.118-22.117-22.118z" fill="#deddda"/>
  <path d="m116 284c0-3.465-4.198-6-8-6h-44c-4.34 0-7.905 2.122-7.905 5.923 0-3.805 3.835-7.923 7.905-7.923h44c4.244 0 8 4.007 8 8z" fill="#f6f5f4"/>
  <path d="m64.097 224.08a22 22 0 0 0-0.097 1.922 22 22 0 0 0 22 22 22 22 0 0 0 22-22 22 22 0 0 0-0.097-1.904 22 22 0 0 1-21.903 20.078 22 22 0 0 1-21.903-20.096z" fill="#c0bfbc"/>
 </g>
</svg>
