<svg width="512" height="512" enable-background="new" version="1.0" xmlns="http://www.w3.org/2000/svg" xmlns:osb="http://www.openswatchbook.org/uri/2009/osb" xmlns:xlink="http://www.w3.org/1999/xlink">
 <defs>
  <filter id="a" x="-.024" y="-.024" width="1.048" height="1.048" color-interpolation-filters="sRGB">
   <feGaussianBlur stdDeviation="4.8"/>
  </filter>
 </defs>
 <g transform="translate(0,212)">
  <g>
   <g transform="translate(-208,16)">
    <circle cx="464" cy="32" r="240" filter="url(#a)" opacity=".1"/>
    <circle cx="464" cy="32" r="240" filter="url(#a)" opacity=".2"/>
    <circle cx="464" cy="28" r="240" fill="#fd9146"/>
    <path transform="translate(0,-244)" d="m 464,32 a 240,240 0 0 0 -240,240 240,240 0 0 0 0.041,1.17188 A 240,240 0 0 1 464,34 240,240 0 0 1 703.95898,272.82812 240,240 0 0 0 704,272 240,240 0 0 0 464,32 Z" fill="#fff" opacity=".2"/>
    <g transform="matrix(9.1161 -5.2632 5.2632 9.1161 -2439 -1463.3)" fill="#fff">
     <path d="m160.84 277.71a1.2931 1.2931 0 0 0 0.24261 0.10506c4.2726 2.3552 9.4524 2.3554 13.726-9.1e-4a1.2931 1.2931 0 0 0 0.70486-1.885l-6.3507-11.034a1.2931 1.2931 0 0 0-5.6e-4 -2e-3 1.2931 1.2931 0 0 0-0.63744-0.699 1.2931 1.2931 0 0 0-0.0214-0.0109 1.2931 1.2931 0 0 0-0.0612-0.0278 1.2931 1.2931 0 0 0-1.7402 0.77679l-6.343 10.986a1.2931 1.2931 0 0 0 0.48083 1.791z" enable-background="new" opacity=".5"/>
     <path d="m160.96 243.46a1.2931 1.2931 0 0 1 0.24261-0.10506c4.2726-2.3552 9.4524-2.3554 13.726 9e-4a1.2931 1.2931 0 0 1 0.70486 1.885l-6.3506 11.034a1.2931 1.2931 0 0 1-4.7e-4 2e-3 1.2931 1.2931 0 0 1-0.63745 0.699 1.2931 1.2931 0 0 1-0.0214 0.0109 1.2931 1.2931 0 0 1-0.0612 0.0279 1.2931 1.2931 0 0 1-1.7403-0.7769l-6.343-10.986a1.2931 1.2931 0 0 1 0.48082-1.791z" opacity=".5"/>
     <path d="m179.25 275.35a1.2931 1.2931 0 0 0 0.21229-0.15757c4.176-2.5226 6.766-7.0083 6.8623-11.888a1.2931 1.2931 0 0 0-1.28-1.5529l-12.731-0.0171a1.2931 1.2931 0 0 0-2e-3 -5.2e-4 1.2931 1.2931 0 0 0-0.92407 0.20254 1.2931 1.2931 0 0 0-0.0201 0.0131 1.2931 1.2931 0 0 0-0.0547 0.0391 1.2931 1.2931 0 0 0-0.1974 1.8955l6.343 10.986a1.2931 1.2931 0 0 0 1.7915 0.47909z" enable-background="new" opacity=".5"/>
     <path d="m149.65 258.12a1.2931 1.2931 0 0 1 0.0303-0.26263c0.0966-4.8778 2.6863-9.3637 6.8638-11.887a1.2931 1.2931 0 0 1 1.9849 0.33209l6.3802 11.017a1.2931 1.2931 0 0 1 2e-3 1e-3 1.2931 1.2931 0 0 1 0.28663 0.90155 1.2931 1.2931 0 0 1-1e-3 0.024 1.2931 1.2931 0 0 1-6e-3 0.0669 1.2931 1.2931 0 0 1-1.543 1.1187l-12.686-1e-5a1.2931 1.2931 0 0 1-1.3106-1.3119z" opacity=".5"/>
     <path d="m186.41 258.22a1.2931 1.2931 0 0 0-0.0303-0.26263c-0.0966-4.8778-2.6863-9.3637-6.8638-11.887a1.2931 1.2931 0 0 0-1.9849 0.33208l-6.3802 11.017a1.2931 1.2931 0 0 0-1e-3 1e-3 1.2931 1.2931 0 0 0-0.28663 0.90154 1.2931 1.2931 0 0 0 1e-3 0.024 1.2931 1.2931 0 0 0 7e-3 0.0669 1.2931 1.2931 0 0 0 1.5428 1.1187l12.686 1e-5a1.2931 1.2931 0 0 0 1.3106-1.3119z" enable-background="new" opacity=".5"/>
     <path d="m156.68 275.24a1.2931 1.2931 0 0 1-0.21229-0.15757c-4.176-2.5226-6.766-7.0083-6.8623-11.888a1.2931 1.2931 0 0 1 1.28-1.5529l12.731-0.0171a1.2931 1.2931 0 0 1 2e-3 -6e-4 1.2931 1.2931 0 0 1 0.92408 0.20255 1.2931 1.2931 0 0 1 0.0201 0.0131 1.2931 1.2931 0 0 1 0.0548 0.039 1.2931 1.2931 0 0 1 0.19735 1.8956l-6.343 10.986a1.2931 1.2931 0 0 1-1.7915 0.47911z" opacity=".5"/>
    </g>
   </g>
  </g>
 </g>
</svg>
