<svg xmlns="http://www.w3.org/2000/svg" width="512" height="512" enable-background="new" version="1.0"><defs><filter id="a" width="1.048" height="1.048" x="-.024" y="-.024" color-interpolation-filters="sRGB"><feGaussianBlur stdDeviation="4.8"/></filter></defs><g transform="translate(-208 228)"><circle cx="464" cy="32" r="240" filter="url(#a)" opacity=".1"/><circle cx="464" cy="32" r="240" filter="url(#a)" opacity=".2"/><circle cx="464" cy="28" r="240" fill="#fd9146"/><path fill="#fff" d="M464-212A240 240 0 0 0 224 28l.041 1.172A240 240 0 0 1 464-210 240 240 0 0 1 703.959 28.828L704 28a240 240 0 0 0-240-240" opacity=".2"/><g fill="#fff"><path d="M488.877 221.799a13.6 13.6 0 0 0 2.764-.32 149.61 149.61 0 0 0 125.123-72.25 13.612 13.612 0 0 0-3.495-20.894L497.3 61.173l-.016-.015a13.6 13.6 0 0 0-9.49-3.017l-.252.013a14 14 0 0 0-.704.069 13.61 13.61 0 0 0-11.776 16.24l-.002 133.534a13.61 13.61 0 0 0 13.81 13.796z" enable-background="new" opacity=".5"/><path d="M309.706-91.059a13.6 13.6 0 0 1 1.659-2.235 149.61 149.61 0 0 1 125.132-72.234 13.612 13.612 0 0 1 16.347 13.474l.181 134.011.007.021a13.6 13.6 0 0 1-2.133 9.727l-.137.212a14 14 0 0 1-.411.577 13.61 13.61 0 0 1-19.954 2.077L314.752-72.194a13.61 13.61 0 0 1-5.043-18.858z" opacity=".5"/><path d="M644.283 103.39a13.6 13.6 0 0 0 1.106-2.554 149.61 149.61 0 0 0-.012-144.49 13.612 13.612 0 0 0-19.841-7.42l-116.147 66.85-.021.006a13.6 13.6 0 0 0-7.358 6.71l-.115.225a14 14 0 0 0-.292.645 13.61 13.61 0 0 0 8.176 18.318l115.645 66.765a13.61 13.61 0 0 0 18.853-5.061z" enable-background="new" opacity=".5"/><path d="M283.762 102.11a13.6 13.6 0 0 1-1.107-2.554 149.62 149.62 0 0 1 .008-144.488 13.612 13.612 0 0 1 19.842-7.42L418.653 14.5l.023-.002a13.6 13.6 0 0 1 7.358 6.71l.117.224a14 14 0 0 1 .298.642 13.61 13.61 0 0 1-8.179 18.32l-115.646 66.768a13.61 13.61 0 0 1-18.853-5.061z" opacity=".5"/><path d="M619.396-90.454a13.6 13.6 0 0 0-1.659-2.234 149.62 149.62 0 0 0-125.135-72.238 13.612 13.612 0 0 0-16.346 13.474l-.178 134.013-.004.014a13.6 13.6 0 0 0 2.132 9.727l.135.214a14 14 0 0 0 .416.573 13.61 13.61 0 0 0 19.953 2.078l115.647-66.77a13.61 13.61 0 0 0 5.042-18.857z" enable-background="new" opacity=".5"/><path d="M437.954 221.177a13.6 13.6 0 0 1-2.765-.319 149.61 149.61 0 0 1-125.126-72.254 13.612 13.612 0 0 1 3.495-20.894L429.525 60.55l.015-.016a13.6 13.6 0 0 1 9.49-3.018l.253.014a14 14 0 0 1 .704.067 13.61 13.61 0 0 1 11.776 16.242l-.002 133.534a13.61 13.61 0 0 1-13.81 13.797z" opacity=".5"/></g></g></svg>