<svg xmlns="http://www.w3.org/2000/svg" width="512" height="512" enable-background="new" version="1.0"><defs><filter id="a" width="1.045" height="1.052" x="-.022" y="-.026" color-interpolation-filters="sRGB"><feGaussianBlur stdDeviation="4.482"/></filter></defs><path d="m464.01-192 240.18 416H223.83z" filter="url(#a)" opacity=".1" transform="translate(-208 228)"/><path d="m464.01-192 240.18 416H223.83z" filter="url(#a)" opacity=".2" transform="translate(-208 228)"/><path d="m256.01 34 240.18 416H15.83z" opacity=".2"/><path fill="#fff" d="m268.38 147.556-160.12 277.33h320.25z" enable-background="new"/><path fill="#4caf50" d="M256 342.78c-16.435 35.603-25.368 70.964 0 105.22h240.18c-64.273-32.505-84.094-97.866-203.89-89.33z" enable-background="new"/><path fill="#4caf50" d="M195.11 316.104c-84.785 18.944-131.65 75.811-179.29 131.9H256v-105.22z" enable-background="new"/><path fill="#2196f3" d="M256 32 15.82 448l264.76-194.77c33.699-85.167-1.102-151.65-24.578-221.23z" enable-background="new"/><path fill="#f44336" d="m256 32 36.292 326.67L496.182 448z" enable-background="new"/><path fill="#fff" d="M256.01 32 15.83 448h1.154l239.02-414 239.02 414h1.155z" opacity=".2"/><path d="m496 448-203.71-89.33-5.857-52.722zM256 32l24.492 221.08-42.737 31.44zM15.82 448l179.22-131.75 48.593 21.283z" enable-background="new" opacity=".1"/></svg>