<svg width="512" height="512" enable-background="new" version="1.0" xmlns="http://www.w3.org/2000/svg">
 <defs>
  <filter id="a" x="-.024" y="-.024" width="1.048" height="1.048" color-interpolation-filters="sRGB">
   <feGaussianBlur stdDeviation="4.48"/>
  </filter>
 </defs>
 <g fill="#42a5f5">
  <rect x="136" y="376" width="40" height="40" rx="0" ry="0"/>
  <rect x="176" y="336" width="40" height="40" rx="0" ry="0"/>
  <rect x="216" y="296" width="40" height="40" rx="0" ry="0"/>
  <rect x="256" y="256" width="40" height="40" rx="0" ry="0"/>
  <rect x="296" y="216" width="40" height="40" rx="0" ry="0"/>
  <rect x="336" y="176" width="40" height="40" rx="0" ry="0"/>
  <rect x="376" y="136" width="40" height="40" rx="0" ry="0"/>
 </g>
 <rect transform="scale(-1)" x="-176" y="-136" width="40" height="40" rx="0" ry="0" fill="#07285b"/>
 <rect transform="scale(-1)" x="-136" y="-176" width="40" height="40" rx="0" ry="0" fill="#07285b"/>
 <g fill="#0b3b87">
  <rect transform="scale(-1)" x="-216" y="-136" width="40" height="40" rx="0" ry="0"/>
  <rect transform="scale(-1)" x="-176" y="-176" width="40" height="40" rx="0" ry="0"/>
  <rect transform="scale(-1)" x="-136" y="-216" width="40" height="40" rx="0" ry="0"/>
 </g>
 <g fill="#0d47a1">
  <rect transform="scale(-1)" x="-256" y="-136" width="40" height="40" rx="0" ry="0"/>
  <rect transform="scale(-1)" x="-216" y="-176" width="40" height="40" rx="0" ry="0"/>
  <rect transform="scale(-1)" x="-176" y="-216" width="40" height="40" rx="0" ry="0"/>
  <rect transform="scale(-1)" x="-136" y="-256" width="40" height="40" rx="0" ry="0"/>
 </g>
 <g fill="#1565c0">
  <rect transform="scale(-1)" x="-296" y="-136" width="40" height="40" rx="0" ry="0"/>
  <rect transform="scale(-1)" x="-256" y="-176" width="40" height="40" rx="0" ry="0"/>
  <rect transform="scale(-1)" x="-216" y="-216" width="40" height="40" rx="0" ry="0"/>
  <rect transform="scale(-1)" x="-176" y="-256" width="40" height="40" rx="0" ry="0"/>
  <rect transform="scale(-1)" x="-136" y="-296" width="40" height="40" rx="0" ry="0"/>
 </g>
 <g fill="#1976d2">
  <rect transform="scale(-1)" x="-336" y="-136" width="40" height="40" rx="0" ry="0"/>
  <rect transform="scale(-1)" x="-296" y="-176" width="40" height="40" rx="0" ry="0"/>
  <rect transform="scale(-1)" x="-256" y="-216" width="40" height="40" rx="0" ry="0"/>
  <rect transform="scale(-1)" x="-216" y="-256" width="40" height="40" rx="0" ry="0"/>
  <rect transform="scale(-1)" x="-176" y="-296" width="40" height="40" rx="0" ry="0"/>
  <rect transform="scale(-1)" x="-136" y="-336" width="40" height="40" rx="0" ry="0"/>
 </g>
 <g fill="#1e88e5">
  <rect transform="scale(-1)" x="-376" y="-136" width="40" height="40" rx="0" ry="0"/>
  <rect transform="scale(-1)" x="-336" y="-176" width="40" height="40" rx="0" ry="0"/>
  <rect transform="scale(-1)" x="-296" y="-216" width="40" height="40" rx="0" ry="0"/>
  <rect transform="scale(-1)" x="-256" y="-256" width="40" height="40" rx="0" ry="0"/>
  <rect transform="scale(-1)" x="-216" y="-296" width="40" height="40" rx="0" ry="0"/>
  <rect transform="scale(-1)" x="-176" y="-336" width="40" height="40" rx="0" ry="0"/>
  <rect transform="scale(-1)" x="-136" y="-376" width="40" height="40" rx="0" ry="0"/>
 </g>
 <rect transform="scale(-1)" x="-216" y="-96" width="40" height="40" rx="0" ry="0" fill="#07285b"/>
 <rect transform="scale(-1)" x="-256" y="-96" width="40" height="40" rx="0" ry="0" fill="#0b3b87"/>
 <rect transform="scale(-1)" x="-296" y="-96" width="40" height="40" rx="0" ry="0" fill="#0d47a1"/>
 <rect transform="scale(-1)" x="-336" y="-96" width="40" height="40" rx="0" ry="0" fill="#1565c0"/>
 <rect transform="scale(-1)" x="-96" y="-216" width="40" height="40" rx="0" ry="0" fill="#07285b"/>
 <rect transform="scale(-1)" x="-96" y="-256" width="40" height="40" rx="0" ry="0" fill="#0b3b87"/>
 <rect transform="scale(-1)" x="-96" y="-296" width="40" height="40" rx="0" ry="0" fill="#0d47a1"/>
 <rect transform="scale(-1)" x="-96" y="-336" width="40" height="40" rx="0" ry="0" fill="#1565c0"/>
 <g fill="#2196f3">
  <rect x="136" y="336" width="40" height="40" rx="0" ry="0"/>
  <rect x="176" y="296" width="40" height="40" rx="0" ry="0"/>
  <rect x="216" y="256" width="40" height="40" rx="0" ry="0"/>
  <rect x="256" y="216" width="40" height="40" rx="0" ry="0"/>
  <rect x="296" y="176" width="40" height="40" rx="0" ry="0"/>
  <rect x="336" y="136" width="40" height="40" rx="0" ry="0"/>
  <path d="m376 96 29.658 7.6734 10.342 32.327h-40z"/>
  <path d="m96 376h40v40l-32.994-9.3415z"/>
 </g>
 <g fill="#64b5f6">
  <rect x="176" y="376" width="40" height="40" rx="0" ry="0"/>
  <rect x="216" y="336" width="40" height="40" rx="0" ry="0"/>
  <rect x="256" y="296" width="40" height="40" rx="0" ry="0"/>
  <rect x="296" y="256" width="40" height="40" rx="0" ry="0"/>
  <rect x="336" y="216" width="40" height="40" rx="0" ry="0"/>
  <rect x="376" y="176" width="40" height="40" rx="0" ry="0"/>
 </g>
 <g fill="#90caf9">
  <rect x="176" y="416" width="40" height="40" rx="0" ry="0"/>
  <rect x="216" y="376" width="40" height="40" rx="0" ry="0"/>
  <rect x="256" y="336" width="40" height="40" rx="0" ry="0"/>
  <rect x="296" y="296" width="40" height="40" rx="0" ry="0"/>
  <rect x="336" y="256" width="40" height="40" rx="0" ry="0"/>
  <rect x="376" y="216" width="40" height="40" rx="0" ry="0"/>
  <rect x="416" y="176" width="40" height="40" rx="0" ry="0"/>
 </g>
 <g fill="#bbdefb">
  <rect x="216" y="416" width="40" height="40" rx="0" ry="0"/>
  <rect x="256" y="376" width="40" height="40" rx="0" ry="0"/>
  <rect x="296" y="336" width="40" height="40" rx="0" ry="0"/>
  <rect x="336" y="296" width="40" height="40" rx="0" ry="0"/>
  <rect x="376" y="256" width="40" height="40" rx="0" ry="0"/>
  <rect x="416" y="216" width="40" height="40" rx="0" ry="0"/>
 </g>
 <g fill="#d3e9fc">
  <rect x="256" y="416" width="40" height="40" rx="0" ry="0"/>
  <rect x="296" y="376" width="40" height="40" rx="0" ry="0"/>
  <rect x="336" y="336" width="40" height="40" rx="0" ry="0"/>
  <rect x="376" y="296" width="40" height="40" rx="0" ry="0"/>
  <rect x="416" y="256" width="40" height="40" rx="0" ry="0"/>
 </g>
 <g fill="#e3f2fd">
  <rect x="296" y="416" width="40" height="40" rx="0" ry="0"/>
  <rect x="336" y="376" width="40" height="40" rx="0" ry="0"/>
  <rect x="376" y="336" width="40" height="40" rx="0" ry="0"/>
  <rect x="416" y="296" width="40" height="40" rx="0" ry="0"/>
 </g>
 <path transform="scale(-1)" d="m-136-136h40l-18.016 21.984-21.984 18.016z" fill="#0a254e"/>
 <path d="m376 376h40l-11.324 28.676-28.676 11.324z" fill="#fff"/>
 <rect transform="scale(-1)" x="-176" y="-96" width="40" height="40" rx="0" ry="0" fill="#0a254e"/>
 <rect transform="scale(-1)" x="-96" y="-176" width="40" height="40" rx="0" ry="0" fill="#0a254e"/>
 <path d="m56 35.41s-24 0-24 24v200c0 124.1 99.904 224 224 224s224-99.904 224-224c0-124.1-99.904-224-224-224zm32 32a24 24 0 0 1 24 24 24 24 0 0 1-24 24 24 24 0 0 1-24-24 24 24 0 0 1 24-24zm168 16c97.202 0 176 78.798 176 176s-78.798 176-176 176-176-78.798-176-176 78.798-176 176-176z" filter="url(#a)" opacity=".1"/>
 <path d="m56 35.41s-24 0-24 24v200c0 124.1 99.904 224 224 224s224-99.904 224-224c0-124.1-99.904-224-224-224zm32 32a24 24 0 0 1 24 24 24 24 0 0 1-24 24 24 24 0 0 1-24-24 24 24 0 0 1 24-24zm168 16c97.202 0 176 78.798 176 176s-78.798 176-176 176-176-78.798-176-176 78.798-176 176-176z" filter="url(#a)" opacity=".2"/>
 <path d="m56 33.41s-24 0-24 24v200c0 124.1 99.904 224 224 224s224-99.904 224-224c0-124.1-99.904-224-224-224zm32 32a24 24 0 0 1 24 24 24 24 0 0 1-24 24 24 24 0 0 1-24-24 24 24 0 0 1 24-24zm168 16c97.202 0 176 78.798 176 176s-78.798 176-176 176-176-78.798-176-176 78.798-176 176-176z" opacity=".2"/>
 <path d="m56 32s-24 0-24 24v200c0 124.1 99.904 224 224 224s224-99.904 224-224-99.904-224-224-224zm32 32a24 24 0 0 1 24 24 24 24 0 0 1-24 24 24 24 0 0 1-24-24 24 24 0 0 1 24-24zm168 16c97.202 0 176 78.798 176 176s-78.798 176-176 176-176-78.798-176-176 78.798-176 176-176z" fill="#ececec"/>
 <path d="m56 32s-24 0-24 24v2c0-24 24-24 24-24h200c123.76 0 223.45 99.369 223.99 223 1e-3 -0.33402 0.0117-0.66563 0.0117-1 2e-5 -124.1-99.904-224-224-224zm55.959 56.836a24 24 0 0 1-23.959 23.164 24 24 0 0 1-23.959-22.836 24 24 0 0 0-0.041 0.83594 24 24 0 0 0 24 24 24 24 0 0 0 24-24 24 24 0 0 0-0.041-1.1641zm-31.947 168.16c-2e-3 0.33387-0.0117 0.66569-0.0117 1 0 97.202 78.798 176 176 176s176-78.798 176-176c0-0.33431-0.01-0.66613-0.0117-1-0.53949 96.741-79.121 175-175.99 175s-175.45-78.259-175.99-175z" fill="#fff" opacity=".5"/>
</svg>
