<svg xmlns="http://www.w3.org/2000/svg" width="512" height="512" enable-background="new" version="1.0"><defs><filter id="a" width="1.048" height="1.048" x="-.024" y="-.024" color-interpolation-filters="sRGB"><feGaussianBlur stdDeviation="4.48"/></filter></defs><g fill="#42a5f5"><rect width="40" height="40" x="136" y="376" rx="0" ry="0"/><rect width="40" height="40" x="176" y="336" rx="0" ry="0"/><rect width="40" height="40" x="216" y="296" rx="0" ry="0"/><rect width="40" height="40" x="256" y="256" rx="0" ry="0"/><rect width="40" height="40" x="296" y="216" rx="0" ry="0"/><rect width="40" height="40" x="336" y="176" rx="0" ry="0"/><rect width="40" height="40" x="376" y="136" rx="0" ry="0"/></g><rect width="40" height="40" x="-176" y="-136" fill="#07285b" rx="0" ry="0" transform="scale(-1)"/><rect width="40" height="40" x="-136" y="-176" fill="#07285b" rx="0" ry="0" transform="scale(-1)"/><g fill="#0b3b87" transform="scale(-1)"><rect width="40" height="40" x="-216" y="-136" rx="0" ry="0"/><rect width="40" height="40" x="-176" y="-176" rx="0" ry="0"/><rect width="40" height="40" x="-136" y="-216" rx="0" ry="0"/></g><g fill="#0d47a1" transform="scale(-1)"><rect width="40" height="40" x="-256" y="-136" rx="0" ry="0"/><rect width="40" height="40" x="-216" y="-176" rx="0" ry="0"/><rect width="40" height="40" x="-176" y="-216" rx="0" ry="0"/><rect width="40" height="40" x="-136" y="-256" rx="0" ry="0"/></g><g fill="#1565c0" transform="scale(-1)"><rect width="40" height="40" x="-296" y="-136" rx="0" ry="0"/><rect width="40" height="40" x="-256" y="-176" rx="0" ry="0"/><rect width="40" height="40" x="-216" y="-216" rx="0" ry="0"/><rect width="40" height="40" x="-176" y="-256" rx="0" ry="0"/><rect width="40" height="40" x="-136" y="-296" rx="0" ry="0"/></g><g fill="#1976d2" transform="scale(-1)"><rect width="40" height="40" x="-336" y="-136" rx="0" ry="0"/><rect width="40" height="40" x="-296" y="-176" rx="0" ry="0"/><rect width="40" height="40" x="-256" y="-216" rx="0" ry="0"/><rect width="40" height="40" x="-216" y="-256" rx="0" ry="0"/><rect width="40" height="40" x="-176" y="-296" rx="0" ry="0"/><rect width="40" height="40" x="-136" y="-336" rx="0" ry="0"/></g><g fill="#1e88e5" transform="scale(-1)"><rect width="40" height="40" x="-376" y="-136" rx="0" ry="0"/><rect width="40" height="40" x="-336" y="-176" rx="0" ry="0"/><rect width="40" height="40" x="-296" y="-216" rx="0" ry="0"/><rect width="40" height="40" x="-256" y="-256" rx="0" ry="0"/><rect width="40" height="40" x="-216" y="-296" rx="0" ry="0"/><rect width="40" height="40" x="-176" y="-336" rx="0" ry="0"/><rect width="40" height="40" x="-136" y="-376" rx="0" ry="0"/></g><rect width="40" height="40" x="-216" y="-96" fill="#07285b" rx="0" ry="0" transform="scale(-1)"/><rect width="40" height="40" x="-256" y="-96" fill="#0b3b87" rx="0" ry="0" transform="scale(-1)"/><rect width="40" height="40" x="-296" y="-96" fill="#0d47a1" rx="0" ry="0" transform="scale(-1)"/><rect width="40" height="40" x="-336" y="-96" fill="#1565c0" rx="0" ry="0" transform="scale(-1)"/><rect width="40" height="40" x="-96" y="-216" fill="#07285b" rx="0" ry="0" transform="scale(-1)"/><rect width="40" height="40" x="-96" y="-256" fill="#0b3b87" rx="0" ry="0" transform="scale(-1)"/><rect width="40" height="40" x="-96" y="-296" fill="#0d47a1" rx="0" ry="0" transform="scale(-1)"/><rect width="40" height="40" x="-96" y="-336" fill="#1565c0" rx="0" ry="0" transform="scale(-1)"/><g fill="#2196f3"><rect width="40" height="40" x="136" y="336" rx="0" ry="0"/><rect width="40" height="40" x="176" y="296" rx="0" ry="0"/><rect width="40" height="40" x="216" y="256" rx="0" ry="0"/><rect width="40" height="40" x="256" y="216" rx="0" ry="0"/><rect width="40" height="40" x="296" y="176" rx="0" ry="0"/><rect width="40" height="40" x="336" y="136" rx="0" ry="0"/><path d="m376 96 29.658 7.673L416 136h-40zM96 376h40v40l-32.994-9.341z"/></g><g fill="#64b5f6"><rect width="40" height="40" x="176" y="376" rx="0" ry="0"/><rect width="40" height="40" x="216" y="336" rx="0" ry="0"/><rect width="40" height="40" x="256" y="296" rx="0" ry="0"/><rect width="40" height="40" x="296" y="256" rx="0" ry="0"/><rect width="40" height="40" x="336" y="216" rx="0" ry="0"/><rect width="40" height="40" x="376" y="176" rx="0" ry="0"/></g><g fill="#90caf9"><rect width="40" height="40" x="176" y="416" rx="0" ry="0"/><rect width="40" height="40" x="216" y="376" rx="0" ry="0"/><rect width="40" height="40" x="256" y="336" rx="0" ry="0"/><rect width="40" height="40" x="296" y="296" rx="0" ry="0"/><rect width="40" height="40" x="336" y="256" rx="0" ry="0"/><rect width="40" height="40" x="376" y="216" rx="0" ry="0"/><rect width="40" height="40" x="416" y="176" rx="0" ry="0"/></g><g fill="#bbdefb"><rect width="40" height="40" x="216" y="416" rx="0" ry="0"/><rect width="40" height="40" x="256" y="376" rx="0" ry="0"/><rect width="40" height="40" x="296" y="336" rx="0" ry="0"/><rect width="40" height="40" x="336" y="296" rx="0" ry="0"/><rect width="40" height="40" x="376" y="256" rx="0" ry="0"/><rect width="40" height="40" x="416" y="216" rx="0" ry="0"/></g><g fill="#d3e9fc"><rect width="40" height="40" x="256" y="416" rx="0" ry="0"/><rect width="40" height="40" x="296" y="376" rx="0" ry="0"/><rect width="40" height="40" x="336" y="336" rx="0" ry="0"/><rect width="40" height="40" x="376" y="296" rx="0" ry="0"/><rect width="40" height="40" x="416" y="256" rx="0" ry="0"/></g><g fill="#e3f2fd"><rect width="40" height="40" x="296" y="416" rx="0" ry="0"/><rect width="40" height="40" x="336" y="376" rx="0" ry="0"/><rect width="40" height="40" x="376" y="336" rx="0" ry="0"/><rect width="40" height="40" x="416" y="296" rx="0" ry="0"/></g><path fill="#0a254e" d="M136 136H96l18.016-21.984L136 96z"/><path fill="#fff" d="M376 376h40l-11.324 28.676L376 416z"/><rect width="40" height="40" x="-176" y="-96" fill="#0a254e" rx="0" ry="0" transform="scale(-1)"/><rect width="40" height="40" x="-96" y="-176" fill="#0a254e" rx="0" ry="0" transform="scale(-1)"/><path d="M56 35.41s-24 0-24 24v200c0 124.1 99.904 224 224 224s224-99.904 224-224c0-124.1-99.904-224-224-224zm32 32a24 24 0 0 1 24 24 24 24 0 0 1-24 24 24 24 0 0 1-24-24 24 24 0 0 1 24-24m168 16c97.202 0 176 78.798 176 176s-78.798 176-176 176-176-78.798-176-176 78.798-176 176-176" filter="url(#a)" opacity=".1"/><path d="M56 35.41s-24 0-24 24v200c0 124.1 99.904 224 224 224s224-99.904 224-224c0-124.1-99.904-224-224-224zm32 32a24 24 0 0 1 24 24 24 24 0 0 1-24 24 24 24 0 0 1-24-24 24 24 0 0 1 24-24m168 16c97.202 0 176 78.798 176 176s-78.798 176-176 176-176-78.798-176-176 78.798-176 176-176" filter="url(#a)" opacity=".2"/><path d="M56 33.41s-24 0-24 24v200c0 124.1 99.904 224 224 224s224-99.904 224-224c0-124.1-99.904-224-224-224zm32 32a24 24 0 0 1 24 24 24 24 0 0 1-24 24 24 24 0 0 1-24-24 24 24 0 0 1 24-24m168 16c97.202 0 176 78.798 176 176s-78.798 176-176 176-176-78.798-176-176 78.798-176 176-176" opacity=".2"/><path fill="#ececec" d="M56 32s-24 0-24 24v200c0 124.1 99.904 224 224 224s224-99.904 224-224S380.096 32 256 32zm32 32a24 24 0 0 1 24 24 24 24 0 0 1-24 24 24 24 0 0 1-24-24 24 24 0 0 1 24-24m168 16c97.202 0 176 78.798 176 176s-78.798 176-176 176S80 353.202 80 256 158.798 80 256 80"/><path fill="#fff" d="M56 32s-24 0-24 24v2c0-24 24-24 24-24h200c123.76 0 223.45 99.369 223.99 223 .001-.334.012-.666.012-1 0-124.1-99.904-224-224-224zm55.959 56.836A24 24 0 0 1 88 112a24 24 0 0 1-23.959-22.836A24 24 0 0 0 64 90a24 24 0 0 0 24 24 24 24 0 0 0 24-24 24 24 0 0 0-.041-1.164zm-31.947 168.16c-.002.334-.012.666-.012 1 0 97.202 78.798 176 176 176s176-78.798 176-176c0-.334-.01-.666-.011-1-.54 96.741-79.121 175-175.99 175s-175.45-78.259-175.99-175z" opacity=".5"/></svg>