<svg xmlns="http://www.w3.org/2000/svg" width="512" height="512" enable-background="new" version="1.0"><defs><filter id="a" width="1.045" height="1.051" x="-.023" y="-.025" color-interpolation-filters="sRGB"><feGaussianBlur stdDeviation="4.24"/></filter><filter id="c" color-interpolation-filters="sRGB"><feGaussianBlur stdDeviation="2.4"/></filter><linearGradient id="b" x1="-180" x2="-228" y1="-472" y2="-472" gradientTransform="translate(656)" gradientUnits="userSpaceOnUse"><stop offset="0"/><stop offset="1" stop-opacity="0"/></linearGradient></defs><g transform="translate(-208 870)"><path d="M264-800c-13.296 0-24 10.704-24 24v304c0 13.296 10.704 24 24 24h104v40c0 4.432 3.568 8 8 8h176c4.432 0 8-3.568 8-8v-40h104c13.296 0 24-10.704 24-24v-304c0-13.296-10.704-24-24-24z" filter="url(#a)" opacity=".1"/><path d="M264-800c-13.296 0-24 10.704-24 24v304c0 13.296 10.704 24 24 24h104v40c0 4.432 3.568 8 8 8h176c4.432 0 8-3.568 8-8v-40h104c13.296 0 24-10.704 24-24v-304c0-13.296-10.704-24-24-24z" filter="url(#a)" opacity=".2"/><path d="M264-802c-13.296 0-24 10.704-24 24v304c0 13.296 10.704 24 24 24h104v40c0 4.432 3.568 8 8 8h176c4.432 0 8-3.568 8-8v-40h104c13.296 0 24-10.704 24-24v-304c0-13.296-10.704-24-24-24z" opacity=".2"/><rect width="104" height="192" x="404" y="-560" fill="#b0bec5" ry="8" transform="scale(1 -1)rotate(90)"/><rect width="104" height="192" x="404" y="-560" fill="url(#b)" opacity=".2" ry="8" transform="scale(1 -1)rotate(90)"/><rect width="352" height="448" x="452" y="-688" fill="#cfd8dc" rx="24" ry="24" transform="scale(1 -1)rotate(90)"/><path fill="#fff" d="M264-804c-13.296 0-24 10.704-24 24v2c0-13.296 10.704-24 24-24h400c13.296 0 24 10.704 24 24v-2c0-13.296-10.704-24-24-24z" opacity=".2"/><path fill="none" stroke="#000" stroke-width="2" d="M368-451h192" filter="url(#c)" opacity=".2"/><rect width="256" height="416" x="530" y="-672" fill="#fff" opacity=".5" ry="4" transform="scale(1 -1)rotate(90)"/><rect width="256" height="416" x="532" y="-672" fill="#f44336" ry="4" transform="scale(1 -1)rotate(90)"/><path fill="#fff" d="M384-740v64h32v-64zm128 0v64h32v-64zm-128 96v32h160v-32zm160 32v32h32v-32zm-160 0h-32v32h32z" enable-background="new"/><path d="M260-788c-2.216 0-4 1.784-4 4v2c0-2.216 1.784-4 4-4h408c2.216 0 4 1.784 4 4v-2c0-2.216-1.784-4-4-4z" opacity=".2"/></g></svg>