<svg xmlns="http://www.w3.org/2000/svg" width="512" height="512" enable-background="new" version="1.0"><defs><filter id="d" width="1.042" height="1.055" x="-.021" y="-.028" color-interpolation-filters="sRGB"><feGaussianBlur stdDeviation="4.255"/></filter><filter id="a" width="1.047" height="1.049" x="-.024" y="-.024" color-interpolation-filters="sRGB"><feGaussianBlur stdDeviation="4.72"/></filter><clipPath id="b"><circle cx="464" cy="12" r="208" fill="#e9659e"/></clipPath></defs><g transform="translate(-208 228)"><path d="M263.1-100.91A240 240 0 0 0 224.002 30a240 240 0 0 0 240 240 240 240 0 0 0 240-240 240 240 0 0 0-38.928-130.91z" opacity=".2"/><path d="M464-192a208 208 0 0 0-173.22 93.092h-27.678a240 240 0 0 0-39.098 130.91 240 240 0 0 0 240 240 240 240 0 0 0 240-240 240 240 0 0 0-38.928-130.91h-27.854A208 208 0 0 0 464.002-192z" filter="url(#a)" opacity=".1"/><path d="M464-192a208 208 0 0 0-173.22 93.092h-27.678a240 240 0 0 0-39.098 130.91 240 240 0 0 0 240 240 240 240 0 0 0 240-240 240 240 0 0 0-38.928-130.91h-27.854A208 208 0 0 0 464.002-192z" filter="url(#a)" opacity=".2"/><circle cx="464" cy="12" r="208" fill="#e9659e"/><path fill="#fff" d="M464-196A208 208 0 0 0 256 12a208 208 0 0 0 208 208z" opacity=".2"/><path d="M263.1-102.91A240 240 0 0 0 224.002 28c0 132.55 107.45 240 240 240s240-107.45 240-240a240 240 0 0 0-38.928-130.91z" clip-path="url(#b)" filter="url(#d)" opacity=".2"/><path fill="#fff" d="M464-196A208 208 0 0 0 256 12l.041 1.17A208 208 0 0 1 464.001-194a208 208 0 0 1 207.96 206.83l.041-.83a208 208 0 0 0-208-208z" opacity=".2"/><path fill="#608bbd" d="M263.1-102.91A240 240 0 0 0 224.002 28a240 240 0 0 0 240 240 240 240 0 0 0 240-240 240 240 0 0 0-38.928-130.91z"/><path fill="#fff" d="M536-52a88 88 0 0 1 88 88 88 88 0 0 1-88 88 88 88 0 0 1-72.039-37.533A88 88 0 0 1 392 124a88 88 0 0 1-88-88 88 88 0 0 1 88-88 88 88 0 0 1 72.039 37.533A88 88 0 0 1 536-52"/><path d="M536-52a88 88 0 0 1 88 88 88 88 0 0 1-88 88 88 88 0 0 1-72-37.48V-14.52l.04.053A88 88 0 0 1 536-52z" opacity=".05"/><path fill="#f4de25" fill-rule="evenodd" d="M463.96 54.784c-4.222-.032-8.534 1.348-12.036 4.854l-68.063 51.172c-.395.396-.718.816-1.064 1.23-.096.114-.193.217-.283.333-.923 1.165-1.582 2.403-2.144 3.674-.217.492-.346 1.003-.517 1.513-.332 1.01-.649 2.011-.78 3.042-.11.756-.064 1.51-.064 2.278.007.768-.043 1.522.063 2.278.132 1.031.449 2.032.781 3.042.17.51.3 1.021.517 1.513.562 1.271 1.221 2.509 2.144 3.674.085.116.19.219.283.333.345.415.67.834 1.064 1.23l68.063 68.196c3.503 3.506 7.815 4.887 12.036 4.855V105.86z" color="#000" enable-background="accumulate" style="isolation:auto;mix-blend-mode:normal;text-decoration-color:#000;text-decoration-line:none;text-decoration-style:solid;text-indent:0;text-transform:none;white-space:normal"/><path fill="#ecc200" fill-rule="evenodd" d="M464.04 54.783c4.222-.032 8.534 1.348 12.036 4.855l68.063 51.172c.395.395.718.815 1.064 1.23.096.112.193.217.283.332.923 1.166 1.582 2.403 2.144 3.675.217.492.345 1.003.516 1.512.332 1.01.649 2.012.78 3.043.11.755.064 1.51.064 2.277-.007.769.043 1.522-.063 2.278-.132 1.03-.449 2.032-.781 3.042-.17.51-.3 1.021-.516 1.513-.563 1.272-1.221 2.51-2.144 3.674-.085.116-.19.22-.283.333-.345.415-.67.834-1.064 1.23l-68.063 68.196c-3.503 3.507-7.815 4.887-12.036 4.855V105.86z" color="#000" enable-background="accumulate" style="isolation:auto;mix-blend-mode:normal;text-decoration-color:#000;text-decoration-line:none;text-decoration-style:solid;text-indent:0;text-transform:none;white-space:normal"/><circle cx="532" cy="56" r="20" opacity=".6"/><circle cx="396" cy="56" r="20" opacity=".6"/><path fill="#fff" d="M263.1-102.91A240 240 0 0 0 224.002 28l.043.912a240 240 0 0 1 39.055-129.82h401.97a240 240 0 0 1 38.885 130.07l.043-1.162a240 240 0 0 0-38.928-130.91z" opacity=".2"/></g></svg>