<svg width="512" height="512" enable-background="new" version="1.0" xmlns="http://www.w3.org/2000/svg" xmlns:osb="http://www.openswatchbook.org/uri/2009/osb" xmlns:xlink="http://www.w3.org/1999/xlink">
 <defs>
  <filter id="b" x="-.021273" y="-.027529" width="1.0425" height="1.0551" color-interpolation-filters="sRGB">
   <feGaussianBlur stdDeviation="4.2545455"/>
  </filter>
  <clipPath id="c">
   <circle cx="464" cy="12" r="208" fill="#e9659e"/>
  </clipPath>
  <filter id="a" x="-.0236" y="-.024414" width="1.0472" height="1.0488" color-interpolation-filters="sRGB">
   <feGaussianBlur stdDeviation="4.72"/>
  </filter>
 </defs>
 <g transform="translate(0,212)">
  <g>
   <g transform="translate(-208,16)">
    <g>
     <path d="m263.1-100.91a240 240 0 0 0-39.098 130.91 240 240 0 0 0 240 240 240 240 0 0 0 240-240 240 240 0 0 0-38.928-130.91z" opacity=".2"/>
     <path d="m464-192a208 208 0 0 0-173.22 93.092h-27.678a240 240 0 0 0-39.098 130.91 240 240 0 0 0 240 240 240 240 0 0 0 240-240 240 240 0 0 0-38.928-130.91h-27.854a208 208 0 0 0-173.22-93.092z" filter="url(#a)" opacity=".1"/>
     <path d="m464-192a208 208 0 0 0-173.22 93.092h-27.678a240 240 0 0 0-39.098 130.91 240 240 0 0 0 240 240 240 240 0 0 0 240-240 240 240 0 0 0-38.928-130.91h-27.854a208 208 0 0 0-173.22-93.092z" filter="url(#a)" opacity=".2"/>
    </g>
    <circle cx="464" cy="12" r="208" fill="#e9659e"/>
    <path d="m464-196a208 208 0 0 0-208 208 208 208 0 0 0 208 208z" fill="#fff" opacity=".2"/>
    <path d="m263.1-102.91c-25.44 38.927-39.023 84.406-39.098 130.91 0 132.55 107.45 240 240 240s240-107.45 240-240c-0.0242-46.485-13.548-91.963-38.928-130.91z" clip-path="url(#c)" filter="url(#b)" opacity=".2"/>
    <path d="m464-196a208 208 0 0 0-208 208 208 208 0 0 0 0.041 1.1699 208 208 0 0 1 207.96-207.17 208 208 0 0 1 207.96 206.83 208 208 0 0 0 0.04102-0.83008 208 208 0 0 0-208-208z" fill="#fff" opacity=".2"/>
    <path d="m263.1-102.91a240 240 0 0 0-39.098 130.91 240 240 0 0 0 240 240 240 240 0 0 0 240-240 240 240 0 0 0-38.928-130.91z" fill="#608bbd"/>
    <path d="m536-52a88 88 0 0 1 88 88 88 88 0 0 1-88 88 88 88 0 0 1-72.039-37.533 88 88 0 0 1-71.961 37.533 88 88 0 0 1-88-88 88 88 0 0 1 88-88 88 88 0 0 1 72.039 37.533 88 88 0 0 1 71.961-37.533z" fill="#fff"/>
    <path d="m536-52a88 88 0 0 1 88 88 88 88 0 0 1-88 88 88 88 0 0 1-72-37.48v-101.04a88 88 0 0 1 0.0391 0.05273 88 88 0 0 1 71.961-37.533z" opacity=".05"/>
    <path d="m463.96 54.784c-4.2219-0.03187-8.5336 1.3482-12.036 4.8544l-68.063 51.172c-0.39524 0.39525-0.71825 0.816-1.064 1.2302-0.0957 0.1137-0.19337 0.21676-0.28262 0.33257-0.92332 1.1652-1.5824 2.4028-2.1446 3.6741-0.21675 0.49194-0.34532 1.003-0.51639 1.5129-0.33255 1.0104-0.64918 2.0112-0.78093 3.0423-0.10945 0.75544-0.0638 1.51-0.0638 2.2777 7e-3 0.76819-0.0425 1.5216 0.0638 2.2776 0.13175 1.0317 0.44838 2.0325 0.78093 3.0424 0.17001 0.51 0.29964 1.0211 0.51639 1.5128 0.56207 1.2715 1.2214 2.5089 2.1446 3.6742 0.085 0.11582 0.19018 0.21888 0.28262 0.33256 0.34531 0.41545 0.66938 0.83407 1.064 1.2303l68.063 68.196c3.5028 3.5063 7.8145 4.8872 12.036 4.8545v-102.14z" color="#000000" color-rendering="auto" enable-background="accumulate" fill="#f4de25" fill-rule="evenodd" image-rendering="auto" shape-rendering="auto" solid-color="#000000" style="isolation:auto;mix-blend-mode:normal;text-decoration-color:#000000;text-decoration-line:none;text-decoration-style:solid;text-indent:0;text-transform:none;white-space:normal"/>
    <path d="m464.04 54.783c4.2219-0.03187 8.5336 1.3482 12.036 4.8545l68.063 51.172c0.39525 0.39526 0.71826 0.816 1.064 1.2303 0.0957 0.11263 0.19338 0.21675 0.28263 0.33257 0.92332 1.1654 1.5824 2.4028 2.1447 3.6742 0.21675 0.49194 0.34426 1.003 0.51531 1.5128 0.33257 1.0104 0.6492 2.0112 0.78094 3.0424 0.10944 0.75543 0.0638 1.51 0.0638 2.2776-7e-3 0.76819 0.0424 1.5216-0.0638 2.2777-0.13174 1.0306-0.44837 2.0324-0.78094 3.0423-0.16999 0.51-0.29962 1.0211-0.51531 1.5129-0.56313 1.2714-1.2215 2.5089-2.1447 3.6742-0.085 0.1158-0.19018 0.21887-0.28263 0.33256-0.34531 0.41543-0.66938 0.83407-1.064 1.2302l-68.063 68.196c-3.5028 3.5063-7.8146 4.8872-12.036 4.8545v-102.14z" color="#000000" color-rendering="auto" enable-background="accumulate" fill="#ecc200" fill-rule="evenodd" image-rendering="auto" shape-rendering="auto" solid-color="#000000" style="isolation:auto;mix-blend-mode:normal;text-decoration-color:#000000;text-decoration-line:none;text-decoration-style:solid;text-indent:0;text-transform:none;white-space:normal"/>
    <circle cx="532" cy="56" r="20" opacity=".6"/>
    <circle cx="396" cy="56" r="20" opacity=".6"/>
    <path d="m263.1-102.91a240 240 0 0 0-39.098 130.91 240 240 0 0 0 0.043 0.91211 240 240 0 0 1 39.055-129.82h401.97a240 240 0 0 1 38.885 130.07 240 240 0 0 0 0.04297-1.1621 240 240 0 0 0-38.928-130.91z" fill="#fff" opacity=".2"/>
   </g>
  </g>
 </g>
</svg>
