<svg width="512" height="512" enable-background="new" version="1.0" xmlns="http://www.w3.org/2000/svg">
 <defs>
  <filter id="a" x="-.021429" y="-.027273" width="1.0429" height="1.0545" color-interpolation-filters="sRGB">
   <feGaussianBlur stdDeviation="4.0000085"/>
  </filter>
  <filter id="c" x="-.024" y="-.024" width="1.048" height="1.048" color-interpolation-filters="sRGB">
   <feGaussianBlur stdDeviation="2.56"/>
  </filter>
  <filter id="b" x="-.024" y="-.024" width="1.048" height="1.048" color-interpolation-filters="sRGB">
   <feGaussianBlur stdDeviation="0.64"/>
  </filter>
 </defs>
 <circle cx="428" cy="366.03" r="0" fill="#fff"/>
 <rect x="80" y="64" width="80" height="56" rx="0" ry="8" fill="#fff"/>
 <rect transform="matrix(0,-1,-1,0,-208,228)" x="-208" y="-688" width="352" height="448" rx="24" ry="24" filter="url(#a)" opacity=".1" stroke="#000" stroke-width="8"/>
 <rect transform="matrix(0,-1,-1,0,-208,228)" x="-208" y="-688" width="352" height="448" rx="24" ry="24" filter="url(#a)" opacity=".2"/>
 <rect x="32" y="80" width="448" height="352" ry="24" fill="#333"/>
 <circle cx="256" cy="260" r="128" filter="url(#c)" opacity=".2"/>
 <circle cx="424" cy="136" r="24" fill="#fff"/>
 <path d="m56 434c-13.296 0-24-10.704-24-24v-2c0 13.296 10.704 24 24 24h400c13.296 0 24-10.704 24-24v2c0 13.296-10.704 24-24 24z" opacity=".2"/>
 <path d="m56 80c-13.296 0-24 10.704-24 24v2c0-13.296 10.704-24 24-24h400c13.296 0 24 10.704 24 24v-2c0-13.296-10.704-24-24-24z" fill="#fff" opacity=".2"/>
 <circle cx="256" cy="256" r="128" fill="#fff"/>
 <g transform="matrix(8.439 1.4525e-5 -1.4525e-5 8.439 -1161.7 -1938.2)" stroke-width="10.4">
  <path transform="matrix(.096154 -1.655e-7 1.655e-7 .096154 143.38 235.39)" d="m283.06 271.57-27.021 15.6h-124.06a128 128 0 0 0 124.02 96.826 128 128 0 0 0 1.6758-0.0586z" fill="#3f51b5"/>
  <path transform="matrix(.096154 -1.655e-7 1.655e-7 .096154 143.38 235.39)" d="m256 128a128 128 0 0 0-1.6016 0.0566l-25.377 112.32 27.021-15.602 123.97 2e-3a128 128 0 0 0-124.01-96.775z" fill="#ff5722"/>
  <path transform="matrix(.096154 -1.655e-7 1.655e-7 .096154 143.38 235.39)" d="m166.94 164.08a128 128 0 0 0-38.939 91.924 128 128 0 0 0 18.105 65.346l109.92-34.172-27.02-15.6z" fill="#9c27b0"/>
  <path transform="matrix(.096154 -1.655e-7 1.655e-7 .096154 143.38 235.39)" d="m365.89 190.65-109.83 34.146 27.02 15.6 62.049 107.47a128 128 0 0 0 38.869-91.863 128 128 0 0 0-18.107-65.352z" fill="#f9ce1d"/>
  <path transform="matrix(.096154 -1.655e-7 1.655e-7 .096154 143.38 235.39)" d="m283.02 240.39v31.201l-62.016 107.41a128 128 0 0 0 34.992 4.9922 128 128 0 0 0 111.61-65.465z" fill="#4caf50"/>
  <path transform="matrix(.096154 -1.655e-7 1.655e-7 .096154 143.38 235.39)" d="m256 128a128 128 0 0 0-111.61 65.451l84.59 78.143v-31.201l62.008-107.4a128 128 0 0 0-34.992-4.9922z" fill="#f44336"/>
 </g>
 <circle cx="256" cy="260" r="32" filter="url(#b)" opacity=".2"/>
 <circle cx="256" cy="256" r="32" fill="#fff"/>
 <path d="m256 152a104 104 0 0 0-104 104 104 104 0 0 0 0.125 3.5176 104 104 0 0 1 103.88-101.52 104 104 0 0 1 103.88 100.48 104 104 0 0 0 0.125-2.4824 104 104 0 0 0-104-104z" opacity=".1"/>
</svg>
