<svg xmlns="http://www.w3.org/2000/svg" width="512" height="512" enable-background="new" version="1.0"><defs><filter id="a" width="1.043" height="1.054" x="-.021" y="-.027" color-interpolation-filters="sRGB"><feGaussianBlur stdDeviation="4"/></filter><filter id="b" width="1.048" height="1.048" x="-.024" y="-.024" color-interpolation-filters="sRGB"><feGaussianBlur stdDeviation="2.56"/></filter><filter id="d" width="1.048" height="1.048" x="-.024" y="-.024" color-interpolation-filters="sRGB"><feGaussianBlur stdDeviation=".64"/></filter></defs><rect width="80" height="56" x="80" y="64" fill="#fff" rx="0" ry="8"/><rect width="352" height="448" x="-208" y="-688" stroke="#000" stroke-width="8" filter="url(#a)" opacity=".1" rx="24" ry="24" transform="matrix(0 -1 -1 0 -208 228)"/><rect width="352" height="448" x="-208" y="-688" filter="url(#a)" opacity=".2" rx="24" ry="24" transform="matrix(0 -1 -1 0 -208 228)"/><rect width="448" height="352" x="32" y="80" fill="#333" ry="24"/><circle cx="256" cy="260" r="128" filter="url(#b)" opacity=".2"/><circle cx="424" cy="136" r="24" fill="#fff"/><path d="M56 434c-13.296 0-24-10.704-24-24v-2c0 13.296 10.704 24 24 24h400c13.296 0 24-10.704 24-24v2c0 13.296-10.704 24-24 24z" opacity=".2"/><path fill="#fff" d="M56 80c-13.296 0-24 10.704-24 24v2c0-13.296 10.704-24 24-24h400c13.296 0 24 10.704 24 24v-2c0-13.296-10.704-24-24-24z" opacity=".2"/><circle cx="256" cy="256" r="128" fill="#fff"/><g stroke-width="10.4"><path fill="#3f51b5" d="m277.968 268.622-21.926 12.659H155.374a103.865 103.865 0 0 0 100.635 78.568 104 104 0 0 0 1.36-.047z"/><path fill="#ff5722" d="M256.01 152.123a104 104 0 0 0-1.3.046l-20.592 91.141 21.926-12.66 100.595.002a103.865 103.865 0 0 0-100.627-78.528z"/><path fill="#9c27b0" d="M183.743 181.4a103.87 103.87 0 0 0-31.597 74.591 103.87 103.87 0 0 0 14.691 53.025l89.194-27.729-21.925-12.658z"/><path fill="#f9ce1d" d="m345.18 202.96-89.121 27.708 21.925 12.658 50.35 87.206a103.87 103.87 0 0 0 31.54-74.542 103.87 103.87 0 0 0-14.694-53.03z"/><path fill="#4caf50" d="M277.935 243.321v25.318l-50.322 87.157a103.9 103.9 0 0 0 28.394 4.051 103.87 103.87 0 0 0 90.565-53.121z"/><path fill="#f44336" d="M256.01 152.123a103.87 103.87 0 0 0-90.565 53.11l68.64 63.409v-25.318l50.316-87.15a103.9 103.9 0 0 0-28.394-4.05z"/></g><circle cx="256" cy="260" r="32" filter="url(#d)" opacity=".2"/><circle cx="256" cy="256" r="32" fill="#fff"/><path d="M256 152a104 104 0 0 0-104 104 104 104 0 0 0 .125 3.518 104 104 0 0 1 103.88-101.52 104 104 0 0 1 103.88 100.48 104 104 0 0 0 .125-2.483 104 104 0 0 0-104-104z" opacity=".1"/></svg>