<svg xmlns="http://www.w3.org/2000/svg" width="512" height="512" enable-background="new" version="1.0"><defs><filter id="a" width="1.048" height="1.048" x="-.024" y="-.024" color-interpolation-filters="sRGB"><feGaussianBlur stdDeviation="4.8"/></filter><filter id="b" width="1.048" height="1.048" x="-.024" y="-.024" color-interpolation-filters="sRGB"><feGaussianBlur stdDeviation="4.8"/></filter></defs><circle cx="256" cy="260" r="240" filter="url(#a)" opacity=".2"/><circle cx="256" cy="258" r="240" opacity=".2"/><circle cx="256" cy="260" r="240" stroke="#000" stroke-width="8" filter="url(#b)" opacity=".1"/><path fill="#ccc" d="M256 16C123.45 16 16 123.45 16 256a240 240 0 0 0 48 143.59L124 374c97.538-41.6 22.961-83 129-83s41.386 62.688 143 93l52 15.512a240 240 0 0 0 48-143.51c0-132.55-107.45-240-240-240z"/><path fill="#fff" d="M256 16C123.45 16 16 123.45 16 256q.019.585.041 1.172c.456-132.21 107.75-239.15 239.96-239.17 132.08.02 239.31 106.75 239.96 238.83l.041-.828c0-132.55-107.45-240-240-240z" opacity=".2"/><g stroke-width="16"><circle cx="156" cy="284" r="72" fill="#6d4c41"/><circle cx="356" cy="284" r="72" fill="#6d4c41"/><path fill="#fff" d="M208 432h48v72h-48z"/><path fill="#f2f2f2" d="M256 424h48v80h-48z"/><path fill="#6d4c41" d="M209.6 381.6c-22.082-.669-33.635 36.294-33.635 58.384s17.909 40 40 40c20.363 0 39.731-17.778 39.731-17.778h.565s19.352 17.754 39.706 17.778c22.09 0 40-17.909 40-40s-10.848-54.888-32.93-55.557z"/><path fill="#3e2723" d="M302.08 380c4.713 20.688-26.118 44-46 44s-51.72-23.066-47-44c3.617-16.043 27.118-15 47-15s42.418-.725 46 15"/></g><g stroke-width="1.75"><circle cx="168.06" cy="328.39" r="40.002" fill="#fefefe"/><circle cx="-160.06" cy="320.34" r="16.001" fill="#333" transform="scale(-1 1)"/><circle cx="344.06" cy="328.39" r="40.002" fill="#fefefe"/><circle cx="-336.06" cy="320.34" r="16.001" fill="#333" transform="scale(-1 1)"/></g><circle cx="152" cy="280" r="72" fill="#6d4c41"/><circle cx="360" cy="280" r="72" fill="#6d4c41"/><path fill="#a1887f" d="M256 192c-106.04 0-192 85.962-192 192v15.59c45.239 60.588 116.39 96.313 192 96.41 75.628-.115 146.78-35.871 192-96.488V384c0-106.04-85.962-192-192-192"/><path fill="#fff" d="M208 432h48v72h-48z"/><path fill="#f2f2f2" d="M256 424h48v80h-48z"/><path fill="#6d4c41" d="M209.64 381.62c-22.081-.668-33.636 36.294-33.636 58.385s17.909 40 40 40c20.363 0 39.731-17.778 39.731-17.778h.565s19.352 17.754 39.705 17.778c22.09 0 40-17.909 40-40s-10.848-54.888-32.93-55.556z"/><path fill="#3e2723" d="M302 380c4.713 20.688-26.118 44-46 44s-51.72-23.065-47-44c3.617-16.043 27.118-15 47-15s42.418-.725 46 15"/><g stroke-width="1.75"><circle cx="168" cy="328.07" r="40" fill="#fefefe"/><circle cx="-160.01" cy="320.02" r="16" fill="#333" transform="scale(-1 1)"/><circle cx="344" cy="328.07" r="40" fill="#fefefe"/><circle cx="-336.01" cy="320.02" r="16" fill="#333" transform="scale(-1 1)"/></g></svg>