<svg width="512" height="512" enable-background="new" version="1.0" xmlns="http://www.w3.org/2000/svg">
 <title>Paper Icon Theme</title>
 <defs>
  <filter id="c" x="-.024" y="-.024" width="1.048" height="1.048" color-interpolation-filters="sRGB">
   <feGaussianBlur stdDeviation="4.8"/>
  </filter>
  <filter id="b" x="-.024" y="-.024" width="1.048" height="1.048" color-interpolation-filters="sRGB">
   <feGaussianBlur stdDeviation="4.8"/>
  </filter>
 </defs>
 <circle cx="256" cy="260" r="240" filter="url(#c)" opacity=".2"/>
 <circle cx="256" cy="258" r="240" opacity=".2"/>
 <circle cx="256" cy="260" r="240" filter="url(#b)" opacity=".1" stroke="#000" stroke-width="8"/>
 <path d="m256 16c-132.55 0-240 107.45-240 240 0.0886 51.788 16.927 102.16 48 143.59l60-25.59c97.538-41.6 22.961-83 129-83s41.386 62.688 143 93l52 15.512c31.057-41.409 47.895-91.75 48-143.51 0-132.55-107.45-240-240-240z" fill="#ccc"/>
 <path d="m256 16c-132.55 0-240 107.45-240 240 0.01271 0.39066 0.02638 0.78129 0.041 1.1719 0.45619-132.21 107.75-239.15 239.96-239.17 132.08 0.021 239.31 106.75 239.96 238.83 0.01415-0.27602 0.02782-0.55206 0.04102-0.82812 0-132.55-107.45-240-240-240z" fill="#fff" opacity=".2"/>
 <g stroke-width="16">
  <circle cx="156" cy="284" r="72" fill="#6d4c41"/>
  <circle cx="356" cy="284" r="72" fill="#6d4c41"/>
  <rect x="208" y="432" width="48" height="72" fill="#fff"/>
  <rect x="256" y="424" width="48" height="80" fill="#f2f2f2"/>
  <path d="m209.6 381.6c-22.082-0.6688-33.635 36.294-33.635 58.384s17.909 40 40 40c20.363 0 39.731-17.778 39.731-17.778h0.5648s19.352 17.754 39.706 17.778c22.091 0 40-17.909 40-40s-10.848-54.888-32.93-55.557z" fill="#6d4c41"/>
  <path d="m302.08 380c4.713 20.688-26.118 44-46 44s-51.72-23.066-47-44c3.617-16.043 27.118-15 47-15s42.418-0.7248 46 15z" fill="#3e2723"/>
 </g>
 <g stroke-width="1.7501">
  <circle cx="168.06" cy="328.39" r="40.002" fill="#fefefe"/>
  <circle transform="scale(-1,1)" cx="-160.06" cy="320.34" r="16.001" fill="#333"/>
  <circle cx="344.06" cy="328.39" r="40.002" fill="#fefefe"/>
  <circle transform="scale(-1,1)" cx="-336.06" cy="320.34" r="16.001" fill="#333"/>
 </g>
 <circle cx="152" cy="280" r="72" fill="#6d4c41"/>
 <circle cx="360" cy="280" r="72" fill="#6d4c41"/>
 <path d="m256 192c-106.04 0-192 85.962-192 192v15.59c45.239 60.588 116.39 96.313 192 96.41 75.628-0.11509 146.78-35.871 192-96.488v-15.512c0-106.04-85.962-192-192-192z" fill="#a1887f" stroke-width="16"/>
 <rect x="208" y="432" width="48" height="72" fill="#fff"/>
 <rect x="256" y="424" width="48" height="80" fill="#f2f2f2"/>
 <path d="m209.64 381.62c-22.081-0.66848-33.636 36.294-33.636 58.385s17.909 40 40 40c20.363 0 39.731-17.778 39.731-17.778h0.5648s19.352 17.754 39.705 17.778c22.091 0 40-17.909 40-40s-10.848-54.888-32.929-55.556z" fill="#6d4c41"/>
 <path d="m302 380c4.713 20.688-26.118 44-46 44s-51.72-23.065-47-44c3.617-16.043 27.118-15 47-15s42.418-0.7248 46 15z" fill="#3e2723"/>
 <g stroke-width="1.75">
  <circle cx="168" cy="328.07" r="40" fill="#fefefe"/>
  <circle transform="scale(-1,1)" cx="-160.01" cy="320.02" r="16" fill="#333"/>
  <circle cx="344" cy="328.07" r="40" fill="#fefefe"/>
  <circle transform="scale(-1,1)" cx="-336.01" cy="320.02" r="16" fill="#333"/>
 </g>
</svg>
