<svg xmlns="http://www.w3.org/2000/svg" width="512" height="512" enable-background="new" version="1.0"><defs><filter id="a" width="1.05" height="1.046" x="-.025" y="-.023" color-interpolation-filters="sRGB"><feGaussianBlur stdDeviation=".127"/></filter><filter id="b" width="1.25" height="1.23" x="-.125" y="-.115" color-interpolation-filters="sRGB"><feGaussianBlur stdDeviation="15.076"/></filter></defs><g color="#000"><path d="M276.03-194c-11.062-.006-20.032 8.92-20.026 19.928v408.12c-.004 15.14 16.298 24.749 29.639 17.47l375.96-204.06c13.87-7.557 13.87-27.383 0-34.94l-338.38-183.67-37.582-20.393a20.1 20.1 0 0 0-9.613-2.458z" enable-background="accumulate" opacity=".2" style="isolation:auto;mix-blend-mode:normal;text-decoration-color:#000;text-decoration-line:none;text-decoration-style:solid;text-indent:0;text-transform:none;white-space:normal" transform="translate(-208 228)"/><path d="M303.96 10.414a.59.59 0 0 0-.59.586v12c0 .445.48.728.873.514l11.076-6a.584.584 0 0 0 0-1.028l-9.968-5.4-1.108-.6a.6.6 0 0 0-.283-.072z" enable-background="accumulate" filter="url(#a)" opacity=".2" style="isolation:auto;mix-blend-mode:normal;text-decoration-color:#000;text-decoration-line:none;text-decoration-style:solid;text-indent:0;text-transform:none;white-space:normal" transform="matrix(33.944 0 0 34.01 -10250 -318.18)"/><path d="M303.96 10.414a.59.59 0 0 0-.59.586v12c0 .445.48.728.873.514l11.076-6a.584.584 0 0 0 0-1.028l-9.968-5.4-1.108-.6a.6.6 0 0 0-.283-.072z" enable-background="accumulate" filter="url(#a)" opacity=".1" style="isolation:auto;mix-blend-mode:normal;text-decoration-color:#000;text-decoration-line:none;text-decoration-style:solid;text-indent:0;text-transform:none;white-space:normal" transform="matrix(33.944 0 0 34.01 -10250 -318.18)"/><path fill="#3f3f3f" d="M276.03-196c-11.062-.006-20.032 8.92-20.026 19.928v408.12c-.004 15.14 16.298 24.749 29.639 17.47l375.96-204.06c13.87-7.557 13.87-27.383 0-34.94l-338.38-183.67-37.582-20.393a20.1 20.1 0 0 0-9.613-2.458z" enable-background="accumulate" style="isolation:auto;mix-blend-mode:normal;text-decoration-color:#000;text-decoration-line:none;text-decoration-style:solid;text-indent:0;text-transform:none;white-space:normal" transform="translate(-208 228)"/><path d="M303.96-126.98V31.93l95.998-52.109 92.42 50.166-188.42 102.28v54.688l289.12-156.96z" enable-background="accumulate" opacity=".5" style="isolation:auto;mix-blend-mode:normal;text-decoration-color:#000;text-decoration-line:none;text-decoration-style:solid;text-indent:0;text-transform:none;white-space:normal" transform="translate(-208 228)"/><path fill="#3aff00" d="M303.96-126.98V31.93l95.998-52.109 92.42 50.166-188.42 102.28v54.688l289.12-156.96z" enable-background="accumulate" filter="url(#b)" style="isolation:auto;mix-blend-mode:normal;text-decoration-color:#000;text-decoration-line:none;text-decoration-style:solid;text-indent:0;text-transform:none;white-space:normal" transform="translate(-208 228)"/><path fill="#86e914" d="M303.96-128.98V29.93l95.998-52.109 92.42 50.166-188.42 102.28v54.688l289.12-156.96z" enable-background="accumulate" style="isolation:auto;mix-blend-mode:normal;text-decoration-color:#000;text-decoration-line:none;text-decoration-style:solid;text-indent:0;text-transform:none;white-space:normal" transform="translate(-208 228)"/><path fill="#fff" d="M276.03-196c-11.062-.006-20.031 8.92-20.025 19.928v2c-.006-11.008 8.963-19.934 20.025-19.928 3.361.003 6.67.848 9.613 2.457l37.582 20.395 338.38 183.67c6.598 3.595 10.05 9.965 10.371 16.471.355-7.171-3.098-14.508-10.37-18.471l-338.38-183.67-37.583-20.395A20.1 20.1 0 0 0 276.03-196" enable-background="accumulate" opacity=".2" style="isolation:auto;mix-blend-mode:normal;text-decoration-color:#000;text-decoration-line:none;text-decoration-style:solid;text-indent:0;text-transform:none;white-space:normal" transform="translate(-208 228)"/><path fill="#fff" d="M303.96-128.98v2L591.24 28.98l1.842-1zM490.54 28.98 303.96 130.26v2l84.053-45.627 104.37-56.65z" enable-background="accumulate" opacity=".5" style="isolation:auto;mix-blend-mode:normal;text-decoration-color:#000;text-decoration-line:none;text-decoration-style:solid;text-indent:0;text-transform:none;white-space:normal" transform="translate(-208 228)"/></g></svg>