<svg xmlns="http://www.w3.org/2000/svg" width="512" height="512" enable-background="new" version="1.0"><defs><filter id="a" width="1.048" height="1.048" x="-.024" y="-.024" color-interpolation-filters="sRGB"><feGaussianBlur stdDeviation="4.48"/></filter></defs><g transform="translate(-208 228)"><g transform="scale(1 -1)rotate(90)"><rect width="448" height="448" x="-254" y="-688" opacity=".2" rx="36" ry="36"/><rect width="448" height="448" x="-256" y="-688" filter="url(#a)" opacity=".1" rx="36" ry="36"/><rect width="448" height="448" x="-256" y="-688" filter="url(#a)" opacity=".2" rx="36" ry="36"/></g><rect width="448" height="448" x="-252" y="-688" fill="#666" rx="36" ry="36" transform="scale(1 -1)rotate(90)"/><path fill="#fff" d="M276-196c-19.944 0-36 16.056-36 36v2c0-19.944 16.056-36 36-36h376c19.944 0 36 16.056 36 36v-2c0-19.944-16.056-36-36-36z" opacity=".2"/><path fill="#f2f2f2" d="M464-100c70.692 0 128 57.308 128 128 0 50.093-29.077 92.977-71 114l-28.5-56.938C513.485 74.558 528 53.063 528 28c0-35.346-28.654-64-64-64s-64 28.654-64 64h64l-57 114c-41.923-21.023-71-63.907-71-114 0-70.692 57.308-128 128-128" enable-background="new"/></g></svg>