<svg width="512" height="512" enable-background="new" version="1.0" xmlns="http://www.w3.org/2000/svg" xmlns:osb="http://www.openswatchbook.org/uri/2009/osb" xmlns:xlink="http://www.w3.org/1999/xlink">
 <defs>
  <filter id="a" x="-.02884" y="-.020551" width="1.0577" height="1.0411" color-interpolation-filters="sRGB">
   <feGaussianBlur stdDeviation="4.1102415"/>
  </filter>
 </defs>
 <g transform="translate(0,212)">
  <g>
   <g transform="translate(-208,16)">
    <path d="m435.03 269.48c-48.92-8.824-90.138-35.573-116.36-75.513-32.627-49.699-34.278-116.14-4.4302-178.34 12.723-26.515 23.321-42.606 63.248-96.035 37.446-50.109 62.922-87.369 77.547-113.42 4.5995-8.1934 8.9074-14.56 9.573-14.149 0.666 0.4116 6.9449 10.283 13.954 21.938s23.373 36.834 36.366 55.955c59.169 87.082 78.497 116.39 87.597 132.85 31.331 56.654 38.995 96.57 27.324 142.32-6.4554 25.307-15.871 43.608-33.583 65.276-37.657 46.067-102.27 69.76-161.24 59.124z" filter="url(#a)" opacity=".1"/>
    <path d="m435.03 269.48c-48.92-8.824-90.138-35.573-116.36-75.513-32.627-49.699-34.278-116.14-4.4302-178.34 12.723-26.515 23.321-42.606 63.248-96.035 37.446-50.109 62.922-87.369 77.547-113.42 4.5995-8.1934 8.9074-14.56 9.573-14.149 0.666 0.4116 6.9449 10.283 13.954 21.938s23.373 36.834 36.366 55.955c59.169 87.082 78.497 116.39 87.597 132.85 31.331 56.654 38.995 96.57 27.324 142.32-6.4554 25.307-15.871 43.608-33.583 65.276-37.657 46.067-102.27 69.76-161.24 59.124z" filter="url(#a)" opacity=".2"/>
    <path transform="translate(0,-244)" d="m464.45 32.02c-1.0386 0.39045-5.0942 6.4672-9.4062 14.148-14.626 26.053-40.1 63.313-77.547 113.42-39.928 53.429-50.525 69.52-63.248 96.035-14.225 29.645-21.278 60.251-21.25 89.551 0.28873-28.691 7.3484-58.58 21.25-87.551 12.723-26.515 23.32-42.606 63.248-96.035 37.446-50.109 62.921-87.369 77.547-113.42 4.5995-8.1934 8.9086-14.56 9.5742-14.148 0.666 0.4116 6.9442 10.283 13.953 21.938s23.373 36.834 36.365 55.955c59.169 87.082 78.497 116.39 87.598 132.85 22.122 40.002 32.432 71.659 32.48 102.92 0.3969-31.912-9.8864-64.063-32.48-104.92-9.1009-16.456-28.428-45.768-87.598-132.85-12.992-19.121-29.356-44.301-36.365-55.955s-13.287-21.526-13.953-21.938c-0.0416-0.02572-0.0987-0.02603-0.16797 0z" fill="#fff" opacity=".1"/>
    <path d="m435.03 265.48c-48.92-8.824-90.138-35.573-116.36-75.513-32.627-49.699-34.278-116.14-4.4302-178.34 12.723-26.515 23.321-42.606 63.248-96.035 37.446-50.109 62.922-87.369 77.547-113.42 4.5995-8.1934 8.9074-14.56 9.573-14.149 0.666 0.4116 6.9449 10.283 13.954 21.938s23.373 36.834 36.366 55.955c59.169 87.082 78.497 116.39 87.597 132.85 31.331 56.654 38.995 96.57 27.324 142.32-6.4554 25.307-15.871 43.608-33.583 65.276-37.657 46.067-102.27 69.76-161.24 59.124z" fill="#4477b0"/>
    <path d="m419.87-32.309c-45.699 8.34-87.89 38.043-109.91 79.172-20.438 38.999-18.849 87.544-0.50562 126.97 34.134 70.073 120.09 108.82 195.33 89.114 57.933-13.542 107.88-59.235 123.75-116.92-69.024 58.663-187.38 26.276-217.01-59.293-15.16-38.349-11.991-83.177 8.3546-119.04z" fill="#fff" opacity=".5"/>
   </g>
  </g>
 </g>
</svg>
