<svg xmlns="http://www.w3.org/2000/svg" width="512" height="512" enable-background="new" version="1.0"><defs><filter id="a" width="1.058" height="1.041" x="-.029" y="-.021" color-interpolation-filters="sRGB"><feGaussianBlur stdDeviation="4.11"/></filter></defs><path d="M435.03 269.48c-48.92-8.824-90.138-35.573-116.36-75.513-32.627-49.699-34.278-116.14-4.43-178.34 12.723-26.515 23.32-42.606 63.248-96.035 37.446-50.109 62.922-87.369 77.547-113.42 4.6-8.193 8.907-14.56 9.573-14.149s6.945 10.283 13.954 21.938 23.373 36.834 36.366 55.955c59.169 87.082 78.497 116.39 87.597 132.85 31.33 56.654 38.995 96.57 27.324 142.32-6.456 25.307-15.871 43.608-33.583 65.276-37.657 46.067-102.27 69.76-161.24 59.124z" filter="url(#a)" opacity=".1" transform="translate(-208 228)"/><path d="M435.03 269.48c-48.92-8.824-90.138-35.573-116.36-75.513-32.627-49.699-34.278-116.14-4.43-178.34 12.723-26.515 23.32-42.606 63.248-96.035 37.446-50.109 62.922-87.369 77.547-113.42 4.6-8.193 8.907-14.56 9.573-14.149s6.945 10.283 13.954 21.938 23.373 36.834 36.366 55.955c59.169 87.082 78.497 116.39 87.597 132.85 31.33 56.654 38.995 96.57 27.324 142.32-6.456 25.307-15.871 43.608-33.583 65.276-37.657 46.067-102.27 69.76-161.24 59.124z" filter="url(#a)" opacity=".2" transform="translate(-208 228)"/><path fill="#fff" d="M256.45 16.02c-1.039.39-5.094 6.467-9.406 14.148-14.626 26.053-40.1 63.313-77.547 113.42-39.928 53.429-50.525 69.52-63.248 96.035-14.225 29.645-21.278 60.251-21.25 89.551.289-28.691 7.348-58.58 21.25-87.551 12.723-26.515 23.32-42.606 63.248-96.035 37.446-50.109 62.92-87.369 77.547-113.42 4.6-8.193 8.908-14.56 9.574-14.148s6.944 10.283 13.953 21.938 23.373 36.834 36.365 55.955c59.169 87.082 78.497 116.39 87.598 132.85 22.122 40.002 32.432 71.659 32.48 102.92.397-31.912-9.886-64.063-32.48-104.92-9.1-16.456-28.428-45.768-87.598-132.85-12.992-19.121-29.356-44.301-36.365-55.955s-13.287-21.526-13.953-21.938q-.064-.039-.168 0" opacity=".1"/><path fill="#4477b0" d="M227.03 493.48c-48.92-8.824-90.138-35.573-116.36-75.513-32.627-49.699-34.278-116.14-4.43-178.34 12.723-26.515 23.32-42.606 63.248-96.035 37.446-50.109 62.922-87.369 77.547-113.42 4.6-8.193 8.907-14.56 9.573-14.149s6.945 10.283 13.954 21.938 23.373 36.834 36.366 55.955c59.169 87.082 78.497 116.39 87.597 132.85 31.33 56.654 38.995 96.57 27.324 142.32-6.456 25.307-15.871 43.608-33.583 65.276-37.657 46.067-102.27 69.76-161.24 59.124z"/><path fill="#fff" d="M211.87 195.691c-45.699 8.34-87.89 38.043-109.91 79.172-20.438 38.999-18.849 87.544-.506 126.97 34.134 70.073 120.09 108.82 195.33 89.114 57.933-13.542 107.88-59.235 123.75-116.92-69.024 58.663-187.38 26.276-217.01-59.293-15.16-38.349-11.99-83.177 8.355-119.04z" opacity=".5"/></svg>