<svg xmlns="http://www.w3.org/2000/svg" width="512" height="512" enable-background="new" version="1.0"><defs><filter id="a" width="1.048" height="1.048" x="-.024" y="-.024" color-interpolation-filters="sRGB"><feGaussianBlur stdDeviation="4.8"/></filter></defs><circle cx="256" cy="260" r="240" filter="url(#a)" opacity=".1"/><circle cx="256" cy="260" r="240" filter="url(#a)" opacity=".2"/><circle cx="256" cy="256" r="240" fill="#0087ed"/><path fill="#fff" d="M256 16A240 240 0 0 0 16 256l.041 1.172A240 240 0 0 1 256 18a240 240 0 0 1 239.959 238.828L496 256A240 240 0 0 0 256 16" opacity=".2"/><path fill="#fff" fill-rule="evenodd" d="m278.3 116-48.634 3.472v193.74l48.634-5.918v-84.572c21.093 31.837 38.021 61.461 66.289 92.241l50.386-14.48a658 658 0 0 1-65.495-88.771c19.11-28.202 43.079-56.536 66.487-81.861l-52.204-12.828a832.5 832.5 0 0 0-65.462 84.374m-110.82-45.625a3.97 3.97 0 0 0-2.15 1.124c-5.719 5.422-11.141 10.844-16.86 16.266-2.48 2.413.07 5.29 1.157 7.273l11.572 16.002 8.662 11.671c1.223 1.653 1.587 1.852.959 3.042a76 76 0 0 0-2.15 3.471c-11.24 18.911-3.371 20.366-27.44 26.482l-18.481 3.075c-2.711.893-6.282.827-6.48 4.629 0 7.604-.231 15.208-.231 22.813-.132 3.537 3.802 3.868 6.116 4.463l19.64 3.405 14.711 2.678c1.984.265 2.447-.198 2.91 1.323 6.017 25.358 13.886 19.506.76 41.724l-10.58 14.712c-1.389 2.546-3.968 5.058-1.323 7.637 5.555 5.521 10.877 11.076 16.465 16.597 2.48 2.414 5.654-.07 7.67-1.157l16.267-11.307 12.167-8.166c1.653-1.389 1.884-1.72 3.14-.992 24.368 14.91 25.227 4.166 32.335 29.227l3.504 17.952c.926 2.645.992 6.116 4.728 6.282h23.705c3.538 0 3.868-4.067 4.298-6.282l3.306-19.11 2.38-14.117c.166-1.356.1-2.05.364-2.513 28.565-5.885 21.49-14.15 44.7-.958l15.076 10.315c2.778 1.355 5.423 3.736 8.068 1.19 5.587-5.29 11.142-10.613 16.762-15.87 2.512-2.546.035-5.455-1.158-7.406h-.231l-10.977-15.076-7.241 2.447c-1.851 1.223-4.298.76-6.513-2.083l-15.87-20.432a81.73 81.73 0 0 1-65.892 32.863c-44.666 0-81.167-35.508-81.167-79.018 0-30.946 18.415-57.726 45.096-70.686v-18.184c-.893.462-1.984.694-2.711.991-10.448 4.2-11.11 6.117-28.202-3.438l-15.076-10.48c-2.116-.927-3.968-2.646-5.885-2.183m51.775 40.633a72.83 72.83 0 0 0-38.087 63.578c0 40.104 33.624 72.934 74.984 72.934 25.557 0 47.973-12.63 61.495-31.805l-.727-1.554c-15.87 17.126-33.756 28.235-61 28.83-33.92.595-68.272-28.83-68.437-67.61-.298-24.996 11.572-41.79 31.739-53.792v-10.514"/></svg>