<svg xmlns="http://www.w3.org/2000/svg" width="512" height="512" enable-background="new" version="1.0"><defs><filter id="b" width="1.136" height="1.107" x="-.068" y="-.054" color-interpolation-filters="sRGB"><feGaussianBlur stdDeviation=".34"/></filter><filter id="a" width="1.045" height="1.051" x="-.023" y="-.025" color-interpolation-filters="sRGB"><feGaussianBlur stdDeviation="4.24"/></filter></defs><path d="M264-160c-13.296 0-24 10.704-24 24v352c0 13.296 10.704 24 24 24h400c13.296 0 24-10.704 24-24v-352c0-13.296-10.704-24-24-24z" filter="url(#a)" opacity=".1" transform="translate(-208 228)"/><path d="M264-160c-13.296 0-24 10.704-24 24v352c0 13.296 10.704 24 24 24h400c13.296 0 24-10.704 24-24v-352c0-13.296-10.704-24-24-24z" filter="url(#a)" opacity=".2" transform="translate(-208 228)"/><path d="M56 66c-13.296 0-24 10.704-24 24v352c0 13.296 10.704 24 24 24h400c13.296 0 24-10.704 24-24V90c0-13.296-10.704-24-24-24z" opacity=".2"/><path fill="#4d4d4d" d="M56 64c-13.296 0-24 10.704-24 24v24h448V88c0-13.296-10.704-24-24-24z"/><path fill="#03a9f4" d="M32 112v328c0 13.296 10.704 24 24 24h400c13.296 0 24-10.704 24-24V112z"/><path d="M32 438v2c0 13.296 10.704 24 24 24h400c13.296 0 24-10.704 24-24v-2c0 13.296-10.704 24-24 24H56c-13.296 0-24-10.704-24-24" opacity=".2"/><path fill="#fff" d="M56 64c-13.296 0-24 10.704-24 24v2c0-13.296 10.704-24 24-24h400c13.296 0 24 10.704 24 24v-2c0-13.296-10.704-24-24-24z" opacity=".1"/><path fill="none" d="M264 231.9h192v192H264z" color="#000"/><path d="M683-274.32v12.667c0 1 1 1 1 1h10c1 0 1-1 1-1 .019-.046.005-7.12 0-9.667l-4-4h-7s-1 0-1 1z" filter="url(#b)" opacity=".1" transform="matrix(12 0 0 12 -7908 3555.9)"/><path fill="#eee" d="M288 260.016V412.02c0 12 12 12 12 12h120c12 0 12-12 12-12 .226-.553.06-85.435 0-116l-48-48h-84s-12 0-12 12z"/><path fill="#fff" d="M432.12 296.1 384 247.98v36.115c0 12 12 12 12 12z"/></svg>