<svg xmlns="http://www.w3.org/2000/svg" width="512" height="512" enable-background="new" version="1.0"><defs><filter id="a" width="1.048" height="1.048" x="-.024" y="-.024" color-interpolation-filters="sRGB"><feGaussianBlur stdDeviation="4.8"/></filter></defs><circle cx="256" cy="260" r="240" filter="url(#a)" opacity=".1"/><circle cx="256" cy="260" r="240" filter="url(#a)" opacity=".2"/><circle cx="256" cy="256" r="240" fill="#0087ed"/><path fill="#fff" d="M256 16A240 240 0 0 0 16 256l.041 1.172A240 240 0 0 1 256 18a240 240 0 0 1 239.959 238.828L496 256A240 240 0 0 0 256 16" opacity=".2"/><path fill="#fff" d="M345.2 116c-55.292 0-65.643 83.997-34.558 83.997S400.492 116 345.2 116m-87.767 9.524c-31.614 4.465-20.503 64.023-3.638 65.147 16.8 1.091 35.285-69.578 3.638-65.147m-57.21 18.52a19.4 19.4 0 0 0-5.192 1.322c-29.597 11.244-4.497 57.607 12.103 54.499 15.543-2.943 17.328-58.17-6.878-55.788zm-38.89 37.301a15.7 15.7 0 0 0-8.565 2.447c-24.339 14.352 8.201 49.01 22.487 43.652 12.566-4.729 4.564-45.57-13.922-46.132zm113.49 28.01c-43.553-.793-101.03 22.09-110.82 67.991-10.615 49.704 43.685 118.65 100.37 118.65 27.878 0 60.021-26.356 66.04-59.724 4.597-25.43-57.806-15.212-55.689 1.587 1.72 13.757-5.49 20.9-15.41 21.165-13.558-1.653-20.172-9.49-21.991-21.33-2.414-31.019 95.373-53.176 87.634-101.29-2.844-17.626-23.975-26.588-50.133-27.05z"/></svg>