<svg width="512" height="512" enable-background="new" version="1.0" xmlns="http://www.w3.org/2000/svg" xmlns:osb="http://www.openswatchbook.org/uri/2009/osb">
 <defs>
  <filter id="a" x="-.022714" y="-.02544" width="1.0454" height="1.0509" color-interpolation-filters="sRGB">
   <feGaussianBlur stdDeviation="4.2399902"/>
  </filter>
 </defs>
 <g transform="translate(0,212)">
  <g>
   <g transform="translate(-208,656)">
    <g>
     <path d="m264-800c-13.296 0-24 10.704-24 24v352c0 13.296 10.704 24 24 24h400c13.296 0 24-10.704 24-24v-352c0-13.296-10.704-24-24-24z" filter="url(#a)" opacity=".1"/>
     <path d="m264-800c-13.296 0-24 10.704-24 24v352c0 13.296 10.704 24 24 24h400c13.296 0 24-10.704 24-24v-352c0-13.296-10.704-24-24-24z" filter="url(#a)" opacity=".2"/>
     <path d="m264-802c-13.296 0-24 10.704-24 24v352c0 13.296 10.704 24 24 24h400c13.296 0 24-10.704 24-24v-352c0-13.296-10.704-24-24-24z" opacity=".2"/>
    </g>
    <path d="m264-804c-13.296 0-24 10.704-24 24v24h448v-24c0-13.296-10.704-24-24-24z" fill="#4d4d4d"/>
    <path d="m240-756v328c0 13.296 10.704 24 24 24h400c13.296 0 24-10.704 24-24v-328z" fill="#03a9f4"/>
    <path d="m240-430v2c0 13.296 10.704 24 24 24h400c13.296 0 24-10.704 24-24v-2c0 13.296-10.704 24-24 24h-400c-13.296 0-24-10.704-24-24z" opacity=".2"/>
    <path d="m264-804c-13.296 0-24 10.704-24 24v2c0-13.296 10.704-24 24-24h400c13.296 0 24 10.704 24 24v-2c0-13.296-10.704-24-24-24z" fill="#fff" opacity=".1"/>
   </g>
  </g>
 </g>
 <g transform="translate(0,212)"></g>
</svg>
