<svg width="512" height="512" enable-background="new" version="1.0" xmlns="http://www.w3.org/2000/svg">
 <defs>
  <filter id="a" x="-.024" y="-.024" width="1.048" height="1.048" color-interpolation-filters="sRGB">
   <feGaussianBlur stdDeviation="4.8"/>
  </filter>
 </defs>
 <circle cx="256" cy="260" r="240" enable-background="new" filter="url(#a)" opacity=".1"/>
 <circle cx="256" cy="260" r="240" enable-background="new" filter="url(#a)" opacity=".2"/>
 <circle cx="256" cy="256" r="240" enable-background="new" fill="#0087ed"/>
 <path d="M 256,16 A 240,240 0 0 0 16,256 240,240 0 0 0 16.041,257.17188 240,240 0 0 1 256,18 240,240 0 0 1 495.95898,256.82812 240,240 0 0 0 496,256 240,240 0 0 0 256,16 Z" enable-background="new" fill="#fff" opacity=".2"/>
 <path d="m278.3 116-48.634 3.4715v193.74l48.634-5.918v-84.572c21.093 31.838 38.021 61.462 66.289 92.242l50.386-14.481a658.06 658.06 0 0 1-65.495-88.771c19.11-28.202 43.079-56.536 66.487-81.861l-52.204-12.828a832.49 832.49 0 0 0-65.462 84.374m-110.82-45.625a3.9674 3.9674 0 0 0-2.1491 1.1241c-5.7197 5.4221-11.142 10.844-16.861 16.266-2.4796 2.4135 0.07 5.2899 1.1571 7.2736l11.572 16.002 8.6622 11.671c1.2232 1.6531 1.587 1.8515 0.95881 3.0416-0.79339 1.2233-1.4217 2.2152-2.1491 3.4715-11.241 18.911-3.3723 20.366-27.441 26.482l-18.481 3.0748c-2.7111 0.89258-6.2818 0.82663-6.4802 4.6286 0 7.6042-0.23093 15.208-0.23093 22.813-0.13208 3.5375 3.8021 3.8682 6.1164 4.4633l19.639 3.4054 14.712 2.678c1.9837 0.26417 2.4466-0.19857 2.9094 1.3224 6.0173 25.358 13.886 19.506 0.76016 41.724l-10.58 14.712c-1.3886 2.5458-3.9674 5.0585-1.3224 7.6373 5.5543 5.5213 10.877 11.076 16.465 16.597 2.4796 2.4135 5.6536-0.07 7.6704-1.1571l16.266-11.307 12.167-8.1662c1.6531-1.3886 1.8844-1.7192 3.1408-0.99187 24.367 14.911 25.226 4.1658 32.334 29.227l3.5046 17.952c0.92574 2.645 0.99187 6.1164 4.7278 6.2818h23.705c3.5376 0 3.8683-4.0666 4.298-6.2818l3.3062-19.11 2.3804-14.117c0.16533-1.3555 0.0988-2.0498 0.36389-2.5127 28.565-5.885 21.49-14.15 44.7-0.95872l15.076 10.315c2.7772 1.3555 5.4222 3.736 8.0671 1.1903 5.5874-5.2899 11.142-10.613 16.762-15.87 2.5127-2.5458 0.035-5.4552-1.1572-7.4058h-0.23181l-10.977-15.076-7.2405 2.4466c-1.8515 1.2232-4.298 0.76015-6.5132-2.0829l-15.87-20.432a81.729 81.729 0 0 1-65.892 32.863c-44.666 0-81.167-35.508-81.167-79.018 0-30.946 18.415-57.726 45.096-70.686v-18.184c-0.89268 0.46274-1.9837 0.69454-2.7111 0.99178-10.448 4.1988-11.109 6.1165-28.202-3.4384l-15.076-10.481c-2.116-0.92573-3.9674-2.645-5.885-2.182m51.775 40.633a72.835 72.835 0 0 0-38.087 63.578c0 40.104 33.624 72.934 74.984 72.934 25.557 0 47.973-12.63 61.495-31.805l-0.72691-1.5539c-15.87 17.126-33.756 28.235-60.999 28.83-33.921 0.59482-68.273-28.83-68.438-67.611-0.29741-24.995 11.572-41.79 31.739-53.791v-10.514" fill="#fff" fill-rule="evenodd" stroke-width="33.062"/>
</svg>
