<svg xmlns="http://www.w3.org/2000/svg" width="64" height="64" viewBox="0 0 16.933 16.933"><defs><filter id="a" width="1.096" height="1.096" x="-.048" y="-.048" color-interpolation-filters="sRGB"><feGaussianBlur stdDeviation=".275"/></filter><filter id="b" width="1.076" height="1.131" x="-.038" y="-.066" color-interpolation-filters="sRGB"><feGaussianBlur stdDeviation=".174"/></filter></defs><g stroke-width=".963"><path d="M8.467 1.833a6.879 6.879 0 1 1 0 13.757 6.879 6.879 0 0 1 0-13.757" filter="url(#a)" opacity=".25" transform="translate(-.741 -.651)scale(1.0769)"/><path fill="#04a" d="M8.377 1.059a7.408 7.408 0 1 1 0 14.815 7.408 7.408 0 0 1 0-14.815"/></g><path d="m2.453 5.427-.072.141c.367.204 1.422.734 1.923 1.048.633.388 1.49 1.18 1.557 1.312-.66 1.147-.36 2.162-.438 2.27-.056.09-.574.66-.407.743.165.083.428-.047.468-.073.083-.05.168-.124.132.022-.07.3-.387 1.017.051.865.054-.03.76-.81.845-.836 1.404.366 2.974.198 3.265.062.151.01.58.28.824.41.244.126.91.445.712-.135-.06-.183-.498-.65-.427-.682.156-.062.543.162.692.204.445.125.505-.048.224-.429-.278-.38-.32-.32-.407-.497-.069-.14 0-.297.05-.335.09-.069 1.42-.807 1.731-1.089.462-.42 0-.943-.113-1.017-.957-.69-1.94-.542-1.953-.65-.007-.126-.004-.486-.02-.61-.096-.845-.487-.633-.54-.633-.39.062-.247.66-.081 1.221.012.144-.137.08-.224-.07-.3-.806-.427-.792-.51-.816-.08-.018-.362.154-.357.48.002.092.112.535.112.671-.184.161-.193.528-.387.661-.563.117-1.916-.278-2.085-.296-.585-.11-.84.33-.935.224-.759-.87-1.919-1.516-2.421-1.628-.195-.042-.852-.332-1.089-.478-.038-.023-.081-.04-.123-.06m10.44.762c-.183.197-.15.933-.113.927.187-.038.17-.986.113-.927m.53.112c-.02-.06-.503.617-.418.866.039.108.484-.677.419-.866m-2.504 1.15c.006-.006.014.003.021.01.056.186.119.363.487.408.044.005-.204.15-.375.06-.155-.093-.169-.435-.133-.477m.956.934a.3.3 0 0 1 .083 0c.09.023-.654.411-.712.358-.036-.034.397-.314.63-.358m.194.246c.078.006-.431.533-.488.478-.042-.038.33-.49.488-.478" filter="url(#b)" opacity=".15" transform="translate(-.741 -.651)scale(1.0769)"/><path fill="#f9f9f9" d="m1.9 5.049-.077.152c.395.22 1.531.79 2.07 1.128.682.418 1.605 1.27 1.678 1.413-.711 1.235-.388 2.328-.472 2.445-.06.097-.618.71-.438.8.177.09.46-.05.504-.079.089-.054.18-.133.142.024-.076.322-.417 1.095.055.931.058-.033.818-.872.91-.9 1.512.394 3.202.213 3.516.067.162.01.624.301.887.44.263.137.98.48.767-.144-.065-.197-.536-.7-.46-.734.168-.067.585.174.745.22.48.134.544-.052.241-.463-.299-.409-.344-.345-.438-.535-.074-.15 0-.32.054-.36.097-.075 1.53-.87 1.864-1.174.498-.452 0-1.015-.122-1.095-1.03-.743-2.089-.583-2.103-.7-.007-.135-.004-.523-.021-.658-.104-.909-.525-.68-.582-.68-.42.066-.266.71-.087 1.315.013.155-.148.086-.241-.077-.323-.867-.46-.852-.55-.878-.086-.019-.39.166-.384.517.002.1.12.577.12.723-.198.173-.207.569-.416.712-.606.126-2.063-.3-2.245-.319-.63-.118-.905.355-1.007.241-.818-.937-2.067-1.632-2.608-1.753-.21-.045-.917-.357-1.172-.515-.041-.024-.088-.043-.133-.065m11.243.821c-.197.212-.161 1.005-.122.999.202-.041.183-1.062.122-.999m.57.12c-.02-.064-.54.665-.45.934.043.116.522-.73.452-.933m-2.697 1.238c.007-.006.015.004.023.011.06.2.128.391.524.44.048.005-.22.161-.403.064-.167-.1-.182-.468-.144-.514m1.03 1.006a.3.3 0 0 1 .09 0c.096.025-.705.443-.768.386-.038-.037.428-.338.679-.386m.209.265c.084.007-.464.574-.526.515-.045-.041.356-.528.526-.515"/></svg>