<svg xmlns="http://www.w3.org/2000/svg" width="512" height="512" enable-background="new" version="1.0"><defs><filter id="a" width="1.045" height="1.051" x="-.023" y="-.025" color-interpolation-filters="sRGB"><feGaussianBlur stdDeviation="4.24"/></filter></defs><path d="M264-800c-13.296 0-24 10.704-24 24v352c0 13.296 10.704 24 24 24h400c13.296 0 24-10.704 24-24v-352c0-13.296-10.704-24-24-24z" filter="url(#a)" opacity=".1" transform="translate(-208 868)"/><path d="M264-800c-13.296 0-24 10.704-24 24v352c0 13.296 10.704 24 24 24h400c13.296 0 24-10.704 24-24v-352c0-13.296-10.704-24-24-24z" filter="url(#a)" opacity=".2" transform="translate(-208 868)"/><path d="M56 66c-13.296 0-24 10.704-24 24v352c0 13.296 10.704 24 24 24h400c13.296 0 24-10.704 24-24V90c0-13.296-10.704-24-24-24z" opacity=".2"/><path fill="#4d4d4d" d="M56 64c-13.296 0-24 10.704-24 24v24h448V88c0-13.296-10.704-24-24-24z"/><path fill="#03a9f4" d="M32 112v328c0 13.296 10.704 24 24 24h400c13.296 0 24-10.704 24-24V112z"/><path d="M32 438v2c0 13.296 10.704 24 24 24h400c13.296 0 24-10.704 24-24v-2c0 13.296-10.704 24-24 24H56c-13.296 0-24-10.704-24-24" opacity=".2"/><path fill="#fff" d="M56 64c-13.296 0-24 10.704-24 24v2c0-13.296 10.704-24 24-24h400c13.296 0 24 10.704 24 24v-2c0-13.296-10.704-24-24-24z" opacity=".1"/></svg>