<svg xmlns="http://www.w3.org/2000/svg" width="512" height="512" enable-background="new" version="1.0"><defs><filter id="b" width="1.054" height="1.043" x="-.027" y="-.021" color-interpolation-filters="sRGB"><feGaussianBlur stdDeviation="4"/></filter><filter id="a" width="1.045" height="1.051" x="-.023" y="-.025" color-interpolation-filters="sRGB"><feGaussianBlur stdDeviation="1.36"/></filter></defs><g transform="translate(-208 228)"><rect width="144" height="128" x="512" y="-134" filter="url(#a)" opacity=".2" ry="10"/><rect width="144" height="144" x="512" y="-136" fill="#4caf50" ry="10"/><rect width="144" height="128" x="512" y="-30" filter="url(#a)" opacity=".2" ry="10"/><rect width="144" height="128" x="512" y="-32" fill="#2196f3" ry="10"/><rect width="144" height="128" x="512" y="74" filter="url(#a)" opacity=".2" ry="10"/><rect width="144" height="128" x="512" y="72" fill="#f9ce1d" ry="10"/><g fill="#fff"><path d="M522 72c-5.54 0-10 4.46-10 10v2c0-5.54 4.46-10 10-10h124c5.54 0 10 4.46 10 10v-2c0-5.54-4.46-10-10-10zM522-136c-5.54 0-10 4.46-10 10v2c0-5.54 4.46-10 10-10h124c5.54 0 10 4.46 10 10v-2c0-5.54-4.46-10-10-10zM522-32c-5.54 0-10 4.46-10 10v2c0-5.54 4.46-10 10-10h124c5.54 0 10 4.46 10 10v-2c0-5.54-4.46-10-10-10z" opacity=".2"/></g><path stroke="#000" stroke-width="8" d="M312-192c-13.296 0-24 10.704-24 24v400c0 13.296 10.704 24 24 24h304c13.296 0 24-10.704 24-24v-400c0-13.296-10.704-24-24-24H464z" filter="url(#b)" opacity=".1" transform="matrix(-1 0 0 1 928 0)"/><path d="M312-192c-13.296 0-24 10.704-24 24v400c0 13.296 10.704 24 24 24h304c13.296 0 24-10.704 24-24v-400c0-13.296-10.704-24-24-24H464z" filter="url(#b)" opacity=".2"/><path fill="#333" d="M312-196c-13.296 0-24 10.704-24 24v400c0 13.296 10.704 24 24 24h40l24-240-24-208z"/><path fill="#f44336" d="M352-196v448h264c13.296 0 24-10.704 24-24v-400c0-13.296-10.704-24-24-24H464z"/><path d="M400-86v224h64c112 0 116-72 116-112S576-86 464-86zm64 48c48 0 64 16 64 64s-16 64-64 64h-16V-38z" opacity=".2"/><path fill="#f9f9f9" d="M400-84v224h64c112 0 116-72 116-112S576-84 464-84zm64 48c48 0 64 16 64 64s-16 64-64 64h-16V-36z"/><path d="M312 252c-13.296 0-24-10.704-24-24v-2c0 13.296 10.704 24 24 24h304c13.296 0 24-10.704 24-24v2c0 13.296-10.704 24-24 24H464z" opacity=".2"/><path fill="#fff" d="M312-196c-13.296 0-24 10.704-24 24v2c0-13.296 10.704-24 24-24h304c13.296 0 24 10.704 24 24v-2c0-13.296-10.704-24-24-24H464z" opacity=".1"/></g></svg>