<svg width="512" height="512" enable-background="new" version="1.0" xmlns="http://www.w3.org/2000/svg" xmlns:osb="http://www.openswatchbook.org/uri/2009/osb">
 <defs>
  <filter id="b" x="-.027273" y="-.021429" width="1.0545" height="1.0429" color-interpolation-filters="sRGB">
   <feGaussianBlur stdDeviation="4"/>
  </filter>
  <filter id="a" x="-.022667" y="-.0255" width="1.0453" height="1.051" color-interpolation-filters="sRGB">
   <feGaussianBlur stdDeviation="1.36"/>
  </filter>
 </defs>
 <g transform="translate(0,212)">
  <g>
   <g transform="translate(-208,16)">
    <rect x="512" y="-134" width="144" height="128" ry="10" filter="url(#a)" opacity=".2"/>
    <rect x="512" y="-136" width="144" height="144" ry="10" fill="#4caf50"/>
    <rect x="512" y="-30" width="144" height="128" ry="10" filter="url(#a)" opacity=".2"/>
    <rect x="512" y="-32" width="144" height="128" ry="10" fill="#2196f3"/>
    <rect x="512" y="74" width="144" height="128" ry="10" filter="url(#a)" opacity=".2"/>
    <rect x="512" y="72" width="144" height="128" ry="10" fill="#f9ce1d"/>
    <g fill="#fff">
     <path d="m522 72c-5.54 0-10 4.46-10 10v2c0-5.54 4.46-10 10-10h124c5.54 0 10 4.46 10 10v-2c0-5.54-4.46-10-10-10z" opacity=".2"/>
     <path d="m522-136c-5.54 0-10 4.46-10 10v2c0-5.54 4.46-10 10-10h124c5.54 0 10 4.46 10 10v-2c0-5.54-4.46-10-10-10z" opacity=".2"/>
     <path d="m522-32c-5.54 0-10 4.46-10 10v2c0-5.54 4.46-10 10-10h124c5.54 0 10 4.46 10 10v-2c0-5.54-4.46-10-10-10z" opacity=".2"/>
    </g>
    <path transform="matrix(-1 0 0 1 928 0)" d="m312-192c-13.296 0-24 10.704-24 24v400c0 13.296 10.704 24 24 24h304c13.296 0 24-10.704 24-24v-400c0-13.296-10.704-24-24-24h-152z" filter="url(#b)" opacity=".1" stroke="#000" stroke-width="8"/>
    <path d="m312-192c-13.296 0-24 10.704-24 24v400c0 13.296 10.704 24 24 24h304c13.296 0 24-10.704 24-24v-400c0-13.296-10.704-24-24-24h-152z" filter="url(#b)" opacity=".2"/>
    <path transform="translate(0,-244)" d="m312 48c-13.296 0-24 10.704-24 24v400c0 13.296 10.704 24 24 24h40l24-240-24-208z" fill="#333"/>
    <path transform="translate(0,-244)" d="m352 48v448h264c13.296 0 24-10.704 24-24v-400c0-13.296-10.704-24-24-24h-152z" fill="#f44336"/>
    <path d="m400-86v224h64c112 0 116-72 116-112s-4-112-116-112zm64 48c48 0 64 16 64 64s-16 64-64 64h-16v-128z" opacity=".2"/>
    <path transform="translate(0,-244)" d="m400 160v224h64c112 0 116-72 116-112s-4-112-116-112zm64 48c48 0 64 16 64 64s-16 64-64 64h-16v-128z" fill="#f9f9f9"/>
    <path d="m312 252c-13.296 0-24-10.704-24-24v-2c0 13.296 10.704 24 24 24h304c13.296 0 24-10.704 24-24v2c0 13.296-10.704 24-24 24h-152z" opacity=".2"/>
    <path transform="translate(0,76)" d="m312-272c-13.296 0-24 10.704-24 24v2c0-13.296 10.704-24 24-24h304c13.296 0 24 10.704 24 24v-2c0-13.296-10.704-24-24-24h-152z" fill="#fff" opacity=".1"/>
   </g>
  </g>
 </g>
</svg>
