<svg width="512" height="512" enable-background="new" version="1.0" xmlns="http://www.w3.org/2000/svg" xmlns:osb="http://www.openswatchbook.org/uri/2009/osb" xmlns:xlink="http://www.w3.org/1999/xlink">
 <title>Paper Icon Theme</title>
 <defs>
  <filter id="a" x="-.025385" y="-.022759" width="1.0508" height="1.0455" color-interpolation-filters="sRGB">
   <feGaussianBlur stdDeviation="4.4"/>
  </filter>
 </defs>
 <g transform="translate(0,212)">
  <g>
   <g transform="translate(-208,16)">
    <g>
     <path d="m292-192c-19.944 0-36 16.056-36 36v344c0 19.944 16.056 36 36 36h332l48 48v-428c0-19.944-16.056-36-36-36z" filter="url(#a)" opacity=".1"/>
     <path d="m292-192c-19.944 0-36 16.056-36 36v344c0 19.944 16.056 36 36 36h332l48 48v-428c0-19.944-16.056-36-36-36z" filter="url(#a)" opacity=".2"/>
     <path d="m292-194c-19.944 0-36 16.056-36 36v344c0 19.944 16.056 36 36 36h332l48 48v-428c0-19.944-16.056-36-36-36z" opacity=".2"/>
    </g>
    <g>
     <rect x="256" y="-196" width="416" height="416" rx="36" ry="36" fill="#8c9eff"/>
     <path d="m584 220-24-64h64v64z" fill-rule="evenodd" opacity=".2"/>
     <path d="m672 268-112-112h112z" fill="#8c9eff" fill-rule="evenodd"/>
    </g>
    <path d="m427.29-89.12 2.3758 2.8538c-42.764 12.116-62.244 30.885-62.244 30.885s5.223-2.8527 14.014-6.654c25.421-11.166 45.618-14.014 53.933-14.965 1.4255-0.23804 2.6116-0.4784 4.037-0.4784 14.492-1.9007 30.888-2.374 47.994-0.47262 22.57 2.6134 46.802 9.2656 71.51 22.57 0 0-18.77-17.818-59.158-29.934l3.327-3.805s32.548-0.71182 66.522 24.709c0 0 34.212 61.535 34.212 137.32 0-0.23689-19.957 33.974-72.462 35.637 0 0-8.5567-10.216-15.684-19.006 31.123-8.7904 43.006-28.036 43.006-28.036-9.7408 6.4147-19.006 10.93-27.321 14.018-11.879 4.989-23.283 8.0794-34.449 10.218-22.808 4.2765-43.715 3.0849-61.534-0.24151-13.542-2.6133-25.186-6.1742-34.927-10.213-5.4644-2.1382-11.401-4.7525-17.34-8.0786-0.71182-0.47493-1.4264-0.71182-2.139-1.1879-0.47493-0.23689-0.71298-0.47378-0.95102-0.47378-4.2764-2.3757-6.6494-4.0417-6.6494-4.0417s11.404 18.772 41.576 27.8c-7.1275 9.028-15.921 19.48-15.921 19.48-52.505-1.663-72.462-35.874-72.462-35.874 0-75.788 34.212-137.32 34.212-137.32 34.211-25.421 66.522-24.709 66.522-24.709zm-6.4128 87.668c-13.542 0-24.236 11.641-24.236 26.134 0 14.492 10.931 26.134 24.236 26.134 13.542 0 24.231-11.641 24.231-26.134 0.23689-14.492-10.689-26.134-24.231-26.134zm86.716 0c-13.542 0-24.236 11.641-24.236 26.134 0 14.492 10.931 26.134 24.236 26.134 13.542 0 24.231-11.641 24.231-26.134 0-14.492-10.927-26.134-24.231-26.134z" fill="#fff"/>
    <path transform="translate(0,-244)" d="m292 48c-19.944 0-36 16.056-36 36v2c0-19.944 16.056-36 36-36h344c19.944 0 36 16.056 36 36v-2c0-19.944-16.056-36-36-36z" fill="#fff" opacity=".2"/>
   </g>
  </g>
 </g>
 <g transform="translate(0,212)">
  <g></g>
 </g>
</svg>
