<svg xmlns="http://www.w3.org/2000/svg" width="512" height="512" enable-background="new" version="1.0"><defs><filter id="a" width="1.051" height="1.046" x="-.025" y="-.023" color-interpolation-filters="sRGB"><feGaussianBlur stdDeviation="4.4"/></filter></defs><path d="M292-192c-19.944 0-36 16.056-36 36v344c0 19.944 16.056 36 36 36h332l48 48v-428c0-19.944-16.056-36-36-36z" filter="url(#a)" opacity=".1" transform="translate(-208 228)"/><path d="M292-192c-19.944 0-36 16.056-36 36v344c0 19.944 16.056 36 36 36h332l48 48v-428c0-19.944-16.056-36-36-36z" filter="url(#a)" opacity=".2" transform="translate(-208 228)"/><path d="M84 34c-19.944 0-36 16.056-36 36v344c0 19.944 16.056 36 36 36h332l48 48V70c0-19.944-16.056-36-36-36z" opacity=".2"/><g transform="translate(-208 228)"><rect width="416" height="416" x="256" y="-196" fill="#8c9eff" rx="36" ry="36"/><path fill-rule="evenodd" d="m584 220-24-64h64v64z" opacity=".2"/><path fill="#8c9eff" fill-rule="evenodd" d="M672 268 560 156h112z"/></g><path fill="#fff" d="m219.29 138.88 2.376 2.854c-42.764 12.116-62.244 30.885-62.244 30.885s5.223-2.853 14.014-6.654c25.42-11.166 45.618-14.014 53.933-14.965 1.425-.238 2.611-.479 4.037-.479a201 201 0 0 1 47.994-.472c22.57 2.613 46.802 9.265 71.51 22.57 0 0-18.77-17.818-59.158-29.934l3.327-3.805s32.548-.712 66.522 24.709c0 0 34.212 61.535 34.212 137.32 0-.237-19.957 33.974-72.462 35.637 0 0-8.557-10.216-15.684-19.006 31.123-8.79 43.006-28.036 43.006-28.036-9.741 6.414-19.006 10.93-27.321 14.018-11.88 4.989-23.283 8.08-34.45 10.218-22.807 4.276-43.714 3.085-61.533-.242-13.542-2.613-25.186-6.174-34.927-10.213-5.465-2.138-11.401-4.752-17.34-8.078-.712-.475-1.427-.712-2.14-1.188-.474-.237-.712-.474-.95-.474-4.277-2.376-6.65-4.042-6.65-4.042s11.404 18.772 41.576 27.8c-7.127 9.028-15.92 19.48-15.92 19.48-52.506-1.663-72.463-35.874-72.463-35.874 0-75.788 34.212-137.32 34.212-137.32 34.211-25.42 66.522-24.709 66.522-24.709zm-6.413 87.668c-13.542 0-24.236 11.641-24.236 26.134s10.931 26.134 24.236 26.134c13.542 0 24.231-11.641 24.231-26.134.237-14.492-10.689-26.134-24.23-26.134m86.716 0c-13.542 0-24.236 11.641-24.236 26.134s10.931 26.134 24.236 26.134c13.542 0 24.231-11.641 24.231-26.134s-10.927-26.134-24.23-26.134"/><path fill="#fff" d="M84 32c-19.944 0-36 16.056-36 36v2c0-19.944 16.056-36 36-36h344c19.944 0 36 16.056 36 36v-2c0-19.944-16.056-36-36-36z" opacity=".2"/></svg>