<svg width="512" height="512" enable-background="new" version="1.0" xmlns="http://www.w3.org/2000/svg">
 <defs>
  <filter id="a" x="-.024" y="-.024" width="1.048" height="1.048" color-interpolation-filters="sRGB">
   <feGaussianBlur stdDeviation="4.48"/>
  </filter>
  <filter id="b" x="-.024" y="-.024" width="1.048" height="1.048" color-interpolation-filters="sRGB">
   <feGaussianBlur stdDeviation="2.4"/>
  </filter>
 </defs>
 <path d="m256 36c-124.1 0-224 99.904-224 224s99.904 224 224 224 224-99.904 224-224-99.904-224-224-224zm0 176a48 48 0 0 1 48 48 48 48 0 0 1-48 48 48 48 0 0 1-48-48 48 48 0 0 1 48-48z" filter="url(#a)" opacity=".1" stroke="#000" stroke-width="8"/>
 <path d="m256 36c-124.1 0-224 99.904-224 224s99.904 224 224 224 224-99.904 224-224-99.904-224-224-224zm0 176a48 48 0 0 1 48 48 48 48 0 0 1-48 48 48 48 0 0 1-48-48 48 48 0 0 1 48-48z" filter="url(#a)" opacity=".2"/>
 <path d="m256 144a112 112 0 0 0-112 112 112 112 0 0 0 112 112 112 112 0 0 0 112-112 112 112 0 0 0-112-112zm0 64a48 48 0 0 1 48 48 48 48 0 0 1-48 48 48 48 0 0 1-48-48 48 48 0 0 1 48-48z" fill="#e0e2e3" opacity=".8" stroke-width="8"/>
 <path d="m256 32c-124.1 0-224 99.904-224 224s99.904 224 224 224 224-99.904 224-224-99.904-224-224-224zm0 128a96 96 0 0 1 96 96 96 96 0 0 1-96 96 96 96 0 0 1-96-96 96 96 0 0 1 96-96z" fill="#e0e2e3" stroke-width="8"/>
 <g fill="#fff">
  <path d="m167.66 49.979c-52.861 22.586-95.136 64.874-117.71 117.74l117.82 50.494a96 96 0 0 1 50.418-50.34l-50.529-117.9zm176.55 243.85a96 96 0 0 1-50.471 50.324l50.529 117.9c52.88-22.571 95.175-64.855 117.76-117.73l-117.82-50.494z" fill-rule="evenodd" opacity=".2" stroke-width="15.118"/>
  <path d="m125.19 73.926c-45.819 32.908-78.59 82.721-89.354 140.47l125.88 23.783a96 96 0 0 1 38.342-60.055l-74.873-104.2zm225.08 199.88a96 96 0 0 1-38.314 60.051l74.873 104.2c45.809-32.911 78.571-82.725 89.328-140.47l-125.89-23.781z" fill-rule="evenodd" opacity=".2" stroke-width="15.119"/>
  <path d="m256 32c-124.1 0-224 99.904-224 224 0 1.3416 0.0864 2.6641 0.1096 4 2.1278-122.23 101.14-220 223.89-220s221.76 97.768 223.89 220c0.024-1.3359 0.1096-2.6584 0.1096-4 0-124.1-99.904-224-224-224z" opacity=".1" stroke-width="8"/>
 </g>
 <circle cx="376" cy="382" r="120" enable-background="new" filter="url(#b)" opacity=".1" stroke="#000" stroke-width="8"/>
 <circle cx="376" cy="382" r="120" enable-background="new" filter="url(#b)" opacity=".2"/>
 <circle cx="376" cy="376" r="120" enable-background="new" fill="#ff5722"/>
 <path d="m374.1 426.31c-11.683 0-21.069-9.2546-21.069-20.609 0-10.633 6.7604-18.115 18.378-20.478s23.629-7.9419 30.323-16.934c2.5598 8.467 3.8068 17.393 3.8068 26.517 0 17.328-14.046 31.505-31.439 31.505m11.749-120.31s4.857 17.393 4.857 31.505c0 13.521-8.8608 24.482-22.382 24.482-13.586 0-23.826-10.961-23.826-24.482l0.19691-2.4285c-13.258 15.752-21.2 36.165-21.2 58.415a52.508 52.508 0 0 0 52.508 52.508 52.508 52.508 0 0 0 52.508-52.508c0-35.443-17-66.948-42.663-87.492z" enable-background="new" fill="#fff"/>
</svg>
