<svg width="512" height="512" enable-background="new" version="1.0" xmlns="http://www.w3.org/2000/svg" xmlns:osb="http://www.openswatchbook.org/uri/2009/osb">
 <defs>
  <filter id="a" x="-.027273" y="-.021429" width="1.0545" height="1.0429" color-interpolation-filters="sRGB">
   <feGaussianBlur stdDeviation="4"/>
  </filter>
  <filter id="b" x="-.06" y="-.06" width="1.12" height="1.12" color-interpolation-filters="sRGB">
   <feGaussianBlur stdDeviation="6"/>
  </filter>
 </defs>
 <g transform="translate(0,212)">
  <g></g>
 </g>
 <g transform="translate(0,212)">
  <g></g>
 </g>
 <g transform="translate(0,212)">
  <g></g>
 </g>
 <g transform="translate(0,212)">
  <g>
   <g transform="translate(-1008,1896)">
    <rect transform="matrix(0,-1,-1,0,800,-1880)" x="-256" y="-640" width="448" height="352" rx="24" ry="24" filter="url(#a)" opacity=".1" stroke="#000" stroke-width="8"/>
    <rect transform="matrix(0,-1,-1,0,800,-1880)" x="-256" y="-640" width="448" height="352" rx="24" ry="24" filter="url(#a)" opacity=".2"/>
    <rect transform="matrix(0,-1,-1,0,0,0)" x="1628" y="-1440" width="448" height="352" rx="24" ry="24" fill="#78909c"/>
    <path d="m1112-1626c-13.296 0-24-10.704-24-24v-2c0 13.296 10.704 24 24 24h304c13.296 0 24-10.704 24-24v2c0 13.296-10.704 24-24 24z" opacity=".2"/>
    <path d="m1112-2076c-13.296 0-24 10.704-24 24v2c0-13.296 10.704-24 24-24h304c13.296 0 24 10.704 24 24v-2c0-13.296-10.704-24-24-24z" fill="#fff" opacity=".2"/>
    <path d="m1264-2010c61.856 0 112 50.144 112 112s-50.144 112-112 112h-112v-112c0-61.856 50.144-112 112-112zm0 56c-30.928 0-56 25.072-56 56 0 30.928 25.072 56 56 56 30.928 0 56-25.072 56-56 0-30.928-25.072-56-56-56z" enable-background="new" fill="#fff" opacity=".2"/>
    <path d="m1264-2012c61.856 0 112 50.144 112 112s-50.144 112-112 112h-112v-112c0-61.856 50.144-112 112-112zm0 56c-30.928 0-56 25.072-56 56 0 30.928 25.072 56 56 56 30.928 0 56-25.072 56-56 0-30.928-25.072-56-56-56z" enable-background="new" fill="#455a64"/>
    <circle cx="1384" cy="-1724" r="120" enable-background="new" filter="url(#b)" opacity=".5"/>
    <g transform="translate(0,-600)">
     <path transform="translate(0,-244)" d="m1299.2-972.8c-22.511 22.483-35.172 52.985-35.199 84.801 0.028 31.815 12.688 62.318 35.199 84.801l164.8-84.801z" enable-background="new" fill="#ff766a"/>
     <path d="m1384-1132-84.801-84.801a120 120 0 0 1 84.801-35.199 120 120 0 0 1 120 120z" enable-background="new" fill="#00bbd3"/>
     <path transform="translate(0,-244)" d="m1384-888-84.801 84.801a120 120 0 0 0 84.801 35.199 120 120 0 0 0 120-120z" enable-background="new" fill="#8ac249"/>
    </g>
    <circle cx="1384" cy="-1732" r="72" fill="#fff"/>
   </g>
  </g>
 </g>
 <g transform="translate(0,212)">
  <g></g>
 </g>
 <g transform="translate(0,212)">
  <g></g>
 </g>
 <g transform="translate(0,212)">
  <g></g>
 </g>
 <g transform="translate(0,212)">
  <g></g>
 </g>
 <g transform="translate(0,212)">
  <g></g>
 </g>
</svg>
