<svg xmlns="http://www.w3.org/2000/svg" width="512" height="512" enable-background="new" version="1.0"><defs><filter id="a" width="1.054" height="1.043" x="-.027" y="-.021" color-interpolation-filters="sRGB"><feGaussianBlur stdDeviation="4"/></filter><filter id="b" width="1.12" height="1.12" x="-.06" y="-.06" color-interpolation-filters="sRGB"><feGaussianBlur stdDeviation="6"/></filter></defs><g transform="translate(-1008 1508)"><rect width="448" height="352" x="-256" y="-640" stroke="#000" stroke-width="8" filter="url(#a)" opacity=".1" rx="24" ry="24" transform="matrix(0 -1 -1 0 800 -1280)"/><rect width="448" height="352" x="-256" y="-640" filter="url(#a)" opacity=".2" rx="24" ry="24" transform="matrix(0 -1 -1 0 800 -1280)"/><rect width="448" height="352" x="1028" y="-1440" fill="#78909c" rx="24" ry="24" transform="scale(1 -1)rotate(90)"/><path d="M1112-1026c-13.296 0-24-10.704-24-24v-2c0 13.296 10.704 24 24 24h304c13.296 0 24-10.704 24-24v2c0 13.296-10.704 24-24 24z" opacity=".2"/><path fill="#fff" d="M1112-1476c-13.296 0-24 10.704-24 24v2c0-13.296 10.704-24 24-24h304c13.296 0 24 10.704 24 24v-2c0-13.296-10.704-24-24-24z" opacity=".2"/><path fill="#fff" d="M1264-1410c61.856 0 112 50.144 112 112s-50.144 112-112 112h-112v-112c0-61.856 50.144-112 112-112m0 56c-30.928 0-56 25.072-56 56s25.072 56 56 56 56-25.072 56-56-25.072-56-56-56" enable-background="new" opacity=".2"/><path fill="#455a64" d="M1264-1412c61.856 0 112 50.144 112 112s-50.144 112-112 112h-112v-112c0-61.856 50.144-112 112-112m0 56c-30.928 0-56 25.072-56 56s25.072 56 56 56 56-25.072 56-56-25.072-56-56-56" enable-background="new"/><circle cx="1384" cy="-1124" r="120" enable-background="new" filter="url(#b)" opacity=".5"/><path fill="#e81d62" d="M1299.2-1216.8a120 120 0 0 0-35.199 84.801 120 120 0 0 0 35.199 84.801l164.8-84.801z" enable-background="new"/><path fill="#fe9700" d="m1384-1132-84.801-84.801A120 120 0 0 1 1384-1252a120 120 0 0 1 120 120z" enable-background="new"/><path fill="#2095f2" d="m1384-1132-84.801 84.801A120 120 0 0 0 1384-1012a120 120 0 0 0 120-120z" enable-background="new"/></g></svg>