<svg width="512" height="512" enable-background="new" version="1.0" xmlns="http://www.w3.org/2000/svg" xmlns:osb="http://www.openswatchbook.org/uri/2009/osb">
 <defs>
  <filter id="a" x="-.027273" y="-.021429" width="1.0545" height="1.0429" color-interpolation-filters="sRGB">
   <feGaussianBlur stdDeviation="4"/>
  </filter>
  <filter id="b" x="-.06" y="-.06" width="1.12" height="1.12" color-interpolation-filters="sRGB">
   <feGaussianBlur stdDeviation="6"/>
  </filter>
 </defs>
 <g transform="translate(0,212)">
  <g></g>
 </g>
 <g transform="translate(0,212)">
  <g>
   <g transform="translate(-1008,656)">
    <rect transform="matrix(0,-1,-1,0,800,-640)" x="-256" y="-640" width="448" height="352" rx="24" ry="24" filter="url(#a)" opacity=".1" stroke="#000" stroke-width="8"/>
    <rect transform="matrix(0,-1,-1,0,800,-640)" x="-256" y="-640" width="448" height="352" rx="24" ry="24" filter="url(#a)" opacity=".2"/>
    <rect transform="matrix(0,-1,-1,0,0,0)" x="388" y="-1440" width="448" height="352" rx="24" ry="24" fill="#78909c"/>
    <path d="m1112-386c-13.296 0-24-10.704-24-24v-2c0 13.296 10.704 24 24 24h304c13.296 0 24-10.704 24-24v2c0 13.296-10.704 24-24 24z" opacity=".2"/>
    <path d="m1112-836c-13.296 0-24 10.704-24 24v2c0-13.296 10.704-24 24-24h304c13.296 0 24 10.704 24 24v-2c0-13.296-10.704-24-24-24z" fill="#fff" opacity=".2"/>
    <path d="m1264-770c61.856 0 112 50.144 112 112s-50.144 112-112 112h-112v-112c0-61.856 50.144-112 112-112zm0 56c-30.928 0-56 25.072-56 56 0 30.928 25.072 56 56 56 30.928 0 56-25.072 56-56 0-30.928-25.072-56-56-56z" enable-background="new" fill="#fff" opacity=".2"/>
    <path d="m1264-772c61.856 0 112 50.144 112 112s-50.144 112-112 112h-112v-112c0-61.856 50.144-112 112-112zm0 56c-30.928 0-56 25.072-56 56 0 30.928 25.072 56 56 56 30.928 0 56-25.072 56-56 0-30.928-25.072-56-56-56z" enable-background="new" fill="#455a64"/>
    <circle cx="1384" cy="-484" r="120" enable-background="new" filter="url(#b)" opacity=".5"/>
    <circle cx="1384" cy="-492" r="120" enable-background="new" fill="#8561c5"/>
    <path d="m1366-564-1.5859 18.965a56.571 56.571 0 0 0-16.535 9.5625l-17.236-8.1172-18 31.18 15.65 10.867a56.571 56.571 0 0 0-0.8653 9.543 56.571 56.571 0 0 0 0.8242 9.582l-15.609 10.828 18 31.18 17.197-8.0957a56.571 56.571 0 0 0 16.572 9.502l1.5879 19.004h36l1.5859-18.965a56.571 56.571 0 0 0 16.535-9.5625l17.236 8.1172 18-31.18-15.65-10.867a56.571 56.571 0 0 0 0.8653-9.543 56.571 56.571 0 0 0-0.8242-9.582l15.609-10.828-18-31.18-17.197 8.0957a56.571 56.571 0 0 0-16.572-9.502l-1.5879-19.004zm18 48a24 24 0 0 1 24 24 24 24 0 0 1-24 24 24 24 0 0 1-24-24 24 24 0 0 1 24-24z" enable-background="new" fill="#fff"/>
   </g>
  </g>
 </g>
 <g transform="translate(0,212)">
  <g></g>
 </g>
 <g transform="translate(0,212)">
  <g></g>
 </g>
 <g transform="translate(0,212)">
  <g></g>
 </g>
 <g transform="translate(0,212)">
  <g></g>
 </g>
 <g transform="translate(0,212)">
  <g></g>
 </g>
 <g transform="translate(0,212)">
  <g></g>
 </g>
 <g transform="translate(0,212)">
  <g></g>
 </g>
</svg>
