<svg xmlns="http://www.w3.org/2000/svg" width="512" height="512" enable-background="new" version="1.0"><defs><filter id="a" width="1.048" height="1.048" x="-.024" y="-.024" color-interpolation-filters="sRGB"><feGaussianBlur stdDeviation="4.48"/></filter><filter id="b" width="1.048" height="1.048" x="-.024" y="-.024" color-interpolation-filters="sRGB"><feGaussianBlur stdDeviation="2.4"/></filter></defs><path stroke="#000" stroke-width="8" d="M256 36C131.9 36 32 135.904 32 260s99.904 224 224 224 224-99.904 224-224S380.096 36 256 36zm0 176a48 48 0 0 1 48 48 48 48 0 0 1-48 48 48 48 0 0 1-48-48 48 48 0 0 1 48-48z" filter="url(#a)" opacity=".1"/><path d="M256 36C131.9 36 32 135.904 32 260s99.904 224 224 224 224-99.904 224-224S380.096 36 256 36m0 176a48 48 0 0 1 48 48 48 48 0 0 1-48 48 48 48 0 0 1-48-48 48 48 0 0 1 48-48" filter="url(#a)" opacity=".2"/><path fill="#e0e2e3" d="M256 144a112 112 0 0 0-112 112 112 112 0 0 0 112 112 112 112 0 0 0 112-112 112 112 0 0 0-112-112m0 64a48 48 0 0 1 48 48 48 48 0 0 1-48 48 48 48 0 0 1-48-48 48 48 0 0 1 48-48" opacity=".8"/><path fill="#e0e2e3" d="M256 32C131.9 32 32 131.904 32 256s99.904 224 224 224 224-99.904 224-224S380.096 32 256 32m0 128a96 96 0 0 1 96 96 96 96 0 0 1-96 96 96 96 0 0 1-96-96 96 96 0 0 1 96-96"/><g fill="#fff"><path fill-rule="evenodd" d="M167.66 49.979c-52.861 22.586-95.136 64.874-117.71 117.74l117.82 50.494a96 96 0 0 1 50.418-50.34l-50.529-117.9zm176.55 243.85a96 96 0 0 1-50.471 50.324l50.529 117.9c52.88-22.571 95.175-64.855 117.76-117.73l-117.82-50.494z" opacity=".2"/><path fill-rule="evenodd" d="M125.19 73.926c-45.819 32.908-78.59 82.721-89.354 140.47l125.88 23.783a96 96 0 0 1 38.342-60.055l-74.873-104.2zm225.08 199.88a96 96 0 0 1-38.314 60.051l74.873 104.2c45.809-32.911 78.571-82.725 89.328-140.47l-125.89-23.781z" opacity=".2"/><path d="M256 32C131.9 32 32 131.904 32 256c0 1.342.086 2.664.11 4C34.237 137.77 133.25 40 256 40s221.76 97.768 223.89 220c.024-1.336.11-2.658.11-4 0-124.1-99.905-224-224-224z" opacity=".1"/></g><circle cx="376" cy="382" r="120" stroke="#000" stroke-width="8" filter="url(#b)" opacity=".1"/><circle cx="376" cy="382" r="120" filter="url(#b)" opacity=".2"/><circle cx="376" cy="376" r="120" fill="#ff5722"/><path fill="#fff" d="M374.1 426.31c-11.683 0-21.069-9.255-21.069-20.609 0-10.633 6.76-18.115 18.378-20.478s23.629-7.942 30.323-16.934c2.56 8.467 3.807 17.393 3.807 26.517 0 17.328-14.046 31.505-31.44 31.505m11.75-120.31s4.857 17.393 4.857 31.505c0 13.521-8.861 24.482-22.382 24.482-13.586 0-23.826-10.961-23.826-24.482l.197-2.428c-13.258 15.752-21.2 36.165-21.2 58.415A52.51 52.51 0 0 0 376.003 446a52.51 52.51 0 0 0 52.508-52.508c0-35.443-17-66.948-42.663-87.492z"/></svg>