<svg xmlns="http://www.w3.org/2000/svg" width="512" height="512" enable-background="new" version="1.0"><defs><filter id="a" width="1.054" height="1.043" x="-.027" y="-.021" color-interpolation-filters="sRGB"><feGaussianBlur stdDeviation="4"/></filter><filter id="b" width="1.12" height="1.12" x="-.06" y="-.06" color-interpolation-filters="sRGB"><feGaussianBlur stdDeviation="6"/></filter></defs><g transform="translate(-1008 868)"><rect width="448" height="352" x="-256" y="-640" stroke="#000" stroke-width="8" filter="url(#a)" opacity=".1" rx="24" ry="24" transform="matrix(0 -1 -1 0 800 -640)"/><rect width="448" height="352" x="-256" y="-640" filter="url(#a)" opacity=".2" rx="24" ry="24" transform="matrix(0 -1 -1 0 800 -640)"/><rect width="448" height="352" x="388" y="-1440" fill="#78909c" rx="24" ry="24" transform="scale(1 -1)rotate(90)"/><path d="M1112-386c-13.296 0-24-10.704-24-24v-2c0 13.296 10.704 24 24 24h304c13.296 0 24-10.704 24-24v2c0 13.296-10.704 24-24 24z" opacity=".2"/><path fill="#fff" d="M1112-836c-13.296 0-24 10.704-24 24v2c0-13.296 10.704-24 24-24h304c13.296 0 24 10.704 24 24v-2c0-13.296-10.704-24-24-24z" opacity=".2"/><path fill="#fff" d="M1264-770c61.856 0 112 50.144 112 112s-50.144 112-112 112h-112v-112c0-61.856 50.144-112 112-112m0 56c-30.928 0-56 25.072-56 56s25.072 56 56 56 56-25.072 56-56-25.072-56-56-56" enable-background="new" opacity=".2"/><path fill="#455a64" d="M1264-772c61.856 0 112 50.144 112 112s-50.144 112-112 112h-112v-112c0-61.856 50.144-112 112-112m0 56c-30.928 0-56 25.072-56 56s25.072 56 56 56 56-25.072 56-56-25.072-56-56-56" enable-background="new"/><circle cx="1384" cy="-484" r="120" enable-background="new" filter="url(#b)" opacity=".5"/><circle cx="1384" cy="-492" r="120" fill="#8561c5" enable-background="new"/><path fill="#fff" d="m1366-564-1.586 18.965a56.6 56.6 0 0 0-16.535 9.563l-17.236-8.118-18 31.18 15.65 10.867a56.6 56.6 0 0 0-.865 9.543 56.6 56.6 0 0 0 .824 9.582l-15.609 10.828 18 31.18 17.197-8.095a56.6 56.6 0 0 0 16.572 9.502L1366-420h36l1.586-18.965a56.6 56.6 0 0 0 16.535-9.563l17.236 8.117 18-31.18-15.65-10.867a56.6 56.6 0 0 0 .865-9.543 56.6 56.6 0 0 0-.824-9.582l15.609-10.828-18-31.18-17.197 8.096a56.6 56.6 0 0 0-16.572-9.502L1402-564zm18 48a24 24 0 0 1 24 24 24 24 0 0 1-24 24 24 24 0 0 1-24-24 24 24 0 0 1 24-24" enable-background="new"/></g></svg>