<svg xmlns="http://www.w3.org/2000/svg" width="512" height="512" enable-background="new" version="1.0"><defs><filter id="a" width="1.048" height="1.048" x="-.024" y="-.024" color-interpolation-filters="sRGB"><feGaussianBlur stdDeviation="4.48"/></filter><filter id="g" width="1.12" height="1.12" x="-.06" y="-.06" color-interpolation-filters="sRGB"><feGaussianBlur stdDeviation="5.6"/></filter><filter id="b" width="1.12" height="1.12" x="-.06" y="-.06" color-interpolation-filters="sRGB"><feGaussianBlur stdDeviation="5.6"/></filter><filter id="f" width="1.12" height="1.12" x="-.06" y="-.06" color-interpolation-filters="sRGB"><feGaussianBlur stdDeviation="8"/></filter><clipPath id="d"><path fill="#0277bd" d="M527.98-196A160 160 0 0 0 368-35.98 160 160 0 0 0 527.98 124 160 160 0 0 0 688-35.98v-135.53A24.44 24.44 0 0 0 663.51-196h-66.934z" enable-background="new"/></clipPath></defs><path d="M527.98-192A160 160 0 0 0 370.77-61.2 160 160 0 0 0 239.99 95.98v135.53A24.436 24.436 0 0 0 264.48 256h135.53a160 160 0 0 0 157.21-130.8A160 160 0 0 0 688-31.98v-135.53A24.44 24.44 0 0 0 663.51-192h-66.934z" enable-background="new" filter="url(#a)" opacity=".1" transform="translate(-208 228)"/><path d="M527.98-192A160 160 0 0 0 370.77-61.2 160 160 0 0 0 239.99 95.98v135.53A24.436 24.436 0 0 0 264.48 256h135.53a160 160 0 0 0 157.21-130.8A160 160 0 0 0 688-31.98v-135.53A24.44 24.44 0 0 0 663.51-192h-66.934z" enable-background="new" filter="url(#a)" opacity=".2" transform="translate(-208 228)"/><path d="M319.98 34a160 160 0 0 0-157.21 130.8A160 160 0 0 0 31.99 321.98v135.53A24.436 24.436 0 0 0 56.48 482h135.53a160 160 0 0 0 157.21-130.8A160 160 0 0 0 480 194.02V58.49A24.44 24.44 0 0 0 455.51 34h-66.934z" enable-background="new" opacity=".2"/><path fill="#666" d="M319.98 32A160 160 0 0 0 160 192.02 160 160 0 0 0 319.98 352 160 160 0 0 0 480 192.02V56.49A24.44 24.44 0 0 0 455.51 32h-66.934z" enable-background="new"/><path d="M528 84c62.048 0 112-49.952 112-112v-112H528c-62.048 0-112 49.952-112 112S465.952 84 528 84" filter="url(#b)" opacity=".2" transform="translate(-208 228)"/><path fill="#f2f2f2" d="M320 304c62.048 0 112-49.952 112-112V80H320c-62.048 0-112 49.952-112 112s49.952 112 112 112"/><path fill="#fff" d="M319.98 32A160 160 0 0 0 160 192.02l.041.828a160 160 0 0 1 159.94-158.84h135.53a24.44 24.44 0 0 1 24.49 24.49v-2a24.44 24.44 0 0 0-24.49-24.49h-66.934z" enable-background="new" opacity=".2"/><path d="M400.02-62C311.655-62.007 240.01 9.619 240 97.98v135.53c0 13.568 10.927 24.844 24.49 24.49h135.53c88.365-.01 159.99-71.651 159.98-160.02C559.99 9.628 488.368-61.99 400.02-62" clip-path="url(#d)" enable-background="new" filter="url(#f)" opacity=".5" transform="translate(-208 228)"/><path fill="gray" d="M192.02 160A160 160 0 0 0 32 319.98v135.53A24.436 24.436 0 0 0 56.49 480h135.53A160 160 0 0 0 352 319.98 160 160 0 0 0 192.02 160" enable-background="new"/><path fill="#fff" d="M192.02 160A160 160 0 0 0 32 319.98v2A160 160 0 0 1 192.02 162a160 160 0 0 1 159.94 159.16 160 160 0 0 0 .041-1.172 160 160 0 0 0-159.98-159.98z" enable-background="new" opacity=".2"/><path d="M400-12c-62.048 0-112 49.952-112 112v112h112c62.048 0 112-49.952 112-112S462.048-12 400-12" filter="url(#g)" opacity=".2" transform="translate(-208 228)"/><path fill="#fff" d="M192 208c-62.048 0-112 49.952-112 112v112h112c62.048 0 112-49.952 112-112s-49.952-112-112-112"/></svg>