<svg width="512" height="512" enable-background="new" version="1.0" xmlns="http://www.w3.org/2000/svg">
 <defs>
  <filter id="a" x="-.024" y="-.024" width="1.048" height="1.048" color-interpolation-filters="sRGB">
   <feGaussianBlur stdDeviation="4.8"/>
  </filter>
 </defs>
 <circle cx="256" cy="258" r="240" opacity=".2"/>
 <circle cx="256" cy="260" r="240" filter="url(#a)" opacity=".1"/>
 <circle cx="256" cy="260" r="240" filter="url(#a)" opacity=".2"/>
 <circle cx="256" cy="256" r="240" fill="#00e676"/>
 <path d="M 256,16 A 240,240 0 0 0 16,256 240,240 0 0 0 16.041,257.17188 240,240 0 0 1 256,18 240,240 0 0 1 495.95898,256.82812 240,240 0 0 0 496,256 240,240 0 0 0 256,16 Z" fill="#fff" opacity=".2"/>
 <path d="m136 225.14h73.043v-41.143h83.478v-72h-156.52zm166.96-113.14v288h73.043v-288zm-83.478 82.286v205.71h73.043v-205.71zm-83.478 41.143v164.57h73.043v-164.57z" color="#000000" enable-background="new" fill="#fff" stroke-width=".6475"/>
</svg>
