<svg xmlns="http://www.w3.org/2000/svg" width="512" height="512" enable-background="new" version="1.0"><defs><filter id="a" width="1.048" height="1.048" x="-.024" y="-.024" color-interpolation-filters="sRGB"><feGaussianBlur stdDeviation="4.8"/></filter></defs><g transform="translate(-208 228)"><circle cx="464" cy="30" r="240" opacity=".2"/><circle cx="464" cy="32" r="240" filter="url(#a)" opacity=".1"/><circle cx="464" cy="32" r="240" filter="url(#a)" opacity=".2"/><circle cx="464" cy="28" r="240" fill="#8bc34a"/><path fill="#fff" d="M464-212A240 240 0 0 0 224 28l.041 1.172A240 240 0 0 1 464-210 240 240 0 0 1 703.959 28.828L704 28a240 240 0 0 0-240-240" opacity=".2"/><path fill="#fff" d="M455.34-63.034c-8.983.006-17.309.212-21.229.646-23.769 2.63-44.639 8.956-67.856 20.547-37.419 18.682-60.914 39.826-74.182 66.777-5.941 12.068-7.997 20.523-8.066 33.164-.048 7.998.544 12.239 2.609 18.744 7.44 23.432 28.65 40.153 53.223 41.98 23.778 1.768 41.447-7.643 49.34-26.27 2.861-6.752 3.72-12.616 2.923-20.005-1.95-18.07-13.64-31.815-30.914-36.363-5.289-1.393-13.429-1.436-18.62-.014-14.234 3.896-24.588 16.727-20.78 32.563 3.23 13.435 18.928 21.855 32.203 16.522 5.301-2.13 8.387-4.707 6.852-10.363-1.565-5.765-5.435-7.125-12.85-5.047-2.917.818-4.982.294-7.165-1.682-3.664-3.316-3.605-8.383.15-12.001 4.57-4.403 12.924-4.774 20.553-.901 7.55 3.833 13.066 14.682 11.874 23.356-1.28 9.31-6.621 15.737-15.577 18.729-2.99.999-4.227 1.114-11.274 1.096-7.56-.02-8.117-.088-12.369-1.517-15.949-5.36-26.484-19.886-26.58-36.663-.063-10.595 3.699-19.149 12.053-27.396 7.853-7.753 17.997-11.54 30.914-11.535 16.057.006 29.39 5.62 41.064 17.303 8.786 8.793 15.42 20.71 17.976 32.262l.81 3.665 23.058 11.31c.184-.169.13-1.721-.12-2.779-.945-3.995-1.093-15.12-.27-19.826 1.197-6.843 2.815-10.405 6.267-13.818 5.322-5.263 11.89-7.53 21.859-7.54 13.259-.014 24.51 4.846 34.572 14.945 2.257 2.266 7.178 7.634 10.944 11.926 3.765 4.293 7.42 8.215 8.125 8.712 1.979 1.393 28.857 13.702 29.19 13.368.162-.163-.79-1.876-2.129-3.815-5.237-7.59-9.678-17.368-11.379-25.038-1.163-5.248-.844-12.992.69-16.522 1.436-3.305 4.498-6.096 7.736-7.06 3.469-1.031 11.04-.97 21.199.18 12.185 1.38 18.921 1.644 26.956 1.037 18.298-1.384 30.277-4.393 43.688-10.95 7.009-3.426 8.499-4.749 10.015-8.846 1.445-3.906 2.131-7.645 1.394-7.645-.26 0-2.722 1.059-5.472 2.358-10.32 4.877-19.18 7.044-27.046 6.624-8.177-.436-21.57-4.928-37.466-12.571l-7.241-3.485-5.907-14.148 5.517 3.44c9.076 6.026 23.753 13.242 32.699 16.07 13.666 4.323 24.542 3.759 35.547-1.847 3.879-1.975 11.154-6.97 11.154-7.66 0-1.301-3.89-13.95-6.057-19.69-5.417-14.357-9.109-19.143-18.036-23.402-9.91-4.727-20.833-8.114-40.914-12.692-9.601-2.038-19.251-4.012-28.995-5.227l-.24 11.896c-22.702-7.06-42.565-11.727-64.557-13.998-5.683-.587-18.315-.908-29.865-.9zm150.42 24.362c7.334-.02 14.332 3.752 18.426 10.574 6.98 11.632 1.258 26.744-11.799 31.151-8.617 2.908-18.879-.568-24.093-8.156-4.28-6.228-4.997-14.269-1.889-21.013 1.766-3.832 5.969-8.365 9.385-10.108 3.224-1.645 6.637-2.44 9.97-2.448zm-.24 6.218c-3.437.073-6.94 1.35-9.895 4.026-4.514 4.085-5.963 11.473-3.359 17.107 2.139 4.626 6.19 7.818 10.914 8.59 6.702 1.096 13.05-2.03 15.832-7.81 1.904-3.953 2.243-6.666 1.29-10.393-1.892-7.398-8.222-11.66-14.783-11.52zm3.508 7.645c2.548 0 5.613 1.593 5.997 3.124.521 2.081-.185 3.519-2.204 4.551-3.119 1.594-7.128 1.143-9.475-1.066-2.894-2.724.446-6.609 5.682-6.609" enable-background="new"/></g></svg>