<svg width="512" height="512" enable-background="new" version="1.0" xmlns="http://www.w3.org/2000/svg" xmlns:osb="http://www.openswatchbook.org/uri/2009/osb" xmlns:xlink="http://www.w3.org/1999/xlink">
 <defs>
  <filter id="a" x="-.024" y="-.024" width="1.048" height="1.048" color-interpolation-filters="sRGB">
   <feGaussianBlur stdDeviation="4.8"/>
  </filter>
 </defs>
 <g transform="translate(0,212)">
  <g></g>
  <g transform="translate(-208,16)">
   <g>
    <circle cx="464" cy="30" r="240" enable-background="new" opacity=".2"/>
    <circle cx="464" cy="32" r="240" enable-background="new" filter="url(#a)" opacity=".1"/>
    <circle cx="464" cy="32" r="240" enable-background="new" filter="url(#a)" opacity=".2"/>
   </g>
   <circle cx="464" cy="28" r="240" enable-background="new" fill="#0079c1"/>
   <path transform="translate(0,-244)" d="m 464,32 a 240,240 0 0 0 -240,240 240,240 0 0 0 0.041,1.17188 A 240,240 0 0 1 464,34 240,240 0 0 1 703.95898,272.82812 240,240 0 0 0 704,272 240,240 0 0 0 464,32 Z" enable-background="new" fill="#fff" opacity=".2"/>
   <path d="m448.99-138.84-30.741 7.5592c-1.2907 0.31608-2.2608 1.4335-2.2677 2.7717l13.607 62.489 0.50377 0.25201c10.319-3.4534 21.275-5.2914 32.756-5.2914 51.857 0 94.821 38.17 102.3 87.938l63.245-13.859c1.2404-0.59264 1.8414-1.9436 1.5119-3.2756l-7.3072-30.741c-0.3179-1.294-1.4356-2.2666-2.7717-2.2678h-50.647c-4.2591-8.0274-9.4153-15.536-15.622-22.426l16.378-46.363c0.45789-1.2873-0.0861-2.8142-1.2599-3.5276l-26.961-16.378c-1.143-0.69504-2.5915-0.43543-3.5276 0.50395l-34.016 34.016c-10.083-3.2195-20.433-4.9887-30.741-5.2914l-21.166-44.599c-0.59181-1.2419-1.9411-1.8398-3.2757-1.5118zm-99.277 45.103c-0.64345 0.0669-1.2804 0.52088-1.7638 1.0079l-22.426 22.174c-0.94057 0.94355-0.94522 2.3855-0.2516 3.5276l26.205 43.339c-4.6455 7.8101-8.4257 16.062-11.087 24.945l-48.127 10.079c-1.3378 0.27738-2.2677 1.3987-2.2677 2.7717v31.749c0 1.3379 0.97863 2.4602 2.2677 2.7717l46.615 11.339c2.4889 10.288 6.2414 20.013 11.339 28.977l-26.961 41.324c-0.75388 1.1509-0.46977 2.5579 0.50378 3.5276l22.174 22.426c0.94067 0.93863 2.3806 1.1931 3.5276 0.50394l43.339-47.875v-0.50393c-20.467-18.899-33.26-46.043-33.26-76.096 0-33.345 15.816-62.725 40.316-81.639l-48.127-43.843c-0.57568-0.37577-1.3722-0.57063-2.0158-0.50395zm214.18 148.41c-10.241 46.346-51.614 81.135-101.04 81.135-13.129 0-25.484-2.5931-37.04-7.0552l-0.2516 0.252-16.378 62.741c-0.0805 1.3725 0.68941 2.4201 2.0158 2.7717l30.741 8.3151c1.2871 0.3434 2.6321-0.34059 3.2757-1.5119l24.189-44.095c9.0864 0.12665 18.188-0.89485 27.213-3.0237l32.756 36.788c0.90842 1.0207 2.338 1.1894 3.5277 0.50376l27.465-15.874c1.1593-0.66759 1.6335-2.003 1.2599-3.2756l-13.355-46.111c7.6721-7.2925 14.18-15.55 19.402-24.441l49.135 2.7717c1.3735 0.0805 2.6694-0.68797 3.0237-2.0158l8.3151-30.489c0.3434-1.2836-0.3417-2.6259-1.5118-3.2756l-62.741-14.11z" enable-background="new" fill="#fff"/>
  </g>
 </g>
</svg>
