<svg width="512" height="512" enable-background="new" version="1.0" xmlns="http://www.w3.org/2000/svg" xmlns:osb="http://www.openswatchbook.org/uri/2009/osb" xmlns:xlink="http://www.w3.org/1999/xlink">
 <defs>
  <filter id="a" x="-.024" y="-.024" width="1.048" height="1.048" color-interpolation-filters="sRGB">
   <feGaussianBlur stdDeviation="4.8"/>
  </filter>
  <filter id="b" x="-.051834" y="-.071221" width="1.1037" height="1.1424" color-interpolation-filters="sRGB">
   <feGaussianBlur stdDeviation="10.366746"/>
  </filter>
 </defs>
 <g transform="translate(0,212)">
  <g>
   <g transform="translate(-208,16)">
    <g>
     <circle cx="464" cy="30" r="240" opacity=".2"/>
     <circle cx="464" cy="32" r="240" filter="url(#a)" opacity=".1"/>
     <circle cx="464" cy="32" r="240" filter="url(#a)" opacity=".2"/>
    </g>
    <g>
     <path transform="translate(0,-244)" d="m464 32a240 240 0 0 0-240 240 240 240 0 0 0 48.293 144h383.34a240 240 0 0 0 48.371-144 240 240 0 0 0-240-240z" fill="#4c5263"/>
     <path transform="translate(0,-244)" d="m 464,32 a 240,240 0 0 0 -240,240 240,240 0 0 0 0.041,1.17188 A 240,240 0 0 1 464,34 240,240 0 0 1 703.95898,272.82812 240,240 0 0 0 704,272 240,240 0 0 0 464,32 Z" fill="#fff" opacity=".2"/>
     <path d="m698.35 77.305c-35.005 47.224-99.668 72.463-176.7 83.655-80.37 11.677-173.56 8.2078-256.72 1.1047 3.9828 5.9495 8.3543 11.718 12.853 17.287 87.121 36.045 163.42 31.118 241.37 19.793 65.01-9.4456 136.47-27.144 168.88-86.401 4.3974-11.451 8.0134-24.134 10.32-35.438z" color="#000000" color-rendering="auto" enable-background="accumulate" fill="#fff" fill-rule="evenodd" image-rendering="auto" shape-rendering="auto" solid-color="#000000" style="isolation:auto;mix-blend-mode:normal;text-decoration-color:#000000;text-decoration-line:none;text-decoration-style:solid;text-indent:0;text-transform:none;white-space:normal"/>
    </g>
    <circle cx="464" cy="27.766" r="240" fill-opacity="0"/>
    <g>
     <path d="m523.96 176.96c-81.458 11.494-164.43 8.6446-246.18 2.3924 52.604 67.086 144.03 100.89 228.48 84.598 81.505-14.009 152.95-73.697 181.72-151.14-48.4 34.332-105.58 55.17-164.03 64.146z" fill="#5294e2"/>
     <path d="m373.25-194.44c-25.791 105.25-100.03 234.78-146.77 317.37 81.544 18.16 158.32 24.63 241.97 31.728-1.2234-15.903-12.984-188.82-15.864-222.14-28.853-52.275-52.255-79.305-79.342-126.96zm99.177 134.88c38.236 78.765 38.266 156.69 15.864 214.22 31.544 0.19065 83.024 3.7228 138.85-23.807-45.883-104.77-154.71-190.41-154.71-190.41zm75.37 47.614c23.728 15.9 46.342 30.397 63.478 47.592 23.207 23.286 35.059 54.672 31.728 87.285 31.094-15.624 51.657-41.682 63.478-63.478-20.674-19.037-56.568-37.864-95.206-51.563-21.305-7.5535-43.742-14.412-63.478-19.835z" fill-rule="evenodd" filter="url(#b)" opacity=".2"/>
     <path d="m373.25-212.44c-25.791 105.25-100.03 234.78-146.77 317.37 81.544 18.16 158.32 24.63 241.97 31.728-1.2234-15.903-12.984-188.82-15.864-222.14-28.853-52.275-52.255-79.305-79.342-126.96zm99.177 134.88c38.236 78.765 38.266 156.69 15.864 214.22 31.544 0.19065 83.024 3.7228 138.85-23.807-45.883-104.77-154.71-190.41-154.71-190.41zm75.37 47.614c23.728 15.9 46.342 30.397 63.478 47.592 23.207 23.286 35.059 54.672 31.728 87.285 31.094-15.624 51.657-41.682 63.478-63.478-20.674-19.037-56.568-37.864-95.206-51.563-21.305-7.5535-43.742-14.412-63.478-19.835z" fill="#fff" fill-rule="evenodd"/>
    </g>
   </g>
  </g>
 </g>
</svg>
