<svg width="512" height="512" enable-background="new" version="1.0" xmlns="http://www.w3.org/2000/svg" xmlns:osb="http://www.openswatchbook.org/uri/2009/osb" xmlns:xlink="http://www.w3.org/1999/xlink">
 <defs>
  <filter id="a" x="-.024" y="-.024" width="1.048" height="1.048" color-interpolation-filters="sRGB">
   <feGaussianBlur stdDeviation="4.8"/>
  </filter>
 </defs>
 <g transform="translate(0,212)">
  <g></g>
  <g transform="translate(-208,16)">
   <circle cx="464" cy="32" r="240" enable-background="new" filter="url(#a)" opacity=".1"/>
   <circle cx="464" cy="32" r="240" enable-background="new" filter="url(#a)" opacity=".2"/>
   <circle cx="464" cy="28" r="240" enable-background="new" fill="#3d91e7"/>
   <path transform="translate(0,-244)" d="m 464,32 a 240,240 0 0 0 -240,240 240,240 0 0 0 0.041,1.17188 A 240,240 0 0 1 464,34 240,240 0 0 1 703.95898,272.82812 240,240 0 0 0 704,272 240,240 0 0 0 464,32 Z" enable-background="new" fill="#fff" opacity=".2"/>
   <path d="m464-172c-110.46 0-200 89.543-200 200 0 110.46 89.543 200 200 200 110.46 0 200-89.543 200-200 0-110.46-89.543-200-200-200zm0 16.667c83.978 0 154.77 56.466 176.48 133.5-18.699 38.568-45.306 73.293-77.708 101.35-15.566 13.48-32.561 25.497-51.333 33.958-18.773 8.4613-39.421 13.262-59.979 12.083-15.445-0.88583-30.703-5.1883-44.229-12.687 35.847-19.424 68.191-45.322 94.667-76.333 17.378-20.355 32.583-43.488 38.438-69.604 2.9272-13.058 3.4232-26.734 0.68748-39.833-2.7357-13.1-8.7924-25.583-17.958-35.333-8.9545-9.5256-20.71-16.273-33.312-19.75-12.603-3.4769-26.014-3.7461-38.875-1.3958-25.721 4.7006-48.686 19.649-67.104 38.208-32.465 32.713-52.536 78.871-48.854 124.81 1.8408 22.97 9.5386 45.542 22.729 64.438 2.9443 4.2175 6.1813 8.235 9.6458 12.042-19.216 6.725-39.112 11.512-59.292 14.208-17.325-27.995-27.333-60.992-27.333-96.333 0-101.25 82.081-183.33 183.33-183.33zm1.1666 37.042c12.888 0.0171 25.863 3.9191 36.146 11.688 9.2645 6.999 16.129 16.956 20.021 27.896 3.8916 10.94 4.8903 22.819 3.5625 34.354-2.6555 23.07-14.294 44.227-28.354 62.708-24.896 32.724-57.988 58.915-94.792 77.25-3.7671 1.8767-7.594 3.6604-11.437 5.375-8.0082-7.0079-14.872-15.32-20.104-24.583-10.932-19.356-14.538-42.35-12.417-64.479 2.1211-22.129 9.7152-43.457 19.917-63.208 11.828-22.901 27.951-44.593 50.521-57.042 11.285-6.2242 24.05-9.9758 36.937-9.9584zm180.52 121.75c1.0741 8.0283 1.6459 16.219 1.6459 24.542 0 101.25-82.081 183.33-183.33 183.33-56.864 0-107.69-25.887-141.31-66.521 20.756-4.7142 41.042-11.485 60.5-20.104 8.5092 6.4804 17.906 11.795 27.896 15.625 28.767 11.029 61.428 9.4329 90.542-0.64583 29.114-10.079 54.931-28.169 77.438-49.208 26.811-25.063 49.416-54.605 66.625-87.021z" enable-background="new" fill="#fff"/>
  </g>
 </g>
</svg>
