<svg xmlns="http://www.w3.org/2000/svg" width="512" height="512" enable-background="new" version="1.0"><defs><filter id="a" width="1.048" height="1.048" x="-.024" y="-.024" color-interpolation-filters="sRGB"><feGaussianBlur stdDeviation="4.48"/></filter></defs><g transform="translate(-208 228)"><rect width="448" height="448" x="-256" y="-688" enable-background="new" filter="url(#a)" opacity=".1" rx="36" ry="36" transform="scale(1 -1)rotate(90)"/><rect width="448" height="448" x="-256" y="-688" enable-background="new" filter="url(#a)" opacity=".2" rx="36" ry="36" transform="scale(1 -1)rotate(90)"/><rect width="448" height="448" x="-252" y="-688" fill="#c70036" enable-background="new" rx="36" ry="36" transform="scale(1 -1)rotate(90)"/><path fill="#fff" d="M276-196c-19.944 0-36 16.056-36 36v2c0-19.944 16.056-36 36-36h376c19.944 0 36 16.056 36 36v-2c0-19.944-16.056-36-36-36z" enable-background="new" opacity=".2"/><path fill="#fff" d="M562.67 4.963c.322 8.634-2.52 12.83-5.09 20.25l-4.62 2.298c-3.778 7.34.375 4.66-2.33 10.497-5.905 5.243-17.892 16.4-21.73 17.423-2.806-.061 1.897-3.31 2.512-4.579-7.895 5.419-6.337 8.135-18.413 11.433l-.35-.79c-29.771 14.01-71.13-13.748-70.586-51.618-.315 2.401-.905 1.8-1.562 2.766-1.537-19.482 9-39.05 26.769-47.051 17.38-8.6 37.756-5.075 50.197 6.537-6.834-8.957-20.447-18.452-36.57-17.573-15.8.257-30.585 10.297-35.517 21.2-8.092 5.094-9.035 19.644-12.56 22.31-4.749 34.882 8.925 49.946 32.06 67.677 3.631 2.451 1.022 2.827 1.508 4.692-7.684-3.595-14.718-9.028-20.507-15.679 3.074 4.493 6.387 8.86 10.672 12.291-7.252-2.448-16.934-17.559-19.753-18.174 12.491 22.366 50.672 39.224 70.675 30.858-9.257.343-21.011.19-31.405-3.652-4.378-2.248-10.307-6.898-9.246-7.767 27.291 10.19 55.475 7.713 79.085-11.212 6.011-4.682 12.573-12.64 14.471-12.748-2.856 4.296.49 2.066-1.705 5.858 5.976-9.653-2.605-3.931 6.183-16.669l3.245 4.468c-1.215-8.02 9.954-17.748 8.817-30.422 2.563-3.875 2.856 4.174.14 13.088 3.77-9.89.997-11.48 1.962-19.643 1.04 2.744 2.423 5.657 3.127 8.556-2.459-9.56 2.513-16.094 3.75-21.651-1.223-.536-3.793 4.224-4.386-7.062.09-4.904 1.369-2.57 1.858-3.778-.957-.554-3.484-4.314-5.017-11.523 1.104-1.698 2.973 4.392 4.488 4.639-.975-5.73-2.651-10.1-2.723-14.5-4.432-9.257-1.569 1.236-5.157-3.974-4.718-14.703 3.91-3.414 4.496-10.09 7.14 10.348 11.212 26.395 13.088 33.039-1.43-8.103-3.735-15.954-6.555-23.55 2.177.919-3.499-16.664 2.827-5.021-6.75-24.821-28.87-48.016-49.224-58.896 2.484 2.277 5.626 5.136 4.503 5.586-10.129-6.022-8.348-6.497-9.8-9.042-8.237-3.356-8.788.275-14.238.007-15.547-8.249-18.542-7.373-32.848-12.534l.65 3.045c-10.297-3.431-11.998 1.294-23.124.007-.675-.525 3.567-1.916 7.062-2.42-9.957 1.316-9.492-1.965-19.235.361 2.398-1.683 4.943-2.802 7.502-4.231-8.116.493-19.385 4.725-15.908.872-13.242 5.911-36.762 14.207-49.961 26.583l-.415-2.774c-6.047 7.26-26.372 21.68-27.99 31.09l-1.62.376c-3.141 5.328-5.182 11.365-7.676 16.844-4.114 7.015-6.033 2.702-5.447 3.802-8.095 16.412-12.123 30.2-15.593 41.515 2.473 3.7.06 22.273.993 37.137-4.06 73.424 51.53 144.71 112.29 161.16 8.907 3.192 22.148 3.077 33.413 3.392-13.288-3.803-15.004-2.012-27.956-6.526-9.338-4.404-11.383-9.425-18.002-15.168l2.62 4.628c-12.974-4.593-7.545-5.683-18.102-9.024l2.798-3.65c-4.206-.321-11.14-7.083-13.034-10.84l-4.603.183c-5.525-6.812-8.474-11.733-8.256-15.547l-1.487 2.652c-1.683-2.892-20.34-25.583-10.66-20.3-1.798-1.637-4.19-2.67-6.78-7.384l1.969-2.248c-4.65-5.994-8.57-13.674-8.27-16.233 2.484 3.352 4.206 3.981 5.915 4.557-11.762-29.178-12.423-1.605-21.326-29.7l1.88-.15c-1.44-2.184-2.323-4.54-3.481-6.86l.822-8.166c-8.464-9.778-2.366-41.619-1.14-59.078.84-7.097 7.065-14.657 11.794-26.512l-2.881-.493c5.511-9.607 31.458-38.595 43.48-37.109 5.823-7.312-1.157-.028-2.297-1.865 12.79-13.234 16.812-9.35 25.443-11.733 9.303-5.522-7.988 2.158-3.578-2.105 16.094-4.107 11.401-9.343 32.391-11.426 2.216 1.258-5.136 1.944-6.98 3.577 13.402-6.562 42.42-5.064 61.276 3.638 21.862 10.225 46.44 40.436 47.412 68.86l1.105.297c-.558 11.301 1.73 24.371-2.241 36.372l2.684-5.686" enable-background="new"/></g></svg>