<svg width="512" height="512" enable-background="new" version="1.0" xmlns="http://www.w3.org/2000/svg">
 <defs>
  <filter id="a" x="-.023658" y="-.024352" width="1.0473" height="1.0487" color-interpolation-filters="sRGB">
   <feGaussianBlur stdDeviation="4.5457195"/>
  </filter>
 </defs>
 <g transform="translate(0,212)">
  <g>
   <g transform="translate(-208,16)">
    <g fill-rule="evenodd">
     <path d="m464-192c-114.87 0-218.26 218.26-229.74 310.15-14.319 114.55 160.82 137.85 229.74 137.85 68.923 0 244.06-23.293 229.74-137.85-11.487-91.897-114.87-310.15-229.74-310.15z" filter="url(#a)" opacity=".1"/>
     <path d="m464-192c-114.87 0-218.26 218.26-229.74 310.15-14.319 114.55 160.82 137.85 229.74 137.85 68.923 0 244.06-23.293 229.74-137.85-11.487-91.897-114.87-310.15-229.74-310.15z" filter="url(#a)" opacity=".2"/>
     <path d="m464-194c-114.87 0-218.26 218.26-229.74 310.15-14.319 114.55 160.82 137.85 229.74 137.85 68.923 0 244.06-23.293 229.74-137.85-11.487-91.897-114.87-310.15-229.74-310.15z" opacity=".2"/>
    </g>
    <path d="m464-196c-114.87 0-218.26 218.26-229.74 310.15-14.319 114.55 160.82 137.85 229.74 137.85 68.923 0 244.06-23.293 229.74-137.85-11.487-91.897-114.87-310.15-229.74-310.15z" fill="#7986cb" fill-rule="evenodd"/>
    <path d="m496.46 166.21c29.821-74.531 35.643-170.91 14.348-237.52-5.5959-17.504-8.1387-13.455-18.095 28.819-15.025 63.791-49.761 140.49-82.135 181.35-8.9469 11.294-15.589 22.572-14.761 25.063 2.8438 8.5491 38.311 18.694 66.153 18.922l27.742 0.22745zm103.69-119.08c0-37.384-14.38-72.504-39.476-96.412-11.228-10.697-15.884-13.35-13.736-7.8275 14.548 37.399 27.985 90.015 32.329 126.59l5.1951 43.739 7.8442-17.988c5.2854-12.121 7.8441-27.812 7.8441-48.103zm-240.67 16.292c31.109-23.172 63.078-55.132 82.958-82.937 28.86-40.362 43.039-73.1 31.661-73.1-2.1924 0-16.337 9.2325-31.432 20.517-15.095 11.284-44.262 29.201-64.815 39.817-36.893 19.054-37.45 19.574-43.756 40.81-9.1023 30.651-8.082 70.12 1.8127 70.12 1.7212 0 12.328-6.852 23.572-15.227z" enable-background="new" fill="#fff"/>
    <path transform="translate(0,-244)" d="m464 48c-114.87 0-218.26 218.26-229.74 310.15-0.60376 4.8301-0.86219 9.4932-0.81445 14.004 0.0386-3.887 0.29946-7.884 0.81445-12.004 11.487-91.897 114.87-310.15 229.74-310.15s218.26 218.26 229.74 310.15c0.51499 4.1199 0.77584 8.1169 0.81445 12.004 0.0477-4.5107-0.21069-9.1738-0.81445-14.004-11.487-91.897-114.87-310.15-229.74-310.15z" fill="#fff" fill-rule="evenodd" opacity=".2"/>
   </g>
  </g>
 </g>
</svg>
