<svg width="512" height="512" enable-background="new" version="1.0" xmlns="http://www.w3.org/2000/svg" xmlns:osb="http://www.openswatchbook.org/uri/2009/osb" xmlns:xlink="http://www.w3.org/1999/xlink">
 <defs>
  <filter id="a" x="-.024" y="-.024" width="1.048" height="1.048" color-interpolation-filters="sRGB">
   <feGaussianBlur stdDeviation="4.8"/>
  </filter>
 </defs>
 <g transform="translate(0,212)">
  <g>
   <g transform="translate(-208,16)">
    <g>
     <circle cx="464" cy="30" r="240" opacity=".2"/>
     <circle cx="464" cy="32" r="240" filter="url(#a)" opacity=".1"/>
     <circle cx="464" cy="32" r="240" filter="url(#a)" opacity=".2"/>
    </g>
    <circle cx="464" cy="28" r="240" fill="#0068c8"/>
    <path transform="translate(0,-244)" d="m 464,32 a 240,240 0 0 0 -240,240 240,240 0 0 0 0.041,1.17188 A 240,240 0 0 1 464,34 240,240 0 0 1 703.95898,272.82812 240,240 0 0 0 704,272 240,240 0 0 0 464,32 Z" fill="#fff" opacity=".2"/>
    <circle cx="464" cy="28" r="240" fill="#0068c8"/>
    <circle cx="464" cy="28" r="240" fill="#0068c8"/>
    <path transform="translate(0,-244)" d="m447.15 32.598a240 240 0 0 0-0.18164 0.01172c0.0605-0.0042 0.12118-0.0075 0.18164-0.01172zm-132.15 51.273a240 240 0 0 0-0.40821 0.32812c0.13656-0.10881 0.27141-0.21961 0.40821-0.32812zm303.57 4.5312c0.0311 0.02621 0.0627 0.0519 0.0937 0.07813a240 240 0 0 0-0.0937-0.07813zm-321.36 11.07a240 240 0 0 0-0.83203 0.81054c0.27694-0.27042 0.5538-0.54145 0.83203-0.81054zm338.82 5.1855c0.0864 0.0888 0.17353 0.17672 0.25976 0.26563a240 240 0 0 0-0.25976-0.26563zm-118 6.7949c-6.6803-0.23849-43.344 10.571-54.08 24.17-32.37 2.3458-162.94 91.388-239.62 145.51a240 240 0 0 0 1.3965 17.059c34.87-13.438 75.423-27.517 91.84-27.393v2e-3c3.2347 0.0244 5.5443 0.5604 6.6719 1.8047 6.3116 7.4384-20.546 43.445-48.285 84.209-7.1817 10.554-14.418 21.362-21.361 31.852a240 240 0 0 0 6.9531 12.121c38.121-47.735 86.053-107.47 99.33-109.48 0.71603-0.10849 1.3523-0.0198 1.8594 0.21875 2.3558 2.8793-41.373 72.63-80.521 136.73a240 240 0 0 0 13.805 14.852c19.018-26.149 39.642-54.893 59.607-82.459 41.661-57.521 78.539-111.23 96.514-111.77v-2e-3c0.5799-0.0173 1.1006 0.0144 1.6406 0.10938 55.339 0.3287 109.41 139.09 137.89 226.12a240 240 0 0 0 11.938-8.2539c-13.673-97.335-45.743-257.59-112.48-302.19 7.1578-4.7718 7.7637-29.256 7.7637-29.256zm-237.22 5.5469a240 240 0 0 0-0.66406 0.78516c0.22047-0.26261 0.44249-0.52351 0.66406-0.78516zm-14.805 19.387a240 240 0 0 0-0.12695 0.18359c0.042-0.0614 0.0848-0.12224 0.12695-0.18359zm437.4 118.59c4e-3 0.0526 6e-3 0.10555 0.01 0.1582a240 240 0 0 0-0.01-0.1582z" fill="#fff"/>
   </g>
  </g>
 </g>
</svg>
