<svg width="512" height="512" enable-background="new" version="1.0" xmlns="http://www.w3.org/2000/svg" xmlns:osb="http://www.openswatchbook.org/uri/2009/osb" xmlns:xlink="http://www.w3.org/1999/xlink">
 <defs>
  <filter id="a" x="-.024" y="-.024" width="1.048" height="1.048" color-interpolation-filters="sRGB">
   <feGaussianBlur stdDeviation="4.8"/>
  </filter>
 </defs>
 <g transform="translate(0,212)">
  <g></g>
  <g transform="translate(-208,16)">
   <g>
    <circle cx="464" cy="32" r="240" enable-background="new" filter="url(#a)" opacity=".1"/>
    <circle cx="464" cy="32" r="240" enable-background="new" filter="url(#a)" opacity=".2"/>
    <circle cx="464" cy="28" r="240" enable-background="new" fill="#0087ed"/>
    <path transform="translate(0,-244)" d="m 464,32 a 240,240 0 0 0 -240,240 240,240 0 0 0 0.041,1.17188 A 240,240 0 0 1 464,34 240,240 0 0 1 703.95898,272.82812 240,240 0 0 0 704,272 240,240 0 0 0 464,32 Z" enable-background="new" fill="#fff" opacity=".2"/>
   </g>
   <g transform="matrix(1.4666 0 0 1.4666 -501.34 -731.2)" fill="#fff">
    <g transform="matrix(3.5217 0 0 3.5217 -7997.3 -3141.3)" fill="#fff">
     <path transform="matrix(.72605 0 0 .72605 2038.1 672.87)" d="m574.38 462.99c-1.8751 1.125-4.2657 2.7187-7.1719 4.7812-2.8596 2.0157-5.9063 4.6406-9.1406 7.875-2.8125 2.8125-4.7814 5.5782-5.9062 8.2969-1.0786 2.7658-1.4531 5.4844-1.125 8.1562 0.32822 2.6719 1.2422 5.2734 2.7422 7.8047 1.5469 2.5782 3.5626 5.1095 6.0469 7.5938l20.531 20.531 6.5391-6.5391-19.125-19.125c-4.4533-4.4533-6.9375-8.3437-7.4531-11.672-0.51553-3.3283 0.8906-6.6562 4.2188-9.9844 0.70312-0.70326 1.4532-1.4061 2.25-2.1094s1.547-1.3593 2.25-1.9688c0.74995-0.5625 1.4063-1.078 1.9688-1.5469 0.65616-0.46884 1.1486-0.77316 1.4766-0.91406l42.066 42.066 6.5391-6.5391zm-2.0352 20.777-6.541 6.5391 30.869 30.867c-0.14076 0.32807-0.44508 0.82054-0.91406 1.4766-0.46884 0.56249-0.9841 1.2189-1.5469 1.9688-0.6096 0.70298-1.2655 1.4532-1.9688 2.25s-1.4062 1.5469-2.1094 2.25c-3.3282 3.3282-6.6562 4.7344-9.9844 4.2188-3.3282-0.51553-7.2187-3-11.672-7.4531l-19.125-19.125-6.5391 6.5391 20.531 20.531c2.4844 2.4844 5.0157 4.5 7.5938 6.0469 2.5314 1.5 5.1328 2.4141 7.8047 2.7422 2.6719 0.32807 5.3906-0.0468 8.1562-1.125 2.7188-1.125 5.4843-3.0938 8.2969-5.9062 3.2344-3.2344 5.8594-6.2813 7.875-9.1406 2.0624-2.9063 3.6562-5.2969 4.7812-7.1719z" fill="#fff"/>
    </g>
   </g>
  </g>
 </g>
</svg>
