<svg width="512" height="512" enable-background="new" version="1.0" xmlns="http://www.w3.org/2000/svg" xmlns:osb="http://www.openswatchbook.org/uri/2009/osb" xmlns:xlink="http://www.w3.org/1999/xlink">
 <defs>
  <filter id="a" x="-.024" y="-.024" width="1.048" height="1.048" color-interpolation-filters="sRGB">
   <feGaussianBlur stdDeviation="4.8"/>
  </filter>
 </defs>
 <g transform="translate(0,212)">
  <g></g>
  <g transform="translate(-208,16)">
   <circle cx="464" cy="32" r="240" enable-background="new" filter="url(#a)" opacity=".1"/>
   <circle cx="464" cy="32" r="240" enable-background="new" filter="url(#a)" opacity=".2"/>
   <path transform="translate(0,-244)" d="m 464,32 a 240,240 0 0 0 -240,240 240,240 0 0 0 0.041,1.17188 A 240,240 0 0 1 464,34 240,240 0 0 1 703.95898,272.82812 240,240 0 0 0 704,272 240,240 0 0 0 464,32 Z" enable-background="new" fill="#fff" opacity=".2"/>
   <circle cx="464" cy="28" r="240" enable-background="new" fill="#87a556"/>
   <path d="m506.25-149.73 94.18 55.666-94.285 55.666 0.10502-111.33zm-40.513 28.622c6.9072 0 13.661 0.55036 20.309 1.4732v20.625c-6.6109-1.0694-13.382-1.6836-20.309-1.6836-53.854 0-99.91 33.004-118.8 79.974l-17.468-10.312c22.683-52.877 75.218-90.076 136.27-90.076zm0 50.404c6.9163 0 13.677 0.82328 20.204 2.2097v20.941c-6.4416-1.7222-13.211-2.6307-20.204-2.6307-35.367 0-64.895 23.501-74.186 55.771l-18.099-10.733c13.388-38.095 49.759-65.557 92.285-65.557zm118.91 9.3653c18.441 24.724 29.359 55.382 29.359 88.497 0 33.631-11.335 64.737-30.306 89.655l-17.573-10.418c17.195-21.768 27.465-49.246 27.465-79.237 0-29.428-9.9003-56.509-26.518-78.08zm-43.88 25.991c14.208 16.994 22.835 38.767 22.835 62.506 0 24.275-8.9964 46.608-23.782 63.768l-17.994-10.628c13.153-13.814 21.256-32.425 21.256-53.14 0-20.127-7.6125-38.358-20.099-52.088zm-246.66 6.8398 94.18 55.666-94.285 55.666 0.10506-111.33zm97.442 77.238c9.2913 32.244 38.819 55.666 74.186 55.666 6.9944 0 13.761-0.9386 20.204-2.6307v21.046c-6.5273 1.3866-13.288 2.2097-20.204 2.2097-42.559 0-78.925-27.522-92.285-65.663zm-44.617 26.307c18.893 46.969 64.949 79.974 118.8 79.974 6.8602 0 13.545-0.54469 20.099-1.5784v20.52c-6.5681 0.91356-13.274 1.4732-20.099 1.4732-61.053 0-113.59-37.198-136.27-90.076zm159.21 19.467 94.18 55.561-94.285 55.666 0.10502-111.23z" enable-background="new" fill="#fff"/>
  </g>
 </g>
</svg>
