<svg xmlns="http://www.w3.org/2000/svg" width="512" height="512" enable-background="new" version="1.0"><defs><filter id="a" width="1.048" height="1.048" x="-.024" y="-.024" color-interpolation-filters="sRGB"><feGaussianBlur stdDeviation="4.8"/></filter></defs><path d="M464-208c-132.49 0-239.91 107.4-240 239.87v202.88c0 20.632 16.614 37.246 37.246 37.246h202.88c132.5-.055 239.87-107.48 239.87-240 0-132.56-107.45-240-240-240z" filter="url(#a)" opacity=".1" transform="translate(-208 228)"/><path d="M464-208c-132.49 0-239.91 107.4-240 239.87v202.88c0 20.632 16.614 37.246 37.246 37.246h202.88c132.5-.055 239.87-107.48 239.87-240 0-132.56-107.45-240-240-240z" filter="url(#a)" opacity=".2" transform="translate(-208 228)"/><path fill="#294172" d="M256 16C123.51 16 16.09 123.4 16 255.87v202.88c0 20.632 16.614 37.246 37.246 37.246h202.88c132.5-.055 239.87-107.48 239.87-240 0-132.56-107.45-240-240-240z"/><path fill="#5484c6" d="M327.03 60.63c-63.561 0-115.08 51.524-115.08 115.08v60.99h-60.736c-63.559 0-115.08 51.273-115.08 114.83 0 63.564 51.523 115.09 115.08 115.09 63.551 0 115.07-51.522 115.07-115.09v-61.242h60.745c63.55 0 115.07-51.021 115.07-114.58 0-63.56-51.523-115.08-115.07-115.08zM211.95 351.64c-.048 33.49-27.229 60.639-60.737 60.639-33.543 0-60.988-27.194-60.988-60.738 0-33.556 27.444-61.254 60.988-61.254h52.164c4.738 0 8.58 3.835 8.58 8.565 0 .01-.006.01-.006.022v52.766zM327.03 236.7h-52.167a8.566 8.566 0 0 1-8.572-8.575v-52.513c.057-33.509 27.23-60.649 60.74-60.649 33.542 0 60.992 27.196 60.992 60.746 0 33.546-27.45 60.991-60.993 60.991z"/><path fill="#fff" d="M211.95 236.702V175.71c0-63.56 51.521-115.08 115.08-115.08 9.642 0 16.493 1.086 25.417 3.422 13.016 3.413 23.645 14.075 23.651 26.487.006 15.004-10.886 25.912-27.163 25.912-7.755 0-10.557-1.485-21.911-1.485-33.51 0-60.682 27.14-60.739 60.65v52.51a8.566 8.566 0 0 0 8.57 8.575h39.917c14.864 0 26.867 11.9 26.879 26.804 0 14.91-12.021 26.782-26.88 26.782h-48.486v61.254c0 63.553-51.523 115.07-115.07 115.07-9.644 0-16.495-1.087-25.42-3.425-13.015-3.41-23.648-14.079-23.654-26.487 0-15 10.884-25.912 27.168-25.912 7.746 0 10.557 1.487 21.905 1.487 33.51 0 60.69-27.142 60.743-60.639v-52.785c0-4.733-3.843-8.565-8.58-8.565H163.47c-14.868 0-26.88-11.862-26.88-26.775-.005-14.997 12.136-26.81 27.162-26.81h48.197v-.002z"/><path fill="#fff" d="M256 16A240 240 0 0 0 16 256l.041 1.172A240 240 0 0 1 256 18a240 240 0 0 1 239.959 238.828L496 256A240 240 0 0 0 256 16" opacity=".2"/></svg>