<svg width="512" height="512" enable-background="new" version="1.0" xmlns="http://www.w3.org/2000/svg" xmlns:osb="http://www.openswatchbook.org/uri/2009/osb" xmlns:xlink="http://www.w3.org/1999/xlink">
 <defs>
  <filter id="a" x="-.024" y="-.024" width="1.048" height="1.048" color-interpolation-filters="sRGB">
   <feGaussianBlur stdDeviation="4.8"/>
  </filter>
 </defs>
 <g transform="translate(0,212)">
  <g></g>
  <g transform="translate(-208,16)">
   <g>
    <circle cx="464" cy="32" r="240" enable-background="new" filter="url(#a)" opacity=".1"/>
    <circle cx="464" cy="32" r="240" enable-background="new" filter="url(#a)" opacity=".2"/>
    <circle cx="464" cy="28" r="240" enable-background="new" fill="#e95420"/>
    <path transform="translate(0,-244)" d="m 464,32 a 240,240 0 0 0 -240,240 240,240 0 0 0 0.041,1.17188 A 240,240 0 0 1 464,34 240,240 0 0 1 703.95898,272.82812 240,240 0 0 0 704,272 240,240 0 0 0 464,32 Z" enable-background="new" fill="#fff" opacity=".2"/>
   </g>
   <path d="m314.4-1.368c-16.225 0-29.373 13.147-29.373 29.373 0 16.219 13.147 29.368 29.373 29.368 16.219 0 29.368-13.149 29.368-29.368 0-16.227-13.147-29.373-29.368-29.373zm209.72 133.49c-14.049 8.1104-18.858 26.066-10.751 40.109 8.1119 14.049 26.066 18.861 40.116 10.751 14.044-8.1088 18.856-26.065 10.746-40.112-8.1088-14.043-26.066-18.856-40.111-10.748zm-145.92-104.13c0-29.028 14.425-54.668 36.483-70.193l-21.473-35.97c-25.705 17.174-44.825 43.428-52.768 74.177 9.2776 7.5624 15.206 19.078 15.206 31.988 0 12.907-5.9279 24.423-15.207 31.983 7.9412 30.753 27.063 57.007 52.768 74.179l21.475-35.973c-22.059-15.522-36.483-41.16-36.483-70.193zm85.799-85.799c44.823 0 81.591 34.368 85.445 78.19l41.86-0.61158c-2.0598-32.354-16.193-61.409-37.913-82.763-11.167 4.2189-24.067 3.5794-35.217-2.8592-11.164-6.4448-18.169-17.317-20.087-29.115-10.853-3.0035-22.276-4.6411-34.087-4.6411-20.312 0-39.502 4.7684-56.549 13.212l20.405 36.57c10.985-5.1115 23.226-7.9831 36.142-7.9831zm0 171.6c-12.918 0-25.157-2.8716-36.143-7.9831l-20.409 36.573c17.048 8.441 36.24 13.211 56.552 13.211 11.811 0 23.234-1.6376 34.088-4.6411 1.9186-11.798 8.9253-22.67 20.09-29.12 11.15-6.4355 24.05-7.075 35.217-2.8545 21.719-21.355 35.852-50.41 37.908-82.764l-41.86-0.61158c-3.8511 43.828-40.62 78.19-85.444 78.19zm60.113-189.93c14.048 8.1135 32.005 3.3 40.112-10.743 8.1119-14.049 3.3031-32.005-10.746-40.117-14.046-8.1088-32.002-3.2969-40.114 10.752-8.1088 14.043-3.2969 32.001 10.748 40.108z" fill="#fff"/>
  </g>
 </g>
</svg>
