<svg xmlns="http://www.w3.org/2000/svg" width="512" height="512" enable-background="new" version="1.0"><defs><filter id="a" width="1.048" height="1.048" x="-.024" y="-.024" color-interpolation-filters="sRGB"><feGaussianBlur stdDeviation="4.8"/></filter></defs><g transform="translate(-208 228)"><circle cx="464" cy="30" r="240" enable-background="new" opacity=".2"/><circle cx="464" cy="32" r="240" enable-background="new" filter="url(#a)" opacity=".1"/><circle cx="464" cy="32" r="240" enable-background="new" filter="url(#a)" opacity=".2"/><circle cx="464" cy="28" r="240" fill="#04a" enable-background="new"/><path fill="#fff" d="M464-212A240 240 0 0 0 224 28l.041 1.172A240 240 0 0 1 464-210 240 240 0 0 1 703.959 28.828L704 28a240 240 0 0 0-240-240" enable-background="new" opacity=".2"/><g fill="#fff"><path d="M542.537-122.036c-.725.444-1.021.827-.843.54-8.15 13.781-8.222 31.825-11.907 48.023a6 6 0 0 1 0 .844c-1.806 17.736-7.604 35.784-2.953 52.804a6 6 0 0 1 .47 1.08c.865 1.118 1.955 2.14 2.601 2.273.484.096 1.205-.123 2.883-1.29 1.815-1.263 2.982-3.584 3.515-6.914a6 6 0 0 1 1.031-2.507c7.268-28.84 12.453-59.134 10.524-88.781a6 6 0 0 1 0-.305c-.252-1.368-.68-2.188-1.993-3.773-.903-1.089-1.456-1.667-1.687-1.828-.23-.162-.036-.19-.868-.14a6 6 0 0 1-.774-.025zM609.364-107.97a6 6 0 0 1-.61.048c-12.503 6.085-18.934 20.785-27.585 32.602a5.6 5.6 0 0 1-.632 1.664C569.643-54.35 555.77-35.212 554.31-12.883c.072 3.53 2.081 5.546 4.171 6 1.971.414 5.578-.86 7.055-3.07.129-.32.024-.642.211-.915a6 6 0 0 1 .14-.211c19.753-27.14 34.68-59.333 46.946-90.61l.024-.096c.848-2.054.895-2.86.14-4.406-.222-.457-2.431-1.931-3.633-1.782z"/><path d="M415.14-98.94c-2.007.373-4.993 2.17-7.125 3-7.54 2.86-11.7 9.324-13.5 16.874-1.833 7.726-1.222 16.33 0 25.126 1.222 8.777 2.97 17.838 4.875 24.75 1.637 5.98 2.81 8.89 3.375 10.875v1.5c0 .654-.313.6-.75 1.124-.24.131.24.75 0 .75-.544.416-1.199.75-1.875.75-1.332.084-2.373-.4-3.75-.75-.938-.217-2.16-.968-1.875-.75-.436-.261-1.216-.291-1.5-.75 0 .176.263.172 0-.374-.305-.568-.644-1.997-1.124-3-1.07-2.274-1.91-4.907-3.375-8.25-2.926-6.657-6.69-14.833-10.875-22.5-4.2-7.697-9.147-14.682-14.626-19.5-2.738-2.406-6.118-4.819-9.375-5.625-3.144-.786-6.874-.12-10.125 1.5-8.4 4.66-13.154 12.29-15 20.25-1.855 8.082-.978 17.388.374 25.5 1.375 8.094 3.503 14.77 4.875 20.25.588 2.31 1.305 4.468 1.5 5.625 0 1.146-.466 4.138-.75 5.25-1.418 4.911-4.867 13.126-4.875 13.126 0 0-65.434 173.796 75 161.628 1.157-.084 3.785-.75 4.875-.75 27.58-5.553 53.678-13.893 76.875-23.25 4.557-2.184 10.536-4.354 17.25-7.5 13.425-6.29 30.294-14.351 46.5-23.25 16.212-8.907 31.254-18.396 42.75-28.5 11.515-10.12 19.92-21.208 18.374-32.25-2.443-17.801-14.265-31.031-30-41.25-15.793-10.257-35.487-17.336-55.125-22.5-19.63-5.163-38.69-9.36-53.25-11.625-7.279-1.134-14.1-1.464-18.375-2.25-1.265-.218-1.94-.532-2.625-.75-.368-.048-.4-.158-.75-.375-.435-.261-1.237-.291-1.5-.75-.24-.435 0-.998 0-1.5 0-.195-.002-.488 0-.75v-10.875c-.24-8.976-.768-20.826-2.625-31.874-1.876-11.095-4.77-21.706-10.875-28.875-3.628-4.265-8.764-7.064-15-7.5-1.876-.218-3.973-.37-6 0z"/></g></g></svg>