<svg xmlns="http://www.w3.org/2000/svg" width="512" height="512" enable-background="new" version="1.0"><defs><filter id="b" width="1.048" height="1.048" x="-.024" y="-.024" color-interpolation-filters="sRGB"><feGaussianBlur stdDeviation="2.72"/></filter><filter id="a" width="1.045" height="1.051" x="-.023" y="-.025" color-interpolation-filters="sRGB"><feGaussianBlur stdDeviation="4.24"/></filter></defs><g color="#000"><path d="M240-176v96h32c8.836 0 15.999 7.164 16 16V96s0 128 128 128h272V-33.5c0-79.154-63.346-142.5-142.5-142.5H272z" enable-background="accumulate" filter="url(#a)" opacity=".1" transform="translate(-208 228)"/><path d="M240-176v96h32c8.836 0 15.999 7.164 16 16V96s0 128 128 128h272V-33.5c0-79.154-63.346-142.5-142.5-142.5H272z" enable-background="accumulate" filter="url(#a)" opacity=".2" transform="translate(-208 228)"/><path d="M32 50v96h32c8.836 0 15.999 7.164 16 16v160s0 128 128 128h272V192.5C480 113.346 416.654 50 337.5 50H64z" enable-background="accumulate" opacity=".2"/><path fill="#fff" d="M32 48v96h32c8.836 0 15.999 7.164 16 16v160s0 128 128 128h272V190.5C480 111.346 416.654 48 337.5 48H64z" enable-background="accumulate"/><path fill="#4caf50" d="M64 80v32c26.465-.012 48.012 21.535 48 48v160c0 91.29 96 96 96 96h240V190.5C448 128.385 399.615 80 337.5 80H224z" enable-background="accumulate"/><path d="M384 320c0 17.728-14.272 32-32 32h-95.75v32H352c35.456 0 64-28.544 64-64v-16h-32z" enable-background="accumulate" opacity=".2"/><path d="M352-112V96c0 35.456 28.544 64 64 64h48.25v-32H416c-17.728 0-32-14.272-32-32v-208zm136 32c-30.928 0-56 25.072-56 56V80h32V-24c0-13.255 10.745-24 24-24s24 10.745 24 24V80h32V-24c0-13.255 10.745-24 24-24s24 10.745 24 24V80h32V-24c0-30.928-25.072-56-56-56-15.713 0-29.83 6.577-40 17-10.17-10.423-24.287-17-40-17" enable-background="accumulate" filter="url(#b)" opacity=".2" transform="translate(-208 228)"/><path fill="#fff" d="M144 112v208c0 35.456 28.544 64 64 64h48.25v-32H208c-17.728 0-32-14.272-32-32V112zm136 32c-30.928 0-56 25.072-56 56v104h32V200c0-13.255 10.745-24 24-24s24 10.745 24 24v104h32V200c0-13.255 10.745-24 24-24s24 10.745 24 24v104h32V200c0-30.928-25.072-56-56-56-15.713 0-29.83 6.577-40 17-10.17-10.423-24.287-17-40-17" enable-background="accumulate"/><path d="M64 80v2h273.5C399.615 82 448 130.385 448 192.5v-2C448 128.385 399.615 80 337.5 80H224z" enable-background="accumulate" opacity=".2"/></g></svg>