<svg width="512" height="512" enable-background="new" version="1.0" xmlns="http://www.w3.org/2000/svg" xmlns:osb="http://www.openswatchbook.org/uri/2009/osb" xmlns:xlink="http://www.w3.org/1999/xlink">
 <defs>
  <filter id="a" x="-.024" y="-.024" width="1.048" height="1.048" color-interpolation-filters="sRGB">
   <feGaussianBlur stdDeviation="4.8"/>
  </filter>
 </defs>
 <g transform="translate(0,212)">
  <g></g>
  <g transform="translate(-208,16)">
   <g>
    <circle cx="464" cy="30" r="240" enable-background="new" opacity=".2"/>
    <circle cx="464" cy="32" r="240" enable-background="new" filter="url(#a)" opacity=".1"/>
    <circle cx="464" cy="32" r="240" enable-background="new" filter="url(#a)" opacity=".2"/>
   </g>
   <circle cx="464" cy="28" r="240" enable-background="new" fill="#04a"/>
   <path transform="translate(0,-244)" d="m 464,32 a 240,240 0 0 0 -240,240 240,240 0 0 0 0.041,1.17188 A 240,240 0 0 1 464,34 240,240 0 0 1 703.95898,272.82812 240,240 0 0 0 704,272 240,240 0 0 0 464,32 Z" enable-background="new" fill="#fff" opacity=".2"/>
   <g transform="matrix(12 0 0 12 -3732.9 -4686.3)" fill="#fff">
    <g transform="translate(.44643 -.044643)">
     <path d="m355.84 380.4c-0.0604 0.037-0.0851 0.0689-0.0703 0.0449-0.6791 1.1485-0.68514 2.6522-0.99219 4.002a0.49822 0.49822 0 0 1 0 0.0703c-0.1505 1.478-0.63371 2.982-0.24609 4.4004a0.49822 0.49822 0 0 1 0.0391 0.0899c0.0721 0.0932 0.16294 0.17837 0.2168 0.18945 0.0403 8e-3 0.10045-0.0102 0.24023-0.10742 0.15127-0.1053 0.24855-0.2987 0.29297-0.57618a0.49822 0.49822 0 0 1 0.0859-0.20898c0.60561-2.4033 1.0377-4.9278 0.87695-7.3984a0.49822 0.49822 0 0 1 0-0.0254c-0.021-0.11401-0.0566-0.18236-0.16601-0.31445-0.0753-0.0907-0.12141-0.13888-0.14063-0.15234-0.0192-0.0135-3e-3 -0.0158-0.0723-0.0117a0.49822 0.49822 0 0 1-0.0645-2e-3z"/>
     <path transform="translate(-.49107 -.26786)" d="m361.9 381.84a0.46681 0.46681 0 0 1-0.0508 4e-3c-1.042 0.5071-1.5779 1.7321-2.2988 2.7168a0.46681 0.46681 0 0 1-0.0527 0.13868c-0.90784 1.6089-2.0639 3.2037-2.1856 5.0644 6e-3 0.29418 0.17347 0.46224 0.34766 0.5 0.16423 0.0345 0.4648-0.0716 0.58789-0.25586 0.0107-0.0266 2e-3 -0.0534 0.0176-0.0762a0.46681 0.46681 0 0 1 0.0117-0.0176c1.646-2.2617 2.89-4.9444 3.9121-7.5508a0.46681 0.46681 0 0 1 2e-3 -8e-3c0.0707-0.17114 0.0746-0.23837 0.0117-0.36719-0.0185-0.0381-0.20261-0.1609-0.30274-0.14844z"/>
    </g>
    <path d="m345.67 382.28c-0.16726 0.0311-0.4161 0.1809-0.59375 0.25-0.62832 0.23837-0.975 0.77698-1.125 1.4062-0.15274 0.64382-0.10183 1.3608 0 2.0938 0.10181 0.73145 0.24752 1.4865 0.40625 2.0625 0.13645 0.49836 0.23415 0.7408 0.28125 0.90625v0.125c0 0.0545-0.0261 0.05-0.0625 0.0937-0.02 0.0109 0.02 0.0625 0 0.0625-0.0453 0.0346-0.0999 0.0625-0.15625 0.0625-0.11101 7e-3 -0.19778-0.0334-0.3125-0.0625-0.0782-0.0181-0.17995-0.0807-0.15625-0.0625-0.0363-0.0218-0.1013-0.0243-0.125-0.0625 0 0.0146 0.0219 0.0143 0-0.0312-0.0254-0.0473-0.0537-0.1664-0.0937-0.25-0.0891-0.18946-0.15908-0.40895-0.28125-0.6875-0.24381-0.55472-0.55754-1.2361-0.90625-1.875-0.34999-0.64145-0.76223-1.2235-1.2188-1.625-0.22817-0.20054-0.50982-0.40155-0.78125-0.46875-0.26199-0.0655-0.57287-0.01-0.84375 0.125-0.69997 0.38836-1.0962 1.0242-1.25 1.6875-0.15456 0.67346-0.0815 1.449 0.0312 2.125 0.11454 0.67454 0.29189 1.2308 0.40625 1.6875 0.049 0.19254 0.1087 0.37235 0.125 0.46875 0 0.0955-0.0389 0.3448-0.0625 0.4375-0.11818 0.40928-0.40559 1.0938-0.40625 1.0938 0 0-5.4529 14.483 6.25 13.469 0.0964-7e-3 0.31535-0.0625 0.40625-0.0625 2.2983-0.46272 4.4731-1.1577 6.4062-1.9375 0.3798-0.182 0.87805-0.36282 1.4375-0.625 1.1188-0.52418 2.5245-1.1959 3.875-1.9375 1.351-0.74219 2.6045-1.533 3.5625-2.375 0.9596-0.84327 1.66-1.7673 1.5312-2.6875-0.20364-1.4834-1.1888-2.5859-2.5-3.4375-1.3161-0.85473-2.9573-1.4446-4.5938-1.875-1.6358-0.43018-3.2241-0.78002-4.4375-0.96875-0.60652-0.0945-1.1749-0.122-1.5312-0.1875-0.10544-0.0181-0.16175-0.0443-0.21875-0.0625-0.0307-4e-3 -0.0334-0.0131-0.0625-0.0312-0.0363-0.0218-0.1031-0.0243-0.125-0.0625-0.02-0.0363 0-0.0832 0-0.125 0-0.0163-1.7e-4 -0.0407 0-0.0625v-0.90625c-0.02-0.748-0.064-1.7355-0.21875-2.6562-0.15637-0.92455-0.39754-1.8088-0.90625-2.4062-0.30235-0.35545-0.73038-0.5887-1.25-0.625-0.15636-0.0182-0.3311-0.0309-0.5 0z"/>
   </g>
  </g>
 </g>
</svg>
