<svg width="512" height="512" enable-background="new" version="1.0" xmlns="http://www.w3.org/2000/svg">
 <defs>
  <filter id="a" x="-.03" y="-.02" width="1.06" height="1.04" color-interpolation-filters="sRGB">
   <feGaussianBlur stdDeviation="4"/>
  </filter>
 </defs>
 <g transform="translate(0,212)">
  <g>
   <g transform="translate(-208,16)">
    <g>
     <path d="m452.57-208a17.143 17.143 0 0 0-17.145 17.143 17.143 17.143 0 0 0 17.145 17.143 17.143 17.143 0 0 0 17.143-17.143 17.143 17.143 0 0 0-17.143-17.143zm45.713 28.572a20 20 0 0 0-20 20 20 20 0 0 0 20 20 20 20 0 0 0 20-20 20 20 0 0 0-20-20zm-45.713 28.57a22.857 22.857 0 0 0-22.857 22.857 22.857 22.857 0 0 0 22.857 22.857 22.857 22.857 0 0 0 22.855-22.857 22.857 22.857 0 0 0-22.855-22.857zm57.096 51.428c-14.18 0.0118-25.714 11.554-25.691 25.75 0.00926 14.159 11.544 25.68 25.715 25.68h0.0234c14.178-0.01406 25.689-11.554 25.689-25.75-0.0139-14.159-11.547-25.68-25.736-25.68zm-74.264 17.146c-15.752 0.0168-28.57 12.834-28.547 28.613 0.0166 15.727 12.832 28.527 28.57 28.527h0.0234l2e-3 2e-3c15.752-0.01662 28.547-12.838 28.547-28.617-0.019-15.727-12.834-28.525-28.596-28.525zm-70.199 68.48a160 160 0 0 0-61.205 125.8 160 160 0 0 0 160 160 160 160 0 0 0 160-160 160 160 0 0 0-61.205-125.62 160 160 0 0 1-98.795 34.197 160 160 0 0 1-98.795-34.375z" filter="url(#a)" opacity=".1"/>
     <path d="m452.57-208a17.143 17.143 0 0 0-17.145 17.143 17.143 17.143 0 0 0 17.145 17.143 17.143 17.143 0 0 0 17.143-17.143 17.143 17.143 0 0 0-17.143-17.143zm45.713 28.572a20 20 0 0 0-20 20 20 20 0 0 0 20 20 20 20 0 0 0 20-20 20 20 0 0 0-20-20zm-45.713 28.57a22.857 22.857 0 0 0-22.857 22.857 22.857 22.857 0 0 0 22.857 22.857 22.857 22.857 0 0 0 22.855-22.857 22.857 22.857 0 0 0-22.855-22.857zm57.096 51.428c-14.18 0.0118-25.714 11.554-25.691 25.75 0.00926 14.159 11.544 25.68 25.715 25.68h0.0234c14.178-0.01406 25.689-11.554 25.689-25.75-0.0139-14.159-11.547-25.68-25.736-25.68zm-74.264 17.146c-15.752 0.0168-28.57 12.834-28.547 28.613 0.0166 15.727 12.832 28.527 28.57 28.527h0.0234l2e-3 2e-3c15.752-0.01662 28.547-12.838 28.547-28.617-0.019-15.727-12.834-28.525-28.596-28.525zm-70.199 68.48a160 160 0 0 0-61.205 125.8 160 160 0 0 0 160 160 160 160 0 0 0 160-160 160 160 0 0 0-61.205-125.62 160 160 0 0 1-98.795 34.197 160 160 0 0 1-98.795-34.375z" filter="url(#a)" opacity=".2"/>
     <path d="m452.57-210a17.143 17.143 0 0 0-17.145 17.143 17.143 17.143 0 0 0 17.145 17.143 17.143 17.143 0 0 0 17.143-17.143 17.143 17.143 0 0 0-17.143-17.143zm45.713 28.572a20 20 0 0 0-20 20 20 20 0 0 0 20 20 20 20 0 0 0 20-20 20 20 0 0 0-20-20zm-45.713 28.57a22.857 22.857 0 0 0-22.857 22.857 22.857 22.857 0 0 0 22.857 22.857 22.857 22.857 0 0 0 22.855-22.857 22.857 22.857 0 0 0-22.855-22.857zm57.096 51.428c-14.18 0.0118-25.714 11.554-25.691 25.75 0.00926 14.159 11.544 25.68 25.715 25.68h0.0234c14.178-0.01406 25.689-11.554 25.689-25.75-0.0139-14.159-11.547-25.68-25.736-25.68zm-74.264 17.146c-15.752 0.0168-28.57 12.834-28.547 28.613 0.0166 15.727 12.832 28.527 28.57 28.527h0.0234l2e-3 2e-3c15.752-0.01662 28.547-12.838 28.547-28.617-0.019-15.727-12.834-28.525-28.596-28.525zm-70.199 68.48a160 160 0 0 0-61.205 125.8 160 160 0 0 0 160 160 160 160 0 0 0 160-160 160 160 0 0 0-61.205-125.62 160 160 0 0 1-98.795 34.197 160 160 0 0 1-98.795-34.375z" opacity=".2"/>
    </g>
    <path transform="translate(0,-244)" d="m452.57 32a17.143 17.143 0 0 0-17.145 17.143 17.143 17.143 0 0 0 17.145 17.143 17.143 17.143 0 0 0 17.143-17.143 17.143 17.143 0 0 0-17.143-17.143zm45.713 28.572a20 20 0 0 0-20 20 20 20 0 0 0 20 20 20 20 0 0 0 20-20 20 20 0 0 0-20-20zm-45.713 28.57a22.857 22.857 0 0 0-22.857 22.857 22.857 22.857 0 0 0 22.857 22.857 22.857 22.857 0 0 0 22.855-22.857 22.857 22.857 0 0 0-22.855-22.857zm57.096 51.428c-14.18 0.0118-25.714 11.554-25.691 25.75 0.00926 14.159 11.544 25.68 25.715 25.68h0.0234c14.178-0.0141 25.689-11.554 25.689-25.75-0.0139-14.159-11.547-25.68-25.736-25.68zm-74.264 17.146c-15.752 0.0168-28.57 12.834-28.547 28.613 0.0166 15.727 12.832 28.527 28.57 28.527h0.0234l2e-3 2e-3c15.752-0.01662 28.547-12.838 28.547-28.617-0.019-15.727-12.834-28.525-28.596-28.525z" fill="#03a9f4"/>
    <path d="m365.21-17.804a160 160 0 0 0-61.205 125.8 160 160 0 0 0 160 160 160 160 0 0 0 160-160 160 160 0 0 0-61.205-125.63 160 160 0 0 1-98.795 34.196 160 160 0 0 1-98.795-34.375z" fill="#0d47a1"/>
    <path transform="translate(0,-244)" d="m452.57 32a17.143 17.143 0 0 0-17.145 17.143 17.143 17.143 0 0 0 0.041 0.82617 17.143 17.143 0 0 1 17.104-15.969 17.143 17.143 0 0 1 17.102 16.314 17.143 17.143 0 0 0 0.041-1.1719 17.143 17.143 0 0 0-17.143-17.143zm45.713 28.572a20 20 0 0 0-20 20 20 20 0 0 0 0.041 0.83789 20 20 0 0 1 19.959-18.838 20 20 0 0 1 19.959 19.162 20 20 0 0 0 0.041-1.1621 20 20 0 0 0-20-20zm-45.713 28.57a22.857 22.857 0 0 0-22.857 22.857 22.857 22.857 0 0 0 0.041 0.82812 22.857 22.857 0 0 1 22.816-21.686 22.857 22.857 0 0 1 22.814 22.029 22.857 22.857 0 0 0 0.041-1.1719 22.857 22.857 0 0 0-22.855-22.857zm57.096 51.428c-14.18 0.0118-25.714 11.554-25.691 25.75 2.1e-4 0.31548 0.0138 0.62865 0.0254 0.94141 0.53605-13.706 11.841-24.68 25.666-24.691 13.864 0 25.185 10.999 25.711 24.709 0.0135-0.34206 0.0254-0.68397 0.0254-1.0293-0.0139-14.159-11.547-25.68-25.736-25.68zm-74.264 17.146c-15.752 0.0168-28.57 12.834-28.547 28.613 3.4e-4 0.31716 0.0147 0.63061 0.0254 0.94531 0.53537-15.291 13.122-27.542 28.521-27.559 15.435 0 28.036 12.275 28.57 27.553 0.0121-0.34153 0.0254-0.68289 0.0254-1.0273-0.019-15.727-12.834-28.525-28.596-28.525zm-70.199 68.48a160 160 0 0 0-61.205 125.8 160 160 0 0 0 0.0332 0.65234 160 160 0 0 1 61.172-124.46 160 160 0 0 0 98.795 34.375 160 160 0 0 0 98.795-34.197 160 160 0 0 1 61.164 124.81 160 160 0 0 0 0.04102-1.1856 160 160 0 0 0-61.205-125.62 160 160 0 0 1-98.795 34.197 160 160 0 0 1-98.795-34.375z" fill="#fff" opacity=".2"/>
   </g>
  </g>
 </g>
</svg>
