<svg xmlns="http://www.w3.org/2000/svg" width="512" height="512" enable-background="new" version="1.0"><defs><filter id="a" width="1.048" height="1.048" x="-.024" y="-.024" color-interpolation-filters="sRGB"><feGaussianBlur stdDeviation="4.8"/></filter></defs><g transform="translate(-208 228)"><circle cx="464" cy="32" r="240" enable-background="new" filter="url(#a)" opacity=".1"/><circle cx="464" cy="32" r="240" enable-background="new" filter="url(#a)" opacity=".2"/><circle cx="464" cy="28" r="240" fill="#3d91e7" enable-background="new"/><path fill="#fff" d="M464-212A240 240 0 0 0 224 28l.041 1.172A240 240 0 0 1 464-210 240 240 0 0 1 703.959 28.828L704 28a240 240 0 0 0-240-240" enable-background="new" opacity=".2"/><path fill="#fff" d="M464-172c-110.46 0-200 89.543-200 200 0 110.46 89.543 200 200 200 110.46 0 200-89.543 200-200 0-110.46-89.543-200-200-200m0 16.667c83.978 0 154.77 56.466 176.48 133.5-18.699 38.568-45.306 73.293-77.708 101.35-15.566 13.48-32.561 25.497-51.333 33.958-18.773 8.461-39.421 13.262-59.979 12.083-15.445-.886-30.703-5.188-44.229-12.687 35.847-19.424 68.191-45.322 94.667-76.333 17.378-20.355 32.583-43.488 38.438-69.604 2.927-13.058 3.423-26.734.687-39.833-2.735-13.1-8.792-25.583-17.958-35.333-8.954-9.526-20.71-16.273-33.312-19.75-12.603-3.477-26.014-3.746-38.875-1.396-25.72 4.7-48.686 19.65-67.104 38.208-32.465 32.713-52.536 78.871-48.854 124.81 1.841 22.97 9.54 45.542 22.73 64.438a120 120 0 0 0 9.645 12.042c-19.216 6.725-39.112 11.512-59.292 14.208-17.325-27.995-27.333-60.992-27.333-96.333 0-101.25 82.081-183.33 183.33-183.33zm1.167 37.042c12.888.017 25.863 3.92 36.146 11.688 9.264 6.999 16.129 16.956 20.02 27.896 3.892 10.94 4.89 22.819 3.563 34.354-2.655 23.07-14.294 44.227-28.354 62.708-24.896 32.724-57.988 58.915-94.792 77.25a297 297 0 0 1-11.437 5.375c-8.008-7.008-14.872-15.32-20.104-24.583-10.932-19.356-14.538-42.35-12.417-64.479s9.715-43.457 19.917-63.208c11.828-22.901 27.951-44.593 50.521-57.042 11.285-6.224 24.05-9.976 36.937-9.958zm180.52 121.75a185 185 0 0 1 1.645 24.542c0 101.25-82.08 183.33-183.33 183.33-56.864 0-107.69-25.887-141.31-66.521 20.756-4.714 41.042-11.485 60.5-20.104 8.51 6.48 17.906 11.795 27.896 15.625 28.767 11.029 61.428 9.433 90.542-.646s54.931-28.169 77.438-49.208c26.811-25.063 49.416-54.605 66.625-87.02z" enable-background="new"/></g></svg>