<svg width="512" height="512" enable-background="new" version="1.0" xmlns="http://www.w3.org/2000/svg" xmlns:osb="http://www.openswatchbook.org/uri/2009/osb" xmlns:xlink="http://www.w3.org/1999/xlink">
 <defs>
  <filter id="a" x="-.024" y="-.024" width="1.048" height="1.048" color-interpolation-filters="sRGB">
   <feGaussianBlur stdDeviation="4.8"/>
  </filter>
 </defs>
 <g transform="translate(0,212)">
  <g>
   <g transform="translate(-208,16)">
    <g>
     <circle cx="464" cy="30" r="240" opacity=".2"/>
     <circle cx="464" cy="32" r="240" filter="url(#a)" opacity=".1"/>
     <circle cx="464" cy="32" r="240" filter="url(#a)" opacity=".2"/>
    </g>
    <circle cx="464" cy="28" r="240" fill="#8bc34a"/>
    <path transform="translate(0,-244)" d="m 464,32 a 240,240 0 0 0 -240,240 240,240 0 0 0 0.041,1.17188 A 240,240 0 0 1 464,34 240,240 0 0 1 703.95898,272.82812 240,240 0 0 0 704,272 240,240 0 0 0 464,32 Z" fill="#fff" opacity=".2"/>
    <path d="m455.34-63.034c-8.9835 0.0061-17.309 0.21184-21.229 0.64592-23.769 2.6307-44.639 8.956-67.856 20.547-37.419 18.682-60.914 39.826-74.182 66.777-5.941 12.068-7.9967 20.523-8.0659 33.164-0.0484 7.9978 0.54345 12.239 2.6087 18.744 7.4402 23.432 28.65 40.153 53.223 41.98 23.778 1.7676 41.447-7.6433 49.34-26.269 2.8615-6.7527 3.7211-12.617 2.9235-20.006-1.9502-18.07-13.641-31.815-30.914-36.363-5.289-1.3925-13.429-1.4362-18.621-0.01406-14.233 3.8966-24.587 16.727-20.78 32.563 3.2303 13.435 18.929 21.855 32.204 16.522 5.3011-2.1295 8.387-4.7066 6.8516-10.363-1.5651-5.7653-5.4347-7.1252-12.849-5.0467-2.9183 0.81816-4.9828 0.29422-7.1664-1.6822-3.6632-3.3155-3.6046-8.3832 0.1496-12.001 4.5701-4.4034 12.925-4.7743 20.554-0.90128 7.5505 3.8331 13.066 14.682 11.874 23.356-1.2797 9.3109-6.6216 15.737-15.577 18.729-2.99 0.999-4.227 1.1141-11.274 1.0965-7.5593-0.0208-8.1171-0.08801-12.369-1.517-15.949-5.3594-26.484-19.886-26.581-36.663-0.0622-10.595 3.6998-19.149 12.054-27.396 7.8531-7.7527 17.997-11.54 30.914-11.535 16.057 0.0061 29.39 5.619 41.064 17.303 8.7858 8.7928 15.419 20.71 17.976 32.262l0.80952 3.6648 23.058 11.31c0.18482-0.169 0.13078-1.7214-0.11981-2.7787-0.94494-3.9951-1.0928-15.12-0.27-19.826 1.197-6.8432 2.8151-10.405 6.2668-13.818 5.3219-5.2628 11.891-7.5308 21.859-7.5399 13.259-0.01406 24.511 4.846 34.572 14.945 2.2577 2.266 7.1788 7.6333 10.944 11.926 3.7657 4.2922 7.4207 8.2149 8.1258 8.7114 1.9784 1.3929 28.857 13.702 29.19 13.368 0.162-0.1626-0.79081-1.8757-2.129-3.815-5.2377-7.5905-9.6788-17.368-11.379-25.038-1.1633-5.2475-0.84429-12.992 0.68955-16.522 1.4361-3.3044 4.4979-6.0959 7.736-7.0593 3.4686-1.0319 11.04-0.96958 21.199 0.18 12.185 1.3791 18.921 1.6438 26.956 1.0363 18.298-1.3833 30.277-4.3926 43.688-10.949 7.0088-3.4268 8.4989-4.7494 10.015-8.8466 1.4455-3.9066 2.1312-7.6451 1.3943-7.6451-0.26032 0-2.722 1.0585-5.4722 2.3581-10.32 4.8767-19.18 7.0439-27.046 6.6237-8.1775-0.43618-21.571-4.9283-37.466-12.571l-7.2414-3.4845-5.9068-14.148 5.5171 3.4393c9.0759 6.0267 23.753 13.242 32.699 16.071 13.666 4.3219 24.542 3.7583 35.547-1.8474 3.8788-1.9757 11.154-6.9695 11.154-7.66 0-1.3013-3.8908-13.95-6.057-19.691-5.4167-14.356-9.109-19.142-18.036-23.401-9.9106-4.7276-20.833-8.1146-40.914-12.692-9.6011-2.0386-19.251-4.0118-28.995-5.2269l-0.23951 11.896c-22.702-7.06-42.565-11.727-64.557-13.998-5.6831-0.58708-18.315-0.90824-29.865-0.90116zm150.42 24.362c7.3339-0.0208 14.332 3.7521 18.426 10.574 6.9799 11.632 1.2582 26.744-11.799 31.151-8.617 2.9082-18.879-0.5677-24.093-8.1557-4.2794-6.2282-4.9969-14.269-1.889-21.013 1.7659-3.8318 5.9688-8.3648 9.3852-10.108 3.2236-1.6451 6.6364-2.4397 9.97-2.4482zm-0.24027 6.2182c-3.4368 0.0726-6.9388 1.3496-9.8949 4.0253-4.5136 4.085-5.9631 11.473-3.3584 17.107 2.1386 4.6264 6.1889 7.8188 10.914 8.5913 6.7013 1.0955 13.05-2.0305 15.832-7.8102 1.9033-3.9537 2.2424-6.6669 1.2894-10.394-1.8917-7.3973-8.2215-11.659-14.783-11.52zm3.5082 7.645c2.5478 0 5.6132 1.5926 5.997 3.1241 0.52132 2.0811-0.1848 3.5187-2.2039 4.551-3.1189 1.594-7.1276 1.143-9.4753-1.0664-2.8942-2.724 0.44584-6.6087 5.6821-6.6087z" enable-background="new" fill="#fff"/>
   </g>
  </g>
 </g>
</svg>
