<svg xmlns="http://www.w3.org/2000/svg" width="512" height="512" enable-background="new" version="1.0"><defs><filter id="a" width="1.06" height="1.04" x="-.03" y="-.02" color-interpolation-filters="sRGB"><feGaussianBlur stdDeviation="4"/></filter></defs><path d="M452.57-208a17.143 17.143 0 0 0-17.145 17.143 17.143 17.143 0 0 0 17.145 17.143 17.143 17.143 0 0 0 17.143-17.143A17.143 17.143 0 0 0 452.57-208m45.713 28.572a20 20 0 0 0-20 20 20 20 0 0 0 20 20 20 20 0 0 0 20-20 20 20 0 0 0-20-20m-45.713 28.57a22.857 22.857 0 0 0-22.857 22.857 22.857 22.857 0 0 0 22.857 22.857 22.857 22.857 0 0 0 22.855-22.857 22.857 22.857 0 0 0-22.855-22.857m57.096 51.428c-14.18.012-25.714 11.554-25.691 25.75.01 14.159 11.544 25.68 25.715 25.68h.023c14.178-.014 25.69-11.554 25.69-25.75-.015-14.159-11.548-25.68-25.737-25.68zm-74.264 17.146c-15.752.017-28.57 12.834-28.547 28.613.017 15.727 12.832 28.527 28.57 28.527h.023l.002.002c15.752-.017 28.547-12.838 28.547-28.617-.019-15.727-12.834-28.525-28.596-28.525zm-70.199 68.48a160 160 0 0 0-61.205 125.8 160 160 0 0 0 160 160 160 160 0 0 0 160-160 160 160 0 0 0-61.205-125.62 160 160 0 0 1-98.795 34.197 160 160 0 0 1-98.795-34.375z" filter="url(#a)" opacity=".1" transform="translate(-208 228)"/><path d="M452.57-208a17.143 17.143 0 0 0-17.145 17.143 17.143 17.143 0 0 0 17.145 17.143 17.143 17.143 0 0 0 17.143-17.143A17.143 17.143 0 0 0 452.57-208m45.713 28.572a20 20 0 0 0-20 20 20 20 0 0 0 20 20 20 20 0 0 0 20-20 20 20 0 0 0-20-20m-45.713 28.57a22.857 22.857 0 0 0-22.857 22.857 22.857 22.857 0 0 0 22.857 22.857 22.857 22.857 0 0 0 22.855-22.857 22.857 22.857 0 0 0-22.855-22.857m57.096 51.428c-14.18.012-25.714 11.554-25.691 25.75.01 14.159 11.544 25.68 25.715 25.68h.023c14.178-.014 25.69-11.554 25.69-25.75-.015-14.159-11.548-25.68-25.737-25.68zm-74.264 17.146c-15.752.017-28.57 12.834-28.547 28.613.017 15.727 12.832 28.527 28.57 28.527h.023l.002.002c15.752-.017 28.547-12.838 28.547-28.617-.019-15.727-12.834-28.525-28.596-28.525zm-70.199 68.48a160 160 0 0 0-61.205 125.8 160 160 0 0 0 160 160 160 160 0 0 0 160-160 160 160 0 0 0-61.205-125.62 160 160 0 0 1-98.795 34.197 160 160 0 0 1-98.795-34.375z" filter="url(#a)" opacity=".2" transform="translate(-208 228)"/><path d="M244.57 18a17.143 17.143 0 0 0-17.145 17.143 17.143 17.143 0 0 0 17.145 17.143 17.143 17.143 0 0 0 17.143-17.143A17.143 17.143 0 0 0 244.57 18m45.713 28.572a20 20 0 0 0-20 20 20 20 0 0 0 20 20 20 20 0 0 0 20-20 20 20 0 0 0-20-20m-45.713 28.57a22.857 22.857 0 0 0-22.857 22.857 22.857 22.857 0 0 0 22.857 22.857 22.857 22.857 0 0 0 22.855-22.857 22.857 22.857 0 0 0-22.855-22.857m57.096 51.428c-14.18.012-25.714 11.554-25.691 25.75.01 14.159 11.544 25.68 25.715 25.68h.023c14.178-.014 25.69-11.554 25.69-25.75-.015-14.159-11.548-25.68-25.737-25.68zm-74.264 17.146c-15.752.017-28.57 12.834-28.547 28.613.017 15.727 12.832 28.527 28.57 28.527h.023l.002.002c15.752-.017 28.547-12.838 28.547-28.617-.019-15.727-12.834-28.525-28.596-28.525zm-70.199 68.48a160 160 0 0 0-61.205 125.8 160 160 0 0 0 160 160 160 160 0 0 0 160-160 160 160 0 0 0-61.205-125.62 160 160 0 0 1-98.795 34.197 160 160 0 0 1-98.795-34.375z" opacity=".2"/><path fill="#03a9f4" d="M244.57 16a17.143 17.143 0 0 0-17.145 17.143 17.143 17.143 0 0 0 17.145 17.143 17.143 17.143 0 0 0 17.143-17.143A17.143 17.143 0 0 0 244.57 16m45.713 28.572a20 20 0 0 0-20 20 20 20 0 0 0 20 20 20 20 0 0 0 20-20 20 20 0 0 0-20-20m-45.713 28.57a22.857 22.857 0 0 0-22.857 22.857 22.857 22.857 0 0 0 22.857 22.857 22.857 22.857 0 0 0 22.855-22.857 22.857 22.857 0 0 0-22.855-22.857m57.096 51.428c-14.18.012-25.714 11.554-25.691 25.75.01 14.159 11.544 25.68 25.715 25.68h.023c14.178-.014 25.69-11.554 25.69-25.75-.015-14.159-11.548-25.68-25.737-25.68zm-74.264 17.146c-15.752.017-28.57 12.834-28.547 28.613.017 15.727 12.832 28.527 28.57 28.527h.023l.002.002c15.752-.017 28.547-12.838 28.547-28.617-.019-15.727-12.834-28.525-28.596-28.525z"/><path fill="#0d47a1" d="M157.21 210.196a160 160 0 0 0-61.205 125.8 160 160 0 0 0 160 160 160 160 0 0 0 160-160 160 160 0 0 0-61.205-125.63 160 160 0 0 1-98.795 34.196 160 160 0 0 1-98.795-34.375z"/><path fill="#fff" d="M244.57 16a17.143 17.143 0 0 0-17.145 17.143 17 17 0 0 0 .041.826A17.143 17.143 0 0 1 244.57 18a17.143 17.143 0 0 1 17.102 16.314 17 17 0 0 0 .041-1.172A17.143 17.143 0 0 0 244.57 16zm45.713 28.572a20 20 0 0 0-20 20 20 20 0 0 0 .041.838 20 20 0 0 1 19.959-18.838 20 20 0 0 1 19.959 19.162 20 20 0 0 0 .041-1.162 20 20 0 0 0-20-20zm-45.713 28.57a22.857 22.857 0 0 0-22.857 22.857 23 23 0 0 0 .041.828 22.857 22.857 0 0 1 22.816-21.686 22.857 22.857 0 0 1 22.814 22.03 23 23 0 0 0 .041-1.173 22.857 22.857 0 0 0-22.855-22.857zm57.096 51.428c-14.18.012-25.714 11.554-25.691 25.75 0 .315.014.629.025.941.536-13.706 11.841-24.68 25.666-24.69 13.864 0 25.185 10.998 25.711 24.708.014-.342.026-.684.026-1.029-.014-14.159-11.547-25.68-25.736-25.68zm-74.264 17.146c-15.752.017-28.57 12.834-28.547 28.613 0 .317.015.63.025.945.536-15.29 13.122-27.542 28.521-27.559 15.435 0 28.036 12.275 28.57 27.553.012-.341.026-.683.026-1.027-.02-15.727-12.834-28.525-28.596-28.525zm-70.199 68.48a160 160 0 0 0-61.205 125.8l.033.652a160 160 0 0 1 61.172-124.46 160 160 0 0 0 98.795 34.375 160 160 0 0 0 98.795-34.197 160 160 0 0 1 61.164 124.81 160 160 0 0 0 .041-1.185 160 160 0 0 0-61.205-125.62 160 160 0 0 1-98.795 34.197 160 160 0 0 1-98.795-34.375z" opacity=".2"/></svg>