<svg xmlns="http://www.w3.org/2000/svg" width="512" height="512" enable-background="new" version="1.0"><defs><filter id="a" width="1.047" height="1.049" x="-.024" y="-.024" color-interpolation-filters="sRGB"><feGaussianBlur stdDeviation="4.546"/></filter></defs><g fill-rule="evenodd"><path d="M464-192c-114.87 0-218.26 218.26-229.74 310.15C219.941 232.7 395.08 256 464 256c68.923 0 244.06-23.293 229.74-137.85C682.253 26.253 578.87-192 464-192" filter="url(#a)" opacity=".1" transform="translate(-208 228)"/><path d="M464-192c-114.87 0-218.26 218.26-229.74 310.15C219.941 232.7 395.08 256 464 256c68.923 0 244.06-23.293 229.74-137.85C682.253 26.253 578.87-192 464-192" filter="url(#a)" opacity=".2" transform="translate(-208 228)"/><path d="M256 34C141.13 34 37.74 252.26 26.26 344.15 11.941 458.7 187.08 482 256 482c68.923 0 244.06-23.293 229.74-137.85C474.253 252.253 370.87 34 256 34" opacity=".2"/></g><path fill="#7986cb" fill-rule="evenodd" d="M256 32C141.13 32 37.74 250.26 26.26 342.15 11.941 456.7 187.08 480 256 480c68.923 0 244.06-23.293 229.74-137.85C474.253 250.253 370.87 32 256 32"/><path fill="#fff" d="M288.46 394.21c29.821-74.531 35.643-170.91 14.348-237.52-5.596-17.504-8.139-13.455-18.095 28.819-15.025 63.791-49.761 140.49-82.135 181.35-8.947 11.294-15.589 22.572-14.761 25.063 2.844 8.55 38.311 18.694 66.153 18.922l27.742.227zm103.69-119.08c0-37.384-14.38-72.504-39.476-96.412-11.228-10.697-15.884-13.35-13.736-7.827 14.548 37.399 27.985 90.015 32.329 126.59l5.195 43.739 7.844-17.988c5.286-12.121 7.844-27.812 7.844-48.103zm-240.67 16.292c31.109-23.172 63.078-55.132 82.958-82.937 28.86-40.362 43.039-73.1 31.661-73.1-2.192 0-16.337 9.233-31.432 20.517s-44.262 29.201-64.815 39.817c-36.893 19.054-37.45 19.574-43.756 40.81-9.102 30.651-8.082 70.12 1.813 70.12 1.72 0 12.328-6.852 23.572-15.227z" enable-background="new"/><path fill="#fff" fill-rule="evenodd" d="M256 32C141.13 32 37.74 250.26 26.26 342.15c-.604 4.83-.862 9.493-.814 14.004.038-3.887.299-7.884.814-12.004C37.747 252.253 141.13 34 256 34s218.26 218.26 229.74 310.15c.515 4.12.776 8.117.814 12.004.048-4.51-.21-9.174-.814-14.004C474.253 250.253 370.87 32 256 32" opacity=".2"/></svg>