<svg xmlns="http://www.w3.org/2000/svg" width="512" height="512" enable-background="new" version="1.0"><defs><filter id="a" width="1.048" height="1.048" x="-.024" y="-.024" color-interpolation-filters="sRGB"><feGaussianBlur stdDeviation="4.8"/></filter></defs><g transform="translate(-208 228)"><circle cx="464" cy="32" r="240" enable-background="new" filter="url(#a)" opacity=".1"/><circle cx="464" cy="32" r="240" enable-background="new" filter="url(#a)" opacity=".2"/><path fill="#fff" d="M464-212A240 240 0 0 0 224 28l.041 1.172A240 240 0 0 1 464-210 240 240 0 0 1 703.959 28.828L704 28a240 240 0 0 0-240-240" enable-background="new" opacity=".2"/><circle cx="464" cy="28" r="240" fill="#87a556" enable-background="new"/><path fill="#fff" d="m506.25-149.73 94.18 55.666-94.285 55.666.105-111.33zm-40.513 28.622c6.907 0 13.661.55 20.309 1.473v20.625c-6.61-1.07-13.382-1.683-20.309-1.683-53.854 0-99.91 33.004-118.8 79.974l-17.468-10.312c22.683-52.877 75.218-90.076 136.27-90.076zm0 50.404c6.916 0 13.677.823 20.204 2.21v20.94a78 78 0 0 0-20.204-2.63c-35.367 0-64.895 23.501-74.186 55.771L373.452-5.146c13.388-38.095 49.759-65.557 92.285-65.557zm118.91 9.365c18.441 24.724 29.359 55.382 29.359 88.497 0 33.631-11.335 64.737-30.306 89.655l-17.573-10.418c17.195-21.768 27.465-49.246 27.465-79.237 0-29.428-9.9-56.509-26.518-78.08zm-43.88 25.991c14.208 16.994 22.835 38.767 22.835 62.506 0 24.275-8.996 46.608-23.782 63.768l-17.994-10.628c13.153-13.814 21.256-32.425 21.256-53.14 0-20.127-7.612-38.358-20.099-52.088zm-246.66 6.84 94.18 55.666-94.285 55.666.105-111.33zm97.442 77.238c9.291 32.244 38.819 55.666 74.186 55.666 6.994 0 13.761-.938 20.204-2.63v21.045c-6.527 1.387-13.288 2.21-20.204 2.21-42.559 0-78.925-27.522-92.285-65.663zm-44.617 26.307c18.893 46.97 64.949 79.974 118.8 79.974 6.86 0 13.545-.545 20.099-1.578v20.52c-6.568.913-13.274 1.473-20.099 1.473-61.053 0-113.59-37.198-136.27-90.076zm159.21 19.467 94.18 55.561-94.285 55.666.105-111.23z" enable-background="new"/></g></svg>