<svg xmlns="http://www.w3.org/2000/svg" width="512" height="512" enable-background="new" version="1.0"><defs><filter id="a" width="1.048" height="1.048" x="-.024" y="-.024" color-interpolation-filters="sRGB"><feGaussianBlur stdDeviation="4.8"/></filter></defs><g transform="translate(-208 228)"><circle cx="464" cy="32" r="240" enable-background="new" filter="url(#a)" opacity=".1"/><circle cx="464" cy="32" r="240" enable-background="new" filter="url(#a)" opacity=".2"/><circle cx="464" cy="28" r="240" fill="#0087ed" enable-background="new"/><path fill="#fff" d="M464-212A240 240 0 0 0 224 28l.041 1.172A240 240 0 0 1 464-210 240 240 0 0 1 703.959 28.828L704 28a240 240 0 0 0-240-240" enable-background="new" opacity=".2"/></g><path fill="#fff" d="M242.375 101.302q-10.547 6.329-26.894 17.93-16.086 11.338-34.277 29.531-15.82 15.82-22.149 31.113-6.065 15.558-4.218 30.586 1.845 15.03 10.283 29.268 8.701 14.502 22.676 28.476l76.99 76.991 24.522-24.521-71.718-71.719q-25.05-25.05-27.95-43.77t15.821-37.441q3.956-3.955 8.438-7.91c4.482-3.955 5.801-5.098 8.437-7.383q4.22-3.165 7.383-5.801 3.691-2.637 5.537-3.428l157.748 157.747 24.521-24.521zm-7.632 77.914-24.528 24.522 115.758 115.75q-.791 1.846-3.427 5.538c-1.759 2.11-3.69 4.57-5.801 7.383q-3.428 3.955-7.383 8.437c-3.955 4.482-5.274 5.801-7.91 8.438q-18.721 18.72-37.442 15.82-18.72-2.9-43.77-27.949l-71.719-71.718L124 289.958l76.991 76.991q13.975 13.975 28.477 22.676 14.238 8.438 29.267 10.283 15.03 1.846 30.586-4.218 15.292-6.33 31.113-22.149 18.194-18.193 29.532-34.277 11.6-16.347 17.929-26.894z"/></svg>