<svg xmlns="http://www.w3.org/2000/svg" width="512" height="512" enable-background="new" version="1.0"><defs><filter id="a" width="1.048" height="1.048" x="-.024" y="-.024" color-interpolation-filters="sRGB"><feGaussianBlur stdDeviation="4.8"/></filter></defs><g transform="translate(-208 228)"><circle cx="464" cy="30" r="240" opacity=".2"/><circle cx="464" cy="32" r="240" filter="url(#a)" opacity=".1"/><circle cx="464" cy="32" r="240" filter="url(#a)" opacity=".2"/><circle cx="464" cy="28" r="240" fill="#0068c8"/><path fill="#fff" d="M464-212A240 240 0 0 0 224 28l.041 1.172A240 240 0 0 1 464-210 240 240 0 0 1 703.959 28.828L704 28a240 240 0 0 0-240-240" opacity=".2"/><circle cx="464" cy="28" r="240" fill="#0068c8"/><circle cx="464" cy="28" r="240" fill="#0068c8"/><path fill="#fff" d="m447.15-211.402-.182.012zM315-160.129l-.408.328q.203-.165.408-.328m303.57 4.531.094.078zm-321.36 11.07-.832.81zm338.82 5.186.26.265zm-118 6.795c-6.68-.239-43.344 10.57-54.08 24.17-32.37 2.345-162.94 91.388-239.62 145.51a240 240 0 0 0 1.396 17.059c34.87-13.438 75.423-27.517 91.84-27.393v.002c3.235.024 5.545.56 6.672 1.804 6.312 7.439-20.546 43.445-48.285 84.21a3015 3015 0 0 0-21.36 31.851 240 240 0 0 0 6.953 12.121c38.12-47.735 86.053-107.47 99.33-109.48.716-.108 1.352-.02 1.859.22 2.356 2.878-41.373 72.63-80.521 136.73a240 240 0 0 0 13.805 14.851c19.018-26.149 39.642-54.893 59.607-82.459C397.286 59.13 434.165 5.42 452.14 4.88v-.002c.58-.017 1.1.014 1.64.11 55.34.328 109.41 139.09 137.89 226.12a240 240 0 0 0 11.938-8.254c-13.673-97.335-45.743-257.59-112.48-302.19 7.158-4.772 7.764-29.256 7.764-29.256zM280.81-127l-.664.785q.33-.394.664-.785m-14.805 19.387-.127.183zm437.4 118.59.01.158z"/></g></svg>