<svg xmlns="http://www.w3.org/2000/svg" width="512" height="512" enable-background="new" version="1.0"><defs><filter id="a" width="1.048" height="1.048" x="-.024" y="-.024" color-interpolation-filters="sRGB"><feGaussianBlur stdDeviation="4.8"/></filter></defs><g transform="translate(-208 228)"><circle cx="464" cy="30" r="240" enable-background="new" opacity=".2"/><circle cx="464" cy="32" r="240" enable-background="new" filter="url(#a)" opacity=".1"/><circle cx="464" cy="32" r="240" enable-background="new" filter="url(#a)" opacity=".2"/><circle cx="464" cy="28" r="240" fill="#0079c1" enable-background="new"/><path fill="#fff" d="M464-212A240 240 0 0 0 224 28l.041 1.172A240 240 0 0 1 464-210 240 240 0 0 1 703.959 28.828L704 28a240 240 0 0 0-240-240" enable-background="new" opacity=".2"/><path fill="#fff" d="m448.99-138.84-30.741 7.56c-1.29.315-2.26 1.433-2.268 2.77l13.607 62.49.504.252c10.32-3.453 21.275-5.291 32.756-5.291 51.857 0 94.821 38.17 102.3 87.938l63.245-13.86c1.24-.592 1.841-1.943 1.512-3.275l-7.307-30.741c-.318-1.294-1.436-2.267-2.772-2.268H569.18c-4.259-8.027-9.415-15.536-15.622-22.426l16.378-46.363c.458-1.287-.086-2.814-1.26-3.527l-26.96-16.378c-1.144-.696-2.592-.436-3.528.503L504.17-87.44c-10.083-3.219-20.433-4.988-30.741-5.29l-21.166-44.6c-.592-1.242-1.942-1.84-3.276-1.512zm-99.277 45.103c-.643.067-1.28.52-1.764 1.008l-22.426 22.174c-.94.943-.945 2.385-.251 3.528l26.205 43.339c-4.646 7.81-8.426 16.062-11.087 24.945l-48.127 10.079c-1.338.277-2.268 1.398-2.268 2.771v31.75c0 1.337.979 2.46 2.268 2.77l46.615 11.34c2.489 10.288 6.241 20.013 11.339 28.977l-26.961 41.324c-.754 1.15-.47 2.558.503 3.528l22.174 22.426c.941.938 2.381 1.193 3.528.503L392.8 108.85v-.503c-20.467-18.9-33.26-46.043-33.26-76.096 0-33.345 15.816-62.725 40.316-81.64L351.729-93.23c-.576-.376-1.372-.571-2.016-.504zm214.18 148.41c-10.241 46.346-51.614 81.135-101.04 81.135-13.129 0-25.484-2.593-37.04-7.055l-.252.252-16.378 62.74c-.08 1.373.69 2.42 2.016 2.772l30.741 8.316c1.287.343 2.632-.341 3.276-1.512l24.189-44.095c9.086.126 18.188-.895 27.213-3.024l32.756 36.788c.908 1.02 2.338 1.19 3.528.504l27.465-15.874c1.159-.668 1.633-2.003 1.26-3.276l-13.355-46.11a112 112 0 0 0 19.402-24.442l49.135 2.772c1.373.08 2.669-.688 3.023-2.016l8.315-30.489c.344-1.284-.341-2.626-1.511-3.276l-62.741-14.11z" enable-background="new"/></g></svg>