<svg width="512" height="512" enable-background="new" version="1.0" xmlns="http://www.w3.org/2000/svg">
 <defs>
  <filter id="a" x="-.024" y="-.024" width="1.048" height="1.048" color-interpolation-filters="sRGB">
   <feGaussianBlur stdDeviation="4.8"/>
  </filter>
 </defs>
 <circle cx="256" cy="258" r="240" opacity=".2"/>
 <circle cx="256" cy="260" r="240" filter="url(#a)" opacity=".1"/>
 <circle cx="256" cy="260" r="240" filter="url(#a)" opacity=".2"/>
 <circle cx="256" cy="256" r="240" fill="#16a085"/>
 <path d="M 256,16 A 240,240 0 0 0 16,256 240,240 0 0 0 16.041,257.17188 240,240 0 0 1 256,18 240,240 0 0 1 495.95898,256.82812 240,240 0 0 0 496,256 240,240 0 0 0 256,16 Z" fill="#fff" opacity=".2"/>
 <path d="m148 136c-6.648 0-12 5.352-12 12v216c0 6.648 5.352 12 12 12h60.857v-167.14h81.429v-72.857zm155.14 0v240h60.857c6.648 0 12-5.352 12-12v-216c0-6.648-5.352-12-12-12zm-81.429 85.714v154.29h68.571v-154.29z" fill="#ffffff" stroke-width="4.2857"/>
</svg>
