<svg xmlns="http://www.w3.org/2000/svg" width="512" height="512" enable-background="new" version="1.0"><defs><filter id="a" width="1.048" height="1.048" x="-.024" y="-.024" color-interpolation-filters="sRGB"><feGaussianBlur stdDeviation="4.8"/></filter><filter id="b" width="1.104" height="1.142" x="-.052" y="-.071" color-interpolation-filters="sRGB"><feGaussianBlur stdDeviation="10.367"/></filter></defs><g transform="translate(-208 228)"><circle cx="464" cy="30" r="240" opacity=".2"/><circle cx="464" cy="32" r="240" filter="url(#a)" opacity=".1"/><circle cx="464" cy="32" r="240" filter="url(#a)" opacity=".2"/><path fill="#4c5263" d="M464-212A240 240 0 0 0 224 28a240 240 0 0 0 48.293 144h383.34a240 240 0 0 0 48.371-144 240 240 0 0 0-240-240z"/><path fill="#fff" d="M464-212A240 240 0 0 0 224 28l.041 1.172A240 240 0 0 1 464-210 240 240 0 0 1 703.959 28.828L704 28a240 240 0 0 0-240-240" opacity=".2"/><path fill="#fff" fill-rule="evenodd" d="M698.35 77.305c-35.005 47.224-99.668 72.463-176.7 83.655-80.37 11.677-173.56 8.208-256.72 1.105 3.983 5.95 8.354 11.718 12.853 17.287 87.121 36.045 163.42 31.118 241.37 19.793 65.01-9.446 136.47-27.144 168.88-86.401 4.397-11.451 8.013-24.134 10.32-35.438z" color="#000" enable-background="accumulate" style="isolation:auto;mix-blend-mode:normal;text-decoration-color:#000;text-decoration-line:none;text-decoration-style:solid;text-indent:0;text-transform:none;white-space:normal"/><circle cx="464" cy="27.766" r="240" fill="none"/><path fill="#5294e2" d="M523.96 176.96c-81.458 11.494-164.43 8.645-246.18 2.392 52.604 67.086 144.03 100.89 228.48 84.598 81.505-14.009 152.95-73.697 181.72-151.14-48.4 34.332-105.58 55.17-164.03 64.146z"/><path fill-rule="evenodd" d="M373.25-194.44C347.459-89.19 273.22 40.34 226.48 122.93c81.544 18.16 158.32 24.63 241.97 31.728-1.223-15.903-12.984-188.82-15.864-222.14-28.853-52.275-52.255-79.305-79.342-126.96zm99.177 134.88c38.236 78.765 38.266 156.69 15.864 214.22 31.544.19 83.024 3.723 138.85-23.807-45.883-104.77-154.71-190.41-154.71-190.41zm75.37 47.614c23.728 15.9 46.342 30.397 63.478 47.592 23.207 23.286 35.059 54.672 31.728 87.285 31.094-15.624 51.657-41.682 63.478-63.478-20.674-19.037-56.568-37.864-95.206-51.563C589.97.336 567.533-6.522 547.797-11.945z" filter="url(#b)" opacity=".2"/><path fill="#fff" fill-rule="evenodd" d="M373.25-212.44C347.459-107.19 273.22 22.34 226.48 104.93c81.544 18.16 158.32 24.63 241.97 31.728-1.223-15.903-12.984-188.82-15.864-222.14-28.853-52.275-52.255-79.305-79.342-126.96zm99.177 134.88c38.236 78.765 38.266 156.69 15.864 214.22 31.544.19 83.024 3.723 138.85-23.807-45.883-104.77-154.71-190.41-154.71-190.41zm75.37 47.614c23.728 15.9 46.342 30.397 63.478 47.592 23.207 23.286 35.059 54.672 31.728 87.285 31.094-15.624 51.657-41.682 63.478-63.478-20.674-19.037-56.568-37.864-95.206-51.563-21.305-7.554-43.742-14.412-63.478-19.835z"/></g></svg>