<svg xmlns="http://www.w3.org/2000/svg" width="512" height="512" enable-background="new" version="1.0"><defs><filter id="a" width="1.048" height="1.048" x="-.024" y="-.024" color-interpolation-filters="sRGB"><feGaussianBlur stdDeviation="4.48"/></filter></defs><g transform="translate(-208 228)"><rect width="448" height="448" x="-256" y="-688" enable-background="new" filter="url(#a)" opacity=".1" rx="36" ry="36" transform="scale(1 -1)rotate(90)"/><rect width="448" height="448" x="-256" y="-688" enable-background="new" filter="url(#a)" opacity=".2" rx="36" ry="36" transform="scale(1 -1)rotate(90)"/><rect width="448" height="448" x="-252" y="-688" fill="#1794d1" enable-background="new" rx="36" ry="36" transform="scale(1 -1)rotate(90)"/><path fill="#fff" d="M276-196c-19.944 0-36 16.056-36 36v2c0-19.944 16.056-36 36-36h376c19.944 0 36 16.056 36 36v-2c0-19.944-16.056-36-36-36z" enable-background="new" opacity=".2"/><path fill="#fff" fill-rule="evenodd" d="M463.97-132c-14.243 34.92-22.834 57.762-38.691 91.643 9.723 10.306 21.657 22.308 41.038 35.863-20.837-8.574-35.05-17.182-45.671-26.115-20.295 42.348-52.091 102.67-116.62 218.61 50.714-29.278 90.027-47.328 126.66-54.216a92.9 92.9 0 0 1-2.407-21.722l.06-1.625c.805-32.49 17.707-57.477 37.728-55.78s35.585 29.427 34.78 61.918c-.151 6.114-.84 11.995-2.045 17.45 36.24 7.09 75.131 25.093 125.16 53.975-9.865-18.16-18.67-34.532-27.078-50.124-13.245-10.265-27.06-23.626-55.24-38.089 19.37 5.033 33.237 10.84 44.047 17.33-85.49-159.17-92.414-180.32-121.73-249.12z" enable-background="new"/></g></svg>