<svg width="512" height="512" enable-background="new" version="1.0" xmlns="http://www.w3.org/2000/svg" xmlns:osb="http://www.openswatchbook.org/uri/2009/osb" xmlns:xlink="http://www.w3.org/1999/xlink">
 <defs>
  <filter id="a" x="-.024" y="-.024" width="1.048" height="1.048" color-interpolation-filters="sRGB">
   <feGaussianBlur stdDeviation="4.8"/>
  </filter>
 </defs>
 <g transform="translate(0,212)">
  <g>
   <g transform="translate(-208,16)">
    <g>
     <path d="m464-208c-132.49 0-239.91 107.4-240 239.87v202.88c0 20.632 16.614 37.246 37.246 37.246h202.88c132.5-0.0555 239.87-107.48 239.87-240 0-132.56-107.45-240-240-240z" filter="url(#a)" opacity=".1"/>
     <path d="m464-208c-132.49 0-239.91 107.4-240 239.87v202.88c0 20.632 16.614 37.246 37.246 37.246h202.88c132.5-0.0555 239.87-107.48 239.87-240 0-132.56-107.45-240-240-240z" filter="url(#a)" opacity=".2"/>
     <path d="m464-212c-132.49 0-239.91 107.4-240 239.87v202.88c0 20.632 16.614 37.246 37.246 37.246h202.88c132.5-0.0555 239.87-107.48 239.87-240 0-132.56-107.45-240-240-240z" fill="#294172"/>
     <path d="m535.03-167.37c-63.561 0-115.08 51.524-115.08 115.08v0.07965 60.91h-60.721-0.015c-63.559 0-115.08 51.273-115.08 114.83 0 63.564 51.523 115.09 115.08 115.09 63.551 0 115.07-51.522 115.07-115.09v-0.0797-61.162h60.719 0.0255c63.551 0 115.07-51.021 115.07-114.58 0-63.559-51.523-115.08-115.07-115.08zm-115.08 291.01c-0.048 33.49-27.229 60.639-60.737 60.639-33.543 0-60.988-27.194-60.988-60.738 0-33.556 27.444-61.254 60.988-61.254h0.0797 52.045 0.039c4.7383 0 8.5806 3.8347 8.5806 8.5653 0 9e-3 -6e-3 9e-3 -6e-3 0.02175v52.766h-2e-3zm115.08-114.94h-0.057-52.08-0.0308c-4.7383 0-8.5709-3.8327-8.5709-8.575v-52.513c0.057-33.509 27.229-60.649 60.739-60.649 33.543 0 60.993 27.196 60.993 60.746 0 33.546-27.45 60.991-60.993 60.991z" fill="#5484c6"/>
    </g>
    <path d="m419.95 8.7015v-60.911-0.07972c0-63.559 51.521-115.08 115.08-115.08 9.6418 0 16.493 1.0865 25.417 3.4226 13.016 3.4129 23.645 14.075 23.651 26.487 6e-3 15.004-10.886 25.912-27.163 25.912-7.7546 0-10.557-1.4849-21.911-1.4849-33.51 0-60.682 27.14-60.739 60.649v52.511c0 4.7423 3.8326 8.575 8.5709 8.575h0.0308 39.885c14.864 0 26.867 11.9 26.879 26.804 0 14.909-12.021 26.782-26.879 26.782h-48.487v61.162 0.0913c0 63.553-51.523 115.07-115.07 115.07-9.6437 0-16.495-1.0865-25.419-3.4246-13.016-3.411-23.649-14.079-23.655-26.487 0-15 10.884-25.912 27.168-25.912 7.7468 0 10.557 1.4868 21.905 1.4868 33.51 0 60.69-27.142 60.743-60.639v-52.785c0-4.7326-3.8423-8.5653-8.5806-8.5653h-0.0217-39.883c-14.868 0-26.881-11.862-26.881-26.775-4e-3 -14.997 12.137-26.81 27.163-26.81h48.197v-0.00194z" fill="#fff"/>
    <path transform="translate(0,-244)" d="m 464,32 a 240,240 0 0 0 -240,240 240,240 0 0 0 0.041,1.17188 A 240,240 0 0 1 464,34 240,240 0 0 1 703.95898,272.82812 240,240 0 0 0 704,272 240,240 0 0 0 464,32 Z" fill="#fff" opacity=".2"/>
   </g>
  </g>
 </g>
</svg>
