<svg width="512" height="512" enable-background="new" version="1.0" xmlns="http://www.w3.org/2000/svg" xmlns:osb="http://www.openswatchbook.org/uri/2009/osb" xmlns:xlink="http://www.w3.org/1999/xlink">
 <defs>
  <filter id="a" x="-.024" y="-.024" width="1.048" height="1.048" color-interpolation-filters="sRGB">
   <feGaussianBlur stdDeviation="4.48"/>
  </filter>
 </defs>
 <g transform="translate(0,212)">
  <g></g>
  <g transform="translate(-208,16)">
   <rect transform="matrix(0,-1,-1,0,0,0)" x="-256" y="-688" width="448" height="448" rx="36" ry="36" enable-background="new" filter="url(#a)" opacity=".1"/>
   <rect transform="matrix(0,-1,-1,0,0,0)" x="-256" y="-688" width="448" height="448" rx="36" ry="36" enable-background="new" filter="url(#a)" opacity=".2"/>
   <rect transform="matrix(0,-1,-1,0,0,0)" x="-252" y="-688" width="448" height="448" rx="36" ry="36" enable-background="new" fill="#c70036"/>
   <path transform="translate(0,-244)" d="m276 48c-19.944 0-36 16.056-36 36v2c0-19.944 16.056-36 36-36h376c19.944 0 36 16.056 36 36v-2c0-19.944-16.056-36-36-36z" enable-background="new" fill="#fff" opacity=".2"/>
   <path d="m562.67 4.9626c0.32167 8.6347-2.5197 12.831-5.0894 20.25l-4.6211 2.2981c-3.7777 7.341 0.37526 4.6605-2.3302 10.497-5.9042 5.243-17.891 16.401-21.73 17.423-2.8056-0.0608 1.8978-3.3095 2.5125-4.5783-7.8949 5.4182-6.3367 8.1344-18.413 11.433l-0.35025-0.78986c-29.771 14.01-71.129-13.749-70.586-51.619-0.31451 2.4017-0.90423 1.8013-1.5618 2.7663-1.5368-19.482 8.9993-39.049 26.769-47.051 17.38-8.599 37.756-5.075 50.197 6.5368-6.8335-8.9564-20.447-18.452-36.569-17.573-15.801 0.25732-30.586 10.297-35.518 21.201-8.0915 5.0929-9.035 19.643-12.559 22.309-4.7498 34.882 8.9242 49.946 32.059 67.677 3.6312 2.4518 1.0222 2.827 1.5082 4.6926-7.684-3.5954-14.718-9.0279-20.507-15.679 3.0736 4.4925 6.3867 8.8599 10.672 12.291-7.2516-2.4482-16.934-17.559-19.753-18.174 12.491 22.366 50.672 39.224 70.675 30.858-9.2566 0.34311-21.011 0.18949-31.405-3.6526-4.3781-2.248-10.307-6.8978-9.2459-7.7663 27.291 10.189 55.475 7.7127 79.085-11.212 6.0114-4.6819 12.573-12.641 14.471-12.748-2.8556 4.2959 0.48965 2.0658-1.7048 5.8578 5.9757-9.6533-2.6054-3.9314 6.183-16.669l3.2452 4.4675c-1.2152-8.02 9.9535-17.748 8.817-30.422 2.5626-3.8742 2.8556 4.1744 0.13942 13.088 3.7706-9.8892 0.99714-11.48 1.9621-19.643 1.04 2.7448 2.4232 5.6576 3.1272 8.5561-2.4589-9.5604 2.5125-16.094 3.7491-21.651-1.2223-0.53609-3.792 4.2245-4.3853-7.0622 0.0894-4.9035 1.3688-2.5697 1.8585-3.7777-0.95784-0.55397-3.4846-4.3138-5.0179-11.523 1.1044-1.6976 2.9736 4.3924 4.4889 4.639-0.9757-5.7291-2.6519-10.1-2.7234-14.5-4.4317-9.2566-1.569 1.2366-5.1572-3.9743-4.7177-14.703 3.9099-3.4131 4.4961-10.089 7.1408 10.347 11.212 26.394 13.088 33.038-1.4296-8.1022-3.7348-15.954-6.5547-23.549 2.1766 0.91851-3.4989-16.665 2.827-5.0215-6.7512-24.821-28.871-48.016-49.224-58.896 2.4839 2.2766 5.6254 5.1358 4.5032 5.5861-10.129-6.0221-8.3488-6.4975-9.7999-9.0422-8.238-3.356-8.7884 0.27519-14.239 7e-3 -15.547-8.2488-18.542-7.3731-32.848-12.534l0.65045 3.045c-10.297-3.431-11.998 1.2938-23.124 7e-3 -0.67547-0.5254 3.5668-1.9157 7.0622-2.4196-9.9571 1.3152-9.4925-1.9657-19.235 0.36096 2.3982-1.6833 4.9428-2.802 7.5018-4.2316-8.1165 0.49321-19.385 4.7248-15.908 0.87205-13.242 5.9114-36.762 14.207-49.961 26.583l-0.41459-2.7734c-6.0472 7.2587-26.372 21.68-27.991 31.09l-1.619 0.37527c-3.1415 5.3288-5.1823 11.365-7.6769 16.844-4.1136 7.0157-6.0329 2.7019-5.4467 3.8027-8.0951 16.412-12.123 30.2-15.593 41.515 2.4732 3.6991 0.0608 22.273 0.99355 37.137-4.06 73.424 51.53 144.71 112.29 161.16 8.9063 3.1913 22.148 3.0769 33.413 3.3914-13.288-3.8027-15.004-2.0122-27.956-6.5261-9.3388-4.4032-11.383-9.4246-18.002-15.168l2.6197 4.6283c-12.974-4.5926-7.5447-5.6826-18.102-9.0243l2.7984-3.649c-4.2066-0.32165-11.14-7.0836-13.034-10.84l-4.6033 0.18217c-5.5254-6.812-8.4739-11.733-8.2559-15.547l-1.4868 2.6519c-1.6834-2.8914-20.34-25.583-10.661-20.3-1.7977-1.6369-4.1887-2.6698-6.7798-7.3839l1.9693-2.248c-4.6498-5.9936-8.5704-13.674-8.2702-16.233 2.4839 3.3524 4.2066 3.9814 5.915 4.5568-11.762-29.178-12.423-1.6047-21.326-29.7l1.8799-0.15017c-1.4403-2.1837-2.3231-4.539-3.4811-6.8585l0.82203-8.1665c-8.4632-9.7784-2.366-41.619-1.1401-59.078 0.83988-7.0979 7.0658-14.657 11.794-26.512l-2.8806-0.49321c5.5111-9.6069 31.458-38.595 43.481-37.109 5.822-7.3124-1.158-0.0286-2.2981-1.8656 12.791-13.234 16.812-9.3495 25.443-11.733 9.3031-5.5218-7.9879 2.1587-3.5776-2.1051 16.094-4.1065 11.401-9.3424 32.391-11.426 2.2159 1.258-5.1358 1.9442-6.98 3.5775 13.402-6.5618 42.42-5.0643 61.276 3.6383 21.862 10.225 46.44 40.436 47.412 68.86l1.1044 0.29664c-0.55754 11.301 1.7298 24.371-2.2409 36.372l2.684-5.6862" enable-background="new" fill="#fff"/>
  </g>
 </g>
</svg>
