<svg xmlns="http://www.w3.org/2000/svg" width="512" height="512" enable-background="new" version="1.0"><defs><filter id="a" width="1.048" height="1.048" x="-.024" y="-.024" color-interpolation-filters="sRGB"><feGaussianBlur stdDeviation="4.8"/></filter></defs><g transform="translate(-208 228)"><circle cx="464" cy="32" r="240" enable-background="new" filter="url(#a)" opacity=".1"/><circle cx="464" cy="32" r="240" enable-background="new" filter="url(#a)" opacity=".2"/><circle cx="464" cy="28" r="240" fill="#e95420" enable-background="new"/><path fill="#fff" d="M464-212A240 240 0 0 0 224 28l.041 1.172A240 240 0 0 1 464-210 240 240 0 0 1 703.959 28.828L704 28a240 240 0 0 0-240-240" enable-background="new" opacity=".2"/></g><path fill="#fff" d="M106.4 226.632c-16.225 0-29.373 13.147-29.373 29.373 0 16.219 13.147 29.368 29.373 29.368 16.219 0 29.368-13.149 29.368-29.368 0-16.227-13.147-29.373-29.368-29.373m209.72 133.49c-14.049 8.11-18.858 26.066-10.751 40.109 8.112 14.049 26.066 18.861 40.116 10.751 14.044-8.109 18.856-26.065 10.746-40.112-8.109-14.043-26.066-18.856-40.111-10.748M170.2 255.992c0-29.028 14.425-54.668 36.483-70.193l-21.473-35.97c-25.705 17.174-44.825 43.428-52.768 74.177 9.278 7.562 15.206 19.078 15.206 31.988 0 12.907-5.928 24.423-15.207 31.983 7.941 30.753 27.063 57.007 52.768 74.179l21.475-35.973c-22.059-15.522-36.483-41.16-36.483-70.193zm85.799-85.799c44.823 0 81.591 34.368 85.445 78.19l41.86-.612c-2.06-32.354-16.193-61.409-37.913-82.763-11.167 4.22-24.067 3.58-35.217-2.859-11.164-6.445-18.169-17.317-20.087-29.115a127.6 127.6 0 0 0-34.087-4.64c-20.312 0-39.502 4.768-56.549 13.211l20.405 36.57a85.4 85.4 0 0 1 36.142-7.983zm0 171.6a85.4 85.4 0 0 1-36.143-7.983l-20.409 36.573c17.048 8.44 36.24 13.21 56.552 13.21 11.811 0 23.234-1.637 34.088-4.64 1.919-11.798 8.925-22.67 20.09-29.12 11.15-6.436 24.05-7.075 35.217-2.855 21.719-21.355 35.852-50.41 37.908-82.764l-41.86-.611c-3.851 43.828-40.62 78.19-85.444 78.19zm60.113-189.93c14.048 8.114 32.005 3.3 40.112-10.743 8.112-14.049 3.303-32.005-10.746-40.117-14.046-8.109-32.002-3.297-40.114 10.752-8.109 14.043-3.297 32.001 10.748 40.108"/></svg>