<svg xmlns="http://www.w3.org/2000/svg" width="512" height="512" enable-background="new" version="1.0"><defs><filter id="a" width="1.045" height="1.051" x="-.023" y="-.025" color-interpolation-filters="sRGB"><feGaussianBlur stdDeviation="4.24"/></filter><filter id="c" width="1.048" height="1.048" x="-.024" y="-.024" color-interpolation-filters="sRGB"><feGaussianBlur stdDeviation="2.4"/></filter></defs><g transform="translate(-208 3428)"><path stroke="#000" stroke-width="8" d="M336-3360v96h-72c-13.296 0-24 10.704-24 24v144c0 13.296 10.704 24 24 24h72v112h256v-112h72c13.296 0 24-10.704 24-24v-144c0-13.296-10.704-24-24-24h-72v-96z" filter="url(#a)" opacity=".1"/><path d="M336-3360v96h-72c-13.296 0-24 10.704-24 24v144c0 13.296 10.704 24 24 24h72v112h256v-112h72c13.296 0 24-10.704 24-24v-144c0-13.296-10.704-24-24-24h-72v-96z" filter="url(#a)" opacity=".2"/><rect width="192" height="448" x="3076" y="-688" fill="#4d4d4d" rx="24" ry="24" transform="scale(1 -1)rotate(90)"/><path fill="#ececec" d="M336-3268h256v-95.999H336z"/><path d="M240-3102v2c0 13.296 10.704 24 24 24h400c13.296 0 24-10.704 24-24v-2c0 13.296-10.704 24-24 24H264c-13.296 0-24-10.704-24-24" opacity=".2"/><path fill="#ececec" d="M336-2964h256v-192H336z"/><rect width="24" height="24" x="280" y="-3228" fill="#f9ce1d" rx="0" ry="12"/><path fill="#fff" d="M336-3364v2h256v-2z" opacity=".4"/><path fill="#fff" d="M240-3242v-2c0-13.296 10.704-24 24-24h400c13.296 0 24 10.704 24 24v2c0-13.296-10.704-24-24-24H264c-13.296 0-24 10.704-24 24" opacity=".2"/><circle cx="584" cy="-3046" r="120" enable-background="new" filter="url(#c)" opacity=".2"/><circle cx="584" cy="-3046" r="120" stroke="#000" stroke-width="8" enable-background="new" filter="url(#c)" opacity=".1"/><circle cx="584" cy="-3052" r="120" fill="#2196f3" enable-background="new"/></g><path fill="#fff" d="M134.51 624c-3.029 0-5.531 2.475-5.531 5.5 0 1.15.389 2.208 1 3.094l-3.809 3.808 1.407 1.438 3.808-3.809c.887.611 1.973.97 3.125.97 3.029 0 5.5-2.476 5.5-5.5 0-3.026-2.471-5.5-5.5-5.5m0 2c1.947 0 3.5 1.555 3.5 3.5s-1.553 3.5-3.5 3.5a3.483 3.483 0 0 1-3.5-3.5c0-1.945 1.553-3.5 3.5-3.5" color="#000" style="text-decoration-line:none;text-indent:0;text-transform:none" transform="matrix(-10 0 0 10 1706 -5934)"/><path fill="none" d="M456 296H296v160h160z" color="#bebebe"/></svg>