<svg width="512" height="512" enable-background="new" version="1.0" xmlns="http://www.w3.org/2000/svg" xmlns:osb="http://www.openswatchbook.org/uri/2009/osb">
 <defs>
  <filter id="b" x="-.022714" y="-.02544" width="1.0454" height="1.0509" color-interpolation-filters="sRGB">
   <feGaussianBlur stdDeviation="4.24"/>
  </filter>
  <filter id="a" x="-.024" y="-.024" width="1.048" height="1.048" color-interpolation-filters="sRGB">
   <feGaussianBlur stdDeviation="2.4"/>
  </filter>
 </defs>
 <g transform="translate(0,212)"></g>
 <g transform="translate(0,212)"></g>
 <g transform="translate(0,212)"></g>
 <g transform="translate(0,212)"></g>
 <g transform="translate(0,212)"></g>
 <g transform="translate(0,212)">
  <g>
   <g transform="translate(-208,3216)">
    <g>
     <path d="m336-3360v96h-72c-13.296 0-24 10.704-24 24v144c0 13.296 10.704 24 24 24h72v112h256v-112h72c13.296 0 24-10.704 24-24v-144c0-13.296-10.704-24-24-24h-72v-96z" filter="url(#b)" opacity=".1" stroke="#000" stroke-width="8"/>
     <path d="m336-3360v96h-72c-13.296 0-24 10.704-24 24v144c0 13.296 10.704 24 24 24h72v112h256v-112h72c13.296 0 24-10.704 24-24v-144c0-13.296-10.704-24-24-24h-72v-96z" filter="url(#b)" opacity=".2"/>
     <rect transform="matrix(0,-1,-1,0,0,0)" x="3076" y="-688" width="192" height="448" rx="24" ry="24" fill="#4d4d4d"/>
     <path d="m336-3268h256v-95.999h-256z" fill="#ececec"/>
     <path d="m240-3102v2c0 13.296 10.704 24 24 24h400c13.296 0 24-10.704 24-24v-2c0 13.296-10.704 24-24 24h-400c-13.296 0-24-10.704-24-24z" opacity=".2"/>
     <path d="m336-2964h256v-192h-256z" fill="#ececec"/>
     <rect x="280" y="-3228" width="24" height="24" rx="0" ry="12" fill="#f9ce1d"/>
     <path d="m336-3364v2h256v-2z" fill="#fff" opacity=".4"/>
     <path d="m240-3242v-2c0-13.296 10.704-24 24-24h400c13.296 0 24 10.704 24 24v2c0-13.296-10.704-24-24-24h-400c-13.296 0-24 10.704-24 24z" fill="#fff" opacity=".2"/>
     <circle cx="584" cy="-3046" r="120" enable-background="new" filter="url(#a)" opacity=".2"/>
     <circle cx="584" cy="-3046" r="120" enable-background="new" filter="url(#a)" opacity=".1" stroke="#000" stroke-width="8"/>
     <circle cx="584" cy="-3052" r="120" enable-background="new" fill="#2196f3"/>
    </g>
    <g transform="matrix(-10 0 0 10 4324 -3192)" enable-background="new">
     <path transform="translate(241 -617)" d="m134.51 624c-3.0288 0-5.5312 2.4746-5.5312 5.5 0 1.1499 0.38921 2.2078 1 3.0938l-3.8083 3.8087 1.4062 1.4375 3.8083-3.8087c0.88729 0.61091 1.973 0.96875 3.125 0.96875 3.0289 0 5.5-2.4746 5.5-5.5 0-3.0254-2.4711-5.5-5.5-5.5zm0 2c1.9474 0 3.5 1.5548 3.5 3.5 0 1.9451-1.5526 3.5-3.5 3.5-1.9474 0-3.5-1.5549-3.5-3.5 0-1.9452 1.5526-3.5 3.5-3.5z" color="#000000" enable-background="new" fill="#fff" style="text-decoration-line:none;text-indent:0;text-transform:none"/>
     <rect x="366" y="6" width="16" height="16" color="#bebebe" enable-background="new" fill="none"/>
    </g>
   </g>
  </g>
 </g>
</svg>
