<svg width="64" height="64" version="1.1" xmlns="http://www.w3.org/2000/svg">
 <defs>
  <filter id="b" x="-.027391" y="-.0525" width="1.0548" height="1.105" color-interpolation-filters="sRGB">
   <feGaussianBlur stdDeviation=".525"/>
  </filter>
  <filter id="c-5" x="-.072" y="-.36" width="1.144" height="1.72" color-interpolation-filters="sRGB">
   <feGaussianBlur stdDeviation="4.8"/>
  </filter>
  <filter id="a-7" x="-.036" y="-.035997" width="1.072" height="1.072" color-interpolation-filters="sRGB">
   <feGaussianBlur stdDeviation=".84"/>
  </filter>
  <filter id="filter14" x="-.36" y="-.025714" width="1.72" height="1.0514" color-interpolation-filters="sRGB">
   <feGaussianBlur stdDeviation="0.6"/>
  </filter>
 </defs>
 <path d="m8.98 3.996c-1.662 0-3 1.434-3 3.215v9.977a2.99 2.99 0 0 0-1.98 2.812v37c0 1.662 1.338 3 3 3h50c1.662 0 3-1.338 3-3v-37c0-1.662-1.338-3-3-3h-26.822l4.822-5.43h20c1.662 0 2.98 1.131 2.98 2.912v-0.267c0-1.781-1.337-3.215-3-3.215h-19.98l-6.019-7.004h-20z" enable-background="new" filter="url(#a-7)" opacity=".25"/>
 <path d="m5.98 41.502v-34.292c0-1.781 1.338-3.215 3-3.215h20l6.02 7.005h19.98c1.662 0 3 1.434 3 3.215v27.288c0 1.78-1.338 3.215-3 3.215h-46c-1.662 0-3-1.434-3-3.215z" enable-background="new" fill="#f4be70"/>
 <path d="m8.98 3.996c-1.662 0-3 1.434-3 3.215v13.434c0-1.781 1.338-3.215 3-3.215h20l6-6.43h0.02l-6.02-7.004z" enable-background="new" opacity=".15"/>
 <path d="m8.98 4c-1.662 0-3 1.434-3 3.215v0.268c0-1.781 1.36-2.423 3.02-2.483h20l5.509 6.505 0.471-0.505-6-7z" enable-background="new" fill="#ffffff" opacity=".2"/>
 <path d="m57.98 54.936v-40.721c0-1.781-1.338-3.215-3-3.215h-20l-6 6.43h-20c-1.662 0-3 1.434-3 3.215v34.292c0 1.78 1.338 3.215 3 3.215h46c1.662 0 3-1.434 3-3.215z" enable-background="new" fill="#f4be70"/>
 <rect x="9" y="13.26" width="46" height="24" rx="1" ry="1" enable-background="new" fill-rule="evenodd" filter="url(#b)" opacity=".15" style="paint-order:fill markers stroke"/>
 <path d="m57.98 54.936v-40.721c0-1.781-1.338-3.215-3-3.215h-20l-6 6.43h-20c-1.662 0-3 1.434-3 3.215v34.292c0 1.78 1.338 3.215 3 3.215h46c1.662 0 3-1.434 3-3.215z" enable-background="new" opacity=".05"/>
 <rect x="9" y="14" width="46" height="24" rx="1" ry="1" enable-background="new" fill="#ffffff" fill-rule="evenodd" style="paint-order:fill markers stroke"/>
 <path d="m34.98 11-6 6.43-20 0.153c-1.662 0.013-3 1.28-3 3.062v0.267c0-1.78 1.338-2.568 3-2.568l20 3e-3 6.02-6.777h20c1.661 0 2.98 1.132 2.98 2.913v-0.268c0-1.781-1.338-3.215-3-3.215z" enable-background="new" fill="#ffffff" opacity=".2"/>
 <rect transform="matrix(0,-1,-1,0,0,0)" x="-60" y="-60" width="43" height="56" rx="3" ry="3" enable-background="new" fill="#e6e6e6"/>
 <rect transform="matrix(0,-1,-1,0,0,0)" x="-60" y="-60" width="43" height="56" rx="3" ry="3" enable-background="new" fill="#f4be70" opacity=".05"/>
 <rect transform="matrix(.125 0 0 .13395 26.759 28.038)" x="-38.074" y="-18.628" width="160" height="32" rx="0" ry="8" enable-background="new" filter="url(#c-5)" opacity=".2"/>
 <rect x="22" y="25" width="20" height="4" rx="1" ry="1" enable-background="new" fill="#f4be70"/>
 <path d="m7 17c-1.662 0-3 1.338-3 3v0.93c0-1.624 1.338-2.93 3-2.93h50c1.662 0 3 1.306 3 2.93v-0.93c0-1.662-1.338-3-3-3z" enable-background="new" fill="#ffffff" opacity=".35"/>
 <path d="m7 60c-1.662 0-3-1.338-3-3v-0.93c0 1.624 1.338 2.93 3 2.93h50c1.662 0 3-1.306 3-2.93v0.93c0 1.662-1.338 3-3 3z" enable-background="new" opacity=".15"/>
 <path transform="matrix(0,-1,-1,0,0,0)" d="m-16-7c0 1.662-1.338 3-3 3h-1c1.662 0 3-1.338 3-3v-50c0-1.662-1.338-3-3-3h1c1.662 0 3 1.338 3 3v50z" fill="#000000" filter="url(#filter14)" opacity=".15"/>
 <path d="m38.819 34.576c-2.8195 0.0187-6.3109 0.81893-10.557 3.123-9.7045 5.2666-12.34 14.618-19.424 22.223l33.176 0.0195c0.40751-7.7868 4.2051-10.101 10.117-16.902 0 0 3.7438-3.3079 2.9082-6.4219-0.88465-3.2968-7.7354 0.70531-8.5 0.21484-1.5813-1.0143-4.0957-2.2798-7.7207-2.2559zm15.439 3c-1.7727 2.3236-3.9733 4.572-6.9648 7.3281-2.9176 2.6879-7.9309 6.5123-8.1641 6.1094-0.0635-0.10965 5.1429-4.0893 7.6582-6.4121 2.7118-2.5042 5.0791-4.7183 7.4707-7.0254zm-21.48 11.66c0.75939 0 1.375 0.75552 1.375 1.6875s-0.61561 1.6875-1.375 1.6875-1.375-0.75552-1.375-1.6875 0.61561-1.6875 1.375-1.6875z" fill="#f4be70" opacity=".35" stop-color="#000000" style="-inkscape-stroke:none;font-variation-settings:normal"/>
</svg>
