<svg width="512" height="512" enable-background="new" version="1.0" xmlns="http://www.w3.org/2000/svg" xmlns:osb="http://www.openswatchbook.org/uri/2009/osb" xmlns:xlink="http://www.w3.org/1999/xlink">
 <defs>
  <filter id="a" x="-.024" y="-.024" width="1.048" height="1.048" color-interpolation-filters="sRGB">
   <feGaussianBlur stdDeviation="4.48"/>
  </filter>
 </defs>
 <g transform="translate(0,212)">
  <g></g>
  <g transform="translate(-208,16)">
   <g>
    <rect transform="matrix(0,-1,-1,0,0,0)" x="-256" y="-688" width="448" height="448" rx="36" ry="36" enable-background="new" filter="url(#a)" opacity=".2"/>
    <rect transform="matrix(0,-1,-1,0,0,0)" x="-254" y="-688" width="448" height="448" rx="36" ry="36" enable-background="new" opacity=".2"/>
    <rect transform="matrix(0,-1,-1,0,0,0)" x="-256" y="-688" width="448" height="448" rx="36" ry="36" enable-background="new" filter="url(#a)" opacity=".1" stroke="#000" stroke-width="8"/>
   </g>
   <rect transform="matrix(0,-1,-1,0,0,0)" x="-252" y="-688" width="448" height="448" rx="36" ry="36" enable-background="new" fill="#29b6f6"/>
   <path transform="translate(0,-244)" d="m276 48c-19.944 0-36 16.056-36 36v2c0-19.944 16.056-36 36-36h376c19.944 0 36 16.056 36 36v-2c0-19.944-16.056-36-36-36z" enable-background="new" fill="#fff" opacity=".2"/>
   <path d="m617.13 128.64c-4.4887-14.143-35.714-57.064-57.024-78.385-27.214-27.227-55.639-42.03-96.163-50.079-40.106-7.9662-83.925-1.3108-97.17 14.759-3.133 3.801 1.8123 4.4864 33.2 4.6015 51.783 0.1896 84.941 11.022 123.2 40.25 27.548 21.043 31.213 35.66 4.702 18.755-23.28-14.845-86.282-36.323-86.282-29.413 0 3.311 16.139 17.865 24.697 22.272 10.443 5.3773 6.9157 11.427-5.9914 10.276-22.717-2.0247-40.4-10.216-53.031-24.565-9.3184-10.586-14.584-13.996-21.616-13.996-15.313 0-44.678 6.3082-60.061 12.902-11.138 4.7743-15.437 5.3488-18.846 2.5189-4.9086-4.0738-3.0614-13.924 4.1558-22.161 1.1965-1.3656 4.2158-3.6887 5.5901-6.6862 1.4815-3.2314 1.3075-7.2145 2.2564-10.704 4.3912-16.148 28.211-38.956 48.61-46.544 21.804-8.1108 66.926-10.123 94.318-4.205 20.354 4.397 22.502 4.3083 35.564-1.4696 17.06-7.5465 56.602-7.3814 56.602 0.23612 0 2.4835-4.0038 5.5862-8.8974 6.8949-9.7463 2.6066-17.979 8.3853-17.979 12.62 0 1.487 10.769 13.006 23.93 25.598 27.247 26.067 48.817 56.708 61.516 87.386 11.633 28.1 13.641 35.309 9.8366 35.309-1.7391 0-4.0431-2.7763-5.12-6.1694z" enable-background="new" fill="#fff"/>
  </g>
 </g>
</svg>
