<svg xmlns="http://www.w3.org/2000/svg" width="512" height="512" enable-background="new" version="1.0"><defs><filter id="a" width="1.048" height="1.048" x="-.024" y="-.024" color-interpolation-filters="sRGB"><feGaussianBlur stdDeviation="4.48"/></filter></defs><g transform="translate(-208 228)"><g transform="scale(1 -1)rotate(90)"><rect width="448" height="448" x="-256" y="-688" enable-background="new" filter="url(#a)" opacity=".2" rx="36" ry="36"/><rect width="448" height="448" x="-254" y="-688" enable-background="new" opacity=".2" rx="36" ry="36"/><rect width="448" height="448" x="-256" y="-688" stroke="#000" stroke-width="8" enable-background="new" filter="url(#a)" opacity=".1" rx="36" ry="36"/></g><rect width="448" height="448" x="-252" y="-688" fill="#29b6f6" enable-background="new" rx="36" ry="36" transform="scale(1 -1)rotate(90)"/><path fill="#fff" d="M276-196c-19.944 0-36 16.056-36 36v2c0-19.944 16.056-36 36-36h376c19.944 0 36 16.056 36 36v-2c0-19.944-16.056-36-36-36z" enable-background="new" opacity=".2"/><path fill="#fff" d="M617.13 128.64c-4.489-14.143-35.714-57.064-57.024-78.385-27.214-27.227-55.639-42.03-96.163-50.079-40.106-7.966-83.925-1.31-97.17 14.759-3.133 3.801 1.812 4.486 33.2 4.601 51.783.19 84.941 11.022 123.2 40.25 27.548 21.043 31.213 35.66 4.702 18.755-23.28-14.845-86.282-36.323-86.282-29.413 0 3.311 16.139 17.865 24.697 22.272 10.443 5.378 6.916 11.427-5.991 10.276-22.717-2.024-40.4-10.216-53.031-24.565-9.319-10.586-14.584-13.996-21.616-13.996-15.313 0-44.678 6.309-60.061 12.902-11.138 4.775-15.437 5.35-18.846 2.52-4.909-4.074-3.062-13.925 4.155-22.162 1.197-1.365 4.216-3.688 5.59-6.686 1.482-3.231 1.308-7.214 2.257-10.704 4.391-16.148 28.21-38.956 48.61-46.544 21.804-8.11 66.926-10.123 94.318-4.205 20.354 4.397 22.502 4.308 35.564-1.47 17.06-7.546 56.602-7.38 56.602.237 0 2.483-4.004 5.586-8.897 6.895-9.747 2.606-17.98 8.385-17.98 12.62 0 1.487 10.77 13.006 23.93 25.598 27.247 26.067 48.817 56.708 61.516 87.386 11.633 28.1 13.641 35.309 9.837 35.309-1.739 0-4.043-2.777-5.12-6.17z" enable-background="new"/></g></svg>