<svg xmlns="http://www.w3.org/2000/svg" width="512" height="512" enable-background="new" version="1.0"><defs><filter id="a" width="1.048" height="1.048" x="-.024" y="-.024" color-interpolation-filters="sRGB"><feGaussianBlur stdDeviation="4.48"/></filter></defs><g transform="translate(-208 228)"><g transform="scale(1 -1)rotate(90)"><rect width="448" height="448" x="-254" y="-688" opacity=".2" rx="36" ry="36"/><rect width="448" height="448" x="-256" y="-688" filter="url(#a)" opacity=".1" rx="36" ry="36"/><rect width="448" height="448" x="-256" y="-688" filter="url(#a)" opacity=".2" rx="36" ry="36"/></g><rect width="448" height="448" x="-252" y="-688" fill="#ffeb3b" rx="36" ry="36" transform="scale(1 -1)rotate(90)"/><path fill="#fff" d="M276-196c-19.944 0-36 16.056-36 36v2c0-19.944 16.056-36 36-36h376c19.944 0 36 16.056 36 36v-2c0-19.944-16.056-36-36-36z" opacity=".2"/><rect width="384" height="384" x="-656" y="-162" fill="#ececec" opacity=".2" rx="16" ry="16" transform="scale(-1 1)"/><rect width="384" height="384" x="-656" y="-164" fill="#4d4d4d" rx="16" ry="16" transform="scale(-1 1)"/><path d="M288-164c-8.864 0-16 7.136-16 16v2c0-8.864 7.136-16 16-16h352c8.864 0 16 7.136 16 16v-2c0-8.864-7.136-16-16-16z" opacity=".2"/><path d="M316-114v12h12v96h-12V6h60V-6h12v-12h12v-72h-12v-12h-12v-12zm120 0v12h-12v96h12V6h60V-6h12v-96h-12v-12zm104 0v12h-12v24h12v12h12v12h24v12h12v36h-36v-24h-24v24h12V6h60V-6h12v-36h-12v-12h-12v-12h-24v-12h-12v-24h36v24h24v-24h-12v-12zm-188 12h12v12h12v72h-12v12h-12zm96 0h36v96h-36zM316 50v12h12v96h-12v12h72v-12h12v-48h-12V98h12V62h-12V50zm120 0v12h-12v96h12v12h60v-12h12V62h-12V50zm92 0v24h12v24h12v24h-12v24h-12v24h24v-24h12v-12h12v12h12v24h24v-24h-12v-24h-12V98h12V74h12V50h-24v24h-12v12h-12V74h-12V50zM352 62h24v36h-24zm96 0h36v96h-36zm-96 48h24v48h-24z" enable-background="new" opacity=".2"/><path fill="#fff" d="M316-116v12h12v96h-12V4h60V-8h12v-12h12v-72h-12v-12h-12v-12zm120 0v12h-12v96h12V4h60V-8h12v-96h-12v-12zm104 0v12h-12v24h12v12h12v12h24v12h12v36h-36v-24h-24v24h12V4h60V-8h12v-36h-12v-12h-12v-12h-24v-12h-12v-24h36v24h24v-24h-12v-12zm-188 12h12v12h12v72h-12v12h-12zm96 0h36v96h-36zM316 48v12h12v96h-12v12h72v-12h12v-48h-12V96h12V60h-12V48zm120 0v12h-12v96h12v12h60v-12h12V60h-12V48zm92 0v24h12v24h12v24h-12v24h-12v24h24v-24h12v-12h12v12h12v24h24v-24h-12v-24h-12V96h12V72h12V48h-24v24h-12v12h-12V72h-12V48zM352 60h24v36h-24zm96 0h36v96h-36zm-96 48h24v48h-24z" enable-background="new"/></g></svg>