<svg width="512" height="512" enable-background="new" version="1.0" xmlns="http://www.w3.org/2000/svg" xmlns:osb="http://www.openswatchbook.org/uri/2009/osb" xmlns:xlink="http://www.w3.org/1999/xlink">
 <defs>
  <filter id="a" x="-.024" y="-.024" width="1.048" height="1.048" color-interpolation-filters="sRGB">
   <feGaussianBlur stdDeviation="4.48"/>
  </filter>
 </defs>
 <g transform="translate(0,212)">
  <g>
   <g transform="translate(-208,16)">
    <g>
     <rect transform="matrix(0,-1,-1,0,0,0)" x="-254" y="-688" width="448" height="448" rx="36" ry="36" opacity=".2"/>
     <rect transform="matrix(0,-1,-1,0,0,0)" x="-256" y="-688" width="448" height="448" rx="36" ry="36" filter="url(#a)" opacity=".1"/>
     <rect transform="matrix(0,-1,-1,0,0,0)" x="-256" y="-688" width="448" height="448" rx="36" ry="36" filter="url(#a)" opacity=".2"/>
    </g>
    <rect transform="matrix(0,-1,-1,0,0,0)" x="-252" y="-688" width="448" height="448" rx="36" ry="36" fill="#ffeb3b"/>
    <path transform="translate(0,-244)" d="m276 48c-19.944 0-36 16.056-36 36v2c0-19.944 16.056-36 36-36h376c19.944 0 36 16.056 36 36v-2c0-19.944-16.056-36-36-36z" fill="#fff" opacity=".2"/>
    <rect transform="scale(-1,1)" x="-656" y="-162" width="384" height="384" rx="16" ry="16" fill="#ececec" opacity=".2"/>
    <rect transform="scale(-1,1)" x="-656" y="-164" width="384" height="384" rx="16" ry="16" fill="#4d4d4d"/>
    <path transform="translate(0,-244)" d="m288 80c-8.864 0-16 7.136-16 16v2c0-8.864 7.136-16 16-16h352c8.864 0 16 7.136 16 16v-2c0-8.864-7.136-16-16-16z" opacity=".2"/>
    <path d="m316-114v12h12v96h-12v12h60v-12h12v-12h12v-72h-12v-12h-12v-12zm120 0v12h-12v96h12v12h60v-12h12v-96h-12v-12zm104 0v12h-12v24h12v12h12v12h24v12h12v36h-36v-24h-24v24h12v12h60v-12h12v-36h-12v-12h-12v-12h-24v-12h-12v-24h36v24h24v-24h-12v-12zm-188 12h12v12h12v72h-12v12h-12zm96 0h36v96h-36zm-132 152v12h12v96h-12v12h72v-12h12v-48h-12v-12h12v-36h-12v-12zm120 0v12h-12v96h12v12h60v-12h12v-96h-12v-12zm92 0v24h12v24h12v24h-12v24h-12v24h24v-24h12v-12h12v12h12v24h24v-24h-12v-24h-12v-24h12v-24h12v-24h-24v24h-12v12h-12v-12h-12v-24zm-176 12h24v36h-24zm96 0h36v96h-36zm-96 48h24v48h-24z" enable-background="new" opacity=".2"/>
    <path d="m316-116v12h12v96h-12v12h60v-12h12v-12h12v-72h-12v-12h-12v-12zm120 0v12h-12v96h12v12h60v-12h12v-96h-12v-12zm104 0v12h-12v24h12v12h12v12h24v12h12v36h-36v-24h-24v24h12v12h60v-12h12v-36h-12v-12h-12v-12h-24v-12h-12v-24h36v24h24v-24h-12v-12zm-188 12h12v12h12v72h-12v12h-12zm96 0h36v96h-36zm-132 152v12h12v96h-12v12h72v-12h12v-48h-12v-12h12v-36h-12v-12zm120 0v12h-12v96h12v12h60v-12h12v-96h-12v-12zm92 0v24h12v24h12v24h-12v24h-12v24h24v-24h12v-12h12v12h12v24h24v-24h-12v-24h-12v-24h12v-24h12v-24h-24v24h-12v12h-12v-12h-12v-24zm-176 12h24v36h-24zm96 0h36v96h-36zm-96 48h24v48h-24z" enable-background="new" fill="#fff"/>
   </g>
  </g>
 </g>
</svg>
