<svg xmlns="http://www.w3.org/2000/svg" width="512" height="512" enable-background="new" version="1.0"><defs><filter id="a" width="1.048" height="1.048" x="-.024" y="-.024" color-interpolation-filters="sRGB"><feGaussianBlur stdDeviation="4.48"/></filter><filter id="c" width="1.068" height="1.037" x="-.034" y="-.019" color-interpolation-filters="sRGB"><feGaussianBlur stdDeviation="2.72"/></filter></defs><rect width="448" height="448" x="-482" y="-480" opacity=".2" rx="36" ry="36" transform="scale(1 -1)rotate(90)"/><rect width="448" height="448" x="-256" y="-688" filter="url(#a)" opacity=".1" rx="36" ry="36" transform="matrix(0 -1 -1 0 -208 228)"/><rect width="448" height="448" x="-256" y="-688" filter="url(#a)" opacity=".2" rx="36" ry="36" transform="matrix(0 -1 -1 0 -208 228)"/><rect width="448" height="448" x="-480" y="-480" fill="#c43216" rx="36" ry="36" transform="scale(1 -1)rotate(90)"/><path fill="#fff" d="M68 32c-19.944 0-36 16.056-36 36v2c0-19.944 16.056-36 36-36h376c19.944 0 36 16.056 36 36v-2c0-19.944-16.056-36-36-36Z" opacity=".2"/><path d="M256-144a176 176 0 0 0-16 .813v64.437A112 112 0 0 1 256-80 112 112 0 0 1 368 32a112 112 0 0 1-112 112 112 112 0 0 1-16-1.282v64.406a176 176 0 0 0 16 .875A176 176 0 0 0 432 32a176 176 0 0 0-176-176z" filter="url(#c)" opacity=".2" transform="matrix(-1 0 0 1 720 228)"/><path d="M48 82a176 176 0 0 0-16 .813v64.437A112 112 0 0 1 48 146a112 112 0 0 1 112 112A112 112 0 0 1 48 370a112 112 0 0 1-16-1.282v64.406a176 176 0 0 0 16 .875 176 176 0 0 0 176-176A176 176 0 0 0 48 82z" opacity=".2"/><path d="M48 84a176 176 0 0 0-16 .813v64.437A112 112 0 0 1 48 148a112 112 0 0 1 112 112A112 112 0 0 1 48 372a112 112 0 0 1-16-1.282v64.406a176 176 0 0 0 16 .875 176 176 0 0 0 176-176A176 176 0 0 0 48 84z" filter="url(#c)" opacity=".2"/><path fill="#d3d3d3" d="M48 80a176 176 0 0 0-16 .813v64.437A112 112 0 0 1 48 144a112 112 0 0 1 112 112A112 112 0 0 1 48 368a112 112 0 0 1-16-1.282v64.406a176 176 0 0 0 16 .875 176 176 0 0 0 176-176A176 176 0 0 0 48 80z" style="fill:#fff"/><path fill="#fff" d="M48 80a176 176 0 0 0-16 .813v2A176 176 0 0 1 48 82a176 176 0 0 1 175.96 175.17l.041-1.17a176 176 0 0 0-176-176zm111.96 176.83A112 112 0 0 1 48 368a112 112 0 0 1-16-1.281v2A112 112 0 0 0 48 370a112 112 0 0 0 112-112 112 112 0 0 0-.041-1.17z" opacity=".2"/></svg>