<svg width="512" height="512" enable-background="new" version="1.0" xmlns="http://www.w3.org/2000/svg" xmlns:osb="http://www.openswatchbook.org/uri/2009/osb" xmlns:xlink="http://www.w3.org/1999/xlink">
 <defs>
  <filter id="b" x="-.024" y="-.024" width="1.048" height="1.048" color-interpolation-filters="sRGB">
   <feGaussianBlur stdDeviation="4.48"/>
  </filter>
  <filter id="a" x="-.034" y="-.018545" width="1.068" height="1.0371" color-interpolation-filters="sRGB">
   <feGaussianBlur stdDeviation="2.72"/>
  </filter>
 </defs>
 <g transform="translate(0,212)">
  <g>
   <g transform="translate(-208,16)">
    <g>
     <rect transform="matrix(0,-1,-1,0,0,0)" x="-254" y="-688" width="448" height="448" rx="36" ry="36" opacity=".2"/>
     <rect transform="matrix(0,-1,-1,0,0,0)" x="-256" y="-688" width="448" height="448" rx="36" ry="36" filter="url(#b)" opacity=".1"/>
     <rect transform="matrix(0,-1,-1,0,0,0)" x="-256" y="-688" width="448" height="448" rx="36" ry="36" filter="url(#b)" opacity=".2"/>
    </g>
    <rect transform="matrix(0,-1,-1,0,0,0)" x="-252" y="-688" width="448" height="448" rx="36" ry="36" fill="#c43216"/>
    <path transform="translate(0,-244)" d="m276 48c-19.944 0-36 16.056-36 36v2c0-19.944 16.056-36 36-36h376c19.944 0 36 16.056 36 36v-2c0-19.944-16.056-36-36-36z" fill="#fff" opacity=".2"/>
    <g transform="matrix(-1 0 0 1 928 0)">
     <path d="m256-146a176 176 0 0 0-16 0.8128v64.437a112 112 0 0 1 16-1.2502 112 112 0 0 1 112 112 112 112 0 0 1-112 112 112 112 0 0 1-16-1.2816v64.406a176 176 0 0 0 16 0.87536 176 176 0 0 0 176-176 176 176 0 0 0-176-176z" opacity=".2"/>
     <path d="m256-144a176 176 0 0 0-16 0.8128v64.437a112 112 0 0 1 16-1.2502 112 112 0 0 1 112 112 112 112 0 0 1-112 112 112 112 0 0 1-16-1.2816v64.406a176 176 0 0 0 16 0.87536 176 176 0 0 0 176-176 176 176 0 0 0-176-176z" filter="url(#a)" opacity=".2"/>
     <path d="m256-148a176 176 0 0 0-16 0.8128v64.437a112 112 0 0 1 16-1.2502 112 112 0 0 1 112 112 112 112 0 0 1-112 112 112 112 0 0 1-16-1.2816v64.406a176 176 0 0 0 16 0.87536 176 176 0 0 0 176-176 176 176 0 0 0-176-176z" fill="#d3d3d3"/>
     <path transform="translate(0,-244)" d="m256 96a176 176 0 0 0-16 0.8125v2a176 176 0 0 1 16-0.8125 176 176 0 0 1 175.96 175.17 176 176 0 0 0 0.04102-1.1699 176 176 0 0 0-176-176zm111.96 176.83a112 112 0 0 1-111.96 111.17 112 112 0 0 1-16-1.2812v2a112 112 0 0 0 16 1.2812 112 112 0 0 0 112-112 112 112 0 0 0-0.041-1.1699z" fill="#fff" opacity=".2"/>
    </g>
    <path d="m256-146a176 176 0 0 0-16 0.8128v64.437a112 112 0 0 1 16-1.2502 112 112 0 0 1 112 112 112 112 0 0 1-112 112 112 112 0 0 1-16-1.2816v64.406a176 176 0 0 0 16 0.87536 176 176 0 0 0 176-176 176 176 0 0 0-176-176z" opacity=".2"/>
    <path d="m256-144a176 176 0 0 0-16 0.8128v64.437a112 112 0 0 1 16-1.2502 112 112 0 0 1 112 112 112 112 0 0 1-112 112 112 112 0 0 1-16-1.2816v64.406a176 176 0 0 0 16 0.87536 176 176 0 0 0 176-176 176 176 0 0 0-176-176z" filter="url(#a)" opacity=".2"/>
    <path d="m256-148a176 176 0 0 0-16 0.8128v64.437a112 112 0 0 1 16-1.2502 112 112 0 0 1 112 112 112 112 0 0 1-112 112 112 112 0 0 1-16-1.2816v64.406a176 176 0 0 0 16 0.87536 176 176 0 0 0 176-176 176 176 0 0 0-176-176z" fill="#d3d3d3"/>
    <path transform="translate(0,-244)" d="m256 96a176 176 0 0 0-16 0.8125v2a176 176 0 0 1 16-0.8125 176 176 0 0 1 175.96 175.17 176 176 0 0 0 0.04102-1.1699 176 176 0 0 0-176-176zm111.96 176.83a112 112 0 0 1-111.96 111.17 112 112 0 0 1-16-1.2812v2a112 112 0 0 0 16 1.2812 112 112 0 0 0 112-112 112 112 0 0 0-0.041-1.1699z" fill="#fff" opacity=".2"/>
   </g>
  </g>
 </g>
</svg>
