<svg xmlns="http://www.w3.org/2000/svg" width="512" height="512" enable-background="new" version="1.0"><defs><filter id="a" width="1.048" height="1.048" x="-.024" y="-.024" color-interpolation-filters="sRGB"><feGaussianBlur stdDeviation="4.48"/></filter><filter id="b" width="1.24" height="1.24" x="-.12" y="-.12" color-interpolation-filters="sRGB"><feGaussianBlur stdDeviation="2.4"/></filter></defs><g transform="translate(-208 228)"><g fill-rule="evenodd" color="#000"><path d="M244.91 26.078a16.75 16.75 0 0 1-4.904-11.843v-165.8s-.24-9.421 4.719-19.337c4.958-9.916 18.288-21.095 35.714-21.095h165.8a16.75 16.75 0 0 1 11.843 4.904l225.02 225.02c6.54 6.54 6.54 17.145 0 23.686l-189.49 189.49c-6.541 6.54-17.145 6.54-23.686 0z" enable-background="accumulate" filter="url(#a)" opacity=".1" style="isolation:auto;mix-blend-mode:normal;text-decoration-color:#000;text-decoration-line:none;text-decoration-style:solid;text-indent:0;text-transform:none;white-space:normal"/><path d="M244.91 26.078a16.75 16.75 0 0 1-4.904-11.843v-165.8s-.24-9.421 4.719-19.337c4.958-9.916 18.288-21.095 35.714-21.095h165.8a16.75 16.75 0 0 1 11.843 4.904l225.02 225.02c6.54 6.54 6.54 17.145 0 23.686l-189.49 189.49c-6.541 6.54-17.145 6.54-23.686 0z" enable-background="accumulate" filter="url(#a)" opacity=".2" style="isolation:auto;mix-blend-mode:normal;text-decoration-color:#000;text-decoration-line:none;text-decoration-style:solid;text-indent:0;text-transform:none;white-space:normal"/><path d="M244.91 24.078a16.75 16.75 0 0 1-4.904-11.843v-165.8s-.24-9.421 4.719-19.337c4.958-9.916 18.288-21.095 35.714-21.095h165.8a16.75 16.75 0 0 1 11.843 4.904l225.02 225.02c6.54 6.54 6.54 17.145 0 23.686l-189.49 189.49c-6.541 6.54-17.145 6.54-23.686 0z" enable-background="accumulate" opacity=".2" style="isolation:auto;mix-blend-mode:normal;text-decoration-color:#000;text-decoration-line:none;text-decoration-style:solid;text-indent:0;text-transform:none;white-space:normal"/><path fill="#4caf50" d="M244.91 22.078a16.75 16.75 0 0 1-4.904-11.843v-165.8s-.24-9.421 4.719-19.337c4.958-9.916 18.288-21.095 35.714-21.095h165.8a16.75 16.75 0 0 1 11.843 4.904l225.02 225.02c6.54 6.54 6.54 17.145 0 23.686l-189.49 189.49c-6.541 6.54-17.145 6.54-23.686 0z" enable-background="accumulate" style="isolation:auto;mix-blend-mode:normal;text-decoration-color:#000;text-decoration-line:none;text-decoration-style:solid;text-indent:0;text-transform:none;white-space:normal"/></g><circle cx="296" cy="-134" r="24" enable-background="new" filter="url(#b)" opacity=".2"/><circle cx="296" cy="-140" r="24" fill="#fff" enable-background="new"/><path fill="none" stroke="#f2f2f2" stroke-width="32" d="m607.2 36.569-97.941 97.941s-22.627 22.627-45.255 0l-96-93.255c-22.628-22.627 0-45.255 0-45.255l32-32 32-32s22.627-22.628 45.255 0l11.314 11.314L528.004-20l-112 112"/><path fill="#fff" fill-rule="evenodd" d="M280.43 48c-17.426 0-30.755 11.179-35.713 21.096s-4.719 19.338-4.719 19.338v2s-.24-9.422 4.719-19.338C249.675 61.18 263.004 50 280.43 50h165.8c4.442 0 8.7 1.764 11.842 4.904l225.02 225.02c3.015 3.016 4.623 6.897 4.857 10.844.275-4.613-1.333-9.318-4.857-12.844l-225.02-225.02A16.75 16.75 0 0 0 446.23 48z" color="#000" enable-background="accumulate" opacity=".2" style="isolation:auto;mix-blend-mode:normal;text-decoration-color:#000;text-decoration-line:none;text-decoration-style:solid;text-indent:0;text-transform:none;white-space:normal" transform="translate(0 -244)"/></g></svg>