<svg xmlns="http://www.w3.org/2000/svg" width="512" height="512" enable-background="new" version="1.0"><defs><clipPath id="b"><rect width="448" height="448" x="-252" y="-688" fill="#3d226d" rx="224" ry="224" transform="scale(1 -1)rotate(90)"/></clipPath><filter id="a" width="1.048" height="1.048" x="-.024" y="-.024" color-interpolation-filters="sRGB"><feGaussianBlur stdDeviation="4.48"/></filter></defs><g transform="translate(-208 228)"><rect width="448" height="448" x="-252" y="-670" fill="#ff9800" rx="224" ry="224" transform="scale(1 -1)rotate(90)"/><rect width="448" height="448" x="-256" y="-688" filter="url(#a)" opacity=".2" rx="224" ry="224" transform="matrix(0 -1 -1 0 16 0)"/><path fill="#fff" d="M446-196c-124.1 0-224 99.904-224 224 0 .674.003 1.336 0 2 0-124.1 99.904-224 224-224S670-94.096 670 30c-.003-.664 0-1.326 0-2 0-124.1-99.904-224-224-224" opacity=".2"/><rect width="448" height="448" x="-256" y="-688" stroke="#000" stroke-width="8" filter="url(#a)" opacity=".1" rx="224" ry="224" transform="matrix(0 -1 -1 0 16 0)"/><rect width="448" height="448" x="-252" y="-704" fill="#4a148c" rx="224" ry="224" transform="scale(1 -1)rotate(90)"/><path fill="#fff" d="M480-196c-124.1 0-224 99.904-224 224 0 .674.003 1.336 0 2 0-124.1 99.904-224 224-224S704-94.096 704 30c-.003-.664 0-1.326 0-2 0-124.1-99.904-224-224-224" opacity=".2"/><path d="M480 254c-124.1 0-224-99.904-224-224 0-.674.003-1.336 0-2 0 124.1 99.904 224 224 224s224-99.904 224-224c-.003.664 0 1.326 0 2 0 124.1-99.904 224-224 224" opacity=".2"/><path fill="#fff" d="M224-52v16h480v-16zm0 48v16h480V-4zm0 48v16h480V44zm0 48v16h480V92z" clip-path="url(#b)" enable-background="new" opacity=".8" transform="translate(16)"/></g></svg>