<svg width="512" height="512" enable-background="new" version="1.0" xmlns="http://www.w3.org/2000/svg" xmlns:osb="http://www.openswatchbook.org/uri/2009/osb" xmlns:xlink="http://www.w3.org/1999/xlink">
 <defs>
  <filter id="a" x="-.024" y="-.024" width="1.048" height="1.048" color-interpolation-filters="sRGB">
   <feGaussianBlur stdDeviation="4.48"/>
  </filter>
  <clipPath id="b">
   <rect transform="matrix(0,-1,-1,0,0,0)" x="-252" y="-688" width="448" height="448" rx="224" ry="224" fill="#3d226d"/>
  </clipPath>
 </defs>
 <g transform="translate(0,212)">
  <g>
   <g transform="translate(-208,16)">
    <rect transform="matrix(0,-1,-1,0,0,0)" x="-252" y="-670" width="448" height="448" rx="224" ry="224" fill="#ff9800"/>
    <rect transform="matrix(0,-1,-1,0,16,0)" x="-256" y="-688" width="448" height="448" rx="224" ry="224" filter="url(#a)" opacity=".2"/>
    <path d="m446-196c-124.1 0-224 99.904-224 224 0 0.67412 3e-3 1.3363 0 2 0-124.1 99.904-224 224-224s224 99.904 224 224c-3e-3 -0.66367 0-1.3259 0-2 0-124.1-99.904-224-224-224z" fill="#fff" opacity=".2"/>
    <rect transform="matrix(0,-1,-1,0,16,0)" x="-256" y="-688" width="448" height="448" rx="224" ry="224" filter="url(#a)" opacity=".1" stroke="#000" stroke-width="8"/>
    <rect transform="matrix(0,-1,-1,0,0,0)" x="-252" y="-704" width="448" height="448" rx="224" ry="224" fill="#4a148c"/>
    <path d="m480-196c-124.1 0-224 99.904-224 224 0 0.67412 3e-3 1.3363 0 2 0-124.1 99.904-224 224-224s224 99.904 224 224c-3e-3 -0.66367 0-1.3259 0-2 0-124.1-99.904-224-224-224z" fill="#fff" opacity=".2"/>
    <path d="m480 254c-124.1 0-224-99.904-224-224 0-0.67412 3e-3 -1.3363 0-2 0 124.1 99.904 224 224 224s224-99.904 224-224c-3e-3 0.66367 0 1.3259 0 2 0 124.1-99.904 224-224 224z" opacity=".2"/>
    <path transform="translate(16)" d="m224-52v16h480v-16zm0 48v16h480v-16zm0 48v16h480v-16zm0 48v16h480v-16z" clip-path="url(#b)" enable-background="new" fill="#fff" opacity=".8"/>
   </g>
  </g>
 </g>
</svg>
