<svg width="512" height="512" enable-background="new" version="1.0" xmlns="http://www.w3.org/2000/svg">
 <title>Paper Icon Theme</title>
 <defs>
  <filter id="a" x="-.024" y="-.024" width="1.048" height="1.048" color-interpolation-filters="sRGB">
   <feGaussianBlur stdDeviation="4.48"/>
  </filter>
 </defs>
 <rect transform="matrix(0,-1,-1,0,-208,228)" x="-256" y="-688" width="448" height="448" rx="224" ry="224" filter="url(#a)" opacity=".1" stroke="#000000" stroke-width="8"/>
 <rect transform="matrix(0,-1,-1,0,-208,228)" x="-256" y="-688" width="448" height="448" rx="224" ry="224" filter="url(#a)" opacity=".2"/>
 <path d="m256 480c-124.1 0-224-99.904-224-224 0-0.67412 3e-3 -1.3363 0-2 0 124.1 99.904 224 224 224s224-99.904 224-224c-3e-3 0.66367 0 1.3259 0 2 0 124.1-99.904 224-224 224z" opacity=".2"/>
 <path d="m256 32c-124.1 0-224 99.904-224 224 0 0.33437 0.0103 0.66598 0.0117 1 0.5364-123.63 100.23-223 223.99-223s223.45 99.369 223.99 223c1e-3 -0.33402 0.0117-0.66563 0.0117-1 0-124.1-99.904-224-224-224z" fill="#ffffff" opacity=".2"/>
 <g transform="translate(561.69 81.86)">
  <path d="m-305.69-49.86a224 224 0 0 0-224 224 224 224 0 0 0 224 224 224 224 0 0 0 224-224 224 224 0 0 0-224-224z" fill="#494c60" stroke-width="8"/>
  <path d="m-185.53 167.42s30.173-40.349 11.552-79.216c-18.621-38.867-109-11.08-178.48 37.447-50.02 34.935-74.111 96.521-73.232 136.49" fill="none" stroke="#cff7ff" stroke-linecap="round" stroke-width="16"/>
  <path d="m-361.69 278.14s11.433 46.547 62.168 48.56c50.735 2.013 72.238-83.883 64.952-168.32-5.245-60.786-28.067-117.02-63.12-136.24" fill="none" stroke="#cff7ff" stroke-linecap="round" stroke-width="16"/>
  <path d="m-345.69 71.74s-70.54-42.597-91.152 6.6442c-20.612 49.241 47.72 139.3 129.51 161.48 57.094 15.485 121.15-3.0073 137.64-9.728" fill="none" stroke="#cff7ff" stroke-linecap="round" stroke-width="16"/>
  <path d="m-305.69 142.14c-17.566 0-32 14.434-32 32 0 17.566 14.434 32 32 32 17.566 0 32-14.434 32-32 0-17.566-14.434-32-32-32z" fill="#cff7ff" stroke-width="8"/>
  <path d="m-305.69-49.86a224 224 0 0 0-224 224 224 224 0 0 0 0.172 3.25 224 224 0 0 1 223.83-219.25 224 224 0 0 1 223.83 220.62 224 224 0 0 0 0.172-4.625 224 224 0 0 0-224-224z" fill="#ffffff" opacity=".1" stroke-width="8"/>
  <path d="m-298.81-1.8284a24 24 0 0 0-19.656 11.969 24 24 0 0 0 8.7812 32.781 24 24 0 0 0 32.781-8.7812 24 24 0 0 0-8.7813-32.781 24 24 0 0 0-13.125-3.1875zm128.56 207.97a24 24 0 0 0-11.438 3.2187 24 24 0 0 0-8.7812 32.781 24 24 0 0 0 32.781 8.7812 24 24 0 0 0 8.7813-32.781 24 24 0 0 0-21.344-12zm-255.44 32a24 24 0 0 0-24 24 24 24 0 0 0 24 24 24 24 0 0 0 24-24 24 24 0 0 0-24-24z" fill="#cff7ff" stroke-width="8"/>
  <path d="m-297.69 14.14a8 8 0 0 0-8 8 8 8 0 0 0 8 8 8 8 0 0 0 8-8 8 8 0 0 0-8-8zm128 208a8 8 0 0 0-8 8 8 8 0 0 0 8 8 8 8 0 0 0 8-8 8 8 0 0 0-8-8zm-256 32a8 8 0 0 0-8 8 8 8 0 0 0 8 8 8 8 0 0 0 8-8 8 8 0 0 0-8-8z" fill="#494c60" stroke-width="8"/>
 </g>
 <path d="m256 480c-124.1 0-224-99.904-224-224 0-0.33437 0.0103-0.66598 0.0117-1 0.5364 123.63 100.23 223 223.99 223s223.45-99.369 223.99-223c1e-3 0.33402 0.0117 0.66563 0.0117 1 0 124.1-99.904 224-224 224z" opacity=".1"/>
</svg>
