<svg xmlns="http://www.w3.org/2000/svg" width="512" height="512" enable-background="new" version="1.0"><defs><filter id="a" width="1.048" height="1.048" x="-.024" y="-.024" color-interpolation-filters="sRGB"><feGaussianBlur stdDeviation="4.48"/></filter></defs><rect width="448" height="448" x="-256" y="-688" stroke="#000" stroke-width="8" filter="url(#a)" opacity=".1" rx="224" ry="224" transform="matrix(0 -1 -1 0 -208 228)"/><rect width="448" height="448" x="-256" y="-688" filter="url(#a)" opacity=".2" rx="224" ry="224" transform="matrix(0 -1 -1 0 -208 228)"/><path d="M256 480c-124.1 0-224-99.904-224-224 0-.674.003-1.336 0-2 0 124.1 99.904 224 224 224s224-99.904 224-224c-.003.664 0 1.326 0 2 0 124.1-99.904 224-224 224" opacity=".2"/><path fill="#fff" d="M256 32C131.9 32 32 131.904 32 256c0 .334.01.666.012 1 .536-123.63 100.23-223 223.99-223s223.45 99.369 223.99 223c0-.334.011-.666.011-1 0-124.1-99.904-224-224-224z" opacity=".2"/><path fill="#494c60" d="M256 32A224 224 0 0 0 32 256a224 224 0 0 0 224 224 224 224 0 0 0 224-224A224 224 0 0 0 256 32"/><path fill="none" stroke="#cff7ff" stroke-linecap="round" stroke-width="16" d="M376.16 249.28s30.173-40.349 11.552-79.216-109-11.08-178.48 37.447c-50.02 34.935-74.111 96.521-73.232 136.49"/><path fill="none" stroke="#cff7ff" stroke-linecap="round" stroke-width="16" d="M200 360s11.433 46.547 62.168 48.56 72.238-83.883 64.952-168.32C321.875 179.454 299.053 123.22 264 104"/><path fill="none" stroke="#cff7ff" stroke-linecap="round" stroke-width="16" d="M216 153.6s-70.54-42.597-91.152 6.644 47.72 139.3 129.51 161.48c57.094 15.485 121.15-3.007 137.64-9.728"/><path fill="#cff7ff" d="M256 224c-17.566 0-32 14.434-32 32s14.434 32 32 32 32-14.434 32-32-14.434-32-32-32"/><path fill="#fff" d="M256 32A224 224 0 0 0 32 256a224 224 0 0 0 .172 3.25A224 224 0 0 1 256.002 40a224 224 0 0 1 223.83 220.62 224 224 0 0 0 .172-4.625 224 224 0 0 0-224-224z" opacity=".1"/><path fill="#cff7ff" d="M262.88 80.032A24 24 0 0 0 243.224 92a24 24 0 0 0 8.781 32.78 24 24 0 0 0 32.781-8.78 24 24 0 0 0-8.781-32.782 24 24 0 0 0-13.125-3.187zm128.56 207.97a24 24 0 0 0-11.438 3.218 24 24 0 0 0-8.781 32.781 24 24 0 0 0 32.78 8.782 24 24 0 0 0 8.782-32.781 24 24 0 0 0-21.344-12zm-255.44 32a24 24 0 0 0-24 24 24 24 0 0 0 24 24 24 24 0 0 0 24-24 24 24 0 0 0-24-24"/><path fill="#494c60" d="M264 96a8 8 0 0 0-8 8 8 8 0 0 0 8 8 8 8 0 0 0 8-8 8 8 0 0 0-8-8m128 208a8 8 0 0 0-8 8 8 8 0 0 0 8 8 8 8 0 0 0 8-8 8 8 0 0 0-8-8m-256 32a8 8 0 0 0-8 8 8 8 0 0 0 8 8 8 8 0 0 0 8-8 8 8 0 0 0-8-8"/><path d="M256 480c-124.1 0-224-99.904-224-224 0-.334.01-.666.012-1 .536 123.63 100.23 223 223.99 223s223.45-99.369 223.99-223c0 .334.011.666.011 1 0 124.1-99.904 224-224 224z" opacity=".1"/></svg>