<svg width="512" height="512" enable-background="new" version="1.0" xmlns="http://www.w3.org/2000/svg">
 <title>Paper Icon Theme</title>
 <defs>
  <filter id="a" x="-.024" y="-.024" width="1.048" height="1.048" color-interpolation-filters="sRGB">
   <feGaussianBlur stdDeviation="4.48"/>
  </filter>
 </defs>
 <rect transform="matrix(0,-1,-1,0,-208,228)" x="-256" y="-688" width="448" height="448" rx="224" ry="224" filter="url(#a)" opacity=".1" stroke="#000" stroke-width="8"/>
 <rect transform="matrix(0,-1,-1,0,-208,228)" x="-256" y="-688" width="448" height="448" rx="224" ry="224" filter="url(#a)" opacity=".2"/>
 <path d="m256 480c-124.1 0-224-99.904-224-224 0-0.67412 3e-3 -1.3363 0-2 0 124.1 99.904 224 224 224s224-99.904 224-224c-3e-3 0.66367 0 1.3259 0 2 0 124.1-99.904 224-224 224z" opacity=".2"/>
 <rect transform="matrix(0,-1,-1,0,0,0)" x="-480" y="-480" width="448" height="448" rx="224" ry="224" fill="#494c60"/>
 <path d="m256 32c-124.1 0-224 99.904-224 224 0 0.33437 0.0103 0.66598 0.0117 1 0.5364-123.63 100.23-223 223.99-223s223.45 99.369 223.99 223c1e-3 -0.33402 0.0117-0.66563 0.0117-1 0-124.1-99.904-224-224-224z" fill="#fff" opacity=".2"/>
 <path d="m256 480c-124.1 0-224-99.904-224-224 0-0.33437 0.0103-0.66598 0.0117-1 0.5364 123.63 100.23 223 223.99 223s223.45-99.369 223.99-223c1e-3 0.33402 0.0117 0.66563 0.0117 1 0 124.1-99.904 224-224 224z" opacity=".1"/>
 <path d="m256 109.91a19.478 19.478 0 0 0-19.478 19.478 19.478 19.478 0 0 0 19.478 19.478 19.478 19.478 0 0 0 19.478-19.478 19.478 19.478 0 0 0-19.478-19.478zm0 9.7391a9.7391 9.7391 0 0 1 9.7391 9.7391 9.7391 9.7391 0 0 1-9.7391 9.7391 9.7391 9.7391 0 0 1-9.7391-9.7391 9.7391 9.7391 0 0 1 9.7391-9.7391zm0 107.13a19.478 19.478 0 0 0-19.478 19.478 19.478 19.478 0 0 0 19.478 19.478 19.478 19.478 0 0 0 19.478-19.478 19.478 19.478 0 0 0-19.478-19.478zm-107.13 68.174a19.478 19.478 0 0 0-19.478 19.478 19.478 19.478 0 0 0 19.478 19.478 19.478 19.478 0 0 0 19.478-19.478 19.478 19.478 0 0 0-19.478-19.478zm214.26 0a19.478 19.478 0 0 0-19.478 19.478 19.478 19.478 0 0 0 19.478 19.478 19.478 19.478 0 0 0 19.478-19.478 19.478 19.478 0 0 0-19.478-19.478zm-214.26 9.7391a9.7391 9.7391 0 0 1 9.7391 9.7391 9.7391 9.7391 0 0 1-9.7391 9.7391 9.7391 9.7391 0 0 1-9.7391-9.7391 9.7391 9.7391 0 0 1 9.7391-9.7391zm214.26 0a9.7391 9.7391 0 0 1 9.7391 9.7391 9.7391 9.7391 0 0 1-9.7391 9.7391 9.7391 9.7391 0 0 1-9.7391-9.7391 9.7391 9.7391 0 0 1 9.7391-9.7391z" fill="#cff7ff" stroke-width="9.7391"/>
 <path d="m270.69 124.48a4.8701 4.8701 0 0 0-2.4538 9.1495c27.165 15.263 40.319 50.055 44.473 87.157 4.1538 37.102-0.80153 76.094-7.7609 96.973a4.8723 4.8723 0 0 0 9.2446 3.0815c7.649-22.947 12.508-62.471 8.1793-101.14-4.329-38.667-17.956-76.901-49.38-94.557a4.8701 4.8701 0 0 0-2.3016-0.66616zm56.78 38.671c-2.8283-0.0682-5.7224 0.0487-8.6549 0.34184a4.8757 4.8757 0 1 0 0.98911 9.7012c20.365-2.0671 36.106 5.8166 41.867 20.011 5.7611 14.194 1.9599 36.549-21.723 64.522a4.8701 4.8701 0 1 0 7.4185 6.2778c25.013-29.545 30.951-55.671 23.32-74.47-6.6765-16.449-23.419-25.88-43.217-26.383zm-135.89 0.32139c-23.723 0.39736-39.951 7.7606-48.81 19.782-11.812 16.03-9.0511 38.588 3.9565 58.816a4.8728 4.8728 0 1 0 8.1984-5.269c-11.595-18.031-13.088-35.881-4.3179-47.782 8.7703-11.902 29.263-19.619 65.682-13.924a4.8723 4.8723 0 1 0 1.5217-9.625c-9.5833-1.4998-18.329-2.1329-26.237-1.9965zm97.849 2.8914a4.8701 4.8701 0 0 0-0.58922 0.0195 4.8701 4.8701 0 0 0-0.81809 0.13343c-36.88 8.4725-74.897 27.499-104.03 51.777-29.13 24.28-49.718 53.974-49.718 84.458a4.8701 4.8701 0 1 0 9.7391 0c0-26.004 18.362-53.78 46.203-76.981 27.841-23.201 64.808-41.677 100-49.761a4.8701 4.8701 0 0 0-0.7801-9.644zm-121.04 92.502a4.8701 4.8701 0 0 0-3.538 8.3123c29.791 30.784 66.87 53.538 101.76 65.378 34.896 11.84 67.922 13.137 89.498-1.4268a4.8718 4.8718 0 1 0-5.4402-8.0835c-17.381 11.732-47.66 11.579-80.937 0.28244-33.278-11.291-69.241-33.325-97.888-62.925a4.8701 4.8701 0 0 0-3.462-1.5407zm34.125 60.356a4.8701 4.8701 0 0 0-0.49475 0 4.8701 4.8701 0 0 0-4.2799 6.2019s3.7908 14.014 12.763 28.114c8.9697 14.112 23.793 29.062 45.501 29.062 28.599 0 45.157-31.728 45.157-31.728a4.8702 4.8702 0 1 0-8.5217-4.7176s-15.699 26.705-36.639 26.705c-17.248 0-29.208-11.833-37.281-24.523-8.0737-12.68-11.59-25.448-11.59-25.448a4.8701 4.8701 0 0 0-4.6223-3.6707z" color="#000000" color-rendering="auto" dominant-baseline="auto" fill="#cff7ff" fill-rule="evenodd" image-rendering="auto" shape-rendering="auto" solid-color="#000000" stroke-width="9.7391" style="font-feature-settings:normal;font-variant-alternates:normal;font-variant-caps:normal;font-variant-ligatures:normal;font-variant-numeric:normal;font-variant-position:normal;isolation:auto;mix-blend-mode:normal;shape-padding:0;text-decoration-color:#000000;text-decoration-line:none;text-decoration-style:solid;text-indent:0;text-orientation:mixed;text-transform:none;white-space:normal"/>
</svg>
