<svg xmlns="http://www.w3.org/2000/svg" width="64" height="64"><defs><filter id="a" width="1.087" height="1.107" x="-.043" y="-.054" color-interpolation-filters="sRGB"><feGaussianBlur stdDeviation="1.05"/></filter><filter id="b" width="1.077" height="1.127" x="-.039" y="-.063" color-interpolation-filters="sRGB"><feGaussianBlur stdDeviation=".74"/></filter></defs><path d="M7.526 9C5.019 9 3 11.183 3 13.892v37.216C3 53.818 5.019 56 7.526 56h48.948C58.98 56 61 53.817 61 51.108V13.892C61 11.183 58.98 9 56.474 9zm12.046 17.279a6.214 6.22 0 0 1 6.214 6.22 6.214 6.22 0 0 1-6.214 6.221 6.214 6.22 0 0 1-6.214-6.22 6.214 6.22 0 0 1 6.214-6.221m24.857 0a6.214 6.22 0 0 1 6.214 6.22 6.214 6.22 0 0 1-6.214 6.221 6.214 6.22 0 0 1-6.214-6.22 6.214 6.22 0 0 1 6.214-6.221" filter="url(#a)" opacity=".15"/><path fill="#3f3f3f" d="M7.526 8C5.019 8 3 10.183 3 12.892v37.216C3 52.817 5.019 55 7.526 55h48.948C58.98 55 61 52.817 61 50.108V12.892C61 10.183 58.98 8 56.474 8zm12.046 17.279a6.214 6.22 0 0 1 6.214 6.22 6.214 6.22 0 0 1-6.214 6.221 6.214 6.22 0 0 1-6.214-6.22 6.214 6.22 0 0 1 6.214-6.221m24.857 0a6.214 6.22 0 0 1 6.214 6.22 6.214 6.22 0 0 1-6.214 6.221 6.214 6.22 0 0 1-6.214-6.22 6.214 6.22 0 0 1 6.214-6.221"/><path fill="#4f4f4f" d="m9 55 5.412-10h35.176L55 55z"/><path d="M11.307 15C10.028 15 9 16.208 9 17.709v22.742C9 41.864 10.028 43 11.307 43h41.387c1.279 0 2.307-1.136 2.307-2.549V17.709C55 16.208 53.973 15 52.694 15zM20 27.5a4.5 4.5 0 0 1 4.5 4.5 4.5 4.5 0 0 1-4.5 4.5 4.5 4.5 0 0 1-4.5-4.5 4.5 4.5 0 0 1 4.5-4.5m24 0a4.5 4.5 0 0 1 4.5 4.5 4.5 4.5 0 0 1-4.5 4.5 4.5 4.5 0 0 1-4.5-4.5 4.5 4.5 0 0 1 4.5-4.5" filter="url(#b)" opacity=".15"/><path fill="#1eb5c5" d="M11.307 14C10.028 14 9 15.208 9 16.709v22.742C9 40.864 10.028 42 11.307 42h41.387c1.279 0 2.307-1.136 2.307-2.549V16.709C55 15.208 53.973 14 52.694 14zM20 26.5a4.5 4.5 0 0 1 4.5 4.5 4.5 4.5 0 0 1-4.5 4.5 4.5 4.5 0 0 1-4.5-4.5 4.5 4.5 0 0 1 4.5-4.5m24 0a4.5 4.5 0 0 1 4.5 4.5 4.5 4.5 0 0 1-4.5 4.5 4.5 4.5 0 0 1-4.5-4.5 4.5 4.5 0 0 1 4.5-4.5"/><circle cx="19.5" cy="49.5" r="2.5" opacity=".4"/><path fill="#3f3f3f" d="M20 25a6 6 0 0 0-6 6 6 6 0 0 0 6 6h24a6 6 0 0 0 6-6 6 6 0 0 0-6-6zm0 2a4 4 0 0 1 4 4 4 4 0 0 1-4 4 4 4 0 0 1-4-4 4 4 0 0 1 4-4m24 0a4 4 0 0 1 4 4 4 4 0 0 1-4 4 4 4 0 0 1-4-4 4 4 0 0 1 4-4"/><path fill="#ccc" d="M24.995 28.025h14v6h-14z"/><path fill="#874f29" d="M25 28.025v6h5.51a9.6 9.6 0 0 0 .49-3 9.6 9.6 0 0 0-.49-3z"/><circle cx="44.5" cy="49.5" r="2.5" opacity=".4"/><path fill="#fff" d="M7.525 8C5.018 8 3 10.184 3 12.893v1C3 11.183 5.018 9 7.525 9h48.95C58.981 9 61 11.184 61 13.893v-1C61 10.183 58.982 8 56.474 8z" opacity=".1"/><path d="M25 28h14v1H25zM20 27a4 4 0 0 0-4 4 4 4 0 0 0 .035.506A4 4 0 0 1 20 28a4 4 0 0 1 3.965 3.494A4 4 0 0 0 24 31a4 4 0 0 0-4-4m24 0a4 4 0 0 0-4 4 4 4 0 0 0 .035.506A4 4 0 0 1 44 28a4 4 0 0 1 3.965 3.494A4 4 0 0 0 48 31a4 4 0 0 0-4-4" opacity=".2"/><path fill="#fff" d="M14.412 45 9 55h.54l4.872-9h35.176l4.871 9H55l-5.412-10z" opacity=".1"/><path fill="#fff" d="M11.307 14C10.028 14 9 15.208 9 16.709v1C9 16.208 10.028 15 11.307 15h41.387c1.279 0 2.307 1.208 2.307 2.709v-1C55 15.208 53.973 14 52.694 14z" opacity=".2"/></svg>