<svg width="64" height="64" version="1.1" xmlns="http://www.w3.org/2000/svg">
 <defs>
  <filter id="filter880" x="-.043448" y="-.053617" width="1.0869" height="1.1072" color-interpolation-filters="sRGB">
   <feGaussianBlur stdDeviation="1.05"/>
  </filter>
  <filter id="filter886" x="-.038609" y="-.063429" width="1.0772" height="1.1269" color-interpolation-filters="sRGB">
   <feGaussianBlur stdDeviation="0.74"/>
  </filter>
 </defs>
 <path d="m7.5259 9c-2.5072 0-4.5259 2.1833-4.5259 4.8922v37.216c0 2.7089 2.0186 4.8922 4.5259 4.8922h48.948c2.5072 0 4.5259-2.1833 4.5259-4.8922v-37.216c0-2.7089-2.0186-4.8922-4.5259-4.8922zm12.046 17.279a6.2143 6.2206 0 0 1 6.2143 6.2207 6.2143 6.2206 0 0 1-6.2143 6.2205 6.2143 6.2206 0 0 1-6.2143-6.2205 6.2143 6.2206 0 0 1 6.2143-6.2207zm24.857 0a6.2143 6.2206 0 0 1 6.2143 6.2207 6.2143 6.2206 0 0 1-6.2143 6.2205 6.2143 6.2206 0 0 1-6.2143-6.2205 6.2143 6.2206 0 0 1 6.2143-6.2207z" fill="#000000" filter="url(#filter880)" opacity=".15"/>
 <path d="m7.5259 7.9999c-2.5072 0-4.5259 2.1833-4.5259 4.8922v37.216c0 2.7089 2.0186 4.8922 4.5259 4.8922h48.948c2.5072 0 4.5259-2.1833 4.5259-4.8922v-37.216c0-2.7089-2.0186-4.8922-4.5259-4.8922zm12.046 17.279a6.2143 6.2206 0 0 1 6.2143 6.2207 6.2143 6.2206 0 0 1-6.2143 6.2205 6.2143 6.2206 0 0 1-6.2143-6.2205 6.2143 6.2206 0 0 1 6.2143-6.2207zm24.857 0a6.2143 6.2206 0 0 1 6.2143 6.2207 6.2143 6.2206 0 0 1-6.2143 6.2205 6.2143 6.2206 0 0 1-6.2143-6.2205 6.2143 6.2206 0 0 1 6.2143-6.2207z" fill="#3f3f3f"/>
 <path d="m9 55 5.4118-10h35.176l5.4118 10z" fill="#4f4f4f"/>
 <path d="m11.307 15c-1.2788 0-2.3066 1.2078-2.3066 2.709v22.742c0 1.4129 1.0279 2.5488 2.3066 2.5488h41.387c1.2788 0 2.3066-1.1359 2.3066-2.5488v-22.742c0-1.5012-1.0279-2.709-2.3066-2.709zm8.6934 12.5a4.5 4.5 0 0 1 4.5 4.5 4.5 4.5 0 0 1-4.5 4.5 4.5 4.5 0 0 1-4.5-4.5 4.5 4.5 0 0 1 4.5-4.5zm24 0a4.5 4.5 0 0 1 4.5 4.5 4.5 4.5 0 0 1-4.5 4.5 4.5 4.5 0 0 1-4.5-4.5 4.5 4.5 0 0 1 4.5-4.5z" fill="#000000" filter="url(#filter886)" opacity=".15"/>
 <path d="m11.307 14c-1.2788 0-2.3066 1.2078-2.3066 2.709v8.291 14.451c0 1.4129 1.0279 2.5488 2.3066 2.5488h41.387c1.2788 0 2.3066-1.1359 2.3066-2.5488v-14.451-8.291c0-1.5012-1.0279-2.709-2.3066-2.709h-41.387zm8.6934 12.5a4.5 4.5 0 0 1 4.5 4.5 4.5 4.5 0 0 1-4.5 4.5 4.5 4.5 0 0 1-4.5-4.5 4.5 4.5 0 0 1 4.5-4.5zm24 0a4.5 4.5 0 0 1 4.5 4.5 4.5 4.5 0 0 1-4.5 4.5 4.5 4.5 0 0 1-4.5-4.5 4.5 4.5 0 0 1 4.5-4.5z" fill="#1eb5c5"/>
 <circle cx="19.5" cy="49.5" r="2.5" opacity=".4"/>
 <path d="m20 25a6 6 0 0 0-6 6 6 6 0 0 0 6 6h24a6 6 0 0 0 6-6 6 6 0 0 0-6-6zm0 2a4 4 0 0 1 4 4 4 4 0 0 1-4 4 4 4 0 0 1-4-4 4 4 0 0 1 4-4zm24 0a4 4 0 0 1 4 4 4 4 0 0 1-4 4 4 4 0 0 1-4-4 4 4 0 0 1 4-4z" fill="#3f3f3f"/>
 <g transform="matrix(1.0138 0 0 1.0862 -.44136 -1153)">
  <rect x="25.09" y="1087.3" width="13.81" height="5.524" fill="#cccccc"/>
  <path d="m25.095 1087.3v5.5238h5.4353c0.31665-0.8865 0.47991-1.8205 0.48279-2.7618-0.0029-0.9414-0.16612-1.8754-0.48279-2.762z" fill="#874f29"/>
 </g>
 <circle cx="44.5" cy="49.5" r="2.5" opacity=".4"/>
 <path d="m7.5254 8c-2.5072 0-4.5254 2.1837-4.5254 4.8926v1c0-2.7089 2.0182-4.8926 4.5254-4.8926h48.949c2.5072 0 4.5254 2.1837 4.5254 4.8926v-1c0-2.7089-2.0182-4.8926-4.5254-4.8926z" fill="#ffffff" opacity=".1"/>
 <rect x="25" y="28" width="14" height="1" opacity=".2"/>
 <path d="m 20,27 a 4,4 0 0 0 -4,4 4,4 0 0 0 0.03516,0.505859 A 4,4 0 0 1 20,28 4,4 0 0 1 23.964844,31.494141 4,4 0 0 0 24,31 4,4 0 0 0 20,27 Z m 24,0 a 4,4 0 0 0 -4,4 4,4 0 0 0 0.03516,0.505859 A 4,4 0 0 1 44,28 4,4 0 0 1 47.964844,31.494141 4,4 0 0 0 48,31 4,4 0 0 0 44,27 Z" opacity=".2"/>
 <path d="m14.412 45-5.4121 10h0.54102l4.8711-9h35.176l4.8711 9h0.54102l-5.4121-10z" fill="#ffffff" opacity=".1"/>
 <path d="m11.307 14c-1.2788 0-2.3066 1.2078-2.3066 2.709v1c0-1.5012 1.0279-2.709 2.3066-2.709h41.387c1.2788 0 2.3066 1.2078 2.3066 2.709v-1c0-1.5012-1.0279-2.709-2.3066-2.709z" fill="#ffffff" opacity=".2"/>
</svg>
