<svg xmlns="http://www.w3.org/2000/svg" width="512" height="512" enable-background="new" version="1.0"><defs><filter id="a" width="1.048" height="1.048" x="-.024" y="-.024" color-interpolation-filters="sRGB"><feGaussianBlur stdDeviation="4.8"/></filter></defs><g transform="translate(-208 228)"><circle cx="464" cy="30" r="240" opacity=".2"/><circle cx="464" cy="32" r="240" filter="url(#a)" opacity=".1"/><circle cx="464" cy="32" r="240" filter="url(#a)" opacity=".2"/><circle cx="464" cy="28" r="240" fill="#5c6bc0"/><path fill="#fff" d="M464-212A240 240 0 0 0 224 28l.041 1.172A240 240 0 0 1 464-210 240 240 0 0 1 703.959 28.828L704 28a240 240 0 0 0-240-240" opacity=".2"/><path fill="#fff" d="M424-124c-48.752 0-88 39.248-88 88 0 25.268 10.546 47.979 27.49 64C346.545 44.021 336 66.732 336 92c0 48.752 39.248 88 88 88h86c26.51 0 48-21.49 48-48H424c-22.16 0-40-17.84-40-40s17.84-40 40-40h86s24 0 24-24-24-24-24-24h-86c-22.16 0-40-17.84-40-40s17.84-40 40-40h134c0-26.51-21.49-48-48-48h-62z"/></g></svg>