<svg width="512" height="512" enable-background="new" version="1.0" xmlns="http://www.w3.org/2000/svg" xmlns:osb="http://www.openswatchbook.org/uri/2009/osb" xmlns:xlink="http://www.w3.org/1999/xlink">
 <defs>
  <filter id="a" x="-.024" y="-.024" width="1.048" height="1.048" color-interpolation-filters="sRGB">
   <feGaussianBlur stdDeviation="4.8"/>
  </filter>
 </defs>
 <g transform="translate(0,212)">
  <g>
   <g transform="translate(-208,16)">
    <g>
     <circle cx="464" cy="30" r="240" opacity=".2"/>
     <circle cx="464" cy="32" r="240" filter="url(#a)" opacity=".1"/>
     <circle cx="464" cy="32" r="240" filter="url(#a)" opacity=".2"/>
    </g>
    <circle cx="464" cy="28" r="240" fill="#5c6bc0"/>
    <path transform="translate(0,-244)" d="m 464,32 a 240,240 0 0 0 -240,240 240,240 0 0 0 0.041,1.17188 A 240,240 0 0 1 464,34 240,240 0 0 1 703.95898,272.82812 240,240 0 0 0 704,272 240,240 0 0 0 464,32 Z" fill="#fff" opacity=".2"/>
    <path d="m424-124c-48.752 0-88 39.248-88 88 0 25.268 10.546 47.979 27.49 64-16.945 16.021-27.49 38.732-27.49 64 0 48.752 39.248 88 88 88h86c26.51 0 48-21.49 48-48h-134c-22.16 0-40-17.84-40-40s17.84-40 40-40h86s24 0 24-24-24-24-24-24h-86c-22.16 0-40-17.84-40-40s17.84-40 40-40h134c0-26.51-21.49-48-48-48h-62z" fill="#fff"/>
   </g>
  </g>
 </g>
</svg>
