<svg xmlns="http://www.w3.org/2000/svg" width="512" height="512" enable-background="new" version="1.0"><defs><filter id="a" width="1.051" height="1.045" x="-.026" y="-.023" color-interpolation-filters="sRGB"><feGaussianBlur stdDeviation="3.92"/></filter><filter id="c" width="1.107" height="1.137" x="-.053" y="-.069" color-interpolation-filters="sRGB"><feGaussianBlur stdDeviation="3.2"/></filter><filter id="b" width="1.052" height="1.045" x="-.026" y="-.022" color-interpolation-filters="sRGB"><feGaussianBlur stdDeviation="3.28"/></filter><filter id="e" width="1.24" height="1.24" x="-.12" y="-.12" color-interpolation-filters="sRGB"><feGaussianBlur stdDeviation="2.4"/></filter></defs><g transform="translate(1234.5 409.02)"><rect width="416" height="368" x="-256" y="-640" enable-background="new" filter="url(#a)" opacity=".1" rx="24" ry="24" transform="matrix(0 -1 -1 0 -1434.5 -181.02)"/><rect width="416" height="368" x="-256" y="-640" enable-background="new" filter="url(#a)" opacity=".2" rx="24" ry="24" transform="matrix(0 -1 -1 0 -1434.5 -181.02)"/><rect width="416" height="368" x="-72.981" y="794.5" enable-background="new" opacity=".2" rx="24" ry="24" transform="scale(1 -1)rotate(90)"/><rect width="416" height="368" x="-70.981" y="794.5" fill="#4d4d4d" enable-background="new" rx="24" ry="24" transform="scale(1 -1)rotate(90)"/><path fill="#fff" d="M-1138.5-345.02c-13.296 0-24 10.704-24 24v2c0-13.296 10.704-24 24-24h320c13.296 0 24 10.704 24 24v-2c0-13.296-10.704-24-24-24z" enable-background="new" opacity=".2"/><path d="M-1130.5-309.02h304v352h-304z" filter="url(#b)" opacity=".2"/><path fill="#fff" d="M-1130.5-313.02h304v352h-304z"/><path d="M-978.5-391.02c-22.16 0-40 17.84-40 40v24h-9a22.95 22.95 0 0 0-23 23v25h144v-25a22.95 22.95 0 0 0-23-23h-9v-24c0-22.16-17.84-40-40-40" filter="url(#c)" opacity=".2"/><path fill="#ccc" d="M-978.5-393.02c-22.16 0-40 17.84-40 40v24h-9a22.95 22.95 0 0 0-23 23v25h144v-25a22.95 22.95 0 0 0-23-23h-9v-24c0-22.16-17.84-40-40-40"/><circle cx="-978.5" cy="-347.02" r="24" filter="url(#e)" opacity=".1"/><circle cx="-978.5" cy="-353.02" r="24" fill="#fff"/><path fill="#fff" d="M-978.5-393.02c-22.16 0-40 17.84-40 40v2c0-22.16 17.84-40 40-40s40 17.84 40 40v-2c0-22.16-17.84-40-40-40m-49 64a22.95 22.95 0 0 0-23 23v2a22.95 22.95 0 0 1 23-23h9v-2zm89 0v2h9a22.95 22.95 0 0 1 23 23v-2a22.95 22.95 0 0 0-23-23z" opacity=".2"/><path fill="#b3b3b3" d="M-1050.5-297.02v16h144v-16z"/></g><path d="M152 176v16h128v-16zm0 48v16h208v-16zm0 48v16h208v-16zm0 48v16h208v-16z" opacity=".2"/></svg>