<svg xmlns="http://www.w3.org/2000/svg" width="512" height="512" enable-background="new" version="1.0"><defs><filter id="a" width="1.048" height="1.048" x="-.024" y="-.024" color-interpolation-filters="sRGB"><feGaussianBlur stdDeviation="4.8"/></filter></defs><g transform="translate(-208 228)"><circle cx="464" cy="32" r="240" filter="url(#a)" opacity=".1"/><circle cx="464" cy="32" r="240" filter="url(#a)" opacity=".2"/><circle cx="464" cy="28" r="240" fill="#8bc34a"/><path fill="#fff" d="M464-212A240 240 0 0 0 224 28l.041 1.172A240 240 0 0 1 464-210 240 240 0 0 1 703.959 28.828L704 28a240 240 0 0 0-240-240" opacity=".2"/><path fill="#ececec" stroke="none" stroke-linejoin="round" stroke-width="1.172" d="M304 10.414a.586.586 0 0 0-.586.586v12c0 .445.477.728.867.514l11-6a.586.586 0 0 0 0-1.028l-9.9-5.4-1.1-.6a.6.6 0 0 0-.281-.072" color="#000" enable-background="accumulate" style="isolation:auto;mix-blend-mode:normal;text-decoration-color:#000;text-decoration-line:none;text-decoration-style:solid;text-indent:0;text-transform:none;white-space:normal" transform="matrix(19.397 0 0 19.434 -5517.2 -302.39)"/></g></svg>