<svg xmlns="http://www.w3.org/2000/svg" width="512" height="512" enable-background="new" version="1.0"><defs><filter id="a" width="1.048" height="1.048" x="-.024" y="-.024" color-interpolation-filters="sRGB"><feGaussianBlur stdDeviation="4.48"/></filter></defs><rect width="448" height="448" x="-256" y="-688" stroke="#000" stroke-width="8" filter="url(#a)" opacity=".1" rx="24" ry="24" transform="matrix(0 -1 -1 0 -208 228)"/><rect width="448" height="448" x="-256" y="-688" filter="url(#a)" opacity=".2" rx="24" ry="24" transform="matrix(0 -1 -1 0 -208 228)"/><rect width="448" height="448" x="-480" y="-480" fill="#ff7643" rx="24" ry="24" transform="scale(1 -1)rotate(90)"/><path fill="#fff" d="M56 32c-13.296 0-24 10.704-24 24v2c0-13.296 10.704-24 24-24h400c13.296 0 24 10.704 24 24v-2c0-13.296-10.704-24-24-24z" opacity=".1"/><path d="M456 480c13.296 0 24-10.704 24-24v-2c0 13.296-10.704 24-24 24H56c-13.296 0-24-10.704-24-24v2c0 13.296 10.704 24 24 24z" opacity=".2"/><path fill="#fff" d="M247.59 122.07c-10.012.195-19.868.584-26.374 1.558-29.101 4.441-52.436 14.648-67.435 29.53a60 60 0 0 0-16.362 28.048c-1.753 6.779-2.337 22.4-.506 28.361 6.116 21.037 20.647 37.165 47.917 53.371 11.609 6.857 20.569 11.375 46.359 23.024 30.97 13.908 40.399 19.517 44.8 26.491 1.715 2.805 2.338 4.286 2.105 7.675-.468 5.376-3.156 8.064-9.467 10.363-4.207 1.48-5.727 1.948-13.713 1.948-14.609-.156-27.465-2.883-45.307-9.233a165 165 0 0 1-35.256-17.297c-10.363-6.779-11.18-7.013-14.258-5.377-2.298 1.286-19.128 16.284-31.555 28.44-8.142 7.908-8.259 9.505-2.649 14.96 5.493 5.453 20.998 16.945 29.491 21.854 9.233 5.454 15.388 8.454 25.79 12.31 17.453 6.467 32.101 9.155 59.526 11.492 6.233.507 28.517.585 36.347 0 42.931-3.428 77.953-17.453 96.38-37.983 6.623-7.284 10.596-13.557 13.713-22.283 3.039-8.492 3.818-25.166 1.558-35.295-3.662-16.4-13.557-31.244-29.49-43.749-15.972-12.544-32.179-20.88-71.097-36.464-27.192-10.83-37.399-16.596-40.048-22.634-1.441-3.233-.584-8.96 1.559-11.142 4.285-4.324 12.544-5.882 23.218-4.596 19.868 2.454 45.424 11.57 67.94 24.153 4.364 2.415 8.571 4.44 9.506 4.636 3.623.934 5.844-.506 20.53-17.297 18.037-20.647 17.842-19.83 7.909-26.88-29.607-21.193-63.89-33.503-103.24-37.204a275 275 0 0 0-27.932-.78z"/></svg>