<svg width="512" height="512" enable-background="new" version="1.0" xmlns="http://www.w3.org/2000/svg">
 <defs>
  <filter id="a" x="-.024" y="-.024" width="1.048" height="1.048" color-interpolation-filters="sRGB">
   <feGaussianBlur stdDeviation="4.48"/>
  </filter>
 </defs>
 <rect transform="matrix(0,-1,-1,0,-208,228)" x="-256" y="-688" width="448" height="448" rx="24" ry="24" filter="url(#a)" opacity=".1" stroke="#000" stroke-width="8"/>
 <rect transform="matrix(0,-1,-1,0,-208,228)" x="-256" y="-688" width="448" height="448" rx="24" ry="24" filter="url(#a)" opacity=".2"/>
 <rect transform="matrix(0,-1,-1,0,0,0)" x="-480" y="-480" width="448" height="448" rx="24" ry="24" fill="#ff7643"/>
 <path d="m56 32c-13.296 0-24 10.704-24 24v2c0-13.296 10.704-24 24-24h400c13.296 0 24 10.704 24 24v-2c0-13.296-10.704-24-24-24z" fill="#fff" opacity=".1"/>
 <path d="m456 480c13.296 0 24-10.704 24-24v-2c0 13.296-10.704 24-24 24h-400c-13.296 0-24-10.704-24-24v2c0 13.296 10.704 24 24 24z" opacity=".2"/>
 <path d="m247.59 122.07c-10.012 0.19481-19.868 0.58442-26.374 1.5582-29.101 4.4411-52.436 14.648-67.435 29.529a59.994 59.994 0 0 0-16.362 28.049c-1.753 6.7785-2.3374 22.4-0.50608 28.361 6.1163 21.037 20.647 37.165 47.917 53.371 11.609 6.8564 20.569 11.375 46.359 23.024 30.971 13.908 40.399 19.517 44.801 26.491 1.7141 2.8049 2.3375 4.2853 2.1037 7.6745-0.46795 5.3761-3.1556 8.0641-9.4665 10.363-4.2074 1.4803-5.7268 1.9478-13.713 1.9478-14.609-0.15564-27.465-2.8828-45.307-9.2329a164.87 164.87 0 0 1-35.256-17.297c-10.363-6.7785-11.181-7.0123-14.258-5.3761-2.2985 1.2856-19.128 16.284-31.555 28.439-8.142 7.9083-8.2588 9.5055-2.649 14.96 5.4929 5.454 20.998 16.946 29.491 21.855 9.2328 5.4539 15.388 8.4536 25.79 12.31 17.453 6.4668 32.101 9.155 59.526 11.492 6.2331 0.50609 28.517 0.58442 36.347 0 42.931-3.4282 77.953-17.453 96.38-37.983 6.6227-7.2849 10.596-13.557 13.713-22.283 3.0387-8.4926 3.8178-25.166 1.5583-35.295-3.662-16.401-13.557-31.244-29.49-43.749-15.972-12.544-32.179-20.881-71.097-36.464-27.192-10.83-37.399-16.596-40.048-22.634-1.4414-3.2335-0.58442-8.9601 1.5583-11.142 4.2852-4.3242 12.544-5.8825 23.218-4.5969 19.868 2.4544 45.424 11.57 67.941 24.153 4.3632 2.4154 8.5706 4.4412 9.5056 4.636 3.623 0.93486 5.8435-0.50608 20.53-17.297 18.037-20.647 17.842-19.829 7.9082-26.88-29.607-21.193-63.89-33.503-103.24-37.204a275.11 275.11 0 0 0-27.932-0.77922z" fill="#fff" stroke-width="38.957"/>
</svg>
