<svg width="512" height="512" enable-background="new" version="1.0" xmlns="http://www.w3.org/2000/svg" xmlns:xlink="http://www.w3.org/1999/xlink">
 <defs>
  <filter id="a" x="-.024" y="-.024" width="1.048" height="1.048" color-interpolation-filters="sRGB">
   <feGaussianBlur stdDeviation="4.48"/>
  </filter>
  <filter id="b" x="-.024" y="-.024" width="1.048" height="1.048" color-interpolation-filters="sRGB">
   <feGaussianBlur stdDeviation="1.5999991"/>
  </filter>
 </defs>
 <g transform="translate(0,212)">
  <g>
   <g transform="translate(-208,16)">
    <rect transform="matrix(0,-1,-1,0,0,4)" x="-254" y="-688" width="448" height="448" rx="24" ry="24" filter="url(#a)" opacity=".1" stroke="#000" stroke-width="8"/>
    <rect transform="matrix(0,-1,-1,0,0,4)" x="-254" y="-688" width="448" height="448" rx="24" ry="24" filter="url(#a)" opacity=".2"/>
    <rect transform="matrix(0,-1,-1,0,0,0)" x="-252" y="-688" width="448" height="448" rx="24" ry="24" fill="#ebebeb"/>
    <rect x="304" y="-36" width="280" height="128" rx="16" ry="16" fill="#028ccc"/>
    <g>
     <rect transform="scale(-1,1)" x="-640" y="-48" width="160" height="160" ry="78.852" color="#000000" enable-background="new" filter="url(#b)" opacity=".2"/>
     <rect transform="scale(-1,1)" x="-640" y="-48" width="160" height="160" ry="78.852" color="#000000" enable-background="new" filter="url(#b)" opacity=".1" stroke="#000" stroke-width="10"/>
     <path transform="translate(0,-244)" d="m320 208c-8.864 0-16 7.1359-16 16v2c0-8.8641 7.136-16 16-16h248c8.864 0 16 7.1359 16 16v-2c0-8.8641-7.136-16-16-16z" opacity=".2"/>
    </g>
    <rect transform="scale(-1,1)" x="-640" y="-52" width="160" height="160" ry="78.852" color="#000000" enable-background="new" fill="#fff"/>
    <path transform="translate(0,-244)" d="m264 48c-13.296 0-24 10.704-24 24v2c0-13.296 10.704-24 24-24h400c13.296 0 24 10.704 24 24v-2c0-13.296-10.704-24-24-24z" fill="#fff" opacity=".4"/>
    <path d="m264 252c-13.296 0-24-10.704-24-24v-2c0 13.296 10.704 24 24 24h400c13.296 0 24-10.704 24-24v2c0 13.296-10.704 24-24 24z" opacity=".1"/>
    <path d="m320 94c-8.864 0-16-7.1359-16-16v-2c0 8.8641 7.136 16 16 16h248c8.864 0 16-7.1359 16-16v2c0 8.8641-7.136 16-16 16z" fill="#fff" opacity=".2"/>
   </g>
  </g>
 </g>
</svg>
