<svg xmlns="http://www.w3.org/2000/svg" width="512" height="512" enable-background="new" version="1.0"><defs><filter id="a" width="1.048" height="1.048" x="-.024" y="-.024" color-interpolation-filters="sRGB"><feGaussianBlur stdDeviation="4.48"/></filter><filter id="b" width="1.048" height="1.048" x="-.024" y="-.024" color-interpolation-filters="sRGB"><feGaussianBlur stdDeviation="1.6"/></filter></defs><g transform="translate(-208 228)"><rect width="448" height="448" x="-254" y="-688" stroke="#000" stroke-width="8" filter="url(#a)" opacity=".1" rx="24" ry="24" transform="matrix(0 -1 -1 0 0 4)"/><rect width="448" height="448" x="-254" y="-688" filter="url(#a)" opacity=".2" rx="24" ry="24" transform="matrix(0 -1 -1 0 0 4)"/><rect width="448" height="448" x="-252" y="-688" fill="#ebebeb" rx="24" ry="24" transform="scale(1 -1)rotate(90)"/><rect width="280" height="128" x="304" y="-36" fill="#028ccc" rx="16" ry="16"/><rect width="160" height="160" x="-640" y="-48" color="#000" enable-background="new" filter="url(#b)" opacity=".2" ry="78.852" transform="scale(-1 1)"/><rect width="160" height="160" x="-640" y="-48" stroke="#000" stroke-width="10" color="#000" enable-background="new" filter="url(#b)" opacity=".1" ry="78.852" transform="scale(-1 1)"/><path d="M320-36c-8.864 0-16 7.136-16 16v2c0-8.864 7.136-16 16-16h248c8.864 0 16 7.136 16 16v-2c0-8.864-7.136-16-16-16z" opacity=".2"/><rect width="160" height="160" x="-640" y="-52" fill="#fff" color="#000" enable-background="new" ry="78.852" transform="scale(-1 1)"/><path fill="#fff" d="M264-196c-13.296 0-24 10.704-24 24v2c0-13.296 10.704-24 24-24h400c13.296 0 24 10.704 24 24v-2c0-13.296-10.704-24-24-24z" opacity=".4"/><path d="M264 252c-13.296 0-24-10.704-24-24v-2c0 13.296 10.704 24 24 24h400c13.296 0 24-10.704 24-24v2c0 13.296-10.704 24-24 24z" opacity=".1"/><path fill="#fff" d="M320 94c-8.864 0-16-7.136-16-16v-2c0 8.864 7.136 16 16 16h248c8.864 0 16-7.136 16-16v2c0 8.864-7.136 16-16 16z" opacity=".2"/></g></svg>