<svg xmlns="http://www.w3.org/2000/svg" width="64" height="64" version="1"><defs><filter id="b" width="1.24" height="1.24" x="-.12" y="-.12" color-interpolation-filters="sRGB"><feGaussianBlur stdDeviation=".7"/></filter><filter id="c" width="1.24" height="1.24" x="-.12" y="-.12" color-interpolation-filters="sRGB"><feGaussianBlur stdDeviation=".7"/></filter><filter id="d" width="1.24" height="1.24" x="-.12" y="-.12" color-interpolation-filters="sRGB"><feGaussianBlur stdDeviation=".7"/></filter><filter id="f" width="1.24" height="1.24" x="-.12" y="-.12" color-interpolation-filters="sRGB"><feGaussianBlur stdDeviation=".7"/></filter><filter id="e" width="1.24" height="1.24" x="-.12" y="-.12" color-interpolation-filters="sRGB"><feGaussianBlur stdDeviation=".7"/></filter><filter id="a" width="1.096" height="1.096" x="-.048" y="-.048" color-interpolation-filters="sRGB"><feGaussianBlur stdDeviation="1.12"/></filter></defs><rect width="56" height="56" x="4" y="5" filter="url(#a)" opacity=".2" rx="6" ry="6"/><rect width="56" height="56" x="4" y="4" fill="#424652" rx="6" ry="6"/><path d="M25 40a7 7 0 0 0-7 7 7 7 0 0 0 7 7 7 7 0 0 0 7-7v-7z" filter="url(#b)" opacity=".2"/><path fill="#09c37b" d="M25 39a7 7 0 0 0-7 7 7 7 0 0 0 7 7 7 7 0 0 0 7-7v-7z"/><path d="M25 26h7v14h-7c-3.878 0-7-3.122-7-7s3.122-7 7-7" filter="url(#c)" opacity=".2"/><circle cx="39" cy="33" r="7" filter="url(#d)" opacity=".2"/><path fill="#9154dd" d="M25 25h7v14h-7c-3.878 0-7-3.122-7-7s3.122-7 7-7"/><circle cx="39" cy="32" r="7" fill="#01b1f8"/><path d="M25 12c-3.878 0-7 3.122-7 7s3.122 7 7 7h7V12z" filter="url(#e)" opacity=".2"/><path fill="#f24e1e" d="M25 11c-3.878 0-7 3.122-7 7s3.122 7 7 7h7V11z"/><path d="M32 12h7c3.878 0 7 3.122 7 7s-3.122 7-7 7h-7z" filter="url(#f)" opacity=".2"/><path fill="#ff7262" d="M32 11h7c3.878 0 7 3.122 7 7s-3.122 7-7 7h-7z"/><path fill="#fff" d="M25 11c-3.878 0-7 3.122-7 7 0 .17.014.334.025.5A6.98 6.98 0 0 1 25 12h14a6.98 6.98 0 0 1 6.975 6.5c.011-.166.025-.33.025-.5 0-3.878-3.122-7-7-7H25" opacity=".2"/><path fill="#fff" d="M10 4c-3.324 0-6 2.676-6 6v1c0-3.324 2.676-6 6-6h44c3.324 0 6 2.676 6 6v-1c0-3.324-2.676-6-6-6z" opacity=".1"/></svg>