<svg xmlns="http://www.w3.org/2000/svg" width="512" height="512" enable-background="new" version="1.0"><defs><filter id="a" width="1.048" height="1.048" x="-.024" y="-.024" color-interpolation-filters="sRGB"><feGaussianBlur stdDeviation="4.48"/></filter></defs><g transform="translate(-208 228)"><g transform="scale(1 -1)rotate(90)"><rect width="448" height="448" x="-254" y="-688" enable-background="new" opacity=".2" rx="36" ry="36"/><rect width="448" height="448" x="-256" y="-688" enable-background="new" filter="url(#a)" opacity=".1" rx="36" ry="36"/><rect width="448" height="448" x="-256" y="-688" enable-background="new" filter="url(#a)" opacity=".2" rx="36" ry="36"/></g><rect width="448" height="448" x="-252" y="-688" fill="#b71c1c" enable-background="new" rx="36" ry="36" transform="scale(1 -1)rotate(90)"/><path fill="#fff" d="M276-196c-19.944 0-36 16.056-36 36v2c0-19.944 16.056-36 36-36h376c19.944 0 36 16.056 36 36v-2c0-19.944-16.056-36-36-36z" enable-background="new" opacity=".2"/><path fill="#fff" d="m374.07-120.32-61.339 269.74h49.838L391.52 28.71h136.05L400.16 141.77l33.213 37.912 17.012-8.69c32.171-16.398 45.664-6.81 70.072-.088 23.745 6.532 46.068 13.524 92.381-12.94l-9.197-46.711c-50.544 35.626-66.534 3.84-102.53 2.579l103.06-86.457 11.183-46.151h-215.89l13.897-55.39h141.5l9.704-46.15h-190.5z" enable-background="new"/></g></svg>