<svg xmlns="http://www.w3.org/2000/svg" width="512" height="512" enable-background="new" version="1.0"><defs><filter id="a" width="1.045" height="1.052" x="-.022" y="-.026" color-interpolation-filters="sRGB"><feGaussianBlur stdDeviation="4.16"/></filter><filter id="b" width="1.36" height="1.18" x="-.18" y="-.09" color-interpolation-filters="sRGB"><feGaussianBlur stdDeviation="2.4"/></filter></defs><g transform="translate(-208 228)"><g transform="scale(1 -1)rotate(90)"><rect width="384" height="448" x="-224" y="-688" filter="url(#a)" opacity=".1" rx="36" ry="36"/><rect width="384" height="448" x="-224" y="-688" filter="url(#a)" opacity=".2" rx="36" ry="36"/><rect width="384" height="448" x="-222" y="-688" opacity=".2" rx="36" ry="36"/></g><rect width="384" height="448" x="-220" y="-688" fill="#bcaaa4" rx="36" ry="36" transform="scale(1 -1)rotate(90)"/><path fill="#fff" d="M276-164c-19.944 0-36 16.056-36 36v2c0-19.944 16.056-36 36-36h376c19.944 0 36 16.056 36 36v-2c0-19.944-16.056-36-36-36z" opacity=".2"/><path d="M448.12-164V12c0 8.8 7.16 16 16 16s16-7.2 16-16v-176z" enable-background="new" opacity=".1"/><path d="M464.12-164v8h8v-8zm0 8h-8v8h8zm0 8v8h8v-8zm0 8h-8v8h8zm0 8v8h8v-8zm0 8h-8v8h8zm0 8v8h8v-8zm0 8h-8v8h8zm0 8v8h8v-8zm0 8h-8v8h8zm0 8v8h8v-8zm0 8h-8v8h8zm0 8v8h8v-8zm0 8h-8v8h8zm0 8v8h8v-8zm0 8h-8v8h8zm0 8v8h8v-8zm0 8h-8v8h8zm0 8v8h8v-8zm0 8h-8v8h8zm0 8v8h8v-8zm0 8h-8v8h8zm0 8v8c4.416 0 8-4 8-8z" enable-background="new" opacity=".2"/><path fill="#ddd" d="M456.12-164v8h8v-8zm0 16v8h8v-8zm0 16v8h8v-8zm0 16v8h8v-8zm0 16v8h8v-8zm0 16v8h8v-8zm0 16v8h8v-8zm0 16v8h8v-8zm0 16v8h8v-8zm0 16v8h8v-8zm0 16v8h8v-8zm0 16c0 4 3.584 8 8 8v-8z" enable-background="new"/><path d="M464.12 24c-8.84 0-16 7.2-16 16v32c0 8.8 7.16 16 16 16s16-7.2 16-16V40c0-8.8-7.16-16-16-16m0 8c4.416 0 8 3.2 8 8 0 4-3.584 8-8 8s-8-4-8-8c0-4.8 3.584-8 8-8m0 24c4.416 0 8 3.2 8 8v8c0 4-3.584 8-8 8s-8-4-8-8v-8c0-4.8 3.584-8 8-8" enable-background="new" filter="url(#b)" opacity=".2"/><path fill="#f5f5f5" d="M464.12 20c-8.84 0-16 7.2-16 16v32c0 8.8 7.16 16 16 16s16-7.2 16-16V36c0-8.8-7.16-16-16-16m0 8c4.416 0 8 3.2 8 8 0 4-3.584 8-8 8s-8-4-8-8c0-4.8 3.584-8 8-8m0 24c4.416 0 8 3.2 8 8v8c0 4-3.584 8-8 8s-8-4-8-8v-8c0-4.8 3.584-8 8-8" enable-background="new"/><path fill="#b3b3b3" d="M472.12-156v8h-8v-8zm0 16v8h-8v-8zm0 16v8h-8v-8zm0 16v8h-8v-8zm0 16v8h-8v-8zm0 16v8h-8v-8zm0 16v8h-8v-8zm0 16v8h-8v-8zm0 16v8h-8v-8zm0 16v8h-8v-8zm0 16v8h-8V4z" enable-background="new"/></g></svg>