<svg xmlns="http://www.w3.org/2000/svg" width="64" height="64"><defs><filter id="a" width="1.12" height="1.12" x="-.06" y="-.06" color-interpolation-filters="sRGB"><feGaussianBlur stdDeviation="1.15"/></filter><filter id="c" width="1.072" height="1.072" x="-.036" y="-.036" color-interpolation-filters="sRGB"><feGaussianBlur stdDeviation="1.8"/></filter><filter id="b" width="1.144" height="1.103" x="-.072" y="-.051" color-interpolation-filters="sRGB"><feGaussianBlur stdDeviation="7.201"/></filter></defs><path d="M24 18.125c12.703 0 23 10.297 23 23s-10.297 23-23 23-23-10.297-23-23 10.297-23 23-23" filter="url(#a)" opacity=".35" transform="translate(2.783 -17.425)scale(1.2174)"/><path fill="#ececec" d="M32 4c15.465 0 28 12.535 28 28S47.465 60 32 60 4 47.465 4 32 16.535 4 32 4"/><g color="#000"><path d="M389.15-261.4c-66.275 0-120 53.726-120 120 0 4.142.34 7.966.749 12 .329 4.014.859 8.068 1.5 12 13.74 84.347 69.752 144.08 117.75 192.08 48-48 104.01-107.74 117.75-192.08.64-3.932 1.171-7.986 1.5-12 .41-4.034.749-7.858.749-12 0-66.275-53.726-120-120-120z" enable-background="new" filter="url(#b)" opacity=".15" transform="translate(-13.402 30.498)scale(.11667)"/><path fill="#f44336" d="M32 0C24.268 0 18 6.27 18 14c0 .484.04.93.087 1.4.038.47.1.942.175 1.4C19.865 26.643 26.4 33.61 32 39.21c5.6-5.6 12.135-12.57 13.738-22.41.075-.458.137-.93.175-1.4.048-.47.087-.916.087-1.4C46 6.27 39.732 0 32 0z" enable-background="new"/><path d="M389.15-197.92c-33.039 0-59.998 26.96-59.998 59.998s26.96 60.023 59.998 60.023 59.998-26.984 59.998-60.023-26.96-59.998-59.998-59.998" enable-background="new" filter="url(#c)" opacity=".15" style="isolation:auto;mix-blend-mode:normal;text-decoration-color:#000;text-decoration-line:none;text-decoration-style:solid;text-indent:0;text-transform:none;white-space:normal" transform="translate(-13.402 30.498)scale(.11667)"/><path fill="#fff" d="M389.15-201.41c-33.039 0-59.998 26.96-59.998 59.998s26.96 60.023 59.998 60.023 59.998-26.984 59.998-60.023-26.96-59.998-59.998-59.998" enable-background="new" style="isolation:auto;mix-blend-mode:normal;text-decoration-color:#000;text-decoration-line:none;text-decoration-style:solid;text-indent:0;text-transform:none;white-space:normal" transform="translate(-13.402 30.498)scale(.11667)"/><path fill="#fff" d="M32 0C24.268 0 18 6.27 18 14l.002.092C18.078 6.425 24.316.233 32 .233c7.685 0 13.922 6.193 13.998 13.86L46 14c0-7.732-6.268-14-14-14z" enable-background="new" opacity=".2"/></g></svg>