<?xml version="1.0" encoding="UTF-8"?>
<svg width="64" height="64" version="1.1" viewBox="0 0 64 64" xmlns="http://www.w3.org/2000/svg" xmlns:cc="http://creativecommons.org/ns#" xmlns:dc="http://purl.org/dc/elements/1.1/" xmlns:rdf="http://www.w3.org/1999/02/22-rdf-syntax-ns#">
 <metadata>
  <rdf:RDF>
   <cc:Work rdf:about="">
    <dc:format>image/svg+xml</dc:format>
    <dc:type rdf:resource="http://purl.org/dc/dcmitype/StillImage"/>
    <dc:title/>
   </cc:Work>
  </rdf:RDF>
 </metadata>
 <defs>
  <filter id="filter942" x="-.06" y="-.06" width="1.12" height="1.12" color-interpolation-filters="sRGB">
   <feGaussianBlur stdDeviation="1.15"/>
  </filter>
  <filter id="filter879" x="-.036004" y="-.035996" width="1.072" height="1.072" color-interpolation-filters="sRGB">
   <feGaussianBlur stdDeviation="1.8001335"/>
  </filter>
  <filter id="filter959" x="-.07201" y="-.051423" width="1.144" height="1.1028" color-interpolation-filters="sRGB">
   <feGaussianBlur stdDeviation="7.200957"/>
  </filter>
 </defs>
 <path transform="matrix(1.2174 0 0 1.2174 2.7826 -17.425)" d="m24 18.125c12.703 0 23 10.297 23 23s-10.297 23-23 23-23-10.297-23-23 10.297-23 23-23z" filter="url(#filter942)" opacity=".35"/>
 <path d="m32 4c15.465 0 28 12.535 28 28s-12.535 28-28 28-28-12.535-28-28 12.535-28 28-28z" fill="#ececec" stroke-width="1.2174"/>
 <g transform="matrix(.11667 0 0 .11667 -13.402 30.498)">
  <path d="m389.15-261.4c-66.275 0-120 53.726-120 120 0 4.1422 0.3408 7.9659 0.74881 12 0.3288 4.014 0.85921 8.0682 1.5 12 13.74 84.347 69.752 144.08 117.75 192.08 48-48 104.01-107.74 117.75-192.08 0.6408-3.932 1.1712-7.9861 1.5-12 0.41041-4.0342 0.74881-7.8579 0.74881-12 0-66.275-53.726-120-120-120z" color="#000000" enable-background="new" filter="url(#filter959)" opacity=".15"/>
  <path d="m389.15-261.4c-66.275 0-120 53.726-120 120 0 4.1422 0.3408 7.9659 0.74881 12 0.3288 4.014 0.85921 8.0682 1.5 12 13.74 84.347 69.752 144.08 117.75 192.08 48-48 104.01-107.74 117.75-192.08 0.6408-3.932 1.1712-7.9861 1.5-12 0.41041-4.0342 0.74881-7.8579 0.74881-12 0-66.275-53.726-120-120-120z" color="#000000" enable-background="new" fill="#f44336"/>
  <path d="m389.15-197.92c-33.039 0-59.998 26.96-59.998 59.998s26.96 60.023 59.998 60.023 59.998-26.984 59.998-60.023-26.96-59.998-59.998-59.998z" color="#000000" color-rendering="auto" enable-background="new" filter="url(#filter879)" image-rendering="auto" opacity=".15" shape-rendering="auto" solid-color="#000000" stroke-width="1.0715" style="isolation:auto;mix-blend-mode:normal;text-decoration-color:#000000;text-decoration-line:none;text-decoration-style:solid;text-indent:0;text-transform:none;white-space:normal"/>
  <path d="m389.15-201.41c-33.039 0-59.998 26.96-59.998 59.998s26.96 60.023 59.998 60.023 59.998-26.984 59.998-60.023-26.96-59.998-59.998-59.998z" color="#000000" color-rendering="auto" enable-background="new" fill="#fff" image-rendering="auto" shape-rendering="auto" solid-color="#000000" stroke-width="1.0715" style="isolation:auto;mix-blend-mode:normal;text-decoration-color:#000000;text-decoration-line:none;text-decoration-style:solid;text-indent:0;text-transform:none;white-space:normal"/>
  <path d="m389.15-261.4c-66.274 1e-3 -120 53.728-120 120 0 0.26353 0.0129 0.51626 0.0156 0.77735 0.65706-65.71 54.119-118.78 119.98-118.78h2e-3c65.87 1e-3 119.33 53.078 119.98 118.79 3e-3 -0.26628 0.0156-0.52414 0.0156-0.79297 3e-5 -66.274-53.724-120-120-120z" color="#000000" enable-background="new" fill="#fff" opacity=".2"/>
 </g>
</svg>
