<svg xmlns="http://www.w3.org/2000/svg" width="512" height="512" enable-background="new" version="1.0"><defs><filter id="a" width="1.048" height="1.048" x="-.024" y="-.024" color-interpolation-filters="sRGB"><feGaussianBlur stdDeviation="4.8"/></filter></defs><g transform="translate(-208 228)"><circle cx="464" cy="32" r="240" filter="url(#a)" opacity=".1"/><circle cx="464" cy="32" r="240" filter="url(#a)" opacity=".2"/><circle cx="464" cy="28" r="240" fill="#e81d62"/><path fill="#fff" d="M464-212A240 240 0 0 0 224 28l.041 1.172A240 240 0 0 1 464-210 240 240 0 0 1 703.959 28.828L704 28a240 240 0 0 0-240-240" opacity=".2"/><path fill="#fff" d="M474.18-147.6c-36.949-2.253-74.476 5.237-108.59 22.734a10.002 10.002 0 1 0 9.102 17.813c61.768-31.678 135.86-27.15 193.32 11.797a10.001 10.001 0 1 0 11.21-16.563 209.85 209.85 0 0 0-105.04-35.781zm-8.555 39.648c-65.985-1.638-127 35.127-156.41 94.219a10.001 10.001 0 1 0 17.891 8.906c25.968-52.18 79.741-84.57 138.01-83.125 58.267 1.446 110.36 36.48 133.71 89.883a10.015 10.015 0 1 0 18.36-8.008c-26.44-60.478-85.579-100.24-151.56-101.88zm-4.218 39.883c-71.554.01-129.63 57.822-129.96 129.38v.04c-.011.16-.04.306-.04.468v.44c.003.16.02.318.04.468.012 25.68 4.707 51.148 13.945 75.117 4.783 12.495 23.524 5.242 18.672-7.227a189 189 0 0 1-12.656-68.516v-.16c0-60.75 49.249-110 110-110s110 49.25 110 110c0 16.57-13.431 30-30 30s-30-13.43-30-30c0-27.614-22.386-50-50-50-27.38.01-49.64 22.037-49.961 49.414-.008.2-.04.39-.04.586v.12c-.202 71.117 57.319 129.25 128.48 129.88 13.478.268 13.676-20.025.2-20-60.4-.532-108.84-49.5-108.67-109.84v-.16c0-16.569 13.43-30 30-30s30 13.431 30 30c0 27.614 22.386 50 50 50s50-22.386 50-50c0-71.797-58.203-130-130-130zm0 40c-49.455.01-89.618 39.921-89.961 89.375v.274l-.04.352v.12c-.16 54.675 26.156 106.08 70.586 138.01a9.94 9.94 0 0 0 6.562 1.914c.334-.02.686-.06 1.016-.12 8.842-1.472 11.413-12.917 4.063-18.047-39.206-28.169-62.363-73.487-62.227-121.72v-.16c0-38.66 31.34-70 70-70s70 31.34 70 70c0 5.523 4.477 10 10 10s10-4.477 10-10a10 10 0 0 0-.04-.938c-.514-49.324-40.635-89.044-89.961-89.063zm-.12 79.609c-5.523.06-9.948 4.594-9.883 10.117v.28c0 .352-.001.704.04 1.054.57 48.776 40.206 88.513 89.14 88.945 13.479.268 13.677-20.025.2-20-38.544-.34-69.378-31.479-69.374-70v-.2c.1-5.637-4.48-10.262-10.117-10.195z"/></g></svg>