<svg width="512" height="512" enable-background="new" version="1.0" xmlns="http://www.w3.org/2000/svg" xmlns:osb="http://www.openswatchbook.org/uri/2009/osb" xmlns:xlink="http://www.w3.org/1999/xlink">
 <defs>
  <filter id="a" x="-.024" y="-.024" width="1.048" height="1.048" color-interpolation-filters="sRGB">
   <feGaussianBlur stdDeviation="4.8"/>
  </filter>
 </defs>
 <g transform="translate(0,212)">
  <g>
   <g transform="translate(-208,16)">
    <circle cx="464" cy="32" r="240" filter="url(#a)" opacity=".1"/>
    <circle cx="464" cy="32" r="240" filter="url(#a)" opacity=".2"/>
    <circle cx="464" cy="28" r="240" fill="#e81d62"/>
    <path transform="translate(0,-244)" d="m 464,32 a 240,240 0 0 0 -240,240 240,240 0 0 0 0.041,1.17188 A 240,240 0 0 1 464,34 240,240 0 0 1 703.95898,272.82812 240,240 0 0 0 704,272 240,240 0 0 0 464,32 Z" fill="#fff" opacity=".2"/>
    <path d="m474.18-147.6c-36.949-2.2526-74.476 5.2368-108.59 22.734a10.002 10.002 0 1 0 9.1016 17.813c61.768-31.678 135.86-27.15 193.32 11.797a10.001 10.001 0 1 0 11.211-16.563c-31.739-21.513-68.09-33.529-105.04-35.781zm-8.5546 39.648c-65.985-1.638-127 35.127-156.41 94.219a10.001 10.001 0 1 0 17.891 8.9062c25.968-52.18 79.741-84.571 138.01-83.125 58.267 1.446 110.36 36.479 133.71 89.883a10.015 10.015 0 1 0 18.359-8.0078c-26.44-60.478-85.578-100.24-151.56-101.88zm-4.2188 39.883c-71.554 0.01-129.63 57.822-129.96 129.38v0.04c-0.0106 0.16-0.04 0.306-0.04 0.468v0.24c-2e-4 0.08 2e-4 0.12 0 0.2 3e-3 0.16 0.02 0.318 0.04 0.468 0.0122 25.68 4.707 51.148 13.945 75.117 4.7838 12.495 23.524 5.2422 18.672-7.2266-8.427-21.864-12.722-45.089-12.656-68.516v-0.16c0-60.751 49.249-110 110-110s110 49.249 110 110c0 16.569-13.431 30-30 30s-30-13.431-30-30c0-27.614-22.386-50-50-50-27.379 0.0088-49.64 22.037-49.961 49.414-8e-3 0.2-0.04 0.39-0.04 0.586v0.12c-0.202 71.117 57.319 129.25 128.48 129.88 13.478 0.268 13.676-20.025 0.2-20-60.4-0.532-108.84-49.501-108.67-109.84v-0.16c0-16.569 13.431-30 30-30s30 13.431 30 30c0 27.614 22.386 50 50 50s50-22.386 50-50c0-71.797-58.203-130-130-130zm0 40c-49.455 0.0096-89.618 39.921-89.961 89.375v0.274l-0.04 0.352v0.12c-0.16 54.675 26.156 106.08 70.586 138.01 1.898 1.4 4.209 2.0658 6.5624 1.914 0.334-0.02 0.686-0.06 1.016-0.12 8.842-1.472 11.413-12.917 4.0626-18.047-39.206-28.169-62.363-73.487-62.227-121.72v-0.16c0-38.66 31.34-70 70-70s70 31.34 70 70c0 5.5228 4.4772 10 10 10s10-4.4772 10-10c1e-3 -0.314-0.011-0.626-0.04-0.938-0.514-49.324-40.635-89.044-89.961-89.063zm-0.12 79.609c-5.5228 0.06-9.9474 4.5944-9.8828 10.117 0 0.04 2e-4 0.12 0 0.16v0.12c1e-3 0.352-1e-3 0.704 0.04 1.054 0.57 48.776 40.206 88.513 89.141 88.945 13.478 0.268 13.676-20.025 0.2-20-38.545-0.34-69.379-31.479-69.375-70v-0.2c0.1-5.6374-4.4794-10.262-10.117-10.195z" fill="#fff"/>
   </g>
  </g>
 </g>
</svg>
