<svg xmlns="http://www.w3.org/2000/svg" width="512" height="512" enable-background="new" version="1.0"><defs><filter id="b" width="1.066" height="1.079" x="-.033" y="-.039" color-interpolation-filters="sRGB"><feGaussianBlur stdDeviation="5.795"/></filter><filter id="a" width="1.073" height="1.071" x="-.037" y="-.035" color-interpolation-filters="sRGB"><feGaussianBlur stdDeviation="6.83"/></filter></defs><path d="M463.81 184.2c-9.745-23.449-29.513-48.764-44.995-56.77a233 233 0 0 1 22.714 68.081l.04.377c-25.358-63.224-68.362-88.714-103.48-144.22-1.776-2.807-3.553-5.619-5.283-8.588a71 71 0 0 1-2.47-4.63 40.8 40.8 0 0 1-3.346-8.883.58.58 0 0 0-.509-.579.8.8 0 0 0-.422 0c-.03 0-.076.055-.11.055-.034.011-.11.054-.16.082l.088-.164c-56.337 32.985-75.453 94.05-77.212 124.6a112.2 112.2 0 0 0-61.725 23.79 67 67 0 0 0-5.787-4.386 104 104 0 0 1-.631-54.823 166.1 166.1 0 0 0-53.989 41.725h-.104c-8.892-11.24-8.267-48.394-7.757-56.152a40 40 0 0 0-7.489 3.976 163.3 163.3 0 0 0-21.921 18.779 196 196 0 0 0-20.966 25.156v.027-.027a189.4 189.4 0 0 0-30.092 67.955l-.301 1.48c-.423 1.974-1.944 11.859-2.205 14.005 0 .164-.035.325-.052.492a214 214 0 0 0-3.64 30.92v1.156a224.3 224.3 0 0 0 445.31 37.927c.376-2.894.683-5.758 1.018-8.68a230.66 230.66 0 0 0-14.548-112.67zM205.3 359.77c1.047.503 2.031 1.047 3.108 1.528l.156.11q-1.632-.783-3.264-1.627zm236.29-163.833v-.219l.04.246z" filter="url(#a)" opacity=".15"/><g stroke-width="5.787"><path fill="#095cd3" d="M463.81 179.98c-9.745-23.449-29.513-48.764-44.995-56.77a233 233 0 0 1 22.714 68.081l.04.377c-25.358-63.224-68.362-88.714-103.48-144.22-1.776-2.807-3.553-5.619-5.283-8.588a71 71 0 0 1-2.47-4.63 40.8 40.8 0 0 1-3.346-8.883.58.58 0 0 0-.509-.579.8.8 0 0 0-.422 0c-.03 0-.076.055-.11.055-.034.011-.11.054-.16.082l.088-.164c-56.337 32.985-75.453 94.05-77.212 124.6a112.2 112.2 0 0 0-61.725 23.79 67 67 0 0 0-5.787-4.386 104 104 0 0 1-.631-54.823 166.1 166.1 0 0 0-53.989 41.725h-.104c-8.892-11.24-8.267-48.394-7.757-56.152a40 40 0 0 0-7.489 3.976 163.3 163.3 0 0 0-21.921 18.779 196 196 0 0 0-20.966 25.156v.027-.027a189.4 189.4 0 0 0-30.092 67.955l-.301 1.48c-.423 1.974-1.944 11.859-2.205 14.005 0 .164-.035.325-.052.492a214 214 0 0 0-3.64 30.92v1.156a224.3 224.3 0 0 0 445.31 37.927c.376-2.894.683-5.758 1.018-8.68a230.66 230.66 0 0 0-14.548-112.67zM205.3 355.55c1.047.503 2.031 1.047 3.108 1.528l.156.11q-1.632-.783-3.264-1.627zm236.29-163.833v-.219l.04.246z"/><path fill="#0091eb" d="M354.84 206.22c.486.342.937.683 1.395 1.025a122.1 122.1 0 0 0-20.834-27.17c-69.71-69.721-18.27-151.18-9.594-155.32l.087-.137c-56.337 32.985-75.453 94.051-77.209 124.6 2.616-.191 5.209-.399 7.883-.399a113.2 113.2 0 0 1 98.275 57.391z"/><path fill="#354bb0" d="M256.69 220.15c-.37 5.579-20.081 24.821-26.974 24.821-63.779 0-74.133 38.583-74.133 38.583 2.824 32.49 25.463 59.247 52.828 73.402a79 79 0 0 0 3.785 1.806q3.293 1.46 6.586 2.698a99.7 99.7 0 0 0 29.185 5.63c111.79 5.244 133.44-133.68 52.772-173.99a77.43 77.43 0 0 1 54.08 13.132 113.2 113.2 0 0 0-98.275-57.391c-2.662 0-5.266.218-7.882.399a112.2 112.2 0 0 0-61.725 23.79c3.42 2.894 7.28 6.76 15.41 14.775 15.22 14.994 54.253 30.526 54.34 32.349z"/><path fill="#0086da" d="M176.49 165.5a142 142 0 0 1 4.63 3.073 104 104 0 0 1-.631-54.823 166.1 166.1 0 0 0-53.99 41.725c1.095-.027 33.629-.612 49.988 10.023z"/><path fill="#02bfee" d="M335.4 180.25a122.1 122.1 0 0 1 20.833 27.199c1.232.932 2.384 1.858 3.362 2.755 50.85 46.874 24.207 113.14 22.222 117.86 41.308-34.033 67.708-84.365 59.774-136.32-25.37-63.252-68.376-88.743-103.5-144.26-1.777-2.807-3.553-5.62-5.283-8.588a71 71 0 0 1-2.471-4.63 40.8 40.8 0 0 1-3.345-8.883.58.58 0 0 0-.51-.58.8.8 0 0 0-.422 0c-.03 0-.075.055-.11.055-.034.012-.11.055-.16.082-8.674 4.115-60.116 85.566 9.607 155.29z"/><path d="M118.76 105.49a40 40 0 0 0-7.488 3.977 163.3 163.3 0 0 0-21.922 18.779 196 196 0 0 0-21.053 25.098 189.4 189.4 0 0 0-30.092 67.955c-.11.456-8.08 35.296-4.15 53.36l.001-.001c17.31 102.28 110.01 180.37 215.24 183.35 97.394 2.754 159.62-53.785 185.32-108.94a203.13 203.13 0 0 0 7.065-151.11c7.794 51.833-18.6 102.02-59.818 135.98l-.13.289c-6.287 5.12-12.554 9.683-18.772 13.738a220 220 0 0 0 18.668-13.672l.127-.29c2.008-4.687 28.654-70.965-22.221-117.82l-.002-.007c-.978-.897-2.129-1.824-3.361-2.756-.458-.342-.91-.682-1.395-1.024a77.43 77.43 0 0 0-54.08-13.13c80.674 40.335 59.028 179.23-52.771 173.99a99.7 99.7 0 0 1-29.186-5.63 118 118 0 0 1-6.584-2.697c-.97-.443-1.94-.896-2.902-1.37-.202-.13-.437-.268-.621-.393-.388-.186-.776-.39-1.165-.58-26.962-14.273-49.097-40.782-51.887-72.896l-.006.002s10.353-38.584 74.133-38.584c6.892 0 26.617-19.237 26.975-24.818l.067-.022c-.087-1.823-39.122-17.362-54.34-32.35-8.13-8.015-11.992-11.874-15.412-14.773a67 67 0 0 0-5.787-4.387c-1.331-.907-2.83-1.89-4.63-3.072-16.36-10.637-48.891-10.053-49.97-10.023h-.106c-8.888-11.26-8.262-48.414-7.754-56.172zm322.93 92.469c-.017-.11-.028-.221-.045-.332l-.04-.377c-.035-.055 0 .055 0 .219v.219zm-311.61 15.953a85 85 0 0 1 .984 0 85 85 0 0 0-5.14.414 85 85 0 0 1 4.156-.414m3.906 0a85 85 0 0 1 5.621.11 85 85 0 0 0-5.62-.11m8.088.36a85 85 0 0 1 6.01.72 85 85 0 0 0-6.01-.72m-19.508.39a85 85 0 0 0-4.674.854 85 85 0 0 1 4.674-.854m27.537.74a85 85 0 0 1 6.316 1.408 85 85 0 0 0-6.316-1.408m-35.92.865a85 85 0 0 0-4.14 1.194 85 85 0 0 1 4.14-1.194m43.83 1.038a85 85 0 0 1 6.49 2.144 85 85 0 0 0-6.49-2.144m-52.008 1.402a85 85 0 0 0-3.57 1.428 85 85 0 0 1 3.57-1.428m59.78 1.285a85 85 0 0 1 6.76 2.965 112 112 0 0 0 9.505 3.754 112 112 0 0 1-9.57-3.735 85 85 0 0 0-6.696-2.984zm-67.69 1.977a85 85 0 0 0-2.943 1.535 85 85 0 0 1 2.943-1.535m87.38 5.81a112 112 0 0 0 7.22 2.045 112 112 0 0 1-7.22-2.045m-94.112 1.067.098.187zm156.13.261a112 112 0 0 1-5.705 1.301 112 112 0 0 0 5.705-1.3m-51.029 1.49a112 112 0 0 0 7.12 1.27 112 112 0 0 1-7.12-1.27m40.21.834a112 112 0 0 1-6.165.768 112 112 0 0 0 6.164-.768m-28.927.864a112 112 0 0 0 6.854.521 112 112 0 0 1-6.854-.521m17.936.377a112 112 0 0 1-6.543.156 112 112 0 0 0 6.543-.156m-131.37 1.158.121.182zm3.381 4.6.193.238zm3.809 4.234.3.3zm4.197 3.826.443.363zm4.531 3.379a58 58 0 0 0 .64.426 58 58 0 0 1-.64-.426m4.856 2.926a58 58 0 0 0 .826.437 58 58 0 0 1-.826-.437m5.097 2.424a58 58 0 0 0 1.057.431 58 58 0 0 1-1.057-.431m5.303 1.912a58 58 0 0 0 1.32.39 58 58 0 0 1-1.32-.39m5.453 1.38a58 58 0 0 0 1.578.301 58 58 0 0 1-1.578-.3m5.563.844a58 58 0 0 0 1.857.162 58 58 0 0 1-1.857-.162" filter="url(#b)" opacity=".15"/><path fill="#5fdffd" d="M359.54 210.04c-.978-.896-2.13-1.823-3.362-2.755-.457-.341-.909-.683-1.395-1.025a77.43 77.43 0 0 0-54.08-13.13c80.674 40.335 59.028 179.23-52.772 173.99a99.7 99.7 0 0 1-29.185-5.63q-3.293-1.233-6.585-2.698c-1.268-.58-2.535-1.156-3.785-1.807l.156.11c15.59 10.642 92.593 36.642 173.1-28.936l.129-.289c2.008-4.687 28.652-70.966-22.222-117.82z"/><path fill="#0091eb" d="M34.06 268.52C51.369 370.8 144.07 448.89 249.3 451.87c97.394 2.755 159.62-53.785 185.32-108.94a203.13 203.13 0 0 0 6.98-151.38v-.219c0-.164-.035-.273 0-.218l.04.377c7.957 51.95-18.467 102.28-59.774 136.32l-.128.289c-80.486 65.55-157.51 39.548-173.1 28.936q-1.632-.781-3.264-1.625c-46.927-22.431-66.315-65.187-62.16-101.85a57.6 57.6 0 0 1-53.13-33.421 84.6 84.6 0 0 1 82.458-3.31 111.7 111.7 0 0 0 84.211 3.31c-.087-1.823-39.122-17.361-54.34-32.35-8.13-8.014-11.99-11.874-15.41-14.773a67 67 0 0 0-5.788-4.387c-1.331-.907-2.83-1.891-4.63-3.073-16.36-10.637-48.893-10.052-49.972-10.023h-.104c-8.888-11.26-8.263-48.413-7.754-56.171a40 40 0 0 0-7.489 3.976 163.3 163.3 0 0 0-21.92 18.779 196 196 0 0 0-21.054 25.098v.027-.027A189.4 189.4 0 0 0 38.2 215.17c-.11.456-8.078 35.296-4.149 53.362z"/><path fill="#5fdffd" d="M155.59 283.56s10.353-38.583 74.133-38.583c6.892 0 26.621-19.242 26.974-24.821a111.7 111.7 0 0 1-84.211-3.31 84.6 84.6 0 0 0-82.458 3.31 57.6 57.6 0 0 0 53.129 33.421c-4.155 36.673 15.232 79.426 62.161 101.85 1.047.503 2.031 1.047 3.108 1.528-27.39-14.15-50.006-40.91-52.828-73.4z"/></g><path fill="#fff" d="M118.76 99.357a40 40 0 0 0-7.488 3.977 163.3 163.3 0 0 0-21.922 18.779 196 196 0 0 0-21.053 25.098 189.4 189.4 0 0 0-30.092 67.955c-.093.385-5.777 25.236-5.196 43.846.357-17.37 5.11-37.715 5.196-38.06a189.43 184.8 0 0 1 30.092-66.294 195.86 191.08 0 0 1 21.053-24.486 163.34 159.35 0 0 1 21.922-18.32 40.091 39.111 0 0 1 7.258-3.774c.024-3.843.12-7.05.23-8.72zm-.203 14.75c-.233 13.029.552 39.513 7.957 48.664h.105c1.079-.028 33.611-.597 49.971 9.78 1.8 1.152 3.298 2.112 4.63 2.997a67.055 65.417 0 0 1 5.786 4.28c3.42 2.828 7.282 6.593 15.412 14.412 11.418 10.97 36.244 22.243 47.967 27.939a112 112 0 0 0 6.373-2.045c-.087-1.823-39.122-17.362-54.34-32.35-8.13-8.015-11.992-11.874-15.412-14.773a67 67 0 0 0-5.787-4.387c-1.33-.907-2.829-1.89-4.629-3.072-16.36-10.637-48.892-10.053-49.97-10.023h-.106c-6.035-7.645-7.68-27.21-7.957-41.422zm323.05 77.01c-.035-.055 0 .055 0 .219v.219l.086.271c-.017-.11-.028-.221-.045-.332zm.086.709q.728 4.846 1.064 9.668a203.13 198.16 0 0 1 10.061 63.834 203.1 203.1 0 0 0-11.125-73.502zm1.314 21.057c-1.005 44.149-25.53 85.59-61.133 114.93l-.129.29c-80.486 65.55-157.51 39.547-173.1 28.935a116 116 0 0 1-3.263-1.625c-41.932-20.043-61.86-56.312-62.666-89.967-1.01 34.068 18.787 71.865 62.666 92.326q1.632.825 3.263 1.586c15.591 10.353 92.616 35.72 173.1-28.229l.13-.281c37.208-29.91 62.326-72.718 61.132-117.96zm-350.56 11.664a84.594 82.527 0 0 0-2.351 1.252 57.598 56.191 0 0 0 52.736 32.592c.09-1.62.21-3.234.392-4.834a57.6 57.6 0 0 1-50.777-29.01" opacity=".1"/></svg>