<svg width="512" height="512" enable-background="new" version="1.0" xmlns="http://www.w3.org/2000/svg">
 <defs>
  <filter id="b" x="-.033112" y="-.03944" width="1.0662" height="1.0789" color-interpolation-filters="sRGB">
   <feGaussianBlur stdDeviation="5.7946475"/>
  </filter>
  <filter id="a" x="-.036588" y="-.03543" width="1.0732" height="1.0709" color-interpolation-filters="sRGB">
   <feGaussianBlur stdDeviation="6.8298323"/>
  </filter>
 </defs>
 <path d="m463.81 184.2c-9.7454-23.449-29.513-48.764-44.995-56.77a233.02 233.02 0 0 1 22.714 68.081l0.0408 0.37714c-25.359-63.224-68.363-88.714-103.48-144.22-1.7767-2.8067-3.5535-5.619-5.2835-8.588-0.98965-1.6944-1.7824-3.2236-2.471-4.6297a40.815 40.815 0 0 1-3.3449-8.883 0.57871 0.57871 0 0 0-0.50925-0.57937 0.79862 0.79862 0 0 0-0.42239 0c-0.0301 0-0.0753 0.05466-0.10975 0.05466-0.0345 0.01148-0.10975 0.05466-0.15992 0.082l0.0878-0.16397c-56.337 32.985-75.453 94.051-77.212 124.6a112.19 112.19 0 0 0-61.725 23.791 67.055 67.055 0 0 0-5.7871-4.3866 103.98 103.98 0 0 1-0.6308-54.823 166.12 166.12 0 0 0-53.989 41.725h-0.10411c-8.8915-11.241-8.2665-48.394-7.7573-56.152a40.091 40.091 0 0 0-7.4886 3.9755 163.34 163.34 0 0 0-21.921 18.779 195.86 195.86 0 0 0-20.966 25.156v0.0273-0.0273a189.43 189.43 0 0 0-30.092 67.955l-0.30103 1.4812c-0.42245 1.9732-1.9444 11.858-2.2049 14.004 0 0.16401-0.03481 0.32522-0.05205 0.49195a213.76 213.76 0 0 0-3.64 30.92v1.156a224.3 224.3 0 0 0 445.31 37.927c0.37598-2.8936 0.68297-5.7582 1.0185-8.6805a230.66 230.66 0 0 0-14.548-112.67zm-258.51 175.57c1.0474 0.50298 2.0313 1.0467 3.1076 1.5278l0.15647 0.10975q-1.6321-0.78206-3.264-1.6265zm51.38-135.28m184.91-28.553v-0.21856l0.0408 0.24584z" filter="url(#a)" opacity=".15" stroke-width="5.7871"/>
 <circle cx="9288.8" cy="173.42" r="0" enable-background="new" fill="#d5d3cf" stroke-width="27.329"/>
 <g stroke-width="5.7871">
  <path d="m463.81 179.98c-9.7454-23.449-29.513-48.764-44.995-56.77a233.02 233.02 0 0 1 22.714 68.081l0.0408 0.37714c-25.359-63.224-68.363-88.714-103.48-144.22-1.7767-2.8067-3.5535-5.619-5.2835-8.588-0.98965-1.6944-1.7824-3.2236-2.471-4.6297a40.815 40.815 0 0 1-3.3449-8.883 0.57871 0.57871 0 0 0-0.50925-0.57937 0.79862 0.79862 0 0 0-0.42239 0c-0.0301 0-0.0753 0.05466-0.10975 0.05466-0.0345 0.01148-0.10975 0.05466-0.15992 0.082l0.0878-0.16397c-56.337 32.985-75.453 94.051-77.212 124.6a112.19 112.19 0 0 0-61.725 23.791 67.055 67.055 0 0 0-5.7871-4.3866 103.98 103.98 0 0 1-0.6308-54.823 166.12 166.12 0 0 0-53.989 41.725h-0.10411c-8.8915-11.241-8.2665-48.394-7.7573-56.152a40.091 40.091 0 0 0-7.4886 3.9755 163.34 163.34 0 0 0-21.921 18.779 195.86 195.86 0 0 0-20.966 25.156v0.0273-0.0273a189.43 189.43 0 0 0-30.092 67.955l-0.30103 1.4812c-0.42245 1.9732-1.9444 11.858-2.2049 14.004 0 0.16401-0.03481 0.32522-0.05205 0.49195a213.76 213.76 0 0 0-3.64 30.92v1.156a224.3 224.3 0 0 0 445.31 37.927c0.37598-2.8936 0.68297-5.7582 1.0185-8.6805a230.66 230.66 0 0 0-14.548-112.67zm-258.51 175.57c1.0474 0.50298 2.0313 1.0467 3.1076 1.5278l0.15647 0.10975q-1.6321-0.78206-3.264-1.6265zm51.38-135.28m184.91-28.553v-0.21856l0.0408 0.24584z" fill="#ff3944"/>
  <path d="m354.84 206.22c0.48605 0.34161 0.93728 0.68323 1.3945 1.0248a122.11 122.11 0 0 0-20.833-27.17c-69.711-69.721-18.27-151.18-9.5948-155.32l0.0878-0.13666c-56.337 32.985-75.453 94.051-77.209 124.6 2.6157-0.19129 5.2085-0.399 7.8821-0.399a113.2 113.2 0 0 1 98.275 57.391z" fill="#ffcd34"/>
  <path d="m256.69 220.15c-0.37036 5.5786-20.081 24.821-26.974 24.821-63.779 0-74.133 38.583-74.133 38.583 2.8242 32.49 25.463 59.247 52.828 73.402 1.25 0.64754 2.5174 1.2327 3.7849 1.8065q3.2929 1.4594 6.5858 2.6974a99.74 99.74 0 0 0 29.185 5.6309c111.79 5.243 133.44-133.68 52.772-173.99a77.432 77.432 0 0 1 54.08 13.131 113.2 113.2 0 0 0-98.275-57.391c-2.662 0-5.2662 0.21856-7.8821 0.39899a112.19 112.19 0 0 0-61.725 23.791c3.4202 2.8933 7.2803 6.7592 15.411 14.774 15.22 14.994 54.252 30.526 54.34 32.349z" fill="#9a46eb"/>
  <path d="m176.49 165.5c1.8172 1.156 3.3161 2.1645 4.6297 3.0729a103.98 103.98 0 0 1-0.63079-54.823 166.12 166.12 0 0 0-53.989 41.725c1.0938-0.0273 33.628-0.61216 49.987 10.023z" fill="#ff9633"/>
  <path d="m335.4 180.25a122.11 122.11 0 0 1 20.833 27.199c1.2324 0.93192 2.3841 1.8584 3.3622 2.7545 50.85 46.874 24.207 113.14 22.222 117.86 41.308-34.033 67.708-84.365 59.774-136.32-25.37-63.252-68.376-88.743-103.5-144.26-1.7767-2.8067-3.5535-5.619-5.2835-8.588-0.98965-1.6944-1.7824-3.2236-2.471-4.6297a40.815 40.815 0 0 1-3.3449-8.883 0.57871 0.57871 0 0 0-0.50925-0.57937 0.79862 0.79862 0 0 0-0.42239 0c-0.0301 0-0.0753 0.05466-0.10975 0.05466-0.0345 0.01148-0.10976 0.05466-0.15993 0.082-8.6748 4.1145-60.116 85.566 9.6065 155.29z" fill="#ff8619"/>
  <path d="m118.76 105.49a40.091 40.091 0 0 0-7.4883 3.9766 163.34 163.34 0 0 0-21.922 18.779 195.86 195.86 0 0 0-21.053 25.098 189.43 189.43 0 0 0-30.092 67.955c-0.11007 0.45638-8.0798 35.296-4.1504 53.361l2e-3 -2e-3c17.309 102.28 110.01 180.37 215.24 183.35 97.394 2.7545 159.62-53.785 185.32-108.94a203.13 203.13 0 0 0 7.0645-151.11c7.7938 51.833-18.599 102.02-59.818 135.98l-0.12891 0.28907c-6.288 5.1211-12.555 9.6838-18.773 13.738 6.1836-4.0386 12.415-8.5785 18.668-13.672l0.12695-0.28906c2.0082-4.6874 28.654-70.966-22.221-117.82l-2e-3 -8e-3c-0.97805-0.89639-2.1287-1.8239-3.3613-2.7559-0.4572-0.34161-0.90879-0.68183-1.3945-1.0234a77.432 77.432 0 0 0-54.08-13.131c80.674 40.336 59.028 179.23-52.771 173.99a99.74 99.74 0 0 1-29.186-5.6287c-2.1952-0.8217-4.3887-1.7207-6.584-2.6973-0.97054-0.44378-1.9395-0.89628-2.9024-1.3711-0.20154-0.12967-0.43665-0.26703-0.62109-0.39258-0.38803-0.18563-0.77602-0.38902-1.1641-0.58008-26.962-14.273-49.097-40.782-51.887-72.896l-6e-3 2e-3s10.353-38.584 74.133-38.584c6.8917 0 26.617-19.237 26.975-24.818a111.69 111.69 0 0 0 0.0664-0.0215c-0.0869-1.8229-39.122-17.362-54.34-32.35-8.1308-8.015-11.992-11.874-15.412-14.773a67.055 67.055 0 0 0-5.7871-4.3867c-1.331-0.90734-2.8292-1.8906-4.6289-3.0723-16.36-10.637-48.892-10.053-49.971-10.023h-0.10547c-8.8884-11.26-8.2628-48.414-7.7539-56.172zm322.93 92.469c-0.0167-0.11081-0.028-0.2212-0.0449-0.33203l-0.041-0.37695c-0.0345-0.0549 0 0.0547 0 0.21875v0.21875a203.13 203.13 0 0 1 0.0859 0.27148zm-311.61 15.953a84.594 84.594 0 0 1 0.98438 0 84.594 84.594 0 0 0-5.1406 0.41406 84.594 84.594 0 0 1 4.1562-0.41406zm3.9062 0a84.594 84.594 0 0 1 5.6211 0.10937 84.594 84.594 0 0 0-5.6211-0.10937zm8.0879 0.35937a84.594 84.594 0 0 1 6.0098 0.72071 84.594 84.594 0 0 0-6.0098-0.72071zm-19.508 0.39063a84.594 84.594 0 0 0-4.6738 0.85351 84.594 84.594 0 0 1 4.6738-0.85351zm27.537 0.74023a84.594 84.594 0 0 1 6.3164 1.4082 84.594 84.594 0 0 0-6.3164-1.4082zm-35.92 0.86524a84.594 84.594 0 0 0-4.1406 1.1934 84.594 84.594 0 0 1 4.1406-1.1934zm43.83 1.0371a84.594 84.594 0 0 1 6.4902 2.1445 84.594 84.594 0 0 0-6.4902-2.1445zm-52.008 1.4023a84.594 84.594 0 0 0-3.5703 1.4277 84.594 84.594 0 0 1 3.5703-1.4277zm59.779 1.2852a84.594 84.594 0 0 1 6.7617 2.9648 111.69 111.69 0 0 0 9.5039 3.7539 111.69 111.69 0 0 1-9.5703-3.7344 84.594 84.594 0 0 0-6.6953-2.9844zm-67.689 1.9766a84.594 84.594 0 0 0-2.9434 1.5352 84.594 84.594 0 0 1 2.9434-1.5352zm87.379 5.8105a111.69 111.69 0 0 0 7.2207 2.0449 111.69 111.69 0 0 1-7.2207-2.0449zm-94.111 1.0664a57.598 57.598 0 0 0 0.09766 0.1875 57.598 57.598 0 0 1-0.09766-0.1875zm156.13 0.26172a111.69 111.69 0 0 1-5.7051 1.3008 111.69 111.69 0 0 0 5.7051-1.3008zm-51.029 1.4902a111.69 111.69 0 0 0 7.1191 1.2695 111.69 111.69 0 0 1-7.1191-1.2695zm40.209 0.83399a111.69 111.69 0 0 1-6.1641 0.76758 111.69 111.69 0 0 0 6.1641-0.76758zm-28.926 0.86328a111.69 111.69 0 0 0 6.8535 0.52148 111.69 111.69 0 0 1-6.8535-0.52148zm17.936 0.37695a111.69 111.69 0 0 1-6.543 0.15625 111.69 111.69 0 0 0 6.543-0.15625zm-131.37 1.1582a57.598 57.598 0 0 0 0.12109 0.18164 57.598 57.598 0 0 1-0.12109-0.18164zm3.3809 4.5996a57.598 57.598 0 0 0 0.19336 0.23828 57.598 57.598 0 0 1-0.19336-0.23828zm3.8086 4.2344a57.598 57.598 0 0 0 0.30078 0.30078 57.598 57.598 0 0 1-0.30078-0.30078zm4.1973 3.8262a57.598 57.598 0 0 0 0.44336 0.36328 57.598 57.598 0 0 1-0.44336-0.36328zm4.5312 3.3789a57.598 57.598 0 0 0 0.64063 0.42578 57.598 57.598 0 0 1-0.64063-0.42578zm4.8555 2.9258a57.598 57.598 0 0 0 0.82617 0.4375 57.598 57.598 0 0 1-0.82617-0.4375zm5.0977 2.4238a57.598 57.598 0 0 0 1.0566 0.43164 57.598 57.598 0 0 1-1.0566-0.43164zm5.3027 1.9121a57.598 57.598 0 0 0 1.3203 0.39062 57.598 57.598 0 0 1-1.3203-0.39062zm5.4531 1.3809a57.598 57.598 0 0 0 1.5781 0.30078 57.598 57.598 0 0 1-1.5781-0.30078zm5.5625 0.84375a57.598 57.598 0 0 0 1.8574 0.16211 57.598 57.598 0 0 1-1.8574-0.16211z" filter="url(#b)" opacity=".15"/>
  <path d="m359.54 210.04c-0.97805-0.89639-2.1295-1.8229-3.3622-2.7548-0.4572-0.34161-0.90875-0.68322-1.3945-1.0248a77.432 77.432 0 0 0-54.08-13.131c80.674 40.336 59.028 179.23-52.772 173.99a99.74 99.74 0 0 1-29.185-5.6303q-3.2929-1.2326-6.5858-2.6974c-1.2674-0.5795-2.5347-1.1562-3.7849-1.8065l0.15648 0.10976c15.59 10.642 92.593 36.642 173.1-28.936l0.12857-0.28849c2.0082-4.6874 28.652-70.966-22.222-117.82z" fill="#ffa316"/>
  <path d="m34.06 268.52c17.309 102.28 110.01 180.37 215.24 183.35 97.394 2.7545 159.62-53.785 185.32-108.94a203.13 203.13 0 0 0 6.9793-151.38v-0.21857c0-0.164-0.0345-0.27344 0-0.21856l0.0408 0.37714c7.957 51.95-18.467 102.28-59.774 136.32l-0.12857 0.28849c-80.486 65.55-157.51 39.548-173.1 28.936q-1.6316-0.78056-3.2634-1.625c-46.927-22.431-66.315-65.187-62.161-101.85a57.598 57.598 0 0 1-53.129-33.421 84.594 84.594 0 0 1 82.458-3.3104 111.69 111.69 0 0 0 84.211 3.3104c-0.0869-1.8229-39.122-17.361-54.34-32.349-8.1308-8.015-11.991-11.875-15.411-14.774a67.055 67.055 0 0 0-5.7871-4.3866c-1.331-0.90734-2.8299-1.8912-4.6297-3.0729-16.36-10.637-48.893-10.052-49.972-10.023h-0.10411c-8.8884-11.26-8.2631-48.413-7.7542-56.171a40.091 40.091 0 0 0-7.4886 3.9755 163.34 163.34 0 0 0-21.921 18.779 195.86 195.86 0 0 0-21.053 25.098v0.0273-0.0273a189.43 189.43 0 0 0-30.092 67.955c-0.11007 0.45638-8.0787 35.296-4.1493 53.362z" fill="#ff6333"/>
  <path d="m155.59 283.56s10.353-38.583 74.133-38.583c6.8924 0 26.621-19.242 26.974-24.821a111.69 111.69 0 0 1-84.211-3.3101 84.594 84.594 0 0 0-82.458 3.3101 57.598 57.598 0 0 0 53.129 33.421c-4.1552 36.673 15.232 79.426 62.161 101.85 1.0474 0.50298 2.0313 1.0467 3.1076 1.5278-27.389-14.149-50.006-40.909-52.828-73.399z" fill="#ffbb27"/>
 </g>
 <circle cx="-508.1" cy="415.01" r="0" enable-background="new" fill="#d5d3cf" stroke-width="27.329"/>
 <path d="m118.76 99.357a40.091 40.091 0 0 0-7.4883 3.9766 163.34 163.34 0 0 0-21.922 18.779 195.86 195.86 0 0 0-21.053 25.098 189.43 189.43 0 0 0-30.092 67.955c-0.092842 0.38496-5.7769 25.236-5.1953 43.846 0.35704-17.37 5.1103-37.715 5.1953-38.059a189.43 184.8 0 0 1 30.092-66.295 195.86 191.08 0 0 1 21.053-24.486 163.34 159.35 0 0 1 21.922-18.32 40.091 39.111 0 0 1 7.2578-3.7734c0.02426-3.8433 0.1209-7.0505 0.23047-8.7207zm-0.20313 14.75c-0.23281 13.029 0.55231 39.513 7.957 48.664h0.10547c1.0787-0.02845 33.611-0.59738 49.971 9.7793 1.7998 1.1528 3.2978 2.1129 4.6289 2.998a67.055 65.417 0 0 1 5.7871 4.2793c3.4202 2.8285 7.2814 6.5929 15.412 14.412 11.418 10.971 36.244 22.243 47.967 27.939a111.69 111.69 0 0 0 6.373-2.0449c-0.0869-1.8229-39.122-17.362-54.34-32.35-8.1308-8.015-11.992-11.874-15.412-14.773a67.055 67.055 0 0 0-5.7871-4.3867c-1.331-0.90734-2.8292-1.8906-4.6289-3.0723-16.36-10.637-48.892-10.053-49.971-10.023h-0.10547c-6.0346-7.6445-7.6793-27.209-7.957-41.422zm323.05 77.01c-0.0345-0.05488 0 0.05475 0 0.21875v0.21875a203.13 203.13 0 0 1 0.08594 0.27148c-0.01667-0.11081-0.02795-0.2212-0.04493-0.33203l-0.04101-0.37695zm0.08594 0.70898c0.48568 3.23 0.83965 6.4542 1.0644 9.668a203.13 198.16 0 0 1 10.061 63.834 203.13 203.13 0 0 0-11.125-73.502zm1.3144 21.057c-1.0056 44.149-25.53 85.59-61.133 114.93l-0.12891 0.28907c-80.486 65.55-157.51 39.548-173.1 28.936-1.0877-0.52037-2.1758-1.062-3.2637-1.625-41.932-20.043-61.86-56.312-62.666-89.967-1.01 34.068 18.787 71.865 62.666 92.326 1.0879 0.54922 2.176 1.0783 3.2637 1.5859 15.591 10.353 92.616 35.72 173.1-28.229l0.12891-0.28125c37.209-29.909 62.327-72.718 61.133-117.96zm-350.56 11.664a84.594 82.527 0 0 0-2.3516 1.252 57.598 56.191 0 0 0 52.736 32.592c0.09132-1.6207 0.21131-3.2343 0.39258-4.834a57.598 57.598 0 0 1-50.777-29.01z" fill="#fff" opacity=".1" stroke-width="5.7871"/>
</svg>
