<svg width="512" height="512" enable-background="new" version="1.0" xmlns="http://www.w3.org/2000/svg" xmlns:osb="http://www.openswatchbook.org/uri/2009/osb" xmlns:xlink="http://www.w3.org/1999/xlink">
 <defs>
  <clipPath id="e">
   <rect transform="matrix(0,-1,-1,0,0,0)" x="-447.98" y="-483.93" width="447.69" height="447.69" rx="223.84" ry="223.84" enable-background="new" fill="#2196f3"/>
  </clipPath>
  <filter id="a" x="-.023586" y="-.024429" width="1.0472" height="1.0489" color-interpolation-filters="sRGB">
   <feGaussianBlur stdDeviation="4.5601121"/>
  </filter>
  <clipPath id="d">
   <rect transform="matrix(0,-1,-1,0,0,0)" x="-496" y="-688" width="448" height="448" rx="224" ry="224" enable-background="new" fill="#2196f3"/>
  </clipPath>
  <filter id="c" x="-.056895" y="-.063464" width="1.1138" height="1.1269" color-interpolation-filters="sRGB">
   <feGaussianBlur stdDeviation="11.00038"/>
  </filter>
  <filter id="b" x="-.065996" y="-.055002" width="1.132" height="1.11" color-interpolation-filters="sRGB">
   <feGaussianBlur stdDeviation="4.4000924"/>
  </filter>
 </defs>
 <g transform="translate(0,212)">
  <g>
   <g transform="translate(-208,16)">
    <g>
     <path d="m464-192c-65.441 0-124.15 27.79-165.03 72.252a80 80 0 0 0-13.641 2.0508l-45.33-42.303 0.0195 72.109a80 80 0 0 0-16.02 47.891h10.832a80 80 0 0 0-10.832 40h16v32.027c1e-5 0.05355 2e-3 0.10662 2e-3 0.16016 1e-3 1.6289 0.0237 3.254 0.0606 4.877 0.016 0.72994 0.0415 1.4574 0.0644 2.1856 0.0289 0.89085 0.0621 1.781 0.10157 2.6699 0.0431 0.99841 0.0905 1.9953 0.14648 2.9902 0.0142 0.24571 0.0318 0.49077 0.0469 0.73632 6.4852 108.88 90.049 196.33 197.16 208.81 0.3405 0.0402 0.68093 0.0786 1.0215 0.11719 1.1266 0.12605 2.2531 0.24996 3.3848 0.35937 1.5092 0.14793 3.0178 0.28339 4.5273 0.40039 0.3358 0.0257 0.67355 0.0441 1.0098 0.0684 1.4603 0.10652 2.9208 0.19767 4.3809 0.27539 0.39613 0.0209 0.79277 0.0398 1.1894 0.0586 1.4862 0.0712 2.9716 0.12648 4.457 0.16796 0.31724 9e-3 0.63361 0.0217 0.95118 0.0293 1.7656 0.0418 3.5312 0.0664 5.2949 0.0664 0.0673 6e-5 0.1339 2e-3 0.20117 2e-3 0.29258 0 0.58269-0.0106 0.875-0.0117 1.2514-6e-3 2.5019-0.02 3.752-0.0469 0.92425-0.0186 1.8462-0.0446 2.7676-0.0742 0.46045-0.0156 0.92064-0.0343 1.3809-0.0527 111.74-4.2659 201.99-89.606 213.88-199.16 0.0399-0.36084 0.0849-0.72101 0.12305-1.082 0.0632-0.60936 0.11745-1.2212 0.17578-1.832 0.13152-1.3484 0.25023-2.6983 0.35742-4.0488 0.0177-0.22922 0.0376-0.45808 0.0547-0.6875 1.4415-18.894 0.50982-37.974-2.8535-56.758-0.0159-0.08958-0.0348-0.17804-0.0508-0.26758-0.25947-1.439-0.53431-2.8753-0.82227-4.3106-0.17614-0.88411-0.36237-1.7643-0.54882-2.6445-0.11359-0.53275-0.22818-1.0655-0.34571-1.5977-22.075-100.59-111.34-175.43-218.75-175.43z" enable-background="new" filter="url(#a)" opacity=".1"/>
     <path d="m464-192c-65.441 0-124.15 27.79-165.03 72.252a80 80 0 0 0-13.641 2.0508l-45.33-42.303 0.0195 72.109a80 80 0 0 0-16.02 47.891h10.832a80 80 0 0 0-10.832 40h16v32.027c1e-5 0.05355 2e-3 0.10662 2e-3 0.16016 1e-3 1.6289 0.0237 3.254 0.0606 4.877 0.016 0.72994 0.0415 1.4574 0.0644 2.1856 0.0289 0.89085 0.0621 1.781 0.10157 2.6699 0.0431 0.99841 0.0905 1.9953 0.14648 2.9902 0.0142 0.24571 0.0318 0.49077 0.0469 0.73632 6.4852 108.88 90.049 196.33 197.16 208.81 0.3405 0.0402 0.68093 0.0786 1.0215 0.11719 1.1266 0.12605 2.2531 0.24996 3.3848 0.35937 1.5092 0.14793 3.0178 0.28339 4.5273 0.40039 0.3358 0.0257 0.67355 0.0441 1.0098 0.0684 1.4603 0.10652 2.9208 0.19767 4.3809 0.27539 0.39613 0.0209 0.79277 0.0398 1.1894 0.0586 1.4862 0.0712 2.9716 0.12648 4.457 0.16796 0.31724 9e-3 0.63361 0.0217 0.95118 0.0293 1.7656 0.0418 3.5312 0.0664 5.2949 0.0664 0.0673 6e-5 0.1339 2e-3 0.20117 2e-3 0.29258 0 0.58269-0.0106 0.875-0.0117 1.2514-6e-3 2.5019-0.02 3.752-0.0469 0.92425-0.0186 1.8462-0.0446 2.7676-0.0742 0.46045-0.0156 0.92064-0.0343 1.3809-0.0527 111.74-4.2659 201.99-89.606 213.88-199.16 0.0399-0.36084 0.0849-0.72101 0.12305-1.082 0.0632-0.60936 0.11745-1.2212 0.17578-1.832 0.13152-1.3484 0.25023-2.6983 0.35742-4.0488 0.0177-0.22922 0.0376-0.45808 0.0547-0.6875 1.4415-18.894 0.50982-37.974-2.8535-56.758-0.0159-0.08958-0.0348-0.17804-0.0508-0.26758-0.25947-1.439-0.53431-2.8753-0.82227-4.3106-0.17614-0.88411-0.36237-1.7643-0.54882-2.6445-0.11359-0.53275-0.22818-1.0655-0.34571-1.5977-22.075-100.59-111.34-175.43-218.75-175.43z" enable-background="new" filter="url(#a)" opacity=".2"/>
     <path d="m464-194c-65.441 0-124.15 27.79-165.03 72.252a80 80 0 0 0-13.641 2.0508l-45.33-42.303 0.0195 72.109a80 80 0 0 0-16.02 47.891h10.832a80 80 0 0 0-10.832 40h16v32.027c1e-5 0.05355 2e-3 0.10662 2e-3 0.16016 1e-3 1.6289 0.0237 3.254 0.0606 4.877 0.016 0.72994 0.0415 1.4574 0.0644 2.1856 0.0289 0.89085 0.0621 1.781 0.10157 2.6699 0.0431 0.99841 0.0905 1.9953 0.14648 2.9902 0.0142 0.24571 0.0318 0.49077 0.0469 0.73632 6.4852 108.88 90.049 196.33 197.16 208.81 0.3405 0.0402 0.68093 0.0786 1.0215 0.11719 1.1266 0.12605 2.2531 0.24996 3.3848 0.35937 1.5092 0.14793 3.0178 0.28339 4.5273 0.40039 0.3358 0.0257 0.67355 0.0441 1.0098 0.0684 1.4603 0.10652 2.9208 0.19767 4.3809 0.27539 0.39613 0.0209 0.79277 0.0398 1.1894 0.0586 1.4862 0.0712 2.9716 0.12648 4.457 0.16796 0.31724 9e-3 0.63361 0.0217 0.95118 0.0293 1.7656 0.0418 3.5312 0.0664 5.2949 0.0664 0.0673 6e-5 0.1339 2e-3 0.20117 2e-3 0.29258 0 0.58269-0.0106 0.875-0.0117 1.2514-6e-3 2.5019-0.02 3.752-0.0469 0.92425-0.0186 1.8462-0.0446 2.7676-0.0742 0.46045-0.0156 0.92064-0.0343 1.3809-0.0527 111.74-4.2659 201.99-89.606 213.88-199.16 0.0399-0.36084 0.0849-0.72101 0.12305-1.082 0.0632-0.60936 0.11745-1.2212 0.17578-1.832 0.13152-1.3484 0.25023-2.6983 0.35742-4.0488 0.0177-0.22922 0.0376-0.45808 0.0547-0.6875 1.4415-18.894 0.50982-37.974-2.8535-56.758-0.0159-0.08958-0.0348-0.17804-0.0508-0.26758-0.25947-1.439-0.53431-2.8753-0.82227-4.3106-0.17614-0.88411-0.36237-1.7643-0.54882-2.6445-0.11359-0.53275-0.22818-1.0655-0.34571-1.5977-22.075-100.59-111.34-175.43-218.75-175.43z" enable-background="new" opacity=".2"/>
    </g>
    <rect transform="matrix(0,-1,-1,0,0,0)" x="-252" y="-688" width="448" height="448" rx="224" ry="224" enable-background="new" fill="#0288d1"/>
    <g transform="translate(204,-196)" clip-path="url(#e)" enable-background="new">
     <g transform="matrix(1.5676 0 0 1.5676 -1030.2 795.05)" opacity=".6" stroke-width=".63793">
      <path d="m733.72-333.67h25.517l10.207 10.207h20.414l10.207 10.207v20.414l-7.6552 7.6552v7.6552l-15.31 15.31v10.207l-33.172 30.621 0.06896 13.397-7.7241-8.2931v-33.172l7.6552-7.6552 0.06896-22.879-20.483-17.948v-25.517z" color="#000000" enable-background="accumulate" opacity=".2"/>
      <path transform="matrix(.63793 0 0 .63793 657.17 -507.19)" d="m-27.244 30.918-25.08 25.082v25.082 37.621l40.324 37.297v40l44 44h24l40 40v-48l24-24h16l24-24h24l-12-12 24-28-24-24h-36l1e-5 32h-16l-16-16v-16l24-24h20l-1e-5 -16-24-24h-40v24l-20 3e-6 -32-32h-32zm227.24 121.08-12 12h12l4 4h4l4-4z" color="#000000" enable-background="accumulate" opacity=".2"/>
      <path d="m881.72-374.5h-30.621l-17.862 17.862v25.517l12.759 12.759h17.862l7.6552 7.6552v7.6552l5.1034 5.1034v30.621l19.379 20.483 32-32-0.34483-29.31 25.517-25.517h-10.207l-25.517-25.517v-10.207h-30.621z" color="#000000" enable-background="accumulate" opacity=".2"/>
      <path transform="matrix(.63793 0 0 .63793 657.17 -507.19)" d="m488 48-16 16h-24l-24 24-16-16h-48l-24 24-1e-5 20h24v-12h16v16l-8 8-32 0.54102-12 11.459h-16v16l-12 12v24h24l16-16h24 16l16 16h20l-12-12 12-12h12l12 12h-12l-12 12 11.783 11.783 0.2168 12.217h-16l48 48h8l8-8 16-16-16-16h72v-176zm-128 128h-8l-1e-5 8 16 16h8v-8z" color="#000000" enable-background="accumulate" opacity=".2"/>
      <path d="m856.21-422.98v-7.6552l7.6552-7.6552v15.31z" color="#000000" enable-background="accumulate" opacity=".2"/>
      <path d="m935.31-272.43v-16l10.207-9.5172v25.517z" color="#000000" enable-background="accumulate" opacity=".2"/>
      <path d="m805.17-435.74v-10.207l15.31-15.31v-10.207l10.207-10.207v-15.31l-10.207-10.207h-40.828l-17.862 20.414 15.31 15.31v16l17.862 19.724z" color="#000000" enable-background="accumulate" opacity=".2"/>
      <path d="m743.93-481.67v-25.517h-51.034l25.517 25.517z" color="#000000" enable-background="accumulate" opacity=".2"/>
      <path d="m817.93-440.84h7.6552l7.6552 7.6552-15.31 1e-5z" color="#000000" enable-background="accumulate" opacity=".2"/>
      <path d="m749.03-356.64h-7.6552l-7.6552 7.6552 15.31 1e-5z" color="#000000" enable-background="accumulate" opacity=".2"/>
     </g>
    </g>
    <g>
     <path d="m336.04-77.979v80.004a80.005 80.005 0 0 0 80.006-80.004zm7.3203 83.295a24.004 24.004 0 0 0-23.074 22.447c-2.2934 29.198 11.627 57.418 36.191 73.367s56.008 17.181 81.746 3.2051c25.738-13.976 41.826-41.021 41.826-70.309a24.004 24.004 0 1 0-48.002 0c0 11.776-6.3818 22.505-16.73 28.125-10.349 5.6196-22.822 5.1295-32.699-1.2832-9.8769-6.4127-15.399-17.608-14.477-29.348a24.004 24.004 0 0 0-24.781-26.205z" color="#000000" color-rendering="auto" enable-background="accumulate" filter="url(#b)" image-rendering="auto" opacity=".2" shape-rendering="auto" solid-color="#000000" style="isolation:auto;mix-blend-mode:normal;text-decoration-color:#000000;text-decoration-line:none;text-decoration-style:solid;text-indent:0;text-transform:none;white-space:normal"/>
     <path d="m360.04-51.977-120.04-112.02 0.0302 112.02z" fill="#ef6c00" fill-rule="evenodd"/>
     <path d="m336.04-3.9739a80.005 80.005 0 0 0 80.005-80.005h-80.005z" fill="#ef6c00"/>
     <path transform="translate(0,-244)" d="m368 88-45.309 42.309c-6.1178-1.5028-12.392-2.2777-18.691-2.3086-44.183 0-80 35.817-80 80h10.832c-7.0613 12.15-10.797 25.947-10.832 40h16v32.027c0.0189 93.971 59.112 178.37 147.42 210.51 88.32 32.146 187.86 5.4817 248.27-66.518 60.415-71.999 69.398-174.67 22.404-256.06-69.259-90.051 0.17391 36.78-4.4121 84.719-105.52-175.4-23.284-63.008-53.506 36.309-55.208-139.26-26.041 8.2626-60.734 53.432-26.358 31.412-69.036 42.847-107.57 28.822-38.524-14.021-63.864-50.213-63.875-91.207h0.0391v-32.027h15.961c-0.0347-14.053-3.7707-27.85-10.832-40h10.832c-0.0297-17.247-5.6323-34.023-15.973-47.826z" clip-path="url(#d)" fill-rule="evenodd" filter="url(#c)" opacity=".2"/>
     <path transform="translate(0,-244)" d="m464 48c-124.1 0-224 99.904-224 224 0 0.33437 0.0103 0.66598 0.0117 1 0.5364-123.63 100.23-223 223.99-223s223.45 99.369 223.99 223c0.00145-0.33402 0.01172-0.66563 0.01172-1 0-124.1-99.904-224-224-224z" enable-background="new" fill="#fff" opacity=".4"/>
    </g>
    <g fill="#f29312">
     <path d="m248.03-51.977 119.97-112.02 0.0409 112.02z" fill-rule="evenodd"/>
     <rect x="240" y="-84" width="128.04" height="112.03"/>
     <path transform="translate(0,-244)" d="m688 146c-69.588 1e-5 -126 56.412-126 126h0.14648c-0.18143 24.399-9.5675 45.994-22.703 62.412-26.358 31.412-69.036 42.847-107.57 28.822-38.532-14.025-63.875-50.229-63.875-91.234h-8.502v-0.0176h-119.5c0 93.989 59.098 178.4 147.42 210.55 88.32 32.146 187.86 5.4817 248.27-66.518 35.288-42.055 53.02-94.573 52.309-147.2z" color="#000000" color-rendering="auto" enable-background="accumulate" image-rendering="auto" shape-rendering="auto" solid-color="#000000" style="isolation:auto;mix-blend-mode:normal;text-decoration-color:#000000;text-decoration-line:none;text-decoration-style:solid;text-indent:0;text-transform:none;white-space:normal"/>
     <path d="m343.36-0.68359a24.004 24.004 0 0 0-23.074 22.447c-2.2934 29.198 11.627 57.418 36.191 73.367 24.564 15.949 56.008 17.181 81.746 3.2051 25.738-13.976 41.826-41.021 41.826-70.309a24.004 24.004 0 1 0-48.002 0c0 11.776-6.3818 22.505-16.73 28.125-10.349 5.6196-22.822 5.1295-32.699-1.2832-9.8769-6.4127-15.399-17.608-14.477-29.348a24.004 24.004 0 0 0-24.781-26.205z" color="#000000" color-rendering="auto" enable-background="accumulate" image-rendering="auto" shape-rendering="auto" solid-color="#000000" style="isolation:auto;mix-blend-mode:normal;text-decoration-color:#000000;text-decoration-line:none;text-decoration-style:solid;text-indent:0;text-transform:none;white-space:normal"/>
    </g>
    <path transform="translate(0,-244)" d="m240 80v2l96.037 89.625v-2zm96.037 80.021v2h79.936a80.005 80.005 0 0 0 0.0703-2h-80.006z" fill="#fff" opacity=".5"/>
    <g fill="#f29312">
     <path d="m304-124a80 80 0 0 0-80 80h80z"/>
     <path d="m304-84a80 80 0 0 0-80 80h80z"/>
     <path d="m304-84a80 80 0 0 1 80 80h-80z"/>
     <path d="m304-124a80 80 0 0 1 80 80h-80z"/>
    </g>
    <g fill="#fff">
     <path transform="translate(0,-244)" d="m368 80-45.309 42.309a80 80 0 0 0-18.691-2.3086 80 80 0 0 0-80 80h0.0703a80 80 0 0 1 79.93-78 80 80 0 0 1 18.691 2.3086l45.309-42.309zm0.0273 72.174v2a80 80 0 0 1 15.869 45.826h0.10352a80 80 0 0 0-15.973-47.826zm-134.23 49.826a80 80 0 0 0-9.7988 38h0.0332a80 80 0 0 1 10.799-38zm139.37 0a80 80 0 0 1 10.727 38h0.10547a80 80 0 0 0-9.7285-38z" fill-rule="evenodd" opacity=".3"/>
     <path transform="translate(0,-244)" d="m455.72 247.65c-13.275 0.18093-23.881 11.103-23.674 24.377 0 11.776-6.3818 22.505-16.73 28.125-10.349 5.6196-22.822 5.1295-32.699-1.2832-8.8872-5.7701-14.23-15.415-14.543-25.842-0.35699 11.184 5.0899 21.704 14.543 27.842 9.8769 6.4127 22.351 6.9028 32.699 1.2832 10.349-5.6196 16.73-16.349 16.73-28.125-0.62284-13.544 10.087-24.916 23.644-25.104s24.58 10.88 24.334 24.436c7e-3 -0.44415 0.0234-0.88681 0.0234-1.332 0.21156-13.53-10.797-24.561-24.328-24.377z" color="#000000" color-rendering="auto" enable-background="accumulate" image-rendering="auto" opacity=".3" shape-rendering="auto" solid-color="#000000" style="isolation:auto;mix-blend-mode:normal;text-decoration-color:#000000;text-decoration-line:none;text-decoration-style:solid;text-indent:0;text-transform:none;white-space:normal"/>
     <path transform="translate(0,-244)" d="m688 146c-69.588 1e-5 -126 56.412-126 126h0.0254c1.0698-68.664 57.055-124 125.97-124zm0 122.81v2c0.0144 1.0613 0.0104 2.1225 0.01 3.1836 0.0164-1.7275 0.0136-3.4555-0.01-5.1836zm-125.89 5.1875c-0.66342 23.578-9.8906 44.444-22.666 60.412-26.358 31.412-69.036 42.847-107.57 28.822-8.1711-2.974-15.74-6.9547-22.609-11.758-0.80555 0.0931-1.6126 0.17756-2.4199 0.2461 7.4959 5.5938 15.885 10.184 25.029 13.512 38.532 14.025 81.211 2.5894 107.57-28.822 13.136-16.418 22.522-38.013 22.703-62.412z" color="#000000" color-rendering="auto" enable-background="accumulate" image-rendering="auto" opacity=".2" shape-rendering="auto" solid-color="#000000" style="isolation:auto;mix-blend-mode:normal;text-decoration-color:#000000;text-decoration-line:none;text-decoration-style:solid;text-indent:0;text-transform:none;white-space:normal"/>
    </g>
   </g>
  </g>
 </g>
 <g transform="translate(0,212)"></g>
</svg>
