<svg xmlns="http://www.w3.org/2000/svg" width="512" height="512" enable-background="new" version="1.0"><defs><filter id="a" width="1.048" height="1.048" x="-.024" y="-.024" color-interpolation-filters="sRGB"><feGaussianBlur stdDeviation="4.56"/></filter></defs><g transform="translate(-208 228)"><path d="M284-198a48 48 0 0 0-48 48 48 48 0 0 0 48 48 48 48 0 0 0 48-48 48 48 0 0 0-48-48m120 0a48 48 0 0 0-48 48 48 48 0 0 0 48 48 48 48 0 0 0 48-48 48 48 0 0 0-48-48m240 0a48 48 0 0 0-48 48 48 48 0 0 0 48 48 48 48 0 0 0 48-48 48 48 0 0 0-48-48M404-78a48 48 0 0 0-48 48 48 48 0 0 0 48 48 48 48 0 0 0 48-48 48 48 0 0 0-48-48m120 0a48 48 0 0 0-48 48 48 48 0 0 0 48 48 48 48 0 0 0 48-48 48 48 0 0 0-48-48M404 42a48 48 0 0 0-48 48 48 48 0 0 0 48 48 48 48 0 0 0 48-48 48 48 0 0 0-48-48m240 0a48 48 0 0 0-48 48 48 48 0 0 0 48 48 48 48 0 0 0 48-48 48 48 0 0 0-48-48M284 162a48 48 0 0 0-48 48 48 48 0 0 0 48 48 48 48 0 0 0 48-48 48 48 0 0 0-48-48m240 0a48 48 0 0 0-48 48 48 48 0 0 0 48 48 48 48 0 0 0 48-48 48 48 0 0 0-48-48m120 0a48 48 0 0 0-48 48 48 48 0 0 0 48 48 48 48 0 0 0 48-48 48 48 0 0 0-48-48" enable-background="new" filter="url(#a)" opacity=".2"/><path d="M284-198a48 48 0 0 0-48 48 48 48 0 0 0 48 48 48 48 0 0 0 48-48 48 48 0 0 0-48-48m120 0a48 48 0 0 0-48 48 48 48 0 0 0 48 48 48 48 0 0 0 48-48 48 48 0 0 0-48-48m240 0a48 48 0 0 0-48 48 48 48 0 0 0 48 48 48 48 0 0 0 48-48 48 48 0 0 0-48-48M404-78a48 48 0 0 0-48 48 48 48 0 0 0 48 48 48 48 0 0 0 48-48 48 48 0 0 0-48-48m120 0a48 48 0 0 0-48 48 48 48 0 0 0 48 48 48 48 0 0 0 48-48 48 48 0 0 0-48-48M404 42a48 48 0 0 0-48 48 48 48 0 0 0 48 48 48 48 0 0 0 48-48 48 48 0 0 0-48-48m240 0a48 48 0 0 0-48 48 48 48 0 0 0 48 48 48 48 0 0 0 48-48 48 48 0 0 0-48-48M284 162a48 48 0 0 0-48 48 48 48 0 0 0 48 48 48 48 0 0 0 48-48 48 48 0 0 0-48-48m240 0a48 48 0 0 0-48 48 48 48 0 0 0 48 48 48 48 0 0 0 48-48 48 48 0 0 0-48-48m120 0a48 48 0 0 0-48 48 48 48 0 0 0 48 48 48 48 0 0 0 48-48 48 48 0 0 0-48-48" enable-background="new" opacity=".2"/><circle cx="284" cy="-152" r="48" fill="#4caf50" enable-background="new"/><circle cx="404" cy="-152" r="48" fill="#f44336" enable-background="new"/><circle cx="644" cy="-152" r="48" fill="#3f51b5" enable-background="new"/><circle cx="404" cy="-32" r="48" fill="#4caf50" enable-background="new"/><circle cx="524" cy="-32" r="48" fill="#3f51b5" enable-background="new"/><circle cx="404" cy="88" r="48" fill="#3f51b5" enable-background="new"/><circle cx="644" cy="88" r="48" fill="#f44336" enable-background="new"/><circle cx="284" cy="208" r="48" fill="#3f51b5" enable-background="new"/><circle cx="524" cy="208" r="48" fill="#3f51b5" enable-background="new"/><circle cx="644" cy="208" r="48" fill="#4caf50" enable-background="new"/><path fill="#fff" d="M284-200a48 48 0 0 0-48 48 48 48 0 0 0 .041.832A48 48 0 0 1 284-198a48 48 0 0 1 47.959 47.168A48 48 0 0 0 332-152a48 48 0 0 0-48-48m120 0a48 48 0 0 0-48 48 48 48 0 0 0 .041.832A48 48 0 0 1 404-198a48 48 0 0 1 47.959 47.168A48 48 0 0 0 452-152a48 48 0 0 0-48-48m240 0a48 48 0 0 0-48 48 48 48 0 0 0 .041.832A48 48 0 0 1 644-198a48 48 0 0 1 47.959 47.168A48 48 0 0 0 692-152a48 48 0 0 0-48-48M404-80a48 48 0 0 0-48 48 48 48 0 0 0 .041.832A48 48 0 0 1 404-78a48 48 0 0 1 47.959 47.168A48 48 0 0 0 452-32a48 48 0 0 0-48-48m120 0a48 48 0 0 0-48 48 48 48 0 0 0 .041.832A48 48 0 0 1 524-78a48 48 0 0 1 47.959 47.168A48 48 0 0 0 572-32a48 48 0 0 0-48-48M404 40a48 48 0 0 0-48 48 48 48 0 0 0 .041.832A48 48 0 0 1 404 42a48 48 0 0 1 47.959 47.168A48 48 0 0 0 452 88a48 48 0 0 0-48-48m240 0a48 48 0 0 0-48 48 48 48 0 0 0 .041.832A48 48 0 0 1 644 42a48 48 0 0 1 47.959 47.168A48 48 0 0 0 692 88a48 48 0 0 0-48-48M284 160a48 48 0 0 0-48 48 48 48 0 0 0 .041.832A48 48 0 0 1 284 162a48 48 0 0 1 47.959 47.168A48 48 0 0 0 332 208a48 48 0 0 0-48-48m240 0a48 48 0 0 0-48 48 48 48 0 0 0 .041.832A48 48 0 0 1 524 162a48 48 0 0 1 47.959 47.168A48 48 0 0 0 572 208a48 48 0 0 0-48-48m120 0a48 48 0 0 0-48 48 48 48 0 0 0 .041.832A48 48 0 0 1 644 162a48 48 0 0 1 47.959 47.168A48 48 0 0 0 692 208a48 48 0 0 0-48-48" enable-background="new" opacity=".2"/></g></svg>