<svg width="512" height="512" enable-background="new" version="1.0" xmlns="http://www.w3.org/2000/svg">
 <defs>
  <filter id="a" x="-.024" y="-.024" width="1.048" height="1.048" color-interpolation-filters="sRGB">
   <feGaussianBlur stdDeviation="4.56"/>
  </filter>
 </defs>
 <g transform="translate(0,212)">
  <g>
   <g transform="translate(-208,16)">
    <path d="m284-198a48 48 0 0 0-48 48 48 48 0 0 0 48 48 48 48 0 0 0 48-48 48 48 0 0 0-48-48zm120 0a48 48 0 0 0-48 48 48 48 0 0 0 48 48 48 48 0 0 0 48-48 48 48 0 0 0-48-48zm240 0a48 48 0 0 0-48 48 48 48 0 0 0 48 48 48 48 0 0 0 48-48 48 48 0 0 0-48-48zm-240 120a48 48 0 0 0-48 48 48 48 0 0 0 48 48 48 48 0 0 0 48-48 48 48 0 0 0-48-48zm120 0a48 48 0 0 0-48 48 48 48 0 0 0 48 48 48 48 0 0 0 48-48 48 48 0 0 0-48-48zm-120 120a48 48 0 0 0-48 48 48 48 0 0 0 48 48 48 48 0 0 0 48-48 48 48 0 0 0-48-48zm240 0a48 48 0 0 0-48 48 48 48 0 0 0 48 48 48 48 0 0 0 48-48 48 48 0 0 0-48-48zm-360 120a48 48 0 0 0-48 48 48 48 0 0 0 48 48 48 48 0 0 0 48-48 48 48 0 0 0-48-48zm240 0a48 48 0 0 0-48 48 48 48 0 0 0 48 48 48 48 0 0 0 48-48 48 48 0 0 0-48-48zm120 0a48 48 0 0 0-48 48 48 48 0 0 0 48 48 48 48 0 0 0 48-48 48 48 0 0 0-48-48z" enable-background="new" filter="url(#a)" opacity=".2"/>
    <path d="m284-198a48 48 0 0 0-48 48 48 48 0 0 0 48 48 48 48 0 0 0 48-48 48 48 0 0 0-48-48zm120 0a48 48 0 0 0-48 48 48 48 0 0 0 48 48 48 48 0 0 0 48-48 48 48 0 0 0-48-48zm240 0a48 48 0 0 0-48 48 48 48 0 0 0 48 48 48 48 0 0 0 48-48 48 48 0 0 0-48-48zm-240 120a48 48 0 0 0-48 48 48 48 0 0 0 48 48 48 48 0 0 0 48-48 48 48 0 0 0-48-48zm120 0a48 48 0 0 0-48 48 48 48 0 0 0 48 48 48 48 0 0 0 48-48 48 48 0 0 0-48-48zm-120 120a48 48 0 0 0-48 48 48 48 0 0 0 48 48 48 48 0 0 0 48-48 48 48 0 0 0-48-48zm240 0a48 48 0 0 0-48 48 48 48 0 0 0 48 48 48 48 0 0 0 48-48 48 48 0 0 0-48-48zm-360 120a48 48 0 0 0-48 48 48 48 0 0 0 48 48 48 48 0 0 0 48-48 48 48 0 0 0-48-48zm240 0a48 48 0 0 0-48 48 48 48 0 0 0 48 48 48 48 0 0 0 48-48 48 48 0 0 0-48-48zm120 0a48 48 0 0 0-48 48 48 48 0 0 0 48 48 48 48 0 0 0 48-48 48 48 0 0 0-48-48z" enable-background="new" opacity=".2"/>
    <circle cx="284" cy="-152" r="48" enable-background="new" fill="#4caf50"/>
    <circle cx="404" cy="-152" r="48" enable-background="new" fill="#f44336"/>
    <circle cx="644" cy="-152" r="48" enable-background="new" fill="#3f51b5"/>
    <circle cx="404" cy="-32" r="48" enable-background="new" fill="#4caf50"/>
    <circle cx="524" cy="-32" r="48" enable-background="new" fill="#3f51b5"/>
    <circle cx="404" cy="88" r="48" enable-background="new" fill="#3f51b5"/>
    <circle cx="644" cy="88" r="48" enable-background="new" fill="#f44336"/>
    <circle cx="284" cy="208" r="48" enable-background="new" fill="#3f51b5"/>
    <circle cx="524" cy="208" r="48" enable-background="new" fill="#3f51b5"/>
    <circle cx="644" cy="208" r="48" enable-background="new" fill="#4caf50"/>
    <path transform="translate(0,-244)" d="m284 44a48 48 0 0 0-48 48 48 48 0 0 0 0.041 0.83203 48 48 0 0 1 47.959-46.832 48 48 0 0 1 47.959 47.168 48 48 0 0 0 0.04102-1.168 48 48 0 0 0-48-48zm120 0a48 48 0 0 0-48 48 48 48 0 0 0 0.041 0.83203 48 48 0 0 1 47.959-46.832 48 48 0 0 1 47.959 47.168 48 48 0 0 0 0.04102-1.168 48 48 0 0 0-48-48zm240 0a48 48 0 0 0-48 48 48 48 0 0 0 0.041 0.83203 48 48 0 0 1 47.959-46.832 48 48 0 0 1 47.959 47.168 48 48 0 0 0 0.04102-1.168 48 48 0 0 0-48-48zm-240 120a48 48 0 0 0-48 48 48 48 0 0 0 0.041 0.83203 48 48 0 0 1 47.959-46.832 48 48 0 0 1 47.959 47.168 48 48 0 0 0 0.04102-1.168 48 48 0 0 0-48-48zm120 0a48 48 0 0 0-48 48 48 48 0 0 0 0.041 0.83203 48 48 0 0 1 47.959-46.832 48 48 0 0 1 47.959 47.168 48 48 0 0 0 0.04102-1.168 48 48 0 0 0-48-48zm-120 120a48 48 0 0 0-48 48 48 48 0 0 0 0.041 0.83203 48 48 0 0 1 47.959-46.832 48 48 0 0 1 47.959 47.168 48 48 0 0 0 0.04102-1.168 48 48 0 0 0-48-48zm240 0a48 48 0 0 0-48 48 48 48 0 0 0 0.041 0.83203 48 48 0 0 1 47.959-46.832 48 48 0 0 1 47.959 47.168 48 48 0 0 0 0.04102-1.168 48 48 0 0 0-48-48zm-360 120a48 48 0 0 0-48 48 48 48 0 0 0 0.041 0.83203 48 48 0 0 1 47.959-46.832 48 48 0 0 1 47.959 47.168 48 48 0 0 0 0.04102-1.168 48 48 0 0 0-48-48zm240 0a48 48 0 0 0-48 48 48 48 0 0 0 0.041 0.83203 48 48 0 0 1 47.959-46.832 48 48 0 0 1 47.959 47.168 48 48 0 0 0 0.04102-1.168 48 48 0 0 0-48-48zm120 0a48 48 0 0 0-48 48 48 48 0 0 0 0.041 0.83203 48 48 0 0 1 47.959-46.832 48 48 0 0 1 47.959 47.168 48 48 0 0 0 0.04102-1.168 48 48 0 0 0-48-48z" enable-background="new" fill="#fff" opacity=".2"/>
   </g>
  </g>
 </g>
</svg>
