<svg width="512" height="512" enable-background="new" version="1.0" xmlns="http://www.w3.org/2000/svg">
 <defs>
  <filter id="b" x="-.024" y="-.024" width="1.048" height="1.048" color-interpolation-filters="sRGB">
   <feGaussianBlur stdDeviation="4.8"/>
  </filter>
  <clipPath id="a">
   <circle cx="168" cy="260" r="22" fill="#ffcc80"/>
  </clipPath>
  <filter id="c" x="-.12" y="-.12" width="1.24" height="1.24" color-interpolation-filters="sRGB">
   <feGaussianBlur stdDeviation="8"/>
  </filter>
 </defs>
 <path transform="translate(0,-32)" d="m140 512v1h56v-1z" clip-path="url(#a)" fill="#82b1ff"/>
 <circle cx="256" cy="258" r="240" opacity=".2"/>
 <circle cx="256" cy="260" r="240" filter="url(#b)" opacity=".1"/>
 <circle cx="256" cy="260" r="240" filter="url(#b)" opacity=".2"/>
 <path d="m256 16a240 240 0 0 0-240 240 240 240 0 0 0 16.354 87h447.05a240 240 0 0 0 16.592-87 240 240 0 0 0-240-240z" fill="#ffcc80"/>
 <path d="m32.365 342.99a240 240 0 0 0 223.65 152.94 240 240 0 0 0 223.39-152.94h-447.04z" fill="#82b1ff" stroke-width="10.909"/>
 <circle cx="328" cy="196" r="80" filter="url(#c)" opacity=".2"/>
 <circle cx="328" cy="184" r="80" fill="#fff3e0"/>
 <path d="M 256,16 A 240,240 0 0 0 16,256 240,240 0 0 0 16.041,257.17188 240,240 0 0 1 256,18 240,240 0 0 1 495.95898,256.82812 240,240 0 0 0 496,256 240,240 0 0 0 256,16 Z" fill="#fff" opacity=".2"/>
 <path transform="matrix(10.909,0,0,10.909,-1576.7,-2579.4)" d="m140 267.98h56v-0.0917h-56z" clip-path="url(#a)" opacity=".05"/>
</svg>
