<svg xmlns="http://www.w3.org/2000/svg" width="512" height="512" enable-background="new" version="1.0"><defs><filter id="b" width="1.048" height="1.048" x="-.024" y="-.024" color-interpolation-filters="sRGB"><feGaussianBlur stdDeviation="4.8"/></filter><filter id="c" width="1.24" height="1.24" x="-.12" y="-.12" color-interpolation-filters="sRGB"><feGaussianBlur stdDeviation="8"/></filter><clipPath id="a"><circle cx="168" cy="260" r="22" fill="#ffcc80"/></clipPath></defs><path fill="#82b1ff" d="M140 512v1h56v-1z" clip-path="url(#a)" transform="translate(0 -32)"/><circle cx="256" cy="258" r="240" opacity=".2"/><circle cx="256" cy="260" r="240" filter="url(#b)" opacity=".1"/><circle cx="256" cy="260" r="240" filter="url(#b)" opacity=".2"/><path fill="#ffcc80" d="M256 16A240 240 0 0 0 16 256a240 240 0 0 0 16.354 87h447.05a240 240 0 0 0 16.592-87 240 240 0 0 0-240-240z"/><path fill="#82b1ff" d="M32.365 342.99a240 240 0 0 0 223.65 152.94 240 240 0 0 0 223.39-152.94z"/><circle cx="328" cy="196" r="80" filter="url(#c)" opacity=".2"/><circle cx="328" cy="184" r="80" fill="#fff3e0"/><path fill="#fff" d="M256 16A240 240 0 0 0 16 256l.041 1.172A240 240 0 0 1 256 18a240 240 0 0 1 239.959 238.828L496 256A240 240 0 0 0 256 16" opacity=".2"/><path d="M140 267.98h56v-.092h-56z" clip-path="url(#a)" opacity=".05" transform="translate(-1576.7 -2579.4)scale(10.909)"/></svg>