<svg width="512" height="512" enable-background="new" version="1.0" xmlns="http://www.w3.org/2000/svg" xmlns:osb="http://www.openswatchbook.org/uri/2009/osb" xmlns:xlink="http://www.w3.org/1999/xlink">
 <defs>
  <filter id="b" x="-.024" y="-.024" width="1.048" height="1.048" color-interpolation-filters="sRGB">
   <feGaussianBlur stdDeviation="4.8"/>
  </filter>
  <clipPath id="a">
   <circle cx="168" cy="260" r="22" fill="#ffcc80"/>
  </clipPath>
  <filter id="c" x="-.12" y="-.12" width="1.24" height="1.24" color-interpolation-filters="sRGB">
   <feGaussianBlur stdDeviation="8"/>
  </filter>
 </defs>
 <g transform="translate(0,212)">
  <g>
   <path transform="translate(0,-244)" d="m140 512v1h56v-1z" clip-path="url(#a)" fill="#82b1ff"/>
   <g transform="translate(-208,16)">
    <g>
     <circle cx="464" cy="30" r="240" opacity=".2"/>
     <circle cx="464" cy="32" r="240" filter="url(#b)" opacity=".1"/>
     <circle cx="464" cy="32" r="240" filter="url(#b)" opacity=".2"/>
    </g>
    <path transform="translate(0,-244)" d="m464 32a240 240 0 0 0-240 240 240 240 0 0 0 16.354 87h447.05a240 240 0 0 0 16.592-87 240 240 0 0 0-240-240z" fill="#ffcc80"/>
    <path transform="matrix(10.909 0 0 10.909 -1368.7 -2808.4)" d="m140 267.98h56v20.025h-56z" clip-path="url(#a)" fill="#82b1ff"/>
    <circle cx="536" cy="-32" r="80" filter="url(#c)" opacity=".2"/>
    <circle cx="536" cy="-44" r="80" fill="#fff3e0"/>
    <path transform="translate(0,-244)" d="m 464,32 a 240,240 0 0 0 -240,240 240,240 0 0 0 0.041,1.17188 A 240,240 0 0 1 464,34 240,240 0 0 1 703.95898,272.82812 240,240 0 0 0 704,272 240,240 0 0 0 464,32 Z" fill="#fff" opacity=".2"/>
    <path transform="matrix(10.909 0 0 10.909 -1368.7 -2807.4)" d="m140 267.98h56v-0.0917h-56z" clip-path="url(#a)" opacity=".05"/>
   </g>
  </g>
 </g>
</svg>
