<svg xmlns="http://www.w3.org/2000/svg" width="512" height="512" enable-background="new" version="1.0"><defs><filter id="a" width="1.048" height="1.048" x="-.024" y="-.024" color-interpolation-filters="sRGB"><feGaussianBlur stdDeviation="4.8"/></filter><filter id="b" width="1.147" height="1.101" x="-.074" y="-.051" color-interpolation-filters="sRGB"><feGaussianBlur stdDeviation="5.4"/></filter></defs><g transform="translate(-208 228)"><circle cx="464" cy="30" r="240" opacity=".2"/><circle cx="464" cy="32" r="240" filter="url(#a)" opacity=".1"/><circle cx="464" cy="32" r="240" filter="url(#a)" opacity=".2"/><circle cx="464" cy="28" r="240" fill="#e6e6e6"/><path fill="#fff" d="M464-212A240 240 0 0 0 224 28l.041 1.172A240 240 0 0 1 464-210 240 240 0 0 1 703.959 28.828L704 28a240 240 0 0 0-240-240" opacity=".2"/><circle cx="464" cy="32" r="208" fill="#fff" opacity=".5"/><circle cx="464" cy="28" r="208" fill="#4d4d4d"/><path d="M384 164h48V68h96V20h-96v-64h128v-48H384z" enable-background="new" filter="url(#b)" opacity=".2"/><path fill="#e6e6e6" d="M384 156h48V60h96V12h-96v-64h128v-48H384z" enable-background="new"/><path fill="#fff" d="M384-100v2h176v-2zm48 112v2h96v-2z" enable-background="new" opacity=".5"/><path d="M464-180A208 208 0 0 0 256 28a208 208 0 0 0 .082 2.342A208 208 0 0 1 464-176 208 208 0 0 1 671.918 29.658 208 208 0 0 0 672 28a208 208 0 0 0-208-208" opacity=".2"/></g></svg>