<svg xmlns="http://www.w3.org/2000/svg" width="512" height="512" enable-background="new" version="1.0"><defs><filter id="a" width="1.048" height="1.048" x="-.024" y="-.024" color-interpolation-filters="sRGB"><feGaussianBlur stdDeviation="4.48"/></filter></defs><g transform="matrix(0 -1 -1 0 -208 228)"><rect width="448" height="448" x="-254" y="-688" enable-background="new" opacity=".2" rx="36" ry="36"/><rect width="448" height="448" x="-256" y="-688" enable-background="new" filter="url(#a)" opacity=".1" rx="36" ry="36"/><rect width="448" height="448" x="-256" y="-688" enable-background="new" filter="url(#a)" opacity=".2" rx="36" ry="36"/></g><path fill="#fff" d="M68 32c-19.944 0-36 16.056-36 36v2c0-19.944 16.056-36 36-36h376c19.944 0 36 16.056 36 36v-2c0-19.944-16.056-36-36-36z" opacity=".2"/><g transform="matrix(8 0 0 8 3692.5 -2347.4)"><rect width="56" height="56" x="-457.56" y="297.42" fill="#a448ba" rx="4.2" ry="4.2"/><g fill="#fff"><path d="M-415.05 308.42c-2.026 0-4.075.522-5.465 1.475l1.319 2.472c.918-.703 2.308-1.134 3.651-1.134 1.98 0 3.086 1.449 3.086 2.968l-3.658-.016c-3.863-.018-5.441 1.442-5.441 3.597 0 2.11 1.612 3.638 4.58 3.638 1.861 0 3.836-.53 4.519-1.642v1.503h3.9v-7.326c0-3.698-2.628-5.535-6.491-5.535zm-.854 10.678c-1.296 0-2.073-.59-2.073-1.474 0-.817.541-1.195 2.261-1.185l3.257.017v.704c0 1.184-2.22 1.938-3.445 1.938M-429.26 319.12c-.465.387-.794.526-1.204.526-.63 0-.821-.388-.821-1.605v-5.393c0-1.439-.137-2.24-.547-2.905-.602-.995-2.252-1.52-3.866-1.52-2.573 0-4.598 1.354-4.598 3.097 0 .636.52 1.19 1.177 1.19s1.231-.554 1.231-1.162c0-.11-.027-.25-.054-.443a3 3 0 0 1-.082-.664c0-.746.875-1.355 1.97-1.355 1.34 0 2.3.802 2.3 2.296v2.2c-3.769 1.124-4.9 1.423-6.077 2.474-.602.554-.985 1.494-.985 2.407 0 1.742 1.204 2.96 2.874 2.96 1.204 0 2.546-.582 4.215-2.02.137 1.466.882 2.02 2.004 2.02.93 0 1.505-.333 2.463-1.384zm-4.494-1.577c0 .83-.137 1.134-.711 1.466-.684.388-1.644.609-2.218.609-.958 0-1.724-.94-1.724-2.13v-.11c.027-1.66 1.452-2.2 4.653-3.333zM-414.3 329.43q-.672-.06-1.694.477-1.023.536-2.074 1.61-1.052 1.043-1.958 2.532a11.4 11.4 0 0 0-1.285 3.309q-.321 1.341-.233 2.324.087.954.408 1.58.322.596.79.864.466.298.876.298a6.2 6.2 0 0 0 1.752-.387q.76-.3 1.607-.924.847-.656 1.548-1.848-.03.804.088 1.34.145.538.292.865.175.388.438.596.263.18.613.239.35.09.73.06.41-.03.79-.15.379-.12.671-.298.438-.297 1.081-1.013.672-.745 1.344-1.61a86 86 0 0 0 1.343-1.758 87 87 0 0 0 1.052-1.49q.35-.477.409-.834.088-.358-.03-.537-.116-.18-.35-.12-.234.03-.467.299-.176.238-.584.745l-.877 1.162a48 48 0 0 1-1.08 1.371q-.555.685-1.081 1.282-.526.566-.994.953-.466.358-.759.358-.351 0-.555-.149a1.1 1.1 0 0 1-.263-.447 2.7 2.7 0 0 1-.117-.566q0-.329.03-.596l.145-.745q.06-.3.088-.507.059-.238.088-.447.058-.238.117-.507.291-1.371.467-2.235.175-.864.263-1.37.087-.508.087-.686 0-.21-.029-.269a.6.6 0 0 0-.233-.03q-.147 0-.439.03-.263.03-.672.12.614-.954.468-1.52-.117-.597-.526-.894-.497-.329-1.285-.477zm-.688 1.864a.3.3 0 0 1 .191.073q.089.12.117.328.03.18-.029.507-.03.297-.263.775.234-.06.468-.09.233-.03.38-.09.174-.059.32-.089.118-.03.03.477-.059.477-.205 1.222a29 29 0 0 1-.35 1.55q-.205.804-.35 1.4-.03.15-.264.477a5 5 0 0 1-.555.716 5.5 5.5 0 0 1-.76.745 4.7 4.7 0 0 1-.846.596q-.41.208-.818.238-.41 0-.73-.328-.176-.178-.234-.745a6.6 6.6 0 0 1 .029-1.37q.116-.776.38-1.64a8 8 0 0 1 .7-1.669q1.053-1.878 1.841-2.563.614-.536.948-.52z"/><path fill-rule="evenodd" d="M-437.81 329.42c-1.488-.02-1.488 2.183 0 2.162h5.436c.006 0 .157.018.322.107.169.09.267.101.296.507v-.01l.135 3.34c-.254-.095-.423-.136-.423-.136l-.13-.032h-5.086c-2.384 0-3.244 2.36-3.244 2.36l-.057.167v.723c0 1.64.788 2.772 1.617 3.281.83.51 1.684.503 1.684.503h4.177l1.866-1.191.01.173c.05 1.478 2.324 1.347 2.197-.127l-.55-9.193v-.005c-.078-1.117-.805-1.917-1.435-2.256s-1.242-.37-1.242-.37l-.036-.003zm.55 8.1h4.756c.059.017.289.077.57.26.308.202.483.273.492.633l.077.304-2.37 1.513h-3.525s-.246-.007-.517-.173c-.27-.167-.583-.386-.583-1.449v-.412c.057-.165.294-.676 1.1-.676"/></g><path d="M-453.36 297.42a4.19 4.19 0 0 0-4.2 4.2v47.6a4.19 4.19 0 0 0 4.2 4.2h6.8v-56z" opacity=".3"/></g></svg>