<svg width="512" height="512" enable-background="new" version="1.0" xmlns="http://www.w3.org/2000/svg">
 <defs>
  <filter id="a" x="-.024" y="-.024" width="1.048" height="1.048" color-interpolation-filters="sRGB">
   <feGaussianBlur stdDeviation="4.48"/>
  </filter>
 </defs>
 <g transform="translate(-208,228)">
  <rect transform="matrix(0,-1,-1,0,0,0)" x="-254" y="-688" width="448" height="448" rx="36" ry="36" enable-background="new" opacity=".2"/>
  <rect transform="matrix(0,-1,-1,0,0,0)" x="-256" y="-688" width="448" height="448" rx="36" ry="36" enable-background="new" filter="url(#a)" opacity=".1"/>
  <rect transform="matrix(0,-1,-1,0,0,0)" x="-256" y="-688" width="448" height="448" rx="36" ry="36" enable-background="new" filter="url(#a)" opacity=".2"/>
 </g>
 <path d="m68 32c-19.944 0-36 16.056-36 36v2c0-19.944 16.056-36 36-36h376c19.944 0 36 16.056 36 36v-2c0-19.944-16.056-36-36-36z" enable-background="new" fill="#fff" opacity=".2"/>
 <g transform="matrix(8 0 0 8 3692.5 -2347.4)">
  <rect x="-457.56" y="297.42" width="56" height="56" rx="4.2" ry="4.2" fill="#a448ba"/>
  <g fill="#fff">
   <path d="m-415.05 308.42c-2.026 0-4.0755 0.52175-5.4655 1.4745l1.3192 2.4727c0.91876-0.70324 2.3087-1.1343 3.6515-1.1343 1.9789 0 3.0858 1.4487 3.0858 2.9686l-3.6576-0.0166c-3.8635-0.0175-5.4417 1.4418-5.4417 3.5969 0 2.1097 1.6124 3.6382 4.5807 3.6382 1.8611 0 3.8354-0.53031 4.5186-1.6419l2.2e-4 1.5032 3.9005-7e-4 -4.4e-4 -7.3255c-2.2e-4 -3.6977-2.6279-5.5351-6.4914-5.5351zm-0.85423 10.678c-1.2957 0-2.0731-0.58982-2.0731-1.4745 0-0.81666 0.54163-1.195 2.2613-1.1843l3.2571 0.0166 2.2e-4 0.70406c2.2e-4 1.1842-2.2206 1.9382-3.4456 1.9382z" stroke-width=".071771"/>
   <path d="m-429.26 319.12c-0.46521 0.38723-0.79359 0.52553-1.2041 0.52553-0.6294 0-0.82095-0.38724-0.82095-1.6043v-5.3936c0-1.4383-0.13683-2.2404-0.5473-2.9042-0.60203-0.99575-2.2514-1.5213-3.866-1.5213-2.5723 0-4.5974 1.3553-4.5974 3.0979 0 0.63617 0.51994 1.1894 1.1767 1.1894 0.65677 0 1.2314-0.55318 1.2314-1.1617 0-0.11063-0.0274-0.24893-0.0547-0.44255-0.0547-0.24893-0.0821-0.47021-0.0821-0.66383 0-0.74681 0.87569-1.3553 1.9703-1.3553 1.3409 0 2.3003 0.80213 2.3003 2.2958v2.1993c-3.7689 1.1244-4.9 1.4241-6.0767 2.4752-0.60204 0.55318-0.98515 1.4936-0.98515 2.4064 0 1.7426 1.2041 2.9596 2.8733 2.9596 1.2041 0 2.5466-0.58085 4.2159-2.0192 0.13683 1.466 0.8815 2.0192 2.0035 2.0192 0.93041 0 1.5051-0.33191 2.4629-1.383zm-4.4937-1.5766c0 0.82979-0.13682 1.134-0.71149 1.466-0.68413 0.38724-1.6436 0.60852-2.2182 0.60852-0.95778 0-1.724-0.94043-1.724-2.1298v-0.11064c0.0274-1.6596 1.452-2.1986 4.6537-3.3326z" stroke-width=".49613"/>
   <path d="m-414.3 329.43c-0.4479-0.0398-1.0127 0.11921-1.6943 0.47685-0.6816 0.35763-1.3729 0.89408-2.074 1.6094-0.70107 0.6954-1.3534 1.5398-1.9572 2.5332-0.58422 0.99343-1.0127 2.0961-1.2853 3.3081-0.21421 0.89408-0.29211 1.669-0.23369 2.3246 0.0584 0.63579 0.19474 1.1623 0.40896 1.5795 0.21422 0.39738 0.47712 0.68547 0.78871 0.86429 0.31158 0.19869 0.6037 0.29803 0.87634 0.29803 0.58423-0.0397 1.1684-0.16888 1.7527-0.38744 0.50633-0.19868 1.0419-0.50665 1.6066-0.92389 0.56475-0.43711 1.0808-1.053 1.5482-1.8478-0.0195 0.53645 0.01 0.98349 0.0876 1.3411 0.0974 0.35764 0.19474 0.64572 0.29211 0.86429 0.11684 0.25829 0.26291 0.45697 0.43817 0.59605 0.17527 0.11923 0.37975 0.1987 0.61344 0.23843 0.23369 0.0596 0.47712 0.0795 0.73029 0.0596 0.27264-0.0199 0.53554-0.0695 0.7887-0.14902 0.25317-0.0795 0.47713-0.17882 0.67187-0.29803 0.29211-0.19868 0.65238-0.53645 1.0808-1.0133 0.4479-0.49671 0.89581-1.0332 1.3437-1.6094 0.46738-0.59605 0.91529-1.1822 1.3437-1.7584 0.42843-0.59606 0.77896-1.0928 1.0516-1.4901 0.2337-0.3179 0.37002-0.59606 0.40896-0.83449 0.0584-0.23841 0.0487-0.41724-0.0292-0.53645-0.0779-0.11919-0.19474-0.15893-0.35054-0.11921-0.15579 0.0199-0.31158 0.11923-0.46738 0.29804-0.11684 0.15894-0.31158 0.4073-0.58422 0.74506-0.25317 0.33777-0.54528 0.72521-0.87634 1.1623-0.33107 0.4371-0.69134 0.89408-1.0808 1.3709-0.37002 0.45697-0.73029 0.88415-1.0808 1.2815-0.35054 0.37751-0.68161 0.69541-0.9932 0.95369-0.31158 0.23843-0.56475 0.35764-0.75949 0.35764-0.23369 0-0.41869-0.0496-0.55501-0.14901-0.11684-0.11921-0.20449-0.26823-0.26291-0.44705-0.0584-0.17881-0.0974-0.36757-0.11684-0.56625 0-0.21856 0.01-0.41724 0.0292-0.59606 0.0584-0.29802 0.10712-0.54638 0.14606-0.74507 0.039-0.19868 0.0682-0.36757 0.0876-0.50664 0.039-0.15896 0.0682-0.30797 0.0876-0.44705 0.0389-0.15894 0.0779-0.32783 0.11684-0.50664 0.19474-0.91396 0.35054-1.659 0.46738-2.2352 0.11684-0.57618 0.20448-1.0332 0.2629-1.3709 0.0584-0.33776 0.0876-0.56625 0.0876-0.68546 0-0.1391-0.01-0.2285-0.0292-0.26823-0.039-0.0199-0.11684-0.0298-0.23369-0.0298-0.0974 0-0.24342 0.01-0.43817 0.0298-0.17527 0.0199-0.39922 0.0596-0.67186 0.11921 0.40896-0.63579 0.56475-1.1424 0.46738-1.5199-0.0779-0.39737-0.25316-0.6954-0.52581-0.89409-0.33106-0.21855-0.75949-0.3775-1.2853-0.47684zm-0.68793 1.8642c0.0742 4e-3 0.13779 0.0283 0.19134 0.073 0.0584 0.0795 0.0974 0.18875 0.11684 0.32783 0.0195 0.11921 0.01 0.28809-0.0292 0.50665-0.0195 0.19868-0.10712 0.45697-0.2629 0.77487 0.15579-0.0397 0.31158-0.0695 0.46738-0.0894 0.15579-0.0199 0.28238-0.0496 0.37975-0.0894 0.11684-0.0397 0.22395-0.0695 0.32132-0.0894 0.0779-0.0199 0.0876 0.13909 0.0292 0.47685-0.0389 0.3179-0.10712 0.7252-0.20448 1.2219-0.0974 0.49672-0.21422 1.0133-0.35054 1.5497-0.13632 0.53645-0.25316 1.0034-0.35053 1.4007-0.0195 0.0993-0.10712 0.25828-0.2629 0.47684-0.13633 0.21856-0.32133 0.45698-0.55502 0.71527-0.21422 0.25829-0.46738 0.50665-0.7595 0.74507-0.27264 0.23842-0.55501 0.43711-0.84713 0.59605-0.27264 0.13907-0.54528 0.21854-0.81791 0.23843-0.27264 0-0.51607-0.10929-0.73029-0.32783-0.11684-0.11923-0.19474-0.36757-0.23369-0.74507-0.0389-0.39737-0.0292-0.85436 0.0292-1.3709 0.0779-0.51659 0.20448-1.063 0.37975-1.6392 0.17527-0.59605 0.40896-1.1524 0.70107-1.669 0.70107-1.2517 1.3145-2.1061 1.8403-2.563 0.40896-0.35763 0.72517-0.53123 0.94791-0.52006z"/>
   <path d="m-437.81 329.42c-1.4879-0.0207-1.4879 2.1826 0 2.1619h5.4357c6e-3 5.4e-4 0.15713 0.0177 0.32234 0.10662 0.1685 0.0907 0.2673 0.1018 0.29547 0.50776v-0.0106l0.13538 3.3404c-0.25342-0.0954-0.42333-0.13618-0.42333-0.13618l-0.13001-0.0317h-5.0854c-2.3839 0-3.2438 2.3604-3.2438 2.3604l-0.057 0.1668v0.72276c0 1.6395 0.78739 2.7714 1.6171 3.2809 0.82968 0.50946 1.6837 0.50248 1.6837 0.50248h4.1764l1.8663-1.1908 0.0107 0.17312c0.0493 1.4784 2.3233 1.3472 2.1962-0.12667l-0.55012-9.1935v-5e-3c-0.0775-1.1163-0.80413-1.9165-1.4344-2.2559s-1.2421-0.37053-1.2421-0.37053l-0.0365-2e-3zm0.55012 8.1002h4.7556c0.0588 0.0169 0.28896 0.0764 0.57054 0.26074 0.30725 0.20117 0.48291 0.27235 0.4921 0.63234l0.0763 0.30366-2.3692 1.5127h-3.5253s-0.24624-7e-3 -0.51681-0.17312c-0.27058-0.16615-0.58344-0.38538-0.58344-1.4483v-0.41239c0.0566-0.16484 0.29419-0.67562 1.1002-0.67562z" fill-rule="evenodd" stroke-width=".54528"/>
  </g>
  <path d="m-453.36 297.42c-2.3268 0-4.2 1.8732-4.2 4.2v47.6c0 2.3268 1.8732 4.2 4.2 4.2h6.8v-56z" opacity=".3"/>
 </g>
</svg>
