<svg xmlns="http://www.w3.org/2000/svg" width="512" height="512" enable-background="new" version="1.0"><defs><filter id="a" width="1.048" height="1.048" x="-.024" y="-.024" color-interpolation-filters="sRGB"><feGaussianBlur stdDeviation="4.48"/></filter><filter id="b" width="1.072" height="1.072" x="-.036" y="-.036" color-interpolation-filters="sRGB"><feGaussianBlur stdDeviation="6.24"/></filter></defs><g transform="matrix(0 -1 -1 0 -208 228)"><rect width="448" height="448" x="-256" y="-688" filter="url(#a)" opacity=".2" rx="36" ry="36"/><rect width="448" height="448" x="-254" y="-688" opacity=".2" rx="36" ry="36"/><rect width="448" height="448" x="-256" y="-688" stroke="#000" stroke-width="8" filter="url(#a)" opacity=".1" rx="36" ry="36"/></g><rect width="448" height="448" x="32" y="32" fill="#e4e4e4" rx="33.6" ry="33.6"/><g stroke-width="8" filter="url(#b)" opacity=".15" transform="translate(0 6.136)"><circle cx="424" cy="88" r="40"/><circle cx="424" cy="200" r="40"/><circle cx="424" cy="312" r="40"/><circle cx="424" cy="424" r="40"/><circle cx="312" cy="200" r="40"/><circle cx="312" cy="312" r="40"/><circle cx="312" cy="424" r="40"/><circle cx="200" cy="312" r="40"/><circle cx="200" cy="424" r="40"/><circle cx="88" cy="312" r="40"/><circle cx="88" cy="424" r="40"/></g><g stroke-width="8"><path d="M144 144h112v112H144zM368 144h112v112H368zM65.6 32C46.986 32 32 46.986 32 65.6V144h112V32zM256 32h112v112H256zM32 368h112V256H32zM256 368h112V256H256zM144 480h112V368H144zM368 480V368h112v78.4c0 18.614-14.986 33.6-33.6 33.6z" opacity=".1"/><circle cx="424" cy="88" r="40" fill="#d12c6d"/><circle cx="424" cy="200" r="40" fill="#24a647"/><circle cx="424" cy="312" r="40" fill="#24a647"/><circle cx="424" cy="424" r="40" fill="#d12c6d"/><circle cx="312" cy="200" r="40" fill="#d12c6d"/><circle cx="312" cy="312" r="40" fill="#24a647"/><circle cx="312" cy="424" r="40" fill="#d12c6d"/><circle cx="200" cy="312" r="40" fill="#d12c6d"/><circle cx="200" cy="424" r="40" fill="#24a647"/><circle cx="88" cy="312" r="40" fill="#24a647"/><circle cx="88" cy="424" r="40" fill="#d12c6d"/></g><path fill="#fff" d="M68 32c-19.944 0-36 16.056-36 36v2c0-19.944 16.056-36 36-36h376c19.944 0 36 16.056 36 36v-2c0-19.944-16.056-36-36-36z" opacity=".2"/></svg>