<svg width="512" height="512" enable-background="new" version="1.0" xmlns="http://www.w3.org/2000/svg" xmlns:xlink="http://www.w3.org/1999/xlink">
 <defs>
  <filter id="a" x="-.034072" y="-.03816" width="1.0681" height="1.0763" color-interpolation-filters="sRGB">
   <feGaussianBlur stdDeviation="6.3600464"/>
  </filter>
 </defs>
 <g transform="matrix(1 0 0 .99999 -.5745 11.231)" opacity=".15" stroke-width="32.561">
  <path d="m455.67 52.802c13.806 0 24.909 14.196 24.909 28.002v279.96c0 13.806-11.103 27.481-24.909 28.002h-142.29l-56.004-29.076-55.092 12.047-54.246-13.806-61.474 6.1865c-13.708 1.3676-18.071-10.68-17.843-24.485l3.5165-207.74c0.2283-13.806 23.867-22.174 36.338-28.002l109.63-51.12z"/>
  <path d="m57.483 52.802c-13.773 0-24.909 14.196-24.909 28.002v279.96c0 13.806 11.136 28.002 24.909 28.002h79.122l56.004 64.014 56.004-64.014h70.233a501.43 501.43 0 0 0 41.124-30.705c61.735-53.692 80.522-152.77 23.281-216.82-39.17-43.761-109.18-56.916-154.79-15.01-30.346 27.872-39.333 78.373-9.2797 109.96 19.406 20.383 52.553 26.309 73.847 5.2748 13.22-13.057 16.997-39.398 2.67-53.236-8.4982-8.2378-23.444-10.517-32.04-1.1396-4.8841 5.3399-6.1865 17.745-0.26017 22.857 3.1584 2.7026 8.5635 3.3863 11.396-0.19555 1.3676-1.7583 1.7583-4.7213-0.32564-6.1866-0.91171-0.65128-2.4095-0.78136-3.0607 0.29291-0.19555 0.39111-0.22829 1.1071 0.26017 1.3676 0.19555 0.0973 0.5858 0.13008 0.5858-0.0974v-0.16282c-0.2929-0.0973 0-0.16282 0-0.16282 0.16282-0.0974 0.42299 0.0974 0.42299 0.26017 0.0974 0.55393-0.39111 1.042-0.87914 1.1396-1.2373 0.26017-2.1164-0.91162-2.4095-2.0187-0.39111-2.442 1.9537-4.2654 4.1678-4.5585 4.5585-0.5212 7.8796 3.7771 8.1727 7.9123 0.61854 7.8145-6.8377 13.415-14.001 13.708-12.764 0.58581-21.653-11.592-21.913-23.444-0.32564-19.862 18.722-33.57 37.347-33.472 29.923 0.16282 50.306 28.914 49.59 57.013-1.1071 43.599-43.175 73.163-84.397 71.438-61.865-2.6048-107.09-62.679-103.77-121.29 3.0281-53.627 38.259-95.891 84.234-118.68z"/>
 </g>
 <g transform="matrix(1 0 0 .99999 -.5745 10.282)" filter="url(#a)" opacity=".15" stroke-width="32.561">
  <path d="m455.67 52.802c13.806 0 24.909 14.196 24.909 28.002v279.96c0 13.806-11.103 27.481-24.909 28.002h-142.29l-56.004-29.076-55.092 12.047-54.246-13.806-61.474 6.1865c-13.708 1.3676-18.071-10.68-17.843-24.485l3.5165-207.74c0.2283-13.806 23.867-22.174 36.338-28.002l109.63-51.12z"/>
  <path d="m57.483 52.802c-13.773 0-24.909 14.196-24.909 28.002v279.96c0 13.806 11.136 28.002 24.909 28.002h79.122l56.004 64.014 56.004-64.014h70.233a501.43 501.43 0 0 0 41.124-30.705c61.735-53.692 80.522-152.77 23.281-216.82-39.17-43.761-109.18-56.916-154.79-15.01-30.346 27.872-39.333 78.373-9.2797 109.96 19.406 20.383 52.553 26.309 73.847 5.2748 13.22-13.057 16.997-39.398 2.67-53.236-8.4982-8.2378-23.444-10.517-32.04-1.1396-4.8841 5.3399-6.1865 17.745-0.26017 22.857 3.1584 2.7026 8.5635 3.3863 11.396-0.19555 1.3676-1.7583 1.7583-4.7213-0.32564-6.1866-0.91171-0.65128-2.4095-0.78136-3.0607 0.29291-0.19555 0.39111-0.22829 1.1071 0.26017 1.3676 0.19555 0.0973 0.5858 0.13008 0.5858-0.0974v-0.16282c-0.2929-0.0973 0-0.16282 0-0.16282 0.16282-0.0974 0.42299 0.0974 0.42299 0.26017 0.0974 0.55393-0.39111 1.042-0.87914 1.1396-1.2373 0.26017-2.1164-0.91162-2.4095-2.0187-0.39111-2.442 1.9537-4.2654 4.1678-4.5585 4.5585-0.5212 7.8796 3.7771 8.1727 7.9123 0.61854 7.8145-6.8377 13.415-14.001 13.708-12.764 0.58581-21.653-11.592-21.913-23.444-0.32564-19.862 18.722-33.57 37.347-33.472 29.923 0.16282 50.306 28.914 49.59 57.013-1.1071 43.599-43.175 73.163-84.397 71.438-61.865-2.6048-107.09-62.679-103.77-121.29 3.0281-53.627 38.259-95.891 84.234-118.68z"/>
 </g>
 <g transform="matrix(1 0 0 .99999 -.5745 3.2311)" stroke-width="32.561">
  <path d="m455.67 52.802c13.806 0 24.909 14.196 24.909 28.002v279.96c0 13.806-11.103 27.481-24.909 28.002h-142.29l-56.004-29.076-55.092 12.047-54.246-13.806-61.474 6.1865c-13.708 1.3676-18.071-10.68-17.843-24.485l3.5165-207.74c0.2283-13.806 23.867-22.174 36.338-28.002l109.63-51.12z" fill="#3c6eac"/>
  <path d="m57.483 52.802c-13.773 0-24.909 14.196-24.909 28.002v279.96c0 13.806 11.136 28.002 24.909 28.002h79.122l56.004 64.014 56.004-64.014h70.233a501.43 501.43 0 0 0 41.124-30.705c61.735-53.692 80.522-152.77 23.281-216.82-39.17-43.761-109.18-56.916-154.79-15.01-30.346 27.872-39.333 78.373-9.2797 109.96 19.406 20.383 52.553 26.309 73.847 5.2748 13.22-13.057 16.997-39.398 2.67-53.236-8.4982-8.2378-23.444-10.517-32.04-1.1396-4.8841 5.3399-6.1865 17.745-0.26017 22.857 3.1584 2.7026 8.5635 3.3863 11.396-0.19555 1.3676-1.7583 1.7583-4.7213-0.32564-6.1866-0.91171-0.65128-2.4095-0.78136-3.0607 0.29291-0.19555 0.39111-0.22829 1.1071 0.26017 1.3676 0.19555 0.0973 0.5858 0.13008 0.5858-0.0974v-0.16282c-0.2929-0.0973 0-0.16282 0-0.16282 0.16282-0.0974 0.42299 0.0974 0.42299 0.26017 0.0974 0.55393-0.39111 1.042-0.87914 1.1396-1.2373 0.26017-2.1164-0.91162-2.4095-2.0187-0.39111-2.442 1.9537-4.2654 4.1678-4.5585 4.5585-0.5212 7.8796 3.7771 8.1727 7.9123 0.61854 7.8145-6.8377 13.415-14.001 13.708-12.764 0.58581-21.653-11.592-21.913-23.444-0.32564-19.862 18.722-33.57 37.347-33.472 29.923 0.16282 50.306 28.914 49.59 57.013-1.1071 43.599-43.175 73.163-84.397 71.438-61.865-2.6048-107.09-62.679-103.77-121.29 3.0281-53.627 38.259-95.891 84.234-118.68z" fill="#6ae5e8"/>
 </g>
 <path d="m217.63 56-0.0664 0.03125-160.65 0.001953c-13.773 0-24.908 14.197-24.908 28.002v7.4395c0-13.529 11.135-27.441 24.908-27.441l160.65-0.001953 0.0664-0.03125 237.46 0.033203c13.806 0 24.908 13.912 24.908 27.441v-7.4395c0-13.805-11.103-28.002-24.908-28.002l-237.46-0.033203z" fill="#fff" opacity=".15" stroke-width="32.56"/>
</svg>
