<svg xmlns="http://www.w3.org/2000/svg" width="512" height="512" enable-background="new" version="1.0"><defs><filter id="a" width="1.068" height="1.076" x="-.034" y="-.038" color-interpolation-filters="sRGB"><feGaussianBlur stdDeviation="6.36"/></filter></defs><g stroke-width="32.561" opacity=".15"><path d="M455.096 64.032c13.806 0 24.909 14.196 24.909 28.002v279.957c0 13.806-11.103 27.481-24.91 28.002h-142.29l-56.003-29.076-55.092 12.047-54.246-13.806-61.474 6.187c-13.708 1.367-18.071-10.68-17.843-24.485l3.516-207.738c.228-13.806 23.867-22.174 36.338-28.002l109.63-51.119z"/><path d="M56.909 64.032c-13.774 0-24.91 14.196-24.91 28.002v279.957c0 13.806 11.136 28.002 24.91 28.002h79.122l56.003 64.013 56.004-64.013h70.233a501.43 501.425 0 0 0 41.124-30.705c61.735-53.691 80.523-152.768 23.281-216.817-39.17-43.761-109.18-56.916-154.79-15.01-30.346 27.871-39.333 78.372-9.28 109.959 19.407 20.382 52.554 26.308 73.848 5.274 13.22-13.056 16.997-39.397 2.67-53.235-8.498-8.238-23.444-10.517-32.04-1.14-4.884 5.34-6.187 17.745-.26 22.857 3.158 2.703 8.563 3.386 11.396-.195 1.367-1.759 1.758-4.722-.326-6.187-.912-.651-2.41-.781-3.06.293-.196.391-.229 1.107.26 1.368.195.097.585.13.585-.098v-.163c-.293-.097 0-.163 0-.163.163-.097.423.098.423.26.098.555-.39 1.043-.879 1.14-1.237.26-2.116-.911-2.41-2.018-.39-2.442 1.954-4.266 4.168-4.559 4.559-.521 7.88 3.777 8.173 7.912.619 7.815-6.838 13.415-14 13.708-12.765.586-21.654-11.592-21.914-23.444-.326-19.861 18.722-33.57 37.347-33.471 29.923.163 50.306 28.913 49.59 57.012-1.107 43.599-43.175 73.162-84.397 71.437-61.865-2.604-107.09-62.678-103.77-121.288 3.028-53.627 38.26-95.89 84.234-118.68z"/></g><g stroke-width="32.561" filter="url(#a)" opacity=".15" transform="matrix(1 0 0 .99999 -.575 10.282)"><path d="M455.67 52.802c13.806 0 24.909 14.196 24.909 28.002v279.96c0 13.806-11.103 27.481-24.909 28.002H313.38l-56.004-29.076-55.092 12.047-54.246-13.806-61.474 6.187c-13.708 1.367-18.071-10.68-17.843-24.485l3.516-207.74c.229-13.806 23.867-22.174 36.338-28.002l109.63-51.12z"/><path d="M57.483 52.802c-13.773 0-24.909 14.196-24.909 28.002v279.96c0 13.806 11.136 28.002 24.909 28.002h79.122l56.004 64.014 56.004-64.014h70.233a501 501 0 0 0 41.124-30.705c61.735-53.692 80.522-152.77 23.281-216.82-39.17-43.761-109.18-56.916-154.79-15.01-30.346 27.872-39.333 78.373-9.28 109.96 19.406 20.383 52.553 26.309 73.847 5.275 13.22-13.057 16.997-39.398 2.67-53.236-8.498-8.238-23.444-10.517-32.04-1.14-4.884 5.34-6.186 17.745-.26 22.857 3.159 2.703 8.564 3.387 11.396-.195 1.368-1.759 1.758-4.722-.326-6.187-.911-.651-2.409-.781-3.06.293-.196.391-.228 1.107.26 1.368.196.097.586.13.586-.098v-.163c-.293-.097 0-.162 0-.162.163-.098.423.097.423.26.097.554-.391 1.042-.88 1.14-1.237.26-2.116-.912-2.409-2.02-.391-2.441 1.954-4.265 4.168-4.558 4.558-.521 7.88 3.777 8.173 7.912.618 7.815-6.838 13.415-14.001 13.708-12.764.586-21.653-11.592-21.913-23.444-.326-19.862 18.722-33.57 37.347-33.472 29.923.163 50.306 28.914 49.59 57.013-1.107 43.6-43.175 73.163-84.397 71.438-61.865-2.604-107.09-62.679-103.77-121.29 3.028-53.627 38.259-95.89 84.234-118.68z"/></g><g stroke-width="32.561"><path fill="#3c6eac" d="M455.096 56.033c13.806 0 24.909 14.195 24.909 28.001v279.957c0 13.806-11.103 27.481-24.91 28.002h-142.29l-56.003-29.075-55.092 12.046-54.246-13.805-61.474 6.186c-13.708 1.368-18.071-10.68-17.843-24.485l3.516-207.738c.228-13.806 23.867-22.173 36.338-28.001L217.631 56z"/><path fill="#6ae5e8" d="M56.909 56.033c-13.774 0-24.91 14.195-24.91 28.001v279.957c0 13.806 11.136 28.002 24.91 28.002h79.122l56.003 64.014 56.004-64.014h70.233a501.43 501.425 0 0 0 41.124-30.704c61.735-53.692 80.523-152.769 23.281-216.818-39.17-43.76-109.18-56.916-154.79-15.01-30.346 27.872-39.333 78.372-9.28 109.959 19.407 20.383 52.554 26.308 73.848 5.274 13.22-13.056 16.997-39.397 2.67-53.235-8.498-8.238-23.444-10.517-32.04-1.14-4.884 5.34-6.187 17.745-.26 22.857 3.158 2.703 8.563 3.386 11.396-.195 1.367-1.759 1.758-4.722-.326-6.187-.912-.651-2.41-.781-3.06.293-.196.391-.229 1.107.26 1.368.195.097.585.13.585-.098v-.163c-.293-.097 0-.162 0-.162.163-.098.423.097.423.26.098.554-.39 1.042-.879 1.14-1.237.26-2.116-.912-2.41-2.02-.39-2.441 1.954-4.265 4.168-4.558 4.559-.521 7.88 3.777 8.173 7.912.619 7.815-6.838 13.415-14 13.708-12.765.586-21.654-11.592-21.914-23.443-.326-19.862 18.722-33.57 37.347-33.472 29.923.163 50.306 28.914 49.59 57.012-1.107 43.599-43.175 73.163-84.397 71.438-61.865-2.605-107.09-62.679-103.77-121.29 3.028-53.626 38.26-95.89 84.234-118.678z"/></g><path fill="#fff" d="m217.63 56-.066.031-160.65.002c-13.773 0-24.908 14.197-24.908 28.002v7.44c0-13.53 11.135-27.441 24.908-27.441l160.65-.002.066-.032 237.46.034c13.806 0 24.908 13.912 24.908 27.44v-7.439c0-13.805-11.103-28.002-24.908-28.002z" opacity=".15"/></svg>