<svg xmlns="http://www.w3.org/2000/svg" width="512" height="512" enable-background="new" version="1.0"><defs><filter id="a" width="1.048" height="1.048" x="-.024" y="-.024" color-interpolation-filters="sRGB"><feGaussianBlur stdDeviation="4.48"/></filter></defs><g transform="translate(-208 228)"><g transform="scale(1 -1)rotate(90)"><rect width="448" height="448" x="-256" y="-688" enable-background="new" filter="url(#a)" opacity=".2" rx="36" ry="36"/><rect width="448" height="448" x="-254" y="-688" enable-background="new" opacity=".2" rx="36" ry="36"/><rect width="448" height="448" x="-256" y="-688" stroke="#000" stroke-width="8" enable-background="new" filter="url(#a)" opacity=".1" rx="36" ry="36"/></g><rect width="448" height="448" x="-252" y="-688" fill="#f2f2f2" enable-background="new" rx="36" ry="36" transform="scale(1 -1)rotate(90)"/><path fill="#fff" d="M276-196c-19.944 0-36 16.056-36 36v2c0-19.944 16.056-36 36-36h376c19.944 0 36 16.056 36 36v-2c0-19.944-16.056-36-36-36z" enable-background="new" opacity=".2"/><path fill="#3f51b5" d="M559.574-18.982 542.688 5.33a88 88 0 0 0-29.71.023l-16.906-24.339-48.495 28 12.628 26.813a88 88 0 0 0-8.585 12.182 88 88 0 0 0-6.344 13.549l-29.448 2.446-.002 55.998 29.462 2.47a88 88 0 0 0 14.936 25.69l-12.643 26.834 48.495 27.999 16.887-24.313a88 88 0 0 0 29.71-.023l16.906 24.339 48.495-28-12.628-26.812a88 88 0 0 0 8.585-12.183 88 88 0 0 0 6.344-13.548l29.448-2.447.002-55.998-29.461-2.468a88 88 0 0 0-14.935-25.69L608.07 9.016l-48.494-27.998zm-15.75 83.277a32 32 0 0 1 11.713 43.711 32 32 0 0 1-43.711 11.712 32 32 0 0 1-11.712-43.71 32 32 0 0 1 43.71-11.713" enable-background="new"/><path fill="#f44336" d="M304-132v240h48V12h72v-48h-72v-48h112v-48z"/></g></svg>