<svg width="512" height="512" enable-background="new" version="1.0" xmlns="http://www.w3.org/2000/svg" xmlns:osb="http://www.openswatchbook.org/uri/2009/osb" xmlns:xlink="http://www.w3.org/1999/xlink">
 <title>Paper Icon Theme</title>
 <defs>
  <filter id="a" x="-.024" y="-.024" width="1.048" height="1.048" color-interpolation-filters="sRGB">
   <feGaussianBlur stdDeviation="4.48"/>
  </filter>
 </defs>
 <g transform="translate(0,212)">
  <g></g>
  <g transform="translate(-208,16)">
   <g>
    <rect transform="matrix(0,-1,-1,0,0,0)" x="-256" y="-688" width="448" height="448" rx="36" ry="36" enable-background="new" filter="url(#a)" opacity=".2"/>
    <rect transform="matrix(0,-1,-1,0,0,0)" x="-254" y="-688" width="448" height="448" rx="36" ry="36" enable-background="new" opacity=".2"/>
    <rect transform="matrix(0,-1,-1,0,0,0)" x="-256" y="-688" width="448" height="448" rx="36" ry="36" enable-background="new" filter="url(#a)" opacity=".1" stroke="#000" stroke-width="8"/>
   </g>
   <rect transform="matrix(0,-1,-1,0,0,0)" x="-252" y="-688" width="448" height="448" rx="36" ry="36" enable-background="new" fill="#f2f2f2"/>
   <path transform="translate(0,-244)" d="m276 48c-19.944 0-36 16.056-36 36v2c0-19.944 16.056-36 36-36h376c19.944 0 36 16.056 36 36v-2c0-19.944-16.056-36-36-36z" enable-background="new" fill="#fff" opacity=".2"/>
   <g transform="matrix(14.846 8.5714 -8.5714 14.846 -5842.4 -5739.2)" fill="#3f51b5">
    <path d="m490.26 102.25-0.144 1.7207a5.1331 5.1331 0 0 0-1.5002 0.86767l-1.564-0.73642-1.6332 2.829 1.42 0.98616a5.1331 5.1331 0 0 0-0.0784 0.86584 5.1331 5.1331 0 0 0 0.0747 0.86948l-1.4163 0.98251 1.6332 2.829 1.5604-0.73459a5.1331 5.1331 0 0 0 1.5038 0.86219l0.14401 1.7244h3.2665l0.14401-1.7208a5.1331 5.1331 0 0 0 1.5002-0.86767l1.564 0.73642 1.6332-2.829-1.42-0.98615a5.1331 5.1331 0 0 0 0.0784-0.86584 5.1331 5.1331 0 0 0-0.0747-0.86949l1.4163-0.98251-1.6332-2.829-1.5603 0.73459a5.1331 5.1331 0 0 0-1.5038-0.86219l-0.144-1.7244h-3.2665zm1.6333 4.6664a1.8666 1.8666 0 0 1 1.8666 1.8666 1.8666 1.8666 0 0 1-1.8666 1.8666 1.8666 1.8666 0 0 1-1.8666-1.8666 1.8666 1.8666 0 0 1 1.8666-1.8666z" enable-background="new" fill="#3f51b5"/>
   </g>
   <path d="m304-132v240h48v-96h72v-48h-72v-48h112v-48z" fill="#f44336"/>
  </g>
 </g>
</svg>
