<svg xmlns="http://www.w3.org/2000/svg" width="64" height="64"><defs><filter id="b" width="1.18" height="1.32" x="-.09" y="-.16" color-interpolation-filters="sRGB"><feGaussianBlur stdDeviation=".73"/></filter><filter id="c" width="1.131" height="1.18" x="-.065" y="-.09" color-interpolation-filters="sRGB"><feGaussianBlur stdDeviation=".73"/></filter><filter id="a" width="1.12" height="1.12" x="-.06" y="-.06" color-interpolation-filters="sRGB"><feGaussianBlur stdDeviation="1.15"/></filter></defs><path d="M24 18.125c12.703 0 23 10.297 23 23s-10.297 23-23 23-23-10.297-23-23 10.297-23 23-23" filter="url(#a)" opacity=".35" transform="translate(2.783 -17.425)scale(1.2174)"/><path fill="#c93939" d="M32 4c15.465 0 28 12.535 28 28S47.465 60 32 60 4 47.465 4 32 16.535 4 32 4"/><path d="M22.261 22.261h8.522l3.652-7.304c1.476 0 3.657-.01 3.043 1.217l-3.043 6.087h6.087l-1.217 3.652H21.044" filter="url(#b)" opacity=".15"/><path fill="#37abc8" d="M22.261 22.261h8.522l3.652-7.304c1.476 0 3.657-.01 3.043 1.217l-3.043 6.087h6.087l-1.217 3.652H21.044"/><path d="M34.435 28.348c0 2.925.085 6.044 2.435 8.522-3.122-2.786-3.652-3.653-3.652-9.74H21.044c-1.73 4.96-3.653 8.522-3.653 14.61 0 2.434 1.218 4.87 3.653 4.87h13.39c-.563-3.205-.928-5.281-1.217-8.523 1.157 3.273 1.668 5.188 3.652 8.522h3.653c1.862 0 3.682-2.066 3.652-4.87-.013-1.197-.122-2.474-2.851-4.986-1.988-1.826-3.236-3.912-3.236-5.97 0-1.536.195-2.568.609-3.652H36.26c-.91 0-1.826.273-1.826 1.217z" filter="url(#c)" opacity=".15"/><path fill="#f3d47f" d="M34.435 28.348c0 2.925.085 6.044 2.435 8.522-3.122-2.786-3.652-3.653-3.652-9.74H21.044c-1.73 4.96-3.653 8.522-3.653 14.61 0 2.434 1.218 4.87 3.653 4.87h13.39c-.563-3.205-.928-5.281-1.217-8.523 1.157 3.273 1.668 5.188 3.652 8.522h3.653c1.862 0 3.682-2.066 3.652-4.87-.013-1.197-.122-2.474-2.851-4.986-1.988-1.826-3.236-3.912-3.236-5.97 0-1.536.195-2.568.609-3.652H36.26c-.91 0-1.826.273-1.826 1.217z"/></svg>