<svg width="64" height="64" version="1.1" viewBox="0 0 64 64" xmlns="http://www.w3.org/2000/svg">
 <defs>
  <filter id="filter907" x="-.090001" y="-.16" width="1.18" height="1.32" color-interpolation-filters="sRGB">
   <feGaussianBlur stdDeviation="0.73043949"/>
  </filter>
  <filter id="filter911" x="-.065454" y="-.090001" width="1.1309" height="1.18" color-interpolation-filters="sRGB">
   <feGaussianBlur stdDeviation="0.73043949"/>
  </filter>
  <filter id="filter942" x="-.06" y="-.06" width="1.12" height="1.12" color-interpolation-filters="sRGB">
   <feGaussianBlur stdDeviation="1.15"/>
  </filter>
 </defs>
 <path transform="matrix(1.2174 0 0 1.2174 2.7826 -17.425)" d="m24 18.125c12.703 0 23 10.297 23 23s-10.297 23-23 23-23-10.297-23-23 10.297-23 23-23z" fill="#000000" filter="url(#filter942)" opacity=".35"/>
 <path d="m32 4c15.465 0 28 12.535 28 28s-12.535 28-28 28-28-12.535-28-28 12.535-28 28-28z" fill="#c93939" stroke-width="1.2174"/>
 <path d="m22.261 22.261h8.5217l3.6522-7.3043c1.4758 0 3.6572-0.0099 3.0435 1.2174l-3.0435 6.087h6.087l-1.2174 3.6522h-18.261" fill="#000000" filter="url(#filter907)" opacity=".15" stroke-width="1.2174"/>
 <path d="m22.261 22.261h8.5217l3.6522-7.3043c1.4758 0 3.6572-0.0099 3.0435 1.2174l-3.0435 6.087h6.087l-1.2174 3.6522h-18.261" fill="#37abc8" stroke-width="1.2174"/>
 <path d="m34.435 28.348c0 2.9254 0.08522 6.0443 2.4348 8.5217-3.1221-2.7861-3.6522-3.6522-3.6522-9.7391h-12.174c-1.7299 4.9594-3.6522 8.5217-3.6522 14.609 0 2.4348 1.2174 4.8696 3.6522 4.8696h13.391c-0.56387-3.2039-0.92854-5.2803-1.2174-8.5217 1.1564 3.273 1.6677 5.1877 3.6522 8.5217h3.6522c1.8625 0 3.6825-2.0664 3.6522-4.8696-0.01297-1.1979-0.1215-2.4746-2.8509-4.9861-1.988-1.8261-3.2361-3.9121-3.2361-5.9705 0-1.5361 0.19478-2.5675 0.6087-3.6522h-2.4348c-0.91044 0-1.8261 0.27357-1.8261 1.2174z" fill="#000000" filter="url(#filter911)" opacity=".15" stroke-width="1.2174"/>
 <path d="m34.435 28.348c0 2.9254 0.08522 6.0443 2.4348 8.5217-3.1221-2.7861-3.6522-3.6522-3.6522-9.7391h-12.174c-1.7299 4.9594-3.6522 8.5217-3.6522 14.609 0 2.4348 1.2174 4.8696 3.6522 4.8696h13.391c-0.56387-3.2039-0.92854-5.2803-1.2174-8.5217 1.1564 3.273 1.6677 5.1877 3.6522 8.5217h3.6522c1.8625 0 3.6825-2.0664 3.6522-4.8696-0.01297-1.1979-0.1215-2.4746-2.8509-4.9861-1.988-1.8261-3.2361-3.9121-3.2361-5.9705 0-1.5361 0.19478-2.5675 0.6087-3.6522h-2.4348c-0.91044 0-1.8261 0.27357-1.8261 1.2174z" fill="#f3d47f" stroke-width="1.2174"/>
</svg>
