<svg width="64" height="64" version="1.1" viewBox="0 0 64 64" xmlns="http://www.w3.org/2000/svg">
 <defs>
  <filter id="filter942" x="-.06" y="-.06" width="1.12" height="1.12" color-interpolation-filters="sRGB">
   <feGaussianBlur stdDeviation="1.15"/>
  </filter>
 </defs>
 <path transform="matrix(1.2174 0 0 1.2174 2.7826 -17.425)" d="m24 18.125c12.703 0 23 10.297 23 23s-10.297 23-23 23-23-10.297-23-23 10.297-23 23-23z" fill="#000000" filter="url(#filter942)" opacity=".35"/>
 <circle cx="32" cy="32" r="28" fill="#f9548f" stroke-width="3.5"/>
 <path d="m18.027 26.48c0.18661-0.55786 0.21987-0.89274 0.29119-1.2175-0.51416 0.6427-0.23707 0.7797-0.29119 1.2175m0.95025-3.8779c0.09274 0.83721-0.6444 1.1636 0.16293 0.61057 0.43354-0.95391-0.16857-0.26385-0.16293-0.61057m14.11-7.3316c0.40197-0.14348 0.98689-0.07893 1.4151-0.17336-0.55673 0.04538-1.1101 0.07273-1.6564 0.14066l0.24141 0.03264m12.912 15.639-0.0871 0.2146c-0.16068 1.1112-0.5074 2.2106-1.0373 3.2304 0.58633-1.0757 0.96406-2.2526 1.1247-3.445m-16.342 3.4723c-0.20775-0.22382-0.3284-0.49274-0.46624-0.76138 0.13136 0.47075 0.4 0.87554 0.64947 1.2877l-0.18323-0.526m-0.92318 0.03524-0.084 0.40705c0.39098 0.51896 0.70134 1.081 1.1997 1.4853-0.35884-0.68386-0.62495-0.96631-1.1157-1.8923m4.8668-18.696-0.22379 0.0455 0.20792-0.0186 0.01579-0.02678m-0.63257-0.17196c0.31741 0.05519 0.68575 0.09798 0.63281 0.17223 0.34889-0.07493 0.42641-0.14258-0.63259-0.17218m6.6199 14.298c0.07239-1.0462-0.21043-0.71498-0.30548-0.31648 0.11058 0.05677 0.19848 0.7379 0.30548 0.31648m-1.1771 2.9953c0.35518-0.4778 0.61452-1.0004 0.70472-1.5408-0.08175 0.38478-0.29316 0.71741-0.49612 1.0686-1.1101 0.68386-0.1043-0.40592 0-0.82058-1.1941 1.4706-0.1635 0.88175-0.2086 1.2927m-3.189 0.77632c-0.59425 0.0076 0.11177 0.29858 0.88781 0.41562 0.21519-0.16406 0.40848-0.32891 0.58193-0.48987-0.48248 0.11549-0.97409 0.1182-1.4697 0.07427m-17.194-7.1388c0.18661-0.5587 0.21987-0.89387 0.29119-1.2178-0.51445 0.64299-0.23707 0.78027-0.29119 1.2178m0.94968-3.8779c0.09274 0.83749-0.64412 1.1631 0.16321 0.61001 0.43354-0.95391-0.16857-0.263-0.16321-0.61001m14.109-7.3333c0.40132-0.14345 0.9872-0.07893 1.4144-0.17339-0.55605 0.0455-1.1093 0.07269-1.6554 0.14075l0.24104 0.03267m12.913 15.641-0.0871 0.2146c-0.16068 1.1115-0.5074 2.2108-1.0373 3.2307 0.58633-1.0757 0.96406-2.2526 1.1247-3.445m-16.341 3.4717c-0.20691-0.22382-0.3284-0.49302-0.46624-0.76053 0.13136 0.47104 0.40028 0.87554 0.64975 1.2877l-0.18351-0.52713m-0.92318 0.03495-0.084 0.40705c0.39098 0.51924 0.70134 1.0813 1.1997 1.4856-0.35884-0.68386-0.62495-0.96631-1.1157-1.8926m4.8662-18.697-0.22314 0.0455 0.20803-0.0186 0.01522-0.02678m8.8626 14.562c0.03279 0.87842-0.25674 1.3053-0.51862 2.0602l-0.4709 0.23377c-0.38495 0.74681 0.03822 0.47414-0.23746 1.0679-0.60163 0.53339-1.8232 1.6685-2.2142 1.7725-0.28589-0.0065 0.19338-0.33669 0.25604-0.46576-0.8062 0.55137-0.64552 0.82762-1.8765 1.1634l-0.0358-0.08034c-3.0337 1.4252-7.2482-1.3987-7.1929-5.2513-0.03214 0.2444-0.09218 0.18323-0.15927 0.28132-0.15645-1.982 0.91726-3.9727 2.7278-4.7865 1.7711-0.87498 3.8475-0.51642 5.116 0.66498-0.69739-0.91134-2.0846-1.8774-3.7274-1.788-1.6101 0.02622-3.1168 1.0475-3.6192 2.1567-0.82452 0.51811-0.92065 1.9986-1.2798 2.2695-0.48403 3.5487 0.90937 5.081 3.2668 6.8851 0.37001 0.24942 0.10416 0.28761 0.15368 0.47741-0.78308-0.36589-1.4996-0.91867-2.0896-1.5952 0.31318 0.45694 0.65088 0.9012 1.0875 1.2505-0.73883-0.24919-1.7254-1.7863-2.0127-1.8489 1.2727 2.2751 5.1633 3.9893 7.2017 3.138-0.9432 0.03665-2.1409 0.01973-3.2-0.3704-0.44623-0.22889-1.0503-0.7019-0.94207-0.79013 2.7811 1.0366 5.653 0.78464 8.0586-1.1406 0.61257-0.47631 1.2812-1.286 1.4746-1.2969-0.29099 0.43701 0.04989 0.21015-0.17373 0.59594 0.60894-0.98204-0.26551-0.39994 0.63005-1.6958l0.33068 0.45449c-0.1238-0.8159 1.0143-1.8054 0.89846-3.0949 0.26111-0.39411 0.29099 0.42469 0.01409 1.3315 0.38421-1.0061 0.10162-1.1679 0.19994-1.9984 0.10599 0.27924 0.24691 0.57556 0.31868 0.87044-0.25057-0.9726 0.25604-1.6373 0.38204-2.2027-0.12454-0.05454-0.38641 0.42977-0.44685-0.71845 0.0093-0.49886 0.13951-0.26142 0.18937-0.3843-0.09762-0.05635-0.35509-0.43884-0.51134-1.1722 0.11253-0.17271 0.303 0.44685 0.45742 0.47194-0.09942-0.58286-0.27022-1.0275-0.27752-1.4751-0.45158-0.9417-0.15989 0.12581-0.52552-0.40431-0.48073-1.4958 0.39845-0.34723 0.45815-1.0264 0.72767 1.0526 1.1425 2.6852 1.3337 3.361-0.14568-0.82424-0.38058-1.6231-0.66794-2.3957 0.22179 0.09345-0.35653-1.6955 0.28806-0.51084-0.69074-2.5249-2.9443-4.8843-5.0185-5.9913 0.25373 0.23171 0.57443 0.52242 0.4599 0.56826-1.0317-0.61282-0.8513-0.66131-1.0007-0.92008-0.84003-0.34137-0.89359 0.02791-1.4517 8.06e-4 -1.5828-0.83946-1.8878-0.7501-3.3449-1.2753l0.0663 0.3098c-1.0492-0.34926-1.2225 0.13164-2.3566 5.64e-4 -0.06878-0.05328 0.36364-0.19478 0.71966-0.24609-1.0145 0.1339-0.96716-0.19986-1.96 0.03665 0.2444-0.17111 0.50373-0.28499 0.76448-0.43044-0.82706 0.05018-1.9755 0.48062-1.6211 0.0888-1.3494 0.60127-3.746 1.4452-5.0909 2.7044l-0.04228-0.28217c-0.61621 0.73827-2.6875 2.2055-2.8524 3.1631l-0.16519 0.03805c-0.31994 0.54207-0.52798 1.1563-0.78224 1.7136-0.41917 0.71374-0.6148 0.27484-0.55504 0.38675-0.8248 1.6696-1.2352 3.0726-1.589 4.2235 0.25201 0.37632 0.0065 2.2661 0.10148 3.7781-0.41381 7.4695 5.2507 14.722 11.443 16.394 0.9074 0.32699 2.2568 0.31572 3.4049 0.34672-1.3542-0.38619-1.529-0.20578-2.8488-0.66526-0.95166-0.4482-1.16-0.95842-1.8342-1.5419l0.26695 0.47084c-1.3221-0.46794-0.76899-0.57787-1.845-0.91896l0.28527-0.36927c-0.4265-0.03383-1.1329-0.72163-1.3268-1.105l-0.46909 0.0186c-0.56293-0.69344-0.86342-1.1924-0.84115-1.5814l-0.15166 0.27061c-0.17139-0.29598-2.0724-2.6046-1.0864-2.0662-0.18323-0.16631-0.42678-0.27061-0.69091-0.74982l0.20068-0.22866c-0.47385-0.6117-0.87329-1.3925-0.84256-1.6519 0.25314 0.34108 0.42847 0.4031 0.60268 0.4623-1.1986-2.9683-1.266-0.1635-2.1731-3.0213l0.19154-0.01522c-0.14686-0.22213-0.23707-0.46173-0.3549-0.69767l0.08372-0.83101c-0.8623-0.99591-0.24073-4.2348-0.11586-6.0107 0.08541-0.7222 0.71994-1.4918 1.2008-2.6977l-0.29345-0.04989c0.56152-0.97759 3.2056-3.9267 4.4307-3.7753 0.59309-0.7439-0.11811-0.0028-0.23425-0.18971 1.3035-1.3463 1.7133-0.95109 2.5928-1.1935 0.94799-0.5618-0.81409 0.21959-0.36476-0.21424 1.64-0.41776 1.1619-0.95053 3.3009-1.1625 0.22579 0.12798-0.52347 0.19788-0.71149 0.36392 1.3657-0.66751 4.3228-0.51501 6.2444 0.37012 2.228 1.0404 4.7312 4.1139 4.8327 7.0055l0.11253 0.03016c-0.0568 1.1497 0.17626 2.4792-0.22833 3.7001l0.27352-0.57846m-9.4965-14.733c0.31741 0.05519 0.68572 0.09798 0.63281 0.17223 0.34841-0.07504 0.42678-0.14269-0.63281-0.17223m6.6218 14.299c0.07239-1.0462-0.2104-0.71498-0.30548-0.31648 0.11058 0.05677 0.19848 0.73793 0.30548 0.31648m-1.1783 2.9953c0.35518-0.4778 0.61452-1.0004 0.70472-1.5408-0.08175 0.38478-0.29316 0.71712-0.49612 1.0686-1.1101 0.68386-0.1043-0.40592 0-0.82058-1.1941 1.4706-0.1635 0.88175-0.2086 1.2927m-3.1884 0.77717c-0.59422 0.0076 0.11163 0.29852 0.88767 0.4155 0.21508-0.16406 0.40846-0.32896 0.58182-0.48992-0.48231 0.11557-0.97392 0.11839-1.4695 0.07442" fill="#ffffff" stroke-width="2.8189"/>
</svg>
