<svg xmlns="http://www.w3.org/2000/svg" width="64" height="64"><defs><filter id="a" width="1.12" height="1.12" x="-.06" y="-.06" color-interpolation-filters="sRGB"><feGaussianBlur stdDeviation="1.15"/></filter></defs><path d="M24 18.125c12.703 0 23 10.297 23 23s-10.297 23-23 23-23-10.297-23-23 10.297-23 23-23" filter="url(#a)" opacity=".35" transform="translate(2.783 -17.425)scale(1.2174)"/><circle cx="32" cy="32" r="28" fill="#f9548f"/><path fill="#fff" d="M18.027 26.48c.187-.558.22-.893.291-1.217-.514.642-.237.78-.291 1.217m.95-3.878c.093.837-.644 1.164.163.61.434-.953-.168-.263-.163-.61m14.11-7.331c.402-.144.987-.08 1.415-.174-.556.046-1.11.073-1.656.14zM46 30.91l-.087.214a10.2 10.2 0 0 1-1.037 3.23A10 10 0 0 0 46 30.91m-16.342 3.473c-.208-.224-.329-.493-.467-.762.132.471.4.876.65 1.288zm-.924.035-.084.407c.391.52.702 1.081 1.2 1.486-.359-.684-.625-.967-1.116-1.893m4.867-18.696-.224.046.208-.019zm-.632-.171c.317.055.685.097.632.172.35-.075.427-.143-.632-.172m6.62 14.298c.072-1.047-.21-.715-.306-.317.11.057.199.738.306.317m-1.177 2.995c.355-.478.614-1 .704-1.54-.081.384-.293.716-.496 1.068-1.11.684-.104-.406 0-.82-1.194 1.47-.163.88-.208 1.292m-3.19.776c-.594.008.112.299.888.416q.323-.248.582-.49c-.482.115-.974.118-1.47.074M18.03 26.48c.186-.558.22-.894.29-1.217-.514.643-.236.78-.29 1.217m.95-3.878c.092.838-.645 1.164.163.61.433-.953-.169-.263-.164-.61m14.11-7.333c.4-.143.987-.079 1.414-.173-.556.045-1.11.072-1.656.14zM46 30.91l-.087.215a10.2 10.2 0 0 1-1.037 3.23 10 10 0 0 0 1.125-3.445M29.66 34.382c-.207-.224-.329-.493-.467-.76.132.47.4.875.65 1.287zm-.923.035-.084.407c.39.52.7 1.081 1.2 1.486-.36-.684-.626-.967-1.116-1.893m4.866-18.697-.223.046.208-.019zm8.862 14.562c.033.879-.256 1.306-.518 2.06l-.471.234c-.385.747.038.474-.238 1.068-.601.534-1.823 1.669-2.214 1.773-.286-.007.194-.337.256-.466-.806.551-.645.828-1.876 1.163l-.036-.08c-3.034 1.425-7.248-1.399-7.193-5.251-.032.244-.092.183-.16.281-.156-1.982.918-3.973 2.729-4.787 1.77-.874 3.847-.516 5.116.665-.698-.91-2.085-1.877-3.728-1.788-1.61.027-3.117 1.048-3.619 2.157-.824.518-.92 1.999-1.28 2.27-.484 3.548.91 5.08 3.267 6.885.37.25.104.287.154.477a6.4 6.4 0 0 1-2.09-1.595c.313.457.651.901 1.088 1.25-.74-.249-1.726-1.786-2.013-1.848 1.273 2.275 5.163 3.989 7.202 3.138-.944.036-2.141.02-3.2-.37-.447-.23-1.05-.703-.942-.79 2.78 1.036 5.653.784 8.058-1.142.613-.476 1.281-1.286 1.475-1.296-.291.437.05.21-.174.596.609-.983-.266-.4.63-1.696l.33.454c-.123-.816 1.015-1.805.9-3.095.26-.394.29.425.013 1.332.384-1.006.102-1.168.2-1.999.106.28.247.576.319.87-.25-.972.256-1.636.382-2.202-.125-.054-.386.43-.447-.718.01-.5.14-.262.19-.385-.098-.056-.356-.438-.512-1.172.113-.173.303.447.458.472-.1-.583-.27-1.027-.278-1.475-.452-.942-.16.126-.525-.404-.481-1.496.398-.348.458-1.027.727 1.053 1.142 2.686 1.333 3.361a13.7 13.7 0 0 0-.668-2.395c.222.093-.356-1.696.288-.511-.69-2.525-2.944-4.885-5.018-5.992.254.232.574.523.46.569-1.032-.613-.851-.662-1-.92-.84-.342-.894.028-1.453 0-1.582-.839-1.887-.75-3.344-1.275l.066.31c-1.05-.35-1.223.132-2.357 0-.069-.053.364-.194.72-.246-1.015.134-.967-.2-1.96.037.244-.171.504-.285.764-.43-.827.05-1.975.48-1.62.088-1.35.602-3.747 1.446-5.092 2.705l-.042-.282c-.616.738-2.687 2.205-2.852 3.163l-.165.038c-.32.542-.528 1.156-.783 1.713-.419.714-.614.275-.555.387-.825 1.67-1.235 3.073-1.589 4.224.252.376.007 2.266.102 3.778-.414 7.47 5.25 14.722 11.443 16.394.907.327 2.257.315 3.405.346-1.355-.386-1.53-.205-2.85-.665-.95-.448-1.16-.958-1.833-1.542l.267.471c-1.323-.468-.77-.578-1.845-.919l.285-.37c-.427-.033-1.133-.72-1.327-1.104l-.469.019c-.563-.694-.863-1.193-.841-1.582l-.152.27c-.171-.295-2.072-2.604-1.086-2.065-.183-.167-.427-.271-.691-.75l.2-.229c-.473-.612-.873-1.392-.842-1.652.253.341.428.403.603.462-1.199-2.968-1.266-.163-2.173-3.02l.191-.016c-.147-.222-.237-.462-.355-.698l.084-.83c-.862-.997-.24-4.236-.116-6.011.085-.723.72-1.492 1.2-2.698l-.293-.05c.562-.978 3.206-3.927 4.431-3.775.593-.744-.118-.003-.234-.19 1.303-1.346 1.713-.951 2.593-1.194.948-.561-.814.22-.365-.214 1.64-.418 1.162-.95 3.3-1.162.227.128-.523.198-.71.364 1.365-.668 4.322-.515 6.244.37 2.228 1.04 4.73 4.114 4.832 7.005l.113.03c-.057 1.15.176 2.48-.228 3.7l.273-.578M32.97 15.547c.317.055.685.098.632.172.349-.075.427-.142-.632-.172m6.621 14.3c.073-1.047-.21-.716-.305-.317.11.056.198.738.305.316m-1.178 2.995c.355-.477.615-1 .705-1.54-.082.384-.293.717-.496 1.068-1.11.684-.105-.406 0-.82-1.194 1.47-.164.881-.209 1.292m-3.188.777c-.594.008.111.299.887.416q.322-.247.582-.49c-.482.116-.974.118-1.47.074"/></svg>