<svg width="512" height="512" enable-background="new" version="1.0" xmlns="http://www.w3.org/2000/svg">
 <defs>
  <filter id="a" x="-.0216" y="-.027" width="1.0432" height="1.054" color-interpolation-filters="sRGB">
   <feGaussianBlur stdDeviation="4.3200301"/>
  </filter>
 </defs>
 <g transform="translate(0,212)">
  <g>
   <g transform="translate(-208,16)">
    <g fill-rule="evenodd" shape-rendering="auto">
     <g>
      <path d="m464-160a64 64 0 0 0-64 64h-176a64 64 0 0 0 64 64v208c0 26.592 21.408 48 48 48h256c26.592 0 48-21.408 48-48v-112h16s11.338 0.21867 23.154-5.6895c11.816-5.9081 24.844-20.977 24.844-42.311v-128s0.22058-11.34-5.6875-23.156c-5.9081-11.816-20.977-24.844-42.311-24.844h-32l0.35742 4e-3c-21.608-0.48239-37.067 12.694-42.922 24.717-5.612 11.523-5.458 22.444-5.4356 23.34v15.938h-48a64 64 0 0 0-64-64zm159.64 31.998 0.17773 4e-3h32.18c1e-4 -6e-3 16-6e-3 15.998 16v128c0 10.667-2.9706 11.598-7.1543 13.689-4.1836 2.0916-8.8438 2.3105-8.8438 2.3105h-16v-112c0-8.864-7.136-16-16-16h-16v-16.117l-2e-3 -0.11719c2e-3 -15.77 15.645-15.768 15.645-15.768z" color="#000000" color-rendering="auto" enable-background="new" filter="url(#a)" image-rendering="auto" opacity=".1" solid-color="#000000" style="isolation:auto;mix-blend-mode:normal;text-decoration-color:#000000;text-decoration-line:none;text-decoration-style:solid;text-indent:0;text-transform:none;white-space:normal"/>
      <path d="m464-160a64 64 0 0 0-64 64h-176a64 64 0 0 0 64 64v208c0 26.592 21.408 48 48 48h256c26.592 0 48-21.408 48-48v-112h16s11.338 0.21867 23.154-5.6895c11.816-5.9081 24.844-20.977 24.844-42.311v-128s0.22058-11.34-5.6875-23.156c-5.9081-11.816-20.977-24.844-42.311-24.844h-32l0.35742 4e-3c-21.608-0.48239-37.067 12.694-42.922 24.717-5.612 11.523-5.458 22.444-5.4356 23.34v15.938h-48a64 64 0 0 0-64-64zm159.64 31.998 0.17773 4e-3h32.18c1e-4 -6e-3 16-6e-3 15.998 16v128c0 10.667-2.9706 11.598-7.1543 13.689-4.1836 2.0916-8.8438 2.3105-8.8438 2.3105h-16v-112c0-8.864-7.136-16-16-16h-16v-16.117l-2e-3 -0.11719c2e-3 -15.77 15.645-15.768 15.645-15.768z" color="#000000" color-rendering="auto" enable-background="new" filter="url(#a)" image-rendering="auto" opacity=".2" solid-color="#000000" style="isolation:auto;mix-blend-mode:normal;text-decoration-color:#000000;text-decoration-line:none;text-decoration-style:solid;text-indent:0;text-transform:none;white-space:normal"/>
      <path d="m464-162a64 64 0 0 0-64 64h-176a64 64 0 0 0 64 64v208c0 26.592 21.408 48 48 48h256c26.592 0 48-21.408 48-48v-112h16s11.338 0.21867 23.154-5.6895c11.816-5.9081 24.844-20.977 24.844-42.311v-128s0.22058-11.34-5.6875-23.156c-5.9081-11.816-20.977-24.844-42.311-24.844h-32l0.35742 4e-3c-21.608-0.48239-37.067 12.694-42.922 24.717-5.612 11.523-5.458 22.444-5.4356 23.34v15.938h-48a64 64 0 0 0-64-64zm159.64 31.998 0.17773 4e-3h32.18c1e-4 -6e-3 16-6e-3 15.998 16v128c0 10.667-2.9706 11.598-7.1543 13.689-4.1836 2.0916-8.8438 2.3105-8.8438 2.3105h-16v-112c0-8.864-7.136-16-16-16h-16v-16.117l-2e-3 -0.11719c2e-3 -15.77 15.645-15.768 15.645-15.768z" color="#000000" color-rendering="auto" enable-background="new" image-rendering="auto" opacity=".2" solid-color="#000000" style="isolation:auto;mix-blend-mode:normal;text-decoration-color:#000000;text-decoration-line:none;text-decoration-style:solid;text-indent:0;text-transform:none;white-space:normal"/>
     </g>
     <path d="m624-163.99 0.35742 4e-3c-21.608-0.48239-37.067 12.694-42.922 24.717-5.855 12.022-5.4336 23.512-5.4336 23.512l-2e-3 -0.23437v32.002h32v-32.119l-2e-3 -0.11719c0.00205-15.77 15.645-15.768 15.645-15.768l0.17773 4e-3h32.18c1e-4 -0.00604 16-0.00604 15.998 16v128c0 10.667-2.9706 11.598-7.1543 13.689-4.1836 2.0917-8.8436 2.3104-8.8436 2.3104h-48v32h48s11.338 0.21868 23.154-5.6895c11.816-5.9081 24.844-20.977 24.844-42.311v-128s0.22058-11.34-5.6875-23.156c-5.9081-11.816-20.977-24.844-42.311-24.844z" color="#000000" color-rendering="auto" enable-background="new" fill="#fbc02d" image-rendering="auto" solid-color="#000000" style="isolation:auto;mix-blend-mode:normal;text-decoration-color:#000000;text-decoration-line:none;text-decoration-style:solid;text-indent:0;text-transform:none;white-space:normal"/>
     <path transform="translate(0,-244)" d="m622.35 80.004c-20.557 0.34569-35.242 13.076-40.914 24.723-5.612 11.523-5.458 22.444-5.4356 23.34v1.4707c0.012-2.5913 0.40412-12.479 5.4356-22.811 5.855-12.022 21.314-25.199 42.922-24.717l-0.35742-0.003907h32c21.333 0 36.402 13.028 42.311 24.844 5.9081 11.816 5.6875 23.156 5.6875 23.156v-2s0.22058-11.34-5.6875-23.156c-5.9081-11.816-20.977-24.844-42.311-24.844h-32l0.35742 0.0039c-0.67524-0.01507-1.3447-0.01701-2.0078-0.0059zm-14.35 49.703c-6e-5 0.0215-2e-3 0.041-2e-3 0.0625l2e-3 0.11719zm63.998 126.3c0 10.667-2.9706 11.598-7.1543 13.689-4.1836 2.0917-8.8438 2.3106-8.8438 2.3106h-48v2h48s4.6602-0.21886 8.8438-2.3106c4.1837-2.0919 7.1543-3.0228 7.1543-13.689z" color="#000000" color-rendering="auto" enable-background="new" fill="#fff" image-rendering="auto" opacity=".2" solid-color="#000000" style="isolation:auto;mix-blend-mode:normal;text-decoration-color:#000000;text-decoration-line:none;text-decoration-style:solid;text-indent:0;text-transform:none;white-space:normal"/>
    </g>
    <circle cx="464" cy="-99.997" r="64" fill="#fbc02d"/>
    <path transform="translate(0,-244)" d="m224 144a64 64 0 0 0 64 64v208c0 26.592 21.408 48 48 48h256c26.592 0 48-21.408 48-48v-256c0-8.864-7.136-16-16-16h-272z" enable-background="new" fill="#ffd600"/>
    <path transform="translate(0,-244)" d="m224 144a64 64 0 0 0 0.0996 2h399.9c8.864 0 16 7.136 16 16v-2c0-8.864-7.136-16-16-16h-272z" enable-background="new" fill="#fff" opacity=".2"/>
    <path transform="translate(0,-244)" d="m464 80.004a64 64 0 0 0-64 64 64 64 0 0 0 0.041 1.1719 64 64 0 0 1 63.959-63.172 64 64 0 0 1 63.959 62.828 64 64 0 0 0 0.04102-0.82812 64 64 0 0 0-64-64z" fill="#fff" opacity=".2"/>
    <g fill-rule="evenodd">
     <path d="m368 12.004-32 47.996 32 48.004 32-48.004zm96 0-32 47.996 32 48.004 32-48.004zm96 0.0039-32 47.992 32 48.008 32-48.008z" fill="#f44336"/>
     <path transform="translate(0,-244)" d="m336.67 303-0.66602 1 32 48.004 32-48.004-0.66602-1-31.334 47.004zm96 0-0.66602 1 32 48.004 32-48.004-0.66602-1-31.334 47.004zm96 0-0.66602 1 32 48.008 32-48.008-0.66602-1-31.334 47.008z" opacity=".2"/>
     <path d="m336.67 59.016-0.66602-1 32-48.004 32 48.004-0.66602 1-31.334-47.004zm96 0-0.66602-1 32-48.004 32 48.004-0.66602 1-31.334-47.004zm96 0-0.66602-1 32-48.008 32 48.008-0.66602 1-31.334-47.008z" fill="#fff" opacity=".2"/>
    </g>
    <path transform="translate(0,-244)" d="m224 144c-3e-5 35.346 28.654 64 64 64v-4c-33.764-0.0401-61.689-26.302-63.799-60z" enable-background="new" opacity=".2"/>
   </g>
  </g>
 </g>
</svg>
