<svg xmlns="http://www.w3.org/2000/svg" width="512" height="512" enable-background="new" version="1.0"><defs><filter id="a" width="1.043" height="1.054" x="-.022" y="-.027" color-interpolation-filters="sRGB"><feGaussianBlur stdDeviation="4.32"/></filter></defs><g transform="translate(-208 228)"><g fill-rule="evenodd" color="#000"><path d="M464-160a64 64 0 0 0-64 64H224a64 64 0 0 0 64 64v208c0 26.592 21.408 48 48 48h256c26.592 0 48-21.408 48-48V64h16s11.338.219 23.154-5.69c11.816-5.908 24.844-20.977 24.844-42.31v-128s.22-11.34-5.687-23.156C692.402-146.972 677.334-160 656-160h-32l.357.004c-21.608-.483-37.067 12.694-42.922 24.717-5.612 11.523-5.458 22.444-5.436 23.34v15.938h-48a64 64 0 0 0-64-64zm159.64 31.998.178.004h32.18c0-.006 16-.006 15.998 16v128c0 10.667-2.97 11.598-7.155 13.689-4.183 2.092-8.843 2.31-8.843 2.31h-16v-112c0-8.864-7.136-16-16-16h-16v-16.117l-.002-.117C607.998-128.003 623.64-128 623.64-128z" enable-background="new" filter="url(#a)" opacity=".1" style="isolation:auto;mix-blend-mode:normal;text-decoration-color:#000;text-decoration-line:none;text-decoration-style:solid;text-indent:0;text-transform:none;white-space:normal"/><path d="M464-160a64 64 0 0 0-64 64H224a64 64 0 0 0 64 64v208c0 26.592 21.408 48 48 48h256c26.592 0 48-21.408 48-48V64h16s11.338.219 23.154-5.69c11.816-5.908 24.844-20.977 24.844-42.31v-128s.22-11.34-5.687-23.156C692.402-146.972 677.334-160 656-160h-32l.357.004c-21.608-.483-37.067 12.694-42.922 24.717-5.612 11.523-5.458 22.444-5.436 23.34v15.938h-48a64 64 0 0 0-64-64zm159.64 31.998.178.004h32.18c0-.006 16-.006 15.998 16v128c0 10.667-2.97 11.598-7.155 13.689-4.183 2.092-8.843 2.31-8.843 2.31h-16v-112c0-8.864-7.136-16-16-16h-16v-16.117l-.002-.117C607.998-128.003 623.64-128 623.64-128z" enable-background="new" filter="url(#a)" opacity=".2" style="isolation:auto;mix-blend-mode:normal;text-decoration-color:#000;text-decoration-line:none;text-decoration-style:solid;text-indent:0;text-transform:none;white-space:normal"/><path d="M464-162a64 64 0 0 0-64 64H224a64 64 0 0 0 64 64v208c0 26.592 21.408 48 48 48h256c26.592 0 48-21.408 48-48V62h16s11.338.219 23.154-5.69c11.816-5.908 24.844-20.977 24.844-42.31v-128s.22-11.34-5.687-23.156C692.402-148.972 677.334-162 656-162h-32l.357.004c-21.608-.483-37.067 12.694-42.922 24.717-5.612 11.523-5.458 22.444-5.436 23.34v15.938h-48a64 64 0 0 0-64-64zm159.64 31.998.178.004h32.18c0-.006 16-.006 15.998 16v128c0 10.667-2.97 11.598-7.155 13.689-4.183 2.092-8.843 2.31-8.843 2.31h-16v-112c0-8.864-7.136-16-16-16h-16v-16.117l-.002-.117C607.998-130.003 623.64-130 623.64-130z" enable-background="new" opacity=".2" style="isolation:auto;mix-blend-mode:normal;text-decoration-color:#000;text-decoration-line:none;text-decoration-style:solid;text-indent:0;text-transform:none;white-space:normal"/><path fill="#fbc02d" d="m624-163.99.357.004c-21.608-.482-37.067 12.694-42.922 24.717s-5.433 23.512-5.433 23.512l-.002-.234v32.002h32v-32.12l-.002-.117c.002-15.77 15.645-15.768 15.645-15.768l.178.004H656c0-.006 16-.006 15.998 16v128c0 10.667-2.971 11.598-7.155 13.69-4.183 2.091-8.843 2.31-8.843 2.31h-48v32h48s11.338.219 23.154-5.69c11.816-5.908 24.844-20.977 24.844-42.31v-128s.22-11.34-5.688-23.157-20.977-24.844-42.31-24.844z" enable-background="new" style="isolation:auto;mix-blend-mode:normal;text-decoration-color:#000;text-decoration-line:none;text-decoration-style:solid;text-indent:0;text-transform:none;white-space:normal"/><path fill="#fff" d="M622.35 80.004c-20.557.346-35.242 13.076-40.914 24.723-5.612 11.523-5.458 22.444-5.436 23.34v1.47c.012-2.59.405-12.478 5.436-22.81 5.855-12.022 21.314-25.2 42.922-24.717l-.357-.004h32c21.333 0 36.402 13.028 42.31 24.844S704 130.006 704 130.006v-2s.22-11.34-5.687-23.156C692.403 93.034 677.335 80.006 656 80.006h-32l.357.004a51 51 0 0 0-2.008-.006zM608 129.707l-.002.063.002.117zm63.998 126.3c0 10.667-2.97 11.598-7.154 13.689-4.184 2.092-8.844 2.31-8.844 2.31h-48v2h48s4.66-.218 8.844-2.31 7.154-3.023 7.154-13.689z" enable-background="new" opacity=".2" style="isolation:auto;mix-blend-mode:normal;text-decoration-color:#000;text-decoration-line:none;text-decoration-style:solid;text-indent:0;text-transform:none;white-space:normal" transform="translate(0 -244)"/></g><circle cx="464" cy="-99.997" r="64" fill="#fbc02d"/><path fill="#ffd600" d="M224-100a64 64 0 0 0 64 64v208c0 26.592 21.408 48 48 48h256c26.592 0 48-21.408 48-48V-84c0-8.864-7.136-16-16-16H352z" enable-background="new"/><path fill="#fff" d="M224-100a64 64 0 0 0 .1 2H624c8.864 0 16 7.136 16 16v-2c0-8.864-7.136-16-16-16H352z" enable-background="new" opacity=".2"/><path fill="#fff" d="M464-163.996a64 64 0 0 0-64 64 64 64 0 0 0 .041 1.172A64 64 0 0 1 464-161.996a64 64 0 0 1 63.959 62.828 64 64 0 0 0 .041-.828 64 64 0 0 0-64-64z" opacity=".2"/><g fill-rule="evenodd"><path fill="#f44336" d="M368 12.004 336 60l32 48.004L400 60zm96 0L432 60l32 48.004L496 60zm96 .004L528 60l32 48.008L592 60z"/><path d="m336.67 59-.666 1 32 48.004 32-48.004-.666-1-31.334 47.004zm96 0-.666 1 32 48.004 32-48.004-.666-1-31.334 47.004zm96 0-.666 1 32 48.008 32-48.008-.666-1-31.334 47.008z" opacity=".2"/><path fill="#fff" d="m336.67 59.016-.666-1 32-48.004 32 48.004-.666 1-31.334-47.004zm96 0-.666-1 32-48.004 32 48.004-.666 1-31.334-47.004zm96 0-.666-1 32-48.008 32 48.008-.666 1-31.334-47.008z" opacity=".2"/></g><path d="M224-100c0 35.346 28.654 64 64 64v-4c-33.764-.04-61.689-26.302-63.799-60z" enable-background="new" opacity=".2"/></g></svg>