<svg width="512" height="512" enable-background="new" version="1.0" xmlns="http://www.w3.org/2000/svg">
 <defs>
  <filter id="a" x="-.023851" y="-.024151" width="1.0477" height="1.0483" color-interpolation-filters="sRGB">
   <feGaussianBlur stdDeviation="4.5081183"/>
  </filter>
 </defs>
 <g transform="translate(0,212)">
  <g>
   <g transform="translate(-208,16)" shape-rendering="auto">
    <path d="m313.2-192c-8.4861 6.9e-4 -16.341 4.4822-20.66 11.787l-52.016 87.996c-4.4523 7.5333-4.4523 16.893 0 24.426l52.016 87.996c4.3189 7.3049 12.174 11.786 20.66 11.787h104.03c8.279-6.7e-4 15.948-4.2744 20.328-11.266-3.7525 7.0478-3.7525 15.499 0 22.547-4.3802-6.9912-12.049-11.265-20.328-11.266h-104.03c-8.4861 6.9e-4 -16.341 4.4822-20.66 11.787l-52.016 87.996c-4.4523 7.5332-4.4523 16.893 0 24.426l52.016 87.996c4.3189 7.3049 12.174 11.786 20.66 11.787h104.03c8.4861-6.9e-4 16.341-4.4822 20.66-11.787l52.016-87.996c4.2707-7.2259 4.4339-16.127 0.51172-23.49 4.3799 6.9962 12.051 11.273 20.334 11.273h104.04c8.4872-5.8e-4 16.343-4.4829 20.662-11.789l52.018-87.998c4.4521-7.5333 4.4521-16.892 0-24.426l-52.018-88c-4.3194-7.3054-12.175-11.787-20.662-11.787h-104.04c-8.2827 1.7e-4 -15.954 4.2772-20.334 11.273 3.9222-7.363 3.759-16.264-0.51172-23.49l-52.016-87.996c-4.3189-7.3049-12.174-11.786-20.66-11.787z" color="#000000" color-rendering="auto" enable-background="accumulate" filter="url(#a)" image-rendering="auto" opacity=".2" solid-color="#000000" style="isolation:auto;mix-blend-mode:normal;text-decoration-color:#000000;text-decoration-line:none;text-decoration-style:solid;text-indent:0;text-transform:none;white-space:normal"/>
    <path d="m313.2-194c-8.4861 6.9e-4 -16.341 4.4822-20.66 11.787l-52.016 87.996c-4.4523 7.5333-4.4523 16.893 0 24.426l52.016 87.996c4.3189 7.3049 12.174 11.786 20.66 11.787h104.03c8.279-6.7e-4 15.948-4.2744 20.328-11.266-3.7525 7.0478-3.7525 15.499 0 22.547-4.3802-6.9912-12.049-11.265-20.328-11.266h-104.03c-8.4861 6.9e-4 -16.341 4.4822-20.66 11.787l-52.016 87.996c-4.4523 7.5332-4.4523 16.893 0 24.426l52.016 87.996c4.3189 7.3049 12.174 11.786 20.66 11.787h104.03c8.4861-6.9e-4 16.341-4.4822 20.66-11.787l52.016-87.996c4.2707-7.2259 4.4339-16.127 0.51172-23.49 4.3799 6.9962 12.051 11.273 20.334 11.273h104.04c8.4872-5.8e-4 16.343-4.4829 20.662-11.789l52.018-87.998c4.4521-7.5333 4.4521-16.892 0-24.426l-52.018-88c-4.3194-7.3054-12.175-11.787-20.662-11.787h-104.04c-8.2827 1.7e-4 -15.954 4.2772-20.334 11.273 3.9222-7.363 3.759-16.264-0.51172-23.49l-52.016-87.996c-4.3189-7.3049-12.174-11.786-20.66-11.787z" color="#000000" color-rendering="auto" enable-background="accumulate" image-rendering="auto" opacity=".2" solid-color="#000000" style="isolation:auto;mix-blend-mode:normal;text-decoration-color:#000000;text-decoration-line:none;text-decoration-style:solid;text-indent:0;text-transform:none;white-space:normal"/>
    <g fill="#8bc34a">
     <path d="m313.2-196c-8.4861 6.9e-4 -16.341 4.4822-20.66 11.787l-52.016 87.996c-4.4523 7.5333-4.4523 16.893 0 24.426l52.016 87.996c4.3189 7.3049 12.174 11.786 20.66 11.787h104.03c8.4861-6.89e-4 16.341-4.4822 20.66-11.787l52.016-87.996c4.4523-7.5333 4.4523-16.893 0-24.426l-52.016-87.996c-4.3189-7.3049-12.174-11.786-20.66-11.787z" color="#000000" color-rendering="auto" enable-background="accumulate" image-rendering="auto" solid-color="#000000" style="isolation:auto;mix-blend-mode:normal;text-decoration-color:#000000;text-decoration-line:none;text-decoration-style:solid;text-indent:0;text-transform:none;white-space:normal"/>
     <path d="m313.2 28.008c-8.4861 6.89e-4 -16.341 4.4822-20.66 11.787l-52.016 87.996c-4.4523 7.5332-4.4523 16.893 0 24.426l52.016 87.996c4.3189 7.3049 12.174 11.786 20.66 11.787h104.03c8.4861-6.9e-4 16.341-4.4822 20.66-11.787l52.016-87.996c4.4523-7.5332 4.4523-16.893 0-24.426l-52.016-87.996c-4.3189-7.3049-12.174-11.786-20.66-11.787z" color="#000000" color-rendering="auto" enable-background="accumulate" image-rendering="auto" solid-color="#000000" style="isolation:auto;mix-blend-mode:normal;text-decoration-color:#000000;text-decoration-line:none;text-decoration-style:solid;text-indent:0;text-transform:none;white-space:normal"/>
     <path d="m510.76-84c-8.4868 1.7e-4 -16.343 4.4817-20.662 11.787l-52.018 88c-4.4521 7.5333-4.4521 16.892 0 24.426l52.018 88c4.3194 7.3054 12.175 11.787 20.662 11.787h104.04c8.4872-5.8e-4 16.343-4.4829 20.662-11.789l52.018-87.998c4.4521-7.5333 4.4521-16.892 0-24.426l-52.018-88c-4.3194-7.3054-12.175-11.787-20.662-11.787z" color="#000000" color-rendering="auto" enable-background="accumulate" image-rendering="auto" solid-color="#000000" style="isolation:auto;mix-blend-mode:normal;text-decoration-color:#000000;text-decoration-line:none;text-decoration-style:solid;text-indent:0;text-transform:none;white-space:normal"/>
    </g>
    <g fill="#fff">
     <path transform="translate(0,-244)" d="m313.2 48c-8.4861 6.9e-4 -16.341 4.4822-20.66 11.787l-52.016 87.996c-2.402 4.0642-3.4964 8.6592-3.3066 13.213 0.162-3.8868 1.2564-7.7439 3.3066-11.213l52.016-87.996c4.3189-7.3049 12.174-11.786 20.66-11.787h104.03c8.4861 6.9e-4 16.341 4.4822 20.66 11.787l52.016 87.996c2.0503 3.469 3.1446 7.3261 3.3066 11.213 0.18979-4.5537-0.90459-9.1486-3.3066-13.213l-52.016-87.996c-4.3189-7.3049-12.174-11.786-20.66-11.787z" color="#000000" color-rendering="auto" enable-background="accumulate" image-rendering="auto" opacity=".2" solid-color="#000000" style="isolation:auto;mix-blend-mode:normal;text-decoration-color:#000000;text-decoration-line:none;text-decoration-style:solid;text-indent:0;text-transform:none;white-space:normal"/>
     <path d="m417.24 28.008c8.4861 6.9e-4 16.341 4.4822 20.66 11.787l52.016 87.996c2.402 4.0642 3.4964 8.6592 3.3066 13.213-0.162-3.8868-1.2564-7.7439-3.3066-11.213l-52.016-87.996c-4.3189-7.3049-12.174-11.786-20.66-11.787h-104.03c-8.4861 6.9e-4 -16.341 4.4822-20.66 11.787l-52.016 87.996c-2.0503 3.469-3.1446 7.3261-3.3066 11.213-0.18979-4.5537 0.90459-9.1487 3.3066-13.213l52.016-87.996c4.3189-7.3049 12.174-11.786 20.66-11.787z" color="#000000" color-rendering="auto" enable-background="accumulate" image-rendering="auto" opacity=".2" solid-color="#000000" style="isolation:auto;mix-blend-mode:normal;text-decoration-color:#000000;text-decoration-line:none;text-decoration-style:solid;text-indent:0;text-transform:none;white-space:normal"/>
     <path transform="translate(0,-244)" d="m510.76 160c-8.4868 1.7e-4 -16.343 4.4817-20.662 11.787l-52.018 88c-2.402 4.0643-3.4964 8.6592-3.3066 13.213 0.16199-3.8868 1.2565-7.7438 3.3066-11.213l52.018-88c4.3194-7.3054 12.175-11.787 20.662-11.787h104.04c8.4868 1.7e-4 16.343 4.4817 20.662 11.787l52.018 88c2.0502 3.469 3.1446 7.3261 3.3066 11.213 0.18978-4.5537-0.90469-9.1486-3.3066-13.213l-52.018-88c-4.3194-7.3054-12.175-11.787-20.662-11.787z" color="#000000" color-rendering="auto" enable-background="accumulate" image-rendering="auto" opacity=".2" solid-color="#000000" style="isolation:auto;mix-blend-mode:normal;text-decoration-color:#000000;text-decoration-line:none;text-decoration-style:solid;text-indent:0;text-transform:none;white-space:normal"/>
    </g>
    <g>
     <path d="m313.2 252c-8.4861-6.9e-4 -16.341-4.4822-20.66-11.787l-52.016-87.996c-2.402-4.0642-3.4964-8.6592-3.3066-13.213 0.162 3.8868 1.2564 7.7439 3.3066 11.213l52.016 87.996c4.3189 7.3049 12.174 11.786 20.66 11.787h104.03c8.4861-6.9e-4 16.341-4.4822 20.66-11.787l52.016-87.996c2.0503-3.469 3.1446-7.3261 3.3066-11.213 0.18979 4.5537-0.90459 9.1486-3.3066 13.213l-52.016 87.996c-4.3189 7.3049-12.174 11.786-20.66 11.787z" color="#000000" color-rendering="auto" enable-background="accumulate" image-rendering="auto" opacity=".1" solid-color="#000000" style="isolation:auto;mix-blend-mode:normal;text-decoration-color:#000000;text-decoration-line:none;text-decoration-style:solid;text-indent:0;text-transform:none;white-space:normal"/>
     <path d="m417.24 27.992c8.4861-6.9e-4 16.341-4.4822 20.66-11.787l52.016-87.996c2.402-4.0642 3.4964-8.6592 3.3066-13.213-0.162 3.8868-1.2564 7.7439-3.3066 11.213l-52.016 87.996c-4.3189 7.3049-12.174 11.786-20.66 11.787h-104.03c-8.4861-6.9e-4 -16.341-4.4822-20.66-11.787l-52.016-87.996c-2.0503-3.469-3.1446-7.3261-3.3066-11.213-0.18979 4.5537 0.90459 9.1487 3.3066 13.213l52.016 87.996c4.3189 7.3049 12.174 11.786 20.66 11.787z" color="#000000" color-rendering="auto" enable-background="accumulate" image-rendering="auto" opacity=".1" solid-color="#000000" style="isolation:auto;mix-blend-mode:normal;text-decoration-color:#000000;text-decoration-line:none;text-decoration-style:solid;text-indent:0;text-transform:none;white-space:normal"/>
     <path d="m510.76 140c-8.4868-1.7e-4 -16.343-4.4817-20.662-11.787l-52.018-88c-2.402-4.0643-3.4964-8.6592-3.3066-13.213 0.16199 3.8868 1.2565 7.7438 3.3066 11.213l52.018 88c4.3194 7.3054 12.175 11.787 20.662 11.787h104.04c8.4868-1.7e-4 16.343-4.4817 20.662-11.787l52.018-88c2.0502-3.469 3.1446-7.3261 3.3066-11.213 0.18978 4.5537-0.90469 9.1486-3.3066 13.213l-52.018 88c-4.3194 7.3054-12.175 11.787-20.662 11.787z" color="#000000" color-rendering="auto" enable-background="accumulate" image-rendering="auto" opacity=".1" solid-color="#000000" style="isolation:auto;mix-blend-mode:normal;text-decoration-color:#000000;text-decoration-line:none;text-decoration-style:solid;text-indent:0;text-transform:none;white-space:normal"/>
    </g>
   </g>
  </g>
 </g>
</svg>
