<svg xmlns="http://www.w3.org/2000/svg" width="512" height="512" enable-background="new" version="1.0"><defs><filter id="a" width="1.048" height="1.048" x="-.024" y="-.024" color-interpolation-filters="sRGB"><feGaussianBlur stdDeviation="4.508"/></filter></defs><g color="#000"><path d="M313.2-192a24 24 0 0 0-20.66 11.787l-52.016 87.996a24 24 0 0 0 0 24.426l52.016 87.996a24 24 0 0 0 20.66 11.787h104.03a24 24 0 0 0 20.328-11.266 23.99 23.99 0 0 0 0 22.547 24 24 0 0 0-20.328-11.266H313.2a24 24 0 0 0-20.66 11.787l-52.016 87.996a24 24 0 0 0 0 24.426l52.016 87.996a24 24 0 0 0 20.66 11.787h104.03a24 24 0 0 0 20.66-11.787l52.016-87.996a24 24 0 0 0 .512-23.49 23.99 23.99 0 0 0 20.334 11.273h104.04a24 24 0 0 0 20.662-11.789l52.018-87.998a24 24 0 0 0 0-24.426l-52.018-88a24 24 0 0 0-20.662-11.787h-104.04a24 24 0 0 0-20.334 11.273 24 24 0 0 0-.512-23.49l-52.016-87.996a24 24 0 0 0-20.66-11.787z" enable-background="accumulate" filter="url(#a)" opacity=".2" style="isolation:auto;mix-blend-mode:normal;text-decoration-color:#000;text-decoration-line:none;text-decoration-style:solid;text-indent:0;text-transform:none;white-space:normal" transform="translate(-208 228)"/><path d="M313.2-194a24 24 0 0 0-20.66 11.787l-52.016 87.996a24 24 0 0 0 0 24.426l52.016 87.996a24 24 0 0 0 20.66 11.787h104.03a24 24 0 0 0 20.328-11.266 23.99 23.99 0 0 0 0 22.547 24 24 0 0 0-20.328-11.266H313.2a24 24 0 0 0-20.66 11.787l-52.016 87.996a24 24 0 0 0 0 24.426l52.016 87.996a24 24 0 0 0 20.66 11.787h104.03a24 24 0 0 0 20.66-11.787l52.016-87.996a24 24 0 0 0 .512-23.49 23.99 23.99 0 0 0 20.334 11.273h104.04a24 24 0 0 0 20.662-11.789l52.018-87.998a24 24 0 0 0 0-24.426l-52.018-88a24 24 0 0 0-20.662-11.787h-104.04a24 24 0 0 0-20.334 11.273 24 24 0 0 0-.512-23.49l-52.016-87.996a24 24 0 0 0-20.66-11.787z" enable-background="accumulate" opacity=".2" style="isolation:auto;mix-blend-mode:normal;text-decoration-color:#000;text-decoration-line:none;text-decoration-style:solid;text-indent:0;text-transform:none;white-space:normal" transform="translate(-208 228)"/><g fill="#8bc34a"><path d="M313.2-196a24 24 0 0 0-20.66 11.787l-52.016 87.996a24 24 0 0 0 0 24.426l52.016 87.996a24 24 0 0 0 20.66 11.787h104.03a24 24 0 0 0 20.66-11.787l52.016-87.996a24 24 0 0 0 0-24.426l-52.016-87.996A24 24 0 0 0 417.23-196zM313.2 28.008a24 24 0 0 0-20.66 11.787l-52.016 87.996a24 24 0 0 0 0 24.426l52.016 87.996A24 24 0 0 0 313.2 252h104.03a24 24 0 0 0 20.66-11.787l52.016-87.996a24 24 0 0 0 0-24.426L437.89 39.795a24 24 0 0 0-20.66-11.787z" enable-background="accumulate" style="isolation:auto;mix-blend-mode:normal;text-decoration-color:#000;text-decoration-line:none;text-decoration-style:solid;text-indent:0;text-transform:none;white-space:normal" transform="translate(-208 228)"/><path d="M510.76-84a24 24 0 0 0-20.662 11.787l-52.018 88a24 24 0 0 0 0 24.426l52.018 88A24 24 0 0 0 510.76 140H614.8a24 24 0 0 0 20.662-11.789l52.018-87.998a24 24 0 0 0 0-24.426l-52.018-88A24 24 0 0 0 614.8-84z" enable-background="accumulate" style="isolation:auto;mix-blend-mode:normal;text-decoration-color:#000;text-decoration-line:none;text-decoration-style:solid;text-indent:0;text-transform:none;white-space:normal" transform="translate(-208 228)"/></g><g fill="#fff"><path d="M313.2 48a24 24 0 0 0-20.66 11.787l-52.016 87.996a24 24 0 0 0-3.307 13.213 24 24 0 0 1 3.307-11.213l52.016-87.996A24 24 0 0 1 313.2 50h104.03a24 24 0 0 1 20.66 11.787l52.016 87.996a24 24 0 0 1 3.307 11.213 24 24 0 0 0-3.307-13.213L437.89 59.787A24 24 0 0 0 417.23 48z" enable-background="accumulate" opacity=".2" style="isolation:auto;mix-blend-mode:normal;text-decoration-color:#000;text-decoration-line:none;text-decoration-style:solid;text-indent:0;text-transform:none;white-space:normal" transform="translate(-208 -16)"/><path d="M417.24 28.008a24 24 0 0 1 20.66 11.787l52.016 87.996a24 24 0 0 1 3.307 13.213 24 24 0 0 0-3.307-11.213L437.9 41.795a24 24 0 0 0-20.66-11.787H313.21a24 24 0 0 0-20.66 11.787l-52.016 87.996a24 24 0 0 0-3.307 11.213 24 24 0 0 1 3.307-13.213l52.016-87.996a24 24 0 0 1 20.66-11.787z" enable-background="accumulate" opacity=".2" style="isolation:auto;mix-blend-mode:normal;text-decoration-color:#000;text-decoration-line:none;text-decoration-style:solid;text-indent:0;text-transform:none;white-space:normal" transform="translate(-208 228)"/><path d="M510.76 160a24 24 0 0 0-20.662 11.787l-52.018 88A24 24 0 0 0 434.773 273a24 24 0 0 1 3.307-11.213l52.018-88A24 24 0 0 1 510.76 162H614.8a24 24 0 0 1 20.662 11.787l52.018 88A24 24 0 0 1 690.787 273a24 24 0 0 0-3.307-13.213l-52.018-88A24 24 0 0 0 614.8 160z" enable-background="accumulate" opacity=".2" style="isolation:auto;mix-blend-mode:normal;text-decoration-color:#000;text-decoration-line:none;text-decoration-style:solid;text-indent:0;text-transform:none;white-space:normal" transform="translate(-208 -16)"/></g><path d="M313.2 252a24 24 0 0 1-20.66-11.787l-52.016-87.996a24 24 0 0 1-3.307-13.213 24 24 0 0 0 3.307 11.213l52.016 87.996A24 24 0 0 0 313.2 250h104.03a24 24 0 0 0 20.66-11.787l52.016-87.996a24 24 0 0 0 3.307-11.213 24 24 0 0 1-3.307 13.213l-52.016 87.996A24 24 0 0 1 417.23 252zM417.24 27.992a24 24 0 0 0 20.66-11.787l52.016-87.996a24 24 0 0 0 3.307-13.213 24 24 0 0 1-3.307 11.213L437.9 14.205a24 24 0 0 1-20.66 11.787H313.21a24 24 0 0 1-20.66-11.787l-52.016-87.996a24 24 0 0 1-3.307-11.213 24 24 0 0 0 3.307 13.213l52.016 87.996a24 24 0 0 0 20.66 11.787zM510.76 140a24 24 0 0 1-20.662-11.787l-52.018-88A24 24 0 0 1 434.773 27a24 24 0 0 0 3.307 11.213l52.018 88A24 24 0 0 0 510.76 138H614.8a24 24 0 0 0 20.662-11.787l52.018-88A24 24 0 0 0 690.787 27a24 24 0 0 1-3.307 13.213l-52.018 88A24 24 0 0 1 614.8 140z" enable-background="accumulate" opacity=".1" style="isolation:auto;mix-blend-mode:normal;text-decoration-color:#000;text-decoration-line:none;text-decoration-style:solid;text-indent:0;text-transform:none;white-space:normal" transform="translate(-208 228)"/></g></svg>