<svg width="512" height="512" enable-background="new" version="1.0" xmlns="http://www.w3.org/2000/svg">
 <defs>
  <filter id="a" x="-.023133" y="-.024935" width="1.0463" height="1.0499" color-interpolation-filters="sRGB">
   <feGaussianBlur stdDeviation="4.3181183"/>
  </filter>
 </defs>
 <g transform="translate(0,212)">
  <g>
   <g transform="translate(-208,16)">
    <g>
     <path d="m271.99-175.81s-31.971-5.2e-4 -31.971 31.971c0 0-1.7299 156.4 31.971 223.8 20.22 40.441 127.88 127.88 127.88 127.88s18.729 31.971 63.943 31.971 63.941-31.971 63.941-31.971 107.66-87.444 127.88-127.88c33.701-67.401 31.971-223.8 31.971-223.8 4.5214-31.65-31.971-31.971-31.971-31.971 0 63.942-63.941 63.941-63.941 63.941h-255.77s-63.941 1e-3 -63.941-63.941z" filter="url(#a)" opacity=".1"/>
     <path d="m271.99-175.81s-31.971-5.2e-4 -31.971 31.971c0 0-1.7299 156.4 31.971 223.8 20.22 40.441 127.88 127.88 127.88 127.88s18.729 31.971 63.943 31.971 63.941-31.971 63.941-31.971 107.66-87.444 127.88-127.88c33.701-67.401 31.971-223.8 31.971-223.8 4.5214-31.65-31.971-31.971-31.971-31.971 0 63.942-63.941 63.941-63.941 63.941h-255.77s-63.941 1e-3 -63.941-63.941z" filter="url(#a)" opacity=".2"/>
     <path d="m271.99-177.81s-31.971-5.2e-4 -31.971 31.971c0 0-1.7299 156.4 31.971 223.8 20.22 40.441 127.88 127.88 127.88 127.88s18.729 31.971 63.943 31.971 63.941-31.971 63.941-31.971 107.66-87.444 127.88-127.88c33.701-67.401 31.971-223.8 31.971-223.8 4.5214-31.65-31.971-31.971-31.971-31.971 0 63.942-63.941 63.941-63.941 63.941h-255.77s-63.941 1e-3 -63.941-63.941z" opacity=".2"/>
    </g>
    <path d="m271.99-179.81s-31.971 0-31.971 31.971c0 0-1.7294 156.4 31.971 223.8 20.22 40.441 127.88 127.88 127.88 127.88h127.88s107.66-87.444 127.88-127.88c33.701-67.401 31.971-223.8 31.971-223.8 4.5214-31.65-31.971-31.971-31.971-31.971 0 63.942-63.942 63.942-63.942 63.942h-255.77s-63.942 0-63.942-63.942z" fill="#514b3d"/>
    <path d="m271.99-179.81s-31.971-5.2e-4 -31.971 31.971c0 0 0.0135 1.3296 0.0156 1.5 0.34034-31.458 31.955-31.471 31.955-31.471h2e-3c0 63.942 63.941 63.941 63.941 63.941h255.77s63.943 1e-3 63.943-63.941c0 0 31.589 0.28311 32.34 25.818 0.88571-27.525-32.342-27.818-32.342-27.818 0 63.942-63.941 63.941-63.941 63.941h-255.77s-63.941 1e-3 -63.941-63.941z" fill="#fff" opacity=".2"/>
    <circle cx="368" cy="28" r="48" fill="#ebebeb"/>
    <path d="m366.66 12.063a32 32 0 0 0-30.656 31.937 32 32 0 0 0 32 32 32 32 0 0 0 32-32 32 32 0 0 0-30.406-31.906 16 16 0 0 1 14.406 15.906 16 16 0 0 1-16 16 16 16 0 0 1-16-16 16 16 0 0 1 14.656-15.937z" opacity=".8"/>
    <path d="m655.64-179.81c0 63.942-63.942 63.942-63.942 63.942h-127.88v319.71h63.942s107.66-87.444 127.88-127.88c33.701-67.401 31.971-223.8 31.971-223.8 4.5214-31.65-31.971-31.971-31.971-31.971z" opacity=".05"/>
    <circle cx="560" cy="28" r="48" fill="#d9d9d9"/>
    <g>
     <path d="m558.66 12.063a32 32 0 0 0-30.656 31.937 32 32 0 0 0 32 32 32 32 0 0 0 32-32 32 32 0 0 0-30.406-31.906 16 16 0 0 1 14.406 15.906 16 16 0 0 1-16 16 16 16 0 0 1-16-16 16 16 0 0 1 14.656-15.937z" opacity=".8"/>
     <path d="m655.64-179.81c0 63.942-63.942 63.942-63.942 63.942h-127.88v319.71h63.942s107.66-87.444 127.88-127.88c33.701-67.401 31.971-223.8 31.971-223.8 4.5214-31.65-31.971-31.971-31.971-31.971z" opacity=".05"/>
     <path d="m655.64-179.81c0 63.942-63.942 63.942-63.942 63.942h-127.88v319.71h63.942s107.66-87.444 127.88-127.88c33.701-67.401 31.971-223.8 31.971-223.8 4.5214-31.65-31.971-31.971-31.971-31.971z" opacity=".05"/>
    </g>
    <path d="m399.87 203.84s18.728 31.971 63.942 31.971 63.942-31.971 63.942-31.971-15.986-31.971-63.942-31.971-63.942 31.971-63.942 31.971z" enable-background="new" fill="#252525" fill-rule="evenodd"/>
   </g>
  </g>
 </g>
</svg>
