<svg xmlns="http://www.w3.org/2000/svg" width="512" height="512" enable-background="new" version="1.0"><defs><filter id="a" width="1.046" height="1.05" x="-.023" y="-.025" color-interpolation-filters="sRGB"><feGaussianBlur stdDeviation="4.318"/></filter></defs><g transform="translate(-208 228)"><path d="M271.99-175.81s-31.971 0-31.971 31.971c0 0-1.73 156.4 31.971 223.8 20.22 40.441 127.88 127.88 127.88 127.88s18.729 31.971 63.943 31.971 63.941-31.971 63.941-31.971 107.66-87.444 127.88-127.88c33.701-67.401 31.971-223.8 31.971-223.8 4.521-31.65-31.971-31.971-31.971-31.971 0 63.942-63.941 63.941-63.941 63.941h-255.77s-63.941.001-63.941-63.941z" filter="url(#a)" opacity=".1"/><path d="M271.99-175.81s-31.971 0-31.971 31.971c0 0-1.73 156.4 31.971 223.8 20.22 40.441 127.88 127.88 127.88 127.88s18.729 31.971 63.943 31.971 63.941-31.971 63.941-31.971 107.66-87.444 127.88-127.88c33.701-67.401 31.971-223.8 31.971-223.8 4.521-31.65-31.971-31.971-31.971-31.971 0 63.942-63.941 63.941-63.941 63.941h-255.77s-63.941.001-63.941-63.941z" filter="url(#a)" opacity=".2"/><path d="M271.99-177.81s-31.971 0-31.971 31.971c0 0-1.73 156.4 31.971 223.8 20.22 40.441 127.88 127.88 127.88 127.88s18.729 31.971 63.943 31.971 63.941-31.971 63.941-31.971 107.66-87.444 127.88-127.88c33.701-67.401 31.971-223.8 31.971-223.8 4.521-31.65-31.971-31.971-31.971-31.971 0 63.942-63.941 63.941-63.941 63.941h-255.77s-63.941.001-63.941-63.941z" opacity=".2"/><path fill="#514b3d" d="M271.99-179.81s-31.971 0-31.971 31.971c0 0-1.73 156.4 31.971 223.8 20.22 40.441 127.88 127.88 127.88 127.88h127.88s107.66-87.444 127.88-127.88c33.701-67.401 31.971-223.8 31.971-223.8 4.521-31.65-31.971-31.971-31.971-31.971 0 63.942-63.942 63.942-63.942 63.942h-255.77s-63.942 0-63.942-63.942z"/><path fill="#fff" d="M271.99-179.81s-31.971 0-31.971 31.971l.016 1.5c.34-31.458 31.955-31.471 31.955-31.471h.002c0 63.942 63.94 63.941 63.94 63.941h255.77s63.944.001 63.944-63.941c0 0 31.589.283 32.34 25.818.885-27.525-32.342-27.818-32.342-27.818 0 63.942-63.941 63.941-63.941 63.941h-255.77s-63.941.001-63.941-63.941z" opacity=".2"/><circle cx="368" cy="28" r="48" fill="#ebebeb"/><path d="M366.66 12.063A32 32 0 0 0 336.004 44a32 32 0 0 0 32 32 32 32 0 0 0 32-32 32 32 0 0 0-30.406-31.906A16 16 0 0 1 384.004 28a16 16 0 0 1-16 16 16 16 0 0 1-16-16 16 16 0 0 1 14.656-15.937" opacity=".8"/><path d="M655.64-179.81c0 63.942-63.942 63.942-63.942 63.942h-127.88v319.71h63.942s107.66-87.444 127.88-127.88c33.701-67.401 31.971-223.8 31.971-223.8 4.521-31.65-31.971-31.971-31.971-31.971z" opacity=".05"/><circle cx="560" cy="28" r="48" fill="#d9d9d9"/><path d="M558.66 12.063A32 32 0 0 0 528.004 44a32 32 0 0 0 32 32 32 32 0 0 0 32-32 32 32 0 0 0-30.406-31.906A16 16 0 0 1 576.004 28a16 16 0 0 1-16 16 16 16 0 0 1-16-16 16 16 0 0 1 14.656-15.937" opacity=".8"/><path d="M655.64-179.81c0 63.942-63.942 63.942-63.942 63.942h-127.88v319.71h63.942s107.66-87.444 127.88-127.88c33.701-67.401 31.971-223.8 31.971-223.8 4.521-31.65-31.971-31.971-31.971-31.971z" opacity=".05"/><path d="M655.64-179.81c0 63.942-63.942 63.942-63.942 63.942h-127.88v319.71h63.942s107.66-87.444 127.88-127.88c33.701-67.401 31.971-223.8 31.971-223.8 4.521-31.65-31.971-31.971-31.971-31.971z" opacity=".05"/><path fill="#252525" fill-rule="evenodd" d="M399.87 203.84s18.728 31.971 63.942 31.971 63.942-31.971 63.942-31.971-15.986-31.971-63.942-31.971-63.942 31.971-63.942 31.971" enable-background="new"/></g></svg>