<svg xmlns="http://www.w3.org/2000/svg" width="512" height="512" enable-background="new" version="1.0"><defs><filter id="a" width="1.048" height="1.048" x="-.024" y="-.024" color-interpolation-filters="sRGB"><feGaussianBlur stdDeviation="4.8"/></filter></defs><g fill-rule="evenodd" color="#000"><path stroke="#000" stroke-linejoin="round" stroke-width="8" d="M463.53-208a32 32 0 0 0-22.156 9.37l-208 208c-12.494 12.496-12.494 32.756 0 45.253l208 208c12.497 12.494 32.756 12.494 45.254 0l208-208c12.494-12.497 12.494-32.757 0-45.254l-208-208A32 32 0 0 0 463.53-208z" enable-background="accumulate" filter="url(#a)" opacity=".1" style="isolation:auto;mix-blend-mode:normal;text-decoration-color:#000;text-decoration-line:none;text-decoration-style:solid;text-indent:0;text-transform:none;white-space:normal" transform="translate(-208 228)"/><path d="M463.53-208a32 32 0 0 0-22.156 9.37l-208 208c-12.494 12.496-12.494 32.756 0 45.253l208 208c12.497 12.494 32.756 12.494 45.254 0l208-208c12.494-12.497 12.494-32.757 0-45.254l-208-208A32 32 0 0 0 463.53-208" enable-background="accumulate" filter="url(#a)" opacity=".2" style="isolation:auto;mix-blend-mode:normal;text-decoration-color:#000;text-decoration-line:none;text-decoration-style:solid;text-indent:0;text-transform:none;white-space:normal" transform="translate(-208 228)"/><path fill="#f44336" d="M463.53-212a32 32 0 0 0-22.156 9.37l-208 208c-12.494 12.496-12.494 32.756 0 45.253l208 208c12.497 12.494 32.756 12.494 45.254 0l208-208c12.494-12.497 12.494-32.757 0-45.254l-208-208A32 32 0 0 0 463.53-212" enable-background="accumulate" style="isolation:auto;mix-blend-mode:normal;text-decoration-color:#000;text-decoration-line:none;text-decoration-style:solid;text-indent:0;text-transform:none;white-space:normal" transform="translate(-208 228)"/></g><path fill="none" stroke="#fff" stroke-width="24" d="M256 160v192"/><path fill="#fff" fill-rule="evenodd" d="M463.53 32.004a32 32 0 0 0-22.156 9.37l-208 208c-6.502 6.502-9.612 15.107-9.348 23.626.244-7.853 3.355-15.633 9.348-21.627l208-208a32 32 0 0 1 45.254 0l208 208c5.993 5.994 9.104 13.774 9.348 21.627.264-8.52-2.846-17.124-9.348-23.627l-208-208a32 32 0 0 0-23.098-9.369" color="#000" enable-background="accumulate" opacity=".2" style="isolation:auto;mix-blend-mode:normal;text-decoration-color:#000;text-decoration-line:none;text-decoration-style:solid;text-indent:0;text-transform:none;white-space:normal" transform="translate(-208 -16)"/><path fill="none" stroke="#fff" stroke-width="24" d="M177.29 81.12 352 256"/><g fill="#fff" transform="translate(-208 228)"><circle cx="464" cy="124" r="40"/><circle cx="464" cy="-68" r="40"/><circle cx="28" cy="-560" r="40" transform="rotate(90)"/></g><path fill-rule="evenodd" d="M463.53 270a32 32 0 0 1-22.156-9.37l-208-208c-6.502-6.502-9.612-15.107-9.348-23.626.244 7.852 3.355 15.633 9.348 21.627l208 208a32 32 0 0 0 45.254 0l208-208c5.993-5.994 9.104-13.774 9.348-21.627.264 8.52-2.846 17.124-9.348 23.627l-208 208A32 32 0 0 1 463.53 270" color="#000" enable-background="accumulate" opacity=".2" style="isolation:auto;mix-blend-mode:normal;text-decoration-color:#000;text-decoration-line:none;text-decoration-style:solid;text-indent:0;text-transform:none;white-space:normal" transform="translate(-208 228)"/></svg>