<svg width="512" height="512" enable-background="new" version="1.0" xmlns="http://www.w3.org/2000/svg">
 <defs>
  <filter id="a" x="-.024" y="-.024" width="1.048" height="1.048" color-interpolation-filters="sRGB">
   <feGaussianBlur stdDeviation="4.8"/>
  </filter>
 </defs>
 <circle cx="256" cy="258" r="240" opacity=".2"/>
 <circle cx="256" cy="260" r="240" filter="url(#a)" opacity=".1"/>
 <circle cx="256" cy="260" r="240" filter="url(#a)" opacity=".2"/>
 <path d="M 256,16 A 240,240 0 0 0 16,256 240,240 0 0 0 16.041,257.17188 240,240 0 0 1 256,18 240,240 0 0 1 495.95898,256.82812 240,240 0 0 0 496,256 240,240 0 0 0 256,16 Z" fill="#fff" opacity=".2"/>
 <g transform="matrix(8.5717 0 0 8.5717 2450.3 -2719.4)">
  <path d="m-228 347.12c0-15.512-12.488-27.999-27.999-27.999s-27.999 12.488-27.999 27.999c0 15.512 12.488 27.999 27.999 27.999s27.999-12.488 27.999-27.999z" fill="#8034a9"/>
  <path d="m-241.18 333.12c-0.85213-0.0398-3.2532 0.2448-7.0059 2.8555-2.0994-0.63304-4.4958-0.86737-6.9941-0.86133-2.2854 5e-3 -4.6554 0.19277-6.959 0.86133-3.7539-2.6105-5.6724-2.8937-6.5254-2.8535-0.28439 0.0134-0.42188 0.0566-0.42188 0.0566-1.4271 3.7021-0.5242 6.4409-0.2539 7.1211-1.6765 1.8792-2.6602 4.2789-2.6602 7.2148 0 10.307 6.6786 12.616 12.498 13.295-0.74814 0.67208-1.2189 2.0617-1.457 3.7988-1.4931 0.68858-5.4982 2.3738-7.8359-1.7363 0 0-1.383-2.5836-4.0137-2.7734 0 0-2.5574-0.033-0.17774 1.6348 0 0 1.7179 0.82775 2.9102 3.9356 0 0 1.7706 4.7304 9.0606 3.1055 7e-3 1.2621 0.0133 3.6146 0.0195 5.8906 1.621 0.28979 3.2893 0.44922 4.9961 0.44922 2.7819 0 5.4633-0.40752 7.9961-1.1562 7e-3 -2.775 0.0156-6.0522 0.0156-8.1875 0-2.5083-1.037-4.1499-1.9766-4.9805 5.837-0.66546 11.965-2.9417 11.965-13.275 0-2.9359-0.81648-5.3376-2.4961-7.2168 0.26869-0.68034 1.1705-3.417-0.25977-7.1191 0 0-0.13782-0.0453-0.42187-0.0586z" fill="#fff"/>
  <path transform="matrix(.11666 0 0 .11666 -285.87 317.25)" d="m256 16c-132.96 0-240 107.04-240 240 0 0.67465 0.019889 1.3443 0.025391 2.0176 1.0778-129.82 107.69-234.02 239.97-234.02s238.9 104.2 239.97 234.02c0.0055-0.67331 0.02539-1.3429 0.02539-2.0176 0-132.96-107.04-240-240-240z" fill="#fff" opacity=".15" stroke-width="8.5717"/>
 </g>
</svg>
