<svg xmlns="http://www.w3.org/2000/svg" width="512" height="512" enable-background="new" version="1.0"><defs><filter id="a" width="1.048" height="1.048" x="-.024" y="-.024" color-interpolation-filters="sRGB"><feGaussianBlur stdDeviation="4.8"/></filter></defs><circle cx="256" cy="258" r="240" opacity=".2"/><circle cx="256" cy="260" r="240" filter="url(#a)" opacity=".1"/><circle cx="256" cy="260" r="240" filter="url(#a)" opacity=".2"/><path fill="#fff" d="M256 16A240 240 0 0 0 16 256l.041 1.172A240 240 0 0 1 256 18a240 240 0 0 1 239.959 238.828L496 256A240 240 0 0 0 256 16" opacity=".2"/><path fill="#8034a9" d="M495.952 256.009c0-132.965-107.043-240-239.999-240s-239.999 107.044-239.999 240c0 132.964 107.044 239.999 240 239.999s239.998-107.044 239.998-240"/><path fill="#fff" d="M382.977 136.005c-7.304-.341-27.885 2.098-60.052 24.476-17.996-5.426-38.537-7.435-59.951-7.383-19.59.043-39.905 1.652-59.65 7.383-32.178-22.376-48.623-24.804-55.935-24.46-2.437.116-3.616.486-3.616.486-12.233 31.733-4.493 55.21-2.176 61.04-14.37 16.108-22.803 36.677-22.803 61.843 0 88.349 57.247 108.14 107.13 113.96-6.413 5.762-10.449 17.673-12.49 32.563-12.798 5.902-47.128 20.347-67.167-14.883 0 0-11.854-22.146-34.404-23.773 0 0-21.921-.283-1.523 14.013 0 0 14.725 7.095 24.945 33.735 0 0 15.177 40.548 77.665 26.62.06 10.818.114 30.983.167 50.492 13.895 2.484 28.195 3.85 42.825 3.85 23.846 0 46.83-3.493 68.54-9.91.06-23.787.134-51.878.134-70.181 0-21.5-8.889-35.572-16.943-42.691 50.033-5.704 102.56-25.216 102.56-113.79 0-25.165-6.998-45.752-21.395-61.86 2.303-5.832 10.033-29.29-2.227-61.023 0 0-1.181-.388-3.616-.502z"/><path fill="#fff" d="M255.902 15.971c-132.957 0-239.994 107.038-239.994 239.994 0 .675.02 1.345.025 2.018C17.011 128.166 123.62 23.969 255.897 23.969s238.894 104.197 239.964 234.014c.005-.673.025-1.343.025-2.018 0-132.956-107.037-239.994-239.994-239.994z" opacity=".15"/></svg>