<svg xmlns="http://www.w3.org/2000/svg" width="512" height="512" enable-background="new" version="1.0"><defs><filter id="a" width="1.048" height="1.048" x="-.024" y="-.024" color-interpolation-filters="sRGB"><feGaussianBlur stdDeviation="4.8"/></filter><filter id="c" width="1.048" height="1.048" x="-.024" y="-.024" color-interpolation-filters="sRGB"><feGaussianBlur stdDeviation="4.8"/></filter></defs><g transform="translate(-208 228)"><circle cx="464" cy="32" r="240" filter="url(#a)" opacity=".2"/><circle cx="464" cy="30" r="240" opacity=".2"/><circle cx="464" cy="32" r="240" stroke="#000" stroke-width="8" filter="url(#c)" opacity=".1"/><circle cx="464" cy="28" r="240" fill="#4d4d4d"/><path fill="#fff" d="M464-212c-132.55 0-240 107.45-240 240q.019.585.041 1.172c.456-132.21 107.75-239.15 239.96-239.17 132.08.02 239.31 106.75 239.96 238.83l.041-.828c0-132.55-107.45-240-240-240z" opacity=".2"/><g fill="none" stroke="#26a69a" stroke-linecap="round" stroke-width="16"><path d="M480 213.45V84M448 213.45V84M512 175.32V84.001M416 175.32V84.001"/></g><g fill="none" stroke="#26a69a" stroke-linecap="round" stroke-width="1.415"><path d="M183.97 254.19a17 17 0 0 1-1.558 14.823 17 17 0 0 1-12.64 7.898" transform="matrix(11.295 0 0 11.316 -1433.5 -2918.9)"/><path d="M-152.02 254.19a17 17 0 0 1-1.558 14.823 17 17 0 0 1-12.64 7.898" transform="matrix(-11.295 0 0 11.316 -1433.5 -2918.9)"/></g><path fill="none" stroke="#26a69a" stroke-linecap="round" stroke-width="16" d="M566.85-98.74a160 160.3 0 0 1 54.216 153.38 160 160.3 0 0 1-107.62 121.87M361.15-98.74a160 160.3 0 0 0-54.216 153.38 160 160.3 0 0 0 107.62 121.87"/><path fill="#26a69a" d="M389.05-26.942c-20.934 48.966 18.949 32.008 18.949 102.73v42.208s5.473 28.407 56 28.407 56-28.407 56-28.407V75.788c0-70.726 42.8-55.12 18.95-102.73-21.89-43.701-34.528-111.14-74.95-111.14s-56.501 67.987-74.95 111.14z"/><circle cx="416" cy="76" r="20" fill="#4d4d4d" stroke="#26a69a" stroke-linecap="round" stroke-width="8"/><circle cx="504" cy="76" r="20" fill="#4d4d4d" stroke="#26a69a" stroke-linecap="round" stroke-width="8"/></g></svg>