<svg xmlns="http://www.w3.org/2000/svg" width="512" height="512" enable-background="new" version="1.0"><defs><filter id="a" width="1.054" height="1.043" x="-.027" y="-.021" color-interpolation-filters="sRGB"><feGaussianBlur stdDeviation="4"/></filter><filter id="b" width="1.045" height="1.052" x="-.022" y="-.026" color-interpolation-filters="sRGB"><feGaussianBlur stdDeviation="4.16"/></filter><filter id="c" width="1.111" height="1.13" x="-.056" y="-.065" color-interpolation-filters="sRGB"><feGaussianBlur stdDeviation="10.4"/></filter></defs><path d="M432 458V58c0-13.296-10.704-24-24-24H104c-13.296 0-24 10.704-24 24v400c0 13.296 10.704 24 24 24h304c13.296 0 24-10.704 24-24" opacity=".2"/><path stroke="#000" stroke-width="8" d="M640 232v-400c0-13.296-10.704-24-24-24H312c-13.296 0-24 10.704-24 24v400c0 13.296 10.704 24 24 24h304c13.296 0 24-10.704 24-24z" filter="url(#a)" opacity=".1" transform="translate(-208 228)"/><path d="M640 232v-400c0-13.296-10.704-24-24-24H312c-13.296 0-24 10.704-24 24v400c0 13.296 10.704 24 24 24h304c13.296 0 24-10.704 24-24" filter="url(#a)" opacity=".2" transform="translate(-208 228)"/><path fill="#ececec" d="M432 456V56c0-13.296-10.704-24-24-24H104c-13.296 0-24 10.704-24 24v400c0 13.296 10.704 24 24 24h304c13.296 0 24-10.704 24-24"/><path fill="#fff" d="M104 32c-13.296 0-24 10.704-24 24v2c0-13.296 10.704-24 24-24h304c13.296 0 24 10.704 24 24v-2c0-13.296-10.704-24-24-24z" opacity=".1"/><path d="M240-160v360c0 24 24 24 24 24h424zm80 173.94L471.74 144H320z" filter="url(#b)" opacity=".2" transform="translate(-208 228)"/><path stroke="#000" stroke-width="8" d="M240-152v360c0 24 24 24 24 24h424zm80 173.94L471.74 152H320z" filter="url(#c)" opacity=".2" transform="translate(-208 228)"/><path fill="#009688" d="M32 64v360c0 24 24 24 24 24h424zm80 173.94L263.74 368H112z" opacity=".8"/><path d="m480 448-2.334-2H55.996s-24 0-24-24v2c0 24 24 24 24 24zm-216.26-82L112 235.94v2L261.41 366z" opacity=".1"/><path fill="#fff" d="M32 64v2l445.67 382h2.334zm80 304v2h151.74l-2.334-2z" opacity=".2"/></svg>