<svg width="512" height="512" enable-background="new" version="1.0" xmlns="http://www.w3.org/2000/svg">
 <defs>
  <filter id="a" x="-.023857" y="-.023857" width="1.0477" height="1.0477" color-interpolation-filters="sRGB">
   <feGaussianBlur stdDeviation="4.453344"/>
  </filter>
  <filter id="filter858" x="-.048" y="-.048" width="1.096" height="1.096" color-interpolation-filters="sRGB">
   <feGaussianBlur stdDeviation="8.96"/>
  </filter>
 </defs>
 <rect transform="matrix(0 -1 -1 0 -208 234.5)" x="-256" y="-688" width="448" height="448" rx="36" ry="36" enable-background="new" filter="url(#filter858)" opacity=".2" style="mix-blend-mode:normal"/>
 <rect transform="matrix(0,-1,-1,0,-208,228)" x="-256" y="-688" width="448" height="448" rx="36" ry="36" enable-background="new" filter="url(#a)" opacity=".1"/>
 <rect transform="matrix(0,-1,-1,0,0,0)" x="-480" y="-480" width="448" height="448" rx="36" ry="36" enable-background="new" fill="#e6e6e6"/>
 <path d="m68 32c-19.944 0-36 16.056-36 36v252.35h152.97v159.65h259.03c19.944 0 36-16.056 36-36v-376c0-19.944-16.056-36-36-36h-376z" fill="#f9f9f9"/>
 <path d="m68 32c-19.944 0-36 16.056-36 36v2c0-19.944 16.056-36 36-36h376c19.944 0 36 16.056 36 36v-2c0-19.944-16.056-36-36-36z" enable-background="new" fill="#fff" opacity=".2"/>
 <path d="m480.03 99.159a164.63 164.63 0 0 0-78.891 86.02h28.091a137.98 137.98 0 0 1 50.801-56.539z" fill="#1a5fb4" stroke-width="4.3077"/>
 <path d="m187.11 233.09v28.539a137.95 137.95 0 0 1 59.416 61.518h28.091a164.61 164.61 0 0 0-87.507-90.057zm224.27 3.7692c-27.961 0-54.38 6.2806-77.81 17.364v29.482c22.529-13.294 49.185-21 77.81-21 24.834 0 48.186 5.8068 68.652 16.02v-28.539a182.18 182.18 0 0 0-68.656-13.328zm-224.27-124.38v29.482c23.434 11.084 49.849 17.364 77.81 17.364a182.18 182.18 0 0 0 68.652-13.328v-28.539c-20.466 10.209-43.818 16.02-68.656 16.02-28.62 0-55.276-7.7065-77.806-21zm217.74 210.61a164.72 164.72 0 0 0 75.182 77.401v-29.478a138.01 138.01 0 0 1-46.2-47.923z" fill="#1a5fb4" stroke-width="4.3077"/>
 <path d="m480.03 180.88v4.3077h-448v-4.3077z" fill-opacity=".081" stroke-width="4.3077"/>
 <path d="m94.357 185.19c9.7294 20.046 14.767 42.044 14.732 64.327 0.0397 25.808-6.735 51.169-19.639 73.52h30.916c10.751-23.018 16.315-48.115 16.3-73.52 5e-3 -22.032-4.1854-43.863-12.346-64.327zm163.33 137.85c-8.1575 20.465-12.344 57.277-12.337 79.308-0.0163 25.404 5.6569 54.247 16.406 77.265h30.916c-12.905-22.35-19.792-51.457-19.753-77.265 0-23.089 5.2985-59.889 14.732-79.308z" fill="#1a5fb4" stroke-width="4.3077"/>
 <path d="m187.11 36.63 4.3077-4.6795v449.23h-4.3077z" fill="#ffffff" fill-opacity=".555" stroke-width="4.4898"/>
 <path d="m182.8 31.95 4.3077 4.5452v442.45h-4.3077z" fill-opacity=".081" stroke-width="4.4249"/>
 <path d="m333.57 36.567 4.3077-4.6163v443.16l-4.3077 4.6162z" fill="#ffffff" fill-opacity=".555" stroke-width="4.4593"/>
 <path d="m329.26 31.95 4.3077 4.6163v443.16l-4.3077-4.6162z" fill-opacity=".081" stroke-width="4.4593"/>
 <path d="m480.03 185.19v4.3077h-448v-4.3077zm0 137.85v4.3077h-292.92v-4.3077z" fill="#ffffff" fill-opacity=".555" stroke-width="4.3077"/>
 <path d="m480.03 318.72v4.3077h-448v-4.3077z" fill-opacity=".081" stroke-width="4.3077"/>
</svg>
