<svg width="512" height="512" enable-background="new" version="1.0" xmlns="http://www.w3.org/2000/svg" xmlns:xlink="http://www.w3.org/1999/xlink">
 <defs>
  <filter id="a" x="-.024" y="-.024" width="1.048" height="1.048" color-interpolation-filters="sRGB">
   <feGaussianBlur stdDeviation="4.48"/>
  </filter>
  <clipPath id="i">
   <rect x="12" y="184" width="104" height="100" rx="8" ry="8" fill="#f6f5f4" stroke-width=".25"/>
  </clipPath>
  <linearGradient id="j" x1="48" x2="464" y1="44" y2="44" gradientTransform="matrix(.25 0 0 .25 0 225)" gradientUnits="userSpaceOnUse">
   <stop stop-color="#babdb6" offset="0"/>
   <stop stop-color="#f6f5f4" offset=".042"/>
   <stop stop-color="#d5d3cf" offset=".083"/>
   <stop stop-color="#deddda" offset=".915"/>
   <stop stop-color="#ebeae8" offset=".944"/>
   <stop stop-color="#f6f5f4" offset=".985"/>
   <stop stop-color="#babdb6" offset="1"/>
  </linearGradient>
 </defs>
 <rect transform="matrix(0,-1,-1,0,0,0)" x="-482" y="-480" width="448" height="448" rx="36" ry="36" enable-background="new" opacity=".2"/>
 <rect transform="matrix(0,-1,-1,0,-208,228)" x="-256" y="-688" width="448" height="448" rx="36" ry="36" enable-background="new" filter="url(#a)" opacity=".1"/>
 <rect transform="matrix(0,-1,-1,0,-208,228)" x="-256" y="-688" width="448" height="448" rx="36" ry="36" enable-background="new" filter="url(#a)" opacity=".2"/>
 <path d="m68 32c-19.944 0-36 16.056-36 36v2c0-19.944 16.056-36 36-36h376c19.944 0 36 16.056 36 36v-2c0-19.944-16.056-36-36-36z" enable-background="new" fill="#fff" opacity=".2"/>
 <g transform="matrix(4.3077 0 0 4.3077 1377.5 -1192.6)">
  <g transform="translate(-324.34 100.27)">
   <rect x="12" y="204" width="104" height="84" rx="8" ry="8" fill="#9a9996"/>
   <path d="m20 184h27l1 1 1-1h31.984l1 1 1-1h25.016c4.432 0 8 3.568 8 8v84c0 4.432-3.568 8-8 8h-88c-4.432 0-8-3.568-8-8v-84c0-4.432 3.568-8 8-8z" fill="#c0bfbc"/>
   <g clip-path="url(#i)">
    <path d="m48 252h34v32h-34z" fill="#deddda"/>
    <path d="m48 248h34v33l-1.094-1h-32.906zm0-32h34v32h-34zm0-31 1-1h32l1 1v31h-34z" fill="#f6f5f4"/>
    <path d="m82 252h34v32h-34z" fill="url(#j)"/>
    <path d="m82 248h34v24c0 4-3.982 8-8 8h-25.031l-0.969 1zm0-32h34v32h-34zm0-31 0.992-1h33.008v32h-34z" fill="#f6f5f4"/>
    <path d="m116 196.03a38.218 38.218 0 0 0-18.314 19.969h6.521a32.03 32.03 0 0 1 11.793-13.125z" fill="#1a5fb4"/>
    <path d="m12 220h36v32h-36z" fill="#9a9996"/>
    <path d="m12 216h36v32h-36zm0-32h35l1 1v31h-36z" fill="#f6f5f4"/>
    <path d="m48 227.12v6.625a32.025 32.025 0 0 1 13.793 14.281h6.521a38.213 38.213 0 0 0-20.314-20.906zm52.063 0.875c-6.491 0-12.624 1.458-18.063 4.031v6.844c5.23-3.086 11.418-4.875 18.063-4.875 5.765 0 11.186 1.348 15.937 3.719v-6.625a42.292 42.292 0 0 0-15.938-3.094zm-52.063-28.875v6.844c5.44 2.573 11.572 4.031 18.063 4.031a42.292 42.292 0 0 0 15.937-3.094v-6.625c-4.751 2.37-10.172 3.719-15.938 3.719-6.644 0-12.832-1.789-18.062-4.875zm50.547 48.891a38.239 38.239 0 0 0 17.453 17.968v-6.843a32.038 32.038 0 0 1-10.725-11.125z" fill="#1a5fb4"/>
    <path d="m116 215v1h-104v-1z" fill-opacity=".081"/>
    <path d="m26.468 216a34.077 34.077 0 0 1 3.42 14.933 34.03 34.03 0 0 1-4.559 17.067h7.177a40.274 40.274 0 0 0 3.784-17.067 40.293 40.293 0 0 0-2.866-14.933zm37.916 32a40.293 40.293 0 0 0-2.864 14.933 40.274 40.274 0 0 0 3.783 17.067h7.177a34.029 34.029 0 0 1-4.56-17.067c0-5.36 1.23-10.425 3.42-14.933z" fill="#1a5fb4"/>
    <path d="m48 185 1-1v96h-1z" fill="#fff" fill-opacity=".555"/>
    <path d="m47 184 1 1v63h-1z" fill-opacity=".081"/>
    <path d="m82 185 1-1v96l-1 1z" fill="#fff" fill-opacity=".555"/>
    <path d="m81 184 1 1v96l-1-1z" fill-opacity=".081"/>
    <path d="m116 216v1h-104v-1zm0 32v1h-68v-1z" fill="#fff" fill-opacity=".555"/>
    <path d="m116 247v1h-104v-1z" fill-opacity=".081"/>
   </g>
  </g>
 </g>
</svg>
