<svg width="512" height="512" enable-background="new" version="1.0" xmlns="http://www.w3.org/2000/svg">
 <defs>
  <filter id="c" x="-.024" y="-.024" width="1.048" height="1.048" color-interpolation-filters="sRGB">
   <feGaussianBlur stdDeviation="4.48"/>
  </filter>
  <filter id="b" x="-.012" y="-.012" width="1.024" height="1.024" color-interpolation-filters="sRGB">
   <feGaussianBlur stdDeviation="1.92"/>
  </filter>
  <filter id="a" x="-.024" y="-.024" width="1.048" height="1.048" color-interpolation-filters="sRGB">
   <feGaussianBlur stdDeviation="4.48"/>
  </filter>
 </defs>
 <g transform="translate(0,212)">
  <g>
   <g transform="translate(-208,16)">
    <path d="m288-192a48 48 0 0 0-48 48 48 48 0 0 0 32 45.201v261.61a48 48 0 0 0-32 45.193 48 48 0 0 0 48 48 48 48 0 0 0 45.201-32h261.61a48 48 0 0 0 45.193 32 48 48 0 0 0 48-48 48 48 0 0 0-32-45.201v-261.61a48 48 0 0 0 32-45.193 48 48 0 0 0-48-48 48 48 0 0 0-45.201 32h-261.61a48 48 0 0 0-45.193-32zm45.201 64h261.61a48 48 0 0 0 6.0957 11.785l-40.676 40.676a32 32 0 0 0-16.227-4.4609 32 32 0 0 0-27.668 16h-104.65a32 32 0 0 0-27.678-16 32 32 0 0 0-16.227 4.4609l-40.693-40.693a48 48 0 0 0 6.1211-11.768zm279.03 23.08a48 48 0 0 0 11.768 6.1211v261.61a48 48 0 0 0-11.785 6.0957l-40.676-40.676a32 32 0 0 0 4.4609-16.227 32 32 0 0 0-16-27.668v-104.65a32 32 0 0 0 16-27.678 32 32 0 0 0-4.4609-16.227zm-296.45 0.0176 40.676 40.676a32 32 0 0 0-4.4609 16.227 32 32 0 0 0 16 27.668v104.65a32 32 0 0 0-16 27.678 32 32 0 0 0 4.4609 16.227l-40.693 40.693a48 48 0 0 0-11.768-6.1211v-261.61a48 48 0 0 0 11.785-6.0957zm95.883 72.902h104.65a32 32 0 0 0 11.678 11.668v104.65a32 32 0 0 0-11.668 11.678h-104.65a32 32 0 0 0-11.678-11.668v-104.65a32 32 0 0 0 11.668-11.678zm0 160h104.65a32 32 0 0 0 27.678 16 32 32 0 0 0 16.227-4.4609l40.693 40.693a48 48 0 0 0-6.1211 11.768h-261.61a48 48 0 0 0-6.0957-11.785l40.676-40.676a32 32 0 0 0 16.227 4.4609 32 32 0 0 0 27.668-16z" enable-background="new" filter="url(#c)" opacity=".1" stroke="#000" stroke-linecap="round" stroke-width="8"/>
    <g shape-rendering="auto">
     <path d="m272-160v384h384v-384zm43.312 32h297.38l-64 64h-169.38zm-11.312 11.312 64 64v169.38l-64 64zm320 0v297.38l-64-64v-169.38zm-224 84.688h128v128h-128zm-20.688 160h169.38l64 64h-297.38z" color="#000000" color-rendering="auto" enable-background="accumulate" filter="url(#b)" image-rendering="auto" opacity=".2" solid-color="#000000" style="isolation:auto;mix-blend-mode:normal;text-decoration-color:#000000;text-decoration-line:none;text-decoration-style:solid;text-indent:0;text-transform:none;white-space:normal"/>
     <path transform="translate(0,-244)" d="m272 80v384h384v-384zm43.312 32h297.38l-64 64h-169.38zm-11.312 11.312 64 64v169.38l-64 64zm320 0v297.38l-64-64v-169.38zm-224 84.688h128v128h-128zm-20.688 160h169.38l64 64h-297.38z" color="#000000" color-rendering="auto" enable-background="accumulate" fill="#c4c4c4" image-rendering="auto" solid-color="#000000" style="isolation:auto;mix-blend-mode:normal;text-decoration-color:#000000;text-decoration-line:none;text-decoration-style:solid;text-indent:0;text-transform:none;white-space:normal"/>
     <path transform="translate(0,-244)" d="m272 80v2h384v-2zm43.312 34 64 64h169.38l64-64h-2l-62 62h-169.38l-62-62zm84.688 222v2h128v-2zm-32 20.688-64 64v2l64-64zm192 0v2l64 64v-2zm-242.69 75.312-2 2h297.38l-2-2z" color="#000000" color-rendering="auto" enable-background="accumulate" fill="#fff" image-rendering="auto" opacity=".2" solid-color="#000000" style="isolation:auto;mix-blend-mode:normal;text-decoration-color:#000000;text-decoration-line:none;text-decoration-style:solid;text-indent:0;text-transform:none;white-space:normal"/>
    </g>
    <path d="m288-192a48 48 0 0 0-48 48 48 48 0 0 0 48 48 48 48 0 0 0 48-48 48 48 0 0 0-48-48zm352 0a48 48 0 0 0-48 48 48 48 0 0 0 48 48 48 48 0 0 0 48-48 48 48 0 0 0-48-48zm-256 112a32 32 0 0 0-32 32 32 32 0 0 0 32 32 32 32 0 0 0 32-32 32 32 0 0 0-32-32zm160 0a32 32 0 0 0-32 32 32 32 0 0 0 32 32 32 32 0 0 0 32-32 32 32 0 0 0-32-32zm-160 160a32 32 0 0 0-32 32 32 32 0 0 0 32 32 32 32 0 0 0 32-32 32 32 0 0 0-32-32zm160 0a32 32 0 0 0-32 32 32 32 0 0 0 32 32 32 32 0 0 0 32-32 32 32 0 0 0-32-32zm-256 80a48 48 0 0 0-48 48 48 48 0 0 0 48 48 48 48 0 0 0 48-48 48 48 0 0 0-48-48zm352 0a48 48 0 0 0-48 48 48 48 0 0 0 48 48 48 48 0 0 0 48-48 48 48 0 0 0-48-48z" enable-background="new" filter="url(#a)" opacity=".2"/>
    <path transform="translate(0,-244)" d="m288 48a48 48 0 0 0-48 48 48 48 0 0 0 48 48 48 48 0 0 0 48-48 48 48 0 0 0-48-48zm352 0a48 48 0 0 0-48 48 48 48 0 0 0 48 48 48 48 0 0 0 48-48 48 48 0 0 0-48-48zm-256 112a32 32 0 0 0-32 32 32 32 0 0 0 32 32 32 32 0 0 0 32-32 32 32 0 0 0-32-32zm160 0a32 32 0 0 0-32 32 32 32 0 0 0 32 32 32 32 0 0 0 32-32 32 32 0 0 0-32-32zm-160 160a32 32 0 0 0-32 32 32 32 0 0 0 32 32 32 32 0 0 0 32-32 32 32 0 0 0-32-32zm160 0a32 32 0 0 0-32 32 32 32 0 0 0 32 32 32 32 0 0 0 32-32 32 32 0 0 0-32-32zm-256 80a48 48 0 0 0-48 48 48 48 0 0 0 48 48 48 48 0 0 0 48-48 48 48 0 0 0-48-48zm352 0a48 48 0 0 0-48 48 48 48 0 0 0 48 48 48 48 0 0 0 48-48 48 48 0 0 0-48-48z" enable-background="new" fill="#d8d8d8"/>
    <path transform="translate(0,-244)" d="m288 48a48 48 0 0 0-48 48 48 48 0 0 0 0.041 0.83203 48 48 0 0 1 47.959-46.832 48 48 0 0 1 47.959 47.168 48 48 0 0 0 0.04102-1.168 48 48 0 0 0-48-48zm352 0a48 48 0 0 0-48 48 48 48 0 0 0 0.041 0.83203 48 48 0 0 1 47.959-46.832 48 48 0 0 1 47.959 47.168 48 48 0 0 0 0.04102-1.168 48 48 0 0 0-48-48zm-256 112a32 32 0 0 0-32 32 32 32 0 0 0 0.041 0.82812 32 32 0 0 1 31.959-30.828 32 32 0 0 1 31.959 31.172 32 32 0 0 0 0.04102-1.1719 32 32 0 0 0-32-32zm160 0a32 32 0 0 0-32 32 32 32 0 0 0 0.041 0.82812 32 32 0 0 1 31.959-30.828 32 32 0 0 1 31.959 31.172 32 32 0 0 0 0.04102-1.1719 32 32 0 0 0-32-32zm-160 160a32 32 0 0 0-32 32 32 32 0 0 0 0.041 0.82812 32 32 0 0 1 31.959-30.828 32 32 0 0 1 31.959 31.172 32 32 0 0 0 0.04102-1.1719 32 32 0 0 0-32-32zm160 0a32 32 0 0 0-32 32 32 32 0 0 0 0.041 0.82812 32 32 0 0 1 31.959-30.828 32 32 0 0 1 31.959 31.172 32 32 0 0 0 0.04102-1.1719 32 32 0 0 0-32-32zm-256 80a48 48 0 0 0-48 48 48 48 0 0 0 0.041 0.83203 48 48 0 0 1 47.959-46.832 48 48 0 0 1 47.959 47.168 48 48 0 0 0 0.04102-1.168 48 48 0 0 0-48-48zm352 0a48 48 0 0 0-48 48 48 48 0 0 0 0.041 0.83203 48 48 0 0 1 47.959-46.832 48 48 0 0 1 47.959 47.168 48 48 0 0 0 0.04102-1.168 48 48 0 0 0-48-48z" enable-background="new" fill="#fff" opacity=".2"/>
   </g>
  </g>
 </g>
</svg>
