<svg xmlns="http://www.w3.org/2000/svg" width="512" height="512" enable-background="new" version="1.0"><defs><filter id="b" width="1.048" height="1.048" x="-.024" y="-.024" color-interpolation-filters="sRGB"><feGaussianBlur stdDeviation="4.453"/></filter><filter id="a" width="1.096" height="1.096" x="-.048" y="-.048" color-interpolation-filters="sRGB"><feGaussianBlur stdDeviation="8.96"/></filter></defs><rect width="448" height="448" x="-256" y="-688" filter="url(#a)" opacity=".2" rx="36" ry="36" style="mix-blend-mode:normal" transform="matrix(0 -1 -1 0 -208 234.5)"/><rect width="448" height="448" x="-256" y="-688" filter="url(#b)" opacity=".1" rx="36" ry="36" transform="matrix(0 -1 -1 0 -208 228)"/><rect width="448" height="448" x="-480" y="-480" fill="#e6e6e6" rx="36" ry="36" transform="scale(1 -1)rotate(90)"/><path fill="#f9f9f9" d="M68 32c-19.944 0-36 16.056-36 36v252.35h152.97V480H444c19.944 0 36-16.056 36-36V68c0-19.944-16.056-36-36-36z"/><path fill="#fff" d="M68 32c-19.944 0-36 16.056-36 36v2c0-19.944 16.056-36 36-36h376c19.944 0 36 16.056 36 36v-2c0-19.944-16.056-36-36-36z" opacity=".2"/><path fill="#1a5fb4" d="M480.03 99.159a164.63 164.63 0 0 0-78.891 86.02h28.091a138 138 0 0 1 50.801-56.539zM187.11 233.09v28.539a137.95 137.95 0 0 1 59.416 61.518h28.091a164.6 164.6 0 0 0-87.507-90.057m224.27 3.77c-27.961 0-54.38 6.28-77.81 17.363v29.482c22.529-13.294 49.185-21 77.81-21 24.834 0 48.186 5.807 68.652 16.02v-28.539a182.2 182.2 0 0 0-68.656-13.328zM187.11 112.48v29.481c23.434 11.084 49.849 17.364 77.81 17.364a182.2 182.2 0 0 0 68.652-13.328v-28.539c-20.466 10.21-43.818 16.02-68.656 16.02-28.62 0-55.276-7.706-77.806-21zm217.74 210.61a164.72 164.72 0 0 0 75.182 77.4v-29.478a138 138 0 0 1-46.2-47.923z"/><path fill-opacity=".081" d="M480.03 180.88v4.308h-448v-4.308z"/><path fill="#1a5fb4" d="M94.357 185.19a146.8 146.8 0 0 1 14.732 64.327 146.6 146.6 0 0 1-19.639 73.52h30.916a173.5 173.5 0 0 0 16.3-73.52 173.6 173.6 0 0 0-12.346-64.327zm163.33 137.85c-8.158 20.465-12.344 57.277-12.337 79.308-.016 25.404 5.657 54.247 16.406 77.265h30.916c-12.905-22.35-19.792-51.457-19.753-77.265 0-23.089 5.299-59.889 14.732-79.308z"/><path fill="#fff" fill-opacity=".555" d="m187.11 36.63 4.308-4.68v449.23h-4.308z"/><path fill-opacity=".081" d="m182.8 31.95 4.308 4.545v442.45H182.8z"/><path fill="#fff" fill-opacity=".555" d="m333.57 36.567 4.308-4.616v443.16l-4.308 4.616z"/><path fill-opacity=".081" d="m329.26 31.95 4.308 4.616v443.16l-4.308-4.616z"/><path fill="#fff" fill-opacity=".555" d="M480.03 185.19v4.308h-448v-4.308zm0 137.85v4.308H187.11v-4.308z"/><path fill-opacity=".081" d="M480.03 318.72v4.308h-448v-4.308z"/></svg>