<svg xmlns="http://www.w3.org/2000/svg" width="512" height="512" enable-background="new" version="1.0"><defs><filter id="b" width="1.073" height="1.071" x="-.037" y="-.035" color-interpolation-filters="sRGB"><feGaussianBlur stdDeviation="7.083"/></filter><filter id="a" width="1.083" height="1.22" x="-.041" y="-.11" color-interpolation-filters="sRGB"><feGaussianBlur stdDeviation="6.6"/></filter><filter id="c" width="1.162" height="1.162" x="-.081" y="-.081" color-interpolation-filters="sRGB"><feGaussianBlur stdDeviation="3.24"/></filter><filter id="f" width="1.162" height="1.162" x="-.081" y="-.081" color-interpolation-filters="sRGB"><feGaussianBlur stdDeviation="3.24"/></filter><filter id="g" width="1.162" height="1.162" x="-.081" y="-.081" color-interpolation-filters="sRGB"><feGaussianBlur stdDeviation="3.24"/></filter></defs><g stroke-width="12"><path d="M64 184h384v144H64z" filter="url(#a)" opacity=".15"/><path fill="#4f4f4f" d="M64 184h384v144H64z"/><path d="M256 19.254c-112.19 0-205.64 76.32-232.2 180h464.4c-26.556-103.68-120.01-180-232.2-180m-232.2 300c26.549 103.68 120.01 180 232.2 180s205.64-76.32 232.2-180z" filter="url(#b)" opacity=".25"/></g><path fill="#fff" d="M256 16A240 240 0 0 0 16 256l.041 1.172A240 240 0 0 1 256 18a240 240 0 0 1 239.959 238.828L496 256A240 240 0 0 0 256 16" opacity=".2"/><g stroke-width="12"><path fill="#e4e4e4" d="M256 16C143.81 16 50.36 92.32 23.8 196h464.4C461.644 92.32 368.19 16 256 16M23.8 316C50.349 419.68 143.81 496 256 496s205.64-76.32 232.2-180z"/><circle cx="256" cy="260.99" r="48" filter="url(#c)" opacity=".35"/><circle cx="256" cy="256" r="48" fill="#ff6363"/><circle cx="376" cy="260.99" r="48" filter="url(#f)" opacity=".35"/><circle cx="376" cy="256" r="48" fill="#ff6363"/><circle cx="136" cy="260.99" r="48" filter="url(#g)" opacity=".35"/><circle cx="136" cy="256" r="48" fill="#ff6363"/></g></svg>