<svg width="512" height="512" enable-background="new" version="1.0" xmlns="http://www.w3.org/2000/svg">
 <defs>
  <clipPath id="b">
   <rect x="208" y="4" width="96" height="48" fill="#949390"/>
  </clipPath>
  <filter id="a" x="-.032143" y="-.040909" width="1.0643" height="1.0818" color-interpolation-filters="sRGB">
   <feGaussianBlur stdDeviation="6"/>
  </filter>
 </defs>
 <g transform="matrix(4 0 0 4 0 -720)" enable-background="new">
  <path transform="matrix(.25 0 0 .25 0 181.9)" d="m64 80c-17.728 0-32 15.775-32 35.369v284.63c0 17.728 14.272 32 32 32h384c17.728 0 32-14.272 32-32v-284.63c0-19.594-14.272-35.369-32-35.369z" enable-background="new" filter="url(#a)" opacity=".15"/>
  <rect x="8" y="264" width="112" height="24" rx="8" ry="8" enable-background="new" fill="#c01c28"/>
  <rect x="8" y="200" width="112" height="84" rx="8" ry="8.8421" enable-background="new" fill="#ed333b"/>
  <path d="m36 282h56l-4-10h-48z" enable-background="new" fill="#5e5c64" stroke="#5e5c64" stroke-linecap="round" stroke-linejoin="round" stroke-width="8"/>
  <rect x="32" y="282" width="64" height="6" enable-background="new" fill="#424048"/>
  <path d="m24 208h80l8 8v52h-96v-52z" enable-background="new" fill="#f6f5f4"/>
  <g transform="translate(0 8)" enable-background="new">
   <rect x="16" y="216" width="96" height="32" enable-background="new" fill="#424048"/>
   <circle cx="40" cy="232" r="6" enable-background="new" fill="#f6f5f4"/>
   <circle cx="88" cy="232" r="6" enable-background="new" fill="#f6f5f4"/>
   <rect x="52" y="226" width="24" height="12" enable-background="new" fill="#949390"/>
   <path transform="matrix(.25 0 0 .25 -4.5e-6 225)" d="m272 28c0 61.856-50.144 112-112 112s-112-50.144-112-112 50.144-112 112-112 112 50.144 112 112z" clip-path="url(#b)" enable-background="new" fill="#424048" opacity=".5"/>
  </g>
  <path transform="matrix(.25 0 0 .25 0 180)" d="m64 80c-17.728 0-32 15.775-32 35.369v7.1562c0-19.128 14.272-34.525 32-34.525h384c17.728 0 32 15.398 32 34.525v-7.1562c0-19.594-14.272-35.369-32-35.369h-384z" enable-background="new" fill="#fff" opacity=".25" stroke-width="4"/>
 </g>
</svg>
