<svg xmlns="http://www.w3.org/2000/svg" width="512" height="512" enable-background="new" version="1.0"><defs><filter id="a" width="1.045" height="1.052" x="-.022" y="-.026" color-interpolation-filters="sRGB"><feGaussianBlur stdDeviation="4.225"/></filter><filter id="c" width="1.12" height="1.12" x="-.06" y="-.06" color-interpolation-filters="sRGB"><feGaussianBlur stdDeviation="3.2"/></filter><filter id="b" width="1.12" height="1.12" x="-.06" y="-.06" color-interpolation-filters="sRGB"><feGaussianBlur stdDeviation="4.4"/></filter></defs><g fill-rule="evenodd" color="#000"><path stroke="#3f3f3f" stroke-linecap="round" stroke-width="8" d="m466.84 91.102-29.811 29.932-27.66-27.66-102.63 102.63h-50.545l-19.166 43.127a12.001 12.001 0 1 0 21.93 9.746l12.834-28.873h27.23l28.971 28.971v23.97l-29.828 16.57a12.001 12.001 0 1 0 11.656 20.98l42.172-23.43v-45.808l72.193-72.193 91.311 90.94h-3.504v176h-16c-16.002 0-16 16-16 16v32h208v-32c0-16-16-16-16-16h-16v-176h-64.03l22.14-22.23z" enable-background="accumulate" filter="url(#a)" opacity=".1" style="isolation:auto;mix-blend-mode:normal;text-decoration-color:#000;text-decoration-line:none;text-decoration-style:solid;text-indent:0;text-transform:none;white-space:normal" transform="matrix(-1 0 0 1 720 -16)"/><path d="m466.84 91.102-29.811 29.932-27.66-27.66-102.63 102.63h-50.545l-19.166 43.127a12.001 12.001 0 1 0 21.93 9.746l12.834-28.873h27.23l28.971 28.971v23.97l-29.828 16.57a12.001 12.001 0 1 0 11.656 20.98l42.172-23.43v-45.808l72.193-72.193 91.311 90.94h-3.504v176h-16c-16.002 0-16 16-16 16v32h208v-32c0-16-16-16-16-16h-16v-176h-64.03l22.14-22.23z" enable-background="accumulate" filter="url(#a)" opacity=".2" style="isolation:auto;mix-blend-mode:normal;text-decoration-color:#000;text-decoration-line:none;text-decoration-style:solid;text-indent:0;text-transform:none;white-space:normal" transform="matrix(-1 0 0 1 720 -16)"/><path fill="#cbbb2e" d="m461.16-156.9 29.811 29.932 27.66-27.66 112 112-45.254 45.254-81.566-81.566L412.5 11.999h3.504v208h-144v-208h64.03l-22.14-22.23z" enable-background="accumulate" style="isolation:auto;mix-blend-mode:normal;text-decoration-color:#000;text-decoration-line:none;text-decoration-style:solid;text-indent:0;text-transform:none;white-space:normal" transform="translate(-208 228)"/><path d="m503.81 163.06-91.311 90.939h2.008l89.303-88.939 81.566 81.566 45.254-45.254-1-1-44.254 44.254zm-188.92 69.713-1 .996L334.038 254h1.992z" enable-background="accumulate" opacity=".1" style="isolation:auto;mix-blend-mode:normal;text-decoration-color:#000;text-decoration-line:none;text-decoration-style:solid;text-indent:0;text-transform:none;white-space:normal" transform="translate(-208 -16)"/><path fill="#fff" d="m461.16-156.9 29.811 29.932 27.66-27.66 112 112-1 1-111-111-27.66 27.66L461.16-154.9 314.89-9.23l-1-1.004zM416.004 12v2H412.5l2.008-2zm-81.961 0 1.992 2h-64.03v-2z" enable-background="accumulate" opacity=".2" style="isolation:auto;mix-blend-mode:normal;text-decoration-color:#000;text-decoration-line:none;text-decoration-style:solid;text-indent:0;text-transform:none;white-space:normal" transform="translate(-208 228)"/></g><g transform="translate(-208 228)"><rect width="176" height="176" x="496" y="-64" enable-background="new" filter="url(#b)" opacity=".2" ry="88" transform="matrix(-1 0 0 1 928 0)"/><rect width="176" height="40" x="-432" y="172" fill="#d6c84a" ry="16" transform="scale(-1 1)"/><path fill="#3f3f3f" d="M432 188c16.002 0 16 16 16 16v32H240v-32c0-16 16-16 16-16z" enable-background="new"/></g><path fill="none" stroke="#000" stroke-width="32" d="M288 96 136 248" opacity=".1"/><g transform="translate(-208 228)"><rect width="176" height="176" x="-432" y="-68" fill="#d6c84a" enable-background="new" ry="88" transform="scale(-1 1)"/><rect width="128" height="128" x="-408" y="-42" fill="#fff" enable-background="new" opacity=".2" ry="64" transform="scale(-1 1)"/><rect width="128" height="128" x="-408" y="-44" fill="#3f3f3f" enable-background="new" ry="64" transform="scale(-1 1)"/><rect width="128" height="128" x="368" y="-192" enable-background="new" filter="url(#c)" opacity=".2" ry="64" transform="matrix(-1 0 0 1 928 0)"/></g><path fill="none" stroke="#000" stroke-width="24" d="m288 96 104 104" opacity=".1"/><g transform="translate(-208 228)"><rect width="128" height="128" x="-560" y="-196" fill="#d6c84a" enable-background="new" ry="64" transform="scale(-1 1)"/><path fill="#3f3f3f" fill-rule="evenodd" d="m671.8-52 19.166 43.127a12.001 12.001 0 1 1-21.93 9.746L656.202-28h-27.23L600.001.971v23.97l29.828 16.57a12.001 12.001 0 1 1-11.656 20.98l-42.172-23.43V-8.972L619.03-52z" color="#000" enable-background="accumulate" style="isolation:auto;mix-blend-mode:normal;text-decoration-color:#000;text-decoration-line:none;text-decoration-style:solid;text-indent:0;text-transform:none;white-space:normal"/><rect width="96" height="96" x="-544" y="-178" fill="#fff" enable-background="new" opacity=".2" ry="48" transform="scale(-1 1)"/><rect width="96" height="96" x="-544" y="-180" fill="#3f3f3f" enable-background="new" ry="48" transform="scale(-1 1)"/></g><g fill="#fff" transform="translate(-208 228)"><rect width="80" height="80" x="-384" y="-20" enable-background="new" opacity=".1" ry="40" transform="scale(-1 1)"/><rect width="64" height="64" x="-528" y="-164" enable-background="new" opacity=".1" ry="32" transform="scale(-1 1)"/><path d="M344-68c48.752 0 88 39.248 88 88 0 .334-.01.666-.014 1-.533-48.287-39.569-87-87.986-87s-87.453 38.713-87.986 87c-.003-.334-.013-.666-.013-1 0-48.752 39.248-88 88-88zM496-196c35.456 0 64 28.544 64 64 0 .335-.02.666-.025 1-.534-34.989-28.854-63-63.975-63s-63.441 28.011-63.975 63c-.005-.334-.026-.665-.026-1 0-35.456 28.544-64 64-64z" enable-background="new" opacity=".2"/><path d="M416 172c8.864 0 16 7.136 16 16v2c0-8.864-7.136-16-16-16H272c-8.864 0-16 7.136-16 16v-2c0-8.864 7.136-16 16-16z" opacity=".2"/><path d="M432 188c16.002 0 16 16 16 16v2s.002-16-16-16H256s-16 0-16 16v-2c0-16 16-16 16-16z" enable-background="new" opacity=".2"/><path fill-rule="evenodd" d="m671.8-52 19.166 43.127a12 12 0 0 1 1.076 6.107 12 12 0 0 0-1.076-4.107L671.8-50h-52.77L576.001-6.971v-2L619.03-52zm-71.799 76.939 29.828 16.57a12 12 0 0 1 6.234 11.502 12 12 0 0 0-6.234-9.502l-29.828-16.57z" color="#000" enable-background="accumulate" opacity=".2" style="isolation:auto;mix-blend-mode:normal;text-decoration-color:#000;text-decoration-line:none;text-decoration-style:solid;text-indent:0;text-transform:none;white-space:normal"/></g><path d="M288 48c26.592 0 48 21.408 48 48 0 .336-.019.666-.025 1-.531-26.125-21.718-47-47.975-47s-47.444 20.875-47.975 47c-.007-.334-.026-.664-.026-1 0-26.592 21.408-48 48-48zM136 184c35.456 0 64 28.544 64 64 0 .335-.02.666-.025 1-.534-34.989-28.854-63-63.975-63s-63.441 28.011-63.975 63c-.005-.334-.026-.665-.026-1 0-35.456 28.544-64 64-64z" enable-background="new" opacity=".2"/><path fill-rule="evenodd" d="m628.97 214-28.971 28.971v2L628.97 216h27.23l12.834 28.873a12.001 12.001 0 0 0 23.006-5.639 12.001 12.001 0 0 1-23.006 3.639L656.2 214zm-52.971 67.061v2l42.172 23.43a12.001 12.001 0 0 0 17.891-11.479 12 12 0 0 1-17.891 9.479z" color="#000" enable-background="accumulate" opacity=".2" style="isolation:auto;mix-blend-mode:normal;text-decoration-color:#000;text-decoration-line:none;text-decoration-style:solid;text-indent:0;text-transform:none;white-space:normal" transform="translate(-208 -16)"/></svg>