<svg xmlns="http://www.w3.org/2000/svg" width="512" height="512" enable-background="new" version="1.0"><defs><filter id="b" width="1.053" height="1.044" x="-.027" y="-.022" color-interpolation-filters="sRGB"><feGaussianBlur stdDeviation="3.36"/></filter><filter id="a" width="1.053" height="1.044" x="-.027" y="-.022" color-interpolation-filters="sRGB"><feGaussianBlur stdDeviation="3.36"/></filter></defs><path stroke="#000" stroke-width="8" d="M400-192h240c8.864 0 16 7.136 16 16v336c0 8.864-7.136 16-16 16H400c-8.864 0-16-7.136-16-16v-336c0-8.864 7.136-16 16-16z" filter="url(#a)" opacity=".1" transform="translate(-208 228)"/><path d="M400-192h240c8.864 0 16 7.136 16 16v336c0 8.864-7.136 16-16 16H400c-8.864 0-16-7.136-16-16v-336c0-8.864 7.136-16 16-16" filter="url(#a)" opacity=".2" transform="translate(-208 228)"/><path fill="#ebebeb" d="M192 32h240c8.864 0 16 7.136 16 16v336c0 8.864-7.136 16-16 16H192c-8.864 0-16-7.136-16-16V48c0-8.864 7.136-16 16-16"/><path fill="#fff" d="M192 32c-8.864 0-16 7.136-16 16v2c0-8.864 7.136-16 16-16h240c8.864 0 16 7.136 16 16v-2c0-8.864-7.136-16-16-16z" opacity=".2"/><g fill="#3f3f3f"><path d="M312 132a40 40 0 0 0-40 40 40 40 0 0 0 5.469 20.09 40 40 0 0 0-37.47 39.91 40 40 0 0 0 40 40 40 40 0 0 0 31.995-16.074A40 40 0 0 0 344 272a40 40 0 0 0 40-40 40 40 0 0 0-37.48-39.875A40 40 0 0 0 352 172a40 40 0 0 0-40-40z"/><path fill-rule="evenodd" d="M316 256h-8s0 32-36 32v8h80v-8c-36 0-36-32-36-32"/></g><path stroke="#000" stroke-width="8" d="M288-112h240c8.864 0 16 7.136 16 16v336c0 8.864-7.136 16-16 16H288c-8.864 0-16-7.136-16-16V-96c0-8.864 7.136-16 16-16z" filter="url(#b)" opacity=".1" transform="translate(-208 228)"/><path d="M288-112h240c8.864 0 16 7.136 16 16v336c0 8.864-7.136 16-16 16H288c-8.864 0-16-7.136-16-16V-96c0-8.864 7.136-16 16-16" filter="url(#b)" opacity=".2" transform="translate(-208 228)"/><path fill="#fff" d="M80 112h240c8.864 0 16 7.136 16 16v336c0 8.864-7.136 16-16 16H80c-8.864 0-16-7.136-16-16V128c0-8.864 7.136-16 16-16"/><path fill="#fff" d="M80 112c-8.864 0-16 7.136-16 16v2c0-8.864 7.136-16 16-16h240c8.864 0 16 7.136 16 16v-2c0-8.864-7.136-16-16-16z" opacity=".2"/><path fill="#f34235" d="M231.5 232c-12.801 0-24.077 6.056-31.5 15.328-7.423-9.272-18.699-15.328-31.5-15.328-22.368 0-40.5 18.132-40.5 40.5 0 .448.118.87.132 1.319H128c0 41.518 72 102.18 72 102.18s72-60.663 72-102.18h-.132c.014-.45.132-.871.132-1.319 0-22.368-18.132-40.5-40.5-40.5"/></svg>