<svg width="512" height="512" enable-background="new" version="1.0" xmlns="http://www.w3.org/2000/svg" xmlns:xlink="http://www.w3.org/1999/xlink">
 <defs>
  <linearGradient id="a" x1="344" x2="104" y1="33.559" y2="33.559" gradientTransform="translate(-8 208)" gradientUnits="userSpaceOnUse">
   <stop stop-color="#4fd2fd" offset="0"/>
   <stop stop-color="#4fd2fd" stop-opacity="0" offset="1"/>
  </linearGradient>
  <filter id="b" x="-.032464" y="-.0404" width="1.0649" height="1.0808" color-interpolation-filters="sRGB">
   <feGaussianBlur stdDeviation="6.06"/>
  </filter>
 </defs>
 <g>
  <path d="m64 88.272c-17.728 0-32 14.272-32 32v280 8 8c0 17.728 14.272 32 32 32h384c17.728 0 32-14.272 32-32v-8-8-280c0-17.728-14.272-32-32-32z" enable-background="new" filter="url(#b)" opacity=".15" style="paint-order:normal"/>
  <rect x="32" y="76" width="448" height="352" rx="32" ry="32" enable-background="new" fill="#f6f5f4" style="paint-order:normal"/>
  <rect x="48" y="92" width="416" height="312" rx="16" ry="16" enable-background="new" fill="#241f31" style="paint-order:normal"/>
  <path d="m32 388v16c0 17.728 14.272 32 32 32h384c17.728 0 32-14.272 32-32v-16c0 17.728-14.272 32-32 32h-384c-17.728 0-32-14.272-32-32z" enable-background="new" fill="#d5d3cf" style="paint-order:normal"/>
  <rect transform="scale(1,-1)" x="64" y="-388" width="384" height="280" enable-background="new" fill="#fff" opacity=".1" style="paint-order:normal"/>
 </g>
 <path d="m64 260h144l40-92 24 156 32-64h144" enable-background="new" fill="none" opacity=".236" stroke="#4fd2fd" stroke-miterlimit="10" stroke-width="16"/>
 <path d="m64 260h144l40-92 24 156 32-64h24" enable-background="new" fill="none" stroke="url(#a)" stroke-linecap="round" stroke-miterlimit="10" stroke-width="16"/>
</svg>
