<svg xmlns="http://www.w3.org/2000/svg" width="512" height="512" enable-background="new" version="1.0"><defs><filter id="a" width="1.048" height="1.048" x="-.024" y="-.024" color-interpolation-filters="sRGB"><feGaussianBlur stdDeviation="4.48"/></filter><filter id="b" width="1.113" height="1.128" x="-.056" y="-.064" color-interpolation-filters="sRGB"><feGaussianBlur stdDeviation="8.978"/></filter></defs><g transform="translate(-208 228)"><rect width="448" height="448" x="-256" y="-688" enable-background="new" filter="url(#a)" opacity=".1" rx="36" ry="36" transform="scale(1 -1)rotate(90)"/><rect width="448" height="448" x="-256" y="-688" enable-background="new" filter="url(#a)" opacity=".2" rx="36" ry="36" transform="scale(1 -1)rotate(90)"/><rect width="448" height="448" x="-252" y="-688" fill="#3262a1" enable-background="new" rx="36" ry="36" transform="scale(1 -1)rotate(90)"/><path fill="#fff" d="M276-196c-19.944 0-36 16.056-36 36v2c0-19.944 16.056-36 36-36h376c19.944 0 36 16.056 36 36v-2c0-19.944-16.056-36-36-36z" enable-background="new" opacity=".2"/><path d="M682.99-158.89c-7.004 1.514-13.459 5.457-18 11l-201 230-72-72c-12.043-12.044-33.958-12.045-46.002-.002-12.043 12.044-12.043 33.96.002 46.002l96 96 25 24 22-26 224-256c18.157-19.767-3.707-58.394-30-53z" color="#000" enable-background="accumulate" filter="url(#b)" opacity=".2" style="text-decoration-line:none;text-indent:0;text-transform:none"/><path fill="#fff" d="M682.99-162.89c-7.004 1.514-13.459 5.457-18 11l-201 230-72-72c-12.043-12.044-33.958-12.045-46.002-.002-12.043 12.044-12.043 33.96.002 46.002l96 96 25 24 22-26 224-256c18.157-19.767-3.707-58.394-30-53z" color="#000" enable-background="accumulate" style="text-decoration-line:none;text-indent:0;text-transform:none"/></g></svg>