<svg width="512" height="512" enable-background="new" version="1.0" xmlns="http://www.w3.org/2000/svg">
 <defs>
  <filter id="a" x="-.032929" y="-.032929" width="1.0659" height="1.0659" color-interpolation-filters="sRGB">
   <feGaussianBlur stdDeviation="4.48"/>
  </filter>
  <filter id="filter15362" x="-.027" y="-.027" width="1.054" height="1.054" color-interpolation-filters="sRGB">
   <feGaussianBlur stdDeviation="4.68"/>
  </filter>
 </defs>
 <g transform="translate(-208,228)">
  <rect transform="matrix(0,-1,-1,0,0,0)" x="-256" y="-688" width="448" height="448" rx="36" ry="36" filter="url(#a)" opacity=".1" stroke="#000" stroke-width="8"/>
  <rect transform="matrix(0,-1,-1,0,0,0)" x="-256" y="-688" width="448" height="448" rx="36" ry="36" filter="url(#a)" opacity=".2"/>
  <rect transform="matrix(0,-1,-1,0,0,0)" x="-254" y="-688.01" width="448" height="448" rx="36" ry="36" fill="#e6e6e6"/>
  <path d="m275.88-168c-11.005 0-19.865 8.8602-19.865 19.865v168.9h199.37v-188.77zm196.74 0v188.77h199.4v-168.9c0-11.005-8.8602-19.865-19.865-19.865zm-216.6 206v190.13c0 11.005 8.8602 19.865 19.865 19.865h179.51v-210z" fill="#000000" filter="url(#filter15362)" opacity=".15" stroke-width=".92857" style="mix-blend-mode:normal"/>
  <path transform="translate(208,-228)" d="m67.875 50c-11.005 0-19.865 8.8602-19.865 19.865v168.9h199.37v-188.77h-179.51zm196.74 0v188.77h199.4v-168.9c0-11.005-8.8602-19.865-19.865-19.865h-179.53zm-216.6 206v190.13c0 11.005 8.8602 19.865 19.865 19.865h179.51v-210h-199.37z" fill="#ffffff" stroke-width=".92857"/>
 </g>
 <path d="m259.74 52.455v430.77" color="#000000" fill="#e6e6e6" stroke-width="17.231" style="-inkscape-stroke:none"/>
 <path d="m113.4 77.329v139.8h17.674v-53.002l77.095-37.809z" fill="#2dc0af" stroke-width="4.3077"/>
 <path d="m114.65 410.71h77.539v-25.846h-25.846v-86.154h-13.767l-43.374 22.508 9.4468 22.426 21.849-10.472-0.0862 51.692h-25.76z" fill="#1a5fb4" font-weight="800" letter-spacing="0" stroke-width="4.3077" word-spacing="0"/>
 <circle cx="367.45" cy="364.63" r="64.616" fill="#a51d2d" stroke-width="4.3077"/>
 <rect x="354.53" y="282.78" width="25.846" height="163.69" rx="8.6154" ry="8.6154" fill="#a51d2d" stroke-width="4.3077"/>
 <rect transform="rotate(90)" x="351.7" y="-449.3" width="25.846" height="163.69" rx="8.6154" ry="8.6154" fill="#a51d2d" stroke-width="4.3077"/>
 <rect transform="rotate(45)" x="504.72" y="-83.841" width="25.846" height="163.69" rx="8.6154" ry="8.6154" fill="#a51d2d" stroke-width="4.3077"/>
 <rect transform="rotate(135)" x="-14.918" y="-599.49" width="25.846" height="163.69" rx="8.6154" ry="8.6154" fill="#a51d2d" stroke-width="4.3077"/>
 <circle cx="367.45" cy="356.01" r="64.616" fill="#ed333b" stroke-width="4.3077"/>
 <rect x="354.53" y="274.17" width="25.846" height="163.69" rx="8.6154" ry="8.6154" fill="#ed333b" stroke-width="4.3077"/>
 <rect transform="rotate(90)" x="343.09" y="-449.3" width="25.846" height="163.69" rx="8.6154" ry="8.6154" fill="#ed333b" stroke-width="4.3077"/>
 <rect transform="rotate(45)" x="498.63" y="-89.933" width="25.846" height="163.69" rx="8.6154" ry="8.6154" fill="#ed333b" stroke-width="4.3077"/>
 <rect transform="rotate(135)" x="-21.01" y="-593.4" width="25.846" height="163.69" rx="8.6154" ry="8.6154" fill="#ed333b" stroke-width="4.3077"/>
</svg>
