<svg xmlns="http://www.w3.org/2000/svg" width="512" height="512" enable-background="new" version="1.0"><defs><filter id="a" width="1.048" height="1.048" x="-.024" y="-.024" color-interpolation-filters="sRGB"><feGaussianBlur stdDeviation="4.48"/></filter></defs><g transform="translate(-208 228)"><g transform="scale(1 -1)rotate(90)"><rect width="448" height="448" x="-254" y="-688" opacity=".2" rx="36" ry="36"/><rect width="448" height="448" x="-256" y="-688" filter="url(#a)" opacity=".1" rx="36" ry="36"/><rect width="448" height="448" x="-256" y="-688" filter="url(#a)" opacity=".2" rx="36" ry="36"/></g><rect width="448" height="448" x="-252" y="-688" fill="#f9ce1d" rx="36" ry="36" transform="scale(1 -1)rotate(90)"/><path fill="#fff" d="M276-196c-19.944 0-36 16.056-36 36v2c0-19.944 16.056-36 36-36h376c19.944 0 36 16.056 36 36v-2c0-19.944-16.056-36-36-36z" opacity=".2"/><g opacity=".2"><path d="M376.423 74.347h-70.39V60.382l33.22-35.407q6.842-7.476 10.087-13.048 3.315-5.572 3.315-10.58 0-6.841-3.456-10.72-3.456-3.95-9.875-3.95-6.912 0-10.932 4.795-3.95 4.726-3.95 12.484h-20.454q0-9.38 4.444-17.139 4.514-7.758 12.695-12.131 8.182-4.444 18.55-4.444 15.87 0 24.615 7.618 8.817 7.617 8.817 21.511 0 7.618-3.95 15.517t-13.542 18.41L332.27 57.912h44.154zM458.109 31.887q0 21.3-8.817 32.585t-25.814 11.285q-16.786 0-25.674-11.073-8.886-11.074-9.098-31.74V14.042q0-21.512 8.887-32.656 8.957-11.144 25.744-11.144t25.673 11.073q8.887 11.003 9.099 31.669zM437.725 11.15q0-12.766-3.526-18.55-3.456-5.853-10.862-5.853-7.194 0-10.65 5.572-3.386 5.501-3.597 17.28v24.968q0 12.555 3.385 18.691 3.456 6.066 11.003 6.066 7.476 0 10.791-5.854t3.456-17.915zM532.247 35.697h11.637V52.13h-11.637v22.218h-20.384V52.13h-42.106l-.917-12.836 42.81-67.638h20.595zm-43.097 0h22.712V-.556l-1.34 2.327zM621.804-1.051q0 7.476-3.738 13.26t-10.298 9.24q7.477 3.597 11.85 9.944 4.372 6.278 4.372 14.812 0 13.683-9.31 21.653-9.31 7.9-25.32 7.9-16.011 0-25.392-7.97t-9.38-21.583q0-8.534 4.372-14.882 4.373-6.348 11.779-9.874-6.56-3.456-10.298-9.24-3.667-5.784-3.667-13.26 0-13.119 8.746-20.877 8.746-7.83 23.769-7.83 14.952 0 23.698 7.76 8.817 7.687 8.817 20.947zm-18.267 45.776q0-6.701-3.88-10.721t-10.438-4.02q-6.489 0-10.368 4.02-3.88 3.95-3.88 10.72 0 6.56 3.81 10.58 3.808 4.02 10.58 4.02 6.629 0 10.367-3.879 3.809-3.879 3.809-10.72zM601.42-.062q0-5.995-3.174-9.592-3.174-3.667-8.958-3.667-5.713 0-8.887 3.526-3.173 3.527-3.173 9.734 0 6.136 3.173 9.874t8.958 3.738 8.887-3.738q3.174-3.738 3.174-9.874z"/></g><g fill="#fff"><path d="M376.423 76.347h-70.39V62.382l33.22-35.407q6.842-7.476 10.087-13.048 3.315-5.572 3.315-10.58 0-6.841-3.456-10.72-3.456-3.95-9.875-3.95-6.912 0-10.932 4.795-3.95 4.726-3.95 12.484h-20.454q0-9.38 4.444-17.139 4.514-7.758 12.695-12.131 8.182-4.444 18.55-4.444 15.87 0 24.615 7.618 8.817 7.617 8.817 21.511 0 7.618-3.95 15.517t-13.542 18.41L332.27 59.912h44.154zM458.109 33.887q0 21.3-8.817 32.585t-25.814 11.285q-16.786 0-25.674-11.073-8.886-11.074-9.098-31.74V16.042q0-21.512 8.887-32.656 8.957-11.144 25.744-11.144t25.673 11.073q8.887 11.003 9.099 31.669zM437.725 13.15q0-12.766-3.526-18.55-3.456-5.853-10.862-5.853-7.194 0-10.65 5.572-3.386 5.501-3.597 17.28v24.968q0 12.555 3.385 18.691 3.456 6.066 11.003 6.066 7.476 0 10.791-5.854t3.456-17.915zM532.247 37.697h11.637V54.13h-11.637v22.218h-20.384V54.13h-42.106l-.917-12.836 42.81-67.638h20.595zm-43.097 0h22.712V1.444l-1.34 2.327zM621.804.949q0 7.476-3.738 13.26t-10.298 9.24q7.477 3.597 11.85 9.944 4.372 6.278 4.372 14.812 0 13.683-9.31 21.653-9.31 7.9-25.32 7.9-16.011 0-25.392-7.97t-9.38-21.583q0-8.534 4.372-14.882 4.373-6.348 11.779-9.874-6.56-3.456-10.298-9.24-3.667-5.784-3.667-13.26 0-13.119 8.746-20.877 8.746-7.83 23.769-7.83 14.952 0 23.698 7.76 8.817 7.687 8.817 20.947zm-18.267 45.776q0-6.701-3.88-10.721t-10.438-4.02q-6.489 0-10.368 4.02-3.88 3.95-3.88 10.72 0 6.56 3.81 10.58 3.808 4.02 10.58 4.02 6.629 0 10.367-3.879 3.809-3.879 3.809-10.72zM601.42 1.938q0-5.995-3.174-9.592-3.174-3.667-8.958-3.667-5.713 0-8.887 3.526-3.173 3.527-3.173 9.734 0 6.136 3.173 9.874t8.958 3.738 8.887-3.738q3.174-3.738 3.174-9.874z"/></g></g></svg>