<svg width="512" height="512" enable-background="new" version="1.0" xmlns="http://www.w3.org/2000/svg">
 <defs>
  <filter id="a" x="-.024" y="-.024" width="1.048" height="1.048" color-interpolation-filters="sRGB">
   <feGaussianBlur stdDeviation="4.48"/>
  </filter>
  <linearGradient id="j" x1="48" x2="464" y1="44" y2="44" gradientTransform="matrix(1.0769 0 0 1.0769 -19.659 208.57)" gradientUnits="userSpaceOnUse">
   <stop stop-color="#babdb6" offset="0"/>
   <stop stop-color="#f6f5f4" offset=".042"/>
   <stop stop-color="#d5d3cf" offset=".083"/>
   <stop stop-color="#deddda" offset=".915"/>
   <stop stop-color="#ebeae8" offset=".944"/>
   <stop stop-color="#f6f5f4" offset=".985"/>
   <stop stop-color="#babdb6" offset="1"/>
  </linearGradient>
 </defs>
 <rect transform="matrix(0,-1,-1,0,0,0)" x="-482" y="-480" width="448" height="448" rx="36" ry="36" enable-background="new" opacity=".2"/>
 <rect transform="matrix(0,-1,-1,0,-208,228)" x="-256" y="-688" width="448" height="448" rx="36" ry="36" enable-background="new" filter="url(#a)" opacity=".1"/>
 <rect transform="matrix(0,-1,-1,0,-208,228)" x="-256" y="-688" width="448" height="448" rx="36" ry="36" enable-background="new" filter="url(#a)" opacity=".2"/>
 <path d="m68 32c-19.944 0-36 16.056-36 36v2c0-19.944 16.056-36 36-36h376c19.944 0 36 16.056 36 36v-2c0-19.944-16.056-36-36-36z" enable-background="new" fill="#fff" opacity=".2"/>
 <g stroke-width="4.3077">
  <rect x="32.033" y="118.1" width="448" height="361.85" rx="34.462" ry="34.462" fill="#9a9996"/>
  <path d="m66.495 31.95h116.31l4.3077 4.3077 4.3077-4.3077h137.78l4.3077 4.3077 4.3077-4.3077h107.76c19.092 0 34.462 15.37 34.462 34.462v361.85c0 19.092-15.37 34.462-34.462 34.462h-379.08c-19.092 0-34.462-15.37-34.462-34.462v-361.85c0-19.092 15.37-34.462 34.462-34.462z" fill="#c0bfbc"/>
  <path d="m187.11 324.87h146.46v137.85h-146.46z" fill="#deddda"/>
  <path d="m187.11 307.64h146.46v142.15l-4.7126-4.3077h-141.75zm0-137.85h146.46v137.85h-146.46zm0-133.54 4.3077-4.3077h137.85l4.3077 4.3077v133.54h-146.46z" fill="#f6f5f4"/>
  <path d="m333.57 324.87v137.85h112c19.092 0 34.461-15.371 34.461-34.463v-103.38h-146.46z" fill="url(#j)"/>
  <path d="m337.85 31.949-4.2734 4.3086v133.54 137.85 142.15l4.1738-4.3086h107.83c17.308 0 34.461-17.23 34.461-34.461v-103.38-241.23c0-19.092-15.369-34.463-34.461-34.463h-107.73z" fill="#f6f5f4"/>
  <path d="m480.03 83.772a164.63 164.63 0 0 0-78.891 86.02h28.091a137.98 137.98 0 0 1 50.801-56.539z" fill="#1a5fb4"/>
  <path d="m32.033 187.03h155.08v137.85h-155.08z" fill="#9a9996"/>
  <path d="m66.494 31.949c-19.092 0-34.461 15.371-34.461 34.463v103.38 137.85h155.08v-137.85-133.54l-4.3066-4.3086h-116.31z" fill="#f6f5f4"/>
  <path d="m187.11 217.7v28.539a137.95 137.95 0 0 1 59.416 61.518h28.091a164.61 164.61 0 0 0-87.507-90.057zm224.27 3.7692c-27.961 0-54.38 6.2806-77.81 17.364v29.482c22.529-13.294 49.185-21 77.81-21 24.834 0 48.186 5.8068 68.652 16.02v-28.539a182.18 182.18 0 0 0-68.656-13.328zm-224.27-124.38v29.482c23.434 11.084 49.849 17.364 77.81 17.364a182.18 182.18 0 0 0 68.652-13.328v-28.539c-20.466 10.209-43.818 16.02-68.656 16.02-28.62 0-55.276-7.7065-77.806-21zm217.74 210.61a164.72 164.72 0 0 0 75.182 77.401v-29.478a138.01 138.01 0 0 1-46.2-47.923z" fill="#1a5fb4"/>
  <path d="m480.03 165.49v4.3077h-448v-4.3077z" fill-opacity=".081"/>
  <path d="m94.357 169.8a146.79 146.79 0 0 1 14.732 64.327 146.59 146.59 0 0 1-19.639 73.52h30.916a173.49 173.49 0 0 0 16.3-73.52 173.57 173.57 0 0 0-12.346-64.327zm163.33 137.85a173.57 173.57 0 0 0-12.337 64.327 173.49 173.49 0 0 0 16.296 73.52h30.916a146.59 146.59 0 0 1-19.643-73.52c0-23.089 5.2985-44.908 14.732-64.327z" fill="#1a5fb4"/>
  <path d="m187.11 36.258 4.3077-4.3077v413.54h-4.3077z" fill="#fff" fill-opacity=".555"/>
  <path d="m182.8 31.95 4.3077 4.3077v271.39h-4.3077z" fill-opacity=".081"/>
  <path d="m333.57 36.258 4.3077-4.3077v413.54l-4.3077 4.3077z" fill="#fff" fill-opacity=".555"/>
  <path d="m329.26 31.95 4.3077 4.3077v413.54l-4.3077-4.3077z" fill-opacity=".081"/>
  <path d="m480.03 169.8v4.3077h-448v-4.3077zm0 137.85v4.3077h-292.92v-4.3077z" fill="#fff" fill-opacity=".555"/>
  <path d="m480.03 303.33v4.3077h-448v-4.3077z" fill-opacity=".081"/>
 </g>
</svg>
