<svg xmlns="http://www.w3.org/2000/svg" width="512" height="512" enable-background="new" version="1.0"><defs><filter id="b" width="1.053" height="1.044" x="-.027" y="-.022" color-interpolation-filters="sRGB"><feGaussianBlur stdDeviation="3.36"/></filter><filter id="a" width="1.053" height="1.044" x="-.027" y="-.022" color-interpolation-filters="sRGB"><feGaussianBlur stdDeviation="3.36"/></filter></defs><g transform="translate(-208 228)"><rect width="304" height="368" x="368" y="-192" stroke="#000" stroke-width="8" filter="url(#a)" opacity=".1" rx="16" ry="16"/><rect width="304" height="368" x="368" y="-192" filter="url(#a)" opacity=".2" rx="16" ry="16"/><rect width="304" height="368" x="368" y="-196" fill="#d8d8d8" rx="16" ry="16"/><path fill="#fff" d="M384-196c-8.864 0-16 7.136-16 16v2c0-8.864 7.136-16 16-16h272c8.864 0 16 7.136 16 16v-2c0-8.864-7.136-16-16-16z" opacity=".4"/><rect width="304" height="368" x="256" y="-112" stroke="#000" stroke-width="8" filter="url(#b)" opacity=".1" rx="16" ry="16"/><rect width="304" height="368" x="256" y="-112" filter="url(#b)" opacity=".2" rx="16" ry="16"/><rect width="304" height="368" x="256" y="-116" fill="#ebebeb" rx="16" ry="16"/><path fill="#fff" d="M272-116c-8.864 0-16 7.136-16 16v2c0-8.864 7.136-16 16-16h272c8.864 0 16 7.136 16 16v-2c0-8.864-7.136-16-16-16z" opacity=".4"/><path d="M304-52v16h128v-16zm0 48v16h208V-4zm0 48v16h208V44zm0 48v16h208V92z" enable-background="new" opacity=".2"/></g></svg>