<svg width="512" height="512" enable-background="new" version="1.0" xmlns="http://www.w3.org/2000/svg" xmlns:osb="http://www.openswatchbook.org/uri/2009/osb" xmlns:xlink="http://www.w3.org/1999/xlink">
 <title>Paper Icon Theme</title>
 <defs>
  <filter id="a" x="-.024" y="-.024" width="1.048" height="1.048" color-interpolation-filters="sRGB">
   <feGaussianBlur stdDeviation="4.48"/>
  </filter>
 </defs>
 <g transform="translate(0,212)">
  <g>
   <g transform="translate(-208,16)">
    <g>
     <rect transform="matrix(0,-1,-1,0,0,0)" x="-254" y="-688" width="448" height="448" rx="36" ry="36" opacity=".2"/>
     <rect transform="matrix(0,-1,-1,0,0,0)" x="-256" y="-688" width="448" height="448" rx="36" ry="36" filter="url(#a)" opacity=".1"/>
     <rect transform="matrix(0,-1,-1,0,0,0)" x="-256" y="-688" width="448" height="448" rx="36" ry="36" filter="url(#a)" opacity=".2"/>
    </g>
    <rect transform="matrix(0,-1,-1,0,0,0)" x="-252" y="-688" width="448" height="448" rx="36" ry="36" fill="#f9ce1d"/>
    <path transform="translate(0,-244)" d="m276 48c-19.944 0-36 16.056-36 36v2c0-19.944 16.056-36 36-36h376c19.944 0 36 16.056 36 36v-2c0-19.944-16.056-36-36-36z" fill="#fff" opacity=".2"/>
    <g transform="matrix(3.6112 0 0 3.6112 -861.46 -127.88)" opacity=".2" stroke-width="1px">
     <path d="m342.79 56h-19.492v-3.8672l9.1992-9.8047q1.8945-2.0703 2.793-3.6133 0.91797-1.543 0.91797-2.9297 0-1.8945-0.95703-2.9688-0.95703-1.0938-2.7344-1.0938-1.9141 0-3.0273 1.3281-1.0938 1.3086-1.0938 3.457h-5.6641q0-2.5977 1.2305-4.7461 1.25-2.1484 3.5156-3.3594 2.2656-1.2305 5.1367-1.2305 4.3945 0 6.8164 2.1094 2.4414 2.1094 2.4414 5.957 0 2.1094-1.0938 4.2969t-3.75 5.0977l-6.4648 6.8164h12.227z"/>
     <path d="m365.41 44.242q0 5.8984-2.4414 9.0234-2.4414 3.125-7.1484 3.125-4.6484 0-7.1094-3.0664-2.4609-3.0664-2.5195-8.7891v-5.2344q0-5.957 2.4609-9.043 2.4805-3.0859 7.1289-3.0859 4.6484 0 7.1094 3.0664 2.4609 3.0469 2.5195 8.7695zm-5.6445-5.7422q0-3.5352-0.97656-5.1367-0.95704-1.6211-3.0078-1.6211-1.9922 0-2.9492 1.543-0.9375 1.5234-0.99609 4.7852v6.9141q0 3.4766 0.9375 5.1758 0.95703 1.6797 3.0469 1.6797 2.0703 0 2.9883-1.6211t0.95703-4.9609z"/>
     <path d="m385.94 45.297h3.2227v4.5508h-3.2227v6.1523h-5.6445v-6.1523h-11.66l-0.25391-3.5547 11.855-18.73h5.7031zm-11.934 0h6.2891v-10.039l-0.37109 0.64453z"/>
     <path d="m410.74 35.121q0 2.0703-1.0352 3.6719-1.0352 1.6016-2.8516 2.5586 2.0703 0.99609 3.2812 2.7539 1.2109 1.7383 1.2109 4.1016 0 3.7891-2.5781 5.9961-2.5781 2.1875-7.0117 2.1875-4.4336 0-7.0312-2.207-2.5977-2.207-2.5977-5.9766 0-2.3633 1.2109-4.1211 1.2109-1.7578 3.2617-2.7344-1.8164-0.95703-2.8516-2.5586-1.0156-1.6016-1.0156-3.6719 0-3.6328 2.4219-5.7812 2.4219-2.168 6.582-2.168 4.1406 0 6.5625 2.1484 2.4414 2.1289 2.4414 5.8008zm-5.0586 12.676q0-1.8555-1.0742-2.9688t-2.8906-1.1133q-1.7969 0-2.8711 1.1133-1.0742 1.0938-1.0742 2.9688 0 1.8164 1.0547 2.9297 1.0547 1.1133 2.9297 1.1133 1.8359 0 2.8711-1.0742 1.0547-1.0742 1.0547-2.9688zm-0.58594-12.402q0-1.6602-0.87891-2.6562-0.8789-1.0156-2.4805-1.0156-1.582 0-2.4609 0.97656-0.87891 0.97656-0.87891 2.6953 0 1.6992 0.87891 2.7344 0.8789 1.0352 2.4805 1.0352 1.6016 0 2.4609-1.0352 0.87891-1.0352 0.87891-2.7344z"/>
    </g>
    <g transform="matrix(3.6112 0 0 3.6112 -861.46 -125.88)" fill="#fff" stroke-width="1px">
     <path d="m342.79 56h-19.492v-3.8672l9.1992-9.8047q1.8945-2.0703 2.793-3.6133 0.91797-1.543 0.91797-2.9297 0-1.8945-0.95703-2.9688-0.95703-1.0938-2.7344-1.0938-1.9141 0-3.0273 1.3281-1.0938 1.3086-1.0938 3.457h-5.6641q0-2.5977 1.2305-4.7461 1.25-2.1484 3.5156-3.3594 2.2656-1.2305 5.1367-1.2305 4.3945 0 6.8164 2.1094 2.4414 2.1094 2.4414 5.957 0 2.1094-1.0938 4.2969t-3.75 5.0977l-6.4648 6.8164h12.227z"/>
     <path d="m365.41 44.242q0 5.8984-2.4414 9.0234-2.4414 3.125-7.1484 3.125-4.6484 0-7.1094-3.0664-2.4609-3.0664-2.5195-8.7891v-5.2344q0-5.957 2.4609-9.043 2.4805-3.0859 7.1289-3.0859 4.6484 0 7.1094 3.0664 2.4609 3.0469 2.5195 8.7695zm-5.6445-5.7422q0-3.5352-0.97656-5.1367-0.95704-1.6211-3.0078-1.6211-1.9922 0-2.9492 1.543-0.9375 1.5234-0.99609 4.7852v6.9141q0 3.4766 0.9375 5.1758 0.95703 1.6797 3.0469 1.6797 2.0703 0 2.9883-1.6211t0.95703-4.9609z"/>
     <path d="m385.94 45.297h3.2227v4.5508h-3.2227v6.1523h-5.6445v-6.1523h-11.66l-0.25391-3.5547 11.855-18.73h5.7031zm-11.934 0h6.2891v-10.039l-0.37109 0.64453z"/>
     <path d="m410.74 35.121q0 2.0703-1.0352 3.6719-1.0352 1.6016-2.8516 2.5586 2.0703 0.99609 3.2812 2.7539 1.2109 1.7383 1.2109 4.1016 0 3.7891-2.5781 5.9961-2.5781 2.1875-7.0117 2.1875-4.4336 0-7.0312-2.207-2.5977-2.207-2.5977-5.9766 0-2.3633 1.2109-4.1211 1.2109-1.7578 3.2617-2.7344-1.8164-0.95703-2.8516-2.5586-1.0156-1.6016-1.0156-3.6719 0-3.6328 2.4219-5.7812 2.4219-2.168 6.582-2.168 4.1406 0 6.5625 2.1484 2.4414 2.1289 2.4414 5.8008zm-5.0586 12.676q0-1.8555-1.0742-2.9688t-2.8906-1.1133q-1.7969 0-2.8711 1.1133-1.0742 1.0938-1.0742 2.9688 0 1.8164 1.0547 2.9297 1.0547 1.1133 2.9297 1.1133 1.8359 0 2.8711-1.0742 1.0547-1.0742 1.0547-2.9688zm-0.58594-12.402q0-1.6602-0.87891-2.6562-0.8789-1.0156-2.4805-1.0156-1.582 0-2.4609 0.97656-0.87891 0.97656-0.87891 2.6953 0 1.6992 0.87891 2.7344 0.8789 1.0352 2.4805 1.0352 1.6016 0 2.4609-1.0352 0.87891-1.0352 0.87891-2.7344z"/>
    </g>
   </g>
  </g>
 </g>
</svg>
