<svg width="512" height="512" enable-background="new" version="1.0" xmlns="http://www.w3.org/2000/svg" xmlns:osb="http://www.openswatchbook.org/uri/2009/osb" xmlns:xlink="http://www.w3.org/1999/xlink">
 <defs>
  <filter id="a" x="-.024" y="-.024" width="1.048" height="1.048" color-interpolation-filters="sRGB">
   <feGaussianBlur stdDeviation="4.48"/>
  </filter>
 </defs>
 <g transform="translate(0,212)">
  <g>
   <g transform="translate(-208,16)">
    <rect transform="matrix(0,-1,-1,0,0,0)" x="-256" y="-688" width="448" height="448" rx="224" ry="224" filter="url(#a)" opacity=".1" stroke="#000" stroke-width="8"/>
    <rect transform="matrix(0,-1,-1,0,0,0)" x="-256" y="-688" width="448" height="448" rx="224" ry="224" filter="url(#a)" opacity=".2"/>
    <rect transform="matrix(0,-1,-1,0,0,0)" x="-252" y="-688" width="448" height="448" rx="224" ry="224" fill="#ebebeb"/>
    <path transform="translate(0,-244)" d="m464 48c-124.1 0-224 99.904-224 224 0 0.67412 3e-3 1.3363 0 2 0-124.1 99.904-224 224-224s224 99.904 224 224c-3e-3 -0.66367 0-1.3259 0-2 0-124.1-99.904-224-224-224z" fill="#fff" opacity=".2"/>
    <path d="m464 252c-124.1 0-224-99.904-224-224 0-0.67412 3e-3 -1.3363 0-2 0 124.1 99.904 224 224 224s224-99.904 224-224c-3e-3 0.66367 0 1.3259 0 2 0 124.1-99.904 224-224 224z" opacity=".2"/>
    <g transform="matrix(2.738 0 0 2.738 -75.693 -717.82)" opacity=".4" stroke-width="1px">
     <path d="m195.73 259.34h-19.492v-3.8672l9.1992-9.8047q1.8945-2.0703 2.793-3.6133 0.91797-1.543 0.91797-2.9297 0-1.8945-0.95703-2.9688-0.95703-1.0938-2.7344-1.0938-1.9141 0-3.0273 1.3281-1.0938 1.3086-1.0938 3.457h-5.6641q0-2.5976 1.2305-4.7461 1.25-2.1484 3.5156-3.3594 2.2656-1.2305 5.1367-1.2305 4.3945 0 6.8164 2.1094 2.4414 2.1094 2.4414 5.957 0 2.1094-1.0938 4.2969t-3.75 5.0976l-6.4648 6.8164h12.227z"/>
     <path d="m200.04 245.36 1.6406-14.453h15.938v4.707h-11.309l-0.70313 6.1133q2.0117-1.0742 4.2774-1.0742 4.0625 0 6.3672 2.5195 2.3047 2.5195 2.3047 7.0508 0 2.7539-1.1719 4.9414-1.1524 2.168-3.3203 3.3789-2.168 1.1914-5.1172 1.1914-2.5781 0-4.7852-1.0352-2.207-1.0547-3.4961-2.9492-1.2695-1.8945-1.3477-4.3164h5.5859q0.17578 1.7774 1.2305 2.7734 1.0742 0.97656 2.793 0.97656 1.9141 0 2.9492-1.3672 1.0352-1.3867 1.0352-3.9062 0-2.4219-1.1914-3.7109-1.1914-1.2891-3.3789-1.2891-2.0117 0-3.2617 1.0547l-0.54688 0.50782z"/>
    </g>
    <path transform="translate(0,-244)" d="m240 272c0 124.1 99.904 224 224 224s224-99.904 224-224z" fill="#fff" opacity=".5"/>
    <g>
     <path d="m464 92-24 32h48z" fill-rule="evenodd" opacity=".4"/>
     <rect x="392" y="28" width="8" height="24" rx="0" ry="0" opacity=".4"/>
     <rect x="264" y="28" width="8" height="24" rx="0" ry="0" opacity=".4"/>
     <rect x="328" y="28" width="8" height="24" rx="0" ry="0" opacity=".4"/>
     <rect x="456" y="28" width="8" height="24" rx="0" ry="0" opacity=".4"/>
    </g>
   </g>
  </g>
 </g>
</svg>
