<svg xmlns="http://www.w3.org/2000/svg" width="512" height="512" enable-background="new" version="1.0"><defs><filter id="a" width="1.073" height="1.071" x="-.037" y="-.035" color-interpolation-filters="sRGB"><feGaussianBlur stdDeviation="6.034"/></filter></defs><g fill-rule="evenodd"><path d="M69.34 179.19c6.615 88.893 86.32 300.26 135.41 299.27 48.367 7.572 71.054-75.724 106.58-113.59 12.324-7.391 37.445 105.24 108.09 105.24 21.482 1.531 42.964-5.826 43.704-25.037.298-29.994-56.851-9.037-79.852-90.968-17.512-62.378-46.074-92.581-66.518-91.956-31.767 11.541-71.435 101.11-88.386 112.65-57.616-50.72 45.764-136.01 28.643-214.39C243.842.729 56.841 78.1 69.351 179.175z" filter="url(#a)" opacity=".15" transform="translate(-34.508 -28.639)scale(1.0924)"/><path d="M41.239 160.062c7.226 97.107 94.296 328.004 147.922 326.923 52.836 8.272 77.62-82.721 116.428-124.086 13.463-8.074 40.905 114.964 118.077 114.964 23.467 1.673 46.934-6.365 47.743-27.35.325-32.766-62.104-9.872-87.23-99.374-19.13-68.141-50.332-101.135-72.665-100.452-34.702 12.607-78.036 110.452-96.553 123.058-62.94-55.406 49.993-148.577 31.29-234.2-14.386-174.434-218.666-89.912-205 20.5z" opacity=".1"/><path fill="#f78a13" d="M41.239 152.536c7.226 97.106 94.296 328.004 147.922 326.922 52.836 8.272 77.62-82.72 116.428-124.086 13.463-8.074 40.905 114.965 118.077 114.965 23.467 1.672 46.934-6.365 47.743-27.35.325-32.766-62.104-9.873-87.23-99.374-19.13-68.142-50.332-101.136-72.665-100.453-34.702 12.607-78.036 110.453-96.553 123.059-62.94-55.407 49.993-148.578 31.29-234.2-14.386-174.434-218.666-89.913-205 20.5z"/></g><path fill="#571e00" fill-opacity=".322" d="M229.252 165.983c-4.35 1.894-8.692 5.164-12.717 7.663-33.81 20.994-89.828 46.66-130.967 59.454-4.13 1.284-4.65 5.377-4.02 8.15 2.26 9.93 9.835 22.843 19.87 33.502s24.84 18.849 45.557 19.08c9.04.1 17.91-4.375 26.591-11.193 8.68-6.818 17.191-16.234 24.826-27.192 15.268-21.915 27.073-48.258 27.417-76.693.046-3.788 2.183-9.175 3.44-12.772zm-16.473 24.114c-2.918 20.07-12.373 41.466-24.225 58.478-7.072 10.149-14.94 18.753-22.385 24.6-7.444 5.849-14.449 8.69-19.08 8.64-17.748-.198-28.7-6.555-36.92-15.287-6.581-6.991-10.931-15.574-14.648-23.812 38.977-11.26 84.482-32.85 117.259-52.619z"/><path fill="#fff" d="M87.109 238.923c43.42-11.37 98.588-38.229 132.683-60.221-.504 49.71-45.403 109.436-72.745 109.128-38.465-.427-51.542-29.083-59.94-48.907z"/><path d="M127.233 80.983c-17.625.593-33.991 3.746-45.722 8.17-7.298 10.128-13.484 22.48-16.794 37.772-6.02-19.93-4.655-38.906 4.695-55.602 21.21-4.377 44.318 1.823 57.821 9.66zM205.525 73.371c-14.876-9.47-30.16-16.118-42.337-19.098-11.745 4.232-23.83 10.927-35.201 21.672 6.296-19.845 18.145-34.728 35.295-43.218 19.971 8.374 35.532 26.547 42.244 40.644z"/><path fill="#571e00" fill-opacity=".322" d="M136.409 159.079c3.674-46.39-18.31 27.655-33.713 48.09-10.824-.459-25.474-22.37-25.474-48.09s13.258-46.595 29.594-46.595 29.594 20.874 29.594 46.595z"/><path fill="#571e00" fill-opacity=".322" d="M194.492 130.742c0 23.983-14.387 43.447-32.112 43.447s-32.113-19.464-32.113-43.447c0-23.982 14.387-43.447 32.113-43.447s32.112 19.465 32.112 43.447"/><path fill="#fff" d="M165.26 90.116c-15.565 1.58-27.807 22.346-29.784 48.412-6.579-14.122-16.499-23.041-26.628-21.972-15.546 1.642-25.626 25.973-22.497 54.309 1.812 16.418 7.734 30.428 15.361 39.135 10.838-8.752 24.58-16.25 40.337-21.708.314-1.943.616-3.919.789-5.972.845 1.772 1.897 3.188 2.854 4.77 7.297-2.336 14.949-4.286 22.948-5.671 8.567-1.483 16.96-2.215 25.126-2.404 4.047-10.1 6.33-22.472 5.822-35.792-1.185-31.112-16.582-54.91-34.328-53.107z"/><path d="M172.6 145.916a7.744 14.935 0 1 1-15.488 0 7.744 14.935 0 1 1 15.488 0"/><path fill="#d0d0d0" d="M215.63 205.495c-7.985 11.446-24.757 20.154-52.694 33.69 31.857-7.368 31.241-.236 32.262 10.403 6.966-10.565 16.126-27.1 20.43-44.093zm-67.116 39.736c-29.55 9.51-42.552 11.724-54.91 7.7 6.312 13.122 16.457 24.021 27.981 29.37-4.834-10.744-4.816-20.473 26.929-37.07z"/><path d="M123.082 158.642a7.744 14.935 0 1 1-15.488 0 7.744 14.935 0 1 1 15.488 0"/></svg>