<svg xmlns="http://www.w3.org/2000/svg" width="512" height="512" enable-background="new" version="1.0"><defs><filter id="b" width="1.053" height="1.044" x="-.027" y="-.022" color-interpolation-filters="sRGB"><feGaussianBlur stdDeviation="3.36"/></filter><filter id="a" width="1.053" height="1.044" x="-.027" y="-.022" color-interpolation-filters="sRGB"><feGaussianBlur stdDeviation="3.36"/></filter></defs><g transform="translate(-208 228)"><rect width="304" height="368" x="368" y="-192" stroke="#000" stroke-width="8" filter="url(#a)" opacity=".1" rx="16" ry="16"/><rect width="304" height="368" x="368" y="-192" filter="url(#a)" opacity=".2" rx="16" ry="16"/><rect width="304" height="368" x="368" y="-196" fill="#d8d8d8" rx="16" ry="16"/><path fill="#fff" d="M384-196c-8.864 0-16 7.136-16 16v2c0-8.864 7.136-16 16-16h272c8.864 0 16 7.136 16 16v-2c0-8.864-7.136-16-16-16z" opacity=".2"/><rect width="304" height="368" x="256" y="-112" stroke="#000" stroke-width="8" filter="url(#b)" opacity=".1" rx="16" ry="16"/><rect width="304" height="368" x="256" y="-112" filter="url(#b)" opacity=".2" rx="16" ry="16"/><path fill="#101040" d="m523.55-8.238.419-26.76 18.396-1.254-1.254-10.035-17.143 5.017v-23.833c10.035 1.254 20.906 3.345 29.686 3.763 17.98 1.254-5.017 58.955-5.017 58.955s68.153-60.209 10.871-75.679c-5.854 0-20.488.837-35.122 1.673v-16.307l31.36-7.945-31.36-.417v-16.725L505.153-132l2.09 36.376-16.724 11.29 17.143-4.182.837 13.38c-7.526.837-14.216 1.254-17.98 2.09-48.083 9.2 4.182 71.917 4.182 71.917s-16.725-58.537 2.09-63.972c3.764-1.254 7.527-1.254 12.126-1.254l1.672 29.268-12.544 3.763 12.544-.837.837 17.143c-38.467 50.593-82.369 69.408-82.369 69.408s42.648-4.599 83.624-49.756l4.181 78.188c-15.47-6.271-29.268-15.052-29.268-15.052s10.035 29.686 31.36 42.23l17.978-21.324a93 93 0 0 1-13.38-3.763l.837-79.025c11.29 13.38 37.631 43.903 48.92 45.993l37.631-12.543C596.306 34.83 536.933.124 523.553-8.238z"/><rect width="304" height="368" x="256" y="-116" fill="#ebebeb" rx="16" ry="16"/><path fill="#fff" d="M272-116c-8.864 0-16 7.136-16 16v2c0-8.864 7.136-16 16-16h272c8.864 0 16 7.136 16 16v-2c0-8.864-7.136-16-16-16z" opacity=".2"/><path fill="#ba0000" d="M390.58-52.979c-1.58 1.579-1.974 3.947-1.974 6.71 0 5.132 1.58 11.448 2.369 13.817 0 0 1.184 27.632 1.579 30.789-3.553.394-9.869.788-12.237 1.579h-3.158c-6.71.394-13.026.788-15.79 3.552l-1.184 1.185 1.185 1.579c1.974 2.368 2.763 9.079 3.552 16.184 1.974 14.605 4.342 32.763 16.184 39.868l2.369 1.184.79-2.369s.394-1.184.394-2.763c0-1.184-.394-3.158-.79-5.92 3.159.394 9.87 1.184 12.238 1.184.393 3.158 10.658 131.84 10.658 131.84h3.947s4.342-127.11 4.342-131.05c2.763 0 15 .395 18.553.79-.79 2.368-3.947 12.236-3.947 12.236l5.526-5.131c1.58-1.185 35.921-32.37 31.184-52.895-1.579-6.71-7.105-11.447-16.184-13.816h-.788c-5.132 0-20.921.395-32.763 1.184.394-10.263.394-15.789.394-18.553v-3.553c0-1.973 1.974-4.737 3.553-6.71 1.579-2.368 3.553-4.342 3.553-6.71 0-.79-.395-1.58-.79-2.369-2.368-3.553-19.737-12.632-27.237-13.421-3.158 0-4.737.395-5.526 1.579zm.395 64.737h1.974c0 3.553 1.184 28.421 1.579 31.974-3.158-.395-10.658-1.184-13.026-1.184-1.185-5.132-1.58-10.658-1.974-16.184-.395-4.737-.789-9.474-1.579-13.816 3.553 0 13.026-.789 13.026-.789zm24.079 12.237s.393-9.474.393-12.632c5.132.79 11.842 1.184 18.158 1.184h7.106c0 1.58-.395 3.553-.395 3.553-.79 8.684-1.974 18.947-5.526 29.211-2.369 0-16.974-.788-20.132-1.184 0-2.764.395-20.132.395-20.132z"/></g></svg>