<svg xmlns="http://www.w3.org/2000/svg" width="512" height="512" enable-background="new" version="1.0"><defs><filter id="a" width="1.066" height="1.066" x="-.033" y="-.033" color-interpolation-filters="sRGB"><feGaussianBlur stdDeviation="4.48"/></filter><filter id="b" width="1.054" height="1.054" x="-.027" y="-.027" color-interpolation-filters="sRGB"><feGaussianBlur stdDeviation="4.68"/></filter></defs><g transform="translate(-208 228)"><rect width="448" height="448" x="-256" y="-688" stroke="#000" stroke-width="8" filter="url(#a)" opacity=".1" rx="36" ry="36" transform="scale(1 -1)rotate(90)"/><rect width="448" height="448" x="-256" y="-688" filter="url(#a)" opacity=".2" rx="36" ry="36" transform="scale(1 -1)rotate(90)"/><rect width="448" height="448" x="-254" y="-688.01" fill="#e6e6e6" rx="36" ry="36" transform="scale(1 -1)rotate(90)"/><path d="M275.88-168a19.82 19.82 0 0 0-19.865 19.865v168.9h199.37v-188.77zm196.74 0V20.77h199.4v-168.9a19.82 19.82 0 0 0-19.865-19.865zM256.02 38v190.13a19.82 19.82 0 0 0 19.865 19.865h179.51v-210z" filter="url(#b)" opacity=".15" style="mix-blend-mode:normal"/><path fill="#fff" d="M275.875-178a19.82 19.82 0 0 0-19.865 19.865v168.9h199.37v-188.77H275.87zm196.74 0V10.77h199.4v-168.9a19.82 19.82 0 0 0-19.865-19.865H472.62zm-216.6 206v190.13a19.82 19.82 0 0 0 19.865 19.865h179.51v-210H256.02z"/></g><path fill="#e6e6e6" d="M259.74 52.455v430.77" color="#000" style="-inkscape-stroke:none"/><path fill="#2dc0af" d="M113.4 77.329v139.8h17.674v-53.002l77.095-37.809z"/><path fill="#1a5fb4" d="M114.65 410.71h77.539v-25.846h-25.846V298.71h-13.767l-43.374 22.508 9.447 22.426 21.849-10.472-.086 51.692h-25.76z" font-weight="800" letter-spacing="0" word-spacing="0"/><circle cx="367.45" cy="364.63" r="64.616" fill="#a51d2d"/><rect width="25.846" height="163.69" x="354.53" y="282.78" fill="#a51d2d" rx="8.615" ry="8.615"/><rect width="25.846" height="163.69" x="351.7" y="-449.3" fill="#a51d2d" rx="8.615" ry="8.615" transform="rotate(90)"/><rect width="25.846" height="163.69" x="504.72" y="-83.841" fill="#a51d2d" rx="8.615" ry="8.615" transform="rotate(45)"/><rect width="25.846" height="163.69" x="-14.918" y="-599.49" fill="#a51d2d" rx="8.615" ry="8.615" transform="rotate(135)"/><circle cx="367.45" cy="356.01" r="64.616" fill="#ed333b"/><rect width="25.846" height="163.69" x="354.53" y="274.17" fill="#ed333b" rx="8.615" ry="8.615"/><rect width="25.846" height="163.69" x="343.09" y="-449.3" fill="#ed333b" rx="8.615" ry="8.615" transform="rotate(90)"/><rect width="25.846" height="163.69" x="498.63" y="-89.933" fill="#ed333b" rx="8.615" ry="8.615" transform="rotate(45)"/><rect width="25.846" height="163.69" x="-21.01" y="-593.4" fill="#ed333b" rx="8.615" ry="8.615" transform="rotate(135)"/></svg>