<svg xmlns="http://www.w3.org/2000/svg" width="512" height="512" enable-background="new" version="1.0"><defs><clipPath id="b"><path fill="#949390" d="M208 4h96v48h-96z"/></clipPath><filter id="a" width="1.064" height="1.082" x="-.032" y="-.041" color-interpolation-filters="sRGB"><feGaussianBlur stdDeviation="6"/></filter></defs><g transform="matrix(4 0 0 4 0 -720)"><path d="M64 80c-17.728 0-32 15.775-32 35.369v284.63c0 17.728 14.272 32 32 32h384c17.728 0 32-14.272 32-32v-284.63C480 95.775 465.728 80 448 80z" enable-background="new" filter="url(#a)" opacity=".15" transform="matrix(.25 0 0 .25 0 181.9)"/><rect width="112" height="24" x="8" y="264" fill="#c01c28" enable-background="new" rx="8" ry="8"/><rect width="112" height="84" x="8" y="200" fill="#ed333b" enable-background="new" rx="8" ry="8.842"/><path fill="#5e5c64" stroke="#5e5c64" stroke-linecap="round" stroke-linejoin="round" stroke-width="8" d="M36 282h56l-4-10H40z" enable-background="new"/><path fill="#424048" d="M32 282h64v6H32z" enable-background="new"/><path fill="#f6f5f4" d="M24 208h80l8 8v52H16v-52z" enable-background="new"/><g transform="translate(0 8)"><path fill="#424048" d="M16 216h96v32H16z"/><circle cx="40" cy="232" r="6" fill="#f6f5f4"/><circle cx="88" cy="232" r="6" fill="#f6f5f4"/><path fill="#949390" d="M52 226h24v12H52z"/><path fill="#424048" d="M272 28c0 61.856-50.144 112-112 112S48 89.856 48 28 98.144-84 160-84 272-33.856 272 28" clip-path="url(#b)" opacity=".5" transform="matrix(.25 0 0 .25 0 225)"/></g><path fill="#fff" d="M16 200c-4.432 0-8 3.944-8 8.842v1.79c0-4.783 3.568-8.632 8-8.632h96c4.432 0 8 3.85 8 8.631v-1.789c0-4.898-3.568-8.842-8-8.842z" enable-background="new" opacity=".25"/></g></svg>