<svg width="512" height="512" enable-background="new" version="1.0" xmlns="http://www.w3.org/2000/svg" xmlns:osb="http://www.openswatchbook.org/uri/2009/osb">
 <defs>
  <filter id="a" x="-.022286" y="-.026" width="1.0446" height="1.052" color-interpolation-filters="sRGB">
   <feGaussianBlur stdDeviation="4.16"/>
  </filter>
  <filter id="b" x="-.03375" y="-.27" width="1.0675" height="1.54" color-interpolation-filters="sRGB">
   <feGaussianBlur stdDeviation="5.4"/>
  </filter>
 </defs>
 <g transform="translate(0,212)">
  <g>
   <g transform="translate(-208,16)">
    <rect transform="matrix(0,-1,-1,0,0,0)" x="-224" y="-688" width="384" height="448" rx="24" ry="24" filter="url(#a)" opacity=".1" stroke="#000" stroke-width="8"/>
    <rect transform="matrix(0,-1,-1,0,0,0)" x="-224" y="-688" width="384" height="448" rx="24" ry="24" filter="url(#a)" opacity=".2"/>
    <rect transform="rotate(90)" x="-164" y="-688" width="384" height="448" rx="24" ry="24" fill="#455a64"/>
    <path transform="translate(0,76)" d="m264-240c-13.296 0-24 10.704-24 24v2c0-13.296 10.704-24 24-24h400c13.296 0 24 10.704 24 24v-2c0-13.296-10.704-24-24-24z" fill="#fff" opacity=".2"/>
    <rect x="272" y="146" width="384" height="48" ry="8" filter="url(#b)" opacity=".2"/>
    <rect x="272" y="140" width="384" height="48" ry="8" fill="#cfd8dc"/>
    <path transform="translate(0,-244)" d="m280 384c-4.432 0-8 3.568-8 8v2c0-4.432 3.568-8 8-8h368c4.432 0 8 3.568 8 8v-2c0-4.432-3.568-8-8-8z" fill="#fff" opacity=".2"/>
   </g>
  </g>
 </g>
</svg>
