<svg xmlns="http://www.w3.org/2000/svg" width="512" height="512" enable-background="new" version="1.0"><defs><filter id="a" width="1.048" height="1.048" x="-.024" y="-.024" color-interpolation-filters="sRGB"><feGaussianBlur stdDeviation="4.48"/></filter></defs><g transform="translate(-208 228)"><rect width="448" height="448" x="-256" y="-688" stroke="#000" stroke-width="8" filter="url(#a)" opacity=".1" rx="224" ry="224" transform="scale(1 -1)rotate(90)"/><rect width="448" height="448" x="-256" y="-688" filter="url(#a)" opacity=".2" rx="224" ry="224" transform="scale(1 -1)rotate(90)"/><rect width="448" height="448" x="-252" y="-688" fill="#ebebeb" rx="224" ry="224" transform="scale(1 -1)rotate(90)"/><path fill="#fff" d="M464-196c-124.1 0-224 99.904-224 224 0 .674.003 1.336 0 2 0-124.1 99.904-224 224-224S688-94.096 688 30c-.003-.664 0-1.326 0-2 0-124.1-99.904-224-224-224" opacity=".2"/><path d="M464 252c-124.1 0-224-99.904-224-224 0-.674.003-1.336 0-2 0 124.1 99.904 224 224 224s224-99.904 224-224c-.003.664 0 1.326 0 2 0 124.1-99.904 224-224 224" opacity=".2"/><g opacity=".4"><path d="M460.216-7.747h-53.37v-10.588l25.188-26.846q5.187-5.668 7.647-9.893 2.514-4.225 2.514-8.021 0-5.188-2.62-8.13-2.621-2.994-7.487-2.994-5.241 0-8.29 3.636-2.994 3.583-2.994 9.466h-15.508q0-7.113 3.369-12.995 3.422-5.882 9.625-9.198 6.204-3.37 14.065-3.37 12.032 0 18.663 5.776 6.685 5.776 6.685 16.31 0 5.776-2.995 11.765T444.44-38.87l-17.7 18.663h33.477zM472.017-46.024l4.491-39.573h43.639v12.888h-30.964l-1.925 16.738q5.508-2.94 11.711-2.94 11.123 0 17.433 6.898t6.31 19.305q0 7.54-3.208 13.53-3.155 5.935-9.09 9.25-5.937 3.263-14.012 3.263-7.059 0-13.102-2.835-6.042-2.887-9.572-8.075-3.476-5.187-3.69-11.818h15.294q.481 4.867 3.37 7.594 2.94 2.674 7.646 2.674 5.241 0 8.075-3.744 2.835-3.797 2.835-10.695 0-6.631-3.262-10.16t-9.252-3.53q-5.508 0-8.93 2.888l-1.498 1.39z"/></g><path fill="#fff" d="M240 28c0 124.1 99.904 224 224 224s224-99.904 224-224z" opacity=".5"/><path fill-rule="evenodd" d="m464 92-24 32h48z" opacity=".4"/><rect width="8" height="24" x="392" y="28" opacity=".4" rx="0" ry="0"/><rect width="8" height="24" x="264" y="28" opacity=".4" rx="0" ry="0"/><rect width="8" height="24" x="328" y="28" opacity=".4" rx="0" ry="0"/><rect width="8" height="24" x="456" y="28" opacity=".4" rx="0" ry="0"/></g></svg>