<svg width="512" height="512" enable-background="new" version="1.0" xmlns="http://www.w3.org/2000/svg" xmlns:xlink="http://www.w3.org/1999/xlink">
 <defs>
  <filter id="a" x="-.036717" y="-.03531" width="1.0734" height="1.0706" color-interpolation-filters="sRGB">
   <feGaussianBlur stdDeviation="6.0335455"/>
  </filter>
 </defs>
 <g transform="matrix(1.0924 0 0 1.0924 -34.508 -28.639)">
  <g fill-rule="evenodd">
   <path d="m69.34 179.19c6.6149 88.893 86.32 300.26 135.41 299.27 48.367 7.5724 71.054-75.724 106.58-113.59 12.324-7.3912 37.445 105.24 108.09 105.24 21.482 1.5314 42.964-5.8265 43.704-25.037 0.29754-29.994-56.851-9.0367-79.852-90.968-17.512-62.378-46.074-92.581-66.518-91.956-31.767 11.541-71.435 101.11-88.386 112.65-57.616-50.72 45.764-136.01 28.643-214.39-13.169-159.68-200.17-82.309-187.66 18.766z" filter="url(#a)" opacity=".15"/>
   <path d="m69.34 172.74c6.6149 88.893 86.32 300.26 135.41 299.27 48.367 7.5724 71.054-75.724 106.58-113.59 12.324-7.3912 37.445 105.24 108.09 105.24 21.482 1.5314 42.964-5.8265 43.704-25.037 0.29754-29.994-56.851-9.0367-79.852-90.968-17.512-62.378-46.074-92.581-66.518-91.956-31.767 11.541-71.435 101.11-88.386 112.65-57.616-50.72 45.764-136.01 28.643-214.39-13.169-159.68-200.17-82.308-187.66 18.766z" opacity=".1"/>
   <path d="m69.34 165.85c6.6149 88.893 86.32 300.26 135.41 299.27 48.367 7.5724 71.054-75.724 106.58-113.59 12.324-7.3912 37.445 105.24 108.09 105.24 21.482 1.5314 42.964-5.8265 43.704-25.037 0.29754-29.994-56.851-9.0367-79.852-90.968-17.512-62.378-46.074-92.581-66.518-91.956-31.767 11.541-71.435 101.11-88.386 112.65-57.616-50.72 45.764-136.01 28.643-214.39-13.169-159.68-200.17-82.308-187.66 18.766z" fill="#f78a13"/>
  </g>
  <path d="m241.45 178.16c-3.9813 1.7335-7.957 4.7271-11.641 7.0148-30.951 19.218-82.23 42.714-119.89 54.425-3.7809 1.1758-4.2564 4.922-3.6788 7.4607 2.0681 9.0902 9.0023 20.911 18.188 30.668s22.74 17.255 41.704 17.466c8.2763 0.0924 16.396-4.0042 24.342-10.246 7.9456-6.2414 15.737-14.861 22.726-24.892 13.977-20.061 24.783-44.176 25.098-70.206 0.042-3.467 1.9988-8.3986 3.1493-11.691zm-15.08 22.074c-2.6704 18.373-11.326 37.959-22.176 53.532-6.473 9.2905-13.676 17.167-20.491 22.52-6.8148 5.3532-13.227 7.9548-17.466 7.9077-16.247-0.18069-26.272-6-33.797-13.993-6.0248-6.4-10.007-14.257-13.409-21.798 35.68-10.307 77.336-30.072 107.34-48.168z" fill="#571e00" fill-opacity=".32203"/>
  <g>
   <path d="m111.33 244.93c39.748-10.407 90.249-34.995 121.46-55.127-0.4608 45.505-41.562 100.18-66.592 99.898-35.211-0.39167-47.182-26.623-54.869-44.771z" fill="#fff"/>
   <path d="m148.06 100.35c-16.134 0.54275-31.116 3.4288-41.854 7.4778-6.6815 9.2718-12.344 20.58-15.374 34.578-5.5114-18.245-4.2609-35.615 4.2982-50.899 19.415-4.0069 40.569 1.6684 52.93 8.8432z"/>
   <path d="m219.73 93.382c-13.618-8.67-27.609-14.755-38.756-17.483-10.752 3.8736-21.814 10.003-32.224 19.839 5.7635-18.167 16.611-31.791 32.31-39.563 18.282 7.6657 32.527 24.302 38.671 37.207z"/>
  </g>
  <path d="m156.46 171.84c3.3637-42.467-16.761 25.316-30.861 44.023-9.9086-0.42046-23.32-20.479-23.32-44.023 0-23.545 12.137-42.654 27.091-42.654 14.954 0 27.091 19.109 27.091 42.654z" fill="#571e00" fill-opacity=".32203"/>
  <path d="m209.63 145.9c0 21.954-13.17 39.772-29.396 39.772s-29.396-17.818-29.396-39.772c0-21.954 13.17-39.772 29.396-39.772s29.396 17.818 29.396 39.772z" fill="#571e00" fill-opacity=".32203"/>
  <g>
   <path d="m182.87 108.71c-14.248 1.4473-25.454 20.456-27.264 44.317-6.0223-12.927-15.103-21.092-24.376-20.113-14.231 1.503-23.458 23.776-20.594 49.715 1.6592 15.029 7.0803 27.854 14.062 35.825 9.921-8.0116 22.501-14.875 36.925-19.872 0.28709-1.779 0.56364-3.5872 0.72202-5.4666 0.7742 1.6221 1.737 2.9181 2.613 4.3664 6.6796-2.1383 13.684-3.9236 21.007-5.1916 7.8425-1.3578 15.526-2.0276 23.001-2.2004 3.704-9.2466 5.7937-20.571 5.3291-32.765-1.0852-28.48-15.179-50.265-31.424-48.615z" fill="#fff"/>
   <path d="m189.59 159.79a7.0888 13.671 0 1 1-14.178 0 7.0888 13.671 0 1 1 14.178 0z"/>
   <path d="m228.98 214.33c-7.3098 10.478-22.663 18.449-48.237 30.84 29.163-6.7444 28.599-0.21616 29.533 9.5236 6.3775-9.6718 14.762-24.808 18.703-40.364zm-61.439 36.375c-27.051 8.7062-38.953 10.732-50.265 7.0482 5.7778 12.012 15.065 21.99 25.614 26.886-4.4255-9.8353-4.4088-18.741 24.651-33.934z" fill="#d0d0d0"/>
   <path d="m144.26 171.44a7.0888 13.671 0 1 1-14.178 0 7.0888 13.671 0 1 1 14.178 0z"/>
  </g>
 </g>
</svg>
