<svg xmlns="http://www.w3.org/2000/svg" width="512" height="512" enable-background="new" version="1.0"><defs><linearGradient id="c" x1="344" x2="104" y1="33.559" y2="33.559" gradientTransform="translate(-8 208)" gradientUnits="userSpaceOnUse"><stop offset="0" stop-color="#4fd2fd"/><stop offset="1" stop-color="#4fd2fd" stop-opacity="0"/></linearGradient><filter id="a" width="1.065" height="1.081" x="-.032" y="-.04" color-interpolation-filters="sRGB"><feGaussianBlur stdDeviation="6.06"/></filter></defs><path d="M64 88.272c-17.728 0-32 14.272-32 32v296c0 17.728 14.272 32 32 32h384c17.728 0 32-14.272 32-32v-296c0-17.728-14.272-32-32-32z" enable-background="new" filter="url(#a)" opacity=".15" style="paint-order:normal"/><rect width="448" height="352" x="32" y="76" fill="#f6f5f4" enable-background="new" rx="32" ry="32" style="paint-order:normal"/><rect width="416" height="312" x="48" y="92" fill="#241f31" enable-background="new" rx="16" ry="16" style="paint-order:normal"/><path fill="#d5d3cf" d="M32 388v16c0 17.728 14.272 32 32 32h384c17.728 0 32-14.272 32-32v-16c0 17.728-14.272 32-32 32H64c-17.728 0-32-14.272-32-32" enable-background="new" style="paint-order:normal"/><path fill="#fff" d="M64-388h384v280H64z" enable-background="new" opacity=".1" style="paint-order:normal" transform="scale(1 -1)"/><path fill="none" stroke="#4fd2fd" stroke-miterlimit="10" stroke-width="16" d="M64 260h144l40-92 24 156 32-64h144" opacity=".236"/><path fill="none" stroke="url(#c)" stroke-linecap="round" stroke-miterlimit="10" stroke-width="16" d="M64 260h144l40-92 24 156 32-64h24"/></svg>