<svg xmlns="http://www.w3.org/2000/svg" width="512" height="512" enable-background="new" version="1.0"><defs><filter id="a" width="1.072" height="1.072" x="-.036" y="-.036" color-interpolation-filters="sRGB"><feGaussianBlur stdDeviation="6.72"/></filter></defs><g stroke-width="1.011"><path d="M48.82 484.37A35.33 35.33 0 0 0 68 490h376a35.33 35.33 0 0 0 19.18-5.63L256 272.57zM37.508 49.196C34.021 54.867 32 61.584 32 68.804v384.39c0 7.22 2.021 13.937 5.508 19.608l207.18-211.8zM474.49 49.196c3.487 5.671 5.508 12.388 5.508 19.608v384.39c0 7.22-2.021 13.937-5.508 19.608l-207.18-211.8zM48.82 37.631A35.33 35.33 0 0 1 68 32.001h376a35.33 35.33 0 0 1 19.18 5.63L256 249.431z" opacity=".1"/></g><path d="M68 41.763a35.9 35.9 0 0 0-19.18 5.508L256 254.45 463.18 47.27A35.9 35.9 0 0 0 444 41.763zm-30.492 16.82A35.9 35.9 0 0 0 32 77.763v376a35.9 35.9 0 0 0 5.508 19.18l207.18-207.18zm436.98 0-207.18 207.18 207.18 207.18a35.9 35.9 0 0 0 5.508-19.18v-376a35.9 35.9 0 0 0-5.508-19.18m-218.49 218.49-207.18 207.18a35.9 35.9 0 0 0 19.18 5.508h376a35.9 35.9 0 0 0 19.18-5.508z" filter="url(#a)" opacity=".15"/><path fill="#996e98" d="M48.82 474.49A35.9 35.9 0 0 0 68 479.998h376a35.9 35.9 0 0 0 19.18-5.508L256 267.31z"/><path fill="#fff" d="M68 32c-19.944 0-36 16.056-36 36v2c0-19.944 16.056-36 36-36h376c19.944 0 36 16.056 36 36v-2c0-19.944-16.056-36-36-36z" opacity=".2"/><path fill="#f05252" d="M37.508 48.82A35.9 35.9 0 0 0 32 68v376a35.9 35.9 0 0 0 5.508 19.18L244.688 256z"/><path fill="#84de2c" d="M474.49 48.82A35.9 35.9 0 0 1 479.998 68v376a35.9 35.9 0 0 1-5.508 19.18L267.31 256z"/><path fill="#6694c7" d="M48.82 37.508A35.9 35.9 0 0 1 68 32h376a35.9 35.9 0 0 1 19.18 5.508L256 244.688z"/><g fill="#fff"><path d="M108.298 283.557h33.166v7.94H96.866v-7.94q5.41-5.558 14.725-14.899 9.362-9.387 11.761-12.097 4.564-5.09 6.351-8.593 1.835-3.55 1.835-6.96 0-5.557-3.952-9.06-3.904-3.503-10.208-3.503-4.47 0-9.456 1.541-4.94 1.541-10.585 4.67v-9.527q5.74-2.289 10.726-3.456 4.987-1.168 9.127-1.168 10.914 0 17.406 5.418t6.492 14.478q0 4.297-1.646 8.173-1.6 3.83-5.88 9.061-1.177 1.355-7.48 7.847-6.304 6.445-17.783 18.075z" aria-label="2"/><path d="M233.407 353.363h45.162v4.016l-25.497 65.714h-9.926l23.992-61.791h-33.73z" aria-label="7"/><path d="M256.811 117.183q-6.398 0-10.161 4.344-3.717 4.343-3.717 11.91 0 7.519 3.717 11.909 3.763 4.343 10.161 4.343t10.114-4.343q3.764-4.39 3.764-11.91 0-7.566-3.764-11.91-3.716-4.343-10.114-4.343m18.865-29.564v8.593q-3.575-1.68-7.245-2.568-3.622-.888-7.198-.888-9.408 0-14.395 6.305-4.94 6.306-5.646 19.056 2.776-4.063 6.963-6.212 4.187-2.195 9.22-2.195 10.585 0 16.701 6.399 6.163 6.352 6.163 17.328 0 10.742-6.398 17.234t-17.03 6.492q-12.185 0-18.629-9.248-6.445-9.294-6.445-26.902 0-16.533 7.904-26.342 7.903-9.854 21.217-9.854 3.575 0 7.197.7 3.67.7 7.622 2.102z" aria-label="6"/><path d="M369.064 220.457h37.306v7.94h-28.603v17.093q2.07-.7 4.14-1.027 2.07-.374 4.14-.374 11.761 0 18.629 6.399t6.868 17.328q0 11.256-7.056 17.514-7.057 6.212-19.9 6.212-4.422 0-9.032-.748-4.564-.747-9.456-2.241v-9.481q4.234 2.288 8.75 3.41t9.55 1.12q8.139 0 12.89-4.25t4.752-11.536-4.752-11.536-12.89-4.25q-3.81 0-7.621.84-3.764.841-7.715 2.616z" aria-label="5"/><path d="M68 32a35.9 35.9 0 0 0-19.18 5.508l5.207 5.207A37.2 37.2 0 0 1 68 40h376c4.966 0 9.678.978 13.973 2.715l5.207-5.207A35.9 35.9 0 0 0 444 32z" opacity=".15"/></g></svg>