<svg xmlns="http://www.w3.org/2000/svg" width="512" height="512" enable-background="new" version="1.0"><defs><filter id="a" width="1.045" height="1.052" x="-.022" y="-.026" color-interpolation-filters="sRGB"><feGaussianBlur stdDeviation="4.16"/></filter></defs><g transform="translate(-208 228)"><g transform="scale(1 -1)rotate(90)"><rect width="384" height="448" x="-224" y="-688" stroke="#000" stroke-width="8" filter="url(#a)" opacity=".1" rx="24" ry="24"/><rect width="384" height="448" x="-222" y="-688" opacity=".2" rx="24" ry="24"/><rect width="384" height="448" x="-224" y="-688" filter="url(#a)" opacity=".2" rx="24" ry="24"/></g><rect width="384" height="448" x="-220" y="-688" fill="#ff9800" rx="24" ry="24" transform="scale(1 -1)rotate(90)"/><path fill="#fff" d="M264-164c-13.296 0-24 10.704-24 24v2c0-13.296 10.704-24 24-24h400c13.296 0 24 10.704 24 24v-2c0-13.296-10.704-24-24-24z" opacity=".2"/><path fill="#ff9800" fill-rule="evenodd" stroke="#ffe0b2" stroke-linecap="square" stroke-width="16" d="M248-12h48v-64h40V52h40v-64h56v-64h40V52h40v-64h56v-64h40V52h40.575L648-12h32" enable-background="new"/><g fill="none" stroke="#ffe0b2" stroke-width="16"><path d="M520 116v72M560 148v40M600 172v16M480 148v40M440 172v16M400 172v16M360 172v16M320 172v16M280 172v16M640 172v16"/></g></g></svg>