<svg xmlns="http://www.w3.org/2000/svg" width="512" height="512" enable-background="new" version="1.0"><defs><filter id="a" width="1.045" height="1.052" x="-.022" y="-.026" color-interpolation-filters="sRGB"><feGaussianBlur stdDeviation="4.16"/></filter><filter id="b" width="1.067" height="1.54" x="-.034" y="-.27" color-interpolation-filters="sRGB"><feGaussianBlur stdDeviation="5.4"/></filter></defs><g transform="translate(-208 228)"><rect width="384" height="448" x="-224" y="-688" stroke="#000" stroke-width="8" filter="url(#a)" opacity=".1" rx="24" ry="24" transform="scale(1 -1)rotate(90)"/><rect width="384" height="448" x="-224" y="-688" filter="url(#a)" opacity=".2" rx="24" ry="24" transform="scale(1 -1)rotate(90)"/><rect width="384" height="448" x="-164" y="-688" fill="#455a64" rx="24" ry="24" transform="rotate(90)"/><path fill="#fff" d="M264-164c-13.296 0-24 10.704-24 24v2c0-13.296 10.704-24 24-24h400c13.296 0 24 10.704 24 24v-2c0-13.296-10.704-24-24-24z" opacity=".2"/><rect width="384" height="48" x="272" y="146" filter="url(#b)" opacity=".2" ry="8"/><rect width="384" height="48" x="272" y="140" fill="#cfd8dc" ry="8"/><path fill="#fff" d="M280 140c-4.432 0-8 3.568-8 8v2c0-4.432 3.568-8 8-8h368c4.432 0 8 3.568 8 8v-2c0-4.432-3.568-8-8-8z" opacity=".2"/></g></svg>