<svg width="512" height="512" enable-background="new" version="1.0" xmlns="http://www.w3.org/2000/svg" xmlns:xlink="http://www.w3.org/1999/xlink">
 <defs>
  <filter id="b" x="-.026526" y="-.021913" width="1.0531" height="1.0438" color-interpolation-filters="sRGB">
   <feGaussianBlur stdDeviation="3.36"/>
  </filter>
  <filter id="a" x="-.026526" y="-.021913" width="1.0531" height="1.0438" color-interpolation-filters="sRGB">
   <feGaussianBlur stdDeviation="3.36"/>
  </filter>
 </defs>
 <g transform="translate(0,212)">
  <g>
   <g transform="translate(-208,16)">
    <g>
     <rect x="368" y="-192" width="304" height="368" rx="16" ry="16" filter="url(#a)" opacity=".1" stroke="#000" stroke-width="8"/>
     <rect x="368" y="-192" width="304" height="368" rx="16" ry="16" filter="url(#a)" opacity=".2"/>
     <rect x="368" y="-196" width="304" height="368" rx="16" ry="16" fill="#d8d8d8"/>
     <path d="m384-196c-8.864 0-16 7.136-16 16v2c0-8.864 7.136-16 16-16h272c8.864 0 16 7.136 16 16v-2c0-8.864-7.136-16-16-16z" fill="#fff" opacity=".2"/>
     <rect x="256" y="-112" width="304" height="368" rx="16" ry="16" filter="url(#b)" opacity=".1" stroke="#000" stroke-width="8"/>
     <rect x="256" y="-112" width="304" height="368" rx="16" ry="16" filter="url(#b)" opacity=".2"/>
    </g>
    <path d="m523.55-8.2381 0.4185-26.76 18.397-1.254-1.254-10.035-17.143 5.0174v-23.833c10.035 1.254 20.906 3.345 29.686 3.763 17.979 1.254-5.0174 58.955-5.0174 58.955s68.153-60.209 10.871-75.679c-5.8536 0-20.488 0.83702-35.122 1.6725v-16.307l31.359-7.9443-31.359-0.417v-16.725l-19.233-14.216 2.0906 36.376-16.725 11.289 17.143-4.1814 0.837 13.38c-7.5261 0.837-14.216 1.254-17.979 2.0904-48.084 9.1986 4.1811 71.917 4.1811 71.917s-16.725-58.537 2.0907-63.972c3.763-1.254 7.5261-1.254 12.125-1.254l1.6725 29.268-12.544 3.763 12.544-0.837 0.837 17.143c-38.467 50.593-82.369 69.408-82.369 69.408s42.648-4.5993 83.624-49.756l4.1812 78.188c-15.47-6.2718-29.268-15.052-29.268-15.052s10.035 29.686 31.359 42.23l17.979-21.324c-4.1812-0.837-8.7804-2.0907-13.38-3.763l0.837-79.025c11.289 13.38 37.631 43.903 48.92 45.993l37.631-12.543c-14.634-2.5088-74.007-37.213-87.387-45.575z" fill="#101040"/>
    <rect x="256" y="-116" width="304" height="368" rx="16" ry="16" fill="#ebebeb"/>
    <path d="m272-116c-8.864 0-16 7.136-16 16v2c0-8.864 7.136-16 16-16h272c8.864 0 16 7.136 16 16v-2c0-8.864-7.136-16-16-16z" fill="#fff" opacity=".2"/>
    <path d="m390.58-52.979c-1.5791 1.579-1.9738 3.9474-1.9738 6.7106 0 5.1314 1.5791 11.447 2.3686 13.816 0 0 1.1844 27.632 1.5788 30.789-3.5527 0.3948-9.8684 0.7884-12.237 1.579h-3.1579c-6.7104 0.3948-13.026 0.7884-15.789 3.5526l-1.1844 1.1844 1.1844 1.579c1.9738 2.3684 2.7632 9.079 3.5526 16.184 1.9738 14.605 4.3422 32.763 16.184 39.868l2.3686 1.1844 0.7896-2.3686s0.3948-1.1844 0.3948-2.7631c0-1.1844-0.3948-3.1579-0.7896-5.921 3.1579 0.3948 9.8684 1.1844 12.237 1.1844 0.3936 3.1579 10.658 131.84 10.658 131.84h3.9474s4.3421-127.11 4.3421-131.05c2.7631 0 15 0.3948 18.553 0.7896-0.7896 2.3684-3.9474 12.237-3.9474 12.237l5.5262-5.1316c1.5791-1.1844 35.921-32.369 31.184-52.895-1.5788-6.7105-7.1052-11.447-16.184-13.816h-0.78839c-5.1316 0-20.921 0.3948-32.763 1.1844 0.3948-10.263 0.3948-15.789 0.3948-18.553v-3.1579-0.3948c0-1.9735 1.9736-4.7369 3.5526-6.7105 1.5788-2.3684 3.5526-4.3421 3.5526-6.7105 0-0.7896-0.3948-1.579-0.7896-2.3684-2.3682-3.5526-19.737-12.632-27.237-13.421-3.1578 0-4.7369 0.3948-5.5264 1.579zm0.3948 64.737h1.9738c0 3.5526 1.1844 28.421 1.579 31.974-3.1579-0.3948-10.658-1.1844-13.026-1.1844-1.1844-5.1317-1.579-10.658-1.9738-16.184-0.3948-4.7368-0.7884-9.4736-1.5788-13.816 3.5526 0 13.026-0.7884 13.026-0.7884zm24.079 12.237s0.3936-9.4736 0.3936-12.632c5.1316 0.7896 11.842 1.1844 18.158 1.1844h7.1053c0 1.5788-0.3948 3.5526-0.3948 3.5526-0.7896 8.6842-1.9735 18.947-5.5261 29.211-2.3686 0-16.974-0.7884-20.132-1.1844 0-2.7632 0.3948-20.132 0.3948-20.132z" fill="#ba0000"/>
   </g>
  </g>
 </g>
</svg>
