<svg width="512" height="512" enable-background="new" version="1.0" xmlns="http://www.w3.org/2000/svg" xmlns:osb="http://www.openswatchbook.org/uri/2009/osb" xmlns:xlink="http://www.w3.org/1999/xlink">
 <defs>
  <filter id="b" x="-.026526" y="-.021913" width="1.0531" height="1.0438" color-interpolation-filters="sRGB">
   <feGaussianBlur stdDeviation="3.36"/>
  </filter>
  <filter id="a" x="-.026526" y="-.021913" width="1.0531" height="1.0438" color-interpolation-filters="sRGB">
   <feGaussianBlur stdDeviation="3.36"/>
  </filter>
 </defs>
 <g transform="translate(0,212)">
  <g>
   <g transform="translate(-208,16)">
    <path d="m400-192h240c8.864 0 16 7.136 16 16v336c0 8.864-7.136 16-16 16h-240c-8.864 0-16-7.136-16-16v-336c0-8.864 7.136-16 16-16z" filter="url(#a)" opacity=".1" stroke="#000" stroke-width="8"/>
    <path d="m400-192h240c8.864 0 16 7.136 16 16v336c0 8.864-7.136 16-16 16h-240c-8.864 0-16-7.136-16-16v-336c0-8.864 7.136-16 16-16z" filter="url(#a)" opacity=".2"/>
    <path d="m400-196h240c8.864 0 16 7.136 16 16v336c0 8.864-7.136 16-16 16h-240c-8.864 0-16-7.136-16-16v-336c0-8.864 7.136-16 16-16z" fill="#ebebeb"/>
    <path d="m400-196c-8.864 0-16 7.136-16 16v2c0-8.864 7.136-16 16-16h240c8.864 0 16 7.136 16 16v-2c0-8.864-7.136-16-16-16z" fill="#fff" opacity=".2"/>
    <g transform="translate(112,-80)" fill="#3f3f3f">
     <path transform="translate(0,-244)" d="m408 228a40 40 0 0 0-40 40 40 40 0 0 0 5.4688 20.09 40 40 0 0 0-37.469 39.91 40 40 0 0 0 40 40 40 40 0 0 0 31.994-16.074 40 40 0 0 0 32.006 16.074 40 40 0 0 0 40-40 40 40 0 0 0-37.479-39.875 40 40 0 0 0 5.4785-20.125 40 40 0 0 0-40-40z"/>
     <path d="m412 108h-8s0 32-36 32v8h80v-8c-36 0-36-32-36-32z" fill-rule="evenodd"/>
    </g>
    <path d="m288-112h240c8.864 0 16 7.136 16 16v336c0 8.864-7.136 16-16 16h-240c-8.864 0-16-7.136-16-16v-336c0-8.864 7.136-16 16-16z" filter="url(#b)" opacity=".1" stroke="#000" stroke-width="8"/>
    <path d="m288-112h240c8.864 0 16 7.136 16 16v336c0 8.864-7.136 16-16 16h-240c-8.864 0-16-7.136-16-16v-336c0-8.864 7.136-16 16-16z" filter="url(#b)" opacity=".2"/>
    <path d="m288-116h240c8.864 0 16 7.136 16 16v336c0 8.864-7.136 16-16 16h-240c-8.864 0-16-7.136-16-16v-336c0-8.864 7.136-16 16-16z" fill="#fff"/>
    <path d="m288-116c-8.864 0-16 7.136-16 16v2c0-8.864 7.136-16 16-16h240c8.864 0 16 7.136 16 16v-2c0-8.864-7.136-16-16-16z" fill="#fff" opacity=".2"/>
    <path d="m439.5 4c-12.801 0-24.077 6.0559-31.5 15.328-7.4228-9.2722-18.699-15.328-31.5-15.328-22.368 0-40.5 18.132-40.5 40.5 0 0.44775 0.11813 0.86962 0.13163 1.3185h-0.13163c0 41.519 72 102.18 72 102.18s72-60.662 72-102.18h-0.13162c0.0135-0.44888 0.13162-0.87075 0.13162-1.3185 0-22.368-18.132-40.5-40.5-40.5z" fill="#f34235"/>
   </g>
  </g>
 </g>
</svg>
