<svg xmlns="http://www.w3.org/2000/svg" width="512" height="512" enable-background="new" version="1.0"><defs><filter id="a" width="1.048" height="1.048" x="-.024" y="-.024" color-interpolation-filters="sRGB"><feGaussianBlur stdDeviation="4.48"/></filter></defs><g transform="translate(-208 228)"><g transform="scale(1 -1)rotate(90)"><rect width="448" height="448" x="-254" y="-688" opacity=".2" rx="36" ry="36"/><rect width="448" height="448" x="-256" y="-688" filter="url(#a)" opacity=".1" rx="36" ry="36"/><rect width="448" height="448" x="-256" y="-688" filter="url(#a)" opacity=".2" rx="36" ry="36"/></g><rect width="448" height="448" x="-252" y="-688" fill="#f2f2f2" rx="36" ry="36" transform="scale(1 -1)rotate(90)"/><path fill="#fff" d="M276-196c-19.944 0-36 16.056-36 36v2c0-19.944 16.056-36 36-36h376c19.944 0 36 16.056 36 36v-2c0-19.944-16.056-36-36-36z" opacity=".2"/><path fill="none" stroke="#f44336" stroke-linecap="round" stroke-width="9.9988" d="m299.017 182.97 74.991-164.98L444 67.984l69.991-99.988 49.994 39.996 44.995-84.99"/><path fill="none" stroke="#3f51b5" stroke-linecap="round" stroke-width="9.9988" d="m299.017 192.97 74.991-104.988 59.993 49.994 69.991-79.99 59.993 39.995 44.995-84.99"/><g fill="#3f51b5" stroke="#3f51b5" stroke-linecap="square" transform="translate(-1225.8 -2561.7)scale(9.9988)"><circle cx="160" cy="265" r="1.5"/><circle cx="166" cy="270" r="1.5"/><circle cx="173" cy="262" r="1.5"/><circle cx="179" cy="266" r="1.5"/></g><g fill="#f44336" stroke="#f44336" stroke-linecap="square" transform="translate(-1225.8 -2561.7)scale(9.9988)"><circle cx="160" cy="258" r="1.5"/><circle cx="167" cy="263" r="1.5"/><circle cx="174" cy="253" r="1.5"/><circle cx="179" cy="257" r="1.5"/></g><path fill="none" stroke="#333" stroke-linecap="square" stroke-width="9.9988" d="M299.017-136.991v329.96h329.96"/></g></svg>