<svg xmlns="http://www.w3.org/2000/svg" width="512" height="512" enable-background="new" version="1.0"><defs><filter id="a" width="1.048" height="1.048" x="-.024" y="-.024" color-interpolation-filters="sRGB"><feGaussianBlur stdDeviation="4.48"/></filter><filter id="b" width="1.024" height="1.024" x="-.012" y="-.012" color-interpolation-filters="sRGB"><feGaussianBlur stdDeviation="1.92"/></filter><filter id="d" width="1.048" height="1.048" x="-.024" y="-.024" color-interpolation-filters="sRGB"><feGaussianBlur stdDeviation="4.48"/></filter></defs><path stroke="#000" stroke-linecap="round" stroke-width="8" d="M288-192a48 48 0 0 0-48 48 48 48 0 0 0 32 45.201v261.61a48 48 0 0 0-32 45.193 48 48 0 0 0 48 48 48 48 0 0 0 45.201-32h261.61a48 48 0 0 0 45.193 32 48 48 0 0 0 48-48 48 48 0 0 0-32-45.201v-261.61a48 48 0 0 0 32-45.193 48 48 0 0 0-48-48 48 48 0 0 0-45.201 32h-261.61A48 48 0 0 0 288-192zm45.201 64h261.61a48 48 0 0 0 6.096 11.785L560.23-75.539a32 32 0 0 0-16.227-4.46 32 32 0 0 0-27.668 16h-104.65a32 32 0 0 0-27.678-16 32 32 0 0 0-16.227 4.46l-40.693-40.693a48 48 0 0 0 6.12-11.768zm279.03 23.08a48 48 0 0 0 11.768 6.121v261.61a48 48 0 0 0-11.785 6.096l-40.676-40.676a32 32 0 0 0 4.46-16.227 32 32 0 0 0-16-27.668v-104.65a32 32 0 0 0 16-27.678 32 32 0 0 0-4.46-16.227zm-296.45.018 40.676 40.676A32 32 0 0 0 351.997-48a32 32 0 0 0 16 27.668v104.65a32 32 0 0 0-16 27.678 32 32 0 0 0 4.46 16.227l-40.693 40.693a48 48 0 0 0-11.768-6.121v-261.61a48 48 0 0 0 11.785-6.096zM411.664-32h104.65a32 32 0 0 0 11.678 11.668v104.65a32 32 0 0 0-11.668 11.678h-104.65a32 32 0 0 0-11.678-11.668v-104.65A32 32 0 0 0 411.664-32zm0 160h104.65a32 32 0 0 0 27.678 16 32 32 0 0 0 16.227-4.461l40.693 40.693A48 48 0 0 0 594.791 192H333.18a48 48 0 0 0-6.096-11.785l40.676-40.676a32 32 0 0 0 16.227 4.46 32 32 0 0 0 27.668-16z" enable-background="new" filter="url(#a)" opacity=".1" transform="translate(-208 228)"/><g color="#000"><path d="M272-160v384h384v-384zm43.312 32h297.38l-64 64h-169.38zM304-116.688l64 64v169.38l-64 64zm320 0v297.38l-64-64v-169.38zM400-32h128V96H400zm-20.688 160h169.38l64 64h-297.38z" enable-background="accumulate" filter="url(#b)" opacity=".2" style="isolation:auto;mix-blend-mode:normal;text-decoration-color:#000;text-decoration-line:none;text-decoration-style:solid;text-indent:0;text-transform:none;white-space:normal" transform="translate(-208 228)"/><path fill="#c4c4c4" d="M272 80v384h384V80zm43.312 32h297.38l-64 64h-169.38zM304 123.312l64 64v169.38l-64 64zm320 0v297.38l-64-64v-169.38zM400 208h128v128H400zm-20.688 160h169.38l64 64h-297.38z" enable-background="accumulate" style="isolation:auto;mix-blend-mode:normal;text-decoration-color:#000;text-decoration-line:none;text-decoration-style:solid;text-indent:0;text-transform:none;white-space:normal" transform="translate(-208 -16)"/><path fill="#fff" d="M272 80v2h384v-2zm43.312 34 64 64h169.38l64-64h-2l-62 62h-169.38l-62-62zM400 336v2h128v-2zm-32 20.688-64 64v2l64-64zm192 0v2l64 64v-2zM317.31 432l-2 2h297.38l-2-2z" enable-background="accumulate" opacity=".2" style="isolation:auto;mix-blend-mode:normal;text-decoration-color:#000;text-decoration-line:none;text-decoration-style:solid;text-indent:0;text-transform:none;white-space:normal" transform="translate(-208 -16)"/></g><path d="M288-192a48 48 0 0 0-48 48 48 48 0 0 0 48 48 48 48 0 0 0 48-48 48 48 0 0 0-48-48m352 0a48 48 0 0 0-48 48 48 48 0 0 0 48 48 48 48 0 0 0 48-48 48 48 0 0 0-48-48M384-80a32 32 0 0 0-32 32 32 32 0 0 0 32 32 32 32 0 0 0 32-32 32 32 0 0 0-32-32m160 0a32 32 0 0 0-32 32 32 32 0 0 0 32 32 32 32 0 0 0 32-32 32 32 0 0 0-32-32M384 80a32 32 0 0 0-32 32 32 32 0 0 0 32 32 32 32 0 0 0 32-32 32 32 0 0 0-32-32m160 0a32 32 0 0 0-32 32 32 32 0 0 0 32 32 32 32 0 0 0 32-32 32 32 0 0 0-32-32m-256 80a48 48 0 0 0-48 48 48 48 0 0 0 48 48 48 48 0 0 0 48-48 48 48 0 0 0-48-48m352 0a48 48 0 0 0-48 48 48 48 0 0 0 48 48 48 48 0 0 0 48-48 48 48 0 0 0-48-48" enable-background="new" filter="url(#d)" opacity=".2" transform="translate(-208 228)"/><path fill="#d8d8d8" d="M80 32a48 48 0 0 0-48 48 48 48 0 0 0 48 48 48 48 0 0 0 48-48 48 48 0 0 0-48-48m352 0a48 48 0 0 0-48 48 48 48 0 0 0 48 48 48 48 0 0 0 48-48 48 48 0 0 0-48-48M176 144a32 32 0 0 0-32 32 32 32 0 0 0 32 32 32 32 0 0 0 32-32 32 32 0 0 0-32-32m160 0a32 32 0 0 0-32 32 32 32 0 0 0 32 32 32 32 0 0 0 32-32 32 32 0 0 0-32-32M176 304a32 32 0 0 0-32 32 32 32 0 0 0 32 32 32 32 0 0 0 32-32 32 32 0 0 0-32-32m160 0a32 32 0 0 0-32 32 32 32 0 0 0 32 32 32 32 0 0 0 32-32 32 32 0 0 0-32-32M80 384a48 48 0 0 0-48 48 48 48 0 0 0 48 48 48 48 0 0 0 48-48 48 48 0 0 0-48-48m352 0a48 48 0 0 0-48 48 48 48 0 0 0 48 48 48 48 0 0 0 48-48 48 48 0 0 0-48-48" enable-background="new"/><path fill="#fff" d="M80 32a48 48 0 0 0-48 48 48 48 0 0 0 .041.832A48 48 0 0 1 80 34a48 48 0 0 1 47.959 47.168A48 48 0 0 0 128 80a48 48 0 0 0-48-48m352 0a48 48 0 0 0-48 48 48 48 0 0 0 .041.832A48 48 0 0 1 432 34a48 48 0 0 1 47.959 47.168A48 48 0 0 0 480 80a48 48 0 0 0-48-48M176 144a32 32 0 0 0-32 32 32 32 0 0 0 .041.828A32 32 0 0 1 176 146a32 32 0 0 1 31.959 31.172A32 32 0 0 0 208 176a32 32 0 0 0-32-32zm160 0a32 32 0 0 0-32 32 32 32 0 0 0 .041.828A32 32 0 0 1 336 146a32 32 0 0 1 31.959 31.172A32 32 0 0 0 368 176a32 32 0 0 0-32-32zM176 304a32 32 0 0 0-32 32 32 32 0 0 0 .041.828A32 32 0 0 1 176 306a32 32 0 0 1 31.959 31.172A32 32 0 0 0 208 336a32 32 0 0 0-32-32zm160 0a32 32 0 0 0-32 32 32 32 0 0 0 .041.828A32 32 0 0 1 336 306a32 32 0 0 1 31.959 31.172A32 32 0 0 0 368 336a32 32 0 0 0-32-32zM80 384a48 48 0 0 0-48 48 48 48 0 0 0 .041.832A48 48 0 0 1 80 386a48 48 0 0 1 47.959 47.168A48 48 0 0 0 128 432a48 48 0 0 0-48-48m352 0a48 48 0 0 0-48 48 48 48 0 0 0 .041.832A48 48 0 0 1 432 386a48 48 0 0 1 47.959 47.168A48 48 0 0 0 480 432a48 48 0 0 0-48-48" enable-background="new" opacity=".2"/></svg>