<svg xmlns="http://www.w3.org/2000/svg" width="512" height="512" enable-background="new" version="1.0"><defs><filter id="a" width="1.144" height="1.144" x="-.072" y="-.072" color-interpolation-filters="sRGB"><feGaussianBlur stdDeviation=".658"/></filter><filter id="b" width="1.144" height="1.144" x="-.072" y="-.072" color-interpolation-filters="sRGB"><feGaussianBlur stdDeviation=".686"/></filter><filter id="e" width="1.336" height="1.336" x="-.168" y="-.168" color-interpolation-filters="sRGB"><feGaussianBlur stdDeviation=".686"/></filter><filter id="f" width="1.336" height="1.336" x="-.168" y="-.168" color-interpolation-filters="sRGB"><feGaussianBlur stdDeviation=".689"/></filter></defs><g filter="url(#a)" opacity=".15" transform="matrix(10.241 0 0 10.184 -55.049 18.459)"><rect width="21.873" height="21.996" x="8.5" y="24.504" ry=".786"/></g><g filter="url(#b)" opacity=".15" transform="translate(83.371 47.69)scale(9.7933)"><rect width="22.873" height="22.873" x="17.627" y="-.377" ry=".817"/></g><g filter="url(#e)" opacity=".15" transform="translate(1.374 32.941)scale(9.7933)"><rect width="9.803" height="9.803" x="32.535" y="30.537" opacity="1" rx="1.545" ry="1.545"/></g><g filter="url(#f)" opacity=".15" transform="translate(-223.87 -189.51)scale(9.7477)"><rect width="9.848" height="9.848" x="32.815" y="30.521" opacity="1" rx="1.552" ry="1.552"/></g><g transform="matrix(10.241 0 0 10.184 -55.049 6.459)"><rect width="21.873" height="21.996" x="8.5" y="24.504" fill="#f6e132" ry=".786"/><path fill="#fff" d="M9.286 24.504a.784.784 0 0 0-.786.786v.392c0-.435.35-.786.786-.786h20.301c.436 0 .786.35.786.786v-.392a.784.784 0 0 0-.786-.786z" opacity=".35"/></g><g transform="translate(83.371 35.69)scale(9.7933)"><rect width="22.873" height="22.873" x="17.627" y="-.377" fill="#f6e132" ry=".817"/><path fill="#fff" d="M18.444-.377a.815.815 0 0 0-.817.817v.306c0-.452.364-.816.817-.816h21.239c.452 0 .817.364.817.816V.44a.815.815 0 0 0-.817-.817z" opacity=".35"/></g><g transform="translate(1.374 20.941)scale(9.7933)"><rect width="9.803" height="9.803" x="32.535" y="30.537" fill="#5382b9" rx="1.545" ry="1.545"/><path fill="#fff" d="M34.08 30.537c-.856 0-1.545.689-1.545 1.545v.51c0-.855.689-1.544 1.545-1.544h6.712c.856 0 1.545.689 1.545 1.545v-.511c0-.856-.689-1.545-1.545-1.545z" opacity=".1"/></g><g transform="translate(-223.87 -201.51)scale(9.7477)"><rect width="9.848" height="9.848" x="32.815" y="30.521" fill="#5382b9" rx="1.552" ry="1.552"/><path fill="#fff" d="M34.367 30.522c-.86 0-1.552.692-1.552 1.552v.41c0-.86.692-1.552 1.552-1.552h6.744c.86 0 1.552.692 1.552 1.552v-.41c0-.86-.692-1.552-1.552-1.552z" opacity=".1"/></g></svg>