<svg width="512" height="512" enable-background="new" version="1.0" xmlns="http://www.w3.org/2000/svg" xmlns:osb="http://www.openswatchbook.org/uri/2009/osb" xmlns:xlink="http://www.w3.org/1999/xlink">
 <defs>
  <filter id="a" x="-.022286" y="-.026" width="1.0446" height="1.052" color-interpolation-filters="sRGB">
   <feGaussianBlur stdDeviation="4.16"/>
  </filter>
  <filter id="c" x="-.050625" y="-.073636" width="1.1013" height="1.1473" color-interpolation-filters="sRGB">
   <feGaussianBlur stdDeviation="5.1975"/>
  </filter>
  <filter id="b" x="-.06" y="-.06" width="1.12" height="1.12" color-interpolation-filters="sRGB">
   <feGaussianBlur stdDeviation="7.919629"/>
  </filter>
 </defs>
 <g transform="translate(0,212)">
  <g>
   <g transform="translate(-208,20)">
    <g>
     <rect transform="matrix(0,-1,-1,0,0,0)" x="-256" y="-688" width="384" height="448" rx="36" ry="36" filter="url(#a)" opacity=".1"/>
     <rect transform="matrix(0,-1,-1,0,0,0)" x="-256" y="-688" width="384" height="448" rx="36" ry="36" filter="url(#a)" opacity=".2"/>
     <rect transform="matrix(0,-1,-1,0,0,0)" x="-254" y="-688" width="384" height="448" rx="36" ry="36" opacity=".2"/>
    </g>
    <path d="m276-132c-19.944 0-36 16.056-36 36v276h448v-276c0-19.944-16.056-36-36-36z" fill="#42a5f5"/>
    <path d="m464-216.39-46.391 46.393h-65.609v65.609l-46.393 46.391 46.393 46.391v65.609h65.609l46.391 46.393 46.391-46.393h65.609v-65.609l46.393-46.391-46.393-46.391v-65.609h-65.609z" enable-background="new" filter="url(#b)" opacity=".1"/>
    <path d="m276-132c-19.944 0-36 16.056-36 36v2c0-19.944 16.056-36 36-36h376c19.944 0 36 16.056 36 36v-2c0-19.944-16.056-36-36-36z" fill="#fff" opacity=".2"/>
    <path d="m543.2-147.2c43.875 43.875 43.875 114.52 0 158.39-43.875 43.875-114.52 43.875-158.39 0l-79.196-79.196 79.196-79.196c43.875-43.875 114.52-43.875 158.39 0z" enable-background="new" fill="#f6be1a"/>
    <path d="m464-180c-62.048 0-112 49.952-112 112s49.952 112 112 112h112v-112c0-62.048-49.952-112-112-112z" enable-background="new" fill="#f9ce1d"/>
    <path d="m576-68c0-62.048-49.952-112-112-112s-112 49.952-112 112v112h112c62.048 0 112-49.952 112-112z" enable-background="new" fill="#f9ce1d"/>
    <path d="m352-68c0 62.048 49.952 112 112 112s112-49.952 112-112v-112h-112c-62.048 0-112 49.952-112 112z" enable-background="new" fill="#f6be1a"/>
    <path d="m464 44c62.048 0 112-49.952 112-112s-49.952-112-112-112h-112v112c0 62.048 49.952 112 112 112z" enable-background="new" fill="#fadd60"/>
    <path d="m543.2-147.2c-43.875-43.875-114.52-43.875-158.39 0-43.875 43.875-43.875 114.52 0 158.39l79.196 79.196 79.196-79.196c43.875-43.875 43.875-114.52 0-158.39z" enable-background="new" fill="#f9ce1d"/>
    <path d="m384.8-147.2c-43.875 43.875-43.875 114.52 0 158.39 43.875 43.875 114.52 43.875 158.39 0l79.196-79.196-79.196-79.196c-43.875-43.875-114.52-43.875-158.39 0z" enable-background="new" fill="#f6be1a"/>
    <path d="m384.8 11.196c43.875 43.875 114.52 43.875 158.39 0s43.875-114.52 0-158.39l-79.196-79.196-79.196 79.196c-43.875 43.875-43.875 114.52 0 158.39z" enable-background="new" fill="#fadd60"/>
    <circle cx="464" cy="-68" r="112" fill="#fce68d"/>
    <path d="m531.2-85.4c-31.895 0-59.055 19.526-70.744 47.163-29.689 4.4136-52.456 29.721-52.456 60.637 0 34.021 27.579 61.6 61.6 61.6h130.9c29.768 0 53.9-24.132 53.9-53.9 0-27.667-20.802-50.338-47.644-53.419-7.0003-35.318-38.182-62.081-75.556-62.081z" enable-background="new" filter="url(#c)" opacity=".1"/>
    <path d="m531.2-93.4c-31.895 0-59.055 19.526-70.744 47.163-29.689 4.4136-52.456 29.721-52.456 60.637 0 34.021 27.579 61.6 61.6 61.6h130.9c29.768 0 53.9-24.132 53.9-53.9 0-27.667-20.802-50.338-47.644-53.419-7.0003-35.318-38.182-62.081-75.556-62.081z" enable-background="new" fill="#e6e6e6"/>
    <path d="m688 92v112c0 48-48 48-48 48h-352c-48 0-48-48-48-48v-16s179.2-96 448-96z" fill="#689f38"/>
    <path d="m688 92c-268.8 0-448 96-448 96v2s179.2-96 448-96z" fill="#fff" opacity=".2"/>
    <path d="m240 92v124c0 36 36 36 36 36h376c36 0 36-36 36-36v-28s-179.2-96-448-96z" fill="#66bb6a"/>
    <g fill="#fff">
     <path d="m240 92v2c268.8 0 448 96 448 96v-2s-179.2-96-448-96z" opacity=".2"/>
     <path transform="translate(0,-244)" d="m 464,64 a 112,112 0 0 0 -112,112 112,112 0 0 0 0.041,1.16992 A 112,112 0 0 1 464,66 112,112 0 0 1 575.95898,176.83008 112,112 0 0 0 576,176 112,112 0 0 0 464,64 Z" opacity=".2"/>
     <path transform="translate(0,-244)" d="m531.2 150.6c-31.895 0-59.053 19.525-70.742 47.162-29.689 4.4136-52.457 29.722-52.457 60.639 0 0.31966 0.0186 0.63462 0.0234 0.95313 0.50885-30.438 23.082-55.228 52.434-59.592 11.689-27.637 38.848-47.162 70.742-47.162 37.374 0 68.556 26.764 75.557 62.082 26.504 3.042 47.106 25.187 47.621 52.379 6e-3 -0.32097 0.0234-0.63863 0.0234-0.96094 0-27.667-20.803-50.337-47.645-53.418-7.0003-35.318-38.183-62.082-75.557-62.082z" enable-background="new" opacity=".5"/>
     <path transform="translate(0,-244)" d="m464 17.607-46.391 46.393h-65.609v2h65.609l46.391-46.393 46.391 46.393h65.609v-2h-65.609zm-112 112-46.393 46.391 1 1 45.393-45.391zm224 0v2l45.393 45.391 1-1z" enable-background="new" opacity=".2"/>
    </g>
   </g>
  </g>
 </g>
</svg>
