<svg xmlns="http://www.w3.org/2000/svg" width="512" height="512" enable-background="new" version="1.0"><defs><filter id="a" width="1.045" height="1.052" x="-.022" y="-.026" color-interpolation-filters="sRGB"><feGaussianBlur stdDeviation="4.16"/></filter><filter id="c" width="1.101" height="1.147" x="-.051" y="-.074" color-interpolation-filters="sRGB"><feGaussianBlur stdDeviation="5.197"/></filter><filter id="b" width="1.12" height="1.12" x="-.06" y="-.06" color-interpolation-filters="sRGB"><feGaussianBlur stdDeviation="7.92"/></filter></defs><g transform="translate(-208 232)"><g transform="scale(1 -1)rotate(90)"><rect width="384" height="448" x="-256" y="-688" filter="url(#a)" opacity=".1" rx="36" ry="36"/><rect width="384" height="448" x="-256" y="-688" filter="url(#a)" opacity=".2" rx="36" ry="36"/><rect width="384" height="448" x="-254" y="-688" opacity=".2" rx="36" ry="36"/></g><path fill="#42a5f5" d="M276-132c-19.944 0-36 16.056-36 36v276h448V-96c0-19.944-16.056-36-36-36z"/><path d="m464-216.39-46.391 46.393H352v65.609l-46.393 46.391L352-11.606v65.609h65.609L464 100.396l46.391-46.393H576v-65.609l46.393-46.391L576-104.388v-65.609h-65.609z" enable-background="new" filter="url(#b)" opacity=".1"/><path fill="#fff" d="M276-132c-19.944 0-36 16.056-36 36v2c0-19.944 16.056-36 36-36h376c19.944 0 36 16.056 36 36v-2c0-19.944-16.056-36-36-36z" opacity=".2"/><path fill="#f6be1a" d="M543.2-147.2c43.875 43.875 43.875 114.52 0 158.39-43.875 43.875-114.52 43.875-158.39 0l-79.196-79.196 79.196-79.196c43.875-43.875 114.52-43.875 158.39 0z" enable-background="new"/><path fill="#f9ce1d" d="M464-180c-62.048 0-112 49.952-112 112S401.952 44 464 44h112V-68c0-62.048-49.952-112-112-112" enable-background="new"/><path fill="#f9ce1d" d="M576-68c0-62.048-49.952-112-112-112S352-130.048 352-68V44h112c62.048 0 112-49.952 112-112" enable-background="new"/><path fill="#f6be1a" d="M352-68c0 62.048 49.952 112 112 112S576-5.952 576-68v-112H464c-62.048 0-112 49.952-112 112" enable-background="new"/><path fill="#fadd60" d="M464 44c62.048 0 112-49.952 112-112s-49.952-112-112-112H352v112c0 62.048 49.952 112 112 112" enable-background="new"/><path fill="#f9ce1d" d="M543.2-147.2c-43.875-43.875-114.52-43.875-158.39 0-43.875 43.875-43.875 114.52 0 158.39l79.196 79.196 79.196-79.196c43.875-43.875 43.875-114.52 0-158.39z" enable-background="new"/><path fill="#f6be1a" d="M384.8-147.2c-43.875 43.875-43.875 114.52 0 158.39 43.875 43.875 114.52 43.875 158.39 0l79.196-79.196-79.196-79.196c-43.875-43.875-114.52-43.875-158.39 0z" enable-background="new"/><path fill="#fadd60" d="M384.8 11.196c43.875 43.875 114.52 43.875 158.39 0s43.875-114.52 0-158.39l-79.196-79.196-79.196 79.196c-43.875 43.875-43.875 114.52 0 158.39z" enable-background="new"/><circle cx="464" cy="-68" r="112" fill="#fce68d"/><path d="M531.2-85.4c-31.895 0-59.055 19.526-70.744 47.163C430.767-33.823 408-8.516 408 22.4c0 34.021 27.579 61.6 61.6 61.6h130.9c29.768 0 53.9-24.132 53.9-53.9 0-27.667-20.802-50.338-47.644-53.419-7-35.318-38.182-62.081-75.556-62.081" enable-background="new" filter="url(#c)" opacity=".1"/><path fill="#e6e6e6" d="M531.2-93.4c-31.895 0-59.055 19.526-70.744 47.163C430.767-41.823 408-16.516 408 14.4c0 34.021 27.579 61.6 61.6 61.6h130.9c29.768 0 53.9-24.132 53.9-53.9 0-27.667-20.802-50.338-47.644-53.419-7-35.318-38.182-62.081-75.556-62.081" enable-background="new"/><path fill="#689f38" d="M688 92v112c0 48-48 48-48 48H288c-48 0-48-48-48-48v-16s179.2-96 448-96"/><path fill="#fff" d="M688 92c-268.8 0-448 96-448 96v2s179.2-96 448-96z" opacity=".2"/><path fill="#66bb6a" d="M240 92v124c0 36 36 36 36 36h376c36 0 36-36 36-36v-28S508.8 92 240 92"/><g fill="#fff"><path d="M240 92v2c268.8 0 448 96 448 96v-2S508.8 92 240 92M464-180A112 112 0 0 0 352-68a112 112 0 0 0 .041 1.17A112 112 0 0 1 464-178 112 112 0 0 1 575.959-67.17L576-68a112 112 0 0 0-112-112" opacity=".2"/><path d="M531.2-93.4c-31.895 0-59.053 19.525-70.742 47.162-29.689 4.414-52.457 29.722-52.457 60.639 0 .32.019.635.023.953.51-30.438 23.082-55.228 52.434-59.592C472.148-71.875 499.306-91.4 531.2-91.4c37.374 0 68.556 26.764 75.557 62.082 26.504 3.042 47.106 25.187 47.621 52.38.006-.322.024-.64.024-.962 0-27.667-20.803-50.337-47.645-53.418-7-35.318-38.183-62.082-75.557-62.082z" enable-background="new" opacity=".5"/><path d="M464-226.393 417.609-180H352v2h65.609L464-224.393 510.391-178H576v-2h-65.609zm-112 112-46.393 46.391 1 1L352-112.393zm224 0v2l45.393 45.391 1-1z" enable-background="new" opacity=".2"/></g></g></svg>