<svg width="512" height="512" enable-background="new" version="1.0" xmlns="http://www.w3.org/2000/svg" xmlns:xlink="http://www.w3.org/1999/xlink">
 <defs>
  <filter id="a" x="-.036" y="-.036" width="1.072" height="1.072" color-interpolation-filters="sRGB">
   <feGaussianBlur stdDeviation="6.72"/>
  </filter>
 </defs>
 <g stroke-width="1.0111">
  <path d="m48.82 484.37c5.5472 3.5644 12.117 5.6308 19.18 5.6308h376c7.0627 0 13.633-2.0663 19.18-5.6308l-207.18-211.8z" opacity=".1"/>
  <path d="m37.508 49.196c-3.4866 5.671-5.5078 12.388-5.5078 19.608v384.39c0 7.2203 2.0212 13.937 5.5078 19.608l207.18-211.8z" opacity=".1"/>
  <path d="m474.49 49.196c3.4866 5.671 5.5078 12.388 5.5078 19.608v384.39c0 7.2203-2.0212 13.937-5.5078 19.608l-207.18-211.8z" opacity=".1"/>
  <path d="m48.82 37.631c5.5472-3.5644 12.117-5.6308 19.18-5.6308h376c7.0627 0 13.633 2.0663 19.18 5.6308l-207.18 211.8z" opacity=".1"/>
 </g>
 <path d="m68 41.763c-7.0627 0-13.633 2.0212-19.18 5.5078l207.18 207.18 207.18-207.18c-5.5472-3.4866-12.117-5.5078-19.18-5.5078zm-30.492 16.82c-3.4866 5.5472-5.5078 12.117-5.5078 19.18v376c0 7.0627 2.0212 13.633 5.5078 19.18l207.18-207.18zm436.98 0-207.18 207.18 207.18 207.18c3.4866-5.5472 5.5078-12.117 5.5078-19.18v-376c0-7.0627-2.0212-13.633-5.5078-19.18zm-218.49 218.49-207.18 207.18c5.5472 3.4866 12.117 5.5078 19.18 5.5078h376c7.0627 0 13.633-2.0212 19.18-5.5078z" filter="url(#a)" opacity=".15"/>
 <path d="m48.82 474.49c5.5472 3.4866 12.117 5.5078 19.18 5.5078h376c7.0627 0 13.633-2.0212 19.18-5.5078l-207.18-207.18z" fill="#996e98"/>
 <path d="m68 32c-19.944 0-36 16.056-36 36v2c0-19.944 16.056-36 36-36h376c19.944 0 36 16.056 36 36v-2c0-19.944-16.056-36-36-36z" fill="#fff" opacity=".2"/>
 <g>
  <path d="m37.508 48.82c-3.4866 5.5472-5.5078 12.117-5.5078 19.18v376c0 7.0627 2.0212 13.633 5.5078 19.18l207.18-207.18z" fill="#f05252"/>
  <path d="m474.49 48.82c3.4866 5.5472 5.5078 12.117 5.5078 19.18v376c0 7.0627-2.0212 13.633-5.5078 19.18l-207.18-207.18z" fill="#84de2c"/>
  <path d="m48.82 37.508c5.5472-3.4866 12.117-5.5078 19.18-5.5078h376c7.0627 0 13.633 2.0212 19.18 5.5078l-207.18 207.18z" fill="#6694c7"/>
 </g>
 <g fill="#fff">
  <g>
   <g transform="scale(1.0036 .99637)" aria-label="2">
    <path d="m107.91 284.59h33.047v7.9688h-44.438v-7.9688q5.3906-5.5781 14.672-14.953 9.3281-9.4219 11.719-12.141 4.5469-5.1094 6.3281-8.625 1.8281-3.5625 1.8281-6.9844 0-5.5781-3.9375-9.0938-3.8906-3.5156-10.172-3.5156-4.4531 0-9.4219 1.5469-4.9219 1.5469-10.547 4.6875v-9.5625q5.7188-2.2969 10.688-3.4688 4.9688-1.1719 9.0938-1.1719 10.875 0 17.344 5.4375t6.4688 14.531q0 4.3125-1.6406 8.2031-1.5938 3.8438-5.8594 9.0938-1.1719 1.3594-7.4531 7.875-6.2812 6.4688-17.719 18.141z" fill="#fff" stroke-width="8.9063px"/>
   </g>
   <g transform="scale(1.0036 .99637)" aria-label="7">
    <path d="m232.57 354.65h45v4.0312l-25.406 65.953h-9.8906l23.906-62.016h-33.609z" fill="#fff" stroke-width="8.9063px"/>
   </g>
   <g transform="scale(1.0036 .99637)" aria-label="6">
    <path d="m255.89 117.61q-6.375 0-10.125 4.3594-3.7031 4.3594-3.7031 11.953 0 7.5469 3.7031 11.953 3.75 4.3594 10.125 4.3594t10.078-4.3594q3.75-4.4062 3.75-11.953 0-7.5938-3.75-11.953-3.7031-4.3594-10.078-4.3594zm18.797-29.672v8.625q-3.5625-1.6875-7.2188-2.5781-3.6094-0.89062-7.1719-0.89062-9.375 0-14.344 6.3281-4.9219 6.3281-5.625 19.125 2.7656-4.0781 6.9375-6.2344 4.1719-2.2031 9.1875-2.2031 10.547 0 16.641 6.4219 6.1406 6.375 6.1406 17.391 0 10.781-6.375 17.297-6.375 6.5156-16.969 6.5156-12.141 0-18.562-9.2812-6.4219-9.3281-6.4219-27 0-16.594 7.875-26.438 7.875-9.8906 21.141-9.8906 3.5625 0 7.1719 0.70312 3.6562 0.70312 7.5938 2.1094z" fill="#fff" stroke-width="8.9063px"/>
   </g>
   <g transform="scale(1.0036 .99637)" aria-label="5">
    <path d="m367.74 221.26h37.172v7.9688h-28.5v17.156q2.0625-0.70312 4.125-1.0312 2.0625-0.375 4.125-0.375 11.719 0 18.562 6.4219 6.8438 6.4219 6.8438 17.391 0 11.297-7.0312 17.578-7.0312 6.2344-19.828 6.2344-4.4062 0-9-0.75-4.5469-0.75-9.4219-2.25v-9.5156q4.2188 2.2969 8.7188 3.4219t9.5156 1.125q8.1094 0 12.844-4.2656 4.7344-4.2656 4.7344-11.578t-4.7344-11.578q-4.7344-4.2656-12.844-4.2656-3.7969 0-7.5938 0.84375-3.75 0.84375-7.6875 2.625z" fill="#fff" stroke-width="8.9063px"/>
   </g>
  </g>
  <path d="m68 32c-7.0627 0-13.633 2.0212-19.18 5.5078l5.207 5.207c4.2942-1.7372 9.007-2.7148 13.973-2.7148h376c4.9656 0 9.6784 0.97766 13.973 2.7148l5.207-5.207c-5.5472-3.4866-12.117-5.5078-19.18-5.5078h-376z" opacity=".15"/>
 </g>
</svg>
