<svg xmlns="http://www.w3.org/2000/svg" width="512" height="512" enable-background="new" version="1.0"><defs><filter id="a" width="1.048" height="1.048" x="-.024" y="-.024" color-interpolation-filters="sRGB"><feGaussianBlur stdDeviation="4.64"/></filter><filter id="b" width="1.048" height="1.048" x="-.024" y="-.024" color-interpolation-filters="sRGB"><feGaussianBlur stdDeviation="3.36"/></filter><filter id="c" width="1.048" height="1.048" x="-.024" y="-.024" color-interpolation-filters="sRGB"><feGaussianBlur stdDeviation="3.52"/></filter><filter id="e" width="1.048" height="1.048" x="-.024" y="-.024" color-interpolation-filters="sRGB"><feGaussianBlur stdDeviation="1.44"/></filter></defs><g transform="translate(-208 228)"><path stroke="#000" stroke-width="8" d="M464-200c-48.501 0-93.427 14.745-130.58 40h-29.422c-17.728 0-32 14.272-32 32v29.422c-25.255 37.151-40 82.077-40 130.58s14.745 93.427 40 130.58v29.422c0 17.728 14.272 32 32 32h29.422c37.151 25.255 82.077 40 130.58 40s93.427-14.745 130.58-40h29.422c17.728 0 32-14.272 32-32v-29.422c25.255-37.151 40-82.077 40-130.58s-14.745-93.427-40-130.58V-128c0-17.728-14.272-32-32-32H594.58c-37.151-25.255-82.077-40-130.58-40z" filter="url(#a)" opacity=".2"/><path d="M464-200c-48.501 0-93.427 14.745-130.58 40h-29.422c-17.728 0-32 14.272-32 32v29.422c-25.255 37.151-40 82.077-40 130.58s14.745 93.427 40 130.58v29.422c0 17.728 14.272 32 32 32h29.422c37.151 25.255 82.077 40 130.58 40s93.427-14.745 130.58-40h29.422c17.728 0 32-14.272 32-32v-29.422c25.255-37.151 40-82.077 40-130.58s-14.745-93.427-40-130.58V-128c0-17.728-14.272-32-32-32H594.58c-37.151-25.255-82.077-40-130.58-40" filter="url(#a)" opacity=".2"/><path fill="#5e5e5e" d="M464-204c-48.501 0-93.427 14.745-130.58 40h-29.422c-17.728 0-32 14.272-32 32v29.422c-25.255 37.151-40 82.077-40 130.58s14.745 93.427 40 130.58v29.422c0 17.728 14.272 32 32 32h29.422c37.151 25.255 82.077 40 130.58 40s93.427-14.745 130.58-40h29.422c17.728 0 32-14.272 32-32v-29.422c25.255-37.151 40-82.077 40-130.58s-14.745-93.427-40-130.58V-132c0-17.728-14.272-32-32-32H594.58c-37.151-25.255-82.077-40-130.58-40"/><path d="M308-136a12 12 0 0 0-12 12 12 12 0 0 0 12 12 12 12 0 0 0 12-12 12 12 0 0 0-12-12m312 0a12 12 0 0 0-12 12 12 12 0 0 0 12 12 12 12 0 0 0 12-12 12 12 0 0 0-12-12M308 176a12 12 0 0 0-12 12 12 12 0 0 0 12 12 12 12 0 0 0 12-12 12 12 0 0 0-12-12m312 0a12 12 0 0 0-12 12 12 12 0 0 0 12 12 12 12 0 0 0 12-12 12 12 0 0 0-12-12" filter="url(#b)" opacity=".2"/><path fill="#fff" d="M308-140a12 12 0 0 0-12 12 12 12 0 0 0 12 12 12 12 0 0 0 12-12 12 12 0 0 0-12-12m312 0a12 12 0 0 0-12 12 12 12 0 0 0 12 12 12 12 0 0 0 12-12 12 12 0 0 0-12-12M308 172a12 12 0 0 0-12 12 12 12 0 0 0 12 12 12 12 0 0 0 12-12 12 12 0 0 0-12-12m312 0a12 12 0 0 0-12 12 12 12 0 0 0 12 12 12 12 0 0 0 12-12 12 12 0 0 0-12-12"/><circle cx="-32" cy="-464" r="176" enable-background="new" filter="url(#c)" opacity=".2" transform="scale(1 -1)rotate(90)"/><circle cx="-28" cy="-464" r="176" fill="#3f3f3f" enable-background="new" transform="scale(1 -1)rotate(90)"/><circle cx="28" cy="-464" r="152" fill="#fec006" enable-background="new" transform="rotate(90)"/><circle cx="-32" cy="-464" r="72" enable-background="new" filter="url(#e)" opacity=".2" transform="matrix(0 -1 -1 0 0 2)"/><circle cx="-28" cy="-464" r="72" fill="#3f3f3f" enable-background="new" transform="scale(1 -1)rotate(90)"/><g fill="#fff"><circle cx="-4" cy="-464" r="48" enable-background="new" opacity=".2" transform="scale(1 -1)rotate(90)"/><path d="M464-204c-48.501 0-93.427 14.745-130.58 40h-29.422c-17.728 0-32 14.272-32 32v2c0-17.728 14.272-32 32-32h29.422c37.151-25.255 82.077-40 130.58-40s93.427 14.745 130.58 40h29.422c17.728 0 32 14.272 32 32v-2c0-17.728-14.272-32-32-32H594.58c-37.151-25.255-82.077-40-130.58-40M272-102.58C246.745-65.429 232-20.503 232 28c0 .334.008.666.01 1 .201-48.118 14.909-92.683 39.99-129.58zm384 0v2C681.081-63.684 695.789-19.12 695.99 29c.001-.334.01-.666.01-1 0-48.501-14.745-93.427-40-130.58" opacity=".2"/><path d="M464-148A176 176 0 0 0 288 28l.041.836a176 176 0 0 1 175.96-174.84 176 176 0 0 1 175.47 165.5l.053 1.04a176 176 0 0 1 .431 8.64l.041-1.176a176 176 0 0 0-176-176z" enable-background="new" opacity=".2"/></g><path d="M312.08 30.342a152 152 0 0 1-.082-2.342 152 152 0 0 1 152-152 152 152 0 0 1 152 152 152 152 0 0 1-.082 1.658 152 152 0 0 0-151.92-149.66 152 152 0 0 0-151.92 150.34z" enable-background="new" opacity=".2"/></g></svg>