<svg xmlns="http://www.w3.org/2000/svg" width="512" height="512" enable-background="new" version="1.0"><defs><filter id="a" width="1.048" height="1.048" x="-.024" y="-.024" color-interpolation-filters="sRGB"><feGaussianBlur stdDeviation="4.8"/></filter></defs><g transform="translate(-208 228)"><circle cx="464" cy="32" r="240" enable-background="new" filter="url(#a)" opacity=".1"/><circle cx="464" cy="32" r="240" enable-background="new" filter="url(#a)" opacity=".2"/><circle cx="464" cy="28" r="240" fill="#ececec" enable-background="new"/><path fill="#4caf50" d="M379.37-100c-6.278-.003-11.369 5.097-11.365 11.387v233.21c-.002 8.652 9.25 14.142 16.821 9.983l213.36-116.61c7.872-4.319 7.872-15.647 0-19.966l-192.04-104.95L384.817-98.6a11.34 11.34 0 0 0-5.455-1.405z" color="#000" enable-background="accumulate" style="isolation:auto;mix-blend-mode:normal;text-decoration-color:#000;text-decoration-line:none;text-decoration-style:solid;text-indent:0;text-transform:none;white-space:normal"/><path fill="#fff" d="M464-212A240 240 0 0 0 224 28l.041 1.172A240 240 0 0 1 464-210 240 240 0 0 1 703.959 28.828L704 28a240 240 0 0 0-240-240" enable-background="new" opacity=".2"/><path d="M379.37-100c-6.278-.003-11.369 5.096-11.365 11.387v2c-.003-6.29 5.087-11.39 11.365-11.387 1.907.002 3.783.485 5.455 1.404l21.33 11.652 192.04 104.95c3.6 1.975 5.533 5.418 5.84 8.985.365-4.232-1.568-8.64-5.84-10.984l-192.04-104.95-21.33-11.652A11.34 11.34 0 0 0 379.37-100z" color="#000" enable-background="accumulate" opacity=".2" style="isolation:auto;mix-blend-mode:normal;text-decoration-color:#000;text-decoration-line:none;text-decoration-style:solid;text-indent:0;text-transform:none;white-space:normal"/><path fill="#fff" d="M379.37 157.99c-6.278.003-11.369-5.096-11.365-11.387v-2c-.003 6.29 5.087 11.39 11.365 11.387a11.34 11.34 0 0 0 5.455-1.404l21.33-11.652 192.04-104.95c3.6-1.975 5.533-5.418 5.84-8.985.365 4.233-1.568 8.64-5.84 10.984l-192.04 104.95-21.33 11.652a11.34 11.34 0 0 1-5.455 1.405z" color="#000" enable-background="accumulate" opacity=".5" style="isolation:auto;mix-blend-mode:normal;text-decoration-color:#000;text-decoration-line:none;text-decoration-style:solid;text-indent:0;text-transform:none;white-space:normal"/></g></svg>