<svg xmlns="http://www.w3.org/2000/svg" width="512" height="512" enable-background="new" version="1.0"><defs><linearGradient id="c" x1="148" x2="154" y1="262" y2="255" gradientTransform="translate(-1327.4 -2882.6)scale(11.194)" gradientUnits="userSpaceOnUse"><stop offset="0"/><stop offset="1" stop-opacity="0"/></linearGradient><linearGradient id="f" x1="163" x2="177" y1="251" y2="256" gradientTransform="translate(-1327.4 -2882.6)scale(11.194)" gradientUnits="userSpaceOnUse"><stop offset="0"/><stop offset="1" stop-opacity="0"/></linearGradient><linearGradient id="h" x1="168" x2="160" y1="266" y2="270" gradientTransform="translate(-1327.4 -2882.6)scale(11.194)" gradientUnits="userSpaceOnUse"><stop offset="0"/><stop offset="1" stop-opacity="0"/></linearGradient><filter id="g" width="1.12" height="1.12" x="-.06" y="-.06" color-interpolation-filters="sRGB"><feGaussianBlur stdDeviation="5.2"/></filter><filter id="b" width="1.048" height="1.048" x="-.024" y="-.024" color-interpolation-filters="sRGB"><feGaussianBlur stdDeviation="4.48"/></filter><filter id="a" width="1.048" height="1.048" x="-.024" y="-.024" color-interpolation-filters="sRGB"><feGaussianBlur stdDeviation="4.48"/></filter></defs><g transform="translate(-208 228)"><rect width="448" height="448" x="-256" y="-688" enable-background="new" filter="url(#a)" opacity=".2" rx="224" ry="224" transform="scale(1 -1)rotate(90)"/><rect width="448" height="448" x="-256" y="-688" stroke="#000" stroke-width="8" enable-background="new" filter="url(#b)" opacity=".1" rx="224" ry="224" transform="scale(1 -1)rotate(90)"/><path fill="#dd4d3e" d="M463.67-196c-78.543 0-147.22 40.231-187.15 101.1-2.838 119.84 58.989 125.75 98.649 170.71-7.737-14.278-12.244-30.483-12.244-47.925 0-55.814 45.28-72.153 100.75-78.359l200.1-22.388c-36.734-73.203-112.32-123.14-200.1-123.14z"/><path fill="#109f5b" d="M270.01 140.47C309.281 208.49 378.46 247.85 451.14 252c79.459-46.402 85.495-109.38 98.516-170.79-8.496 13.839-20.277 25.845-35.383 34.566-48.337 27.907-109.72 11.46-137.62-36.876L276.603-94.39c-45.029 68.414-50.481 158.84-6.59 234.86z"/><path fill="#ffce41" d="M658.18 139.86c39.271-68.02 38.768-147.61 6.024-212.63l-2.201-3.235h-194.96c16.233.438 32.52 7.953 47.626 16.674 48.337 27.907 64.783 89.287 36.876 137.62l-100.05 173.29c81.762 4.79 162.8-35.7 206.69-111.72z"/><path fill="url(#c)" d="m376.42 78.258 87.25-50.374-187.43-123.34z" opacity=".2"/><path fill="url(#f)" d="m465.17-76-1.5 103.88L662-76z" opacity=".1"/><rect width="208" height="208" x="-134" y="-560" filter="url(#g)" opacity=".2" rx="104" ry="104" transform="matrix(0 -1 -1 0 8 4)"/><path fill="url(#h)" d="m550.92 78.258-87.25-50.374-13.101 223.99z" opacity=".2"/><rect width="208" height="208" x="-132" y="-568" fill="#fff" rx="104" ry="104" transform="scale(1 -1)rotate(90)"/><path fill="#fff" d="M464-196c-124.1 0-224 99.904-224 224 0 .23.009.457.016.686.704-123.48 100.33-222.69 223.98-222.69 123.67 0 223.3 99.223 223.98 222.73.006-.242.015-.484.015-.727 0-124.1-99.904-224-224-224z" opacity=".4"/><rect width="176" height="176" x="-116" y="-552" fill="#4587f3" rx="88" ry="88" transform="scale(1 -1)rotate(90)"/><path d="M464 252c124.1 0 224-99.904 224-224 0-.23-.009-.457-.016-.686-.704 123.48-100.33 222.69-223.98 222.69-123.67 0-223.3-99.223-223.98-222.73-.006.242-.015.484-.015.727 0 124.1 99.904 224 224 224z" opacity=".1"/></g></svg>