<svg xmlns="http://www.w3.org/2000/svg" width="512" height="512" enable-background="new" version="1.0"><defs><filter id="a" width="1.048" height="1.048" x="-.024" y="-.024" color-interpolation-filters="sRGB"><feGaussianBlur stdDeviation="4.8"/></filter><filter id="c" width="1.048" height="1.048" x="-.024" y="-.024" color-interpolation-filters="sRGB"><feGaussianBlur stdDeviation="4.8"/></filter></defs><circle cx="256" cy="260" r="240" filter="url(#a)" opacity=".2"/><circle cx="256" cy="258" r="240" opacity=".2"/><circle cx="256" cy="260" r="240" stroke="#000" stroke-width="8" filter="url(#c)" opacity=".1"/><path fill="#fff" d="M256 16A240 240 0 0 0 16 256l.041 1.172A240 240 0 0 1 256 18a240 240 0 0 1 239.959 238.828L496 256A240 240 0 0 0 256 16" opacity=".2"/><g stroke-width=".928"><path fill="#eddf36" d="M7.412 1.674a6.88 6.88 0 0 0-5.727 5.691c.564-.604 5.037-5.05 5.727-5.691m3.08.219.02.007zm-2.616.137c-.007-.007-.054.018-.105.056-.157.116-1.567 1.366-2.023 1.794-.237.222-.556.513-.71.646s-.498.436-.764.673c-.266.236-.541.479-.612.538-.145.12-.638.557-.846.75-.075.069-.187.165-.247.213s-.206.175-.324.282c-.222.201-.435.372-.576.487a7 7 0 0 0-.082.998 6.9 6.9 0 0 0 .507 2.58c.087-.145.213-.339.362-.569L3.72 8.52l1.26-1.952 2.51-3.89c.313-.483.401-.632.386-.647zm3.613.267c-.04.072-.1.151-.168.294-1.895 3.961-3.09 8.228-3.286 11.738-.018.321-.043.716-.054.876l-.004.116a7 7 0 0 0 .49.025 6.88 6.88 0 0 0 6.879-6.88 6.88 6.88 0 0 0-3.857-6.17zm-9.172 9.248.073.137q-.037-.068-.073-.137m.31.548.093.15zm.438.632.071.085q-.036-.043-.071-.085m.404.463.13.135zm.517.494.06.055zm.528.41.159.108-.16-.108zm.586.37.09.052q-.045-.025-.09-.052m.638.316.133.055q-.067-.026-.133-.055m.62.233.113.037q-.056-.018-.112-.037zm.71.19.113.02q-.056-.01-.112-.02zm.636.099.13.014z" style="paint-order:markers stroke fill" transform="matrix(34.886 0 0 34.869 -39.364 -39.092)"/><path fill="#c63166" d="M256.016 16.001A241.411 241.293 0 0 0 219.49 19C195.837 40.967 38.153 197.599 19.035 218.102a234.783 234.668 0 0 0-.523 3.556c4.919-4.01 12.559-10.146 20.443-17.295 4.117-3.73 9.21-8.159 11.303-9.833s6-5.02 8.617-7.427c7.256-6.73 24.455-21.967 29.514-26.152 2.442-2.092 12.07-10.53 21.35-18.76 9.28-8.263 21.28-18.828 26.653-23.466 5.372-4.672 16.5-14.784 24.769-22.525 15.908-14.924 65.097-58.51 70.54-62.555 1.778-1.29 3.453-2.197 3.697-1.953.523.523-2.547 5.719-13.5 22.595a61538.904 61508.916 0 0 0-87.53 135.606l-43.956 68.064L46.316 326.3c-5.233 8.055-9.663 14.89-12.733 19.91a240.12 240.003 0 0 0 205.304 149.24l.174-4.359c.384-5.579 1.256-19.352 1.884-30.545 6.873-122.39 48.561-271.176 114.635-409.292 2.442-5.126 4.57-7.916 6-10.496a240.33 240.213 0 0 0-105.564-24.757"/><path fill="#d8d342" d="M241.12 17.152a240.016 239.864 0 0 0-15.35 1.29 240.016 239.864 0 0 1 15.35-1.29M19.418 217.997l-.07.105a240.016 239.864 0 0 0-.558 3.487 240.016 239.864 0 0 1 .628-3.592"/></g></svg>