<svg width="512" height="512" enable-background="new" version="1.0" xmlns="http://www.w3.org/2000/svg" xmlns:xlink="http://www.w3.org/1999/xlink">
 <defs>
  <filter id="a" x="-.022286" y="-.026" width="1.0446" height="1.052" color-interpolation-filters="sRGB">
   <feGaussianBlur stdDeviation="4.1600014"/>
  </filter>
  <filter id="b" x="-.06" y="-.06" width="1.12" height="1.12" color-interpolation-filters="sRGB">
   <feGaussianBlur stdDeviation="3.2"/>
  </filter>
 </defs>
 <g transform="translate(0,212)">
  <g transform="translate(-208,16)">
   <path d="m264-160c-13.296 0-24 10.704-24 24v336s0.1248 1.4926 0.5 3.75c0.1384 0.85992 0.2736 1.6737 0.5 2.5 1.7778 7.1323 7 17.814 23 17.75h400c8.294 0 15.47-4.3633 19.75-10.75 2.7284-3.7053 4.25-8.2701 4.25-13.25v-336c0-13.296-10.704-24-24-24z" filter="url(#a)" opacity=".1" stroke="#000" stroke-width="8"/>
   <path d="m264-160c-13.296 0-24 10.704-24 24v336s0.1248 1.4926 0.5 3.75c0.1384 0.85992 0.2736 1.6737 0.5 2.5 1.7778 7.1323 7 17.814 23 17.75h400c8.294 0 15.47-4.3633 19.75-10.75 2.7284-3.7053 4.25-8.2701 4.25-13.25v-336c0-13.296-10.704-24-24-24z" filter="url(#a)" opacity=".2"/>
   <path d="m264-164c-13.296 0-24 10.704-24 24v264h448v-264c0-13.296-10.704-24-24-24z" fill="#ba94f5"/>
   <path d="m264-164c-13.296 0-24 10.704-24 24v2c0-13.296 10.704-24 24-24h400c13.296 0 24 10.704 24 24v-2c0-13.296-10.704-24-24-24z" fill="#fff" opacity=".2"/>
   <path d="m560-68c35.346 0 64 28.654 64 64s-28.654 64-64 64-64-28.654-64-64 28.654-64 64-64z" color="#000000" enable-background="new" fill-rule="evenodd" filter="url(#b)" opacity=".2"/>
   <path d="m560-76c35.346 0 64 28.654 64 64s-28.654 64-64 64-64-28.654-64-64 28.654-64 64-64z" color="#000000" enable-background="new" fill="#fef8e2" fill-rule="evenodd"/>
   <path d="m240 124v72s-1.8e-4 23.976 24 24l401.6 0.4c12.41 0.0124 22.4-9.9904 22.4-22.4v-74z" fill="#8c91f3"/>
   <path d="m240 124v-12.8s32.306-21.332 41.389-23.194c9.0829-1.8612 19.809-0.3464 30.833 1.7343 11.024 2.0737 27.482 4.8782 32.618 5.0534 5.1366 0.1792 14.432-0.448 25.232-1.101 10.8-0.6392 28.682-1.2289 34.26-1.1648 5.5776 0 19.502 0.768 34.344 1.6742 14.843 0.90832 35.229 2.427 39.855 2.8518 4.6255 0.4224 10.063 1.2033 16.233 2.0545 6.1701 0.84448 16.852 2.1209 20.631 2.4717 3.7787 0.3448 12.54 1.5501 22.705 2.4858 10.165 0.93408 26.432 1.2544 31.13 0.90832 4.6977-0.3464 14.544-3.8246 25.518-7.031 10.973-3.2051 23.073-6.1402 32.277-5.4144 9.2036 0.7288 60.977 18.669 60.977 18.669v12.802z" opacity=".8"/>
   <path d="m240 123.16v12.8s32.306 21.332 41.389 23.194c9.0829 1.8612 19.809 0.3464 30.833-1.7343 11.024-2.0737 27.482-4.8782 32.618-5.0534 5.1366-0.1792 14.432 0.448 25.232 1.101 10.8 0.6392 28.682 1.2289 34.26 1.1648 5.5776 0 19.502-0.768 34.344-1.6742 14.843-0.90832 35.229-2.427 39.855-2.8518 4.6255-0.4224 10.063-1.2033 16.233-2.0545 6.1701-0.84448 16.852-2.1209 20.631-2.4717 3.7787-0.3448 12.54-1.5501 22.705-2.4858 10.165-0.93408 26.432-1.2544 31.13-0.90832 4.6977 0.3464 14.544 3.8246 25.518 7.031 10.973 3.2051 23.073 6.1402 32.277 5.4144 9.2036-0.7288 60.977-18.669 60.977-18.669v-12.802z" opacity=".1"/>
  </g>
 </g>
</svg>
