<svg width="512" height="512" enable-background="new" version="1.0" xmlns="http://www.w3.org/2000/svg">
 <defs>
  <filter id="a" x="-.024" y="-.024" width="1.048" height="1.048" color-interpolation-filters="sRGB">
   <feGaussianBlur stdDeviation="4.48"/>
  </filter>
 </defs>
 <rect transform="matrix(0,-1,-1,0,-208,232)" x="-254" y="-688" width="448" height="448" rx="24" ry="24" filter="url(#a)" opacity=".1" stroke="#000" stroke-width="8"/>
 <rect transform="matrix(0,-1,-1,0,-208,232)" x="-254" y="-688" width="448" height="448" rx="24" ry="24" filter="url(#a)" opacity=".2"/>
 <rect transform="matrix(0,-1,-1,0,0,0)" x="-480" y="-480" width="448" height="448" rx="24" ry="24" fill="#ebebeb"/>
 <path d="m88 161v7c0 7.202 5.798 13 13 13h310c7.202 0 13-5.798 13-13v-7c0 6.648-5.352 12-12 12h-312c-6.648 0-12-5.352-12-12z" fill="#fff" opacity=".35" stroke-width=".98742"/>
 <path d="m100 324h312c6.648 0 12 5.352 12 12v72c0 6.648-5.352 12-12 12h-312c-6.648 0-12-5.352-12-12v-72c0-6.648 5.352-12 12-12z" fill="#028ccc" stroke-width=".94868"/>
 <path d="m56 32c-13.296 0-24 10.704-24 24v2c0-13.296 10.704-24 24-24h400c13.296 0 24 10.704 24 24v-2c0-13.296-10.704-24-24-24z" fill="#fff" opacity=".4"/>
 <path d="m56 480c-13.296 0-24-10.704-24-24v-2c0 13.296 10.704 24 24 24h400c13.296 0 24-10.704 24-24v2c0 13.296-10.704 24-24 24z" opacity=".1"/>
 <g stroke-width=".94868">
  <path d="m100 200h312c6.648 0 12 5.352 12 12v72c0 6.648-5.352 12-12 12h-312c-6.648 0-12-5.352-12-12v-72c0-6.648 5.352-12 12-12z" opacity=".15"/>
  <path d="m100 77h312c6.648 0 12 5.352 12 12v72c0 6.648-5.352 12-12 12h-312c-6.648 0-12-5.352-12-12v-72c0-6.648 5.352-12 12-12z" opacity=".15"/>
  <path d="m100 77c-6.648 0-12 5.352-12 12v7c0-6.094 4.906-11 11-11h314c6.094 0 11 4.906 11 11v-7c0-6.648-5.352-12-12-12h-312z" opacity=".15"/>
 </g>
 <path d="m88 284v7c0 7.202 5.798 13 13 13h310c7.202 0 13-5.798 13-13v-7c0 6.648-5.352 12-12 12h-312c-6.648 0-12-5.352-12-12z" fill="#fff" opacity=".35" stroke-width=".98742"/>
 <path d="m100 200c-6.648 0-12 5.352-12 12v7c0-6.094 4.906-11 11-11h314c6.094 0 11 4.906 11 11v-7c0-6.648-5.352-12-12-12z" opacity=".15" stroke-width=".94868"/>
 <path d="m88 408v7c0 7.202 5.798 13 13 13h310c7.202 0 13-5.798 13-13v-7c0 6.648-5.352 12-12 12h-312c-6.648 0-12-5.352-12-12z" opacity=".15" stroke-width=".98742"/>
 <path d="m100 324c-6.648 0-12 5.352-12 12v7c0-6.094 4.906-11 11-11h314c6.094 0 11 4.906 11 11v-7c0-6.648-5.352-12-12-12z" fill="#fff" opacity=".15" stroke-width=".94868"/>
 <g fill="#808080">
  <rect x="346" y="247" width="48" height="8" ry=".46111" style="paint-order:normal"/>
  <path d="m286.46 227c-0.25545 0-0.46094 0.20549-0.46094 0.46094v19.539h-19.539c-0.25545 0-0.46094 0.20549-0.46094 0.46094v7.0781c0 0.25545 0.20549 0.46094 0.46094 0.46094h19.539v19.539c0 0.25545 0.20549 0.46094 0.46094 0.46094h7.0781c0.25545 0 0.46094-0.20549 0.46094-0.46094v-19.539h19.539c0.25545 0 0.46094-0.20549 0.46094-0.46094v-7.0781c0-0.25545-0.20549-0.46094-0.46094-0.46094h-19.539v-19.539c0-0.25545-0.20549-0.46094-0.46094-0.46094z" style="paint-order:normal"/>
  <path d="m346.71 113.91c-0.11786 0-0.2339 0.0444-0.32422 0.13477l-5.0058 5.0059c-0.18064 0.18063-0.18064 0.47171 0 0.65234l22.627 22.627 5.0059 5.0039c0.18063 0.18063 0.47171 0.18063 0.65234 0l27.631-27.631c0.18063-0.18063 0.18063-0.47171 0-0.65234l-5.0039-5.0059c-0.18064-0.18064-0.47172-0.18064-0.65235 0l-22.301 22.303-22.303-22.303c-0.0903-0.0903-0.20831-0.13477-0.32618-0.13477z" style="paint-order:normal"/>
 </g>
</svg>
