<svg xmlns="http://www.w3.org/2000/svg" width="512" height="512" enable-background="new" version="1.0"><defs><filter id="a" width="1.048" height="1.048" x="-.024" y="-.024" color-interpolation-filters="sRGB"><feGaussianBlur stdDeviation="4.48"/></filter></defs><rect width="448" height="448" x="-254" y="-688" stroke="#000" stroke-width="8" filter="url(#a)" opacity=".1" rx="24" ry="24" transform="matrix(0 -1 -1 0 -208 232)"/><rect width="448" height="448" x="-254" y="-688" filter="url(#a)" opacity=".2" rx="24" ry="24" transform="matrix(0 -1 -1 0 -208 232)"/><rect width="448" height="448" x="-480" y="-480" fill="#ebebeb" rx="24" ry="24" transform="scale(1 -1)rotate(90)"/><path fill="#fff" d="M88 161v7c0 7.202 5.798 13 13 13h310c7.202 0 13-5.798 13-13v-7c0 6.648-5.352 12-12 12H100c-6.648 0-12-5.352-12-12" opacity=".35"/><path fill="#028ccc" d="M100 324h312c6.648 0 12 5.352 12 12v72c0 6.648-5.352 12-12 12H100c-6.648 0-12-5.352-12-12v-72c0-6.648 5.352-12 12-12"/><path fill="#fff" d="M56 32c-13.296 0-24 10.704-24 24v2c0-13.296 10.704-24 24-24h400c13.296 0 24 10.704 24 24v-2c0-13.296-10.704-24-24-24z" opacity=".4"/><path d="M56 480c-13.296 0-24-10.704-24-24v-2c0 13.296 10.704 24 24 24h400c13.296 0 24-10.704 24-24v2c0 13.296-10.704 24-24 24z" opacity=".1"/><g stroke-width=".949"><path d="M100 200h312c6.648 0 12 5.352 12 12v72c0 6.648-5.352 12-12 12H100c-6.648 0-12-5.352-12-12v-72c0-6.648 5.352-12 12-12M100 77h312c6.648 0 12 5.352 12 12v72c0 6.648-5.352 12-12 12H100c-6.648 0-12-5.352-12-12V89c0-6.648 5.352-12 12-12" opacity=".15"/><path d="M100 77c-6.648 0-12 5.352-12 12v7c0-6.094 4.906-11 11-11h314c6.094 0 11 4.906 11 11v-7c0-6.648-5.352-12-12-12z" opacity=".15"/></g><path fill="#fff" d="M88 284v7c0 7.202 5.798 13 13 13h310c7.202 0 13-5.798 13-13v-7c0 6.648-5.352 12-12 12H100c-6.648 0-12-5.352-12-12" opacity=".35"/><path d="M100 200c-6.648 0-12 5.352-12 12v7c0-6.094 4.906-11 11-11h314c6.094 0 11 4.906 11 11v-7c0-6.648-5.352-12-12-12zM88 408v7c0 7.202 5.798 13 13 13h310c7.202 0 13-5.798 13-13v-7c0 6.648-5.352 12-12 12H100c-6.648 0-12-5.352-12-12" opacity=".15"/><path fill="#fff" d="M100 324c-6.648 0-12 5.352-12 12v7c0-6.094 4.906-11 11-11h314c6.094 0 11 4.906 11 11v-7c0-6.648-5.352-12-12-12z" opacity=".15"/><g fill="gray"><rect width="48" height="8" x="346" y="247" ry=".461" style="paint-order:normal"/><path d="M286.46 227a.46.46 0 0 0-.46.46V247h-19.54a.46.46 0 0 0-.46.46v7.079c0 .255.205.46.46.46H286v19.54c0 .255.205.46.46.46h7.078a.46.46 0 0 0 .461-.46v-19.54h19.539a.46.46 0 0 0 .461-.46v-7.078a.46.46 0 0 0-.461-.461h-19.539v-19.54a.46.46 0 0 0-.46-.46zM346.71 113.91a.46.46 0 0 0-.324.135l-5.006 5.006a.46.46 0 0 0 0 .652l22.627 22.627 5.006 5.004c.18.18.472.18.652 0l27.631-27.631a.46.46 0 0 0 0-.652l-5.004-5.006a.46.46 0 0 0-.652 0l-22.301 22.303-22.303-22.303a.46.46 0 0 0-.326-.135z" style="paint-order:normal"/></g></svg>