<svg width="512" height="512" enable-background="new" version="1.0" xmlns="http://www.w3.org/2000/svg" xmlns:xlink="http://www.w3.org/1999/xlink">
 <defs>
  <filter id="a" x="-.024" y="-.024" width="1.048" height="1.048" color-interpolation-filters="sRGB">
   <feGaussianBlur stdDeviation="4.48"/>
  </filter>
  <linearGradient id="b" x1="344" x2="340" y1="76" y2="72" gradientTransform="matrix(.25 0 0 .25 180 83)" gradientUnits="userSpaceOnUse">
   <stop stop-color="#d5d3cf" offset="0"/>
   <stop stop-color="#fff" offset="1"/>
  </linearGradient>
  <clipPath id="c">
   <path d="m252 116 28-28v-8h-36v36z" fill="#e74747"/>
  </clipPath>
 </defs>
 <rect transform="matrix(0,-1,-1,0,-208,228)" x="-256" y="-688" width="448" height="448" rx="24" ry="24" filter="url(#a)" opacity=".1" stroke="#000" stroke-width="8"/>
 <rect transform="matrix(0,-1,-1,0,-208,228)" x="-256" y="-688" width="448" height="448" rx="29.369" ry="27.835" filter="url(#a)" opacity=".2"/>
 <path d="m56.549 32c-13.279 0-23.969 10.704-23.969 24v2c0-13.296 10.69-24 23.969-24h399.48c13.279 0 23.969 10.704 23.969 24v-2c0-13.296-10.69-24-23.969-24z" fill="#fff" opacity=".1" stroke-width=".99935"/>
 <g>
  <rect transform="scale(-1)" x="-480" y="-480" width="448" height="120" rx="34.462" ry="34.787" enable-background="new" fill="#26a269" style="paint-order:normal"/>
  <rect transform="scale(-1)" x="-480" y="-472.14" width="448" height="157" rx="34.462" ry="34.419" enable-background="new" fill="#d5d3cf" style="paint-order:normal"/>
  <rect transform="scale(-1)" x="-480" y="-456.42" width="448" height="424" rx="34.462" ry="34.427" enable-background="new" fill="#f6f5f4" style="paint-order:normal"/>
 </g>
 <g transform="matrix(4.4132 0 0 4.1993 -19.625 -760.62)" enable-background="new" fill="#241f31" fill-opacity=".14118" aria-label="A">
  <path d="m44.674 273.14h-10.92l-1.96 5.88h-6.12l-0.0033-2.0516 10.363-27.108h6.64l10.114 27.108-0.03423 2.0516h-6.16zm-1.64-5-3.8-11.4-3.8 11.4z" fill="#241f31" fill-opacity=".14118" stroke-width="1.1045"/>
 </g>
 <text transform="scale(.97138 1.0295)" x="353.17542" y="251.54778" enable-background="new" fill="#241f31" fill-opacity=".14118" font-family="FreeSans" font-size="218.11px" font-weight="bold" stroke-width="4.7549" text-align="center" text-anchor="middle" style="line-height:0%" xml:space="preserve"><tspan x="353.17542" y="251.54778" fill="#241f31" fill-opacity=".14118" font-size="172.2px" stroke-width="4.7549">𝛀</tspan></text>
 <g>
  <text transform="scale(1.0252 .97546)" x="149.69328" y="412.58475" enable-background="new" fill="#5e5c64" font-family="FreeSans" font-size="172.2px" font-weight="bold" stroke-width="4.7549" text-align="center" text-anchor="middle" style="line-height:0%" xml:space="preserve"><tspan x="149.69328" y="412.58475" fill="#5e5c64" font-size="172.2px" stroke-width="4.7549">A</tspan></text>
  <text transform="scale(.97138 1.0295)" x="353.17542" y="243.17897" enable-background="new" fill="#5e5c64" font-family="FreeSans" font-size="218.11px" font-weight="bold" stroke-width="4.7549" text-align="center" text-anchor="middle" style="line-height:0%" xml:space="preserve"><tspan x="353.17542" y="243.17897" fill="#5e5c64" font-size="172.2px" stroke-width="4.7549">𝛀</tspan></text>
  <rect transform="matrix(0 3.0769 3.0729 0 124.51 -403.98)" x="252" y="88" width="36" height="36" rx="11.2" ry="11.2" clip-path="url(#c)" enable-background="new" fill="url(#b)" style="paint-order:normal"/>
 </g>
 <g fill="#d5d3cf">
  <path d="m66.417 57.846c-4.752 0-8.6042 3.8572-8.6042 8.6154s3.8522 8.6154 8.6042 8.6154 8.6042-3.8572 8.6042-8.6154-3.8522-8.6154-8.6042-8.6154zm34.417 0c-4.752 0-8.6042 3.8572-8.6042 8.6154s3.8522 8.6154 8.6042 8.6154c4.752 0 8.6042-3.8572 8.6042-8.6154s-3.8522-8.6154-8.6042-8.6154zm34.417 0c-4.752 0-8.6042 3.8572-8.6042 8.6154s3.8522 8.6154 8.6042 8.6154c4.752 0 8.6042-3.8572 8.6042-8.6154s-3.8522-8.6154-8.6042-8.6154zm34.417 0c-4.752 0-8.6042 3.8572-8.6042 8.6154s3.8522 8.6154 8.6042 8.6154c4.752 0 8.6042-3.8572 8.6042-8.6154s-3.8522-8.6154-8.6042-8.6154zm34.417 0c-4.752 0-8.6042 3.8572-8.6042 8.6154s3.8522 8.6154 8.6042 8.6154 8.6042-3.8572 8.6042-8.6154-3.8522-8.6154-8.6042-8.6154zm34.417 0c-4.752 0-8.6042 3.8572-8.6042 8.6154s3.8522 8.6154 8.6042 8.6154 8.6042-3.8572 8.6042-8.6154-3.8522-8.6154-8.6042-8.6154zm34.417 0c-4.752 0-8.6042 3.8572-8.6042 8.6154s3.8522 8.6154 8.6042 8.6154c4.752 0 8.6042-3.8572 8.6042-8.6154s-3.8522-8.6154-8.6042-8.6154zm34.417 0c-4.752 0-8.6042 3.8572-8.6042 8.6154s3.8522 8.6154 8.6042 8.6154c4.752 0 8.6042-3.8572 8.6042-8.6154s-3.8522-8.6154-8.6042-8.6154zm34.417 0c-4.752 0-8.6042 3.8572-8.6042 8.6154s3.8522 8.6154 8.6042 8.6154c4.752 0 8.6042-3.8572 8.6042-8.6154s-3.8522-8.6154-8.6042-8.6154z" enable-background="new"/>
  <path d="m32 57.846a8.6042 8.6154 0 0 1 8.6042 8.6154 8.6042 8.6154 0 0 1-8.6042 8.6154v-8.6154z" enable-background="new"/>
  <path d="m479.42 57.846a8.6042 8.6154 0 0 0-8.6042 8.6154 8.6042 8.6154 0 0 0 8.6042 8.6154v-8.6154z" enable-background="new"/>
  <path d="m169.67 57.846c-4.752 0-8.6042 3.8572-8.6042 8.6154s3.8522 8.6154 8.6042 8.6154c4.752 0 8.6042-3.8572 8.6042-8.6154s-3.8522-8.6154-8.6042-8.6154zm34.417 0c-4.752 0-8.6042 3.8572-8.6042 8.6154s3.8522 8.6154 8.6042 8.6154 8.6042-3.8572 8.6042-8.6154-3.8522-8.6154-8.6042-8.6154zm34.417 0c-4.752 0-8.6042 3.8572-8.6042 8.6154s3.8522 8.6154 8.6042 8.6154 8.6042-3.8572 8.6042-8.6154-3.8522-8.6154-8.6042-8.6154zm34.417 0c-4.752 0-8.6042 3.8572-8.6042 8.6154s3.8522 8.6154 8.6042 8.6154c4.752 0 8.6042-3.8572 8.6042-8.6154s-3.8522-8.6154-8.6042-8.6154zm34.417 0c-4.752 0-8.6042 3.8572-8.6042 8.6154s3.8522 8.6154 8.6042 8.6154c4.752 0 8.6042-3.8572 8.6042-8.6154s-3.8522-8.6154-8.6042-8.6154zm34.417 0c-4.752 0-8.6042 3.8572-8.6042 8.6154s3.8522 8.6154 8.6042 8.6154c4.752 0 8.6042-3.8572 8.6042-8.6154s-3.8522-8.6154-8.6042-8.6154zm34.417 0c-4.752 0-8.6042 3.8572-8.6042 8.6154s3.8522 8.6154 8.6042 8.6154 8.6042-3.8572 8.6042-8.6154-3.8522-8.6154-8.6042-8.6154zm34.417 0c-4.752 0-8.6042 3.8572-8.6042 8.6154s3.8522 8.6154 8.6042 8.6154c4.752 0 8.6042-3.8572 8.6042-8.6154s-3.8522-8.6154-8.6042-8.6154zm34.417 0c-4.752 0-8.6042 3.8572-8.6042 8.6154s3.8522 8.6154 8.6042 8.6154c4.752 0 8.6042-3.8572 8.6042-8.6154s-3.8522-8.6154-8.6042-8.6154z" enable-background="new"/>
 </g>
 <path d="m206.55 183.62 6.8034 20.818 47.418-52.314v-12.652l-68.92-21.904 0.21993 12.087 3.8029 19.824c-60.336 30.442-84.45 79.644-84.45 81.891v12.652l38.302 6.3278c8.6638-36.674 29.948-55.219 56.823-66.73z" enable-background="new" fill="#424040" fill-opacity=".14118"/>
 <path d="m206.55 170.96 6.8034 20.818 47.418-52.314-68.92-21.904 4.0228 19.259c-67.994 34.305-75.09 64.345-84.45 94.543l36.718 6.5041c8.6638-36.674 31.532-55.395 58.407-66.906z" enable-background="new" fill="#33d17a"/>
 <path d="m292.9 356.29-6.8034-20.818-51.24 40.311 0.0327 12.003 69.146 23.688-0.37437-14.04-2.2064-6.4926c67.994-34.305 80.38-79.965 82.584-90.83l0.0649-16.249-32.797 5.5228c-8.6638 36.674-31.532 55.395-58.407 66.906z" enable-background="new" fill-opacity=".14191"/>
 <path d="m289.03 344.34-6.8034-20.818-47.418 52.314 68.92 21.904-4.0228-19.259c67.994-34.305 75.09-64.345 84.45-94.543l-36.718-6.5041c-8.6638 36.674-31.532 55.395-58.407 66.906z" enable-background="new" fill="#33d17a"/>
</svg>
