<svg xmlns="http://www.w3.org/2000/svg" width="512" height="512" enable-background="new" version="1.0"><defs><linearGradient id="b" x1="344" x2="340" y1="76" y2="72" gradientTransform="matrix(0 .76922 .76822 0 379.56 149.86)" gradientUnits="userSpaceOnUse"><stop offset="0" stop-color="#d5d3cf"/><stop offset="1" stop-color="#fff"/></linearGradient><filter id="a" width="1.048" height="1.048" x="-.024" y="-.024" color-interpolation-filters="sRGB"><feGaussianBlur stdDeviation="4.48"/></filter></defs><rect width="448" height="448" x="-256" y="-688" stroke="#000" stroke-width="8" filter="url(#a)" opacity=".1" rx="24" ry="24" transform="matrix(0 -1 -1 0 -208 228)"/><rect width="448" height="448" x="-256" y="-688" filter="url(#a)" opacity=".2" rx="29.369" ry="27.835" transform="matrix(0 -1 -1 0 -208 228)"/><path fill="#fff" d="M56.549 32C43.27 32 32.58 42.704 32.58 56v2c0-13.296 10.69-24 23.969-24h399.48c13.279 0 23.969 10.704 23.969 24v-2c0-13.296-10.69-24-23.969-24z" opacity=".1"/><rect width="448" height="120" x="-480" y="-480" fill="#26a269" rx="34.462" ry="34.787" style="paint-order:normal" transform="scale(-1)"/><rect width="448" height="157" x="-480" y="-472.14" fill="#d5d3cf" rx="34.462" ry="34.419" style="paint-order:normal" transform="scale(-1)"/><rect width="448" height="424" x="-480" y="-456.42" fill="#f6f5f4" rx="34.462" ry="34.427" style="paint-order:normal" transform="scale(-1)"/><path fill="#241f31" fill-opacity=".141" d="M177.53 386.377h-48.192l-8.65 24.692H93.68l-.014-8.616 45.734-113.834h29.304l44.635 113.834-.151 8.616H186zm-7.237-20.997-16.77-47.872-16.77 47.872z" aria-label="A"/><text xml:space="preserve" x="353.175" y="251.548" fill="#241f31" fill-opacity=".141" stroke-width="4.755" font-family="FreeSans" font-size="218.11" font-weight="bold" style="line-height:0%" text-anchor="middle" transform="scale(.97138 1.0295)"><tspan x="353.175" y="251.548" font-size="172.2">𝛀</tspan></text><path fill="#5e5c64" stroke-width="4.755" d="M179.461 380.148h-51.893l-8.19 22.31h-33.36L133.688 280h39.567l47.67 122.457h-33.36zm-43.618-22.718H171.1l-17.586-48.72z" aria-label="A"/><path fill="#5e5c64" stroke-width="4.755" d="M370.632 234.427h27.28v-10.82H409.1v26.749h-59.868v-16.707q12.741-2.77 19.276-15.927t6.534-36.184q0-25.537-8.168-38.868-8.167-13.417-23.849-13.417t-23.848 13.417q-8.086 13.331-8.086 39.04 0 22.594 6.615 35.925 6.616 13.245 19.194 16.014v16.707h-59.949v-26.749h11.108v10.82h27.36q-19.356-7.963-29.32-21.814-9.965-13.936-9.965-32.98 0-27.355 18.296-44.062 18.377-16.793 48.597-16.793t48.597 16.793q18.377 16.706 18.377 44.061 0 19.044-9.964 32.981-9.964 13.85-29.403 21.814z" aria-label="𝛀"/><path fill="url(#b)" d="M429.34 371.4c-19.067 0-34.416 15.369-34.416 34.461v41.846c0 3.02.387 5.948 1.11 8.736l83.821-83.932a34.7 34.7 0 0 0-8.724-1.111z" style="paint-order:normal"/><g fill="#d5d3cf"><path d="M66.417 57.846c-4.752 0-8.604 3.857-8.604 8.615s3.852 8.616 8.604 8.616 8.604-3.857 8.604-8.616-3.852-8.615-8.604-8.615m34.417 0c-4.752 0-8.604 3.857-8.604 8.615s3.852 8.616 8.604 8.616 8.604-3.857 8.604-8.616-3.852-8.615-8.604-8.615m34.417 0c-4.752 0-8.604 3.857-8.604 8.615s3.852 8.616 8.604 8.616 8.604-3.857 8.604-8.616-3.852-8.615-8.604-8.615m34.417 0c-4.752 0-8.604 3.857-8.604 8.615s3.852 8.616 8.604 8.616 8.604-3.857 8.604-8.616-3.852-8.615-8.604-8.615m34.417 0c-4.752 0-8.604 3.857-8.604 8.615s3.852 8.616 8.604 8.616 8.604-3.857 8.604-8.616-3.852-8.615-8.604-8.615m34.417 0c-4.752 0-8.604 3.857-8.604 8.615s3.852 8.616 8.604 8.616 8.604-3.857 8.604-8.616-3.852-8.615-8.604-8.615m34.417 0c-4.752 0-8.604 3.857-8.604 8.615s3.852 8.616 8.604 8.616 8.604-3.857 8.604-8.616-3.852-8.615-8.604-8.615m34.417 0c-4.752 0-8.604 3.857-8.604 8.615s3.852 8.616 8.604 8.616 8.604-3.857 8.604-8.616-3.852-8.615-8.604-8.615m34.417 0c-4.752 0-8.604 3.857-8.604 8.615s3.852 8.616 8.604 8.616 8.604-3.857 8.604-8.616-3.852-8.615-8.604-8.615M32 57.846a8.604 8.615 0 0 1 8.604 8.615A8.604 8.615 0 0 1 32 75.077V66.46zM479.42 57.846a8.604 8.615 0 0 0-8.604 8.615 8.604 8.615 0 0 0 8.604 8.616V66.46z" enable-background="new"/><path d="M169.67 57.846c-4.752 0-8.604 3.857-8.604 8.615s3.852 8.616 8.604 8.616 8.604-3.857 8.604-8.616-3.852-8.615-8.604-8.615m34.417 0c-4.752 0-8.604 3.857-8.604 8.615s3.852 8.616 8.604 8.616 8.604-3.857 8.604-8.616-3.852-8.615-8.604-8.615m34.417 0c-4.752 0-8.604 3.857-8.604 8.615s3.852 8.616 8.604 8.616 8.604-3.857 8.604-8.616-3.852-8.615-8.604-8.615m34.417 0c-4.752 0-8.604 3.857-8.604 8.615s3.852 8.616 8.604 8.616 8.604-3.857 8.604-8.616-3.852-8.615-8.604-8.615m34.417 0c-4.752 0-8.604 3.857-8.604 8.615s3.852 8.616 8.604 8.616 8.604-3.857 8.604-8.616-3.852-8.615-8.604-8.615m34.417 0c-4.752 0-8.604 3.857-8.604 8.615s3.852 8.616 8.604 8.616 8.604-3.857 8.604-8.616-3.852-8.615-8.604-8.615m34.417 0c-4.752 0-8.604 3.857-8.604 8.615s3.852 8.616 8.604 8.616 8.604-3.857 8.604-8.616-3.852-8.615-8.604-8.615m34.417 0c-4.752 0-8.604 3.857-8.604 8.615s3.852 8.616 8.604 8.616 8.604-3.857 8.604-8.616-3.852-8.615-8.604-8.615m34.417 0c-4.752 0-8.604 3.857-8.604 8.615s3.852 8.616 8.604 8.616 8.604-3.857 8.604-8.616-3.852-8.615-8.604-8.615" enable-background="new"/></g><path fill="#424040" fill-opacity=".141" d="m206.55 183.62 6.803 20.818 47.418-52.314v-12.652l-68.92-21.904.22 12.087 3.803 19.824c-60.336 30.442-84.45 79.644-84.45 81.891v12.652l38.302 6.328c8.664-36.674 29.948-55.22 56.823-66.73z"/><path fill="#33d17a" d="m206.55 170.96 6.803 20.818 47.418-52.314-68.92-21.904 4.023 19.259c-67.994 34.305-75.09 64.345-84.45 94.543l36.718 6.504c8.664-36.674 31.532-55.395 58.407-66.906z"/><path fill-opacity=".142" d="m292.9 356.29-6.803-20.818-51.24 40.311.032 12.003 69.146 23.688-.374-14.04-2.206-6.493c67.994-34.305 80.38-79.965 82.584-90.83l.064-16.249-32.797 5.523c-8.663 36.674-31.532 55.395-58.407 66.906z"/><path fill="#33d17a" d="m289.03 344.34-6.803-20.818-47.418 52.314 68.92 21.904-4.023-19.259c67.994-34.305 75.09-64.345 84.45-94.543l-36.718-6.504c-8.664 36.674-31.532 55.395-58.407 66.906z"/></svg>