<svg xmlns="http://www.w3.org/2000/svg" width="512" height="512" enable-background="new" version="1.0"><defs><filter id="a" width="1.045" height="1.051" x="-.023" y="-.025" color-interpolation-filters="sRGB"><feGaussianBlur stdDeviation="4.24"/></filter><filter id="b" width="1.043" height="1.054" x="-.021" y="-.027" color-interpolation-filters="sRGB"><feGaussianBlur stdDeviation="3.44"/></filter><filter id="c" width="1.12" height="1.12" x="-.06" y="-.06" color-interpolation-filters="sRGB"><feGaussianBlur stdDeviation="6"/></filter></defs><g transform="translate(-208 864.8)"><path d="M264-800c-13.296 0-24 10.704-24 24v352c0 13.296 10.704 24 24 24h400c13.296 0 24-10.704 24-24v-352c0-13.296-10.704-24-24-24z" filter="url(#a)" opacity=".1"/><path d="M264-800c-13.296 0-24 10.704-24 24v352c0 13.296 10.704 24 24 24h400c13.296 0 24-10.704 24-24v-352c0-13.296-10.704-24-24-24z" filter="url(#a)" opacity=".2"/><path d="M264-802c-13.296 0-24 10.704-24 24v352c0 13.296 10.704 24 24 24h400c13.296 0 24-10.704 24-24v-352c0-13.296-10.704-24-24-24z" opacity=".2"/><path fill="#558b2f" d="M240-756v328c0 13.296 10.704 24 24 24h400c13.296 0 24-10.704 24-24v-328z"/><path d="M272-738h384v296s0 8-8 8H280s-8 0-8-8z" opacity=".2"/><path d="M272-738h384v296s0 8-8 8H280s-8 0-8-8z" filter="url(#b)" opacity=".2"/><path fill="#aed581" d="M272-740h384v296s0 8-8 8H280s-8 0-8-8z"/><path fill="#4d4d4d" d="M264-804c-13.296 0-24 10.704-24 24v40h448v-40c0-13.296-10.704-24-24-24z"/><path fill="#fff" d="M264-804c-13.296 0-24 10.704-24 24v2c0-13.296 10.704-24 24-24h400c13.296 0 24 10.704 24 24v-2c0-13.296-10.704-24-24-24z" opacity=".1"/><circle cx="584" cy="-484" r="120" enable-background="new" filter="url(#c)" opacity=".5"/><circle cx="584" cy="-492" r="120" fill="#8561c5" enable-background="new"/><path fill="#fff" d="m566-564-1.586 18.965a56.6 56.6 0 0 0-16.535 9.563l-17.236-8.118-18 31.18 15.65 10.867a56.6 56.6 0 0 0-.865 9.543 56.6 56.6 0 0 0 .824 9.582l-15.609 10.828 18 31.18 17.197-8.095a56.6 56.6 0 0 0 16.572 9.502L566-420h36l1.586-18.965a56.6 56.6 0 0 0 16.535-9.563l17.236 8.117 18-31.18-15.65-10.867a56.6 56.6 0 0 0 .865-9.543 56.6 56.6 0 0 0-.824-9.582l15.609-10.828-18-31.18-17.197 8.096a56.6 56.6 0 0 0-16.572-9.502L602-564zm18 48a24 24 0 0 1 24 24 24 24 0 0 1-24 24 24 24 0 0 1-24-24 24 24 0 0 1 24-24" enable-background="new"/><path fill="#f1f8e9" d="M312.57-520v4.014q-2.294.473-4.184 1.484-1.854.979-3.17 2.361a10 10 0 0 0-2.023 3.104 9.4 9.4 0 0 0-.709 3.61q0 1.99.71 3.677a10.2 10.2 0 0 0 2.022 3.035q1.35 1.35 3.272 2.463 1.955 1.113 4.418 2.024v12.346q-1.754-.372-3.068-1.248a14.2 14.2 0 0 1-2.43-2.125l-1.955-2.43-4.217 5.937q2.294 2.53 5.229 4.115c2.935 1.585 3.991 1.765 6.105 2.125V-472h6.914v-3.71q2.53-.506 4.52-1.653 1.989-1.146 3.373-2.732a11.4 11.4 0 0 0 2.16-3.508q.742-1.956.742-4.082 0-2.26-.709-4.014a9.4 9.4 0 0 0-2.125-3.205q-1.383-1.416-3.475-2.496-2.091-1.079-4.824-1.955v-10.154a7.4 7.4 0 0 1 2.397 1.047q1.146.742 1.82 1.517c.565.715 1.79 2.26 1.79 2.26l4.08-5.16q-1.99-2.396-4.452-4.016a14.3 14.3 0 0 0-5.297-2.226V-520zm.336 10.424v7.725q-1.754-.608-2.461-1.754-.709-1.147-.709-2.227 0-1.485.877-2.43.877-.944 2.293-1.314m6.242 17.539q2.09.742 3.069 1.957 1.011 1.215 1.011 2.834 0 1.956-1.146 3.137-1.113 1.181-2.934 1.822zM344-476v8h32v-8z" color="#bebebe" enable-background="accumulate"/></g></svg>