<svg width="512" height="512" enable-background="new" version="1.0" xmlns="http://www.w3.org/2000/svg">
 <defs>
  <filter id="a" x="-.022714" y="-.02544" width="1.0454" height="1.0509" color-interpolation-filters="sRGB">
   <feGaussianBlur stdDeviation="4.2399902"/>
  </filter>
  <filter id="b" x="-.0215" y="-.027158" width="1.043" height="1.0543" color-interpolation-filters="sRGB">
   <feGaussianBlur stdDeviation="3.44"/>
  </filter>
 </defs>
 <g transform="translate(0,212)">
  <g>
   <g transform="translate(-208,16)">
    <g>
     <path d="m264-160c-13.296 0-24 10.704-24 24v352c0 13.296 10.704 24 24 24h400c13.296 0 24-10.704 24-24v-352c0-13.296-10.704-24-24-24z" filter="url(#a)" opacity=".1"/>
     <path d="m264-160c-13.296 0-24 10.704-24 24v352c0 13.296 10.704 24 24 24h400c13.296 0 24-10.704 24-24v-352c0-13.296-10.704-24-24-24z" filter="url(#a)" opacity=".2"/>
     <path d="m264-162c-13.296 0-24 10.704-24 24v352c0 13.296 10.704 24 24 24h400c13.296 0 24-10.704 24-24v-352c0-13.296-10.704-24-24-24z" opacity=".2"/>
    </g>
    <path d="m240-116v328c0 13.296 10.704 24 24 24h400c13.296 0 24-10.704 24-24v-328z" fill="#558b2f"/>
    <path d="m272-98h384v296s0 8-8 8h-368s-8 0-8-8z" opacity=".2"/>
    <path d="m272-98h384v296s0 8-8 8h-368s-8 0-8-8z" filter="url(#b)" opacity=".2"/>
    <path d="m272-100h384v296s0 8-8 8h-368s-8 0-8-8z" fill="#aed581"/>
    <path d="m264-164c-13.296 0-24 10.704-24 24v40h448v-40c0-13.296-10.704-24-24-24z" fill="#4d4d4d"/>
    <path d="m264-164c-13.296 0-24 10.704-24 24v2c0-13.296 10.704-24 24-24h400c13.296 0 24 10.704 24 24v-2c0-13.296-10.704-24-24-24z" fill="#fff" opacity=".1"/>
    <path transform="translate(0,-244)" d="m312.57 364v4.0137c-1.5292 0.31484-2.9243 0.80982-4.1836 1.4844-1.2368 0.6522-2.2929 1.4394-3.1699 2.3613-0.877 0.92199-1.5512 1.9567-2.0234 3.1035-0.47236 1.1469-0.70898 2.3501-0.70898 3.6094-1e-5 1.3268 0.23674 2.5534 0.70898 3.6777 0.47224 1.1019 1.1464 2.1132 2.0234 3.0352 0.89952 0.89952 1.9896 1.7208 3.2715 2.4629 1.3042 0.74208 2.7764 1.4163 4.418 2.0234v12.346c-1.1694-0.24736-2.1914-0.66337-3.0684-1.248-0.85456-0.58468-1.6651-1.293-2.4297-2.125l-1.9551-2.4297-4.2168 5.9375c1.5292 1.6866 3.2721 3.0583 5.2285 4.1152s3.9916 1.765 6.1055 2.125v3.5078h6.9141v-3.7109c1.6866-0.33732 3.1927-0.88774 4.5195-1.6523 1.3268-0.76456 2.451-1.6755 3.373-2.7324 0.94448-1.0569 1.6654-2.226 2.1602-3.5078 0.49488-1.3043 0.74215-2.6653 0.74219-4.082-4e-5 -1.5067-0.23679-2.8443-0.70899-4.0137-0.47228-1.1918-1.1806-2.2606-2.125-3.2051-0.92204-0.94444-2.0804-1.7764-3.4746-2.4961-1.3942-0.7196-3.0027-1.3704-4.8242-1.9551v-10.154c0.85452 0.20244 1.6544 0.5522 2.3965 1.0469 0.76456 0.49476 1.3705 1.0004 1.8203 1.5176 0.56508 0.71432 1.7891 2.2598 1.7891 2.2598l4.0801-5.1602c-1.3268-1.5966-2.8096-2.9362-4.4512-4.0156-1.6191-1.1019-3.3855-1.8442-5.2969-2.2266v-3.9121zm0.33594 10.424v7.7246c-1.1694-0.40476-1.9887-0.98931-2.4609-1.7539-0.47236-0.76456-0.70898-1.5069-0.70898-2.2266 0-0.98944 0.29223-1.8 0.87695-2.4297 0.58464-0.62964 1.3485-1.0672 2.293-1.3144zm6.2422 17.539c1.3942 0.49472 2.4162 1.1475 3.0684 1.957 0.67476 0.8096 1.0117 1.7546 1.0117 2.834-4e-5 1.3043-0.38193 2.3496-1.1465 3.1367-0.74212 0.78709-1.7193 1.395-2.9336 1.8223zm24.852 16.037v8h32v-8z" color="#bebebe" enable-background="accumulate" fill="#f1f8e9"/>
   </g>
  </g>
 </g>
 <g transform="translate(0,212)"></g>
</svg>
