<svg xmlns="http://www.w3.org/2000/svg" width="512" height="512" enable-background="new" version="1.0"><defs><filter id="a" width="1.048" height="1.048" x="-.024" y="-.024" color-interpolation-filters="sRGB"><feGaussianBlur stdDeviation="4.8"/></filter><filter id="c" width="1.047" height="1.049" x="-.023" y="-.025" color-interpolation-filters="sRGB"><feGaussianBlur stdDeviation="3.283"/></filter></defs><g fill-rule="evenodd" color="#000"><path stroke="#000" stroke-linejoin="round" stroke-width="8" d="M463.53-208a32 32 0 0 0-22.156 9.37l-208 208c-12.494 12.496-12.494 32.756 0 45.253l208 208c12.497 12.494 32.756 12.494 45.254 0l208-208c12.494-12.497 12.494-32.757 0-45.254l-208-208A32 32 0 0 0 463.53-208z" enable-background="accumulate" filter="url(#a)" opacity=".1" style="isolation:auto;mix-blend-mode:normal;text-decoration-color:#000;text-decoration-line:none;text-decoration-style:solid;text-indent:0;text-transform:none;white-space:normal" transform="translate(-208 228)"/><path d="M463.53-208a32 32 0 0 0-22.156 9.37l-208 208c-12.494 12.496-12.494 32.756 0 45.253l208 208c12.497 12.494 32.756 12.494 45.254 0l208-208c12.494-12.497 12.494-32.757 0-45.254l-208-208A32 32 0 0 0 463.53-208" enable-background="accumulate" filter="url(#a)" opacity=".2" style="isolation:auto;mix-blend-mode:normal;text-decoration-color:#000;text-decoration-line:none;text-decoration-style:solid;text-indent:0;text-transform:none;white-space:normal" transform="translate(-208 228)"/><path fill="#4caf50" d="M463.53-212a32 32 0 0 0-22.156 9.37l-208 208c-12.494 12.496-12.494 32.756 0 45.253l208 208c12.497 12.494 32.756 12.494 45.254 0l208-208c12.494-12.497 12.494-32.757 0-45.254l-208-208A32 32 0 0 0 463.53-212" enable-background="accumulate" style="isolation:auto;mix-blend-mode:normal;text-decoration-color:#000;text-decoration-line:none;text-decoration-style:solid;text-indent:0;text-transform:none;white-space:normal" transform="translate(-208 228)"/><path fill="#fff" d="M463.53 32.004a32 32 0 0 0-22.156 9.37l-208 208c-6.502 6.502-9.612 15.107-9.348 23.626.244-7.853 3.355-15.633 9.348-21.627l208-208a32 32 0 0 1 45.254 0l208 208c5.993 5.994 9.104 13.774 9.348 21.627.264-8.52-2.846-17.124-9.348-23.627l-208-208a32 32 0 0 0-23.098-9.369" enable-background="accumulate" opacity=".2" style="isolation:auto;mix-blend-mode:normal;text-decoration-color:#000;text-decoration-line:none;text-decoration-style:solid;text-indent:0;text-transform:none;white-space:normal" transform="translate(-208 -16)"/></g><path d="M312-128c-4.432 0-8 3.568-8 8v32c0 4.432 3.568 8 8 8h8v259s0 13.5 16 13.5l16-.5L624-80h8c4.432 0 8-3.568 8-8v-32c0-4.432-3.568-8-8-8H520c-4.432 0-8 3.568-8 8v32c0 4.432 3.568 8 8 8h8L416 32V-80h8c4.432 0 8-3.568 8-8v-32c0-4.432-3.568-8-8-8z" filter="url(#c)" opacity=".2" transform="translate(-208 228)"/><path stroke="#000" stroke-linejoin="round" stroke-width="8" d="M312-128c-4.432 0-8 3.568-8 8v32c0 4.432 3.568 8 8 8h8v259s0 13.5 16 13.5l16-.5L624-80h8c4.432 0 8-3.568 8-8v-32c0-4.432-3.568-8-8-8H520c-4.432 0-8 3.568-8 8v32c0 4.432 3.568 8 8 8h8L416 32V-80h8c4.432 0 8-3.568 8-8v-32c0-4.432-3.568-8-8-8z" filter="url(#c)" opacity=".1" transform="translate(-208 228)"/><path fill="#f2f2f2" d="M104 96c-4.432 0-8 3.568-8 8v32c0 4.432 3.568 8 8 8h8v259s0 13.5 16 13.5l16-.5 272-272h8c4.432 0 8-3.568 8-8v-32c0-4.432-3.568-8-8-8H312c-4.432 0-8 3.568-8 8v32c0 4.432 3.568 8 8 8h8L208 256V144h8c4.432 0 8-3.568 8-8v-32c0-4.432-3.568-8-8-8z"/><path fill="#fff" d="M104 96c-4.432 0-8 3.568-8 8v2c0-4.432 3.568-8 8-8h112c4.432 0 8 3.568 8 8v-2c0-4.432-3.568-8-8-8zm208 0c-4.432 0-8 3.568-8 8v2c0-4.432 3.568-8 8-8h112c4.432 0 8 3.568 8 8v-2c0-4.432-3.568-8-8-8zm6 50L208 256v2l112-112z" opacity=".6"/></svg>