<svg width="512" height="512" enable-background="new" version="1.0" xmlns="http://www.w3.org/2000/svg" xmlns:osb="http://www.openswatchbook.org/uri/2009/osb" xmlns:xlink="http://www.w3.org/1999/xlink">
 <defs>
  <filter id="b" x="-.024" y="-.024" width="1.048" height="1.048" color-interpolation-filters="sRGB">
   <feGaussianBlur stdDeviation="4.7999638"/>
  </filter>
  <filter id="a" x="-.023446" y="-.02458" width="1.0469" height="1.0492" color-interpolation-filters="sRGB">
   <feGaussianBlur stdDeviation="3.2825"/>
  </filter>
 </defs>
 <g transform="translate(0,212)">
  <g>
   <g transform="translate(-208,16)">
    <g fill-rule="evenodd" shape-rendering="auto">
     <path d="m463.53-208c-8.3228 0.1229-16.27 3.4836-22.156 9.3691l-208 208c-12.494 12.497-12.494 32.757 0 45.254l208 208c12.497 12.494 32.756 12.494 45.254 0l208-208c12.494-12.497 12.494-32.757 0-45.254l-208-208c-6.1167-6.1162-14.449-9.4959-23.098-9.3691z" color="#000000" color-rendering="auto" enable-background="accumulate" filter="url(#b)" image-rendering="auto" opacity=".1" solid-color="#000000" stroke="#000" stroke-linejoin="round" stroke-width="8" style="isolation:auto;mix-blend-mode:normal;text-decoration-color:#000000;text-decoration-line:none;text-decoration-style:solid;text-indent:0;text-transform:none;white-space:normal"/>
     <path d="m463.53-208c-8.3228 0.1229-16.27 3.4836-22.156 9.3691l-208 208c-12.494 12.497-12.494 32.757 0 45.254l208 208c12.497 12.494 32.756 12.494 45.254 0l208-208c12.494-12.497 12.494-32.757 0-45.254l-208-208c-6.1167-6.1162-14.449-9.4959-23.098-9.3691z" color="#000000" color-rendering="auto" enable-background="accumulate" filter="url(#b)" image-rendering="auto" opacity=".2" solid-color="#000000" style="isolation:auto;mix-blend-mode:normal;text-decoration-color:#000000;text-decoration-line:none;text-decoration-style:solid;text-indent:0;text-transform:none;white-space:normal"/>
     <path d="m463.53-212c-8.3228 0.1229-16.27 3.4836-22.156 9.3691l-208 208c-12.494 12.497-12.494 32.757 0 45.254l208 208c12.497 12.494 32.756 12.494 45.254 0l208-208c12.494-12.497 12.494-32.757 0-45.254l-208-208c-6.1167-6.1162-14.449-9.4959-23.098-9.3691z" color="#000000" color-rendering="auto" enable-background="accumulate" fill="#4caf50" image-rendering="auto" solid-color="#000000" style="isolation:auto;mix-blend-mode:normal;text-decoration-color:#000000;text-decoration-line:none;text-decoration-style:solid;text-indent:0;text-transform:none;white-space:normal"/>
     <path transform="translate(0,-244)" d="m463.53 32.004c-8.3228 0.1229-16.27 3.4836-22.156 9.3691l-208 208c-6.5015 6.5031-9.6124 15.108-9.3477 23.627 0.24398-7.8526 3.3548-15.633 9.3477-21.627l208-208c5.886-5.8855 13.833-9.2462 22.156-9.3691 8.649-0.12674 16.981 3.253 23.098 9.3691l208 208c5.9929 5.9943 9.1037 13.774 9.3477 21.627 0.26469-8.5192-2.8461-17.124-9.3477-23.627l-208-208c-6.1167-6.1162-14.449-9.4959-23.098-9.3691z" color="#000000" color-rendering="auto" enable-background="accumulate" fill="#fff" image-rendering="auto" opacity=".2" solid-color="#000000" style="isolation:auto;mix-blend-mode:normal;text-decoration-color:#000000;text-decoration-line:none;text-decoration-style:solid;text-indent:0;text-transform:none;white-space:normal"/>
    </g>
    <path d="m312-128c-4.432 0-8 3.568-8 8v32c0 4.432 3.568 8 8 8h8v259s0 13.5 16 13.5l16-0.5 272-272h8c4.432 0 8-3.568 8-8v-32c0-4.432-3.568-8-8-8h-112c-4.432 0-8 3.568-8 8v32c0 4.432 3.568 8 8 8h8l-112 112v-112h8c4.432 0 8-3.568 8-8v-32c0-4.432-3.568-8-8-8z" filter="url(#a)" opacity=".2"/>
    <path d="m312-128c-4.432 0-8 3.568-8 8v32c0 4.432 3.568 8 8 8h8v259s0 13.5 16 13.5l16-0.5 272-272h8c4.432 0 8-3.568 8-8v-32c0-4.432-3.568-8-8-8h-112c-4.432 0-8 3.568-8 8v32c0 4.432 3.568 8 8 8h8l-112 112v-112h8c4.432 0 8-3.568 8-8v-32c0-4.432-3.568-8-8-8z" filter="url(#a)" opacity=".1" stroke="#000" stroke-linejoin="round" stroke-width="8"/>
    <path transform="translate(0,-244)" d="m312 112c-4.432 0-8 3.568-8 8v32c0 4.432 3.568 8 8 8h8v259s0 13.5 16 13.5l16-0.5 272-272h8c4.432 0 8-3.568 8-8v-32c0-4.432-3.568-8-8-8h-112c-4.432 0-8 3.568-8 8v32c0 4.432 3.568 8 8 8h8l-112 112v-112h8c4.432 0 8-3.568 8-8v-32c0-4.432-3.568-8-8-8z" fill="#f2f2f2"/>
    <path transform="translate(0,-244)" d="m312 112c-4.432 0-8 3.568-8 8v2c0-4.432 3.568-8 8-8h112c4.432 0 8 3.568 8 8v-2c0-4.432-3.568-8-8-8zm208 0c-4.432 0-8 3.568-8 8v2c0-4.432 3.568-8 8-8h112c4.432 0 8 3.568 8 8v-2c0-4.432-3.568-8-8-8zm6 50-110 110v2l112-112z" fill="#fff" opacity=".6"/>
   </g>
  </g>
 </g>
</svg>
