<svg xmlns="http://www.w3.org/2000/svg" width="512" height="512" enable-background="new" version="1.0"><defs><filter id="a" width="1.048" height="1.048" x="-.024" y="-.024" color-interpolation-filters="sRGB"><feGaussianBlur stdDeviation="4.48"/></filter><filter id="c" width="1.045" height="1.052" x="-.022" y="-.026" color-interpolation-filters="sRGB"><feGaussianBlur stdDeviation="3.28"/></filter><filter id="d" width="1.048" height="1.048" x="-.024" y="-.024" color-interpolation-filters="sRGB"><feGaussianBlur stdDeviation="2.4"/></filter></defs><g transform="translate(-208 868)"><path d="M264-834c-13.296 0-24 10.704-24 24v352c0 13.296 10.704 24 24 24h24v48h352v-48h24c13.296 0 24-10.704 24-24v-352c0-13.296-10.704-24-24-24z" enable-background="new" opacity=".2"/><path d="M264-832c-13.296 0-24 10.704-24 24v352c0 13.296 10.704 24 24 24h24v48h352v-48h24c13.296 0 24-10.704 24-24v-352c0-13.296-10.704-24-24-24z" enable-background="new" filter="url(#a)" opacity=".1"/><path d="M264-832c-13.296 0-24 10.704-24 24v352c0 13.296 10.704 24 24 24h24v48h352v-48h24c13.296 0 24-10.704 24-24v-352c0-13.296-10.704-24-24-24z" enable-background="new" filter="url(#a)" opacity=".2"/><rect width="448" height="400" x="240" y="-836" fill="#4bae4f" enable-background="new" ry="24"/><path d="M304-786h320c8.864 0 16 7.136 16 16v216c0 8.864-7.136 16-16 16H304c-8.864 0-16-7.136-16-16v-216c0-8.864 7.136-16 16-16" enable-background="new" filter="url(#c)" opacity=".2"/><path fill="#fff" d="M264-836c-13.296 0-24 10.704-24 24v2c0-13.296 10.704-24 24-24h400c13.296 0 24 10.704 24 24v-2c0-13.296-10.704-24-24-24z" enable-background="new" opacity=".2"/><path d="M240-464v4c0 13.296 10.704 24 24 24h400c13.296 0 24-10.704 24-24v-4c0 13.296-10.704 24-24 24H264c-13.296 0-24-10.704-24-24" enable-background="new" opacity=".2"/><rect width="352" height="52" x="288" y="-440" fill="#feea3a" enable-background="new" ry="0"/><rect width="352" height="4" x="288" y="-392" enable-background="new" opacity=".2" ry="0"/><path fill="#fff" d="M288-440v2h352v-2z" enable-background="new" opacity=".2"/><path fill="#3f3f3f" d="M304-788h320c8.864 0 16 7.136 16 16v216c0 8.864-7.136 16-16 16H304c-8.864 0-16-7.136-16-16v-216c0-8.864 7.136-16 16-16" enable-background="new"/><path d="M288-564v8c0 8.864 7.136 16 16 16h320c8.864 0 16-7.136 16-16v-8c0 8.864-7.136 16-16 16H304c-8.864 0-16-7.136-16-16" enable-background="new" opacity=".2"/><path fill="#fff" d="M304-788c-8.864 0-16 7.136-16 16v2c0-8.864 7.136-16 16-16h320c8.864 0 16 7.136 16 16v-2c0-8.864-7.136-16-16-16z" enable-background="new" opacity=".1"/><circle cx="584" cy="-486" r="120" enable-background="new" filter="url(#d)" opacity=".2"/><circle cx="584" cy="-486" r="120" stroke="#000" stroke-width="8" enable-background="new" filter="url(#d)" opacity=".1"/><circle cx="584" cy="-492" r="120" fill="#2196f3" enable-background="new"/><path fill="#fff" d="M584-556c-8.837 0-16 7.164-16 16s7.163 16 16 16 16-7.163 16-16-7.163-16-16-16m-12 56v72h24v-72z" enable-background="new"/></g></svg>