<svg xmlns="http://www.w3.org/2000/svg" width="512" height="512" enable-background="new" version="1.0"><defs><filter id="d" width="1.24" height="1.08" x="-.12" y="-.04" color-interpolation-filters="sRGB"><feGaussianBlur stdDeviation="1"/></filter><filter id="a" width="1.054" height="1.043" x="-.027" y="-.021" color-interpolation-filters="sRGB"><feGaussianBlur stdDeviation="4"/></filter><clipPath id="b"><path fill="#d8d8d8" d="M232 148v56h19c1.662 0 3-1.338 3-3v-50c0-1.662-1.338-3-3-3z"/></clipPath></defs><path d="M602.45 35.867q-1.207-.012-2.445.133l-136 16h-152c-13.296 0-24 10.704-24 24v400c0 13.296 10.704 24 24 24h152l136 16c10.84 1.275 20.052-6.76 23.004-17.035A23.94 23.94 0 0 0 640.005 476V76a23.94 23.94 0 0 0-16.996-22.965c-2.728-9.493-10.796-17.075-20.56-17.168z" filter="url(#a)" opacity=".2" transform="translate(-208 -16)"/><path stroke="#000" stroke-width="8" d="M602.45 35.867q-1.207-.012-2.445.133l-136 16h-152c-13.296 0-24 10.704-24 24v400c0 13.296 10.704 24 24 24h152l136 16c10.84 1.275 20.052-6.76 23.004-17.035A23.94 23.94 0 0 0 640.005 476V76a23.94 23.94 0 0 0-16.996-22.965c-2.728-9.493-10.796-17.075-20.56-17.168z" filter="url(#a)" opacity=".1" transform="translate(-208 -16)"/><path fill="#435ece" d="M104 32c-13.296 0-24 10.704-24 24v400c0 13.296 10.704 24 24 24h152V32zM256 32v448h152c13.296 0 24-10.704 24-24V56c0-13.296-10.704-24-24-24z"/><path d="M232 148v56l17 2c1.65.194 3-1.338 3-3v-54c0-1.662-1.35-3.194-3-3z" clip-path="url(#b)" filter="url(#d)" opacity=".5" transform="matrix(8 0 0 8 -1600 -1152)"/><path fill="#fff" d="M104 32c-13.296 0-24 10.704-24 24v2c0-13.296 10.704-24 24-24h304c13.296 0 24 10.704 24 24v-2c0-13.296-10.704-24-24-24H256z" opacity=".2"/><path fill="#fff" d="M394.45 15.87q-1.207-.012-2.445.133l-136 16v2l136-16c13.205-1.554 24 10.704 24 24v-2c0-12.465-9.488-24.018-21.555-24.133z" opacity=".2"/><path fill="#5c77e7" d="M256 32v448l136 16c13.205 1.554 24-10.704 24-24V40c0-13.296-10.795-25.554-24-24z"/><path fill="#fff" d="M470.96-124c-2.346 0-4.666.133-6.956.383v48.529c2.24-.59 4.565-.912 6.956-.912 17.233 0 31.304 16.182 31.304 36 0 9.933-3.434 18.872-6.335 22.117l-24.492 28.477.003-.002c-.164.191-.318.394-.48.588-2.56 3.233-4.874 6.472-6.957 9.78V92l27.826 4V80c0-29.2 6.984-39.378 13.167-46.588L526.81 7.828C537.356-4.3 544.003-21.31 544.003-40c0-46.36-32.73-84-73.043-84zm-6.956 248v48l27.825 4v-48z" color="#000" enable-background="new" opacity=".7" style="isolation:auto;mix-blend-mode:normal;text-decoration-color:#000;text-decoration-line:none;text-decoration-style:solid;text-indent:0;text-transform:none;white-space:normal" transform="translate(-208 228)"/><path fill="#d9dff5" d="M464 120.38c-42.613 4.035-76 39.956-76 83.617v4h48v-4c0-17.069 12.008-31.429 28-35.088zm0 144.58c-5.452 7.53-9.514 15.421-12.301 24.43a84.3 84.3 0 0 0-3.7 24.609v22h16zM448 368v48h16v-48z" color="#000" enable-background="new" style="isolation:auto;mix-blend-mode:normal;text-decoration-color:#000;text-decoration-line:none;text-decoration-style:solid;text-indent:0;text-transform:none;white-space:normal" transform="translate(-208 -16)"/></svg>