<svg xmlns="http://www.w3.org/2000/svg" width="512" height="512" enable-background="new" version="1.0"><defs><filter id="a" width="1.043" height="1.054" x="-.022" y="-.027" color-interpolation-filters="sRGB"><feGaussianBlur stdDeviation="4.312"/></filter></defs><g fill-rule="evenodd" color="#000"><path d="M353.14-160c-12.462.01-23.835 6.744-30.205 17.455l-93.409 157.09a34.91 34.91 0 0 0 0 34.909l93.409 157.09c6.37 10.711 17.743 17.444 30.205 17.455h221.73c12.462-.01 23.835-6.744 30.204-17.455l93.409-157.09a34.91 34.91 0 0 0 0-34.909l-93.409-157.09c-6.37-10.711-17.743-17.444-30.204-17.455z" enable-background="accumulate" filter="url(#a)" opacity=".1" style="isolation:auto;mix-blend-mode:normal;text-decoration-color:#000;text-decoration-line:none;text-decoration-style:solid;text-indent:0;text-transform:none;white-space:normal" transform="translate(-208 228)"/><path d="M353.14-160c-12.462.01-23.835 6.744-30.205 17.455l-93.409 157.09a34.91 34.91 0 0 0 0 34.909l93.409 157.09c6.37 10.711 17.743 17.444 30.205 17.455h221.73c12.462-.01 23.835-6.744 30.204-17.455l93.409-157.09a34.91 34.91 0 0 0 0-34.909l-93.409-157.09c-6.37-10.711-17.743-17.444-30.204-17.455z" enable-background="accumulate" filter="url(#a)" opacity=".2" style="isolation:auto;mix-blend-mode:normal;text-decoration-color:#000;text-decoration-line:none;text-decoration-style:solid;text-indent:0;text-transform:none;white-space:normal" transform="translate(-208 228)"/><path d="M353.14-162c-12.462.01-23.835 6.744-30.205 17.455l-93.409 157.09a34.91 34.91 0 0 0 0 34.909l93.409 157.09c6.37 10.711 17.743 17.444 30.205 17.455h221.73c12.462-.01 23.835-6.744 30.204-17.455l93.409-157.09a34.91 34.91 0 0 0 0-34.909l-93.409-157.09c-6.37-10.711-17.743-17.444-30.204-17.455z" enable-background="accumulate" opacity=".2" style="isolation:auto;mix-blend-mode:normal;text-decoration-color:#000;text-decoration-line:none;text-decoration-style:solid;text-indent:0;text-transform:none;white-space:normal" transform="translate(-208 228)"/><path fill="#ff7b00" d="M353.14-164c-12.462.01-23.835 6.744-30.205 17.455l-93.409 157.09a34.91 34.91 0 0 0 0 34.909l93.409 157.09c6.37 10.711 17.743 17.444 30.205 17.455h221.73c12.462-.01 23.835-6.744 30.204-17.455l93.409-157.09a34.91 34.91 0 0 0 0-34.909l-93.409-157.09c-6.37-10.711-17.743-17.444-30.204-17.455z" enable-background="accumulate" style="isolation:auto;mix-blend-mode:normal;text-decoration-color:#000;text-decoration-line:none;text-decoration-style:solid;text-indent:0;text-transform:none;white-space:normal" transform="translate(-208 228)"/><path d="M419.54-101.98c-4.718.002-7.46 5.336-4.717 9.174l44.453 62.182c2.314 3.236 7.124 3.236 9.438 0l44.455-62.182c2.744-3.84 0-9.174-4.72-9.174zm153.47 30.004a5.8 5.8 0 0 0-4.916 2.424L502.196 22.63a5.8 5.8 0 0 0 0 6.746l65.898 92.182c2.434 3.404 7.563 3.188 9.703-.408l54.818-92.182a5.8 5.8 0 0 0 0-5.93l-54.818-92.182a5.8 5.8 0 0 0-4.787-2.832m-218.12.004a5.8 5.8 0 0 0-4.695 2.828l-54.818 92.182a5.8 5.8 0 0 0 0 5.93l54.818 92.182c2.14 3.596 7.268 3.812 9.703.408l65.898-92.182a5.8 5.8 0 0 0 0-6.746l-65.898-92.182a5.8 5.8 0 0 0-5.008-2.42m108.82 152.18a5.8 5.8 0 0 0-4.43 2.42l-44.453 62.182c-2.743 3.838 0 9.172 4.717 9.174h88.91c4.719 0 7.463-5.335 4.719-9.174l-44.455-62.182a5.8 5.8 0 0 0-5.008-2.42" enable-background="accumulate" opacity=".2" style="isolation:auto;mix-blend-mode:normal;text-decoration-color:#000;text-decoration-line:none;text-decoration-style:solid;text-indent:0;text-transform:none;white-space:normal" transform="translate(-208 228)"/><path fill="#fff" d="M419.54-99.982c-4.718.002-7.46 5.336-4.717 9.174l44.453 62.182c2.314 3.236 7.124 3.236 9.438 0l44.455-62.182c2.744-3.84 0-9.174-4.72-9.174zm153.47 30.004a5.8 5.8 0 0 0-4.916 2.424l-65.898 92.182a5.8 5.8 0 0 0 0 6.746l65.898 92.182c2.434 3.404 7.563 3.188 9.703-.408l54.818-92.182a5.8 5.8 0 0 0 0-5.93l-54.818-92.182a5.8 5.8 0 0 0-4.787-2.832m-218.12.004a5.8 5.8 0 0 0-4.695 2.828l-54.818 92.182a5.8 5.8 0 0 0 0 5.93l54.818 92.182c2.14 3.596 7.268 3.812 9.703.408l65.898-92.182a5.8 5.8 0 0 0 0-6.746l-65.898-92.182a5.8 5.8 0 0 0-5.008-2.42m108.82 152.18a5.8 5.8 0 0 0-4.43 2.42l-44.453 62.182c-2.743 3.838 0 9.172 4.717 9.174h88.91c4.719 0 7.463-5.335 4.719-9.174l-44.455-62.182a5.8 5.8 0 0 0-5.008-2.42" enable-background="accumulate" style="isolation:auto;mix-blend-mode:normal;text-decoration-color:#000;text-decoration-line:none;text-decoration-style:solid;text-indent:0;text-transform:none;white-space:normal" transform="translate(-208 228)"/><path fill="#fff" d="M353.14 80c-12.462.01-23.836 6.744-30.205 17.455l-93.408 157.09A34.9 34.9 0 0 0 224.883 273a34.9 34.9 0 0 1 4.644-16.455l93.408-157.09c6.37-10.711 17.743-17.444 30.205-17.455h221.73c12.462.01 23.836 6.744 30.205 17.455l93.408 157.09A34.87 34.87 0 0 1 703.128 273a34.9 34.9 0 0 0-4.645-18.455l-93.408-157.09C598.705 86.744 587.332 80.01 574.87 80z" enable-background="accumulate" opacity=".2" style="isolation:auto;mix-blend-mode:normal;text-decoration-color:#000;text-decoration-line:none;text-decoration-style:solid;text-indent:0;text-transform:none;white-space:normal" transform="translate(-208 -16)"/></g></svg>