<svg width="512" height="512" enable-background="new" version="1.0" xmlns="http://www.w3.org/2000/svg">
 <defs>
  <filter id="a" x="-.021634" y="-.026947" width="1.0433" height="1.0539" color-interpolation-filters="sRGB">
   <feGaussianBlur stdDeviation="4.3115358"/>
  </filter>
 </defs>
 <g transform="translate(0,212)">
  <g>
   <g transform="translate(-208,16)" fill-rule="evenodd" shape-rendering="auto">
    <g>
     <path d="m353.14-160c-12.462 0.0106-23.835 6.7435-30.205 17.455l-93.409 157.09c-6.2352 10.801-6.2352 24.108 0 34.909l93.409 157.09c6.3694 10.711 17.743 17.444 30.205 17.455h221.73c12.462-0.0107 23.835-6.7435 30.204-17.455l93.409-157.09c6.235-10.801 6.235-24.108 0-34.909l-93.409-157.09c-6.3693-10.711-17.743-17.444-30.204-17.455z" color="#000000" color-rendering="auto" enable-background="accumulate" filter="url(#a)" image-rendering="auto" opacity=".1" solid-color="#000000" style="isolation:auto;mix-blend-mode:normal;text-decoration-color:#000000;text-decoration-line:none;text-decoration-style:solid;text-indent:0;text-transform:none;white-space:normal"/>
     <path d="m353.14-160c-12.462 0.0106-23.835 6.7435-30.205 17.455l-93.409 157.09c-6.2352 10.801-6.2352 24.108 0 34.909l93.409 157.09c6.3694 10.711 17.743 17.444 30.205 17.455h221.73c12.462-0.0107 23.835-6.7435 30.204-17.455l93.409-157.09c6.235-10.801 6.235-24.108 0-34.909l-93.409-157.09c-6.3693-10.711-17.743-17.444-30.204-17.455z" color="#000000" color-rendering="auto" enable-background="accumulate" filter="url(#a)" image-rendering="auto" opacity=".2" solid-color="#000000" style="isolation:auto;mix-blend-mode:normal;text-decoration-color:#000000;text-decoration-line:none;text-decoration-style:solid;text-indent:0;text-transform:none;white-space:normal"/>
     <path d="m353.14-162c-12.462 0.0106-23.835 6.7435-30.205 17.455l-93.409 157.09c-6.2352 10.801-6.2352 24.108 0 34.909l93.409 157.09c6.3694 10.711 17.743 17.444 30.205 17.455h221.73c12.462-0.0107 23.835-6.7435 30.204-17.455l93.409-157.09c6.235-10.801 6.235-24.108 0-34.909l-93.409-157.09c-6.3693-10.711-17.743-17.444-30.204-17.455z" color="#000000" color-rendering="auto" enable-background="accumulate" image-rendering="auto" opacity=".2" solid-color="#000000" style="isolation:auto;mix-blend-mode:normal;text-decoration-color:#000000;text-decoration-line:none;text-decoration-style:solid;text-indent:0;text-transform:none;white-space:normal"/>
    </g>
    <path d="m353.14-164c-12.462 0.0106-23.835 6.7435-30.205 17.455l-93.409 157.09c-6.2352 10.801-6.2352 24.108 0 34.909l93.409 157.09c6.3694 10.711 17.743 17.444 30.205 17.455h221.73c12.462-0.0107 23.835-6.7435 30.204-17.455l93.409-157.09c6.235-10.801 6.235-24.108 0-34.909l-93.409-157.09c-6.3693-10.711-17.743-17.444-30.204-17.455z" color="#000000" color-rendering="auto" enable-background="accumulate" fill="#ff7b00" image-rendering="auto" solid-color="#000000" style="isolation:auto;mix-blend-mode:normal;text-decoration-color:#000000;text-decoration-line:none;text-decoration-style:solid;text-indent:0;text-transform:none;white-space:normal"/>
    <path d="m419.54-101.98c-4.718 2e-3 -7.4605 5.3356-4.7168 9.1738l44.453 62.182c2.3136 3.2362 7.124 3.2362 9.4375 0l44.455-62.182c2.7442-3.839 1.9e-4 -9.1737-4.7188-9.1738zm153.47 30.004c-1.9411-0.06604-3.7865 0.84381-4.916 2.4238l-65.898 92.182c-1.4421 2.0175-1.4421 4.7286 0 6.7461l65.898 92.182c2.4345 3.4042 7.5631 3.1885 9.7031-0.40821l54.818-92.182c1.0866-1.8272 1.0866-4.1025 0-5.9297l-54.818-92.182c-1.0096-1.6974-2.8133-2.7645-4.7871-2.832zm-218.12 0.0039c-1.9399 0.09714-3.7024 1.1588-4.6953 2.8281l-54.818 92.182c-1.0866 1.8272-1.0866 4.1025 0 5.9297l54.818 92.182c2.14 3.5967 7.2686 3.8124 9.7031 0.40821l65.898-92.182c1.4421-2.0175 1.4421-4.7286 0-6.7461l-65.898-92.182c-1.1485-1.6065-3.0354-2.5183-5.0078-2.4199zm108.82 152.18c-1.7685 0.08824-3.3999 0.97944-4.4297 2.4199l-44.453 62.182c-2.7437 3.8382-1e-3 9.1721 4.7168 9.1738h88.91c4.7189-1.1e-4 7.463-5.3349 4.7188-9.1738l-44.455-62.182c-1.1485-1.6065-3.0354-2.5183-5.0078-2.4199z" color="#000000" color-rendering="auto" enable-background="accumulate" image-rendering="auto" opacity=".2" solid-color="#000000" style="isolation:auto;mix-blend-mode:normal;text-decoration-color:#000000;text-decoration-line:none;text-decoration-style:solid;text-indent:0;text-transform:none;white-space:normal"/>
    <path d="m419.54-99.982c-4.718 0.0017-7.4605 5.3356-4.7168 9.1738l44.453 62.182c2.3136 3.2362 7.124 3.2362 9.4375 0l44.455-62.182c2.7442-3.839 1.9e-4 -9.1737-4.7188-9.1738zm153.47 30.004c-1.9411-0.06604-3.7865 0.84381-4.916 2.4238l-65.898 92.182c-1.4421 2.0175-1.4421 4.7286 0 6.7461l65.898 92.182c2.4345 3.4042 7.5631 3.1885 9.7031-0.40821l54.818-92.182c1.0866-1.8272 1.0866-4.1025 0-5.9297l-54.818-92.182c-1.0096-1.6974-2.8133-2.7645-4.7871-2.832zm-218.12 0.0039c-1.9399 0.09714-3.7024 1.1588-4.6953 2.8281l-54.818 92.182c-1.0866 1.8272-1.0866 4.1025 0 5.9297l54.818 92.182c2.14 3.5967 7.2686 3.8124 9.7031 0.40821l65.898-92.182c1.4421-2.0175 1.4421-4.7286 0-6.7461l-65.898-92.182c-1.1485-1.6065-3.0354-2.5183-5.0078-2.4199zm108.82 152.18c-1.7685 0.08824-3.3999 0.97944-4.4297 2.4199l-44.453 62.182c-2.7437 3.8382-1e-3 9.1721 4.7168 9.1738h88.91c4.7189-1.1e-4 7.463-5.3349 4.7188-9.1738l-44.455-62.182c-1.1485-1.6065-3.0354-2.5183-5.0078-2.4199z" color="#000000" color-rendering="auto" enable-background="accumulate" fill="#fff" image-rendering="auto" solid-color="#000000" style="isolation:auto;mix-blend-mode:normal;text-decoration-color:#000000;text-decoration-line:none;text-decoration-style:solid;text-indent:0;text-transform:none;white-space:normal"/>
    <path transform="translate(0,-244)" d="m353.14 80c-12.462 0.0106-23.836 6.744-30.205 17.455l-93.408 157.09c-3.29 5.6993-4.8265 12.097-4.6445 18.455 0.16291-5.6918 1.6994-11.353 4.6445-16.455l93.408-157.09c6.3694-10.711 17.743-17.444 30.205-17.455h221.73c12.462 0.01056 23.836 6.744 30.205 17.455l93.408 157.09c2.9451 5.1018 4.4816 10.763 4.6445 16.455 0.18199-6.3584-1.3546-12.756-4.6445-18.455l-93.408-157.09c-6.3693-10.711-17.743-17.445-30.205-17.455z" color="#000000" color-rendering="auto" enable-background="accumulate" fill="#fff" image-rendering="auto" opacity=".2" solid-color="#000000" style="isolation:auto;mix-blend-mode:normal;text-decoration-color:#000000;text-decoration-line:none;text-decoration-style:solid;text-indent:0;text-transform:none;white-space:normal"/>
   </g>
  </g>
 </g>
</svg>
