<svg width="512" height="512" enable-background="new" version="1.0" xmlns="http://www.w3.org/2000/svg" xmlns:osb="http://www.openswatchbook.org/uri/2009/osb">
 <defs>
  <filter id="a" x="-.027273" y="-.021429" width="1.0545" height="1.0429" color-interpolation-filters="sRGB">
   <feGaussianBlur stdDeviation="4"/>
  </filter>
  <filter id="b" x="-.06" y="-.06" width="1.12" height="1.12" color-interpolation-filters="sRGB">
   <feGaussianBlur stdDeviation="6"/>
  </filter>
 </defs>
 <g transform="translate(0,212)">
  <g></g>
  <g>
   <g transform="translate(-208 14.8)">
    <g>
     <path d="m640 230v-400c0-13.296-10.704-24-24-24h-304c-13.296 0-24 10.704-24 24v400c0 13.296 10.704 24 24 24h304c13.296 0 24-10.704 24-24z" enable-background="new" opacity=".2"/>
     <path d="m640 232v-400c0-13.296-10.704-24-24-24h-304c-13.296 0-24 10.704-24 24v400c0 13.296 10.704 24 24 24h304c13.296 0 24-10.704 24-24z" enable-background="new" filter="url(#a)" opacity=".1" stroke="#000" stroke-width="8"/>
     <path d="m640 232v-400c0-13.296-10.704-24-24-24h-304c-13.296 0-24 10.704-24 24v400c0 13.296 10.704 24 24 24h304c13.296 0 24-10.704 24-24z" enable-background="new" filter="url(#a)" opacity=".2"/>
    </g>
    <path d="m640 228v-400c0-13.296-10.704-24-24-24h-304c-13.296 0-24 10.704-24 24v400c0 13.296 10.704 24 24 24h304c13.296 0 24-10.704 24-24z" enable-background="new" fill="#ebebeb"/>
    <path d="m312-196c-13.296 0-24 10.704-24 24v2c0-13.296 10.704-24 24-24h304c13.296 0 24 10.704 24 24v-2c0-13.296-10.704-24-24-24z" enable-background="new" fill="#fff" opacity=".1"/>
    <g enable-background="new" fill="#999" shape-rendering="auto">
     <path d="m336-160-4 8h8v48h8v-56z" color="#000000" color-rendering="auto" enable-background="accumulate" fill-rule="evenodd" image-rendering="auto" solid-color="#000000" style="isolation:auto;mix-blend-mode:normal;text-decoration-color:#000000;text-decoration-line:none;text-decoration-style:solid;text-indent:0;text-transform:none;white-space:normal"/>
     <path d="m392-160c-8.7948 0-16 7.2052-16 16v24c0 8.7948 7.2052 16 16 16s16-7.2052 16-16v-24c0-8.7948-7.2052-16-16-16zm0 8c4.5012 0 8 3.4988 8 8v24c0 4.5012-3.4988 8-8 8s-8-3.4988-8-8v-24c0-4.5012 3.4988-8 8-8z" color="#000000" color-rendering="auto" enable-background="accumulate" image-rendering="auto" solid-color="#000000" style="isolation:auto;mix-blend-mode:normal;text-decoration-color:#000000;text-decoration-line:none;text-decoration-style:solid;text-indent:0;text-transform:none;white-space:normal"/>
     <path d="m432-160-4 8h8v48h8v-56z" color="#000000" color-rendering="auto" enable-background="accumulate" fill-rule="evenodd" image-rendering="auto" solid-color="#000000" style="isolation:auto;mix-blend-mode:normal;text-decoration-color:#000000;text-decoration-line:none;text-decoration-style:solid;text-indent:0;text-transform:none;white-space:normal"/>
     <path d="m488-160c-8.7948 0-16 7.2052-16 16v24c0 8.7948 7.2052 16 16 16s16-7.2052 16-16v-24c0-8.7948-7.2052-16-16-16zm0 8c4.5012 0 8 3.4988 8 8v24c0 4.5012-3.4988 8-8 8s-8-3.4988-8-8v-24c0-4.5012 3.4988-8 8-8z" color="#000000" color-rendering="auto" enable-background="accumulate" image-rendering="auto" solid-color="#000000" style="isolation:auto;mix-blend-mode:normal;text-decoration-color:#000000;text-decoration-line:none;text-decoration-style:solid;text-indent:0;text-transform:none;white-space:normal"/>
     <path d="m536-160c-8.7948 0-16 7.2052-16 16v24c0 8.7948 7.2052 16 16 16s16-7.2052 16-16v-24c0-8.7948-7.2052-16-16-16zm0 8c4.5012 0 8 3.4988 8 8v24c0 4.5012-3.4988 8-8 8s-8-3.4988-8-8v-24c0-4.5012 3.4988-8 8-8z" color="#000000" color-rendering="auto" enable-background="accumulate" image-rendering="auto" solid-color="#000000" style="isolation:auto;mix-blend-mode:normal;text-decoration-color:#000000;text-decoration-line:none;text-decoration-style:solid;text-indent:0;text-transform:none;white-space:normal"/>
     <path d="m576-160-4 8h8v48h8v-56z" color="#000000" color-rendering="auto" enable-background="accumulate" fill-rule="evenodd" image-rendering="auto" solid-color="#000000" style="isolation:auto;mix-blend-mode:normal;text-decoration-color:#000000;text-decoration-line:none;text-decoration-style:solid;text-indent:0;text-transform:none;white-space:normal"/>
     <path d="m336-80-4 8h8v48h8v-56z" color="#000000" color-rendering="auto" enable-background="accumulate" fill-rule="evenodd" image-rendering="auto" solid-color="#000000" style="isolation:auto;mix-blend-mode:normal;text-decoration-color:#000000;text-decoration-line:none;text-decoration-style:solid;text-indent:0;text-transform:none;white-space:normal"/>
     <path d="m392-80c-8.7948 0-16 7.2052-16 16v24c0 8.7948 7.2052 16 16 16s16-7.2052 16-16v-24c0-8.7948-7.2052-16-16-16zm0 8c4.5012 0 8 3.4988 8 8v24c0 4.5012-3.4988 8-8 8s-8-3.4988-8-8v-24c0-4.5012 3.4988-8 8-8z" color="#000000" color-rendering="auto" enable-background="accumulate" image-rendering="auto" solid-color="#000000" style="isolation:auto;mix-blend-mode:normal;text-decoration-color:#000000;text-decoration-line:none;text-decoration-style:solid;text-indent:0;text-transform:none;white-space:normal"/>
     <path d="m432-80-4 8h8v48h8v-56z" color="#000000" color-rendering="auto" enable-background="accumulate" fill-rule="evenodd" image-rendering="auto" solid-color="#000000" style="isolation:auto;mix-blend-mode:normal;text-decoration-color:#000000;text-decoration-line:none;text-decoration-style:solid;text-indent:0;text-transform:none;white-space:normal"/>
     <path d="m584-80c-8.7948 0-16 7.2052-16 16v24c0 8.7948 7.2052 16 16 16s16-7.2052 16-16v-24c0-8.7948-7.2052-16-16-16zm0 8c4.5012 0 8 3.4988 8 8v24c0 4.5012-3.4988 8-8 8s-8-3.4988-8-8v-24c0-4.5012 3.4988-8 8-8z" color="#000000" color-rendering="auto" enable-background="accumulate" image-rendering="auto" solid-color="#000000" style="isolation:auto;mix-blend-mode:normal;text-decoration-color:#000000;text-decoration-line:none;text-decoration-style:solid;text-indent:0;text-transform:none;white-space:normal"/>
     <path d="m536-80c-8.7948 0-16 7.2052-16 16v24c0 8.7948 7.2052 16 16 16s16-7.2052 16-16v-24c0-8.7948-7.2052-16-16-16zm0 8c4.5012 0 8 3.4988 8 8v24c0 4.5012-3.4988 8-8 8s-8-3.4988-8-8v-24c0-4.5012 3.4988-8 8-8z" color="#000000" color-rendering="auto" enable-background="accumulate" image-rendering="auto" solid-color="#000000" style="isolation:auto;mix-blend-mode:normal;text-decoration-color:#000000;text-decoration-line:none;text-decoration-style:solid;text-indent:0;text-transform:none;white-space:normal"/>
     <path d="m480-80-4 8h8v48h8v-56z" color="#000000" color-rendering="auto" enable-background="accumulate" fill-rule="evenodd" image-rendering="auto" solid-color="#000000" style="isolation:auto;mix-blend-mode:normal;text-decoration-color:#000000;text-decoration-line:none;text-decoration-style:solid;text-indent:0;text-transform:none;white-space:normal"/>
     <path d="m392 0c-8.7948 0-16 7.2052-16 16v24c0 8.7948 7.2052 16 16 16s16-7.2052 16-16v-24c0-8.7948-7.2052-16-16-16zm0 8c4.5012 0 8 3.4988 8 8v24c0 4.5012-3.4988 8-8 8s-8-3.4988-8-8v-24c0-4.5012 3.4988-8 8-8z" color="#000000" color-rendering="auto" enable-background="accumulate" image-rendering="auto" solid-color="#000000" style="isolation:auto;mix-blend-mode:normal;text-decoration-color:#000000;text-decoration-line:none;text-decoration-style:solid;text-indent:0;text-transform:none;white-space:normal"/>
     <path d="m432 0-4 8h8v48h8v-56z" color="#000000" color-rendering="auto" enable-background="accumulate" fill-rule="evenodd" image-rendering="auto" solid-color="#000000" style="isolation:auto;mix-blend-mode:normal;text-decoration-color:#000000;text-decoration-line:none;text-decoration-style:solid;text-indent:0;text-transform:none;white-space:normal"/>
     <path d="m488 0c-8.7948 0-16 7.2052-16 16v24c0 8.7948 7.2052 16 16 16s16-7.2052 16-16v-24c0-8.7948-7.2052-16-16-16zm0 8c4.5012 0 8 3.4988 8 8v24c0 4.5012-3.4988 8-8 8s-8-3.4988-8-8v-24c0-4.5012 3.4988-8 8-8z" color="#000000" color-rendering="auto" enable-background="accumulate" image-rendering="auto" solid-color="#000000" style="isolation:auto;mix-blend-mode:normal;text-decoration-color:#000000;text-decoration-line:none;text-decoration-style:solid;text-indent:0;text-transform:none;white-space:normal"/>
     <path d="m536 0c-8.7948 0-16 7.2052-16 16v24c0 8.7948 7.2052 16 16 16s16-7.2052 16-16v-24c0-8.7948-7.2052-16-16-16zm0 8c4.5012 0 8 3.4988 8 8v24c0 4.5012-3.4988 8-8 8s-8-3.4988-8-8v-24c0-4.5012 3.4988-8 8-8z" color="#000000" color-rendering="auto" enable-background="accumulate" image-rendering="auto" solid-color="#000000" style="isolation:auto;mix-blend-mode:normal;text-decoration-color:#000000;text-decoration-line:none;text-decoration-style:solid;text-indent:0;text-transform:none;white-space:normal"/>
     <path d="m576 0-4 8h8v48h8v-56z" color="#000000" color-rendering="auto" enable-background="accumulate" fill-rule="evenodd" image-rendering="auto" solid-color="#000000" style="isolation:auto;mix-blend-mode:normal;text-decoration-color:#000000;text-decoration-line:none;text-decoration-style:solid;text-indent:0;text-transform:none;white-space:normal"/>
     <path d="m336 80-4 8h8v48h8v-56z" color="#000000" color-rendering="auto" enable-background="accumulate" fill-rule="evenodd" image-rendering="auto" solid-color="#000000" style="isolation:auto;mix-blend-mode:normal;text-decoration-color:#000000;text-decoration-line:none;text-decoration-style:solid;text-indent:0;text-transform:none;white-space:normal"/>
     <g>
      <path d="m392 80c-8.7948 0-16 7.2052-16 16v24c0 8.7948 7.2052 16 16 16s16-7.2052 16-16v-24c0-8.7948-7.2052-16-16-16zm0 8c4.5012 0 8 3.4988 8 8v24c0 4.5012-3.4988 8-8 8s-8-3.4988-8-8v-24c0-4.5012 3.4988-8 8-8z" color="#000000" color-rendering="auto" enable-background="accumulate" image-rendering="auto" solid-color="#000000" style="isolation:auto;mix-blend-mode:normal;text-decoration-color:#000000;text-decoration-line:none;text-decoration-style:solid;text-indent:0;text-transform:none;white-space:normal"/>
      <path d="m488 80c-8.7948 0-16 7.2052-16 16v24c0 8.7948 7.2052 16 16 16s16-7.2052 16-16v-24c0-8.7948-7.2052-16-16-16zm0 8c4.5012 0 8 3.4988 8 8v24c0 4.5012-3.4988 8-8 8s-8-3.4988-8-8v-24c0-4.5012 3.4988-8 8-8z" color="#000000" color-rendering="auto" enable-background="accumulate" image-rendering="auto" solid-color="#000000" style="isolation:auto;mix-blend-mode:normal;text-decoration-color:#000000;text-decoration-line:none;text-decoration-style:solid;text-indent:0;text-transform:none;white-space:normal"/>
      <path d="m536 80c-8.7948 0-16 7.2052-16 16v24c0 8.7948 7.2052 16 16 16s16-7.2052 16-16v-24c0-8.7948-7.2052-16-16-16zm0 8c4.5012 0 8 3.4988 8 8v24c0 4.5012-3.4988 8-8 8s-8-3.4988-8-8v-24c0-4.5012 3.4988-8 8-8z" color="#000000" color-rendering="auto" enable-background="accumulate" image-rendering="auto" solid-color="#000000" style="isolation:auto;mix-blend-mode:normal;text-decoration-color:#000000;text-decoration-line:none;text-decoration-style:solid;text-indent:0;text-transform:none;white-space:normal"/>
     </g>
     <path d="m576 80-4 8h8v48h8v-56z" color="#000000" color-rendering="auto" enable-background="accumulate" fill-rule="evenodd" image-rendering="auto" solid-color="#000000" style="isolation:auto;mix-blend-mode:normal;text-decoration-color:#000000;text-decoration-line:none;text-decoration-style:solid;text-indent:0;text-transform:none;white-space:normal"/>
     <path d="m392 160c-8.7948 0-16 7.2052-16 16v24c0 8.7948 7.2052 16 16 16s16-7.2052 16-16v-24c0-8.7948-7.2052-16-16-16zm0 8c4.5012 0 8 3.4988 8 8v24c0 4.5012-3.4988 8-8 8s-8-3.4988-8-8v-24c0-4.5012 3.4988-8 8-8z" color="#000000" color-rendering="auto" enable-background="accumulate" image-rendering="auto" solid-color="#000000" style="isolation:auto;mix-blend-mode:normal;text-decoration-color:#000000;text-decoration-line:none;text-decoration-style:solid;text-indent:0;text-transform:none;white-space:normal"/>
     <path d="m432 160-4 8h8v48h8v-56z" color="#000000" color-rendering="auto" enable-background="accumulate" fill-rule="evenodd" image-rendering="auto" solid-color="#000000" style="isolation:auto;mix-blend-mode:normal;text-decoration-color:#000000;text-decoration-line:none;text-decoration-style:solid;text-indent:0;text-transform:none;white-space:normal"/>
     <path d="m488 160c-8.7948 0-16 7.2052-16 16v24c0 8.7948 7.2052 16 16 16s16-7.2052 16-16v-24c0-8.7948-7.2052-16-16-16zm0 8c4.5012 0 8 3.4988 8 8v24c0 4.5012-3.4988 8-8 8s-8-3.4988-8-8v-24c0-4.5012 3.4988-8 8-8z" color="#000000" color-rendering="auto" enable-background="accumulate" image-rendering="auto" solid-color="#000000" style="isolation:auto;mix-blend-mode:normal;text-decoration-color:#000000;text-decoration-line:none;text-decoration-style:solid;text-indent:0;text-transform:none;white-space:normal"/>
     <path d="m536 160c-8.7948 0-16 7.2052-16 16v24c0 8.7948 7.2052 16 16 16s16-7.2052 16-16v-24c0-8.7948-7.2052-16-16-16zm0 8c4.5012 0 8 3.4988 8 8v24c0 4.5012-3.4988 8-8 8s-8-3.4988-8-8v-24c0-4.5012 3.4988-8 8-8z" color="#000000" color-rendering="auto" enable-background="accumulate" image-rendering="auto" solid-color="#000000" style="isolation:auto;mix-blend-mode:normal;text-decoration-color:#000000;text-decoration-line:none;text-decoration-style:solid;text-indent:0;text-transform:none;white-space:normal"/>
     <path d="m576 160-4 8h8v48h8v-56z" color="#000000" color-rendering="auto" enable-background="accumulate" fill-rule="evenodd" image-rendering="auto" solid-color="#000000" style="isolation:auto;mix-blend-mode:normal;text-decoration-color:#000000;text-decoration-line:none;text-decoration-style:solid;text-indent:0;text-transform:none;white-space:normal"/>
     <g>
      <path d="m440 80c-8.7948 0-16 7.2052-16 16v24c0 8.7948 7.2052 16 16 16s16-7.2052 16-16v-24c0-8.7948-7.2052-16-16-16zm0 8c4.5012 0 8 3.4988 8 8v24c0 4.5012-3.4988 8-8 8s-8-3.4988-8-8v-24c0-4.5012 3.4988-8 8-8z" color="#000000" color-rendering="auto" enable-background="accumulate" image-rendering="auto" solid-color="#000000" style="isolation:auto;mix-blend-mode:normal;text-decoration-color:#000000;text-decoration-line:none;text-decoration-style:solid;text-indent:0;text-transform:none;white-space:normal"/>
      <path d="m344 160c-8.7948 0-16 7.2052-16 16v24c0 8.7948 7.2052 16 16 16s16-7.2052 16-16v-24c0-8.7948-7.2052-16-16-16zm0 8c4.5012 0 8 3.4988 8 8v24c0 4.5012-3.4988 8-8 8s-8-3.4988-8-8v-24c0-4.5012 3.4988-8 8-8z" color="#000000" color-rendering="auto" enable-background="accumulate" image-rendering="auto" solid-color="#000000" style="isolation:auto;mix-blend-mode:normal;text-decoration-color:#000000;text-decoration-line:none;text-decoration-style:solid;text-indent:0;text-transform:none;white-space:normal"/>
      <path d="m344 0c-8.7948 0-16 7.2052-16 16v24c0 8.7948 7.2052 16 16 16s16-7.2052 16-16v-24c0-8.7948-7.2052-16-16-16zm0 8c4.5012 0 8 3.4988 8 8v24c0 4.5012-3.4988 8-8 8s-8-3.4988-8-8v-24c0-4.5012 3.4988-8 8-8z" color="#000000" color-rendering="auto" enable-background="accumulate" image-rendering="auto" solid-color="#000000" style="isolation:auto;mix-blend-mode:normal;text-decoration-color:#000000;text-decoration-line:none;text-decoration-style:solid;text-indent:0;text-transform:none;white-space:normal"/>
     </g>
    </g>
    <circle cx="584" cy="152" r="120" enable-background="new" filter="url(#b)" opacity=".5"/>
    <circle cx="584" cy="148" r="120" enable-background="new" fill="#00bcd4"/>
    <path d="m528 175.49v28.51h28.51l64.007-64.007-28.51-28.51zm117.74-60.626c3.0156-3.0155 3.0156-7.7672 0-10.783l-17.819-17.819c-3.0156-3.0156-7.7673-3.0156-10.783 0l-14.895 14.986 28.51 28.51z" enable-background="new" fill="#fff"/>
   </g>
  </g>
 </g>
</svg>
