<svg xmlns="http://www.w3.org/2000/svg" width="512" height="512" enable-background="new" version="1.0"><defs><filter id="a" width="1.054" height="1.043" x="-.027" y="-.021" color-interpolation-filters="sRGB"><feGaussianBlur stdDeviation="4"/></filter><filter id="b" width="1.12" height="1.12" x="-.06" y="-.06" color-interpolation-filters="sRGB"><feGaussianBlur stdDeviation="6"/></filter></defs><g transform="translate(-208 226.8)"><path d="M640 230v-400c0-13.296-10.704-24-24-24H312c-13.296 0-24 10.704-24 24v400c0 13.296 10.704 24 24 24h304c13.296 0 24-10.704 24-24" enable-background="new" opacity=".2"/><path stroke="#000" stroke-width="8" d="M640 232v-400c0-13.296-10.704-24-24-24H312c-13.296 0-24 10.704-24 24v400c0 13.296 10.704 24 24 24h304c13.296 0 24-10.704 24-24z" enable-background="new" filter="url(#a)" opacity=".1"/><path d="M640 232v-400c0-13.296-10.704-24-24-24H312c-13.296 0-24 10.704-24 24v400c0 13.296 10.704 24 24 24h304c13.296 0 24-10.704 24-24" enable-background="new" filter="url(#a)" opacity=".2"/><path fill="#ebebeb" d="M640 228v-400c0-13.296-10.704-24-24-24H312c-13.296 0-24 10.704-24 24v400c0 13.296 10.704 24 24 24h304c13.296 0 24-10.704 24-24" enable-background="new"/><path fill="#fff" d="M312-196c-13.296 0-24 10.704-24 24v2c0-13.296 10.704-24 24-24h304c13.296 0 24 10.704 24 24v-2c0-13.296-10.704-24-24-24z" enable-background="new" opacity=".1"/><g fill="#999" color="#000"><path fill-rule="evenodd" d="m336-160-4 8h8v48h8v-56z" enable-background="accumulate" style="isolation:auto;mix-blend-mode:normal;text-decoration-color:#000;text-decoration-line:none;text-decoration-style:solid;text-indent:0;text-transform:none;white-space:normal"/><path d="M392-160c-8.795 0-16 7.205-16 16v24c0 8.795 7.205 16 16 16s16-7.205 16-16v-24c0-8.795-7.205-16-16-16m0 8c4.501 0 8 3.499 8 8v24c0 4.501-3.499 8-8 8s-8-3.499-8-8v-24c0-4.501 3.499-8 8-8" enable-background="accumulate" style="isolation:auto;mix-blend-mode:normal;text-decoration-color:#000;text-decoration-line:none;text-decoration-style:solid;text-indent:0;text-transform:none;white-space:normal"/><path fill-rule="evenodd" d="m432-160-4 8h8v48h8v-56z" enable-background="accumulate" style="isolation:auto;mix-blend-mode:normal;text-decoration-color:#000;text-decoration-line:none;text-decoration-style:solid;text-indent:0;text-transform:none;white-space:normal"/><path d="M488-160c-8.795 0-16 7.205-16 16v24c0 8.795 7.205 16 16 16s16-7.205 16-16v-24c0-8.795-7.205-16-16-16m0 8c4.501 0 8 3.499 8 8v24c0 4.501-3.499 8-8 8s-8-3.499-8-8v-24c0-4.501 3.499-8 8-8M536-160c-8.795 0-16 7.205-16 16v24c0 8.795 7.205 16 16 16s16-7.205 16-16v-24c0-8.795-7.205-16-16-16m0 8c4.501 0 8 3.499 8 8v24c0 4.501-3.499 8-8 8s-8-3.499-8-8v-24c0-4.501 3.499-8 8-8" enable-background="accumulate" style="isolation:auto;mix-blend-mode:normal;text-decoration-color:#000;text-decoration-line:none;text-decoration-style:solid;text-indent:0;text-transform:none;white-space:normal"/><path fill-rule="evenodd" d="m576-160-4 8h8v48h8v-56zM336-80l-4 8h8v48h8v-56z" enable-background="accumulate" style="isolation:auto;mix-blend-mode:normal;text-decoration-color:#000;text-decoration-line:none;text-decoration-style:solid;text-indent:0;text-transform:none;white-space:normal"/><path d="M392-80c-8.795 0-16 7.205-16 16v24c0 8.795 7.205 16 16 16s16-7.205 16-16v-24c0-8.795-7.205-16-16-16m0 8c4.501 0 8 3.499 8 8v24c0 4.501-3.499 8-8 8s-8-3.499-8-8v-24c0-4.501 3.499-8 8-8" enable-background="accumulate" style="isolation:auto;mix-blend-mode:normal;text-decoration-color:#000;text-decoration-line:none;text-decoration-style:solid;text-indent:0;text-transform:none;white-space:normal"/><path fill-rule="evenodd" d="m432-80-4 8h8v48h8v-56z" enable-background="accumulate" style="isolation:auto;mix-blend-mode:normal;text-decoration-color:#000;text-decoration-line:none;text-decoration-style:solid;text-indent:0;text-transform:none;white-space:normal"/><path d="M584-80c-8.795 0-16 7.205-16 16v24c0 8.795 7.205 16 16 16s16-7.205 16-16v-24c0-8.795-7.205-16-16-16m0 8c4.501 0 8 3.499 8 8v24c0 4.501-3.499 8-8 8s-8-3.499-8-8v-24c0-4.501 3.499-8 8-8M536-80c-8.795 0-16 7.205-16 16v24c0 8.795 7.205 16 16 16s16-7.205 16-16v-24c0-8.795-7.205-16-16-16m0 8c4.501 0 8 3.499 8 8v24c0 4.501-3.499 8-8 8s-8-3.499-8-8v-24c0-4.501 3.499-8 8-8" enable-background="accumulate" style="isolation:auto;mix-blend-mode:normal;text-decoration-color:#000;text-decoration-line:none;text-decoration-style:solid;text-indent:0;text-transform:none;white-space:normal"/><path fill-rule="evenodd" d="m480-80-4 8h8v48h8v-56z" enable-background="accumulate" style="isolation:auto;mix-blend-mode:normal;text-decoration-color:#000;text-decoration-line:none;text-decoration-style:solid;text-indent:0;text-transform:none;white-space:normal"/><path d="M392 0c-8.795 0-16 7.205-16 16v24c0 8.795 7.205 16 16 16s16-7.205 16-16V16c0-8.795-7.205-16-16-16m0 8c4.501 0 8 3.499 8 8v24c0 4.501-3.499 8-8 8s-8-3.499-8-8V16c0-4.501 3.499-8 8-8" enable-background="accumulate" style="isolation:auto;mix-blend-mode:normal;text-decoration-color:#000;text-decoration-line:none;text-decoration-style:solid;text-indent:0;text-transform:none;white-space:normal"/><path fill-rule="evenodd" d="m432 0-4 8h8v48h8V0z" enable-background="accumulate" style="isolation:auto;mix-blend-mode:normal;text-decoration-color:#000;text-decoration-line:none;text-decoration-style:solid;text-indent:0;text-transform:none;white-space:normal"/><path d="M488 0c-8.795 0-16 7.205-16 16v24c0 8.795 7.205 16 16 16s16-7.205 16-16V16c0-8.795-7.205-16-16-16m0 8c4.501 0 8 3.499 8 8v24c0 4.501-3.499 8-8 8s-8-3.499-8-8V16c0-4.501 3.499-8 8-8M536 0c-8.795 0-16 7.205-16 16v24c0 8.795 7.205 16 16 16s16-7.205 16-16V16c0-8.795-7.205-16-16-16m0 8c4.501 0 8 3.499 8 8v24c0 4.501-3.499 8-8 8s-8-3.499-8-8V16c0-4.501 3.499-8 8-8" enable-background="accumulate" style="isolation:auto;mix-blend-mode:normal;text-decoration-color:#000;text-decoration-line:none;text-decoration-style:solid;text-indent:0;text-transform:none;white-space:normal"/><path fill-rule="evenodd" d="m576 0-4 8h8v48h8V0zM336 80l-4 8h8v48h8V80z" enable-background="accumulate" style="isolation:auto;mix-blend-mode:normal;text-decoration-color:#000;text-decoration-line:none;text-decoration-style:solid;text-indent:0;text-transform:none;white-space:normal"/><path d="M392 80c-8.795 0-16 7.205-16 16v24c0 8.795 7.205 16 16 16s16-7.205 16-16V96c0-8.795-7.205-16-16-16m0 8c4.501 0 8 3.499 8 8v24c0 4.501-3.499 8-8 8s-8-3.499-8-8V96c0-4.501 3.499-8 8-8M488 80c-8.795 0-16 7.205-16 16v24c0 8.795 7.205 16 16 16s16-7.205 16-16V96c0-8.795-7.205-16-16-16m0 8c4.501 0 8 3.499 8 8v24c0 4.501-3.499 8-8 8s-8-3.499-8-8V96c0-4.501 3.499-8 8-8M536 80c-8.795 0-16 7.205-16 16v24c0 8.795 7.205 16 16 16s16-7.205 16-16V96c0-8.795-7.205-16-16-16m0 8c4.501 0 8 3.499 8 8v24c0 4.501-3.499 8-8 8s-8-3.499-8-8V96c0-4.501 3.499-8 8-8" enable-background="accumulate" style="isolation:auto;mix-blend-mode:normal;text-decoration-color:#000;text-decoration-line:none;text-decoration-style:solid;text-indent:0;text-transform:none;white-space:normal"/><path fill-rule="evenodd" d="m576 80-4 8h8v48h8V80z" enable-background="accumulate" style="isolation:auto;mix-blend-mode:normal;text-decoration-color:#000;text-decoration-line:none;text-decoration-style:solid;text-indent:0;text-transform:none;white-space:normal"/><path d="M392 160c-8.795 0-16 7.205-16 16v24c0 8.795 7.205 16 16 16s16-7.205 16-16v-24c0-8.795-7.205-16-16-16m0 8c4.501 0 8 3.499 8 8v24c0 4.501-3.499 8-8 8s-8-3.499-8-8v-24c0-4.501 3.499-8 8-8" enable-background="accumulate" style="isolation:auto;mix-blend-mode:normal;text-decoration-color:#000;text-decoration-line:none;text-decoration-style:solid;text-indent:0;text-transform:none;white-space:normal"/><path fill-rule="evenodd" d="m432 160-4 8h8v48h8v-56z" enable-background="accumulate" style="isolation:auto;mix-blend-mode:normal;text-decoration-color:#000;text-decoration-line:none;text-decoration-style:solid;text-indent:0;text-transform:none;white-space:normal"/><path d="M488 160c-8.795 0-16 7.205-16 16v24c0 8.795 7.205 16 16 16s16-7.205 16-16v-24c0-8.795-7.205-16-16-16m0 8c4.501 0 8 3.499 8 8v24c0 4.501-3.499 8-8 8s-8-3.499-8-8v-24c0-4.501 3.499-8 8-8M536 160c-8.795 0-16 7.205-16 16v24c0 8.795 7.205 16 16 16s16-7.205 16-16v-24c0-8.795-7.205-16-16-16m0 8c4.501 0 8 3.499 8 8v24c0 4.501-3.499 8-8 8s-8-3.499-8-8v-24c0-4.501 3.499-8 8-8" enable-background="accumulate" style="isolation:auto;mix-blend-mode:normal;text-decoration-color:#000;text-decoration-line:none;text-decoration-style:solid;text-indent:0;text-transform:none;white-space:normal"/><path fill-rule="evenodd" d="m576 160-4 8h8v48h8v-56z" enable-background="accumulate" style="isolation:auto;mix-blend-mode:normal;text-decoration-color:#000;text-decoration-line:none;text-decoration-style:solid;text-indent:0;text-transform:none;white-space:normal"/><path d="M440 80c-8.795 0-16 7.205-16 16v24c0 8.795 7.205 16 16 16s16-7.205 16-16V96c0-8.795-7.205-16-16-16m0 8c4.501 0 8 3.499 8 8v24c0 4.501-3.499 8-8 8s-8-3.499-8-8V96c0-4.501 3.499-8 8-8M344 160c-8.795 0-16 7.205-16 16v24c0 8.795 7.205 16 16 16s16-7.205 16-16v-24c0-8.795-7.205-16-16-16m0 8c4.501 0 8 3.499 8 8v24c0 4.501-3.499 8-8 8s-8-3.499-8-8v-24c0-4.501 3.499-8 8-8M344 0c-8.795 0-16 7.205-16 16v24c0 8.795 7.205 16 16 16s16-7.205 16-16V16c0-8.795-7.205-16-16-16m0 8c4.501 0 8 3.499 8 8v24c0 4.501-3.499 8-8 8s-8-3.499-8-8V16c0-4.501 3.499-8 8-8" enable-background="accumulate" style="isolation:auto;mix-blend-mode:normal;text-decoration-color:#000;text-decoration-line:none;text-decoration-style:solid;text-indent:0;text-transform:none;white-space:normal"/></g><circle cx="584" cy="152" r="120" enable-background="new" filter="url(#b)" opacity=".5"/><circle cx="584" cy="148" r="120" fill="#00bcd4" enable-background="new"/><path fill="#fff" d="M528 175.49V204h28.51l64.007-64.007-28.51-28.51zm117.74-60.626c3.016-3.015 3.016-7.767 0-10.783l-17.819-17.819c-3.016-3.016-7.767-3.016-10.783 0l-14.895 14.986 28.51 28.51z" enable-background="new"/></g></svg>