<svg xmlns="http://www.w3.org/2000/svg" width="512" height="512" enable-background="new" version="1.0"><defs><filter id="a" width="1.048" height="1.048" x="-.024" y="-.024" color-interpolation-filters="sRGB"><feGaussianBlur stdDeviation="4.48"/></filter></defs><g transform="translate(-208 228)"><rect width="448" height="448" x="-254" y="-688" opacity=".2" rx="36" ry="36" transform="scale(1 -1)rotate(90)"/><rect width="448" height="448" x="-256" y="-688" filter="url(#a)" opacity=".1" rx="36" ry="36" transform="scale(1 -1)rotate(90)"/><rect width="448" height="448" x="-256" y="-688" filter="url(#a)" opacity=".2" rx="36" ry="36" transform="scale(1 -1)rotate(90)"/><path fill="#fff" d="M276-196c-19.944 0-36 16.056-36 36v2c0-19.944 16.056-36 36-36h376c19.944 0 36 16.056 36 36v-2c0-19.944-16.056-36-36-36z" opacity=".2"/></g><g transform="translate(-19.706 -758.654)scale(4.3077)"><rect width="104" height="48" x="12" y="240" fill="#c0bfbc" rx="8" ry="8"/><path fill="#f6f5f4" d="M20 182c-4.432 0-8 3.568-8 8v86c0 4.432 3.568 8 8 8h25.75l2.25-2h60c4.432 0 8-3.568 8-8v-84c0-4.432-3.568-8-8-8H84v2h-4v-2H48v2h-4v-2z"/><g fill="none"><path stroke="#deddda" stroke-width="4" d="M12 252h34v-2h70"/><path stroke="#c0bfbc" stroke-width="2" d="M12 249h104"/><path stroke="#deddda" stroke-width="4" d="M12 216h104"/><path stroke="#c0bfbc" stroke-width="2" d="M12 215h104"/><path stroke="#deddda" stroke-width="4" d="M46 184v100m36-100v100"/></g></g><path fill="#9a9996" d="m109.008 89.933 13.237-15.077v-8.8H81.193v10.89h24.967L94.094 90.6v8.968h6.203c7.707 0 10.972 2.766 10.972 7.203 0 4.777-4.187 7.538-10.976 7.538-6.117 0-12.316-1.921-16.757-5.272l-5.277 10.385c5.7 4.024 14.16 6.285 22.37 6.285 16.67 0 24.296-9.046 24.296-18.936 0-8.629-5.36-15.163-15.917-16.84" aria-label="3" font-size="19.449" font-weight="700" letter-spacing="0" word-spacing="0"/><path fill="#c0bfbc" d="m109.008 395.995 13.237-15.077v-8.8H81.193v10.894h24.967l-12.066 13.655v8.96h6.203c7.707 0 10.972 2.77 10.972 7.211 0 4.773-4.187 7.539-10.976 7.539-6.117 0-12.316-1.926-16.757-5.277l-5.277 10.385c5.7 4.024 14.16 6.29 22.37 6.29 16.67 0 24.296-9.05 24.296-18.937 0-8.633-5.36-15.163-15.917-16.843" aria-label="3" font-size="19.449" font-weight="700" letter-spacing="0" word-spacing="0"/><g fill="#9a9996" stroke-width="4.862" font-size="19.449" font-weight="700" letter-spacing="0" word-spacing="0"><path d="m263.396 239.41 13.237-15.077v-8.8h-41.052v10.89h24.967l-12.061 13.655v8.968h6.198c7.707 0 10.972 2.766 10.972 7.203 0 4.777-4.187 7.538-10.972 7.538-6.117 0-12.32-1.92-16.757-5.272l-5.28 10.386c5.698 4.023 14.159 6.285 22.37 6.285 16.67 0 24.295-9.047 24.295-18.937 0-8.628-5.36-15.163-15.917-16.839m156.154 0 13.237-15.077v-8.8h-41.052v10.89h24.967l-12.061 13.655v8.968h6.199c7.706 0 10.971 2.766 10.971 7.203 0 4.777-4.187 7.538-10.971 7.538-6.117 0-12.32-1.92-16.757-5.272L388.8 268.9c5.7 4.023 14.16 6.285 22.37 6.285 16.671 0 24.296-9.047 24.296-18.937 0-8.628-5.36-15.163-15.917-16.839" aria-label="3"/><path d="m406.454 409.607 13.483-12.738c8.21-7.624 9.805-12.82 9.805-18.514 0-10.64-8.715-17.343-21.784-17.343-10.554 0-18.765 4.273-23.292 10.89l9.886 6.367c2.852-3.937 7.12-5.863 12.148-5.863 6.203 0 9.386 2.68 9.386 7.289 0 2.847-.922 5.862-6.117 10.808l-22.62 21.366v8.796h44.318v-11.062zm-151.846 0 13.483-12.738c8.21-7.624 9.804-12.82 9.804-18.514 0-10.64-8.714-17.343-21.784-17.343-10.554 0-18.764 4.273-23.291 10.89l9.886 6.367c2.851-3.937 7.12-5.863 12.147-5.863 6.203 0 9.387 2.68 9.387 7.289 0 2.847-.922 5.862-6.117 10.808l-22.62 21.366v8.796h44.318v-11.062z" aria-label="2"/><path d="M397.02 65.853v10.89h11.73v47.76h13.57v-58.65zm-158.308 0v10.89h11.73v47.76h13.57v-58.65z" aria-label="1"/><path d="m101.685 264.222 13.483-12.737c8.21-7.625 9.804-12.82 9.804-18.515 0-10.64-8.715-17.343-21.784-17.343-10.554 0-18.764 4.273-23.292 10.89l9.886 6.367c2.852-3.937 7.121-5.863 12.148-5.863 6.203 0 9.387 2.68 9.387 7.289 0 2.847-.922 5.863-6.117 10.808l-22.62 21.366v8.796h44.317v-11.062z" aria-label="2"/></g></svg>