<svg width="512" height="512" enable-background="new" version="1.0" xmlns="http://www.w3.org/2000/svg" xmlns:xlink="http://www.w3.org/1999/xlink">
 <defs>
  <filter id="a" x="-.024" y="-.024" width="1.048" height="1.048" color-interpolation-filters="sRGB">
   <feGaussianBlur stdDeviation="4.48"/>
  </filter>
 </defs>
 <g transform="translate(0,212)">
  <g transform="translate(-208,16)" enable-background="new">
   <rect transform="matrix(0,-1,-1,0,0,0)" x="-254" y="-688" width="448" height="448" rx="36" ry="36" enable-background="new" opacity=".2"/>
   <rect transform="matrix(0,-1,-1,0,0,0)" x="-256" y="-688" width="448" height="448" rx="36" ry="36" enable-background="new" filter="url(#a)" opacity=".1"/>
   <rect transform="matrix(0,-1,-1,0,0,0)" x="-256" y="-688" width="448" height="448" rx="36" ry="36" enable-background="new" filter="url(#a)" opacity=".2"/>
   <path transform="translate(0,-244)" d="m276 48c-19.944 0-36 16.056-36 36v2c0-19.944 16.056-36 36-36h376c19.944 0 36 16.056 36 36v-2c0-19.944-16.056-36-36-36z" enable-background="new" fill="#fff" opacity=".2"/>
  </g>
 </g>
 <g transform="matrix(4.3077 0 0 4.3077 1882.1 -1092.1)">
  <g transform="translate(-441.49 77.407)">
   <rect x="12" y="240" width="104" height="48" rx="8" ry="8" fill="#c0bfbc"/>
   <path d="m20 182c-4.432 0-8 3.568-8 8v86c0 4.432 3.568 8 8 8h25.75l2.25-2h60c4.432 0 8-3.568 8-8v-84c0-4.432-3.568-8-8-8h-24v2h-4v-2h-32v2h-4v-2z" fill="#f6f5f4"/>
   <g fill="none">
    <path d="m12 252h34v-2h70" stroke="#deddda" stroke-width="4"/>
    <path d="m12 249h104" stroke="#c0bfbc" stroke-width="2"/>
    <path d="m12 216h104" stroke="#deddda" stroke-width="4"/>
    <path d="m12 215h104" stroke="#c0bfbc" stroke-width="2"/>
    <path d="m46 184v100m36-100v100" stroke="#deddda" stroke-width="4"/>
   </g>
  </g>
  <path d="m-411.61 274.4 3.073-3.5v-2.043h-9.53v2.528h5.796l-2.801 3.17v2.082h1.44c1.789 0 2.547 0.642 2.547 1.672 0 1.109-0.972 1.75-2.548 1.75-1.42 0-2.859-0.446-3.89-1.224l-1.225 2.411c1.323 0.934 3.287 1.459 5.193 1.459 3.87 0 5.64-2.1 5.64-4.396 0-2.003-1.244-3.52-3.695-3.909z" fill="#9a9996" font-size="19.449" font-weight="700" letter-spacing="0" stroke-width="4.862" word-spacing="0" aria-label="3"/>
  <path d="m-411.61 345.45 3.073-3.5v-2.043h-9.53v2.529h5.796l-2.801 3.17v2.08h1.44c1.789 0 2.547 0.643 2.547 1.674 0 1.108-0.972 1.75-2.548 1.75-1.42 0-2.859-0.447-3.89-1.225l-1.225 2.411c1.323 0.934 3.287 1.46 5.193 1.46 3.87 0 5.64-2.101 5.64-4.396 0-2.004-1.244-3.52-3.695-3.91z" fill="#c0bfbc" font-size="19.449" font-weight="700" letter-spacing="0" stroke-width="4.862" word-spacing="0" aria-label="3"/>
  <g fill="#9a9996" font-size="19.449" font-weight="700" letter-spacing="0" stroke-width="4.862" word-spacing="0">
   <path d="m-375.77 309.1 3.073-3.5v-2.043h-9.53v2.528h5.796l-2.8 3.17v2.082h1.439c1.789 0 2.547 0.642 2.547 1.672 0 1.109-0.972 1.75-2.547 1.75-1.42 0-2.86-0.446-3.89-1.224l-1.226 2.411c1.323 0.934 3.287 1.459 5.193 1.459 3.87 0 5.64-2.1 5.64-4.396 0-2.003-1.244-3.52-3.695-3.909zm36.25 0 3.073-3.5v-2.043h-9.53v2.528h5.796l-2.8 3.17v2.082h1.439c1.789 0 2.547 0.642 2.547 1.672 0 1.109-0.972 1.75-2.547 1.75-1.42 0-2.86-0.446-3.89-1.224l-1.226 2.411c1.323 0.934 3.287 1.459 5.193 1.459 3.87 0 5.64-2.1 5.64-4.396 0-2.003-1.244-3.52-3.695-3.909z" aria-label="3"/>
   <path d="m-342.56 348.61 3.13-2.957c1.906-1.77 2.276-2.976 2.276-4.298 0-2.47-2.023-4.026-5.057-4.026-2.45 0-4.356 0.992-5.407 2.528l2.295 1.478c0.662-0.914 1.653-1.361 2.82-1.361 1.44 0 2.179 0.622 2.179 1.692 0 0.661-0.214 1.361-1.42 2.509l-5.251 4.96v2.042h10.288v-2.568zm-35.25 0 3.13-2.957c1.906-1.77 2.276-2.976 2.276-4.298 0-2.47-2.023-4.026-5.057-4.026-2.45 0-4.356 0.992-5.407 2.528l2.295 1.478c0.662-0.914 1.653-1.361 2.82-1.361 1.44 0 2.179 0.622 2.179 1.692 0 0.661-0.214 1.361-1.42 2.509l-5.251 4.96v2.042h10.288v-2.568z" aria-label="2"/>
   <path d="m-344.75 268.81v2.528h2.723v11.087h3.15v-13.615zm-36.75 0v2.528h2.723v11.087h3.15v-13.615z" aria-label="1"/>
   <path d="m-413.31 314.86 3.13-2.957c1.906-1.77 2.276-2.976 2.276-4.298 0-2.47-2.023-4.026-5.057-4.026-2.45 0-4.356 0.992-5.407 2.528l2.295 1.478c0.662-0.914 1.653-1.361 2.82-1.361 1.44 0 2.179 0.622 2.179 1.692 0 0.661-0.214 1.361-1.42 2.509l-5.251 4.96v2.042h10.288v-2.568z" aria-label="2"/>
  </g>
 </g>
</svg>
