<svg xmlns="http://www.w3.org/2000/svg" width="64" height="64"><defs><filter id="b" width="1.065" height="1.081" x="-.032" y="-.041" color-interpolation-filters="sRGB"><feGaussianBlur stdDeviation=".81"/></filter><filter id="a" width="1.108" height="1.135" x="-.054" y="-.068" color-interpolation-filters="sRGB"><feGaussianBlur stdDeviation="1.35"/></filter></defs><g transform="translate(0 -1058.5)"><path d="M5 8c-1.662 0-3 1.338-3 3v42c0 1.662 1.338 3 3 3h54c1.662 0 3-1.338 3-3V11c0-1.662-1.338-3-3-3z" filter="url(#a)" opacity=".15" style="paint-order:stroke fill markers" transform="translate(0 1058.5)"/><path d="M5 8c-1.662 0-3 1.338-3 3v42c0 1.662 1.338 3 3 3h54c1.662 0 3-1.338 3-3V11c0-1.662-1.338-3-3-3z" filter="url(#b)" opacity=".25" style="paint-order:stroke fill markers" transform="translate(0 1058.5)"/><path fill="#e0e0e0" d="M5 8c-1.662 0-3 1.338-3 3v4h60v-4c0-1.662-1.338-3-3-3z" style="paint-order:stroke fill markers" transform="translate(0 1058.5)"/><path fill="#455a64" d="M2 15v38c0 1.662 1.338 3 3 3h54c1.662 0 3-1.338 3-3V15z" style="paint-order:stroke fill markers" transform="translate(0 1058.5)"/><circle cx="55.5" cy="1070" r="1.5" fill="#ef5350"/><circle cx="55.5" cy="1070" r=".5" fill="#ef9a9a"/><path fill="#b0bec5" d="M17 1077.5v8h3v-2h-1v-4h1v-2h-2zm27 0v2h1v4h-1v2h3v-8h-2zm-27 10v8h3v-2h-1v-4h1v-2h-2zm27 0v2h1v4h-1v2h3v-8h-2zm-27 10v8h3v-2h-1v-4h1v-2h-2zm27 0v2h1v4h-1v2h3v-8h-2z"/><path fill="#81c784" d="M21 1077.5v8h2v-8zm4 0v8h2v-8zm12 0v8h2v-8zm4 0v8h2v-8zm-20 10v8h2v-8zm4 0v8h2v-8zm4 0v8h2v-8zm4 0v8h2v-8zm4 0v8h2v-8zm4 0v8h2v-8zm-20 10v8h2v-8zm4 0v8h2v-8zm12 0v8h2v-8zm4 0v8h2v-8z"/><path fill="#80deea" d="M6 1110.5v1c0 .554.446 1 1 1h3v-2H7zm6 0v2h4v-2zm6 0v2h4v-2zm6 0v2h4v-2zm6 0v2h27c.554 0 1-.446 1-1v-1H34z"/></g></svg>