<svg xmlns="http://www.w3.org/2000/svg" width="512" height="512" enable-background="new" version="1.0"><defs><filter id="a" width="1.048" height="1.048" x="-.024" y="-.024" color-interpolation-filters="sRGB"><feGaussianBlur stdDeviation="4.48"/></filter></defs><g transform="translate(-208 1220)"><rect width="448" height="448" x="-256" y="-688" stroke="#000" stroke-width="8" filter="url(#a)" opacity=".1" rx="24" ry="24" transform="matrix(0 -1 -1 0 0 -996)"/><rect width="448" height="448" x="-256" y="-688" filter="url(#a)" opacity=".2" rx="24" ry="24" transform="matrix(0 -1 -1 0 0 -996)"/><rect width="448" height="448" x="744" y="-688" fill="#2095f2" rx="24" ry="24" transform="scale(1 -1)rotate(90)"/><path fill="#fff" d="M264-1192c-13.296 0-24 10.704-24 24v2c0-13.296 10.704-24 24-24h400c13.296 0 24 10.704 24 24v-2c0-13.296-10.704-24-24-24z" opacity=".1"/><path d="M664-744c13.296 0 24-10.704 24-24v-2c0 13.296-10.704 24-24 24H264c-13.296 0-24-10.704-24-24v2c0 13.296 10.704 24 24 24z" opacity=".2"/><path fill="#fff" d="m421.457-1001.093 4.05 24.303-39.154 21.604v105.314q0 20.253-6.75 28.354-6.753 8.1-22.953 8.101-18.902 0-35.106-4.05l-5.4-28.354q17.55 5.4 36.456 5.4 6.75 0 6.75-16.201v-85.061q-21.601 9.45-45.906 18.902l-9.451-28.353q29.704-10.801 55.357-21.604v-68.859h-44.556v-25.653h44.556v-56.707h27.003v56.707h37.806v25.653h-37.806v58.058a638 638 0 0 1 35.106-17.553m135.018-122.867 29.704 8.101q-14.852 29.704-29.704 52.659h56.708v25.652h-37.807v72.91h48.608v25.653h-48.608v125.568h-27.003v-125.568h-59.408q-9.451 86.411-64.81 126.919l-18.902-20.253q47.257-35.104 55.357-106.665h-41.856v-25.653h44.556q1.35-10.802 1.35-22.952v-49.958h-35.105v-25.653h98.565q16.202-28.353 28.353-60.758m-8.1 159.323v-72.91h-56.708v54.007q0 9.452-1.35 18.903zm-72.91-155.273q16.203 18.903 24.303 41.856l-28.353 9.451q-8.102-24.303-22.953-43.206z"/></g></svg>