<svg xmlns="http://www.w3.org/2000/svg" width="512" height="512" enable-background="new" version="1.0"><defs><filter id="a" width="1.066" height="1.066" x="-.033" y="-.033" color-interpolation-filters="sRGB"><feGaussianBlur stdDeviation="4.48"/></filter></defs><rect width="448" height="448" x="-256" y="-688" stroke="#000" stroke-width="8" filter="url(#a)" opacity=".1" rx="24" ry="24" transform="matrix(0 -1 -1 0 -208 228)"/><rect width="448" height="448" x="-256" y="-688" filter="url(#a)" opacity=".2" rx="24" ry="24" transform="matrix(0 -1 -1 0 -208 228)"/><rect width="448" height="448" x="-480" y="-480" fill="#2095f2" rx="24" ry="24" transform="scale(1 -1)rotate(90)"/><path fill="#fff" d="M56 32c-13.296 0-24 10.704-24 24v2c0-13.296 10.704-24 24-24h400c13.296 0 24 10.704 24 24v-2c0-13.296-10.704-24-24-24z" opacity=".1"/><path d="M456 480c13.296 0 24-10.704 24-24v-2c0 13.296-10.704 24-24 24H56c-13.296 0-24-10.704-24-24v2c0 13.296 10.704 24 24 24z" opacity=".2"/><path fill="#fff" d="M349.13 153.11c-36.573 7.989-77.763 12.599-112.49 14.443l1.844-9.22c2.154-10.144 3.688-20.286 7.067-31.04l-43.027-1.845c.31 10.143 0 17.52-1.535 30.738-.31 3.689-1.231 7.68-1.844 12.29-18.44-.303-41.493-2.767-59.63-5.836v37.804c15.371 1.535 33.193 2.767 52.556 3.07-7.988 33.503-20.285 74.074-34.729 102.05l35.96 12.908c3.076-5.23 5.223-9.22 8.609-13.219 18.13-23.36 49.172-35.96 84.21-35.96 29.506 0 45.49 15.365 45.49 33.504 0 44.871-67.31 52.86-134.01 42.105l10.763 39.34c98.35 10.451 164.13-14.134 164.13-82.677 0-38.727-32.582-65.157-81.761-65.157-27.964 0-51.016 5.533-75.61 19.054 4.92-14.753 9.84-34.116 13.832-52.557 40.88-2.154 89.137-7.989 120.79-12.909z"/></svg>