<svg width="512" height="512" enable-background="new" version="1.0" xmlns="http://www.w3.org/2000/svg">
 <defs>
  <filter id="a" x="-.032929" y="-.032929" width="1.0659" height="1.0659" color-interpolation-filters="sRGB">
   <feGaussianBlur stdDeviation="4.48"/>
  </filter>
 </defs>
 <g transform="translate(0,212)">
  <g transform="translate(-208,656)">
   <rect transform="matrix(0,-1,-1,0,0,-640)" x="-256" y="-688" width="448" height="448" rx="24" ry="24" filter="url(#a)" opacity=".1" stroke="#000" stroke-width="8"/>
   <rect transform="matrix(0,-1,-1,0,0,-640)" x="-256" y="-688" width="448" height="448" rx="24" ry="24" filter="url(#a)" opacity=".2"/>
   <rect transform="matrix(0,-1,-1,0,0,0)" x="388" y="-688" width="448" height="448" rx="24" ry="24" fill="#2095f2"/>
   <path d="m264-836c-13.296 0-24 10.704-24 24v2c0-13.296 10.704-24 24-24h400c13.296 0 24 10.704 24 24v-2c0-13.296-10.704-24-24-24z" fill="#fff" opacity=".1"/>
   <path d="m664-388c13.296 0 24-10.704 24-24v-2c0 13.296-10.704 24-24 24h-400c-13.296 0-24-10.704-24-24v2c0 13.296 10.704 24 24 24z" opacity=".2"/>
   <path d="m405.22-741.8-61.067 79.238h234.09c-3.6454 87.072-20.666 187.27-165.72 178.28" fill="none" stroke="#ffffff" stroke-linejoin="bevel" stroke-width="32"/>
  </g>
 </g>
</svg>
