<svg xmlns="http://www.w3.org/2000/svg" width="512" height="512" enable-background="new" version="1.0"><defs><filter id="a" width="1.066" height="1.066" x="-.033" y="-.033" color-interpolation-filters="sRGB"><feGaussianBlur stdDeviation="4.48"/></filter></defs><g transform="translate(-208 868)"><rect width="448" height="448" x="-256" y="-688" stroke="#000" stroke-width="8" filter="url(#a)" opacity=".1" rx="24" ry="24" transform="matrix(0 -1 -1 0 0 -640)"/><rect width="448" height="448" x="-256" y="-688" filter="url(#a)" opacity=".2" rx="24" ry="24" transform="matrix(0 -1 -1 0 0 -640)"/><rect width="448" height="448" x="388" y="-688" fill="#2095f2" rx="24" ry="24" transform="scale(1 -1)rotate(90)"/><path fill="#fff" d="M264-836c-13.296 0-24 10.704-24 24v2c0-13.296 10.704-24 24-24h400c13.296 0 24 10.704 24 24v-2c0-13.296-10.704-24-24-24z" opacity=".1"/><path d="M664-388c13.296 0 24-10.704 24-24v-2c0 13.296-10.704 24-24 24H264c-13.296 0-24-10.704-24-24v2c0 13.296 10.704 24 24 24z" opacity=".2"/><path fill="none" stroke="#fff" stroke-linejoin="bevel" stroke-width="32" d="m405.22-741.8-61.067 79.238h234.09c-3.645 87.072-20.666 187.27-165.72 178.28"/></g></svg>