<svg width="512" height="512" enable-background="new" version="1.0" xmlns="http://www.w3.org/2000/svg">
 <defs>
  <filter id="a" x="-.032929" y="-.032929" width="1.0659" height="1.0659" color-interpolation-filters="sRGB">
   <feGaussianBlur stdDeviation="4.48"/>
  </filter>
 </defs>
 <rect transform="matrix(0,-1,-1,0,-208,228)" x="-256" y="-688" width="448" height="448" rx="24" ry="24" filter="url(#a)" opacity=".1" stroke="#000000" stroke-width="8"/>
 <rect transform="matrix(0,-1,-1,0,-208,228)" x="-256" y="-688" width="448" height="448" rx="24" ry="24" filter="url(#a)" opacity=".2"/>
 <rect transform="matrix(0,-1,-1,0,0,0)" x="-480" y="-480" width="448" height="448" rx="24" ry="24" fill="#2095f2"/>
 <path d="m56 32c-13.296 0-24 10.704-24 24v2c0-13.296 10.704-24 24-24h400c13.296 0 24 10.704 24 24v-2c0-13.296-10.704-24-24-24z" fill="#ffffff" opacity=".1"/>
 <path d="m456 480c13.296 0 24-10.704 24-24v-2c0 13.296-10.704 24-24 24h-400c-13.296 0-24-10.704-24-24v2c0 13.296 10.704 24 24 24z" opacity=".2"/>
 <path d="m349.13 153.11c-36.573 7.9888-77.763 12.599-112.49 14.443l1.8441-9.2206c2.1539-10.143 3.6882-20.285 7.0667-31.04l-43.027-1.8441c0.30975 10.143 0 17.519-1.5344 30.738-0.30975 3.6882-1.2318 7.679-1.8441 12.289-18.441-0.30256-41.493-2.7662-59.631-5.8349v37.804c15.372 1.5344 33.194 2.7662 52.557 3.0687-7.9888 33.504-20.285 74.075-34.729 102.05l35.96 12.909c3.076-5.2298 5.2226-9.2206 8.6083-13.219 18.131-23.361 49.172-35.96 84.21-35.96 29.506 0 45.491 15.365 45.491 33.504 0 44.871-67.31 52.86-134.01 42.105l10.762 39.339c98.351 10.452 164.13-14.133 164.13-82.676 0-38.727-32.582-65.157-81.761-65.157-27.964 0-51.016 5.5324-75.609 19.054 4.92-14.753 9.8401-34.116 13.831-52.557 40.88-2.1539 89.137-7.9888 120.79-12.909z" fill="#ffffff" stroke-width="7.2036"/>
</svg>
