<svg xmlns="http://www.w3.org/2000/svg" width="512" height="512" enable-background="new" version="1.0"><defs><filter id="a" width="1.044" height="1.052" x="-.022" y="-.026" color-interpolation-filters="sRGB"><feGaussianBlur stdDeviation="4.418"/></filter></defs><g transform="translate(-208 228)"><g fill-rule="evenodd"><path d="M464-171.64s-76.364.001-115.4 39.035a76.34 76.34 0 0 0-48.238-17.217c-42.174 0-76.363 34.189-76.363 76.363 0 43.636 26.434 72.108 54.545 109.09 0 0 7.044 50.269 21.818 76.363 20.27 35.801 52.614 64.666 76.363 76.363 24.243 11.94 43.637 43.637 87.273 43.637s61.755-31.658 87.273-43.637c23.964-11.249 56.093-40.563 76.363-76.363 14.774-26.094 21.818-76.363 21.818-76.363 29.097-31.683 54.545-65.455 54.545-109.09 0-42.174-34.189-76.363-76.363-76.363a76.36 76.36 0 0 0-48.238 17.217c-38.767-38.767-115.4-39.035-115.4-39.035z" filter="url(#a)" opacity=".1"/><path d="M464-171.64s-76.364.001-115.4 39.035a76.34 76.34 0 0 0-48.238-17.217c-42.174 0-76.363 34.189-76.363 76.363 0 43.636 26.434 72.108 54.545 109.09 0 0 7.044 50.269 21.818 76.363 20.27 35.801 52.614 64.666 76.363 76.363 24.243 11.94 43.637 43.637 87.273 43.637s61.755-31.658 87.273-43.637c23.964-11.249 56.093-40.563 76.363-76.363 14.774-26.094 21.818-76.363 21.818-76.363 29.097-31.683 54.545-65.455 54.545-109.09 0-42.174-34.189-76.363-76.363-76.363a76.36 76.36 0 0 0-48.238 17.217c-38.767-38.767-115.4-39.035-115.4-39.035z" filter="url(#a)" opacity=".2"/><path fill="#fff" d="m464-175.64 43.636 196.36L464 227.99c-43.636 0-63.029-31.696-87.273-43.636-23.749-11.697-56.094-40.563-76.364-76.364-14.774-26.094-21.818-76.364-21.818-76.364C250.434-5.358 224-33.829 224-77.464c0-42.174 34.189-76.364 76.364-76.364a76.35 76.35 0 0 1 48.239 17.216c39.034-39.034 115.4-39.034 115.4-39.034z"/><path fill="#f3f9ff" d="M464-175.64s76.631.267 115.4 39.034a76.36 76.36 0 0 1 48.239-17.216c42.174 0 76.364 34.189 76.364 76.364 0 43.636-25.449 77.408-54.545 109.09 0 0-7.044 50.27-21.818 76.364-20.27 35.801-52.4 65.114-76.364 76.364-25.518 11.979-43.636 43.636-87.273 43.636z"/><path fill="#4d4d4d" d="M464 206.18c-10.909 0-46.108-17.499-43.636-32.727 2.605-16.052 27.374-21.818 43.636-21.818s41.031 5.766 43.636 21.818c2.471 15.229-32.727 32.727-43.636 32.727" enable-background="new"/></g><path fill="#73a0d0" d="M628.91-131.98a54.55 54.55 0 0 0-33.644 10.653l22.18 12.805a32.73 32.73 0 0 1 26.548 2.727 32.727 32.727 0 0 1 11.974 44.702 32.73 32.73 0 0 1-17.429 14.446v22.543a54.55 54.55 0 0 0 36.328-26.079 54.545 54.545 0 0 0-19.965-74.51 54.55 54.55 0 0 0-25.994-7.287z" opacity=".5"/><path fill="#729fcf" d="M360-20v64h64a64 64 0 0 0-64-64" opacity=".5"/><circle cx="368" cy="20" r="32"/><circle cx="368" cy="8" r="12" fill="#fff"/><path fill="#73a0d0" d="M299.09-131.98a54.55 54.55 0 0 0-25.994 7.287 54.545 54.545 0 0 0-19.965 74.51 54.55 54.55 0 0 0 25.419 22.628v-25.568a32.7 32.7 0 0 1-6.52-7.969 32.727 32.727 0 0 1 11.974-44.702 32.73 32.73 0 0 1 26.548-2.727l22.18-12.805a54.55 54.55 0 0 0-33.644-10.653z" opacity=".5"/><g fill-rule="evenodd"><path fill="#fff" d="M464 151.64c-16.262 0-41.031 5.766-43.636 21.818-.516 3.18.672 6.455 2.876 9.652 7.414-10.92 27.042-15.107 40.76-15.107s33.346 4.187 40.76 15.107c2.205-3.198 3.393-6.473 2.877-9.652-2.605-16.052-27.374-21.818-43.636-21.818z" enable-background="new" opacity=".1"/><path fill="#73a0d0" d="m618.64 64.364 10.888.704c-1.198 18.538-10.963 39.048-25.526 58.53-13.228 17.697-30.68 34.252-50.817 45.469V143.2c12.639-8.974 24.239-20.48 33.345-32.663 12.548-16.787 20.129-34.827 21.094-46.172zm-296.36 0c.964 11.345 8.546 29.385 21.094 46.172 9.407 12.586 21.445 24.536 34.581 33.622v25.568c-20.658-11.219-38.556-28.072-52.053-46.129-14.563-19.482-24.327-39.992-25.526-58.53l10.888-.703z" color="#000" enable-background="accumulate" opacity=".3" style="isolation:auto;mix-blend-mode:normal;text-decoration-color:#000;text-decoration-line:none;text-decoration-style:solid;text-indent:0;text-transform:none;white-space:normal"/><path fill="#fff" d="M464-175.64s-76.364.001-115.4 39.035a76.34 76.34 0 0 0-48.238-17.217c-42.174 0-76.363 34.189-76.363 76.363 0 .362.018.714.023 1.072.5-41.745 34.477-75.436 76.34-75.436a76.34 76.34 0 0 1 48.238 17.217C387.634-173.64 464-173.64 464-173.64s76.632.269 115.4 39.035a76.34 76.34 0 0 1 48.238-17.217c41.86 0 75.833 33.683 76.34 75.422.006-.353.024-.703.024-1.058 0-42.174-34.19-76.363-76.363-76.363a76.34 76.34 0 0 0-48.238 17.217C540.634-175.372 464-175.64 464-175.64z"/></g><path fill="#729fcf" d="M568-20v64h-64a64 64 0 0 1 64-64" opacity=".5"/><circle cx="-560" cy="20" r="32" transform="scale(-1 1)"/><circle cx="-560" cy="8" r="12" fill="#fff" transform="scale(-1 1)"/></g></svg>