<svg width="512" height="512" enable-background="new" version="1.0" xmlns="http://www.w3.org/2000/svg">
 <defs>
  <filter id="a" x="-.022091" y="-.02627" width="1.0442" height="1.0525" color-interpolation-filters="sRGB">
   <feGaussianBlur stdDeviation="4.4181836"/>
  </filter>
 </defs>
 <g transform="translate(0,212)">
  <g>
   <g transform="translate(-208,16)">
    <g fill-rule="evenodd">
     <path d="m464-171.64s-76.364 1e-3 -115.4 39.035c-13.618-11.121-30.656-17.206-48.238-17.217-42.174 0-76.363 34.189-76.363 76.363 0 43.636 26.434 72.108 54.545 109.09 0 0 7.0442 50.269 21.818 76.363 20.27 35.801 52.614 64.666 76.363 76.363 24.243 11.94 43.637 43.637 87.273 43.637 43.636 0 61.755-31.658 87.273-43.637 23.964-11.249 56.093-40.563 76.363-76.363 14.774-26.094 21.818-76.363 21.818-76.363 29.097-31.683 54.545-65.455 54.545-109.09 0-42.174-34.189-76.363-76.363-76.363-17.582 0.0143-34.62 6.0961-48.238 17.217-38.767-38.767-115.4-39.035-115.4-39.035z" filter="url(#a)" opacity=".1"/>
     <path d="m464-171.64s-76.364 1e-3 -115.4 39.035c-13.618-11.121-30.656-17.206-48.238-17.217-42.174 0-76.363 34.189-76.363 76.363 0 43.636 26.434 72.108 54.545 109.09 0 0 7.0442 50.269 21.818 76.363 20.27 35.801 52.614 64.666 76.363 76.363 24.243 11.94 43.637 43.637 87.273 43.637 43.636 0 61.755-31.658 87.273-43.637 23.964-11.249 56.093-40.563 76.363-76.363 14.774-26.094 21.818-76.363 21.818-76.363 29.097-31.683 54.545-65.455 54.545-109.09 0-42.174-34.189-76.363-76.363-76.363-17.582 0.0143-34.62 6.0961-48.238 17.217-38.767-38.767-115.4-39.035-115.4-39.035z" filter="url(#a)" opacity=".2"/>
     <path d="m464-175.64 43.636 196.36-43.636 207.27c-43.636 0-63.029-31.696-87.273-43.636-23.749-11.697-56.094-40.563-76.364-76.364-14.774-26.094-21.818-76.364-21.818-76.364-28.111-36.984-54.545-65.455-54.545-109.09 0-42.174 34.189-76.364 76.364-76.364 17.582 0.0109 34.62 6.0951 48.239 17.216 39.034-39.034 115.4-39.034 115.4-39.034z" fill="#fff"/>
     <path d="m464-175.64s76.631 0.26727 115.4 39.034c13.618-11.121 30.657-17.202 48.239-17.216 42.174 0 76.364 34.189 76.364 76.364 0 43.636-25.449 77.408-54.545 109.09 0 0-7.044 50.27-21.818 76.364-20.27 35.801-52.4 65.114-76.364 76.364-25.518 11.979-43.636 43.636-87.273 43.636z" fill="#f3f9ff"/>
     <path d="m464 206.18c-10.909 0-46.108-17.499-43.636-32.727 2.605-16.052 27.374-21.818 43.636-21.818s41.031 5.7659 43.636 21.818c2.4712 15.229-32.727 32.727-43.636 32.727z" enable-background="new" fill="#4d4d4d"/>
    </g>
    <path d="m628.91-131.98a54.545 54.545 0 0 0-33.644 10.653l22.18 12.805a32.727 32.727 0 0 1 26.548 2.7273 32.727 32.727 0 0 1 11.974 44.702 32.727 32.727 0 0 1-17.429 14.446v22.543a54.545 54.545 0 0 0 36.328-26.079 54.545 54.545 0 0 0-19.965-74.51 54.545 54.545 0 0 0-25.994-7.287z" fill="#73a0d0" opacity=".5"/>
    <path d="m360-20v64h64a64 64 0 0 0-64-64z" fill="#729fcf" opacity=".5"/>
    <circle cx="368" cy="20" r="32"/>
    <circle cx="368" cy="8" r="12" fill="#fff"/>
    <path d="m299.09-131.98a54.545 54.545 0 0 0-25.994 7.287 54.545 54.545 0 0 0-19.965 74.51 54.545 54.545 0 0 0 25.419 22.628v-25.568a32.727 32.727 0 0 1-6.5199-7.9688 32.727 32.727 0 0 1 11.974-44.702 32.727 32.727 0 0 1 26.548-2.7273l22.18-12.805a54.545 54.545 0 0 0-33.644-10.653z" fill="#73a0d0" opacity=".5"/>
    <g fill-rule="evenodd">
     <path d="m464 151.64c-16.262 0-41.031 5.7659-43.636 21.818-0.516 3.1794 0.672 6.4545 2.8764 9.652 7.4138-10.92 27.042-15.107 40.76-15.107s33.346 4.1867 40.76 15.107c2.2043-3.1976 3.3924-6.4726 2.8764-9.652-2.605-16.052-27.374-21.818-43.636-21.818z" enable-background="new" fill="#fff" opacity=".1"/>
     <path d="m618.64 64.364 10.888 0.70364c-1.1984 18.538-10.963 39.048-25.526 58.53-13.228 17.697-30.68 34.252-50.817 45.469v-25.867c12.639-8.9734 24.239-20.48 33.345-32.663 12.548-16.787 20.129-34.827 21.094-46.172h11.016zm-296.36 0c0.96436 11.345 8.5456 29.385 21.094 46.172 9.4074 12.586 21.445 24.536 34.581 33.622v25.568c-20.658-11.219-38.556-28.072-52.053-46.129-14.563-19.482-24.327-39.992-25.526-58.53l10.888-0.70309z" color="#000000" color-rendering="auto" enable-background="accumulate" fill="#73a0d0" image-rendering="auto" opacity=".3" shape-rendering="auto" solid-color="#000000" style="isolation:auto;mix-blend-mode:normal;text-decoration-color:#000000;text-decoration-line:none;text-decoration-style:solid;text-indent:0;text-transform:none;white-space:normal"/>
     <path d="m464-175.64s-76.364 1e-3 -115.4 39.035c-13.618-11.121-30.656-17.206-48.238-17.217-42.174 0-76.363 34.189-76.363 76.363 0 0.36201 0.0178 0.71356 0.0234 1.0723 0.49933-41.745 34.477-75.436 76.34-75.436 17.582 0.0109 34.62 6.0961 48.238 17.217 39.034-39.034 115.4-39.035 115.4-39.035s76.632 0.2684 115.4 39.035c13.618-11.121 30.656-17.206 48.238-17.217 41.859 0 75.833 33.683 76.34 75.422 6e-3 -0.35364 0.0234-0.70306 0.0234-1.0586 0-42.174-34.189-76.363-76.363-76.363-17.582 0.0109-34.62 6.0961-48.238 17.217-38.767-38.767-115.4-39.035-115.4-39.035z" fill="#fff"/>
    </g>
    <path d="m568-20v64h-64a64 64 0 0 1 64-64z" fill="#729fcf" opacity=".5"/>
    <circle transform="scale(-1,1)" cx="-560" cy="20" r="32"/>
    <circle transform="scale(-1,1)" cx="-560" cy="8" r="12" fill="#fff"/>
   </g>
  </g>
 </g>
</svg>
