<svg xmlns="http://www.w3.org/2000/svg" width="512" height="512"><defs><filter id="a" width="1.066" height="1.066" x="-.033" y="-.033" color-interpolation-filters="sRGB"><feGaussianBlur stdDeviation="4.48"/></filter><filter id="b" width="1.066" height="1.066" x="-.033" y="-.033" color-interpolation-filters="sRGB"><feGaussianBlur stdDeviation="4.48"/></filter><filter id="c" width="1.111" height="1.111" x="-.055" y="-.055" color-interpolation-filters="sRGB"><feGaussianBlur stdDeviation="1.6"/></filter><filter id="e" width="1.079" height="1.066" x="-.04" y="-.033" color-interpolation-filters="sRGB"><feGaussianBlur stdDeviation="3.36"/></filter><filter id="d" width="1.079" height="1.066" x="-.04" y="-.033" color-interpolation-filters="sRGB"><feGaussianBlur stdDeviation="3.36"/></filter><filter id="h" width="1.219" height="1.266" x="-.109" y="-.133" color-interpolation-filters="sRGB"><feGaussianBlur stdDeviation="1.78"/></filter><filter id="f" width="1.061" height="1.076" x="-.031" y="-.038" color-interpolation-filters="sRGB"><feGaussianBlur stdDeviation="4.035"/></filter><filter id="i" width="1.078" height="1.26" x="-.039" y="-.13" color-interpolation-filters="sRGB"><feGaussianBlur stdDeviation="5.2"/></filter><filter id="j" width="1.065" height="1.065" x="-.033" y="-.033" color-interpolation-filters="sRGB"><feGaussianBlur stdDeviation="4.64"/></filter><filter id="k" width="1.048" height="1.048" x="-.024" y="-.024" color-interpolation-filters="sRGB"><feGaussianBlur stdDeviation="3.36"/></filter><filter id="l" width="1.048" height="1.048" x="-.024" y="-.024" color-interpolation-filters="sRGB"><feGaussianBlur stdDeviation="3.52"/></filter><filter id="m" width="1.048" height="1.048" x="-.024" y="-.024" color-interpolation-filters="sRGB"><feGaussianBlur stdDeviation="1.44"/></filter><clipPath id="g"><path fill="#828b8f" d="m143 255 .134 5.945c.134.945.915 2.655 2.102 4.004A8.97 8.97 0 0 0 152 268h16l6 8c3 4 6.381.707 6-2l-1-19z"/></clipPath></defs><rect width="448" height="448" x="-256" y="-688" stroke="#000" stroke-width="8" filter="url(#a)" opacity=".1" rx="24" ry="24" transform="matrix(0 -1 -1 0 -208 228)"/><rect width="448" height="448" x="-256" y="-688" filter="url(#a)" opacity=".2" rx="24" ry="24" transform="matrix(0 -1 -1 0 -208 228)"/><rect width="448" height="448" x="-480" y="-480" fill="#545454" rx="24" ry="24" transform="scale(1 -1)rotate(90)"/><path fill="#fff" d="M56 32c-13.296 0-24 10.704-24 24v2c0-13.296 10.704-24 24-24h400c13.296 0 24 10.704 24 24v-2c0-13.296-10.704-24-24-24z" opacity=".1"/><path d="M456 480c13.296 0 24-10.704 24-24v-2c0 13.296-10.704 24-24 24H56c-13.296 0-24-10.704-24-24v2c0 13.296 10.704 24 24 24z" opacity=".2"/><g transform="translate(36.282 167.113)scale(.27015)"><rect width="448" height="448" x="-254" y="-688" stroke="#000" stroke-width="8" filter="url(#b)" opacity=".1" rx="24" ry="24" transform="matrix(0 -1 -1 0 0 4)"/><rect width="448" height="448" x="-254" y="-688" filter="url(#b)" opacity=".2" rx="24" ry="24" transform="matrix(0 -1 -1 0 0 4)"/><rect width="448" height="448" x="-252" y="-688" fill="#ebebeb" rx="24" ry="24" transform="scale(1 -1)rotate(90)"/><rect width="280" height="128" x="304" y="-36" fill="#028ccc" rx="16" ry="16"/><rect width="160" height="160" x="-640" y="-48" color="#000" enable-background="new" filter="url(#c)" opacity=".2" ry="78.852" transform="scale(-1 1)"/><rect width="160" height="160" x="-640" y="-48" stroke="#000" stroke-width="10" color="#000" enable-background="new" filter="url(#c)" opacity=".1" ry="78.852" transform="scale(-1 1)"/><path d="M320-36c-8.864 0-16 7.136-16 16v2c0-8.864 7.136-16 16-16h248c8.864 0 16 7.136 16 16v-2c0-8.864-7.136-16-16-16z" opacity=".2"/><rect width="160" height="160" x="-640" y="-52" fill="#fff" color="#000" enable-background="new" ry="78.852" transform="scale(-1 1)"/><path fill="#fff" d="M264-196c-13.296 0-24 10.704-24 24v2c0-13.296 10.704-24 24-24h400c13.296 0 24 10.704 24 24v-2c0-13.296-10.704-24-24-24z" opacity=".4"/><path d="M264 252c-13.296 0-24-10.704-24-24v-2c0 13.296 10.704 24 24 24h400c13.296 0 24-10.704 24-24v2c0 13.296-10.704 24-24 24z" opacity=".1"/><path fill="#fff" d="M320 94c-8.864 0-16-7.136-16-16v-2c0 8.864 7.136 16 16 16h248c8.864 0 16-7.136 16-16v2c0 8.864-7.136 16-16 16z" opacity=".2"/></g><g transform="translate(222.752 330.053)scale(.27015)"><rect width="304" height="368" x="368" y="-192" stroke="#000" stroke-width="8" filter="url(#d)" opacity=".1" rx="16" ry="16"/><rect width="304" height="368" x="368" y="-192" filter="url(#d)" opacity=".2" rx="16" ry="16"/><rect width="304" height="368" x="368" y="-196" fill="#d8d8d8" rx="16" ry="16"/><path fill="#fff" d="M384-196c-8.864 0-16 7.136-16 16v2c0-8.864 7.136-16 16-16h272c8.864 0 16 7.136 16 16v-2c0-8.864-7.136-16-16-16z" opacity=".4"/><rect width="304" height="368" x="256" y="-112" stroke="#000" stroke-width="8" filter="url(#e)" opacity=".1" rx="16" ry="16"/><rect width="304" height="368" x="256" y="-112" filter="url(#e)" opacity=".2" rx="16" ry="16"/><rect width="304" height="368" x="256" y="-116" fill="#ebebeb" rx="16" ry="16"/><path fill="#fff" d="M272-116c-8.864 0-16 7.136-16 16v2c0-8.864 7.136-16 16-16h272c8.864 0 16 7.136 16 16v-2c0-8.864-7.136-16-16-16z" opacity=".4"/><path d="M304-52v16h128v-16zm0 48v16h208V-4zm0 48v16h208V44zm0 48v16h208V92z" enable-background="new" opacity=".2"/></g><path stroke="#000" stroke-width="8" d="M352.53-150.96c-55.7 0-97.609 44.924-100.54 100.55l-11.178 212.25c-7.049 41.504 33.21 67.712 67.035 22.345l59.773-89.654c2.397.17 4.81.257 7.252.285h178.74l67.024 89.37c33.514 44.685 71.295 7.897 67.035-22.345L676.492-50.41c0-55.701-44.836-100.55-100.54-100.55h-223.43z" filter="url(#f)" opacity=".1" transform="translate(36.28 330.993)scale(.27015)"/><path d="M352.53-150.96c-55.7 0-97.609 44.924-100.54 100.55l-11.178 212.25c-7.049 41.504 33.21 67.712 67.035 22.345l59.773-89.654c2.397.17 4.81.257 7.252.285h178.74l67.024 89.37c33.514 44.685 71.295 7.897 67.035-22.345L676.492-50.41c0-55.701-44.836-100.55-100.54-100.55h-223.43z" filter="url(#f)" opacity=".2" transform="translate(36.28 330.993)scale(.27015)"/><path fill="#f2f2f2" d="m110.39 316.476.404 17.941c.404 2.852 2.762 8.013 6.345 12.085 4.97 5.65 12.26 9.345 20.412 9.345h47.851l18.544 24.006c9.053 12.072 19.258 2.134 18.107-6.036l-3.018-57.342z"/><path d="M150 246h20c4.986 0 9 4.014 9 9a8.97 8.97 0 0 1-2.236 5.95A8.97 8.97 0 0 1 170 264h-16l-8 12c-3.028 4.061-6.631 1.715-6-2l1-19c.262-4.98 4.014-9 9-9" clip-path="url(#g)" filter="url(#h)" opacity=".2" transform="matrix(3.01785 0 0 3.01785 -321.183 -453.09)"/><path fill="#8cd869" d="M131.526 288.85h60.36c15.047 0 27.15 12.579 27.15 27.625-.512 15.78-13.504 26.224-27.161 26.404h-48.287l-24.143 36.972c-9.138 12.256-20.012 5.177-18.108-6.036l3.018-57.342c.79-15.026 12.126-27.625 27.174-27.625z"/><g filter="url(#i)" opacity=".2" transform="translate(36.28 333.154)scale(.27015)"><rect width="32" height="96" x="336" y="-100" ry="0"/><rect width="32" height="96" x="-68" y="-400" ry="0" transform="rotate(90)"/><circle cx="544" cy="-52" r="16"/><circle cx="576" cy="-84" r="16"/><circle cx="608" cy="-52" r="16"/><circle cx="576" cy="-20" r="16"/></g><g fill="#fff" transform="translate(36.28 330.993)scale(.27015)"><rect width="32" height="96" x="336" y="-100" ry="0"/><rect width="32" height="96" x="-68" y="-400" ry="0" transform="rotate(90)"/><circle cx="544" cy="-52" r="16"/><circle cx="576" cy="-84" r="16"/><circle cx="608" cy="-52" r="16"/><circle cx="576" cy="-20" r="16"/></g><path fill="#fff" d="M131.526 288.85c-15.047 0-26.383 12.6-27.175 27.625l-3.017 57.342a15 15 0 0 0-.215 2.814c.014-.735.083-1.494.215-2.273l3.017-57.342c.791-15.027 12.127-27.626 27.175-27.626h60.36c14.905 0 26.918 12.343 27.144 27.201l.005-.115c0-15.047-12.101-27.625-27.15-27.625z" opacity=".2"/><g transform="translate(222.752 167.653)scale(.27015)"><path stroke="#000" stroke-width="8" d="M464-200c-48.501 0-93.427 14.745-130.58 40h-29.422c-17.728 0-32 14.272-32 32v29.422c-25.255 37.151-40 82.077-40 130.58s14.745 93.427 40 130.58v29.422c0 17.728 14.272 32 32 32h29.422c37.151 25.255 82.077 40 130.58 40s93.427-14.745 130.58-40h29.422c17.728 0 32-14.272 32-32v-29.422c25.255-37.151 40-82.077 40-130.58s-14.745-93.427-40-130.58V-128c0-17.728-14.272-32-32-32H594.58c-37.151-25.255-82.077-40-130.58-40z" filter="url(#j)" opacity=".2"/><path d="M464-200c-48.501 0-93.427 14.745-130.58 40h-29.422c-17.728 0-32 14.272-32 32v29.422c-25.255 37.151-40 82.077-40 130.58s14.745 93.427 40 130.58v29.422c0 17.728 14.272 32 32 32h29.422c37.151 25.255 82.077 40 130.58 40s93.427-14.745 130.58-40h29.422c17.728 0 32-14.272 32-32v-29.422c25.255-37.151 40-82.077 40-130.58s-14.745-93.427-40-130.58V-128c0-17.728-14.272-32-32-32H594.58c-37.151-25.255-82.077-40-130.58-40" filter="url(#j)" opacity=".2"/><path fill="gray" d="M464-204c-48.501 0-93.427 14.745-130.58 40h-29.422c-17.728 0-32 14.272-32 32v29.422c-25.255 37.151-40 82.077-40 130.58s14.745 93.427 40 130.58v29.422c0 17.728 14.272 32 32 32h29.422c37.151 25.255 82.077 40 130.58 40s93.427-14.745 130.58-40h29.422c17.728 0 32-14.272 32-32v-29.422c25.255-37.151 40-82.077 40-130.58s-14.745-93.427-40-130.58V-132c0-17.728-14.272-32-32-32H594.58c-37.151-25.255-82.077-40-130.58-40"/><path d="M308-136a12 12 0 0 0-12 12 12 12 0 0 0 12 12 12 12 0 0 0 12-12 12 12 0 0 0-12-12m312 0a12 12 0 0 0-12 12 12 12 0 0 0 12 12 12 12 0 0 0 12-12 12 12 0 0 0-12-12M308 176a12 12 0 0 0-12 12 12 12 0 0 0 12 12 12 12 0 0 0 12-12 12 12 0 0 0-12-12m312 0a12 12 0 0 0-12 12 12 12 0 0 0 12 12 12 12 0 0 0 12-12 12 12 0 0 0-12-12" filter="url(#k)" opacity=".2"/><path fill="#fff" d="M308-140a12 12 0 0 0-12 12 12 12 0 0 0 12 12 12 12 0 0 0 12-12 12 12 0 0 0-12-12m312 0a12 12 0 0 0-12 12 12 12 0 0 0 12 12 12 12 0 0 0 12-12 12 12 0 0 0-12-12M308 172a12 12 0 0 0-12 12 12 12 0 0 0 12 12 12 12 0 0 0 12-12 12 12 0 0 0-12-12m312 0a12 12 0 0 0-12 12 12 12 0 0 0 12 12 12 12 0 0 0 12-12 12 12 0 0 0-12-12"/><circle cx="-32" cy="-464" r="176" enable-background="new" filter="url(#l)" opacity=".2" transform="scale(1 -1)rotate(90)"/><circle cx="-28" cy="-464" r="176" fill="#3f3f3f" enable-background="new" transform="scale(1 -1)rotate(90)"/><circle cx="28" cy="-464" r="152" fill="#fec006" enable-background="new" transform="rotate(90)"/><circle cx="-32" cy="-464" r="72" enable-background="new" filter="url(#m)" opacity=".2" transform="matrix(0 -1 -1 0 0 2)"/><circle cx="-28" cy="-464" r="72" fill="#3f3f3f" enable-background="new" transform="scale(1 -1)rotate(90)"/><g fill="#fff"><circle cx="-4" cy="-464" r="48" enable-background="new" opacity=".2" transform="scale(1 -1)rotate(90)"/><path d="M464-204c-48.501 0-93.427 14.745-130.58 40h-29.422c-17.728 0-32 14.272-32 32v2c0-17.728 14.272-32 32-32h29.422c37.151-25.255 82.077-40 130.58-40s93.427 14.745 130.58 40h29.422c17.728 0 32 14.272 32 32v-2c0-17.728-14.272-32-32-32H594.58c-37.151-25.255-82.077-40-130.58-40M272-102.58C246.745-65.429 232-20.503 232 28c0 .334.008.666.01 1 .201-48.118 14.909-92.683 39.99-129.58zm384 0v2C681.081-63.684 695.789-19.12 695.99 29c.001-.334.01-.666.01-1 0-48.501-14.745-93.427-40-130.58" opacity=".2"/><path d="M464-148A176 176 0 0 0 288 28l.041.836a176 176 0 0 1 175.96-174.84 176 176 0 0 1 175.47 165.5l.053 1.04a176 176 0 0 1 .431 8.64l.041-1.176a176 176 0 0 0-176-176z" enable-background="new" opacity=".2"/></g><path d="M312.08 30.342a152 152 0 0 1-.082-2.342 152 152 0 0 1 152-152 152 152 0 0 1 152 152 152 152 0 0 1-.082 1.658 152 152 0 0 0-151.92-149.66 152 152 0 0 0-151.92 150.34z" enable-background="new" opacity=".2"/></g></svg>