<svg xmlns="http://www.w3.org/2000/svg" width="64" height="64"><defs><filter id="a" width="1.12" height="1.12" x="-.06" y="-.06" color-interpolation-filters="sRGB"><feGaussianBlur stdDeviation="1.15"/></filter></defs><path d="M24 18.125c12.703 0 23 10.297 23 23s-10.297 23-23 23-23-10.297-23-23 10.297-23 23-23" filter="url(#a)" opacity=".35" transform="translate(2.783 -17.425)scale(1.2174)"/><path fill="#ececec" d="M32 4c15.465 0 28 12.535 28 28S47.465 60 32 60 4 47.465 4 32 16.535 4 32 4"/><path fill="#ff7036" d="m29.913 27.687 3.233-.172 1.712-2.572 1.175 2.934 3.115 1.113-2.402 1.916-.052 3.11-2.55-1.631-3.41 1.098.956-3.016"/><path fill="#ffe236" d="m29.428 37.04 3.039-1.117.87-2.968 1.988 2.447 3.306.142-1.722 2.54.87 2.986-2.915-.799-2.93 2.059.02-3.163"/><path fill="#ff2fbf" d="m21.563 33.108 3.228.242 2.021-2.34.794 3.059 2.948 1.502-2.624 1.593-.447 3.077-2.316-1.936-3.524.656 1.327-2.867"/><path fill="#2d2d2d" d="M34.872 17.501c-3.019.39-6.263 1.859-8.902 6.206-6.035 9.934-5.607 13.392-6.568 14.51-.966 1.112-3.567 1.716-3.191 2.98.376 1.26.756 1.099.756 1.099s3.8 5.502 14.818 4.076 12.545-3.752 12.446-4.907-2.425-1.997-2.425-1.997-1.722-6.068-1.28-8.559c.442-2.492 2.12-6.123 3.78-6.905 1.655-.789 2.482 2.64 3.338 1.794.851-.847-1.436-7.378-3.966-7.429-1.417-.028-4.942-1.365-8.807-.86m.01 8.336.841 2.487 2.554.723-2.158 1.537.095 2.611-2.159-1.536-2.544.888.818-2.459-1.641-2.063 2.682-.025m-7.11 5.146.09 1.802 1.612.965-1.74.629-.438 1.783-1.184-1.389-1.854.12.993-1.503-.708-1.688 1.798.466m8.621-.809 1.727 2.311 2.915-.114-1.693 2.34.993 2.663-2.796-.865-2.297 1.773-.02-2.871-2.42-1.58 2.772-.908"/></svg>