<svg width="64" height="64" version="1.1" viewBox="0 0 64 64" xmlns="http://www.w3.org/2000/svg">
 <defs>
  <filter id="filter942" x="-.06" y="-.06" width="1.12" height="1.12" color-interpolation-filters="sRGB">
   <feGaussianBlur stdDeviation="1.15"/>
  </filter>
 </defs>
 <path transform="matrix(1.2174 0 0 1.2174 2.7826 -17.425)" d="m24 18.125c12.703 0 23 10.297 23 23s-10.297 23-23 23-23-10.297-23-23 10.297-23 23-23z" fill="#000000" filter="url(#filter942)" opacity=".35"/>
 <g transform="translate(55.311 6.6366)">
  <path d="m-23.311-2.6366c15.465 0 28 12.535 28 28 0 15.465-12.535 28-28 28-15.465 0-28-12.535-28-28 0-15.465 12.535-28 28-28z" fill="#ececec" stroke-width="1.2174"/>
  <g transform="matrix(1.2174 0 0 1.2174 -52.528 -3.854)">
   <g>
    <g>
     <path d="m22.285 20.457 2.656-0.141 1.406-2.113 0.965 2.41 2.559 0.914-1.973 1.574-0.043 2.555-2.094-1.34-2.801 0.902 0.785-2.477" fill="#ff7036"/>
     <path d="m21.887 28.14 2.496-0.918 0.715-2.438 1.633 2.01 2.715 0.117-1.414 2.086 0.715 2.453-2.395-0.656-2.406 1.691 0.016-2.598" fill="#ffe236"/>
     <path d="m15.426 24.91 2.652 0.199 1.66-1.922 0.652 2.512 2.422 1.234-2.156 1.309-0.367 2.527-1.902-1.59-2.895 0.539 1.09-2.355" fill="#ff2fbf"/>
     <path d="m26.359 12.09c-2.48 0.32-5.145 1.527-7.313 5.098-4.957 8.16-4.605 11-5.395 11.918-0.793 0.914-2.93 1.41-2.621 2.449 0.309 1.035 0.621 0.902 0.621 0.902s3.121 4.52 12.172 3.348c9.05-1.172 10.305-3.082 10.223-4.03-0.082-0.949-1.992-1.641-1.992-1.641s-1.414-4.984-1.051-7.03c0.363-2.047 1.742-5.03 3.105-5.672 1.359-0.648 2.039 2.168 2.742 1.473 0.699-0.695-1.18-6.06-3.258-6.102-1.164-0.023-4.059-1.121-7.234-0.707m8e-3 6.848 0.691 2.043 2.098 0.594-1.773 1.262 0.078 2.145-1.773-1.262-2.09 0.73 0.672-2.02-1.348-1.695 2.203-0.02m-5.84 4.227 0.074 1.48 1.324 0.793-1.43 0.516-0.359 1.465-0.973-1.141-1.523 0.098 0.816-1.234-0.582-1.387 1.477 0.383m7.082-0.664 1.418 1.898 2.395-0.094-1.391 1.922 0.816 2.188-2.297-0.711-1.887 1.457-0.016-2.359-1.988-1.297 2.277-0.746" fill="#2d2d2d"/>
    </g>
   </g>
  </g>
 </g>
</svg>
