<svg xmlns="http://www.w3.org/2000/svg" width="512" height="512" enable-background="new" version="1.0"><defs><filter id="c" width="1.048" height="1.048" x="-.024" y="-.024" color-interpolation-filters="sRGB"><feGaussianBlur stdDeviation="4.487"/></filter><filter id="a" width="1.048" height="1.048" x="-.024" y="-.024" color-interpolation-filters="sRGB"><feGaussianBlur stdDeviation="4.487"/></filter><filter id="d" width="1.1" height="1.15" x="-.05" y="-.075" color-interpolation-filters="sRGB"><feGaussianBlur stdDeviation="4.015"/></filter></defs><g fill-rule="evenodd"><path d="M256 34c-12.817 0-25.293 4.793-35.115 14.934l-174.7 180.08c-9.626 9.94-14.733 23.046-14.924 36.016-.003.198 0 .662 0 .877-.002 38.593 103.06 1.13 112.37 48.315 5.04 25.537-56.184 13.837-56.184 39.53 0 30.14 86.661 9.413 111.49 34.259 10.2 24.846-33.176 20.836-25.458 43.922 14.545 15.019 47.265 6.502 53.551 30.746 7.18 27.693 54.202 22.915 81.643 2.63 14.545-15.02-22.446-21.876-7.9-36.894 14.545-15.02 86.39-11.981 86.91-44.801-6.866-20.618-33.824-23.947-34.238-48.315-1.447-20.637 22.076-14.601 96.567-35.138 29.786-13.967 30.84-21.397 30.726-34.26-.002-.254 0-.603 0-.875-.17-12.97-6.176-26.077-15.802-36.016L291.116 48.93C281.294 38.788 268.818 33.996 256 33.996zm203.67 308.33c-3.55-.112-7.13.17-9.657.876-4.761 1.372-27.316 2.175-25.458 19.326 20.436 8.571 51.593 15.394 55.306-1.755 2.788-12.86-9.54-18.053-20.19-18.447zm-348.52 57.099c-1.983.226-3.329 1.017-5.267 1.754-15.498 5.897-25.891 18.3-11.413 23.718 14.48 5.419 24.177-.308 36.87-7.028 12.696-6.722 12.33-7.947 11.413-10.54-1.76.351-13.303-6.838-25.458-7.907-2.026-.17-4.163-.227-6.146 0z" enable-background="new" opacity=".2"/><path stroke="#000" stroke-width="8" d="M464-192c-12.817 0-25.293 4.793-35.115 14.934l-174.7 180.08c-9.626 9.94-14.733 23.046-14.924 36.016-.003.198 0 .662 0 .877-.002 38.593 103.06 1.13 112.37 48.315 5.04 25.537-56.184 13.837-56.184 39.53 0 30.14 86.661 9.413 111.49 34.259 10.2 24.846-33.176 20.836-25.458 43.922 14.545 15.019 47.265 6.502 53.551 30.746 7.18 27.693 54.202 22.915 81.643 2.63 14.545-15.02-22.446-21.876-7.9-36.894 14.545-15.02 86.39-11.981 86.91-44.801-6.866-20.618-33.824-23.947-34.238-48.315-1.447-20.637 22.076-14.601 96.567-35.138 29.786-13.967 30.84-21.397 30.726-34.26-.002-.254 0-.603 0-.875-.17-12.97-6.176-26.077-15.802-36.016l-173.82-180.08c-9.822-10.142-22.298-14.934-35.116-14.934zm203.67 308.33c-3.55-.112-7.13.17-9.657.876-4.761 1.372-27.316 2.175-25.458 19.326 20.436 8.571 51.593 15.394 55.306-1.755 2.788-12.86-9.54-18.053-20.19-18.447zm-348.52 57.099c-1.983.226-3.329 1.016-5.267 1.754-15.498 5.897-25.891 18.3-11.413 23.718 14.48 5.419 24.177-.308 36.87-7.028 12.696-6.722 12.33-7.947 11.413-10.54-1.76.351-13.303-6.838-25.458-7.907-2.026-.17-4.163-.227-6.146 0z" enable-background="new" filter="url(#a)" opacity=".1" transform="translate(-208 228)"/><path d="M464-192c-12.817 0-25.293 4.793-35.115 14.934l-174.7 180.08c-9.626 9.94-14.733 23.046-14.924 36.016-.003.198 0 .662 0 .877-.002 38.593 103.06 1.13 112.37 48.315 5.04 25.537-56.184 13.837-56.184 39.53 0 30.14 86.661 9.413 111.49 34.259 10.2 24.846-33.176 20.836-25.458 43.922 14.545 15.019 47.265 6.502 53.551 30.746 7.18 27.693 54.202 22.915 81.643 2.63 14.545-15.02-22.446-21.876-7.9-36.894 14.545-15.02 86.39-11.981 86.91-44.801-6.866-20.618-33.824-23.947-34.238-48.315-1.447-20.637 22.076-14.601 96.567-35.138 29.786-13.967 30.84-21.397 30.726-34.26-.002-.254 0-.603 0-.875-.17-12.97-6.176-26.077-15.802-36.016l-173.82-180.08c-9.822-10.142-22.298-14.934-35.116-14.934zm203.67 308.33c-3.55-.112-7.13.17-9.657.876-4.761 1.372-27.316 2.175-25.458 19.326 20.436 8.571 51.593 15.394 55.306-1.755 2.788-12.86-9.54-18.053-20.19-18.447zm-348.52 57.099c-1.983.226-3.329 1.016-5.267 1.754-15.498 5.897-25.891 18.3-11.413 23.718 14.48 5.419 24.177-.308 36.87-7.028 12.696-6.722 12.33-7.947 11.413-10.54-1.76.351-13.303-6.838-25.458-7.907-2.026-.17-4.163-.227-6.146 0z" enable-background="new" filter="url(#c)" opacity=".2" transform="translate(-208 228)"/><path fill="#666" d="M256 32c-12.817 0-25.293 4.793-35.115 14.934l-174.7 180.08c-9.626 9.94-14.733 23.046-14.924 36.016-.003.198 0 .662 0 .877-.002 38.593 103.06 1.13 112.37 48.315 5.04 25.537-56.184 13.837-56.184 39.53 0 30.14 86.661 9.413 111.49 34.259 10.2 24.846-33.176 20.836-25.458 43.922 14.545 15.019 47.265 6.502 53.551 30.746 7.18 27.693 54.202 22.915 81.643 2.63 14.545-15.02-22.446-21.876-7.9-36.894 14.545-15.02 86.39-11.981 86.91-44.801-6.866-20.618-33.824-23.947-34.238-48.315-1.447-20.637 22.076-14.601 96.567-35.138 29.786-13.967 30.84-21.397 30.726-34.26-.002-.254 0-.603 0-.875-.17-12.97-6.176-26.077-15.802-36.016L291.116 46.93C281.294 36.788 268.818 31.996 256 31.996zm203.67 308.33c-3.55-.112-7.13.17-9.657.876-4.761 1.372-27.316 2.175-25.458 19.326 20.436 8.571 51.593 15.394 55.306-1.755 2.788-12.86-9.54-18.053-20.19-18.447zm-348.52 57.099c-1.983.226-3.329 1.017-5.267 1.754-15.498 5.897-25.891 18.3-11.413 23.718 14.48 5.419 24.177-.308 36.87-7.028 12.696-6.722 12.33-7.947 11.413-10.54-1.76.351-13.303-6.838-25.458-7.907-2.026-.17-4.163-.227-6.146 0z" enable-background="new"/><path d="M467.51-138.99c13.2.112 49.372 44.751 81.643 78.182 9.078 12.147-3.511 24.596-3.511 24.596l-67.597-36.895-29.848 40.409-26.336-39.53-15.802 61.491-46.528-28.11 12.29-15.812 72.864-74.668c5.588-5.681 9.868-9.763 22.824-9.663z" enable-background="new" filter="url(#d)" opacity=".2" transform="translate(-208 228)"/><path fill="#fff" d="M259.51 81.01c13.2.112 49.372 44.751 81.643 78.182 9.078 12.147-3.511 24.596-3.511 24.596l-67.597-36.895-29.848 40.409-26.336-39.53-15.802 61.491-46.528-28.11 12.29-15.812 72.864-74.668c5.588-5.681 9.868-9.764 22.824-9.663z" enable-background="new"/><path fill="#fff" d="M256 32c-12.817 0-25.178 4.859-35 15L46.25 227c-9.626 9.94-14.809 23.029-15 36-.003.198 0 .785 0 1 0 .12.02.217.025.33.357-12.75 5.514-25.562 14.975-35.33L221 49c9.822-10.14 22.183-15 35-15s25.178 4.858 35 15l174 180c9.626 9.94 15.58 23.03 15.75 36 0 .272-.002.745 0 1 .004.447.012.857.02 1.281.01-1.055-.008-2.12-.02-3.28-.002-.256 0-.729 0-1-.17-12.972-6.124-26.06-15.75-36L291 47c-9.821-10.143-22.183-15-35-15zM143.25 318.5c-5.855 17.267-55.75 10.016-55.75 33.25 0 .288.022.562.047.836 1.651-21.827 49.948-15.115 55.703-32.086.15.578.38 1.144.5 1.75.126.64.2 1.252.246 1.846.097-1.181.028-2.456-.246-3.846-.12-.606-.35-1.172-.5-1.75zm210.5 18c-.251 1.289-.345 2.611-.273 4.174.044-.756.135-1.469.273-2.174 2.581 21.408 27.166 25.279 33.883 44.686.063-.552.108-1.112.117-1.685-6.555-19.686-31.405-23.474-34-45zm106 3.75c-3.55-.112-7.224.294-9.75 1-4.661 1.344-26.4 2.079-25.57 18.199.99-14.193 21.109-14.913 25.57-16.199 2.526-.706 6.2-1.112 9.75-1 9.28.343 19.682 4.372 20.365 13.906.718-10.975-10.462-15.541-20.365-15.906m-260 56.5c-4.228 12.368-28.272 14.133-27.055 29.178.978-13.224 23.023-15.382 27.055-27.178.293 1.093.465 2.123.541 3.1.112-1.544-.04-3.228-.541-5.1m-85.516.602a25 25 0 0 0-2.984.148c-1.983.226-3.312 1.012-5.25 1.75-10.901 4.148-19.3 11.393-18.281 17.25.883-5.43 8.593-11.564 18.28-15.25 1.939-.738 3.268-1.524 5.25-1.75s3.975-.17 6 0c12.156 1.069 23.74 8.102 25.5 7.75.057.16.1.306.147.457.367-.841.168-1.569-.146-2.457-1.76.352-13.345-6.681-25.5-7.75a40 40 0 0 0-3.016-.148m184.27 40.148c-1.036 1.806-1.324 3.487-1.1 5.084.14-.991.486-2.015 1.1-3.084 3.28 6.111 12.644 11.249 13.551 17.732 1.037-7.46-9.94-13.006-13.551-19.732" enable-background="new" opacity=".2"/></g></svg>