<svg width="512" height="512" enable-background="new" version="1.0" xmlns="http://www.w3.org/2000/svg" xmlns:xlink="http://www.w3.org/1999/xlink">
 <defs>
  <filter id="c" x="-.02396" y="-.02404" width="1.0479" height="1.0481" color-interpolation-filters="sRGB">
   <feGaussianBlur stdDeviation="4.4874139"/>
  </filter>
  <filter id="b" x="-.02396" y="-.02404" width="1.0479" height="1.0481" color-interpolation-filters="sRGB">
   <feGaussianBlur stdDeviation="4.4874139"/>
  </filter>
  <filter id="a" x="-.049945" y="-.075124" width="1.0999" height="1.1502" color-interpolation-filters="sRGB">
   <feGaussianBlur stdDeviation="4.0145801"/>
  </filter>
 </defs>
 <g transform="translate(0,212)">
  <g>
   <g transform="translate(-208,16)" fill-rule="evenodd">
    <g>
     <path d="m464-194c-12.817 0-25.293 4.7926-35.115 14.934l-174.7 180.08c-9.6265 9.9395-14.733 23.046-14.924 36.016-3e-3 0.1976 0 0.6616 0 0.8768-2e-3 38.593 103.06 1.1294 112.37 48.315 5.0398 25.537-56.184 13.837-56.184 39.53 0 30.14 86.661 9.4132 111.49 34.259 10.2 24.846-33.176 20.836-25.458 43.922 14.545 15.019 47.265 6.5022 53.551 30.746 7.1792 27.693 54.202 22.915 81.643 2.63 14.545-15.019-22.446-21.876-7.9003-36.894 14.545-15.019 86.39-11.981 86.91-44.801-6.8658-20.618-33.824-23.947-34.238-48.315-1.4463-20.637 22.076-14.601 96.567-35.138 29.786-13.967 30.84-21.397 30.726-34.259-2e-3 -0.2552 0-0.604 0-0.87568-0.1696-12.971-6.176-26.077-15.802-36.016l-173.82-180.08c-9.8215-10.142-22.298-14.934-35.116-14.934zm203.67 308.33c-3.5501-0.112-7.1307 0.1696-9.6567 0.87576-4.7613 1.3725-27.316 2.1753-25.458 19.326 20.436 8.5713 51.593 15.394 55.306-1.7545 2.7881-12.86-9.5396-18.053-20.191-18.447zm-348.52 57.099c-1.983 0.2264-3.329 1.0165-5.2671 1.7543-15.498 5.8966-25.891 18.299-11.413 23.718 14.481 5.4185 24.177-0.308 36.871-7.0278 12.695-6.7226 12.33-7.9477 11.412-10.541-1.7598 0.352-13.303-6.8377-25.458-7.9066-2.0254-0.1696-4.163-0.2264-6.1454 0z" enable-background="new" opacity=".2"/>
     <path d="m464-192c-12.817 0-25.293 4.7926-35.115 14.934l-174.7 180.08c-9.6265 9.9395-14.733 23.046-14.924 36.016-3e-3 0.1976 0 0.6616 0 0.8768-2e-3 38.593 103.06 1.1294 112.37 48.315 5.0398 25.537-56.184 13.837-56.184 39.53 0 30.14 86.661 9.4132 111.49 34.259 10.2 24.846-33.176 20.836-25.458 43.922 14.545 15.019 47.265 6.5022 53.551 30.746 7.1792 27.693 54.202 22.915 81.643 2.63 14.545-15.019-22.446-21.876-7.9003-36.894 14.545-15.019 86.39-11.981 86.91-44.801-6.8658-20.618-33.824-23.947-34.238-48.315-1.4463-20.637 22.076-14.601 96.567-35.138 29.786-13.967 30.84-21.397 30.726-34.259-2e-3 -0.2552 0-0.604 0-0.87568-0.1696-12.971-6.176-26.077-15.802-36.016l-173.82-180.08c-9.8215-10.142-22.298-14.934-35.116-14.934zm203.67 308.33c-3.5501-0.112-7.1307 0.1696-9.6567 0.87576-4.7613 1.3725-27.316 2.1753-25.458 19.326 20.436 8.5713 51.593 15.394 55.306-1.7545 2.7881-12.86-9.5396-18.053-20.191-18.447zm-348.52 57.099c-1.983 0.2264-3.329 1.0165-5.2671 1.7543-15.498 5.8966-25.891 18.299-11.413 23.718 14.481 5.4185 24.177-0.308 36.871-7.0278 12.695-6.7226 12.33-7.9477 11.412-10.541-1.7598 0.352-13.303-6.8377-25.458-7.9066-2.0254-0.1696-4.163-0.2264-6.1454 0z" enable-background="new" filter="url(#b)" opacity=".1" stroke="#000" stroke-width="8"/>
     <path d="m464-192c-12.817 0-25.293 4.7926-35.115 14.934l-174.7 180.08c-9.6265 9.9395-14.733 23.046-14.924 36.016-3e-3 0.1976 0 0.6616 0 0.8768-2e-3 38.593 103.06 1.1294 112.37 48.315 5.0398 25.537-56.184 13.837-56.184 39.53 0 30.14 86.661 9.4132 111.49 34.259 10.2 24.846-33.176 20.836-25.458 43.922 14.545 15.019 47.265 6.5022 53.551 30.746 7.1792 27.693 54.202 22.915 81.643 2.63 14.545-15.019-22.446-21.876-7.9003-36.894 14.545-15.019 86.39-11.981 86.91-44.801-6.8658-20.618-33.824-23.947-34.238-48.315-1.4463-20.637 22.076-14.601 96.567-35.138 29.786-13.967 30.84-21.397 30.726-34.259-2e-3 -0.2552 0-0.604 0-0.87568-0.1696-12.971-6.176-26.077-15.802-36.016l-173.82-180.08c-9.8215-10.142-22.298-14.934-35.116-14.934zm203.67 308.33c-3.5501-0.112-7.1307 0.1696-9.6567 0.87576-4.7613 1.3725-27.316 2.1753-25.458 19.326 20.436 8.5713 51.593 15.394 55.306-1.7545 2.7881-12.86-9.5396-18.053-20.191-18.447zm-348.52 57.099c-1.983 0.2264-3.329 1.0165-5.2671 1.7543-15.498 5.8966-25.891 18.299-11.413 23.718 14.481 5.4185 24.177-0.308 36.871-7.0278 12.695-6.7226 12.33-7.9477 11.412-10.541-1.7598 0.352-13.303-6.8377-25.458-7.9066-2.0254-0.1696-4.163-0.2264-6.1454 0z" enable-background="new" filter="url(#c)" opacity=".2"/>
    </g>
    <path d="m464-196c-12.817 0-25.293 4.7926-35.115 14.934l-174.7 180.08c-9.6265 9.9395-14.733 23.046-14.924 36.016-3e-3 0.1976 0 0.6616 0 0.8768-2e-3 38.593 103.06 1.1294 112.37 48.315 5.0398 25.537-56.184 13.837-56.184 39.53 0 30.14 86.661 9.4132 111.49 34.259 10.2 24.846-33.176 20.836-25.458 43.922 14.545 15.019 47.265 6.5022 53.551 30.746 7.1792 27.693 54.202 22.915 81.643 2.63 14.545-15.019-22.446-21.876-7.9003-36.894 14.545-15.019 86.39-11.981 86.91-44.801-6.8658-20.618-33.824-23.947-34.238-48.315-1.4463-20.637 22.076-14.601 96.567-35.138 29.786-13.967 30.84-21.397 30.726-34.259-2e-3 -0.2552 0-0.604 0-0.87568-0.1696-12.971-6.176-26.077-15.802-36.016l-173.82-180.08c-9.8215-10.142-22.298-14.934-35.116-14.934zm203.67 308.33c-3.5501-0.112-7.1307 0.1696-9.6567 0.87576-4.7613 1.3725-27.316 2.1753-25.458 19.326 20.436 8.5713 51.593 15.394 55.306-1.7545 2.7881-12.86-9.5396-18.053-20.191-18.447zm-348.52 57.099c-1.983 0.2264-3.329 1.0165-5.2671 1.7543-15.498 5.8966-25.891 18.299-11.413 23.718 14.481 5.4185 24.177-0.308 36.871-7.0278 12.695-6.7226 12.33-7.9477 11.412-10.541-1.7598 0.352-13.303-6.8377-25.458-7.9066-2.0254-0.1696-4.163-0.2264-6.1454 0z" enable-background="new" fill="#666"/>
    <path d="m467.51-138.99c13.2 0.112 49.372 44.751 81.643 78.182 9.0775 12.147-3.5113 24.596-3.5113 24.596l-67.597-36.895-29.848 40.409-26.336-39.53-15.802 61.491-46.528-28.11 12.29-15.812 72.864-74.668c5.5886-5.6813 9.868-9.7635 22.824-9.663z" enable-background="new" filter="url(#a)" opacity=".2"/>
    <path d="m467.51-146.99c13.2 0.112 49.372 44.751 81.643 78.182 9.0775 12.147-3.5113 24.596-3.5113 24.596l-67.597-36.895-29.848 40.409-26.336-39.53-15.802 61.491-46.528-28.11 12.29-15.812 72.864-74.668c5.5886-5.6813 9.868-9.7635 22.824-9.663z" enable-background="new" fill="#fff"/>
    <path transform="translate(0,76)" d="m464-272c-12.817 0-25.178 4.859-35 15l-174.75 180c-9.6265 9.9395-14.809 23.029-15 36-3e-3 0.1976 0 0.7848 0 1 0 0.12008 0.0196 0.21695 0.0254 0.33008 0.3566-12.751 5.5137-25.562 14.975-35.33l174.75-180c9.8218-10.141 22.183-15 35-15 12.817 0 25.178 4.8578 35 15l174 180c9.6256 9.9395 15.58 23.029 15.75 36 0 0.272-2e-3 0.7448 0 1 4e-3 0.44692 0.0118 0.85723 0.0195 1.2812 0.0107-1.055-8e-3 -2.1197-0.0195-3.2812-2e-3 -0.2552 0-0.728 0-1-0.1696-12.971-6.1244-26.06-15.75-36l-174-180c-9.8215-10.142-22.183-15-35-15zm-112.75 286.5c-5.8554 17.267-55.75 10.016-55.75 33.25 0 0.28759 0.0224 0.56195 0.0469 0.83594 1.6516-21.827 49.948-15.115 55.703-32.086 0.1504 0.57824 0.3808 1.1444 0.5 1.75 0.12625 0.63974 0.20082 1.2516 0.24609 1.8457 0.097-1.1811 0.0283-2.4556-0.24609-3.8457-0.1192-0.6056-0.3496-1.1718-0.5-1.75zm210.5 18c-0.25136 1.2886-0.34451 2.6113-0.27344 4.1738 0.0447-0.75533 0.13588-1.4687 0.27344-2.1738 2.581 21.408 27.166 25.279 33.883 44.686 0.0629-0.55196 0.10811-1.1124 0.11719-1.6855-6.5555-19.686-31.405-23.474-34-45zm106 3.75c-3.5501-0.112-7.224 0.2936-9.75 1-4.6611 1.3436-26.4 2.0786-25.57 18.199 0.99014-14.193 21.109-14.913 25.57-16.199 2.526-0.7064 6.1999-1.112 9.75-1 9.2798 0.34262 19.682 4.3716 20.365 13.906 0.71811-10.975-10.462-15.541-20.365-15.906zm-260 56.5c-4.2276 12.368-28.272 14.133-27.055 29.178 0.97847-13.224 23.023-15.382 27.055-27.178 0.29298 1.0932 0.46549 2.1228 0.54102 3.0996 0.11151-1.5438-0.0393-3.2274-0.54102-5.0996zm-85.516 0.60156c-0.99904-0.0071-1.9932 0.035238-2.9844 0.14844-1.983 0.2264-3.3119 1.0122-5.25 1.75-10.901 4.1475-19.3 11.393-18.281 17.25 0.88332-5.4309 8.5938-11.564 18.281-15.25 1.9381-0.73784 3.267-1.5236 5.25-1.75 1.9824-0.2264 3.9746-0.1696 6 0 12.155 1.0689 23.74 8.102 25.5 7.75 0.0564 0.15943 0.0998 0.30644 0.14648 0.45703 0.36721-0.84119 0.1679-1.5689-0.14648-2.457-1.7598 0.352-13.345-6.6811-25.5-7.75-1.0127-0.0848-2.0166-0.14134-3.0156-0.14844zm184.27 40.148c-1.0365 1.8066-1.3242 3.4874-1.0996 5.084 0.13994-0.99061 0.48596-2.0144 1.0996-3.084 3.2808 6.1119 12.644 11.249 13.551 17.732 1.0368-7.4595-9.94-13.006-13.551-19.732z" enable-background="new" fill="#fff" opacity=".2"/>
   </g>
  </g>
 </g>
</svg>
