<svg xmlns="http://www.w3.org/2000/svg" width="64" height="64" version="1"><defs><filter id="a" width="1.15" height="1.15" x="-.075" y="-.075" color-interpolation-filters="sRGB"><feGaussianBlur stdDeviation="1.625"/></filter></defs><rect width="52" height="52" x="-59" y="-58" filter="url(#a)" opacity=".35" rx="5" ry="5" transform="scale(1 -1)rotate(90)"/><rect width="52" height="52" x="-58" y="-58" fill="#4f4f4f" rx="5" ry="5" transform="scale(1 -1)rotate(90)"/><path d="M6 41v11.688c0 2.943 2.23 5.313 5 5.313h42c2.77 0 5-2.37 5-5.313V41z" opacity=".15"/><rect width="52" height="1" x="6" y="41" opacity=".35" rx="0" ry="0" style="paint-order:fill markers stroke"/><path d="M31.5 42h1v16h-1z" opacity=".35" style="paint-order:fill markers stroke"/><path fill="#fff" d="M11 6c-2.77 0-5 2.23-5 5v1c0-2.77 2.23-5 5-5h42c2.77 0 5 2.23 5 5v-1c0-2.77-2.23-5-5-5z" opacity=".1"/></svg>