<svg xmlns="http://www.w3.org/2000/svg" width="512" height="512" enable-background="new" version="1.0"><defs><filter id="a" width="1.043" height="1.054" x="-.021" y="-.027" color-interpolation-filters="sRGB"><feGaussianBlur stdDeviation="4"/></filter><filter id="b" width="1.12" height="1.12" x="-.06" y="-.06" color-interpolation-filters="sRGB"><feGaussianBlur stdDeviation="6"/></filter></defs><g transform="translate(-208 228)"><rect width="352" height="448" x="-208" y="-688" stroke="#000" stroke-width="8" filter="url(#a)" opacity=".1" rx="24" ry="24" transform="matrix(0 -1 -1 0 0 0)"/><rect width="352" height="448" x="-208" y="-688" filter="url(#a)" opacity=".2" rx="24" ry="24" transform="matrix(0 -1 -1 0 0 0)"/><rect width="352" height="448" x="-204" y="-688" fill="#333" rx="24" ry="24" transform="scale(1 -1)rotate(90)"/><g fill="#fff"><path d="M240 28v152c0 13.296 10.704 24 24 24h400c13.296 0 24-10.704 24-24V28z" opacity=".05"/><path d="M264-148c-13.296 0-24 10.704-24 24v2c0-13.296 10.704-24 24-24h400c13.296 0 24 10.704 24 24v-2c0-13.296-10.704-24-24-24z" opacity=".2"/><path d="M264-148c-13.296 0-24 10.704-24 24v304c0 13.296 10.704 24 24 24h56v-352z" opacity=".1"/></g><circle cx="584" cy="136" r="120" enable-background="new" filter="url(#b)" opacity=".5"/><circle cx="584" cy="132" r="120" fill="#009688" enable-background="new"/><path fill="#fff" d="M528 159.49V188h28.51l64.007-64.007-28.51-28.51zm117.74-60.626c3.016-3.015 3.016-7.767 0-10.783l-17.819-17.819c-3.016-3.016-7.767-3.016-10.783 0l-14.895 14.986 28.51 28.51z" enable-background="new"/></g></svg>