<svg xmlns="http://www.w3.org/2000/svg" width="512" height="512" enable-background="new" version="1.0"><defs><filter id="a" width="1.057" height="1.089" x="-.029" y="-.045" color-interpolation-filters="sRGB"><feGaussianBlur stdDeviation="3.68"/></filter><filter id="b" width="1.24" height="1.08" x="-.12" y="-.04" color-interpolation-filters="sRGB"><feGaussianBlur stdDeviation="1.6"/></filter></defs><g transform="translate(-208 228)"><rect width="448" height="288" x="-256" y="-608" stroke="#000" stroke-width="8" filter="url(#a)" opacity=".1" rx="160" ry="144" transform="scale(1 -1)rotate(90)"/><rect width="448" height="288" x="-256" y="-608" filter="url(#a)" opacity=".2" rx="160" ry="144" transform="scale(1 -1)rotate(90)"/><rect width="448" height="288" x="-252" y="-608" fill="#666" rx="160" ry="144" transform="scale(1 -1)rotate(90)"/><path d="M464 252c-79.776 0-144-71.36-144-160v-2c0 88.64 64.224 160 144 160s144-71.36 144-160v2c0 88.64-64.224 160-144 160" opacity=".2"/><rect width="32" height="96" x="448" y="-112" filter="url(#b)" opacity=".2" ry="16"/><path d="M464-196c79.776 0 144 71.36 144 160V92c0 88.64-64.224 160-144 160z" opacity=".2"/><rect width="32" height="96" x="448" y="-116" fill="#ececec" ry="16"/></g></svg>