<svg xmlns="http://www.w3.org/2000/svg" width="512" height="512" enable-background="new" version="1.0"><defs><filter id="b" width="1.05" height="1.046" x="-.025" y="-.023" color-interpolation-filters="sRGB"><feGaussianBlur stdDeviation="4.01"/></filter><filter id="a" width="1.05" height="1.046" x="-.025" y="-.023" color-interpolation-filters="sRGB"><feGaussianBlur stdDeviation="4.01"/></filter></defs><g color="#000" transform="translate(-208 228)"><path d="M607.28-176.68a48.005 48.005 0 0 0-47.277 48.678v320a48.005 48.005 0 1 0 96 0v-320a48.005 48.005 0 0 0-48.723-48.678m-287.28.678a48.005 48.005 0 1 0 0 96h112v96c0 73.455-26.973 96.453-55.133 111.94C348.707 143.426 320 143.997 320 143.997a48.005 48.005 0 1 0 0 96s51.293.57 103.13-27.941C474.97 183.544 528 118.543 528 15.996v-192zm8.34 144a56 56 0 0 0-56 56 56 56 0 0 0 56 56 56 56 0 0 0 56-56 56 56 0 0 0-56-56" enable-background="new" filter="url(#a)" opacity=".1" style="isolation:auto;mix-blend-mode:normal;text-decoration-color:#000;text-decoration-line:none;text-decoration-style:solid;text-indent:0;text-transform:none;white-space:normal"/><path d="M607.28-178.68a48.005 48.005 0 0 0-47.277 48.678v320a48.005 48.005 0 1 0 96 0v-320a48.005 48.005 0 0 0-48.723-48.678m-287.28.678a48.005 48.005 0 1 0 0 96h112v96c0 73.455-26.973 96.453-55.133 111.94C348.707 141.426 320 141.997 320 141.997a48.005 48.005 0 1 0 0 96s51.293.57 103.13-27.941C474.97 181.544 528 116.543 528 13.996v-192zm8.34 144a56 56 0 0 0-56 56 56 56 0 0 0 56 56 56 56 0 0 0 56-56 56 56 0 0 0-56-56" enable-background="new" opacity=".2" style="isolation:auto;mix-blend-mode:normal;text-decoration-color:#000;text-decoration-line:none;text-decoration-style:solid;text-indent:0;text-transform:none;white-space:normal"/><path d="M607.28-176.68a48.005 48.005 0 0 0-47.277 48.678v320a48.005 48.005 0 1 0 96 0v-320a48.005 48.005 0 0 0-48.723-48.678m-287.28.678a48.005 48.005 0 1 0 0 96h112v96c0 73.455-26.973 96.453-55.133 111.94C348.707 143.426 320 143.997 320 143.997a48.005 48.005 0 1 0 0 96s51.293.57 103.13-27.941C474.97 183.544 528 118.543 528 15.996v-192zm8.34 144a56 56 0 0 0-56 56 56 56 0 0 0 56 56 56 56 0 0 0 56-56 56 56 0 0 0-56-56" enable-background="new" filter="url(#b)" opacity=".2" style="isolation:auto;mix-blend-mode:normal;text-decoration-color:#000;text-decoration-line:none;text-decoration-style:solid;text-indent:0;text-transform:none;white-space:normal"/><path fill="#3f51b5" d="M607.28 63.322A48.005 48.005 0 0 0 560.003 112v320a48.005 48.005 0 1 0 96 0V112a48.005 48.005 0 0 0-48.723-48.678M320 64a48.005 48.005 0 1 0 0 96h112v96c0 73.455-26.973 96.453-55.133 111.94C348.707 383.428 320 383.999 320 383.999a48.005 48.005 0 1 0 0 96s51.293.57 103.13-27.941C474.97 423.546 528 358.545 528 255.998v-192z" enable-background="new" style="isolation:auto;mix-blend-mode:normal;text-decoration-color:#000;text-decoration-line:none;text-decoration-style:solid;text-indent:0;text-transform:none;white-space:normal" transform="translate(0 -244)"/><circle cx="328.34" cy="20" r="56" fill="#ff9800" enable-background="new"/><path fill="#fff" d="M607.28 63.322A48.005 48.005 0 0 0 560.003 112v2a48.005 48.005 0 0 1 47.277-48.678A48.005 48.005 0 0 1 656.003 114v-2a48.005 48.005 0 0 0-48.723-48.678M320 64a48.005 48.005 0 0 0-48.633 49.424A48.005 48.005 0 0 1 320 66h208v-2zm8.34 144a56 56 0 0 0-56 56 56 56 0 0 0 .04.83A56 56 0 0 1 328.34 210a56 56 0 0 1 55.959 55.17 56 56 0 0 0 .04-1.17 56 56 0 0 0-56-56zM432 256c0 73.455-26.973 96.453-55.133 111.94C348.707 383.428 320 383.999 320 383.999a48.005 48.005 0 0 0-48.633 49.424A48.005 48.005 0 0 1 320 385.999s28.707-.57 56.867-16.06C405.027 354.453 432 331.454 432 258z" enable-background="new" opacity=".2" style="isolation:auto;mix-blend-mode:normal;text-decoration-color:#000;text-decoration-line:none;text-decoration-style:solid;text-indent:0;text-transform:none;white-space:normal" transform="translate(0 -244)"/></g></svg>