<svg width="512" height="512" enable-background="new" version="1.0" xmlns="http://www.w3.org/2000/svg">
 <defs>
  <filter id="a" x="-.027273" y="-.021429" width="1.0545" height="1.0429" color-interpolation-filters="sRGB">
   <feGaussianBlur stdDeviation="4"/>
  </filter>
 </defs>
 <path d="m104 34c-13.296 0-24 10.704-24 24v400c0 13.296 10.704 24 24 24h304c13.296 0 24-10.704 24-24v-400c0-13.296-10.704-24-24-24h-152z" opacity=".2"/>
 <path transform="matrix(-1,0,0,1,720,228)" d="m312-192c-13.296 0-24 10.704-24 24v400c0 13.296 10.704 24 24 24h304c13.296 0 24-10.704 24-24v-400c0-13.296-10.704-24-24-24h-152z" filter="url(#a)" opacity=".1" stroke="#000" stroke-width="8"/>
 <path d="m104 36c-13.296 0-24 10.704-24 24v400c0 13.296 10.704 24 24 24h304c13.296 0 24-10.704 24-24v-400c0-13.296-10.704-24-24-24h-152z" filter="url(#a)" opacity=".2"/>
 <path d="m104 32c-13.296 0-24 10.704-24 24v400c0 13.296 10.704 24 24 24h304c13.296 0 24-10.704 24-24v-400c0-13.296-10.704-24-24-24h-152z" fill="#fec006"/>
 <path d="m104 32c-13.296 0-24 10.704-24 24v2c0-13.296 10.704-24 24-24h304c13.296 0 24 10.704 24 24v-2c0-13.296-10.704-24-24-24h-152z" fill="#fff" opacity=".2"/>
 <path d="m80 272v48c88.65 0 160 71.35 160 160h48c0-114.59-93.409-208-208-208zm0 80v48c44.467 0 80 35.533 80 80h48c0-70.408-57.592-128-128-128zm0 80v24c0 13.296 10.704 24 24 24h24c0-26.225-21.775-48-48-48z" color="#000000" color-rendering="auto" enable-background="accumulate" fill="#fff" image-rendering="auto" shape-rendering="auto" solid-color="#000000" style="isolation:auto;mix-blend-mode:normal;text-decoration-color:#000000;text-decoration-line:none;text-decoration-style:solid;text-indent:0;text-transform:none;white-space:normal"/>
 <path d="m104 480c-13.296 0-24-10.704-24-24v-2c0 13.296 10.704 24 24 24h304c13.296 0 24-10.704 24-24v2c0 13.296-10.704 24-24 24h-152z" opacity=".2"/>
</svg>
