<svg xmlns="http://www.w3.org/2000/svg" width="512" height="512" enable-background="new" version="1.0"><defs><filter id="a" width="1.047" height="1.049" x="-.023" y="-.025" color-interpolation-filters="sRGB"><feGaussianBlur stdDeviation="4.36"/></filter><filter id="d" width="1.113" height="1.129" x="-.056" y="-.064" color-interpolation-filters="sRGB"><feGaussianBlur stdDeviation="7.5"/></filter><clipPath id="b"><path fill="#3f51b5" d="m688 100-40-40H388c-11.08 0-20-8.92-20-20v-200c0-11.08 8.92-20 20-20h280c11.08 0 20 8.92 20 20V40z"/></clipPath></defs><path d="M180 50c-11.08 0-20 8.92-20 20v124H52c-11.08 0-20 8.92-20 20v260l40-40h260c11.08 0 20-8.92 20-20V290h88l40 40V70c0-11.08-8.92-20-20-20z" opacity=".2"/><path d="M388-176c-11.08 0-20 8.92-20 20v124H260c-11.08 0-20 8.92-20 20v260l40-40h260c11.08 0 20-8.92 20-20V64h88l40 40v-260c0-11.08-8.92-20-20-20z" filter="url(#a)" opacity=".1" transform="translate(-208 228)"/><path d="M388-176c-11.08 0-20 8.92-20 20v124H260c-11.08 0-20 8.92-20 20v260l40-40h260c11.08 0 20-8.92 20-20V64h88l40 40v-260c0-11.08-8.92-20-20-20z" filter="url(#a)" opacity=".2" transform="translate(-208 228)"/><path fill="#3f51b5" d="m480 328-40-40H180c-11.08 0-20-8.92-20-20V68c0-11.08 8.92-20 20-20h280c11.08 0 20 8.92 20 20v200z"/><path d="M160 266c0 11.08 8.92 20 20 20h260l40 40v2l-40-40H180c-11.08 0-20-8.92-20-20z" opacity=".1"/><path d="m240 250 40-40h260c11.08 0 20-8.92 20-20V-10c0-11.08-8.92-20-20-20H260c-11.08 0-20 8.92-20 20v200z" clip-path="url(#b)" filter="url(#d)" opacity=".2" transform="translate(-208 228)"/><path fill="#2196f3" d="m32 472 40-40h260c11.08 0 20-8.92 20-20V212c0-11.08-8.92-20-20-20H52c-11.08 0-20 8.92-20 20v200z"/><g fill="#fff"><path d="M52 192c-11.08 0-20 8.92-20 20v2c0-11.08 8.92-20 20-20h280c11.08 0 20 8.92 20 20v-2c0-11.08-8.92-20-20-20zM460 48c11.08 0 20 8.92 20 20v2c0-11.08-8.92-20-20-20H180c-11.08 0-20 8.92-20 20v-2c0-11.08 8.92-20 20-20z" opacity=".2"/><path d="M80 240v16h224v-16zm0 32v16h224v-16zm0 32v16h224v-16zm0 32v16h112v-16z" opacity=".6"/></g><path d="M352 410c0 11.08-8.92 20-20 20H72l-40 40v2l40-40h260c11.08 0 20-8.92 20-20z" opacity=".1"/></svg>