<svg width="512" height="512" enable-background="new" version="1.0" xmlns="http://www.w3.org/2000/svg" xmlns:osb="http://www.openswatchbook.org/uri/2009/osb">
 <defs>
  <filter id="a" x="-.027273" y="-.021429" width="1.0545" height="1.0429" color-interpolation-filters="sRGB">
   <feGaussianBlur stdDeviation="4"/>
  </filter>
  <clipPath id="b">
   <path d="m312 48c-13.296 0-24 10.704-24 24v400c0 13.296 10.704 24 24 24h304c13.296 0 24-10.704 24-24v-400c0-13.296-10.704-24-24-24h-152z" fill="#fec006"/>
  </clipPath>
 </defs>
 <g transform="translate(0,212)">
  <g>
   <g transform="translate(-208,16)">
    <g>
     <path d="m312-194c-13.296 0-24 10.704-24 24v400c0 13.296 10.704 24 24 24h304c13.296 0 24-10.704 24-24v-400c0-13.296-10.704-24-24-24h-152z" opacity=".2"/>
     <path transform="matrix(-1 0 0 1 928 0)" d="m312-192c-13.296 0-24 10.704-24 24v400c0 13.296 10.704 24 24 24h304c13.296 0 24-10.704 24-24v-400c0-13.296-10.704-24-24-24h-152z" filter="url(#a)" opacity=".1" stroke="#000" stroke-width="8"/>
     <path d="m312-192c-13.296 0-24 10.704-24 24v400c0 13.296 10.704 24 24 24h304c13.296 0 24-10.704 24-24v-400c0-13.296-10.704-24-24-24h-152z" filter="url(#a)" opacity=".2"/>
    </g>
    <path transform="translate(0,-244)" d="m312 48c-13.296 0-24 10.704-24 24v400c0 13.296 10.704 24 24 24h304c13.296 0 24-10.704 24-24v-400c0-13.296-10.704-24-24-24h-152z" fill="#fec006"/>
    <path transform="translate(0,76)" d="m312-272c-13.296 0-24 10.704-24 24v2c0-13.296 10.704-24 24-24h304c13.296 0 24 10.704 24 24v-2c0-13.296-10.704-24-24-24h-152z" fill="#fff" opacity=".2"/>
    <path transform="translate(0,-244)" d="m288 288c-114.59 0-208 93.409-208 208s93.409 208 208 208 208-93.409 208-208-93.409-208-208-208zm0 48c88.65 0 160 71.35 160 160s-71.35 160-160 160-160-71.35-160-160 71.35-160 160-160zm0 32c-70.408 0-128 57.592-128 128s57.592 128 128 128 128-57.592 128-128-57.592-128-128-128zm0 48c44.467 0 80 35.533 80 80s-35.533 80-80 80-80-35.533-80-80 35.533-80 80-80zm0 32c-26.225 0-48 21.775-48 48s21.775 48 48 48 48-21.775 48-48-21.775-48-48-48z" clip-path="url(#b)" color="#000000" color-rendering="auto" enable-background="accumulate" fill="#fff" image-rendering="auto" shape-rendering="auto" solid-color="#000000" style="isolation:auto;mix-blend-mode:normal;text-decoration-color:#000000;text-decoration-line:none;text-decoration-style:solid;text-indent:0;text-transform:none;white-space:normal"/>
    <path d="m312 252c-13.296 0-24-10.704-24-24v-2c0 13.296 10.704 24 24 24h304c13.296 0 24-10.704 24-24v2c0 13.296-10.704 24-24 24h-152z" opacity=".2"/>
   </g>
  </g>
 </g>
</svg>
