<svg xmlns="http://www.w3.org/2000/svg" width="512" height="512" enable-background="new" version="1.0"><defs><filter id="a" width="1.054" height="1.043" x="-.027" y="-.021" color-interpolation-filters="sRGB"><feGaussianBlur stdDeviation="4"/></filter></defs><path d="M104 34c-13.296 0-24 10.704-24 24v400c0 13.296 10.704 24 24 24h304c13.296 0 24-10.704 24-24V58c0-13.296-10.704-24-24-24H256z" opacity=".2"/><path stroke="#000" stroke-width="8" d="M312-192c-13.296 0-24 10.704-24 24v400c0 13.296 10.704 24 24 24h304c13.296 0 24-10.704 24-24v-400c0-13.296-10.704-24-24-24H464z" filter="url(#a)" opacity=".1" transform="matrix(-1 0 0 1 720 228)"/><path d="M104 36c-13.296 0-24 10.704-24 24v400c0 13.296 10.704 24 24 24h304c13.296 0 24-10.704 24-24V60c0-13.296-10.704-24-24-24H256z" filter="url(#a)" opacity=".2"/><path fill="#fec006" d="M104 32c-13.296 0-24 10.704-24 24v400c0 13.296 10.704 24 24 24h304c13.296 0 24-10.704 24-24V56c0-13.296-10.704-24-24-24H256z"/><path fill="#fff" d="M104 32c-13.296 0-24 10.704-24 24v2c0-13.296 10.704-24 24-24h304c13.296 0 24 10.704 24 24v-2c0-13.296-10.704-24-24-24H256z" opacity=".2"/><path fill="#fff" d="M80 272v48c88.65 0 160 71.35 160 160h48c0-114.59-93.409-208-208-208m0 80v48c44.467 0 80 35.533 80 80h48c0-70.408-57.592-128-128-128m0 80v24c0 13.296 10.704 24 24 24h24c0-26.225-21.775-48-48-48" color="#000" enable-background="accumulate" style="isolation:auto;mix-blend-mode:normal;text-decoration-color:#000;text-decoration-line:none;text-decoration-style:solid;text-indent:0;text-transform:none;white-space:normal"/><path d="M104 480c-13.296 0-24-10.704-24-24v-2c0 13.296 10.704 24 24 24h304c13.296 0 24-10.704 24-24v2c0 13.296-10.704 24-24 24H256z" opacity=".2"/></svg>