<svg xmlns="http://www.w3.org/2000/svg" width="64" height="64" version="1.0"><defs><filter id="a" width="1.087" height="1.106" x="-.044" y="-.053" color-interpolation-filters="sRGB"><feGaussianBlur stdDeviation="1.02"/></filter><filter id="b" width="1.086" height="1.109" x="-.043" y="-.054" color-interpolation-filters="sRGB"><feGaussianBlur stdDeviation=".86"/></filter></defs><rect width="56" height="46" x="4" y="10" filter="url(#a)" opacity=".25" rx="7" ry="7"/><rect width="56" height="46" x="4" y="9" fill="#f13758" rx="7" ry="7"/><rect width="48" height="38" x="8" y="14" filter="url(#b)" opacity=".1" rx="3" ry="3"/><rect width="48" height="38" x="8" y="13" fill="#f36780" rx="3" ry="3"/><path fill="#fff" d="M11 16v5.5a.5.5 0 0 0 .5.5.5.5 0 0 0 .5-.5V17h4.5a.5.5 0 0 0 .5-.5.5.5 0 0 0-.5-.5zM47.5 16a.5.5 0 0 0-.5.5.5.5 0 0 0 .5.5H52v4.5a.5.5 0 0 0 .5.5.5.5 0 0 0 .5-.5V16zM52.5 42a.5.5 0 0 0-.5.5V47h-4.5a.5.5 0 0 0-.5.5.5.5 0 0 0 .5.5H53v-5.5a.5.5 0 0 0-.5-.5M11.5 42a.5.5 0 0 0-.5.5V48h5.5a.5.5 0 0 0 .5-.5.5.5 0 0 0-.5-.5H12v-4.5a.5.5 0 0 0-.5-.5" color="#000" style="-inkscape-stroke:none"/><path fill="#fff" d="M30 27c-1.108 0-2 .892-2 2v6c0 1.108.892 2 2 2h8c1.108 0 2-.892 2-2v-6c0-1.108-.892-2-2-2zm-2 5-3-4h-1v8h1zm5.94-4H34a4 4 0 0 1 4 4 4 4 0 0 1-4 4 4 4 0 0 1-4-4 4 4 0 0 1 3.94-4m.011 2A2 2 0 0 0 32 32a2 2 0 0 0 2 2 2 2 0 0 0 2-2 2 2 0 0 0-2-2z"/><path fill="#fff" d="M11 9c-3.878 0-7 3.122-7 7v1c0-3.878 3.122-7 7-7h42c3.878 0 7 3.122 7 7v-1c0-3.878-3.122-7-7-7z" opacity=".15"/></svg>