<svg xmlns="http://www.w3.org/2000/svg" width="512" height="512" enable-background="new" version="1.0"><defs><filter id="d" width="1.111" height="1.131" x="-.056" y="-.065" color-interpolation-filters="sRGB"><feGaussianBlur stdDeviation="7.4"/></filter><filter id="a" width="1.046" height="1.05" x="-.023" y="-.025" color-interpolation-filters="sRGB"><feGaussianBlur stdDeviation="4.32"/></filter><clipPath id="b"><path fill="#feea3a" d="M392-180c-13.296 0-24 10.704-24 24V68c0 13.296 10.704 24 24 24h224c13.296 0 24-10.704 24-24v-200l48-48H560z"/></clipPath></defs><path d="M184 50c-13.296 0-24 10.704-24 24v120H32l48 48v200c0 13.296 10.704 24 24 24h224c13.296 0 24-10.704 24-24V322h56c13.296 0 24-10.704 24-24V98l48-48H352z" opacity=".2"/><path stroke="#000" stroke-linecap="round" stroke-linejoin="round" stroke-width="8" d="M392-176c-13.296 0-24 10.704-24 24v120H240l48 48v200c0 13.296 10.704 24 24 24h224c13.296 0 24-10.704 24-24V96h56c13.296 0 24-10.704 24-24v-200l48-48H560z" filter="url(#a)" opacity=".1" transform="translate(-208 228)"/><path d="M392-176c-13.296 0-24 10.704-24 24v120H240l48 48v200c0 13.296 10.704 24 24 24h224c13.296 0 24-10.704 24-24V96h56c13.296 0 24-10.704 24-24v-200l48-48H560z" filter="url(#a)" opacity=".2" transform="translate(-208 228)"/><path fill="#8bc34a" d="M184 48c-13.296 0-24 10.704-24 24v224c0 13.296 10.704 24 24 24h224c13.296 0 24-10.704 24-24V96l48-48H352z"/><path d="m240-26 48 48v200c0 13.296 10.704 24 24 24h224c13.296 0 24-10.704 24-24V-2c0-13.296-10.705-23.842-24-24H312z" clip-path="url(#b)" filter="url(#d)" opacity=".2" transform="translate(-208 228)"/><path fill="#4caf50" d="m32 192 48 48v200c0 13.296 10.704 24 24 24h224c13.296 0 24-10.704 24-24V216c0-13.296-10.704-24-24-24H104z"/><path fill="#fff" d="M184 48c-13.296 0-24 10.704-24 24v2c0-13.296 10.704-24 24-24h294l2-2H352zM31 192l2 2h294c13.296 0 24 10.704 24 24v-2c0-13.296-10.704-24-24-24H103z" opacity=".2"/><path fill="#fff" d="M176 240v48h-32v16h32v48h-32v16h32v48h16v-48h48v48h16v-48h32v-16h-32v-48h32v-16h-32v-48h-16v48h-48v-48zm16 64h48v48h-48z"/></svg>