<svg xmlns="http://www.w3.org/2000/svg" width="512" height="512" enable-background="new" version="1.0"><defs><filter id="a" width="1.048" height="1.048" x="-.024" y="-.024" color-interpolation-filters="sRGB"><feGaussianBlur stdDeviation="4.48"/></filter></defs><g transform="translate(-208 228)"><rect width="448" height="448" x="-256" y="-688" enable-background="new" filter="url(#a)" opacity=".1" rx="36" ry="36" transform="scale(1 -1)rotate(90)"/><rect width="448" height="448" x="-256" y="-688" enable-background="new" filter="url(#a)" opacity=".2" rx="36" ry="36" transform="scale(1 -1)rotate(90)"/><rect width="448" height="448" x="-252" y="-688" fill="#dd4f37" enable-background="new" rx="36" ry="36" transform="scale(1 -1)rotate(90)"/><path fill="#fff" d="M276-196c-19.944 0-36 16.056-36 36v2c0-19.944 16.056-36 36-36h376c19.944 0 36 16.056 36 36v-2c0-19.944-16.056-36-36-36z" enable-background="new" opacity=".2"/><g fill-rule="evenodd" clip-rule="evenodd" opacity=".2"><path d="M418.861 120.026s-13.138 7.647 9.36 10.227c27.261 3.112 41.192 2.664 71.224-3.013 0 0 7.912 4.95 18.942 9.236-67.347 28.853-152.42-1.672-99.528-16.45zM410.626 82.367s-14.738 10.912 7.778 13.239c29.123 3.006 52.113 3.253 91.917-4.408 0 0 5.492 5.58 14.143 8.629-81.414 23.813-172.088 1.873-113.842-17.46zM479.994 18.472c16.602 19.111-4.354 36.295-4.354 36.295s42.133-21.746 22.787-48.99c-18.074-25.396-31.931-38.012 43.088-81.52.001 0-117.765 29.404-61.521 94.214z"/><path d="M569.065 147.882s9.726 8.018-10.712 14.218c-38.863 11.772-161.785 15.323-195.927.472-12.264-5.342 10.746-12.747 17.985-14.31 7.55-1.634 11.86-1.335 11.86-1.335-13.65-9.612-88.224 18.877-37.876 27.048 137.299 22.255 250.28-10.024 214.666-26.092zM425.182 43.342s-62.517 14.853-22.138 20.251c17.054 2.282 51.032 1.757 82.704-.9 25.877-2.172 51.846-6.817 51.846-6.817s-9.118 3.912-15.719 8.417c-63.5 16.7-186.143 8.923-150.829-8.152 29.851-14.44 54.134-12.8 54.134-12.8zM537.339 106.024c64.543-33.53 34.698-65.757 13.867-61.416-5.094 1.063-7.38 1.984-7.38 1.984s1.898-2.973 5.512-4.252c41.21-14.482 72.896 42.725-13.289 65.38 0 0 .99-.898 1.29-1.697zM498.431-146.006s35.737 35.758-33.906 90.727c-55.85 44.113-12.734 69.256-.02 97.996-32.603-29.413-56.517-55.31-40.477-79.405 23.554-35.369 88.818-52.522 74.404-109.318z"/><path d="M431.526 196.916c61.94 3.96 157.084-2.204 159.335-31.516 0 0-4.329 11.112-51.195 19.928-52.873 9.954-118.1 8.796-156.772 2.41 0 0 7.922 6.558 48.63 9.177z"/></g><g fill="#fff" fill-rule="evenodd" clip-rule="evenodd"><path d="M418.861 122.026s-13.138 7.647 9.36 10.227c27.261 3.112 41.192 2.664 71.224-3.013 0 0 7.912 4.95 18.942 9.236-67.347 28.853-152.42-1.672-99.528-16.45zM410.626 84.367s-14.738 10.912 7.778 13.239c29.123 3.006 52.113 3.253 91.917-4.408 0 0 5.492 5.58 14.143 8.629-81.414 23.813-172.088 1.873-113.842-17.46zM479.994 20.472c16.602 19.111-4.354 36.295-4.354 36.295s42.133-21.746 22.787-48.99c-18.074-25.396-31.931-38.012 43.088-81.52.001 0-117.765 29.404-61.521 94.214z"/><path d="M569.065 149.882s9.726 8.018-10.712 14.218c-38.863 11.772-161.785 15.323-195.927.472-12.264-5.342 10.746-12.747 17.985-14.31 7.55-1.634 11.86-1.335 11.86-1.335-13.65-9.612-88.224 18.877-37.876 27.048 137.299 22.255 250.28-10.024 214.666-26.092zM425.182 45.342s-62.517 14.853-22.138 20.251c17.054 2.282 51.032 1.757 82.704-.9 25.877-2.172 51.846-6.817 51.846-6.817s-9.118 3.912-15.719 8.417c-63.5 16.7-186.143 8.923-150.829-8.152 29.851-14.44 54.134-12.8 54.134-12.8zM537.339 108.024c64.543-33.53 34.698-65.757 13.867-61.416-5.094 1.063-7.38 1.984-7.38 1.984s1.898-2.973 5.512-4.252c41.21-14.482 72.896 42.725-13.289 65.38 0 0 .99-.898 1.29-1.697zM498.431-144.006s35.737 35.758-33.906 90.727c-55.85 44.113-12.734 69.256-.02 97.996-32.603-29.413-56.517-55.31-40.477-79.405 23.554-35.369 88.818-52.522 74.404-109.318z"/><path d="M431.526 198.916c61.94 3.96 157.084-2.204 159.335-31.516 0 0-4.329 11.112-51.195 19.928-52.873 9.954-118.1 8.796-156.772 2.41 0 0 7.922 6.558 48.63 9.177z"/></g></g></svg>