<svg width="512" height="512" enable-background="new" version="1.0" xmlns="http://www.w3.org/2000/svg">
 <defs>
  <filter id="a" x="-.024" y="-.024" width="1.048" height="1.048" color-interpolation-filters="sRGB">
   <feGaussianBlur stdDeviation="4.48"/>
  </filter>
  <filter id="b" x="-.022364" y="-.025895" width="1.0447" height="1.0518" color-interpolation-filters="sRGB">
   <feGaussianBlur stdDeviation="3.28"/>
  </filter>
 </defs>
 <g transform="translate(0,212)">
  <g>
   <g transform="translate(-208,16)">
    <g>
     <path d="m264-194c-13.296 0-24 10.704-24 24v352c0 13.296 10.704 24 24 24h24v48h352v-48h24c13.296 0 24-10.704 24-24v-352c0-13.296-10.704-24-24-24z" enable-background="new" opacity=".2"/>
     <path d="m264-192c-13.296 0-24 10.704-24 24v352c0 13.296 10.704 24 24 24h24v48h352v-48h24c13.296 0 24-10.704 24-24v-352c0-13.296-10.704-24-24-24z" enable-background="new" filter="url(#a)" opacity=".1"/>
     <path d="m264-192c-13.296 0-24 10.704-24 24v352c0 13.296 10.704 24 24 24h24v48h352v-48h24c13.296 0 24-10.704 24-24v-352c0-13.296-10.704-24-24-24z" enable-background="new" filter="url(#a)" opacity=".2"/>
    </g>
    <rect x="240" y="-196" width="448" height="400" ry="24" enable-background="new" fill="#4bae4f"/>
    <path d="m304-146h320c8.864 0 16 7.136 16 16v216c0 8.864-7.136 16-16 16h-320c-8.864 0-16-7.136-16-16v-216c0-8.864 7.136-16 16-16z" filter="url(#b)" opacity=".2"/>
    <path d="m264-196c-13.296 0-24 10.704-24 24v2c0-13.296 10.704-24 24-24h400c13.296 0 24 10.704 24 24v-2c0-13.296-10.704-24-24-24z" enable-background="new" fill="#fff" opacity=".2"/>
    <path d="m240 176v4c0 13.296 10.704 24 24 24h400c13.296 0 24-10.704 24-24v-4c0 13.296-10.704 24-24 24h-400c-13.296 0-24-10.704-24-24z" enable-background="new" opacity=".2"/>
    <rect x="288" y="200" width="352" height="52" ry="0" enable-background="new" fill="#feea3a"/>
    <rect x="288" y="248" width="352" height="4" ry="0" enable-background="new" opacity=".2"/>
    <path d="m288 200v2h352v-2z" enable-background="new" fill="#fff" opacity=".2"/>
    <path d="m304-148h320c8.864 0 16 7.136 16 16v216c0 8.864-7.136 16-16 16h-320c-8.864 0-16-7.136-16-16v-216c0-8.864 7.136-16 16-16z" fill="#3f3f3f"/>
    <path d="m288 76v8c0 8.864 7.136 16 16 16h320c8.864 0 16-7.136 16-16v-8c0 8.864-7.136 16-16 16h-320c-8.864 0-16-7.136-16-16z" opacity=".2"/>
    <path d="m304-148c-8.864 0-16 7.136-16 16v2c0-8.864 7.136-16 16-16h320c8.864 0 16 7.136 16 16v-2c0-8.864-7.136-16-16-16z" fill="#fff" opacity=".1"/>
   </g>
  </g>
 </g>
</svg>
