<svg width="64" height="64" version="1.1" viewBox="0 0 64 64" xmlns="http://www.w3.org/2000/svg">
 <defs>
  <filter id="filter942" x="-.06" y="-.06" width="1.12" height="1.12" color-interpolation-filters="sRGB">
   <feGaussianBlur stdDeviation="1.15"/>
  </filter>
  <filter id="filter931" x="-.047998" y="-.048002" width="1.096" height="1.096" color-interpolation-filters="sRGB">
   <feGaussianBlur stdDeviation="0.5843147"/>
  </filter>
 </defs>
 <path transform="matrix(1.2174 0 0 1.2174 2.7826 -17.425)" d="m24 18.125c12.703 0 23 10.297 23 23s-10.297 23-23 23-23-10.297-23-23 10.297-23 23-23z" fill="#000000" filter="url(#filter942)" opacity=".35"/>
 <path d="m32 4c15.465 0 28 12.535 28 28s-12.535 28-28 28-28-12.535-28-28 12.535-28 28-28z" fill="#7ed45c" stroke-width="1.2174"/>
 <path d="m46.608 20.212s-2.4348 3.6643-6.087 3.6643c-3.405-0.65617-4.7551-0.09983-4.8696 0v14.743c-0.16191 3.1056-2.7063 6.2197-6.496 7.6513-4.8075 1.8163-9.8913 0.23739-11.361-3.5426-1.4743-3.7715 1.2174-8.3452 6.0297-10.163 3.724-1.4024 7.1424-1.0555 9.3922 1.0555v-14.621c4.8696-3.2431 9.397 1.165 13.391 1.2174" fill="#000000" filter="url(#filter931)" opacity=".2"/>
 <path d="m46.608 19.795s-2.4348 3.6643-6.087 3.6643c-3.405-0.65617-4.7551-0.09983-4.8696 0v14.743c-0.16191 3.1056-2.7063 6.2197-6.496 7.6513-4.8075 1.8163-9.8913 0.23739-11.361-3.5426-1.4743-3.7715 1.2174-8.3452 6.0297-10.163 3.724-1.4024 7.1424-1.0555 9.3922 1.0555v-14.621c4.8696-3.2431 9.397 1.165 13.391 1.2174" fill="#ffffff"/>
 <path d="m32 4c-15.465 0-28 12.535-28 28 0 0.16765 0.010738 0.33305 0.013672 0.5 0.26771-15.233 12.689-27.5 27.986-27.5s27.719 12.267 27.986 27.5c0.002934-0.16695 0.013672-0.33235 0.013672-0.5 0-15.465-12.535-28-28-28z" fill="#ffffff" opacity=".25"/>
</svg>
