<svg xmlns="http://www.w3.org/2000/svg" width="64" height="64"><defs><filter id="a" width="1.12" height="1.12" x="-.06" y="-.06" color-interpolation-filters="sRGB"><feGaussianBlur stdDeviation="1.15"/></filter><filter id="b" width="1.096" height="1.096" x="-.048" y="-.048" color-interpolation-filters="sRGB"><feGaussianBlur stdDeviation=".584"/></filter></defs><path d="M24 18.125c12.703 0 23 10.297 23 23s-10.297 23-23 23-23-10.297-23-23 10.297-23 23-23" filter="url(#a)" opacity=".35" transform="translate(2.783 -17.425)scale(1.2174)"/><path fill="#7ed45c" d="M32 4c15.465 0 28 12.535 28 28S47.465 60 32 60 4 47.465 4 32 16.535 4 32 4"/><path d="M46.608 20.212s-2.435 3.664-6.087 3.664c-3.405-.656-4.755-.1-4.87 0V38.62c-.162 3.106-2.706 6.22-6.496 7.652-4.807 1.816-9.89.237-11.36-3.543-1.475-3.771 1.217-8.345 6.03-10.163 3.723-1.402 7.142-1.055 9.391 1.056V18.999c4.87-3.243 9.397 1.165 13.391 1.218" filter="url(#b)" opacity=".2"/><path fill="#fff" d="M46.608 19.795s-2.435 3.664-6.087 3.664c-3.405-.656-4.755-.1-4.87 0v14.743c-.162 3.106-2.706 6.22-6.496 7.652-4.807 1.816-9.89.237-11.36-3.543-1.475-3.771 1.217-8.345 6.03-10.163 3.723-1.402 7.142-1.056 9.391 1.055v-14.62c4.87-3.244 9.397 1.164 13.391 1.217"/><path fill="#fff" d="M32 4C16.535 4 4 16.535 4 32c0 .168.01.333.014.5C4.28 17.267 16.703 5 32 5s27.719 12.267 27.986 27.5c.003-.167.013-.332.013-.5C60 16.535 47.464 4 32 4z" opacity=".25"/></svg>