<svg xmlns="http://www.w3.org/2000/svg" width="512" height="512" enable-background="new" version="1.0"><defs><filter id="a" width="1.048" height="1.048" x="-.024" y="-.024" color-interpolation-filters="sRGB"><feGaussianBlur stdDeviation="4.48"/></filter><filter id="d" width="1.048" height="1.048" x="-.024" y="-.024" color-interpolation-filters="sRGB"><feGaussianBlur stdDeviation="2.4"/></filter><clipPath id="b"><path fill="#eaeaea" d="M291.25 184.09c-32.833 0-59.265 26.432-59.265 59.265s26.432 59.265 59.265 59.265 59.265-26.432 59.265-59.265-26.432-59.265-59.265-59.265m0 46.566a12.7 12.7 0 0 1 12.7 12.7 12.7 12.7 0 0 1-12.7 12.7 12.7 12.7 0 0 1-12.7-12.7 12.7 12.7 0 0 1 12.7-12.7" opacity=".5"/></clipPath></defs><g transform="translate(-208 868)"><path stroke="#000" stroke-width="8" d="M464-832c-124.1 0-224 99.904-224 224s99.904 224 224 224 224-99.904 224-224-99.904-224-224-224zm0 176a48 48 0 0 1 48 48 48 48 0 0 1-48 48 48 48 0 0 1-48-48 48 48 0 0 1 48-48z" filter="url(#a)" opacity=".1"/><path d="M464-832c-124.1 0-224 99.904-224 224s99.904 224 224 224 224-99.904 224-224-99.904-224-224-224m0 176a48 48 0 0 1 48 48 48 48 0 0 1-48 48 48 48 0 0 1-48-48 48 48 0 0 1 48-48" filter="url(#a)" opacity=".2"/><path fill="#e0e2e3" d="M464-724a112 112 0 0 0-112 112 112 112 0 0 0 112 112 112 112 0 0 0 112-112 112 112 0 0 0-112-112m0 64a48 48 0 0 1 48 48 48 48 0 0 1-48 48 48 48 0 0 1-48-48 48 48 0 0 1 48-48" opacity=".8"/><path fill="#e0e2e3" d="M464-836c-124.096 0-224 99.904-224 224s99.904 224 224 224 224-99.904 224-224-99.904-224-224-224m0 128a96 96 0 0 1 96 96 96 96 0 0 1-96 96 96 96 0 0 1-96-96 96 96 0 0 1 96-96"/><g fill="#fff" fill-rule="evenodd" clip-path="url(#b)" transform="translate(-636.808 -1531.76)scale(3.7796)"><path d="m212.044 209.41 79.196 33.942-33.941-79.196zm79.196 33.942 33.94 79.195 45.255-45.255z" clip-path="none" opacity=".2"/><path d="m206.589 227.352 84.665 15.995-50.278-69.973zm84.665 15.995 50.279 69.973 34.387-53.978z" clip-path="none" opacity=".2"/></g><path fill="#fff" d="M464-836c-124.096 0-224 99.904-224 224 0 1.342.086 2.664.11 4 2.127-122.232 101.136-220 223.888-220s221.76 97.768 223.888 220c.024-1.336.11-2.658.11-4 0-124.096-99.905-224-224-224z" opacity=".1"/><circle cx="584" cy="-486" r="120" stroke="#000" stroke-width="8" enable-background="new" filter="url(#d)" opacity=".1"/><circle cx="584" cy="-486" r="120" enable-background="new" filter="url(#d)" opacity=".2"/><circle cx="584" cy="-492" r="120" fill="#ff5722" enable-background="new"/><path fill="#fff" d="M582.1-441.69c-11.683 0-21.069-9.255-21.069-20.609 0-10.633 6.76-18.115 18.378-20.478s23.629-7.942 30.323-16.934c2.56 8.467 3.807 17.393 3.807 26.517 0 17.328-14.046 31.505-31.44 31.505m11.75-120.31s4.857 17.393 4.857 31.505c0 13.521-8.861 24.482-22.382 24.482-13.586 0-23.826-10.961-23.826-24.482l.197-2.428c-13.258 15.752-21.2 36.165-21.2 58.415A52.51 52.51 0 0 0 584.003-422a52.51 52.51 0 0 0 52.508-52.508c0-35.443-17-66.948-42.663-87.492z" enable-background="new"/></g></svg>