<svg xmlns="http://www.w3.org/2000/svg" width="64" height="64"><defs><filter id="a" width="1.05" height="1.059" x="-.025" y="-.03" color-interpolation-filters="sRGB"><feGaussianBlur stdDeviation=".619"/></filter><filter id="b" width="1.311" height="1.311" x="-.156" y="-.156" color-interpolation-filters="sRGB"><feGaussianBlur stdDeviation=".389"/></filter><filter id="c" width="1.065" height="1.182" x="-.033" y="-.091" color-interpolation-filters="sRGB"><feGaussianBlur stdDeviation=".68"/></filter></defs><g transform="translate(-384.57 -483.8)"><rect width="60" height="50" x="386.57" y="493" filter="url(#a)" opacity=".35" ry="3"/><rect width="60" height="50" x="386.57" y="492.8" fill="#455a64" ry="3"/><path fill="#b0bec5" d="M391.57 538.8v2h1v-2zm4 0v2h1v-2zm4 0v2h1v-2zm4 0v2h1v-2zm4 0v2h1v-2zm4 0v2h1v-2zm4 0v2h1v-2zm4 0v2h1v-2zm4 0v2h1v-2zm4 0v2h1v-2zm4 0v2h1v-2zm9 0v2h1v-2zm-51 1v1h1v-1zm4 0v1h1v-1zm4 0v1h1v-1zm4 0v1h1v-1zm4 0v1h1v-1zm4 0v1h1v-1zm4 0v1h1v-1zm4 0v1h1v-1zm4 0v1h1v-1zm4 0v1h1v-1zm4 0v1h1v-1zm9 0v1h1v-1zm4 0v1h1v-1zm-7-5h1v6h-1z"/><path fill="#eee" d="M438.57 522.8v2h1v-1h1v-1zm3 0v1h1v1h1v-2zm-3 3v2h2v-1h-1v-1zm4 0v1h-1v1h2v-2z"/><path fill="#ffd54f" d="M436.071 530.798a1.5 1.5 0 0 0-1.5 1.5c0 .828 1 3.5 1.5 3.5s1.5-2.672 1.5-3.5a1.5 1.5 0 0 0-1.5-1.5m0 1a.5.5 0 1 1 0 1 .5.5 0 0 1 0-1"/><path fill="#eceff1" fill-rule="evenodd" d="M390.558 521.798a1 1 0 0 0-.987 1v3.998a1 1 0 0 0 1.555.832l3-2a1 1 0 0 0 0-1.663l-3-2a1 1 0 0 0-.568-.167" font-family="sans-serif" font-weight="400" overflow="visible" style="block-progression:tb;isolation:auto;mix-blend-mode:normal;text-decoration-color:#000;text-decoration-line:none;text-decoration-style:solid;text-indent:0;text-transform:none;white-space:normal"/><rect width="30" height="2" x="406.57" y="523.8" fill="#eee" ry=".926"/><rect width="10" height="2" x="396.57" y="523.8" fill="#42a5f5" ry="1"/><circle cx="406.57" cy="524.8" r="3" filter="url(#b)" opacity=".15"/><circle cx="406.57" cy="524.8" r="3" fill="#78909c"/><path fill="#b0bec5" fill-rule="evenodd" d="m434.57 540.8 1-2h1l1 2z"/><path fill="#263238" d="M388.57 495.8v2h3v-2zm5 0v2h4v-2zm6 0v2h4v-2zm6 0v2h4v-2zm6 0v2h4v-2zm6 0v2h4v-2zm6 0v2h4v-2zm6 0v2h4v-2zm6 0v2h4v-2zm6 0v2h3v-2z"/><path d="M7 17.039V35h6V17.039zm10 0V35h30V17.039zm34 0V35h6V17.039z" filter="url(#c)" opacity=".15" transform="translate(384.57 483.8)"/><path fill="#81d4fa" d="M391.57 500.839V518.8h6v-17.961zm10 0V518.8h30v-17.961zm34 0V518.8h6v-17.961z"/></g></svg>