<svg xmlns="http://www.w3.org/2000/svg" width="512" height="512" enable-background="new" version="1.0"><defs><filter id="a" width="1.048" height="1.048" x="-.024" y="-.024" color-interpolation-filters="sRGB"><feGaussianBlur stdDeviation="4.48"/></filter><filter id="c" width="1.048" height="1.048" x="-.024" y="-.024" color-interpolation-filters="sRGB"><feGaussianBlur stdDeviation="3.52"/></filter><filter id="d" width="1.052" height="1.044" x="-.026" y="-.022" color-interpolation-filters="sRGB"><feGaussianBlur stdDeviation="2.1"/></filter><filter id="e" width="1.052" height="1.044" x="-.026" y="-.022" color-interpolation-filters="sRGB"><feGaussianBlur stdDeviation="2.1"/></filter></defs><g transform="translate(-208 228)"><rect width="448" height="448" x="-256" y="-688" stroke="#000" stroke-width="8" filter="url(#a)" opacity=".1" rx="224" ry="224" transform="scale(1 -1)rotate(90)"/><rect width="448" height="448" x="-256" y="-688" filter="url(#a)" opacity=".2" rx="224" ry="224" transform="scale(1 -1)rotate(90)"/><rect width="448" height="448" x="-252" y="-688" fill="#607d8b" rx="224" ry="224" transform="scale(1 -1)rotate(90)"/><rect width="352" height="352" x="-208" y="-640" stroke="#000" stroke-width="8" enable-background="new" filter="url(#c)" opacity=".1" rx="176" ry="176" transform="scale(1 -1)rotate(90)"/><rect width="352" height="352" x="-208" y="-640" enable-background="new" filter="url(#c)" opacity=".2" rx="176" ry="176" transform="scale(1 -1)rotate(90)"/><rect width="352" height="352" x="-204" y="-640" fill="#90a4ae" enable-background="new" rx="176" ry="176" transform="scale(1 -1)rotate(90)"/><path stroke="#000" stroke-width="8" d="m464-100-35.625 42.75C392.943-43.127 368-8.469 368 32c0 53.019 42.98 96 96 96 53.019 0 96-42.981 96-96 0-40.469-24.943-75.127-60.375-89.25z" filter="url(#d)" opacity=".1"/><path d="m464-100-35.625 42.75C392.943-43.127 368-8.469 368 32c0 53.019 42.98 96 96 96 53.019 0 96-42.981 96-96 0-40.469-24.943-75.127-60.375-89.25z" filter="url(#e)" opacity=".2"/><path fill="#eceff1" d="m464-104-35.625 42.75C392.943-47.127 368-12.469 368 28c0 53.019 42.98 96 96 96 53.019 0 96-42.981 96-96 0-40.469-24.943-75.127-60.375-89.25z"/><path fill="#fff" d="M464-148c-97.504 0-176 78.496-176 176 0 .246.011.49.016.734.677-96.915 78.904-174.73 175.98-174.73s175.31 77.82 175.98 174.73c.004-.245.015-.488.015-.734 0-97.504-78.496-176-176-176z" opacity=".2"/><path d="M464 252c-124.1 0-224-99.904-224-224 0-.233.011-.463.016-.695.699 123.49 100.32 222.7 223.98 222.7 123.67 0 223.3-99.216 223.98-222.71.005.238.015.475.015.715 0 124.1-99.904 224-224 224z" opacity=".2"/><path fill="#fff" d="m464-104-35.625 42.75C392.943-47.127 368-12.469 368 28c0 .213.018.422.025.633.556-39.88 25.318-73.92 60.35-87.883L464-102l35.625 42.75c35.031 13.963 59.794 48.003 60.35 87.883.008-.211.026-.42.026-.633 0-40.469-24.943-75.127-60.375-89.25z" opacity=".6"/><path fill="#fff" d="M464-196c-124.1 0-224 99.904-224 224 0 .233.011.463.016.695.699-123.49 100.32-222.7 223.98-222.7 123.67 0 223.3 99.216 223.98 222.71.004-.238.015-.475.015-.715 0-124.1-99.904-224-224-224z" opacity=".2"/></g></svg>