<svg xmlns="http://www.w3.org/2000/svg" width="512" height="512" enable-background="new" version="1.0"><defs><filter id="a" width="1.048" height="1.048" x="-.024" y="-.024" color-interpolation-filters="sRGB"><feGaussianBlur stdDeviation="4.8"/></filter><filter id="c" width="1.048" height="1.048" x="-.024" y="-.024" color-interpolation-filters="sRGB"><feGaussianBlur stdDeviation="4.8"/></filter></defs><g transform="translate(-208 228)"><circle cx="464" cy="32" r="240" filter="url(#a)" opacity=".2"/><circle cx="464" cy="30" r="240" opacity=".2"/><circle cx="464" cy="32" r="240" stroke="#000" stroke-width="8" filter="url(#c)" opacity=".1"/><circle cx="464" cy="28" r="240" fill="#f9f9f9"/><path fill="#fff" d="M464-212A240 240 0 0 0 224 28l.041 1.172A240 240 0 0 1 464-210 240 240 0 0 1 703.959 28.828L704 28a240 240 0 0 0-240-240" opacity=".2"/><path fill="#03a9f4" d="M496-4h38l-70 104L394-4h38v-80h64zM384 108h160v32H384z" enable-background="new"/></g></svg>