<svg width="64" height="64" version="1" xmlns="http://www.w3.org/2000/svg">
 <defs>
  <filter id="filter981" x="-.048" y="-.048" width="1.096" height="1.096" color-interpolation-filters="sRGB">
   <feGaussianBlur stdDeviation="1.12"/>
  </filter>
 </defs>
 <rect x="4" y="5" width="56" height="56" rx="3" ry="3" fill="#000000" filter="url(#filter981)" opacity=".25"/>
 <rect x="4" y="4" width="56" height="56" rx="3" ry="3" fill="#ff5555"/>
 <path d="m7 4c-1.662 0-3 1.338-3 3v1c0-1.662 1.338-3 3-3h50c1.662 0 3 1.338 3 3v-1c0-1.662-1.338-3-3-3h-50z" fill="#ffffff" opacity=".1"/>
 <circle cx="32" cy="32" r="6" fill="#ffffff"/>
 <circle cx="46" cy="48" r="6" fill="#ffffff"/>
 <circle cx="16" cy="16" r="6" fill="#ffffff"/>
 <circle transform="scale(1,-1)" cx="46" cy="-16" r="6" fill="#ffffff"/>
 <circle transform="scale(1,-1)" cx="16" cy="-48" r="6" fill="#ffffff"/>
</svg>
