<svg xmlns="http://www.w3.org/2000/svg" width="64" height="64" version="1"><defs><filter id="a" width="1.096" height="1.096" x="-.048" y="-.048" color-interpolation-filters="sRGB"><feGaussianBlur stdDeviation="1.12"/></filter></defs><rect width="56" height="56" x="4" y="5" filter="url(#a)" opacity=".25" rx="3" ry="3"/><rect width="56" height="56" x="4" y="4" fill="#f55" rx="3" ry="3"/><path fill="#fff" d="M7 4C5.338 4 4 5.338 4 7v1c0-1.662 1.338-3 3-3h50c1.662 0 3 1.338 3 3V7c0-1.662-1.338-3-3-3z" opacity=".1"/><circle cx="32" cy="32" r="6" fill="#fff"/><circle cx="46" cy="48" r="6" fill="#fff"/><circle cx="16" cy="16" r="6" fill="#fff"/><circle cx="46" cy="-16" r="6" fill="#fff" transform="scale(1 -1)"/><circle cx="16" cy="-48" r="6" fill="#fff" transform="scale(1 -1)"/></svg>