<svg xmlns="http://www.w3.org/2000/svg" width="512" height="512" enable-background="new" version="1.0"><defs><filter id="a" width="1.048" height="1.048" x="-.024" y="-.024" color-interpolation-filters="sRGB"><feGaussianBlur stdDeviation="4.8"/></filter></defs><g fill-rule="evenodd" color="#000"><path stroke="#000" stroke-linejoin="round" stroke-width="8" d="M255.53 20a32 32 0 0 0-22.156 9.37l-208 208c-12.494 12.496-12.494 32.756 0 45.253l208 208c12.497 12.494 32.756 12.494 45.254 0l208-208c12.494-12.497 12.494-32.757 0-45.254l-208-208A32 32 0 0 0 255.53 20z" enable-background="accumulate" filter="url(#a)" opacity=".1" style="isolation:auto;mix-blend-mode:normal;text-decoration-color:#000;text-decoration-line:none;text-decoration-style:solid;text-indent:0;text-transform:none;white-space:normal"/><path d="M255.53 20a32 32 0 0 0-22.156 9.37l-208 208c-12.494 12.496-12.494 32.756 0 45.253l208 208c12.497 12.494 32.756 12.494 45.254 0l208-208c12.494-12.497 12.494-32.757 0-45.254l-208-208A32 32 0 0 0 255.53 20" enable-background="accumulate" filter="url(#a)" opacity=".2" style="isolation:auto;mix-blend-mode:normal;text-decoration-color:#000;text-decoration-line:none;text-decoration-style:solid;text-indent:0;text-transform:none;white-space:normal"/><path fill="#12b2e7" d="M255.53 16a32 32 0 0 0-22.156 9.37l-208 208c-12.494 12.496-12.494 32.756 0 45.253l208 208c12.497 12.494 32.756 12.494 45.254 0l208-208c12.494-12.497 12.494-32.757 0-45.254l-208-208A32 32 0 0 0 255.53 16" enable-background="accumulate" style="isolation:auto;mix-blend-mode:normal;text-decoration-color:#000;text-decoration-line:none;text-decoration-style:solid;text-indent:0;text-transform:none;white-space:normal"/><path fill="#fff" d="M255.53 16.004a32 32 0 0 0-22.156 9.37l-208 208c-6.502 6.502-9.612 15.107-9.348 23.626.244-7.853 3.355-15.633 9.348-21.627l208-208a32 32 0 0 1 45.254 0l208 208c5.993 5.994 9.104 13.774 9.348 21.627.264-8.52-2.846-17.124-9.348-23.627l-208-208a32 32 0 0 0-23.098-9.369" enable-background="accumulate" opacity=".2" style="isolation:auto;mix-blend-mode:normal;text-decoration-color:#000;text-decoration-line:none;text-decoration-style:solid;text-indent:0;text-transform:none;white-space:normal"/></g><path fill="#fff" d="m168 90.742-64 64v202.51l48.002 48.002 104-104 104 104L405.256 360l-104-104 104-104-45.254-45.254-192 192v-208z" color="#000" enable-background="accumulate" style="font-feature-settings:normal;font-variant-alternates:normal;font-variant-caps:normal;font-variant-ligatures:normal;font-variant-numeric:normal;font-variant-position:normal;isolation:auto;mix-blend-mode:normal;shape-padding:0;text-decoration-color:#000;text-decoration-line:none;text-decoration-style:solid;text-indent:0;text-orientation:mixed;text-transform:none;white-space:normal"/></svg>