<svg width="512" height="512" enable-background="new" version="1.0" xmlns="http://www.w3.org/2000/svg">
 <defs>
  <filter id="a" x="-.024" y="-.024" width="1.048" height="1.048" color-interpolation-filters="sRGB">
   <feGaussianBlur stdDeviation="4.8"/>
  </filter>
 </defs>
 <circle cx="256" cy="260" r="240" enable-background="new" filter="url(#a)" opacity=".1"/>
 <circle cx="256" cy="260" r="240" enable-background="new" filter="url(#a)" opacity=".2"/>
 <circle cx="256" cy="256" r="240" enable-background="new" fill="#0087ed"/>
 <path d="M 256,16 A 240,240 0 0 0 16,256 240,240 0 0 0 16.041,257.17188 240,240 0 0 1 256,18 240,240 0 0 1 495.95898,256.82812 240,240 0 0 0 496,256 240,240 0 0 0 256,16 Z" enable-background="new" fill="#fff" opacity=".2"/>
 <path d="m151 115.96c-0.36155 0-0.81642 0.0933-1.0963 0.36155l-10.205 10.205c-0.54817 0.54816-0.54817 1.6445 0 2.1927l14.217 14.217-4.0121 4.0121c-0.90973 0.90972-1.0497 2.1927-0.36156 3.2773l25.146 41.556c-4.2337 7.2428-7.4294 14.894-9.8437 22.965l-46.653 9.8437c-1.2713 0.26825-2.1927 1.2713-2.1927 2.5542v30.382c0 1.1896 0.95638 2.1927 2.1927 2.5542l45.195 10.94c2.321 9.3888 5.9249 18.358 10.567 26.604l-26.242 39.725c-0.73478 1.0497-0.54817 2.6475 0.36155 3.6506l21.145 21.145c0.90973 0.90972 2.5542 1.003 3.6506 0.36155l40.821-24.784c7.6977 4.467 15.99 8.1059 24.784 10.567l9.4821 45.556c0.26826 1.2713 1.2713 2.1927 2.5542 2.1927h30.254c1.2713 0 2.2743-0.95638 2.5542-2.1927l11.302-45.195c9.3422-2.4609 17.996-5.8316 26.242-10.567l39.725 25.519c1.0963 0.68812 2.3676 0.54817 3.2773-0.36156l5.47-5.47 13.856 13.856c0.54817 0.54817 1.7262 0.54817 2.2277 0l10.205-10.205c0.50152-0.54817 0.50152-1.2713 0-1.8194l-13.891-13.856 3.2773-3.6506c0.90973-0.90972 1.4112-2.2277 0.76977-3.2773l-25.146-40.821c2.7292-4.9218 5.2834-10.299 7.2895-15.675 0.0933-0.36156 0.13996-0.76977 0-1.0963-0.18661-0.36156-0.73478-0.64148-1.0963-0.73478l-12.806-3.2774c-0.0466-0.0466-0.26825 0-0.3149 0 3.6039-9.8903 5.8316-20.597 5.8316-31.712 0-50.338-41.008-91.486-91.532-91.486-11.302 0-22.37 2.0061-32.389 5.8316-0.76977-4.537-1.9244-9.2722-2.9158-13.844-0.0933-0.40821-0.40821-0.54816-0.76976-0.73477-0.31491-0.26826-0.68813-0.23327-1.0963 0-5.3301 1.9128-10.392 4.1054-15.314 6.9279-12.794-9.1206-27.292-18.148-40.821-26.965-1.0963-0.73478-2.6825-0.59483-3.6506 0.36155l-4.7352 5.1085-14.579-14.217c-0.26825-0.26825-0.36156-0.36156-0.73478-0.36156m121.37 44.425c15.85 1.0497 30.616 6.4264 43.014 14.94-3.0091-0.36156-6.1931-0.86307-8.0242-2.5542h-0.73477c-1.5978 1.3179-4.5136 1.8661-6.5664 2.1927l-3.6506 5.1085-4.3737 3.6506c-0.76976 1.6912 0.26826 4.1871 0.73478 5.8316l4.7352-2.1927c0.64147 2.2743 2.321 2.7758 4.0121 4.0121 2.6825-5.1085 0.45486-10.019 6.9279-12.759l-2.9158 4.0121 0.73478 2.9158 0.36156-3.6506c1.1896 4.1054-0.26826 9.7504-4.7352 11.302l-4.3737-0.36156v-2.9158c-2.6009 0.54817-2.5076 2.146-1.8194 4.3737-1.7261-0.50151-2.7292-0.59482-4.0121 0.73478-1.4112-1.4112-2.7292-2.321-2.9158-4.3737-0.90972-0.86307-1.3646-1.6445-1.4579-2.9158l-2.9158-0.31491 1.0963 7.2895c-0.3149-0.64147-0.73478-0.73477-1.0963-1.143l0.73478 5.1434 4.0121-0.76976c-1.143 1.143-2.0527 1.143-3.6506 1.143l0.73478 1.4579h-2.5542l3.2773 5.47c-7.4294 0.0466-7.5577 3.6856-7.2895 9.8437 1.4579 0.13996 2.2743 0.40821 3.2773 1.4579 6.0182-3.149 7.4294-9.0623 14.579-10.94 1.143 3.6039 4.7352 3.6506 3.6506 8.0242 3.5106-0.73478 4.4203-3.8722 2.1927-6.5664 3.0091 1.7728 3.7788 5.2368 5.8316 8.0242 1.4579-1.9128 1.003-3.6506 3.2773-5.1084v1.0963c3.8722 3.4173 6.4264 4.1404 11.302 5.8316-1.6445 2.3676-3.4173 4.9218-6.5664 4.7352-3.8255-0.26825-9.0156-4.1404-11.663 0.31491l-7.2895-5.8316c-4.0588-1.6912-7.8376 0.13996-12.025-0.3149l-1.8194 0.73478 0.73478 0.36156c-8.3392 3.7322-12.981 13.669-13.856 21.868l-1.4579 5.47c0.90972 5.3301 5.3301 10.975 9.1089 14.579 2.6825 2.6009 4.7352-2.5542 7.2895 0 3.3706-1.1896 8.2458-3.5573 11.302 0 2.0527 2.321 0.0467 4.4203 0.73478 6.9746 1.2246 4.2337 4.0121 9.4821 4.0121 14.264l-1.0963 11.302c1.003 6.9279 5.0618 12.806 5.1084 20.049 5.5983-0.59482 11.85-3.6039 14.94-8.3858l1.0963-4.0121 2.2277-2.9158-0.76977-4.3737c1.3179-3.184 6.5197-3.5106 7.2895-6.9746 1.0963-4.6419-1.6445-10.065 0-14.894 2.6009-7.5577 10.019-12.713 10.205-21.18l-5.47 0.36155c4.9218-6.0648 15.174-9.1089 9.8437-18.264l-2.1927 2.6475h-1.0963c-1.7262-3.6856-4.3737-3.8255-4.3737-8.4791 4.2804 3.6856 8.7007 3.6856 12.759 8.0592 0.76977-0.45486 1.1896-1.003 1.4579-1.8194 1.003 5.2368 1.4579 10.893 1.4579 16.398-0.0933 48.612-39.13 87.928-87.112 87.835-32.983-0.0933-61.873-18.813-76.545-46.384-2.6359-5.1318-5.1318-10.882-7.3011-15.687-4.8285-13.891-3.6506-30.802-3.6506-32.074 0-0.68812 0.54817-1.5978 1.0963-2.5542 0.3149-3.464 1.0963-6.8346 1.8194-10.205-0.18661-0.18661-0.36156-0.50151-0.36156-0.73478 0-0.13995 0.68813-2.0061 1.0963-3.2773-0.31491 1.3179-0.54817 2.6475-0.73478 4.0121-0.40821 2.4143-0.64147 4.8752-0.73478 7.2895-0.23326 3.5573 2.8691 4.9685 4.3737 7.651l0.23326 5.1085 1.2246-4.7352 9.8437 4.0121 6.9279 6.5664 5.8316 0.76977c-2.146 4.7352-6.2398 12.526-5.47 17.81 0.45486 3.1024 3.6506 7.3361 5.47 9.8903 2.5076 3.5106 7.1029 5.7383 8.3858 10.205l0.36156 7.2895 1.4579 5.47c-0.26826 2.2743-2.5542 6.2398-1.0963 8.3858 1.5512 2.321 7.4761 5.1085 10.205 5.8316 2.5542 0.73478 2.8691-1.6445 1.8194-3.2307l3.149-4.7352 4.3737-3.2774 2.9158-10.205 6.6013-4.3737c2.6475-3.9655 0.45487-7.2428 1.4579-11.302l4.3737-12.025c-4.9218-1.8661-11.85-4.327-15.349-8.3858l-1.0963 0.36155-0.73478-4.0588-5.47-2.5542-1.0963 0.76977-1.0963-6.1931-7.2895-0.76977-5.47-2.9158c-2.3676-0.31491-5.6916 3.6506-6.5664 5.5167l-2.9158-0.76976 0.73478-0.76977-2.5542-1.7262 0.36156 1.7262c-1.9594-2.0061-2.321-4.5603-1.8194-7.2895l-3.2773-1.4579-0.36156 1.4579c-0.54817-2.1927-0.23326-5.1901 1.4579-6.9279-2.5076-1.6912-4.467-0.0933-6.1931 1.8194l-3.6506-7.2895c-1.003 2.2277-0.54817 4.5603-0.36156 6.9279h-0.73477c-0.18661-2.5076-0.90973-5.2368 0.36155-7.651 2.4143-4.467 9.7504-6.3797 14.217-5.47l-0.73477 0.76977 4.3737 3.6506c0-6.9746 2.6825-7.6977 6.5664-12.759l2.5542-4.7352c3.0091-3.2307 7.651-5.47 11.663-6.9279l5.1084-3.2773c-1.5978-2.7758-6.0182-2.0061-8.7474-1.7728 4.9218-2.8225 11.57-1.1896 14.94-6.1931-3.6856-2.6825-3.6039-9.797-9.4821-6.9279l0.73478-2.6009-4.7352-2.5542-3.6506 7.651-5.1085 6.1465-0.36156-3.2307c-1.9128-0.90972-7.1962-2.6009-7.2895-5.1434-0.13996-2.6825 8.1525-6.6946 10.205-8.3858l-0.73478 2.1927 3.6506-0.26825c0.73478-0.50152 7.8376-10.299 8.7474-4.1054 4.9218 1.8661 5.2368 3.8255 10.205 0.76977l-2.9158-1.4579c-0.50151-4.5136-4.6419-4.3737-8.3858-4.3737l12.025-5.47c1.3179 3.184 5.2368 3.9188 6.5664 6.9279 0.95637 2.0994-1.8661 3.0557-1.8194 5.1434 0.0933 2.4609 2.5076 5.8316 3.6506 8.0242l6.9279-7.651c3.7788-2.0061 9.7504-2.1927 12.759-5.47 3.5106-3.7789 1.5512-9.8437 8.0242-9.8437-1.3179-0.54817-3.2307-0.95638-4.3737 0l-1.4579-1.0963h1.8194m8.794 30.522c-0.95638-1.003-1.8194-1.5046-3.6506-1.0963l1.4579 5.47 1.4579-0.73478-1.0963-0.36156" fill="#f9f9f9"/>
</svg>
