<svg xmlns="http://www.w3.org/2000/svg" width="512" height="512" enable-background="new" version="1.0"><defs><filter id="a" width="1.048" height="1.048" x="-.024" y="-.024" color-interpolation-filters="sRGB"><feGaussianBlur stdDeviation="4.8"/></filter></defs><circle cx="256" cy="260" r="240" filter="url(#a)" opacity=".1"/><circle cx="256" cy="260" r="240" filter="url(#a)" opacity=".2"/><circle cx="256" cy="256" r="240" fill="#0087ed"/><path fill="#fff" d="M256 16A240 240 0 0 0 16 256l.041 1.172A240 240 0 0 1 256 18a240 240 0 0 1 239.959 238.828L496 256A240 240 0 0 0 256 16" opacity=".2"/><path fill="#f9f9f9" d="M151 115.96c-.362 0-.816.093-1.096.362l-10.205 10.205c-.548.548-.548 1.644 0 2.192l14.217 14.217-4.012 4.012c-.91.91-1.05 2.193-.362 3.278l25.146 41.556c-4.234 7.242-7.43 14.894-9.844 22.965l-46.653 9.843c-1.271.269-2.192 1.272-2.192 2.555v30.382c0 1.19.956 2.192 2.192 2.554l45.195 10.94a106.4 106.4 0 0 0 10.567 26.604l-26.242 39.725c-.734 1.05-.548 2.647.362 3.65l21.145 21.145c.91.91 2.554 1.003 3.65.362l40.821-24.784c7.698 4.467 15.99 8.106 24.784 10.567l9.483 45.556c.268 1.271 1.27 2.193 2.554 2.193h30.254c1.271 0 2.274-.957 2.554-2.193l11.302-45.195c9.342-2.461 17.996-5.832 26.242-10.567l39.725 25.519c1.096.688 2.368.548 3.277-.362l5.47-5.47 13.856 13.856c.548.549 1.726.549 2.228 0l10.205-10.205c.502-.548.502-1.271 0-1.82l-13.891-13.855 3.277-3.65c.91-.91 1.411-2.228.77-3.278l-25.146-40.821c2.73-4.922 5.283-10.299 7.29-15.675.093-.362.14-.77 0-1.096-.187-.362-.735-.642-1.097-.735l-12.806-3.277c-.046-.047-.268 0-.315 0 3.604-9.89 5.832-20.597 5.832-31.712 0-50.338-41.008-91.486-91.532-91.486-11.302 0-22.37 2.006-32.389 5.831-.77-4.537-1.924-9.272-2.916-13.844-.093-.408-.408-.548-.77-.735-.315-.268-.688-.233-1.096 0-5.33 1.913-10.392 4.106-15.314 6.928-12.794-9.12-27.292-18.148-40.82-26.965-1.097-.734-2.683-.595-3.651.362l-4.736 5.108-14.579-14.217c-.268-.268-.361-.361-.734-.361m121.37 44.425c15.85 1.05 30.616 6.426 43.014 14.94-3.01-.362-6.194-.863-8.025-2.554h-.734c-1.598 1.317-4.514 1.866-6.567 2.192l-3.65 5.109-4.374 3.65c-.77 1.692.268 4.187.735 5.832l4.735-2.193c.641 2.275 2.32 2.776 4.012 4.012 2.682-5.108.455-10.019 6.928-12.759l-2.916 4.012.735 2.916.361-3.65c1.19 4.105-.268 9.75-4.735 11.302l-4.374-.362v-2.916c-2.6.548-2.507 2.146-1.819 4.374-1.726-.501-2.73-.595-4.012.735-1.411-1.411-2.73-2.321-2.916-4.374-.91-.863-1.364-1.644-1.458-2.916l-2.916-.315 1.097 7.29c-.315-.642-.735-.735-1.097-1.143l.735 5.143 4.012-.77c-1.143 1.144-2.052 1.144-3.65 1.144l.735 1.457h-2.555l3.278 5.47c-7.43.047-7.558 3.686-7.29 9.844 1.458.14 2.274.408 3.277 1.458 6.019-3.149 7.43-9.062 14.58-10.94 1.142 3.604 4.735 3.65 3.65 8.024 3.51-.735 4.42-3.872 2.193-6.566 3.009 1.773 3.779 5.237 5.831 8.024 1.458-1.913 1.003-3.65 3.278-5.108v1.096c3.872 3.417 6.426 4.14 11.302 5.832-1.645 2.367-3.418 4.921-6.567 4.735-3.825-.269-9.015-4.14-11.663.315l-7.29-5.832c-4.058-1.691-7.837.14-12.024-.315l-1.82.735.735.361c-8.34 3.733-12.98 13.67-13.856 21.868l-1.458 5.47c.91 5.33 5.33 10.975 9.11 14.58 2.682 2.6 4.734-2.555 7.289 0 3.37-1.19 8.245-3.558 11.302 0 2.052 2.32.046 4.42.734 6.974 1.225 4.234 4.012 9.482 4.012 14.264l-1.096 11.302c1.003 6.928 5.062 12.806 5.109 20.05 5.598-.596 11.85-3.605 14.94-8.387l1.096-4.012 2.228-2.916-.77-4.373c1.318-3.184 6.52-3.51 7.29-6.975 1.096-4.642-1.645-10.065 0-14.894 2.6-7.558 10.018-12.713 10.204-21.18l-5.47.362c4.922-6.065 15.174-9.11 9.844-18.264l-2.193 2.647h-1.096c-1.726-3.685-4.374-3.825-4.374-8.479 4.28 3.686 8.701 3.686 12.76 8.06.77-.456 1.189-1.004 1.457-1.82 1.003 5.237 1.458 10.893 1.458 16.398-.093 48.612-39.13 87.928-87.112 87.835-32.983-.093-61.873-18.813-76.545-46.384-2.636-5.132-5.132-10.882-7.301-15.687-4.828-13.891-3.65-30.802-3.65-32.074 0-.688.548-1.598 1.096-2.554.315-3.464 1.096-6.835 1.82-10.205-.187-.187-.362-.502-.362-.735 0-.14.688-2.006 1.096-3.277a41 41 0 0 0-.735 4.012 57 57 0 0 0-.735 7.29c-.233 3.556 2.87 4.968 4.374 7.65l.233 5.109 1.225-4.736 9.844 4.013 6.927 6.566 5.832.77c-2.146 4.735-6.24 12.526-5.47 17.81.455 3.102 3.65 7.336 5.47 9.89 2.508 3.51 7.103 5.738 8.386 10.205l.361 7.29 1.458 5.47c-.268 2.274-2.554 6.24-1.096 8.385 1.551 2.321 7.476 5.109 10.205 5.832 2.554.735 2.87-1.645 1.82-3.23l3.148-4.736 4.374-3.277 2.916-10.205 6.601-4.374c2.648-3.966.455-7.243 1.458-11.302l4.374-12.025c-4.922-1.866-11.85-4.327-15.35-8.386l-1.095.362-.735-4.06-5.47-2.553-1.097.77-1.096-6.194-7.29-.77-5.47-2.915c-2.367-.315-5.691 3.65-6.566 5.516l-2.916-.77.735-.77-2.554-1.725.362 1.726c-1.96-2.006-2.321-4.56-1.82-7.29l-3.277-1.457-.362 1.457c-.548-2.192-.233-5.19 1.458-6.927-2.507-1.692-4.467-.094-6.193 1.819l-3.65-7.29c-1.003 2.228-.549 4.56-.362 6.928h-.735c-.186-2.507-.91-5.236.362-7.65 2.414-4.468 9.75-6.38 14.217-5.47l-.735.77 4.374 3.65c0-6.975 2.682-7.698 6.566-12.76l2.554-4.734c3.01-3.231 7.651-5.47 11.663-6.928l5.109-3.278c-1.598-2.775-6.019-2.006-8.748-1.772 4.922-2.823 11.57-1.19 14.94-6.194-3.685-2.682-3.604-9.797-9.482-6.927l.735-2.601-4.735-2.555-3.65 7.651-5.11 6.147-.36-3.23c-1.914-.91-7.197-2.602-7.29-5.144-.14-2.683 8.152-6.695 10.205-8.386l-.735 2.193 3.65-.269c.735-.501 7.838-10.299 8.748-4.105 4.922 1.866 5.237 3.826 10.205.77l-2.916-1.458c-.501-4.514-4.642-4.374-8.386-4.374l12.025-5.47c1.318 3.184 5.237 3.919 6.567 6.928.956 2.1-1.866 3.056-1.82 5.144.094 2.46 2.508 5.831 3.65 8.024l6.929-7.651c3.779-2.006 9.75-2.193 12.759-5.47 3.51-3.78 1.55-9.844 8.024-9.844-1.318-.548-3.23-.956-4.374 0l-1.458-1.096h1.82m8.794 30.522c-.957-1.003-1.82-1.505-3.65-1.097l1.457 5.47 1.458-.734-1.096-.362"/></svg>