<svg width="512" height="512" enable-background="new" version="1.0" xmlns="http://www.w3.org/2000/svg">
 <defs>
  <filter id="b" x="-.032155" y="-.040892" width="1.0643" height="1.0818" color-interpolation-filters="sRGB">
   <feGaussianBlur stdDeviation="0.74998216"/>
  </filter>
  <filter id="a" x="-.049998" y="-.074997" width="1.1" height="1.15" color-interpolation-filters="sRGB">
   <feGaussianBlur stdDeviation="0.74997009"/>
  </filter>
 </defs>
 <g transform="matrix(7.9968 0 0 8 -2590.1 -3300)">
  <rect transform="matrix(0,-1,-1,0,0,0)" x="-467" y="-383.91" width="44" height="56" rx="2.75" ry="2.8" filter="url(#b)" opacity=".2"/>
  <rect transform="matrix(0,-1,-1,0,0,0)" x="-467" y="-383.91" width="44" height="56" rx="2.75" ry="2.8" opacity=".2"/>
  <path d="m330.71 422c-1.5512 0-2.8 1.2265-2.8 2.75v36.889a39.2 38.5 0 0 0 4.2 0.23633 39.2 38.5 0 0 0 39.2-38.5 39.2 38.5 0 0 0-0.0492-1.375z" fill-rule="evenodd" opacity=".2"/>
  <path d="m383.91 463.25v-38.5c0-1.5235-1.2488-2.75-2.8-2.75h-3.5968l-40.09 8.9832c-1.5137 0.33918-5.2438 3.217-5.4654 4.7243l-4.0474 27.542c-0.22151 1.5073 1.2488 2.75 2.8 2.75h50.4c1.5512 0 2.8-1.2265 2.8-2.75z" fill="#6b328f"/>
  <g fill-rule="evenodd">
   <path d="m333.68 427.53c-1.5265 0.27565-1.3248 5.0057-1.6154 6.5012l-4.1461 21.339v7.8818c0 1.5235 1.2488 2.75 2.8 2.75h24.093c16.161-8.294 25.097-24.716 25.108-42.625-0.01-0.45854-0.0262-0.91693-0.0492-1.375h-15.576z" fill="#2b70c3"/>
   <path d="m334.37 427.73c-1.4802 0.46379-1.4886-1.7738-1.9116-0.31021l-4.541 15.712v14.526c1.8492 0.31899 3.7225 0.48518 5.6 0.49683 18.557 0 34.6-15.175 34.6-33.4-7e-3 -0.91814-0.0522-1.8356-0.13672-2.75h-15.337z" fill="#49bf5d"/>
   <path d="m331.9 425.06c-1.5077 0.36482-0.65533 0.50994-1.1218 1.9603l-2.8628 8.9005v9.8403c1.3855 0.25165 2.791 0.38196 4.2 0.38941 13.144 0 23.8-9.866 23.8-22.776-3e-3 -0.45871-0.019-0.91724-0.0492-1.375h-11.319z" fill="#ffb328"/>
   <path d="m330.71 422c-1.5512-1e-5 -2.8 1.2265-2.8 2.75v13.266c0.4654 0.0454 0.93242 0.0732 1.4 0.0833 9.5062-3e-3 17.809-6.7909 18.54-16.1z" fill="#e84e3f"/>
  </g>
  <path d="m341.91 433 2.5e-4 2.8959 2.2237 0.16838 0.37131 0.50509-3.6914 16.875-0.5679 0.52627-2.3358 0.16944v2.8601l9.9998 1.5e-4 3.1e-4 -2.86-2.0496-0.14764-0.39317-0.54724 1.5072-6.4451h2.3152l3.32 6.0787c1.3569 2.6857 2.3088 3.837 5.2422 3.8727 0.84343 0.0104 1.1827 0.0701 3.4581 0 7.8479-6.3134 11.854-11.658 12.487-13.834 0.38332-1.3178-0.22526-2.126-1.5293-2.126-0.63612 0-1.3644 0.25813-2.1838 0.77912l-0.58974 5.0572c-1.6062 2.0226-3.7473 4.2258-6.3561 6.5243l2.2792-9.2256c0.35808-1.7776 0.47613-2.7261-0.72093-3.0939l-5.3511 1.1367-0.2836 0.96796 2.4678 0.37908c0.17156 0.61284-0.57222 2.4786-0.94688 4.5322l-1.2013 6.3769c-0.019 0.0656-0.0308 0.13756-0.0437 0.21047-0.77896-0.40329-1.27-1.1214-1.8348-2.2098l-4.6961-8.45 8.584-7.7431 2.5199-0.27358-3.5e-4 -2.9591-10 7e-5 3.8e-4 2.9593 3.5047 0.16816 0.21843 0.56829-9.0572 7.3039h-1.0921l1.6745-7.4301 0.48053-0.50509 2.271-0.16832-2.3e-4 -2.8962z" filter="url(#a)" opacity=".2"/>
  <path d="m341.91 432 2.5e-4 2.8959 2.2237 0.16838 0.37131 0.50509-3.6914 16.875-0.5679 0.52627-2.3358 0.16944v2.8601l9.9998 1.5e-4 3.1e-4 -2.86-2.0496-0.14764-0.39317-0.54725 1.5072-6.4451h2.3152l3.32 6.0787c1.3569 2.6857 2.3088 3.837 5.2422 3.8727 0.84343 0.0104 1.1827 0.0701 3.4581 0 7.8479-6.3134 11.854-11.658 12.487-13.834 0.38332-1.3178-0.22526-2.126-1.5293-2.126-0.63612 0-1.3644 0.25814-2.1838 0.77913l-0.58974 5.0572c-1.6062 2.0226-3.7473 4.2258-6.3561 6.5243l2.2792-9.2256c0.35808-1.7776 0.47613-2.7261-0.72093-3.0939l-5.3511 1.1367-0.2836 0.96796 2.4678 0.37908c0.17156 0.61284-0.57222 2.4786-0.94688 4.5322l-1.2013 6.3769c-0.019 0.0656-0.0308 0.13756-0.0437 0.21047-0.77896-0.40329-1.27-1.1214-1.8348-2.2098l-4.6961-8.45 8.584-7.7431 2.5199-0.27358-3.5e-4 -2.9591-10 7e-5 3.8e-4 2.9593 3.5047 0.16816 0.21843 0.56829-9.0572 7.3039h-1.0921l1.6745-7.4301 0.48053-0.50508 2.271-0.16832-2.3e-4 -2.8962z" fill="#fff"/>
  <path d="m330.71 422c-1.5512 0-2.8008 1.2265-2.8008 2.75v1c0-1.5235 1.2496-2.75 2.8008-2.75h50.398c1.5512 0 2.8008 1.2265 2.8008 2.75v-1c0-1.5235-1.2496-2.75-2.8008-2.75h-16.429z" fill="#fff" opacity=".1"/>
 </g>
</svg>
