<svg xmlns="http://www.w3.org/2000/svg" width="512" height="512" enable-background="new" version="1.0"><defs><filter id="a" width="1.064" height="1.082" x="-.032" y="-.041" color-interpolation-filters="sRGB"><feGaussianBlur stdDeviation=".75"/></filter><filter id="c" width="1.1" height="1.15" x="-.05" y="-.075" color-interpolation-filters="sRGB"><feGaussianBlur stdDeviation=".75"/></filter></defs><g transform="matrix(7.9968 0 0 8 -2590.1 -3300)"><rect width="44" height="56" x="-467" y="-383.91" filter="url(#a)" opacity=".2" rx="2.75" ry="2.8" transform="scale(1 -1)rotate(90)"/><rect width="44" height="56" x="-467" y="-383.91" opacity=".2" rx="2.75" ry="2.8" transform="scale(1 -1)rotate(90)"/><path fill-rule="evenodd" d="M330.71 422c-1.551 0-2.8 1.227-2.8 2.75v36.889a39.2 38.5 0 0 0 4.2.236 39.2 38.5 0 0 0 39.2-38.5 39.2 38.5 0 0 0-.05-1.375z" opacity=".2"/><path fill="#6b328f" d="M383.91 463.25v-38.5c0-1.523-1.249-2.75-2.8-2.75h-3.597l-40.09 8.983c-1.513.34-5.244 3.217-5.465 4.725l-4.048 27.542c-.221 1.507 1.25 2.75 2.8 2.75h50.4c1.552 0 2.8-1.227 2.8-2.75z"/><g fill-rule="evenodd"><path fill="#2b70c3" d="M333.68 427.53c-1.526.276-1.325 5.006-1.615 6.501l-4.147 21.34v7.881c0 1.523 1.25 2.75 2.8 2.75h24.093c16.162-8.294 25.098-24.716 25.109-42.625a49 49 0 0 0-.05-1.375h-15.576z"/><path fill="#49bf5d" d="M334.37 427.73c-1.48.464-1.489-1.774-1.912-.31l-4.54 15.712v14.526c1.849.319 3.722.485 5.6.497 18.556 0 34.6-15.175 34.6-33.4a33 33 0 0 0-.137-2.75h-15.337z"/><path fill="#ffb328" d="M331.9 425.06c-1.508.365-.655.51-1.122 1.96l-2.863 8.9v9.841a24 24 0 0 0 4.2.39c13.144 0 23.8-9.866 23.8-22.776a23 23 0 0 0-.049-1.375h-11.319z"/><path fill="#e84e3f" d="M330.71 422c-1.551 0-2.8 1.227-2.8 2.75v13.266q.698.068 1.4.083c9.506-.003 17.809-6.79 18.54-16.1z"/></g><path d="M341.91 433v2.896l2.224.168.371.505-3.691 16.875-.568.527-2.336.17V457h10v-2.86l-2.05-.148-.392-.548 1.507-6.445h2.315l3.32 6.079c1.357 2.686 2.309 3.837 5.242 3.873.844.01 1.183.07 3.458 0 7.848-6.314 11.854-11.658 12.487-13.834.384-1.318-.225-2.126-1.53-2.126q-.953-.001-2.183.779l-.59 5.057c-1.606 2.023-3.747 4.226-6.356 6.524l2.28-9.225c.358-1.778.476-2.726-.721-3.094l-5.352 1.137-.283.968 2.468.379c.171.612-.573 2.478-.947 4.532l-1.202 6.377c-.019.065-.03.137-.043.21-.78-.403-1.27-1.121-1.835-2.21l-4.696-8.45 8.584-7.743 2.52-.273V433h-10v2.96l3.504.168.219.568-9.057 7.304h-1.092l1.674-7.43.48-.505 2.272-.168V433z" filter="url(#c)" opacity=".2"/><path fill="#fff" d="M341.91 432v2.896l2.224.168.371.505-3.691 16.875-.568.527-2.336.17V456h10v-2.86l-2.05-.148-.392-.548 1.507-6.445h2.315l3.32 6.079c1.357 2.686 2.309 3.837 5.242 3.873.844.01 1.183.07 3.458 0 7.848-6.314 11.854-11.658 12.487-13.834.384-1.318-.225-2.126-1.53-2.126q-.953-.001-2.183.779l-.59 5.057c-1.606 2.023-3.747 4.226-6.356 6.524l2.28-9.225c.358-1.778.476-2.726-.721-3.094l-5.352 1.137-.283.968 2.468.379c.171.612-.573 2.478-.947 4.532l-1.202 6.377c-.019.065-.03.137-.043.21-.78-.403-1.27-1.121-1.835-2.21l-4.696-8.45 8.584-7.743 2.52-.273V432h-10v2.96l3.504.168.219.568-9.057 7.304h-1.092l1.674-7.43.48-.505 2.272-.168V432z"/><path fill="#fff" d="M330.71 422c-1.551 0-2.8 1.227-2.8 2.75v1c0-1.523 1.249-2.75 2.8-2.75h50.398c1.551 0 2.8 1.227 2.8 2.75v-1c0-1.523-1.249-2.75-2.8-2.75h-16.429z" opacity=".1"/></g></svg>