<svg xmlns="http://www.w3.org/2000/svg" width="512" height="512" enable-background="new" version="1.0"><defs><filter id="a" width="1.048" height="1.048" x="-.024" y="-.024" color-interpolation-filters="sRGB"><feGaussianBlur stdDeviation="4.48"/></filter></defs><g transform="translate(-208 228)"><rect width="448" height="448" x="-256" y="-688" stroke="#000" stroke-width="8" filter="url(#a)" opacity=".1" rx="224" ry="224" transform="scale(1 -1)rotate(90)"/><rect width="448" height="448" x="-256" y="-688" filter="url(#a)" opacity=".2" rx="224" ry="224" transform="scale(1 -1)rotate(90)"/><path d="M464 252c-124.1 0-224-99.904-224-224 0-.674.003-1.336 0-2 0 124.1 99.904 224 224 224s224-99.904 224-224c-.003.664 0 1.326 0 2 0 124.1-99.904 224-224 224" opacity=".2"/></g><g transform="translate(-208 228)"><rect width="448" height="448" x="-252" y="-688" fill="#dd4814" rx="224" ry="224" transform="scale(1 -1)rotate(90)"/><path fill="#fff" d="M464-196c-124.1 0-224 99.904-224 224 0 .334.01.666.012 1 .536-123.63 100.23-223 223.99-223s223.45 99.369 223.99 223c.001-.334.011-.666.011-1 0-124.1-99.904-224-224-224z" opacity=".2"/><path d="M464 252c-124.1 0-224-99.904-224-224 0-.334.01-.666.012-1 .536 123.63 100.23 223 223.99 223s223.45-99.369 223.99-223c0 .334.011.666.011 1 0 124.1-99.904 224-224 224z" opacity=".1"/></g><path fill="none" stroke="#fff" stroke-linecap="square" stroke-width="16" d="M168 121v256h176v-64H232V121h-32v224h112"/></svg>