<svg width="512" height="512" enable-background="new" version="1.0" xmlns="http://www.w3.org/2000/svg" xmlns:osb="http://www.openswatchbook.org/uri/2009/osb" xmlns:xlink="http://www.w3.org/1999/xlink">
 <defs>
  <filter id="a" x="-.024" y="-.024" width="1.048" height="1.048" color-interpolation-filters="sRGB">
   <feGaussianBlur stdDeviation="4.48"/>
  </filter>
 </defs>
 <g transform="translate(0,212)">
  <g>
   <g transform="translate(-208,16)">
    <g>
     <rect transform="matrix(0,-1,-1,0,0,0)" x="-256" y="-688" width="448" height="448" rx="224" ry="224" filter="url(#a)" opacity=".1" stroke="#000" stroke-width="8"/>
     <rect transform="matrix(0,-1,-1,0,0,0)" x="-256" y="-688" width="448" height="448" rx="224" ry="224" filter="url(#a)" opacity=".2"/>
     <path d="m464 252c-124.1 0-224-99.904-224-224 0-0.67412 3e-3 -1.3363 0-2 0 124.1 99.904 224 224 224s224-99.904 224-224c-3e-3 0.66367 0 1.3259 0 2 0 124.1-99.904 224-224 224z" opacity=".2"/>
    </g>
    <g>
     <rect transform="matrix(0,-1,-1,0,0,0)" x="-252" y="-688" width="448" height="448" rx="224" ry="224" fill="#dd4814"/>
     <path transform="translate(0,-244)" d="m464 48c-124.1 0-224 99.904-224 224 0 0.33437 0.0103 0.66598 0.0117 1 0.5364-123.63 100.23-223 223.99-223s223.45 99.369 223.99 223c0.00145-0.33402 0.01172-0.66563 0.01172-1 0-124.1-99.904-224-224-224z" fill="#fff" opacity=".2"/>
     <path d="m464 252c-124.1 0-224-99.904-224-224 0-0.33437 0.0103-0.66598 0.0117-1 0.5364 123.63 100.23 223 223.99 223s223.45-99.369 223.99-223c1e-3 0.33402 0.0117 0.66563 0.0117 1 0 124.1-99.904 224-224 224z" opacity=".1"/>
    </g>
    <path d="m376-107v256h176v-64h-112v-192h-32v224h112" fill="none" stroke="#fff" stroke-linecap="square" stroke-width="16"/>
   </g>
  </g>
 </g>
</svg>
