<svg xmlns="http://www.w3.org/2000/svg" width="512" height="512" enable-background="new" version="1.0"><defs><filter id="b" width="1.052" height="1.045" x="-.026" y="-.022" color-interpolation-filters="sRGB"><feGaussianBlur stdDeviation="4.16"/></filter><filter id="a" width="1.052" height="1.045" x="-.026" y="-.022" color-interpolation-filters="sRGB"><feGaussianBlur stdDeviation="4.16"/></filter><filter id="c" width="1.132" height="1.11" x="-.066" y="-.055" color-interpolation-filters="sRGB"><feGaussianBlur stdDeviation="8.8"/></filter></defs><path d="M448 458V58c0-13.296-10.704-24-24-24H88c-13.296 0-24 10.704-24 24v400c0 13.296 10.704 24 24 24h336c13.296 0 24-10.704 24-24" opacity=".2"/><path d="M656-1608v-400c0-13.296-10.704-24-24-24H296c-13.296 0-24 10.704-24 24v400c0 13.296 10.704 24 24 24h336c13.296 0 24-10.704 24-24" filter="url(#a)" opacity=".2" transform="translate(-208 2068)"/><path d="M656-1608v-400c0-13.296-10.704-24-24-24H296c-13.296 0-24 10.704-24 24v400c0 13.296 10.704 24 24 24h336c13.296 0 24-10.704 24-24" filter="url(#b)" opacity=".1" transform="translate(-208 2068)"/><path fill="#f9ce1d" d="M448 456V56c0-13.296-10.704-24-24-24H88c-13.296 0-24 10.704-24 24v400c0 13.296 10.704 24 24 24h336c13.296 0 24-10.704 24-24"/><path d="M308-1996c-2.216 0-4 1.784-4 4v376c0 2.216 1.784 4 4 4h312c2.216 0 4-1.784 4-4v-267.03L511.03-1996zm236.97 0 79.031 79.031V-1992c0-2.216-1.784-4-4-4z" filter="url(#c)" opacity=".2" transform="translate(-208 2068)"/><path fill="#f5f5f5" d="M100 64c-2.216 0-4 1.784-4 4v376c0 2.216 1.784 4 4 4h312c2.216 0 4-1.784 4-4V176.97L303.03 64zm236.97 0 79.031 79.031V68c0-2.216-1.784-4-4-4z"/><path fill="#ccc" fill-rule="evenodd" d="M523.67-1838.6c-2.535-.03-5.187.48-7.777 1.922-8.326 4.632-11.333 13.98-11.338 22.053s1.995 16.232 3.775 24.014 3.332 15.194 3.283 20.193-.51 6.187-3.096 7.488c-2.296 1.156-3.442 1.172-4.7.916-1.26-.256-2.913-1.07-4.993-2.867-4.16-3.592-9.264-10.824-15.06-18.674s-12.448-16.402-21.585-22.57-21.192-9.474-34.85-6.361l-.156.037-.156.04c-9.158 2.482-15.884 9.436-20.48 17.716-4.594 8.279-7.386 18.212-8.751 28.74-.114.875-.16 1.773-.254 2.656-2.196-.122-4.38-.286-6.594-.334l-14.77-.32-7.998-.174-.348 15.996 22.768.494c2.129.046 4.214.202 6.315.324.438 15.434 3.907 30.783 11.342 42.812l.156.252.174.24c11.759 16.198 31.779 20.99 46.912 15.098 7.567-2.945 14.195-9.285 16.213-18.002s-.46-18.682-7.227-29.186c-6.615-10.268-17.814-16.729-30.68-20.96-6.36-2.093-13.21-3.634-20.336-4.706.074-.707.103-1.434.194-2.133 1.164-8.98 3.627-17.183 6.875-23.035 3.21-5.783 6.866-8.934 10.54-9.98 9.532-2.126 15.888-.185 22.157 4.047 6.312 4.261 12.122 11.304 17.666 18.812s10.66 15.397 17.473 21.279c3.406 2.941 7.425 5.454 12.262 6.437s10.209.151 15.084-2.302c8.494-4.276 11.82-13.606 11.9-21.625s-1.901-16.125-3.684-23.918-3.376-15.263-3.373-20.436c.003-5.172.604-6.683 3.117-8.08-.535.298-.043-.104 1.957.572s4.84 2.226 7.49 4.037c5.303 3.623 9.795 7.982 9.795 7.982l5.715 5.598 11.195-11.432-5.717-5.597s-5.224-5.159-11.963-9.762c-3.369-2.302-7.133-4.543-11.39-5.983-2.13-.72-4.55-1.29-7.085-1.32zm-110.37 93.09c5.532.93 10.805 2.108 15.498 3.652 10.784 3.548 18.542 8.706 22.229 14.428 5.251 8.151 5.836 13.69 5.09 16.91s-2.709 5.253-6.43 6.702c-7.389 2.876-20.582.576-27.982-9.387-4.859-8.02-7.64-19.972-8.404-32.305z" color="#000" enable-background="new" style="isolation:auto;mix-blend-mode:normal;text-decoration-color:#000;text-decoration-line:none;text-decoration-style:solid;text-indent:0;text-transform:none;white-space:normal" transform="translate(-208 2068)"/></svg>