<svg xmlns="http://www.w3.org/2000/svg" width="512" height="512" enable-background="new" version="1.0"><defs><filter id="a" width="1.053" height="1.044" x="-.027" y="-.022" color-interpolation-filters="sRGB"><feGaussianBlur stdDeviation="4.08"/></filter></defs><path d="M640 232v-400c0-13.296-10.704-24-24-24H296c-13.296 0-24 10.704-24 24v400c0 13.296 10.704 24 24 24h320c13.296 0 24-10.704 24-24" filter="url(#a)" opacity=".1" transform="translate(-208 228)"/><path d="M640 232v-400c0-13.296-10.704-24-24-24H296c-13.296 0-24 10.704-24 24v400c0 13.296 10.704 24 24 24h320c13.296 0 24-10.704 24-24" filter="url(#a)" opacity=".2" transform="translate(-208 228)"/><path d="M432 458V58c0-13.296-10.704-24-24-24H88c-13.296 0-24 10.704-24 24v400c0 13.296 10.704 24 24 24h320c13.296 0 24-10.704 24-24" opacity=".2"/><path fill="#4d4d4d" d="M432 456V56c0-13.296-10.704-24-24-24H88c-13.296 0-24 10.704-24 24v400c0 13.296 10.704 24 24 24h320c13.296 0 24-10.704 24-24"/><path fill="#f5f5f5" d="M100 64c-2.216 0-4 1.784-4 4v376c0 2.216 1.784 4 4 4h296c2.216 0 4-1.784 4-4V176.97L287.03 64zm220.97 0 79.031 79.031V68c0-2.216-1.784-4-4-4z"/></svg>