<svg width="512" height="512" enable-background="new" version="1.0" xmlns="http://www.w3.org/2000/svg">
 <defs>
  <filter id="g" x="-.026" y="-.022286" width="1.052" height="1.0446" color-interpolation-filters="sRGB">
   <feGaussianBlur stdDeviation="4.16"/>
  </filter>
  <filter id="f" x="-.026" y="-.022286" width="1.052" height="1.0446" color-interpolation-filters="sRGB">
   <feGaussianBlur stdDeviation="4.16"/>
  </filter>
  <filter id="e" x="-.066" y="-.055" width="1.132" height="1.11" color-interpolation-filters="sRGB">
   <feGaussianBlur stdDeviation="8.8"/>
  </filter>
 </defs>
 <g transform="translate(-208,2068)">
  <path d="m656-1610v-400c0-13.296-10.704-24-24-24h-336c-13.296 0-24 10.704-24 24v400c0 13.296 10.704 24 24 24h336c13.296 0 24-10.704 24-24z" opacity=".2"/>
  <path d="m656-1608v-400c0-13.296-10.704-24-24-24h-336c-13.296 0-24 10.704-24 24v400c0 13.296 10.704 24 24 24h336c13.296 0 24-10.704 24-24z" filter="url(#f)" opacity=".2"/>
  <path d="m656-1608v-400c0-13.296-10.704-24-24-24h-336c-13.296 0-24 10.704-24 24v400c0 13.296 10.704 24 24 24h336c13.296 0 24-10.704 24-24z" filter="url(#g)" opacity=".1"/>
  <path d="m656-1612v-400c0-13.296-10.704-24-24-24h-336c-13.296 0-24 10.704-24 24v400c0 13.296 10.704 24 24 24h336c13.296 0 24-10.704 24-24z" fill="#f9ce1d"/>
  <path d="m308-1996c-2.216 0-4 1.784-4 4v376c0 2.216 1.784 4 4 4h312c2.216 0 4-1.784 4-4v-267.03l-112.97-112.97zm236.97 0 79.031 79.031v-75.031c0-2.216-1.784-4-4-4z" filter="url(#e)" opacity=".2"/>
  <path d="m308-2004c-2.216 0-4 1.784-4 4v376c0 2.216 1.784 4 4 4h312c2.216 0 4-1.784 4-4v-267.03l-112.97-112.97zm236.97 0 79.031 79.031v-75.031c0-2.216-1.784-4-4-4z" fill="#f5f5f5"/>
  <path d="m523.67-1838.6c-2.535-0.03-5.1866 0.4808-7.7774 1.9219-8.3252 4.6318-11.333 13.98-11.338 22.053-5e-3 8.0728 1.9953 16.232 3.7754 24.014 1.7801 7.7819 3.3324 15.194 3.2832 20.193-0.0492 4.9997-0.51022 6.1869-3.0957 7.4882-2.2967 1.156-3.4425 1.172-4.7012 0.9161-1.2587-0.256-2.9123-1.0711-4.9922-2.8672-4.1598-3.5923-9.2645-10.824-15.061-18.674-5.7961-7.8496-12.447-16.402-21.584-22.57-9.1371-6.1682-21.192-9.4741-34.85-6.3613l-0.15625 0.037-0.15625 0.041c-9.1576 2.481-15.884 9.4356-20.479 17.715-4.5947 8.2792-7.387 18.212-8.752 28.74-0.11342 0.8748-0.15952 1.7737-0.25391 2.6562-2.1958-0.1217-4.38-0.2859-6.5938-0.3339l-14.77-0.3203-7.998-0.1739-0.34766 15.996 22.768 0.4942c2.1285 0.046 4.2142 0.2021 6.3145 0.3242 0.4385 15.434 3.907 30.783 11.342 42.812l0.15625 0.2519 0.17383 0.2403c11.759 16.198 31.779 20.989 46.912 15.098 7.5667-2.9457 14.195-9.2852 16.213-18.002 2.0181-8.7168-0.45994-18.682-7.2266-29.186-6.6152-10.268-17.814-16.729-30.68-20.961-6.3602-2.0922-13.211-3.6329-20.336-4.7051 0.0742-0.7072 0.10279-1.4342 0.19336-2.1328 1.1641-8.9796 3.627-17.183 6.875-23.035 3.2098-5.7836 6.8662-8.9343 10.541-9.9804 9.531-2.1256 15.887-0.1853 22.156 4.0468 6.3126 4.2615 12.122 11.304 17.666 18.812 5.5442 7.5086 10.661 15.397 17.473 21.279 3.406 2.9414 7.4252 5.4539 12.262 6.4375s10.209 0.1511 15.084-2.3027c8.4944-4.2753 11.821-13.606 11.9-21.625s-1.901-16.125-3.6836-23.918c-1.7826-7.7927-3.3761-15.263-3.373-20.436 3e-3 -5.1721 0.6043-6.6823 3.1172-8.0801-0.53563 0.298-0.0428-0.1038 1.957 0.5723s4.8389 2.2258 7.4902 4.0371c5.3027 3.6225 9.7949 7.9824 9.7949 7.9824l5.7148 5.5977 11.195-11.432-5.7168-5.5976s-5.2244-5.1584-11.963-9.7618c-3.3693-2.3016-7.1328-4.5429-11.391-5.9824-2.1289-0.7197-4.5489-1.2902-7.084-1.3203zm-110.37 93.09c5.5325 0.9296 10.805 2.1083 15.498 3.6523 10.784 3.5475 18.542 8.7055 22.229 14.428 5.2511 8.1508 5.8356 13.689 5.0898 16.91s-2.7084 5.2525-6.4297 6.7012c-7.3886 2.8763-20.582 0.5766-27.982-9.3868-4.8591-8.0202-7.6399-19.972-8.4043-32.305z" color="#000000" color-rendering="auto" enable-background="new" fill="#ccc" fill-rule="evenodd" image-rendering="auto" shape-rendering="auto" solid-color="#000000" style="isolation:auto;mix-blend-mode:normal;text-decoration-color:#000000;text-decoration-line:none;text-decoration-style:solid;text-indent:0;text-transform:none;white-space:normal"/>
 </g>
</svg>
