<svg xmlns="http://www.w3.org/2000/svg" width="512" height="512" enable-background="new" version="1.0"><defs><filter id="b" width="1.052" height="1.045" x="-.026" y="-.022" color-interpolation-filters="sRGB"><feGaussianBlur stdDeviation="4.16"/></filter><filter id="a" width="1.052" height="1.045" x="-.026" y="-.022" color-interpolation-filters="sRGB"><feGaussianBlur stdDeviation="4.16"/></filter><filter id="c" width="1.132" height="1.11" x="-.066" y="-.055" color-interpolation-filters="sRGB"><feGaussianBlur stdDeviation="8.8"/></filter></defs><path d="M448 458V58c0-13.296-10.704-24-24-24H88c-13.296 0-24 10.704-24 24v400c0 13.296 10.704 24 24 24h336c13.296 0 24-10.704 24-24" opacity=".2"/><path d="M656-1008v-400c0-13.296-10.704-24-24-24H296c-13.296 0-24 10.704-24 24v400c0 13.296 10.704 24 24 24h336c13.296 0 24-10.704 24-24" filter="url(#a)" opacity=".2" transform="translate(-208 1468)"/><path d="M656-1008v-400c0-13.296-10.704-24-24-24H296c-13.296 0-24 10.704-24 24v400c0 13.296 10.704 24 24 24h336c13.296 0 24-10.704 24-24" filter="url(#b)" opacity=".1" transform="translate(-208 1468)"/><path fill="#ff5722" d="M448 456V56c0-13.296-10.704-24-24-24H88c-13.296 0-24 10.704-24 24v400c0 13.296 10.704 24 24 24h336c13.296 0 24-10.704 24-24"/><path d="M308-1184c-2.216 0-4 1.784-4 4v376c0 2.216 1.784 4 4 4h312c2.216 0 3.983-1.784 4-4v-267.03L511.03-1184zm236.97 0 79.031 79.031V-1180c0-2.216-1.784-4-4-4z" filter="url(#c)" opacity=".2" transform="translate(-208 1256)"/><path fill="#f5f5f5" d="M100 64c-2.216 0-4 1.784-4 4v376c0 2.216 1.784 4 4 4h312c2.216 0 3.983-1.784 4-4V176.97L303.03 64zm236.97 0 79.031 79.031V68c0-2.216-1.784-4-4-4z"/><path fill="#fff" d="M88 32c-13.296 0-24 10.704-24 24v2c0-13.296 10.704-24 24-24h336c13.296 0 24 10.704 24 24v-2c0-13.296-10.704-24-24-24z" opacity=".2"/><path fill="#ccc" d="M400-1020c-19.882 0-36 16.118-36 36s16.118 36 36 36 36-16.118 36-36h-36zM464-1016v16h96v-16zm0 48v16h96v-16zm-96 48v16h192v-16h-96zm0 48v16h144v-16z" color="#000" enable-background="new" filter="url(#filter14069)" style="text-decoration-line:none;text-indent:0;text-transform:none" transform="translate(-208 1256)"/></svg>