<svg xmlns="http://www.w3.org/2000/svg" width="512" height="512" enable-background="new" version="1.0"><defs><filter id="b" width="1.052" height="1.045" x="-.026" y="-.022" color-interpolation-filters="sRGB"><feGaussianBlur stdDeviation="4.16"/></filter><filter id="a" width="1.052" height="1.045" x="-.026" y="-.022" color-interpolation-filters="sRGB"><feGaussianBlur stdDeviation="4.16"/></filter><filter id="c" width="1.132" height="1.11" x="-.066" y="-.055" color-interpolation-filters="sRGB"><feGaussianBlur stdDeviation="8.8"/></filter></defs><path d="M448 458V58c0-13.296-10.704-24-24-24H88c-13.296 0-24 10.704-24 24v400c0 13.296 10.704 24 24 24h336c13.296 0 24-10.704 24-24" opacity=".2"/><path d="M656-2200v-400c0-13.296-10.704-24-24-24H296c-13.296 0-24 10.704-24 24v400c0 13.296 10.704 24 24 24h336c13.296 0 24-10.704 24-24" filter="url(#a)" opacity=".2" transform="translate(-208 2660)"/><path d="M656-2200v-400c0-13.296-10.704-24-24-24H296c-13.296 0-24 10.704-24 24v400c0 13.296 10.704 24 24 24h336c13.296 0 24-10.704 24-24" filter="url(#b)" opacity=".1" transform="translate(-208 2660)"/><path fill="#3f51b5" d="M448 456V56c0-13.296-10.704-24-24-24H88c-13.296 0-24 10.704-24 24v400c0 13.296 10.704 24 24 24h336c13.296 0 24-10.704 24-24"/><path fill="#f5f5f5" d="M100 64c-2.216 0-4 1.784-4 4v376c0 2.216 1.784 4 4 4h312c2.216 0 4-1.784 4-4V176.97L303.03 64zm236.97 0 79.031 79.031V68c0-2.216-1.784-4-4-4z"/><path fill="#fff" d="M88 32c-13.296 0-24 10.704-24 24v2c0-13.296 10.704-24 24-24h336c13.296 0 24 10.704 24 24v-2c0-13.296-10.704-24-24-24z" opacity=".2"/><path fill="#040404" d="M308-2588c-2.216 0-4 1.784-4 4v376c0 2.216 1.784 4 4 4h312c2.216 0 4-1.784 4-4v-267.03L511.03-2588zm236.97 0 79.031 79.031V-2584c0-2.216-1.784-4-4-4z" filter="url(#c)" opacity=".2" transform="translate(-208 2660)"/><path fill="#f5f5f5" d="M100 64c-2.216 0-4 1.784-4 4v376c0 2.216 1.784 4 4 4h312c2.216 0 4-1.784 4-4V176.97L303.03 64zm236.97 0 79.031 79.031V68c0-2.216-1.784-4-4-4z"/><path fill="#ccc" d="M160 384v-16h121.2v16zm0-48v-16h192v16zm0-48v-16h192v16zm0-48v-16h192v16z" enable-background="new"/></svg>