<svg xmlns="http://www.w3.org/2000/svg" width="512" height="512" enable-background="new" version="1.0"><defs><filter id="a" width="1.048" height="1.048" x="-.024" y="-.024" color-interpolation-filters="sRGB"><feGaussianBlur stdDeviation="4.48"/></filter><filter id="b" width="1.12" height="1.12" x="-.06" y="-.06" color-interpolation-filters="sRGB"><feGaussianBlur stdDeviation="6.4"/></filter><filter id="c" width="1.048" height="1.048" x="-.024" y="-.024" color-interpolation-filters="sRGB"><feGaussianBlur stdDeviation="2.56"/></filter></defs><g transform="translate(-208 228)"><path d="M464 254c-124.1 0-224-99.904-224-224 0-.334.01-.666.012-1 .536 123.63 100.23 223 223.99 223s223.45-99.369 223.99-223c0 .334.011.666.011 1 0 124.1-99.904 224-224 224z" opacity=".2"/><rect width="448" height="448" x="-256" y="-688" stroke="#000" stroke-width="8" filter="url(#a)" opacity=".1" rx="224" ry="224" transform="scale(1 -1)rotate(90)"/><rect width="448" height="448" x="-256" y="-688" filter="url(#a)" opacity=".2" rx="224" ry="224" transform="scale(1 -1)rotate(90)"/><path d="M464 252c-124.1 0-224-99.904-224-224 0-.674.003-1.336 0-2 0 124.1 99.904 224 224 224s224-99.904 224-224c-.003.664 0 1.326 0 2 0 124.1-99.904 224-224 224" opacity=".2"/><rect width="448" height="448" x="-252" y="-688" fill="#dd4178" rx="224" ry="224" transform="scale(1 -1)rotate(90)"/><path fill="#fff" stroke="#fff" d="M421.2-191.68a224 224 0 0 0-17.117 3.842 224 224 0 0 0-41.688 16.204 224 224 0 0 0-37.635 24.167 224 224 0 0 0-16.822 14.775q-1.033 1.094-2.051 2.202c4.879 33.488 31.562 75.072 57.87 104.52a113.9 113.9 0 0 0-13.636 53.965 113 113 0 0 0 1.263 16.1C313.4 26.87 270.612-5.66 252.383-44.716q-1.24 3.239-2.378 6.515a224 224 0 0 0-5.539 21.694 224 224 0 0 0-3.347 22.137 224 224 0 0 0-.56 38.208c.53 7.45 1.432 14.87 2.702 22.23a224 224 0 0 0 4.401 19.602c31.46 12.532 80.843 10.22 119.53 2.143a113.87 113.87 0 0 0 54.411 45.782c-33.886 24.256-83.422 45.04-126.33 41.312a224 224 0 0 0 8.036 9.15 224 224 0 0 0 73.458 50.254c6.88 2.908 13.9 5.47 21.036 7.677q4.047 1.114 8.132 2.075c26.511-20.971 49.14-64.844 61.465-102.31a113.88 113.88 0 0 0 66.864-24.18c4.049 41.488-2.75 94.799-27.464 130.1a224 224 0 0 0 17.117-3.843 224 224 0 0 0 41.688-16.203 224 224 0 0 0 37.635-24.167 224 224 0 0 0 16.822-14.775q1.033-1.095 2.051-2.203c-4.879-33.488-31.562-75.072-57.87-104.52a113.9 113.9 0 0 0 13.636-53.965 115 115 0 0 0-1.263-16.099c37.984 17.223 80.772 49.754 99.001 88.81q1.24-3.24 2.378-6.515a224 224 0 0 0 5.539-21.694 224 224 0 0 0 3.347-22.137 224 224 0 0 0 .56-38.208c-.53-7.45-1.432-14.87-2.702-22.23a224 224 0 0 0-4.421-19.69c-38.554-13.74-86.062-8.992-119.53-2.089a113.9 113.9 0 0 0-54.39-45.75c33.887-24.256 83.423-45.04 126.33-41.312a224 224 0 0 0-8.035-9.149 224 224 0 0 0-94.494-57.931 225 225 0 0 0-8.064-2.06c-26.526 20.97-49.182 64.83-61.522 102.29a113.88 113.88 0 0 0-66.875 24.18c-4.049-41.487 2.75-94.798 27.464-130.1z" enable-background="new"/><path fill="#fff" d="M464-196c-124.1 0-224 99.904-224 224 0 .334.01.666.012 1 .536-123.63 100.23-223 223.99-223s223.45 99.369 223.99 223c.001-.334.011-.666.011-1 0-124.1-99.904-224-224-224z" opacity=".4"/><circle cx="464" cy="32" r="128" filter="url(#b)" opacity=".2"/><circle cx="464" cy="32" r="128" filter="url(#c)" opacity=".1"/><circle cx="464" cy="28" r="128" fill="#fff"/><path fill="#dd4178" fill-rule="evenodd" stroke="#dd4178" stroke-linejoin="round" stroke-width="16" d="M424 84V-28l104 56z"/><path fill="#fff" d="M464-100A128 128 0 0 0 336 28a128 128 0 0 0 .041 1.172 128 128 0 0 1 127.96-127.17 128 128 0 0 1 127.96 126.83l.041-.828a128 128 0 0 0-128-128z" opacity=".4"/></g></svg>