<svg width="512" height="512" enable-background="new" version="1.0" xmlns="http://www.w3.org/2000/svg" xmlns:osb="http://www.openswatchbook.org/uri/2009/osb" xmlns:xlink="http://www.w3.org/1999/xlink">
 <defs>
  <filter id="a" x="-.024" y="-.024" width="1.048" height="1.048" color-interpolation-filters="sRGB">
   <feGaussianBlur stdDeviation="4.48"/>
  </filter>
  <filter id="b" x="-.06" y="-.06" width="1.12" height="1.12" color-interpolation-filters="sRGB">
   <feGaussianBlur stdDeviation="6.4"/>
  </filter>
  <filter id="c" x="-.024" y="-.024" width="1.048" height="1.048" color-interpolation-filters="sRGB">
   <feGaussianBlur stdDeviation="2.56"/>
  </filter>
 </defs>
 <g transform="translate(0,212)">
  <g>
   <g transform="translate(-208,16)">
    <g>
     <path d="m464 254c-124.1 0-224-99.904-224-224 0-0.33437 0.0103-0.66598 0.0117-1 0.5364 123.63 100.23 223 223.99 223s223.45-99.369 223.99-223c1e-3 0.33402 0.0117 0.66563 0.0117 1 0 124.1-99.904 224-224 224z" opacity=".2"/>
     <rect transform="matrix(0,-1,-1,0,0,0)" x="-256" y="-688" width="448" height="448" rx="224" ry="224" filter="url(#a)" opacity=".1" stroke="#000" stroke-width="8"/>
     <rect transform="matrix(0,-1,-1,0,0,0)" x="-256" y="-688" width="448" height="448" rx="224" ry="224" filter="url(#a)" opacity=".2"/>
     <path d="m464 252c-124.1 0-224-99.904-224-224 0-0.67412 3e-3 -1.3363 0-2 0 124.1 99.904 224 224 224s224-99.904 224-224c-3e-3 0.66367 0 1.3259 0 2 0 124.1-99.904 224-224 224z" opacity=".2"/>
    </g>
    <rect transform="matrix(0,-1,-1,0,0,0)" x="-252" y="-688" width="448" height="448" rx="224" ry="224" fill="#dd4178"/>
    <path d="m421.2-191.68c-5.7538 1.0562-11.464 2.3386-17.117 3.8424-7.197 1.9971-14.29 4.3528-21.251 7.0583-6.9607 2.7059-13.782 5.758-20.437 9.1452-6.6549 3.3874-13.136 7.1055-19.42 11.14-6.285 4.036-12.364 8.384-18.215 13.027-5.8502 4.6416-11.465 9.5727-16.822 14.775-0.6888 0.72912-1.3722 1.4637-2.051 2.2025 4.879 33.488 31.562 75.072 57.87 104.52-8.9392 16.584-13.624 35.126-13.636 53.965 0.0336 5.3895 0.46144 10.769 1.2629 16.099-37.984-17.223-80.772-49.754-99.001-88.81-0.82656 2.1595-1.6191 4.3317-2.3781 6.5157-2.2066 7.1345-4.055 14.375-5.5383 21.694-1.4842 7.3185-2.6014 14.707-3.3477 22.137-0.7448 7.4315-1.1178 14.896-1.1178 22.364-8.9e-4 5.2865 0.18592 10.571 0.55888 15.844 0.52976 7.45 1.4308 14.869 2.7013 22.229 1.1731 6.5969 2.6415 13.138 4.401 19.603 31.46 12.532 80.843 10.219 119.53 2.1432 12.785 20.677 31.852 36.721 54.411 45.782-33.886 24.256-83.422 45.04-126.33 41.312 2.5953 3.122 5.275 6.1729 8.0361 9.1492 5.2033 5.3572 10.671 10.451 16.383 15.262 5.7116 4.811 11.66 9.3334 17.824 13.55 6.1638 4.2166 12.535 8.1226 19.089 11.703 6.5541 3.5805 13.283 6.8313 20.162 9.7397 6.8795 2.908 13.9 5.4703 21.036 7.6768 2.6974 0.74255 5.4085 1.434 8.1319 2.0749 26.511-20.971 49.139-64.844 61.465-102.31 24.297-0.7168 47.728-9.1901 66.864-24.18 4.0487 41.488-2.7506 94.799-27.464 130.1 5.7538-1.0573 11.464-2.3388 17.117-3.8425 7.197-1.9972 14.29-4.3528 21.251-7.0584 6.9606-2.7059 13.782-5.7581 20.437-9.1452 6.6548-3.3874 13.136-7.1055 19.42-11.14 6.285-4.036 12.364-8.3841 18.215-13.027 5.8502-4.6415 11.465-9.5728 16.822-14.775 0.68879-0.73024 1.3722-1.4637 2.0509-2.2025-4.879-33.488-31.562-75.072-57.87-104.52 8.939-16.584 13.624-35.126 13.636-53.965-0.0448-5.3894-0.46144-10.769-1.2629-16.099 37.984 17.223 80.772 49.754 99.001 88.81 0.82655-2.1595 1.6192-4.3317 2.3782-6.5158 2.2065-7.1344 4.0548-14.375 5.5382-21.694 1.4842-7.3185 2.6015-14.707 3.3477-22.137 0.7448-7.4314 1.1178-14.896 1.1178-22.364 7.8e-4 -5.2864-0.18592-10.571-0.55888-15.844-0.52976-7.45-1.4308-14.869-2.7013-22.229-1.1771-6.6267-2.6523-13.197-4.421-19.691-38.554-13.74-86.062-8.9918-119.53-2.0882-12.785-20.662-31.843-36.692-54.389-45.75 33.886-24.256 83.422-45.04 126.33-41.312-2.5953-3.122-5.275-6.1728-8.036-9.1492-5.2033-5.3573-10.671-10.451-16.383-15.262-5.7116-4.811-11.66-9.3334-17.824-13.55-6.1638-4.2167-12.535-8.1224-19.089-11.703-6.5541-3.5806-13.283-6.8313-20.162-9.7397-6.8796-2.9081-13.9-5.4702-21.036-7.6769-2.675-0.73584-5.3634-1.4225-8.064-2.0589-26.526 20.97-49.182 64.829-61.522 102.29-24.301 0.71456-47.736 9.188-66.875 24.18-4.0487-41.488 2.7506-94.799 27.464-130.1z" enable-background="new" fill="#fff" stroke="#fff"/>
    <path transform="translate(0,-244)" d="m464 48c-124.1 0-224 99.904-224 224 0 0.33437 0.0103 0.66598 0.0117 1 0.5364-123.63 100.23-223 223.99-223s223.45 99.369 223.99 223c0.00145-0.33402 0.01172-0.66563 0.01172-1 0-124.1-99.904-224-224-224z" fill="#fff" opacity=".4"/>
    <circle cx="464" cy="32" r="128" filter="url(#b)" opacity=".2"/>
    <circle cx="464" cy="32" r="128" filter="url(#c)" opacity=".1"/>
    <circle cx="464" cy="28" r="128" fill="#fff"/>
    <path d="m424 84v-112l104 56z" fill="#dd4178" fill-rule="evenodd" stroke="#dd4178" stroke-linejoin="round" stroke-width="16"/>
    <path transform="translate(0,-244)" d="m464 144a128 128 0 0 0-128 128 128 128 0 0 0 0.041 1.1719 128 128 0 0 1 127.96-127.17 128 128 0 0 1 127.96 126.83 128 128 0 0 0 0.04102-0.82812 128 128 0 0 0-128-128z" fill="#fff" opacity=".4"/>
   </g>
  </g>
 </g>
</svg>
