<svg width="512" height="512" enable-background="new" version="1.0" xmlns="http://www.w3.org/2000/svg" xmlns:xlink="http://www.w3.org/1999/xlink">
 <defs>
  <filter id="a" x="-.06" y="-.06" width="1.12" height="1.12" color-interpolation-filters="sRGB">
   <feGaussianBlur stdDeviation="7.2"/>
  </filter>
  <clipPath id="b">
   <rect x="-172" y="320" width="288" height="288" rx="24" ry="24" fill="#ef5350"/>
  </clipPath>
  <filter id="c" x="-.024" y="-.024" width="1.048" height="1.048" color-interpolation-filters="sRGB">
   <feGaussianBlur stdDeviation="4.48"/>
  </filter>
 </defs>
 <g transform="translate(0,212)">
  <g>
   <g transform="translate(-208,16)">
    <path d="m424-192c-13.296 0-24 10.704-24 24v56h-56c-13.296 0-24 10.704-24 24v56h-56c-13.296 0-24 10.704-24 24v240c0 13.296 10.704 24 24 24h240c13.296 0 24-10.704 24-24v-56h56c13.296 0 24-10.704 24-24v-56h56c13.296 0 24-10.704 24-24v-240c0-13.296-10.704-24-24-24z" filter="url(#c)" opacity=".2"/>
    <path d="m424-194c-13.296 0-24 10.704-24 24v56h-56c-13.296 0-24 10.704-24 24v56h-56c-13.296 0-24 10.704-24 24v240c0 13.296 10.704 24 24 24h240c13.296 0 24-10.704 24-24v-56h56c13.296 0 24-10.704 24-24v-56h56c13.296 0 24-10.704 24-24v-240c0-13.296-10.704-24-24-24z" opacity=".2"/>
    <rect transform="rotate(90)" x="-196" y="-688" width="288" height="288" rx="24" ry="24" fill="#fdd835"/>
    <g transform="matrix(15.158 0 0 15.158 -1085.5 -4170.7)">
     <g transform="matrix(.67857 0 0 .67857 -2.4286 91.75)">
      <path d="m148 273v-1.1429s2.0192-1.9047 2.5868-2.0708c0.56768-0.16618 1.2381-0.0309 1.9271 0.15485 0.68899 0.18515 1.7176 0.43555 2.0386 0.4512 0.32103 0.016 0.90198-0.04 1.577-0.0983 0.67499-0.0571 1.7926-0.10972 2.1412-0.104 0.3486 0 1.2189 0.0686 2.1465 0.14948 0.92766 0.0811 2.2018 0.21669 2.4909 0.25463 0.2891 0.0377 0.62891 0.10744 1.0146 0.18344 0.38563 0.0754 1.0532 0.18936 1.2894 0.22068 0.23617 0.0308 0.78373 0.1384 1.419 0.22194 0.6353 0.0834 1.652 0.112 1.9456 0.0811s0.90904-0.34147 1.5949-0.62777c0.68583-0.28617 1.4421-0.54823 2.0173-0.48343 0.57523 0.0651 3.8111 1.6669 3.8111 1.6669v1.143z" enable-background="new" opacity=".5"/>
      <path d="m148 273v1.1429s2.0192 1.9047 2.5868 2.0708c0.56768 0.16618 1.2381 0.0309 1.9271-0.15485 0.68899-0.18515 1.7176-0.43555 2.0386-0.4512 0.32103-0.016 0.90198 0.04 1.577 0.0983 0.67499 0.0571 1.7926 0.10972 2.1412 0.104 0.3486 0 1.2189-0.0686 2.1465-0.14948 0.92766-0.0811 2.2018-0.21669 2.4909-0.25463 0.2891-0.0377 0.62891-0.10744 1.0146-0.18344 0.38563-0.0754 1.0532-0.18936 1.2894-0.22068 0.23617-0.0308 0.78373-0.1384 1.419-0.22194 0.6353-0.0834 1.652-0.112 1.9456-0.0811s0.90904 0.34147 1.5949 0.62777c0.68583 0.28617 1.4421 0.54823 2.0173 0.48343 0.57523-0.0651 3.8111-1.6669 3.8111-1.6669v-1.143z" enable-background="new" opacity=".1"/>
     </g>
     <circle cx="112.12" cy="267.9" r="1.9792" fill="#fff" opacity=".8"/>
    </g>
    <path transform="rotate(-90,0,-80)" d="m-232 240h240c13.296 0 24 10.704 24 24v240c0 13.296-10.704 24-24 24h-240c-13.296 0-24-10.704-24-24v-240c0-13.296 10.704-24 24-24z" clip-path="url(#b)" filter="url(#a)" opacity=".5"/>
    <rect transform="rotate(-90)" x="-172" y="320" width="288" height="288" rx="24" ry="24" fill="#ef5350"/>
    <path transform="rotate(-90,1,-1)" d="m-232 240h240c13.296 0 24 10.704 24 24v240c0 13.296-10.704 24-24 24h-240c-13.296 0-24-10.704-24-24v-240c0-13.296 10.704-24 24-24z" clip-path="url(#b)" filter="url(#a)" opacity=".5"/>
    <g transform="matrix(15.158 0 0 15.158 -1165.5 -4098.7)">
     <g transform="matrix(.67857 0 0 .67857 -2.4286 91.75)">
      <path d="m148 273v-1.1429s2.0192-1.9047 2.5868-2.0708c0.56768-0.16618 1.2381-0.0309 1.9271 0.15485 0.68899 0.18515 1.7176 0.43555 2.0386 0.4512 0.32103 0.016 0.90198-0.04 1.577-0.0983 0.67499-0.0571 1.7926-0.10972 2.1412-0.104 0.3486 0 1.2189 0.0686 2.1465 0.14948 0.92766 0.0811 2.2018 0.21669 2.4909 0.25463 0.2891 0.0377 0.62891 0.10744 1.0146 0.18344 0.38563 0.0754 1.0532 0.18936 1.2894 0.22068 0.23617 0.0308 0.78373 0.1384 1.419 0.22194 0.6353 0.0834 1.652 0.112 1.9456 0.0811s0.90904-0.34147 1.5949-0.62777c0.68583-0.28617 1.4421-0.54823 2.0173-0.48343 0.57523 0.0651 3.8111 1.6669 3.8111 1.6669v1.143z" enable-background="new" opacity=".5"/>
      <path d="m148 273v1.1429s2.0192 1.9047 2.5868 2.0708c0.56768 0.16618 1.2381 0.0309 1.9271-0.15485 0.68899-0.18515 1.7176-0.43555 2.0386-0.4512 0.32103-0.016 0.90198 0.04 1.577 0.0983 0.67499 0.0571 1.7926 0.10972 2.1412 0.104 0.3486 0 1.2189-0.0686 2.1465-0.14948 0.92766-0.0811 2.2018-0.21669 2.4909-0.25463 0.2891-0.0377 0.62891-0.10744 1.0146-0.18344 0.38563-0.0754 1.0532-0.18936 1.2894-0.22068 0.23617-0.0308 0.78373-0.1384 1.419-0.22194 0.6353-0.0834 1.652-0.112 1.9456-0.0811s0.90904 0.34147 1.5949 0.62777c0.68583 0.28617 1.4421 0.54823 2.0173 0.48343 0.57523-0.0651 3.8111-1.6669 3.8111-1.6669v-1.143z" enable-background="new" opacity=".1"/>
     </g>
     <circle cx="112.12" cy="267.9" r="1.9792" fill="#fff" opacity=".8"/>
    </g>
    <path d="m344-116c-13.296 0-24 10.704-24 24v2c0-13.296 10.704-24 24-24h240c13.296 0 24 10.704 24 24v-2c0-13.296-10.704-24-24-24z" fill="#fff" opacity=".2"/>
    <rect transform="rotate(-90)" x="-252" y="240" width="288" height="288" rx="24" ry="24" fill="#f06292"/>
    <path transform="translate(0,-244)" d="m264 208c-13.296 0-24 10.704-24 24v2c0-13.296 10.704-24 24-24h240c13.296 0 24 10.704 24 24v-2c0-13.296-10.704-24-24-24z" fill="#fff" opacity=".2"/>
    <path d="m424-196c-13.296 0-24 10.704-24 24v2c0-13.296 10.704-24 24-24h240c13.296 0 24 10.704 24 24v-2c0-13.296-10.704-24-24-24z" fill="#fff" opacity=".2"/>
    <g transform="matrix(15.158 0 0 15.158 -1245.5 -4018.7)">
     <g transform="matrix(.67857 0 0 .67857 -2.4286 91.75)">
      <path d="m148 273v-1.1429s2.0192-1.9047 2.5868-2.0708c0.56768-0.16618 1.2381-0.0309 1.9271 0.15485 0.68899 0.18515 1.7176 0.43555 2.0386 0.4512 0.32103 0.016 0.90198-0.04 1.577-0.0983 0.67499-0.0571 1.7926-0.10972 2.1412-0.104 0.3486 0 1.2189 0.0686 2.1465 0.14948 0.92766 0.0811 2.2018 0.21669 2.4909 0.25463 0.2891 0.0377 0.62891 0.10744 1.0146 0.18344 0.38563 0.0754 1.0532 0.18936 1.2894 0.22068 0.23617 0.0308 0.78373 0.1384 1.419 0.22194 0.6353 0.0834 1.652 0.112 1.9456 0.0811s0.90904-0.34147 1.5949-0.62777c0.68583-0.28617 1.4421-0.54823 2.0173-0.48343 0.57523 0.0651 3.8111 1.6669 3.8111 1.6669v1.143z" enable-background="new" opacity=".5"/>
      <path d="m148 273v1.1429s2.0192 1.9047 2.5868 2.0708c0.56768 0.16618 1.2381 0.0309 1.9271-0.15485 0.68899-0.18515 1.7176-0.43555 2.0386-0.4512 0.32103-0.016 0.90198 0.04 1.577 0.0983 0.67499 0.0571 1.7926 0.10972 2.1412 0.104 0.3486 0 1.2189-0.0686 2.1465-0.14948 0.92766-0.0811 2.2018-0.21669 2.4909-0.25463 0.2891-0.0377 0.62891-0.10744 1.0146-0.18344 0.38563-0.0754 1.0532-0.18936 1.2894-0.22068 0.23617-0.0308 0.78373-0.1384 1.419-0.22194 0.6353-0.0834 1.652-0.112 1.9456-0.0811s0.90904 0.34147 1.5949 0.62777c0.68583 0.28617 1.4421 0.54823 2.0173 0.48343 0.57523-0.0651 3.8111-1.6669 3.8111-1.6669v-1.143z" enable-background="new" opacity=".1"/>
     </g>
     <circle cx="112.12" cy="267.9" r="1.9792" fill="#fff" opacity=".8"/>
    </g>
   </g>
  </g>
 </g>
</svg>
