<svg xmlns="http://www.w3.org/2000/svg" width="512" height="512" enable-background="new" version="1.0"><defs><filter id="d" width="1.12" height="1.12" x="-.06" y="-.06" color-interpolation-filters="sRGB"><feGaussianBlur stdDeviation="7.2"/></filter><filter id="a" width="1.048" height="1.048" x="-.024" y="-.024" color-interpolation-filters="sRGB"><feGaussianBlur stdDeviation="4.48"/></filter><clipPath id="b"><rect width="288" height="288" x="-172" y="320" fill="#ef5350" rx="24" ry="24"/></clipPath></defs><g transform="translate(-208 228)"><path d="M424-192c-13.296 0-24 10.704-24 24v56h-56c-13.296 0-24 10.704-24 24v56h-56c-13.296 0-24 10.704-24 24v240c0 13.296 10.704 24 24 24h240c13.296 0 24-10.704 24-24v-56h56c13.296 0 24-10.704 24-24V96h56c13.296 0 24-10.704 24-24v-240c0-13.296-10.704-24-24-24z" filter="url(#a)" opacity=".2"/><path d="M424-194c-13.296 0-24 10.704-24 24v56h-56c-13.296 0-24 10.704-24 24v56h-56c-13.296 0-24 10.704-24 24v240c0 13.296 10.704 24 24 24h240c13.296 0 24-10.704 24-24v-56h56c13.296 0 24-10.704 24-24V94h56c13.296 0 24-10.704 24-24v-240c0-13.296-10.704-24-24-24z" opacity=".2"/><rect width="288" height="288" x="-196" y="-688" fill="#fdd835" rx="24" ry="24" transform="rotate(90)"/><g transform="translate(-1085.5 -4170.7)scale(15.158)"><path d="M98 277v-.776s1.37-1.292 1.755-1.405.84-.021 1.308.105c.467.126 1.165.296 1.383.306s.612-.027 1.07-.067a22 22 0 0 1 1.453-.07c.237 0 .827.046 1.457.101s1.494.147 1.69.173.427.073.688.125c.262.05.715.128.875.15.16.02.532.093.963.15s1.121.076 1.32.055.617-.232 1.083-.426.978-.372 1.369-.328c.39.044 2.586 1.131 2.586 1.131V277z" enable-background="new" opacity=".5"/><path d="M98 277v.775s1.37 1.293 1.755 1.405.84.021 1.308-.105c.467-.125 1.165-.295 1.383-.306.218-.01.612.027 1.07.067a22 22 0 0 0 1.453.07c.237 0 .827-.046 1.457-.101a62 62 0 0 0 1.69-.173c.196-.025.427-.073.688-.124.262-.052.715-.129.875-.15s.532-.094.963-.15c.431-.057 1.121-.077 1.32-.056s.617.232 1.083.426.978.372 1.369.328c.39-.044 2.586-1.13 2.586-1.13V277z" enable-background="new" opacity=".1"/><circle cx="112.12" cy="267.9" r="1.979" fill="#fff" opacity=".8"/></g><path d="M-232 240H8c13.296 0 24 10.704 24 24v240c0 13.296-10.704 24-24 24h-240c-13.296 0-24-10.704-24-24V264c0-13.296 10.704-24 24-24" clip-path="url(#b)" filter="url(#d)" opacity=".5" transform="rotate(-90 0 -80)"/><rect width="288" height="288" x="-172" y="320" fill="#ef5350" rx="24" ry="24" transform="rotate(-90)"/><path d="M-232 240H8c13.296 0 24 10.704 24 24v240c0 13.296-10.704 24-24 24h-240c-13.296 0-24-10.704-24-24V264c0-13.296 10.704-24 24-24" clip-path="url(#b)" filter="url(#d)" opacity=".5" transform="rotate(-90 1 -1)"/><g transform="translate(-1165.5 -4098.7)scale(15.158)"><path d="M98 277v-.776s1.37-1.292 1.755-1.405.84-.021 1.308.105c.467.126 1.165.296 1.383.306s.612-.027 1.07-.067a22 22 0 0 1 1.453-.07c.237 0 .827.046 1.457.101s1.494.147 1.69.173.427.073.688.125c.262.05.715.128.875.15.16.02.532.093.963.15s1.121.076 1.32.055.617-.232 1.083-.426.978-.372 1.369-.328c.39.044 2.586 1.131 2.586 1.131V277z" enable-background="new" opacity=".5"/><path d="M98 277v.775s1.37 1.293 1.755 1.405.84.021 1.308-.105c.467-.125 1.165-.295 1.383-.306.218-.01.612.027 1.07.067a22 22 0 0 0 1.453.07c.237 0 .827-.046 1.457-.101a62 62 0 0 0 1.69-.173c.196-.025.427-.073.688-.124.262-.052.715-.129.875-.15s.532-.094.963-.15c.431-.057 1.121-.077 1.32-.056s.617.232 1.083.426.978.372 1.369.328c.39-.044 2.586-1.13 2.586-1.13V277z" enable-background="new" opacity=".1"/><circle cx="112.12" cy="267.9" r="1.979" fill="#fff" opacity=".8"/></g><path fill="#fff" d="M344-116c-13.296 0-24 10.704-24 24v2c0-13.296 10.704-24 24-24h240c13.296 0 24 10.704 24 24v-2c0-13.296-10.704-24-24-24z" opacity=".2"/><rect width="288" height="288" x="-252" y="240" fill="#f06292" rx="24" ry="24" transform="rotate(-90)"/><path fill="#fff" d="M264-36c-13.296 0-24 10.704-24 24v2c0-13.296 10.704-24 24-24h240c13.296 0 24 10.704 24 24v-2c0-13.296-10.704-24-24-24zM424-196c-13.296 0-24 10.704-24 24v2c0-13.296 10.704-24 24-24h240c13.296 0 24 10.704 24 24v-2c0-13.296-10.704-24-24-24z" opacity=".2"/><g transform="translate(-1245.5 -4018.7)scale(15.158)"><path d="M98 277v-.776s1.37-1.292 1.755-1.405.84-.021 1.308.105c.467.126 1.165.296 1.383.306s.612-.027 1.07-.067a22 22 0 0 1 1.453-.07c.237 0 .827.046 1.457.101s1.494.147 1.69.173.427.073.688.125c.262.05.715.128.875.15.16.02.532.093.963.15s1.121.076 1.32.055.617-.232 1.083-.426.978-.372 1.369-.328c.39.044 2.586 1.131 2.586 1.131V277z" enable-background="new" opacity=".5"/><path d="M98 277v.775s1.37 1.293 1.755 1.405.84.021 1.308-.105c.467-.125 1.165-.295 1.383-.306.218-.01.612.027 1.07.067a22 22 0 0 0 1.453.07c.237 0 .827-.046 1.457-.101a62 62 0 0 0 1.69-.173c.196-.025.427-.073.688-.124.262-.052.715-.129.875-.15s.532-.094.963-.15c.431-.057 1.121-.077 1.32-.056s.617.232 1.083.426.978.372 1.369.328c.39-.044 2.586-1.13 2.586-1.13V277z" enable-background="new" opacity=".1"/><circle cx="112.12" cy="267.9" r="1.979" fill="#fff" opacity=".8"/></g></g></svg>