<svg xmlns="http://www.w3.org/2000/svg" width="64" height="64"><defs><filter id="c" width="1.208" height="1.208" x="-.104" y="-.104" color-interpolation-filters="sRGB"><feGaussianBlur stdDeviation="1.04"/></filter><filter id="b" width="1.125" height="1.125" x="-.062" y="-.062" color-interpolation-filters="sRGB"><feGaussianBlur stdDeviation="1.04"/></filter><filter id="a" width="1.089" height="1.171" x="-.045" y="-.086" color-interpolation-filters="sRGB"><feGaussianBlur stdDeviation="1.04"/></filter></defs><path d="M59.958 31.828A28 28 0 0 1 32 59 28 28 0 0 1 4.044 32.172 28 28 0 0 0 4 33a28 28 0 0 0 28 28 28 28 0 0 0 28-28 28 28 0 0 0-.042-1.172" filter="url(#a)" opacity=".2"/><circle cx="32" cy="32" r="28" fill="#4daf7c"/><rect width="40" height="40" x="-53" y="-52" filter="url(#b)" opacity=".2" rx="20" ry="20" transform="scale(1 -1)rotate(90)"/><rect width="40" height="40" x="-52" y="-52" fill="#5ed698" rx="20" ry="20" transform="scale(1 -1)rotate(90)"/><path fill="#fff" d="M31.998 4A28 28 0 0 0 4 32a28 28 0 0 0 .018.492A28 28 0 0 1 31.998 5H32a28 28 0 0 1 27.973 27.5 28 28 0 0 0 .025-.5A28 28 0 0 0 32 4z" opacity=".2"/><path fill="#fff" d="M32 12c-11.08 0-20 8.92-20 20 0 .168.008.333.012.5C12.276 21.654 21.088 13 32 13s19.724 8.654 19.988 19.5c.004-.167.011-.332.011-.5 0-11.08-8.92-20-20-20z" opacity=".2"/><path d="M46 23.986s-2 3.01-5 3.01c-2.797-.539-3.906-.082-4 0v12.11c-.133 2.551-2.223 5.109-5.336 6.285-3.949 1.492-8.125.195-9.332-2.91-1.211-3.098 1-6.855 4.953-8.348 3.059-1.152 5.867-.867 7.715.867V22.99c4-2.664 7.719.957 11 1" filter="url(#c)" opacity=".1"/><path fill="#f9f9f9" d="M45 22.986s-2 3.01-5 3.01c-2.797-.539-3.906-.082-4 0v12.11c-.133 2.551-2.223 5.109-5.336 6.285-3.949 1.492-8.125.195-9.332-2.91-1.211-3.098 1-6.855 4.953-8.348 3.059-1.152 5.867-.867 7.715.867V21.99c4-2.664 7.719.957 11 1"/></svg>