<svg xmlns="http://www.w3.org/2000/svg" width="512" height="512" enable-background="new" version="1.0"><defs><filter id="c" width="1.109" height="1.133" x="-.055" y="-.067" color-interpolation-filters="sRGB"><feGaussianBlur stdDeviation="1"/></filter><filter id="a" width="1.049" height="1.047" x="-.025" y="-.023" color-interpolation-filters="sRGB"><feGaussianBlur stdDeviation="4.592"/></filter><filter id="g" width="1.101" height="1.148" x="-.051" y="-.074" color-interpolation-filters="sRGB"><feGaussianBlur stdDeviation="8.96"/></filter><filter id="d" width="1.101" height="1.148" x="-.051" y="-.074" color-interpolation-filters="sRGB"><feGaussianBlur stdDeviation="8.96"/></filter><clipPath id="b"><path fill="#fe9700" d="m232 221.2-26.726 20.054c-.057.037-.11.082-.164.123l-.033.025v.003A2.78 2.78 0 0 0 204 243.6v33.6c0 1.552 1.249 2.8 2.8 2.8h50.4c1.55 0 2.8-1.248 2.8-2.8v-33.6c0-.917-.444-1.72-1.121-2.23l.01-.017z"/></clipPath></defs><path d="M256 11.59 42.19 172.03c-.46.3-.877.653-1.312.984l-.25.204v.016c-5.215 4.094-8.625 10.388-8.625 17.562v267.2c0 22.07 18.287 23.732 22.577 23.875l-.171.124h403.19l-.141-.093c22.483-.99 22.547-23.906 22.547-23.906v-267.2c0-7.336-3.55-13.763-8.969-17.844l.094-.125-215.12-161.22v-.016z" opacity=".2"/><path stroke="#000" stroke-width="8" d="M256 13.59 42.19 174.03c-.46.3-.877.653-1.312.984l-.25.204v.016c-5.215 4.094-8.625 10.388-8.625 17.562v267.2c0 22.07 18.287 23.732 22.577 23.875l-.171.124h403.19l-.141-.093c22.483-.99 22.547-23.906 22.547-23.906v-267.2c0-7.336-3.55-13.763-8.969-17.844l.094-.125-215.12-161.22v-.016z" filter="url(#a)" opacity=".1"/><path d="M256 13.59 42.19 174.03c-.46.3-.877.653-1.312.984l-.25.204v.016c-5.215 4.094-8.625 10.388-8.625 17.562v267.2c0 22.07 18.287 23.732 22.577 23.875l-.171.124h403.19l-.141-.093c22.483-.99 22.547-23.906 22.547-23.906v-267.2c0-7.336-3.55-13.763-8.969-17.844l.094-.125-215.12-161.22v-.016z" filter="url(#a)" opacity=".2"/><path fill="#f5a816" d="M256 9.6 42.19 170.03c-.46.3-.877.653-1.313.984l-.262.198v.024c-5.215 4.094-8.619 10.392-8.619 17.566v236.8c0 12.41 9.99 22.4 22.4 22.4h403.2c12.41 0 22.4-9.99 22.4-22.4v-236.8c0-7.336-3.55-13.769-8.969-17.85l.09-.131L255.997 9.6z"/><rect width="44" height="36" x="210" y="227" clip-path="url(#b)" filter="url(#c)" opacity=".2" rx="3" ry="2.998" transform="matrix(8 0 0 8 -1600 -1760)"/><path fill="#fff" d="M256 9.6 42.19 170.03c-.46.3-.877.653-1.312.984l-.262.198v.025c-5.215 4.094-8.62 10.391-8.62 17.564v2c0-7.174 3.405-13.47 8.62-17.564v-.025l.262-.198c.435-.331.852-.685 1.312-.984L256 11.6l215.12 161.22-.09.133c5.419 4.08 8.969 10.513 8.969 17.85v-2c0-7.336-3.55-13.77-8.969-17.85l.09-.133z" opacity=".1"/><rect width="352" height="368" x="80" y="48" fill="#ececec" rx="24" ry="23.981"/><path d="m32 188.8-.002.014v268.78c0 12.41 9.99 22.4 22.4 22.4h403.2l-425.6-291.2z" filter="url(#d)" opacity=".2"/><path fill="#f6be1a" d="M32 188.8 457.6 480H56c-1.6 0-24 0-24-24z"/><path d="M480 188.8 54.4 480h403.2c12.41 0 22.4-9.99 22.4-22.4V188.82l-.002-.014z" filter="url(#g)" opacity=".1"/><path fill="#f9ce1d" d="M456 480c24 0 24-24 24-24V188.8L54.4 480z"/><g fill="#fff"><path d="M480 188.8 54.4 480h2.924l422.68-289.2zM32 188.8v2l222.54 152.26 1.46-1zM104 48c-13.296 0-24 10.699-24 23.984v2C80 60.699 90.704 50 104 50h304c13.296 0 24 10.699 24 23.984v-2C432 58.699 421.296 48 408 48z" opacity=".1"/></g><path fill="#848484" d="M256 112a80 80 0 0 0-80 80 80 80 0 0 0 80 80h56c4.432 0 8-3.568 8-8s-3.568-8-8-8h-56a64 64 0 0 1-64-64 64 64 0 0 1 64-64 64 64 0 0 1 64 64v24c0 4.432-3.568 8-8 8s-8-3.568-8-8v-24a48 48 0 0 0-48-48 48 48 0 0 0-48 48 48 48 0 0 0 48 48 48 48 0 0 0 34.094-14.25C293.825 234.142 302.193 240 312 240c13.296 0 24-10.704 24-24v-24a80 80 0 0 0-80-80m0 48a32 32 0 0 1 32 32 32 32 0 0 1-32 32 32 32 0 0 1-32-32 32 32 0 0 1 32-32"/><path fill="#ff8533" d="m319.71 374.22 38.287-14.091 10.995-37.433 25.05 30.85 41.668 1.78-21.706 32.023 10.995 37.647-36.757-10.07-36.935 25.975.25-39.853"/></svg>