<?xml version="1.0" encoding="UTF-8"?>
<svg width="512" height="512" enable-background="new" version="1.0" xmlns="http://www.w3.org/2000/svg" xmlns:cc="http://creativecommons.org/ns#" xmlns:dc="http://purl.org/dc/elements/1.1/" xmlns:rdf="http://www.w3.org/1999/02/22-rdf-syntax-ns#">
 <metadata>
  <rdf:RDF>
   <cc:Work rdf:about="">
    <dc:format>image/svg+xml</dc:format>
    <dc:type rdf:resource="http://purl.org/dc/dcmitype/StillImage"/>
    <dc:title/>
   </cc:Work>
  </rdf:RDF>
 </metadata>
 <defs>
  <clipPath id="f">
   <path d="m232 221.2-26.726 20.054c-0.0575 0.0374-0.10962 0.0816-0.16407 0.12306l-0.0328 0.0247v3e-3c-0.65181 0.5118-1.0774 1.299-1.0774 2.1957v33.6c0 1.5512 1.2488 2.8 2.8 2.8h50.4c1.5512 0 2.8-1.2488 2.8-2.8v-33.6c0-0.91702-0.44376-1.7211-1.1211-2.2312l0.0112-0.0164-26.89-20.152z" fill="#fe9700"/>
  </clipPath>
  <filter id="e" x="-.054545" y="-.066667" width="1.1091" height="1.1333" color-interpolation-filters="sRGB">
   <feGaussianBlur stdDeviation="0.99999981"/>
  </filter>
  <filter id="a" x="-.0246" y="-.023428" width="1.0492" height="1.0469" color-interpolation-filters="sRGB">
   <feGaussianBlur stdDeviation="4.5920332"/>
  </filter>
  <filter id="c" x="-.050526" y="-.073847" width="1.1011" height="1.1477" color-interpolation-filters="sRGB">
   <feGaussianBlur stdDeviation="8.9599609"/>
  </filter>
  <filter id="b" x="-.050526" y="-.073847" width="1.1011" height="1.1477" color-interpolation-filters="sRGB">
   <feGaussianBlur stdDeviation="8.959961"/>
  </filter>
 </defs>
 <path d="m256 11.59-213.81 160.44c-0.46 0.2992-0.87696 0.6528-1.3125 0.98432l-0.2504 0.2032v0.016c-5.2141 4.094-8.6246 10.388-8.6246 17.562v267.2c0 22.07 18.288 23.732 22.578 23.875l-0.17192 0.12496h403.19l-0.1408-0.0936c22.483-0.9896 22.547-23.906 22.547-23.906v-267.2c0-7.3362-3.5501-13.763-8.9687-17.844l0.0936-0.1248-215.12-161.22v-0.016z" opacity=".2"/>
 <path d="m256 13.59-213.81 160.44c-0.46 0.2992-0.87696 0.6528-1.3125 0.98432l-0.2504 0.2032v0.016c-5.2141 4.094-8.6246 10.388-8.6246 17.562v267.2c0 22.07 18.288 23.732 22.578 23.875l-0.17192 0.12496h403.19l-0.1408-0.0936c22.483-0.9896 22.547-23.906 22.547-23.906v-267.2c0-7.3362-3.5501-13.763-8.9687-17.844l0.0936-0.1248-215.12-161.22v-0.016z" filter="url(#a)" opacity=".1" stroke="#000" stroke-width="8"/>
 <path d="m256 13.59-213.81 160.44c-0.46 0.2992-0.87696 0.6528-1.3125 0.98432l-0.2504 0.2032v0.016c-5.2141 4.094-8.6246 10.388-8.6246 17.562v267.2c0 22.07 18.288 23.732 22.578 23.875l-0.17192 0.12496h403.19l-0.1408-0.0936c22.483-0.9896 22.547-23.906 22.547-23.906v-267.2c0-7.3362-3.5501-13.763-8.9687-17.844l0.0936-0.1248-215.12-161.22v-0.016z" filter="url(#a)" opacity=".2"/>
 <path d="m256 9.6-213.81 160.43c-0.46 0.2992-0.87696 0.6528-1.3126 0.98448l-0.2624 0.1976v0.024c-5.2145 4.0944-8.6189 10.392-8.6189 17.566v236.8c0 12.41 9.9904 22.4 22.4 22.4h403.2c12.41 0 22.4-9.9905 22.4-22.4v-236.8c0-7.3362-3.5501-13.769-8.9687-17.85l0.0896-0.1312-215.12-161.22z" fill="#f5a816"/>
 <rect transform="matrix(8,0,0,8,-1600,-1760)" x="210" y="227" width="44" height="36" rx="3" ry="2.9976" clip-path="url(#f)" filter="url(#e)" opacity=".2"/>
 <path d="m256 9.6-213.81 160.43c-0.46 0.2992-0.8769 0.65269-1.3125 0.98437l-0.26172 0.19727v0.0254c-5.2145 4.0944-8.6191 10.391-8.6191 17.564v2c0-7.1737 3.4047-13.47 8.6191-17.564v-0.0254l0.26172-0.19727c0.4356-0.33168 0.8525-0.68517 1.3125-0.98437l213.81-160.43 215.12 161.22-0.0898 0.13281c5.4187 4.081 8.9687 10.513 8.9687 17.85v-2c0-7.3362-3.55-13.769-8.9688-17.85l0.0898-0.13281z" fill="#fff" opacity=".1"/>
 <rect x="80" y="48" width="352" height="368" rx="24" ry="23.981" fill="#ececec"/>
 <path d="m32 188.8-0.001953 0.01367v268.78c0 12.41 9.9908 22.4 22.4 22.4h403.2l-425.6-291.2z" filter="url(#b)" opacity=".2" stroke-width="11.2"/>
 <path d="m32 188.8 425.6 291.2h-401.6c-1.5999 0-24 0-24-24z" fill="#f6be1a"/>
 <path d="m480 188.8-425.6 291.2h403.2c12.41 0 22.4-9.9908 22.4-22.4v-268.78l-0.00195-0.01367z" filter="url(#c)" opacity=".1" stroke-width="11.2"/>
 <path d="m456 480c24 0 24-24 24-24v-267.2l-425.6 291.2z" fill="#f9ce1d"/>
 <g fill="#fff">
  <path d="m480 188.8-425.6 291.2h2.9238l422.68-289.2z" opacity=".1"/>
  <path d="m32 188.8v2l222.54 152.26 1.4609-1z" opacity=".1"/>
  <path d="m104 48c-13.296 0-24 10.699-24 23.984v2c0-13.285 10.704-23.984 24-23.984h304c13.296 0 24 10.699 24 23.984v-2c0-13.285-10.704-23.984-24-23.984z" opacity=".1"/>
 </g>
 <path d="m256 112a80 80 0 0 0-80 80 80 80 0 0 0 80 80h56c4.432 0 8-3.568 8-8s-3.568-8-8-8h-56a64 64 0 0 1-64-64 64 64 0 0 1 64-64 64 64 0 0 1 64 64v24c0 4.432-3.568 8-8 8s-8-3.568-8-8v-24a48 48 0 0 0-48-48 48 48 0 0 0-48 48 48 48 0 0 0 48 48 48 48 0 0 0 34.094-14.25c3.7314 8.392 12.099 14.25 21.906 14.25 13.296 0 24-10.704 24-24v-24a80 80 0 0 0-80-80zm0 48a32 32 0 0 1 32 32 32 32 0 0 1-32 32 32 32 0 0 1-32-32 32 32 0 0 1 32-32z" enable-background="new" fill="#848484"/>
 <path d="m319.71 374.22 38.287-14.091 10.995-37.433 25.05 30.85 41.668 1.7792-21.706 32.024 10.995 37.647-36.757-10.07-36.935 25.975 0.24949-39.853" fill="#ff8533" stroke-width="35.583"/>
</svg>
