<svg xmlns="http://www.w3.org/2000/svg" width="512" height="512" enable-background="new" version="1.0"><defs><filter id="a" width="1.048" height="1.048" x="-.024" y="-.024" color-interpolation-filters="sRGB"><feGaussianBlur stdDeviation="4.8"/></filter></defs><g transform="translate(-208 228)"><circle cx="464" cy="32" r="240" enable-background="new" filter="url(#a)" opacity=".1"/><circle cx="464" cy="32" r="240" enable-background="new" filter="url(#a)" opacity=".2"/><path fill="#fff" d="M464-212A240 240 0 0 0 224 28l.041 1.172A240 240 0 0 1 464-210 240 240 0 0 1 703.959 28.828L704 28a240 240 0 0 0-240-240" enable-background="new" opacity=".2"/><circle cx="464" cy="28" r="240" fill="#87a556" enable-background="new"/></g><path fill="#f9f9f9" d="M256 136a120 120 0 0 0-97.11 49.75l17.21 10.35A100 100 0 0 1 256 156a100 100 0 0 1 100 100 100 100 0 0 1-100 100 100 100 0 0 1-79.9-40.04l-17.23 10.34A120 120 0 0 0 256 376a120 120 0 0 0 120-120 120 120 0 0 0-120-120m-120 50v140l120-70zm120 0a70 70 0 0 0-54.02 25.59l17.42 10.45A50 50 0 0 1 256 206a50 50 0 0 1 50 50 50 50 0 0 1-50 50 50 50 0 0 1-36.62-16.04l-17.42 10.47A70 70 0 0 0 256 326a70 70 0 0 0 70-70 70 70 0 0 0-70-70"/></svg>