<svg width="512" height="512" enable-background="new" version="1.0" xmlns="http://www.w3.org/2000/svg">
 <defs>
  <filter id="c" x="-.024681" y="-.023356" width="1.0494" height="1.0467" color-interpolation-filters="sRGB">
   <feGaussianBlur stdDeviation="3.4146151"/>
  </filter>
  <filter id="b" x="-.023484" y="-.02454" width="1.047" height="1.0491" color-interpolation-filters="sRGB">
   <feGaussianBlur stdDeviation="4.4767212"/>
  </filter>
  <filter id="a" x="-.023471" y="-.024553" width="1.0469" height="1.0491" color-interpolation-filters="sRGB">
   <feGaussianBlur stdDeviation="4.4825642"/>
  </filter>
 </defs>
 <g transform="translate(0,212)">
  <g>
   <g transform="translate(-208,16)">
    <path d="m464.56-208a266.13 266.13 0 0 1-90.745 117.56 266.13 266.13 0 0 1-139 50.159 266.13 266.13 0 0 1 83.057 122.04 266.13 266.13 0 0 1 4.8512 146.84 266.13 266.13 0 0 1 140.71-40.435 266.13 266.13 0 0 1 142.94 41.994 266.13 266.13 0 0 1 4.3965-148.29 266.13 266.13 0 0 1 82.407-121.76 266.13 266.13 0 0 1-137.22-49.747 266.13 266.13 0 0 1-91.395-118.36z" enable-background="new" filter="url(#a)" opacity=".1"/>
    <path d="m464.56-208a266.13 266.13 0 0 1-90.745 117.56 266.13 266.13 0 0 1-139 50.159 266.13 266.13 0 0 1 83.057 122.04 266.13 266.13 0 0 1 4.8512 146.84 266.13 266.13 0 0 1 140.71-40.435 266.13 266.13 0 0 1 142.94 41.994 266.13 266.13 0 0 1 4.3965-148.29 266.13 266.13 0 0 1 82.407-121.76 266.13 266.13 0 0 1-137.22-49.747 266.13 266.13 0 0 1-91.395-118.36z" enable-background="new" filter="url(#a)" opacity=".2"/>
    <path d="m464.56-212a266.13 266.13 0 0 1-90.745 117.56 266.13 266.13 0 0 1-139 50.159 266.13 266.13 0 0 1 83.057 122.04 266.13 266.13 0 0 1 4.8512 146.84 266.13 266.13 0 0 1 140.71-40.435 266.13 266.13 0 0 1 142.94 41.994 266.13 266.13 0 0 1 4.3965-148.29 266.13 266.13 0 0 1 82.407-121.76 266.13 266.13 0 0 1-137.22-49.747 266.13 266.13 0 0 1-91.395-118.36z" enable-background="new" fill="#ba121f"/>
    <path transform="translate(0,-244)" d="m464.56 32a266.13 266.13 0 0 1-90.744 117.56 266.13 266.13 0 0 1-139 50.16 266.13 266.13 0 0 1 1.9727 1.8086 266.13 266.13 0 0 0 137.03-49.969 266.13 266.13 0 0 0 90.744-117.56 266.13 266.13 0 0 0 91.395 118.36 266.13 266.13 0 0 0 135.24 49.51 266.13 266.13 0 0 1 1.9844-1.7617 266.13 266.13 0 0 1-137.22-49.748 266.13 266.13 0 0 1-91.395-118.36zm133.65 360.98a266.13 266.13 0 0 0 7.6914 76.898 266.13 266.13 0 0 1 0.46875 0.27734 266.13 266.13 0 0 1-8.1602-77.176zm-267.5 8.5215a266.13 266.13 0 0 1-7.9844 67.096 266.13 266.13 0 0 1 0.50195-0.2793 266.13 266.13 0 0 0 7.4824-66.816z" enable-background="new" fill="#fff" opacity=".2"/>
    <path d="m606.61-165.83a266.13 266.13 0 0 1-142.51 41.767 266.13 266.13 0 0 1-141.93-41.122 266.13 266.13 0 0 1-4.5392 147.55 266.13 266.13 0 0 1-82.384 121.65 266.13 266.13 0 0 1 137.6 49.994 266.13 266.13 0 0 1 90.957 117.99 266.13 266.13 0 0 1 90.719-117.38 266.13 266.13 0 0 1 138.24-50.067 266.13 266.13 0 0 1-81.774-120.9 266.13 266.13 0 0 1-4.3706-149.47z" enable-background="new" filter="url(#b)" opacity=".2"/>
    <path d="m606.61-169.83a266.13 266.13 0 0 1-142.51 41.767 266.13 266.13 0 0 1-141.93-41.122 266.13 266.13 0 0 1-4.5392 147.55 266.13 266.13 0 0 1-82.384 121.65 266.13 266.13 0 0 1 137.6 49.994 266.13 266.13 0 0 1 90.957 117.99 266.13 266.13 0 0 1 90.719-117.38 266.13 266.13 0 0 1 138.24-50.067 266.13 266.13 0 0 1-81.774-120.9 266.13 266.13 0 0 1-4.3706-149.47z" enable-background="new" fill="#e91627"/>
    <path transform="translate(0,-244)" d="m606.61 74.172a266.13 266.13 0 0 1-142.51 41.766 266.13 266.13 0 0 1-141.93-41.121 266.13 266.13 0 0 1 0.46093 2.2715 266.13 266.13 0 0 0 141.47 40.85 266.13 266.13 0 0 0 142-41.473 266.13 266.13 0 0 1 0.51562-2.293zm-8.5703 71.721a266.13 266.13 0 0 0 12.939 79.752 266.13 266.13 0 0 0 79.826 119.1 266.13 266.13 0 0 1 1.9492-0.1914 266.13 266.13 0 0 1-81.775-120.9 266.13 266.13 0 0 1-12.939-77.752zm-267.91 8.0684a266.13 266.13 0 0 1-12.502 68.408 266.13 266.13 0 0 1-82.385 121.64 266.13 266.13 0 0 1 1.9863 0.23828 266.13 266.13 0 0 0 80.398-119.88 266.13 266.13 0 0 0 12.502-70.408z" enable-background="new" fill="#fff" opacity=".2"/>
    <path d="m517.09-145.01a202.76 202.76 0 0 1-93.433 63.818 202.76 202.76 0 0 1-112.53 3.62 202.76 202.76 0 0 1 31.451 107.99 202.76 202.76 0 0 1-31.056 107.54 202.76 202.76 0 0 1 111.48 3.8293 202.76 202.76 0 0 1 93.689 64.083 202.76 202.76 0 0 1 38.099-106.42 202.76 202.76 0 0 1 88.38-68.826 202.76 202.76 0 0 1-87.721-68.355 202.76 202.76 0 0 1-38.359-107.28z" enable-background="new" filter="url(#c)" opacity=".2"/>
    <path d="m517.09-149.01a202.76 202.76 0 0 1-93.433 63.818 202.76 202.76 0 0 1-112.53 3.62 202.76 202.76 0 0 1 31.451 107.99 202.76 202.76 0 0 1-31.056 107.54 202.76 202.76 0 0 1 111.48 3.8293 202.76 202.76 0 0 1 93.689 64.083 202.76 202.76 0 0 1 38.099-106.42 202.76 202.76 0 0 1 88.38-68.826 202.76 202.76 0 0 1-87.721-68.355 202.76 202.76 0 0 1-38.359-107.28z" enable-background="new" fill="#ff9d93"/>
    <path transform="translate(0,-244)" d="m517.09 94.99a202.76 202.76 0 0 1-93.432 63.818 202.76 202.76 0 0 1-112.53 3.6191 202.76 202.76 0 0 1 1.293 2.2852 202.76 202.76 0 0 0 111.24-3.9043 202.76 202.76 0 0 0 93.432-63.818 202.76 202.76 0 0 0 38.359 107.28 202.76 202.76 0 0 0 85.5 67.326 202.76 202.76 0 0 1 2.2207-0.97071 202.76 202.76 0 0 1-87.721-68.355 202.76 202.76 0 0 1-38.359-107.28zm-174.55 176.21a202.76 202.76 0 0 1-31.016 106.76 202.76 202.76 0 0 1 1.3281-0.26171 202.76 202.76 0 0 0 29.729-105.28 202.76 202.76 0 0 0-0.041-1.2129z" enable-background="new" fill="#fff" opacity=".2"/>
   </g>
  </g>
 </g>
</svg>
