<svg xmlns="http://www.w3.org/2000/svg" width="512" height="512" enable-background="new" version="1.0"><defs><filter id="c" width="1.049" height="1.047" x="-.025" y="-.023" color-interpolation-filters="sRGB"><feGaussianBlur stdDeviation="3.415"/></filter><filter id="b" width="1.047" height="1.049" x="-.023" y="-.025" color-interpolation-filters="sRGB"><feGaussianBlur stdDeviation="4.477"/></filter><filter id="a" width="1.047" height="1.049" x="-.023" y="-.025" color-interpolation-filters="sRGB"><feGaussianBlur stdDeviation="4.483"/></filter></defs><path d="M464.56-208a266.13 266.13 0 0 1-90.745 117.56 266.13 266.13 0 0 1-139 50.159 266.13 266.13 0 0 1 83.057 122.04 266.13 266.13 0 0 1 4.851 146.84 266.13 266.13 0 0 1 140.71-40.435 266.13 266.13 0 0 1 142.94 41.994 266.13 266.13 0 0 1 4.397-148.29 266.13 266.13 0 0 1 82.407-121.76 266.13 266.13 0 0 1-137.22-49.747 266.13 266.13 0 0 1-91.395-118.36z" enable-background="new" filter="url(#a)" opacity=".1" transform="translate(-208 228)"/><path d="M464.56-208a266.13 266.13 0 0 1-90.745 117.56 266.13 266.13 0 0 1-139 50.159 266.13 266.13 0 0 1 83.057 122.04 266.13 266.13 0 0 1 4.851 146.84 266.13 266.13 0 0 1 140.71-40.435 266.13 266.13 0 0 1 142.94 41.994 266.13 266.13 0 0 1 4.397-148.29 266.13 266.13 0 0 1 82.407-121.76 266.13 266.13 0 0 1-137.22-49.747 266.13 266.13 0 0 1-91.395-118.36z" enable-background="new" filter="url(#a)" opacity=".2" transform="translate(-208 228)"/><path fill="#ba121f" d="M256.56 16a266.13 266.13 0 0 1-90.745 117.56 266.13 266.13 0 0 1-139 50.159 266.13 266.13 0 0 1 83.057 122.04 266.13 266.13 0 0 1 4.851 146.84 266.13 266.13 0 0 1 140.71-40.435 266.13 266.13 0 0 1 142.94 41.994 266.13 266.13 0 0 1 4.397-148.29 266.13 266.13 0 0 1 82.407-121.76 266.13 266.13 0 0 1-137.22-49.747 266.13 266.13 0 0 1-91.395-118.36z" enable-background="new"/><path fill="#fff" d="M256.56 16a266.13 266.13 0 0 1-90.744 117.56 266.13 266.13 0 0 1-139 50.16 266 266 0 0 1 1.973 1.809 266.13 266.13 0 0 0 137.03-49.97A266.13 266.13 0 0 0 256.563 18a266.13 266.13 0 0 0 91.395 118.36 266.13 266.13 0 0 0 135.24 49.51 266 266 0 0 1 1.984-1.761 266.13 266.13 0 0 1-137.22-49.748A266.13 266.13 0 0 1 256.567 16zm133.65 360.98a266.1 266.1 0 0 0 7.691 76.898l.47.277a266.1 266.1 0 0 1-8.161-77.176zm-267.5 8.522a266.1 266.1 0 0 1-7.984 67.096l.502-.28a266.1 266.1 0 0 0 7.482-66.816z" enable-background="new" opacity=".2"/><path d="M606.61-165.83a266.13 266.13 0 0 1-142.51 41.767 266.13 266.13 0 0 1-141.93-41.122 266.13 266.13 0 0 1-4.54 147.55 266.13 266.13 0 0 1-82.383 121.65 266.13 266.13 0 0 1 137.6 49.994 266.13 266.13 0 0 1 90.957 117.99 266.13 266.13 0 0 1 90.719-117.38 266.13 266.13 0 0 1 138.24-50.067 266.13 266.13 0 0 1-81.774-120.9 266.13 266.13 0 0 1-4.37-149.47z" enable-background="new" filter="url(#b)" opacity=".2" transform="translate(-208 228)"/><path fill="#e91627" d="M398.61 58.17A266.13 266.13 0 0 1 256.1 99.937a266.13 266.13 0 0 1-141.93-41.122 266.13 266.13 0 0 1-4.54 147.55 266.13 266.13 0 0 1-82.383 121.65 266.13 266.13 0 0 1 137.6 49.994 266.13 266.13 0 0 1 90.957 117.99 266.13 266.13 0 0 1 90.719-117.38 266.13 266.13 0 0 1 138.24-50.067 266.13 266.13 0 0 1-81.774-120.9 266.13 266.13 0 0 1-4.37-149.47z" enable-background="new"/><path fill="#fff" d="M398.61 58.172A266.13 266.13 0 0 1 256.1 99.938a266.13 266.13 0 0 1-141.93-41.121 266 266 0 0 1 .46 2.271 266.13 266.13 0 0 0 141.47 40.85 266.13 266.13 0 0 0 142-41.473 266 266 0 0 1 .517-2.293zm-8.57 71.721a266.1 266.1 0 0 0 12.939 79.752 266.13 266.13 0 0 0 79.826 119.1 266 266 0 0 1 1.949-.191 266.13 266.13 0 0 1-81.775-120.9 266.1 266.1 0 0 1-12.94-77.752zm-267.91 8.068a266.1 266.1 0 0 1-12.502 68.408 266.13 266.13 0 0 1-82.385 121.64 266 266 0 0 1 1.986.239 266.13 266.13 0 0 0 80.398-119.88 266.1 266.1 0 0 0 12.502-70.408z" enable-background="new" opacity=".2"/><path d="M517.09-145.01a202.76 202.76 0 0 1-93.433 63.818 202.76 202.76 0 0 1-112.53 3.62 202.76 202.76 0 0 1 31.451 107.99 202.76 202.76 0 0 1-31.056 107.54 202.76 202.76 0 0 1 111.48 3.83 202.76 202.76 0 0 1 93.689 64.082A202.76 202.76 0 0 1 554.79 99.45a202.76 202.76 0 0 1 88.38-68.826 202.76 202.76 0 0 1-87.721-68.355 202.76 202.76 0 0 1-38.359-107.28z" enable-background="new" filter="url(#c)" opacity=".2" transform="translate(-208 228)"/><path fill="#ff9d93" d="M309.09 78.99a202.76 202.76 0 0 1-93.433 63.818 202.76 202.76 0 0 1-112.53 3.62 202.76 202.76 0 0 1 31.451 107.99 202.76 202.76 0 0 1-31.056 107.54 202.76 202.76 0 0 1 111.48 3.83 202.76 202.76 0 0 1 93.689 64.082 202.76 202.76 0 0 1 38.099-106.42 202.76 202.76 0 0 1 88.38-68.826 202.76 202.76 0 0 1-87.721-68.355A202.76 202.76 0 0 1 309.09 78.99z" enable-background="new"/><path fill="#fff" d="M309.09 78.99a202.76 202.76 0 0 1-93.432 63.818 202.76 202.76 0 0 1-112.53 3.62 203 203 0 0 1 1.293 2.284 202.76 202.76 0 0 0 111.24-3.904 202.76 202.76 0 0 0 93.432-63.818 202.76 202.76 0 0 0 38.359 107.28 202.76 202.76 0 0 0 85.5 67.326 203 203 0 0 1 2.22-.97 202.76 202.76 0 0 1-87.72-68.356 202.76 202.76 0 0 1-38.36-107.28zM134.54 255.2a202.76 202.76 0 0 1-31.016 106.76 203 203 0 0 1 1.328-.262 202.76 202.76 0 0 0 29.73-105.28l-.042-1.213z" enable-background="new" opacity=".2"/></svg>