<svg xmlns="http://www.w3.org/2000/svg" width="512" height="512" enable-background="new" version="1.0"><defs><filter id="c" width="1.052" height="1.044" x="-.026" y="-.022" color-interpolation-filters="sRGB"><feGaussianBlur stdDeviation="4.118"/></filter><filter id="a" width="1.048" height="1.048" x="-.024" y="-.024" color-interpolation-filters="sRGB"><feGaussianBlur stdDeviation="4.48"/></filter><filter id="d" width="1.037" height="1.067" x="-.019" y="-.034" color-interpolation-filters="sRGB"><feGaussianBlur stdDeviation="1.376"/></filter><filter id="h" width="1.145" height="1.102" x="-.072" y="-.051" color-interpolation-filters="sRGB"><feGaussianBlur stdDeviation="3.23"/></filter><filter id="k" width="1.108" height="1.135" x="-.054" y="-.068" color-interpolation-filters="sRGB"><feGaussianBlur stdDeviation="4.865"/></filter><clipPath id="i"><path fill="#f6820c" d="M240-196v380.8c0 37.229 29.971 67.2 67.2 67.2h291.2s48.223-214.09-7.612-295.12c-24.438-35.467-76.86-55.091-119.51-49.116-38.83 5.44-78.334 36.257-92.326 72.885-8.226 21.532-1.47 49.333 11.885 68.119 12 16.88 33.598 30.756 54.3 30.195 16.006-.433 38.017-9.788 40.656-25.58 1.82-10.89-20.774-25.798-20.774-25.798s-13.677-5.996-13.948-21.323c-.36-20.35 30.332-14.602 44.497-9.233 28.795 10.914 60.085 43.59 55.289 74.008-7.134 45.246-66.372 77.276-112.13 79.439-40.795 1.928-85.58-25.835-106.21-61.083-48.057-82.105-2.915-285.39-2.915-285.39z"/></clipPath><clipPath id="b"><path fill="#5c62c4" d="M240-196h380.8s67.2 0 67.2 67.2V252H307.2L240 184.8z"/></clipPath><linearGradient id="j" x1="458.1" x2="458.62" y1="122.28" y2="28.278" gradientUnits="userSpaceOnUse"><stop offset="0"/><stop offset="1" stop-opacity="0"/></linearGradient></defs><path d="M32 34v380.8c0 37.229 29.97 67.199 67.199 67.199h380.8v-380.8C479.999 33.999 412.8 34 412.8 34H121.6z" opacity=".2"/><path d="M240-192v380.8c0 37.229 29.97 67.199 67.199 67.199h380.8v-380.8c0-67.2-67.199-67.199-67.199-67.199H329.6z" filter="url(#a)" opacity=".2" transform="translate(-208 228)"/><path d="M240-192v380.8c0 37.229 29.97 67.199 67.199 67.199h380.8v-380.8c0-67.2-67.199-67.199-67.199-67.199H329.6z" filter="url(#a)" opacity=".1" transform="translate(-208 228)"/><path fill="#5c62c4" d="M32 32h380.8S480 32 480 99.2V480H99.2L32 412.8z"/><path fill="#5c62c4" d="M121.6 32s-45.141 203.28 2.916 285.39c20.631 35.247 65.416 63.011 106.21 61.082 45.754-2.163 104.99-34.192 112.12-79.438 4.796-30.418-26.495-63.096-55.289-74.01-14.165-5.369-44.856-11.115-44.496 9.234.271 15.328 13.947 21.322 13.947 21.322s22.594 14.91 20.773 25.8c-2.64 15.791-24.649 25.146-40.654 25.58-20.703.56-42.301-13.317-54.301-30.196-13.355-18.786-20.11-46.587-11.885-68.119 13.992-36.628 53.496-67.445 92.326-72.885 42.655-5.975 95.076 13.648 119.51 49.115 55.835 81.034 7.613 295.12 7.613 295.12h89.6v-380.8l-67.199-67.199z"/><path fill="#fff" d="M32 32v2h380.8s67.199 0 67.199 67.199v-2C479.999 31.999 412.8 32 412.8 32z" opacity=".2"/><path d="M240-194v378.8c0 37.229 29.971 67.2 67.2 67.2h293.2s45.766-211.37-9.612-291.12c-24.566-35.378-76.86-55.091-119.51-49.116-38.83 5.44-78.334 36.257-92.326 72.885-8.225 21.532-1.47 49.333 11.885 68.119 12 16.88 33.598 30.756 54.3 30.195 16.006-.433 38.017-9.788 40.656-25.58 1.82-10.89-20.774-25.798-20.774-25.798s-19.677-9.996-19.948-25.323c-.36-20.35 40.269-23.702 58.997-15.733 29.629 12.606 53.953 53.117 46.789 84.508-10.191 44.656-66.42 76.415-112.13 79.439-42.923 2.84-92.171-23.14-114.21-60.083-49.254-82.559 3.085-288.39 3.085-288.39z" clip-path="url(#b)" filter="url(#c)" opacity=".2" transform="translate(-208 228)"/><path fill="#f6820c" d="M32 32v380.8c0 37.229 29.971 67.2 67.2 67.2h291.2s48.223-214.09-7.612-295.12c-24.438-35.467-76.86-55.091-119.51-49.116-38.83 5.44-78.334 36.257-92.326 72.885-8.226 21.532-1.47 49.333 11.885 68.119 12 16.88 33.598 30.756 54.3 30.195 16.006-.433 38.017-9.788 40.656-25.58 1.82-10.89-20.774-25.798-20.774-25.798s-13.677-5.996-13.948-21.323c-.36-20.35 30.332-14.602 44.497-9.233 28.795 10.914 60.085 43.59 55.289 74.008-7.134 45.246-66.372 77.276-112.13 79.439-40.795 1.928-85.58-25.835-106.21-61.083-48.057-82.105-2.915-285.39-2.915-285.39z"/><path fill="#fff" d="M32 32v2h89.17c.244-1.146.43-2 .43-2zm247.65 102.7c-5.563-.034-11.047.314-16.379 1.06-38.83 5.44-78.334 36.258-92.326 72.886-2.589 6.777-3.692 14.176-3.574 21.719.092-6.849 1.214-13.542 3.574-19.72 13.992-36.627 53.496-67.444 92.326-72.884 42.655-5.975 95.076 13.648 119.51 49.115 20.058 29.11 26.689 75.393 26.949 122.75-.084-48.053-6.609-95.232-26.949-124.75-21.383-31.034-64.191-49.938-103.13-50.176z" opacity=".2"/><path d="M490.01-11.457c-18.064-.233-37.189 5.724-36.941 19.715.004.238.026.47.04.705 1.355-19.19 36.633-22.235 54.956-14.439 25.721 10.944 43.432 36.916 44.027 65.697.406-29.285-17.708-56.499-44.027-67.697-5.853-2.49-9.843-3.98-18.055-3.98zM375.38 2.363c-.228 17.023 5.935 35.004 15.459 48.4 12 16.88 33.598 30.756 54.301 30.195 16.005-.433 38.015-9.788 40.654-25.58a8.2 8.2 0 0 0 .031-2.326c-.013.108-.013.218-.031.326-2.64 15.792-24.649 25.147-40.654 25.58-20.703.56-42.301-13.316-54.301-30.195-9.152-12.873-15.202-29.979-15.459-46.4" filter="url(#d)" opacity=".2" transform="translate(-208 228)"/><path d="M484.01-15.457c-18.063-.233-37.189 5.724-36.941 19.715.271 15.328 19.947 25.322 19.947 25.322s42.594 14.909 40.773 25.799c-1.952 11.68.932 36.088-11.946 39.72l-1.623 40.756c28.266-14.039 52.308-35.108 58.633-62.822 7.165-31.392-17.16-71.904-46.789-84.51-5.852-2.49-13.844-3.875-22.055-3.98z" filter="url(#h)" opacity=".2" transform="translate(-208 228)"/><path fill="url(#j)" d="M316.38-20c.2 43.31-3.829 80.822 17.545 111.97 22.819 33.259 64.001 62.425 104.8 60.496 45.754-2.163 97.339-35.2 104.93-78.145 5.088-28.778-19.302-62.389-48.097-73.303-14.165-5.369-28.592-17.479-28.233 2.87.271 15.328 22.433 15.201 22.433 15.201s16.23 46.708 14.409 57.598c-2.64 15.792-43.034 13.833-59.039 14.266-20.703.56-59.271-1.516-71.271-18.396-13.355-18.786-23.14-66.386-14.914-87.918a92 92 0 0 1 1.941-4.644z" clip-path="url(#i)" filter="url(#k)" opacity=".5" transform="translate(-208 228)"/><path fill="#5c62c4" d="M274.01 210.54c-18.063-.233-37.189 5.724-36.941 19.715.271 15.328 19.947 25.322 19.947 25.322s13.081 9.538 18.5 16.552c0 0 5.112 2.163 6.774 4.247 4.624 5.8 7.874 17.038 7.324 21.013-1.59 11.486-18.853 18.359-30.77 18.707l25.377 47.756c28.266-14.04 52.308-37.108 58.633-64.822 7.164-31.392-17.16-71.904-46.789-84.51-5.853-2.49-13.844-3.875-22.055-3.981z"/><path fill="#fff" d="M274.01 210.54c-18.063-.233-37.189 5.724-36.941 19.715.004.224.027.444.04.666.953-13.036 19.423-18.606 36.901-18.381 8.21.106 16.202 1.49 22.055 3.98 25.726 10.947 47.44 42.929 48.027 71.714.414-29.29-21.704-62.513-48.027-73.713-5.853-2.49-13.844-3.875-22.055-3.981" opacity=".3"/></svg>