<svg width="512" height="512" enable-background="new" version="1.0" xmlns="http://www.w3.org/2000/svg" xmlns:osb="http://www.openswatchbook.org/uri/2009/osb" xmlns:xlink="http://www.w3.org/1999/xlink">
 <title>Paper Icon Theme</title>
 <defs>
  <filter id="f" x="-.026174" y="-.022159" width="1.0523" height="1.0443" color-interpolation-filters="sRGB">
   <feGaussianBlur stdDeviation="4.1178987"/>
  </filter>
  <filter id="a" x="-.024" y="-.024" width="1.048" height="1.048" color-interpolation-filters="sRGB">
   <feGaussianBlur stdDeviation="4.48"/>
  </filter>
  <filter id="e" x="-.018684" y="-.033544" width="1.0374" height="1.0671" color-interpolation-filters="sRGB">
   <feGaussianBlur stdDeviation="1.375837"/>
  </filter>
  <filter id="d" x="-.072405" y="-.051224" width="1.1448" height="1.1024" color-interpolation-filters="sRGB">
   <feGaussianBlur stdDeviation="3.2296326"/>
  </filter>
  <clipPath id="h">
   <path d="m240-196v380.8c0 37.229 29.971 67.2 67.2 67.2h291.2s48.223-214.09-7.6121-295.12c-24.438-35.467-76.86-55.091-119.51-49.116-38.83 5.4393-78.334 36.257-92.326 72.885-8.2254 21.532-1.4704 49.333 11.885 68.119 12 16.88 33.598 30.756 54.301 30.195 16.005-0.43344 38.016-9.7885 40.655-25.58 1.8201-10.89-20.774-25.798-20.774-25.798s-13.677-5.9956-13.948-21.323c-0.35952-20.35 30.332-14.602 44.497-9.2333 28.795 10.914 60.085 43.591 55.289 74.008-7.1343 45.246-66.372 77.276-112.13 79.439-40.795 1.9286-85.58-25.835-106.21-61.083-48.057-82.105-2.9152-285.39-2.9152-285.39z" fill="#f6820c"/>
  </clipPath>
  <filter id="c" x="-.053895" y="-.067666" width="1.1078" height="1.1353" color-interpolation-filters="sRGB">
   <feGaussianBlur stdDeviation="4.8653598"/>
  </filter>
  <linearGradient id="b" x1="458.1" x2="458.62" y1="122.28" y2="28.278" gradientUnits="userSpaceOnUse">
   <stop offset="0"/>
   <stop stop-opacity="0" offset="1"/>
  </linearGradient>
  <clipPath id="g">
   <path d="m240-196h380.8s67.2 0 67.2 67.2v380.8h-380.8l-67.2-67.2z" fill="#5c62c4"/>
  </clipPath>
 </defs>
 <g transform="translate(0,212)">
  <g>
   <g transform="translate(-208,16)">
    <g>
     <path d="m240-194v380.8c0 37.229 29.97 67.199 67.199 67.199h380.8v-380.8c0-67.2-67.199-67.199-67.199-67.199h-291.2z" opacity=".2"/>
     <path d="m240-192v380.8c0 37.229 29.97 67.199 67.199 67.199h380.8v-380.8c0-67.2-67.199-67.199-67.199-67.199h-291.2z" filter="url(#a)" opacity=".2"/>
     <path d="m240-192v380.8c0 37.229 29.97 67.199 67.199 67.199h380.8v-380.8c0-67.2-67.199-67.199-67.199-67.199h-291.2z" filter="url(#a)" opacity=".1"/>
    </g>
    <path d="m240-196h380.8s67.2 0 67.2 67.2v380.8h-380.8l-67.2-67.2z" fill="#5c62c4"/>
    <path transform="translate(0,-244)" d="m329.6 48s-45.141 203.28 2.916 285.39c20.631 35.247 65.416 63.011 106.21 61.082 45.754-2.163 104.99-34.192 112.12-79.438 4.7962-30.418-26.495-63.096-55.289-74.01-14.165-5.3688-44.856-11.115-44.496 9.2344 0.27104 15.328 13.947 21.322 13.947 21.322s22.594 14.909 20.773 25.799c-2.6396 15.792-24.649 25.147-40.654 25.58-20.703 0.56034-42.301-13.316-54.301-30.195-13.355-18.786-20.11-46.587-11.885-68.119 13.992-36.628 53.496-67.445 92.326-72.885 42.655-5.975 95.076 13.648 119.51 49.115 55.835 81.034 7.6133 295.12 7.6133 295.12h89.6v-380.8l-67.199-67.199z" fill="#5c62c4"/>
    <path transform="translate(0,-244)" d="m240 48v2h380.8s67.199-7.81e-4 67.199 67.199v-2c0-67.2-67.199-67.199-67.199-67.199z" fill="#fff" opacity=".2"/>
    <path d="m240-194v378.8c0 37.229 29.971 67.2 67.2 67.2h293.2s45.766-211.37-9.6121-291.12c-24.566-35.378-76.86-55.091-119.51-49.116-38.83 5.4392-78.334 36.257-92.326 72.885-8.2253 21.532-1.4704 49.333 11.885 68.119 12 16.88 33.598 30.756 54.301 30.195 16.005-0.43321 38.016-9.7884 40.655-25.58 1.8202-10.89-20.774-25.798-20.774-25.798s-19.677-9.9956-19.948-25.323c-0.35952-20.35 40.269-23.702 58.997-15.733 29.629 12.606 53.953 53.117 46.789 84.508-10.191 44.656-66.42 76.415-112.13 79.439-42.923 2.8395-92.171-23.14-114.21-60.083-49.254-82.559 3.0848-288.39 3.0848-288.39z" clip-path="url(#g)" filter="url(#f)" opacity=".2"/>
    <path d="m240-196v380.8c0 37.229 29.971 67.2 67.2 67.2h291.2s48.223-214.09-7.6121-295.12c-24.438-35.467-76.86-55.091-119.51-49.116-38.83 5.4393-78.334 36.257-92.326 72.885-8.2254 21.532-1.4704 49.333 11.885 68.119 12 16.88 33.598 30.756 54.301 30.195 16.005-0.43344 38.016-9.7885 40.655-25.58 1.8201-10.89-20.774-25.798-20.774-25.798s-13.677-5.9956-13.948-21.323c-0.35952-20.35 30.332-14.602 44.497-9.2333 28.795 10.914 60.085 43.591 55.289 74.008-7.1343 45.246-66.372 77.276-112.13 79.439-40.795 1.9286-85.58-25.835-106.21-61.083-48.057-82.105-2.9152-285.39-2.9152-285.39z" fill="#f6820c"/>
    <path transform="translate(0,-244)" d="m240 48v2h89.17c0.24393-1.1462 0.42969-2 0.42969-2zm247.65 102.7c-5.5633-0.034-11.047 0.31367-16.379 1.0606-38.83 5.4393-78.334 36.257-92.326 72.885-2.589 6.7772-3.6921 14.176-3.5742 21.719 0.0918-6.8483 1.2145-13.542 3.5742-19.719 13.992-36.628 53.496-67.445 92.326-72.885 42.655-5.975 95.076 13.648 119.51 49.115 20.058 29.11 26.689 75.393 26.949 122.75-0.0835-48.053-6.6089-95.232-26.949-124.75-21.383-31.034-64.191-49.938-103.13-50.176z" fill="#fff" opacity=".2"/>
    <path d="m490.01-11.457c-18.064-0.23287-37.189 5.7244-36.941 19.715 4e-3 0.23751 0.0257 0.47015 0.0391 0.70508 1.3561-19.191 36.634-22.235 54.957-14.439 25.721 10.944 43.432 36.916 44.027 65.697 0.40552-29.285-17.708-56.499-44.027-67.697-5.8526-2.4901-9.8433-3.9805-18.055-3.9805zm-114.63 13.82c-0.22807 17.023 5.9351 35.004 15.459 48.4 12 16.88 33.598 30.756 54.301 30.195 16.005-0.43344 38.015-9.7881 40.654-25.58 0.12666-0.7578 0.1252-1.5358 0.0312-2.3262-0.0133 0.10838-0.0133 0.21857-0.0312 0.32618-2.6396 15.792-24.649 25.147-40.654 25.58-20.703 0.56034-42.301-13.316-54.301-30.195-9.1517-12.873-15.202-29.979-15.459-46.4z" filter="url(#e)" opacity=".2"/>
    <path d="m484.01-15.457c-18.063-0.23256-37.189 5.7244-36.941 19.715 0.27104 15.328 19.947 25.322 19.947 25.322s42.594 14.909 40.773 25.799c-1.9523 11.68 0.93216 36.088-11.946 39.72l-1.6225 40.756c28.266-14.039 52.308-35.108 58.633-62.822 7.1642-31.392-17.16-71.904-46.789-84.51-5.8526-2.4901-13.844-3.8748-22.055-3.9805z" filter="url(#d)" opacity=".2"/>
    <path d="m316.38-20c0.19948 43.31-3.829 80.822 17.545 111.97 22.819 33.259 64.001 62.425 104.8 60.496 45.754-2.163 97.339-35.2 104.93-78.145 5.0883-28.778-19.302-62.389-48.097-73.303-14.165-5.3688-28.592-17.479-28.233 2.8704 0.27104 15.328 22.433 15.201 22.433 15.201s16.23 46.708 14.409 57.598c-2.6396 15.792-43.034 13.833-59.039 14.266-20.703 0.56034-59.271-1.5167-71.271-18.396-13.355-18.786-23.14-66.386-14.914-87.918 0.59622-1.5608 1.2546-3.1064 1.9414-4.6445z" clip-path="url(#h)" fill="url(#b)" filter="url(#c)" opacity=".5"/>
    <path transform="translate(0,-244)" d="m482.01 226.54c-18.063-0.23256-37.189 5.7244-36.941 19.715 0.27104 15.328 19.947 25.322 19.947 25.322s13.081 9.5376 18.5 16.552c0 0 5.1125 2.1628 6.7739 4.2465 4.6243 5.7998 7.8744 17.038 7.3241 21.013-1.5901 11.486-18.853 18.359-30.77 18.707l25.377 47.756c28.266-14.039 52.308-37.108 58.633-64.822 7.1642-31.392-17.16-71.904-46.789-84.51-5.8526-2.4901-13.844-3.8748-22.055-3.9805z" fill="#5c62c4"/>
    <path transform="translate(0,-244)" d="m482.01 226.54c-18.063-0.23256-37.189 5.7244-36.941 19.715 4e-3 0.22438 0.0269 0.44394 0.0391 0.66602 0.95417-13.036 19.424-18.606 36.902-18.381 8.2106 0.10571 16.202 1.4904 22.055 3.9805 25.726 10.946 47.44 42.928 48.027 71.713 0.41355-29.289-21.704-62.513-48.027-73.713-5.8526-2.4901-13.844-3.8748-22.055-3.9805z" fill="#fff" opacity=".3"/>
   </g>
  </g>
 </g>
</svg>
