<svg width="512" height="512" enable-background="new" version="1.0" xmlns="http://www.w3.org/2000/svg" xmlns:osb="http://www.openswatchbook.org/uri/2009/osb" xmlns:xlink="http://www.w3.org/1999/xlink">
 <defs>
  <filter id="a" x="-.024" y="-.024" width="1.048" height="1.048" color-interpolation-filters="sRGB">
   <feGaussianBlur stdDeviation="4.48"/>
  </filter>
 </defs>
 <g transform="translate(0,212)">
  <g></g>
  <g transform="translate(-208,16)">
   <g>
    <rect transform="matrix(0,-1,-1,0,0,0)" x="-254" y="-688" width="448" height="448" rx="36" ry="36" enable-background="new" opacity=".2"/>
    <rect transform="matrix(0,-1,-1,0,0,0)" x="-256" y="-688" width="448" height="448" rx="36" ry="36" enable-background="new" filter="url(#a)" opacity=".1"/>
    <rect transform="matrix(0,-1,-1,0,0,0)" x="-256" y="-688" width="448" height="448" rx="36" ry="36" enable-background="new" filter="url(#a)" opacity=".2"/>
   </g>
   <rect transform="matrix(0,-1,-1,0,0,0)" x="-252" y="-688" width="448" height="448" rx="36" ry="36" enable-background="new" fill="#c62828"/>
   <path transform="translate(0,-244)" d="m276 48c-19.944 0-36 16.056-36 36v2c0-19.944 16.056-36 36-36h376c19.944 0 36 16.056 36 36v-2c0-19.944-16.056-36-36-36z" enable-background="new" fill="#fff" opacity=".2"/>
   <path d="m398.08-56.756c-7.007 0.10934-14.154 1.8809-21.096 5.3122-20.698 10.23-29.187 32.223-22.766 58.432 3.0695 12.53 4.1311 29.462 2.2765 36.274-2.6285 9.6538-10.693 14.709-23.677 14.722-12.826 0.0162-25.437 9.8621-27.926 21.855-2.5469 12.269 0.3655 23.385 8.3476 31.417 9.3865 9.4447 22.41 12.107 33.694 6.8298 16.336-7.641 21.689-23.605 14.722-43.559-3.3584-9.6189-3.5119-10.91-1.8212-16.999 7.1566-25.773 65.947-27.659 75.583-2.4283 2.2779 5.9643 1.9019 10.045-2.2765 20.489-2.5579 6.3933-2.8688 8.6203-2.4285 15.481 0.80374 12.532 6.8112 21.314 18.668 26.712 7.215 3.2852 22.214 3.2706 29.292 0 17.396-8.0384 23.926-25.469 16.24-43.103-6.6023-15.147-3.2659-25.211 10.624-32.176 17.472-8.7618 42.714-6.7625 55.397 4.4014 9.0746 7.9879 10.431 14.903 5.6157 28.685-6.3913 18.293-1.2702 34.116 13.508 42.041 6.3798 3.4213 20.49 3.4228 26.864 0 5.7724-3.0997 12.289-9.9142 14.418-15.026 6.2105-14.909 1.1323-33.671-11.079-40.827-4.2181-2.472-7.4016-3.2261-15.936-3.9462-6.94-0.58583-11.797-1.6819-14.115-3.0354-4.6326-2.7057-8.3287-9.4081-9.2581-16.847-0.84626-6.771 1.0409-23.651 3.6424-32.631 2.6894-9.2836 1.6154-26.695-2.1247-34.908-11.46-25.164-43.833-35.017-66.78-20.186-3.5993 2.3263-8.216 6.4579-10.321 9.1065-7.3782 9.2851-19.262 21.183-22.918 22.918-9.1999 4.3656-18.644 0.78844-28.989-10.928-15.638-17.71-17.927-19.945-24.891-23.373-6.5427-3.2212-13.482-4.8144-20.489-4.7051zm66.173 51.603c21.182-0.02764 35.581 19.33 29.596 39.916-2.6099 8.978-11.173 17.674-19.731 20.186-7.3216 2.1489-13.362 2.2552-20.186 0.1525-11.863-3.657-20.723-16.298-20.641-29.596 0.0594-8.9004 2.0441-13.967 8.1958-20.641 6.4244-6.9696 13.378-10.002 22.766-10.017z" color="#000000" enable-background="accumulate" fill="#fff"/>
  </g>
 </g>
</svg>
