<svg xmlns="http://www.w3.org/2000/svg" width="512" height="512" enable-background="new" version="1.0"><defs><filter id="a" width="1.048" height="1.048" x="-.024" y="-.024" color-interpolation-filters="sRGB"><feGaussianBlur stdDeviation="4.48"/></filter></defs><g transform="translate(-208 228)"><g transform="scale(1 -1)rotate(90)"><rect width="448" height="448" x="-254" y="-688" enable-background="new" opacity=".2" rx="36" ry="36"/><rect width="448" height="448" x="-256" y="-688" enable-background="new" filter="url(#a)" opacity=".1" rx="36" ry="36"/><rect width="448" height="448" x="-256" y="-688" enable-background="new" filter="url(#a)" opacity=".2" rx="36" ry="36"/></g><rect width="448" height="448" x="-252" y="-688" fill="#c62828" enable-background="new" rx="36" ry="36" transform="scale(1 -1)rotate(90)"/><path fill="#fff" d="M276-196c-19.944 0-36 16.056-36 36v2c0-19.944 16.056-36 36-36h376c19.944 0 36 16.056 36 36v-2c0-19.944-16.056-36-36-36z" enable-background="new" opacity=".2"/><path fill="#fff" d="M398.08-56.756c-7.007.11-14.154 1.88-21.096 5.312-20.698 10.23-29.187 32.223-22.766 58.432 3.07 12.53 4.131 29.462 2.276 36.274-2.628 9.654-10.693 14.71-23.677 14.722-12.826.016-25.437 9.862-27.926 21.855-2.546 12.27.366 23.385 8.348 31.417 9.387 9.445 22.41 12.107 33.694 6.83 16.336-7.641 21.69-23.605 14.722-43.559-3.358-9.619-3.512-10.91-1.821-16.999 7.156-25.773 65.947-27.659 75.583-2.428 2.278 5.964 1.902 10.045-2.277 20.489-2.558 6.393-2.868 8.62-2.428 15.48.804 12.533 6.811 21.315 18.668 26.713 7.215 3.285 22.214 3.27 29.292 0 17.396-8.039 23.926-25.47 16.24-43.103-6.602-15.147-3.266-25.211 10.624-32.176 17.472-8.762 42.714-6.763 55.397 4.401 9.075 7.988 10.43 14.903 5.616 28.685-6.392 18.293-1.27 34.116 13.508 42.041 6.38 3.421 20.49 3.423 26.864 0 5.772-3.1 12.289-9.914 14.418-15.026 6.21-14.909 1.132-33.67-11.08-40.827-4.217-2.472-7.401-3.226-15.935-3.946-6.94-.586-11.797-1.682-14.115-3.035-4.633-2.706-8.33-9.409-9.258-16.847-.847-6.771 1.04-23.651 3.642-32.631 2.69-9.284 1.615-26.695-2.125-34.908-11.46-25.164-43.833-35.017-66.78-20.186-3.6 2.326-8.216 6.457-10.32 9.106-7.379 9.285-19.263 21.183-22.919 22.918-9.2 4.366-18.644.788-28.989-10.928-15.638-17.71-17.927-19.945-24.89-23.373-6.543-3.221-13.483-4.814-20.49-4.705zm66.173 51.603c21.182-.028 35.581 19.33 29.596 39.916-2.61 8.978-11.173 17.674-19.731 20.186-7.322 2.149-13.362 2.255-20.186.153-11.863-3.657-20.723-16.298-20.641-29.596.06-8.9 2.044-13.967 8.196-20.641 6.424-6.97 13.378-10.002 22.766-10.017z" color="#000" enable-background="accumulate"/></g></svg>