<svg xmlns="http://www.w3.org/2000/svg" width="512" height="512" enable-background="new" version="1.0"><defs><filter id="a" width="1.054" height="1.043" x="-.027" y="-.021" color-interpolation-filters="sRGB"><feGaussianBlur stdDeviation="4"/></filter><filter id="b" width="1.12" height="1.12" x="-.06" y="-.06" color-interpolation-filters="sRGB"><feGaussianBlur stdDeviation="6"/></filter></defs><path d="M432 456.8v-400c0-13.296-10.704-24-24-24H104c-13.296 0-24 10.704-24 24v400c0 13.296 10.704 24 24 24h304c13.296 0 24-10.704 24-24" opacity=".2"/><path stroke="#000" stroke-width="8" d="M432 458.8v-400c0-13.296-10.704-24-24-24H104c-13.296 0-24 10.704-24 24v400c0 13.296 10.704 24 24 24h304c13.296 0 24-10.704 24-24z" filter="url(#a)" opacity=".1"/><path d="M432 458.8v-400c0-13.296-10.704-24-24-24H104c-13.296 0-24 10.704-24 24v400c0 13.296 10.704 24 24 24h304c13.296 0 24-10.704 24-24" filter="url(#a)" opacity=".2"/><path fill="#ebebeb" d="M432 454.8v-400c0-13.296-10.704-24-24-24H104c-13.296 0-24 10.704-24 24v400c0 13.296 10.704 24 24 24h304c13.296 0 24-10.704 24-24"/><path fill="#fff" d="M104 30.8c-13.296 0-24 10.704-24 24v2c0-13.296 10.704-24 24-24h304c13.296 0 24 10.704 24 24v-2c0-13.296-10.704-24-24-24z" opacity=".1"/><rect width="352" height="4" x="80" y="115.3" opacity=".1" ry=".455" style="paint-order:normal"/><rect width="352" height="4" x="80" y="183.9" opacity=".1" ry=".455" style="paint-order:normal"/><rect width="352" height="4" x="80" y="252.5" opacity=".1" ry=".455" style="paint-order:normal"/><rect width="352" height="4" x="80" y="321.1" opacity=".1" ry=".455" style="paint-order:normal"/><rect width="352" height="4" x="80" y="389.7" opacity=".1" ry=".455" style="paint-order:normal"/><circle cx="376" cy="378.8" r="120" filter="url(#b)" opacity=".5"/><circle cx="376" cy="374.8" r="120" fill="#ff7f2a"/><path fill="#fff" d="M320 402.29v28.51h28.51l64.007-64.007-28.51-28.51zm117.74-60.626c3.016-3.015 3.016-7.767 0-10.783l-17.819-17.819c-3.016-3.016-7.767-3.016-10.783 0l-14.895 14.986 28.51 28.51z"/><circle cx="126" cy="83" r="16" opacity=".2" style="paint-order:normal"/><circle cx="126" cy="151.6" r="16" opacity=".2" style="paint-order:normal"/><circle cx="126" cy="220.2" r="16" opacity=".2" style="paint-order:normal"/><circle cx="126" cy="288.8" r="16" opacity=".2" style="paint-order:normal"/><circle cx="126" cy="357.4" r="16" opacity=".2" style="paint-order:normal"/><circle cx="126" cy="426" r="16" opacity=".2" style="paint-order:normal"/></svg>