<svg width="512" height="512" enable-background="new" version="1.0" xmlns="http://www.w3.org/2000/svg" xmlns:osb="http://www.openswatchbook.org/uri/2009/osb" xmlns:xlink="http://www.w3.org/1999/xlink">
 <title>Paper Icon Theme</title>
 <defs>
  <filter id="b" x="-.024" y="-.024" width="1.048" height="1.048" color-interpolation-filters="sRGB">
   <feGaussianBlur stdDeviation="4.8"/>
  </filter>
  <filter id="a" x="-.024" y="-.024" width="1.048" height="1.048" color-interpolation-filters="sRGB">
   <feGaussianBlur stdDeviation="4.8"/>
  </filter>
  <filter id="d" x="-.06" y="-.06" width="1.12" height="1.12" color-interpolation-filters="sRGB">
   <feGaussianBlur stdDeviation="3.6"/>
  </filter>
  <filter id="c" x="-.06" y="-.06" width="1.12" height="1.12" color-interpolation-filters="sRGB">
   <feGaussianBlur stdDeviation="3.6"/>
  </filter>
 </defs>
 <g transform="translate(0,212)">
  <g>
   <g transform="translate(-208,16)">
    <g>
     <circle cx="464" cy="32" r="240" filter="url(#b)" opacity=".2"/>
     <circle cx="464" cy="30" r="240" opacity=".2"/>
     <circle cx="464" cy="32" r="240" filter="url(#a)" opacity=".1" stroke="#000" stroke-width="8"/>
    </g>
    <circle cx="464" cy="28" r="240" fill="#673ab7"/>
    <circle cx="376" cy="74.001" r="72" enable-background="new" filter="url(#c)" opacity=".2"/>
    <circle cx="376" cy="68.001" r="72" enable-background="new" fill="#e6e6e6"/>
    <path transform="translate(0,-244)" d="m 464,32 a 240,240 0 0 0 -240,240 240,240 0 0 0 0.041,1.17188 A 240,240 0 0 1 464,34 240,240 0 0 1 703.95898,272.82812 240,240 0 0 0 704,272 240,240 0 0 0 464,32 Z" fill="#fff" opacity=".2"/>
    <circle cx="552" cy="-5.9999" r="72" enable-background="new" filter="url(#d)" opacity=".2"/>
    <circle cx="552" cy="-12" r="72" enable-background="new" fill="#e6e6e6"/>
   </g>
  </g>
 </g>
</svg>
