<svg xmlns="http://www.w3.org/2000/svg" width="512" height="512" enable-background="new" version="1.0"><defs><filter id="a" width="1.048" height="1.048" x="-.024" y="-.024" color-interpolation-filters="sRGB"><feGaussianBlur stdDeviation="4.8"/></filter><filter id="c" width="1.048" height="1.048" x="-.024" y="-.024" color-interpolation-filters="sRGB"><feGaussianBlur stdDeviation="4.8"/></filter><filter id="e" width="1.12" height="1.12" x="-.06" y="-.06" color-interpolation-filters="sRGB"><feGaussianBlur stdDeviation="3.6"/></filter><filter id="d" width="1.12" height="1.12" x="-.06" y="-.06" color-interpolation-filters="sRGB"><feGaussianBlur stdDeviation="3.6"/></filter></defs><g transform="translate(-208 228)"><circle cx="464" cy="32" r="240" filter="url(#a)" opacity=".2"/><circle cx="464" cy="30" r="240" opacity=".2"/><circle cx="464" cy="32" r="240" stroke="#000" stroke-width="8" filter="url(#c)" opacity=".1"/><circle cx="464" cy="28" r="240" fill="#673ab7"/><circle cx="376" cy="74.001" r="72" enable-background="new" filter="url(#d)" opacity=".2"/><circle cx="376" cy="68.001" r="72" fill="#e6e6e6" enable-background="new"/><path fill="#fff" d="M464-212A240 240 0 0 0 224 28l.041 1.172A240 240 0 0 1 464-210 240 240 0 0 1 703.959 28.828L704 28a240 240 0 0 0-240-240" opacity=".2"/><circle cx="552" cy="-6" r="72" enable-background="new" filter="url(#e)" opacity=".2"/><circle cx="552" cy="-12" r="72" fill="#e6e6e6" enable-background="new"/></g></svg>