<svg xmlns="http://www.w3.org/2000/svg" width="64" height="64"><defs><filter id="a" width="1.096" height="1.096" x="-.048" y="-.048" color-interpolation-filters="sRGB"><feGaussianBlur stdDeviation="1.16"/></filter></defs><path d="M31.998 4C16.14 3.998 3.223 16.733 3 32.586a13 13 0 0 1 .162-1.84 13.4 13.4 0 0 0-.139 1.875 29.5 29.5 0 0 0 2.743 12.684c6.243 13.318 21.472 19.854 35.428 15.201-.46.145-.934.264-1.414.37-.194.042-.386.085-.582.12.192-.04.397-.077.582-.12.509-.121.983-.25 1.388-.378l.295-.1a29.07 29.07 0 0 0 15.088-11.96c.503-.793-.384-1.732-1.205-1.278-2.78 2.734-7.089 3.384-10.52 3.4-10.72 0-20.059-8.242-20.059-17.704a7.13 7.13 0 0 1 3.723-6.186c.707-.333 1.915-.935 3.521-.906a7.33 7.33 0 0 1 5.82 2.945 7.2 7.2 0 0 1 1.274 2.807c.058 1.773-.45 3.427-1.594 4.92h-.002c-.183.238-.748.565-.748 1.281 0 .591.386 1.16 1.07 1.639 3.258 2.265 9.399 1.967 9.415 1.967a13.5 13.5 0 0 0 6.859-1.893c4.26-2.487 6.882-5.76 6.893-10.693.058-5.076-1.812-8.452-2.569-9.947C53.63 9.4 43.265 4 31.997 4z" class="cls-5" filter="url(#a)" opacity=".25"/><path fill="#0b5ead" d="M55.35 46.162c-2.78 2.734-7.09 3.383-10.522 3.4-10.72 0-20.06-8.243-20.06-17.706a7.13 7.13 0 0 1 3.723-6.186c-9.697.408-12.19 10.51-12.19 16.43 0 16.736 15.428 18.433 18.75 18.433 1.792 0 4.495-.52 6.117-1.033l.297-.1a29.07 29.07 0 0 0 15.088-11.96c.503-.794-.384-1.734-1.205-1.278z" class="cls-1"/><path d="M26.084 58.688c-2.021-1.254-3.539-3.203-4.919-5.14-6.696-9.172-2.862-21.859 7.327-26.876.707-.333 1.914-.936 3.52-.906a7.33 7.33 0 0 1 5.82 2.945 7.22 7.22 0 0 1 1.442 4.227c0-.048 5.541-18.032-18.126-18.032-9.946 0-18.125 9.437-18.125 17.717-.04 4.38 1.132 8.407 2.977 12.379C12.243 58.32 28.28 63.35 42.235 58.697c-4.778 1.506-11.653 2.35-15.9-.306z" class="cls-3" opacity=".15"/><path fill="#008ef5" d="M26.084 57.687a17.9 17.9 0 0 1-5.152-4.834c-6.696-9.173-2.629-22.165 7.56-27.183.707-.333 1.914-.935 3.52-.906a7.33 7.33 0 0 1 5.82 2.945 7.22 7.22 0 0 1 1.442 4.227c0-.048 5.541-18.032-18.126-18.032-9.946 0-18.125 9.437-18.125 17.717-.04 4.38.898 8.714 2.744 12.685 6.243 13.32 21.472 19.855 35.428 15.202-4.778 1.506-10.847.844-15.094-1.812z" class="cls-3"/><path d="M37.51 36.438c-.183.238-.747.566-.747 1.282 0 .591.385 1.16 1.07 1.638 3.258 2.265 9.4 1.966 9.415 1.966a13.5 13.5 0 0 0 6.858-1.891c4.26-2.488 6.884-5.763 6.894-10.696.06-5.076-1.812-8.451-2.569-9.946C53.631 9.4 43.268 4 32 4 16.142 4 3.224 16.735 3 32.59c.109-8.278 8.337-15.957 18.126-15.957.793 0 5.315.077 9.515 2.28 3.702 1.944 5.641 5.286 6.99 7.612 1.959 3.697 2.043 7.092-.119 9.914z" class="cls-5" opacity=".15"/><path fill="#5ae2b5" d="M37.51 35.437c-.183.238-.747.566-.747 1.282 0 .591.385 1.16 1.07 1.638 3.258 2.265 9.4 1.966 9.415 1.966a13.5 13.5 0 0 0 6.858-1.892c4.26-2.487 6.884-5.762 6.894-10.695.06-5.076-1.812-8.451-2.569-9.946C53.631 8.4 43.268 3 32 3 16.142 3 3.224 15.734 3 31.587c.109-8.277 8.337-15.956 18.126-15.956.793 0 5.315.077 9.515 2.28 3.702 1.944 5.641 5.286 6.99 7.612 1.959 3.697 2.043 7.092-.119 9.914z" class="cls-5"/></svg>