<svg width="64" height="64" version="1.1" xmlns="http://www.w3.org/2000/svg">
 <defs>
  <filter id="filter868" x="-.048" y="-.048" width="1.096" height="1.096" color-interpolation-filters="sRGB">
   <feGaussianBlur stdDeviation="1.1599869"/>
  </filter>
 </defs>
 <path class="cls-5" d="m31.998 4c-15.858-0.0015252-28.775 12.733-28.998 28.586 0.00812-0.61784 0.066238-1.2316 0.16211-1.8398-0.088904 0.62807-0.13867 1.2554-0.13867 1.875-0.039222 4.3796 0.89656 8.7119 2.7422 12.684 6.2431 13.318 21.472 19.854 35.428 15.201-0.45943 0.14484-0.93353 0.26425-1.4141 0.36914-0.19323 0.04218-0.38601 0.08534-0.58203 0.12109 0.19261-0.04135 0.3975-0.07733 0.58203-0.12109 0.50947-0.12083 0.98318-0.24897 1.3887-0.37695l0.29492-0.09961c6.2421-2.1576 11.564-6.376 15.088-11.961 0.5031-0.79254-0.38437-1.7314-1.2051-1.2773-2.7792 2.7334-7.089 3.3835-10.52 3.4004-10.72 0-20.059-8.2433-20.059-17.705 0.02796-2.5841 1.4525-4.9503 3.7227-6.1855 0.70684-0.33298 1.9151-0.9357 3.5215-0.90625 2.294 0.01678 4.4481 1.1072 5.8203 2.9453 0.62676 0.83671 1.0552 1.7957 1.2734 2.8066 0.05842 1.773-0.45058 3.4274-1.5938 4.9199h-2e-3c-0.1835 0.23784-0.74805 0.56544-0.74805 1.2812 0 0.59121 0.38613 1.1607 1.0703 1.6387 3.2578 2.2652 9.3982 1.9668 9.4141 1.9668 2.414-0.0058 4.7837-0.66012 6.8594-1.8926 4.2604-2.4873 6.8825-5.7605 6.8926-10.693 0.0589-5.0764-1.8117-8.4522-2.5684-9.9473-4.8005-9.3892-15.164-14.789-26.432-14.789z" fill="#000000" filter="url(#filter868)" opacity=".25" stroke-width="1.0741"/>
 <g transform="matrix(1.0741 0 0 1.0741 -2.3704 -2.3705)">
  <path class="cls-1" d="m53.738 45.184c-2.5875 2.5457-6.6011 3.15-9.7955 3.1657-9.9811 0-18.676-7.6747-18.676-16.484 0.02603-2.4059 1.3519-4.6095 3.4655-5.7596-9.0277 0.37962-11.348 9.7857-11.348 15.297 0 15.581 14.363 17.161 17.456 17.161 1.6685 0 4.1849-0.48507 5.695-0.96169l0.27632-0.09279c5.8116-2.0088 10.766-5.9362 14.047-11.136 0.46871-0.73837-0.35757-1.6142-1.1221-1.1895z" fill="#0b5ead"/>
  <path class="cls-3" d="m26.491 56.846c-1.8813-1.1675-3.2943-2.982-4.579-4.7851-6.2339-8.5396-2.6644-20.351 6.821-25.022 0.6581-0.31002 1.7823-0.87101 3.2779-0.84359 2.1358 0.01562 4.1412 1.0302 5.4188 2.7416 0.85178 1.1371 1.3214 2.5148 1.3415 3.9353 0-0.04428 5.1593-16.788-16.875-16.788-9.2598 0-16.875 8.7861-16.875 16.495-0.036517 4.0776 1.0536 7.8276 2.7719 11.525 5.8126 12.4 20.742 17.082 33.735 12.75-4.4482 1.4023-10.849 2.1888-14.803-0.28411z" fill="#000000" opacity=".15"/>
  <path class="cls-3" d="m26.491 55.914c-1.8813-1.1675-3.5118-2.6974-4.7965-4.5005-6.2339-8.5396-2.4469-20.636 7.0385-25.307 0.6581-0.31002 1.7823-0.87101 3.2779-0.84359 2.1358 0.01562 4.1412 1.0302 5.4188 2.7416 0.85178 1.1371 1.3214 2.5148 1.3415 3.9353 0-0.04428 5.1593-16.788-16.875-16.788-9.2598 0-16.875 8.7861-16.875 16.495-0.036517 4.0776 0.83605 8.1122 2.5544 11.81 5.8126 12.4 19.991 18.485 32.984 14.153-4.4482 1.4023-10.098 0.78572-14.052-1.6872z" fill="#008ef5"/>
  <path class="cls-5" d="m37.13 36.131c-0.17085 0.22144-0.69606 0.52725-0.69606 1.1937 0 0.55044 0.35858 1.0798 0.99558 1.5248 3.0331 2.109 8.7514 1.8306 8.7662 1.8306 2.2475-0.0054 4.4523-0.61353 6.3848-1.761 3.9666-2.3158 6.4091-5.3645 6.4185-9.9572 0.05484-4.7263-1.6875-7.8686-2.392-9.2606-4.4695-8.7417-14.117-13.769-24.608-13.769-14.764-0.00142-26.791 11.855-26.999 26.615 0.10126-7.7062 7.7621-14.856 16.875-14.856 0.73825 0 4.9484 0.07171 8.8589 2.1237 3.4465 1.8096 5.2521 4.9205 6.5072 7.0865 1.8242 3.4415 1.9026 6.6023-0.10968 9.2295z" fill="#000000" opacity=".15"/>
  <path class="cls-5" d="m37.13 35.199c-0.17085 0.22144-0.69606 0.52725-0.69606 1.1937 0 0.55044 0.35858 1.0798 0.99558 1.5248 3.0331 2.109 8.7514 1.8306 8.7662 1.8306 2.2475-0.0054 4.4523-0.61353 6.3848-1.761 3.9666-2.3158 6.4091-5.3645 6.4185-9.9572 0.05484-4.7263-1.6875-7.8686-2.392-9.2606-4.4695-8.7417-14.117-13.769-24.608-13.769-14.764-0.00142-26.791 11.855-26.999 26.615 0.10126-7.7062 7.7621-14.856 16.875-14.856 0.73825 0 4.9484 0.07171 8.8589 2.1237 3.4465 1.8096 5.2521 4.9205 6.5072 7.0865 1.8242 3.4415 1.9026 6.6023-0.10968 9.2295z" fill="#5ae2b5"/>
 </g>
</svg>
