<svg xmlns="http://www.w3.org/2000/svg" width="512" height="512" enable-background="new" version="1.0"><defs><filter id="a" width="1.048" height="1.048" x="-.024" y="-.024" color-interpolation-filters="sRGB"><feGaussianBlur stdDeviation="4.48"/></filter></defs><g transform="translate(-208 228)"><rect width="448" height="448" x="-256" y="-688" stroke="#000" stroke-width="8" filter="url(#a)" opacity=".1" rx="224" ry="224" transform="scale(1 -1)rotate(90)"/><rect width="448" height="448" x="-256" y="-688" filter="url(#a)" opacity=".2" rx="224" ry="224" transform="scale(1 -1)rotate(90)"/><rect width="448" height="448" x="-196" y="-688" fill="#8ac249" rx="224" ry="224" transform="rotate(90)"/><path d="m622.25-130.25-316.5 316.5c87.669 87.669 228.83 87.669 316.5 0s87.669-228.83 0-316.5" opacity=".1"/><path fill="#f2f2f2" d="M305.75 186.25 444.22 8.22l18.738 18.738 20.824 20.824z"/><path fill="#f34235" d="M622.25-130.25 444.22 8.22l39.562 39.562z"/><path fill="#fff" d="m622.25-130.25-316.5 316.5c-87.669-87.669-87.669-228.83 0-316.5s228.83-87.669 316.5 0" opacity=".2"/><path fill="#fff" d="M464-196c-124.1 0-224 99.904-224 224 0 .674.003 1.336 0 2 0-124.1 99.904-224 224-224S688-94.096 688 30c-.003-.664 0-1.326 0-2 0-124.1-99.904-224-224-224" opacity=".2"/></g></svg>