<svg xmlns="http://www.w3.org/2000/svg" width="512" height="512" enable-background="new" version="1.0"><defs><clipPath id="b"><rect width="28" height="28" x="-282" y="-118" fill="#3f51b5" opacity=".5" rx="2.25" ry="2.25" transform="scale(1 -1)rotate(90)"/></clipPath><filter id="a" width="1.048" height="1.048" x="-.024" y="-.024" color-interpolation-filters="sRGB"><feGaussianBlur stdDeviation="4.48"/></filter></defs><g transform="matrix(0 -1 -1 0 -208 228)"><rect width="448" height="448" x="-256" y="-688" filter="url(#a)" opacity=".2" rx="36" ry="36"/><rect width="448" height="448" x="-254" y="-688" opacity=".2" rx="36" ry="36"/><rect width="448" height="448" x="-256" y="-688" stroke="#000" stroke-width="8" filter="url(#a)" opacity=".1" rx="36" ry="36"/></g><g clip-path="url(#b)" transform="matrix(16 0 0 16 -1408 -4032)"><rect width="2" height="2" x="106" y="-278" fill="#b8845b" ry="0" transform="scale(1 -1)"/><rect width="2" height="2" x="98" y="-278" fill="#785439" ry="0" transform="scale(1 -1)"/><rect width="2" height="2" x="92" y="-278" fill="#785439" ry="0" transform="scale(1 -1)"/><rect width="2" height="2" x="94" y="-278" fill="#956b49" ry="0" transform="scale(1 -1)"/><rect width="2" height="2" x="-112" y="262" fill="#956b49" ry="0" transform="scale(-1 1)"/><rect width="2" height="2" x="96" y="262" fill="#583c28" ry="0"/><rect width="2" height="2" x="-104" y="262" fill="#b8845b" ry="0" transform="scale(-1 1)"/><rect width="2" height="2" x="-102" y="262" fill="#785439" ry="0" transform="scale(-1 1)"/><rect width="2" height="2" x="-92" y="262" fill="#583c28" ry="0" transform="scale(-1 1)"/><rect width="2" height="2" x="-104" y="260" fill="#956b49" ry="0" transform="scale(-1 1)"/><rect width="2" height="2" x="92" y="260" fill="#583c28" ry="0"/><rect width="2" height="2" x="100" y="260" fill="#785439" ry="0"/><rect width="2" height="2" x="-92" y="260" fill="#72b248" ry="0" transform="scale(-1 1)"/><rect width="2" height="2" x="90" y="258" fill="#60a036" ry="0"/><rect width="2" height="2" x="-102" y="258" fill="#583c28" ry="0" transform="scale(-1 1)"/><rect width="2" height="2" x="102" y="258" fill="#9bca6b" ry="0"/><rect width="2" height="2" x="90" y="256" fill="#72b248" ry="0"/><rect width="2" height="2" x="92" y="256" fill="#56962c" ry="0"/><rect width="2" height="2" x="94" y="256" fill="#60a036" ry="0"/><g fill="#72b248"><rect width="2" height="2" x="96" y="256" ry="0"/><rect width="2" height="2" x="-110" y="258" ry="0" transform="scale(-1 1)"/><rect width="2" height="2" x="94" y="258" ry="0"/></g><rect width="2" height="2" x="108" y="260" fill="#56962c" ry="0"/><rect width="2" height="2" x="92" y="258" fill="#60a036" ry="0"/><rect width="2" height="2" x="94" y="254" fill="#56962c" ry="0"/><rect width="2" height="2" x="-98" y="254" fill="#60a036" ry="0" transform="scale(-1 1)"/><rect width="2" height="2" x="-94" y="254" fill="#72b248" ry="0" transform="scale(-1 1)"/><path fill="#56962c" d="M92 254h-.5s-1.5 0-1.5 1.5v.5h2z"/><rect width="2" height="2" x="-106" y="264" fill="#b8845b" ry="0" transform="scale(-1 1)"/><rect width="2" height="2" x="98" y="264" fill="#785439" ry="0"/><rect width="2" height="2" x="92" y="264" fill="#785439" ry="0"/><rect width="2" height="2" x="94" y="264" fill="#956b49" ry="0"/><rect width="2" height="2" x="-106" y="262" fill="#b8845b" ry="0" transform="scale(-1 1)"/><rect width="2" height="2" x="98" y="262" fill="#785439" ry="0"/><rect width="2" height="2" x="92" y="262" fill="#785439" ry="0"/><rect width="2" height="2" x="94" y="262" fill="#583c28" ry="0"/><rect width="2" height="2" x="98" y="260" fill="#583c28" ry="0"/><rect width="2" height="2" x="-106" y="260" fill="#6b6b6b" ry="0" transform="scale(-1 1)"/><rect width="2" height="2" x="104" y="258" fill="#956b49" ry="0"/><rect width="2" height="2" x="-100" y="256" fill="#60a036" ry="0" transform="scale(-1 1)"/><rect width="2" height="2" x="-96" y="260" fill="#56962c" ry="0" transform="scale(-1 1)"/><rect width="2" height="2" x="98" y="258" fill="#60a036" ry="0"/><path fill="#56962c" d="M100 254h-2v2h2z"/><rect width="2" height="2" x="90" y="276" fill="#956b49" ry="0"/><rect width="2" height="2" x="100" y="276" fill="#b8845b" ry="0"/><rect width="2" height="2" x="-98" y="276" fill="#785439" ry="0" transform="scale(-1 1)"/><rect width="2" height="2" x="110" y="276" fill="#583c28" ry="0"/><rect width="2" height="2" x="90" y="-266" fill="#956b49" ry="0" transform="scale(1 -1)"/><rect width="2" height="2" x="100" y="-266" fill="#b8845b" ry="0" transform="scale(1 -1)"/><rect width="2" height="2" x="102" y="-266" fill="#785439" ry="0" transform="scale(1 -1)"/><rect width="2" height="2" x="-98" y="-266" fill="#785439" ry="0" transform="scale(-1)"/><rect width="2" height="2" x="110" y="-266" fill="#583c28" ry="0" transform="scale(1 -1)"/><path fill="#956b49" d="M90 280.5v-.5h2v2h-.5s-1.5 0-1.5-1.5"/><rect width="2" height="2" x="100" y="280" fill="#6b6b6b" ry="0"/><rect width="2" height="2" x="-112" y="280" fill="#785439" ry="0" transform="scale(-1 1)"/><rect width="2" height="2" x="-98" y="280" fill="#785439" ry="0" transform="scale(-1 1)"/><rect width="2" height="2" x="-96" y="278" fill="#956b49" ry="0" transform="scale(-1 1)"/><rect width="2" height="2" x="-94" y="278" fill="#583c28" ry="0" transform="scale(-1 1)"/><rect width="2" height="2" x="-100" y="278" fill="#b8845b" ry="0" transform="scale(-1 1)"/><rect width="2" height="2" x="-108" y="278" fill="#785439" ry="0" transform="scale(-1 1)"/><rect width="2" height="2" x="98" y="280" fill="#b8845b" ry="0"/><rect width="2" height="2" x="92" y="280" fill="#785439" ry="0"/><rect width="2" height="2" x="94" y="280" fill="#583c28" ry="0"/><rect width="2" height="2" x="-102" y="278" fill="#956b49" ry="0" transform="scale(-1 1)"/><rect width="2" height="2" x="-92" y="278" fill="#b8845b" ry="0" transform="scale(-1 1)"/><rect width="2" height="2" x="-98" y="278" fill="#785439" ry="0" transform="scale(-1 1)"/><rect width="2" height="2" x="110" y="278" fill="#583c28" ry="0"/><rect width="2" height="2" x="-114" y="-278" fill="#b8845b" ry="0" transform="scale(-1)"/><rect width="2" height="2" x="-110" y="-278" fill="#785439" ry="0" transform="scale(-1)"/><rect width="2" height="2" x="102" y="-278" fill="#956b49" ry="0" transform="scale(1 -1)"/><rect width="2" height="2" x="-108" y="262" fill="#956b49" ry="0" transform="scale(-1 1)"/><rect width="2" height="2" x="114" y="262" fill="#583c28" ry="0"/><rect width="2" height="2" x="116" y="262" fill="#b8845b" ry="0"/><rect width="2" height="2" x="106" y="260" fill="#9bca6b" ry="0"/><rect width="2" height="2" x="-116" y="260" fill="#785439" ry="0" transform="scale(-1 1)"/><rect width="2" height="2" x="114" y="258" fill="#583c28" ry="0"/><rect width="2" height="2" x="102" y="256" fill="#72b248" ry="0"/><rect width="2" height="2" x="104" y="256" fill="#56962c" ry="0"/><rect width="2" height="2" x="106" y="256" fill="#60a036" ry="0"/><rect width="2" height="2" x="-118" y="256" fill="#72b248" ry="0" transform="scale(-1 1)"/><rect width="2" height="2" x="-116" y="256" fill="#56962c" ry="0" transform="scale(-1 1)"/><rect width="2" height="2" x="-118" y="258" fill="#72b248" ry="0" transform="scale(-1 1)"/><rect width="2" height="2" x="-108" y="258" fill="#72b248" ry="0" transform="scale(-1 1)"/><rect width="2" height="2" x="-118" y="260" fill="#56962c" ry="0" transform="scale(-1 1)"/><rect width="2" height="2" x="106" y="254" fill="#56962c" ry="0"/><rect width="2" height="2" x="-114" y="254" fill="#60a036" ry="0" transform="scale(-1 1)"/><rect width="2" height="2" x="-116" y="254" fill="#72b248" ry="0" transform="scale(-1 1)"/><rect width="2" height="2" x="-106" y="254" fill="#72b248" ry="0" transform="scale(-1 1)"/><path fill="#56962c" d="M104 254h-2v2h2z"/><rect width="2" height="2" x="-114" y="264" fill="#b8845b" ry="0" transform="scale(-1 1)"/><rect width="2" height="2" x="-110" y="264" fill="#785439" ry="0" transform="scale(-1 1)"/><rect width="2" height="2" x="-114" y="262" fill="#b8845b" ry="0" transform="scale(-1 1)"/><rect width="2" height="2" x="-110" y="262" fill="#785439" ry="0" transform="scale(-1 1)"/><rect width="2" height="2" x="-98" y="260" fill="#583c28" ry="0" transform="scale(-1 1)"/><rect width="2" height="2" x="-112" y="260" fill="#b8845b" ry="0" transform="scale(-1 1)"/><rect width="2" height="2" x="-114" y="256" fill="#60a036" ry="0" transform="scale(-1 1)"/><rect width="2" height="2" x="-112" y="256" fill="#72b248" ry="0" transform="scale(-1 1)"/><rect width="2" height="2" x="-110" y="256" fill="#72b248" ry="0" transform="scale(-1 1)"/><rect width="2" height="2" x="-102" y="256" fill="#56962c" ry="0" transform="scale(-1 1)"/><rect width="2" height="2" x="112" y="258" fill="#72b248" ry="0"/><rect width="2" height="2" x="110" y="258" fill="#56962c" ry="0"/><rect width="2" height="2" x="112" y="260" fill="#56962c" ry="0"/><rect width="2" height="2" x="-98" y="258" fill="#60a036" ry="0" transform="scale(-1 1)"/><rect width="2" height="2" x="100" y="254" fill="#72b248" ry="0"/><path fill="#56962c" d="M118 255.5c0-1.5-1.5-1.5-1.5-1.5h-.5v2h2z"/><rect width="2" height="2" x="110" y="254" fill="#60a036" ry="0"/><rect width="2" height="2" x="-110" y="254" fill="#72b248" ry="0" transform="scale(-1 1)"/><rect width="2" height="2" x="-118" y="276" fill="#6b6b6b" ry="0" transform="scale(-1 1)"/><rect width="2" height="2" x="-116" y="276" fill="#785439" ry="0" transform="scale(-1 1)"/><rect width="2" height="2" x="-106" y="276" fill="#583c28" ry="0" transform="scale(-1 1)"/><rect width="2" height="2" x="-118" y="-266" fill="#785439" ry="0" transform="scale(-1)"/><rect width="2" height="2" x="-116" y="-266" fill="#785439" ry="0" transform="scale(-1)"/><rect width="2" height="2" x="106" y="-266" fill="#583c28" ry="0" transform="scale(1 -1)"/><rect width="2" height="2" x="104" y="280" fill="#785439" ry="0"/><rect width="2" height="2" x="-116" y="280" fill="#785439" ry="0" transform="scale(-1 1)"/><rect width="2" height="2" x="-114" y="280" fill="#583c28" ry="0" transform="scale(-1 1)"/><rect width="2" height="2" x="-104" y="278" fill="#956b49" ry="0" transform="scale(-1 1)"/><rect width="2" height="2" x="108" y="278" fill="#b8845b" ry="0"/><rect width="2" height="2" x="112" y="278" fill="#785439" ry="0"/><path fill="#b8845b" d="M118 280.5v-.5h-2v2h.5s1.5 0 1.5-1.5"/><rect width="2" height="2" x="-110" y="280" fill="#b8845b" ry="0" transform="scale(-1 1)"/><rect width="2" height="2" x="102" y="280" fill="#583c28" ry="0"/><rect width="2" height="2" x="-118" y="278" fill="#785439" ry="0" transform="scale(-1 1)"/><rect width="2" height="2" x="-116" y="278" fill="#785439" ry="0" transform="scale(-1 1)"/><rect width="2" height="2" x="-106" y="278" fill="#583c28" ry="0" transform="scale(-1 1)"/><rect width="2" height="2" x="-108" y="280" fill="#583c28" ry="0" transform="scale(-1 1)"/><rect width="2" height="2" x="-106" y="272" fill="#b8845b" ry="0" transform="scale(-1 1)"/><rect width="2" height="2" x="98" y="272" fill="#785439" ry="0"/><rect width="2" height="2" x="92" y="272" fill="#785439" ry="0"/><rect width="2" height="2" x="94" y="272" fill="#956b49" ry="0"/><rect width="2" height="2" x="96" y="274" fill="#583c28" ry="0"/><rect width="2" height="2" x="-92" y="274" fill="#583c28" ry="0" transform="scale(-1 1)"/><rect width="2" height="2" x="90" y="-274" fill="#956b49" ry="0" transform="scale(1 -1)"/><rect width="2" height="2" x="100" y="-274" fill="#b8845b" ry="0" transform="scale(1 -1)"/><rect width="2" height="2" x="102" y="-274" fill="#785439" ry="0" transform="scale(1 -1)"/><rect width="2" height="2" x="-98" y="-274" fill="#785439" ry="0" transform="scale(-1)"/><rect width="2" height="2" x="100" y="274" fill="#583c28" ry="0"/><rect width="2" height="2" x="-96" y="274" fill="#b8845b" ry="0" transform="scale(-1 1)"/><rect width="2" height="2" x="98" y="274" fill="#6b6b6b" ry="0"/><rect width="2" height="2" x="92" y="274" fill="#785439" ry="0"/><rect width="2" height="2" x="-108" y="274" fill="#583c28" ry="0" transform="scale(-1 1)"/><rect width="2" height="2" x="104" y="274" fill="#956b49" ry="0"/><rect width="2" height="2" x="106" y="-274" fill="#583c28" ry="0" transform="scale(1 -1)"/><rect width="2" height="2" x="-104" y="274" fill="#b8845b" ry="0" transform="scale(-1 1)"/><rect width="2" height="2" x="114" y="270" fill="#b8845b" ry="0"/><rect width="2" height="2" x="-106" y="270" fill="#583c28" ry="0" transform="scale(-1 1)"/><rect width="2" height="2" x="106" y="270" fill="#785439" ry="0"/><rect width="2" height="2" x="-114" y="270" fill="#583c28" ry="0" transform="scale(-1 1)"/><rect width="2" height="2" x="110" y="270" fill="#956b49" ry="0"/><rect width="2" height="2" x="-118" y="270" fill="#583c28" ry="0" transform="scale(-1 1)"/><rect width="2" height="2" x="-110" y="270" fill="#b8845b" ry="0" transform="scale(-1 1)"/><rect width="2" height="2" x="90" y="270" fill="#583c28" ry="0"/><rect width="2" height="2" x="92" y="270" fill="#6b6b6b" ry="0"/><rect width="2" height="2" x="102" y="270" fill="#583c28" ry="0"/><rect width="2" height="2" x="96" y="270" fill="#785439" ry="0"/><rect width="2" height="2" x="94" y="270" fill="#583c28" ry="0"/><rect width="2" height="2" x="-100" y="270" fill="#583c28" ry="0" transform="scale(-1 1)"/><rect width="2" height="2" x="-102" y="270" fill="#785439" ry="0" transform="scale(-1 1)"/><g fill="#b8845b"><rect width="2" height="2" x="-114" y="272" ry="0" transform="scale(-1 1)"/><rect width="2" height="2" x="116" y="274" ry="0"/><rect width="2" height="2" x="108" y="-274" ry="0" transform="scale(1 -1)"/></g><rect width="2" height="2" x="110" y="-274" fill="#785439" ry="0" transform="scale(1 -1)"/><rect width="2" height="2" x="108" y="274" fill="#583c28" ry="0"/><rect width="2" height="2" x="-116" y="274" fill="#583c28" ry="0" transform="scale(-1 1)"/><rect width="2" height="2" x="-118" y="272" fill="#956b49" ry="0" transform="scale(-1 1)"/><rect width="2" height="2" x="112" y="274" fill="#956b49" ry="0"/><rect width="2" height="2" x="114" y="-274" fill="#583c28" ry="0" transform="scale(1 -1)"/><rect width="2" height="2" x="-112" y="274" fill="#b8845b" ry="0" transform="scale(-1 1)"/><rect width="2" height="2" x="106" y="268" fill="#785439" ry="0"/><rect width="2" height="2" x="100" y="268" fill="#785439" ry="0"/><rect width="2" height="2" x="102" y="268" fill="#956b49" ry="0"/><rect width="2" height="2" x="98" y="-270" fill="#956b49" ry="0" transform="scale(1 -1)"/><rect width="2" height="2" x="108" y="-270" fill="#b8845b" ry="0" transform="scale(1 -1)"/><rect width="2" height="2" x="110" y="-270" fill="#785439" ry="0" transform="scale(1 -1)"/><rect width="2" height="2" x="-106" y="-270" fill="#785439" ry="0" transform="scale(-1)"/><rect width="2" height="2" x="98" y="266" fill="#583c28" ry="0"/><rect width="2" height="2" x="100" y="266" fill="#6b6b6b" ry="0"/><rect width="2" height="2" x="110" y="266" fill="#583c28" ry="0"/><rect width="2" height="2" x="104" y="266" fill="#785439" ry="0"/><rect width="2" height="2" x="102" y="266" fill="#583c28" ry="0"/><rect width="2" height="2" x="-108" y="266" fill="#583c28" ry="0" transform="scale(-1 1)"/><rect width="2" height="2" x="-110" y="266" fill="#785439" ry="0" transform="scale(-1 1)"/><rect width="2" height="2" x="-114" y="-270" fill="#b8845b" ry="0" transform="scale(-1)"/><rect width="2" height="2" x="-118" y="268" fill="#6b6b6b" ry="0" transform="scale(-1 1)"/><rect width="2" height="2" x="-116" y="268" fill="#785439" ry="0" transform="scale(-1 1)"/><rect width="2" height="2" x="116" y="266" fill="#b8845b" ry="0"/><rect width="2" height="2" x="-116" y="266" fill="#583c28" ry="0" transform="scale(-1 1)"/><rect width="2" height="2" x="112" y="266" fill="#956b49" ry="0"/><rect width="2" height="2" x="-94" y="266" fill="#b8845b" ry="0" transform="scale(-1 1)"/><rect width="2" height="2" x="-98" y="-268" fill="#6b6b6b" ry="0" transform="scale(-1)"/><rect width="2" height="2" x="-96" y="-268" fill="#785439" ry="0" transform="scale(-1)"/><rect width="2" height="2" x="96" y="-270" fill="#b8845b" ry="0" transform="scale(1 -1)"/><rect width="2" height="2" x="-96" y="-270" fill="#583c28" ry="0" transform="scale(-1)"/><rect width="2" height="2" x="92" y="-270" fill="#956b49" ry="0" transform="scale(1 -1)"/><rect width="2" height="2" x="90" y="266" fill="#956b49" ry="0"/><rect width="2" height="2" x="-92" y="268" fill="#b8845b" ry="0" transform="scale(-1 1)"/></g><path fill="#fff" d="M68 32c-19.944 0-36 16.056-36 36v2c0-19.944 16.056-36 36-36h376c19.944 0 36 16.056 36 36v-2c0-19.944-16.056-36-36-36z" opacity=".2"/></svg>