<svg xmlns="http://www.w3.org/2000/svg" width="512" height="512" enable-background="new" version="1.0"><defs><filter id="a" width="1.048" height="1.048" x="-.024" y="-.024" color-interpolation-filters="sRGB"><feGaussianBlur stdDeviation="4.48"/></filter><filter id="b" width="1.27" height="1.27" x="-.135" y="-.135" color-interpolation-filters="sRGB"><feGaussianBlur stdDeviation="7.2"/></filter><filter id="d" width="1.27" height="1.27" x="-.135" y="-.135" color-interpolation-filters="sRGB"><feGaussianBlur stdDeviation="7.2"/></filter></defs><g transform="translate(-208 228)"><g transform="scale(1 -1)rotate(90)"><rect width="448" height="448" x="-254" y="-688" opacity=".2" rx="36" ry="36"/><rect width="448" height="448" x="-256" y="-688" filter="url(#a)" opacity=".1" rx="36" ry="36"/><rect width="448" height="448" x="-256" y="-688" filter="url(#a)" opacity=".2" rx="36" ry="36"/></g><rect width="448" height="448" x="-252" y="-688" fill="#3f3f3f" rx="36" ry="36" transform="scale(1 -1)rotate(90)"/><g fill="#fff"><path d="M276-196c-19.944 0-36 16.056-36 36v2c0-19.944 16.056-36 36-36h376c19.944 0 36 16.056 36 36v-2c0-19.944-16.056-36-36-36zM304-52h320v1H304zM304 140h320v1H304z" opacity=".1"/></g><path d="M352-126h96c8.864 0 16 7.136 16 16v96c0 8.864-7.136 16-16 16h-96c-8.864 0-16-7.136-16-16v-96c0-8.864 7.136-16 16-16" filter="url(#b)" opacity=".2"/><path d="M480 66h96c8.864 0 16 7.136 16 16v96c0 8.864-7.136 16-16 16h-96c-8.864 0-16-7.136-16-16V82c0-8.864 7.136-16 16-16" filter="url(#d)" opacity=".2"/><path d="M304-84h320v32H304z" opacity=".3"/><path fill="#fff" d="M352-132h96c8.864 0 16 7.136 16 16v96c0 8.864-7.136 16-16 16h-96c-8.864 0-16-7.136-16-16v-96c0-8.864 7.136-16 16-16"/><path fill="#e80800" d="M376-132h48V-4h-48z"/><path d="M304 108h320v32H304z" opacity=".3"/><path fill="#fff" d="M480 60h96c8.864 0 16 7.136 16 16v96c0 8.864-7.136 16-16 16h-96c-8.864 0-16-7.136-16-16V76c0-8.864 7.136-16 16-16"/><path fill="#e80800" d="M504 60h48v128h-48z"/><path fill="#fff" d="M352-132c-8.864 0-16 7.136-16 16v2c0-8.864 7.136-16 16-16h96c8.864 0 16 7.136 16 16v-2c0-8.864-7.136-16-16-16zM480 60c-8.864 0-16 7.136-16 16v2c0-8.864 7.136-16 16-16h96c8.864 0 16 7.136 16 16v-2c0-8.864-7.136-16-16-16z" opacity=".2"/></g></svg>