<svg width="512" height="512" enable-background="new" version="1.0" xmlns="http://www.w3.org/2000/svg" xmlns:osb="http://www.openswatchbook.org/uri/2009/osb" xmlns:xlink="http://www.w3.org/1999/xlink">
 <title>Paper Icon Theme</title>
 <defs>
  <filter id="a" x="-.024" y="-.024" width="1.048" height="1.048" color-interpolation-filters="sRGB">
   <feGaussianBlur stdDeviation="4.48"/>
  </filter>
  <filter id="c" x="-.135" y="-.135" width="1.27" height="1.27" color-interpolation-filters="sRGB">
   <feGaussianBlur stdDeviation="7.2"/>
  </filter>
  <filter id="b" x="-.135" y="-.135" width="1.27" height="1.27" color-interpolation-filters="sRGB">
   <feGaussianBlur stdDeviation="7.2"/>
  </filter>
 </defs>
 <g transform="translate(0,212)">
  <g>
   <g transform="translate(-208,16)">
    <g>
     <rect transform="matrix(0,-1,-1,0,0,0)" x="-254" y="-688" width="448" height="448" rx="36" ry="36" opacity=".2"/>
     <rect transform="matrix(0,-1,-1,0,0,0)" x="-256" y="-688" width="448" height="448" rx="36" ry="36" filter="url(#a)" opacity=".1"/>
     <rect transform="matrix(0,-1,-1,0,0,0)" x="-256" y="-688" width="448" height="448" rx="36" ry="36" filter="url(#a)" opacity=".2"/>
    </g>
    <rect transform="matrix(0,-1,-1,0,0,0)" x="-252" y="-688" width="448" height="448" rx="36" ry="36" fill="#3f3f3f"/>
    <g fill="#fff">
     <path transform="translate(0,-244)" d="m276 48c-19.944 0-36 16.056-36 36v2c0-19.944 16.056-36 36-36h376c19.944 0 36 16.056 36 36v-2c0-19.944-16.056-36-36-36z" opacity=".1"/>
     <path d="m304-52h320v1h-320z" opacity=".1"/>
     <path d="m304 140h320v1h-320z" opacity=".1"/>
    </g>
    <g>
     <path d="m352-126h96c8.864 0 16 7.136 16 16v96c0 8.864-7.136 16-16 16h-96c-8.864 0-16-7.136-16-16v-96c0-8.864 7.136-16 16-16z" filter="url(#c)" opacity=".2"/>
     <path d="m480 66h96c8.864 0 16 7.136 16 16v96c0 8.864-7.136 16-16 16h-96c-8.864 0-16-7.136-16-16v-96c0-8.864 7.136-16 16-16z" filter="url(#b)" opacity=".2"/>
     <path d="m304-84h320v32h-320z" opacity=".3"/>
    </g>
    <path d="m352-132h96c8.864 0 16 7.136 16 16v96c0 8.864-7.136 16-16 16h-96c-8.864 0-16-7.136-16-16v-96c0-8.864 7.136-16 16-16z" fill="#fff"/>
    <path d="m376-132h48v128h-48z" fill="#e80800"/>
    <path d="m304 108h320v32h-320z" opacity=".3"/>
    <path d="m480 60h96c8.864 0 16 7.136 16 16v96c0 8.864-7.136 16-16 16h-96c-8.864 0-16-7.136-16-16v-96c0-8.864 7.136-16 16-16z" fill="#fff"/>
    <path d="m504 60h48v128h-48z" fill="#e80800"/>
    <path transform="translate(0,-244)" d="m352 112c-8.864 0-16 7.136-16 16v2c0-8.864 7.136-16 16-16h96c8.864 0 16 7.136 16 16v-2c0-8.864-7.136-16-16-16z" fill="#fff" opacity=".2"/>
    <path d="m480 60c-8.864 0-16 7.136-16 16v2c0-8.864 7.136-16 16-16h96c8.864 0 16 7.136 16 16v-2c0-8.864-7.136-16-16-16z" fill="#fff" opacity=".2"/>
   </g>
  </g>
 </g>
</svg>
