<svg xmlns="http://www.w3.org/2000/svg" width="512" height="512" enable-background="new" version="1.0"><defs><filter id="a" width="1.048" height="1.048" x="-.024" y="-.024" color-interpolation-filters="sRGB"><feGaussianBlur stdDeviation="4.48"/></filter></defs><g transform="translate(-208 228)"><g transform="scale(1 -1)rotate(90)"><rect width="448" height="448" x="-256" y="-688" enable-background="new" filter="url(#a)" opacity=".2" rx="36" ry="36"/><rect width="448" height="448" x="-254" y="-688" enable-background="new" opacity=".2" rx="36" ry="36"/><rect width="448" height="448" x="-256" y="-688" stroke="#000" stroke-width="8" enable-background="new" filter="url(#a)" opacity=".1" rx="36" ry="36"/></g><rect width="448" height="448" x="-252" y="-688" fill="#7986cb" enable-background="new" rx="36" ry="36" transform="scale(1 -1)rotate(90)"/><path fill="#fff" d="M276-196c-19.944 0-36 16.056-36 36v2c0-19.944 16.056-36 36-36h376c19.944 0 36 16.056 36 36v-2c0-19.944-16.056-36-36-36z" enable-background="new" opacity=".2"/><path fill="#9fa8da" d="M317.83 205s73.499-91.584 75.049-91.249c.885.191 33.713 14.136 72.951 30.987 67.013 28.78 71.458 30.482 73.27 28.054 2.74-3.671 12.179-23.411 17.172-35.912l4.236-10.606-7.136-3.901c-10.112-5.53-24.945-17.842-34.232-28.42-8.476-9.651-23.762-32.94-23.762-36.2 0-1.078 4.857 3.827 10.794 10.902 16.676 19.871 55.104 50.967 57.518 46.542 2.864-5.252 4.715-20.755 4.623-38.717-.112-21.93-2.987-39.003-10.537-62.567L553.546.708l-20.917-6.573L507-13.92c-9.037-2.84-3.384-2.687 9.846.266 15.82 3.532 31.887 6.515 41.837 7.767 8.76 1.102 10.688-.616 11.625-10.364 1.195-12.428-6.827-46.752-14.92-63.84-3.23-6.822-4.688-8.292-11.155-11.252-21.527-9.853-88.906-19.082-117.52-16.096-12.369 1.29-25.074 4.296-29.034 6.867-1.116.725 6.862 2.78 20.596 5.305 12.33 2.267 21.314 4.337 19.966 4.6s-20.722-1.865-43.054-4.73c-39.205-5.03-40.7-5.121-43.43-2.65-5.694 5.151-13.886 19.232-15.572 26.767-1.632 7.294-1.517 8.14 2.115 15.563 6.192 12.653 17.705 21.859 43.904 35.108 12.389 6.264 22.224 11.69 21.857 12.058-.367.367-10.939-3.58-23.494-8.77l-22.826-9.438-69.739 18.743v-130.98c0-8 8-8 8-8h336s8 0 8 8v336c0 8-8 8-8 8z" enable-background="new" opacity=".4"/><path d="M317.83 204s73.499-91.584 75.049-91.249c.885.191 33.713 14.136 72.951 30.987 67.013 28.78 71.458 30.482 73.27 28.054 2.74-3.671 12.179-23.411 17.172-35.912l4.236-10.606-7.136-3.901c-10.112-5.53-24.945-17.842-34.232-28.42-8.476-9.651-23.762-32.94-23.762-36.2 0-1.078 4.857 3.827 10.794 10.902 16.676 19.871 55.104 50.967 57.518 46.542 2.864-5.252 4.715-20.755 4.623-38.717-.112-21.93-2.987-39.003-10.537-62.567l-4.23-13.205-20.917-6.573L507-14.92c-9.037-2.84-3.384-2.687 9.846.266 15.82 3.532 31.887 6.515 41.837 7.767 8.76 1.102 10.688-.616 11.625-10.364 1.195-12.428-6.827-46.752-14.92-63.84-3.23-6.822-4.688-8.292-11.155-11.252-21.527-9.853-88.906-19.082-117.52-16.096-12.369 1.29-25.074 4.296-29.034 6.867-1.116.725 6.862 2.78 20.596 5.305 12.33 2.267 21.314 4.337 19.966 4.6s-20.722-1.865-43.054-4.73c-39.205-5.03-40.7-5.121-43.43-2.65-5.694 5.151-13.886 19.232-15.572 26.767-1.632 7.294-1.517 8.14 2.115 15.563 6.192 12.653 17.705 21.859 43.904 35.108 12.389 6.264 22.224 11.69 21.857 12.058-.367.367-10.939-3.58-23.494-8.77l-22.826-9.438-69.739 18.743v-130.98c0-8 8-8 8-8h336s8 0 8 8v336c0 8-8 8-8 8z" enable-background="new" opacity=".6"/></g></svg>