<svg width="512" height="512" enable-background="new" version="1.0" xmlns="http://www.w3.org/2000/svg" xmlns:osb="http://www.openswatchbook.org/uri/2009/osb">
 <defs>
  <filter id="a" x="-.027273" y="-.021429" width="1.0545" height="1.0429" color-interpolation-filters="sRGB">
   <feGaussianBlur stdDeviation="4"/>
  </filter>
 </defs>
 <g transform="translate(0,212)">
  <g>
   <g transform="translate(-208,16)">
    <path transform="matrix(-1 0 0 1 928 0)" d="m312-192c-13.296 0-24 10.704-24 24v400c0 13.296 10.704 24 24 24h304c13.296 0 24-10.704 24-24v-400c0-13.296-10.704-24-24-24h-152z" filter="url(#a)" opacity=".1" stroke="#000" stroke-width="8"/>
    <path d="m312-192c-13.296 0-24 10.704-24 24v400c0 13.296 10.704 24 24 24h304c13.296 0 24-10.704 24-24v-400c0-13.296-10.704-24-24-24h-152z" filter="url(#a)" opacity=".2"/>
    <path transform="translate(0,-244)" d="m312 48c-13.296 0-24 10.704-24 24v400c0 13.296 10.704 24 24 24h304c13.296 0 24-10.704 24-24v-400c0-13.296-10.704-24-24-24h-152z" fill="#7986cb"/>
    <path transform="translate(0,-244)" d="m312 48c-13.296 0-24 10.704-24 24v400c0 13.296 10.704 24 24 24h26v-448z" opacity=".3"/>
    <path transform="translate(0,76)" d="m312-272c-13.296 0-24 10.704-24 24v2c0-13.296 10.704-24 24-24h304c13.296 0 24 10.704 24 24v-2c0-13.296-10.704-24-24-24h-152z" fill="#fff" opacity=".2"/>
    <path d="m312 252c-13.296 0-24-10.704-24-24v-2c0 13.296 10.704 24 24 24h304c13.296 0 24-10.704 24-24v2c0 13.296-10.704 24-24 24h-152z" opacity=".2"/>
    <path d="m376-161c-8 0-8 8-8 8v103.85l39.33-10.57 18.111 7.4883c9.9605 4.1184 18.347 7.2502 18.639 6.959 0.29109-0.29131-7.5128-4.5961-17.342-9.5664-20.786-10.511-29.92-17.817-34.832-27.855-2.882-5.8896-2.9732-6.5602-1.6777-12.348 1.3381-5.9776 7.8366-17.149 12.354-21.236 2.1664-1.9602 3.3544-1.8869 34.459 2.1035 17.717 2.2731 33.089 3.961 34.158 3.752 1.0696-0.20885-6.0598-1.8499-15.842-3.6484-10.897-2.0035-17.225-3.6341-16.34-4.209 3.1415-2.0399 13.222-4.4252 23.035-5.4492 22.701-2.3692 76.159 4.9539 93.238 12.771 5.1306 2.3484 6.2868 3.5144 8.8496 8.9258 6.4209 13.559 12.785 40.792 11.838 50.652-0.74325 7.734-2.2722 9.0973-9.2227 8.2227-7.894-0.99339-20.643-3.3601-33.193-6.1621-10.496-2.3443-14.982-2.4663-7.8125-0.21289 2.0558 0.64619 11.207 3.522 20.334 6.3906l16.594 5.2148 3.3574 10.477c11.955 15.572 8.2634 32.242 8.3594 49.641 0.0726 14.252-1.3958 26.55-3.668 30.717-1.9147 3.511-32.402-21.159-45.633-36.926-4.7102-5.613-8.5644-9.505-8.5644-8.6484 0 2.5861 12.127 21.061 18.852 28.719 7.3686 8.3917 20.135 16.695 27.16 22.549l5.6621 3.0957-3.3613 8.4141c1.6624 10.55-11.449 25.579-13.623 28.492-1.4378 1.926-4.9654 0.57567-58.133-22.258-31.131-13.37-57.174-24.431-57.877-24.584-0.8878-0.19199-43.38 49.577-67.209 77.578v5.666s0 8 8 8h224c8 0 8-8 8-8v-288c0-8-8-8-8-8z" enable-background="new" opacity=".2"/>
    <path d="m376-162c-8 0-8 8-8 8v103.85l39.33-10.57 18.111 7.4883c9.9605 4.1184 18.347 7.2502 18.639 6.959 0.29109-0.29131-7.5128-4.5961-17.342-9.5664-20.786-10.511-29.92-17.817-34.832-27.855-2.882-5.8896-2.9732-6.5602-1.6777-12.348 1.3381-5.9776 7.8366-17.149 12.354-21.236 2.1664-1.9602 3.3544-1.8869 34.459 2.1035 17.717 2.2731 33.089 3.961 34.158 3.752 1.0696-0.20885-6.0598-1.8499-15.842-3.6484-10.897-2.0035-17.225-3.6341-16.34-4.209 3.1415-2.0399 13.222-4.4252 23.035-5.4492 22.701-2.3692 76.159 4.9539 93.238 12.771 5.1306 2.3484 6.2868 3.5144 8.8496 8.9258 6.4209 13.559 12.785 40.792 11.838 50.652-0.74325 7.734-2.2722 9.0973-9.2227 8.2227-7.894-0.99339-20.643-3.3601-33.193-6.1621-10.496-2.3443-14.982-2.4663-7.8125-0.21289 2.0558 0.64619 11.207 3.522 20.334 6.3906l16.594 5.2148 3.3574 10.477c11.955 15.572 8.2634 32.242 8.3594 49.641 0.0726 14.252-1.3958 26.55-3.668 30.717-1.9147 3.511-32.402-21.159-45.633-36.926-4.7102-5.613-8.5644-9.505-8.5644-8.6484 0 2.5861 12.127 21.061 18.852 28.719 7.3686 8.3917 20.135 16.695 27.16 22.549l5.6621 3.0957-3.3613 8.4141c1.6624 10.55-11.449 25.579-13.623 28.492-1.4378 1.926-4.9654 0.57567-58.133-22.258-31.131-13.37-57.174-24.431-57.877-24.584-0.8878-0.19199-43.38 49.577-67.209 77.578v5.666s0 8 8 8h224c8 0 8-8 8-8v-288c0-8-8-8-8-8z" enable-background="new" fill="#fff"/>
   </g>
  </g>
 </g>
</svg>
