<svg width="512" height="512" enable-background="new" version="1.0" xmlns="http://www.w3.org/2000/svg" xmlns:osb="http://www.openswatchbook.org/uri/2009/osb" xmlns:xlink="http://www.w3.org/1999/xlink">
 <defs>
  <filter id="a" x="-.024" y="-.024" width="1.048" height="1.048" color-interpolation-filters="sRGB">
   <feGaussianBlur stdDeviation="4.48"/>
  </filter>
 </defs>
 <g transform="translate(0,212)">
  <g></g>
  <g transform="translate(-208,16)">
   <g>
    <rect transform="matrix(0,-1,-1,0,0,0)" x="-256" y="-688" width="448" height="448" rx="36" ry="36" enable-background="new" filter="url(#a)" opacity=".2"/>
    <rect transform="matrix(0,-1,-1,0,0,0)" x="-254" y="-688" width="448" height="448" rx="36" ry="36" enable-background="new" opacity=".2"/>
    <rect transform="matrix(0,-1,-1,0,0,0)" x="-256" y="-688" width="448" height="448" rx="36" ry="36" enable-background="new" filter="url(#a)" opacity=".1" stroke="#000" stroke-width="8"/>
   </g>
   <rect transform="matrix(0,-1,-1,0,0,0)" x="-252" y="-688" width="448" height="448" rx="36" ry="36" enable-background="new" fill="#7986cb"/>
   <path transform="translate(0,-244)" d="m276 48c-19.944 0-36 16.056-36 36v2c0-19.944 16.056-36 36-36h376c19.944 0 36 16.056 36 36v-2c0-19.944-16.056-36-36-36z" enable-background="new" fill="#fff" opacity=".2"/>
   <path d="m317.83 205s73.499-91.584 75.049-91.249c0.88516 0.19149 33.713 14.136 72.951 30.987 67.013 28.78 71.458 30.482 73.27 28.054 2.7404-3.6715 12.179-23.411 17.172-35.912l4.2355-10.606-7.1357-3.9015c-10.112-5.5291-24.945-17.842-34.232-28.419-8.4754-9.6518-23.762-32.94-23.762-36.2 0-1.079 4.8576 3.8267 10.794 10.901 16.676 19.872 55.104 50.967 57.518 46.542 2.8638-5.2513 4.7149-20.754 4.6234-38.717-0.11262-21.93-2.9873-39.002-10.537-62.566l-4.2306-13.205-20.917-6.5738c-11.504-3.6156-23.037-7.2402-25.628-8.0547-9.037-2.8403-3.3832-2.6874 9.8468 0.26638 15.819 3.5317 31.887 6.5146 41.837 7.7667 8.7605 1.1024 10.688-0.6161 11.625-10.364 1.1944-12.428-6.8271-46.752-14.92-63.841-3.2302-6.8206-4.6881-8.2913-11.155-11.251-21.527-9.8534-88.906-19.082-117.52-16.096-12.369 1.2908-25.074 4.2959-29.034 6.867-1.1161 0.72468 6.8614 2.7794 20.596 5.3046 12.329 2.2669 21.314 4.3371 19.966 4.6004-1.3479 0.26326-20.722-1.8654-43.054-4.7303-39.205-5.0296-40.7-5.1209-43.431-2.6501-5.6932 5.1514-13.885 19.232-15.571 26.767-1.6328 7.2944-1.5178 8.1398 2.1146 15.563 6.1917 12.653 17.705 21.859 43.904 35.108 12.389 6.2647 22.224 11.691 21.857 12.058-0.36726 0.3671-10.939-3.5795-23.494-8.7702l-22.826-9.4376-69.739 18.743v-130.98c0-8 8-8 8-8h336s8 0 8 8v336c0 8-8 8-8 8z" enable-background="new" fill="#9fa8da" opacity=".4"/>
   <path d="m317.83 204s73.499-91.584 75.049-91.249c0.88516 0.19149 33.713 14.136 72.951 30.987 67.013 28.78 71.458 30.482 73.27 28.054 2.7404-3.6715 12.179-23.411 17.172-35.912l4.2355-10.606-7.1357-3.9015c-10.112-5.5291-24.945-17.842-34.232-28.419-8.4754-9.6518-23.762-32.94-23.762-36.2 0-1.079 4.8576 3.8267 10.794 10.901 16.676 19.872 55.104 50.967 57.518 46.542 2.8638-5.2513 4.7149-20.754 4.6234-38.717-0.11262-21.93-2.9873-39.002-10.537-62.566l-4.2306-13.205-20.917-6.5738c-11.504-3.6156-23.037-7.2402-25.628-8.0547-9.037-2.8403-3.3832-2.6874 9.8468 0.26638 15.819 3.5317 31.887 6.5146 41.837 7.7667 8.7605 1.1024 10.688-0.6161 11.625-10.364 1.1944-12.428-6.8271-46.752-14.92-63.841-3.2302-6.8206-4.6881-8.2913-11.155-11.251-21.527-9.8534-88.906-19.082-117.52-16.096-12.369 1.2908-25.074 4.2959-29.034 6.867-1.1161 0.72468 6.8614 2.7794 20.596 5.3046 12.329 2.2669 21.314 4.3371 19.966 4.6004-1.3479 0.26326-20.722-1.8654-43.054-4.7303-39.205-5.0296-40.7-5.1209-43.431-2.6501-5.6932 5.1514-13.885 19.232-15.571 26.767-1.6328 7.2944-1.5178 8.1398 2.1146 15.563 6.1917 12.653 17.705 21.859 43.904 35.108 12.389 6.2647 22.224 11.691 21.857 12.058-0.36726 0.3671-10.939-3.5795-23.494-8.7702l-22.826-9.4376-69.739 18.743v-130.98c0-8 8-8 8-8h336s8 0 8 8v336c0 8-8 8-8 8z" enable-background="new" opacity=".6"/>
  </g>
 </g>
</svg>
