<svg xmlns="http://www.w3.org/2000/svg" width="512" height="512" enable-background="new" version="1.0"><defs><filter id="a" width="1.054" height="1.043" x="-.027" y="-.021" color-interpolation-filters="sRGB"><feGaussianBlur stdDeviation="4"/></filter></defs><path stroke="#000" stroke-width="8" d="M312-192c-13.296 0-24 10.704-24 24v400c0 13.296 10.704 24 24 24h304c13.296 0 24-10.704 24-24v-400c0-13.296-10.704-24-24-24H464z" filter="url(#a)" opacity=".1" transform="matrix(-1 0 0 1 720 228)"/><path d="M312-192c-13.296 0-24 10.704-24 24v400c0 13.296 10.704 24 24 24h304c13.296 0 24-10.704 24-24v-400c0-13.296-10.704-24-24-24H464z" filter="url(#a)" opacity=".2" transform="translate(-208 228)"/><path fill="#7986cb" d="M104 32c-13.296 0-24 10.704-24 24v400c0 13.296 10.704 24 24 24h304c13.296 0 24-10.704 24-24V56c0-13.296-10.704-24-24-24H256z"/><path d="M104 32c-13.296 0-24 10.704-24 24v400c0 13.296 10.704 24 24 24h26V32z" opacity=".3"/><path fill="#fff" d="M104 32c-13.296 0-24 10.704-24 24v2c0-13.296 10.704-24 24-24h304c13.296 0 24 10.704 24 24v-2c0-13.296-10.704-24-24-24H256z" opacity=".2"/><path d="M104 480c-13.296 0-24-10.704-24-24v-2c0 13.296 10.704 24 24 24h304c13.296 0 24-10.704 24-24v2c0 13.296-10.704 24-24 24H256z" opacity=".2"/><path d="M168 67c-8 0-8 8-8 8v103.85l39.33-10.57 18.111 7.488c9.96 4.119 18.347 7.25 18.639 6.96.291-.292-7.513-4.597-17.342-9.567-20.786-10.511-29.92-17.817-34.832-27.855-2.882-5.89-2.973-6.56-1.678-12.348 1.338-5.978 7.837-17.15 12.354-21.236 2.167-1.96 3.355-1.887 34.46 2.103 17.716 2.274 33.088 3.961 34.157 3.752 1.07-.208-6.06-1.85-15.842-3.648-10.897-2.003-17.225-3.634-16.34-4.209 3.142-2.04 13.222-4.425 23.035-5.45 22.701-2.368 76.16 4.955 93.238 12.772 5.13 2.348 6.287 3.514 8.85 8.926 6.42 13.559 12.785 40.792 11.838 50.652-.743 7.734-2.272 9.097-9.223 8.222-7.894-.993-20.643-3.36-33.193-6.162-10.496-2.344-14.982-2.466-7.812-.213l20.334 6.39 16.594 5.216 3.357 10.477c11.955 15.572 8.264 32.242 8.36 49.64.072 14.253-1.396 26.55-3.668 30.718-1.915 3.51-32.402-21.16-45.633-36.926-4.71-5.613-8.565-9.505-8.565-8.649 0 2.586 12.127 21.061 18.852 28.72 7.369 8.391 20.135 16.694 27.16 22.548l5.662 3.096-3.361 8.414c1.662 10.55-11.45 25.58-13.623 28.492-1.438 1.926-4.965.576-58.133-22.258-31.131-13.37-57.174-24.43-57.877-24.584-.888-.192-43.38 49.577-67.21 77.578v5.666s0 8 8 8h224c8 0 8-8 8-8v-288c0-8-8-8-8-8z" enable-background="new" opacity=".2"/><path fill="#fff" d="M168 66c-8 0-8 8-8 8v103.85l39.33-10.57 18.111 7.488c9.96 4.119 18.347 7.25 18.639 6.96.291-.292-7.513-4.597-17.342-9.567-20.786-10.511-29.92-17.817-34.832-27.855-2.882-5.89-2.973-6.56-1.678-12.348 1.338-5.978 7.837-17.15 12.354-21.236 2.167-1.96 3.355-1.887 34.46 2.103 17.716 2.274 33.088 3.961 34.157 3.752 1.07-.208-6.06-1.85-15.842-3.648-10.897-2.003-17.225-3.634-16.34-4.209 3.142-2.04 13.222-4.425 23.035-5.45 22.701-2.368 76.16 4.955 93.238 12.772 5.13 2.348 6.287 3.514 8.85 8.926 6.42 13.559 12.785 40.792 11.838 50.652-.743 7.734-2.272 9.097-9.223 8.222-7.894-.993-20.643-3.36-33.193-6.162-10.496-2.344-14.982-2.466-7.812-.213l20.334 6.39 16.594 5.216 3.357 10.477c11.955 15.572 8.264 32.242 8.36 49.64.072 14.253-1.396 26.55-3.668 30.718-1.915 3.51-32.402-21.16-45.633-36.926-4.71-5.613-8.565-9.505-8.565-8.649 0 2.586 12.127 21.061 18.852 28.72 7.369 8.391 20.135 16.694 27.16 22.548l5.662 3.096-3.361 8.414c1.662 10.55-11.45 25.58-13.623 28.492-1.438 1.926-4.965.576-58.133-22.258-31.131-13.37-57.174-24.43-57.877-24.584-.888-.192-43.38 49.577-67.21 77.578v5.666s0 8 8 8h224c8 0 8-8 8-8v-288c0-8-8-8-8-8z" enable-background="new"/></svg>