<svg width="512" height="512" enable-background="new" version="1.0" xmlns="http://www.w3.org/2000/svg">
 <defs>
  <filter id="a" x="-.024" y="-.024" width="1.048" height="1.048" color-interpolation-filters="sRGB">
   <feGaussianBlur stdDeviation="4.48"/>
  </filter>
  <filter id="d" x="-.024" y="-.024" width="1.048" height="1.048" color-interpolation-filters="sRGB">
   <feGaussianBlur stdDeviation="2.56"/>
  </filter>
  <linearGradient id="b" x1="400" x2="640" y1="92" y2="-148" gradientUnits="userSpaceOnUse">
   <stop offset="0"/>
   <stop stop-opacity="0" offset="1"/>
  </linearGradient>
  <filter id="c" x="-.012" y="-.012" width="1.024" height="1.024" color-interpolation-filters="sRGB">
   <feGaussianBlur stdDeviation="2.1"/>
  </filter>
 </defs>
 <g transform="translate(0,212)">
  <g transform="translate(-208,16)">
   <rect transform="matrix(0,-1,-1,0,0,0)" x="-240" y="-674" width="420" height="420" rx="210" ry="210" filter="url(#c)" opacity=".5"/>
   <rect transform="matrix(0,-1,-1,0,0,0)" x="-252" y="-688" width="448" height="448" rx="224" ry="224" fill="#520053" stroke-width="1.0667"/>
   <rect transform="matrix(0,-1,-1,0,0,0)" x="-256" y="-688" width="448" height="448" rx="224" ry="224" filter="url(#a)" opacity=".1" stroke="#000" stroke-width="8"/>
   <rect transform="matrix(0,-1,-1,0,0,0)" x="-256" y="-688" width="448" height="448" rx="224" ry="224" filter="url(#a)" opacity=".2"/>
   <path d="m464 252c-124.1 0-224-99.904-224-224 0-0.67412 3e-3 -1.3363 0-2 0 124.1 99.904 224 224 224s224-99.904 224-224c-3e-3 0.66367 0 1.3259 0 2 0 124.1-99.904 224-224 224z" opacity=".2"/>
   <circle cx="497.94" cy="-5.9411" r="176" fill="url(#b)" opacity=".2"/>
   <circle cx="464" cy="32" r="128" filter="url(#d)" opacity=".2"/>
   <circle cx="464" cy="28" r="128" fill="#d8d8d8"/>
   <path d="m416 92v-128l112 64z" fill="#3f3f3f" fill-rule="evenodd"/>
   <path d="m464 238c-116.34 0-210-93.66-210-210 0-0.33431 0.0102-0.66607 0.0117-1 0.53616 115.88 93.983 209 209.99 209s209.45-93.125 209.99-209c2e-3 0.33393 0.0117 0.66569 0.0117 1 0 116.34-93.66 210-210 210z" opacity=".2"/>
   <path transform="translate(0,-244)" d="m464 48c-124.1 0-224 99.904-224 224 0 0.33437 0.0103 0.66598 0.0117 1 0.5364-123.63 100.23-223 223.99-223s223.45 99.369 223.99 223c0.00145-0.33402 0.01172-0.66563 0.01172-1 0-124.1-99.904-224-224-224z" fill="#fff" opacity=".15"/>
   <path transform="translate(0,-244)" d="m464 144a128 128 0 0 0-128 128 128 128 0 0 0 0.041 1.1719 128 128 0 0 1 127.96-127.17 128 128 0 0 1 127.96 126.83 128 128 0 0 0 0.04102-0.82812 128 128 0 0 0-128-128z" fill="#fff" opacity=".4"/>
  </g>
 </g>
</svg>
