<svg xmlns="http://www.w3.org/2000/svg" width="512" height="512" enable-background="new" version="1.0"><defs><filter id="b" width="1.048" height="1.048" x="-.024" y="-.024" color-interpolation-filters="sRGB"><feGaussianBlur stdDeviation="4.48"/></filter><filter id="e" width="1.048" height="1.048" x="-.024" y="-.024" color-interpolation-filters="sRGB"><feGaussianBlur stdDeviation="2.56"/></filter><filter id="a" width="1.024" height="1.024" x="-.012" y="-.012" color-interpolation-filters="sRGB"><feGaussianBlur stdDeviation="2.1"/></filter><linearGradient id="d" x1="400" x2="640" y1="92" y2="-148" gradientUnits="userSpaceOnUse"><stop offset="0"/><stop offset="1" stop-opacity="0"/></linearGradient></defs><g transform="translate(-208 228)"><rect width="420" height="420" x="-240" y="-674" filter="url(#a)" opacity=".5" rx="210" ry="210" transform="scale(1 -1)rotate(90)"/><rect width="448" height="448" x="-252" y="-688" fill="#520053" rx="224" ry="224" transform="scale(1 -1)rotate(90)"/><rect width="448" height="448" x="-256" y="-688" stroke="#000" stroke-width="8" filter="url(#b)" opacity=".1" rx="224" ry="224" transform="scale(1 -1)rotate(90)"/><rect width="448" height="448" x="-256" y="-688" filter="url(#b)" opacity=".2" rx="224" ry="224" transform="scale(1 -1)rotate(90)"/><path d="M464 252c-124.1 0-224-99.904-224-224 0-.674.003-1.336 0-2 0 124.1 99.904 224 224 224s224-99.904 224-224c-.003.664 0 1.326 0 2 0 124.1-99.904 224-224 224" opacity=".2"/><circle cx="497.94" cy="-5.941" r="176" fill="url(#d)" opacity=".2"/><circle cx="464" cy="32" r="128" filter="url(#e)" opacity=".2"/><circle cx="464" cy="28" r="128" fill="#d8d8d8"/><path fill="#3f3f3f" fill-rule="evenodd" d="M416 92V-36l112 64z"/><path d="M464 238c-116.34 0-210-93.66-210-210 0-.334.01-.666.012-1 .536 115.88 93.983 209 209.99 209s209.45-93.125 209.99-209c.002.334.011.666.011 1 0 116.34-93.66 210-210 210z" opacity=".2"/><path fill="#fff" d="M464-196c-124.1 0-224 99.904-224 224 0 .334.01.666.012 1 .536-123.63 100.23-223 223.99-223s223.45 99.369 223.99 223c.001-.334.011-.666.011-1 0-124.1-99.904-224-224-224z" opacity=".15"/><path fill="#fff" d="M464-100A128 128 0 0 0 336 28a128 128 0 0 0 .041 1.172 128 128 0 0 1 127.96-127.17 128 128 0 0 1 127.96 126.83l.041-.828a128 128 0 0 0-128-128z" opacity=".4"/></g></svg>