<svg xmlns="http://www.w3.org/2000/svg" width="512" height="512" enable-background="new" version="1.0"><defs><filter id="a" width="1.045" height="1.052" x="-.022" y="-.026" color-interpolation-filters="sRGB"><feGaussianBlur stdDeviation="4.16"/></filter><filter id="c" width="1.24" height="1.24" x="-.12" y="-.12" color-interpolation-filters="sRGB"><feGaussianBlur stdDeviation="3.2"/></filter><filter id="e" width="1.25" height="1.231" x="-.125" y="-.115" color-interpolation-filters="sRGB"><feGaussianBlur stdDeviation="7.689"/></filter><filter id="b" width="1.12" height="1.12" x="-.06" y="-.06" color-interpolation-filters="sRGB"><feGaussianBlur stdDeviation="1.6"/></filter></defs><g transform="translate(-208 228)"><g transform="scale(1 -1)rotate(90)"><rect width="384" height="448" x="-224" y="-688" enable-background="new" filter="url(#a)" opacity=".1" rx="36" ry="36"/><rect width="384" height="448" x="-224" y="-688" enable-background="new" filter="url(#a)" opacity=".2" rx="36" ry="36"/><rect width="384" height="448" x="-222" y="-688" enable-background="new" opacity=".2" rx="36" ry="36"/></g><path fill="#9c27b0" d="M276-164c-19.944 0-36 16.056-36 36v252h448v-252c0-19.944-16.056-36-36-36z" enable-background="new"/><path fill="#fff" d="M276-164c-19.944 0-36 16.056-36 36v2c0-19.944 16.056-36 36-36h376c19.944 0 36 16.056 36 36v-2c0-19.944-16.056-36-36-36z" enable-background="new" opacity=".2"/><path fill="#f2f2f2" d="M240 124v60c0 19.944 16.056 36 36 36h376c19.944 0 36-16.056 36-36v-60z" enable-background="new"/><path fill="#fff" d="M240 124v2h448v-2z" enable-background="new"/><rect width="128" height="32" x="528" y="156" fill="#999" enable-background="new" rx="0" ry="16"/><rect width="256" height="32" x="272" y="156" fill="#9c27b0" enable-background="new" rx="0" ry="16"/><circle cx="528" cy="176" r="32" enable-background="new" filter="url(#b)" opacity=".1"/><circle cx="528" cy="178" r="32" enable-background="new" filter="url(#c)" opacity=".2"/><circle cx="528" cy="172" r="32" fill="#fff" enable-background="new"/><path d="M407.1-88c-3.924-.002-7.105 3.186-7.103 7.117v145.76c-.001 5.407 5.78 8.839 10.513 6.24l133.35-72.88c4.92-2.699 4.92-9.779 0-12.479L423.84-79.838l-13.331-7.283a7.1 7.1 0 0 0-3.41-.876z" color="#000" enable-background="accumulate" filter="url(#e)" opacity=".1" style="isolation:auto;mix-blend-mode:normal;text-decoration-color:#000;text-decoration-line:none;text-decoration-style:solid;text-indent:0;text-transform:none;white-space:normal"/><path fill="#f3e5f5" d="M407.1-100c-3.924-.002-7.105 3.186-7.103 7.117v145.76c-.001 5.407 5.78 8.839 10.513 6.24l133.35-72.88c4.92-2.699 4.92-9.779 0-12.479L423.84-91.838l-13.331-7.283a7.1 7.1 0 0 0-3.41-.876z" color="#000" enable-background="accumulate" style="isolation:auto;mix-blend-mode:normal;text-decoration-color:#000;text-decoration-line:none;text-decoration-style:solid;text-indent:0;text-transform:none;white-space:normal"/></g></svg>