<svg width="512" height="512" enable-background="new" version="1.0" xmlns="http://www.w3.org/2000/svg" xmlns:osb="http://www.openswatchbook.org/uri/2009/osb" xmlns:xlink="http://www.w3.org/1999/xlink">
 <defs>
  <filter id="a" x="-.024" y="-.024" width="1.048" height="1.048" color-interpolation-filters="sRGB">
   <feGaussianBlur stdDeviation="4.8"/>
  </filter>
  <filter id="b" x="-.024" y="-.024" width="1.048" height="1.048" color-interpolation-filters="sRGB">
   <feGaussianBlur stdDeviation="3.2"/>
  </filter>
  <filter id="c" x="-.12" y="-.12" width="1.24" height="1.24" color-interpolation-filters="sRGB">
   <feGaussianBlur stdDeviation="16"/>
  </filter>
 </defs>
 <g transform="translate(0,212)">
  <g>
   <g transform="translate(-208,16)">
    <g>
     <circle cx="464" cy="30" r="240" opacity=".2"/>
     <circle cx="464" cy="32" r="240" filter="url(#a)" opacity=".1"/>
     <circle cx="464" cy="32" r="240" filter="url(#a)" opacity=".2"/>
    </g>
    <circle cx="464" cy="28" r="240" fill="#ff6d00"/>
    <path transform="translate(0,-244)" d="m 464,32 a 240,240 0 0 0 -240,240 240,240 0 0 0 0.041,1.17188 A 240,240 0 0 1 464,34 240,240 0 0 1 703.95898,272.82812 240,240 0 0 0 704,272 240,240 0 0 0 464,32 Z" fill="#fff" opacity=".2"/>
    <rect transform="matrix(0 -1 -1 0 -6e-6 2)" x="-192" y="-624" width="320" height="320" rx="160" ry="160" enable-background="new" filter="url(#b)" opacity=".1"/>
    <rect transform="matrix(0 -1 -1 0 -6e-6 10)" x="-192" y="-624" width="320" height="320" rx="160" ry="160" enable-background="new" filter="url(#c)" opacity=".2"/>
    <rect transform="matrix(0,-1,-1,0,0,0)" x="-188" y="-624" width="320" height="320" rx="160" ry="160" enable-background="new" fill="#ffbc00"/>
    <path d="m464-132c-88.64 0-160 71.36-160 160 0 0.33434 0.0116 0.66616 0.0137 1 0.53549-88.175 71.681-159 159.99-159s159.45 70.825 159.99 159c2e-3 -0.33384 0.0137-0.66566 0.0137-1 0-88.64-71.36-160-160-160z" enable-background="new" fill="#fff" opacity=".4"/>
    <g transform="translate(-6e-6,-6e-6)" enable-background="new" fill="#fff">
     <rect x="424" y="-32" width="24" height="104" rx="0" ry="0"/>
     <rect x="520" y="-32" width="24" height="104" rx="0" ry="0"/>
     <circle cx="412" cy="72" r="36"/>
     <rect x="424" y="-60" width="120" height="48"/>
     <circle cx="508" cy="72" r="36"/>
    </g>
   </g>
  </g>
 </g>
</svg>
