<svg xmlns="http://www.w3.org/2000/svg" width="512" height="512" enable-background="new" version="1.0"><defs><filter id="a" width="1.045" height="1.052" x="-.022" y="-.026" color-interpolation-filters="sRGB"><feGaussianBlur stdDeviation="4.16"/></filter><filter id="b" width="1.12" height="1.12" x="-.06" y="-.06" color-interpolation-filters="sRGB"><feGaussianBlur stdDeviation="3.2"/></filter></defs><path stroke="#000" stroke-width="8" d="M264-160c-13.296 0-24 10.704-24 24v336s.125 1.493.5 3.75c.138.86.274 1.674.5 2.5 1.778 7.132 7 17.814 23 17.75h400c8.294 0 15.47-4.363 19.75-10.75 2.728-3.705 4.25-8.27 4.25-13.25v-336c0-13.296-10.704-24-24-24z" filter="url(#a)" opacity=".1" transform="translate(-208 228)"/><path d="M264-160c-13.296 0-24 10.704-24 24v336s.125 1.493.5 3.75c.138.86.274 1.674.5 2.5 1.778 7.132 7 17.814 23 17.75h400c8.294 0 15.47-4.363 19.75-10.75 2.728-3.705 4.25-8.27 4.25-13.25v-336c0-13.296-10.704-24-24-24z" filter="url(#a)" opacity=".2" transform="translate(-208 228)"/><path fill="#ff8a65" d="M56 64c-13.296 0-24 10.704-24 24v264h448V88c0-13.296-10.704-24-24-24z"/><path fill="#fff" d="M56 64c-13.296 0-24 10.704-24 24v2c0-13.296 10.704-24 24-24h400c13.296 0 24 10.704 24 24v-2c0-13.296-10.704-24-24-24z" opacity=".2"/><path fill-rule="evenodd" d="M560-68c35.346 0 64 28.654 64 64s-28.654 64-64 64-64-28.654-64-64 28.654-64 64-64" color="#000" enable-background="new" filter="url(#b)" opacity=".2" transform="translate(-208 228)"/><path fill="#fef8e2" fill-rule="evenodd" d="M352 152c35.346 0 64 28.654 64 64s-28.654 64-64 64-64-28.654-64-64 28.654-64 64-64" color="#000" enable-background="new"/><path fill="#ec407a" d="M32 352v72s0 23.976 24 24l401.6.4c12.41.012 22.4-9.99 22.4-22.4v-74z"/><path d="M32 352v-12.8s32.306-21.332 41.389-23.194 19.809-.346 30.833 1.734c11.024 2.074 27.482 4.878 32.618 5.054 5.137.179 14.432-.448 25.232-1.101 10.8-.64 28.682-1.23 34.26-1.165 5.578 0 19.502.768 34.344 1.674 14.843.908 35.229 2.427 39.855 2.852 4.626.422 10.063 1.203 16.233 2.054 6.17.845 16.852 2.121 20.631 2.472 3.779.345 12.54 1.55 22.705 2.486 10.165.934 26.432 1.254 31.13.908s14.544-3.824 25.518-7.03 23.073-6.141 32.277-5.415c9.204.729 60.977 18.669 60.977 18.669V352z" opacity=".8"/><path d="M32 351.16v12.8s32.306 21.332 41.389 23.194 19.809.346 30.833-1.734c11.024-2.074 27.482-4.879 32.618-5.054 5.137-.179 14.432.448 25.232 1.101 10.8.64 28.682 1.23 34.26 1.165 5.578 0 19.502-.768 34.344-1.674 14.843-.908 35.229-2.427 39.855-2.852 4.626-.422 10.063-1.203 16.233-2.054 6.17-.845 16.852-2.121 20.631-2.472 3.779-.345 12.54-1.55 22.705-2.486 10.165-.934 26.432-1.254 31.13-.908s14.544 3.824 25.518 7.03 23.073 6.141 32.277 5.415c9.204-.729 60.977-18.669 60.977-18.669V351.16z" opacity=".1"/></svg>