<svg xmlns="http://www.w3.org/2000/svg" width="512" height="512" enable-background="new" version="1.0"><defs><filter id="a" width="1.043" height="1.054" x="-.021" y="-.027" color-interpolation-filters="sRGB"><feGaussianBlur stdDeviation="4"/></filter><filter id="c" width="1.043" height="1.054" x="-.022" y="-.027" color-interpolation-filters="sRGB"><feGaussianBlur stdDeviation="2.232"/></filter></defs><g transform="translate(-208 2756)"><rect width="352" height="448" x="-208" y="-688" filter="url(#a)" opacity=".2" rx="24" ry="24" transform="matrix(0 -1 -1 0 .002 -2528)"/><rect width="352" height="448" x="-208" y="-688" stroke="#000" stroke-width="8" filter="url(#a)" opacity=".1" rx="24" ry="24" transform="matrix(0 -1 -1 0 .002 -2528)"/><path fill="#03a9f4" d="M264-2676c-13.296 0-24 10.704-24 24v304c0 13.296 10.704 24 24 24h400c13.296 0 24-10.704 24-24v-304c0-13.296-10.704-24-24-24z"/><path fill="#fff" d="M264-2676c-13.296 0-24 10.704-24 24v2c0-13.296 10.704-24 24-24h400c13.296 0 24 10.704 24 24v-2c0-13.296-10.704-24-24-24z" opacity=".2"/><path d="M264-2324c-13.296 0-24-10.704-24-24v-2c0 13.296 10.704 24 24 24h400c13.296 0 24-10.704 24-24v2c0 13.296-10.704 24-24 24z" opacity=".1"/><path d="M431.5-712H600c4.155 0 7.5 3.568 7.5 8v215c0 4.432-3.345 8-7.5 8H431.5c-4.155 0-7.5-3.568-7.5-8v-215c0-4.432 3.345-8 7.5-8" enable-background="new" filter="url(#c)" opacity=".2" transform="matrix(0 -1 -1 0 0 -2088)"/><path fill="#eee" d="M712-2523.5v-169c0-4.155-3.568-7.5-8-7.5H489c-4.432 0-8 3.345-8 7.5v169c0 4.155 3.568 7.5 8 7.5h215c4.432 0 8-3.345 8-7.5" enable-background="new"/><path d="M431.5-712H600c4.155 0 7.5 3.568 7.5 8v215c0 4.432-3.345 8-7.5 8H431.5c-4.155 0-7.5-3.568-7.5-8v-215c0-4.432 3.345-8 7.5-8" enable-background="new" filter="url(#c)" opacity=".2" transform="matrix(0 -1 -1 0 -264 -2088)"/><path fill="#eee" d="M448-2523.5v-169c0-4.155-3.568-7.5-8-7.5H225c-4.432 0-8 3.345-8 7.5v169c0 4.155 3.568 7.5 8 7.5h215c4.432 0 8-3.345 8-7.5" enable-background="new"/><path d="M431.5-714H600c4.155 0 7.5 3.568 7.5 8v217c0 4.432-3.345 8-7.5 8H431.5c-4.155 0-7.5-3.568-7.5-8v-217c0-4.432 3.345-8 7.5-8" enable-background="new" filter="url(#c)" opacity=".2" transform="matrix(0 -1 -1 0 -129 -1872)"/><path fill="#eee" d="M585-2307.5v-169c0-4.155-3.568-7.5-8-7.5H360c-4.432 0-8 3.345-8 7.5v169c0 4.155 3.568 7.5 8 7.5h217c4.432 0 8-3.345 8-7.5" enable-background="new"/></g></svg>