<svg xmlns="http://www.w3.org/2000/svg" width="512" height="512" enable-background="new" version="1.0"><defs><filter id="e" width="1.12" height="1.12" x="-.06" y="-.06" color-interpolation-filters="sRGB"><feGaussianBlur stdDeviation="3.15"/></filter><filter id="d" width="1.036" height="1.072" x="-.018" y="-.036" color-interpolation-filters="sRGB"><feGaussianBlur stdDeviation="1.68"/></filter><filter id="a" width="1.048" height="1.048" x="-.024" y="-.024" color-interpolation-filters="sRGB"><feGaussianBlur stdDeviation="4.8"/></filter><clipPath id="b"><path fill="#1ea362" d="M464 28 352 140V28z"/></clipPath></defs><path d="M464-208v120H344L224 32h120v120l120 120V152h120L704 32H584V-88z" filter="url(#a)" opacity=".1" transform="translate(-208 228)"/><path d="M464-208v120H344L224 32h120v120l120 120V152h120L704 32H584V-88z" filter="url(#a)" opacity=".2" transform="translate(-208 228)"/><path fill="#fec006" d="M136 136c64.326 26.732 93.949 72.391 120 120H16z"/><path fill="#f34235" d="M376 136c-28.152 70.804-74.731 93.7-120 120V16z"/><path fill="#4bae4f" d="m136 376 120 120V256c-51.83 24.226-89.32 67.574-120 120"/><path fill="#2095f2" d="M376 376c-55.21-26.48-96.597-65.247-120-120h240z"/><path fill="#9c27b0" d="m256 256 120-120v120z"/><path fill="#1ea362" d="M256 256 136 376V256z"/><path fill="#fff" d="M136 376h2.143l119.37-119.37c-.51-.207-1-.423-1.515-.628z" opacity=".2"/><path fill="#3e50b4" d="M376 376 256 256v120z"/><path d="M352-80c60.037 24.949 87.686 67.565 112 112H240z" clip-path="url(#b)" filter="url(#d)" opacity=".1" transform="matrix(0 -1.0714 1.0714 0 226 753.14)"/><path d="m464-31-21 42-42 21 42 21 21 42 21-42 42-21-42-21z" filter="url(#e)" opacity=".2" transform="translate(-241.143 226)scale(1.0714)"/><path fill="#fe9700" d="m136 136 120 120V136z"/><path d="M352-80c60.037 24.949 87.686 67.565 112 112H240z" clip-path="url(#b)" filter="url(#d)" opacity=".1" transform="rotate(180 376.57 143)scale(1.0714)"/><path d="M352-80c60.037 24.949 87.686 67.565 112 112H240z" clip-path="url(#b)" filter="url(#d)" opacity=".05" transform="rotate(90 263.57 22.43)scale(1.0714)"/><path d="M352-80c60.037 24.949 87.686 67.565 112 112H240z" clip-path="url(#b)" filter="url(#d)" opacity=".1" transform="translate(-241.143 226)scale(1.0714)"/><path fill="#fff" d="m256 188.5-22.5 45-45 22.5 67.5 8.571L323.5 256l-45-22.5z"/><path fill="#ebebeb" d="m188.5 256 45 22.5 22.5 45V256z"/><path fill="#fff" d="M256 256c.308.72.632 1.428.946 2.143h236.91l2.143-2.143z" opacity=".4"/><path fill="#dfdfdf" d="m323.5 256-45 22.5-22.5 45V256z"/><g fill="#fff"><path d="M136 136 16 256h2.143l117.86-117.86h120v-2.143zM256 16v2.143l119.37 119.37c.207-.51.423-1 .628-1.515z" opacity=".4"/><path d="M136 136v2.143l119.37 119.37c.207-.51.423-1 .628-1.515z" opacity=".1"/></g></svg>