<svg xmlns="http://www.w3.org/2000/svg" width="512" height="512" enable-background="new" version="1.0"><defs><filter id="a" width="1.048" height="1.048" x="-.024" y="-.024" color-interpolation-filters="sRGB"><feGaussianBlur stdDeviation="4.8"/></filter><filter id="b" width="1.048" height="1.048" x="-.024" y="-.024" color-interpolation-filters="sRGB"><feGaussianBlur stdDeviation="3.2"/></filter><filter id="c" width="1.24" height="1.24" x="-.12" y="-.12" color-interpolation-filters="sRGB"><feGaussianBlur stdDeviation="16"/></filter></defs><g transform="translate(-208 228)"><circle cx="464" cy="30" r="240" opacity=".2"/><circle cx="464" cy="32" r="240" filter="url(#a)" opacity=".1"/><circle cx="464" cy="32" r="240" filter="url(#a)" opacity=".2"/><circle cx="464" cy="28" r="240" fill="#ff6d00"/><path fill="#fff" d="M464-212A240 240 0 0 0 224 28l.041 1.172A240 240 0 0 1 464-210 240 240 0 0 1 703.959 28.828L704 28a240 240 0 0 0-240-240" opacity=".2"/><rect width="320" height="320" x="-192" y="-624" enable-background="new" filter="url(#b)" opacity=".1" rx="160" ry="160" transform="matrix(0 -1 -1 0 0 2)"/><rect width="320" height="320" x="-192" y="-624" enable-background="new" filter="url(#c)" opacity=".2" rx="160" ry="160" transform="matrix(0 -1 -1 0 0 10)"/><rect width="320" height="320" x="-188" y="-624" fill="#ffbc00" enable-background="new" rx="160" ry="160" transform="scale(1 -1)rotate(90)"/><path fill="#fff" d="M464-132c-88.64 0-160 71.36-160 160 0 .334.012.666.014 1 .535-88.175 71.68-159 159.99-159s159.45 70.825 159.99 159c.002-.334.013-.666.013-1 0-88.64-71.36-160-160-160z" enable-background="new" opacity=".4"/><g fill="#fff"><rect width="24" height="104" x="424" y="-32" rx="0" ry="0"/><rect width="24" height="104" x="520" y="-32" rx="0" ry="0"/><circle cx="412" cy="72" r="36"/><path d="M424-60h120v48H424z"/><circle cx="508" cy="72" r="36"/></g></g></svg>