<svg xmlns="http://www.w3.org/2000/svg" width="512" height="512" enable-background="new" version="1.0"><defs><filter id="b" width="1.036" height="1.072" x="-.018" y="-.036" color-interpolation-filters="sRGB"><feGaussianBlur stdDeviation="3.36"/></filter><filter id="a" width="1.05" height="1.046" x="-.025" y="-.023" color-interpolation-filters="sRGB"><feGaussianBlur stdDeviation="3.32"/></filter></defs><path d="M408-192c-57.616 0-104 46.384-104 104V52h48V-88c0-22.424 13.051-41.681 32-50.639V-64c0 44.32 35.68 80 80 80s80-35.68 80-80v-74.639c18.949 8.957 32 28.215 32 50.639V52h48V-88c0-57.616-46.384-104-104-104h-24v128c0 17.728-14.272 32-32 32s-32-14.272-32-32v-128z" filter="url(#a)" opacity=".2" transform="translate(-208 228)"/><path d="M408-192c-57.616 0-104 46.384-104 104V52h48V-88c0-22.424 13.051-41.681 32-50.639V-64c0 44.32 35.68 80 80 80s80-35.68 80-80v-74.639c18.949 8.957 32 28.215 32 50.639V52h48V-88c0-57.616-46.384-104-104-104h-24v128c0 17.728-14.272 32-32 32s-32-14.272-32-32v-128z" filter="url(#a)" opacity=".1" transform="translate(-208 228)"/><path d="M200 34C142.384 34 96 80.384 96 138v240h48V138c0-22.424 13.051-41.681 32-50.639V162c0 44.32 35.68 80 80 80s80-35.68 80-80V87.361c18.949 8.957 32 28.215 32 50.639v240h48V138c0-57.616-46.384-104-104-104h-24v128c0 17.728-14.272 32-32 32s-32-14.272-32-32V34z" opacity=".2"/><path d="M352 32c-61.856 0-112 50.144-112 112s50.144 112 112 112zm16 0v224h32V32zm160 0v224h32V32zm48 0v224c61.856 0 112-50.144 112-112S637.856 32 576 32" filter="url(#b)" opacity=".2" transform="translate(-208 228)"/><path fill="#1976d2" d="M200 32C142.384 32 96 78.384 96 136v240h48V136c0-22.424 13.051-41.681 32-50.639V160c0 44.32 35.68 80 80 80s80-35.68 80-80V85.361c18.949 8.957 32 28.215 32 50.639v240h48V136c0-57.616-46.384-104-104-104h-24v128c0 17.728-14.272 32-32 32s-32-14.272-32-32V32z"/><path d="M144 258c-61.856 0-112 50.144-112 112s50.144 112 112 112zm16 0v224h32V258zm160 0v224h32V258zm48 0v224c61.856 0 112-50.144 112-112s-50.144-112-112-112" opacity=".2"/><path d="M352 32c-61.856 0-112 50.144-112 112s50.144 112 112 112zm16 0v224h32V32zm160 0v224h32V32zm48 0v224c61.856 0 112-50.144 112-112S637.856 32 576 32" filter="url(#b)" opacity=".1" transform="translate(-208 228)"/><path fill="#2196f3" d="M144 256c-61.856 0-112 50.144-112 112s50.144 112 112 112zm16 0v224h32V256zm160 0v224h32V256zm48 0v224c61.856 0 112-50.144 112-112s-50.144-112-112-112"/><path fill="#fff" d="M200 32C142.384 32 96 78.384 96 136v2c0-57.616 46.384-104 104-104h24v-2zm88 0v2h24c57.616 0 104 46.384 104 104v-2c0-57.616-46.384-104-104-104zm-64 128v2c0 17.728 14.272 32 32 32s32-14.272 32-32v-2c0 17.728-14.272 32-32 32s-32-14.272-32-32M144 256c-61.856 0-112 50.144-112 112 0 .334.01.666.014 1 .538-61.395 50.465-111 111.99-111zm16 0v2h32v-2zm160 0v2h32v-2zm48 0v2c61.522 0 111.45 49.605 111.99 111 .003-.334.014-.666.014-1 0-61.856-50.144-112-112-112z" opacity=".2"/></svg>