<svg width="512" height="512" enable-background="new" version="1.0" xmlns="http://www.w3.org/2000/svg" xmlns:xlink="http://www.w3.org/1999/xlink">
 <defs>
  <filter id="b" x="-.018" y="-.036" width="1.036" height="1.072" color-interpolation-filters="sRGB">
   <feGaussianBlur stdDeviation="3.36"/>
  </filter>
  <filter id="a" x="-.0249" y="-.023163" width="1.0498" height="1.0463" color-interpolation-filters="sRGB">
   <feGaussianBlur stdDeviation="3.32"/>
  </filter>
 </defs>
 <g transform="translate(0,212)">
  <g>
   <g transform="translate(-208,16)">
    <g>
     <path d="m408-192c-57.616 0-104 46.384-104 104v140h48v-140c0-22.424 13.051-41.681 32-50.639v74.639c0 44.32 35.68 80 80 80s80-35.68 80-80v-74.639c18.949 8.9574 32 28.215 32 50.639v140h48v-140c0-57.616-46.384-104-104-104h-24v128c0 17.728-14.272 32-32 32s-32-14.272-32-32v-128z" filter="url(#a)" opacity=".2"/>
     <path d="m408-192c-57.616 0-104 46.384-104 104v140h48v-140c0-22.424 13.051-41.681 32-50.639v74.639c0 44.32 35.68 80 80 80s80-35.68 80-80v-74.639c18.949 8.9574 32 28.215 32 50.639v140h48v-140c0-57.616-46.384-104-104-104h-24v128c0 17.728-14.272 32-32 32s-32-14.272-32-32v-128z" filter="url(#a)" opacity=".1"/>
     <path d="m408-194c-57.616 0-104 46.384-104 104v240h48v-240c0-22.424 13.051-41.681 32-50.639v74.639c0 44.32 35.68 80 80 80s80-35.68 80-80v-74.639c18.949 8.9574 32 28.215 32 50.639v240h48v-240c0-57.616-46.384-104-104-104h-24v128c0 17.728-14.272 32-32 32s-32-14.272-32-32v-128z" opacity=".2"/>
     <path d="m352 32c-61.856 0-112 50.144-112 112s50.144 112 112 112zm16 0v224h32v-224zm160 0v224h32v-224zm48 0v224c61.856 0 112-50.144 112-112s-50.144-112-112-112z" filter="url(#b)" opacity=".2"/>
    </g>
    <path transform="translate(0,-244)" d="m408 48c-57.616 0-104 46.384-104 104v240h48v-240c0-22.424 13.051-41.681 32-50.639v74.639c0 44.32 35.68 80 80 80s80-35.68 80-80v-74.639c18.949 8.9574 32 28.215 32 50.639v240h48v-240c0-57.616-46.384-104-104-104h-24v128c0 17.728-14.272 32-32 32s-32-14.272-32-32v-128z" fill="#1976d2"/>
    <path d="m352 30c-61.856 0-112 50.144-112 112s50.144 112 112 112zm16 0v224h32v-224zm160 0v224h32v-224zm48 0v224c61.856 0 112-50.144 112-112s-50.144-112-112-112z" opacity=".2"/>
    <path d="m352 32c-61.856 0-112 50.144-112 112s50.144 112 112 112zm16 0v224h32v-224zm160 0v224h32v-224zm48 0v224c61.856 0 112-50.144 112-112s-50.144-112-112-112z" filter="url(#b)" opacity=".1"/>
    <path transform="translate(0,-244)" d="m352 272c-61.856 0-112 50.144-112 112s50.144 112 112 112zm16 0v224h32v-224zm160 0v224h32v-224zm48 0v224c61.856 0 112-50.144 112-112s-50.144-112-112-112z" fill="#2196f3"/>
    <path transform="translate(0,-244)" d="m408 48c-57.616 0-104 46.384-104 104v2c0-57.616 46.384-104 104-104h24v-2zm88 0v2h24c57.616 0 104 46.384 104 104v-2c0-57.616-46.384-104-104-104zm-64 128v2c0 17.728 14.272 32 32 32s32-14.272 32-32v-2c0 17.728-14.272 32-32 32s-32-14.272-32-32z" fill="#fff" opacity=".2"/>
    <path transform="translate(0,-244)" d="m352 272c-61.856 0-112 50.144-112 112 0 0.33436 0.0108 0.66633 0.0137 1 0.53803-61.395 50.465-111 111.99-111zm16 0v2h32v-2zm160 0v2h32v-2zm48 0v2c61.522 0 111.45 49.605 111.99 111 3e-3 -0.33367 0.0137-0.66564 0.0137-1 0-61.856-50.144-112-112-112z" fill="#fff" opacity=".2"/>
   </g>
  </g>
 </g>
</svg>
