<svg xmlns="http://www.w3.org/2000/svg" width="512" height="512" enable-background="new" version="1.0"><defs><filter id="a" width="1.051" height="1.045" x="-.026" y="-.023" color-interpolation-filters="sRGB"><feGaussianBlur stdDeviation="4.444"/></filter></defs><g color="#000"><path d="M464.57-204.4a24.4 24.4 0 0 0-12.815 3.275l-183.52 105.96a24.48 24.48 0 0 0-12.241 21.206v211.92a24.48 24.48 0 0 0 12.241 21.206l183.52 105.96a24.49 24.49 0 0 0 24.482 0l183.52-105.96a24.48 24.48 0 0 0 12.241-21.206v-211.92a24.48 24.48 0 0 0-12.241-21.206l-183.52-105.96a24.5 24.5 0 0 0-11.667-3.275" enable-background="accumulate" filter="url(#a)" opacity=".1" style="isolation:auto;mix-blend-mode:normal;text-decoration-color:#000;text-decoration-line:none;text-decoration-style:solid;text-indent:0;text-transform:none;white-space:normal" transform="translate(-208 228)"/><path d="M464.57-204.4a24.4 24.4 0 0 0-12.815 3.275l-183.52 105.96a24.48 24.48 0 0 0-12.241 21.206v211.92a24.48 24.48 0 0 0 12.241 21.206l183.52 105.96a24.49 24.49 0 0 0 24.482 0l183.52-105.96a24.48 24.48 0 0 0 12.241-21.206v-211.92a24.48 24.48 0 0 0-12.241-21.206l-183.52-105.96a24.5 24.5 0 0 0-11.667-3.275" enable-background="accumulate" filter="url(#a)" opacity=".2" style="isolation:auto;mix-blend-mode:normal;text-decoration-color:#000;text-decoration-line:none;text-decoration-style:solid;text-indent:0;text-transform:none;white-space:normal" transform="translate(-208 228)"/><path d="M464.57-206.4a24.4 24.4 0 0 0-12.815 3.275l-183.52 105.96a24.48 24.48 0 0 0-12.241 21.206v211.92a24.48 24.48 0 0 0 12.241 21.206l183.52 105.96a24.49 24.49 0 0 0 24.482 0l183.52-105.96a24.48 24.48 0 0 0 12.241-21.206v-211.92a24.48 24.48 0 0 0-12.241-21.206l-183.52-105.96a24.5 24.5 0 0 0-11.667-3.275" enable-background="accumulate" opacity=".2" style="isolation:auto;mix-blend-mode:normal;text-decoration-color:#000;text-decoration-line:none;text-decoration-style:solid;text-indent:0;text-transform:none;white-space:normal" transform="translate(-208 228)"/><path fill="#c5cae9" d="M464.57-208.4a24.4 24.4 0 0 0-12.815 3.275l-183.52 105.96a24.48 24.48 0 0 0-12.241 21.206v211.92a24.48 24.48 0 0 0 12.241 21.206l183.52 105.96a24.49 24.49 0 0 0 24.482 0l183.52-105.96a24.48 24.48 0 0 0 12.241-21.206v-211.92a24.48 24.48 0 0 0-12.241-21.206l-183.52-105.96a24.5 24.5 0 0 0-11.667-3.275" enable-background="accumulate" style="isolation:auto;mix-blend-mode:normal;text-decoration-color:#000;text-decoration-line:none;text-decoration-style:solid;text-indent:0;text-transform:none;white-space:normal" transform="translate(-208 228)"/><path fill="#e3f2fd" d="M464 264.41c-4.227 0-8.445-1.11-12.233-3.295l-183.53-105.94a24.49 24.49 0 0 1-12.233-21.215V-77.97c0-3.56.77-7.006 2.195-10.137l205.81 116.1z" enable-background="accumulate" opacity=".5" style="isolation:auto;mix-blend-mode:normal;text-decoration-color:#000;text-decoration-line:none;text-decoration-style:solid;text-indent:0;text-transform:none;white-space:normal" transform="translate(-208 228)"/><path fill="#9fa8da" d="M464 264.41c4.227 0 8.445-1.11 12.233-3.295l183.53-105.94a24.49 24.49 0 0 0 12.233-21.215V-77.97c0-3.56-.77-7.006-2.195-10.137l-205.81 116.1z" enable-background="accumulate" opacity=".5" style="isolation:auto;mix-blend-mode:normal;text-decoration-color:#000;text-decoration-line:none;text-decoration-style:solid;text-indent:0;text-transform:none;white-space:normal" transform="translate(-208 228)"/><path fill="#fff" d="M464.57 35.596a24.4 24.4 0 0 0-12.814 3.275l-183.52 105.96a24.48 24.48 0 0 0-12.24 21.207v2a24.48 24.48 0 0 1 12.24-21.207l183.52-105.96a24.4 24.4 0 0 1 12.814-3.275 24.5 24.5 0 0 1 11.666 3.275l183.52 105.96a24.48 24.48 0 0 1 12.24 21.207v-2a24.48 24.48 0 0 0-12.24-21.207l-183.52-105.96a24.5 24.5 0 0 0-11.666-3.275" enable-background="accumulate" opacity=".2" style="isolation:auto;mix-blend-mode:normal;text-decoration-color:#000;text-decoration-line:none;text-decoration-style:solid;text-indent:0;text-transform:none;white-space:normal" transform="translate(-208 -16)"/></g></svg>