<svg xmlns="http://www.w3.org/2000/svg" width="512" height="512" enable-background="new" version="1.0"><defs><filter id="a" width="1.048" height="1.048" x="-.024" y="-.024" color-interpolation-filters="sRGB"><feGaussianBlur stdDeviation="4.48"/></filter></defs><rect width="448" height="448" x="-482" y="-480" opacity=".2" rx="36" ry="36" transform="scale(1 -1)rotate(90)"/><rect width="448" height="448" x="-256" y="-688" filter="url(#a)" opacity=".1" rx="36" ry="36" transform="matrix(0 -1 -1 0 -208 228)"/><rect width="448" height="448" x="-256" y="-688" filter="url(#a)" opacity=".2" rx="36" ry="36" transform="matrix(0 -1 -1 0 -208 228)"/><rect width="448" height="448" x="-480" y="-480" fill="#d92615" rx="36" ry="36" transform="scale(1 -1)rotate(90)"/><path fill="#fff" d="M68 32c-19.944 0-36 16.056-36 36v2c0-19.944 16.056-36 36-36h376c19.944 0 36 16.056 36 36v-2c0-19.944-16.056-36-36-36z" opacity=".2"/><path fill="#fefefe" fill-rule="evenodd" d="M284.58 265.81c0 13.801-11.262 25.031-25.095 25.031-15.355 0-23.82-13.951-25.191-26.895-2.614-24.688 10.319-38.124 21.634-45.036 4.597-2.797 9.633-4.982 14.905-6.58 0 0 12.194 38.704 13.147 44.715 1.05 6.622.6 8.765.6 8.765m59.94-77.631c-13.49-8.744-30.024-13.544-47.05-14.401l-3.804-13.908.118.14c-.15-.419-.279-.826-.407-1.222l-1.125-4.115c-2.593-11.894 2.121-17.562 4.543-19.598.418-.31.836-.632 1.297-.932 11.112-7.372 26.916 4.447 27.806 5.143 7.018 6.75 19.855 8.422 26.788 1.51 6.997-6.975 5.346-20.036-1.65-27.012-10.898-10.865-44.35-28.3-72.82-9.376-25.589 17.005-26.103 40.943-21.892 54.776l5.112 18.71c-8.562 2.453-16.748 5.968-24.248 10.543-28.01 17.112-42.057 46-38.553 79.25 3.632 34.116 29.199 58.9 60.85 58.9 33.593 0 60.938-27.27 60.938-60.776-.45-7.993-.365-7.908-1.426-15.055-1.06-6.975-11.39-39.764-11.39-39.764 6.344 1.458 12.27 3.847 17.391 7.158 57.787 37.449 33.731 97.068 32.66 99.66-15.9 38.093-50.629 60.83-95.215 62.384-29.059 1.029-56.908-9.804-78.413-30.506-22.673-21.827-35.67-52.397-35.67-83.878 0-47.404 29.905-90.468 74.405-107.12 9.27-3.461 16.748-13.34 11.626-24.816-4.028-9.022-14.948-12.12-24.227-8.636-58.408 21.848-97.658 78.349-97.658 140.57 0 41.125 16.994 81.07 46.622 109.59 27.334 26.295 62.491 40.61 99.511 40.6 1.683 0 3.376-.022 5.058-.086 58.344-2.047 105.83-33.581 126.97-84.19 13.222-30.741 20.584-100.3-46.15-143.55"/></svg>