<svg width="512" height="512" enable-background="new" version="1.0" xmlns="http://www.w3.org/2000/svg">
 <defs>
  <filter id="a" x="-.024" y="-.024" width="1.048" height="1.048" color-interpolation-filters="sRGB">
   <feGaussianBlur stdDeviation="4.48"/>
  </filter>
 </defs>
 <rect transform="matrix(0,-1,-1,0,0,0)" x="-482" y="-480" width="448" height="448" rx="36" ry="36" enable-background="new" opacity=".2"/>
 <rect transform="matrix(0,-1,-1,0,-208,228)" x="-256" y="-688" width="448" height="448" rx="36" ry="36" enable-background="new" filter="url(#a)" opacity=".1"/>
 <rect transform="matrix(0,-1,-1,0,-208,228)" x="-256" y="-688" width="448" height="448" rx="36" ry="36" enable-background="new" filter="url(#a)" opacity=".2"/>
 <rect transform="matrix(0,-1,-1,0,0,0)" x="-480" y="-480" width="448" height="448" rx="36" ry="36" enable-background="new" fill="#d92615"/>
 <path d="m68 32c-19.944 0-36 16.056-36 36v2c0-19.944 16.056-36 36-36h376c19.944 0 36 16.056 36 36v-2c0-19.944-16.056-36-36-36z" enable-background="new" fill="#fff" opacity=".2"/>
 <path d="m284.58 265.81c0 13.801-11.262 25.031-25.095 25.031-15.355 0-23.82-13.951-25.191-26.895-2.6145-24.688 10.319-38.124 21.634-45.036 4.5968-2.7966 9.6329-4.9825 14.905-6.5791 0 0 12.194 38.703 13.147 44.714 1.0501 6.622 0.60006 8.765 0.60006 8.765m59.94-77.631c-13.49-8.7436-30.024-13.544-47.05-14.401l-3.8039-13.908 0.11786 0.13926c-0.14996-0.41789-0.27859-0.82507-0.40717-1.2215l-1.1251-4.1146c-2.5931-11.894 2.1216-17.562 4.5432-19.598 0.4179-0.31075 0.83579-0.63219 1.2966-0.93222 11.112-7.372 26.916 4.4468 27.806 5.1433 7.0184 6.7505 19.855 8.4221 26.788 1.5108 6.997-6.9756 5.3468-20.037-1.6501-27.013-10.897-10.865-44.35-28.299-72.82-9.3757-25.588 17.005-26.102 40.943-21.891 54.776l5.1111 18.709c-8.5614 2.4538-16.748 5.9683-24.248 10.544-28.009 17.112-42.057 46-38.553 79.249 3.6324 34.117 29.199 58.901 60.851 58.901 33.592 0 60.937-27.27 60.937-60.776-0.45003-7.9935-0.36431-7.9078-1.4251-15.055-1.0608-6.9756-11.39-39.764-11.39-39.764 6.3434 1.4573 12.269 3.8467 17.391 7.1577 57.787 37.449 33.731 97.068 32.66 99.661-15.901 38.092-50.629 60.83-95.215 62.383-29.059 1.0287-56.908-9.8043-78.413-30.506-22.673-21.827-35.671-52.397-35.671-83.878 0-47.404 29.906-90.468 74.406-107.12 9.2686-3.461 16.748-13.34 11.626-24.816-4.0289-9.0221-14.948-12.119-24.227-8.6364-58.408 21.848-97.658 78.349-97.658 140.57 0 41.125 16.994 81.071 46.622 109.59 27.334 26.295 62.491 40.61 99.511 40.6 1.6823 0 3.3753-0.0214 5.0575-0.0858 58.344-2.0466 105.83-33.581 126.97-84.189 13.222-30.742 20.584-100.3-46.15-143.55" fill="#fefefe" fill-rule="evenodd"/>
</svg>
