<svg width="512" height="512" enable-background="new" version="1.0" xmlns="http://www.w3.org/2000/svg" xmlns:xlink="http://www.w3.org/1999/xlink">
 <defs>
  <filter id="a" x="-.024" y="-.024" width="1.048" height="1.048" color-interpolation-filters="sRGB">
   <feGaussianBlur stdDeviation="4.48"/>
  </filter>
  <filter id="b" x="-.018693" y="-.033515" width="1.0374" height="1.067" color-interpolation-filters="sRGB">
   <feGaussianBlur stdDeviation="2.5348389"/>
  </filter>
 </defs>
 <g transform="translate(0,212)">
  <g>
   <g transform="translate(-208,16)">
    <rect transform="matrix(0,-1,-1,0,0,4)" x="-254" y="-688" width="448" height="448" rx="24" ry="24" filter="url(#a)" opacity=".1" stroke="#000" stroke-width="8"/>
    <rect transform="matrix(0,-1,-1,0,0,4)" x="-254" y="-688" width="448" height="448" rx="24" ry="24" filter="url(#a)" opacity=".2"/>
    <rect transform="matrix(0,-1,-1,0,0,0)" x="-252" y="-640" width="448" height="400" rx="24" ry="24" fill="#3f3f3f"/>
    <path transform="translate(0,-244)" d="m264 48c-13.296 0-24 10.704-24 24v2c0-13.296 10.704-24 24-24h400c13.296 0 24 10.704 24 24v-2c0-13.296-10.704-24-24-24z" fill="#fff" opacity=".2"/>
    <path d="m264 252c-13.296 0-24-10.704-24-24v-2c0 13.296 10.704 24 24 24h400c13.296 0 24-10.704 24-24v2c0 13.296-10.704 24-24 24z" opacity=".1"/>
    <g>
     <path d="m435.58-61.885c-1.19 0.0112-2.3749 0.06797-3.5762 0.10157v2c1.2013-0.0336 2.3862-0.09037 3.5762-0.10157 72.564-0.48006 121.37 58.108 127.87 66.348 0.50686-0.60771 0.80273-0.97266 0.80273-0.97266s-50.631-67.891-128.67-67.375zm-3.5762 17.547c-2.1081 0.06832-3.7483 0.20484-5.7969 0.35156-63.657 4.9805-95.514 53.137-95.514 53.137s0.17721 0.54811 0.44922 1.3555c3.9673-5.6183 35.655-47.844 95.064-52.492 2.0486-0.14672 3.6888-0.28324 5.7969-0.35156zm5.8106 21.205c-1.7848-0.0011-4.0885 0.1004-5.8086 0.20117v2c1.7201-0.10077 4.0238-0.20229 5.8086-0.20117 32.601 0 53.434 22.871 57.879 28.242l0.94727-0.81641s-21.903-29.426-58.826-29.426zm-15.865 19.105c-20.479 0.09082-35.908 19.043-35.908 19.043s0.16599 0.58369 0.45312 1.4785c2.2532-2.626 18.698-20.846 39.615-18.277h0.0996c2.3124 0.28662 3.8345 0.70378 5.7949 1.1543v-2c-1.9604-0.45051-3.4826-0.86767-5.7949-1.1543h-0.0996c-1.4071-0.17281-2.7949-0.2502-4.1602-0.24414zm-126.77 11.002c-0.0725 0.07169-0.54102 0.51758-0.54102 0.51758s34.581 102.32 131.56 111.69c2.1012 0.2072 3.6574 0.32826 5.7969 0.44922v-1.998-2e-3c-2.1394-0.12096-3.6956-0.24202-5.7969-0.44922-90.305-8.723-126.47-97.948-131.02-110.21zm231.95 0.44922c-3.8966 5.3862-42.342 57.07-83.881 57.07-3.7943 0-11.248 2.3104-11.248-1.1016v2 2e-3c3e-3 3.4089 7.4545 1.0996 11.248 1.0996 43.796 0 84.639-58.1 84.639-58.1s-0.53823-0.68259-0.75781-0.9707zm-169.19 5.7539c-0.11475 0.12549-0.45117 0.48047-0.45117 0.48047s14.931 57.209 68.721 67.023c2.0614 0.37396 3.6241 0.6669 5.7949 0.9043v-2c-2.1708-0.2374-3.7336-0.53034-5.7949-0.9043-48.822-8.9082-65.581-56.723-68.27-65.504zm222.09 19.934c-40.724 35.977-82.812 66.322-140.97 66.322-2.3989 0-4.7563-0.04578-7.0527-0.19921v2c2.2964 0.15343 4.6538 0.19921 7.0527 0.19921 58.157 0 100.24-30.345 140.97-66.322 6.3802 5.2296 31.392 17.512 38.924 23.822 0.38287-0.3187 0.76922-0.63711 1.1426-0.95703-5.6823-5.8941-33.314-19.331-40.066-24.865z" color="#bebebe" enable-background="accumulate" filter="url(#b)" opacity=".1" stroke="#000" stroke-width="8"/>
     <path d="m432-196v134.22c1.2013-0.0336 2.3857-0.0896 3.5757-0.1008 78.043-0.51632 128.67 67.375 128.67 67.375s-60.006 74.594-122.5 74.594c-3.3826 0-6.6148-0.16016-9.7475-0.50176v19.651c2.2964 0.15344 4.6545 0.20048 7.0534 0.20048 58.157 0 100.24-30.345 140.97-66.322 6.7521 5.5345 34.384 18.971 40.067 24.865-38.721 33.179-128.99 59.905-180.15 59.905-2.7057 0-5.3342-0.1008-7.9351-0.25088v134.37l232 0.00157s24 0 24-24v-400c0-24-24-24-24-24zm0 313.63v-18.398c-2.164-0.14448-3.708-0.37968-5.7976-0.65184-71.171-9.1635-95.513-89.432-95.513-89.432s31.857-48.157 95.513-53.138c2.0486-0.14672 3.6895-0.28224 5.7976-0.35056 0.0448-0.0017-0.0448 0.0015 0 0v-17.445c-2.0811 0.0784-3.7277 0.18816-5.7976 0.35056-70.508 5.7953-131.56 66.924-131.56 66.924s34.58 102.32 131.56 111.69c2.1012 0.2072 3.6581 0.32928 5.7976 0.45024zm1.1e-4 -161.97-1.1e-4 21.406c1.7203-0.1008 4.0256-0.2016 5.811-0.20048 36.923 0 58.826 29.426 58.826 29.426l-30.026 25.917c-12.1-20.645-17.547-30.93-34.612-34.841v66.021c0 3.412 7.4536 1.1032 11.248 1.1032 43.796 0 84.64-58.101 84.64-58.101s-38.328-52.49-95.887-50.732zm-1.1e-4 107.73c-2.2095-0.45472-3.7734-1.008-5.7976-1.7044-30.324-10.428-40.165-46.671-40.165-46.671s17.554-21.564 40.067-18.799h0.1008c2.3131 0.28672 3.8361 0.70224 5.7975 1.1529v-20.303c-2.1469 0.13104-3.704 0.32144-5.7975 0.55216-42.894 4.7486-68.721 34.038-68.721 34.038s14.931 57.209 68.721 67.024c2.062 0.37408 3.6254 0.66528 5.7974 0.90272z" color="#bebebe" enable-background="accumulate" fill="#76b900"/>
     <path transform="translate(0,-244)" d="m432 182.22c-2.0811 0.0784-3.727 0.18916-5.7969 0.35156-70.508 5.7953-131.56 66.924-131.56 66.924s0.20399 0.5758 0.54102 1.4824c2.8885-2.854 62.243-60.753 131.02-66.406 2.0699-0.1624 3.7158-0.27316 5.7969-0.35156zm2.6836 17.402c-0.8899 1e-3 -1.7842 0.0155-2.6836 0.043v2c54.458-1.6633 91.273 44.703 95.129 49.762 0.21167-0.2926 0.75781-1.0293 0.75781-1.0293s-37.14-50.863-93.203-50.775zm-2.6836 21.449c-2.1458 0.13104-3.7021 0.32014-5.7949 0.55078-42.894 4.7486-68.721 34.039-68.721 34.039s0.17764 0.62609 0.45117 1.5195c2.3101-2.5261 27.406-29.035 68.27-33.559 2.0928-0.23064 3.6491-0.41974 5.7949-0.55078zm2e-3 20.303v2c17.063 3.911 22.509 14.196 34.609 34.84l30.025-25.918s-0.35801-0.47151-0.94727-1.1836l-29.078 25.102c-12.1-20.644-17.546-30.929-34.609-34.84zm131.45 9.0918c-7.168 8.5942-63.33 73.621-121.7 73.621-3.3819 0-6.6141-0.16049-9.7461-0.50195v2c3.132 0.34146 6.3642 0.50195 9.7461 0.50195 62.496 0 122.5-74.594 122.5-74.594s-0.31161-0.40518-0.80273-1.0273zm-232.31 4.043c-0.28364 0.40168-0.44922 0.64453-0.44922 0.64453s24.343 80.27 95.514 89.434c2.0896 0.27216 3.6329 0.50592 5.7969 0.6504v-2c-2.164-0.14448-3.7073-0.37824-5.7969-0.6504-65.939-8.4899-91.636-77.902-95.064-88.078zm55.352 5.9883c-0.17189 0.20033-0.45312 0.52148-0.45312 0.52148s9.8416 36.244 40.166 46.672c2.0242 0.69642 3.5873 1.2504 5.7969 1.7051v-2c-2.2095-0.45472-3.7727-1.0087-5.7969-1.7051-26.772-9.2065-37.549-38.449-39.713-45.193zm232.46 42.439c-39.324 32.734-128.34 58.949-179.01 58.949-2.7057 0-5.3347-0.10187-7.9356-0.25195v2e-3 1.998c2.6009 0.15008 5.2299 0.25195 7.9356 0.25195 51.161 0 141.43-26.727 180.15-59.906-0.31297-0.32463-0.70359-0.67515-1.1426-1.043z" color="#bebebe" enable-background="accumulate" fill="#fff" opacity=".2"/>
     <path d="m435.58-61.885c-1.19 0.0112-2.3749 0.06797-3.5762 0.10157v2c1.2013-0.0336 2.3862-0.09037 3.5762-0.10157 72.564-0.48006 121.37 58.108 127.87 66.348 0.50686-0.60771 0.80273-0.97266 0.80273-0.97266s-50.631-67.891-128.67-67.375zm-3.5762 17.547c-2.1081 0.06832-3.7483 0.20484-5.7969 0.35156-63.657 4.9805-95.514 53.137-95.514 53.137s0.17721 0.54811 0.44922 1.3555c3.9673-5.6183 35.655-47.844 95.064-52.492 2.0486-0.14672 3.6888-0.28324 5.7969-0.35156zm5.8106 21.205c-1.7848-0.0011-4.0885 0.1004-5.8086 0.20117v2c1.7201-0.10077 4.0238-0.20229 5.8086-0.20117 32.601 0 53.434 22.871 57.879 28.242l0.94727-0.81641s-21.903-29.426-58.826-29.426zm-15.865 19.105c-20.479 0.09082-35.908 19.043-35.908 19.043s0.16599 0.58369 0.45312 1.4785c2.2532-2.626 18.698-20.846 39.615-18.277h0.0996c2.3124 0.28662 3.8345 0.70378 5.7949 1.1543v-2c-1.9604-0.45051-3.4826-0.86767-5.7949-1.1543h-0.0996c-1.4071-0.17281-2.7949-0.2502-4.1602-0.24414zm-126.77 11.002c-0.0725 0.07169-0.54102 0.51758-0.54102 0.51758s34.581 102.32 131.56 111.69c2.1012 0.2072 3.6574 0.32826 5.7969 0.44922v-1.998-2e-3c-2.1394-0.12096-3.6956-0.24202-5.7969-0.44922-90.305-8.723-126.47-97.948-131.02-110.21zm231.95 0.44922c-3.8966 5.3862-42.342 57.07-83.881 57.07-3.7943 0-11.248 2.3104-11.248-1.1016v2 2e-3c3e-3 3.4089 7.4545 1.0996 11.248 1.0996 43.796 0 84.639-58.1 84.639-58.1s-0.53823-0.68259-0.75781-0.9707zm-169.19 5.7539c-0.11475 0.12549-0.45117 0.48047-0.45117 0.48047s14.931 57.209 68.721 67.023c2.0614 0.37396 3.6241 0.6669 5.7949 0.9043v-2c-2.1708-0.2374-3.7336-0.53034-5.7949-0.9043-48.822-8.9082-65.581-56.723-68.27-65.504zm222.09 19.934c-40.724 35.977-82.812 66.322-140.97 66.322-2.3989 0-4.7563-0.04578-7.0527-0.19921v2c2.2964 0.15343 4.6538 0.19921 7.0527 0.19921 58.157 0 100.24-30.345 140.97-66.322 6.3802 5.2296 31.392 17.512 38.924 23.822 0.38287-0.3187 0.76922-0.63711 1.1426-0.95703-5.6823-5.8941-33.314-19.331-40.066-24.865z" color="#bebebe" enable-background="accumulate" filter="url(#b)" opacity=".2"/>
    </g>
   </g>
  </g>
 </g>
</svg>
