<svg xmlns="http://www.w3.org/2000/svg" width="512" height="512" enable-background="new" version="1.0"><defs><filter id="a" width="1.048" height="1.048" x="-.024" y="-.024" color-interpolation-filters="sRGB"><feGaussianBlur stdDeviation="4.48"/></filter><filter id="b" width="1.037" height="1.067" x="-.019" y="-.034" color-interpolation-filters="sRGB"><feGaussianBlur stdDeviation="2.535"/></filter></defs><g transform="translate(-208 228)"><rect width="448" height="448" x="-254" y="-688" stroke="#000" stroke-width="8" filter="url(#a)" opacity=".1" rx="24" ry="24" transform="matrix(0 -1 -1 0 0 4)"/><rect width="448" height="448" x="-254" y="-688" filter="url(#a)" opacity=".2" rx="24" ry="24" transform="matrix(0 -1 -1 0 0 4)"/><rect width="448" height="400" x="-252" y="-640" fill="#3f3f3f" rx="24" ry="24" transform="scale(1 -1)rotate(90)"/><path fill="#fff" d="M264-196c-13.296 0-24 10.704-24 24v2c0-13.296 10.704-24 24-24h400c13.296 0 24 10.704 24 24v-2c0-13.296-10.704-24-24-24z" opacity=".2"/><path d="M264 252c-13.296 0-24-10.704-24-24v-2c0 13.296 10.704 24 24 24h400c13.296 0 24-10.704 24-24v2c0 13.296-10.704 24-24 24z" opacity=".1"/><g color="#bebebe"><path stroke="#000" stroke-width="8" d="M435.58-61.885c-1.19.011-2.375.068-3.576.102v2c1.201-.034 2.386-.09 3.576-.102 72.564-.48 121.37 58.108 127.87 66.348.507-.608.803-.973.803-.973s-50.631-67.89-128.67-67.375zm-3.576 17.547c-2.108.068-3.749.205-5.797.352-63.657 4.98-95.514 53.137-95.514 53.137s.177.548.45 1.355c3.966-5.618 35.654-47.844 95.063-52.492 2.049-.147 3.689-.283 5.797-.351zm5.81 21.205c-1.784-.001-4.088.1-5.808.201v2c1.72-.1 4.024-.202 5.808-.201 32.601 0 53.434 22.871 57.88 28.242l.947-.816s-21.903-29.426-58.826-29.426zM421.95-4.028c-20.479.09-35.908 19.043-35.908 19.043s.166.584.454 1.479c2.253-2.626 18.698-20.846 39.615-18.277h.1c2.312.286 3.834.703 5.794 1.154v-2c-1.96-.45-3.483-.868-5.795-1.154h-.1a33 33 0 0 0-4.16-.245zM295.18 6.974c-.072.072-.54.518-.54.518s34.58 102.32 131.56 111.69c2.1.207 3.657.328 5.796.449v-2c-2.14-.121-3.695-.242-5.797-.45-90.305-8.722-126.47-97.947-131.02-110.21zm231.95.45c-3.896 5.385-42.342 57.07-83.88 57.07-3.795 0-11.249 2.31-11.249-1.102v2.002c.003 3.409 7.455 1.1 11.248 1.1 43.796 0 84.64-58.1 84.64-58.1s-.539-.683-.758-.971zm-169.19 5.753c-.114.126-.45.48-.45.48s14.93 57.21 68.72 67.024c2.062.374 3.624.666 5.795.904v-2c-2.17-.238-3.733-.53-5.795-.904-48.822-8.909-65.58-56.723-68.27-65.504zm222.09 19.934c-40.724 35.977-82.812 66.322-140.97 66.322-2.399 0-4.756-.046-7.052-.2v2c2.296.154 4.653.2 7.052.2 58.157 0 100.24-30.345 140.97-66.322 6.38 5.23 31.392 17.512 38.924 23.822.383-.319.77-.637 1.143-.957-5.682-5.894-33.314-19.33-40.066-24.865z" enable-background="accumulate" filter="url(#b)" opacity=".1"/><path fill="#76b900" d="M432-196v134.22c1.201-.034 2.386-.09 3.576-.1 78.043-.517 128.67 67.374 128.67 67.374s-60.006 74.594-122.5 74.594c-3.383 0-6.615-.16-9.748-.502v19.651c2.297.154 4.655.2 7.054.2 58.157 0 100.24-30.344 140.97-66.321 6.752 5.534 34.384 18.97 40.067 24.865-38.721 33.179-128.99 59.905-180.15 59.905-2.706 0-5.335-.1-7.936-.251v134.37l232 .002s24 0 24-24v-400c0-24-24-24-24-24zm0 313.63V99.232c-2.164-.144-3.708-.38-5.798-.652-71.17-9.163-95.513-89.432-95.513-89.432s31.857-48.157 95.513-53.138c2.049-.147 3.69-.282 5.798-.35.045-.002-.045.001 0 0v-17.445c-2.081.078-3.728.188-5.798.35C355.694-55.64 294.642 5.49 294.642 5.49s34.58 102.32 131.56 111.69c2.102.207 3.659.33 5.798.45zm0-161.97v21.406c1.72-.1 4.026-.202 5.811-.2 36.923 0 58.826 29.426 58.826 29.426l-30.026 25.917c-12.1-20.645-17.547-30.93-34.612-34.841v66.02c0 3.413 7.454 1.104 11.248 1.104 43.796 0 84.64-58.101 84.64-58.101S489.559-46.1 432-44.341zm0 107.73c-2.21-.455-3.773-1.008-5.798-1.704-30.324-10.428-40.165-46.671-40.165-46.671s17.554-21.564 40.067-18.8h.101c2.313.287 3.836.703 5.798 1.154v-20.303c-2.147.13-3.704.32-5.798.552-42.894 4.748-68.72 34.038-68.72 34.038s14.93 57.209 68.72 67.024c2.062.374 3.626.665 5.798.902z" enable-background="accumulate"/><path fill="#fff" d="M432-61.78c-2.081.078-3.727.19-5.797.352-70.508 5.795-131.56 66.924-131.56 66.924s.204.575.541 1.482c2.889-2.854 62.243-60.753 131.02-66.406 2.07-.162 3.716-.273 5.797-.352zm2.684 17.402a91 91 0 0 0-2.684.043v2c54.458-1.663 91.273 44.703 95.129 49.762.212-.293.758-1.03.758-1.03s-37.14-50.862-93.203-50.774zM432-22.929c-2.146.131-3.702.32-5.795.55-42.894 4.75-68.72 34.04-68.72 34.04s.177.626.45 1.52c2.31-2.527 27.406-29.036 68.27-33.56 2.093-.23 3.65-.42 5.795-.55zm.002 20.303v2c17.063 3.911 22.509 14.196 34.609 34.84l30.025-25.918s-.358-.472-.947-1.184L466.61 32.214C454.51 11.57 449.065 1.285 432-2.626zm131.45 9.092c-7.168 8.594-63.33 73.62-121.7 73.62-3.382 0-6.614-.16-9.746-.501v2c3.132.341 6.364.502 9.746.502 62.496 0 122.5-74.594 122.5-74.594s-.312-.405-.803-1.027zm-232.31 4.043c-.284.401-.45.644-.45.644s24.344 80.27 95.515 89.434c2.09.272 3.633.506 5.797.65v-2c-2.164-.144-3.708-.378-5.797-.65-65.94-8.49-91.636-77.902-95.064-88.078zm55.352 5.988c-.172.2-.453.522-.453.522s9.841 36.244 40.166 46.672c2.024.696 3.587 1.25 5.797 1.705v-2c-2.21-.455-3.773-1.009-5.797-1.705-26.772-9.207-37.55-38.45-39.713-45.193zm232.46 42.44c-39.324 32.733-128.34 58.948-179.01 58.948-2.706 0-5.335-.102-7.936-.252v2c2.601.15 5.23.252 7.936.252 51.161 0 141.43-26.727 180.15-59.906a15 15 0 0 0-1.143-1.043z" enable-background="accumulate" opacity=".2"/><path d="M435.58-61.885c-1.19.011-2.375.068-3.576.102v2c1.201-.034 2.386-.09 3.576-.102 72.564-.48 121.37 58.108 127.87 66.348.507-.608.803-.973.803-.973s-50.631-67.89-128.67-67.375zm-3.576 17.547c-2.108.068-3.749.205-5.797.352-63.657 4.98-95.514 53.137-95.514 53.137s.177.548.45 1.355c3.966-5.618 35.654-47.844 95.063-52.492 2.049-.147 3.689-.283 5.797-.351zm5.81 21.205c-1.784-.001-4.088.1-5.808.201v2c1.72-.1 4.024-.202 5.808-.201 32.601 0 53.434 22.871 57.88 28.242l.947-.816s-21.903-29.426-58.826-29.426zM421.95-4.028c-20.479.09-35.908 19.043-35.908 19.043s.166.584.454 1.479c2.253-2.626 18.698-20.846 39.615-18.277h.1c2.312.286 3.834.703 5.794 1.154v-2c-1.96-.45-3.483-.868-5.795-1.154h-.1a33 33 0 0 0-4.16-.245zM295.18 6.974c-.072.072-.54.518-.54.518s34.58 102.32 131.56 111.69c2.1.207 3.657.328 5.796.449v-2c-2.14-.121-3.695-.242-5.797-.45-90.305-8.722-126.47-97.947-131.02-110.21zm231.95.45c-3.896 5.385-42.342 57.07-83.88 57.07-3.795 0-11.249 2.31-11.249-1.102v2.002c.003 3.409 7.455 1.1 11.248 1.1 43.796 0 84.64-58.1 84.64-58.1s-.539-.683-.758-.971zm-169.19 5.753c-.114.126-.45.48-.45.48s14.93 57.21 68.72 67.024c2.062.374 3.624.666 5.795.904v-2c-2.17-.238-3.733-.53-5.795-.904-48.822-8.909-65.58-56.723-68.27-65.504zm222.09 19.934c-40.724 35.977-82.812 66.322-140.97 66.322-2.399 0-4.756-.046-7.052-.2v2c2.296.154 4.653.2 7.052.2 58.157 0 100.24-30.345 140.97-66.322 6.38 5.23 31.392 17.512 38.924 23.822.383-.319.77-.637 1.143-.957-5.682-5.894-33.314-19.33-40.066-24.865z" enable-background="accumulate" filter="url(#b)" opacity=".2"/></g></g></svg>