<svg xmlns="http://www.w3.org/2000/svg" width="512" height="512" enable-background="new" version="1.0"><defs><filter id="a" width="1.048" height="1.048" x="-.024" y="-.024" color-interpolation-filters="sRGB"><feGaussianBlur stdDeviation="4.8"/></filter></defs><g transform="translate(-208 228)"><circle cx="464" cy="30" r="240" opacity=".2"/><circle cx="464" cy="32" r="240" filter="url(#a)" opacity=".1"/><circle cx="464" cy="32" r="240" filter="url(#a)" opacity=".2"/><circle cx="464" cy="28" r="240" fill="#3a8ff1"/><path fill="#fff" d="M464-212A240 240 0 0 0 224 28l.041 1.172A240 240 0 0 1 464-210 240 240 0 0 1 703.959 28.828L704 28a240 240 0 0 0-240-240" opacity=".2"/><path fill="#fff" d="M472-119.38v64l128 73.901v-64zM328-74.518v16l128 73.901v-64l-80-46.188c-48-27.713-48 20.287-48 20.287m144 35.754v63.385l128 73.901V35.137zm-144-3.754v64l128 73.901v-64zM472 40.62v64l80 46.188c48 27.713 48-20.287 48-20.287v-16zm-144-3.138v64l128 73.9v-64z"/></g></svg>