<svg xmlns="http://www.w3.org/2000/svg" width="512" height="512" enable-background="new" version="1.0"><defs><filter id="a" width="1.048" height="1.048" x="-.024" y="-.024" color-interpolation-filters="sRGB"><feGaussianBlur stdDeviation="4.48"/></filter><filter id="d" width="1.153" height="1.099" x="-.077" y="-.049" color-interpolation-filters="sRGB"><feGaussianBlur stdDeviation="9.2"/></filter><clipPath id="b"><path fill="#2196f3" d="M488-196v144h12v160h-52L300 252h352c19.944 0 36-16.056 36-36v-376c0-19.944-16.056-36-36-36z"/></clipPath></defs><g transform="matrix(0 -1 -1 0 -208 228)"><rect width="448" height="448" x="-254" y="-688" opacity=".2" rx="36" ry="36"/><rect width="448" height="448" x="-256" y="-688" filter="url(#a)" opacity=".1" rx="36" ry="36"/><rect width="448" height="448" x="-256" y="-688" filter="url(#a)" opacity=".2" rx="36" ry="36"/></g><path fill="#b0bec5" d="M280 32v144h200V68c0-19.944-16.056-36-36-36z"/><path fill="#607d8b" d="M292 176h188v160H292z"/><path fill="#455a64" d="M240 336 92 480h352c19.944 0 36-16.056 36-36V336z"/><path d="M528-194H276c-19.944 0-36 16.056-36 36v376c0 19.944 16.056 36 36 36h108l144-144z" clip-path="url(#b)" filter="url(#d)" opacity=".2" transform="translate(-208 228)"/><path fill="#f2f2f2" d="M320 32H68c-19.944 0-36 16.056-36 36v376c0 19.944 16.056 36 36 36h108l144-144z"/><path fill="#fff" d="M68 32c-19.944 0-36 16.056-36 36v2c0-19.944 16.056-36 36-36h376c19.944 0 36 16.056 36 36v-2c0-19.944-16.056-36-36-36z" opacity=".2"/><g fill="#455a64"><path fill-rule="evenodd" d="m105.5 256-.5 1h1v6h1v-7z" color="#000" enable-background="accumulate" style="isolation:auto;mix-blend-mode:normal;text-decoration-color:#000;text-decoration-line:none;text-decoration-style:solid;text-indent:0;text-transform:none;white-space:normal" transform="matrix(16 0 0 16 -1520 -4016)"/><path d="M80 80v16h32c8.864 0 16 7.136 16 16s-7.136 16-16 16H80v16h32c8.864 0 16 7.136 16 16s-7.136 16-16 16H80v16h32c17.728 0 32-14.272 32-32 0-9.624-4.287-18.144-10.969-24 6.682-5.856 10.969-14.376 10.969-24 0-17.728-14.272-32-32-32z"/></g><path fill="#b3b3b3" d="m176 480 144-144H212c-19.944 0-36 16.056-36 36z"/></svg>