<svg width="512" height="512" enable-background="new" version="1.0" xmlns="http://www.w3.org/2000/svg" xmlns:osb="http://www.openswatchbook.org/uri/2009/osb" xmlns:xlink="http://www.w3.org/1999/xlink">
 <defs>
  <filter id="a" x="-.024" y="-.024" width="1.048" height="1.048" color-interpolation-filters="sRGB">
   <feGaussianBlur stdDeviation="4.48"/>
  </filter>
  <clipPath id="c">
   <path d="m488-196v144h12v160h-52l-148 144h352c19.944 0 36-16.056 36-36v-376c0-19.944-16.056-36-36-36z" fill="#2196f3"/>
  </clipPath>
  <filter id="b" x="-.076667" y="-.049286" width="1.1533" height="1.0986" color-interpolation-filters="sRGB">
   <feGaussianBlur stdDeviation="9.2"/>
  </filter>
 </defs>
 <g transform="translate(0,212)">
  <g>
   <g transform="translate(-208,16)">
    <g>
     <rect transform="matrix(0,-1,-1,0,0,0)" x="-254" y="-688" width="448" height="448" rx="36" ry="36" opacity=".2"/>
     <rect transform="matrix(0,-1,-1,0,0,0)" x="-256" y="-688" width="448" height="448" rx="36" ry="36" filter="url(#a)" opacity=".1"/>
     <rect transform="matrix(0,-1,-1,0,0,0)" x="-256" y="-688" width="448" height="448" rx="36" ry="36" filter="url(#a)" opacity=".2"/>
    </g>
    <path transform="translate(0,-244)" d="m488 48v144h200v-108c0-19.944-16.056-36-36-36z" fill="#b0bec5"/>
    <path d="m500-52h188v160h-188z" fill="#607d8b"/>
    <path transform="translate(0,-244)" d="m448 352-148 144h352c19.944 0 36-16.056 36-36v-108z" fill="#455a64"/>
    <path d="m528-194h-252c-19.944 0-36 16.056-36 36v376c0 19.944 16.056 36 36 36h108l144-144z" clip-path="url(#c)" filter="url(#b)" opacity=".2"/>
    <path d="m528-196h-252c-19.944 0-36 16.056-36 36v376c0 19.944 16.056 36 36 36h108l144-144z" fill="#f2f2f2"/>
    <path transform="translate(0,-244)" d="m276 48c-19.944 0-36 16.056-36 36v2c0-19.944 16.056-36 36-36h376c19.944 0 36 16.056 36 36v-2c0-19.944-16.056-36-36-36z" fill="#fff" opacity=".2"/>
    <g transform="matrix(16,0,0,16,-1312,-4244)" fill="#455a64">
     <path d="m105.5 256-0.5 1h1v6h1v-7z" color="#000000" color-rendering="auto" enable-background="accumulate" fill-rule="evenodd" image-rendering="auto" shape-rendering="auto" solid-color="#000000" style="isolation:auto;mix-blend-mode:normal;text-decoration-color:#000000;text-decoration-line:none;text-decoration-style:solid;text-indent:0;text-transform:none;white-space:normal"/>
     <path transform="translate(0,-244)" d="m100 500v1h2c0.554 0 1 0.446 1 1s-0.446 1-1 1h-2v1h2c0.554 0 1 0.446 1 1s-0.446 1-1 1h-2v1h2c1.108 0 2-0.892 2-2 0-0.60149-0.26796-1.134-0.68555-1.5 0.41759-0.36603 0.68555-0.89851 0.68555-1.5 0-1.108-0.892-2-2-2z"/>
    </g>
    <path d="m384 252 144-144h-108c-19.944 0-36 16.056-36 36z" fill="#b3b3b3"/>
   </g>
  </g>
 </g>
</svg>
