<svg width="512" height="512" enable-background="new" version="1.0" xmlns="http://www.w3.org/2000/svg" xmlns:xlink="http://www.w3.org/1999/xlink">
 <defs>
  <filter id="b" x="-.024" y="-.024" width="1.048" height="1.048" color-interpolation-filters="sRGB">
   <feGaussianBlur stdDeviation="2.4"/>
  </filter>
  <filter id="a" x="-.027273" y="-.021429" width="1.0545" height="1.0429" color-interpolation-filters="sRGB">
   <feGaussianBlur stdDeviation="4"/>
  </filter>
  <clipPath id="d">
   <path d="m213 224c-1.662 0-3 1.338-3 3v50c0 1.662 1.338 3 3 3h38c1.662 0 3-1.338 3-3v-35l-18-18z" fill="#e1e1e1"/>
  </clipPath>
  <filter id="c" x="-.12" y="-.12" width="1.24" height="1.24">
   <feGaussianBlur stdDeviation="0.9"/>
  </filter>
 </defs>
 <path d="m104 36c-13.296 0-24 10.704-24 24v400c0 13.296 10.704 24 24 24h304c13.296 0 24-10.704 24-24v-280l-144-144z" enable-background="new" filter="url(#a)" opacity=".1"/>
 <path d="m104 36c-13.296 0-24 10.704-24 24v400c0 13.296 10.704 24 24 24h304c13.296 0 24-10.704 24-24v-280l-144-144z" enable-background="new" filter="url(#a)" opacity=".2"/>
 <path d="m104 32c-13.296 0-24 10.704-24 24v400c0 13.296 10.704 24 24 24h304c13.296 0 24-10.704 24-24v-280l-132-12-12-132z" enable-background="new" fill="#333"/>
 <path d="m336.72 81.746c-10.892 4.5007-21.787 10.414-32.679 18.153-18.317 13.015-35.665 29.401-52.054 49.165-15.907 19.281-30.37 41.221-43.385 65.805-12.533 24.101-21.933 49.162-28.199 75.192-6.7483 26.029-9.6332 49.893-8.6692 71.584 1.446 21.209 6.0187 39.048 13.731 53.509 7.7124 14.461 18.31 24.823 31.807 31.089 13.497 6.2663 29.412 7.4635 47.729 3.6073 17.835-3.8562 35.909-12.275 54.226-25.29 5.9959-4.3047 11.792-9.0126 17.494-13.906v-45.383c-3.5952 2.8016-7.2541 5.4697-10.977 7.9518-14.461 9.1585-28.453 14.457-41.95 15.903-13.979 1.4461-25.773-0.96815-35.414-7.2341-9.6405-6.2664-17.118-15.667-22.42-28.199-4.8202-12.533-7.234-27.467-7.234-44.82 0-17.835 2.8849-37.126 8.6693-57.853 5.7842-20.727 13.987-40.489 24.592-59.288 10.605-19.281 22.164-36.158 34.696-50.619 13.015-14.943 26.517-26.992 40.495-36.151 3.193-2.1286 6.3726-3.9728 9.542-5.7019z" fill="#1b93f4"/>
 <path transform="matrix(8,0,0,8,-1598.7,-1757.1)" d="m236 224v16c0 1.6568 1.3432 3 3 3h15v-1z" clip-path="url(#d)" enable-background="new" filter="url(#c)" opacity=".2"/>
 <path d="m288 32v120c0 13.255 10.745 24 24 24h120z" enable-background="new" fill="#666"/>
 <path d="m104 32c-13.296 0-24 10.704-24 24v2c0-13.296 10.704-24 24-24h184v-2z" enable-background="new" fill="#fff" opacity=".2"/>
 <path d="m80 454v2c0 13.296 10.704 24 24 24h304c13.296 0 24-10.704 24-24v-2c0 13.296-10.704 24-24 24h-304c-13.296 0-24-10.704-24-24z" enable-background="new" opacity=".1"/>
 <circle transform="matrix(1,0,0,-1,-208,540)" cx="584" cy="156" r="120" enable-background="new" filter="url(#b)" opacity=".2"/>
 <circle transform="matrix(1,0,0,-1,-208,540)" cx="584" cy="156" r="120" enable-background="new" filter="url(#b)" opacity=".1" stroke="#000" stroke-width="8"/>
 <circle cx="376" cy="376" r="120" enable-background="new" fill="#f55"/>
 <path d="m376 326.01c-15.508 0.15096-31.121 3.6936-44.629 11.348-5.3841 3.5062-11.848 8.0348-16.719 12.598-7.6649 7.5042-14.225 16.26-18.652 26.055 12.149 26.795 38.859 46.435 68.242 49.336 19.274 2.1812 39.444-1.1484 56.387-10.683 5.3839-3.5062 11.848-8.0348 16.719-12.598 7.665-7.5043 14.225-16.26 18.652-26.055-12.15-26.794-38.858-46.438-68.242-49.336-3.8988-0.4549-7.8329-0.66485-11.758-0.66485zm0 20c16.07-0.35593 30.303 14.018 30 30 0.51489 17.664-17.09 32.909-34.492 29.609-17.576-2.0633-29.921-21.778-24.141-38.476 3.6917-12.294 15.758-21.286 28.633-21.133zm0 20a10 10 0 0 0-10 10 10 10 0 0 0 10 9.9999 10 10 0 0 0 9.9999-9.9999 10 10 0 0 0-9.9999-10z" enable-background="new" fill="#fff" fill-rule="evenodd"/>
</svg>
