<svg xmlns="http://www.w3.org/2000/svg" width="512" height="512" enable-background="new" version="1.0"><defs><filter id="e" width="1.048" height="1.048" x="-.024" y="-.024" color-interpolation-filters="sRGB"><feGaussianBlur stdDeviation="2.4"/></filter><filter id="a" width="1.054" height="1.043" x="-.027" y="-.021" color-interpolation-filters="sRGB"><feGaussianBlur stdDeviation="4"/></filter><filter id="c" width="1.24" height="1.24" x="-.12" y="-.12"><feGaussianBlur stdDeviation=".9"/></filter><clipPath id="b"><path fill="#e1e1e1" d="M213 224c-1.662 0-3 1.338-3 3v50c0 1.662 1.338 3 3 3h38c1.662 0 3-1.338 3-3v-35l-18-18z"/></clipPath></defs><path d="M104 36c-13.296 0-24 10.704-24 24v400c0 13.296 10.704 24 24 24h304c13.296 0 24-10.704 24-24V180L288 36z" filter="url(#a)" opacity=".1"/><path d="M104 36c-13.296 0-24 10.704-24 24v400c0 13.296 10.704 24 24 24h304c13.296 0 24-10.704 24-24V180L288 36z" filter="url(#a)" opacity=".2"/><path fill="#333" d="M104 32c-13.296 0-24 10.704-24 24v400c0 13.296 10.704 24 24 24h304c13.296 0 24-10.704 24-24V176l-132-12-12-132z"/><path fill="#1b93f4" d="M336.72 81.746c-10.892 4.5-21.787 10.414-32.679 18.153-18.317 13.015-35.665 29.401-52.054 49.165-15.907 19.281-30.37 41.221-43.385 65.805-12.533 24.101-21.933 49.162-28.199 75.192-6.748 26.029-9.633 49.893-8.67 71.584 1.447 21.209 6.02 39.048 13.732 53.509s18.31 24.823 31.807 31.089 29.412 7.464 47.729 3.607c17.835-3.856 35.909-12.275 54.226-25.29 5.996-4.304 11.792-9.012 17.494-13.906v-45.383a184 184 0 0 1-10.977 7.952c-14.461 9.159-28.453 14.457-41.95 15.903-13.98 1.446-25.773-.968-35.414-7.234-9.64-6.266-17.118-15.667-22.42-28.199-4.82-12.533-7.234-27.467-7.234-44.82 0-17.835 2.885-37.126 8.67-57.853 5.783-20.727 13.986-40.489 24.591-59.288 10.605-19.281 22.164-36.158 34.696-50.619 13.015-14.943 26.517-26.992 40.495-36.151 3.193-2.129 6.373-3.973 9.542-5.702z"/><path d="M236 224v16a3 3 0 0 0 3 3h15v-1z" clip-path="url(#b)" filter="url(#c)" opacity=".2" transform="matrix(8 0 0 8 -1598.7 -1757.1)"/><path fill="#666" d="M288 32v120c0 13.255 10.745 24 24 24h120z"/><path fill="#fff" d="M104 32c-13.296 0-24 10.704-24 24v2c0-13.296 10.704-24 24-24h184v-2z" opacity=".2"/><path d="M80 454v2c0 13.296 10.704 24 24 24h304c13.296 0 24-10.704 24-24v-2c0 13.296-10.704 24-24 24H104c-13.296 0-24-10.704-24-24" opacity=".1"/><circle cx="584" cy="156" r="120" filter="url(#e)" opacity=".2" transform="matrix(1 0 0 -1 -208 540)"/><circle cx="584" cy="156" r="120" stroke="#000" stroke-width="8" filter="url(#e)" opacity=".1" transform="matrix(1 0 0 -1 -208 540)"/><circle cx="376" cy="376" r="120" fill="#f55"/><path fill="#fff" fill-rule="evenodd" d="M376 326.01c-15.508.151-31.121 3.694-44.629 11.348-5.384 3.506-11.848 8.035-16.719 12.598-7.665 7.504-14.225 16.26-18.652 26.055 12.149 26.795 38.859 46.435 68.242 49.336 19.274 2.181 39.444-1.148 56.387-10.683 5.384-3.506 11.848-8.035 16.719-12.598 7.665-7.504 14.225-16.26 18.652-26.055-12.15-26.794-38.858-46.438-68.242-49.336A102 102 0 0 0 376 326.01zm0 20c16.07-.356 30.303 14.018 30 30 .515 17.664-17.09 32.909-34.492 29.609-17.576-2.063-29.921-21.778-24.141-38.476 3.692-12.294 15.758-21.286 28.633-21.133m0 20a10 10 0 0 0-10 10 10 10 0 0 0 10 10 10 10 0 0 0 10-10 10 10 0 0 0-10-10"/></svg>