<svg width="512" height="512" enable-background="new" version="1.0" xmlns="http://www.w3.org/2000/svg" xmlns:osb="http://www.openswatchbook.org/uri/2009/osb" xmlns:xlink="http://www.w3.org/1999/xlink">
 <defs>
  <filter id="a" x="-.024" y="-.024" width="1.048" height="1.048" color-interpolation-filters="sRGB">
   <feGaussianBlur stdDeviation="4.8"/>
  </filter>
  <filter id="b" x="-.019742" y="-.0306" width="1.0395" height="1.0612" color-interpolation-filters="sRGB">
   <feGaussianBlur stdDeviation="4.08"/>
  </filter>
 </defs>
 <g transform="translate(0,212)">
  <g>
   <g transform="translate(-208 16)">
    <g>
     <path d="m464 270c-132.55 0-240-106.04-240-236.84 0.0127-0.38552 0.0264-0.77101 0.041-1.1565 0.45621 130.47 107.75 236 239.96 236.03 132.08-0.02072 239.31-105.35 239.96-235.69 0.0141 0.27239 0.0278 0.5448 0.041 0.81723 0 130.81-107.45 236.84-240 236.84z" opacity=".2"/>
     <circle cx="464" cy="32" r="240" filter="url(#a)" opacity=".1"/>
     <circle cx="464" cy="32" r="240" filter="url(#a)" opacity=".2"/>
    </g>
    <circle cx="464" cy="28" r="240" fill="#2387c3"/>
    <path transform="translate(0,-244)" d="m464 32c-132.55 0-240 107.45-240 240 0.0127 0.39066 0.0264 0.78129 0.041 1.1719 0.45621-132.21 107.75-239.15 239.96-239.17 132.08 0.021 239.31 106.75 239.96 238.83 0.01415-0.27602 0.02782-0.55206 0.04102-0.82812 0-132.55-107.45-240-240-240z" fill="#fff" opacity=".2"/>
    <path d="m216-130v24h16v16h-16v240h16v16h-16v24h496v-24h-16v-16h16v-240h-16v-16h16v-24h-464zm32 24h16v16h-16zm32 0h16v16h-16zm32 0h16v16h-16zm32 0h16v16h-16zm32 0h16v16h-16zm32 0h16v16h-16zm32 0h16v16h-16zm32 0h16v16h-16zm32 0h16v16h-16zm32 0h16v16h-16zm32 0h16v16h-16zm32 0h16v16h-16zm32 0h16v16h-16zm32 0h16v16h-16zm-416 256h16v16h-16zm32 0h16v16h-16zm32 0h16v16h-16zm32 0h16v16h-16zm32 0h16v16h-16zm32 0h16v16h-16zm32 0h16v16h-16zm32 0h16v16h-16zm32 0h16v16h-16zm32 0h16v16h-16zm32 0h16v16h-16zm32 0h16v16h-16zm32 0h16v16h-16zm32 0h16v16h-16z" filter="url(#b)" opacity=".2"/>
    <path d="m216-132v24h16v16h-16v240h16v16h-16v24h496v-24h-16v-16h16v-240h-16v-16h16v-24h-464zm32 24h16v16h-16zm32 0h16v16h-16zm32 0h16v16h-16zm32 0h16v16h-16zm32 0h16v16h-16zm32 0h16v16h-16zm32 0h16v16h-16zm32 0h16v16h-16zm32 0h16v16h-16zm32 0h16v16h-16zm32 0h16v16h-16zm32 0h16v16h-16zm32 0h16v16h-16zm32 0h16v16h-16zm-416 256h16v16h-16zm32 0h16v16h-16zm32 0h16v16h-16zm32 0h16v16h-16zm32 0h16v16h-16zm32 0h16v16h-16zm32 0h16v16h-16zm32 0h16v16h-16zm32 0h16v16h-16zm32 0h16v16h-16zm32 0h16v16h-16zm32 0h16v16h-16zm32 0h16v16h-16zm32 0h16v16h-16z" fill="#343434"/>
    <path d="m392.52-68c-4.7088-0.0027-8.5265 3.8227-8.524 8.5405v174.91c-2e-3 6.4887 6.937 10.607 12.616 7.4872l160.02-87.454c5.9038-3.2389 5.9038-11.735 0-14.974l-144.03-78.715-15.997-8.7398c-1.254-0.68972-2.661-1.0519-4.0915-1.0534z" color="#000000" color-rendering="auto" enable-background="accumulate" fill="#fff" image-rendering="auto" shape-rendering="auto" solid-color="#000000" style="isolation:auto;mix-blend-mode:normal;text-decoration-color:#000000;text-decoration-line:none;text-decoration-style:solid;text-indent:0;text-transform:none;white-space:normal"/>
   </g>
  </g>
 </g>
</svg>
