<svg xmlns="http://www.w3.org/2000/svg" width="512" height="512" enable-background="new" version="1.0"><defs><filter id="a" width="1.048" height="1.048" x="-.024" y="-.024" color-interpolation-filters="sRGB"><feGaussianBlur stdDeviation="4.8"/></filter><filter id="b" width="1.04" height="1.061" x="-.02" y="-.031" color-interpolation-filters="sRGB"><feGaussianBlur stdDeviation="4.08"/></filter></defs><g transform="translate(-208 228)"><path d="M464 270c-132.55 0-240-106.04-240-236.84q.019-.579.041-1.156c.456 130.47 107.75 236 239.96 236.03 132.08-.021 239.31-105.35 239.96-235.69l.041.817c0 130.81-107.45 236.84-240 236.84z" opacity=".2"/><circle cx="464" cy="32" r="240" filter="url(#a)" opacity=".1"/><circle cx="464" cy="32" r="240" filter="url(#a)" opacity=".2"/><circle cx="464" cy="28" r="240" fill="#2387c3"/><path fill="#fff" d="M464-212c-132.55 0-240 107.45-240 240q.019.585.041 1.172c.456-132.21 107.75-239.15 239.96-239.17 132.08.02 239.31 106.75 239.96 238.83l.041-.828c0-132.55-107.45-240-240-240z" opacity=".2"/><path d="M216-130v24h16v16h-16v240h16v16h-16v24h496v-24h-16v-16h16V-90h-16v-16h16v-24H248zm32 24h16v16h-16zm32 0h16v16h-16zm32 0h16v16h-16zm32 0h16v16h-16zm32 0h16v16h-16zm32 0h16v16h-16zm32 0h16v16h-16zm32 0h16v16h-16zm32 0h16v16h-16zm32 0h16v16h-16zm32 0h16v16h-16zm32 0h16v16h-16zm32 0h16v16h-16zm32 0h16v16h-16zM248 150h16v16h-16zm32 0h16v16h-16zm32 0h16v16h-16zm32 0h16v16h-16zm32 0h16v16h-16zm32 0h16v16h-16zm32 0h16v16h-16zm32 0h16v16h-16zm32 0h16v16h-16zm32 0h16v16h-16zm32 0h16v16h-16zm32 0h16v16h-16zm32 0h16v16h-16zm32 0h16v16h-16z" filter="url(#b)" opacity=".2"/><path fill="#343434" d="M216-132v24h16v16h-16v240h16v16h-16v24h496v-24h-16v-16h16V-92h-16v-16h16v-24H248zm32 24h16v16h-16zm32 0h16v16h-16zm32 0h16v16h-16zm32 0h16v16h-16zm32 0h16v16h-16zm32 0h16v16h-16zm32 0h16v16h-16zm32 0h16v16h-16zm32 0h16v16h-16zm32 0h16v16h-16zm32 0h16v16h-16zm32 0h16v16h-16zm32 0h16v16h-16zm32 0h16v16h-16zM248 148h16v16h-16zm32 0h16v16h-16zm32 0h16v16h-16zm32 0h16v16h-16zm32 0h16v16h-16zm32 0h16v16h-16zm32 0h16v16h-16zm32 0h16v16h-16zm32 0h16v16h-16zm32 0h16v16h-16zm32 0h16v16h-16zm32 0h16v16h-16zm32 0h16v16h-16zm32 0h16v16h-16z"/><path fill="#fff" d="M392.52-68c-4.709-.003-8.526 3.823-8.524 8.54v174.91c-.002 6.49 6.937 10.608 12.616 7.488l160.02-87.454c5.904-3.24 5.904-11.735 0-14.974l-144.03-78.715-15.997-8.74A8.5 8.5 0 0 0 392.513-68z" color="#000" enable-background="accumulate" style="isolation:auto;mix-blend-mode:normal;text-decoration-color:#000;text-decoration-line:none;text-decoration-style:solid;text-indent:0;text-transform:none;white-space:normal"/></g></svg>