<svg xmlns="http://www.w3.org/2000/svg" width="512" height="512" enable-background="new" version="1.0"><defs><filter id="a" width="1.048" height="1.048" x="-.024" y="-.024" color-interpolation-filters="sRGB"><feGaussianBlur stdDeviation="4.8"/></filter></defs><path d="M464-1250a240 240 0 0 1 240 240 240 240 0 0 1-240 240 240 240 0 0 1-240-240 240 240 0 0 1 240-240m0 76.364a120 163.64 0 0 0-120 163.64 120 163.64 0 0 0 120 163.64 120 163.64 0 0 0 120-163.64 120 163.64 0 0 0-120-163.64" enable-background="new" filter="url(#a)" opacity=".1" transform="translate(-208 1270)"/><path d="M464-1250a240 240 0 0 1 240 240 240 240 0 0 1-240 240 240 240 0 0 1-240-240 240 240 0 0 1 240-240m0 76.364a120 163.64 0 0 0-120 163.64 120 163.64 0 0 0 120 163.64 120 163.64 0 0 0 120-163.64 120 163.64 0 0 0-120-163.64" enable-background="new" filter="url(#a)" opacity=".2" transform="translate(-208 1270)"/><path d="M256 18A240 240 0 0 0 16 258a240 240 0 0 0 240 240 240 240 0 0 0 240-240A240 240 0 0 0 256 18m0 76.364a120 163.64 0 0 1 120 163.64 120 163.64 0 0 1-120 163.64 120 163.64 0 0 1-120-163.64 120 163.64 0 0 1 120-163.64" enable-background="new" opacity=".2"/><path fill="#fff" d="M256 16A240 240 0 0 0 16 256l.041.828a240 240 0 0 1 239.96-238.83 240 240 0 0 1 239.96 239.17l.041-1.172a240 240 0 0 0-240-240zm119.97 240.83A120 163.64 0 0 1 256 419.64a120 163.64 0 0 1-119.97-162.46 120 163.64 0 0 0-.031.828 120 163.64 0 0 0 120 163.64 120 163.64 0 0 0 120-163.64 120 163.64 0 0 0-.031-1.172z" enable-background="new" opacity=".3"/><path fill="#c2352a" d="M272.8 18.59c.097.01.194.013.291.019zm-40.086.572-1.201.115c.4-.042.8-.076 1.201-.115m-23.166 3.436a240 240 0 0 0-2.408.49q1.202-.251 2.408-.49m-22.658 5.66a240 240 0 0 0-3.973 1.254c1.322-.425 2.643-.852 3.973-1.254m-21.58 7.682a240 240 0 0 0-5.453 2.308q2.712-1.188 5.453-2.308m-21.318 9.972a240 240 0 0 0-6.072 3.328 240 240 0 0 1 6.072-3.328M124.023 57.76a240 240 0 0 0-7.188 4.946 240 240 0 0 1 7.188-4.946m281.14 12.21.09.071zm-299.76 1.423a240 240 0 0 0-7.406 6.215 240 240 0 0 1 7.406-6.215m317.58 14.23q.24.232.477.465zm-335.54 1.809a240 240 0 0 0-7.063 7.295 240 240 0 0 1 7.063-7.295m168.56 6.93a120 163.64 0 0 1 77.234 38.407c-20.872-23.963-47.814-38.408-77.234-38.408m0 0a88 88 0 0 0-8.34.402 120 163.64 0 0 1 8.34-.403m-8.693.443a90 90 0 0 0-11.543 1.91 120 163.64 0 0 1 11.543-1.91m-11.99 2.025a93 93 0 0 0-11.156 3.414 120 163.64 0 0 1 11.156-3.414M87.83 97.836c-6.312.444-22.174 15.789-22.174 15.789l-1.116.037q3.56-4.724 7.327-9.244a240 240 0 0 0-55.86 153.58 240 240 0 0 0 240 240 240 240 0 0 0 176.48-77.703c-173.94 94.596-262.41-48.066-262.47-48.174A120 163.64 0 0 1 136.01 258a120 163.64 0 0 1 15.223-79.641c.6-6.886-.247-13.195-3.942-17.111-7.106-7.531-26.862 13.802-44.113 29.039-8.267 7.302-17.97-2.38-18.744-11.18-2.668-30.378-2.134-51.086 4.899-73.135 1.977-6.201.97-8.309-1.5-8.135zm135.62 2.693a100 100 0 0 0-10.555 4.784 120 163.64 0 0 1 10.555-4.784m215.95 2.682.296.35zm-227.5 2.646c-3.346 1.806-6.63 3.8-9.836 6.002a120 163.64 0 0 1 9.836-6.002m-11.084 6.893a118 118 0 0 0-9.07 7.094 120 163.64 0 0 1 9.07-7.094m-10.482 8.357a129 129 0 0 0-8.287 8.082 120 163.64 0 0 1 8.287-8.082m-9.756 9.698a142 142 0 0 0-7.535 9.027 120 163.64 0 0 1 7.535-9.027m152.79 2.125a120 163.64 0 0 1 8.576 10.892 146 146 0 0 0-8.576-10.892m-161.78 8.847a155 155 0 0 0-6.752 9.885 120 163.64 0 0 1 6.752-9.885m170.59 2.38a120 163.64 0 0 1 7.785 12.087 160 160 0 0 0-7.785-12.088m-178.71 9.741a169 169 0 0 0-5.926 10.627 120 163.64 0 0 1 5.926-10.627m186.53 2.41a120 163.64 0 0 1 25.68 90.038c-1.75-33.907-11.073-64.96-25.68-90.037m-193.77 10.874a183 183 0 0 0-4.963 11.04 120 163.64 0 0 1 4.963-11.04m219.46 79.394a120 163.64 0 0 1 .297 11.422c0-3.84-.106-7.648-.297-11.422m.297 11.422a120 163.64 0 0 1-28.17 105.33c17.575-28.463 28.17-65.205 28.17-105.33m-28.283 105.51a120 163.64 0 0 1-8.006 11.72 156 156 0 0 0 8.006-11.72m-177.7 8.63a146 146 0 0 0 8.546 10.858 120 163.64 0 0 1-8.546-10.858m169.48 3.374a120 163.64 0 0 1-8.899 10.658 143 143 0 0 0 8.899-10.658m-160.72 7.736a133 133 0 0 0 9.336 9.682 120 163.64 0 0 1-9.336-9.682m151.8 2.941a120 163.64 0 0 1-66.072 35.033c24.883-2.378 47.672-15.098 66.072-35.033m-142.26 6.938a121 121 0 0 0 10.045 8.396 120 163.64 0 0 1-10.045-8.396m10.207 8.521a110 110 0 0 0 10.654 7.018 120 163.64 0 0 1-10.654-7.018m245.52 5.467-.092.12zm-234.72 1.633a102 102 0 0 0 11.205 5.576 120 163.64 0 0 1-11.205-5.576m11.225 5.584a95 95 0 0 0 11.596 4.039 120 163.64 0 0 1-11.596-4.04m11.63 4.047a90.5 90.5 0 0 0 11.83 2.44 120 163.64 0 0 1-11.83-2.44m11.858 2.443c3.957.54 7.95.816 11.963.816 2.838 0 5.652-.145 8.441-.41a120 163.64 0 0 1-8.441.409 120 163.64 0 0 1-11.963-.815" enable-background="new"/><path fill="#e6e6e6" d="M256 17.99c-75.295.088-146.18 35.507-191.47 95.664l1.115-.037s30.706-29.703 23.674-7.654c-7.032 22.048-7.566 42.756-4.898 73.135.773 8.8 10.477 18.482 18.744 11.18 17.25-15.238 37.008-36.57 44.113-29.04 3.697 3.919 4.543 10.233 3.941 17.122 21.174-51.835 61.266-83.978 104.78-84.006 66.274 0 120 73.263 120 163.64 0 90.374-53.726 163.64-120 163.64-32.393 0-63.409-17.864-85.998-49.523 0 0 88.68 143.16 263.1 47.848 39.06-42.688 62.896-99.54 62.896-161.96 0-132.55-107.45-240-240-240z" enable-background="new"/></svg>