<svg xmlns="http://www.w3.org/2000/svg" width="512" height="512" enable-background="new" version="1.0"><defs><filter id="a" width="1.048" height="1.048" x="-.024" y="-.024" color-interpolation-filters="sRGB"><feGaussianBlur stdDeviation="4.8"/></filter></defs><path d="M464-848a240 240 0 0 1 240 240 240 240 0 0 1-240 240 240 240 0 0 1-240-240 240 240 0 0 1 240-240m0 76.364a120 163.64 0 0 0-120 163.64 120 163.64 0 0 0 120 163.64 120 163.64 0 0 0 120-163.64 120 163.64 0 0 0-120-163.64" filter="url(#a)" opacity=".1" transform="translate(-208 868)"/><path d="M464-848a240 240 0 0 1 240 240 240 240 0 0 1-240 240 240 240 0 0 1-240-240 240 240 0 0 1 240-240m0 76.364a120 163.64 0 0 0-120 163.64 120 163.64 0 0 0 120 163.64 120 163.64 0 0 0 120-163.64 120 163.64 0 0 0-120-163.64" filter="url(#a)" opacity=".2" transform="translate(-208 868)"/><path d="M256 18A240 240 0 0 0 16 258a240 240 0 0 0 240 240 240 240 0 0 0 240-240A240 240 0 0 0 256 18m0 76.364a120 163.64 0 0 1 120 163.64 120 163.64 0 0 1-120 163.64 120 163.64 0 0 1-120-163.64 120 163.64 0 0 1 120-163.64" opacity=".2"/><path fill="#e6e6e6" d="M256 16A240 240 0 0 0 16 256a240 240 0 0 0 240 240 240 240 0 0 0 240-240A240 240 0 0 0 256 16m0 76.364a120 163.64 0 0 1 120 163.64 120 163.64 0 0 1-120 163.64 120 163.64 0 0 1-120-163.64 120 163.64 0 0 1 120-163.64"/><path fill="#fff" d="M256 16A240 240 0 0 0 16 256l.041.828a240 240 0 0 1 239.96-238.83 240 240 0 0 1 239.96 239.17l.041-1.172a240 240 0 0 0-240-240zm119.97 240.83A120 163.64 0 0 1 256 419.64a120 163.64 0 0 1-119.97-162.46 120 163.64 0 0 0-.031.828 120 163.64 0 0 0 120 163.64 120 163.64 0 0 0 120-163.64 120 163.64 0 0 0-.031-1.172z" opacity=".5"/></svg>