<svg width="512" height="512" enable-background="new" version="1.0" xmlns="http://www.w3.org/2000/svg" xmlns:osb="http://www.openswatchbook.org/uri/2009/osb" xmlns:xlink="http://www.w3.org/1999/xlink">
 <defs>
  <filter id="a" x="-.024" y="-.024" width="1.048" height="1.048" color-interpolation-filters="sRGB">
   <feGaussianBlur stdDeviation="4.8"/>
  </filter>
 </defs>
 <g transform="translate(0,212)">
  <g>
   <g transform="translate(-208,16)">
    <g>
     <path d="m464-208a240 240 0 0 1 240 240 240 240 0 0 1-240 240 240 240 0 0 1-240-240 240 240 0 0 1 240-240zm0 76.364a120 163.64 0 0 0-120 163.64 120 163.64 0 0 0 120 163.64 120 163.64 0 0 0 120-163.64 120 163.64 0 0 0-120-163.64z" filter="url(#a)" opacity=".1"/>
     <path d="m464-208a240 240 0 0 1 240 240 240 240 0 0 1-240 240 240 240 0 0 1-240-240 240 240 0 0 1 240-240zm0 76.364a120 163.64 0 0 0-120 163.64 120 163.64 0 0 0 120 163.64 120 163.64 0 0 0 120-163.64 120 163.64 0 0 0-120-163.64z" filter="url(#a)" opacity=".2"/>
     <path d="m464-210a240 240 0 0 0-240 240 240 240 0 0 0 240 240 240 240 0 0 0 240-240 240 240 0 0 0-240-240zm0 76.364a120 163.64 0 0 1 120 163.64 120 163.64 0 0 1-120 163.64 120 163.64 0 0 1-120-163.64 120 163.64 0 0 1 120-163.64z" opacity=".2"/>
    </g>
    <path d="m464-212a240 240 0 0 0-240 240 240 240 0 0 0 240 240 240 240 0 0 0 240-240 240 240 0 0 0-240-240zm0 76.364a120 163.64 0 0 1 120 163.64 120 163.64 0 0 1-120 163.64 120 163.64 0 0 1-120-163.64 120 163.64 0 0 1 120-163.64z" fill="#c2352a"/>
    <path transform="translate(0,-244)" d="m464 32a240 240 0 0 0-240 240 240 240 0 0 0 0.041 0.82812 240 240 0 0 1 239.96-238.83 240 240 0 0 1 239.96 239.17 240 240 0 0 0 0.04102-1.1719 240 240 0 0 0-240-240zm119.97 240.83a120 163.64 0 0 1-119.97 162.81 120 163.64 0 0 1-119.97-162.46 120 163.64 0 0 0-0.03125 0.82812 120 163.64 0 0 0 120 163.64 120 163.64 0 0 0 120-163.64 120 163.64 0 0 0-0.0312-1.1719z" fill="#fff" opacity=".3"/>
   </g>
  </g>
 </g>
 <g transform="translate(0,212)">
  <g></g>
 </g>
 <g transform="translate(0,-32)"></g>
</svg>
