<svg width="512" height="512" enable-background="new" version="1.0" xmlns="http://www.w3.org/2000/svg">
 <defs>
  <filter id="b" x="-.024" y="-.024" width="1.048" height="1.048" color-interpolation-filters="sRGB">
   <feGaussianBlur stdDeviation="4.8"/>
  </filter>
 </defs>
 <g transform="translate(-208,1270)">
  <path d="m464-1250a240 240 0 0 1 240 240 240 240 0 0 1-240 240 240 240 0 0 1-240-240 240 240 0 0 1 240-240zm0 76.364a120 163.64 0 0 0-120 163.64 120 163.64 0 0 0 120 163.64 120 163.64 0 0 0 120-163.64 120 163.64 0 0 0-120-163.64z" enable-background="new" filter="url(#b)" opacity=".1"/>
  <path d="m464-1250a240 240 0 0 1 240 240 240 240 0 0 1-240 240 240 240 0 0 1-240-240 240 240 0 0 1 240-240zm0 76.364a120 163.64 0 0 0-120 163.64 120 163.64 0 0 0 120 163.64 120 163.64 0 0 0 120-163.64 120 163.64 0 0 0-120-163.64z" enable-background="new" filter="url(#b)" opacity=".2"/>
  <path d="m464-1252a240 240 0 0 0-240 240 240 240 0 0 0 240 240 240 240 0 0 0 240-240 240 240 0 0 0-240-240zm0 76.364a120 163.64 0 0 1 120 163.64 120 163.64 0 0 1-120 163.64 120 163.64 0 0 1-120-163.64 120 163.64 0 0 1 120-163.64z" enable-background="new" opacity=".2"/>
  <path d="m464-1254a240 240 0 0 0-240 240 240 240 0 0 0 0.041 0.8282 240 240 0 0 1 239.96-238.83 240 240 0 0 1 239.96 239.17 240 240 0 0 0 0.041-1.1719 240 240 0 0 0-240-240zm119.97 240.83a120 163.64 0 0 1-119.97 162.81 120 163.64 0 0 1-119.97-162.46 120 163.64 0 0 0-0.031 0.8281 120 163.64 0 0 0 120 163.64 120 163.64 0 0 0 120-163.64 120 163.64 0 0 0-0.031-1.1718z" enable-background="new" fill="#fff" opacity=".3"/>
  <g transform="translate(4058.2,318.59)">
   <path d="m-3577.4-1570c0.097 0.01 0.1942 0.013 0.291 0.019a240 240 0 0 0-0.291-0.019zm-40.086 0.5723a240 240 0 0 0-1.2012 0.1152c0.3997-0.042 0.8011-0.076 1.2012-0.1152zm-23.166 3.4355a240 240 0 0 0-2.4082 0.4903c0.8015-0.1678 1.6044-0.3306 2.4082-0.4903zm-22.658 5.6602a240 240 0 0 0-3.9727 1.2539c1.3218-0.4246 2.6428-0.852 3.9727-1.2539zm-21.58 7.6816a240 240 0 0 0-5.4531 2.3086c1.8073-0.7933 3.6261-1.5598 5.4531-2.3086zm-21.318 9.9727a240 240 0 0 0-6.0722 3.3281c2.0084-1.1388 4.0323-2.2479 6.0722-3.3281zm-19.969 11.848a240 240 0 0 0-7.1875 4.9453c2.3684-1.6911 4.762-3.3432 7.1875-4.9453zm281.14 12.209 0.09 0.072a240 240 0 0 0-0.09-0.072zm-299.76 1.4238a240 240 0 0 0-7.4063 6.2149c2.4258-2.1286 4.9024-4.1904 7.4063-6.2149zm317.58 14.23c0.1594 0.1544 0.3176 0.31 0.4766 0.4649a240 240 0 0 0-0.4766-0.4649zm-335.54 1.8086a240 240 0 0 0-7.0625 7.2949c2.3065-2.4854 4.6615-4.9179 7.0625-7.2949zm168.56 6.9297a120 163.64 0 0 1 77.234 38.408c-20.872-23.963-47.814-38.408-77.234-38.408zm0 0c-2.7954 0-5.5767 0.1387-8.3398 0.4023a120 163.64 0 0 1 8.3398-0.4023zm-8.6933 0.4434c-3.8873 0.3866-7.7401 1.021-11.543 1.9101a120 163.64 0 0 1 11.543-1.9101zm-11.99 2.0253c-3.7694 0.9015-7.4932 2.0367-11.156 3.4141a120 163.64 0 0 1 11.156-3.4141zm-147.49 1.0059c-6.3117 0.4445-22.174 15.789-22.174 15.789l-1.1153 0.037c2.3717-3.1508 4.8171-6.2307 7.3262-9.2442a240 240 0 0 0-55.859 153.58 240 240 0 0 0 240 240 240 240 0 0 0 176.48-77.703c-173.94 94.596-262.41-48.066-262.47-48.174a120 163.64 0 0 1-34.008-114.12 120 163.64 0 0 1 15.223-79.641c0.6005-6.8854-0.2461-13.195-3.9414-17.111-7.1058-7.5311-26.862 13.802-44.113 29.039-8.2669 7.3021-17.971-2.3789-18.744-11.18-2.6681-30.378-2.1342-51.086 4.8984-73.135 1.9779-6.2011 0.9698-8.3087-1.5-8.1348zm135.62 2.6934c-3.5776 1.378-7.1016 2.9673-10.555 4.7832a120 163.64 0 0 1 10.555-4.7832zm215.95 2.6816c0.099 0.1168 0.1984 0.2327 0.2968 0.3496a240 240 0 0 0-0.2968-0.3496zm-227.5 2.6465c-3.3454 1.806-6.63 3.7991-9.836 6.0019a120 163.64 0 0 1 9.836-6.0019zm-11.084 6.8926c-3.0955 2.1893-6.1267 4.5462-9.0703 7.0937a120 163.64 0 0 1 9.0703-7.0937zm-10.482 8.3574c-2.8409 2.5357-5.6096 5.2221-8.2871 8.082a120 163.64 0 0 1 8.2871-8.082zm-9.7559 9.6973c-2.5961 2.8637-5.1148 5.8662-7.5352 9.0273a120 163.64 0 0 1 7.5352-9.0273zm152.79 2.125a120 163.64 0 0 1 8.5761 10.892c-2.727-3.8167-5.5886-7.4522-8.5761-10.892zm-161.78 8.8476c-2.3404 3.162-4.5988 6.4502-6.752 9.8848a120 163.64 0 0 1 6.752-9.8848zm170.59 2.3789a120 163.64 0 0 1 7.7851 12.088c-2.4503-4.2025-5.0488-8.2363-7.7851-12.088zm-178.71 9.7422c-2.0691 3.4218-4.0535 6.9569-5.9258 10.627a120 163.64 0 0 1 5.9258-10.627zm186.53 2.4102a120 163.64 0 0 1 25.68 90.037c-1.7495-33.907-11.073-64.959-25.68-90.037zm-193.77 10.873c-1.7488 3.5751-3.4106 7.25-4.9629 11.041a120 163.64 0 0 1 4.9629-11.041zm219.46 79.394a120 163.64 0 0 1 0.2969 11.422c0-3.8401-0.106-7.6479-0.2969-11.422zm0.2969 11.422a120 163.64 0 0 1-28.17 105.33c17.575-28.463 28.17-65.205 28.17-105.33zm-28.283 105.51a120 163.64 0 0 1-8.0058 11.721c2.8058-3.7264 5.4772-7.6375 8.0058-11.721zm-177.7 8.6308c2.7298 3.8244 5.5834 7.4431 8.5468 10.858a120 163.64 0 0 1-8.5468-10.858zm169.48 3.3731a120 163.64 0 0 1-8.8984 10.658c3.0942-3.3535 6.0636-6.9117 8.8984-10.658zm-160.72 7.7363c3.0036 3.4441 6.1195 6.6723 9.336 9.6817a120 163.64 0 0 1-9.336-9.6817zm151.8 2.9414a120 163.64 0 0 1-66.072 35.033c24.883-2.3785 47.672-15.098 66.072-35.033zm-142.26 6.9375c3.2505 3.0275 6.6046 5.8274 10.045 8.3965a120 163.64 0 0 1-10.045-8.3965zm10.207 8.5215c3.4664 2.579 7.0229 4.919 10.654 7.0176a120 163.64 0 0 1-10.654-7.0176zm245.52 5.4668c-0.031 0.039-0.061 0.08-0.092 0.1191a240 240 0 0 0 0.092-0.1191zm-234.72 1.6328c3.663 2.1095 7.4023 3.9711 11.205 5.5762a120 163.64 0 0 1-11.205-5.5762zm11.225 5.584c3.8069 1.6059 7.6763 2.9546 11.596 4.0391a120 163.64 0 0 1-11.596-4.0391zm11.631 4.0469c3.8993 1.0772 7.8471 1.8941 11.83 2.4394a120 163.64 0 0 1-11.83-2.4394zm11.857 2.4433c3.9572 0.5406 7.9501 0.8164 11.963 0.8164 2.8388 0 5.6519-0.1457 8.4414-0.4101a120 163.64 0 0 1-8.4414 0.4082 120 163.64 0 0 1-11.963-0.8145z" enable-background="new" fill="#c2352a"/>
   <path d="m-3594.2-1570.6c-75.295 0.088-146.18 35.507-191.47 95.664l1.1152-0.037s30.706-29.703 23.674-7.6543c-7.0326 22.048-7.5665 42.756-4.8984 73.135 0.7729 8.8008 10.477 18.482 18.744 11.18 17.251-15.238 37.008-36.57 44.113-29.039 3.6971 3.9182 4.5436 10.232 3.9414 17.121 21.174-51.835 61.266-83.978 104.78-84.006 66.274 0 120 73.263 120 163.64 1e-4 90.374-53.726 163.64-120 163.64-32.393 0-63.409-17.864-85.998-49.523 0 0 88.679 143.16 263.1 47.848 39.06-42.688 62.896-99.539 62.896-161.96 0-132.55-107.45-240-240-240z" enable-background="new" fill="#e6e6e6"/>
  </g>
 </g>
</svg>
