<svg width="128px" height="128px" version="1.1" viewBox="0 0 128 128" xmlns="http://www.w3.org/2000/svg">
 <defs>
  <filter id="filter57" x="-.012" y="-.012" width="1.024" height="1.024" color-interpolation-filters="sRGB">
   <feGaussianBlur stdDeviation="0.6"/>
  </filter>
 </defs>
 <path d="m61 6a4.0004 4.0004 0 0 0-3.9688 3.5039l-1.1484 9.1875c-2.9294 0.50471-5.7699 1.2785-8.4961 2.293l-5.5996-7.3945a4.0004 4.0004 0 0 0-2.3965-1.5059 4.0004 4.0004 0 0 0-0.95898-0.07617 4.0004 4.0004 0 0 0-1.834 0.53125l-5.1953 3a4.0004 4.0004 0 0 0-1.6855 5.0195l3.623 8.5879c-2.2456 1.8734-4.32 3.9478-6.1934 6.1934l-8.5879-3.623a4.0004 4.0004 0 0 0-1.4043-0.31055 4.0004 4.0004 0 0 0-1.4238 0.20508 4.0004 4.0004 0 0 0-2.1914 1.791l-3 5.1953a4.0004 4.0004 0 0 0 1.0508 5.1895l7.3945 5.5977c-1.0148 2.7267-1.7882 5.568-2.293 8.498l-9.1875 1.1484a4.0004 4.0004 0 0 0-3.5039 3.9688v6a4.0004 4.0004 0 0 0 3.5039 3.9688l9.1875 1.1484c0.50471 2.9294 1.2785 5.7699 2.293 8.4961l-7.3945 5.5996a4.0004 4.0004 0 0 0-1.0508 5.1895l3 5.1953a4.0004 4.0004 0 0 0 5.0195 1.6855l8.5879-3.623c1.8734 2.2456 3.9478 4.32 6.1934 6.1934l-3.623 8.5879a4.0004 4.0004 0 0 0 1.6855 5.0195l5.1953 3a4.0004 4.0004 0 0 0 5.1875-1.0508l5.5996-7.3945c2.7266 1.0147 5.5681 1.7882 8.498 2.293l1.1484 9.1875a4.0004 4.0004 0 0 0 3.9688 3.5039h6a4.0004 4.0004 0 0 0 3.9688-3.5039l1.1484-9.1875c2.9294-0.50471 5.7699-1.2785 8.4961-2.293l5.5996 7.3945a4.0004 4.0004 0 0 0 5.1895 1.0508l5.1953-3a4.0004 4.0004 0 0 0 1.6855-5.0195l-3.623-8.5879c2.2456-1.8734 4.32-3.9478 6.1934-6.1934l8.5879 3.623a4.0004 4.0004 0 0 0 5.0195-1.6855l3-5.1953a4.0004 4.0004 0 0 0-1.0508-5.1895l-7.3945-5.5996c1.0145-2.7262 1.7883-5.5666 2.293-8.4961l9.1875-1.1484a4.0004 4.0004 0 0 0 3.5039-3.9688v-6a4.0004 4.0004 0 0 0-3.5039-3.9688l-9.1875-1.1484c-0.50482-2.9301-1.2782-5.7713-2.293-8.498l7.3945-5.5977a4.0004 4.0004 0 0 0 1.0508-5.1895l-3-5.1953a4.0004 4.0004 0 0 0-2.1914-1.791 4.0004 4.0004 0 0 0-1.4238-0.20508 4.0004 4.0004 0 0 0-1.4043 0.31055l-8.5879 3.623c-1.8734-2.2456-3.9478-4.32-6.1934-6.1934l3.623-8.5879a4.0004 4.0004 0 0 0-1.6855-5.0176l-5.1953-3a4.0004 4.0004 0 0 0-1.834-0.5332 4.0004 4.0004 0 0 0-0.95898 0.07617 4.0004 4.0004 0 0 0-2.3965 1.5059l-5.5996 7.3945c-2.7262-1.0145-5.5666-1.7883-8.4961-2.293l-1.1484-9.1875a4.0004 4.0004 0 0 0-3.9688-3.5039zm3 32c15.585 0 28 12.415 28 28s-12.415 28-28 28-28-12.415-28-28 12.415-28 28-28z" fill="#000000" filter="url(#filter57)" opacity=".2"/>
 <path d="m61 4a4.0004 4.0004 0 0 0-3.9688 3.5039l-1.1484 9.1875c-2.9294 0.50471-5.7699 1.2785-8.4961 2.293l-5.5996-7.3945a4.0004 4.0004 0 0 0-2.3965-1.5059 4.0004 4.0004 0 0 0-0.95898-0.076172 4.0004 4.0004 0 0 0-1.834 0.53125l-5.1953 3a4.0004 4.0004 0 0 0-1.6855 5.0195l3.623 8.5879c-2.2456 1.8734-4.32 3.9478-6.1934 6.1934l-8.5879-3.623a4.0004 4.0004 0 0 0-1.4043-0.31055 4.0004 4.0004 0 0 0-1.4238 0.20508 4.0004 4.0004 0 0 0-2.1914 1.791l-3 5.1953a4.0004 4.0004 0 0 0 1.0508 5.1895l7.3945 5.5977c-1.0148 2.7267-1.7882 5.568-2.293 8.498l-9.1875 1.1484a4.0004 4.0004 0 0 0-3.5039 3.9688v6a4.0004 4.0004 0 0 0 3.5039 3.9688l9.1875 1.1484c0.50471 2.9294 1.2785 5.7699 2.293 8.4961l-7.3945 5.5996a4.0004 4.0004 0 0 0-1.0508 5.1895l3 5.1953a4.0004 4.0004 0 0 0 5.0195 1.6855l8.5879-3.623c1.8734 2.2456 3.9478 4.32 6.1934 6.1934l-3.623 8.5879a4.0004 4.0004 0 0 0 1.6855 5.0195l5.1953 3a4.0004 4.0004 0 0 0 5.1875-1.0508l5.5996-7.3945c2.7266 1.0147 5.5681 1.7882 8.498 2.293l1.1484 9.1875a4.0004 4.0004 0 0 0 3.9688 3.5039h6a4.0004 4.0004 0 0 0 3.9688-3.5039l1.1484-9.1875c2.9294-0.50471 5.7699-1.2785 8.4961-2.293l5.5996 7.3945a4.0004 4.0004 0 0 0 5.1895 1.0508l5.1953-3a4.0004 4.0004 0 0 0 1.6855-5.0195l-3.623-8.5879c2.2456-1.8734 4.32-3.9478 6.1934-6.1934l8.5879 3.623a4.0004 4.0004 0 0 0 5.0195-1.6855l3-5.1953a4.0004 4.0004 0 0 0-1.0508-5.1895l-7.3945-5.5996c1.0145-2.7262 1.7883-5.5666 2.293-8.4961l9.1875-1.1484a4.0004 4.0004 0 0 0 3.5039-3.9688v-6a4.0004 4.0004 0 0 0-3.5039-3.9688l-9.1875-1.1484c-0.50482-2.9301-1.2782-5.7713-2.293-8.498l7.3945-5.5977a4.0004 4.0004 0 0 0 1.0508-5.1895l-3-5.1953a4.0004 4.0004 0 0 0-2.1914-1.791 4.0004 4.0004 0 0 0-1.4238-0.20508 4.0004 4.0004 0 0 0-1.4043 0.31055l-8.5879 3.623c-1.8734-2.2456-3.9478-4.32-6.1934-6.1934l3.623-8.5879a4.0004 4.0004 0 0 0-1.6855-5.0176l-5.1953-3a4.0004 4.0004 0 0 0-1.834-0.5332 4.0004 4.0004 0 0 0-0.95898 0.076172 4.0004 4.0004 0 0 0-2.3965 1.5059l-5.5996 7.3945c-2.7262-1.0145-5.5666-1.7883-8.4961-2.293l-1.1484-9.1875a4.0004 4.0004 0 0 0-3.9688-3.5039h-6zm3 32c15.585 0 28 12.415 28 28s-12.415 28-28 28-28-12.415-28-28 12.415-28 28-28z" fill="#f2f2f2"/>
 <path transform="matrix(0 -1 -1 0 0 -172)" d="m-208-64c0 15.51-12.49 28-28 28s-28-12.49-28-28 12.49-28 28-28 28 12.49 28 28zm-4 0c0-13.286-10.714-24-24-24s-24 10.714-24 24 10.714 24 24 24 24-10.714 24-24z" opacity=".15"/>
 <path transform="matrix(0 1 -1 0 0 -172)" d="m236-100c-19.834 0-36 16.166-36 36s16.166 36 36 36 36-16.166 36-36-16.166-36-36-36zm0 8c15.51 0 28 12.49 28 28s-12.49 28-28 28-28-12.49-28-28 12.49-28 28-28z" opacity=".06"/>
 <path d="m61 4a4.0004 4.0004 0 0 0-3.9688 3.5039l-1.1484 9.1875c-2.9294 0.50471-5.7699 1.2785-8.4961 2.293l-5.5996-7.3945a4.0004 4.0004 0 0 0-2.3965-1.5059 4.0004 4.0004 0 0 0-0.95898-0.076172 4.0004 4.0004 0 0 0-1.834 0.53125l-5.1953 3a4.0004 4.0004 0 0 0-1.9668 3.9492 4.0004 4.0004 0 0 1 1.9668-2.9492l5.1953-3a4.0004 4.0004 0 0 1 1.834-0.53125 4.0004 4.0004 0 0 1 0.95898 0.076172 4.0004 4.0004 0 0 1 2.3965 1.5059l5.5996 7.3945c2.7262-1.0145 5.5666-1.7883 8.4961-2.293l1.1484-9.1875a4.0004 4.0004 0 0 1 3.9688-3.5039h6a4.0004 4.0004 0 0 1 3.9688 3.5039l1.1484 9.1875c2.9294 0.50471 5.7699 1.2785 8.4961 2.293l5.5996-7.3945a4.0004 4.0004 0 0 1 2.3965-1.5059 4.0004 4.0004 0 0 1 0.95898-0.076172 4.0004 4.0004 0 0 1 1.834 0.5332l5.1953 3a4.0004 4.0004 0 0 1 1.9668 2.9551 4.0004 4.0004 0 0 0-1.9668-3.9551l-5.1953-3a4.0004 4.0004 0 0 0-1.834-0.5332 4.0004 4.0004 0 0 0-0.95898 0.076172 4.0004 4.0004 0 0 0-2.3965 1.5059l-5.5996 7.3945c-2.7262-1.0145-5.5666-1.7883-8.4961-2.293l-1.1484-9.1875a4.0004 4.0004 0 0 0-3.9688-3.5039h-6zm-27.971 23.408c-2.1262 1.8042-4.0963 3.7902-5.8828 5.9316l-8.5879-3.623a4.0004 4.0004 0 0 0-1.4043-0.31055 4.0004 4.0004 0 0 0-1.4238 0.20508 4.0004 4.0004 0 0 0-2.1914 1.791l-3 5.1953a4.0004 4.0004 0 0 0-0.50195 2.4941 4.0004 4.0004 0 0 1 0.50195-1.4941l3-5.1953a4.0004 4.0004 0 0 1 2.1914-1.791 4.0004 4.0004 0 0 1 1.4238-0.20508 4.0004 4.0004 0 0 1 1.4043 0.31055l8.5879 3.623c1.8734-2.2456 3.9478-4.32 6.1934-6.1934l-0.31055-0.73828zm61.941 0-0.31055 0.73828c2.2456 1.8734 4.32 3.9478 6.1934 6.1934l8.5879-3.623a4.0004 4.0004 0 0 1 1.4043-0.31055 4.0004 4.0004 0 0 1 1.4238 0.20508 4.0004 4.0004 0 0 1 2.1914 1.791l3 5.1953a4.0004 4.0004 0 0 1 0.50195 1.4941 4.0004 4.0004 0 0 0-0.50195-2.4941l-3-5.1953a4.0004 4.0004 0 0 0-2.1914-1.791 4.0004 4.0004 0 0 0-1.4238-0.20508 4.0004 4.0004 0 0 0-1.4043 0.31055l-8.5879 3.623c-1.7865-2.1414-3.7566-4.1274-5.8828-5.9316zm-76.271 20.762c-0.87586 2.4857-1.5512 5.0628-2.0078 7.7129l-9.1875 1.1484a4.0004 4.0004 0 0 0-3.5039 3.9688v1a4.0004 4.0004 0 0 1 3.5039-3.9688l9.1875-1.1484c0.50482-2.9301 1.2782-5.7713 2.293-8.498l-0.28516-0.21484zm90.602 0-0.28516 0.21484c1.0148 2.7267 1.7882 5.568 2.293 8.498l9.1875 1.1484a4.0004 4.0004 0 0 1 3.5039 3.9688v-1a4.0004 4.0004 0 0 0-3.5039-3.9688l-9.1875-1.1484c-0.45658-2.6501-1.132-5.2272-2.0078-7.7129zm-73.297 16.33c-0.002841 0.1663-0.003906 0.33297-0.003906 0.5 0 15.585 12.415 28 28 28s28-12.415 28-28c0-0.16703-0.001065-0.3337-0.003906-0.5-0.26223 15.349-12.578 27.5-27.996 27.5s-27.734-12.151-27.996-27.5zm-17.305 16.328-7.1094 5.3848a4.0004 4.0004 0 0 0-1.5527 3.6953 4.0004 4.0004 0 0 1 1.5527-2.6953l7.3945-5.5996c-0.096954-0.26055-0.19262-0.52254-0.28516-0.78516zm90.602 0c-0.09253 0.26261-0.1882 0.52461-0.28516 0.78516l7.3945 5.5996a4.0004 4.0004 0 0 1 1.5527 2.6953 4.0004 4.0004 0 0 0-1.5527-3.6953l-7.1094-5.3848zm-76.271 20.764-3.3125 7.8496a4.0004 4.0004 0 0 0-0.28125 2.0703 4.0004 4.0004 0 0 1 0.28125-1.0703l3.623-8.5879c-0.10416-0.0869-0.20713-0.17397-0.31055-0.26172zm61.941 0c-0.10342 0.08775-0.20639 0.17482-0.31055 0.26172l3.623 8.5879a4.0004 4.0004 0 0 1 0.28125 1.0703 4.0004 4.0004 0 0 0-0.28125-2.0703l-3.3125-7.8496z" fill="#ffffff"/>
</svg>
