<svg width="64" height="64" version="1" xmlns="http://www.w3.org/2000/svg">
 <defs>
  <filter id="filter1533" x="-.03072" y="-.03072" width="1.0614" height="1.0614" color-interpolation-filters="sRGB">
   <feGaussianBlur stdDeviation="0.76799841"/>
  </filter>
 </defs>
 <path d="m31.999 3.0001c-1.571 0-3.144 0.5857-4.319 1.7604l-23.92 23.922c-2.3494 2.35-2.3461 6.281 0.0035 8.631l23.92 23.922c2.349 2.35 6.285 2.353 8.634 4e-3l23.92-23.923c2.349-2.349 2.349-6.284 0-8.634l-23.92-23.922c-1.175-1.1747-2.747-1.7604-4.319-1.7604z" fill="#000000" filter="url(#filter1533)" opacity=".2"/>
 <path d="m2 32c0.0013362 1.5697 0.58936 3.1399 1.7637 4.3145l23.92 23.922c2.349 2.35 6.2858 2.3529 8.6348 0.003906l23.92-23.924c1.1745-1.1745 1.7617-2.7453 1.7617-4.3164h-60z" fill="#43dbc3"/>
 <path d="m2 32h60c0-1.5711-0.58722-3.1414-1.7617-4.3164l-23.92-23.924c-1.175-1.1747-2.7483-1.7598-4.3203-1.7598-1.571 0-3.1434 0.58507-4.3184 1.7598l-23.92 23.924c-1.1752 1.175-1.7611 2.7454-1.7598 4.3164z" fill="#4c93e6"/>
 <path d="m32 2c-1.571 0-3.146 0.5851-4.32 1.7598l-23.92 23.924c-1.2997 1.299-1.8755 3.082-1.7364 4.814 0.1109-1.399 0.6865-2.765 1.7364-3.814l23.92-23.924c1.174-1.1747 2.749-1.7598 4.32-1.7598 1.572 0 3.144 0.5851 4.318 1.7598l23.92 23.924c1.05 1.049 1.627 2.416 1.739 3.816 0.138-1.733-0.439-3.517-1.739-4.816l-23.92-23.924c-1.174-1.1747-2.746-1.7598-4.318-1.7598z" fill="#ffffff" opacity=".2"/>
 <path d="m11 32h21v21z" fill="#ffffff"/>
 <path d="m46 18h-14v14z" fill="#ffffff" opacity=".5"/>
 <path d="m32 32h10v10z" fill="#ffffff" opacity=".75"/>
</svg>
