<svg xmlns="http://www.w3.org/2000/svg" width="512" height="512" enable-background="new" version="1.0"><defs><filter id="a" width="1.052" height="1.045" x="-.026" y="-.022" color-interpolation-filters="sRGB"><feGaussianBlur stdDeviation="4.16"/></filter><filter id="b" width="1.12" height="1.12" x="-.06" y="-.06" color-interpolation-filters="sRGB"><feGaussianBlur stdDeviation="6"/></filter><filter id="d" width="1.048" height="1.048" x="-.024" y="-.024" color-interpolation-filters="sRGB"><feGaussianBlur stdDeviation="2.4"/></filter></defs><g transform="translate(-224 228)"><rect width="384" height="448" x="-224" y="-704" filter="url(#a)" opacity=".2" rx="24" ry="24" transform="scale(1 -1)rotate(90)"/><rect width="384" height="448" x="-224" y="-704" filter="url(#a)" opacity=".1" rx="24" ry="24" transform="scale(1 -1)rotate(90)"/><rect width="384" height="448" x="-220" y="-704" fill="#455a64" rx="24" ry="24" transform="scale(1 -1)rotate(90)"/><path d="M704 196v2c0 13.296-10.704 24-24 24H280c-13.296 0-24-10.704-24-24v-2c0 13.296 10.704 24 24 24h400c13.296 0 24-10.704 24-24" opacity=".2"/><path fill="#fff" d="M280-164c-13.296 0-24 10.704-24 24v2c0-13.296 10.704-24 24-24h400c13.296 0 24 10.704 24 24v-2c0-13.296-10.704-24-24-24z" opacity=".1"/><g fill="#d4e9ee"><path d="M336-84h32v8h-32z" color="#bebebe" enable-background="accumulate"/><path d="M304-132h8v56h-8z"/><path d="M304-124c-6.648 0-12 5.352-12 12s5.352 12 12 12h8c2.216 0 4 1.784 4 4s-1.784 4-4 4h-19.266c1.648 4.655 6.032 8 11.266 8h8c6.648 0 12-5.352 12-12s-5.352-12-12-12h-8c-2.216 0-4-1.784-4-4s1.784-4 4-4h19.266c-1.648-4.655-6.032-8-11.266-8h-4z"/></g></g><circle cx="380.8" cy="379.8" r="120" filter="url(#b)" opacity=".2"/><circle cx="380.8" cy="375.8" r="120" filter="url(#d)" opacity=".2"/><circle cx="380.8" cy="373.8" r="120" fill="#5f7c8a"/><path fill="#fff" d="m362.8 301.8-1.586 18.965a56.6 56.6 0 0 0-16.535 9.563l-17.236-8.118-18 31.18 15.65 10.867a56.6 56.6 0 0 0-.865 9.543 56.6 56.6 0 0 0 .824 9.582l-15.609 10.828 18 31.18 17.197-8.095a56.6 56.6 0 0 0 16.572 9.502L362.8 445.8h36l1.586-18.965a56.6 56.6 0 0 0 16.535-9.563l17.236 8.117 18-31.18-15.65-10.867a56.6 56.6 0 0 0 .865-9.543 56.6 56.6 0 0 0-.824-9.582l15.609-10.828-18-31.18-17.197 8.096a56.6 56.6 0 0 0-16.572-9.502L398.8 301.8zm18 48a24 24 0 0 1 24 24 24 24 0 0 1-24 24 24 24 0 0 1-24-24 24 24 0 0 1 24-24"/></svg>