<svg xmlns="http://www.w3.org/2000/svg" width="128" height="128"><defs><filter id="b" width="1.095" height="1.097" x="-.047" y="-.049" color-interpolation-filters="sRGB"><feGaussianBlur stdDeviation="2.214"/></filter></defs><clipPath id="d"><path d="M24 70h80v12H24z"/></clipPath><clipPath id="e"><path d="M24 70v2h18c0 3.574 1.906 6.875 5 8.66s6.906 1.785 10 0a10.02 10.02 0 0 0 4.793-6.73v.097c.207-2.675 4.207-2.656 4.414 0v-.113A10 10 0 0 0 71 80.66c3.094 1.785 6.906 1.785 10 0s5-5.086 5-8.66h18v-2z"/></clipPath><linearGradient id="o" x1="32" x2="89" y1="77" y2="77" gradientUnits="userSpaceOnUse"><stop offset="0" stop-color="#3d3846"/><stop offset=".387" stop-color="#4f485a"/><stop offset="1" stop-color="#201d24"/></linearGradient><clipPath id="h"><path d="M38 70h20v12H38z"/></clipPath><clipPath id="j"><path d="M24 70v2h18c0 3.574 1.906 6.875 5 8.66s6.906 1.785 10 0a10.02 10.02 0 0 0 4.793-6.73v.097c.207-2.675 4.207-2.656 4.414 0v-.113A10 10 0 0 0 71 80.66c3.094 1.785 6.906 1.785 10 0s5-5.086 5-8.66h18v-2z"/></clipPath><clipPath id="k"><path d="M47 70h18v12H47z"/></clipPath><clipPath id="l"><path d="M24 70v2h18c0 3.574 1.906 6.875 5 8.66s6.906 1.785 10 0a10.02 10.02 0 0 0 4.793-6.73v.097c.207-2.675 4.207-2.656 4.414 0v-.113A10 10 0 0 0 71 80.66c3.094 1.785 6.906 1.785 10 0s5-5.086 5-8.66h18v-2z"/></clipPath><clipPath id="m"><path d="M70 70h18v12H70z"/></clipPath><clipPath id="n"><path d="M24 70v2h18c0 3.574 1.906 6.875 5 8.66s6.906 1.785 10 0a10.02 10.02 0 0 0 4.793-6.73v.097c.207-2.675 4.207-2.656 4.414 0v-.113A10 10 0 0 0 71 80.66c3.094 1.785 6.906 1.785 10 0s5-5.086 5-8.66h18v-2z"/></clipPath><g filter="url(#b)" opacity=".15" transform="translate(0 1.29)"><path fill-opacity=".969" d="M18.418 94A2.41 2.41 0 0 0 16 96.418v14.434A9.13 9.13 0 0 0 25.148 120h77.703a9.13 9.13 0 0 0 9.149-9.148V96.418A2.41 2.41 0 0 0 109.582 94z"/><path d="M18.418 88A2.41 2.41 0 0 0 16 90.418v14.434A9.13 9.13 0 0 0 25.148 114h77.703a9.13 9.13 0 0 0 9.149-9.148V90.418A2.41 2.41 0 0 0 109.582 88z"/><path d="M18.418 90A2.41 2.41 0 0 0 16 92.418v14.434A9.13 9.13 0 0 0 25.148 116h77.703a9.13 9.13 0 0 0 9.149-9.148V92.418A2.41 2.41 0 0 0 109.582 90z"/><path d="M26.25 56h75.5c1.242 0 2.25 1.082 2.25 2.418v55.164c0 1.336-1.008 2.418-2.25 2.418h-75.5c-1.242 0-2.25-1.082-2.25-2.418V58.418C24 57.082 25.008 56 26.25 56"/><path d="m16 92 4.48 3.36a19.9 19.9 0 0 0 7.825 3.546l29.473 6.203a6.55 6.55 0 0 1 5.07 5.121L64 116H22.16a6.16 6.16 0 0 1-6.16-6.16zM112 92l-4.48 3.36a19.9 19.9 0 0 1-7.825 3.546l-29.473 6.203a6.55 6.55 0 0 0-5.07 5.121L64 116h41.84a6.16 6.16 0 0 0 6.16-6.16zM16 60l21.641-46.887a4.32 4.32 0 0 1 6.688-1.508l15.343 12.79a6.76 6.76 0 0 0 8.657 0l15.344-12.79a4.32 4.32 0 0 1 6.688 1.508L112 60z"/><path d="M12 56h104c2.21 0 4 1.79 4 4s-1.79 4-4 4H12c-2.21 0-4-1.79-4-4s1.79-4 4-4"/><g clip-path="url(#d)"><g clip-path="url(#e)"><path d="M24.418 68h78.164A2.417 2.417 0 0 1 105 70.418v11.164A2.417 2.417 0 0 1 102.582 84H24.418A2.417 2.417 0 0 1 22 81.582V70.418A2.417 2.417 0 0 1 24.418 68"/></g></g><g clip-path="url(#h)"><g clip-path="url(#j)"><path d="m54.188 65 3.54 3.535-15.454 15.45-3.535-3.536z"/></g></g><g clip-path="url(#k)"><g clip-path="url(#l)"><path d="m62.727 67.043 1.492 1.492-15.449 15.45-1.496-1.493z"/></g></g><g clip-path="url(#m)"><g clip-path="url(#n)"><path d="m85.98 67.043 1.492 1.492-15.453 15.45-1.492-1.493z"/></g></g></g><path fill="#8d6542" fill-opacity=".969" d="M18.418 94A2.41 2.41 0 0 0 16 96.418v14.434A9.13 9.13 0 0 0 25.148 120h77.703a9.13 9.13 0 0 0 9.149-9.148V96.418A2.41 2.41 0 0 0 109.582 94z"/><path fill="#b5835a" d="M18.418 88A2.41 2.41 0 0 0 16 90.418v14.434A9.13 9.13 0 0 0 25.148 114h77.703a9.13 9.13 0 0 0 9.149-9.148V90.418A2.41 2.41 0 0 0 109.582 88z"/><path fill="#664930" d="M18.418 90A2.41 2.41 0 0 0 16 92.418v14.434A9.13 9.13 0 0 0 25.148 116h77.703a9.13 9.13 0 0 0 9.149-9.148V92.418A2.41 2.41 0 0 0 109.582 90z"/><path fill="#f7d786" d="M26.25 56h75.5c1.242 0 2.25 1.082 2.25 2.418v55.164c0 1.336-1.008 2.418-2.25 2.418h-75.5c-1.242 0-2.25-1.082-2.25-2.418V58.418C24 57.082 25.008 56 26.25 56"/><path fill="#b5835a" d="m16 92 4.48 3.36a19.9 19.9 0 0 0 7.825 3.546l29.473 6.203a6.55 6.55 0 0 1 5.07 5.121L64 116H22.16a6.16 6.16 0 0 1-6.16-6.16zM112 92l-4.48 3.36a19.9 19.9 0 0 1-7.825 3.546l-29.473 6.203a6.55 6.55 0 0 0-5.07 5.121L64 116h41.84a6.16 6.16 0 0 0 6.16-6.16z"/><path fill="#986a44" d="m16 60 21.641-46.887a4.32 4.32 0 0 1 6.688-1.508l15.343 12.79a6.76 6.76 0 0 0 8.657 0l15.344-12.79a4.32 4.32 0 0 1 6.688 1.508L112 60z"/><path fill="#b5835a" d="M12 56h104c2.21 0 4 1.79 4 4s-1.79 4-4 4H12c-2.21 0-4-1.79-4-4s1.79-4 4-4"/><g clip-path="url(#d)"><g clip-path="url(#e)"><path fill="url(#o)" d="M24.418 68h78.164A2.417 2.417 0 0 1 105 70.418v11.164A2.417 2.417 0 0 1 102.582 84H24.418A2.417 2.417 0 0 1 22 81.582V70.418A2.417 2.417 0 0 1 24.418 68"/></g></g><g clip-path="url(#h)"><g clip-path="url(#j)"><path fill="#5e5c64" d="m54.188 65 3.54 3.535-15.454 15.45-3.535-3.536z"/></g></g><g clip-path="url(#k)"><g clip-path="url(#l)"><path fill="#5e5c64" d="m62.727 67.043 1.492 1.492-15.449 15.45-1.496-1.493z"/></g></g><g clip-path="url(#m)"><g clip-path="url(#n)"><path fill="#5e5c64" d="m85.98 67.043 1.492 1.492-15.453 15.45-1.492-1.493z"/></g></g></svg>