<svg width="512" height="512" enable-background="new" version="1.0" xmlns="http://www.w3.org/2000/svg">
 <defs>
  <filter id="a" x="-.018857" y="-.033" width="1.0377" height="1.066" color-interpolation-filters="sRGB">
   <feGaussianBlur stdDeviation="3.52"/>
  </filter>
  <filter id="b" x="-.12" y="-.12" width="1.24" height="1.24" color-interpolation-filters="sRGB">
   <feGaussianBlur stdDeviation="0.17142857"/>
  </filter>
 </defs>
 <g transform="translate(0,212)">
  <g>
   <g transform="translate(-208 16)">
    <g>
     <path d="m368-98c-70.692 0-128 57.308-128 128s57.308 128 128 128c52.091-0.0751 98.941-31.71 118.47-80h89.525v48h80v-48h32v-96h-201.66c-19.515-48.244-66.297-79.869-118.34-80z" opacity=".2"/>
     <path d="m368-96c-70.692 0-128 57.308-128 128s57.308 128 128 128c52.091-0.0751 98.941-31.71 118.47-80h89.525v48h80v-48h32v-96h-201.66c-19.515-48.244-66.297-79.869-118.34-80z" filter="url(#a)" opacity=".1" stroke="#000" stroke-linecap="round" stroke-width="8"/>
     <path d="m368-96c-70.692 0-128 57.308-128 128s57.308 128 128 128c52.091-0.0751 98.941-31.71 118.47-80h89.525v48h80v-48h32v-96h-201.66c-19.515-48.244-66.297-79.869-118.34-80z" filter="url(#a)" opacity=".2"/>
    </g>
    <path d="m368-100c-70.692 0-128 57.308-128 128s57.308 128 128 128c52.091-0.0751 98.941-31.71 118.47-80h89.525v48h80v-48h32v-96h-201.66c-19.515-48.244-66.297-79.869-118.34-80z" fill="#78909c"/>
    <circle transform="matrix(28 0 0 28 -208 -7712.1)" cx="20.571" cy="276.72" r="1.7143" filter="url(#b)" opacity=".2"/>
    <circle cx="368" cy="28" r="48" fill="#f9f9f9"/>
    <path d="m368-100c-70.692 0-128 57.308-128 128 0 0.33424 9e-3 0.66636 0.0117 1 0.53837-70.231 57.63-127 127.99-127 52.041 0.13069 98.823 31.756 118.34 80h201.66v-2h-201.66c-19.515-48.244-66.297-79.869-118.34-80z" enable-background="new" fill="#fff" opacity=".2"/>
   </g>
  </g>
 </g>
</svg>
