<svg xmlns="http://www.w3.org/2000/svg" width="512" height="512" enable-background="new" version="1.0"><defs><filter id="a" width="1.038" height="1.066" x="-.019" y="-.033" color-interpolation-filters="sRGB"><feGaussianBlur stdDeviation="3.52"/></filter><filter id="b" width="1.24" height="1.24" x="-.12" y="-.12" color-interpolation-filters="sRGB"><feGaussianBlur stdDeviation=".171"/></filter></defs><g transform="translate(-208 228)"><path d="M368-98c-70.692 0-128 57.308-128 128s57.308 128 128 128c52.091-.075 98.941-31.71 118.47-80h89.525v48h80V78h32v-96h-201.66c-19.515-48.244-66.297-79.869-118.34-80z" opacity=".2"/><path stroke="#000" stroke-linecap="round" stroke-width="8" d="M368-96c-70.692 0-128 57.308-128 128s57.308 128 128 128c52.091-.075 98.941-31.71 118.47-80h89.525v48h80V80h32v-96h-201.66c-19.515-48.244-66.297-79.869-118.34-80z" filter="url(#a)" opacity=".1"/><path d="M368-96c-70.692 0-128 57.308-128 128s57.308 128 128 128c52.091-.075 98.941-31.71 118.47-80h89.525v48h80V80h32v-96h-201.66c-19.515-48.244-66.297-79.869-118.34-80z" filter="url(#a)" opacity=".2"/><path fill="#78909c" d="M368-100c-70.692 0-128 57.308-128 128s57.308 128 128 128c52.091-.075 98.941-31.71 118.47-80h89.525v48h80V76h32v-96h-201.66c-19.515-48.244-66.297-79.869-118.34-80z"/><circle cx="20.571" cy="276.72" r="1.714" filter="url(#b)" opacity=".2" transform="matrix(28 0 0 28 -208 -7712.1)"/><circle cx="368" cy="28" r="48" fill="#f9f9f9"/><path fill="#fff" d="M368-100c-70.692 0-128 57.308-128 128 0 .334.009.666.012 1 .538-70.231 57.63-127 127.99-127 52.04.13 98.823 31.756 118.34 80h201.66v-2h-201.66c-19.515-48.244-66.297-79.869-118.34-80z" enable-background="new" opacity=".2"/></g></svg>