<svg width="512" height="512" enable-background="new" version="1.0" xmlns="http://www.w3.org/2000/svg">
 <defs>
  <filter id="b" x="-.024" y="-.024" width="1.048" height="1.048" color-interpolation-filters="sRGB">
   <feGaussianBlur stdDeviation="4.8"/>
  </filter>
  <filter id="a" x="-.024" y="-.024" width="1.048" height="1.048" color-interpolation-filters="sRGB">
   <feGaussianBlur stdDeviation="4.8"/>
  </filter>
  <filter id="c" x="-.06" y="-.06" width="1.12" height="1.12" color-interpolation-filters="sRGB">
   <feGaussianBlur stdDeviation="1.1999992"/>
  </filter>
 </defs>
 <circle cx="256" cy="260" r="240" filter="url(#b)" opacity=".2"/>
 <circle cx="256" cy="258" r="240" opacity=".2"/>
 <circle cx="256" cy="260" r="240" filter="url(#a)" opacity=".1" stroke="#000" stroke-width="8"/>
 <circle cx="256" cy="256" r="240" fill="#823c9e" stroke-width="8" style="paint-order:stroke markers fill"/>
 <path d="M 256,16 A 240,240 0 0 0 16,256 240,240 0 0 0 16.041,257.17188 240,240 0 0 1 256,18 240,240 0 0 1 495.95898,256.82812 240,240 0 0 0 496,256 240,240 0 0 0 256,16 Z" fill="#fff" opacity=".2"/>
 <circle transform="matrix(0 -8 8 0 1e-4 -.00014)" cx="-32" cy="32" r="24" enable-background="new" filter="url(#c)" opacity=".15"/>
 <circle transform="rotate(-90)" cx="-256" cy="256" r="192" enable-background="new" fill="#f2f1ef" stroke-width="8"/>
 <path d="m288 128h-64v80l32 8e-5v16l-32 16v144h64v-80l-32-16 32-16z" enable-background="new" fill="#3d3846" stroke-width="8"/>
</svg>
