<svg xmlns="http://www.w3.org/2000/svg" width="512" height="512" enable-background="new" version="1.0"><defs><filter id="a" width="1.048" height="1.048" x="-.024" y="-.024" color-interpolation-filters="sRGB"><feGaussianBlur stdDeviation="4.8"/></filter><filter id="c" width="1.048" height="1.048" x="-.024" y="-.024" color-interpolation-filters="sRGB"><feGaussianBlur stdDeviation="4.8"/></filter><filter id="d" width="1.12" height="1.12" x="-.06" y="-.06" color-interpolation-filters="sRGB"><feGaussianBlur stdDeviation="1.2"/></filter></defs><circle cx="256" cy="260" r="240" filter="url(#a)" opacity=".2"/><circle cx="256" cy="258" r="240" opacity=".2"/><circle cx="256" cy="260" r="240" stroke="#000" stroke-width="8" filter="url(#c)" opacity=".1"/><circle cx="256" cy="256" r="240" fill="#823c9e" style="paint-order:stroke markers fill"/><path fill="#fff" d="M256 16A240 240 0 0 0 16 256l.041 1.172A240 240 0 0 1 256 18a240 240 0 0 1 239.959 238.828L496 256A240 240 0 0 0 256 16" opacity=".2"/><circle cx="-32" cy="32" r="24" filter="url(#d)" opacity=".15" transform="matrix(0 -8 8 0 0 0)"/><circle cx="-256" cy="256" r="192" fill="#f2f1ef" transform="rotate(-90)"/><path fill="#3d3846" d="M288 128h-64v80h32v16l-32 16v144h64v-80l-32-16 32-16z"/></svg>