<svg xmlns="http://www.w3.org/2000/svg" width="512" height="512" enable-background="new" version="1.0"><defs><filter id="a" width="1.048" height="1.048" x="-.024" y="-.024" color-interpolation-filters="sRGB"><feGaussianBlur stdDeviation="4.48"/></filter><filter id="b" width="1.12" height="1.12" x="-.06" y="-.06" color-interpolation-filters="sRGB"><feGaussianBlur stdDeviation="6"/></filter></defs><g transform="translate(-208 226.8)"><rect width="448" height="448" x="-256" y="-688" enable-background="new" filter="url(#a)" opacity=".2" rx="36" ry="36" transform="scale(1 -1)rotate(90)"/><rect width="448" height="448" x="-254" y="-688" enable-background="new" opacity=".2" rx="36" ry="36" transform="scale(1 -1)rotate(90)"/><rect width="448" height="448" x="-256" y="-688" stroke="#000" stroke-width="8" enable-background="new" filter="url(#a)" opacity=".1" rx="36" ry="36" transform="scale(1 -1)rotate(90)"/><rect width="448" height="448" x="-252" y="-688" fill="#e53935" enable-background="new" rx="36" ry="36" transform="scale(1 -1)rotate(90)"/><path fill="#fff" d="M276-196c-19.944 0-36 16.056-36 36v2c0-19.944 16.056-36 36-36h376c19.944 0 36 16.056 36 36v-2c0-19.944-16.056-36-36-36z" enable-background="new" opacity=".2"/><path d="M296-54v168h24V66h24c26.384 0 48-21.616 48-48V-6c0-26.384-21.616-48-48-48zm24 24h24c13.504 0 24 10.496 24 24v24c0 13.504-10.496 24-24 24h-24zM536 114h24V42h60V18h-60v-48h72v-24h-96zM416-54v168h48c26.384 0 48-21.616 48-48V-6c0-26.384-21.616-48-48-48zm24 24h24c13.504 0 24 10.496 24 24v72c0 13.504-10.601 22.325-24 24h-24z" enable-background="new" opacity=".2"/><g fill="#fff"><path d="M296-52v168h24V68h24c26.384 0 48-21.616 48-48V-4c0-26.384-21.616-48-48-48zm24 24h24c13.504 0 24 10.496 24 24v24c0 13.504-10.496 24-24 24h-24zM536 116h24V44h60V20h-60v-48h72v-24h-96zM416-52v168h48c26.384 0 48-21.616 48-48V-4c0-26.384-21.616-48-48-48zm24 24h24c13.504 0 24 10.496 24 24v72c0 13.504-10.601 22.325-24 24h-24z" enable-background="new"/></g><circle cx="-584" cy="152" r="120" enable-background="new" filter="url(#b)" opacity=".5" transform="scale(-1 1)"/><circle cx="-584" cy="148" r="120" fill="#30a7c0" enable-background="new" transform="scale(-1 1)"/><path fill="#fff" d="M524 179.49V208h28.51l64.007-64.007-28.51-28.51zm117.74-60.626c3.016-3.015 3.016-7.767 0-10.783l-17.819-17.819c-3.016-3.016-7.767-3.016-10.783 0l-14.895 14.986 28.51 28.51z" enable-background="new"/></g></svg>