<svg width="512" height="512" enable-background="new" version="1.0" xmlns="http://www.w3.org/2000/svg">
 <defs>
  <filter id="a" x="-.024" y="-.024" width="1.048" height="1.048" color-interpolation-filters="sRGB">
   <feGaussianBlur stdDeviation="4.48"/>
  </filter>
  <filter id="b" x="-.06" y="-.06" width="1.12" height="1.12" color-interpolation-filters="sRGB">
   <feGaussianBlur stdDeviation="6"/>
  </filter>
 </defs>
 <g transform="translate(0,212)">
  <g transform="translate(-208 14.8)">
   <rect transform="matrix(0,-1,-1,0,0,0)" x="-256" y="-688" width="448" height="448" rx="36" ry="36" enable-background="new" filter="url(#a)" opacity=".2"/>
   <rect transform="matrix(0,-1,-1,0,0,0)" x="-254" y="-688" width="448" height="448" rx="36" ry="36" enable-background="new" opacity=".2"/>
   <rect transform="matrix(0,-1,-1,0,0,0)" x="-256" y="-688" width="448" height="448" rx="36" ry="36" enable-background="new" filter="url(#a)" opacity=".1" stroke="#000" stroke-width="8"/>
   <rect transform="matrix(0,-1,-1,0,0,0)" x="-252" y="-688" width="448" height="448" rx="36" ry="36" enable-background="new" fill="#e53935"/>
   <path d="m276-196c-19.944 0-36 16.056-36 36v2c0-19.944 16.056-36 36-36h376c19.944 0 36 16.056 36 36v-2c0-19.944-16.056-36-36-36z" enable-background="new" fill="#fff" opacity=".2"/>
   <path d="m296-54v168h24v-48h24c26.384 0 48-21.616 48-48v-24c0-26.384-21.616-48-48-48zm24 24h24c13.504 0 24 10.496 24 24v24c0 13.504-10.496 24-24 24h-24z" enable-background="new" opacity=".2"/>
   <path d="m536 114h24v-72h60v-24h-60v-48h72v-24h-96z" enable-background="new" opacity=".2"/>
   <path d="m416-54v168h48c26.384 0 48-21.616 48-48v-72c0-26.384-21.616-48-48-48zm24 24h24c13.504 0 24 10.496 24 24v72c0 13.504-10.601 22.325-24 24h-24z" enable-background="new" opacity=".2"/>
   <g fill="#fff">
    <path d="m296-52v168h24v-48h24c26.384 0 48-21.616 48-48v-24c0-26.384-21.616-48-48-48zm24 24h24c13.504 0 24 10.496 24 24v24c0 13.504-10.496 24-24 24h-24z" enable-background="new"/>
    <path d="m536 116h24v-72h60v-24h-60v-48h72v-24h-96z" enable-background="new"/>
    <path d="m416-52v168h48c26.384 0 48-21.616 48-48v-72c0-26.384-21.616-48-48-48zm24 24h24c13.504 0 24 10.496 24 24v72c0 13.504-10.601 22.325-24 24h-24z" enable-background="new"/>
   </g>
   <circle transform="scale(-1,1)" cx="-584" cy="152" r="120" enable-background="new" filter="url(#b)" opacity=".5"/>
   <circle transform="scale(-1,1)" cx="-584" cy="148" r="120" enable-background="new" fill="#30a7c0"/>
   <path d="m524 179.49v28.51h28.51l64.007-64.007-28.51-28.51zm117.74-60.626c3.0156-3.0155 3.0156-7.7672 0-10.783l-17.819-17.819c-3.0156-3.0156-7.7673-3.0156-10.783 0l-14.895 14.986 28.51 28.51z" enable-background="new" fill="#fff"/>
  </g>
 </g>
</svg>
