<svg xmlns="http://www.w3.org/2000/svg" width="512" height="512" enable-background="new" version="1.0"><defs><filter id="a" width="1.048" height="1.048" x="-.024" y="-.024" color-interpolation-filters="sRGB"><feGaussianBlur stdDeviation="4.48"/></filter><filter id="b" width="1.12" height="1.12" x="-.06" y="-.06" color-interpolation-filters="sRGB"><feGaussianBlur stdDeviation="6"/></filter></defs><g transform="translate(-208 866.8)"><rect width="448" height="448" x="-256" y="-688" enable-background="new" filter="url(#a)" opacity=".2" rx="36" ry="36" transform="matrix(0 -1 -1 0 0 -640)"/><rect width="448" height="448" x="386" y="-688" enable-background="new" opacity=".2" rx="36" ry="36" transform="scale(1 -1)rotate(90)"/><rect width="448" height="448" x="-256" y="-688" stroke="#000" stroke-width="8" enable-background="new" filter="url(#a)" opacity=".1" rx="36" ry="36" transform="matrix(0 -1 -1 0 0 -640)"/><rect width="448" height="448" x="388" y="-688" fill="#e53935" enable-background="new" rx="36" ry="36" transform="scale(1 -1)rotate(90)"/><path fill="#fff" d="M276-836c-19.944 0-36 16.056-36 36v2c0-19.944 16.056-36 36-36h376c19.944 0 36 16.056 36 36v-2c0-19.944-16.056-36-36-36z" enable-background="new" opacity=".2"/><path d="M296-694v168h24v-48h24c26.384 0 48-21.616 48-48v-24c0-26.384-21.616-48-48-48zm24 24h24c13.504 0 24 10.496 24 24v24c0 13.504-10.496 24-24 24h-24zM536-526h24v-72h60v-24h-60v-48h72v-24h-96zM416-694v168h48c26.384 0 48-21.616 48-48v-72c0-26.384-21.616-48-48-48zm24 24h24c13.504 0 24 10.496 24 24v72c0 13.504-10.601 22.325-24 24h-24z" enable-background="new" opacity=".2"/><g fill="#fff"><path d="M296-692v168h24v-48h24c26.384 0 48-21.616 48-48v-24c0-26.384-21.616-48-48-48zm24 24h24c13.504 0 24 10.496 24 24v24c0 13.504-10.496 24-24 24h-24zM536-524h24v-72h60v-24h-60v-48h72v-24h-96zM416-692v168h48c26.384 0 48-21.616 48-48v-72c0-26.384-21.616-48-48-48zm24 24h24c13.504 0 24 10.496 24 24v72c0 13.504-10.601 22.325-24 24h-24z" enable-background="new"/></g><circle cx="-584" cy="152" r="120" enable-background="new" filter="url(#b)" opacity=".5" transform="matrix(-1 0 0 1 0 -640)"/><circle cx="-584" cy="-492" r="120" fill="#673ab7" enable-background="new" transform="scale(-1 1)"/><path fill="#fff" d="m566.505-562.005-1.543 18.438a55 55 0 0 0-16.074 9.297l-16.758-7.89-17.5 30.311 15.215 10.566a55 55 0 0 0-.84 9.278 55 55 0 0 0 .801 9.316l-15.176 10.527 17.5 30.312 16.719-7.871a55 55 0 0 0 16.113 9.238l1.543 18.477h35l1.543-18.438a55 55 0 0 0 16.074-9.297l16.758 7.89 17.5-30.311-15.215-10.566a55 55 0 0 0 .84-9.277 55 55 0 0 0-.801-9.317l15.176-10.527-17.5-30.312-16.719 7.871a55 55 0 0 0-16.113-9.238l-1.543-18.477zm17.5 50a20 20 0 0 1 20 20 20 20 0 0 1-20 20 20 20 0 0 1-20-20 20 20 0 0 1 20-20" enable-background="new"/></g></svg>