<svg xmlns="http://www.w3.org/2000/svg" width="512" height="512" enable-background="new" version="1.0"><defs><filter id="a" width="1.048" height="1.048" x="-.024" y="-.024" color-interpolation-filters="sRGB"><feGaussianBlur stdDeviation="4.48"/></filter></defs><g transform="translate(-208 228)"><rect width="448" height="448" x="-254" y="-688" opacity=".2" rx="36" ry="36" transform="scale(1 -1)rotate(90)"/><rect width="448" height="448" x="-256" y="-688" filter="url(#a)" opacity=".1" rx="36" ry="36" transform="scale(1 -1)rotate(90)"/><rect width="448" height="448" x="-256" y="-688" filter="url(#a)" opacity=".2" rx="36" ry="36" transform="scale(1 -1)rotate(90)"/><rect width="448" height="448" x="-252" y="-688" fill="#241f31" rx="36" ry="36" transform="scale(1 -1)rotate(90)"/><path fill="#fff" d="M276-196c-19.944 0-36 16.056-36 36v2c0-19.944 16.056-36 36-36h376c19.944 0 36 16.056 36 36v-2c0-19.944-16.056-36-36-36z" opacity=".2"/></g><g transform="translate(4031.6 -3052.3)scale(8.6154)"><rect width="44" height="44" x="-460.24" y="362" fill="#fff" enable-background="new" opacity=".15" rx="2" ry="2" style="paint-order:normal"/><rect width="44" height="32" x="-460.24" y="374" fill="#ec8e12" enable-background="new" rx="2" ry="2" style="paint-order:normal"/><g fill="none" stroke="#fff" stroke-linecap="round" stroke-width="2"><path d="M-453.24 386v-5h6M-423.24 386v-5h-6M-423.24 394v5h-6M-453.24 394v5h6" enable-background="new"/></g><circle cx="-421.24" cy="367" r="3" fill="#ed333b" enable-background="new"/><path fill="#deddda" d="M-443.24 366h10v2h-10z"/></g></svg>