<svg xmlns="http://www.w3.org/2000/svg" width="512" height="512" enable-background="new" version="1.0"><defs><filter id="b" width="1.48" height="1.48" x="-.24" y="-.24" color-interpolation-filters="sRGB"><feGaussianBlur stdDeviation="4.8"/></filter><filter id="a" width="1.048" height="1.048" x="-.024" y="-.024" color-interpolation-filters="sRGB"><feGaussianBlur stdDeviation="4.48"/></filter></defs><g transform="translate(-208 228)"><path d="M464-192c-106.04 0-192 85.961-192 192v64c0 22.518 3.89 44.123 11.012 64.199L240 150.924a89.6 89.6 0 0 0 59.895 12.791C333.589 219.048 394.479 256 464.005 256h48c26.51 0 48-21.49 48-48s-21.49-48-48-48c-20.319.026-38.42 12.843-45.193 32h-2.807c-35.346 0-64-28.654-64-64 .023-31.545 22.427-59.169 53.6-64h106.4l.6-.021c67.903-.403 123.67-53.76 127.08-121.58h.32v-134.4h-179.2c-24.37 0-44.064 19.27-44.768 43.464l-.033.038z" filter="url(#a)" opacity=".1"/><path d="M464-192c-106.04 0-192 85.961-192 192v64c0 22.518 3.89 44.123 11.012 64.199L240 150.924a89.6 89.6 0 0 0 59.895 12.791C333.589 219.048 394.479 256 464.005 256h48c26.51 0 48-21.49 48-48s-21.49-48-48-48c-20.319.026-38.42 12.843-45.193 32h-2.807c-35.346 0-64-28.654-64-64 .023-31.545 22.427-59.169 53.6-64h106.4l.6-.021c67.903-.403 123.67-53.76 127.08-121.58h.32v-134.4h-179.2c-24.37 0-44.064 19.27-44.768 43.464l-.033.038z" filter="url(#a)" opacity=".2"/><path d="M464-194c-106.04 0-192 85.961-192 192v64c0 22.518 3.89 44.123 11.012 64.199L240 148.924a89.6 89.6 0 0 0 59.895 12.791C333.589 217.048 394.479 254 464.005 254h48c26.51 0 48-21.49 48-48s-21.49-48-48-48c-20.319.026-38.42 12.843-45.193 32h-2.807c-35.346 0-64-28.654-64-64 .023-31.545 22.427-59.169 53.6-64h106.4l.6-.021c67.903-.403 123.67-53.76 127.08-121.58h.32v-134.4h-179.2c-24.37 0-44.064 19.27-44.768 43.464l-.033.038z" opacity=".2"/><path fill="#00bcd4" d="M464-196c-106.04 0-192 85.961-192 192v64c0 22.518 3.89 44.123 11.012 64.199L240 146.924a89.6 89.6 0 0 0 59.895 12.791C333.589 215.048 394.479 252 464.005 252h48c26.51 0 48-21.49 48-48s-21.49-48-48-48c-20.319.026-38.42 12.843-45.193 32h-2.807c-35.346 0-64-28.654-64-64 .023-31.545 22.427-59.169 53.6-64h106.4l.6-.021c67.903-.403 123.67-53.76 127.08-121.58h.32v-134.4h-179.2c-24.37 0-44.064 19.27-44.768 43.464l-.033.038z"/><circle cx="376" cy="-38" r="24" filter="url(#b)" opacity=".2"/><circle cx="376" cy="-44" r="24" fill="#fff"/><path fill="#fff" d="M464-196c-106.04 0-192 85.961-192 192v2c0-106.04 85.961-192 192-192zm44.801 0c-24.371 0-44.064 19.27-44.768 43.465l-.033.037v2l.033-.037C464.737-174.73 484.429-194 508.801-194h179.2v-2h-128zm-226.37 320.51-42.432 22.418c.586.367 1.186.708 1.78 1.06l41.231-21.784c-.199-.562-.386-1.13-.58-1.694zm117.59.432c-.006.354-.023.707-.023 1.062 0 35.346 28.654 64 64 64h2.806c6.773-19.157 24.874-31.974 45.193-32 26.174 0 47.44 20.954 47.975 47 .007-.334.026-.665.026-1 0-26.51-21.49-48-48-48-20.32.026-38.42 12.843-45.193 32h-2.807c-35.032 0-63.473-28.15-63.977-63.062z" opacity=".2"/></g></svg>