<svg width="512" height="512" enable-background="new" version="1.0" xmlns="http://www.w3.org/2000/svg">
 <defs>
  <filter id="b" x="-.24" y="-.24" width="1.48" height="1.48" color-interpolation-filters="sRGB">
   <feGaussianBlur stdDeviation="4.8"/>
  </filter>
  <filter id="a" x="-.024" y="-.024" width="1.048" height="1.048" color-interpolation-filters="sRGB">
   <feGaussianBlur stdDeviation="4.48"/>
  </filter>
 </defs>
 <g transform="translate(0,212)">
  <g>
   <g transform="translate(-208,16)">
    <g>
     <path d="m464-192c-106.04-1e-5 -192 85.961-192 192v64c-1e-5 22.518 3.89 44.123 11.012 64.199l-43.012 22.725c17.843 11.167 39.047 15.695 59.895 12.791 33.694 55.333 94.584 92.285 164.11 92.285h48c26.51 0 48-21.49 48-48s-21.49-48-48-48c-20.319 0.026-38.42 12.843-45.193 32h-2.8066c-35.346 0-64-28.654-64-64 0.0226-31.545 22.427-59.169 53.6-64h106.4l0.59961-0.0215c67.903-0.40256 123.67-53.76 127.08-121.58h0.32031v-134.4h-179.2c-24.371 0-44.064 19.27-44.768 43.465l-0.0332 0.0371z" filter="url(#a)" opacity=".1"/>
     <path d="m464-192c-106.04-1e-5 -192 85.961-192 192v64c-1e-5 22.518 3.89 44.123 11.012 64.199l-43.012 22.725c17.843 11.167 39.047 15.695 59.895 12.791 33.694 55.333 94.584 92.285 164.11 92.285h48c26.51 0 48-21.49 48-48s-21.49-48-48-48c-20.319 0.026-38.42 12.843-45.193 32h-2.8066c-35.346 0-64-28.654-64-64 0.0226-31.545 22.427-59.169 53.6-64h106.4l0.59961-0.0215c67.903-0.40256 123.67-53.76 127.08-121.58h0.32031v-134.4h-179.2c-24.371 0-44.064 19.27-44.768 43.465l-0.0332 0.0371z" filter="url(#a)" opacity=".2"/>
     <path d="m464-194c-106.04-1e-5 -192 85.961-192 192v64c-1e-5 22.518 3.89 44.123 11.012 64.199l-43.012 22.725c17.843 11.167 39.047 15.695 59.895 12.791 33.694 55.333 94.584 92.285 164.11 92.285h48c26.51 0 48-21.49 48-48s-21.49-48-48-48c-20.319 0.026-38.42 12.843-45.193 32h-2.8066c-35.346 0-64-28.654-64-64 0.0226-31.545 22.427-59.169 53.6-64h106.4l0.59961-0.0215c67.903-0.40256 123.67-53.76 127.08-121.58h0.32031v-134.4h-179.2c-24.371 0-44.064 19.27-44.768 43.465l-0.0332 0.0371z" opacity=".2"/>
    </g>
    <path transform="translate(0,-244)" d="m464 48c-106.04-6e-6 -192 85.961-192 192v64c-1e-5 22.518 3.89 44.123 11.012 64.199l-43.012 22.725c17.843 11.167 39.047 15.695 59.895 12.791 33.694 55.333 94.584 92.285 164.11 92.285h48c26.51 0 48-21.49 48-48s-21.49-48-48-48c-20.319 0.026-38.42 12.843-45.193 32h-2.8066c-35.346 0-64-28.654-64-64 0.0226-31.545 22.427-59.169 53.6-64h106.4l0.59961-0.0215c67.903-0.40256 123.67-53.76 127.08-121.58h0.32031v-134.4h-179.2c-24.371 0-44.064 19.27-44.768 43.465l-0.0332 0.037109z" fill="#00bcd4"/>
    <circle cx="376" cy="-38" r="24" filter="url(#b)" opacity=".2"/>
    <circle cx="376" cy="-44" r="24" fill="#fff"/>
    <path transform="translate(0,-244)" d="m464 48c-106.04-6e-6 -192 85.961-192 192v2c-1e-5 -106.04 85.961-192 192-192zm44.801 0c-24.371 0-44.064 19.27-44.768 43.465l-0.0332 0.037109v2l0.0332-0.03711c0.70356-24.195 20.396-43.465 44.768-43.465h179.2v-2h-128zm-226.37 320.51-42.432 22.418c0.58636 0.36696 1.1858 0.70795 1.7793 1.0606l41.232-21.785c-0.19931-0.56184-0.38585-1.1291-0.58008-1.6934zm117.59 0.43164c-6e-3 0.35458-0.0232 0.70689-0.0234 1.0625 0 35.346 28.654 64 64 64h2.8066c6.773-19.157 24.874-31.974 45.193-32 26.174 0 47.44 20.954 47.975 47 7e-3 -0.33366 0.0254-0.6647 0.0254-1 0-26.51-21.49-48-48-48-20.319 0.026-38.42 12.843-45.193 32h-2.8067c-35.032 0-63.473-28.15-63.977-63.062z" fill="#fff" opacity=".2"/>
   </g>
  </g>
 </g>
</svg>
