<svg xmlns="http://www.w3.org/2000/svg" width="512" height="512" enable-background="new" version="1.0"><defs><filter id="a" width="1.045" height="1.052" x="-.022" y="-.026" color-interpolation-filters="sRGB"><feGaussianBlur stdDeviation="2.911"/></filter><filter id="c" width="1.048" height="1.048" x="-.024" y="-.024" color-interpolation-filters="sRGB"><feGaussianBlur stdDeviation="4.48"/></filter></defs><g transform="translate(-208 228)"><path d="M376-194c-75.344 0-136 60.656-136 136v176c0 75.344 60.656 136 136 136h289.71a22.236 22.236 0 0 0 22.285-22.285c0-86.156-69.844-156-156-156-6.776 0-13.452.431-20 1.27v-134.98c0-75.344-60.656-136-136-136z" opacity=".2"/><path d="M374.54-191.8V32.1h268.68L688 76.88v-235.1c0-33.585-32.885-33.585-32.885-33.585z" enable-background="new" filter="url(#a)" opacity=".1"/><path d="M374.54-191.8V32.1h268.68L688 76.88v-235.1c0-33.585-32.885-33.585-32.885-33.585z" enable-background="new" filter="url(#a)" opacity=".2"/><path fill="#ebebeb" d="M374.54-195.8V28.1h268.68L688 72.88v-235.1c0-33.585-32.885-33.585-32.885-33.585z" enable-background="new"/><path fill="#fff" d="M374.54-195.801v2h280.58s32.885-.001 32.885 33.584v-2c0-33.585-32.885-33.584-32.885-33.584z" enable-background="new" opacity=".2"/><path d="M376-192c-75.344 0-136 60.656-136 136v176c0 75.344 60.656 136 136 136h289.71a22.236 22.236 0 0 0 22.285-22.285c0-86.156-69.844-156-156-156-6.776 0-13.452.431-20 1.27v-134.98c0-75.344-60.656-136-136-136z" filter="url(#c)" opacity=".1"/><path d="M376-192c-75.344 0-136 60.656-136 136v176c0 75.344 60.656 136 136 136h289.71a22.236 22.236 0 0 0 22.285-22.285c0-86.156-69.844-156-156-156-6.776 0-13.452.431-20 1.27v-134.98c0-75.344-60.656-136-136-136z" filter="url(#c)" opacity=".2"/><path fill="#7d4f89" d="M376-196c75.344 0 136 60.656 136 136v176c0 75.344-60.656 136-136 136s-136-60.656-136-136V-60c0-75.344 60.656-136 136-136"/><g fill-rule="evenodd" color="#000"><path fill="#fec006" d="M172 254c-.89 0-1.337 1.077-.707 1.707l4 4a.97.97 0 0 0 .707.285V254z" enable-background="accumulate" style="isolation:auto;mix-blend-mode:normal;text-decoration-color:#000;text-decoration-line:none;text-decoration-style:solid;text-indent:0;text-transform:none;white-space:normal" transform="matrix(-7.9973 0 0 8.0104 1783.5 -2078.6)"/><path fill="#fe9700" d="M180 254c.89 0 1.337 1.077.707 1.707l-4 4a.97.97 0 0 1-.707.285V254z" enable-background="accumulate" style="isolation:auto;mix-blend-mode:normal;text-decoration-color:#000;text-decoration-line:none;text-decoration-style:solid;text-indent:0;text-transform:none;white-space:normal" transform="matrix(-7.9973 0 0 8.0104 1783.5 -2078.6)"/></g><circle cx="-424" cy="-92" r="16" fill="#fff" opacity=".8" transform="scale(-1 1)"/><circle cx="-328" cy="-92" r="16" fill="#fff" opacity=".8" transform="scale(-1 1)"/><path fill="#a375af" d="M532 73.714c-86.156 0-156 69.843-156 156V252h289.71a22.237 22.237 0 0 0 22.286-22.286c0-86.156-69.843-156-156-156z"/><path fill="#fff" d="M532 73.714c-86.156 0-156 69.844-156 156v1.99c0-86.155 69.844-156 156-156 85.683 0 155.22 69.082 155.98 154.58.007-.19.018-.381.018-.575 0-86.156-69.844-156-156-156zM376-196c-75.344 0-136 60.656-136 136v2c0-75.344 60.656-136 136-136s136 60.656 136 136v-2c0-75.344-60.656-136-136-136" opacity=".2"/></g></svg>