<svg xmlns="http://www.w3.org/2000/svg" width="512" height="512" enable-background="new" version="1.0"><defs><filter id="a" width="1.077" height="1.061" x="-.039" y="-.03" color-interpolation-filters="sRGB"><feGaussianBlur stdDeviation="4"/></filter><filter id="b" width="1.026" height="1.264" x="-.013" y="-.132" color-interpolation-filters="sRGB"><feGaussianBlur stdDeviation="1.76"/></filter></defs><rect width="352" height="448" x="-208" y="-688" filter="url(#a)" opacity=".2" rx="24" ry="24" transform="matrix(0 -1 -1 0 -208 228)"/><rect width="352" height="448" x="-208" y="-688" stroke="#000" stroke-width="8" filter="url(#a)" opacity=".1" rx="24" ry="24" transform="matrix(0 -1 -1 0 -208 228)"/><path fill="#2196f3" d="M56 80c-13.296 0-24 10.704-24 24v304c0 13.296 10.704 24 24 24h400c13.296 0 24-10.704 24-24V104c0-13.296-10.704-24-24-24z"/><path fill="#fff" d="M56 80c-13.296 0-24 10.704-24 24v2c0-13.296 10.704-24 24-24h400c13.296 0 24 10.704 24 24v-2c0-13.296-10.704-24-24-24z" opacity=".2"/><path d="M56 432c-13.296 0-24-10.704-24-24v-2c0 13.296 10.704 24 24 24h400c13.296 0 24-10.704 24-24v2c0 13.296-10.704 24-24 24z" opacity=".1"/><path d="M106 402c-10 0-10 10-10 10v22h320v-22c0-11.08-10-10-10-10z" filter="url(#b)" opacity=".2"/><path fill="#e6e6e6" d="M106 400c-10 0-10 10-10 10v22h320v-22c0-11.08-10-10-10-10z"/><path fill="#fff" d="M406.43 399.97c-.273.008-.43.025-.43.025H106c-10 0-10 10-10 10v2s0-10 10-10h300s10-1.08 10 10v-2c0-9.695-7.656-10.08-9.57-10.025z" opacity=".4"/><path d="M256 144c-17.578 0-32 14.422-32 32 0 14.819 10.25 27.394 24 30.977v17.045h-32v15.979h32v85.6a81.93 81.93 0 0 1-55.424-29.6h23.42v-15.979H168v47.979h15.996v-17.482c18.614 20.143 45.065 31.794 73.01 31.498 27.268-.289 52.876-11.916 70.994-31.555v17.539h16v-48h-48v16h23.363A81.93 81.93 0 0 1 264 325.591v-85.59h31.996v-15.979H264v-17.045c13.75-3.583 24-16.158 24-30.977 0-17.578-14.422-32-32-32m0 16c8.931 0 16 7.069 16 16s-7.069 16-16 16-16-7.069-16-16 7.069-16 16-16" color="#000" opacity=".2" style="-inkscape-stroke:none"/></svg>