<svg width="512" height="512" enable-background="new" version="1.0" xmlns="http://www.w3.org/2000/svg">
 <defs>
  <filter id="a" x="-.038636" y="-.030357" width="1.0773" height="1.0607" color-interpolation-filters="sRGB">
   <feGaussianBlur stdDeviation="3.9999896"/>
  </filter>
  <filter id="b" x="-.013201" y="-.13189" width="1.0264" height="1.2638" color-interpolation-filters="sRGB">
   <feGaussianBlur stdDeviation="1.7601437"/>
  </filter>
 </defs>
 <rect transform="matrix(0 -1 -1 0 -208 228)" x="-208" y="-688" width="352" height="448" rx="24" ry="24" enable-background="new" filter="url(#a)" opacity=".2"/>
 <rect transform="matrix(0 -1 -1 0 -208 228)" x="-208" y="-688" width="352" height="448" rx="24" ry="24" enable-background="new" filter="url(#a)" opacity=".1" stroke="#000000" stroke-width="8"/>
 <path d="m56 80c-13.296 0-24 10.704-24 24v304c0 13.296 10.704 24 24 24h400c13.296 0 24-10.704 24-24v-304c0-13.296-10.704-24-24-24z" enable-background="new" fill="#2196f3"/>
 <path d="m56 80c-13.296 0-24 10.704-24 24v2c0-13.296 10.704-24 24-24h400c13.296 0 24 10.704 24 24v-2c0-13.296-10.704-24-24-24z" enable-background="new" fill="#ffffff" opacity=".2"/>
 <path d="m56 432c-13.296 0-24-10.704-24-24v-2c0 13.296 10.704 24 24 24h400c13.296 0 24-10.704 24-24v2c0 13.296-10.704 24-24 24z" enable-background="new" opacity=".1"/>
 <path d="m106 402c-10 0-10 10-10 10v22h320v-22c0-11.08-10-10-10-10z" enable-background="new" filter="url(#b)" opacity=".2"/>
 <path d="m106 400c-10 0-10 10-10 10v22h320v-22c0-11.08-10-10-10-10z" enable-background="new" fill="#e6e6e6"/>
 <path d="m406.43 399.97c-0.2735 8e-3 -0.4297 0.0254-0.4297 0.0254h-300c-10 0-10 10-10 10v2s0-10 10-10h300s10-1.08 10 10v-2c0-9.695-7.6562-10.081-9.5703-10.025z" enable-background="new" fill="#ffffff" opacity=".4"/>
 <path d="m256 144c-17.578 0-32 14.422-32 32 0 14.819 10.25 27.394 24 30.977v17.045h-32v15.979h32v85.6c-21.684-2.1137-41.626-12.765-55.424-29.6h23.42v-15.979h-32-15.996v15.979 32h15.996v-17.482c18.614 20.143 45.065 31.794 73.01 31.498 27.268-0.28887 52.876-11.916 70.994-31.555v17.539h16v-32-16h-48v16h23.363c-13.755 16.783-33.657 27.456-55.363 29.59v-85.59h31.996v-15.979h-31.996v-17.045c13.75-3.5829 24-16.158 24-30.977 0-17.578-14.422-32-32-32zm0 16c8.9313 0 16 7.0687 16 16s-7.0687 16-16 16-16-7.0687-16-16 7.0687-16 16-16z" color="#000000" fill="#000000" opacity=".2" style="-inkscape-stroke:none"/>
</svg>
