<svg xmlns="http://www.w3.org/2000/svg" width="512" height="512" enable-background="new" version="1.0"><defs><filter id="a" width="1.048" height="1.048" x="-.024" y="-.024" color-interpolation-filters="sRGB"><feGaussianBlur stdDeviation="4.8"/></filter></defs><circle cx="256" cy="260" r="240" filter="url(#a)" opacity=".1"/><circle cx="256" cy="260" r="240" filter="url(#a)" opacity=".2"/><circle cx="256" cy="256" r="240" fill="#f2c839"/><path fill="#fff" d="M256 16A240 240 0 0 0 16 256l.041 1.172A240 240 0 0 1 256 18a240 240 0 0 1 239.959 238.828L496 256A240 240 0 0 0 256 16" opacity=".2"/><path fill="#f9f9f9" d="M271.66 130.73c-8.64 0-15.652 7.012-15.652 15.652s7.012 15.652 15.652 15.652 15.652-7.012 15.652-15.652-7.012-15.652-15.652-15.652m52.174 0c-8.64 0-15.652 7.012-15.652 15.652s7.012 15.652 15.652 15.652 15.652-7.012 15.652-15.652-7.012-15.652-15.652-15.652m41.739 20.87c-8.64 0-15.652 7.012-15.652 15.652s7.012 15.652 15.652 15.652 15.652-7.012 15.652-15.652-7.012-15.652-15.652-15.652m-137.18 1.607c-11.948.689-30.209 8.191-46.466 21.725-41.697 34.643-78.71 103.77-22.748 163.13 53.927 57.183 132.64 45.819 159.3 31.993 35.875-18.543 35.343-55.983 32.828-65.009-9.068-32.63-33.965-41.739-49.805-39.923-19.117 2.212-56.129 14.327-77.937-14.984-18.501-24.866-1.836-60.72 16.831-73.357 7.66-5.26 7.45-16.435-2.348-21.965-2.327-1.315-5.666-1.91-9.662-1.607z"/></svg>