<svg width="512" height="512" enable-background="new" version="1.0" xmlns="http://www.w3.org/2000/svg">
 <defs>
  <filter id="a" x="-.024" y="-.024" width="1.048" height="1.048" color-interpolation-filters="sRGB">
   <feGaussianBlur stdDeviation="4.8"/>
  </filter>
 </defs>
 <circle cx="256" cy="260" r="240" enable-background="new" filter="url(#a)" opacity=".1"/>
 <circle cx="256" cy="260" r="240" enable-background="new" filter="url(#a)" opacity=".2"/>
 <circle cx="256" cy="256" r="240" enable-background="new" fill="#f2c839"/>
 <path d="M 256,16 A 240,240 0 0 0 16,256 240,240 0 0 0 16.041,257.17188 240,240 0 0 1 256,18 240,240 0 0 1 495.95898,256.82812 240,240 0 0 0 496,256 240,240 0 0 0 256,16 Z" enable-background="new" fill="#fff" opacity=".2"/>
 <path d="m271.66 130.73c-8.64 0-15.652 7.0122-15.652 15.652s7.0122 15.652 15.652 15.652 15.652-7.0122 15.652-15.652-7.0122-15.652-15.652-15.652m52.174 0c-8.64 0-15.652 7.0122-15.652 15.652s7.0122 15.652 15.652 15.652 15.652-7.0122 15.652-15.652-7.0122-15.652-15.652-15.652m41.739 20.87c-8.64 0-15.652 7.0122-15.652 15.652s7.0122 15.652 15.652 15.652 15.652-7.0122 15.652-15.652-7.0122-15.652-15.652-15.652m-137.18 1.607c-11.948 0.68869-30.209 8.1913-46.466 21.725-41.697 34.643-78.71 103.77-22.748 163.13 53.927 57.183 132.64 45.819 159.3 31.993 35.875-18.543 35.343-55.983 32.828-65.009-9.0678-32.63-33.965-41.739-49.805-39.923-19.117 2.2122-56.129 14.327-77.937-14.984-18.501-24.866-1.8365-60.72 16.831-73.357 7.6591-5.2591 7.4504-16.435-2.3478-21.965-2.327-1.3148-5.6661-1.9096-9.6626-1.607z" fill="#f9f9f9"/>
</svg>
