<svg xmlns="http://www.w3.org/2000/svg" width="512" height="512" enable-background="new" version="1.0"><defs><filter id="d" width="1.111" height="1.131" x="-.056" y="-.065" color-interpolation-filters="sRGB"><feGaussianBlur stdDeviation="7.4"/></filter><filter id="a" width="1.046" height="1.05" x="-.023" y="-.025" color-interpolation-filters="sRGB"><feGaussianBlur stdDeviation="4.32"/></filter><clipPath id="b"><path fill="#feea3a" d="M392-180c-13.296 0-24 10.704-24 24V68c0 13.296 10.704 24 24 24h224c13.296 0 24-10.704 24-24v-200l48-48H560z"/></clipPath></defs><path stroke="#000" stroke-linecap="round" stroke-linejoin="round" stroke-width="8" d="M184 52c-13.296 0-24 10.704-24 24v120H32l48 48v200c0 13.296 10.704 24 24 24h224c13.296 0 24-10.704 24-24V324h56c13.296 0 24-10.704 24-24V100l48-48H352z" filter="url(#a)" opacity=".1"/><path d="M184 52c-13.296 0-24 10.704-24 24v120H32l48 48v200c0 13.296 10.704 24 24 24h224c13.296 0 24-10.704 24-24V324h56c13.296 0 24-10.704 24-24V100l48-48H352z" filter="url(#a)" opacity=".2"/><path fill="#dcffc5" d="M184 48c-13.296 0-24 10.704-24 24v224c0 13.296 10.704 24 24 24h224c13.296 0 24-10.704 24-24V96l48-48H352z"/><path d="m240-28 48 48v200c0 13.296 10.704 24 24 24h224c13.296 0 24-10.704 24-24V-4c0-13.296-10.705-23.842-24-24H312z" clip-path="url(#b)" filter="url(#d)" opacity=".2" transform="translate(-208 228)"/><path fill="#61dc81" fill-opacity=".784" d="m32 192 48 48v200c0 13.296 10.704 24 24 24h224c13.296 0 24-10.704 24-24V216c0-13.296-10.704-24-24-24H104z"/><g fill="#fff"><path d="M184 48c-13.296 0-24 10.704-24 24v2c0-13.296 10.704-24 24-24h294l2-2H352zM31 192l2 2h294c13.296 0 24 10.704 24 24v-2c0-13.296-10.704-24-24-24H103z" opacity=".1"/><rect width="180.04" height="20" x="130" y="312" ry="10.019" style="paint-order:stroke markers fill"/><rect width="150.06" height="20" x="130" y="367" ry="10.019" style="paint-order:stroke markers fill"/></g></svg>