<svg xmlns="http://www.w3.org/2000/svg" width="512" height="512" enable-background="new" version="1.0"><defs><filter id="f" width="1.052" height="1.045" x="-.026" y="-.022" color-interpolation-filters="sRGB"><feGaussianBlur stdDeviation="3.713"/></filter><filter id="b" width="1.045" height="1.051" x="-.023" y="-.025" color-interpolation-filters="sRGB"><feGaussianBlur stdDeviation="4.24"/></filter><filter id="a" width="1.023" height="1.025" x="-.011" y="-.013" color-interpolation-filters="sRGB"><feGaussianBlur stdDeviation="2.12"/></filter><filter id="h" width="1.185" height="1.343" x="-.092" y="-.172" color-interpolation-filters="sRGB"><feGaussianBlur stdDeviation="12.876"/></filter><clipPath id="g"><path fill="#fff3e0" d="M507 80a120 120 0 0 0-116.5 91.834A48 48 0 0 0 347.004 144a48 48 0 0 0-48 48 48 48 0 0 0 13.543 33.414A48 48 0 0 0 293.004 264a48 48 0 0 0 43 47.654v112.35h264v-112.35a40 40 0 0 0 35-39.648 40 40 0 0 0-15.246-31.367 120 120 0 0 0 7.246-40.633 120 120 0 0 0-120-120z"/></clipPath><clipPath id="c"><path fill="#1976d2" d="M288-148a48 48 0 0 1-48 48v256a48 48 0 0 1 48 48h352a48 48 0 0 1 48-48v-256a48 48 0 0 1-48-48z" enable-background="new"/></clipPath></defs><path d="M507-160a120 120 0 0 0-59.531 16h-159.47a48 48 0 0 1-48 48v256a48 48 0 0 1 48 48h35.684l2.965 16c.775 8.864 8.536 16 17.4 16h247.9c8.864 0 16.625-7.136 17.4-16l2.965-16h27.684a48 48 0 0 1 48-48V-96a48 48 0 0 1-48-48h-73.434a120 120 0 0 0-59.566-16z" enable-background="new" filter="url(#a)" opacity=".1" transform="translate(-208 228)"/><path d="M507-160a120 120 0 0 0-59.531 16h-159.47a48 48 0 0 1-48 48v256a48 48 0 0 1 48 48h35.684l2.965 16c.775 8.864 8.536 16 17.4 16h247.9c8.864 0 16.625-7.136 17.4-16l2.965-16h27.684a48 48 0 0 1 48-48V-96a48 48 0 0 1-48-48h-73.434a120 120 0 0 0-59.566-16z" enable-background="new" filter="url(#b)" opacity=".2" transform="translate(-208 228)"/><path d="M507-160c-55.371.066-103.51 38.01-116.5 91.834A48 48 0 0 0 347.004-96c-26.51 0-48 21.49-48 48a48 48 0 0 0 13.543 33.414A48 48 0 0 0 293.004 24a48 48 0 0 0 22.715 40.682c-9.065 2.272-16.718 10.122-15.014 19.318l25.947 140c.776 8.864 8.536 16 17.4 16h247.9c8.864 0 16.625-7.136 17.4-16l25.947-140c1.976-10.661-8.615-17.622-19.414-17.967A40 40 0 0 0 635 32 40 40 0 0 0 619.754.633 120 120 0 0 0 627-40c0-66.274-53.726-120-120-120" clip-path="url(#c)" filter="url(#f)" opacity=".1" transform="translate(-208 228)"/><path d="M80 434a48 48 0 0 0-48-48V258h448v128a48 48 0 0 0-48 48z" enable-background="new" opacity=".2"/><path fill="#1976d2" d="M32 256V128a48 48 0 0 0 48-48h352a48 48 0 0 0 48 48v128z" enable-background="new"/><path fill="#2196f3" d="M80 432a48 48 0 0 0-48-48V256h448v128a48 48 0 0 0-48 48z" enable-background="new"/><path d="M507-160c-55.371.066-103.51 38.01-116.5 91.834A48 48 0 0 0 347.004-96c-26.51 0-48 21.49-48 48a48 48 0 0 0 13.543 33.414A48 48 0 0 0 293.004 24a48 48 0 0 0 22.715 40.682c-9.065 2.272-16.718 10.122-15.014 19.318l25.947 140c.776 8.864 8.536 16 17.4 16h247.9c8.864 0 16.625-7.136 17.4-16l25.947-140c1.976-10.661-8.615-17.622-19.414-17.967A40 40 0 0 0 635 32 40 40 0 0 0 619.754.633 120 120 0 0 0 627-40c0-66.274-53.726-120-120-120" clip-path="url(#c)" filter="url(#f)" opacity=".2" transform="translate(-208 228)"/><path d="M299 66a120 120 0 0 0-116.5 91.834A48 48 0 0 0 139.004 130a48 48 0 0 0-48 48 48 48 0 0 0 13.543 33.414A48 48 0 0 0 85.004 250a48 48 0 0 0 22.715 40.682c-9.065 2.272-16.718 10.122-15.014 19.318l25.947 140c.776 8.864 8.536 16 17.4 16h247.9c8.864 0 16.625-7.136 17.4-16l25.947-140c1.976-10.661-8.615-17.622-19.414-17.967A40 40 0 0 0 427 258a40 40 0 0 0-15.246-31.367A120 120 0 0 0 419 186 120 120 0 0 0 299 66z" opacity=".2"/><path fill="#fff" d="M80 80a48 48 0 0 1-48 48v2a48 48 0 0 0 48-48h352a48 48 0 0 0 48 48v-2a48 48 0 0 1-48-48z" enable-background="new" opacity=".2"/><path fill="#ffedd3" d="M299 64a120 120 0 0 0-116.5 91.834A48 48 0 0 0 139.004 128a48 48 0 0 0-48 48 48 48 0 0 0 13.543 33.414A48 48 0 0 0 85.004 248a48 48 0 0 0 43 47.654v112.35h264v-112.35a40 40 0 0 0 35-39.648 40 40 0 0 0-15.246-31.367 120 120 0 0 0 7.246-40.633 120 120 0 0 0-120-120z"/><g transform="translate(-208 228)"><circle cx="384" cy="-4" r="24" fill="#333"/><circle cx="392" cy="-12" r="8" fill="#fff"/></g><g transform="translate(-48 228)"><circle cx="384" cy="-4" r="24" fill="#333"/><circle cx="392" cy="-12" r="8" fill="#fff"/></g><path fill="#bd1b1b" d="M220 248c-2.216 0-4 1.784-4 4a40 40 0 0 0 40 40 40 40 0 0 0 40-40c0-2.216-1.784-4-4-4z" enable-background="new"/><path d="M320.95 308c-11.08 0-22.222 9.054-20.25 20l25.947 144c.776 8.864 8.536 16 17.4 16h247.9c8.864 0 16.625-7.136 17.4-16l25.947-144c1.972-10.946-9.17-18-20.25-18s-24.242 6.98-25.75 18l-1.893 13.824c.851-13.923-9.26-21.751-21.744-21.824-13.12-.077-24.542 6.963-25.914 23.381l-.445 5.322c-.265-13.29-9.491-20.63-21.64-20.703-13.12-.077-25.169 6.914-25.665 23.381l-.053 1.743c-.938-13.515-11.65-21.051-23.932-21.123-12.316-.073-23.116 6.093-23.98 20.439l-.03-1.06c-.497-16.466-12.545-23.457-25.665-23.38-12.149.072-21.376 7.412-21.64 20.703l-.446-5.322c-1.372-16.418-12.794-23.458-25.914-23.381-12.483.073-22.595 7.9-21.744 21.824L346.696 328c-1.508-11.02-14.67-20-25.75-20z" clip-path="url(#g)" filter="url(#h)" opacity=".1" transform="translate(-208 -16)"/><path fill="#f9f9f9" d="M112.95 288c-11.08 0-22.277 9.064-20.25 20l25.948 140c.776 8.864 8.536 16 17.4 16h24L138.7 308c-1.508-11.02-14.67-20-25.75-20"/><path fill="#f44336" d="M260.01 312c-13.127-.077-24.532 6.931-24.019 23.38L239.996 464h40l4-128c.479-15.32-10.859-23.923-23.986-24zM162.34 300c13.12-.077 24.543 6.962 25.915 23.38L200.003 464h-40l-19.199-140c-2.096-15.285 8.416-23.923 21.536-24"/><path fill="#f9f9f9" d="M210.34 308c13.12-.077 25.168 6.912 25.665 23.38L240.003 464h-40l-11.2-132c-1.304-15.373 8.416-23.923 21.537-24zM407.05 290c11.08 0 22.277 7.064 20.25 18l-25.948 140c-.775 8.864-8.536 16-17.4 16h-24L381.3 308c1.508-11.02 14.67-18 25.75-18"/><path fill="#f44336" d="M357.66 300c-13.12-.077-24.543 6.962-25.915 23.38L319.997 464h40l19.199-140c2.096-15.285-8.416-23.923-21.536-24"/><path fill="#f9f9f9" d="M309.66 308c-13.12-.077-25.168 6.912-25.665 23.38L279.997 464h40l11.2-132c1.304-15.373-8.416-23.923-21.537-24z"/><path fill="#fff" d="M112.95 288c-10.542 0-21.182 8.206-20.445 18.422.673-9.265 10.601-16.422 20.445-16.422 11.08 0 24.242 8.98 25.75 20l1.893 13.824a26 26 0 0 1-.038-2.268L138.7 308c-1.508-11.02-14.67-20-25.75-20zm294.1 2c-11.08 0-24.242 6.98-25.75 18l-1.855 13.557c.019.738.01 1.492-.038 2.268L381.3 310c1.508-11.02 14.67-18 25.75-18 9.833 0 19.751 5.566 20.443 14.463C428.249 296.41 417.6 290 407.05 290zm-244.71 10c-12.281.073-22.26 7.654-21.77 21.158.517-12.252 10.108-19.089 21.77-19.158 13.12-.077 24.542 6.963 25.914 23.381l.445 5.322c.265-13.29 9.492-20.63 21.641-20.703 13.12-.077 25.168 6.914 25.664 23.381l.032 1.059c.864-14.346 11.664-20.512 23.98-20.44 12.28.073 22.993 7.609 23.932 21.124l.052-1.742c.497-16.467 12.544-23.458 25.664-23.381 12.15.071 21.376 7.412 21.641 20.703l.446-5.323c1.371-16.418 12.794-23.458 25.914-23.38 11.662.068 21.252 6.906 21.77 19.157.49-13.504-9.489-21.086-21.77-21.158-13.12-.077-24.542 6.963-25.914 23.381l-.446 5.323c-.265-13.291-9.491-20.631-21.64-20.703-13.12-.078-25.169 6.913-25.665 23.38l-.052 1.743c-.939-13.515-11.651-21.051-23.932-21.123-12.316-.073-23.116 6.093-23.98 20.439l-.032-1.059c-.496-16.467-12.544-23.458-25.664-23.38-12.149.071-21.376 7.411-21.64 20.702l-.446-5.322c-1.372-16.418-12.794-23.458-25.914-23.381" opacity=".2"/><path fill="#fff" d="M299 64a120 120 0 0 0-116.5 91.834A48 48 0 0 0 139.004 128a48 48 0 0 0-48 48 48 48 0 0 0 .041.832A48 48 0 0 1 139.004 130a48 48 0 0 1 43.496 27.834A120 120 0 0 1 299 66a120 120 0 0 1 119.96 119.31 120 120 0 0 0 .035-1.31 120 120 0 0 0-120-120zM103.5 210.26a48 48 0 0 0-18.502 37.736l.027.531a48 48 0 0 1 19.516-37.117 48 48 0 0 1-1.04-1.15zm308.74 14.791a120 120 0 0 1-.486 1.578 40 40 0 0 1 15.215 30.748 40 40 0 0 0 .03-1.38 40 40 0 0 0-14.76-30.946z" opacity=".5"/></svg>