<svg width="512" height="512" enable-background="new" version="1.0" xmlns="http://www.w3.org/2000/svg">
 <defs>
  <clipPath id="f">
   <path d="m507 80a120 120 0 0 0-116.5 91.834 48 48 0 0 0-43.496-27.834 48 48 0 0 0-48 48 48 48 0 0 0 13.543 33.414 48 48 0 0 0-19.543 38.586 48 48 0 0 0 43 47.654v112.35h264v-112.35a40 40 0 0 0 35-39.648 40 40 0 0 0-15.246-31.367 120 120 0 0 0 7.2461-40.633 120 120 0 0 0-120-120z" fill="#fff3e0"/>
  </clipPath>
  <clipPath id="b">
   <path d="m288-148a48 48 0 0 1-48 48v256a48 48 0 0 1 48 48h352a48 48 0 0 1 48-48v-256a48 48 0 0 1-48-48z" enable-background="new" fill="#1976d2"/>
  </clipPath>
  <filter id="a" x="-.026013" y="-.022276" width="1.052" height="1.0446" color-interpolation-filters="sRGB">
   <feGaussianBlur stdDeviation="3.712691"/>
  </filter>
  <filter id="e" x="-.022714" y="-.02544" width="1.0454" height="1.0509" color-interpolation-filters="sRGB">
   <feGaussianBlur stdDeviation="4.24"/>
  </filter>
  <filter id="d" x="-.011357" y="-.01272" width="1.0227" height="1.0254" color-interpolation-filters="sRGB">
   <feGaussianBlur stdDeviation="2.12"/>
  </filter>
  <filter id="c" x="-.092234" y="-.17168" width="1.1845" height="1.3434" color-interpolation-filters="sRGB">
   <feGaussianBlur stdDeviation="12.876362"/>
  </filter>
 </defs>
 <g transform="translate(0,212)">
  <g>
   <g transform="translate(-208,16)">
    <g>
     <path d="m507-160a120 120 0 0 0-59.531 16h-159.47a48 48 0 0 1-48 48v256a48 48 0 0 1 48 48h35.684l2.9648 16c0.7755 8.864 8.5364 16 17.4 16h247.9c8.864 0 16.625-7.136 17.4-16l2.9648-16h27.684a48 48 0 0 1 48-48v-256a48 48 0 0 1-48-48h-73.434a120 120 0 0 0-59.566-16z" enable-background="new" filter="url(#d)" opacity=".1"/>
     <path d="m507-160a120 120 0 0 0-59.531 16h-159.47a48 48 0 0 1-48 48v256a48 48 0 0 1 48 48h35.684l2.9648 16c0.7755 8.864 8.5364 16 17.4 16h247.9c8.864 0 16.625-7.136 17.4-16l2.9648-16h27.684a48 48 0 0 1 48-48v-256a48 48 0 0 1-48-48h-73.434a120 120 0 0 0-59.566-16z" enable-background="new" filter="url(#e)" opacity=".2"/>
     <path d="m507-160c-55.371 0.0663-103.51 38.01-116.5 91.834-7.8477-16.951-24.817-27.81-43.496-27.834-26.51 0-48 21.49-48 48 8.3e-4 12.475 4.8582 24.459 13.543 33.414-12.269 9.0319-19.521 23.351-19.543 38.586 0.041 16.573 8.628 31.952 22.715 40.682-9.0651 2.2718-16.718 10.122-15.014 19.318l25.947 140c0.7755 8.864 8.5364 16 17.4 16h247.9c8.864 0 16.625-7.136 17.4-16l25.947-140c1.9759-10.661-8.6154-17.622-19.414-17.967 11.85-7.2545 19.087-20.139 19.115-34.033-0.0163-12.237-5.6334-23.794-15.246-31.367 4.744-13.024 7.1956-26.772 7.2461-40.633 0-66.274-53.726-120-120-120z" clip-path="url(#b)" filter="url(#a)" opacity=".1"/>
     <path d="m288 206a48 48 0 0 0-48-48v-128h448v128a48 48 0 0 0-48 48z" enable-background="new" opacity=".2"/>
    </g>
    <path d="m240 28v-128a48 48 0 0 0 48-48h352a48 48 0 0 0 48 48v128z" enable-background="new" fill="#1976d2"/>
    <path d="m288 204a48 48 0 0 0-48-48v-128h448v128a48 48 0 0 0-48 48z" enable-background="new" fill="#2196f3"/>
    <path d="m507-160c-55.371 0.0663-103.51 38.01-116.5 91.834-7.8477-16.951-24.817-27.81-43.496-27.834-26.51 0-48 21.49-48 48 8.3e-4 12.475 4.8582 24.459 13.543 33.414-12.269 9.0319-19.521 23.351-19.543 38.586 0.041 16.573 8.628 31.952 22.715 40.682-9.0651 2.2718-16.718 10.122-15.014 19.318l25.947 140c0.7755 8.864 8.5364 16 17.4 16h247.9c8.864 0 16.625-7.136 17.4-16l25.947-140c1.9759-10.661-8.6154-17.622-19.414-17.967 11.85-7.2545 19.087-20.139 19.115-34.033-0.0163-12.237-5.6334-23.794-15.246-31.367 4.744-13.024 7.1956-26.772 7.2461-40.633 0-66.274-53.726-120-120-120z" clip-path="url(#b)" filter="url(#a)" opacity=".2"/>
    <path d="m507-162a120 120 0 0 0-116.5 91.834 48 48 0 0 0-43.496-27.834 48 48 0 0 0-48 48 48 48 0 0 0 13.543 33.414 48 48 0 0 0-19.543 38.586 48 48 0 0 0 22.715 40.682c-9.0651 2.2718-16.718 10.122-15.014 19.318l25.947 140c0.7755 8.864 8.5364 16 17.4 16h247.9c8.864 0 16.625-7.136 17.4-16l25.947-140c1.9759-10.661-8.6154-17.622-19.414-17.967a40 40 0 0 0 19.115-34.033 40 40 0 0 0-15.246-31.367 120 120 0 0 0 7.2461-40.633 120 120 0 0 0-120-120z" opacity=".2"/>
    <path transform="translate(0,-244)" d="m288 96a48 48 0 0 1-48 48v2a48 48 0 0 0 48-48h352a48 48 0 0 0 48 48v-2a48 48 0 0 1-48-48z" enable-background="new" fill="#fff" opacity=".2"/>
    <path transform="translate(0,-244)" d="m507 80a120 120 0 0 0-116.5 91.834 48 48 0 0 0-43.496-27.834 48 48 0 0 0-48 48 48 48 0 0 0 13.543 33.414 48 48 0 0 0-19.543 38.586 48 48 0 0 0 43 47.654v112.35h264v-112.35a40 40 0 0 0 35-39.648 40 40 0 0 0-15.246-31.367 120 120 0 0 0 7.2461-40.633 120 120 0 0 0-120-120z" fill="#ffedd3"/>
    <g enable-background="new">
     <circle cx="384" cy="-4" r="24" fill="#333"/>
     <circle cx="392" cy="-12" r="8" fill="#fff"/>
    </g>
    <g transform="translate(160)" enable-background="new">
     <circle cx="384" cy="-4" r="24" fill="#333"/>
     <circle cx="392" cy="-12" r="8" fill="#fff"/>
    </g>
    <path d="m428 20c-2.216 0-4 1.784-4 4a40 40 0 0 0 40 40 40 40 0 0 0 40-40c0-2.216-1.784-4-4-4z" enable-background="new" fill="#bd1b1b"/>
    <path transform="translate(0,-244)" d="m320.95 308c-11.08 0-22.222 9.054-20.25 20l25.947 144c0.7755 8.864 8.5364 16 17.4 16h247.9c8.864 0 16.625-7.136 17.4-16l25.947-144c1.9724-10.946-9.17-18-20.25-18s-24.242 6.9804-25.75 18l-1.8926 13.824c0.85109-13.923-9.2613-21.751-21.744-21.824-13.12-0.0774-24.542 6.9631-25.914 23.381l-0.44532 5.3223c-0.26495-13.291-9.4915-20.631-21.641-20.703-13.12-0.0774-25.168 6.9134-25.664 23.381l-0.0527 1.7422c-0.93835-13.515-11.651-21.051-23.932-21.123-12.316-0.0727-23.116 6.093-23.98 20.439l-0.0312-1.0586c-0.49643-16.467-12.544-23.458-25.664-23.381-12.149 0.0717-21.376 7.4121-21.641 20.703l-0.44532-5.3223c-1.3716-16.418-12.794-23.458-25.914-23.381-12.483 0.0737-22.595 7.9007-21.744 21.824l-1.8926-13.824c-1.508-11.02-14.67-20-25.75-20z" clip-path="url(#f)" filter="url(#c)" opacity=".1"/>
    <path d="m320.95 60c-11.08 0-22.277 9.0639-20.25 20l25.948 140c0.7755 8.864 8.5358 16 17.4 16h24l-21.348-156c-1.508-11.02-14.67-20-25.75-20z" fill="#f9f9f9"/>
    <path d="m468.01 84c-13.127-0.07744-24.532 6.9311-24.019 23.38l4.0052 128.62h40l4-128c0.47876-15.32-10.859-23.923-23.986-24z" fill="#f44336"/>
    <path d="m370.34 72c13.12-0.07744 24.543 6.9622 25.915 23.38l11.748 140.62h-40l-19.199-140c-2.0961-15.285 8.4158-23.923 21.536-24z" fill="#f44336"/>
    <path d="m418.34 80c13.12-0.07744 25.168 6.9124 25.665 23.38l3.9976 132.62h-40l-11.199-132c-1.3042-15.373 8.4158-23.923 21.536-24z" fill="#f9f9f9"/>
    <path d="m615.05 62c11.08 0 22.277 7.0639 20.25 18l-25.948 140c-0.7755 8.864-8.5358 16-17.4 16h-24l21.348-156c1.508-11.02 14.67-18 25.75-18z" fill="#f9f9f9"/>
    <path d="m565.66 72c-13.12-0.07744-24.543 6.9622-25.915 23.38l-11.748 140.62h40l19.199-140c2.0961-15.285-8.4158-23.923-21.536-24z" fill="#f44336"/>
    <path d="m517.66 80c-13.12-0.07744-25.168 6.9124-25.665 23.38l-3.9976 132.62h40l11.199-132c1.3042-15.373-8.4158-23.923-21.536-24z" fill="#f9f9f9"/>
    <path transform="translate(0,-244)" d="m320.95 304c-10.542 0-21.182 8.2062-20.445 18.422 0.67286-9.2655 10.601-16.422 20.445-16.422 11.08 0 24.242 8.9804 25.75 20l1.8926 13.824c-0.0474-0.77586-0.0563-1.5299-0.0371-2.2676l-1.8555-13.557c-1.508-11.02-14.67-20-25.75-20zm294.1 2c-11.08 0-24.242 6.9804-25.75 18l-1.8555 13.557c0.0192 0.73772 0.0103 1.4917-0.0371 2.2676l1.8926-13.824c1.508-11.02 14.67-18 25.75-18 9.8334 0 19.751 5.5664 20.443 14.463 0.75604-10.054-9.8927-16.463-20.443-16.463zm-244.71 10c-12.281 0.0725-22.26 7.6543-21.77 21.158 0.51736-12.252 10.108-19.089 21.77-19.158 13.12-0.0774 24.542 6.9631 25.914 23.381l0.44532 5.3223c0.26498-13.291 9.4916-20.631 21.641-20.703 13.12-0.0774 25.168 6.9134 25.664 23.381l0.0312 1.0586c0.86457-14.346 11.664-20.512 23.98-20.439 12.281 0.0725 22.993 7.6076 23.932 21.123l0.0527-1.7422c0.49638-16.467 12.544-23.458 25.664-23.381 12.149 0.0717 21.376 7.4121 21.641 20.703l0.44532-5.3223c1.3716-16.418 12.794-23.458 25.914-23.381 11.662 0.0688 21.252 6.9062 21.77 19.158 0.4907-13.504-9.4885-21.086-21.77-21.158-13.12-0.0774-24.542 6.9631-25.914 23.381l-0.44532 5.3223c-0.26489-13.291-9.4915-20.631-21.641-20.703-13.12-0.0774-25.168 6.9134-25.664 23.381l-0.0527 1.7422c-0.93835-13.515-11.651-21.051-23.932-21.123-12.316-0.0727-23.116 6.093-23.98 20.439l-0.0312-1.0586c-0.49643-16.467-12.544-23.458-25.664-23.381-12.149 0.0717-21.376 7.4121-21.641 20.703l-0.44532-5.3223c-1.3716-16.418-12.794-23.458-25.914-23.381z" fill="#fff" opacity=".2"/>
    <path transform="translate(0,-244)" d="m507 80a120 120 0 0 0-116.5 91.834 48 48 0 0 0-43.496-27.834 48 48 0 0 0-48 48 48 48 0 0 0 0.041 0.83203 48 48 0 0 1 47.959-46.832 48 48 0 0 1 43.496 27.834 120 120 0 0 1 116.5-91.834 120 120 0 0 1 119.96 119.31 120 120 0 0 0 0.03516-1.3106 120 120 0 0 0-120-120zm-195.5 146.26a48 48 0 0 0-18.502 37.736 48 48 0 0 0 0.0273 0.53125 48 48 0 0 1 19.516-37.117 48 48 0 0 1-1.041-1.1504zm308.74 14.791a120 120 0 0 1-0.48632 1.5781 40 40 0 0 1 15.215 30.748 40 40 0 0 0 0.03125-1.3809 40 40 0 0 0-14.76-30.945z" fill="#fff" opacity=".5"/>
   </g>
  </g>
 </g>
</svg>
