<svg xmlns="http://www.w3.org/2000/svg" width="512" height="512" enable-background="new" version="1.0"><defs><filter id="a" width="1.048" height="1.048" x="-.024" y="-.024" color-interpolation-filters="sRGB"><feGaussianBlur stdDeviation="4.8"/></filter><filter id="b" width="1.216" height="1.216" x="-.108" y="-.108" color-interpolation-filters="sRGB"><feGaussianBlur stdDeviation="5.4"/></filter></defs><g transform="translate(-208 228)"><circle cx="464" cy="30" r="240" opacity=".2"/><circle cx="464" cy="32" r="240" filter="url(#a)" opacity=".1"/><circle cx="464" cy="32" r="240" filter="url(#a)" opacity=".2"/><circle cx="464" cy="28" r="240" fill="#757575"/><path fill="#fff" d="M464-212A240 240 0 0 0 224 28l.041 1.172A240 240 0 0 1 464-210 240 240 0 0 1 703.959 28.828L704 28a240 240 0 0 0-240-240" opacity=".2"/></g><rect width="120" height="120" x="121" y="125" filter="url(#b)" opacity=".15" rx="20" ry="20" style="paint-order:stroke fill markers"/><rect width="120" height="120" x="121" y="121.5" fill="#fff" rx="20" ry="20" style="paint-order:stroke fill markers"/><rect width="120" height="120" x="271" y="121.5" fill="#fff" opacity=".5" rx="20" ry="20" style="paint-order:stroke fill markers"/><rect width="120" height="120" x="121" y="270.5" fill="#fff" opacity=".5" rx="20" ry="20" style="paint-order:stroke fill markers"/><rect width="120" height="120" x="271" y="270.5" fill="#fff" opacity=".5" rx="20" ry="20" style="paint-order:stroke fill markers"/></svg>