<svg width="64" height="64" version="1.1" viewBox="0 0 64 64" xmlns="http://www.w3.org/2000/svg">
 <defs>
  <linearGradient id="bg" x1="1" x2="47" gradientTransform="matrix(1.2174 0 0 1.2174 -61.217 2.7826)" gradientUnits="userSpaceOnUse">
   <stop stop-color="#e4e4e4" offset="0"/>
   <stop stop-color="#eee" offset="1"/>
  </linearGradient>
  <filter id="filter4960" x="-.042" y="-.056" width="1.084" height="1.112" color-interpolation-filters="sRGB">
   <feGaussianBlur stdDeviation="0.68173913"/>
  </filter>
  <filter id="filter5000" x="-.075" y="-.075" width="1.15" height="1.15" color-interpolation-filters="sRGB">
   <feGaussianBlur stdDeviation="1.75"/>
  </filter>
 </defs>
 <rect transform="rotate(-90)" x="-61" y="4" width="56" height="56" rx="4.8696" fill="#000000" filter="url(#filter5000)" opacity=".25" stroke-width="1.2174"/>
 <rect transform="rotate(-90)" x="-60" y="4" width="56" height="56" rx="4.8696" fill="url(#bg)" stroke-width="1.2174"/>
 <path d="m4 50.261v4.8696c0 2.6977 2.1718 4.8696 4.8696 4.8696h46.261c2.6977 0 4.8696-2.1718 4.8696-4.8696v-4.8696c0 2.6977-2.1718 4.8696-4.8696 4.8696h-46.261c-2.6977 0-4.8696-2.1718-4.8696-4.8696z" opacity=".1" stroke-width="1.2174"/>
 <path d="m14.957 19.826s-2.4348 1.0859-2.4348 2.4348v8.5217c0 1.3489 1.0859 2.4348 2.4348 2.4348h4.8696v1.2174c0 1.3489 1.0859 2.4348 2.4348 2.4348h7.3043c1.3489 0 2.4348-1.0859 2.4348-2.4348v-4.8696l-17.043 1.2174v-8.5217h1.2174v1.2174c0 1.3489 1.0859 2.4348 2.4348 2.4348h4.8696c1.3489 0 2.4348-1.0859 2.4348-2.4348v-4.8696zm13.391-1.2174v4.8696c0 0.67444 0.54296 1.2174 1.2174 1.2174h4.8696c0.67443 0 1.2174-0.54296 1.2174-1.2174v-4.8696zm10.957 0v4.8696c0 0.67444 0.54296 1.2174 1.2174 1.2174h4.8696c0.67444 0 1.2174-0.54296 1.2174-1.2174v-4.8696zm-4.8696 10.957v4.8696c0 1.3489 1.0859 2.4348 2.4348 2.4348h4.8696c1.3489 0 2.4348-1.0859 2.4348-2.4348v-1.2174h4.8696v8.5217l-10.957-1.2174v4.8696c0 1.3489 1.0859 2.4348 2.4348 2.4348h4.8696c1.3489 0 2.4348-1.0859 2.4348-2.4348v-1.2174h1.2174c1.3489 0 2.4348-1.0859 2.4348-2.4348v-8.5217l-2.4348-2.4348zm-17.043 10.957v4.8696c0 0.67444 0.54296 1.2174 1.2174 1.2174h4.8696c0.67444 0 1.2174-0.54296 1.2174-1.2174v-4.8696zm10.957 0v4.8696c0 0.67444 0.54296 1.2174 1.2174 1.2174h4.8696c0.67443 0 1.2174-0.54296 1.2174-1.2174v-4.8696z" filter="url(#filter4960)" opacity=".1" stroke-width="1.2174"/>
 <path d="m18.609 14.957c-1.3489 0-2.4348 1.0859-2.4348 2.4348v1.2174h-1.2174c-1.3489 0-2.4348 1.0859-2.4348 2.4348v8.5217c0 1.3489 1.0859 2.4348 2.4348 2.4348h4.8696v1.2174c0 1.3489 1.0859 2.4348 2.4348 2.4348h7.3043c1.3489 0 2.4348-1.0859 2.4348-2.4348v-4.8696c0-1.3489-1.0859-2.4348-2.4348-2.4348h-7.3043c-1.3489 0-2.4348 1.0859-2.4348 2.4348v1.2174h-4.8696v-8.5217h1.2174v1.2174c0 1.3489 1.0859 2.4348 2.4348 2.4348h4.8696c1.3489 0 2.4348-1.0859 2.4348-2.4348v-4.8696c0-1.3489-1.0859-2.4348-2.4348-2.4348z" fill="#e55757" stroke-width="1.2174"/>
 <path d="m36.87 25.913c-1.3489 0-2.4348 1.0859-2.4348 2.4348v4.8696c0 1.3489 1.0859 2.4348 2.4348 2.4348h4.8696c1.3489 0 2.4348-1.0859 2.4348-2.4348v-1.2174h4.8696v8.5217h-1.2174v-1.2174c0-1.3489-1.0859-2.4348-2.4348-2.4348h-4.8696c-1.3489 0-2.4348 1.0859-2.4348 2.4348v4.8696c0 1.3489 1.0859 2.4348 2.4348 2.4348h4.8696c1.3489 0 2.4348-1.0859 2.4348-2.4348v-1.2174h1.2174c1.3489 0 2.4348-1.0859 2.4348-2.4348v-8.5217c0-1.3489-1.0859-2.4348-2.4348-2.4348h-4.8696v-1.2174c0-1.3489-1.0859-2.4348-2.4348-2.4348z" fill="#2387f0" stroke-width="1.2174"/>
 <path d="m18.609 16.174c-0.67444 0-1.2174 0.54296-1.2174 1.2174v4.8696c0 0.67443 0.54296 1.2174 1.2174 1.2174h4.8696c0.67444 0 1.2174-0.54296 1.2174-1.2174v-4.8696c0-0.67443-0.54296-1.2174-1.2174-1.2174zm10.957 0c-0.67443 0-1.2174 0.54296-1.2174 1.2174v4.8696c0 0.67443 0.54296 1.2174 1.2174 1.2174h4.8696c0.67443 0 1.2174-0.54296 1.2174-1.2174v-4.8696c0-0.67443-0.54296-1.2174-1.2174-1.2174zm10.957 0c-0.67444 0-1.2174 0.54296-1.2174 1.2174v4.8696c0 0.67443 0.54296 1.2174 1.2174 1.2174h4.8696c0.67444 0 1.2174-0.54296 1.2174-1.2174v-4.8696c0-0.67443-0.54296-1.2174-1.2174-1.2174zm-18.261 10.957c-0.67444 0-1.2174 0.54296-1.2174 1.2174v4.8696c0 0.67444 0.54296 1.2174 1.2174 1.2174h7.3043c0.67444 0 1.2174-0.54296 1.2174-1.2174v-4.8696c0-0.67444-0.54296-1.2174-1.2174-1.2174zm14.609 0c-0.67444 0-1.2174 0.54296-1.2174 1.2174v4.8696c0 0.67444 0.54296 1.2174 1.2174 1.2174h4.8696c0.67444 0 1.2174-0.54296 1.2174-1.2174v-4.8696c0-0.67444-0.54296-1.2174-1.2174-1.2174zm-18.261 10.957c-0.67444 0-1.2174 0.54296-1.2174 1.2174v4.8696c0 0.67444 0.54296 1.2174 1.2174 1.2174h4.8696c0.67444 0 1.2174-0.54296 1.2174-1.2174v-4.8696c0-0.67444-0.54296-1.2174-1.2174-1.2174zm10.957 0c-0.67443 0-1.2174 0.54296-1.2174 1.2174v4.8696c0 0.67444 0.54296 1.2174 1.2174 1.2174h4.8696c0.67443 0 1.2174-0.54296 1.2174-1.2174v-4.8696c0-0.67444-0.54296-1.2174-1.2174-1.2174zm10.957 0c-0.67444 0-1.2174 0.54296-1.2174 1.2174v4.8696c0 0.67444 0.54296 1.2174 1.2174 1.2174h4.8696c0.67444 0 1.2174-0.54296 1.2174-1.2174v-4.8696c0-0.67444-0.54296-1.2174-1.2174-1.2174z" fill="#999999" stroke-width="1.2174"/>
 <path transform="rotate(-90)" d="m-4 8.8691c0-2.6977-2.1714-4.8691-4.8691-4.8691h-1c2.6977 0 4.8691 2.1714 4.8691 4.8691v46.262c0 2.6977-2.1714 4.8691-4.8691 4.8691h1c2.6977 0 4.8691-2.1714 4.8691-4.8691v-46.262z" fill="#ffffff" opacity=".35" stroke-width="1.2174"/>
</svg>
