<svg xmlns="http://www.w3.org/2000/svg" width="64" height="64"><rect width="58" height="52" x="3" y="7" filter="url(#a)" opacity=".25" rx="3" ry="3" style="paint-order:fill markers stroke"/><defs><filter id="a" width="1.142" height="1.159" x="-.071" y="-.079" color-interpolation-filters="sRGB"><feGaussianBlur stdDeviation="1.719"/></filter></defs><path fill="#ccc" d="M3 15v40c0 1.662 1.338 3 3 3h52c1.662 0 3-1.338 3-3V15z" style="paint-order:fill markers stroke"/><rect width="58" height="1" x="3" y="15" opacity=".15" rx="0" ry="0" style="paint-order:fill markers stroke"/><path fill="#f2f2f2" d="M6 6C4.338 6 3 7.338 3 9v6h29V6z" style="paint-order:fill markers stroke"/><path fill="#666" d="M58 6c1.662 0 3 1.338 3 3v6H32V6z" style="paint-order:fill markers stroke"/><circle cx="56.5" cy="10.5" r="2.5" fill="#fff" style="paint-order:fill markers stroke"/><circle cx="56.5" cy="10.5" r="1.5" fill="#b3b3b3" style="paint-order:fill markers stroke"/><circle cx="7.5" cy="10.5" r="2.5" fill="#666" style="paint-order:fill markers stroke"/><circle cx="7.5" cy="10.5" r="1.5" fill="#fff" style="paint-order:fill markers stroke"/><rect width="54" height="38" x="5" y="18" fill="#f2f2f2" rx="1" ry="1" style="paint-order:fill markers stroke"/><path fill="#fff" d="M32 6v1h26c1.662 0 3 1.338 3 3V9c0-1.662-1.338-3-3-3z" opacity=".15" style="paint-order:fill markers stroke"/><path fill="#fff" d="M32 6v1H6c-1.662 0-3 1.338-3 3V9c0-1.662 1.338-3 3-3z" style="paint-order:fill markers stroke"/></svg>