<svg xmlns="http://www.w3.org/2000/svg" width="64" height="64" fill="none"><defs><filter id="filter2112" width="1.138" height="1.164" x="-.069" y="-.082" color-interpolation-filters="sRGB"><feGaussianBlur stdDeviation="1.609"/></filter><style id="current-color-scheme" type="text/css">.ColorScheme-Highlight{color:#3daee9}</style></defs><rect width="56" height="47" x="4" y="6" fill="#4d4d4d" stroke-linecap="round" stroke-linejoin="round" stroke-width="3" filter="url(#filter2112)" opacity=".35" rx="7" ry="7" style="paint-order:fill markers stroke"/><rect width="56" height="47" x="4" y="5" fill="#4d4d4d" stroke-linecap="round" stroke-linejoin="round" stroke-width="3" rx="7" ry="7" style="paint-order:fill markers stroke"/><rect width="50" height="41" x="7" y="8" fill="#333" stroke-linecap="round" stroke-linejoin="round" stroke-width="2.648" rx="4" ry="4" style="paint-order:fill markers stroke"/><path fill="#fff" stroke-width="1.75" d="M41.887 23.375a9.625 9.625 0 1 1-19.25 0 9.625 9.625 0 0 1 19.25 0" class="ColorScheme-Highlight" opacity=".15"/><path fill="#fff" stroke-width="1.75" d="M40.138 23.375a7.875 7.875 0 1 1-15.75 0 7.875 7.875 0 0 1 15.75 0" class="ColorScheme-Highlight" opacity=".15"/><path fill="#e6ae90" stroke-width="1.75" d="M33.231 58.731c4.334.481 10.455.516 11.307.518.07 0 .135.002.204.003 3.763.06 7.019-2.445 7.502-6.188l1.209-8.333c1.037-6.222-3.63-7.778-5.185-4.667 0-3.63-4.149-5.703-6.223-2.592 0-3.111-4.472-5.185-6.546-2.074V23.99c0-4.148-6.125-5.185-6.125 0v22.134S28.5 43.5 26.75 41.75c-5.704-5.705-8.555-.13-8.555-.13 4.148 3.111 7.29 16.25 15.037 17.111z"/><path fill="#fff" stroke-linecap="round" stroke-linejoin="round" stroke-width="3" d="M11 5c-3.878 0-7 3.122-7 7v1c0-3.878 3.122-7 7-7h42c3.878 0 7 3.122 7 7v-1c0-3.878-3.122-7-7-7z" opacity=".1" style="paint-order:fill markers stroke"/></svg>