<svg xmlns="http://www.w3.org/2000/svg" width="512" height="512"><defs><filter id="b" width="1.142" height="1.159" x="-.071" y="-.08" color-interpolation-filters="sRGB"><feGaussianBlur stdDeviation="13.25"/></filter></defs><g transform="translate(-208 228)"><path d="M264-158c-13.296 0-24 10.704-24 24v304c0 13.296 10.704 24 24 24h104v40c0 4.432 3.568 8 8 8h176c4.432 0 8-3.568 8-8v-40h104c13.296 0 24-10.704 24-24v-304c0-13.296-10.704-24-24-24z" filter="url(#a)" opacity=".1"/><path d="M264-158c-13.296 0-24 10.704-24 24v304c0 13.296 10.704 24 24 24h104v40c0 4.432 3.568 8 8 8h176c4.432 0 8-3.568 8-8v-40h104c13.296 0 24-10.704 24-24v-304c0-13.296-10.704-24-24-24z" filter="url(#b)" opacity=".2"/><path d="M264-160c-13.296 0-24 10.704-24 24v304c0 13.296 10.704 24 24 24h104v40c0 4.432 3.568 8 8 8h176c4.432 0 8-3.568 8-8v-40h104c13.296 0 24-10.704 24-24v-304c0-13.296-10.704-24-24-24z" opacity=".2"/><rect width="104" height="192" x="-238" y="-560" fill="gray" ry="8" transform="scale(1 -1)rotate(90)"/><rect width="104" height="192" x="-238" y="-560" fill="url(#f)" opacity=".2" ry="8" transform="scale(1 -1)rotate(90)"/><rect width="352" height="448" x="-190" y="-688" fill="#666" rx="24" ry="24" transform="scale(1 -1)rotate(90)"/><path fill="#fff" d="M264-162c-13.296 0-24 10.704-24 24v2c0-13.296 10.704-24 24-24h400c13.296 0 24 10.704 24 24v-2c0-13.296-10.704-24-24-24z" opacity=".2"/><path fill="none" stroke="#000" stroke-width="2" d="M368 191h192" filter="url(#c)" opacity=".2"/><rect width="256" height="416" x="-110" y="-672" fill="#4d4d4d" ry="4" transform="scale(1 -1)rotate(90)"/><path d="M260-146c-2.216 0-4 1.784-4 4v248c0 2.216 1.784 4 4 4h204v-256z" opacity=".15"/></g><path fill="#f9f9f9" d="M148.45 191.71a54.857 54.857 0 0 0-54.857 54.857 54.857 54.857 0 0 0 54.857 54.857 54.86 54.86 0 0 0 40.821-18.286h-22.535c-20.261 0-36.571-16.311-36.571-36.571 0-20.261 16.311-36.571 36.571-36.571h22.501a54.86 54.86 0 0 0-40.786-18.286zM382.23 228.29l-14.599-12.898-14.752 12.723-6.194-18.469-19.137 3.643 3.87-19.093-18.394-6.414 12.898-14.6-12.724-14.751 18.469-6.195-3.643-19.137 19.093 3.87 6.414-18.393 14.6 12.898 14.751-12.724 6.195 18.469 19.137-3.643-3.87 19.093 18.393 6.414-12.898 14.599 12.724 14.752-18.469 6.194 3.643 19.137-19.093-3.87z" style="paint-order:normal"/></svg>