<svg xmlns="http://www.w3.org/2000/svg" width="64" height="64"><defs><filter id="c" width="1.084" height="1.112" x="-.042" y="-.056" color-interpolation-filters="sRGB"><feGaussianBlur stdDeviation=".682"/></filter><filter id="a" width="1.15" height="1.15" x="-.075" y="-.075" color-interpolation-filters="sRGB"><feGaussianBlur stdDeviation="1.75"/></filter><linearGradient id="b" x1="1" x2="47" gradientTransform="translate(-61.217 2.783)scale(1.2174)" gradientUnits="userSpaceOnUse"><stop offset="0" stop-color="#e4e4e4"/><stop offset="1" stop-color="#eee"/></linearGradient></defs><rect width="56" height="56" x="-61" y="4" filter="url(#a)" opacity=".25" rx="4.87" transform="rotate(-90)"/><rect width="56" height="56" x="-60" y="4" fill="url(#b)" rx="4.87" transform="rotate(-90)"/><path d="M4 50.261v4.87A4.86 4.86 0 0 0 8.87 60h46.26A4.86 4.86 0 0 0 60 55.13v-4.87a4.86 4.86 0 0 1-4.87 4.87H8.87A4.86 4.86 0 0 1 4 50.26" opacity=".1"/><path d="M14.957 19.826s-2.435 1.086-2.435 2.435v8.522a2.43 2.43 0 0 0 2.435 2.434h4.87v1.218a2.43 2.43 0 0 0 2.434 2.434h7.305A2.43 2.43 0 0 0 32 34.436v-4.87l-17.043 1.217v-8.521h1.217v1.217a2.43 2.43 0 0 0 2.435 2.435h4.87a2.43 2.43 0 0 0 2.434-2.435v-4.87zm13.391-1.217v4.87c0 .674.543 1.217 1.217 1.217h4.87c.674 0 1.217-.543 1.217-1.218v-4.87zm10.957 0v4.87c0 .674.543 1.217 1.217 1.217h4.87c.674 0 1.217-.543 1.217-1.218v-4.87zm-4.87 10.957v4.87a2.43 2.43 0 0 0 2.435 2.434h4.87a2.43 2.43 0 0 0 2.435-2.435v-1.217h4.87v8.522l-10.958-1.218v4.87a2.43 2.43 0 0 0 2.435 2.435h4.87a2.43 2.43 0 0 0 2.434-2.435v-1.218h1.218a2.43 2.43 0 0 0 2.435-2.434v-8.522l-2.435-2.435zM17.392 40.523v4.87c0 .674.543 1.217 1.218 1.217h4.87c.674 0 1.217-.543 1.217-1.218v-4.87zm10.957 0v4.87c0 .674.543 1.217 1.218 1.217h4.87c.674 0 1.217-.543 1.217-1.218v-4.87z" filter="url(#c)" opacity=".1"/><path fill="#e55757" d="M18.609 14.957a2.43 2.43 0 0 0-2.435 2.435v1.217h-1.217a2.43 2.43 0 0 0-2.435 2.435v8.522A2.43 2.43 0 0 0 14.957 32h4.87v1.217a2.43 2.43 0 0 0 2.434 2.435h7.304A2.43 2.43 0 0 0 32 33.218v-4.87a2.43 2.43 0 0 0-2.434-2.434H22.26a2.43 2.43 0 0 0-2.435 2.434v1.218h-4.87v-8.522h1.218v1.217a2.43 2.43 0 0 0 2.435 2.435h4.87a2.43 2.43 0 0 0 2.434-2.435v-4.87a2.43 2.43 0 0 0-2.434-2.434z"/><path fill="#2387f0" d="M36.87 25.913a2.43 2.43 0 0 0-2.435 2.435v4.87a2.43 2.43 0 0 0 2.435 2.434h4.87a2.43 2.43 0 0 0 2.434-2.435V32h4.87v8.522h-1.217v-1.218a2.43 2.43 0 0 0-2.435-2.435h-4.87a2.43 2.43 0 0 0-2.435 2.435v4.87a2.43 2.43 0 0 0 2.435 2.435h4.87a2.43 2.43 0 0 0 2.435-2.435v-1.218h1.217a2.43 2.43 0 0 0 2.435-2.434V32a2.43 2.43 0 0 0-2.435-2.435h-4.87v-1.217a2.43 2.43 0 0 0-2.434-2.435z"/><path fill="#999" d="M18.609 16.174c-.674 0-1.217.543-1.217 1.217v4.87c0 .674.543 1.217 1.217 1.217h4.87c.674 0 1.217-.543 1.217-1.217v-4.87c0-.674-.543-1.217-1.217-1.217zm10.957 0c-.674 0-1.217.543-1.217 1.217v4.87c0 .674.543 1.217 1.217 1.217h4.87c.674 0 1.217-.543 1.217-1.217v-4.87c0-.674-.543-1.217-1.217-1.217zm10.957 0c-.674 0-1.217.543-1.217 1.217v4.87c0 .674.543 1.217 1.217 1.217h4.87c.674 0 1.217-.543 1.217-1.217v-4.87c0-.674-.543-1.217-1.217-1.217zM22.262 27.131c-.674 0-1.217.543-1.217 1.217v4.87c0 .674.543 1.217 1.217 1.217h7.304c.675 0 1.218-.543 1.218-1.217v-4.87c0-.674-.543-1.217-1.218-1.217zm14.609 0c-.674 0-1.217.543-1.217 1.217v4.87c0 .674.543 1.217 1.217 1.217h4.87c.674 0 1.217-.543 1.217-1.217v-4.87c0-.674-.543-1.217-1.217-1.217zM18.61 38.088c-.674 0-1.217.543-1.217 1.217v4.87c0 .674.543 1.217 1.217 1.217h4.87c.674 0 1.217-.543 1.217-1.217v-4.87c0-.674-.543-1.217-1.217-1.217zm10.957 0c-.674 0-1.217.543-1.217 1.217v4.87c0 .674.543 1.217 1.217 1.217h4.87c.674 0 1.217-.543 1.217-1.217v-4.87c0-.674-.543-1.217-1.217-1.217zm10.957 0c-.674 0-1.217.543-1.217 1.217v4.87c0 .674.543 1.217 1.217 1.217h4.87c.674 0 1.217-.543 1.217-1.217v-4.87c0-.674-.543-1.217-1.217-1.217z"/><path fill="#fff" d="M8.87 4A4.86 4.86 0 0 0 4 8.87v1A4.86 4.86 0 0 1 8.87 5H55.13a4.86 4.86 0 0 1 4.87 4.87v-1A4.86 4.86 0 0 0 55.13 4z" opacity=".35"/></svg>