<svg xmlns="http://www.w3.org/2000/svg" width="512" height="512"><defs><filter id="b" width="1.142" height="1.159" x="-.071" y="-.08" color-interpolation-filters="sRGB"><feGaussianBlur stdDeviation="13.25"/></filter></defs><path d="M56 70c-13.296 0-24 10.704-24 24v304c0 13.296 10.704 24 24 24h104v40c0 4.432 3.568 8 8 8h176c4.432 0 8-3.568 8-8v-40h104c13.296 0 24-10.704 24-24V94c0-13.296-10.704-24-24-24z" filter="url(#a)" opacity=".1"/><path d="M56 70c-13.296 0-24 10.704-24 24v304c0 13.296 10.704 24 24 24h104v40c0 4.432 3.568 8 8 8h176c4.432 0 8-3.568 8-8v-40h104c13.296 0 24-10.704 24-24V94c0-13.296-10.704-24-24-24z" filter="url(#b)" opacity=".2"/><path d="M56 68c-13.296 0-24 10.704-24 24v304c0 13.296 10.704 24 24 24h104v40c0 4.432 3.568 8 8 8h176c4.432 0 8-3.568 8-8v-40h104c13.296 0 24-10.704 24-24V92c0-13.296-10.704-24-24-24z" opacity=".2"/><rect width="104" height="192" x="-466" y="-352" fill="gray" ry="8" transform="scale(1 -1)rotate(90)"/><rect width="104" height="192" x="-466" y="-352" fill="url(#f)" opacity=".2" ry="8" transform="scale(1 -1)rotate(90)"/><rect width="352" height="448" x="-418" y="-480" fill="#666" rx="24" ry="24" transform="scale(1 -1)rotate(90)"/><path fill="#fff" d="M56 66c-13.296 0-24 10.704-24 24v2c0-13.296 10.704-24 24-24h400c13.296 0 24 10.704 24 24v-2c0-13.296-10.704-24-24-24z" opacity=".2"/><path fill="none" stroke="#000" stroke-width="2" d="M160 419h192" filter="url(#c)" opacity=".2"/><rect width="256" height="416" x="-338" y="-464" fill="#4d4d4d" ry="4" transform="scale(1 -1)rotate(90)"/></svg>