<svg width="512" height="512" version="1.1" xmlns="http://www.w3.org/2000/svg">
 <defs>
  <filter id="filter6398" x="-.070982" y="-.0795" width="1.142" height="1.159" color-interpolation-filters="sRGB">
   <feGaussianBlur stdDeviation="13.25"/>
  </filter>
 </defs>
 <g transform="translate(0,212)">
  <g transform="translate(-208,16)">
   <path d="m264-158c-13.296 0-24 10.704-24 24v304c0 13.296 10.704 24 24 24h104v40c0 4.432 3.568 8 8 8h176c4.432 0 8-3.568 8-8v-40h104c13.296 0 24-10.704 24-24v-304c0-13.296-10.704-24-24-24z" filter="url(#a)" opacity=".1"/>
   <path d="m264-158c-13.296 0-24 10.704-24 24v304c0 13.296 10.704 24 24 24h104v40c0 4.432 3.568 8 8 8h176c4.432 0 8-3.568 8-8v-40h104c13.296 0 24-10.704 24-24v-304c0-13.296-10.704-24-24-24z" filter="url(#filter6398)" opacity=".2"/>
   <path d="m264-160c-13.296 0-24 10.704-24 24v304c0 13.296 10.704 24 24 24h104v40c0 4.432 3.568 8 8 8h176c4.432 0 8-3.568 8-8v-40h104c13.296 0 24-10.704 24-24v-304c0-13.296-10.704-24-24-24z" opacity=".2"/>
   <rect transform="matrix(0,-1,-1,0,0,0)" x="-238" y="-560" width="104" height="192" ry="8" fill="#808080"/>
   <rect transform="matrix(0,-1,-1,0,0,0)" x="-238" y="-560" width="104" height="192" ry="8" fill="url(#f)" opacity=".2"/>
   <rect transform="matrix(0,-1,-1,0,0,0)" x="-190" y="-688" width="352" height="448" rx="24" ry="24" fill="#666666"/>
   <path d="m264-162c-13.296 0-24 10.704-24 24v2c0-13.296 10.704-24 24-24h400c13.296 0 24 10.704 24 24v-2c0-13.296-10.704-24-24-24z" fill="#fff" opacity=".2"/>
   <path d="m368 191h192" fill="none" filter="url(#c)" opacity=".2" stroke="#000" stroke-width="2"/>
   <rect transform="matrix(0,-1,-1,0,0,0)" x="-110" y="-672" width="256" height="416" ry="4" fill="#4d4d4d"/>
   <path transform="matrix(0,-1,-1,0,0,0)" d="m146-260c0 2.216-1.784 4-4 4h-248c-2.216 0-4-1.784-4-4v-204h256v204z" fill="#000000" opacity=".15"/>
  </g>
 </g>
 <path d="m148.45 191.71a54.857 54.857 0 0 0-54.857 54.857 54.857 54.857 0 0 0 54.857 54.857 54.857 54.857 0 0 0 40.821-18.286h-22.535c-20.261 0-36.571-16.311-36.571-36.571 0-20.261 16.311-36.571 36.571-36.571h22.501a54.857 54.857 0 0 0-40.786-18.286z" fill="#f9f9f9" stroke-width="18.286" style="paint-order:normal"/>
 <path d="m382.23 228.29-14.599-12.898-14.752 12.723-6.1945-18.469-19.137 3.6427 3.8704-19.093-18.394-6.4139 12.898-14.599-12.724-14.752 18.469-6.1945-3.6427-19.137 19.093 3.8702 6.4139-18.394 14.599 12.898 14.752-12.724 6.1945 18.469 19.137-3.6425-3.8704 19.093 18.394 6.4139-12.898 14.599 12.724 14.752-18.469 6.1943 3.6427 19.137-19.093-3.8704z" fill="#f9f9f9" stroke-width="14.061" style="paint-order:normal"/>
</svg>
