<svg xmlns="http://www.w3.org/2000/svg" width="512" height="512" enable-background="new" version="1.0"><defs><filter id="a" width="1.045" height="1.051" x="-.023" y="-.025" color-interpolation-filters="sRGB"><feGaussianBlur stdDeviation="4.24"/></filter></defs><g transform="translate(-208 228)"><path stroke="#000" stroke-width="8" d="M336-160v96h-72c-13.296 0-24 10.704-24 24v144c0 13.296 10.704 24 24 24h72v112h256V128h72c13.296 0 24-10.704 24-24V-40c0-13.296-10.704-24-24-24h-72v-96z" filter="url(#a)" opacity=".1"/><path d="M336-160v96h-72c-13.296 0-24 10.704-24 24v144c0 13.296 10.704 24 24 24h72v112h256V128h72c13.296 0 24-10.704 24-24V-40c0-13.296-10.704-24-24-24h-72v-96z" filter="url(#a)" opacity=".2"/><rect width="192" height="448" x="-124" y="-688" fill="#4d4d4d" rx="24" ry="24" transform="scale(1 -1)rotate(90)"/><path fill="#ececec" d="M336-68h256v-95.999H336z"/><path d="M240 98v2c0 13.296 10.704 24 24 24h400c13.296 0 24-10.704 24-24v-2c0 13.296-10.704 24-24 24H264c-13.296 0-24-10.704-24-24" opacity=".2"/><path fill="#ececec" d="M336 236h256V44H336z"/><rect width="24" height="24" x="280" y="-28" fill="#f9ce1d" rx="0" ry="12"/><path fill="#fff" d="M336-164v2h256v-2z" opacity=".4"/><path fill="#fff" d="M240-42v-2c0-13.296 10.704-24 24-24h400c13.296 0 24 10.704 24 24v2c0-13.296-10.704-24-24-24H264c-13.296 0-24 10.704-24 24" opacity=".2"/></g></svg>