<svg xmlns="http://www.w3.org/2000/svg" width="64" height="64" viewBox="0 0 16.933 16.933"><defs><filter id="b" width="1.139" height="1.073" x="-.07" y="-.037" color-interpolation-filters="sRGB"><feGaussianBlur stdDeviation=".153"/></filter><filter id="c" width="1.127" height="1.077" x="-.063" y="-.039" color-interpolation-filters="sRGB"><feGaussianBlur stdDeviation=".098"/></filter><filter id="d" width="1.156" height="1.069" x="-.078" y="-.035" color-interpolation-filters="sRGB"><feGaussianBlur stdDeviation=".069"/></filter><filter id="a" width="1.096" height="1.096" x="-.048" y="-.048" color-interpolation-filters="sRGB"><feGaussianBlur stdDeviation=".296"/></filter></defs><rect width="14.816" height="14.816" x="1.058" y="1.323" filter="url(#a)" opacity=".25" rx="1.323" ry="1.323" style="paint-order:markers stroke fill"/><rect width="14.816" height="14.816" x="1.058" y="1.058" fill="#666" rx="1.323" ry="1.323" style="paint-order:markers stroke fill"/><path d="M8.467 3.704a1.32 1.32 0 0 0-1.323 1.323v3.798a2.65 2.65 0 0 0-1.323 2.288 2.646 2.646 0 1 0 3.969-2.29V5.027a1.32 1.32 0 0 0-1.323-1.323" filter="url(#b)" opacity=".15"/><path fill="#ee6363" d="M8.467 3.436a1.32 1.32 0 0 0-1.323 1.323v3.798a2.65 2.65 0 0 0-1.323 2.288 2.646 2.646 0 1 0 3.969-2.29V4.759a1.32 1.32 0 0 0-1.323-1.323"/><path d="M7.937 6.879v2.405l-.396.229c-.573.33-.925.938-.926 1.6a1.84 1.84 0 0 0 1.852 1.852 1.84 1.84 0 0 0 1.852-1.852 1.85 1.85 0 0 0-.926-1.602l-.397-.229V6.879z" filter="url(#c)" opacity=".15"/><path fill="#f5a3a3" d="M7.937 6.611v2.405l-.396.229c-.573.33-.925.938-.926 1.6a1.84 1.84 0 0 0 1.852 1.852 1.84 1.84 0 0 0 1.852-1.852 1.85 1.85 0 0 0-.926-1.602l-.397-.229V6.611z"/><path d="M11.377 4.233h2.117v.53h-2.117zm0 1.06h2.117v.528h-2.117zm0 1.057h2.117v.53h-2.117zm0 1.058h2.117v.53h-2.117zm0 1.06h2.117v.528h-2.117z" filter="url(#d)" opacity=".15" paint-order="stroke fill markers"/><path fill="#999" d="M11.377 3.97h2.117v.529h-2.117zm0 1.059h2.117v.529h-2.117z" paint-order="stroke fill markers"/><circle cx="3.704" cy="3.7" r=".529" opacity=".5" paint-order="stroke fill markers"/><circle cx="3.704" cy="3.7" r=".265" fill="#f55" paint-order="stroke fill markers"/><path fill="#ccc" d="M11.377 6.087h2.117v.529h-2.117zm0 1.058h2.117v.529h-2.117zm0 1.059h2.117v.529h-2.117z" paint-order="stroke fill markers"/><path fill="#fff" d="M9 4C6.23 4 4 6.23 4 9v1c0-2.77 2.23-5 5-5h46c2.77 0 5 2.23 5 5V9c0-2.77-2.23-5-5-5z" opacity=".15" style="paint-order:markers stroke fill" transform="scale(.26458)"/></svg>