<svg width="512" height="512" enable-background="new" version="1.0" xmlns="http://www.w3.org/2000/svg" xmlns:osb="http://www.openswatchbook.org/uri/2009/osb" xmlns:xlink="http://www.w3.org/1999/xlink">
 <defs>
  <linearGradient id="a">
   <stop offset="0"/>
   <stop stop-opacity="0" offset="1"/>
  </linearGradient>
  <filter id="d" x="-.026546" y="-.0219" width="1.0531" height="1.0438" color-interpolation-filters="sRGB">
   <feGaussianBlur stdDeviation="4.0862495"/>
  </filter>
  <filter id="c" x="-.021194" y="-.027662" width="1.0424" height="1.0553" color-interpolation-filters="sRGB">
   <feGaussianBlur stdDeviation="2.967614"/>
  </filter>
  <linearGradient id="g" x1="568.83" x2="468.05" y1="-162.25" y2="-68.684" gradientUnits="userSpaceOnUse" xlink:href="#a"/>
  <linearGradient id="f" x1="568.83" x2="419.05" y1="-162.25" y2="-12.755" gradientUnits="userSpaceOnUse" xlink:href="#a"/>
  <filter id="b" x="-.016785" y="-.042092" width="1.0336" height="1.0842" color-interpolation-filters="sRGB">
   <feGaussianBlur stdDeviation="2.1937001"/>
  </filter>
  <filter id="i" x="-.12" y="-.12" width="1.24" height="1.24" color-interpolation-filters="sRGB">
   <feGaussianBlur stdDeviation="1.5999953"/>
  </filter>
  <clipPath id="j">
   <ellipse cx="420" cy="-4" rx="68" ry="64" opacity=".2"/>
  </clipPath>
  <linearGradient id="e" x1="431" x2="408" y1="91.879" y2="-22.121" gradientUnits="userSpaceOnUse" xlink:href="#a"/>
  <filter id="h" x="-.11647" y="-.12375" width="1.2329" height="1.2475" color-interpolation-filters="sRGB">
   <feGaussianBlur stdDeviation="6.6"/>
  </filter>
 </defs>
 <g transform="translate(0,212)">
  <g>
   <g transform="translate(-208,16)">
    <g>
     <g>
      <path d="m545.39 128.92c-34.046 36.685-119.31 51.664-171.05 35.326 55.975 67.17 159.1 89.689 225.18 89.537 40.901 2.5624 87.186-17.644 88.478-60.129v-0.2016c0-32.094-26.017-58.111-56.557-56.772s-71.03-5.8656-86.055-7.7613z" color="#000000" enable-background="accumulate" filter="url(#b)" opacity=".1"/>
      <path d="m545.39 128.92c-34.046 36.685-119.31 51.664-171.05 35.326 55.975 67.17 159.1 89.689 225.18 89.537 40.901 2.5624 87.186-17.644 88.478-60.129v-0.2016c0-32.094-26.017-58.111-56.557-56.772s-71.03-5.8656-86.055-7.7613z" color="#000000" enable-background="accumulate" filter="url(#b)" opacity=".2"/>
      <path d="m545.39 126.92c-34.046 36.685-119.31 51.664-171.05 35.326 55.975 67.17 159.1 89.689 225.18 89.537 40.901 2.5624 87.186-17.644 88.478-60.129v-0.2016c0-32.094-26.017-58.111-56.557-56.772s-71.03-5.8656-86.055-7.7613z" color="#000000" enable-background="accumulate" fill="#40dc80"/>
     </g>
     <path d="m424.72-192c-99.763 0.112-181.42 79.407-184.44 179.12h-0.28128v268.69h112v-95.906c21.692 13.555 51.051 17.307 72.719 17.531 102.02 8e-4 184.72-82.701 184.72-184.72 8e-4 -102.02-82.701-184.72-184.72-184.72zm-5.5938 123.16c37.086 0.0075 35.149 30.07 35.156 67.156 0.01 37.099 33.942 35.18-3.1563 35.188-37.111 0.0098-67.197 1.9232-67.188-35.188 8e-3 -37.099-1.911-67.166 35.188-67.156z" filter="url(#d)" opacity=".2"/>
     <path transform="translate(0,-244)" d="m545.39 370.92c-34.046 36.685-119.31 51.664-171.05 35.326 0.75716 0.90859 1.5266 1.805 2.3008 2.6973 51.926 15.195 135.2 0.1232 168.75-36.023 15.025 1.8957 55.516 9.1009 86.057 7.7617 30.167-1.3228 55.902 24.05 56.527 55.602 9e-3 -0.21031 0.0229-0.41749 0.0293-0.6289v-0.20118c0-32.094-26.016-58.111-56.557-56.771s-71.031-5.866-86.057-7.7617z" color="#000000" enable-background="accumulate" fill="#fff" opacity=".2"/>
     <path d="m424.72-192c-99.763 0.112-181.42 79.407-184.44 179.12h-0.28128v268.69h112v-95.906c21.692 13.555 51.051 17.307 72.719 17.531 102.02 8e-4 184.72-82.701 184.72-184.72 8e-4 -102.02-82.701-184.72-184.72-184.72zm-5.5938 123.16c37.086 0.0075 35.149 30.07 35.156 67.156 0.01 37.099 33.942 35.18-3.1563 35.188-37.111 0.0098-67.197 1.9232-67.188-35.188 8e-3 -37.099-1.911-67.166 35.188-67.156z" filter="url(#d)" opacity=".1"/>
     <path d="m424.72-196c-99.763 0.112-181.42 79.407-184.44 179.12h-0.28128v268.69h112v-95.906c21.692 13.555 51.051 17.307 72.719 17.531 102.02 8e-4 184.72-82.701 184.72-184.72 8e-4 -102.02-82.701-184.72-184.72-184.72zm-5.5938 123.16c37.086 0.0075 35.149 30.07 35.156 67.156 0.01 37.099 33.942 35.18-3.1563 35.188-37.111 0.0098-67.197 1.9232-67.188-35.188 8e-3 -37.099-1.911-67.166 35.188-67.156z" fill="#f4873c"/>
     <path transform="translate(0,-244)" d="m424.72 48c-99.763 0.112-181.42 79.407-184.44 179.12h-0.28125v2h0.28125c3.0203-99.718 84.674-179.01 184.44-179.12 101.68-7.97e-4 184.17 82.162 184.71 183.72 2e-3 -0.33393 0.0137-0.66565 0.0137-1 7.7e-4 -102.02-82.701-184.72-184.72-184.72z" fill="#fff" opacity=".2"/>
     <g>
      <path d="m589.03-193.95c-52.081 0.9328-97.688 13.282-134.8 37.521-41.176 26.894-67.576 64.506-88.816 106.26-7.1216 14.002-13.466 30.777-13.469 46.485 0 37.097 30.073 67.17 67.17 67.17 36.184-0.032 64.663-25.697 67.06-64.896 1.7515-28.643 13.22-45.445 31.617-57.462 21.034-13.738 52.13-22.336 104.43-17.252 1.2352 0.1632 2.4803 0.3088 3.7389 0.3936 0.3344 0.016 0.6688 0.096 1.0048 0.112 0.9728 0.048 1.9448 0.112 2.9299 0.112 22.728 0 42.292-13.084 51.842-32.098-8.9299 3.9603-18.808 6.2754-29.256 6.2754-19.904 0-37.854-8.1005-50.749-20.991 10.678 3.0888 21.969 4.8323 33.607 4.8323 18.776 0 36.533-4.301 52.455-12.004 0.096-1.3696 0.1968-2.7387 0.1968-4.1325v-0.1968c-8.9149-54.039-45.756-59.581-88.467-60.129-3.5293-0.048-7.0232-0.064-10.495 0z" color="#000000" enable-background="accumulate" fill="url(#g)" filter="url(#c)" opacity=".1"/>
      <path d="m589.03-193.95c-52.081 0.9328-97.688 13.282-134.8 37.521-41.176 26.894-67.576 64.506-88.816 106.26-7.1216 14.002-13.466 30.777-13.469 46.485 0 37.097 30.073 67.17 67.17 67.17 36.184-0.032 66.663-19.697 69.06-58.896 1.7515-28.643 13.22-47.445 31.617-59.462 21.034-13.738 50.13-26.336 102.43-21.252 1.2352 0.1632 2.4803 0.3088 3.7389 0.3936 0.3344 0.016 0.6688 0.096 1.0048 0.112 0.9728 0.048 1.9448 0.112 2.9299 0.112 22.728 0 42.292-13.084 51.842-32.098-8.9299 3.9603-18.808 6.2754-29.256 6.2754-19.904 0-37.854-8.1005-50.749-20.991 10.678 3.0888 21.969 4.8323 33.607 4.8323 18.776 0 36.533-4.301 52.455-12.004 0.096-1.3696 0.1968-2.7387 0.1968-4.1325v-0.1968c-8.9149-54.039-45.756-59.581-88.467-60.129-3.5293-0.048-7.0232-0.064-10.495 0z" color="#000000" enable-background="accumulate" fill="url(#f)" filter="url(#c)" opacity=".2"/>
      <path d="m589.03-195.95c-52.081 0.9328-97.688 13.282-134.8 37.521-41.176 26.894-67.576 64.506-88.816 106.26-7.1216 14.002-13.466 30.777-13.469 46.485 0 37.097 30.073 67.17 67.17 67.17 36.184-0.032 64.663-25.697 67.06-64.896 1.7515-28.643 13.22-45.445 31.617-57.462 21.034-13.738 52.13-22.336 104.43-17.252 1.2352 0.1632 2.4803 0.3088 3.7389 0.3936 0.3344 0.016 0.6688 0.096 1.0048 0.112 0.9728 0.048 1.9448 0.112 2.9299 0.112 22.728 0 42.292-13.084 51.842-32.098-8.9299 3.9603-18.808 6.2754-29.256 6.2754-19.904 0-37.854-8.1005-50.749-20.991 10.678 3.0888 21.969 4.8323 33.607 4.8323 18.776 0 36.533-4.301 52.455-12.004 0.096-1.3696 0.1968-2.7387 0.1968-4.1325v-0.1968c-8.9149-54.039-45.756-59.581-88.467-60.129-3.5293-0.048-7.0232-0.064-10.495 0z" color="#000000" enable-background="accumulate" fill="#40dc80"/>
      <path d="m624-178c8.8167 0 15.972 7.1832 16 16 0 8.8364-7.1635 16-16 16-8.8364 0-16-7.1635-16-16 0-8.8366 7.1635-16 16-16z" color="#000000" enable-background="accumulate" filter="url(#i)" opacity=".2"/>
     </g>
    </g>
    <g fill="#fff">
     <path d="m624-180c8.8167 0 15.972 7.1832 16 16 0 8.8364-7.1635 16-16 16-8.8364 0-16-7.1635-16-16 0-8.8366 7.1635-16 16-16z" color="#000000" enable-background="accumulate"/>
     <path transform="translate(0,-244)" d="m594.26 48.014c-1.7487-2e-3 -3.4905 0.01097-5.2266 0.04297l2e-3 -0.0059c-52.081 0.9328-97.69 13.281-134.8 37.52-41.176 26.894-67.576 64.506-88.816 106.27-7.1216 14.002-13.466 30.778-13.469 46.486 0 0.33356 0.0205 0.66172 0.0254 0.99414 0.26441-15.417 6.4732-31.777 13.443-45.48 21.24-41.759 47.64-79.372 88.816-106.27 37.111-24.239 82.72-36.587 134.8-37.52l-2e-3 0.0059c3.4722-0.064 6.9668-0.048 10.496 0 42.64 0.54726 79.428 6.0747 88.42 59.865 0.0224-0.51159 0.0469-1.022 0.0469-1.5391v-0.19726c-8.9149-54.039-45.757-59.581-88.467-60.129-1.7646-0.024-3.5209-0.04097-5.2695-0.04297zm7.4766 73.672c12.895 12.89 30.846 20.992 50.75 20.992 9.9149 0 19.306-2.1039 27.871-5.7012 0.47989-0.84702 0.9464-1.7015 1.3848-2.5742-8.9299 3.9603-18.808 6.2754-29.256 6.2754-18.408 0-35.137-6.9389-47.75-18.178-1.0031-0.2636-2.0072-0.52728-3-0.81445z" color="#000000" enable-background="accumulate" opacity=".2"/>
     <path transform="translate(0,-244)" d="m351.97 239.32c-6e-3 0.33489-0.0253 0.67189-0.0254 1.0059 0 37.097 30.073 67.17 67.17 67.17 36.074-0.0319 64.484-25.545 67.031-64.543h-0.16601c-3.3754 37.865-31.413 62.512-66.865 62.543-36.763 0-66.61-29.539-67.145-66.176z" color="#000000" enable-background="accumulate" opacity=".2"/>
    </g>
    <path transform="translate(0 2.1213)" d="m488-4c0 35.346-30.445 64-68 64s-68-28.654-68-64-20.555-71 17-71 119 35.654 119 71z" clip-path="url(#j)" fill="none" filter="url(#h)" opacity=".3" stroke="url(#e)" stroke-linecap="round" stroke-linejoin="round" stroke-width="8"/>
   </g>
  </g>
 </g>
</svg>
