<svg xmlns="http://www.w3.org/2000/svg" xmlns:xlink="http://www.w3.org/1999/xlink" width="512" height="512" enable-background="new" version="1.0"><defs><filter id="c" width="1.053" height="1.044" x="-.027" y="-.022" color-interpolation-filters="sRGB"><feGaussianBlur stdDeviation="4.086"/></filter><filter id="f" width="1.042" height="1.055" x="-.021" y="-.028" color-interpolation-filters="sRGB"><feGaussianBlur stdDeviation="2.968"/></filter><filter id="b" width="1.034" height="1.084" x="-.017" y="-.042" color-interpolation-filters="sRGB"><feGaussianBlur stdDeviation="2.194"/></filter><filter id="i" width="1.24" height="1.24" x="-.12" y="-.12" color-interpolation-filters="sRGB"><feGaussianBlur stdDeviation="1.6"/></filter><filter id="k" width="1.233" height="1.248" x="-.116" y="-.124" color-interpolation-filters="sRGB"><feGaussianBlur stdDeviation="6.6"/></filter><linearGradient id="a"><stop offset="0"/><stop offset="1" stop-opacity="0"/></linearGradient><linearGradient xlink:href="#a" id="e" x1="568.83" x2="468.05" y1="-162.25" y2="-68.684" gradientUnits="userSpaceOnUse"/><linearGradient xlink:href="#a" id="h" x1="568.83" x2="419.05" y1="-162.25" y2="-12.755" gradientUnits="userSpaceOnUse"/><linearGradient xlink:href="#a" id="l" x1="431" x2="408" y1="91.879" y2="-22.121" gradientUnits="userSpaceOnUse"/><clipPath id="j"><ellipse cx="420" cy="-4" opacity=".2" rx="68" ry="64"/></clipPath></defs><g color="#000"><path d="M545.39 128.92c-34.046 36.685-119.31 51.664-171.05 35.326 55.975 67.17 159.1 89.689 225.18 89.537 40.901 2.562 87.186-17.644 88.478-60.129v-.202c0-32.094-26.017-58.11-56.557-56.772s-71.03-5.865-86.055-7.76z" enable-background="accumulate" filter="url(#b)" opacity=".1" transform="translate(-208 228)"/><path d="M545.39 128.92c-34.046 36.685-119.31 51.664-171.05 35.326 55.975 67.17 159.1 89.689 225.18 89.537 40.901 2.562 87.186-17.644 88.478-60.129v-.202c0-32.094-26.017-58.11-56.557-56.772s-71.03-5.865-86.055-7.76z" enable-background="accumulate" filter="url(#b)" opacity=".2" transform="translate(-208 228)"/><path fill="#40dc80" d="M337.39 354.92c-34.046 36.685-119.31 51.664-171.05 35.326 55.975 67.17 159.1 89.689 225.18 89.537 40.901 2.562 87.186-17.644 88.478-60.129v-.202c0-32.094-26.017-58.11-56.557-56.772s-71.03-5.865-86.055-7.76z" enable-background="accumulate"/></g><path d="M424.72-192c-99.763.112-181.42 79.407-184.44 179.12h-.281v268.69h112v-95.906c21.692 13.555 51.05 17.307 72.719 17.531 102.02 0 184.72-82.701 184.72-184.72s-82.701-184.72-184.72-184.72zm-5.594 123.16c37.086.008 35.15 30.07 35.156 67.156.01 37.099 33.942 35.18-3.156 35.188-37.111.01-67.197 1.923-67.188-35.188.008-37.099-1.911-67.166 35.188-67.156z" filter="url(#c)" opacity=".2" transform="translate(-208 228)"/><path fill="#fff" d="M337.39 354.92c-34.046 36.685-119.31 51.664-171.05 35.326.757.909 1.527 1.805 2.3 2.697 51.927 15.195 135.2.124 168.75-36.023 15.026 1.896 55.517 9.101 86.058 7.762 30.167-1.323 55.902 24.05 56.527 55.602.009-.21.023-.417.03-.629v-.201c0-32.094-26.017-58.111-56.558-56.771s-71.03-5.866-86.057-7.762z" color="#000" enable-background="accumulate" opacity=".2"/><path d="M424.72-192c-99.763.112-181.42 79.407-184.44 179.12h-.281v268.69h112v-95.906c21.692 13.555 51.05 17.307 72.719 17.531 102.02 0 184.72-82.701 184.72-184.72s-82.701-184.72-184.72-184.72zm-5.594 123.16c37.086.008 35.15 30.07 35.156 67.156.01 37.099 33.942 35.18-3.156 35.188-37.111.01-67.197 1.923-67.188-35.188.008-37.099-1.911-67.166 35.188-67.156z" filter="url(#c)" opacity=".1" transform="translate(-208 228)"/><path fill="#f4873c" d="M216.72 32c-99.763.112-181.42 79.407-184.44 179.12h-.281v268.69h112v-95.906c21.692 13.555 51.05 17.307 72.719 17.531 102.02 0 184.72-82.701 184.72-184.72s-82.701-184.72-184.72-184.72zm-5.594 123.16c37.086.008 35.15 30.07 35.156 67.156.01 37.099 33.942 35.18-3.156 35.188-37.111.01-67.197 1.923-67.188-35.188.008-37.099-1.911-67.166 35.188-67.156z"/><path fill="#fff" d="M216.72 32c-99.763.112-181.42 79.407-184.44 179.12h-.281v2h.281C35.3 113.402 116.954 34.11 216.72 34c101.68 0 184.17 82.162 184.71 183.72.002-.334.014-.666.014-1C401.444 114.7 318.743 32 216.724 32z" opacity=".2"/><g color="#000"><path fill="url(#e)" d="M589.03-193.95c-52.081.933-97.688 13.282-134.8 37.521-41.176 26.894-67.576 64.506-88.816 106.26-7.122 14.002-13.466 30.777-13.469 46.485 0 37.097 30.073 67.17 67.17 67.17 36.184-.032 64.663-25.697 67.06-64.896 1.752-28.643 13.22-45.445 31.617-57.462 21.034-13.738 52.13-22.336 104.43-17.252a59 59 0 0 0 3.739.394c.334.016.669.096 1.005.112.972.048 1.944.112 2.93.112 22.728 0 42.292-13.084 51.842-32.098-8.93 3.96-18.808 6.275-29.256 6.275-19.904 0-37.854-8.1-50.75-20.991 10.679 3.089 21.97 4.832 33.608 4.832 18.776 0 36.533-4.3 52.455-12.004.096-1.37.196-2.738.196-4.132v-.197c-8.914-54.039-45.756-59.581-88.467-60.129-3.529-.048-7.023-.064-10.495 0z" enable-background="accumulate" filter="url(#f)" opacity=".1" transform="translate(-208 228)"/><path fill="url(#h)" d="M589.03-193.95c-52.081.933-97.688 13.282-134.8 37.521-41.176 26.894-67.576 64.506-88.816 106.26-7.122 14.002-13.466 30.777-13.469 46.485 0 37.097 30.073 67.17 67.17 67.17 36.184-.032 66.663-19.697 69.06-58.896 1.752-28.643 13.22-47.445 31.617-59.462 21.034-13.738 50.13-26.336 102.43-21.252a59 59 0 0 0 3.739.394c.334.016.669.096 1.005.112.972.048 1.944.112 2.93.112 22.728 0 42.292-13.084 51.842-32.098-8.93 3.96-18.808 6.275-29.256 6.275-19.904 0-37.854-8.1-50.75-20.991 10.679 3.089 21.97 4.832 33.608 4.832 18.776 0 36.533-4.3 52.455-12.004.096-1.37.196-2.738.196-4.132v-.197c-8.914-54.039-45.756-59.581-88.467-60.129-3.529-.048-7.023-.064-10.495 0z" enable-background="accumulate" filter="url(#f)" opacity=".2" transform="translate(-208 228)"/><path fill="#40dc80" d="M381.03 32.05c-52.081.933-97.688 13.282-134.8 37.521-41.176 26.894-67.576 64.506-88.816 106.26-7.122 14.002-13.466 30.777-13.469 46.485 0 37.097 30.073 67.17 67.17 67.17 36.184-.032 64.663-25.697 67.06-64.896 1.751-28.643 13.22-45.445 31.617-57.462 21.034-13.738 52.13-22.336 104.43-17.252a59 59 0 0 0 3.739.394c.334.016.669.096 1.005.112.972.048 1.944.112 2.93.112 22.728 0 42.292-13.084 51.842-32.098-8.93 3.96-18.808 6.275-29.256 6.275-19.904 0-37.854-8.1-50.75-20.991 10.679 3.089 21.97 4.832 33.608 4.832 18.776 0 36.533-4.3 52.455-12.004.096-1.37.196-2.738.196-4.132v-.197c-8.915-54.039-45.756-59.581-88.467-60.129-3.529-.048-7.023-.064-10.495 0z" enable-background="accumulate"/><path d="M624-178c8.817 0 15.972 7.183 16 16 0 8.836-7.163 16-16 16s-16-7.163-16-16 7.164-16 16-16" enable-background="accumulate" filter="url(#i)" opacity=".2" transform="translate(-208 228)"/></g><g fill="#fff" color="#000"><path d="M416 48c8.817 0 15.972 7.183 16 16 0 8.836-7.163 16-16 16s-16-7.163-16-16 7.164-16 16-16" enable-background="accumulate"/><path d="M386.26 32.014q-2.623-.004-5.227.043l.002-.006c-52.08.933-97.69 13.281-134.8 37.52-41.176 26.894-67.576 64.506-88.816 106.27-7.121 14.002-13.466 30.778-13.469 46.486 0 .334.02.662.026.994.264-15.417 6.473-31.777 13.443-45.48 21.24-41.759 47.64-79.372 88.816-106.27 37.11-24.239 82.72-36.587 134.8-37.52l-.002.006a328 328 0 0 1 10.496 0c42.64.547 79.428 6.075 88.42 59.865.022-.511.047-1.022.047-1.539v-.197c-8.915-54.04-45.757-59.581-88.467-60.13-1.765-.023-3.521-.04-5.27-.042zm7.477 73.672c12.895 12.89 30.846 20.992 50.75 20.992 9.914 0 19.306-2.104 27.87-5.701.48-.847.947-1.702 1.385-2.574-8.93 3.96-18.808 6.275-29.256 6.275-18.408 0-35.137-6.939-47.75-18.178-1.003-.264-2.007-.527-3-.814z" enable-background="accumulate" opacity=".2"/><path d="M143.97 223.32c-.006.335-.025.672-.025 1.006 0 37.097 30.073 67.17 67.17 67.17 36.074-.032 64.484-25.545 67.03-64.543h-.165c-3.376 37.865-31.413 62.512-66.865 62.543-36.763 0-66.61-29.54-67.145-66.176z" enable-background="accumulate" opacity=".2"/></g><path fill="none" stroke="url(#l)" stroke-linecap="round" stroke-linejoin="round" stroke-width="8" d="M488-4c0 35.346-30.445 64-68 64s-68-28.654-68-64-20.555-71 17-71S488-39.346 488-4" clip-path="url(#j)" filter="url(#k)" opacity=".3" transform="translate(-208 230.121)"/></svg>