<svg xmlns="http://www.w3.org/2000/svg" width="512" height="512" enable-background="new" version="1.0"><defs><filter id="a" width="1.048" height="1.048" x="-.024" y="-.024" color-interpolation-filters="sRGB"><feGaussianBlur stdDeviation="4.48"/></filter><filter id="c" width="1.12" height="1.12" x="-.06" y="-.06" color-interpolation-filters="sRGB"><feGaussianBlur stdDeviation="8.4"/></filter><filter id="f" width="1.24" height="1.24" x="-.12" y="-.12" color-interpolation-filters="sRGB"><feGaussianBlur stdDeviation="2"/></filter><filter id="g" width="1.24" height="1.24" x="-.12" y="-.12" color-interpolation-filters="sRGB"><feGaussianBlur stdDeviation="2"/></filter><clipPath id="b"><path fill="#3776ab" d="M448-196c-53.184 0-96 27.589-96 61.857V-84h-48c-35.456 0-64 35.68-64 80v64c0 44.32 28.544 80 64 80h272v-274.14c0-34.269-42.816-61.857-96-61.857z"/></clipPath></defs><g transform="translate(-208 228)"><path stroke="#000" stroke-linecap="round" stroke-linejoin="round" stroke-width="8" d="M448-192c-53.184 0-96 27.589-96 61.857V-80h-48c-35.456 0-64 35.68-64 80v64c0 44.32 28.544 80 64 80h48v50.143C352 228.412 394.816 256 448 256h32c53.184 0 96-27.589 96-61.857V144h48c35.456 0 64-35.68 64-80V0c0-44.32-28.544-80-64-80h-48v-50.143C576-164.412 533.184-192 480-192z" filter="url(#a)" opacity=".1"/><path d="M448-192c-53.184 0-96 27.589-96 61.857V-80h-48c-35.456 0-64 35.68-64 80v64c0 44.32 28.544 80 64 80h48v50.143C352 228.412 394.816 256 448 256h32c53.184 0 96-27.589 96-61.857V144h48c35.456 0 64-35.68 64-80V0c0-44.32-28.544-80-64-80h-48v-50.143C576-164.412 533.184-192 480-192z" filter="url(#a)" opacity=".2"/><path fill="#3776ab" d="M448-196c-53.184 0-96 27.589-96 61.857V-84h-48c-35.456 0-64 35.68-64 80v64c0 44.32 28.544 80 64 80h272v-274.14c0-34.269-42.816-61.857-96-61.857z"/><path d="M480 252c53.184 0 96-27.589 96-61.857V140h48c35.456 0 64-35.68 64-80V-4c0-44.32-28.544-80-64-80h-48v48c0 64-64 64-64 64h-96c-64 0-64 64-64 64v98.143C352 224.412 394.816 252 448 252z" clip-path="url(#b)" filter="url(#c)" opacity=".2"/><path fill="#ffd343" d="M480 252c53.184 0 96-27.589 96-61.857V140h48c35.456 0 64-35.68 64-80V-4c0-44.32-28.544-80-64-80h-48v48c0 64-64 64-64 64h-96c-64 0-64 64-64 64v98.143C352 224.412 394.816 252 448 252z"/><path fill="#fff" d="M576-84v2h48c35.456 0 64 35.68 64 80v-2c0-44.32-28.544-80-64-80zm0 48c0 64-64 64-64 64h-96c-64 0-64 64-64 64v2s0-64 64-64h96s64 0 64-64z" opacity=".2"/><circle cx="416" cy="-128" r="20" color="#000" enable-background="accumulate" filter="url(#f)" opacity=".2"/><path fill="#fff" d="M448-196c-53.184 0-96 27.589-96 61.857v2C352-166.412 394.816-194 448-194h32c53.184 0 96 27.589 96 61.857v-2C576-168.412 533.184-196 480-196zM304-84c-35.456 0-64 35.68-64 80v2c0-44.32 28.544-80 64-80h48v-2z" opacity=".2"/><g color="#000"><circle cx="416" cy="-132" r="20" fill="#fff" enable-background="accumulate"/><circle cx="-512" cy="-192" r="20" enable-background="accumulate" filter="url(#g)" opacity=".2" transform="scale(-1)"/><circle cx="-512" cy="-188" r="20" fill="#fff" enable-background="accumulate" transform="scale(-1)"/></g><path d="M352-86h64v2h-64z" opacity=".1"/><path fill="#fff" d="M352-84h64v2h-64z" opacity=".2"/><path d="M512 138h64v2h-64z" opacity=".1"/><path fill="#fff" d="M512 140h64v2h-64z" opacity=".2"/><path d="M352 140v-2h-48c-35.456 0-64-35.68-64-80v2c0 44.32 28.544 80 64 80zm0-48c0-64 64-64 64-64h96c64 0 64-64 64-64v-2s0 64-64 64h-96s-64 0-64 64zM480 252c53.184 0 96-27.589 96-61.857v-2C576 222.412 533.184 250 480 250h-32c-53.184 0-96-27.589-96-61.857v2C352 224.412 394.816 252 448 252zm144-112c35.456 0 64-35.68 64-80v-2c0 44.32-28.544 80-64 80h-48v2z" opacity=".1"/></g></svg>