<svg xmlns="http://www.w3.org/2000/svg" width="512" height="512" enable-background="new" version="1.0"><defs><filter id="a" width="1.048" height="1.048" x="-.024" y="-.024" color-interpolation-filters="sRGB"><feGaussianBlur stdDeviation="4.8"/></filter></defs><g transform="translate(-208 228)"><circle cx="464" cy="30" r="240" opacity=".2"/><circle cx="464" cy="32" r="240" filter="url(#a)" opacity=".1"/><circle cx="464" cy="32" r="240" filter="url(#a)" opacity=".2"/><circle cx="464" cy="28" r="240" fill="#0277bd"/><path fill="#fff" d="M464-212A240 240 0 0 0 224 28l.041 1.172A240 240 0 0 1 464-210 240 240 0 0 1 703.959 28.828L704 28a240 240 0 0 0-240-240" opacity=".2"/><path fill="#81d4fa" d="M416-52v208h-24l40 64 40-64h-24V-52z"/><ellipse cx="376" cy="28" fill="none" stroke="#81d4fa" stroke-linecap="square" stroke-width="32" rx="56" ry="64"/><path fill="#b3e5fc" d="M512 108v-208h24l-40-64-40 64h24v208z"/><ellipse cx="-552" cy="-28" fill="none" stroke="#b3e5fc" stroke-linecap="square" stroke-width="32" rx="56" ry="64" transform="scale(-1)"/></g></svg>