<svg width="512" height="512" enable-background="new" version="1.0" xmlns="http://www.w3.org/2000/svg" xmlns:osb="http://www.openswatchbook.org/uri/2009/osb" xmlns:xlink="http://www.w3.org/1999/xlink">
 <defs>
  <filter id="a" x="-.024" y="-.024" width="1.048" height="1.048" color-interpolation-filters="sRGB">
   <feGaussianBlur stdDeviation="4.8"/>
  </filter>
 </defs>
 <g transform="translate(0,212)">
  <g>
   <g transform="translate(-208,16)">
    <g>
     <circle cx="464" cy="30" r="240" opacity=".2"/>
     <circle cx="464" cy="32" r="240" filter="url(#a)" opacity=".1"/>
     <circle cx="464" cy="32" r="240" filter="url(#a)" opacity=".2"/>
    </g>
    <g>
     <circle cx="464" cy="28" r="240" fill="#0277bd"/>
     <path transform="translate(0,-244)" d="m 464,32 a 240,240 0 0 0 -240,240 240,240 0 0 0 0.041,1.17188 A 240,240 0 0 1 464,34 240,240 0 0 1 703.95898,272.82812 240,240 0 0 0 704,272 240,240 0 0 0 464,32 Z" fill="#fff" opacity=".2"/>
     <path d="m416-52v208h-24l40 64 40-64h-24v-208z" fill="#81d4fa"/>
    </g>
    <ellipse cx="376" cy="28" rx="56" ry="64" fill="none" stroke="#81d4fa" stroke-linecap="square" stroke-width="32"/>
    <path d="m512 108v-208h24l-40-64-40 64h24v208z" fill="#b3e5fc"/>
    <ellipse transform="scale(-1)" cx="-552" cy="-28" rx="56" ry="64" fill="none" stroke="#b3e5fc" stroke-linecap="square" stroke-width="32"/>
   </g>
  </g>
 </g>
</svg>
