<svg width="64" height="64" enable-background="new 0 0 48 48" version="1.1" viewBox="0 0 64 64" xmlns="http://www.w3.org/2000/svg">
 <defs>
  <linearGradient id="linearGradient892" x1="23.876" x2="23.876" y1="16.35" y2="31.354" gradientTransform="translate(.23142 -.0045468)" gradientUnits="userSpaceOnUse">
   <stop stop-color="#f62f09" offset="0"/>
   <stop stop-color="#ff0034" offset="1"/>
  </linearGradient>
  <filter id="filter1017" x="-.065004" y="-.055712" width="1.13" height="1.1114" color-interpolation-filters="sRGB">
   <feGaussianBlur stdDeviation="1.2070841"/>
  </filter>
 </defs>
 <path d="m32 6.9805c-9.6027 0-17.334 7.7313-17.334 17.334v4.0254c-1.1027 0.27927-2.2985 2.9014-1.8125 4.7168-1.3269 2.4615-2.7642 6.3278-3.0801 11.922 0 0-0.79914 10.586 3.5977 0.04102l1.2949-3.4902v0.11719c0 5.384 2.4339 10.177 6.2617 13.352a15.167 4.5139 0 0 0-4.0938 3.0801 15.167 4.5139 0 0 0 0.32227 0.90234h29.703a15.167 4.5139 0 0 0 0.30664-0.90235 15.167 4.5139 0 0 0-4.0957-3.0781c3.8291-3.1744 6.2637-7.9685 6.2637-13.354v-0.11719l1.2949 3.4902c4.3968 10.545 3.5977-0.04102 3.5977-0.04102-0.31449-5.569-1.7405-9.4293-3.0625-11.893 0.47337-1.9177-0.88829-5.2704-1.8301-4.627v-4.1445c0-9.6027-7.7313-17.334-17.334-17.334z" filter="url(#filter1017)" opacity=".25" stroke-width="1.0833"/>
 <g transform="matrix(1.0833 0 0 1.0833 -2.6666 -.5)">
  <path d="m32 49a14 4.1667 0 0 0-14 4.1667 14 4.1667 0 0 0 0.29896 0.83333h27.418a14 4.1667 0 0 0 0.28255-0.83333 14 4.1667 0 0 0-14-4.1667z" fill="#fcc431"/>
  <g transform="translate(.1845)" fill="#1c1c1c" stroke-width="1.0226">
   <path d="m47.262 26.929s4.5027 4.0967 5.0702 14.146c0 0 0.73778 9.7723-3.3208 0.03828l-3.0114-8.1133z"/>
   <path d="m16.369 26.929s-4.5027 4.0967-5.0702 14.146c0 0-0.73778 9.7723 3.3208 0.03828l3.0114-8.1133z"/>
  </g>
  <rect x="16" y="6" width="32" height="48" ry="16" fill="#1c1c1c"/>
  <path d="m19 33.434v6.5664c0 7.202 5.798 13 13 13s13-5.798 13-13v-6.0645a31.542 21.644 0 0 1-12.203 1.709 31.542 21.644 0 0 1-13.797-2.2109z" fill="#fff"/>
  <g transform="matrix(1.1747,0,0,1.1747,3.131,-1.3313)">
   <path d="m16.6 27.523s-2.0359 8.0209 0.96615 9.6168c0 0 1.5155 1.043 3.7542 0.49811 0 0 1.949-0.40116 1.6102-3.3006 0 0-0.29084-3.8099 0.039-5.5092z" fill="#d4001b" stroke-width="1.1143"/>
  </g>
  <g transform="matrix(1.1779 .015993 -.011052 .81398 3.8623 11.658)">
   <path d="m37.482 16.884c-2.448 5.1287-7.2208 8.1376-13.251 8.1376-5.885 0-10.571-2.6118-13.09-7.541-1.07-2.0938-3.067 3.7267-1.664 6.0139 2.815 4.59 8.109 7.7368 14.213 7.8523 6.681 0.12524 12.484-3.4167 15.17-8.6244 0.991-1.9211-0.56317-7.5454-1.3782-5.8383z" fill="url(#linearGradient892)" stroke-width="1.1027"/>
  </g>
  <g transform="matrix(.79618 0 0 .79618 -69.815 6.3181)">
   <ellipse cx="127.88" cy="24.638" rx="11.079" ry="3.3859" fill="#242424" opacity=".41" stroke-width="1.2307"/>
   <g transform="matrix(1.2308 0 0 1.2308 98.129 .039389)">
    <ellipse cx="20.264" cy="12.583" rx="2.649" ry="4.161" fill="#fdfdfd"/>
   </g>
   <g transform="matrix(1.2308 0 0 1.2308 98.129 .039389)">
    <ellipse cx="27.55" cy="12.583" rx="2.649" ry="4.161" fill="#fdfdfd"/>
   </g>
   <ellipse cx="123.88" cy="15.364" rx="1.3871" ry="2.0615" stroke-width="1.2307"/>
   <path d="m131.14 14.417c0.60553 0 1.1175 0.57477 1.3071 1.376 0.0246 0.10462 0.08 0.10831 0.08-0.0037 0-1.1385-0.62153-2.0615-1.3871-2.0615s-1.3871 0.92304-1.3871 2.0615c0 0.112 0.0529 0.1157 0.0776 0.01477 0.18707-0.80616 0.70153-1.3871 1.3095-1.3871z" stroke-width="1.2307"/>
   <g transform="matrix(1.2308 0 0 1.2308 98.129 .039389)">
    <ellipse cx="21.26" cy="12.431" rx=".462" ry=".633" fill="#fefefe"/>
   </g>
   <g transform="matrix(1.2308 0 0 1.2308 98.129 .039389)" opacity=".6">
    <ellipse transform="matrix(.9988 -.0483 .0483 .9988 -.6089 1.0283)" cx="20.954" cy="13.103" rx=".272" ry=".285" fill="#fefefe"/>
   </g>
   <g transform="matrix(1.2308 0 0 1.2308 98.129 .039389)">
    <path transform="matrix(.73126 0 0 .73126 .77199 2.568)" d="m32 20.027c-6.9319 0-12.553 2.5531-12.553 3.6348 0 0.80091 2.1194 1.9787 5.3418 2.7754-1.3028-1.1338-2.0488-2.1674-2.0781-2.1406l0.17187-2e-3c0.88383 0.80548 8.2874 8.2451 18.195-0.17578l0.14453-2e-3c-0.91166 1.0028-1.8 1.8236-2.668 2.5039 3.5855-0.75652 5.998-2.0003 5.998-2.959 0-1.3415-5.6209-3.6348-12.553-3.6348z" fill="#fcc431" stroke-width="1.3675"/>
   </g>
  </g>
 </g>
</svg>
