<svg xmlns="http://www.w3.org/2000/svg" width="512" height="512" enable-background="new" version="1.0"><defs><filter id="a" width="1.043" height="1.054" x="-.022" y="-.027" color-interpolation-filters="sRGB"><feGaussianBlur stdDeviation="4.32"/></filter><filter id="b" width="1.12" height="1.12" x="-.06" y="-.06" color-interpolation-filters="sRGB"><feGaussianBlur stdDeviation="6"/></filter><filter id="d" width="1.048" height="1.048" x="-.024" y="-.024" color-interpolation-filters="sRGB"><feGaussianBlur stdDeviation="2.4"/></filter></defs><g transform="translate(-211.2 1505.8)"><path d="M288-1440h416v320l-64 64H224v-320z" enable-background="new" filter="url(#a)" opacity=".1"/><path d="M288-1440h416v320l-64 64H224v-320z" enable-background="new" filter="url(#a)" opacity=".2"/><path d="M288-1442h416v320l-64 64H224v-320z" enable-background="new" opacity=".2"/><path fill="#26d03a" d="M288-1444h416v320l-64 64H224v-320z" enable-background="new"/><path fill="#fff" d="M404.39-1366.1c-63.396 0-82.638 37.914-82.638 105.75 0 68.728 18.946 103.68 82.638 103.68 6.517 0 14.23-.595 18.081-1.78l26.355 43.25 30.521-14.218-24.88-39.981c23.699-15.701 32.286-45.038 32.286-90.956 0-68.136-18.968-105.75-82.363-105.75zm123.62 15.102v42.961h-18.964v27.556h18.964v68.723c0 42.659 10.368 55.097 43.843 55.097 10.368 0 30.217-3.848 30.217-3.848l-1.49-25.776s-15.992.896-24.287.896c-15.405 0-16.288-7.71-16.288-29.928v-65.165h40.878v-27.556h-40.878v-42.96zm-123.62 13.626c39.104 0 48.298 26.665 48.298 77.026 0 51.842-8.898 74.957-48.298 74.957s-48.573-24.004-48.573-74.957c0-50.361 9.47-77.026 48.573-77.026"/><path fill="#fff" d="m288-1444-64 64v2l64-64h416v-2z" enable-background="new" opacity=".2"/><circle cx="592" cy="-1126" r="120" enable-background="new" filter="url(#b)" opacity=".2"/><circle cx="592" cy="-1130" r="120" enable-background="new" filter="url(#d)" opacity=".2"/><circle cx="592" cy="-1132" r="120" fill="#435ece" enable-background="new"/><path fill="#fff" stroke="#fff" stroke-width="4" d="M602-1062h-20v-20h20zm20.7-77.5-9 9.2c-7.2 7.3-11.7 13.3-11.7 28.3h-20v-5c0-11 4.5-21 11.7-28.3l12.4-12.6c3.7-3.6 5.9-8.6 5.9-14.1 0-11-9-20-20-20s-20 9-20 20h-20c0-22.1 17.9-40 40-40s40 17.9 40 40c0 8.8-3.6 16.8-9.3 22.5z" enable-background="new"/></g></svg>