<svg xmlns="http://www.w3.org/2000/svg" width="512" height="512" enable-background="new" version="1.0"><defs><filter id="a" width="1.043" height="1.054" x="-.022" y="-.027" color-interpolation-filters="sRGB"><feGaussianBlur stdDeviation="4.32"/></filter></defs><path d="M288-160h416v320l-64 64H224V-96z" enable-background="new" filter="url(#a)" opacity=".1" transform="translate(-208 228)"/><path d="M288-160h416v320l-64 64H224V-96z" enable-background="new" filter="url(#a)" opacity=".2" transform="translate(-208 228)"/><path d="M80 66h416v320l-64 64H16V130z" enable-background="new" opacity=".2"/><path fill="#26d03a" d="M80 64h416v320l-64 64H16V128z" enable-background="new"/><path fill="#fff" d="M196.39 141.938c-63.396 0-82.638 37.914-82.638 105.75 0 68.728 18.946 103.68 82.638 103.68 6.517 0 14.23-.595 18.081-1.779l26.355 43.25 30.521-14.219-24.88-39.981c23.699-15.701 32.286-45.038 32.286-90.956 0-68.136-18.968-105.75-82.363-105.75zm123.62 15.102v42.961h-18.964v27.556h18.964v68.723c0 42.659 10.368 55.097 43.843 55.097 10.368 0 30.217-3.848 30.217-3.848l-1.49-25.776s-15.992.896-24.287.896c-15.405 0-16.288-7.71-16.288-29.928v-65.165h40.878V200h-40.878v-42.96zm-123.62 13.626c39.104 0 48.298 26.665 48.298 77.026 0 51.842-8.898 74.957-48.298 74.957s-48.573-24.004-48.573-74.957c0-50.361 9.47-77.026 48.573-77.026"/><path fill="#fff" d="m80 64-64 64v2l64-64h416v-2z" enable-background="new" opacity=".2"/></svg>