<svg xmlns="http://www.w3.org/2000/svg" width="512" height="512" enable-background="new" version="1.0"><defs><filter id="b" width="1.264" height="1.22" x="-.132" y="-.11" color-interpolation-filters="sRGB"><feGaussianBlur stdDeviation=".88"/></filter><filter id="a" width="1.054" height="1.043" x="-.027" y="-.021" color-interpolation-filters="sRGB"><feGaussianBlur stdDeviation="4"/></filter></defs><path d="M464-192c-70.912 0-128 57.088-128 128v48h-25.6C297.99-16 288-6.01 288 6.4v227.2c0 12.41 9.99 22.4 22.4 22.4h307.2c12.41 0 22.4-9.99 22.4-22.4V6.4c0-12.41-9.99-22.4-22.4-22.4H592v-48c0-70.912-57.088-128-128-128" filter="url(#a)" opacity=".1" transform="translate(-208 228)"/><path d="M464-192c-70.912 0-128 57.088-128 128v48h-25.6C297.99-16 288-6.01 288 6.4v227.2c0 12.41 9.99 22.4 22.4 22.4h307.2c12.41 0 22.4-9.99 22.4-22.4V6.4c0-12.41-9.99-22.4-22.4-22.4H592v-48c0-70.912-57.088-128-128-128" filter="url(#a)" opacity=".2" transform="translate(-208 228)"/><path d="M256 34c-70.912 0-128 57.088-128 128v48h-25.6c-12.41 0-22.4 9.99-22.4 22.4v227.2c0 12.41 9.99 22.4 22.4 22.4h307.2c12.41 0 22.4-9.99 22.4-22.4V232.4c0-12.41-9.99-22.4-22.4-22.4H384v-48c0-70.912-57.088-128-128-128" opacity=".2"/><path fill="#ff9800" d="M256 32c-70.912 0-128 57.088-128 128v48h-25.6c-12.41 0-22.4 9.99-22.4 22.4v227.2c0 12.41 9.99 22.4 22.4 22.4h307.2c12.41 0 22.4-9.99 22.4-22.4V230.4c0-12.41-9.99-22.4-22.4-22.4H384v-48c0-70.912-57.088-128-128-128"/><g filter="url(#b)" opacity=".2" transform="matrix(10 0 0 10 -1424 -2346)"><circle cx="168" cy="252" r="8" opacity="1"/><path fill-rule="evenodd" d="M168 256v7.2c5.183-1.966 8-5.6 8-11.2"/></g><g fill="#fff" transform="matrix(10 0 0 10 -1424 -2360)"><circle cx="168" cy="252" r="8"/><path fill-rule="evenodd" d="M168 256v7.2c5.183-1.966 8-5.6 8-11.2"/></g><path d="M464 312c-22.091 0-40 17.909-40 40s17.909 40 40 40 40-17.909 40-40-17.909-40-40-40m0 96c-72 0-72 44-72 44v12h144v-12s0-44-72-44" color="#000" enable-background="accumulate" opacity=".4" style="text-decoration-line:none;text-indent:0;text-transform:none" transform="rotate(.405 -8326370 -634736)"/><path fill="#fff" d="M256 32c-70.912 0-128 57.088-128 128v2c0-70.912 57.088-128 128-128s128 57.088 128 128v-2c0-70.912-57.088-128-128-128M102.4 208c-12.41 0-22.4 9.99-22.4 22.4v2c0-12.41 9.99-22.4 22.4-22.4H128v-2zm281.6 0v2h25.6c12.41 0 22.4 9.99 22.4 22.4v-2c0-12.41-9.99-22.4-22.4-22.4z" opacity=".2"/></svg>