<svg width="512" height="512" enable-background="new" version="1.0" xmlns="http://www.w3.org/2000/svg" xmlns:osb="http://www.openswatchbook.org/uri/2009/osb">
 <defs>
  <filter id="b" x="-.132" y="-.11" width="1.264" height="1.22" color-interpolation-filters="sRGB">
   <feGaussianBlur stdDeviation="0.88"/>
  </filter>
  <filter id="a" x="-.027273" y="-.021429" width="1.0545" height="1.0429" color-interpolation-filters="sRGB">
   <feGaussianBlur stdDeviation="4"/>
  </filter>
 </defs>
 <g transform="translate(0,212)">
  <g>
   <g transform="translate(-208,16)">
    <g>
     <path d="m464-192c-70.912 0-128 57.088-128 128v48h-25.6c-12.41 0-22.4 9.9908-22.4 22.4v227.2c0 12.41 9.9908 22.4 22.4 22.4h307.2c12.41 0 22.4-9.9908 22.4-22.4v-227.2c0-12.41-9.9908-22.4-22.4-22.4h-25.6v-48c0-70.912-57.088-128-128-128z" filter="url(#a)" opacity=".1"/>
     <path d="m464-192c-70.912 0-128 57.088-128 128v48h-25.6c-12.41 0-22.4 9.9908-22.4 22.4v227.2c0 12.41 9.9908 22.4 22.4 22.4h307.2c12.41 0 22.4-9.9908 22.4-22.4v-227.2c0-12.41-9.9908-22.4-22.4-22.4h-25.6v-48c0-70.912-57.088-128-128-128z" filter="url(#a)" opacity=".2"/>
     <path d="m464-194c-70.912 0-128 57.088-128 128v48h-25.6c-12.41 0-22.4 9.9908-22.4 22.4v227.2c0 12.41 9.9908 22.4 22.4 22.4h307.2c12.41 0 22.4-9.9908 22.4-22.4v-227.2c0-12.41-9.9908-22.4-22.4-22.4h-25.6v-48c0-70.912-57.088-128-128-128z" opacity=".2"/>
    </g>
    <path transform="translate(0,-244)" d="m464 48c-70.912 0-128 57.088-128 128v48h-25.6c-12.41 0-22.4 9.9908-22.4 22.4v227.2c0 12.41 9.9908 22.4 22.4 22.4h307.2c12.41 0 22.4-9.9908 22.4-22.4v-227.2c0-12.41-9.9908-22.4-22.4-22.4h-25.6v-48c0-70.912-57.088-128-128-128z" fill="#ff9800"/>
    <g transform="matrix(10,0,0,10,-1216,-2574)" filter="url(#b)" opacity=".2">
     <circle cx="168" cy="252" r="8" opacity="1"/>
     <path d="m168 256v7.2c5.1825-1.9656 8-5.6 8-11.2" fill-rule="evenodd"/>
    </g>
    <g transform="matrix(10,0,0,10,-1216,-2588)" fill="#fff">
     <circle cx="168" cy="252" r="8"/>
     <path d="m168 256v7.2c5.1825-1.9656 8-5.6 8-11.2" fill-rule="evenodd"/>
    </g>
    <g transform="matrix(13.333 0 0 13.333 -5036.7 3686.7)" opacity=".4">
     <path transform="matrix(.075 0 0 .075 377.75 -294.8)" d="m464 312c-22.091 0-40 17.909-40 40s17.909 40 40 40 40-17.909 40-40-17.909-40-40-40zm2e-5 96c-72 0-72 44-72 44v12h144v-12s2e-5 -44-72-44z" color="#000000" enable-background="accumulate" style="text-decoration-line:none;text-indent:0;text-transform:none"/>
    </g>
    <path transform="translate(0,-244)" d="m464 48c-70.912 0-128 57.088-128 128v2c0-70.912 57.088-128 128-128s128 57.088 128 128v-2c0-70.912-57.088-128-128-128zm-153.6 176c-12.41 0-22.4 9.9908-22.4 22.4v2c0-12.41 9.9908-22.4 22.4-22.4h25.6v-2zm281.6 0v2h25.6c12.41 0 22.4 9.9908 22.4 22.4v-2c0-12.41-9.9908-22.4-22.4-22.4z" fill="#fff" opacity=".2"/>
   </g>
  </g>
 </g>
</svg>
