<svg width="512" height="512" enable-background="new" version="1.0" xmlns="http://www.w3.org/2000/svg" xmlns:osb="http://www.openswatchbook.org/uri/2009/osb" xmlns:xlink="http://www.w3.org/1999/xlink">
 <defs>
  <filter id="b" x="-.024" y="-.024" width="1.048" height="1.048" color-interpolation-filters="sRGB">
   <feGaussianBlur stdDeviation="4.8000001"/>
  </filter>
  <filter id="a" x="-.024" y="-.024" width="1.048" height="1.048" color-interpolation-filters="sRGB">
   <feGaussianBlur stdDeviation="2.5600003"/>
  </filter>
 </defs>
 <g transform="translate(0,212)">
  <g>
   <g transform="translate(-208 15.24)">
    <g>
     <path d="m464-206a240 240 0 0 0-240 240 240 240 0 0 0 240 240 240 240 0 0 0 240-240 240 240 0 0 0-240-240zm1.6e-4 64a176 176 0 0 1 176 176 176 176 0 0 1-176 176 176 176 0 0 1-176-176 176 176 0 0 1 176-176z" enable-background="new" filter="url(#b)" opacity=".1"/>
     <path d="m464-210a240 240 0 0 0-240 240 240 240 0 0 0 240 240 240 240 0 0 0 240-240 240 240 0 0 0-240-240zm1.6e-4 64a176 176 0 0 1 176 176 176 176 0 0 1-176 176 176 176 0 0 1-176-176 176 176 0 0 1 176-176z" enable-background="new" filter="url(#b)" opacity=".2"/>
     <path d="m464-210a240 240 0 0 0-240 240 240 240 0 0 0 240 240 240 240 0 0 0 240-240 240 240 0 0 0-240-240zm1.6e-4 64a176 176 0 0 1 176 176 176 176 0 0 1-176 176 176 176 0 0 1-176-176 176 176 0 0 1 176-176z" enable-background="new" opacity=".2"/>
    </g>
    <path d="m464-212a240 240 0 0 0-240 240 240 240 0 0 0 240 240 240 240 0 0 0 240-240 240 240 0 0 0-240-240zm1.6e-4 64a176 176 0 0 1 176 176 176 176 0 0 1-176 176 176 176 0 0 1-176-176 176 176 0 0 1 176-176z" enable-background="new" fill="#158fe2"/>
    <path transform="translate(0,-244)" d="m464 32a240 240 0 0 0-238.76 217.79 240 240 0 0 1 238.76-215.79 240 240 0 0 1 239.15 220.95 240 240 0 0 0-239.15-222.95zm-238.81 218.14a240 240 0 0 0-1.1934 21.859 240 240 0 0 0 0.0508 1 240 240 0 0 1 1.1426-22.859zm63.387 10.27a176 176 0 0 0-0.33594 6.7207 176 176 0 0 1 0.33594-6.7207zm415.18 6.7402a240 240 0 0 1 0.20703 5.8496 240 240 0 0 0 0.03516-1 240 240 0 0 0-0.24219-4.8496zm-415.72 5.8496a176 176 0 0 0-0.03516 1 176 176 0 0 0 0.24414 4.8691 176 176 0 0 1-0.20898-5.8691zm351.91 0a176 176 0 0 1-175.95 175 176 176 0 0 1-175.42-162.41 176 176 0 0 0 175.42 164.41 176 176 0 0 0 176-176 176 176 0 0 0-0.0508-1zm63.809 5.8496a240 240 0 0 1-0.61133 12.201 240 240 0 0 0 0.61133-12.201zm-478.56 17.01a240 240 0 0 0 0.043 0.34765 240 240 0 0 1-0.043-0.34765z" enable-background="new" fill="#fff" opacity=".2"/>
    <g>
     <circle cx="504" cy="67.999" r="128" opacity=".2"/>
     <circle cx="504" cy="69.999" r="128" filter="url(#a)" opacity=".2"/>
     <circle cx="504" cy="69.999" r="128" filter="url(#a)" opacity=".1"/>
    </g>
    <circle cx="504" cy="65.999" r="128" fill="#2469b2"/>
    <path d="m504-62a128 128 0 0 0-128 128 128 128 0 0 0 0.041 1.1719 128 128 0 0 1 127.96-127.17 128 128 0 0 1 127.96 126.83 128 128 0 0 0 0.04102-0.82812 128 128 0 0 0-128-128z" fill="#fff" opacity=".2"/>
   </g>
  </g>
 </g>
</svg>
