<svg xmlns="http://www.w3.org/2000/svg" width="512" height="512" enable-background="new" version="1.0"><defs><filter id="a" width="1.048" height="1.048" x="-.024" y="-.024" color-interpolation-filters="sRGB"><feGaussianBlur stdDeviation="4.8"/></filter><filter id="c" width="1.048" height="1.048" x="-.024" y="-.024" color-interpolation-filters="sRGB"><feGaussianBlur stdDeviation="2.56"/></filter></defs><g transform="translate(-208 227.24)"><path d="M464-206A240 240 0 0 0 224 34a240 240 0 0 0 240 240A240 240 0 0 0 704 34a240 240 0 0 0-240-240m0 64A176 176 0 0 1 640 34a176 176 0 0 1-176 176A176 176 0 0 1 288 34a176 176 0 0 1 176-176" enable-background="new" filter="url(#a)" opacity=".1"/><path d="M464-210A240 240 0 0 0 224 30a240 240 0 0 0 240 240A240 240 0 0 0 704 30a240 240 0 0 0-240-240m0 64A176 176 0 0 1 640 30a176 176 0 0 1-176 176A176 176 0 0 1 288 30a176 176 0 0 1 176-176" enable-background="new" filter="url(#a)" opacity=".2"/><path d="M464-210A240 240 0 0 0 224 30a240 240 0 0 0 240 240A240 240 0 0 0 704 30a240 240 0 0 0-240-240m0 64A176 176 0 0 1 640 30a176 176 0 0 1-176 176A176 176 0 0 1 288 30a176 176 0 0 1 176-176" enable-background="new" opacity=".2"/><path fill="#158fe2" d="M464-212A240 240 0 0 0 224 28a240 240 0 0 0 240 240A240 240 0 0 0 704 28a240 240 0 0 0-240-240m0 64A176 176 0 0 1 640 28a176 176 0 0 1-176 176A176 176 0 0 1 288 28a176 176 0 0 1 176-176" enable-background="new"/><path fill="#fff" d="M464-212A240 240 0 0 0 225.24 5.79 240 240 0 0 1 464-210 240 240 0 0 1 703.15 10.95 240 240 0 0 0 464-212M225.19 6.14a240 240 0 0 0-1.193 21.859l.05 1A240 240 0 0 1 225.19 6.14m63.387 10.27a176 176 0 0 0-.336 6.72 176 176 0 0 1 .336-6.72m415.18 6.74a240 240 0 0 1 .207 5.85l.035-1a240 240 0 0 0-.242-4.85M288.037 29l-.035 1a176 176 0 0 0 .244 4.869 176 176 0 0 1-.209-5.87m351.91 0a176 176 0 0 1-175.95 175 176 176 0 0 1-175.42-162.41A176 176 0 0 0 463.997 206a176 176 0 0 0 176-176zm63.809 5.85a240 240 0 0 1-.611 12.2 240 240 0 0 0 .611-12.2m-478.56 17.01.043.347z" enable-background="new" opacity=".2"/><circle cx="504" cy="67.999" r="128" opacity=".2"/><circle cx="504" cy="69.999" r="128" filter="url(#c)" opacity=".2"/><circle cx="504" cy="69.999" r="128" filter="url(#c)" opacity=".1"/><circle cx="504" cy="65.999" r="128" fill="#2469b2"/><path fill="#fff" d="M504-62A128 128 0 0 0 376 66a128 128 0 0 0 .041 1.172 128 128 0 0 1 127.96-127.17 128 128 0 0 1 127.96 126.83l.041-.828a128 128 0 0 0-128-128z" opacity=".2"/></g></svg>