<svg xmlns="http://www.w3.org/2000/svg" width="512" height="512" enable-background="new" version="1.0"><defs><filter id="a" width="1.048" height="1.048" x="-.024" y="-.024" color-interpolation-filters="sRGB"><feGaussianBlur stdDeviation="4.8"/></filter><filter id="c" width="1.048" height="1.048" x="-.024" y="-.024" color-interpolation-filters="sRGB"><feGaussianBlur stdDeviation="4.8"/></filter></defs><g transform="translate(-208 228)"><circle cx="464" cy="32" r="240" filter="url(#a)" opacity=".2"/><circle cx="464" cy="30" r="240" opacity=".2"/><circle cx="464" cy="32" r="240" stroke="#000" stroke-width="8" filter="url(#c)" opacity=".1"/><circle cx="464" cy="28" r="240" fill="#ccc"/><path fill="#fff" d="M464-212A240 240 0 0 0 224 28l.041 1.172A240 240 0 0 1 464-210 240 240 0 0 1 703.959 28.828L704 28a240 240 0 0 0-240-240" opacity=".2"/><path fill="#3f51b5" fill-rule="evenodd" d="M515 46.655s12.279 3.705 19.413 7.315c2.475 1.253 6.758 3.752 9.848 7.034 3.026 3.214 4.501 6.471 4.501 6.471l48.963 88.496-89.214.032-36.55-67.183s-7.49-12.868-12.098-16.6c-3.844-3.112-5.484-4.22-9.285-4.22h-18.584l-.014 87.954h-79.985v-255.95h123.97c44.026 0 102.09 13.172 102.09 73.399s-63.061 73.256-63.061 73.256zm-83.019-98.664v63.988h37.962s26.026 0 27.984-31.31c2.043-32.673-28.002-32.645-28.002-32.645z"/></g></svg>