<svg width="512" height="512" enable-background="new" version="1.0" xmlns="http://www.w3.org/2000/svg" xmlns:osb="http://www.openswatchbook.org/uri/2009/osb">
 <defs>
  <filter id="b" x="-.024" y="-.024" width="1.048" height="1.048" color-interpolation-filters="sRGB">
   <feGaussianBlur stdDeviation="4.8"/>
  </filter>
  <filter id="a" x="-.024" y="-.024" width="1.048" height="1.048" color-interpolation-filters="sRGB">
   <feGaussianBlur stdDeviation="4.8"/>
  </filter>
 </defs>
 <g transform="translate(0,212)">
  <g>
   <g transform="translate(-208,16)">
    <g>
     <circle cx="464" cy="32" r="240" filter="url(#b)" opacity=".2"/>
     <circle cx="464" cy="30" r="240" opacity=".2"/>
     <circle cx="464" cy="32" r="240" filter="url(#a)" opacity=".1" stroke="#000" stroke-width="8"/>
    </g>
    <circle cx="464" cy="28" r="240" fill="#ccc"/>
    <path transform="translate(0,-244)" d="m 464,32 a 240,240 0 0 0 -240,240 240,240 0 0 0 0.041,1.17188 A 240,240 0 0 1 464,34 240,240 0 0 1 703.95898,272.82812 240,240 0 0 0 704,272 240,240 0 0 0 464,32 Z" fill="#fff" opacity=".2"/>
    <path d="m515 46.655s12.279 3.7054 19.413 7.3152c2.4754 1.2526 6.7581 3.7521 9.8475 7.0338 3.0262 3.2141 4.5016 6.4712 4.5016 6.4712l48.963 88.496-89.214 0.032-36.55-67.183s-7.4897-12.868-12.098-16.6c-3.8444-3.1122-5.4836-4.2204-9.2846-4.2204h-18.584l-0.0145 87.954h-79.985v-255.95h123.97c44.026 0 102.09 13.172 102.09 73.399 0 60.228-63.061 73.256-63.061 73.256zm-83.019-98.664v63.988h37.962s26.026 0 27.984-31.31c2.0432-32.673-28.002-32.645-28.002-32.645z" fill="#3f51b5" fill-rule="evenodd"/>
   </g>
  </g>
 </g>
</svg>
