<svg xmlns="http://www.w3.org/2000/svg" width="512" height="512" enable-background="new" version="1.0"><defs><filter id="a" width="1.054" height="1.043" x="-.027" y="-.021" color-interpolation-filters="sRGB"><feGaussianBlur stdDeviation="4"/></filter><filter id="b" width="1.12" height="1.12" x="-.06" y="-.06" color-interpolation-filters="sRGB"><feGaussianBlur stdDeviation="6"/></filter><filter id="d" width="1.048" height="1.048" x="-.024" y="-.024" color-interpolation-filters="sRGB"><feGaussianBlur stdDeviation="2.4"/></filter></defs><g transform="translate(-208 225.3)"><path stroke="#000" stroke-width="8" d="M312-192c-13.296 0-24 10.704-24 24v400c0 13.296 10.704 24 24 24h304c13.296 0 24-10.704 24-24v-400c0-13.296-10.704-24-24-24H464z" filter="url(#a)" opacity=".1" transform="matrix(-1 0 0 1 928 0)"/><path d="M312-192c-13.296 0-24 10.704-24 24v400c0 13.296 10.704 24 24 24h304c13.296 0 24-10.704 24-24v-400c0-13.296-10.704-24-24-24H464z" filter="url(#a)" opacity=".2"/><path fill="#c2352a" d="M312-196c-13.296 0-24 10.704-24 24v400c0 13.296 10.704 24 24 24h304c13.296 0 24-10.704 24-24v-400c0-13.296-10.704-24-24-24H464z"/><path d="M312-196c-13.296 0-24 10.704-24 24v400c0 13.296 10.704 24 24 24h40v-448z" opacity=".2"/><path fill="#fff" d="M312-196c-13.296 0-24 10.704-24 24v2c0-13.296 10.704-24 24-24h304c13.296 0 24 10.704 24 24v-2c0-13.296-10.704-24-24-24H464z" opacity=".2"/><path d="M312 252c-13.296 0-24-10.704-24-24v-2c0 13.296 10.704 24 24 24h304c13.296 0 24-10.704 24-24v2c0 13.296-10.704 24-24 24H464z" opacity=".2"/><circle cx="537" cy="155" r="120" enable-background="new" filter="url(#b)" opacity=".2"/><circle cx="537" cy="151" r="120" enable-background="new" filter="url(#d)" opacity=".2"/><circle cx="537" cy="149" r="120" fill="#fec006" enable-background="new"/><path fill="#fff" d="M477 180.49V209h28.51l64.007-64.007-28.51-28.51zm117.74-60.626c3.016-3.015 3.016-7.767 0-10.783l-17.819-17.819c-3.016-3.016-7.767-3.016-10.783 0l-14.895 14.986 28.51 28.51z" enable-background="new"/></g></svg>