<svg xmlns="http://www.w3.org/2000/svg" width="512" height="512" enable-background="new" version="1.0"><defs><filter id="a" width="1.054" height="1.043" x="-.027" y="-.022" color-interpolation-filters="sRGB"><feGaussianBlur stdDeviation="4.075"/></filter></defs><path d="m464-197.03-30.031 30.031-39.248-16.25-16.25 39.25h-42.469v42.469l-39.25 16.25 16.25 39.248-30.031 30.031 30.031 30.031-16.25 39.248 39.25 16.25v42.469h42.469l16.25 39.25 5.28-2.186v26.934h128V149.06l5.28 2.188 16.25-39.25h42.47V69.528l39.25-16.25L615 14.03l30.029-30.031L615-46.032l16.25-39.248L592-101.53v-42.469h-42.469l-16.25-39.25-39.248 16.25zM400 192a64 64 0 0 0 64 64 64 64 0 0 0 63.998-64z" filter="url(#a)" opacity=".1" transform="translate(-208 228)"/><path d="M256 28.969 225.969 59l-39.248-16.25L170.471 82h-42.469v42.469l-39.25 16.25 16.25 39.248-30.031 30.031 30.031 30.031-16.25 39.248 39.25 16.25v42.469h42.469l16.25 39.25 5.28-2.185v26.934h128v-26.936l5.28 2.187 16.25-39.25h42.47v-42.469l39.25-16.25L407 240.029l30.029-30.031L407 179.967l16.25-39.248-39.25-16.25V82h-42.468l-16.25-39.25L286.034 59zm-64 389.03a64 64 0 0 0 64 64 64 64 0 0 0 63.998-64z" opacity=".2"/><path fill="#ffccbc" d="M256 26.969 225.969 57l-39.248-16.25L170.471 80h-42.469v42.469l-39.25 16.25 16.25 39.248-30.031 30.031 30.031 30.031-16.25 39.248 39.25 16.25v42.469h42.469l16.25 39.25 39.248-16.25L256 389.025l30.031-30.029 39.248 16.25 16.25-39.25h42.469v-42.469l39.25-16.25-16.25-39.248 30.029-30.031-30.029-30.031 16.25-39.248-39.25-16.25V80h-42.469l-16.25-39.25L286.031 57z"/><path fill="gray" d="M192 415.99a64 64 0 0 0 63.999 63.999 64 64 0 0 0 63.999-63.999z"/><path fill="#ff8a65" d="M256 80c-70.691 0-128 57.307-128 128 .048 45.682 24.437 87.876 63.999 110.72V400h128v-81.342c39.542-22.83 63.929-64.995 63.999-110.65 0-70.691-57.307-128-128-128z"/><path fill="#f34235" d="M256 80v319.99h63.999v-81.342c39.542-22.83 63.929-64.995 63.999-110.65 0-70.691-57.307-128-128-128z" opacity=".5"/><path fill="#fff" d="M256 26.969 225.969 57l-39.248-16.25L170.471 80h-42.469v2h42.469l16.25-39.25L225.969 59 256 28.969 286.031 59l39.248-16.25L341.529 82h42.469v-2h-42.469l-16.25-39.25L286.031 57zm-128 95.5-39.25 16.25.707 1.707L128 124.469zm256 0v2l38.543 15.957.707-1.707zm-279.58 56.084-29.445 29.445 1 1 29.031-29.031zm303.17 0-.586 1.414 29.03 29.031 1-1zm-303.17 60.891-15.664 37.834.707.293 15.543-37.541zm303.17 0-.586.586 15.543 37.54.707-.292z" opacity=".4"/><path fill="#fff" d="M192 415.99a64 64 0 0 0 .1 2h127.83a64 64 0 0 0 .07-2z" opacity=".2"/></svg>