<svg width="512" height="512" enable-background="new" version="1.0" xmlns="http://www.w3.org/2000/svg">
 <defs>
  <filter id="a" x="-.027015" y="-.02159" width="1.054" height="1.0432" color-interpolation-filters="sRGB">
   <feGaussianBlur stdDeviation="4.0754102"/>
  </filter>
 </defs>
 <g transform="translate(0,212)">
  <g>
   <g transform="translate(-208,16)">
    <path d="m464-197.03-30.031 30.031-39.248-16.25-16.25 39.25h-42.469v42.469l-39.25 16.25 16.25 39.248-30.031 30.031 30.031 30.031-16.25 39.248 39.25 16.25v42.469h42.469l16.25 39.25 5.2793-2.1855v26.934h128v-26.936l5.2812 2.1875 16.25-39.25h42.469v-42.469l39.25-16.25-16.25-39.248 30.029-30.031-30.029-30.031 16.25-39.248-39.25-16.25v-42.469h-42.469l-16.25-39.25-39.248 16.25zm-64 389.03a63.999 63.999 0 0 0 64 64 63.999 63.999 0 0 0 63.998-64z" filter="url(#a)" opacity=".1"/>
    <path transform="translate(0,-244)" d="m464 44.969-30.031 30.031-39.248-16.25-16.25 39.25h-42.469v42.469l-39.25 16.25 16.25 39.248-30.031 30.031 30.031 30.031-16.25 39.248 39.25 16.25v42.469h42.469l16.25 39.25 5.2793-2.1855v26.934h128v-26.936l5.2812 2.1875 16.25-39.25h42.469v-42.469l39.25-16.25-16.25-39.248 30.029-30.031-30.029-30.031 16.25-39.248-39.25-16.25v-42.469h-42.469l-16.25-39.25-39.248 16.25zm-64 389.03a63.999 63.999 0 0 0 64 64 63.999 63.999 0 0 0 63.998-64z" opacity=".2"/>
    <path transform="translate(0,-244)" d="m464 42.969-30.031 30.031-39.248-16.25-16.25 39.25h-42.469v42.469l-39.25 16.25 16.25 39.248-30.031 30.031 30.031 30.031-16.25 39.248 39.25 16.25v42.469h42.469l16.25 39.25 39.248-16.25 30.031 30.029 30.031-30.029 39.248 16.25 16.25-39.25h42.469v-42.469l39.25-16.25-16.25-39.248 30.029-30.031-30.029-30.031 16.25-39.248-39.25-16.25v-42.469h-42.469l-16.25-39.25-39.248 16.25z" fill="#ffccbc"/>
    <path d="m400 187.99a63.999 63.999 0 0 0 63.999 63.999 63.999 63.999 0 0 0 63.999-63.999z" fill="#808080"/>
    <path d="m464-148c-70.691 0-128 57.307-128 128 0.048 45.682 24.437 87.876 63.999 110.72v81.28h128v-81.342c39.542-22.83 63.929-64.995 63.999-110.65 0-70.691-57.307-128-128-128z" fill="#ff8a65"/>
    <path d="m464-148v319.99h63.999v-81.342c39.542-22.83 63.929-64.995 63.999-110.65 0-70.691-57.307-128-128-128z" fill="#f34235" opacity=".5"/>
    <path transform="translate(0,-244)" d="m464 42.969-30.031 30.031-39.248-16.25-16.25 39.25h-42.469v2h42.469l16.25-39.25 39.248 16.25 30.031-30.031 30.031 30.031 39.248-16.25 16.25 39.25h42.469v-2h-42.469l-16.25-39.25-39.248 16.25zm-128 95.5-39.25 16.25 0.70703 1.707 38.543-15.957zm256 0v2l38.543 15.957 0.70703-1.707zm-279.58 56.084-29.445 29.445 1 1 29.031-29.031zm303.17 0-0.58593 1.4141 29.029 29.031 1-1zm-303.17 60.891-15.664 37.834 0.70703 0.29297 15.543-37.541zm303.17 0-0.58593 0.58594 15.543 37.541 0.70703-0.29297z" fill="#fff" opacity=".4"/>
    <path transform="translate(0,-244)" d="m400 431.99a63.999 63.999 0 0 0 0.0996 2h127.83a63.999 63.999 0 0 0 0.0703-2z" fill="#fff" opacity=".2"/>
   </g>
  </g>
 </g>
</svg>
