<svg width="512" height="512" enable-background="new" version="1.0" xmlns="http://www.w3.org/2000/svg">
 <defs>
  <filter id="a" x="-.024" y="-.024" width="1.048" height="1.048" color-interpolation-filters="sRGB">
   <feGaussianBlur stdDeviation="4.8"/>
  </filter>
 </defs>
 <circle cx="256" cy="258" r="240" opacity=".2"/>
 <circle cx="256" cy="260" r="240" filter="url(#a)" opacity=".1"/>
 <circle cx="256" cy="260" r="240" filter="url(#a)" opacity=".2"/>
 <path d="M 256,16 A 240,240 0 0 0 16,256 240,240 0 0 0 16.041,257.17188 240,240 0 0 1 256,18 240,240 0 0 1 495.95898,256.82812 240,240 0 0 0 496,256 240,240 0 0 0 256,16 Z" fill="#fff" opacity=".2"/>
 <circle cx="256" cy="255.98" r="240" fill="#0089e0" stroke-width="33.595" style="paint-order:stroke markers fill"/>
 <g transform="matrix(.9999 0 0 .9426 18.799 33.545)" fill="#fff" fill-opacity=".9">
  <path d="m383.43 172.5c-25.336-58.241-81.998-95.648-145.86-95.648-65.309 0-125 40.928-148.51 101.83l49.5 19.117c15.672-40.617 55.469-67.894 99.014-67.894 42.02 0 79.197 24.386 96.408 62.332l-36.117 14.428 92.352 53.279 27.01-100.93z"/>
  <path d="m237.57 342.1c-41.639 0-79.615-25.115-96.592-62.819l35.604-13.763-91.387-52.119-27.975 98.249 34.08-13.172c24.852 58.018 82.859 96.671 146.27 96.671 65.551 0 123.6-39.336 147.87-100.2l-49.268-19.652c-16.195 40.577-54.888 66.801-98.603 66.801z"/>
 </g>
</svg>
