<svg xmlns="http://www.w3.org/2000/svg" width="512" height="512" enable-background="new" version="1.0"><defs><filter id="a" width="1.048" height="1.048" x="-.024" y="-.024" color-interpolation-filters="sRGB"><feGaussianBlur stdDeviation="4.8"/></filter></defs><circle cx="256" cy="258" r="240" opacity=".2"/><circle cx="256" cy="260" r="240" filter="url(#a)" opacity=".1"/><circle cx="256" cy="260" r="240" filter="url(#a)" opacity=".2"/><path fill="#fff" d="M256 16A240 240 0 0 0 16 256l.041 1.172A240 240 0 0 1 256 18a240 240 0 0 1 239.959 238.828L496 256A240 240 0 0 0 256 16" opacity=".2"/><circle cx="256" cy="255.98" r="240" fill="#0089e0" style="paint-order:stroke markers fill"/><g fill="#fff" fill-opacity=".9"><path d="M402.19 196.144c-25.333-54.898-81.99-90.158-145.845-90.158-65.302 0-124.987 38.578-148.495 95.985l49.495 18.02c15.67-38.286 55.464-63.998 99.004-63.998 42.016 0 79.19 22.987 96.399 58.755l-36.114 13.6 92.343 50.22 27.007-95.136zM256.345 356.008c-41.635 0-79.607-23.673-96.582-59.213l35.6-12.973-91.378-49.127-27.972 92.61 34.077-12.417c24.85 54.688 82.85 91.123 146.255 91.123 65.545 0 123.588-37.079 147.855-94.449l-49.263-18.524c-16.193 38.248-54.882 62.967-98.593 62.967z"/></g></svg>