<svg xmlns="http://www.w3.org/2000/svg" width="512" height="512" enable-background="new" version="1.0"><defs><filter id="a" width="1.048" height="1.048" x="-.024" y="-.024" color-interpolation-filters="sRGB"><feGaussianBlur stdDeviation="4.8"/></filter></defs><circle cx="256" cy="258" r="240" opacity=".2"/><circle cx="256" cy="260" r="240" filter="url(#a)" opacity=".1"/><circle cx="256" cy="260" r="240" filter="url(#a)" opacity=".2"/><circle cx="256" cy="256" r="240" fill="#f2f2f2"/><path fill="#fff" d="M256 16A240 240 0 0 0 16 256l.041 1.172A240 240 0 0 1 256 18a240 240 0 0 1 239.959 238.828L496 256A240 240 0 0 0 256 16" opacity=".2"/><path fill="#20aa73" d="m162.77 297.532 124.788-83.174-124.789-83.229v50.466l49.091 32.763-49.09 32.71z" class="st1"/><path fill="#3989da" d="M349.253 264.783V214.32l-124.784 83.226 124.784 83.17v-50.463l-49.09-32.707z" class="st2"/><path fill="#20aa73" d="M437.978 155.538 403 178.816a166.4 166.4 0 0 1 19.398 77.125 166.4 166.4 0 0 1-166.4 166.4 166.4 166.4 0 0 1-128.027-60.552l-34.856 23.197c38.13 48.038 96.927 78.954 162.885 78.954 114.686 0 208-93.306 208-208 0-36.414-9.506-70.604-26.02-100.406z"/><path fill="#3989da" d="M256 47.952c-114.694 0-208 93.306-208 208 0 33.849 8.155 65.813 22.567 94.088l35.14-23.38A166.4 166.4 0 0 1 89.6 255.952 166.4 166.4 0 0 1 256 89.552a166.4 166.4 0 0 1 123.293 55.067l35.06-23.319c-38.177-44.837-94.999-73.345-158.36-73.345z"/></svg>