<svg width="512" height="512" enable-background="new" version="1.0" xmlns="http://www.w3.org/2000/svg">
 <defs>
  <filter id="a" x="-.024" y="-.024" width="1.048" height="1.048" color-interpolation-filters="sRGB">
   <feGaussianBlur stdDeviation="4.8"/>
  </filter>
 </defs>
 <circle cx="256" cy="258" r="240" opacity=".2"/>
 <circle cx="256" cy="260" r="240" filter="url(#a)" opacity=".1"/>
 <circle cx="256" cy="260" r="240" filter="url(#a)" opacity=".2"/>
 <circle cx="256" cy="256" r="240" fill="#f2f2f2"/>
 <path d="M 256,16 A 240,240 0 0 0 16,256 240,240 0 0 0 16.041,257.17188 240,240 0 0 1 256,18 240,240 0 0 1 495.95898,256.82812 240,240 0 0 0 496,256 240,240 0 0 0 256,16 Z" fill="#fff" opacity=".2"/>
 <g transform="matrix(7.1724 0 0 7.1724 26.483 -3186.8)">
  <polygon class="st1" transform="matrix(.76645 0 0 .76645 3.1973 449)" points="20.62 48.01 43.32 32.88 20.62 17.74 20.62 26.92 29.55 32.88 20.62 38.83" fill="#20aa73"/>
  <polygon class="st2" transform="matrix(.76642 0 0 .76642 2.5496 452)" points="55.39 38.14 55.39 28.96 32.69 44.1 55.39 59.23 55.39 50.05 46.46 44.1" fill="#3989da"/>
  <path d="m57.372 466-4.8768 3.2455a23.2 23.2 0 0 1 2.7046 10.753 23.2 23.2 0 0 1-23.2 23.2 23.2 23.2 0 0 1-17.85-8.4423l-4.8598 3.2342c5.3163 6.6976 13.514 11.008 22.71 11.008 15.99 0 29-13.009 29-29 0-5.0771-1.3253-9.8439-3.6278-13.999z" fill="#20aa73"/>
  <path d="m32 451c-15.991 0-29 13.009-29 29 0 4.7193 1.1369 9.1759 3.1464 13.118l4.8994-3.2597a23.2 23.2 0 0 1-2.2458-9.8583 23.2 23.2 0 0 1 23.2-23.2 23.2 23.2 0 0 1 17.19 7.6776l4.8881-3.2512c-5.3228-6.2514-13.245-10.226-22.079-10.226z" fill="#3989da"/>
 </g>
</svg>
