<svg xmlns="http://www.w3.org/2000/svg" width="512" height="512" enable-background="new" version="1.0"><defs><filter id="a" width="1.043" height="1.054" x="-.021" y="-.027" color-interpolation-filters="sRGB"><feGaussianBlur stdDeviation="4"/></filter></defs><g transform="translate(-208 2668)"><rect width="352" height="448" x="2234" y="-688" opacity=".2" rx="24" ry="24" transform="scale(1 -1)rotate(90)"/><rect width="352" height="448" x="-208" y="-688" stroke="#000" stroke-width="8" filter="url(#a)" opacity=".1" rx="24" ry="24" transform="matrix(0 -1 -1 0 0 -2440)"/><rect width="352" height="448" x="-208" y="-688" filter="url(#a)" opacity=".2" rx="24" ry="24" transform="matrix(0 -1 -1 0 0 -2440)"/><rect width="352" height="448" x="2236" y="-688" fill="#78909c" rx="24" ry="24" transform="scale(1 -1)rotate(90)"/><path fill="#fff" d="M264-2588c-13.296 0-24 10.704-24 24v2c0-13.296 10.704-24 24-24h400c13.296 0 24 10.704 24 24v-2c0-13.296-10.704-24-24-24z" opacity=".2"/><rect width="384" height="288" x="272" y="-2556" fill="#fff" opacity=".2" rx="0" ry="0"/><path fill="#cfd8dc" d="M240-2200v48c88.65 0 160 71.35 160 160h48c0-114.59-93.409-208-208-208m0 80v48c44.467 0 80 35.533 80 80h48c0-70.408-57.592-128-128-128m0 80v28s0 20 20 20h28c0-26.225-21.775-48-48-48" color="#000" enable-background="accumulate" style="isolation:auto;mix-blend-mode:normal;text-decoration-color:#000;text-decoration-line:none;text-decoration-style:solid;text-indent:0;text-transform:none;white-space:normal" transform="translate(0 -244)"/><path fill="#fff" d="M240-2200v2c113.92 0 206.89 92.326 207.97 206h.025c0-114.59-93.409-208-208-208zm0 80v2c69.74 0 126.9 56.505 127.97 126h.025c0-70.408-57.592-128-128-128zm0 80v2c25.555 0 46.876 20.678 47.949 46h.05c0-26.225-21.774-48-48-48z" color="#000" enable-background="accumulate" opacity=".2" style="isolation:auto;mix-blend-mode:normal;text-decoration-color:#000;text-decoration-line:none;text-decoration-style:solid;text-indent:0;text-transform:none;white-space:normal" transform="translate(0 -244)"/></g></svg>