<svg xmlns="http://www.w3.org/2000/svg" width="512" height="512" enable-background="new" version="1.0"><defs><filter id="a" width="1.048" height="1.048" x="-.024" y="-.024" color-interpolation-filters="sRGB"><feGaussianBlur stdDeviation="4.48"/></filter></defs><g transform="translate(-208 228)"><g transform="scale(1 -1)rotate(90)"><rect width="448" height="448" x="-256" y="-688" filter="url(#a)" opacity=".2" rx="36" ry="36"/><rect width="448" height="448" x="-254" y="-688" opacity=".2" rx="36" ry="36"/><rect width="448" height="448" x="-256" y="-688" stroke="#000" stroke-width="8" filter="url(#a)" opacity=".1" rx="36" ry="36"/></g><rect width="448" height="448" x="-252" y="-688" fill="#f2f2f2" rx="36" ry="36" transform="scale(1 -1)rotate(90)"/><path fill="#fff" d="M276-196c-19.944 0-36 16.056-36 36v2c0-19.944 16.056-36 36-36h376c19.944 0 36 16.056 36 36v-2c0-19.944-16.056-36-36-36z" opacity=".2"/><path fill="none" stroke="#000" stroke-linecap="square" stroke-width="16" d="M368 172v-288h119s85 0 85 80-85 80-85 80H368h68c119 0 102 128 153 128"/><path fill="#f44336" d="M336-132h64v271.53h-64z"/><path fill="#fffde7" fill-rule="evenodd" d="m368 200-32-60.471 8-7.53 8 7.53 8-7.53 8 7.53 8-7.53 8 7.53 8-7.53 8 7.53z"/><path fill-rule="evenodd" d="M353.25 172 368 199.766 382.75 172z"/></g></svg>