<svg xmlns="http://www.w3.org/2000/svg" width="512" height="512" enable-background="new" version="1.0"><defs><filter id="a" width="1.05" height="1.046" x="-.025" y="-.023" color-interpolation-filters="sRGB"><feGaussianBlur stdDeviation="4.32"/></filter></defs><g transform="translate(-208 228)"><path stroke="#000" stroke-width="8" d="M672 232v-400c0-13.296-10.704-24-24-24H280c-13.296 0-24 10.704-24 24v400c0 13.296 10.704 24 24 24h368c13.296 0 24-10.704 24-24z" enable-background="new" filter="url(#a)" opacity=".1"/><path d="M672 232v-400c0-13.296-10.704-24-24-24H280c-13.296 0-24 10.704-24 24v400c0 13.296 10.704 24 24 24h368c13.296 0 24-10.704 24-24" enable-background="new" filter="url(#a)" opacity=".2"/><path fill="#ebebeb" d="M672 228v-400c0-13.296-10.704-24-24-24H280c-13.296 0-24 10.704-24 24v400c0 13.296 10.704 24 24 24h368c13.296 0 24-10.704 24-24" enable-background="new"/><circle cx="-12" cy="-464" r="160" fill="#fff" enable-background="new" opacity=".6" transform="scale(1 -1)rotate(90)"/><circle cx="-14" cy="-464" r="160" fill="#fff" enable-background="new" transform="scale(1 -1)rotate(90)"/><circle cx="12" cy="-464" r="160" fill="#3f3f3f" enable-background="new" transform="rotate(90)"/><circle cx="12" cy="-464" r="128" fill="#fec006" enable-background="new" transform="rotate(90)"/><circle cx="-12" cy="-464" r="64" fill="#3f3f3f" enable-background="new" transform="scale(1 -1)rotate(90)"/><circle cx="16" cy="-464" r="36" fill="#fff" enable-background="new" opacity=".2" transform="scale(1 -1)rotate(90)"/><path fill="#fff" d="M280-196c-13.296 0-24 10.704-24 24v2c0-13.296 10.704-24 24-24h368c13.296 0 24 10.704 24 24v-2c0-13.296-10.704-24-24-24z" enable-background="new" opacity=".4"/><path d="M464 144A128 128 0 0 1 336 16a128 128 0 0 1 .082-2.342 128 128 0 0 0 127.92 126.34 128 128 0 0 0 127.92-125.66 128 128 0 0 1 .082 1.658 128 128 0 0 1-128 128z" enable-background="new" opacity=".2"/><path d="M464-148A160 160 0 0 0 304 12a160 160 0 0 0 .082 1.656 160 160 0 0 1 159.92-157.66 160 160 0 0 1 159.92 158.34 160 160 0 0 0 .082-2.344 160 160 0 0 0-160-160z" enable-background="new" opacity=".2"/><path d="M400.08 9.654a64 64 0 0 0-.082 2.346 64 64 0 0 0 64 64 64 64 0 0 0 64-64 64 64 0 0 0-.082-1.654A64 64 0 0 1 463.998 72 64 64 0 0 1 400.08 9.654z" enable-background="new" opacity=".2"/></g></svg>