<svg xmlns="http://www.w3.org/2000/svg" width="512" height="512" enable-background="new" version="1.0"><defs><filter id="a" width="1.048" height="1.048" x="-.024" y="-.024" color-interpolation-filters="sRGB"><feGaussianBlur stdDeviation="4.8"/></filter></defs><g transform="translate(-208 228)"><circle cx="464" cy="30" r="240" opacity=".2"/><circle cx="464" cy="32" r="240" filter="url(#a)" opacity=".1"/><circle cx="464" cy="32" r="240" filter="url(#a)" opacity=".2"/><circle cx="464" cy="28" r="240" fill="#2196f3"/><path fill="#fff" d="M464-212c-132.55 0-240 107.45-240 240q.019.585.041 1.172c.456-132.21 107.75-239.15 239.96-239.17 132.08.02 239.31 106.75 239.96 238.83l.041-.828c0-132.55-107.45-240-240-240z" opacity=".2"/><path fill="#fff" d="M368-86.266v22.121l.805.16c10.435 2.087 21.69 2.661 31.195 2.613v169.41h-32v24h88v-24h-32v-76h32.459l64 100h39.54v-24h-24.468l-53.24-80.875C505.5 21.827 517.106 9.61 522.697-2.43c5.682-12.236 5.302-24.263 5.302-28.53 0-6.028-1.894-19.494-10.81-31.69s-24.916-22.983-52.677-23.373l-1.013-.013v.027c-1.486-.006-2.99 0-4.534.05l.034-.001c-36.148 0-60.031 7.958-89.742.035zm91 22.301c19.817 0 30.455 5.41 36.23 12.389S502-35.869 502-28.965s-1.002 17.172-7.303 25.654S476.787 12.035 455 12.035h-31v-74.498c10.54-.725 21.807-1.502 35-1.502z" color="#000" enable-background="accumulate" style="isolation:auto;mix-blend-mode:normal;text-decoration-color:#000;text-decoration-line:none;text-decoration-style:solid;text-indent:0;text-transform:none;white-space:normal"/></g></svg>