<svg width="512" height="512" enable-background="new" version="1.0" xmlns="http://www.w3.org/2000/svg" xmlns:osb="http://www.openswatchbook.org/uri/2009/osb">
 <defs>
  <filter id="a" x="-.024" y="-.024" width="1.048" height="1.048" color-interpolation-filters="sRGB">
   <feGaussianBlur stdDeviation="4.8"/>
  </filter>
 </defs>
 <g transform="translate(0,212)">
  <g>
   <g transform="translate(-208,16)">
    <g>
     <circle cx="464" cy="30" r="240" opacity=".2"/>
     <circle cx="464" cy="32" r="240" filter="url(#a)" opacity=".1"/>
     <circle cx="464" cy="32" r="240" filter="url(#a)" opacity=".2"/>
    </g>
    <circle cx="464" cy="28" r="240" fill="#2196f3"/>
    <path transform="translate(0,-244)" d="m464 32c-132.55 0-240 107.45-240 240 0.0127 0.39066 0.0264 0.78129 0.041 1.1719 0.45621-132.21 107.75-239.15 239.96-239.17 132.08 0.021 239.31 106.75 239.96 238.83 0.01415-0.27602 0.02782-0.55206 0.04102-0.82812 0-132.55-107.45-240-240-240z" fill="#fff" opacity=".2"/>
    <path d="m368-86.266v22.121l0.80469 0.16016c10.435 2.0869 21.691 2.6611 31.195 2.6133v169.41h-32v24h33 22 33v-24h-32v-76h32.459l64 100h14.541 25v-24h-24.469l-53.24-80.875c23.21-5.3363 34.815-17.553 40.406-29.594 5.6824-12.236 5.3027-24.263 5.3027-28.531 0-6.027-1.8942-19.493-10.811-31.689-8.9163-12.196-24.915-22.983-52.676-23.373l-1.0137-0.01367v0.02734c-1.4861-0.0059-2.9902-5.68e-4 -4.5332 0.05078l0.0332-2e-3c-36.148 0-60.031 7.9582-89.742 0.03516zm91 22.301c19.817 0 30.455 5.4098 36.23 12.389s6.7695 15.707 6.7695 22.611-1.0018 17.172-7.3027 25.654c-6.3009 8.482-17.909 15.346-39.697 15.346h-31v-74.498c10.541-0.72541 21.807-1.502 35-1.502z" color="#000000" color-rendering="auto" enable-background="accumulate" fill="#fff" image-rendering="auto" shape-rendering="auto" solid-color="#000000" style="isolation:auto;mix-blend-mode:normal;text-decoration-color:#000000;text-decoration-line:none;text-decoration-style:solid;text-indent:0;text-transform:none;white-space:normal"/>
   </g>
  </g>
 </g>
</svg>
