<svg width="64" height="64" version="1.1" viewBox="0 0 64 64" xmlns="http://www.w3.org/2000/svg">
 <defs>
  <filter id="filter5250" x="-.075" y="-.075" width="1.15" height="1.15" color-interpolation-filters="sRGB">
   <feGaussianBlur stdDeviation="1.7499829"/>
  </filter>
 </defs>
 <path d="m8.8698 5.0008 14.183 6.574e-4 1.6434 1.2167 0.87698-1.2167 29.558-6.574e-4c2.6977-6e-5 4.8695 2.1718 4.8695 4.8695l-5.96e-4 14.509-1.2168 1.3172 1.2168 1.2032 5.96e-4 29.231c5.5e-5 2.6977-2.1718 4.8695-4.8695 4.8695l-14.552-4.26e-4 -1.274-1.217-1.2487 1.217-29.186 4.26e-4c-2.6977 3.9e-5 -4.8695-2.1718-4.8695-4.8695l9.74e-5 -14.226 1.2173-1.6003-1.2173-0.92006-9.74e-5 -29.514c-8.9e-6 -2.6977 2.1718-4.8695 4.8695-4.8695z" fill="#000000" filter="url(#filter5250)" opacity=".25" stroke-width="1.2174"/>
 <path d="m8.8698 4.0003 14.183 6.574e-4 1.6434 1.2167 0.87698-1.2167 29.558-6.574e-4c2.6977-6e-5 4.8695 2.1718 4.8695 4.8695l-5.96e-4 14.509-1.2168 1.3172 1.2168 1.2032 5.96e-4 29.231c5.5e-5 2.6977-2.1718 4.8695-4.8695 4.8695l-14.552-4.26e-4 -1.274-1.217-1.2487 1.217-29.186 4.26e-4c-2.6977 3.9e-5 -4.8695-2.1718-4.8695-4.8695l9.74e-5 -14.226 1.2173-1.6003-1.2173-0.92006-9.74e-5 -29.514c-8.9e-6 -2.6977 2.1718-4.8695 4.8695-4.8695z" fill="#b03b3b" stroke-width="1.2174"/>
 <path d="m23.096 4.0002 4.2418 15.831c0.27032 1.0089 0.42672 1.5626-0.75373 2.9698-0.20047 0.23896-0.39823 0.47916-0.554 0.74898-0.6231 1.0793-0.83546 2.396-0.48743 3.695 0.69606 2.5978 3.3679 4.139 5.9656 3.4429 2.5978-0.6961 4.139-3.3679 3.4429-5.9656-0.34802-1.2988-1.1891-2.3324-2.2683-2.9554-0.26982-0.15578-0.56049-0.26421-0.85359-0.37092-1.7259-0.62835-1.8697-1.1858-2.1399-2.1946l-4.073-15.2h-2.5203zm36.904 20.313-14.654 3.9256c-1.0089 0.27032-1.5626 0.42672-2.9698-0.75373-0.23896-0.20047-0.47916-0.39823-0.74898-0.554-1.0793-0.62312-2.396-0.83545-3.695-0.48743-2.5978 0.69606-4.139 3.3679-3.4429 5.9656 0.69606 2.5978 3.3656 4.139 5.9632 3.4429 1.2988-0.34802 2.3347-1.1891 2.9579-2.2683 0.15578-0.26982 0.26421-0.56049 0.37092-0.85359 0.62835-1.7259 1.1858-1.8697 2.1946-2.1399l14.024-3.7567v-2.5203zm-35.204 5.7541c-0.32298 0.01939-0.65014 0.0723-0.97485 0.15931-1.2988 0.34802-2.3324 1.1891-2.9554 2.2683-0.15578 0.26982-0.26421 0.56051-0.37092 0.85359-0.62835 1.7259-1.1858 1.8672-2.1946 2.1376l-14.299 3.8328v2.5203l14.93-4.0016c1.0089-0.27032 1.5626-0.42433 2.9698 0.7561 0.23896 0.20047 0.47916 0.39584 0.74897 0.55162 1.0793 0.6231 2.396 0.83545 3.695 0.48742 2.5978-0.69606 4.139-3.3656 3.4429-5.9632-0.60906-2.273-2.7299-3.738-4.9908-3.6022zm8.9449 5.1644c-0.32298 0.01939-0.64777 0.0723-0.97248 0.15931-2.5978 0.69606-4.139 3.3656-3.4429 5.9632 0.34802 1.2988 1.1891 2.3347 2.2683 2.9579 0.26982 0.15578 0.5605 0.26421 0.85359 0.37092 1.7259 0.62835 1.8672 1.1858 2.1376 2.1946l3.5166 13.122h2.5203l-3.6854-13.753c-0.27032-1.0089-0.42433-1.5626 0.7561-2.9698 0.20047-0.23896 0.39584-0.47916 0.55162-0.74897 0.6231-1.0793 0.83545-2.396 0.48743-3.695-0.60905-2.273-2.7299-3.738-4.9908-3.6022z" opacity=".1" stroke-width="1.2174" style="paint-order:normal"/>
 <path d="m23.052 4.0005 4.0111 14.97c0.27032 1.0089 0.42433 1.5626-0.7561 2.9698-0.20047 0.23896-0.39584 0.47916-0.55162 0.74897-0.6231 1.0793-0.83545 2.3937-0.48743 3.6926 0.69606 2.5978 3.3679 4.1413 5.9656 3.4453 2.5978-0.69606 4.139-3.3679 3.4429-5.9656-0.34802-1.2988-1.1914-2.3324-2.2707-2.9554-0.26982-0.15578-0.55812-0.26421-0.85122-0.37092-1.7259-0.62835-1.8697-1.1858-2.1399-2.1946l-3.8423-14.34h-2.5203zm36.947 19.378-14.93 3.9993c-1.0089 0.27032-1.5603 0.42672-2.9674-0.75373-0.23896-0.20047-0.47916-0.39823-0.74897-0.554-1.0793-0.6231-2.396-0.83545-3.695-0.48743-2.5978 0.69606-4.139 3.3679-3.4429 5.9656 0.69606 2.5978 3.3656 4.139 5.9632 3.4429 1.2988-0.34802 2.3324-1.1891 2.9554-2.2683 0.15578-0.26982 0.26658-0.56051 0.3733-0.85359 0.62835-1.7259 1.1834-1.8697 2.1923-2.1399l14.299-3.8305v-2.5203zm-35.478 5.8277c-0.32298 0.01939-0.65014 0.0723-0.97485 0.15931-1.2988 0.34802-2.3324 1.1891-2.9554 2.2683-0.15578 0.26982-0.26658 0.56049-0.3733 0.85359-0.62835 1.7259-1.1834 1.8672-2.1923 2.1376l-14.025 3.7591v2.5203l14.656-3.928c1.0089-0.27032 1.5626-0.42433 2.9698 0.7561 0.23896 0.20047 0.47679 0.39584 0.74659 0.55162 1.0793 0.62312 2.396 0.83545 3.695 0.48743 2.5978-0.69606 4.139-3.3656 3.4429-5.9632-0.60906-2.273-2.7275-3.738-4.9885-3.6022zm8.9449 5.1644c-0.32298 0.01939-0.64777 0.0723-0.97248 0.15931-2.5978 0.69606-4.1413 3.3656-3.4453 5.9632 0.34802 1.2988 1.1914 2.3347 2.2707 2.9579 0.26982 0.15578 0.56049 0.26421 0.85359 0.37092 1.7259 0.62835 1.8672 1.1858 2.1376 2.1946l3.7449 13.983h2.5228l-3.9161-14.613c-0.27032-1.0089-0.42433-1.5626 0.7561-2.9698 0.20047-0.23896 0.39584-0.47916 0.55162-0.74898 0.6231-1.0793 0.83546-2.396 0.48743-3.695-0.60906-2.273-2.7299-3.738-4.9908-3.6022z" fill="#f9f9f9" stroke-width="1.2174" style="paint-order:normal"/>
 <path d="m8.8691 4c-2.6977 0-4.8691 2.1714-4.8691 4.8691v1c-8.9e-6 -2.6977 2.1714-4.8691 4.8691-4.8691h14.184l1.6426 1.2168 0.87695-1.2168h29.559c2.6977-6e-5 4.8691 2.1714 4.8691 4.8691v-1c0-2.6977-2.1714-4.8692-4.8691-4.8691h-29.559l-0.87695 1.2168-1.6426-1.2168h-14.184zm50.396 21.172-0.48242 0.52344 1.2168 1.2031v-1l-0.73438-0.72656zm-54.531 14.768-0.73438 0.96484v1l1.2168-1.5996-0.48242-0.36524z" fill="#ffffff" opacity=".1" stroke-width="1.2174"/>
</svg>
