<svg xmlns="http://www.w3.org/2000/svg" width="64" height="64"><defs><filter id="a" width="1.15" height="1.15" x="-.075" y="-.075" color-interpolation-filters="sRGB"><feGaussianBlur stdDeviation="1.75"/></filter></defs><path d="m8.87 5 14.183.001 1.643 1.217.877-1.217h29.558a4.86 4.86 0 0 1 4.87 4.87v14.508l-1.218 1.317L60 26.9v29.23A4.86 4.86 0 0 1 55.132 61H40.58l-1.274-1.217L38.056 61H8.87a4.86 4.86 0 0 1-4.869-4.87V41.906l1.217-1.6-1.217-.92V9.87A4.86 4.86 0 0 1 8.871 5z" filter="url(#a)" opacity=".25"/><path fill="#b03b3b" d="m8.87 4 14.183.001 1.643 1.217L25.573 4h29.558a4.86 4.86 0 0 1 4.87 4.869v14.509l-1.218 1.317L60 25.899V55.13A4.86 4.86 0 0 1 55.132 60H40.58l-1.274-1.218L38.056 60H8.87a4.86 4.86 0 0 1-4.869-4.869V40.904l1.217-1.6-1.217-.92V8.87A4.86 4.86 0 0 1 8.871 4z"/><path d="m23.096 4 4.242 15.831c.27 1.01.427 1.563-.754 2.97-.2.239-.398.48-.554.749a4.871 4.871 0 1 0 6.653-1.783 5.3 5.3 0 0 0-.854-.371c-1.726-.628-1.87-1.186-2.14-2.195l-4.073-15.2h-2.52zM60 24.313 45.346 28.24c-1.009.27-1.563.427-2.97-.754-.239-.2-.479-.398-.749-.554a4.871 4.871 0 1 0 1.783 6.653c.156-.27.265-.56.371-.854.629-1.726 1.186-1.87 2.195-2.14L60 26.834zm-35.204 5.754q-.486.03-.975.16a4.85 4.85 0 0 0-2.955 2.268 5.3 5.3 0 0 0-.371.854c-.629 1.725-1.186 1.867-2.195 2.137L4.001 39.32v2.52l14.93-4.001c1.01-.27 1.563-.425 2.97.756.239.2.48.396.749.551a4.869 4.869 0 0 0 7.138-5.476 4.87 4.87 0 0 0-4.99-3.602zm8.945 5.165q-.485.03-.973.159a4.869 4.869 0 0 0-1.174 8.921c.27.156.56.264.853.371 1.726.628 1.868 1.186 2.138 2.195L38.102 60h2.52l-3.685-13.753c-.27-1.01-.425-1.563.756-2.97.2-.24.395-.48.551-.75a4.872 4.872 0 0 0-4.503-7.297z" opacity=".1" style="paint-order:normal"/><path fill="#f9f9f9" d="m23.052 4 4.011 14.97c.27 1.01.424 1.563-.756 2.97-.2.24-.396.48-.552.75a4.85 4.85 0 0 0-.487 3.692 4.871 4.871 0 1 0 7.138-5.476 5.3 5.3 0 0 0-.851-.37c-1.726-.63-1.87-1.187-2.14-2.195L25.572 4zM59.999 23.38l-14.93 3.999c-1.009.27-1.56.427-2.967-.754a5.3 5.3 0 0 0-.75-.554 4.871 4.871 0 1 0-1.175 8.921 4.85 4.85 0 0 0 2.956-2.268c.156-.27.267-.56.374-.854.628-1.726 1.183-1.87 2.192-2.14l14.299-3.83v-2.52zm-35.478 5.827q-.486.029-.975.16a4.85 4.85 0 0 0-2.955 2.268 5.3 5.3 0 0 0-.374.853c-.628 1.726-1.183 1.868-2.192 2.138L4 38.385v2.52l14.656-3.929c1.01-.27 1.563-.424 2.97.757.239.2.477.395.747.551a4.869 4.869 0 0 0 7.138-5.476 4.87 4.87 0 0 0-4.99-3.602zm8.945 5.165q-.485.029-.973.159a4.87 4.87 0 0 0-1.174 8.921c.27.156.56.264.853.37 1.726.63 1.868 1.187 2.138 2.196L38.055 60h2.523l-3.916-14.613c-.27-1.01-.425-1.563.756-2.97.2-.24.396-.48.551-.75a4.872 4.872 0 0 0-4.503-7.297" style="paint-order:normal"/><path fill="#fff" d="M8.87 4A4.86 4.86 0 0 0 4 8.87v1A4.86 4.86 0 0 1 8.87 5h14.183l1.643 1.217L25.573 5h29.559A4.86 4.86 0 0 1 60 9.87v-1A4.86 4.86 0 0 0 55.13 4H25.574l-.877 1.217L23.053 4zm50.395 21.172-.482.523 1.216 1.204v-1zM4.735 39.94 4 40.905v1l1.217-1.6z" opacity=".1"/></svg>