<svg xmlns="http://www.w3.org/2000/svg" width="512" height="512" enable-background="new" version="1.0"><defs><filter id="a" width="1.054" height="1.043" x="-.027" y="-.021" color-interpolation-filters="sRGB"><feGaussianBlur stdDeviation="4"/></filter></defs><g transform="translate(-208 228)"><rect width="448" height="352" x="-256" y="-640" stroke="#000" stroke-width="8" filter="url(#a)" opacity=".1" rx="24" ry="24" transform="scale(1 -1)rotate(90)"/><rect width="448" height="352" x="-256" y="-640" filter="url(#a)" opacity=".2" rx="24" ry="24" transform="scale(1 -1)rotate(90)"/><rect width="448" height="352" x="-252" y="-640" fill="#9d9d9d" rx="24" ry="24" transform="scale(1 -1)rotate(90)"/><path fill="#fff" d="M312-196c-13.296 0-24 10.704-24 24v2c0-13.296 10.704-24 24-24h304c13.296 0 24 10.704 24 24v-2c0-13.296-10.704-24-24-24z" opacity=".1"/><rect width="384" height="288" x="-220" y="-608" fill="#ebebeb" enable-background="new" rx="0" ry="0" transform="scale(1 -1)rotate(90)"/><g fill="#fffbd8" stroke="#fffbd8" stroke-linecap="round"><rect width="368" height="16" x="280" y="20" stroke-width="32" opacity=".05" rx="8" ry="8"/><rect width="368" height="16" x="280" y="20" stroke-width="16" rx="8" ry="8"/><rect width="368" height="16" x="280" y="20" stroke-width="48" opacity=".01" rx="8" ry="8"/></g></g></svg>