<svg xmlns="http://www.w3.org/2000/svg" width="512" height="512" enable-background="new" version="1.0"><defs><filter id="a" width="1.048" height="1.048" x="-.024" y="-.024" color-interpolation-filters="sRGB"><feGaussianBlur stdDeviation="4.8"/></filter><filter id="c" width="1.048" height="1.048" x="-.024" y="-.024" color-interpolation-filters="sRGB"><feGaussianBlur stdDeviation="4.8"/></filter><filter id="d" width="1.064" height="1.038" x="-.032" y="-.019" color-interpolation-filters="sRGB"><feGaussianBlur stdDeviation="3.4"/></filter></defs><g transform="translate(-208 228)"><circle cx="464" cy="32" r="240" filter="url(#a)" opacity=".2"/><circle cx="464" cy="30" r="240" opacity=".2"/><circle cx="464" cy="32" r="240" stroke="#000" stroke-width="8" filter="url(#c)" opacity=".1"/></g><g transform="translate(-208 228)"><circle cx="464" cy="28" r="240" fill="#3f51b5"/><path fill="#fff" d="M464-212A240 240 0 0 0 224 28l.041 1.172A240 240 0 0 1 464-210 240 240 0 0 1 703.959 28.828L704 28a240 240 0 0 0-240-240" opacity=".2"/><path fill-rule="evenodd" d="M368-208v128L336 48l112 168V11.62a32 32 0 0 1-16-27.625 32 32 0 0 1 32-32 32 32 0 0 1 32 32 32 32 0 0 1-16 27.687v204.31l112-168-32-128v-128z" filter="url(#d)" opacity=".2"/><path fill="#ececec" fill-rule="evenodd" d="M368-212v128L336 44l112 168V7.62a32 32 0 0 1-16-27.625 32 32 0 0 1 32-32 32 32 0 0 1 32 32 32 32 0 0 1-16 27.687v204.31l112-168-32-128v-128z"/></g><path fill="#fff" fill-rule="evenodd" d="M160 16v128l-32 128 112 168V235.62a32 32 0 0 1-16-27.625 32 32 0 0 1 32-32v-160z" opacity=".5"/></svg>