<svg width="512" height="512" enable-background="new" version="1.0" xmlns="http://www.w3.org/2000/svg" xmlns:osb="http://www.openswatchbook.org/uri/2009/osb" xmlns:xlink="http://www.w3.org/1999/xlink">
 <defs>
  <filter id="a" x="-.024" y="-.024" width="1.048" height="1.048" color-interpolation-filters="sRGB">
   <feGaussianBlur stdDeviation="4.48"/>
  </filter>
 </defs>
 <g transform="translate(0,212)">
  <g>
   <g transform="translate(-208,16)">
    <g>
     <rect transform="matrix(0,-1,-1,0,0,0)" x="-256" y="-688" width="448" height="448" rx="36" ry="36" filter="url(#a)" opacity=".2"/>
     <rect transform="matrix(0,-1,-1,0,0,0)" x="-254" y="-688" width="448" height="448" rx="36" ry="36" opacity=".2"/>
     <rect transform="matrix(0,-1,-1,0,0,0)" x="-256" y="-688" width="448" height="448" rx="36" ry="36" filter="url(#a)" opacity=".1" stroke="#000" stroke-width="8"/>
    </g>
    <rect transform="matrix(0,-1,-1,0,0,0)" x="-252" y="-688" width="448" height="448" rx="36" ry="36" fill="#ff9800"/>
    <path transform="translate(0,-244)" d="m276 48c-19.944 0-36 16.056-36 36v2c0-19.944 16.056-36 36-36h376c19.944 0 36 16.056 36 36v-2c0-19.944-16.056-36-36-36z" fill="#fff" opacity=".2"/>
    <path d="m415.27-69.9c-25.595 0.0398-46.696 20.074-48.042 45.634-2.1536-0.44995-4.3476-0.67592-6.5478-0.67692-17.735 0-32.112 14.377-32.112 32.112 6e-3 0.38126 0.01 0.76153 0.0398 1.1418-2.0726-0.7476-4.2578-1.1328-6.461-1.1418-8.1596 6e-3 -15.431 5.1516-18.151 12.845h60.084c10.407-15.458 28.065-25.689 47.98-25.689h0.01c9.6401 0.01 18.625 3.0846 26.944 7.5638 5.4217-12.096 13.725-22.225 23.958-29.879-3.1399-23.957-23.542-41.881-47.704-41.908zm93.124 38.534c-31.18 0.03982-57.83 22.458-63.195 53.173-8.5046-9.3118-20.529-14.623-33.14-14.639-24.829 0-44.957 20.128-44.957 44.956 0.0299 4.9716 0.86307 9.9055 2.4963 14.601-12.998 4.4248-21.745 16.625-21.763 30.356 0 17.735 14.377 32.112 32.112 32.112h17.022c27.936 0 47.919-70.796 85.736-83.491 16.362-5.4929 39.441-6.0433 51.379 6.4223 10.71 11.184 15.502 36.205 3.762 46.303-7.747 6.6638-24.555 1.7218-29.841-7.0234-4.7075-7.7872 6.8119-26.435 6.8119-26.435-32.112 6.4224-36.684 63.488-6.3722 64.224h70.595c24.829 0 44.956-20.128 44.956-44.957 0-24.829-20.128-44.957-44.956-44.957-2.2895 0.0099-4.5749 0.19412-6.8363 0.55149 0.2648-2.3156 0.40317-4.6438 0.41412-6.9742 0-35.47-28.754-64.224-64.224-64.224z" enable-background="new" fill="#fff"/>
   </g>
  </g>
 </g>
</svg>
