<svg xmlns="http://www.w3.org/2000/svg" width="512" height="512" enable-background="new" version="1.0"><defs><filter id="a" width="1.048" height="1.048" x="-.024" y="-.024" color-interpolation-filters="sRGB"><feGaussianBlur stdDeviation="4.48"/></filter></defs><g transform="translate(-208 228)"><g transform="scale(1 -1)rotate(90)"><rect width="448" height="448" x="-256" y="-688" filter="url(#a)" opacity=".2" rx="36" ry="36"/><rect width="448" height="448" x="-254" y="-688" opacity=".2" rx="36" ry="36"/><rect width="448" height="448" x="-256" y="-688" stroke="#000" stroke-width="8" filter="url(#a)" opacity=".1" rx="36" ry="36"/></g><rect width="448" height="448" x="-252" y="-688" fill="#ff9800" rx="36" ry="36" transform="scale(1 -1)rotate(90)"/><path fill="#fff" d="M276-196c-19.944 0-36 16.056-36 36v2c0-19.944 16.056-36 36-36h376c19.944 0 36 16.056 36 36v-2c0-19.944-16.056-36-36-36z" opacity=".2"/><path fill="#fff" d="M415.27-69.9c-25.595.04-46.696 20.074-48.042 45.634a32 32 0 0 0-6.548-.677c-17.735 0-32.112 14.377-32.112 32.112.006.381.01.762.04 1.142a19.3 19.3 0 0 0-6.461-1.142 19.27 19.27 0 0 0-18.151 12.845h60.084c10.407-15.458 28.065-25.689 47.98-25.689h.01c9.64.01 18.625 3.085 26.944 7.564 5.422-12.096 13.725-22.225 23.958-29.88-3.14-23.956-23.542-41.88-47.704-41.907zm93.124 38.534c-31.18.04-57.83 22.458-63.195 53.173a44.96 44.96 0 0 0-33.14-14.639c-24.829 0-44.957 20.128-44.957 44.956.03 4.972.863 9.905 2.496 14.601a32.11 32.11 0 0 0-21.763 30.356c0 17.735 14.377 32.112 32.112 32.112h17.022c27.936 0 47.92-70.796 85.736-83.491 16.362-5.493 39.441-6.043 51.38 6.422 10.71 11.184 15.501 36.205 3.761 46.303-7.747 6.664-24.555 1.722-29.84-7.023-4.708-7.787 6.811-26.435 6.811-26.435-32.112 6.422-36.684 63.488-6.372 64.224h70.595c24.829 0 44.956-20.128 44.956-44.957s-20.128-44.957-44.956-44.957c-2.29.01-4.575.194-6.836.551.265-2.315.403-4.643.414-6.974 0-35.47-28.754-64.224-64.224-64.224z" enable-background="new"/></g></svg>