<svg xmlns="http://www.w3.org/2000/svg" width="512" height="512" enable-background="new" version="1.0"><defs><filter id="a" width="1.049" height="1.047" x="-.024" y="-.024" color-interpolation-filters="sRGB"><feGaussianBlur stdDeviation="4.42"/></filter></defs><path stroke="#000" stroke-width="8" d="M418.15-191.99c-4.749.518-8.932 4.402-9.8 9.1l-9.45 47.949c-16.965 6.634-32.909 15.75-46.899 26.949l-46.549-15.75c-4.835-1.668-10.702.493-13.3 4.9l-44.799 77.699c-2.523 4.468-1.44 10.653 2.45 14l37.1 32.549c-1.307 8.727-2.1 17.508-2.1 26.6s.794 17.872 2.1 26.599l-37.1 32.549c-3.89 3.346-4.973 9.53-2.45 14l44.8 77.698c2.598 4.406 8.463 6.567 13.3 4.9L352 172.002c13.99 11.199 29.935 20.315 46.9 26.95l9.45 47.949c.957 5.019 5.74 9.03 10.85 9.1h89.597c5.11-.065 9.892-4.081 10.85-9.1l9.45-47.95c16.965-6.634 32.909-15.75 46.899-26.95l46.549 15.75c4.836 1.668 10.702-.493 13.3-4.9l44.799-77.697c2.523-4.47 1.441-10.653-2.45-14l-37.099-32.55c1.306-8.727 2.1-17.507 2.1-26.598s-.794-17.872-2.1-26.6l37.1-32.55c3.89-3.346 4.972-9.53 2.449-14l-44.799-77.698c-2.598-4.407-8.464-6.568-13.3-4.9l-46.549 15.75c-13.99-11.2-29.935-20.315-46.899-26.95l-9.45-47.948c-.958-5.02-5.74-9.03-10.85-9.1H419.2q-.525-.012-1.05 0z" enable-background="new" filter="url(#a)" opacity=".1" transform="translate(-208 228)"/><path d="M418.15-191.99c-4.749.518-8.932 4.402-9.8 9.1l-9.45 47.949c-16.965 6.634-32.909 15.75-46.899 26.949l-46.549-15.75c-4.835-1.668-10.702.493-13.3 4.9l-44.799 77.699c-2.523 4.468-1.44 10.653 2.45 14l37.1 32.549c-1.307 8.727-2.1 17.508-2.1 26.6s.794 17.872 2.1 26.599l-37.1 32.549c-3.89 3.346-4.973 9.53-2.45 14l44.8 77.698c2.598 4.406 8.463 6.567 13.3 4.9L352 172.002c13.99 11.199 29.935 20.315 46.9 26.95l9.45 47.949c.957 5.019 5.74 9.03 10.85 9.1h89.597c5.11-.065 9.892-4.081 10.85-9.1l9.45-47.95c16.965-6.634 32.909-15.75 46.899-26.95l46.549 15.75c4.836 1.668 10.702-.493 13.3-4.9l44.799-77.697c2.523-4.47 1.441-10.653-2.45-14l-37.099-32.55c1.306-8.727 2.1-17.507 2.1-26.598s-.794-17.872-2.1-26.6l37.1-32.55c3.89-3.346 4.972-9.53 2.449-14l-44.799-77.698c-2.598-4.407-8.464-6.568-13.3-4.9l-46.549 15.75c-13.99-11.2-29.935-20.315-46.899-26.95l-9.45-47.948c-.958-5.02-5.74-9.03-10.85-9.1H419.2q-.525-.012-1.05 0z" enable-background="new" filter="url(#a)" opacity=".2" transform="translate(-208 228)"/><path fill="#3f3f3f" d="M210.15 32.01c-4.749.518-8.932 4.402-9.8 9.1l-9.45 47.949c-16.965 6.634-32.909 15.75-46.899 26.949l-46.549-15.75c-4.836-1.668-10.702.493-13.3 4.9l-44.799 77.699c-2.523 4.468-1.44 10.653 2.45 14l37.1 32.549c-1.307 8.727-2.1 17.508-2.1 26.6s.794 17.872 2.1 26.599l-37.1 32.549c-3.89 3.346-4.973 9.53-2.45 14l44.8 77.698c2.598 4.406 8.463 6.567 13.3 4.9L144 396.002c13.99 11.199 29.935 20.315 46.9 26.95l9.45 47.949c.957 5.019 5.74 9.03 10.85 9.1h89.597c5.11-.065 9.892-4.081 10.85-9.1l9.45-47.95c16.965-6.634 32.909-15.75 46.899-26.95l46.549 15.75c4.836 1.668 10.702-.493 13.3-4.9l44.799-77.697c2.523-4.47 1.441-10.653-2.45-14l-37.099-32.55c1.306-8.727 2.1-17.507 2.1-26.598s-.794-17.872-2.1-26.6l37.1-32.55c3.89-3.346 4.972-9.53 2.449-14l-44.799-77.698c-2.598-4.407-8.464-6.568-13.3-4.9l-46.549 15.75c-13.99-11.2-29.935-20.315-46.899-26.95l-9.45-47.948c-.958-5.02-5.74-9.03-10.85-9.1H211.2q-.525-.012-1.05 0z" enable-background="new"/><path d="M210.25 479.99c-4.749-.518-9.132-4.303-10-9l-9.25-48c-16.965-6.634-33.01-15.801-47-27l-46.5 15.75c-4.836 1.668-10.652-.594-13.25-5l-45-77.5c-.97-1.719-1.267-3.756-1.107-5.766.035.407.098.809.18 1.206.084 1.043.3 2.075.677 3.06.068-.188.15-.367.227-.549q.011.024.023.05l45 77.5c2.598 4.405 8.414 6.667 13.25 5l46.5-15.75c13.99 11.198 30.035 20.365 47 27l9.25 48c.868 4.696 5.251 8.481 10 9 .35.007.65.007 1 0h89.5c5.11-.07 10.042-3.982 11-9l9.25-48c16.965-6.635 33.01-15.802 47-27l46.5 15.75c4.836 1.667 10.652-.595 13.25-5l45-77.5.025-.05c.076.182.156.358.225.55.419-1.09.664-2.23.764-3.378q.103-.548.15-1.107c.173 2.072-.167 4.219-1.164 5.984l-45 77.5c-2.598 4.406-8.414 6.668-13.25 5L368 395.99c-13.99 11.2-30.035 20.366-47 27l-9.25 48c-.958 5.02-5.89 8.93-11 9h-89.5c-.35.008-.65.008-1 0zM38.32 322.66q-.017-.217-.025-.436.085-.5.205-.988c-.087.469-.143.945-.18 1.424m435.45-.348c-.01-.108-.005-.218-.018-.326.012.061.017.124.028.186zM78 275.236c-.72-6.328-1.25-12.695-1.25-19.25 0 .466.03.927.065 1.387.143 5.368.59 10.632 1.185 15.863l.756-.566c.083.605.154 1.212.244 1.816zm356 0-1-.75c.09-.605.16-1.212.242-1.818l.758.568c.594-5.223 1.04-10.479 1.184-15.838.036-.468.066-.938.066-1.412 0 6.555-.53 12.921-1.25 19.25zm-356-46.5-36.25-32c-1.41-1.212-2.18-2.788-2.75-4.5.167-.435.037-.985.22-1.412.55 1.481 1.286 2.842 2.53 3.912l36.25 32c.21-1.849.469-3.658.738-5.478l.262.228c-.364 2.435-.722 4.802-1 7.25m-39-36.5a7 7 0 0 1-.248-.898c.073.303.15.606.248.898m-.248-.898a12 12 0 0 1-.252-1.352c.092.484.158.918.252 1.352m395.25 37.398c-.278-2.449-.635-4.815-1-7.25l.262-.229c.269 1.82.528 3.63.738 5.479l36.25-32c1.244-1.07 1.98-2.431 2.53-3.912.184.427.053.977.22 1.412-.57 1.712-1.34 3.288-2.75 4.5z" enable-background="new" opacity=".1"/><path fill="#fe9700" stroke="#3f3f3f" stroke-linecap="round" stroke-width="4" d="M190 168.001v20h32v12h-48v48h-12v-32h-20v84h20v-32h12v24l40 40h90l32-32 4 .156v9.844h20l10-10v-68l-10-10h-20v10h-11.5l-32-32H242v-12h32v-20zm4 52h90l32 32h34v28h-24l-32 32h-67.5l-32.5-32.5z" enable-background="new"/><path fill="#fff" d="M210.15 32.008c-4.749.518-8.931 4.402-9.799 9.1L190.9 89.057c-16.965 6.634-32.908 15.75-46.898 26.949l-46.549-15.748c-4.836-1.668-10.703.492-13.301 4.898l-44.799 77.699c-1.088 1.927-1.503 4.172-1.315 6.371.13-1.53.556-3.028 1.315-4.371l44.799-77.699c2.598-4.406 8.465-6.566 13.301-4.898l46.549 15.748c13.99-11.2 29.934-20.315 46.898-26.95l9.451-47.948c.868-4.698 5.05-8.582 9.799-9.1h.002q.525-.012 1.049 0h89.598c5.11.07 9.891 4.08 10.85 9.1l9.451 47.949c16.965 6.634 32.908 15.75 46.898 26.949l46.549-15.748c4.836-1.668 10.703.492 13.301 4.898l44.799 77.699c.758 1.343 1.186 2.842 1.315 4.371.188-2.2-.227-4.444-1.315-6.371l-44.799-77.699c-2.598-4.406-8.465-6.566-13.301-4.898l-46.549 15.748c-13.99-11.2-29.934-20.315-46.898-26.95l-9.451-47.948c-.958-5.02-5.74-9.03-10.85-9.1H211.2q-.525-.012-1.049 0zm-131.5 199.18c-1.152 8.143-1.848 16.346-1.848 24.82 0 .335.01.666.012 1 .056-8.735.83-17.193 2.088-25.6zm354.7 0-.252.22c1.257 8.407 2.032 16.866 2.088 25.6.002-.333.012-.665.012-1 0-8.473-.697-16.677-1.848-24.82zm-354.7 51.641-36.846 32.328c-2.722 2.34-4.065 6.07-3.766 9.629.25-2.902 1.552-5.725 3.766-7.629l37.098-32.549c-.089-.593-.168-1.186-.252-1.78zm354.7 0c-.084.593-.163 1.187-.252 1.78l37.098 32.548c2.214 1.904 3.517 4.727 3.766 7.63.299-3.56-1.044-7.29-3.766-9.63z" enable-background="new" opacity=".2"/></svg>