<svg width="512" height="512" enable-background="new" version="1.0" xmlns="http://www.w3.org/2000/svg" xmlns:xlink="http://www.w3.org/1999/xlink">
 <defs>
  <filter id="a" x="-.02433" y="-.023679" width="1.0487" height="1.0474" color-interpolation-filters="sRGB">
   <feGaussianBlur stdDeviation="4.4200551"/>
  </filter>
 </defs>
 <g transform="translate(0,212)">
  <g>
   <g transform="translate(-208,16)">
    <path d="m418.15-191.99c-4.7489 0.5176-8.932 4.4024-9.7998 9.0998l-9.4498 47.949c-16.965 6.6344-32.909 15.75-46.899 26.949l-46.549-15.75c-4.8359-1.6675-10.702 0.4936-13.3 4.8999l-44.799 77.699c-2.5234 4.4688-1.4411 10.653 2.4499 14l37.099 32.549c-1.3064 8.7275-2.0999 17.508-2.0999 26.6s0.7944 17.872 2.0999 26.599l-37.099 32.549c-3.891 3.3464-4.9734 9.5309-2.4499 14l44.799 77.698c2.5982 4.4064 8.4638 6.5674 13.3 4.8999l46.549-15.75c13.99 11.199 29.935 20.315 46.899 26.95l9.4498 47.949c0.9576 5.0192 5.7405 9.0303 10.85 9.0998h89.598c5.1093-0.064 9.8918-4.0806 10.85-9.0998l9.4498-47.949c16.965-6.6345 32.909-15.75 46.899-26.95l46.549 15.75c4.8359 1.6675 10.702-0.4936 13.3-4.8999l44.799-77.698c2.5234-4.4689 1.4411-10.653-2.4499-14l-37.099-32.549c1.3064-8.7275 2.0999-17.508 2.0999-26.599s-0.7944-17.872-2.0999-26.6l37.099-32.549c3.891-3.3464 4.9734-9.531 2.4499-14l-44.799-77.699c-2.5982-4.4063-8.4638-6.5674-13.3-4.8999l-46.549 15.75c-13.99-11.199-29.935-20.315-46.899-26.949l-9.4498-47.949c-0.958-5.0192-5.7405-9.0303-10.85-9.0998h-89.598c-0.3496-8e-3 -0.7-8e-3 -1.0494 0z" enable-background="new" filter="url(#a)" opacity=".1" stroke="#000" stroke-width="8"/>
    <path d="m418.15-191.99c-4.7489 0.5176-8.932 4.4024-9.7998 9.0998l-9.4498 47.949c-16.965 6.6344-32.909 15.75-46.899 26.949l-46.549-15.75c-4.8359-1.6675-10.702 0.4936-13.3 4.8999l-44.799 77.699c-2.5234 4.4688-1.4411 10.653 2.4499 14l37.099 32.549c-1.3064 8.7275-2.0999 17.508-2.0999 26.6s0.7944 17.872 2.0999 26.599l-37.099 32.549c-3.891 3.3464-4.9734 9.5309-2.4499 14l44.799 77.698c2.5982 4.4064 8.4638 6.5674 13.3 4.8999l46.549-15.75c13.99 11.199 29.935 20.315 46.899 26.95l9.4498 47.949c0.9576 5.0192 5.7405 9.0303 10.85 9.0998h89.598c5.1093-0.064 9.8918-4.0806 10.85-9.0998l9.4498-47.949c16.965-6.6345 32.909-15.75 46.899-26.95l46.549 15.75c4.8359 1.6675 10.702-0.4936 13.3-4.8999l44.799-77.698c2.5234-4.4689 1.4411-10.653-2.4499-14l-37.099-32.549c1.3064-8.7275 2.0999-17.508 2.0999-26.599s-0.7944-17.872-2.0999-26.6l37.099-32.549c3.891-3.3464 4.9734-9.531 2.4499-14l-44.799-77.699c-2.5982-4.4063-8.4638-6.5674-13.3-4.8999l-46.549 15.75c-13.99-11.199-29.935-20.315-46.899-26.949l-9.4498-47.949c-0.958-5.0192-5.7405-9.0303-10.85-9.0998h-89.598c-0.3496-8e-3 -0.7-8e-3 -1.0494 0z" enable-background="new" filter="url(#a)" opacity=".2"/>
    <path d="m418.15-195.99c-4.7489 0.5176-8.932 4.4024-9.7998 9.0998l-9.4498 47.949c-16.965 6.6344-32.909 15.75-46.899 26.949l-46.549-15.75c-4.8359-1.6675-10.702 0.4936-13.3 4.8999l-44.799 77.699c-2.5234 4.4688-1.4411 10.653 2.4499 14l37.099 32.549c-1.3064 8.7275-2.0999 17.508-2.0999 26.6s0.7944 17.872 2.0999 26.599l-37.099 32.549c-3.891 3.3464-4.9734 9.5309-2.4499 14l44.799 77.698c2.5982 4.4064 8.4638 6.5674 13.3 4.8999l46.549-15.75c13.99 11.199 29.935 20.315 46.899 26.95l9.4498 47.949c0.9576 5.0192 5.7405 9.0303 10.85 9.0998h89.598c5.1093-0.064 9.8918-4.0806 10.85-9.0998l9.4498-47.949c16.965-6.6345 32.909-15.75 46.899-26.95l46.549 15.75c4.8359 1.6675 10.702-0.4936 13.3-4.8999l44.799-77.698c2.5234-4.4689 1.4411-10.653-2.4499-14l-37.099-32.549c1.3064-8.7275 2.0999-17.508 2.0999-26.599s-0.7944-17.872-2.0999-26.6l37.099-32.549c3.891-3.3464 4.9734-9.531 2.4499-14l-44.799-77.699c-2.5982-4.4063-8.4638-6.5674-13.3-4.8999l-46.549 15.75c-13.99-11.199-29.935-20.315-46.899-26.949l-9.4498-47.949c-0.958-5.0192-5.7405-9.0303-10.85-9.0998h-89.598c-0.3496-8e-3 -0.7-8e-3 -1.0494 0z" enable-background="new" fill="#3f3f3f"/>
    <path d="m418.25 251.99c-4.7489-0.5176-9.1322-4.3026-10-9l-9.25-48c-16.965-6.6344-33.01-15.801-47-27l-46.5 15.75c-4.8359 1.6675-10.652-0.5936-13.25-5l-45-77.5c-0.97072-1.719-1.267-3.7562-1.1074-5.7656 0.035 0.40704 0.0985 0.8083 0.17969 1.2051 0.0852 1.043 0.29979 2.0759 0.67773 3.0606 0.0679-0.18842 0.14974-0.36688 0.22656-0.54883 9e-3 0.0158 0.0145 0.0331 0.0234 0.0488l45 77.5c2.5982 4.4064 8.4141 6.6675 13.25 5l46.5-15.75c13.99 11.199 30.035 20.366 47 27l9.25 48c0.86784 4.6974 5.2511 8.4824 10 9 0.3496 8e-3 0.6504 8e-3 1 0h89.5c5.1093-0.0695 10.042-3.9808 11-9l9.25-48c16.965-6.6344 33.01-15.801 47-27l46.5 15.75c4.8359 1.6675 10.652-0.59368 13.25-5l45-77.5c9e-3 -0.016 0.0165-0.0328 0.0254-0.0488 0.0759 0.18196 0.15585 0.35809 0.22461 0.54883 0.41862-1.0898 0.66358-2.2291 0.76367-3.377 0.0683-0.36511 0.11907-0.73508 0.15039-1.1074 0.17283 2.0718-0.16743 4.2192-1.1641 5.9844l-45 77.5c-2.5982 4.4063-8.4141 6.6675-13.25 5l-46.5-15.75c-13.99 11.199-30.035 20.366-47 27l-9.25 48c-0.958 5.0192-5.8907 8.9305-11 9h-89.5c-0.3496 8e-3 -0.6504 8e-3 -1 0zm-171.93-157.33c-0.0117-0.14499-0.0189-0.29028-0.0254-0.43555 0.0576-0.33242 0.1248-0.66307 0.20508-0.98828-0.0863 0.46864-0.14277 0.9452-0.17969 1.4238zm435.45-0.34766c-0.01-0.10844-5e-3 -0.21804-0.0176-0.32617 0.0115 0.06114 0.0167 0.1241 0.0273 0.18555-3e-3 0.04688-6e-3 0.09376-0.01 0.14062zm-395.77-47.076c-0.72-6.3286-1.25-12.695-1.25-19.25 0 0.46564 0.0292 0.92654 0.0645 1.3867 0.14348 5.3681 0.5904 10.632 1.1856 15.863l0.75586-0.56641c0.0831 0.6053 0.15366 1.212 0.24414 1.8164l-1 0.75zm356 0-1-0.75c0.0906-0.60536 0.15944-1.2123 0.24219-1.8184l0.75781 0.56836c0.59389-5.223 1.0392-10.479 1.1836-15.838 0.0363-0.46833 0.0664-0.93816 0.0664-1.4121 0 6.5552-0.5304 12.921-1.25 19.25zm-356-46.5-36.25-32c-1.4094-1.2121-2.1803-2.7881-2.75-4.5 0.16731-0.43514 0.0366-0.98535 0.2207-1.4121 0.5499 1.4808 1.2848 2.8418 2.5293 3.9121l36.25 32c0.21026-1.8493 0.46903-3.6581 0.73828-5.4785l0.26172 0.22852c-0.364 2.4347-0.7216 4.8014-1 7.25zm-39-36.5c-0.11131-0.30896-0.18453-0.60379-0.24805-0.89844 0.0732 0.30283 0.15071 0.60577 0.24805 0.89844zm-0.24805-0.89844c-0.10785-0.44631-0.19714-0.89697-0.25195-1.3516 0.0915 0.48366 0.15844 0.91775 0.25195 1.3516zm395.25 37.398c-0.2784-2.4486-0.6352-4.8153-1-7.25l0.26172-0.22852c0.26937 1.8205 0.52802 3.6292 0.73828 5.4785l36.25-32c1.2445-1.0703 1.9794-2.4313 2.5293-3.9121 0.18479 0.42691 0.0541 0.97682 0.2207 1.4121-0.5696 1.7119-1.3406 3.2879-2.75 4.5z" enable-background="new" opacity=".1"/>
    <path d="m398-59.999v20h32v12h-48v48h-12v-32h-20v84h20v-32h12v24l40 40h90l32-32 4 0.156v9.8438h20l10-10v-68l-10-10h-20v10h-11.5l-32-32h-54.5v-12h32v-20zm4 52h90l32 32h34v28h-24l-32 32h-67.5l-32.5-32.5z" enable-background="new" fill="#fe9700" stroke="#3f3f3f" stroke-linecap="round" stroke-width="4"/>
    <path transform="translate(0,-244)" d="m418.15 48.008c-4.7489 0.5176-8.931 4.4022-9.7988 9.0996l-9.4512 47.949c-16.965 6.6344-32.908 15.75-46.898 26.949l-46.549-15.748c-4.8359-1.6675-10.703 0.49212-13.301 4.8984l-44.799 77.699c-1.0879 1.9266-1.503 4.1716-1.3145 6.3711 0.12861-1.5295 0.55599-3.0279 1.3145-4.3711l44.799-77.699c2.5982-4.4063 8.4649-6.566 13.301-4.8984l46.549 15.748c13.99-11.199 29.934-20.315 46.898-26.949l9.4512-47.949c0.86784-4.6974 5.05-8.582 9.7988-9.0996h2e-3c0.34936-8e-3 0.69923-8e-3 1.0488 0h89.598c5.1093 0.06952 9.8916 4.0804 10.85 9.0996l9.4512 47.949c16.965 6.6344 32.908 15.75 46.898 26.949l46.549-15.748c4.8359-1.6675 10.703 0.49212 13.301 4.8984l44.799 77.699c0.75847 1.3432 1.1858 2.8416 1.3145 4.3711 0.18859-2.1995-0.22655-4.4445-1.3145-6.3711l-44.799-77.699c-2.5982-4.4063-8.4649-6.566-13.301-4.8984l-46.549 15.748c-13.99-11.199-29.934-20.315-46.898-26.949l-9.4512-47.949c-0.958-5.0192-5.7403-9.0301-10.85-9.0996h-89.598c-0.3496-8e-3 -0.69947-8e-3 -1.0488 0zm-131.5 199.18c-1.1516 8.1427-1.8477 16.346-1.8477 24.82 0 0.33459 0.01 0.66623 0.0117 1 0.0559-8.7349 0.8296-17.193 2.0879-25.6zm354.7 0-0.25195 0.22071c1.2574 8.4061 2.0319 16.865 2.0879 25.6 2e-3 -0.33377 0.0117-0.66541 0.0117-1 0-8.4741-0.6967-16.678-1.8477-24.82zm-354.7 51.641-36.846 32.328c-2.7215 2.3406-4.0649 6.0696-3.7656 9.6289 0.2489-2.9022 1.5521-5.7252 3.7656-7.6289l37.098-32.549c-0.0886-0.59261-0.16811-1.1861-0.25195-1.7793zm354.7 0c-0.0839 0.59318-0.16325 1.1867-0.25195 1.7793l37.098 32.549c2.2135 1.9037 3.5167 4.7267 3.7656 7.6289 0.29927-3.5593-1.0441-7.2883-3.7656-9.6289z" enable-background="new" fill="#fff" opacity=".2"/>
   </g>
  </g>
 </g>
</svg>
