<svg xmlns="http://www.w3.org/2000/svg" width="512" height="512" enable-background="new" version="1.0"><defs><filter id="a" width="1.045" height="1.052" x="-.022" y="-.026" color-interpolation-filters="sRGB"><feGaussianBlur stdDeviation="4.16"/></filter><filter id="b" width="1.102" height="1.146" x="-.051" y="-.073" color-interpolation-filters="sRGB"><feGaussianBlur stdDeviation="6.8"/></filter><filter id="c" width="1.067" height="1.54" x="-.034" y="-.27" color-interpolation-filters="sRGB"><feGaussianBlur stdDeviation="3.6"/></filter></defs><g transform="translate(-224 228)"><rect width="384" height="448" x="-224" y="-704" stroke="#000" stroke-width="8" filter="url(#a)" opacity=".1" rx="24" ry="24" transform="scale(1 -1)rotate(90)"/><rect width="384" height="448" x="-224" y="-704" filter="url(#a)" opacity=".2" rx="24" ry="24" transform="scale(1 -1)rotate(90)"/><rect width="384" height="448" x="-220" y="-704" fill="#2196f3" rx="24" ry="24" transform="scale(1 -1)rotate(90)"/><path d="M256 196v2c0 13.296 10.704 24 24 24h400c13.296 0 24-10.704 24-24v-2c0 13.296-10.704 24-24 24H280c-13.296 0-24-10.704-24-24" opacity=".2"/><g fill-rule="evenodd" color="#000"><rect width="320" height="224" x="320" y="-74" enable-background="new" filter="url(#b)" opacity=".2" ry="12"/><rect width="320" height="224" x="320" y="-84" fill="#ececec" enable-background="new" ry="12"/><rect width="256" height="32" x="352" y="84" enable-background="new" filter="url(#c)" opacity=".1" ry="2"/><rect width="256" height="32" x="352" y="76" fill="#fff" enable-background="new" ry="2"/></g><path fill="#4d4d4d" d="M480-60a24 24 0 0 0-24 24 24 24 0 0 0 24 24 24 24 0 0 0 24-24 24 24 0 0 0-24-24m0 58.883c-48.002.027-48.002 32.025-48.002 32.025V44h96V30.908s0-32.049-47.998-32.025" color="#000" enable-background="accumulate" style="text-decoration-line:none;text-indent:0;text-transform:none"/><path fill="#fff" fill-rule="evenodd" d="M332-84c-6.648 0-12 5.352-12 12v2c0-6.648 5.352-12 12-12h296c6.648 0 12 5.352 12 12v-2c0-6.648-5.352-12-12-12z" color="#000" enable-background="new" opacity=".5"/><path fill="#fff" d="M256-138v-2c0-13.296 10.704-24 24-24h400c13.296 0 24 10.704 24 24v2c0-13.296-10.704-24-24-24H280c-13.296 0-24 10.704-24 24" opacity=".2"/></g></svg>