<svg width="512" height="512" enable-background="new" version="1.0" xmlns="http://www.w3.org/2000/svg" xmlns:xlink="http://www.w3.org/1999/xlink">
 <defs>
  <filter id="a" x="-.022286" y="-.026" width="1.0446" height="1.052" color-interpolation-filters="sRGB">
   <feGaussianBlur stdDeviation="4.16"/>
  </filter>
  <filter id="b" x="-.051" y="-.072857" width="1.102" height="1.1457" color-interpolation-filters="sRGB">
   <feGaussianBlur stdDeviation="6.8"/>
  </filter>
  <filter id="c" x="-.03375" y="-.27" width="1.0675" height="1.54" color-interpolation-filters="sRGB">
   <feGaussianBlur stdDeviation="3.6"/>
  </filter>
 </defs>
 <g transform="translate(0,212)">
  <g>
   <g transform="translate(-224,16)">
    <rect transform="matrix(0,-1,-1,0,0,0)" x="-224" y="-704" width="384" height="448" rx="24" ry="24" filter="url(#a)" opacity=".1" stroke="#000" stroke-width="8"/>
    <rect transform="matrix(0,-1,-1,0,0,0)" x="-224" y="-704" width="384" height="448" rx="24" ry="24" filter="url(#a)" opacity=".2"/>
    <rect transform="matrix(0,-1,-1,0,0,0)" x="-220" y="-704" width="384" height="448" rx="24" ry="24" fill="#2196f3"/>
    <path d="m256 196v2c0 13.296 10.704 24 24 24h400c13.296 0 24-10.704 24-24v-2c0 13.296-10.704 24-24 24h-400c-13.296 0-24-10.704-24-24z" opacity=".2"/>
    <g fill-rule="evenodd">
     <rect x="320" y="-74" width="320" height="224" ry="12" color="#000000" enable-background="new" filter="url(#b)" opacity=".2"/>
     <rect x="320" y="-84" width="320" height="224" ry="12" color="#000000" enable-background="new" fill="#ececec"/>
     <rect x="352" y="84" width="256" height="32" ry="2" color="#000000" enable-background="new" filter="url(#c)" opacity=".1"/>
     <rect x="352" y="76" width="256" height="32" ry="2" color="#000000" enable-background="new" fill="#fff"/>
    </g>
    <path d="m480-60a24 24 0 0 0-24 24 24 24 0 0 0 24 24 24 24 0 0 0 24-24 24 24 0 0 0-24-24zm0 58.883c-48.002 0.0269-48.002 32.025-48.002 32.025v13.092h96v-13.092s1e-4 -32.049-47.998-32.025z" color="#000000" enable-background="accumulate" fill="#4d4d4d" style="text-decoration-line:none;text-indent:0;text-transform:none"/>
    <path d="m332-84c-6.648 0-12 5.352-12 12v2c0-6.648 5.352-12 12-12h296c6.648 0 12 5.352 12 12v-2c0-6.648-5.352-12-12-12z" color="#000000" enable-background="new" fill="#fff" fill-rule="evenodd" opacity=".5"/>
    <path d="m256-138v-2c0-13.296 10.704-24 24-24h400c13.296 0 24 10.704 24 24v2c0-13.296-10.704-24-24-24h-400c-13.296 0-24 10.704-24 24z" fill="#fff" opacity=".2"/>
   </g>
  </g>
 </g>
</svg>
