<svg xmlns="http://www.w3.org/2000/svg" width="512" height="512" enable-background="new" version="1.0"><defs><filter id="a" width="1.048" height="1.048" x="-.024" y="-.024" color-interpolation-filters="sRGB"><feGaussianBlur stdDeviation="4.8"/></filter></defs><path d="M464-208a240 240 0 0 0-149.81 52.562l85.156 147.47 112.69-195.16a240 240 0 0 0-48.031-4.875zm79.719 13.906-84.344 146.09h230.62a239.99 239.99 0 0 0-146.28-146.09zm-253.53 61.031a240 240 0 0 0-66.188 165.06c.098 10.709.912 21.4 2.438 32h177.53zm233.84 117.06 119.5 206.97a240 240 0 0 0 60.469-158.97 240.4 240.4 0 0 0-5.125-48zm4.625 71.969-120.72 209.12a240 240 0 0 0 56.062 6.906 240.04 240.04 0 0 0 155.94-57.938zm-295.94 40.031c20.235 72.789 73.563 131.8 143.94 159.28l91.969-159.28z" filter="url(#a)" opacity=".2" transform="translate(-208 228)"/><path d="M256 18a240 240 0 0 0-149.81 52.562l85.156 147.47 112.69-195.16a240 240 0 0 0-48.031-4.875zm79.719 13.906-84.344 146.09h230.62a239.99 239.99 0 0 0-146.28-146.09zM82.189 92.937a240 240 0 0 0-66.188 165.06c.098 10.709.912 21.4 2.437 32h177.53zm233.84 117.06 119.5 206.97a240 240 0 0 0 60.469-158.97 240.4 240.4 0 0 0-5.125-48zm4.625 71.969-120.72 209.12a240 240 0 0 0 56.062 6.906 240.04 240.04 0 0 0 155.94-57.938zm-295.94 40.031c20.235 72.789 73.563 131.8 143.94 159.28l91.969-159.28z" opacity=".2"/><path fill="#ccc" d="M256 16a239.98 239.98 0 0 0-149.81 52.563l85.156 147.47 112.69-195.16a240 240 0 0 0-48.031-4.875zM82.19 90.937a240 240 0 0 0-66.188 165.06c.098 10.709.912 21.4 2.437 32h177.53z"/><path fill="#3f51b5" d="M335.72 29.91 251.376 176h230.62a239.99 239.99 0 0 0-146.28-146.09zM316.032 208l119.5 206.97A240 240 0 0 0 496.001 256a240.4 240.4 0 0 0-5.125-48zm4.625 71.969-120.72 209.12A240 240 0 0 0 256 495.995a240.05 240.05 0 0 0 155.94-57.937zM24.717 320c20.235 72.789 73.563 131.8 143.94 159.28L260.627 320z"/><path fill="#fff" d="M256 16a240 240 0 0 0-149.81 52.562l.795 1.377A239.98 239.98 0 0 1 256.005 18c15.78.006 31.52 1.58 46.992 4.676l1.039-1.801A240 240 0 0 0 256.005 16zm79.719 13.906-84.344 146.09h1.154l83.19-144.09c67.638 23.887 120.99 76.77 145.54 144.09h.74a239.99 239.99 0 0 0-146.28-146.09zM82.189 90.937a240 240 0 0 0-66.188 165.06c.003.295.012.59.016.885a240 240 0 0 1 66.172-163.95l112.63 195.06h1.154zm233.84 117.06 1.154 2h173.69a240.4 240.4 0 0 1 5.11 47.18c.002-.394.015-.786.015-1.18a240.4 240.4 0 0 0-5.125-48zm4.625 71.969-120.72 209.12c.338.083.677.159 1.016.24l119.7-207.37 90.504 156.75c.257-.22.52-.431.777-.652zm-295.94 40.031c.186.669.38 1.334.572 2h234.18l1.155-2z" opacity=".2"/></svg>