<svg width="512" height="512" enable-background="new" version="1.0" xmlns="http://www.w3.org/2000/svg">
 <defs>
  <filter id="a" x="-.024" y="-.024" width="1.048" height="1.048" color-interpolation-filters="sRGB">
   <feGaussianBlur stdDeviation="4.8"/>
  </filter>
 </defs>
 <g transform="translate(0,212)">
  <g>
   <g transform="translate(-208,16)">
    <path d="m464-208c-54.454 0.016-107.28 18.553-149.81 52.562l85.156 147.47 112.69-195.16c-15.806-3.2354-31.898-4.8686-48.031-4.875zm79.719 13.906-84.344 146.09h230.62c-24.212-68.28-77.97-121.97-146.28-146.09zm-253.53 61.031c-42.386 44.515-66.076 103.6-66.188 165.06 0.0976 10.709 0.912 21.4 2.4375 32h177.53zm233.84 117.06 119.5 206.97c38.886-43.831 60.394-100.37 60.469-158.97-0.096-16.132-1.8079-32.213-5.125-48zm4.625 71.969-120.72 209.12c18.351 4.5008 37.168 6.819 56.062 6.9062 57.224-0.112 112.53-20.652 155.94-57.938zm-295.94 40.031c20.235 72.789 73.563 131.8 143.94 159.28l91.969-159.28z" filter="url(#a)" opacity=".2"/>
    <path d="m464-210c-54.454 0.016-107.28 18.553-149.81 52.562l85.156 147.47 112.69-195.16c-15.806-3.2354-31.898-4.8686-48.031-4.875zm79.719 13.906-84.344 146.09h230.62c-24.212-68.28-77.97-121.97-146.28-146.09zm-253.53 61.031c-42.386 44.515-66.076 103.6-66.188 165.06 0.0976 10.709 0.912 21.4 2.4375 32h177.53zm233.84 117.06 119.5 206.97c38.886-43.831 60.394-100.37 60.469-158.97-0.096-16.132-1.8079-32.213-5.125-48zm4.625 71.969-120.72 209.12c18.351 4.5008 37.168 6.819 56.062 6.9062 57.224-0.112 112.53-20.652 155.94-57.938zm-295.94 40.031c20.235 72.789 73.563 131.8 143.94 159.28l91.969-159.28z" opacity=".2"/>
    <path d="m464-212c-54.454 0.016-107.28 18.553-149.81 52.563l85.156 147.47 112.69-195.16c-15.806-3.2354-31.898-4.8686-48.031-4.875zm-173.81 74.937c-42.386 44.515-66.076 103.6-66.188 165.06 0.0976 10.709 0.912 21.4 2.4375 32h177.53z" fill="#ccc"/>
    <path d="m543.72-198.09-84.344 146.09h230.62c-24.212-68.28-77.97-121.97-146.28-146.09zm-19.688 178.09 119.5 206.97c38.886-43.831 60.394-100.37 60.469-158.97-0.096-16.132-1.8078-32.213-5.125-48zm4.6251 71.969-120.72 209.12c18.351 4.5008 37.168 6.819 56.063 6.9062 57.224-0.112 112.53-20.652 155.94-57.937zm-295.94 40.031c20.235 72.789 73.563 131.8 143.94 159.28l91.969-159.28z" fill="#3f51b5"/>
    <path transform="translate(0,-244)" d="m464 32c-54.454 0.016-107.28 18.553-149.81 52.562l0.79492 1.377c42.392-33.608 94.9-51.924 149.02-51.939 15.781 0.0063 31.52 1.5797 46.992 4.6758l1.0391-1.8008c-15.806-3.2354-31.898-4.8686-48.031-4.875zm79.719 13.906-84.344 146.09h1.1543l83.189-144.09c67.639 23.887 120.99 76.77 145.54 144.09h0.74023c-24.212-68.28-77.97-121.97-146.28-146.09zm-253.53 61.031c-42.386 44.515-66.076 103.6-66.188 165.06 3e-3 0.29494 0.0119 0.58985 0.0156 0.88477 0.3943-61.065 24.043-119.7 66.172-163.95l112.63 195.06h1.1543zm233.84 117.06 1.1543 2h173.69c3.2609 15.519 4.9611 31.323 5.1094 47.18 2e-3 -0.39354 0.0151-0.78596 0.0156-1.1797-0.096-16.132-1.8079-32.213-5.125-48zm4.625 71.969-120.72 209.12c0.33802 0.0829 0.67729 0.15881 1.0156 0.24023l119.7-207.37 90.504 156.75c0.25769-0.21945 0.52047-0.43171 0.77734-0.65234zm-295.94 40.031c0.18587 0.6686 0.38083 1.3337 0.57227 2h234.18l1.1543-2z" fill="#fff" opacity=".2"/>
   </g>
  </g>
 </g>
</svg>
