<svg width="512" height="512" enable-background="new" version="1.0" xmlns="http://www.w3.org/2000/svg">
 <defs>
  <filter id="a" x="-.024" y="-.024" width="1.048" height="1.048" color-interpolation-filters="sRGB">
   <feGaussianBlur stdDeviation="4.8"/>
  </filter>
 </defs>
 <g transform="translate(0,212)">
  <g transform="translate(-208,16)">
   <path d="m352-208a128 128 0 0 0-128 128 128 128 0 0 0 20.23 69.053 224 224 0 0 0-4.2305 42.947 224 224 0 0 0 224 224 224 224 0 0 0 42.982-4.3613 128 128 0 0 0 69.018 20.361 128 128 0 0 0 128-128 128 128 0 0 0-20.23-69.053 224 224 0 0 0 4.2305-42.947 224 224 0 0 0-224-224 224 224 0 0 0-42.98 4.3613 128 128 0 0 0-69.02-20.361z" filter="url(#a)" opacity=".1"/>
   <path d="m352-208a128 128 0 0 0-128 128 128 128 0 0 0 20.23 69.053 224 224 0 0 0-4.2305 42.947 224 224 0 0 0 224 224 224 224 0 0 0 42.982-4.3613 128 128 0 0 0 69.018 20.361 128 128 0 0 0 128-128 128 128 0 0 0-20.23-69.053 224 224 0 0 0 4.2305-42.947 224 224 0 0 0-224-224 224 224 0 0 0-42.98 4.3613 128 128 0 0 0-69.02-20.361z" filter="url(#a)" opacity=".2"/>
   <path d="m352-210a128 128 0 0 0-128 128 128 128 0 0 0 20.23 69.053 224 224 0 0 0-4.2305 42.947 224 224 0 0 0 224 224 224 224 0 0 0 42.982-4.3613 128 128 0 0 0 69.018 20.361 128 128 0 0 0 128-128 128 128 0 0 0-20.23-69.053 224 224 0 0 0 4.2305-42.947 224 224 0 0 0-224-224 224 224 0 0 0-42.98 4.3613 128 128 0 0 0-69.02-20.361z" opacity=".2"/>
   <path transform="translate(0,-244)" d="m352 32a128 128 0 0 0-128 128 128 128 0 0 0 20.23 69.053 224 224 0 0 0-4.2305 42.947 224 224 0 0 0 224 224 224 224 0 0 0 42.982-4.3613 128 128 0 0 0 69.018 20.361 128 128 0 0 0 128-128 128 128 0 0 0-20.23-69.053 224 224 0 0 0 4.2305-42.947 224 224 0 0 0-224-224 224 224 0 0 0-42.98 4.3613 128 128 0 0 0-69.02-20.361z" fill="#00aff0"/>
   <path d="m459.55-120.83c73.576 0 111.51 38.835 111.51 61.557s-10.989 26.449-29.049 26.449c-35.055 0-20.657-42.131-86.443-42.131-21.789 0-48.727 9.7465-48.727 35.11 0 20.35 23.764 27.834 66.296 38.152 63.944 17.119 112.21 34.442 112.21 92.922 0 56.806-46.835 85.198-120.41 85.198-73.576 0-120.41-43.986-120.41-66.708 0-22.721 8.8806-28.554 26.94-28.554 35.055 0 30.027 47.748 95.814 47.748 21.789 0 53.881-9.7465 53.881-35.109 0-20.35-1.397-27.542-48.024-40.025-49.814-6.7865-130.48-22.936-130.48-84.729 0-56.806 43.321-89.88 116.9-89.88z" enable-background="new" fill="#fff"/>
   <path transform="translate(0,-244)" d="m352 32a128 128 0 0 0-128 128 128 128 0 0 0 0.041 0.82812 128 128 0 0 1 127.96-126.83 128 128 0 0 1 69.02 20.361 224 224 0 0 1 42.98-4.3613 224 224 0 0 1 223.95 223.02 224 224 0 0 0 0.04883-1.0195 224 224 0 0 0-224-224 224 224 0 0 0-42.98 4.3613 128 128 0 0 0-69.02-20.361zm-108 198.66a224 224 0 0 0-3.9961 41.342 224 224 0 0 0 0.0488 0.98047 224 224 0 0 1 4.1816-41.928 128 128 0 0 1-0.23438-0.39453zm440.01 84.684a224 224 0 0 1-0.23438 1.6055 128 128 0 0 1 20.189 68.225 128 128 0 0 0 0.04102-1.1719 128 128 0 0 0-19.996-68.658z" fill="#fff" opacity=".2"/>
  </g>
 </g>
</svg>
