<svg xmlns="http://www.w3.org/2000/svg" width="512" height="512" enable-background="new" version="1.0"><defs><filter id="a" width="1.048" height="1.048" x="-.024" y="-.024" color-interpolation-filters="sRGB"><feGaussianBlur stdDeviation="4.8"/></filter></defs><path d="M352-208A128 128 0 0 0 224-80a128 128 0 0 0 20.23 69.053A224 224 0 0 0 240 32a224 224 0 0 0 224 224 224 224 0 0 0 42.982-4.361 128 128 0 0 0 69.017 20.36 128 128 0 0 0 128-128 128 128 0 0 0-20.23-69.052A224 224 0 0 0 688 32a224 224 0 0 0-224-224 224 224 0 0 0-42.98 4.361A128 128 0 0 0 352-208" filter="url(#a)" opacity=".1" transform="translate(-208 228)"/><path d="M352-208A128 128 0 0 0 224-80a128 128 0 0 0 20.23 69.053A224 224 0 0 0 240 32a224 224 0 0 0 224 224 224 224 0 0 0 42.982-4.361 128 128 0 0 0 69.017 20.36 128 128 0 0 0 128-128 128 128 0 0 0-20.23-69.052A224 224 0 0 0 688 32a224 224 0 0 0-224-224 224 224 0 0 0-42.98 4.361A128 128 0 0 0 352-208" filter="url(#a)" opacity=".2" transform="translate(-208 228)"/><path d="M144 18A128 128 0 0 0 16 146a128 128 0 0 0 20.23 69.053A224 224 0 0 0 32 258a224 224 0 0 0 224 224 224 224 0 0 0 42.982-4.361 128 128 0 0 0 69.017 20.36 128 128 0 0 0 128-128 128 128 0 0 0-20.23-69.052A224 224 0 0 0 480 258 224 224 0 0 0 256 34a224 224 0 0 0-42.98 4.361A128 128 0 0 0 144 18" opacity=".2"/><path fill="#00aff0" d="M144 16A128 128 0 0 0 16 144a128 128 0 0 0 20.23 69.053A224 224 0 0 0 32 256a224 224 0 0 0 224 224 224 224 0 0 0 42.982-4.361 128 128 0 0 0 69.017 20.36 128 128 0 0 0 128-128 128 128 0 0 0-20.23-69.052A224 224 0 0 0 480 256 224 224 0 0 0 256 32a224 224 0 0 0-42.98 4.361A128 128 0 0 0 144 16"/><path fill="#fff" d="M251.55 107.17c73.576 0 111.51 38.835 111.51 61.557s-10.989 26.449-29.049 26.449c-35.055 0-20.657-42.131-86.443-42.131-21.789 0-48.727 9.747-48.727 35.11 0 20.35 23.764 27.834 66.296 38.152 63.944 17.119 112.21 34.442 112.21 92.922 0 56.806-46.835 85.198-120.41 85.198-73.576 0-120.41-43.986-120.41-66.708 0-22.721 8.88-28.554 26.94-28.554 35.055 0 30.027 47.748 95.814 47.748 21.789 0 53.881-9.746 53.881-35.109 0-20.35-1.397-27.542-48.024-40.025-49.814-6.786-130.48-22.936-130.48-84.729 0-56.806 43.321-89.88 116.9-89.88z" enable-background="new"/><path fill="#fff" d="M144 16A128 128 0 0 0 16 144l.041.828a128 128 0 0 1 127.96-126.83 128 128 0 0 1 69.02 20.361 224 224 0 0 1 42.98-4.361 224 224 0 0 1 223.95 223.02l.049-1.02a224 224 0 0 0-224-224 224 224 0 0 0-42.98 4.362A128 128 0 0 0 144 15.999zM36 214.66a224 224 0 0 0-3.996 41.342l.049.98a224 224 0 0 1 4.181-41.928zm440.01 84.684a224 224 0 0 1-.234 1.606 128 128 0 0 1 20.189 68.225 128 128 0 0 0 .04-1.172 128 128 0 0 0-19.995-68.658z" opacity=".2"/></svg>