<svg xmlns="http://www.w3.org/2000/svg" width="512" height="512" enable-background="new" version="1.0"><defs><filter id="a" width="1.048" height="1.048" x="-.024" y="-.024" color-interpolation-filters="sRGB"><feGaussianBlur stdDeviation="4.48"/></filter></defs><g transform="translate(-208 228)"><rect width="448" height="448" x="-256" y="-688" stroke="#000" stroke-width="8" filter="url(#a)" opacity=".1" rx="224" ry="224" transform="scale(1 -1)rotate(90)"/><rect width="448" height="448" x="-256" y="-688" filter="url(#a)" opacity=".2" rx="224" ry="224" transform="scale(1 -1)rotate(90)"/><path d="M464 252c-124.1 0-224-99.904-224-224 0-.674.003-1.336 0-2 0 124.1 99.904 224 224 224s224-99.904 224-224c-.003.664 0 1.326 0 2 0 124.1-99.904 224-224 224" opacity=".2"/></g><rect width="448" height="448" x="-480" y="-480" fill="#f2f2f2" rx="224" ry="224" transform="scale(1 -1)rotate(90)"/><path fill="#fff" d="M256 32C131.9 32 32 131.904 32 256c0 .334.01.666.012 1 .536-123.63 100.23-223 223.99-223s223.45 99.369 223.99 223c0-.334.011-.666.011-1 0-124.1-99.904-224-224-224z" opacity=".2"/><path d="M256 480c-124.1 0-224-99.904-224-224 0-.334.01-.666.012-1 .536 123.63 100.23 223 223.99 223s223.45-99.369 223.99-223c0 .334.011.666.011 1 0 124.1-99.904 224-224 224z" opacity=".1"/><path fill="#2eb67d" d="M290.14 129.401a24.35 24.35 0 0 0-24.348 24.348v68.174a24.35 24.35 0 0 0 24.347 24.348 24.35 24.35 0 0 0 24.348-24.348v-68.174a24.35 24.35 0 0 0-24.348-24.348m68.173 68.174a24.35 24.35 0 0 0-24.348 24.348v24.348h24.348a24.35 24.35 0 0 0 24.348-24.348 24.35 24.35 0 0 0-24.348-24.348"/><path fill="#ecb22e" d="M382.66 290.096a24.35 24.35 0 0 0-24.347-24.347H290.14a24.35 24.35 0 0 0-24.347 24.347 24.35 24.35 0 0 0 24.347 24.348h68.174a24.35 24.35 0 0 0 24.348-24.348m-68.173 68.174a24.35 24.35 0 0 0-24.348-24.348h-24.347v24.348a24.35 24.35 0 0 0 24.347 24.348 24.35 24.35 0 0 0 24.348-24.348"/><path fill="#d6285e" d="M221.966 382.618a24.35 24.35 0 0 0 24.347-24.348v-68.174a24.35 24.35 0 0 0-24.347-24.347 24.35 24.35 0 0 0-24.348 24.347v68.174a24.35 24.35 0 0 0 24.348 24.348m-68.174-68.174a24.35 24.35 0 0 0 24.348-24.348V265.75h-24.348a24.35 24.35 0 0 0-24.348 24.347 24.35 24.35 0 0 0 24.348 24.348"/><path fill="#36c5f0" d="M129.444 221.923a24.35 24.35 0 0 0 24.348 24.348h68.174a24.35 24.35 0 0 0 24.347-24.348 24.35 24.35 0 0 0-24.347-24.348h-68.174a24.35 24.35 0 0 0-24.348 24.348m68.174-68.174a24.35 24.35 0 0 0 24.348 24.348h24.347v-24.348a24.35 24.35 0 0 0-24.347-24.348 24.35 24.35 0 0 0-24.348 24.348"/></svg>