<svg xmlns="http://www.w3.org/2000/svg" width="512" height="512" enable-background="new" version="1.0"><defs><filter id="a" width="1.048" height="1.048" x="-.024" y="-.024" color-interpolation-filters="sRGB"><feGaussianBlur stdDeviation="4.48"/></filter></defs><g transform="translate(-208 228)"><g transform="scale(1 -1)rotate(90)"><rect width="448" height="448" x="-256" y="-688" enable-background="new" filter="url(#a)" opacity=".2" rx="36" ry="36"/><rect width="448" height="448" x="-254" y="-688" enable-background="new" opacity=".2" rx="36" ry="36"/><rect width="448" height="448" x="-256" y="-688" stroke="#000" stroke-width="8" enable-background="new" filter="url(#a)" opacity=".1" rx="36" ry="36"/></g><rect width="448" height="448" x="-252" y="-688" fill="#ececec" enable-background="new" rx="36" ry="36" transform="scale(1 -1)rotate(90)"/><path fill="#fff" d="M276-196c-19.944 0-36 16.056-36 36v2c0-19.944 16.056-36 36-36h376c19.944 0 36 16.056 36 36v-2c0-19.944-16.056-36-36-36z" enable-background="new" opacity=".2"/><g fill="#fff"><path d="M447.876-53.576 319.081 10.031l128.795 63.357v27.764l-159.99-80.888V-.453l159.99-80.887zM479.956-13.531v-27.764l159.99 80.888V60.31l-159.99 80.887v-27.763l128.54-63.358z"/></g><path fill="#3f51b5" d="M447.876-55.576 319.081 8.031l128.795 63.357v27.764l-159.99-80.888V-2.453l159.99-80.887z"/><path fill="#673ab7" d="M479.956-15.531v-27.764l159.99 80.888V58.31l-159.99 80.887v-27.763l128.54-63.358z"/></g></svg>