<svg width="512" height="512" enable-background="new" version="1.0" xmlns="http://www.w3.org/2000/svg" xmlns:osb="http://www.openswatchbook.org/uri/2009/osb" xmlns:xlink="http://www.w3.org/1999/xlink">
 <defs>
  <filter id="a" x="-.024" y="-.024" width="1.048" height="1.048" color-interpolation-filters="sRGB">
   <feGaussianBlur stdDeviation="4.48"/>
  </filter>
 </defs>
 <g transform="translate(0,212)">
  <g></g>
  <g transform="translate(-208,16)">
   <g>
    <rect transform="matrix(0,-1,-1,0,0,0)" x="-256" y="-688" width="448" height="448" rx="36" ry="36" enable-background="new" filter="url(#a)" opacity=".2"/>
    <rect transform="matrix(0,-1,-1,0,0,0)" x="-254" y="-688" width="448" height="448" rx="36" ry="36" enable-background="new" opacity=".2"/>
    <rect transform="matrix(0,-1,-1,0,0,0)" x="-256" y="-688" width="448" height="448" rx="36" ry="36" enable-background="new" filter="url(#a)" opacity=".1" stroke="#000" stroke-width="8"/>
   </g>
   <rect transform="matrix(0,-1,-1,0,0,0)" x="-252" y="-688" width="448" height="448" rx="36" ry="36" enable-background="new" fill="#ececec"/>
   <path transform="translate(0,-244)" d="m276 48c-19.944 0-36 16.056-36 36v2c0-19.944 16.056-36 36-36h376c19.944 0 36 16.056 36 36v-2c0-19.944-16.056-36-36-36z" enable-background="new" fill="#fff" opacity=".2"/>
   <g transform="matrix(11.062 0 0 11.062 -1394.5 -2866.2)" enable-background="new" fill="#fff">
    <path d="m166.55 254.26-11.643 5.75 11.643 5.7275v2.5098l-14.463-7.3122v-1.8728l14.463-7.3122z"/>
    <path d="m169.45 257.88v-2.5098l14.463 7.3122v1.8728l-14.463 7.3122v-2.5098l11.62-5.7275z"/>
   </g>
   <g transform="matrix(11.062 0 0 11.062 -1394.5 -2868.2)" enable-background="new">
    <path d="m166.55 254.26-11.643 5.75 11.643 5.7275v2.5098l-14.463-7.3122v-1.8728l14.463-7.3122z" fill="#3f51b5"/>
    <path d="m169.45 257.88v-2.5098l14.463 7.3122v1.8728l-14.463 7.3122v-2.5098l11.62-5.7275z" fill="#673ab7"/>
   </g>
  </g>
 </g>
</svg>
