<svg width="512" height="512" enable-background="new" version="1.0" xmlns="http://www.w3.org/2000/svg">
 <defs>
  <filter id="a" x="-.024" y="-.024" width="1.048" height="1.048" color-interpolation-filters="sRGB">
   <feGaussianBlur stdDeviation="4.8"/>
  </filter>
 </defs>
 <circle cx="256" cy="258" r="240" enable-background="new" opacity=".2"/>
 <circle cx="256" cy="260" r="240" enable-background="new" filter="url(#a)" opacity=".1"/>
 <circle cx="256" cy="260" r="240" enable-background="new" filter="url(#a)" opacity=".2"/>
 <circle cx="256" cy="256" r="240" enable-background="new" fill="#00897b"/>
 <path d="M 256,16 A 240,240 0 0 0 16,256 240,240 0 0 0 16.041,257.17188 240,240 0 0 1 256,18 240,240 0 0 1 495.95898,256.82812 240,240 0 0 0 496,256 240,240 0 0 0 256,16 Z" enable-background="new" fill="#ffffff" opacity=".2"/>
 <path d="m256 16a240 240 0 0 0-240 239.94h0.009766v0.25196a240 240 0 0 0 34.07 122.21l77.934-122.46h-64.004c0-106.61 85.392-192 192-192v-47.941a240 240 0 0 0-0.01172 0zm206.15 117.14-78.148 122.8h64.004c0 106.61-85.392 192-192 192v48.062a240 240 0 0 0 239.99-240 240 240 0 0 0-33.846-122.86z" fill="#000000" opacity=".15" stroke-width="10.909"/>
 <path d="m229.5 160h-21.5v115c-5.0635-1.816-10.311-2.9999-16-2.9999-26.51 0-48 21.49-48 48 0 26.509 21.49 48 48 48s48-21.491 48-48v-112h80v67c-5.0635-1.816-10.312-2.9999-16-2.9999-26.51 0-48 21.49-48 48 0 26.509 21.49 48 48 48s48-21.491 48-48v-160z" enable-background="new" fill="#ffffff" filter="url(#filter14069)"/>
</svg>
