<svg xmlns="http://www.w3.org/2000/svg" width="512" height="512" enable-background="new" version="1.0"><defs><filter id="a" width="1.048" height="1.048" x="-.024" y="-.024" color-interpolation-filters="sRGB"><feGaussianBlur stdDeviation="4.48"/></filter></defs><g transform="translate(-208 228)"><rect width="448" height="448" x="-256" y="-688" stroke="#000" stroke-width="8" filter="url(#a)" opacity=".1" rx="224" ry="224" transform="scale(1 -1)rotate(90)"/><rect width="448" height="448" x="-256" y="-688" filter="url(#a)" opacity=".2" rx="224" ry="224" transform="scale(1 -1)rotate(90)"/><rect width="448" height="448" x="-252" y="-688" fill="#ff7043" rx="224" ry="224" transform="scale(1 -1)rotate(90)"/><path fill="#fff" d="M464-196c-124.1 0-224 99.904-224 224 0 .674.003 1.336 0 2 0-124.1 99.904-224 224-224S688-94.096 688 30c-.003-.664 0-1.326 0-2 0-124.1-99.904-224-224-224" opacity=".2"/><path fill="#fff" d="M464-116c-26.592 0-48 21.408-48 48V44c0 26.592 21.408 48 48 48s48-21.408 48-48V-68c0-26.592-21.408-48-48-48M368 44c0 48.202 34.603 87.77 80 94.781V172h32v-33.219c45.397-7.011 80-46.579 80-94.781V12h-31.984v32c0 35.179-28.84 63.984-64.02 63.984S400.012 79.179 400.012 44V12H368z" color="#bebebe"/><path d="M464 252c-124.1 0-224-99.904-224-224 0-.674.003-1.336 0-2 0 124.1 99.904 224 224 224s224-99.904 224-224c-.003.664 0 1.326 0 2 0 124.1-99.904 224-224 224" opacity=".2"/></g><path fill="none" d="M256 112c-26.592 0-48 21.408-48 48v96c0 26.592 21.408 48 48 48s48-21.408 48-48v-96c0-26.592-21.408-48-48-48m-96 128v16c0 48.202 34.603 87.77 80 94.781V400h32v-49.219c45.397-7.011 80-46.579 80-94.781v-16h-31.984v16c0 35.179-28.84 63.984-64.02 63.984S192.012 291.179 192.012 256v-16H176z" color="#bebebe"/></svg>