<svg xmlns="http://www.w3.org/2000/svg" width="512" height="512" enable-background="new" version="1.0"><defs><filter id="a" width="1.048" height="1.048" x="-.024" y="-.024" color-interpolation-filters="sRGB"><feGaussianBlur stdDeviation="4.8"/></filter></defs><circle cx="256" cy="258" r="240" opacity=".2"/><circle cx="256" cy="260" r="240" filter="url(#a)" opacity=".1"/><circle cx="256" cy="260" r="240" filter="url(#a)" opacity=".2"/><circle cx="256" cy="256" r="240" fill="#00897b"/><path fill="#fff" d="M256 16A240 240 0 0 0 16 256l.041 1.172A240 240 0 0 1 256 18a240 240 0 0 1 239.959 238.828L496 256A240 240 0 0 0 256 16" opacity=".2"/><path d="M256 16A240 240 0 0 0 16 255.94h.01v.252a240 240 0 0 0 34.07 122.21l77.934-122.46H64.01c0-106.61 85.392-192 192-192V16.001h-.012zm206.15 117.14-78.148 122.8h64.004c0 106.61-85.392 192-192 192v48.062a240 240 0 0 0 239.99-240 240 240 0 0 0-33.846-122.86z" opacity=".15"/><path fill="#fff" d="M229.5 160H208v115c-5.063-1.816-10.311-3-16-3-26.51 0-48 21.49-48 48s21.49 48 48 48 48-21.49 48-48V208h80v67c-5.063-1.816-10.312-3-16-3-26.51 0-48 21.49-48 48s21.49 48 48 48 48-21.49 48-48V160z" filter="url(#filter14069)"/></svg>