<svg width="512" height="512" enable-background="new" version="1.0" xmlns="http://www.w3.org/2000/svg" xmlns:osb="http://www.openswatchbook.org/uri/2009/osb" xmlns:xlink="http://www.w3.org/1999/xlink">
 <defs>
  <filter id="a" x="-.024" y="-.024" width="1.048" height="1.048" color-interpolation-filters="sRGB">
   <feGaussianBlur stdDeviation="4.8"/>
  </filter>
  <clipPath id="b">
   <circle cx="168" cy="260" r="22" fill="#e91e63"/>
  </clipPath>
 </defs>
 <g transform="translate(0,212)">
  <g></g>
  <g>
   <g transform="translate(-208,16)">
    <g>
     <circle cx="464" cy="30" r="240" enable-background="new" opacity=".2"/>
     <circle cx="464" cy="32" r="240" enable-background="new" filter="url(#a)" opacity=".1"/>
     <circle cx="464" cy="32" r="240" enable-background="new" filter="url(#a)" opacity=".2"/>
    </g>
    <circle cx="464" cy="28" r="240" enable-background="new" fill="#00897b"/>
    <path transform="translate(0,-244)" d="m 464,32 a 240,240 0 0 0 -240,240 240,240 0 0 0 0.041,1.17188 A 240,240 0 0 1 464,34 240,240 0 0 1 703.95898,272.82812 240,240 0 0 0 704,272 240,240 0 0 0 464,32 Z" enable-background="new" fill="#fff" opacity=".2"/>
    <g transform="matrix(10.909 0 0 10.909 -1368.7 -2808.4)" clip-path="url(#b)" enable-background="new">
     <path d="m146 260v16.133l10.267-16.133z" fill-rule="evenodd" opacity=".2"/>
     <path d="m146 260a22 22 0 0 1 22-22" fill="none" opacity=".2" stroke="#000" stroke-width="8.8"/>
     <path d="m190 260-5e-5 -16.133-10.267 16.133z" fill-rule="evenodd" opacity=".2"/>
     <path transform="scale(-1)" d="m-190-260a22 22 0 0 1 22-22" fill="none" opacity=".2" stroke="#000" stroke-width="8.8"/>
    </g>
    <path d="m437.5-68h-21.5v115c-5.0635-1.816-10.311-2.9999-16-2.9999-26.51 0-48 21.49-48 48 0 26.509 21.49 48 48 48 26.51 0 48-21.491 48-48v-112h80v67c-5.0635-1.816-10.312-2.9999-16-2.9999-26.51 0-48 21.49-48 48 0 26.509 21.49 48 48 48 26.51 0 48-21.491 48-48v-160z" enable-background="new" fill="#fff" filter="url(#filter14069)"/>
   </g>
  </g>
 </g>
</svg>
