<svg xmlns="http://www.w3.org/2000/svg" width="512" height="512" enable-background="new" version="1.0"><defs><filter id="a" width="1.045" height="1.051" x="-.023" y="-.025" color-interpolation-filters="sRGB"><feGaussianBlur stdDeviation="4.24"/></filter><filter id="c" width="1.107" height="1.136" x="-.054" y="-.068" color-interpolation-filters="sRGB"><feGaussianBlur stdDeviation="10"/></filter><filter id="e" width="1.047" height="1.049" x="-.024" y="-.024" color-interpolation-filters="sRGB"><feGaussianBlur stdDeviation="1.646"/></filter><clipPath id="b"><path fill="#bb9e7b" d="M240 100v-256c0-.22 0-24 24-24h176l48 48h176c13.296 0 24 10.704 24 24v208c0 13.296-10.704 24-24 24H264c-13.296 0-24-10.704-24-24"/></clipPath></defs><path d="M264-160c-24 0-24 23.779-24 24v352c0 13.296 10.704 24 24 24h400c13.296 0 24-10.704 24-24V-88c0-3.406-.708-6.64-1.977-9.57-2.47-6.446-8.044-13.85-20.582-14.383A25 25 0 0 0 664-112H488l-48-48z" filter="url(#a)" opacity=".2" transform="translate(-208 228)"/><path d="M264-160c-24 0-24 23.779-24 24v352c0 13.296 10.704 24 24 24h400c13.296 0 24-10.704 24-24V-88c0-3.406-.708-6.64-1.977-9.57-2.47-6.446-8.044-13.85-20.582-14.383A25 25 0 0 0 664-112H488l-48-48z" filter="url(#a)" opacity=".05" transform="translate(-208 228)"/><path fill="#f57c00" d="M32 344V88c0-.22 0-24 24-24h176l48 48h176c13.296 0 24 10.704 24 24v208c0 13.296-10.704 24-24 24H56c-13.296 0-24-10.704-24-24"/><path fill="#fff" d="M56 64c-24 0-24 23.779-24 24v2c0-.22 0-24 24-24h176l48 48h176c13.296 0 24 10.704 24 24v-2c0-13.296-10.704-24-24-24H280l-48-48z" opacity=".2"/><path d="M688 196v-304c0 .22 0-24-24-24H488l-48 48H264c-13.296 0-24 10.704-24 24v256c0 13.296 10.704 24 24 24h400c13.296 0 24-10.704 24-24" clip-path="url(#b)" filter="url(#c)" opacity=".3" transform="translate(-208 248)"/><path fill="#ff9800" d="M480 440V136c0 .22 0-24-24-24H280l-48 48H56c-13.296 0-24 10.704-24 24v256c0 13.296 10.704 24 24 24h400c13.296 0 24-10.704 24-24"/><path fill="#fff" d="m280 112-48 48H56c-13.296 0-24 10.704-24 24v2c0-13.296 10.704-24 24-24h176l48-48h176c24 0 24 24.221 24 24v-2c0 .22 0-24-24-24z" opacity=".2"/><path d="M32 436v4c0 13.296 10.704 24 24 24h400c13.296 0 24-10.704 24-24v-4c0 13.296-10.704 24-24 24H56c-13.296 0-24-10.704-24-24" opacity=".1"/><path d="M550.99 14.93v.012a12 12 0 0 0-.6.013c-.055.003-.107-.01-.162-.007a12 12 0 0 0-4.547 1.187c-6.85 2.227-12.035 7.464-13.869 14.734l.248-.853-13.299 39.957h-41.426c-6.689 0-12.185 3.069-16.008 7.703-8.596 9.896-6.767 24.032 4.096 31.418l-.355-.25 33.418 24.54-12.875 40.206a12 12 0 0 0-.112.365c-2.665 9.336 2.15 17.73 8.096 22.195s15.366 6.75 23.584 1.568a12 12 0 0 0 .701-.478l34.012-24.975 34.016 24.975a12 12 0 0 0 .528.367c8.289 5.428 18.393 4.614 25.73-1.941l.154-.14c6.092-5.634 8.343-13.748 5.92-21.75l-.06-.18-12.878-40.206 33.416-24.54-.373.263c10.88-7.372 12.69-21.512 4.136-31.396-3.936-4.8-9.458-7.529-15.639-7.73a12 12 0 0 0-.39-.006h-42.166l-12.502-39.764.148.511c-1.019-3.827-3.038-7.19-5.941-9.918-3.564-3.411-8.072-5.356-12.943-5.73a12 12 0 0 0-1.584-.143l-.168-.006zm.816 31.76 11.682 37.158a12 12 0 0 0 6.032 7.11l3.425 1.732a12 12 0 0 0 5.416 1.29h40.06l-32.55 23.905a12 12 0 0 0-4.658 7.287c.65-3.203.467-1.718-.353.258-.41.988-1.322 2.188-1.192 6.088.044 1.328.571 3.15 1.434 4.998l11.486 35.855-31.121-22.85a12 12 0 0 0-7.102-2.328h-4.947a12 12 0 0 0-7.101 2.328l-31.113 22.848 11.859-37.033a12 12 0 0 0 .341-5.996l-.818-4.127a12 12 0 0 0-4.668-7.336l-32.551-23.904h39.199a12 12 0 0 0 5.416-1.291l3.426-1.733a12 12 0 0 0 5.97-6.92z" color="#000" enable-background="new" filter="url(#e)" opacity=".2" style="isolation:auto;mix-blend-mode:normal;text-decoration-color:#000;text-decoration-line:none;text-decoration-style:solid;text-indent:0;text-transform:none;white-space:normal" transform="translate(-208 228)"/><path fill="none" stroke="#fff" stroke-linecap="round" stroke-linejoin="round" stroke-width="24" d="M343.18 252.926c-3.632.468-6.834 3.324-7.73 6.879l-15.456 46.435-3.425 1.732h-47.231c-2.64 0-5.216 1.376-6.871 3.44-3.482 3.902-2.61 10.825 1.706 13.758l38.645 28.378.819 4.127-14.595 45.573c-2.03 7.113 7.487 14.262 13.739 10.32l38.639-28.375h4.946l38.645 28.374c3.362 2.201 8.176 1.817 11.162-.85 2.529-2.34 3.583-6.161 2.584-9.461l-14.6-45.573c-1.382-.278.54-2.752.819-4.127l38.64-28.379c4.328-2.932 5.186-9.856 1.706-13.758-1.641-2.062-4.228-3.353-6.869-3.44h-48.09l-3.426-1.732-14.599-46.432a9.14 9.14 0 0 0-2.584-4.3c-1.814-1.761-4.354-2.725-6.868-2.587l.306.003h0z" enable-background="new"/></svg>