<svg width="512" height="512" enable-background="new" version="1.0" xmlns="http://www.w3.org/2000/svg" xmlns:osb="http://www.openswatchbook.org/uri/2009/osb">
 <defs>
  <clipPath id="d">
   <path d="m240 100v-256c0-0.2208 0-24 24-24h176l48 48h176c13.296 0 24 10.704 24 24v208c0 13.296-10.704 24-24 24h-400c-13.296 0-24-10.704-24-24z" fill="#bb9e7b"/>
  </clipPath>
  <filter id="a" x="-.022714" y="-.02544" width="1.0454" height="1.0509" color-interpolation-filters="sRGB">
   <feGaussianBlur stdDeviation="4.24"/>
  </filter>
  <filter id="c" x="-.053571" y="-.068182" width="1.1071" height="1.1364" color-interpolation-filters="sRGB">
   <feGaussianBlur stdDeviation="10"/>
  </filter>
  <filter id="b" x="-.023635" y="-.024376" width="1.0473" height="1.0488" color-interpolation-filters="sRGB">
   <feGaussianBlur stdDeviation="1.6462093"/>
  </filter>
 </defs>
 <g transform="translate(0,212)">
  <g>
   <g transform="translate(-208,16)">
    <g>
     <path d="m264-160c-24 0-24 23.779-24 24v352c0 13.296 10.704 24 24 24h400c13.296 0 24-10.704 24-24v-304c0-3.4065-0.7078-6.6405-1.9766-9.5703-2.4696-6.4453-8.0441-13.849-20.582-14.383-0.4772-0.028-0.9569-0.0469-1.4414-0.0469h-176l-48-48h-176z" filter="url(#a)" opacity=".2" stroke-width="0"/>
     <path d="m264-160c-24 0-24 23.779-24 24v352c0 13.296 10.704 24 24 24h400c13.296 0 24-10.704 24-24v-304c0-3.4065-0.7078-6.6405-1.9766-9.5703-2.4696-6.4453-8.0441-13.849-20.582-14.383-0.4772-0.028-0.9569-0.0469-1.4414-0.0469h-176l-48-48h-176z" filter="url(#a)" opacity=".05" stroke-width="0"/>
     <path d="m240 116v-256c0-0.2208 0-24 24-24h176l48 48h176c13.296 0 24 10.704 24 24v208c0 13.296-10.704 24-24 24h-400c-13.296 0-24-10.704-24-24z" fill="#f57c00"/>
     <path d="m264-164c-24 0-24 23.779-24 24v2c0-0.2208 0-24 24-24h176l48 48h176c13.296 0 24 10.704 24 24v-2c0-13.296-10.704-24-24-24h-176l-48-48z" fill="#fff" opacity=".2"/>
     <path transform="translate(0,20)" d="m688 196v-304c0 0.2208 0-24-24-24h-176l-48 48h-176c-13.296 0-24 10.704-24 24v256c0 13.296 10.704 24 24 24h400c13.296 0 24-10.704 24-24z" clip-path="url(#d)" filter="url(#c)" opacity=".3"/>
     <path d="m688 212v-304c0 0.2208 0-24-24-24h-176l-48 48h-176c-13.296 0-24 10.704-24 24v256c0 13.296 10.704 24 24 24h400c13.296 0 24-10.704 24-24z" fill="#ff9800"/>
     <path d="m488-116-48 48h-176c-13.296 0-24 10.704-24 24v2c0-13.296 10.704-24 24-24h176l48-48h176c24 0 24 24.221 24 24v-2c0 0.2208 0-24-24-24z" fill="#fff" opacity=".2"/>
     <path d="m240 208v4c0 13.296 10.704 24 24 24h400c13.296 0 24-10.704 24-24v-4c0 13.296-10.704 24-24 24h-400c-13.296 0-24-10.704-24-24z" opacity=".1"/>
     <path d="m550.99 14.93v0.01172a12.001 12.001 0 0 0-0.5996 0.01367c-0.055 0.0026-0.107-0.01083-0.1621-0.0078a12.001 12.001 0 0 0-4.5469 1.1875c-6.8507 2.227-12.035 7.4637-13.869 14.734l0.248-0.85352-13.299 39.957h-41.426c-6.6893 0-12.185 3.069-16.008 7.7031-8.5965 9.8963-6.7676 24.032 4.0957 31.418l-0.3554-0.25 33.418 24.541-12.875 40.205a12.001 12.001 0 0 0-0.1113 0.36524c-2.6652 9.3357 2.1505 17.73 8.0957 22.195s15.366 6.751 23.584 1.5684a12.001 12.001 0 0 0 0.7012-0.47852l34.012-24.975 34.016 24.975a12.001 12.001 0 0 0 0.5273 0.36719c8.2894 5.4276 18.393 4.6137 25.73-1.9414a12.001 12.001 0 0 0 0.1543-0.13868c6.0917-5.6345 8.3436-13.749 5.9199-21.75a12.001 12.001 0 0 0-0.059-0.18164l-12.879-40.205 33.416-24.541-0.3731 0.26367c10.88-7.3717 12.69-21.512 4.1367-31.396-3.9363-4.7995-9.4582-7.5288-15.639-7.7305a12.001 12.001 0 0 0-0.3907-0.0059h-42.166l-12.502-39.764 0.1484 0.51172c-1.0188-3.8268-3.0378-7.1903-5.9414-9.918-3.5638-3.4117-8.0715-5.3563-12.943-5.7305a12.001 12.001 0 0 0-1.584-0.14258 12.001 12.001 0 0 0-0.1679-0.0059l-0.3067-2e-3zm0.8164 31.76 11.682 37.158a12.001 12.001 0 0 0 6.0312 7.1094l3.4258 1.7324a12.001 12.001 0 0 0 5.416 1.291h40.059l-32.549 23.904a12.001 12.001 0 0 0-4.6582 7.2871c0.6496-3.2026 0.4671-1.718-0.3535 0.25781-0.4103 0.98789-1.3219 2.1885-1.1914 6.0879 0.044 1.3283 0.5708 3.1513 1.4336 4.998l11.486 35.855-31.121-22.85a12.001 12.001 0 0 0-7.1016-2.3281h-4.9472a12.001 12.001 0 0 0-7.1016 2.3281l-31.113 22.848 11.859-37.033a12.001 12.001 0 0 0 0.3418-5.9961l-0.8184-4.127a12.001 12.001 0 0 0-4.6679-7.3359l-32.551-23.904h39.199a12.001 12.001 0 0 0 5.416-1.291l3.4258-1.7324a12.001 12.001 0 0 0 5.9707-6.9199z" color="#000000" color-rendering="auto" enable-background="new" filter="url(#b)" image-rendering="auto" opacity=".2" shape-rendering="auto" solid-color="#000000" style="isolation:auto;mix-blend-mode:normal;text-decoration-color:#000000;text-decoration-line:none;text-decoration-style:solid;text-indent:0;text-transform:none;white-space:normal"/>
    </g>
    <path d="m551.18 24.926c-3.6316 0.46801-6.8338 3.3238-7.7305 6.8787l-15.455 46.435-3.4255 1.7326h-47.231c-2.6401 0-5.2164 1.3758-6.8714 3.4393-3.4813 3.9021-2.6087 10.825 1.7063 13.758l38.645 28.378 0.8191 4.1275-14.595 45.573c-2.0306 7.1127 7.4866 14.262 13.739 10.319l38.639-28.374h4.9464l38.645 28.374c3.3616 2.2011 8.1754 1.8168 11.162-0.85093 2.5284-2.3386 3.5829-6.1605 2.5834-9.4602l-14.6-45.573c-1.3822-0.27774 0.5402-2.7518 0.8191-4.1268l38.64-28.379c4.3284-2.9326 5.1858-9.8563 1.7063-13.758-1.6416-2.0624-4.2286-3.3533-6.8688-3.4394h-48.091l-3.4254-1.7325-14.599-46.432c-0.4325-1.6246-1.3399-3.143-2.5843-4.3009-1.8136-1.7604-4.3537-2.724-6.8679-2.5864l0.306 0.0027v0z" enable-background="new" fill="none" stroke="#fff" stroke-linecap="round" stroke-linejoin="round" stroke-width="24"/>
   </g>
  </g>
 </g>
</svg>
