<svg xmlns="http://www.w3.org/2000/svg" width="512" height="512" enable-background="new" version="1.0"><defs><filter id="a" width="1.048" height="1.048" x="-.024" y="-.024" color-interpolation-filters="sRGB"><feGaussianBlur stdDeviation="4.8"/></filter></defs><g transform="translate(-208 228)"><circle cx="464" cy="32" r="240" filter="url(#a)" opacity=".1"/><circle cx="464" cy="32" r="240" filter="url(#a)" opacity=".2"/><circle cx="464" cy="28" r="240" fill="#1ed760"/><path fill="#fff" d="M464-212A240 240 0 0 0 224 28l.041 1.172A240 240 0 0 1 464-210 240 240 0 0 1 703.959 28.828L704 28a240 240 0 0 0-240-240" opacity=".2"/><path fill="#191515" d="M537.9 126.74c-48.409-25.754-105.16-32.023-172.66-19.07-18.852 3.618-20.188 3.708-24.206 1.628-9.848-5.095-9.672-19.92.287-24.31 4.662-2.054 25.152-6.11 42.679-8.447 60.682-8.092 115.74-.254 162.27 23.096 19.766 9.92 23.354 13.532 22.48 22.626-.685 7.126-4.69 10.95-11.93 11.39-4.956.3-6.247-.171-18.919-6.912zm22.903-60.213c-9.067-4.663-20.51-10.032-25.429-11.931-33.172-12.811-70.979-19.591-109.24-19.591-27.067 0-47.973 2.594-73.341 9.099-9.915 2.542-12.305 2.84-15.619 1.948-10.148-2.733-15.785-13.862-11.823-23.345 2.32-5.554 7.53-9.182 16.767-11.674C354.743 7.626 371.053 4.328 385 2.36c17.767-2.506 65.123-2.509 83.5-.004 40.46 5.513 73.758 15.46 104.5 31.215 20.169 10.336 24.004 14.158 23.996 23.917-.007 9.438-7.58 17.16-17.101 17.44-1.433.041-10.024-3.74-19.091-8.402zm26.662-69.355c-23.179-11.821-45.153-19.244-74.142-25.046-55.769-11.161-121.99-10.514-166.78 1.628-6.506 1.764-12.574 2.729-17.214 2.737-6.361.012-7.645-.324-11.423-2.987-6.295-4.437-9.16-10.444-8.692-18.229.71-11.834 6.71-17.01 25.235-21.764 68.238-17.516 160.63-13.916 230.05 8.962 25.353 8.357 55.357 22.855 60.06 29.023 7.828 10.262 4.436 25.943-6.786 31.376-8.243 3.99-13.1 3.077-30.31-5.7z" enable-background="new"/></g></svg>