<svg width="512" height="512" enable-background="new" version="1.0" xmlns="http://www.w3.org/2000/svg" xmlns:osb="http://www.openswatchbook.org/uri/2009/osb" xmlns:xlink="http://www.w3.org/1999/xlink">
 <defs>
  <filter id="a" x="-.024" y="-.024" width="1.048" height="1.048" color-interpolation-filters="sRGB">
   <feGaussianBlur stdDeviation="4.8"/>
  </filter>
 </defs>
 <g transform="translate(0,212)">
  <g>
   <g transform="translate(-208,16)">
    <circle cx="464" cy="32" r="240" filter="url(#a)" opacity=".1"/>
    <circle cx="464" cy="32" r="240" filter="url(#a)" opacity=".2"/>
    <circle cx="464" cy="28" r="240" fill="#1ed760"/>
    <path transform="translate(0,-244)" d="m 464,32 a 240,240 0 0 0 -240,240 240,240 0 0 0 0.041,1.17188 A 240,240 0 0 1 464,34 240,240 0 0 1 703.95898,272.82812 240,240 0 0 0 704,272 240,240 0 0 0 464,32 Z" fill="#fff" opacity=".2"/>
    <path d="m537.9 126.74c-48.409-25.754-105.16-32.023-172.66-19.07-18.852 3.6178-20.188 3.7076-24.206 1.6284-9.8476-5.095-9.6725-19.921 0.28698-24.31 4.6624-2.0544 25.152-6.1096 42.679-8.4469 60.682-8.0921 115.74-0.25497 162.27 23.096 19.766 9.9204 23.354 13.532 22.48 22.626-0.68464 7.1252-4.69 10.949-11.93 11.389-4.9557 0.30126-6.2471-0.17057-18.919-6.912zm22.903-60.213c-9.0675-4.6626-20.51-10.032-25.429-11.931-33.172-12.811-70.979-19.591-109.24-19.591-27.067 0-47.973 2.5936-73.341 9.0986-9.9151 2.5424-12.305 2.8406-15.619 1.9482-10.148-2.7326-15.785-13.862-11.823-23.345 2.3206-5.554 7.5307-9.1814 16.767-11.674 12.625-3.4065 28.935-6.7051 42.882-8.6722 17.767-2.5059 65.123-2.5082 83.5-4e-3 40.46 5.5134 73.758 15.46 104.5 31.215 20.169 10.336 24.004 14.158 23.996 23.917-7e-3 9.4381-7.5806 17.161-17.101 17.44-1.4328 0.0418-10.024-3.7388-19.091-8.4014zm26.662-69.355c-23.179-11.821-45.153-19.244-74.142-25.046-55.769-11.161-121.99-10.514-166.78 1.6283-6.5056 1.7637-12.574 2.7286-17.214 2.737-6.361 0.0114-7.6448-0.32428-11.423-2.9871-6.2954-4.4367-9.1597-10.444-8.6922-18.229 0.71049-11.834 6.7111-17.01 25.235-21.764 68.238-17.516 160.63-13.916 230.05 8.9622 25.353 8.3565 55.357 22.855 60.061 29.023 7.8275 10.262 4.4355 25.943-6.7873 31.376-8.243 3.9904-13.1 3.077-30.309-5.6996z" enable-background="new" fill="#191515"/>
   </g>
  </g>
 </g>
</svg>
