<svg width="512" height="512" enable-background="new" version="1.0" xmlns="http://www.w3.org/2000/svg">
 <defs>
  <filter id="b" x="-.024" y="-.024" width="1.048" height="1.048" color-interpolation-filters="sRGB">
   <feGaussianBlur stdDeviation="4.48"/>
  </filter>
  <filter id="a" x="-.024" y="-.024" width="1.048" height="1.048" color-interpolation-filters="sRGB">
   <feGaussianBlur stdDeviation="4.48"/>
  </filter>
 </defs>
 <rect transform="matrix(0,-1,-1,0,-208,228)" x="-256" y="-688" width="448" height="448" rx="224" ry="224" enable-background="new" filter="url(#a)" opacity=".2"/>
 <rect transform="matrix(0,-1,-1,0,-208,228)" x="-256" y="-688" width="448" height="448" rx="224" ry="224" enable-background="new" filter="url(#b)" opacity=".1" stroke="#000" stroke-width="8"/>
 <circle cx="256" cy="256" r="224" fill="#333"/>
 <path d="m330.66 121.62a82.135 82.135 0 0 0-82.135 82.135 82.135 82.135 0 0 0 0.11719 2.334l-59.852 79.801 0.95507 0.38281a59.734 59.734 0 0 0-21.559 6.7051l-135.15-57.924a224 224 0 0 0-1.0488 20.969 224 224 0 0 0 9.4785 63.881l97.299 41.701a59.734 59.734 0 0 0 57.492 43.754 59.734 59.734 0 0 0 59.734-59.734 59.734 59.734 0 0 0-0.26953-5.3965l72.561-54.422a82.135 82.135 0 0 0 2.377 0.08399 82.135 82.135 0 0 0 82.135-82.135 82.135 82.135 0 0 0-82.135-82.135zm0 29.867a52.268 52.268 0 0 1 52.268 52.268 52.268 52.268 0 0 1-52.268 52.268 52.268 52.268 0 0 1-52.268-52.268 52.268 52.268 0 0 1 52.268-52.268zm0 14.934a37.334 37.334 0 0 0-37.334 37.334 37.334 37.334 0 0 0 37.334 37.334 37.334 37.334 0 0 0 37.334-37.334 37.334 37.334 0 0 0-37.334-37.334zm-134.4 134.4h0.00195a44.801 44.801 0 0 1 44.801 44.801 44.801 44.801 0 0 1-44.801 44.801 44.801 44.801 0 0 1-37.434-20.225l22.727 9.7383 0.01758-0.03907a37.334 37.334 0 0 0 14.689 3.0586 37.334 37.334 0 0 0 37.334-37.334 37.334 37.334 0 0 0-22.645-34.275l0.01757-0.03906-22.732-9.7422a44.801 44.801 0 0 1 8.0234-0.74414z" fill="#e8eaf6" stroke-width="1.8667"/>
 <path d="m256 32c-124.1 0-224 99.904-224 224 0 0.67412 3e-3 1.3363 0 2 0-124.1 99.904-224 224-224s224 99.904 224 224c-3e-3 -0.66367 0-1.3259 0-2 0-124.1-99.904-224-224-224z" fill="#fff" opacity=".2"/>
 <path d="m256 480c-124.1 0-224-99.904-224-224 0-0.67412 3e-3 -1.3363 0-2 0 124.1 99.904 224 224 224s224-99.904 224-224c-3e-3 0.66367 0 1.3259 0 2 0 124.1-99.904 224-224 224z" opacity=".1"/>
</svg>
