<svg width="512" height="512" enable-background="new" version="1.0" xmlns="http://www.w3.org/2000/svg" xmlns:xlink="http://www.w3.org/1999/xlink">
 <defs>
  <filter id="b" x="-.024" y="-.024" width="1.048" height="1.048" color-interpolation-filters="sRGB">
   <feGaussianBlur stdDeviation="4.48"/>
  </filter>
  <filter id="a" x="-.024" y="-.024" width="1.048" height="1.048" color-interpolation-filters="sRGB">
   <feGaussianBlur stdDeviation="4.48"/>
  </filter>
  <clipPath id="c">
   <circle cx="-240" cy="576" r="120" fill="#f00" opacity=".2"/>
  </clipPath>
 </defs>
 <g transform="translate(0,212)">
  <g>
   <g transform="translate(-208,16)">
    <rect transform="matrix(0,-1,-1,0,0,0)" x="-256" y="-688" width="448" height="448" rx="224" ry="224" enable-background="new" filter="url(#a)" opacity=".2"/>
    <rect transform="matrix(0,-1,-1,0,0,0)" x="-256" y="-688" width="448" height="448" rx="224" ry="224" enable-background="new" filter="url(#b)" opacity=".1" stroke="#000" stroke-width="8"/>
    <circle cx="464" cy="28" r="224" fill="#333"/>
    <path transform="matrix(1.8667 0 0 1.8667 912 -1047.2)" d="m-200 504a44 44 0 0 0-44 44 44 44 0 0 0 0.0625 1.25l-32.062 42.75 0.51172 0.20508a32 32 0 0 0-11.549 3.5918l-89.084-38.18-7.8789 38.383v-40l-7.8789 38.383 89.08 38.178a32 32 0 0 0 30.799 23.439 32 32 0 0 0 32-32 32 32 0 0 0-0.14453-2.8906l38.871-29.154a44 44 0 0 0 1.2734 0.04492 44 44 0 0 0 44-44 44 44 0 0 0-44-44zm0 16a28 28 0 0 1 28 28 28 28 0 0 1-28 28 28 28 0 0 1-28-28 28 28 0 0 1 28-28zm0 8a20 20 0 0 0-20 20 20 20 0 0 0 20 20 20 20 0 0 0 20-20 20 20 0 0 0-20-20zm-72 72a24 24 0 0 1 24 24 24 24 0 0 1-24 24 24 24 0 0 1-20.053-10.834l12.174 5.2168 0.01-0.0215a20 20 0 0 0 7.8689 1.6387 20 20 0 0 0 20-20 20 20 0 0 0-12.131-18.361l0.01-0.0215-12.178-5.2188a24 24 0 0 1 4.2986-0.39842z" clip-path="url(#c)" fill="#e8eaf6"/>
    <path transform="translate(0,-244)" d="m464 48c-124.1 0-224 99.904-224 224 0 0.67412 3e-3 1.3363 0 2 0-124.1 99.904-224 224-224s224 99.904 224 224c-3e-3 -0.66367 0-1.3259 0-2 0-124.1-99.904-224-224-224z" fill="#fff" opacity=".2"/>
    <path d="m464 252c-124.1 0-224-99.904-224-224 0-0.67412 3e-3 -1.3363 0-2 0 124.1 99.904 224 224 224s224-99.904 224-224c-3e-3 0.66367 0 1.3259 0 2 0 124.1-99.904 224-224 224z" opacity=".1"/>
   </g>
  </g>
 </g>
</svg>
