<svg width="512" height="512" enable-background="new" version="1.0" xmlns="http://www.w3.org/2000/svg" xmlns:osb="http://www.openswatchbook.org/uri/2009/osb" xmlns:xlink="http://www.w3.org/1999/xlink">
 <defs>
  <filter id="a" x="-.024" y="-.024" width="1.048" height="1.048" color-interpolation-filters="sRGB">
   <feGaussianBlur stdDeviation="4.48"/>
  </filter>
 </defs>
 <g transform="translate(0,212)">
  <g></g>
  <g transform="translate(-208,16)">
   <g>
    <rect transform="matrix(0,-1,-1,0,0,0)" x="-256" y="-688" width="448" height="448" rx="36" ry="36" enable-background="new" filter="url(#a)" opacity=".2"/>
    <rect transform="matrix(0,-1,-1,0,0,0)" x="-254" y="-688" width="448" height="448" rx="36" ry="36" enable-background="new" opacity=".2"/>
    <rect transform="matrix(0,-1,-1,0,0,0)" x="-256" y="-688" width="448" height="448" rx="36" ry="36" enable-background="new" filter="url(#a)" opacity=".1" stroke="#000" stroke-width="8"/>
   </g>
   <rect transform="matrix(0,-1,-1,0,0,0)" x="-252" y="-688" width="448" height="448" rx="36" ry="36" enable-background="new" fill="#b71c1c"/>
   <path transform="translate(0,-244)" d="m276 48c-19.944 0-36 16.056-36 36v2c0-19.944 16.056-36 36-36h376c19.944 0 36 16.056 36 36v-2c0-19.944-16.056-36-36-36z" enable-background="new" fill="#fff" opacity=".2"/>
   <path d="m489.22-127.55-54.914 0.93074-11.169 8.3767 0.93072 0.93074-36.299 0.93075 2.7923-3.723-82.836-1.8615-0.93078 5.5844-0.9307 8.3767 5.5844 10.238-2.7922 21.407-4.6537 18.615 2.7922 17.684 0.93078 13.961 5.5844 18.615-1.8615 9.3074 0.93081 10.238 6.5152 7.4459 1.8614 12.1-12.1 4.6537 1.8615 37.23 7.4459 5.5845-4.6537 32.576-3.7229 1.8615-2.7923 62.36 3.2867-0.43648 7.9112 1.6289s9.5436 3.2975 11.518 3.9556c1.9744 0.65818 4.9155-2.9667 4.9155-2.9667h7.9112l6.5734-1.3088 3.6357 1.6579 3.2867-0.34892 8.2312-0.63986 3.9266-1.6579 1.6579 3.9556 1.3089-0.98892 3.6357-1.6579 7.5622-0.63986 1.6288 2.2977s9.2162 0.98892 12.507 0.98892c3.2907 0 2.6468-2.6468 2.6468-2.6468s0.97239-0.30775 2.6178 1.3379c1.6453 1.6453 3.9556-0.66882 3.9556-0.66882l3.2867-1.6579 2.3269 2.3268 2.2977 1.6288 6.2535-1.3088h10.18l2.3268-0.66882 9.5401 13.496 0.63989-6.8933h15.474c1.3163 0 0.66882 4.5955 0.66882 4.5955l10.18-3.2866 5.2645 5.2646 10.878-6.9224 5.9043-0.98894 11.518-0.63984h16.462l18.76 1.3088 4.9446-1.9778 3.6066-3.2867 9.8891 5.5844 7.2133-2.9667s7.9039 2.9867 9.2202 3.3157c1.3162 0.32908 13.496-1.338 13.496-1.338l7.5623-1.9778-4.9155-3.6066 3.2867-1.3088 13.816 0.63987 18.411 4.6246-0.31993-120.12v-7.5622l-4.5955 0.6688-5.9335 0.98891v-3.6357l3.2866-2.9667 2.6469-3.9265 0.63988-14.165-0.98891-10.209-4.2756-12.507-3.9265-5.2645-0.6688-4.9154 0.98889-3.2867 0.31993-0.98889 4.2756-1.6579 0.66882-1.6579-3.2866-5.5844 2.9667-1.687 4.6537-2.7922 1.8615-16.753 0.93076-11.169v-39.091l-2.7923-11.169 1.8615-12.1 0.93076-4.6537-8.3767-3.723-31.645-5.5844-4.6537 6.5152-1.8615-7.4459-60.498-0.93075-1.8615 10.238-14.892 1.8615-1.8615-6.5152-13.03-1.8615 4.6538-5.5845zm-118.26 52.558 216.54 146.77-17.131 61.196-40.807 1.3379-188.88-201.39 30.278-7.9113zm171.78 2.6468 23.705 12.478-6.6024 46.072-4.5955 1.3379-63.174-48.049zm-177.68 132.28 64.483 64.483-38.829 13.816-20.389-1.3088-25.014-21.058z" enable-background="new" fill="#fff"/>
  </g>
 </g>
</svg>
