<svg xmlns="http://www.w3.org/2000/svg" width="512" height="512" enable-background="new" version="1.0"><defs><filter id="a" width="1.048" height="1.048" x="-.024" y="-.024" color-interpolation-filters="sRGB"><feGaussianBlur stdDeviation="4.48"/></filter></defs><g transform="translate(-208 228)"><g transform="scale(1 -1)rotate(90)"><rect width="448" height="448" x="-256" y="-688" enable-background="new" filter="url(#a)" opacity=".2" rx="36" ry="36"/><rect width="448" height="448" x="-254" y="-688" enable-background="new" opacity=".2" rx="36" ry="36"/><rect width="448" height="448" x="-256" y="-688" stroke="#000" stroke-width="8" enable-background="new" filter="url(#a)" opacity=".1" rx="36" ry="36"/></g><rect width="448" height="448" x="-252" y="-688" fill="#b71c1c" enable-background="new" rx="36" ry="36" transform="scale(1 -1)rotate(90)"/><path fill="#fff" d="M276-196c-19.944 0-36 16.056-36 36v2c0-19.944 16.056-36 36-36h376c19.944 0 36 16.056 36 36v-2c0-19.944-16.056-36-36-36z" enable-background="new" opacity=".2"/><path fill="#fff" d="m489.22-127.55-54.914.93-11.169 8.377.93.931-36.298.93 2.792-3.722-82.836-1.862-.93 5.585-.931 8.377 5.584 10.238-2.792 21.407-4.654 18.615 2.792 17.684.931 13.96 5.584 18.616-1.861 9.307.93 10.238 6.516 7.446 1.861 12.1-12.1 4.654 1.862 37.23 7.446 5.584-4.654 32.576-3.723 1.862-2.792 62.36 3.287-.437 7.91 1.629s9.544 3.297 11.519 3.956 4.915-2.967 4.915-2.967h7.911l6.574-1.309 3.636 1.658 3.286-.349 8.231-.64 3.927-1.658 1.658 3.956 1.309-.989 3.636-1.658 7.562-.64 1.629 2.298s9.216.989 12.507.989c3.29 0 2.646-2.647 2.646-2.647s.973-.308 2.618 1.338c1.645 1.645 3.956-.669 3.956-.669l3.286-1.658 2.327 2.327 2.298 1.629 6.254-1.309h10.18l2.326-.669 9.54 13.496.64-6.893h15.474c1.317 0 .67 4.595.67 4.595l10.18-3.286 5.264 5.264 10.878-6.922 5.904-.989 11.518-.64h16.462l18.76 1.309 4.945-1.978 3.606-3.287 9.89 5.585 7.213-2.967s7.903 2.987 9.22 3.316c1.316.329 13.496-1.338 13.496-1.338l7.562-1.978-4.915-3.607 3.286-1.308 13.816.64 18.411 4.624-.32-120.12v-7.562l-4.595.669-5.934.989V52.03l3.287-2.967 2.647-3.926.64-14.165-.99-10.21-4.275-12.506-3.926-5.265-.67-4.915.99-3.287.32-.989 4.275-1.658.67-1.658-3.287-5.584 2.966-1.687 4.654-2.792 1.861-16.753.931-11.17v-39.09l-2.792-11.17 1.861-12.1.931-4.653-8.377-3.723-31.645-5.584-4.653 6.515-1.862-7.446-60.498-.93-1.861 10.237-14.892 1.862-1.862-6.515-13.03-1.862 4.654-5.584zM370.96-74.992 587.5 71.778l-17.131 61.196-40.807 1.338-188.88-201.39 30.278-7.911zm171.78 2.647 23.705 12.478-6.602 46.072-4.596 1.338-63.174-48.05zM365.06 59.935l64.483 64.483-38.829 13.816-20.389-1.309-25.014-21.058z" enable-background="new"/></g></svg>