<svg xmlns="http://www.w3.org/2000/svg" width="512" height="512" enable-background="new" version="1.0"><defs><filter id="b" width="1.048" height="1.048" x="-.024" y="-.024" color-interpolation-filters="sRGB"><feGaussianBlur stdDeviation="4.48"/></filter><filter id="a" width="1.048" height="1.048" x="-.024" y="-.024" color-interpolation-filters="sRGB"><feGaussianBlur stdDeviation="4.48"/></filter></defs><rect width="448" height="448" x="-256" y="-688" filter="url(#a)" opacity=".2" rx="224" ry="224" transform="matrix(0 -1 -1 0 -208 228)"/><rect width="448" height="448" x="-256" y="-688" stroke="#000" stroke-width="8" filter="url(#b)" opacity=".1" rx="224" ry="224" transform="matrix(0 -1 -1 0 -208 228)"/><circle cx="256" cy="256" r="224" fill="#333"/><path fill="#e8eaf6" d="M330.66 121.62a82.135 82.135 0 0 0-82.135 82.135 82 82 0 0 0 .117 2.334L188.79 285.89l.955.383a59.7 59.7 0 0 0-21.559 6.705l-135.15-57.924a224 224 0 0 0-1.049 20.969 224 224 0 0 0 9.479 63.88l97.299 41.702a59.734 59.734 0 0 0 57.492 43.754 59.734 59.734 0 0 0 59.734-59.734 60 60 0 0 0-.27-5.397l72.561-54.422a82 82 0 0 0 2.377.084 82.135 82.135 0 0 0 82.135-82.135 82.135 82.135 0 0 0-82.135-82.135zm0 29.867a52.27 52.27 0 0 1 52.268 52.268 52.27 52.27 0 0 1-52.268 52.268 52.27 52.27 0 0 1-52.268-52.268 52.27 52.27 0 0 1 52.268-52.268m0 14.934a37.334 37.334 0 0 0-37.334 37.334 37.334 37.334 0 0 0 37.334 37.334 37.334 37.334 0 0 0 37.334-37.334 37.334 37.334 0 0 0-37.334-37.334m-134.4 134.4h.002a44.8 44.8 0 0 1 44.801 44.801 44.8 44.8 0 0 1-44.801 44.801 44.8 44.8 0 0 1-37.434-20.225l22.727 9.738.018-.039a37.3 37.3 0 0 0 14.689 3.059 37.334 37.334 0 0 0 37.334-37.334 37.33 37.33 0 0 0-22.645-34.275l.017-.04-22.732-9.741a45 45 0 0 1 8.024-.745z"/><path fill="#fff" d="M256 32C131.9 32 32 131.904 32 256c0 .674.003 1.336 0 2 0-124.1 99.904-224 224-224s224 99.904 224 224c-.003-.664 0-1.326 0-2 0-124.1-99.904-224-224-224" opacity=".2"/><path d="M256 480c-124.1 0-224-99.904-224-224 0-.674.003-1.336 0-2 0 124.1 99.904 224 224 224s224-99.904 224-224c-.003.664 0 1.326 0 2 0 124.1-99.904 224-224 224" opacity=".1"/></svg>