<svg xmlns="http://www.w3.org/2000/svg" width="512" height="512" enable-background="new" version="1.0"><defs><filter id="b" width="1.045" height="1.052" x="-.022" y="-.026" color-interpolation-filters="sRGB"><feGaussianBlur stdDeviation="4.16"/></filter><filter id="c" width="1.12" height="1.12" x="-.06" y="-.06" color-interpolation-filters="sRGB"><feGaussianBlur stdDeviation="4.5"/></filter><filter id="a" width="1.048" height="1.048" x="-.024" y="-.024" color-interpolation-filters="sRGB"><feGaussianBlur stdDeviation="4.475"/></filter></defs><g transform="translate(-208 228)"><g transform="scale(1 -1)rotate(90)"><rect width="447" height="448" x="-256" y="-688" filter="url(#a)" opacity=".2" rx="36" ry="36"/><rect width="384" height="448" x="-256" y="-688" filter="url(#b)" opacity=".1" rx="36" ry="36"/><rect width="384" height="448" x="-254" y="-688" opacity=".2" rx="36" ry="36"/></g><path fill="#4a148c" d="M276-196c-19.944 0-36 16.056-36 36v340h448v-340c0-19.944-16.056-36-36-36z"/><path fill="#fff" d="M276-196c-19.944 0-36 16.056-36 36v2c0-19.944 16.056-36 36-36h376c19.944 0 36 16.056 36 36v-2c0-19.944-16.056-36-36-36z" opacity=".2"/><path fill="#4a1d59" d="M688 92v112c0 48-48 48-48 48H288c-48 0-48-48-48-48v-16s179.2-96 448-96"/><path fill="#fff" d="M688 92c-268.8 0-448 96-448 96v2s179.2-96 448-96z" opacity=".2"/><path fill="#1a1a1a" d="M240 92v124c0 36 36 36 36 36h376c36 0 36-36 36-36v-28S508.8 92 240 92"/><g fill="#fff"><path d="M240 92v2c268.8 0 448 96 448 96v-2S508.8 92 240 92" opacity=".2"/><g fill-rule="evenodd" opacity=".8"><path d="m330-138 16 40-16 40-16-40z"/><path d="m290-98 40-16 40 16-40 16z"/></g><g fill-rule="evenodd" opacity=".8"><path d="m629.96 32.042 8 20-8 20-8-20z"/><path d="m609.96 52.042 20-8 20 8-20 8z"/></g><g fill-rule="evenodd" opacity=".8"><path d="m309.96 12.042 8 20-8 20-8-20z"/><path d="m289.96 32.042 20-8 20 8-20 8z"/></g><g fill-rule="evenodd" opacity=".8"><path d="m430.01-128.042-8-20 8-20 8 20z"/><path d="m450.01-148.042-20 8-20-8 20-8z"/></g></g><circle cx="548" cy="-52" r="90" enable-background="new" opacity=".2"/><circle cx="548" cy="-50" r="90" enable-background="new" filter="url(#c)" opacity=".2"/><circle cx="548" cy="-54" r="90" fill="#fffde7" enable-background="new"/><g fill="#fff" fill-rule="evenodd" opacity=".8"><path d="m449.96 32.042 8 20-8 20-8-20z"/><path d="m429.96 52.042 20-8 20 8-20 8z"/></g><g fill="#fff" fill-rule="evenodd" opacity=".8"><path d="m410.01-8.042-8-20 8-20 8 20z"/><path d="m430.01-28.042-20 8-20-8 20-8z"/></g></g></svg>