<svg width="64" height="64" version="1.1" viewBox="0 0 16.933 16.933" xmlns="http://www.w3.org/2000/svg">
 <defs>
  <filter id="filter869" x="-.036" y="-.036" width="1.072" height="1.072" color-interpolation-filters="sRGB">
   <feGaussianBlur stdDeviation="0.158745"/>
  </filter>
  <filter id="filter883" x="-.032" y="-.041143" width="1.064" height="1.0823" color-interpolation-filters="sRGB">
   <feGaussianBlur stdDeviation="0.12699825"/>
  </filter>
 </defs>
 <path d="m8.1218 4.8366a4.7624 4.7624 0 0 0-1.772 3.7041 4.7624 4.7624 0 0 0 1.772 3.7041h5.9773a4.7624 4.7624 0 0 0 1.7756-3.7041 4.7624 4.7624 0 0 0-1.7756-3.7041z" fill="#000000" filter="url(#filter883)" opacity=".35" style="paint-order:stroke markers fill"/>
 <rect x=".52916" y="7.6728" width="5.027" height="1.5875" ry=".79373" fill="#cccccc" fill-rule="evenodd" style="paint-order:stroke fill markers"/>
 <path d="m8.1218 4.7624a4.7624 4.7624 0 0 0-1.772 3.7041 4.7624 4.7624 0 0 0 1.772 3.7041h5.9773a4.7624 4.7624 0 0 0 1.7756-3.7041 4.7624 4.7624 0 0 0-1.7756-3.7041z" fill="#e6e6e6" style="paint-order:stroke markers fill"/>
 <g>
  <circle cx="6.6145" cy="8.689" r="5.2915" fill="#000000" filter="url(#filter869)" opacity=".35" style="paint-order:stroke markers fill"/>
  <circle cx="6.6145" cy="8.4665" r="5.2915" fill="#f2f2f2" style="paint-order:stroke markers fill"/>
  <circle cx="6.6145" cy="8.4665" r="3.7041" fill="#3e74b7" style="paint-order:stroke markers fill"/>
 </g>
 <g fill="#fff" aria-label="S">
  <path d="m7.8204 6.5323v0.54552q-0.31845-0.1523-0.6009-0.22707t-0.54552-0.074767q-0.45691 0-0.70613 0.17722-0.24645 0.17722-0.24645 0.50398 0 0.27414 0.16338 0.41537 0.16615 0.13846 0.62582 0.2243l0.33783 0.069228q0.62582 0.11907 0.92212 0.42091 0.29907 0.29907 0.29907 0.80305 0 0.6009-0.40429 0.91104-0.40152 0.31014-1.1797 0.31014-0.29353 0-0.62582-0.06646-0.32953-0.06646-0.68398-0.19661v-0.57598q0.3406 0.19107 0.66736 0.28799t0.64244 0.09692q0.47906 0 0.73936-0.1883t0.2603-0.53721q0-0.3046-0.1883-0.47629-0.18553-0.17169-0.61198-0.25753l-0.3406-0.066459q-0.62582-0.12461-0.90551-0.39045-0.27968-0.26584-0.27968-0.73936 0-0.54829 0.38491-0.86397 0.38768-0.31568 1.0661-0.31568 0.29076 0 0.59259 0.052614 0.30184 0.052613 0.61752 0.15784z" fill="#fff" stroke-width=".26458"/>
 </g>
</svg>
