<svg xmlns="http://www.w3.org/2000/svg" width="64" height="64" viewBox="0 0 16.933 16.933"><defs><filter id="b" width="1.072" height="1.072" x="-.036" y="-.036" color-interpolation-filters="sRGB"><feGaussianBlur stdDeviation=".159"/></filter><filter id="a" width="1.064" height="1.082" x="-.032" y="-.041" color-interpolation-filters="sRGB"><feGaussianBlur stdDeviation=".127"/></filter></defs><path d="M8.122 4.837A4.76 4.76 0 0 0 6.35 8.54a4.76 4.76 0 0 0 1.772 3.704h5.977a4.76 4.76 0 0 0 1.776-3.704 4.76 4.76 0 0 0-1.776-3.704z" filter="url(#a)" opacity=".35" style="paint-order:stroke markers fill"/><rect width="5.027" height="1.587" x=".529" y="7.673" fill="#ccc" fill-rule="evenodd" ry=".794" style="paint-order:stroke fill markers"/><path fill="#e6e6e6" d="M8.122 4.762A4.76 4.76 0 0 0 6.35 8.467a4.76 4.76 0 0 0 1.772 3.704h5.977a4.76 4.76 0 0 0 1.776-3.704 4.76 4.76 0 0 0-1.776-3.705z" style="paint-order:stroke markers fill"/><circle cx="6.614" cy="8.689" r="5.292" filter="url(#b)" opacity=".35" style="paint-order:stroke markers fill"/><circle cx="6.614" cy="8.466" r="5.292" fill="#f2f2f2" style="paint-order:stroke markers fill"/><circle cx="6.614" cy="8.466" r="3.704" fill="#3e74b7" style="paint-order:stroke markers fill"/><path fill="#fff" d="M7.82 6.532v.546q-.318-.152-.6-.227t-.546-.075q-.457 0-.706.177-.247.177-.247.504 0 .274.164.416.166.138.626.224l.337.07q.626.118.923.42.299.3.299.803 0 .6-.405.911-.401.31-1.18.31-.293 0-.625-.066-.33-.067-.684-.197v-.576q.34.191.667.288t.643.097q.479 0 .739-.188t.26-.537q0-.305-.188-.477-.186-.171-.612-.257l-.34-.067q-.626-.124-.906-.39t-.28-.74q0-.548.385-.863.388-.316 1.066-.316.291 0 .593.052.302.053.617.158" aria-label="S"/></svg>