<svg xmlns="http://www.w3.org/2000/svg" width="512" height="512" enable-background="new" version="1.0"><defs><filter id="a" width="1.048" height="1.048" x="-.024" y="-.024" color-interpolation-filters="sRGB"><feGaussianBlur stdDeviation="4.48"/></filter><filter id="b" width="1.119" height="1.121" x="-.059" y="-.061" color-interpolation-filters="sRGB"><feGaussianBlur stdDeviation="6.345"/></filter></defs><g transform="translate(-208 228)"><rect width="448" height="448" x="-256" y="-688" stroke="#000" stroke-width="8" filter="url(#a)" opacity=".1" rx="24" ry="24" transform="scale(1 -1)rotate(90)"/><rect width="448" height="448" x="-256" y="-688" filter="url(#a)" opacity=".2" rx="24" ry="24" transform="scale(1 -1)rotate(90)"/><rect width="448" height="448" x="-252" y="-688" fill="#4d4d4d" rx="24" ry="24" transform="scale(1 -1)rotate(90)"/><path fill="#fff" d="M264-196c-13.296 0-24 10.704-24 24v2c0-13.296 10.704-24 24-24h400c13.296 0 24 10.704 24 24v-2c0-13.296-10.704-24-24-24z" opacity=".2"/></g><g fill-rule="evenodd"><path fill="#f48e00" d="M384 257.12c0-3.899-2.88-6.147-6.415-5.03l-243.17 77.134c-3.542 1.124-6.415 5.2-6.415 9.092v78.835c0 3.899 2.873 6.154 6.415 5.03l243.17-77.127c3.535-1.124 6.415-5.2 6.415-9.1z"/><path d="M347.49 66.002a5.8 5.8 0 0 0-1.906.287l-243.17 77.127c-2.685.852-4.983 3.402-5.94 6.283-.305.726-.476 1.57-.476 2.514v79.137c0 .95.173 1.8.482 2.53.96 2.873 3.253 5.41 5.932 6.261l243.17 77.137c3.541 1.124 6.414-1.13 6.414-5.021v-78.838c0-3.892-2.873-7.968-6.414-9.092l-102.58-32.541 102.58-32.54c3.534-1.123 6.416-5.2 6.416-9.091V71.319c0-3.168-1.901-5.25-4.51-5.316z" filter="url(#b)" opacity=".1" transform="translate(32 32)"/><path fill="#ff9800" d="M379.49 90a5.8 5.8 0 0 0-1.906.287l-243.17 77.127c-2.685.852-4.983 3.402-5.94 6.283-.305.726-.476 1.57-.476 2.514v79.137c0 .95.173 1.8.482 2.53.96 2.873 3.253 5.41 5.932 6.261l243.17 77.137c3.541 1.124 6.414-1.13 6.414-5.021v-78.838c0-3.892-2.873-7.968-6.414-9.092l-102.58-32.541 102.58-32.54c3.534-1.123 6.416-5.2 6.416-9.091V95.317c0-3.168-1.901-5.25-4.51-5.316z"/></g><path d="M56 480c-13.296 0-24-10.704-24-24v-2c0 13.296 10.704 24 24 24h400c13.296 0 24-10.704 24-24v2c0 13.296-10.704 24-24 24z" opacity=".2"/></svg>