<svg width="512" height="512" enable-background="new" version="1.0" xmlns="http://www.w3.org/2000/svg">
 <defs>
  <filter id="a" x="-.024" y="-.024" width="1.048" height="1.048" color-interpolation-filters="sRGB">
   <feGaussianBlur stdDeviation="4.48"/>
  </filter>
  <filter id="b" x="-.05948" y="-.060529" width="1.119" height="1.1211" color-interpolation-filters="sRGB">
   <feGaussianBlur stdDeviation="6.3445764"/>
  </filter>
 </defs>
 <g transform="translate(0,212)">
  <g>
   <g transform="translate(-208,16)">
    <g>
     <rect transform="matrix(0,-1,-1,0,0,0)" x="-256" y="-688" width="448" height="448" rx="24" ry="24" filter="url(#a)" opacity=".1" stroke="#000" stroke-width="8"/>
     <rect transform="matrix(0,-1,-1,0,0,0)" x="-256" y="-688" width="448" height="448" rx="24" ry="24" filter="url(#a)" opacity=".2"/>
     <rect transform="matrix(0,-1,-1,0,0,0)" x="-252" y="-688" width="448" height="448" rx="24" ry="24" fill="#4d4d4d"/>
     <path transform="translate(0,76)" d="m264-272c-13.296 0-24 10.704-24 24v2c0-13.296 10.704-24 24-24h400c13.296 0 24 10.704 24 24v-2c0-13.296-10.704-24-24-24z" fill="#fff" opacity=".2"/>
    </g>
    <g transform="translate(240,-196)" fill-rule="evenodd">
     <path d="m352 225.12c0-3.8987-2.8804-6.1468-6.4151-5.0299l-243.17 77.134c-3.5418 1.1241-6.4151 5.2006-6.4151 9.0922v78.835c0 3.8987 2.8733 6.154 6.4151 5.0299l243.17-77.127c3.5347-1.1241 6.4151-5.2006 6.4151-9.0993z" fill="#f48e00"/>
     <path d="m347.49 66.002c-0.60207-0.0154-1.2435 0.07635-1.9062 0.28711l-243.17 77.127c-2.6847 0.85205-4.9832 3.4017-5.9395 6.2832-0.30527 0.72573-0.47656 1.5702-0.47656 2.5137v79.137c0 0.95009 0.17306 1.8001 0.48242 2.5293 0.96 2.8734 3.2533 5.4116 5.9316 6.2617l243.17 77.137c3.5413 1.124 6.4141-1.1301 6.4141-5.0215v-78.838c0-3.8914-2.8727-7.9678-6.4141-9.0918l-102.58-32.541 102.58-32.539c3.5347-1.1241 6.416-5.2002 6.416-9.0918v-78.836c0-3.1677-1.9008-5.2497-4.5098-5.3164z" filter="url(#b)" opacity=".1"/>
     <path transform="translate(-240,-48)" d="m587.49 106c-0.60207-0.0154-1.2435 0.0764-1.9062 0.28711l-243.17 77.127c-2.6847 0.85205-4.9832 3.4017-5.9395 6.2832-0.30527 0.72573-0.47656 1.5702-0.47656 2.5137v79.137c0 0.95009 0.17306 1.8001 0.48242 2.5293 0.96 2.8734 3.2533 5.4116 5.9316 6.2617l243.17 77.137c3.5413 1.124 6.4141-1.1301 6.4141-5.0215v-78.838c0-3.8914-2.8727-7.9678-6.4141-9.0918l-102.58-32.541 102.58-32.539c3.5347-1.1241 6.416-5.2002 6.416-9.0918v-78.836c0-3.1677-1.9008-5.2497-4.5098-5.3164z" fill="#ff9800"/>
    </g>
    <path d="m264 252c-13.296 0-24-10.704-24-24v-2c0 13.296 10.704 24 24 24h400c13.296 0 24-10.704 24-24v2c0 13.296-10.704 24-24 24z" opacity=".2"/>
   </g>
  </g>
 </g>
</svg>
