<svg width="512" height="512" enable-background="new" version="1.0" xmlns="http://www.w3.org/2000/svg">
 <defs>
  <filter id="a" x="-.024" y="-.024" width="1.048" height="1.048" color-interpolation-filters="sRGB">
   <feGaussianBlur stdDeviation="4.48"/>
  </filter>
  <filter id="b" x="-.06" y="-.06" width="1.12" height="1.12" color-interpolation-filters="sRGB">
   <feGaussianBlur stdDeviation="2.7"/>
  </filter>
 </defs>
 <g transform="translate(-208,228)">
  <rect transform="matrix(0,-1,-1,0,0,0)" x="-256" y="-688" width="448" height="448" rx="36" ry="36" filter="url(#a)" opacity=".2"/>
  <rect transform="matrix(0,-1,-1,0,0,0)" x="-254" y="-688" width="448" height="448" rx="36" ry="36" opacity=".2"/>
  <rect transform="matrix(0,-1,-1,0,0,0)" x="-256" y="-688" width="448" height="448" rx="36" ry="36" filter="url(#a)" opacity=".1" stroke="#000" stroke-width="8"/>
 </g>
 <rect transform="matrix(0,-1,-1,0,0,0)" x="-480" y="-480" width="448" height="448" rx="36" ry="36" fill="#f2f2f2"/>
 <path d="m68 32c-19.944 0-36 16.056-36 36v2c0-19.944 16.056-36 36-36h376c19.944 0 36 16.056 36 36v-2c0-19.944-16.056-36-36-36z" fill="#fff" opacity=".2"/>
 <rect x="177" y="56" width="8" height="400" rx="0" ry="0" fill="#847d6c" style="paint-order:normal"/>
 <rect x="323" y="56" width="8" height="400" rx="0" ry="0" fill="#847d6c" style="paint-order:normal"/>
 <g transform="rotate(90,254,256)" fill="#847d6c">
  <rect x="177" y="56" width="8" height="400" rx="0" ry="0" style="paint-order:normal"/>
  <rect x="323" y="56" width="8" height="400" rx="0" ry="0" style="paint-order:normal"/>
 </g>
 <g fill="#847d6c">
  <g aria-label="7">
   <path d="m105.28 147.19 24.831-56.656h-33.224v-7.3443h41.268v6.2951l-24.481 57.705z" fill="#847d6c" stroke-width="2.2383"/>
  </g>
  <g aria-label="1">
   <path d="m260.83 147.19h-7.694v-39.869q0-8.3934 0.34973-15.738l-11.891 10.142-4.1967-5.2459 16.787-13.29h6.6448z" fill="#847d6c" stroke-width="2.2383"/>
  </g>
  <g aria-label="6">
   <path d="m411.1 223.95v6.6448q-3.1475-1.0492-7.3443-1.0492-19.585 0-20.284 25.88h0.69945q4.1967-7.3443 13.29-7.3443 8.3934 0 13.29 5.2459 4.8962 4.8962 4.8962 13.989 0 10.142-5.2459 15.738t-13.989 5.5956q-9.4426 0-15.388-6.9945-5.5956-7.3443-5.5956-20.984 0-18.885 6.9945-27.978 6.9945-9.4426 20.984-9.4426 4.5464 0 7.694 0.69945zm-14.689 30.077q-5.5956 0-9.4426 3.847-3.4973 3.4973-3.4973 8.0437 0 6.9945 3.4973 11.541 3.847 4.5464 9.4426 4.5464t8.3934-3.4973q3.1475-3.847 3.1475-11.191 0-6.6448-2.7978-9.7924-2.7978-3.4973-8.7432-3.4973z" fill="#847d6c" stroke-width="2.2383"/>
  </g>
  <g aria-label="3">
   <path d="m400.08 392.39q15.738 2.0984 15.738 15.388 0 8.7432-5.9454 13.989-5.9454 4.8962-17.486 4.8962-10.842 0-17.137-3.1475v-7.694q8.0437 4.1967 16.787 4.1967 7.694 0 11.541-3.1475 3.847-3.1475 3.847-9.4426 0-5.5956-4.1967-8.3934-3.847-2.7978-12.24-2.7978h-5.9454v-6.6448h5.9454q6.9945 0 10.842-3.1475 3.847-3.4973 3.847-9.0929 0-4.1967-3.1476-6.6448-2.7978-2.7978-7.694-2.7978-8.0437 0-15.038 5.2459l-4.1967-5.5956q8.0437-6.2951 19.235-6.2951 9.0929 0 13.989 4.5464 4.8962 4.1967 4.8962 11.191 0 12.59-13.639 15.388z" fill="#847d6c" stroke-width="2.2383"/>
  </g>
  <g aria-label="9">
   <path d="m102.14 427.5v-6.6448q3.1475 1.0492 7.3443 1.0492 19.235 0 19.934-25.88h-0.34973q-4.1967 7.694-13.639 7.694-8.3934 0-13.29-5.2459-4.8962-5.2459-4.8962-14.339 0-10.142 5.2459-15.738 5.5956-5.5956 14.339-5.5956 9.0929 0 15.038 7.3443 5.9454 6.9945 5.9454 20.634 0 18.885-6.9945 28.328-6.9945 9.0929-20.984 9.0929-4.8962 0-7.694-0.69946zm14.339-30.076q5.5956 0 9.4426-3.4973 3.847-3.4973 3.847-8.3934 0-6.9945-3.847-11.541-3.847-4.5464-9.0929-4.5464-5.9454 0-9.0929 3.847-2.7978 3.4973-2.7978 10.842 0 6.6448 2.7978 10.142 3.1475 3.1475 8.7432 3.1475z" fill="#847d6c" stroke-width="2.2383"/>
  </g>
 </g>
 <g>
  <rect x="62" y="206.79" width="108" height="108" rx="0" ry="16.875" filter="url(#b)" opacity=".15" style="paint-order:normal"/>
  <rect x="62" y="202" width="108" height="108" rx="0" ry="16.875" fill="#fff" style="paint-order:normal"/>
  <g fill="#1a1a1a" aria-label="2 ">
   <path d="m137.46 288.3h-39.869v-6.9945l15.388-16.437q9.4426-10.142 11.541-14.689 2.4481-4.5464 2.4481-9.4426 0-4.8962-2.7978-7.694-2.7978-2.7978-7.694-2.7978-6.9945 0-13.639 5.9454l-4.5464-5.2459q8.3934-7.3443 18.536-7.3443 8.3934 0 13.29 4.5464 4.8962 4.5464 4.8962 12.24 0 5.5956-3.1475 11.191-2.7978 5.5956-12.24 16.087l-12.24 12.94v0.34973h30.076z" fill="#1a1a1a" stroke-width="2.2383"/>
  </g>
 </g>
</svg>
