<svg xmlns="http://www.w3.org/2000/svg" width="512" height="512" enable-background="new" version="1.0"><defs><filter id="a" width="1.048" height="1.048" x="-.024" y="-.024" color-interpolation-filters="sRGB"><feGaussianBlur stdDeviation="4.48"/></filter><filter id="b" width="1.12" height="1.12" x="-.06" y="-.06" color-interpolation-filters="sRGB"><feGaussianBlur stdDeviation="2.7"/></filter></defs><g transform="matrix(0 -1 -1 0 -208 228)"><rect width="448" height="448" x="-256" y="-688" filter="url(#a)" opacity=".2" rx="36" ry="36"/><rect width="448" height="448" x="-254" y="-688" opacity=".2" rx="36" ry="36"/><rect width="448" height="448" x="-256" y="-688" stroke="#000" stroke-width="8" filter="url(#a)" opacity=".1" rx="36" ry="36"/></g><rect width="448" height="448" x="-480" y="-480" fill="#f2f2f2" rx="36" ry="36" transform="scale(1 -1)rotate(90)"/><path fill="#fff" d="M68 32c-19.944 0-36 16.056-36 36v2c0-19.944 16.056-36 36-36h376c19.944 0 36 16.056 36 36v-2c0-19.944-16.056-36-36-36z" opacity=".2"/><rect width="8" height="400" x="177" y="56" fill="#847d6c" rx="0" ry="0" style="paint-order:normal"/><rect width="8" height="400" x="323" y="56" fill="#847d6c" rx="0" ry="0" style="paint-order:normal"/><g fill="#847d6c" transform="rotate(90 254 256)"><rect width="8" height="400" x="177" y="56" rx="0" ry="0" style="paint-order:normal"/><rect width="8" height="400" x="323" y="56" rx="0" ry="0" style="paint-order:normal"/></g><g fill="#847d6c"><path d="m105.28 147.19 24.831-56.656H96.887V83.19h41.268v6.295l-24.481 57.705z" aria-label="7"/><path d="M260.83 147.19h-7.694v-39.869q0-8.393.35-15.738l-11.891 10.142-4.197-5.246 16.787-13.29h6.645z" aria-label="1"/><path d="M411.1 223.95v6.645q-3.147-1.05-7.344-1.05-19.585 0-20.284 25.88h.7q4.196-7.344 13.29-7.344 8.393 0 13.29 5.246 4.895 4.896 4.895 13.99 0 10.141-5.246 15.737t-13.989 5.596q-9.442 0-15.388-6.995-5.595-7.344-5.595-20.984 0-18.885 6.994-27.978 6.995-9.442 20.984-9.442 4.547 0 7.694.7zm-14.689 30.077q-5.596 0-9.443 3.847-3.497 3.497-3.497 8.044 0 6.994 3.497 11.54 3.847 4.547 9.443 4.547t8.393-3.497q3.148-3.847 3.148-11.191 0-6.645-2.798-9.793-2.798-3.497-8.743-3.497z" aria-label="6"/><path d="M400.08 392.39q15.738 2.098 15.738 15.388 0 8.743-5.945 13.989-5.946 4.896-17.486 4.896-10.842 0-17.137-3.147v-7.694q8.043 4.196 16.787 4.196 7.694 0 11.54-3.147 3.848-3.148 3.848-9.443 0-5.595-4.197-8.393-3.847-2.798-12.24-2.798h-5.946v-6.645h5.946q6.994 0 10.842-3.147 3.847-3.497 3.847-9.093 0-4.197-3.148-6.645-2.798-2.798-7.694-2.798-8.043 0-15.038 5.246l-4.196-5.595q8.043-6.295 19.235-6.295 9.092 0 13.989 4.546 4.896 4.197 4.896 11.19 0 12.59-13.64 15.389z" aria-label="3"/><path d="M102.14 427.5v-6.645q3.148 1.05 7.344 1.05 19.235 0 19.934-25.88h-.35q-4.196 7.693-13.638 7.693-8.394 0-13.29-5.245-4.897-5.246-4.897-14.34 0-10.141 5.246-15.737 5.596-5.596 14.34-5.596 9.092 0 15.037 7.344 5.946 6.995 5.946 20.634 0 18.885-6.995 28.328-6.994 9.093-20.984 9.093-4.896 0-7.694-.7zm14.339-30.076q5.596 0 9.443-3.497 3.847-3.498 3.847-8.394 0-6.994-3.847-11.54-3.847-4.547-9.093-4.547-5.946 0-9.093 3.847-2.798 3.497-2.798 10.842 0 6.645 2.798 10.142 3.147 3.147 8.743 3.147z" aria-label="9"/></g><rect width="108" height="108" x="62" y="206.79" filter="url(#b)" opacity=".15" rx="0" ry="16.875" style="paint-order:normal"/><rect width="108" height="108" x="62" y="202" fill="#fff" rx="0" ry="16.875" style="paint-order:normal"/><path fill="#1a1a1a" d="M137.46 288.3H97.591v-6.994l15.388-16.437q9.443-10.143 11.541-14.69 2.448-4.546 2.448-9.442t-2.798-7.694-7.694-2.798q-6.994 0-13.639 5.946l-4.546-5.246q8.393-7.345 18.536-7.345 8.393 0 13.29 4.547t4.896 12.24q0 5.595-3.147 11.19-2.798 5.596-12.24 16.088l-12.24 12.94v.35h30.076z" aria-label="2"/></svg>