<svg xmlns="http://www.w3.org/2000/svg" width="512" height="512" enable-background="new" version="1.0"><defs><filter id="a" width="1.149" height="1.149" x="-.075" y="-.075" color-interpolation-filters="sRGB"><feGaussianBlur stdDeviation="6.72"/></filter><filter id="b" width="1.149" height="1.149" x="-.075" y="-.075" color-interpolation-filters="sRGB"><feGaussianBlur stdDeviation="6.72"/></filter><filter id="e" width="1.149" height="1.149" x="-.075" y="-.075" color-interpolation-filters="sRGB"><feGaussianBlur stdDeviation="6.72"/></filter><filter id="f" width="1.149" height="1.149" x="-.075" y="-.075" color-interpolation-filters="sRGB"><feGaussianBlur stdDeviation="6.72"/></filter><filter id="i" width="1.127" height="1.127" x="-.064" y="-.064" color-interpolation-filters="sRGB"><feGaussianBlur stdDeviation="5.734"/></filter><filter id="j" width="1.127" height="1.127" x="-.064" y="-.064" color-interpolation-filters="sRGB"><feGaussianBlur stdDeviation="5.734"/></filter><filter id="g" width="1.127" height="1.127" x="-.064" y="-.064" color-interpolation-filters="sRGB"><feGaussianBlur stdDeviation="5.734"/></filter><filter id="h" width="1.127" height="1.127" x="-.064" y="-.064" color-interpolation-filters="sRGB"><feGaussianBlur stdDeviation="5.734"/></filter></defs><g fill-rule="evenodd" stroke-width="1.038"><rect width="216" height="216" x="32" y="40" filter="url(#a)" opacity=".15" rx="14.569" ry="14.569"/><rect width="216" height="216" x="264" y="40" filter="url(#b)" opacity=".15" rx="14.569" ry="14.569"/><rect width="216" height="216" x="32" y="272" filter="url(#e)" opacity=".15" rx="14.569" ry="14.569"/><rect width="216" height="216" x="264" y="272" filter="url(#f)" opacity=".15" rx="14.569" ry="14.569"/><rect width="216" height="216" x="32" y="40" filter="url(#g)" opacity=".15" rx="14.569" ry="14.569"/><rect width="216" height="216" x="264" y="40" filter="url(#h)" opacity=".15" rx="14.569" ry="14.569"/><rect width="216" height="216" x="32" y="272" filter="url(#i)" opacity=".15" rx="14.569" ry="14.569"/><rect width="216" height="216" x="264" y="272" filter="url(#j)" opacity=".15" rx="14.569" ry="14.569"/><rect width="216" height="216" x="32" y="32" fill="#4c85ce" rx="14.569" ry="14.569"/><rect width="216" height="216" x="264" y="32" fill="#4c85ce" rx="14.569" ry="14.569"/><rect width="216" height="216" x="32" y="264" fill="#7de418" rx="14.569" ry="14.569"/><rect width="216" height="216" x="264" y="264" fill="#4c85ce" rx="14.569" ry="14.569"/></g><path d="M140 76a64 64 0 0 0-64 64 64 64 0 0 0 64 64 64 64 0 0 0 64-64 64 64 0 0 0-64-64m0 16a48 48 0 0 1 48 48 48 48 0 0 1-48 48 48 48 0 0 1-48-48 48 48 0 0 1 48-48M372 76a64 64 0 0 0-64 64 64 64 0 0 0 64 64 64 64 0 0 0 64-64 64 64 0 0 0-64-64m0 16a48 48 0 0 1 48 48 48 48 0 0 1-48 48 48 48 0 0 1-48-48 48 48 0 0 1 48-48M372 308a64 64 0 0 0-64 64 64 64 0 0 0 64 64 64 64 0 0 0 64-64 64 64 0 0 0-64-64m0 16a48 48 0 0 1 48 48 48 48 0 0 1-48 48 48 48 0 0 1-48-48 48 48 0 0 1 48-48M76 308v128h128V308zm16 16h96v96H92z" opacity=".25" style="paint-order:normal"/><g fill="#fff" fill-rule="evenodd" stroke-width="1.038"><path d="M46.568 32A14.536 14.536 0 0 0 32 46.568v7.46C32 46.258 38.497 40 46.568 40h186.86c8.071 0 14.568 6.257 14.568 14.029v-7.461A14.536 14.536 0 0 0 233.428 32zM278.57 32a14.536 14.536 0 0 0-14.568 14.568v7.46c0-7.771 6.497-14.028 14.568-14.028h186.86c8.071 0 14.568 6.257 14.568 14.029v-7.461A14.536 14.536 0 0 0 465.43 32zM46.568 263.97A14.536 14.536 0 0 0 32 278.538v7.46c0-7.771 6.497-14.028 14.568-14.028h186.86c8.071 0 14.568 6.257 14.568 14.029v-7.461a14.536 14.536 0 0 0-14.568-14.568zM278.57 263.97a14.536 14.536 0 0 0-14.568 14.568v7.46c0-7.771 6.497-14.028 14.568-14.028h186.86c8.071 0 14.568 6.257 14.568 14.029v-7.461a14.536 14.536 0 0 0-14.568-14.568z" opacity=".15"/></g></svg>