<svg xmlns="http://www.w3.org/2000/svg" width="512" height="512" enable-background="new" version="1.0"><defs><filter id="a" width="1.048" height="1.048" x="-.024" y="-.024" color-interpolation-filters="sRGB"><feGaussianBlur stdDeviation="4.8"/></filter><filter id="f" width="1.24" height="1.24" x="-.12" y="-.12" color-interpolation-filters="sRGB"><feGaussianBlur stdDeviation="4"/></filter><filter id="b" width="1.24" height="1.24" x="-.12" y="-.12" color-interpolation-filters="sRGB"><feGaussianBlur stdDeviation="4"/></filter><filter id="e" width="1.24" height="1.24" x="-.12" y="-.12" color-interpolation-filters="sRGB"><feGaussianBlur stdDeviation="4"/></filter><filter id="c" width="1.24" height="1.24" x="-.12" y="-.12" color-interpolation-filters="sRGB"><feGaussianBlur stdDeviation="4"/></filter></defs><g transform="translate(-208 228)"><circle cx="464" cy="30" r="240" enable-background="new" opacity=".2"/><circle cx="464" cy="32" r="240" enable-background="new" filter="url(#a)" opacity=".1"/><circle cx="464" cy="32" r="240" enable-background="new" filter="url(#a)" opacity=".2"/><circle cx="464" cy="28" r="240" fill="#0891d1" enable-background="new"/><path fill="#fff" d="M464-212A240 240 0 0 0 224 28l.041 1.172A240 240 0 0 1 464-210 240 240 0 0 1 703.959 28.828L704 28a240 240 0 0 0-240-240" enable-background="new" opacity=".2"/><path fill="#ebebeb" d="M464 95.25c-97.522 0-176.75 79.228-176.75 176.75S366.478 448.75 464 448.75 640.75 369.522 640.75 272 561.522 95.25 464 95.25m0 16c26.449 0 51.39 6.368 73.381 17.652l-78 135.1h-155.93c4.16-85.148 74.359-152.75 160.55-152.75zm87.23 25.66c44.26 28.612 73.52 78.389 73.52 135.09s-29.26 106.48-73.52 135.09L473.236 272zM303.45 280h155.93l78 135.1c-21.991 11.285-46.932 17.652-73.381 17.652-86.192 0-156.39-67.602-160.55-152.75z" color="#000" enable-background="new" style="isolation:auto;mix-blend-mode:normal;text-decoration-color:#000;text-decoration-line:none;text-decoration-style:solid;text-indent:0;text-transform:none;white-space:normal" transform="translate(0 -244)"/><path d="M464-150.75c-97.522 0-176.75 79.228-176.75 176.75 0 .334.012.666.014 1 .54-97.062 79.549-175.75 176.74-175.75S640.204-70.062 640.744 27c.002-.334.013-.666.013-1 0-97.522-79.228-176.75-176.75-176.75zm72.482 35.207L459.38 17.997H303.57c-.04.667-.09 1.331-.123 2h155.93l78-135.1c-.297-.152-.6-.295-.898-.445zm-62.668 142.54-.578 1 77.994 135.09c44.26-28.612 73.52-78.389 73.52-135.09 0-.335-.014-.666-.016-1-.343 56.284-29.505 105.65-73.504 134.09zm-170.37 9c4.16 85.148 74.359 152.75 160.55 152.75 26.449 0 51.39-6.368 73.381-17.652l-.898-1.555c-21.773 11.001-46.391 17.207-72.482 17.207-85.515 0-155.27-66.547-160.43-150.75z" color="#000" enable-background="new" opacity=".2" style="isolation:auto;mix-blend-mode:normal;text-decoration-color:#000;text-decoration-line:none;text-decoration-style:solid;text-indent:0;text-transform:none;white-space:normal"/><circle cx="296" cy="32" r="40" enable-background="new" filter="url(#b)" opacity=".2"/><circle cx="296" cy="28" r="40" fill="#fff" enable-background="new"/><circle cx="-427.71" cy="-385.84" r="40" enable-background="new" filter="url(#c)" opacity=".2" transform="scale(-1 1)rotate(-60)"/><circle cx="-372.29" cy="417.84" r="40" enable-background="new" filter="url(#e)" opacity=".2" transform="scale(-1 1)rotate(60)"/><circle cx="-424.25" cy="-387.84" r="40" fill="#fff" enable-background="new" transform="scale(-1 1)rotate(-60)"/><circle cx="464" cy="32" r="40" enable-background="new" filter="url(#f)" opacity=".2"/><circle cx="-375.75" cy="415.84" r="40" fill="#fff" enable-background="new" transform="scale(-1 1)rotate(60)"/><circle cx="464" cy="28" r="40" fill="#fff" enable-background="new"/></g></svg>