<svg xmlns="http://www.w3.org/2000/svg" width="512" height="512" enable-background="new" version="1.0"><defs><filter id="a" width="1.048" height="1.048" x="-.024" y="-.024" color-interpolation-filters="sRGB"><feGaussianBlur stdDeviation="4.8"/></filter><filter id="b" width="1.12" height="1.12" x="-.06" y="-.06" color-interpolation-filters="sRGB"><feGaussianBlur stdDeviation="8"/></filter></defs><g transform="translate(-208 228)"><circle cx="464" cy="30" r="240" opacity=".2"/><circle cx="464" cy="32" r="240" filter="url(#a)" opacity=".1"/><circle cx="464" cy="32" r="240" filter="url(#a)" opacity=".2"/><path fill="#2196f3" d="M464-212A240 240 0 0 0 224 28h240z"/><path fill="#00bcd4" d="M464 268A240 240 0 0 0 704 28H464z"/><path fill="#009688" d="M464-212A240 240 0 0 1 704 28H464z"/><path fill="#cddc39" d="M464 268A240 240 0 0 1 224 28h240z"/><g fill-rule="evenodd"><path fill="#2196f3" d="m224 28 40 40 40-40z"/><path fill="#00bcd4" d="m704 28-40-40-40 40z"/><path fill="#cddc39" d="m464 268 40-40-40-40z"/><path fill="#009688" d="m464-212-40 40 40 40z"/></g><path fill="#fff" d="M464-212A240 240 0 0 0 224 28l.041 1.172A240 240 0 0 1 464-210 240 240 0 0 1 703.959 28.828L704 28a240 240 0 0 0-240-240" opacity=".2"/><circle cx="464" cy="40" r="160" filter="url(#b)" opacity=".3"/><circle cx="464" cy="28" r="160" fill="#f9f9f9"/></g></svg>