<svg width="512" height="512" enable-background="new" version="1.0" xmlns="http://www.w3.org/2000/svg" xmlns:osb="http://www.openswatchbook.org/uri/2009/osb" xmlns:xlink="http://www.w3.org/1999/xlink">
 <defs>
  <filter id="a" x="-.024" y="-.024" width="1.048" height="1.048" color-interpolation-filters="sRGB">
   <feGaussianBlur stdDeviation="4.8"/>
  </filter>
  <filter id="b" x="-.06" y="-.06" width="1.12" height="1.12" color-interpolation-filters="sRGB">
   <feGaussianBlur stdDeviation="8"/>
  </filter>
 </defs>
 <g transform="translate(0,212)">
  <g>
   <g transform="translate(-208,16)">
    <g>
     <circle cx="464" cy="30" r="240" opacity=".2"/>
     <circle cx="464" cy="32" r="240" filter="url(#a)" opacity=".1"/>
     <circle cx="464" cy="32" r="240" filter="url(#a)" opacity=".2"/>
    </g>
    <path d="m464-212a240 240 0 0 0-240 240h240z" fill="#2196f3"/>
    <path d="m464 268a240 240 0 0 0 240-240h-240z" fill="#00bcd4"/>
    <path d="m464-212a240 240 0 0 1 240 240h-240z" fill="#009688"/>
    <path d="m464 268a240 240 0 0 1-240-240h240z" fill="#cddc39"/>
    <g fill-rule="evenodd">
     <path d="m224 28 40 40 40-40z" fill="#2196f3"/>
     <path d="m704 28-40-40-40 40z" fill="#00bcd4"/>
     <path d="m464 268 40-40-40-40z" fill="#cddc39"/>
     <path d="m464-212-40 40 40 40z" fill="#009688"/>
    </g>
    <path transform="translate(0,-244)" d="m 464,32 a 240,240 0 0 0 -240,240 240,240 0 0 0 0.041,1.17188 A 240,240 0 0 1 464,34 240,240 0 0 1 703.95898,272.82812 240,240 0 0 0 704,272 240,240 0 0 0 464,32 Z" fill="#fff" opacity=".2"/>
    <circle cx="464" cy="40" r="160" filter="url(#b)" opacity=".3"/>
    <circle cx="464" cy="28" r="160" fill="#f9f9f9"/>
   </g>
  </g>
 </g>
</svg>
