<svg xmlns="http://www.w3.org/2000/svg" width="512" height="512" enable-background="new" version="1.0"><defs><filter id="a" width="1.054" height="1.043" x="-.027" y="-.021" color-interpolation-filters="sRGB"><feGaussianBlur stdDeviation="4"/></filter><filter id="b" width="1.048" height="1.048" x="-.024" y="-.024" color-interpolation-filters="sRGB"><feGaussianBlur stdDeviation="2.4"/></filter></defs><g transform="translate(-208 228)"><path d="M640 230v-400c0-13.296-10.704-24-24-24H312c-13.296 0-24 10.704-24 24v400c0 13.296 10.704 24 24 24h304c13.296 0 24-10.704 24-24" opacity=".2"/><path stroke="#000" stroke-width="8" d="M640 232v-400c0-13.296-10.704-24-24-24H312c-13.296 0-24 10.704-24 24v400c0 13.296 10.704 24 24 24h304c13.296 0 24-10.704 24-24z" filter="url(#a)" opacity=".1"/><path d="M640 232v-400c0-13.296-10.704-24-24-24H312c-13.296 0-24 10.704-24 24v400c0 13.296 10.704 24 24 24h304c13.296 0 24-10.704 24-24" filter="url(#a)" opacity=".2"/><path fill="#ebebeb" d="M640 228v-400c0-13.296-10.704-24-24-24H312c-13.296 0-24 10.704-24 24v400c0 13.296 10.704 24 24 24h304c13.296 0 24-10.704 24-24"/><path fill="#fff" d="M312-196c-13.296 0-24 10.704-24 24v2c0-13.296 10.704-24 24-24h304c13.296 0 24 10.704 24 24v-2c0-13.296-10.704-24-24-24z" opacity=".1"/><circle cx="584" cy="156" r="120" enable-background="new" filter="url(#b)" opacity=".2" transform="matrix(1 0 0 -1 0 312)"/><path d="M360-156v8h248v-8zm0 40v8h248v-8zm0 40v8h248v-8zm0 40v8h248v-8zm0 40v8h248V4zm0 40v8h248v-8zm0 40v8h248v-8zm0 40v8h248v-8zm0 40v8h248v-8zm0 40v8h248v-8z" opacity=".1"/><circle cx="584" cy="156" r="120" stroke="#000" stroke-width="8" enable-background="new" filter="url(#b)" opacity=".1" transform="matrix(1 0 0 -1 0 312)"/><circle cx="584" cy="148" r="120" fill="#673ab7" enable-background="new"/><path fill="#fff" fill-rule="evenodd" d="M584 98.011c-15.508.151-31.121 3.694-44.629 11.348-5.384 3.506-11.848 8.035-16.719 12.598-7.665 7.504-14.225 16.26-18.652 26.055 12.149 26.795 38.859 46.435 68.242 49.336 19.274 2.181 39.444-1.148 56.387-10.683 5.384-3.506 11.848-8.035 16.719-12.598 7.665-7.504 14.225-16.26 18.652-26.055-12.15-26.794-38.858-46.438-68.242-49.336A102 102 0 0 0 584 98.011zm0 20c16.07-.356 30.303 14.018 30 30 .515 17.664-17.09 32.909-34.492 29.609-17.576-2.063-29.921-21.778-24.141-38.476 3.692-12.294 15.758-21.286 28.633-21.133m0 20a10 10 0 0 0-10 10 10 10 0 0 0 10 10 10 10 0 0 0 10-10 10 10 0 0 0-10-10" enable-background="new"/><path d="M324-164a12 12 0 0 0-12 12 12 12 0 0 0 12 12 12 12 0 0 0 12-12 12 12 0 0 0-12-12m0 40a12 12 0 0 0-12 12 12 12 0 0 0 12 12 12 12 0 0 0 12-12 12 12 0 0 0-12-12m0 40a12 12 0 0 0-12 12 12 12 0 0 0 12 12 12 12 0 0 0 12-12 12 12 0 0 0-12-12m0 40a12 12 0 0 0-12 12 12 12 0 0 0 12 12 12 12 0 0 0 12-12 12 12 0 0 0-12-12m0 40a12 12 0 0 0-12 12 12 12 0 0 0 12 12 12 12 0 0 0 12-12 12 12 0 0 0-12-12m0 40a12 12 0 0 0-12 12 12 12 0 0 0 12 12 12 12 0 0 0 12-12 12 12 0 0 0-12-12m0 40a12 12 0 0 0-12 12 12 12 0 0 0 12 12 12 12 0 0 0 12-12 12 12 0 0 0-12-12m0 40a12 12 0 0 0-12 12 12 12 0 0 0 12 12 12 12 0 0 0 12-12 12 12 0 0 0-12-12m0 40a12 12 0 0 0-12 12 12 12 0 0 0 12 12 12 12 0 0 0 12-12 12 12 0 0 0-12-12m0 40a12 12 0 0 0-12 12 12 12 0 0 0 12 12 12 12 0 0 0 12-12 12 12 0 0 0-12-12" opacity=".1"/></g></svg>