<svg xmlns="http://www.w3.org/2000/svg" width="512" height="512" enable-background="new" version="1.0"><defs><filter id="a" width="1.048" height="1.048" x="-.024" y="-.024" color-interpolation-filters="sRGB"><feGaussianBlur stdDeviation="4.44"/></filter></defs><path d="M264-192c-13.296 0-24 10.704-24 24v392c0 13.296 10.704 24 24 24h400c13.296 0 24-10.704 24-24v-392c0-13.296-10.704-24-24-24z" filter="url(#a)" opacity=".2" transform="translate(-208 228)"/><path d="M264-192c-13.296 0-24 10.704-24 24v392c0 13.296 10.704 24 24 24h400c13.296 0 24-10.704 24-24v-392c0-13.296-10.704-24-24-24z" filter="url(#a)" opacity=".1" transform="translate(-208 228)"/><path fill="#866e52" d="M480 392V56c0-13.296-10.704-24-24-24H56c-13.296 0-24 10.704-24 24v336c0 13.296 10.704 24 24 24h400c13.296 0 24-10.704 24-24"/><path fill="#ab8c69" d="M480 424V104c0-13.296-10.704-24-24-24H56c-13.296 0-24 10.704-24 24v320c0 13.296 10.704 24 24 24h400c13.296 0 24-10.704 24-24"/><path fill="#c6ae91" d="M480 448V152c0-13.296-10.704-24-24-24H56c-13.296 0-24 10.704-24 24v296c0 13.296 10.704 24 24 24h400c13.296 0 24-10.704 24-24"/><path d="M32 446v2c0 13.296 10.704 24 24 24h400c13.296 0 24-10.704 24-24v-2c0 13.296-10.704 24-24 24H56c-13.296 0-24-10.704-24-24" opacity=".1"/><g fill="#fff"><path d="M56 80c-13.296 0-24 10.704-24 24v2c0-13.296 10.704-24 24-24h400c13.296 0 24 10.704 24 24v-2c0-13.296-10.704-24-24-24zM56 32c-13.296 0-24 10.704-24 24v2c0-13.296 10.704-24 24-24h400c13.296 0 24 10.704 24 24v-2c0-13.296-10.704-24-24-24zM56 128c-13.296 0-24 10.704-24 24v2c0-13.296 10.704-24 24-24h400c13.296 0 24 10.704 24 24v-2c0-13.296-10.704-24-24-24z" opacity=".1"/></g><path d="M56 78c-13.296 0-24 10.704-24 24v2c0-13.296 10.704-24 24-24h400c13.296 0 24 10.704 24 24v-2c0-13.296-10.704-24-24-24zM56 126c-13.296 0-24 10.704-24 24v2c0-13.296 10.704-24 24-24h400c13.296 0 24 10.704 24 24v-2c0-13.296-10.704-24-24-24z" opacity=".1"/><path d="M56 76c-13.296 0-24 10.704-24 24v2c0-13.296 10.704-24 24-24h400c13.296 0 24 10.704 24 24v-2c0-13.296-10.704-24-24-24zM56 124c-13.296 0-24 10.704-24 24v2c0-13.296 10.704-24 24-24h400c13.296 0 24 10.704 24 24v-2c0-13.296-10.704-24-24-24z" opacity=".05"/><path d="M56 74c-13.296 0-24 10.704-24 24v2c0-13.296 10.704-24 24-24h400c13.296 0 24 10.704 24 24v-2c0-13.296-10.704-24-24-24zM56 122c-13.296 0-24 10.704-24 24v2c0-13.296 10.704-24 24-24h400c13.296 0 24 10.704 24 24v-2c0-13.296-10.704-24-24-24z" opacity=".02"/></svg>