<svg width="512" height="512" enable-background="new" version="1.0" xmlns="http://www.w3.org/2000/svg" xmlns:osb="http://www.openswatchbook.org/uri/2009/osb" xmlns:xlink="http://www.w3.org/1999/xlink">
 <defs>
  <filter id="a" x="-.023786" y="-.024218" width="1.0476" height="1.0484" color-interpolation-filters="sRGB">
   <feGaussianBlur stdDeviation="4.44"/>
  </filter>
 </defs>
 <g transform="translate(0,212)">
  <g>
   <g transform="translate(-208,16)">
    <path d="m264-192c-13.296 0-24 10.704-24 24v392c0 13.296 10.704 24 24 24h400c13.296 0 24-10.704 24-24v-392c0-13.296-10.704-24-24-24z" filter="url(#a)" opacity=".2"/>
    <path d="m264-192c-13.296 0-24 10.704-24 24v392c0 13.296 10.704 24 24 24h400c13.296 0 24-10.704 24-24v-392c0-13.296-10.704-24-24-24z" filter="url(#a)" opacity=".1"/>
    <path d="m688 164v-336c0-13.296-10.704-24-24-24h-400c-13.296 0-24 10.704-24 24v336c0 13.296 10.704 24 24 24h400c13.296 0 24-10.704 24-24z" fill="#866e52"/>
    <path d="m688 196v-320c0-13.296-10.704-24-24-24h-400c-13.296 0-24 10.704-24 24v320c0 13.296 10.704 24 24 24h400c13.296 0 24-10.704 24-24z" fill="#ab8c69"/>
    <path d="m688 220v-296c0-13.296-10.704-24-24-24h-400c-13.296 0-24 10.704-24 24v296c0 13.296 10.704 24 24 24h400c13.296 0 24-10.704 24-24z" fill="#c6ae91"/>
    <path d="m240 218v2c0 13.296 10.704 24 24 24h400c13.296 0 24-10.704 24-24v-2c0 13.296-10.704 24-24 24h-400c-13.296 0-24-10.704-24-24z" opacity=".1"/>
    <g fill="#fff">
     <path d="m264-148c-13.296 0-24 10.704-24 24v2c0-13.296 10.704-24 24-24h400c13.296 0 24 10.704 24 24v-2c0-13.296-10.704-24-24-24z" opacity=".1"/>
     <path d="m264-196c-13.296 0-24 10.704-24 24v2c0-13.296 10.704-24 24-24h400c13.296 0 24 10.704 24 24v-2c0-13.296-10.704-24-24-24z" opacity=".1"/>
     <path d="m264-100c-13.296 0-24 10.704-24 24v2c0-13.296 10.704-24 24-24h400c13.296 0 24 10.704 24 24v-2c0-13.296-10.704-24-24-24z" opacity=".1"/>
    </g>
    <g>
     <path d="m264-150c-13.296 0-24 10.704-24 24v2c0-13.296 10.704-24 24-24h400c13.296 0 24 10.704 24 24v-2c0-13.296-10.704-24-24-24z" opacity=".1"/>
     <path d="m264-102c-13.296 0-24 10.704-24 24v2c0-13.296 10.704-24 24-24h400c13.296 0 24 10.704 24 24v-2c0-13.296-10.704-24-24-24z" opacity=".1"/>
     <path d="m264-152c-13.296 0-24 10.704-24 24v2c0-13.296 10.704-24 24-24h400c13.296 0 24 10.704 24 24v-2c0-13.296-10.704-24-24-24z" opacity=".05"/>
     <path d="m264-104c-13.296 0-24 10.704-24 24v2c0-13.296 10.704-24 24-24h400c13.296 0 24 10.704 24 24v-2c0-13.296-10.704-24-24-24z" opacity=".05"/>
     <path d="m264-154c-13.296 0-24 10.704-24 24v2c0-13.296 10.704-24 24-24h400c13.296 0 24 10.704 24 24v-2c0-13.296-10.704-24-24-24z" opacity=".02"/>
     <path d="m264-106c-13.296 0-24 10.704-24 24v2c0-13.296 10.704-24 24-24h400c13.296 0 24 10.704 24 24v-2c0-13.296-10.704-24-24-24z" opacity=".02"/>
    </g>
   </g>
  </g>
 </g>
</svg>
