<svg xmlns="http://www.w3.org/2000/svg" width="512" height="512" enable-background="new" version="1.0"><defs><filter id="a" width="1.048" height="1.048" x="-.024" y="-.024" color-interpolation-filters="sRGB"><feGaussianBlur stdDeviation="4.48"/></filter><filter id="b" width="1.048" height="1.048" x="-.024" y="-.024" color-interpolation-filters="sRGB"><feGaussianBlur stdDeviation="2.4"/></filter></defs><g transform="translate(-208 228)"><rect width="448" height="448" x="-253" y="-688" enable-background="new" opacity=".2" rx="224" ry="224" transform="scale(1 -1)rotate(90)"/><rect width="448" height="448" x="384" y="-688" stroke="#000" stroke-width="8" enable-background="new" filter="url(#a)" opacity=".1" rx="224" ry="224" transform="matrix(0 -1 -1 0 0 640)"/><rect width="448" height="448" x="384" y="-688" enable-background="new" filter="url(#a)" opacity=".2" rx="224" ry="224" transform="matrix(0 -1 -1 0 0 640)"/><rect width="448" height="448" x="-252" y="-688" fill="#009688" enable-background="new" rx="224" ry="224" transform="scale(1 -1)rotate(90)"/><path fill="#fff" d="M464.3-99.52c43.38 0 78.546 35.166 78.546 78.545S507.68 57.571 464.3 57.571s-78.545-35.166-78.545-78.546S420.921-99.52 464.3-99.52M438.118 83.75h52.364c38.583 0 71.31 22.994 89.182 54.818-28.684 30.857-69.911 49.909-115.36 49.909-45.452 0-86.679-19.052-115.36-49.909 17.872-31.824 50.599-54.818 89.182-54.818z" color="#000" enable-background="accumulate"/><path fill="#fff" d="M464-196c-124.1 0-224 99.904-224 224 0 .233.011.463.016.695.699-123.49 100.32-222.7 223.98-222.7 123.67 0 223.3 99.216 223.98 222.71.005-.238.015-.475.015-.715 0-124.1-99.904-224-224-224z" enable-background="new" opacity=".1"/></g><path fill="#e9e9e9" d="M720-624H208v512h512z" enable-background="accumulate"/><g transform="translate(0 212)"><rect width="448" height="448" x="355" y="-688" enable-background="new" opacity=".2" rx="224" ry="224" transform="scale(1 -1)rotate(90)"/><rect width="448" height="448" x="384" y="-688" stroke="#000" stroke-width="8" enable-background="new" filter="url(#a)" opacity=".1" rx="224" ry="224" transform="matrix(0 -1 -1 0 0 32)"/><rect width="448" height="448" x="384" y="-688" enable-background="new" filter="url(#a)" opacity=".2" rx="224" ry="224" transform="matrix(0 -1 -1 0 0 32)"/><rect width="448" height="448" x="356" y="-688" fill="#009688" enable-background="new" rx="224" ry="224" transform="scale(1 -1)rotate(90)"/><path fill="#fff" d="M464.3-707.52c43.38 0 78.546 35.166 78.546 78.545s-35.166 78.546-78.546 78.546-78.545-35.166-78.545-78.546 35.166-78.545 78.545-78.545m-26.182 183.27h52.364c38.583 0 71.31 22.994 89.182 54.818-28.684 30.857-69.911 49.909-115.36 49.909-45.452 0-86.679-19.052-115.36-49.909 17.872-31.824 50.599-54.818 89.182-54.818z" color="#000" enable-background="accumulate"/><path fill="#fff" d="M464-804c-124.1 0-224 99.904-224 224 0 .233.011.463.016.695.699-123.49 100.32-222.7 223.98-222.7 123.67 0 223.3 99.216 223.98 222.71.005-.238.015-.475.015-.715 0-124.1-99.904-224-224-224z" enable-background="new" opacity=".1"/><circle cx="584" cy="-456" r="120" enable-background="new" filter="url(#b)" opacity=".2"/><circle cx="584" cy="-456" r="120" stroke="#000" stroke-width="8" enable-background="new" filter="url(#b)" opacity=".1"/><circle cx="584" cy="-460" r="120" fill="#02a8f3" enable-background="new"/><path fill="#fff" d="M584-536a20 20 0 0 0-20 20 20 20 0 0 0 20 20 20 20 0 0 0 20-20 20 20 0 0 0-20-20m-16 60v88h32v-88z"/></g></svg>