<svg xmlns="http://www.w3.org/2000/svg" width="512" height="512" enable-background="new" version="1.0"><defs><filter id="a" width="1.048" height="1.048" x="-.024" y="-.024" color-interpolation-filters="sRGB"><feGaussianBlur stdDeviation="4.8"/></filter></defs><g transform="translate(-208 228)"><circle cx="464" cy="30" r="240" enable-background="new" opacity=".2"/><circle cx="464" cy="32" r="240" enable-background="new" filter="url(#a)" opacity=".1"/><circle cx="464" cy="32" r="240" enable-background="new" filter="url(#a)" opacity=".2"/><circle cx="464" cy="28" r="240" fill="#f57f17" enable-background="new"/><path fill="#fff" d="M464-212A240 240 0 0 0 224 28l.041 1.172A240 240 0 0 1 464-210 240 240 0 0 1 703.959 28.828L704 28a240 240 0 0 0-240-240" enable-background="new" opacity=".2"/><path fill="none" stroke="#fff" stroke-width="24" d="M332 27.997a132 132 0 0 1 66.002-114.32 132 132 0 0 1 132 0M596 28.003a132 132 0 0 1-66.002 114.32 132 132 0 0 1-132 0"/><path fill="#fff" fill-rule="evenodd" d="m332 76 36-48h-72zM596-20l-36 48h72z" enable-background="new"/></g></svg>