<svg xmlns="http://www.w3.org/2000/svg" width="512" height="512" enable-background="new" version="1.0"><defs><filter id="f" width="1.044" height="1.052" x="-.022" y="-.026" color-interpolation-filters="sRGB"><feGaussianBlur stdDeviation="3.84"/></filter><filter id="b" width="1.046" height="1.05" x="-.023" y="-.025" color-interpolation-filters="sRGB"><feGaussianBlur stdDeviation="4.32"/></filter><filter id="a" width="1.046" height="1.05" x="-.023" y="-.025" color-interpolation-filters="sRGB"><feGaussianBlur stdDeviation="4.32"/></filter><filter id="g" width="1.144" height="1.72" x="-.072" y="-.36" color-interpolation-filters="sRGB"><feGaussianBlur stdDeviation="4.8"/></filter><clipPath id="e"><path fill="#bb9e7b" d="M255.84 83.938v-256c0-13.296 10.704-24 24-24h160l48 48h160c13.296 0 24 10.704 24 24v208c0 13.296-10.704 24-24 24h-368c-13.296 0-24-10.704-24-24"/></clipPath></defs><path d="M71.84 51.94c-13.296 0-24 10.704-24 24v73.477a23.95 23.95 0 0 0-15.844 22.586v272c0 13.296 10.704 24 24 24h400c13.296 0 24-10.704 24-24v-272a23.94 23.94 0 0 0-16.156-22.691v-25.371c0-13.296-10.704-24-24-24h-160l-48-48z" filter="url(#a)" opacity=".1"/><path d="M71.84 51.94c-13.296 0-24 10.704-24 24v73.477a23.95 23.95 0 0 0-15.844 22.586v272c0 13.296 10.704 24 24 24h400c13.296 0 24-10.704 24-24v-272a23.94 23.94 0 0 0-16.156-22.691v-25.371c0-13.296-10.704-24-24-24h-160l-48-48z" filter="url(#b)" opacity=".2"/><path fill="#546e7a" d="M47.84 327.94v-256c0-13.296 10.704-24 24-24h160l48 48h160c13.296 0 24 10.704 24 24v208c0 13.296-10.704 24-24 24h-368c-13.296 0-24-10.704-24-24"/><path fill="#fff" d="M71.84 47.94c-13.296 0-24 10.704-24 24v2c0-13.296 10.704-24 24-24h160l47 47 1-1-48-48z" opacity=".2"/><path d="M671.84 179.93v-304c0-13.296-10.704-24-24-24h-160l-48 48h-160c-13.296 0-24 10.704-24 24v256c0 13.296 10.704 24 24 24h368c13.296 0 24-10.704 24-24" clip-path="url(#e)" filter="url(#f)" opacity=".2" transform="translate(-208 244)"/><path fill="#78909c" d="M463.84 423.93v-304c0-13.296-10.704-24-24-24h-160l-48 48h-160c-13.296 0-24 10.704-24 24v256c0 13.296 10.704 24 24 24h368c13.296 0 24-10.704 24-24"/><path fill="#fff" d="m279.84 95.94-48 48h-160c-13.296 0-24 10.704-24 24v2c0-13.296 10.704-24 24-24h160l48-48h160c13.296 0 24 10.704 24 24v-2c0-13.296-10.704-24-24-24z" opacity=".2"/><rect width="320" height="448" x="-464" y="-480" fill="#cfd8dc" rx="24" ry="24" transform="scale(1 -1)rotate(90)"/><path fill="#fff" d="M56 144c-13.296 0-24 10.704-24 24v2c0-13.296 10.704-24 24-24h400c13.296 0 24 10.704 24 24v-2c0-13.296-10.704-24-24-24z" opacity=".2"/><rect width="160" height="32" x="176" y="216" filter="url(#g)" opacity=".2" rx="0" ry="8"/><rect width="160" height="32" x="176" y="208" fill="#fff" rx="0" ry="8"/><path d="M32 440v2c0 13.296 10.704 24 24 24h400c13.296 0 24-10.704 24-24v-2c0 13.296-10.704 24-24 24H56c-13.296 0-24-10.704-24-24" opacity=".2"/></svg>