<svg xmlns="http://www.w3.org/2000/svg" width="512" height="512" enable-background="new" version="1.0"><defs><filter id="a" width="1.045" height="1.051" x="-.023" y="-.025" color-interpolation-filters="sRGB"><feGaussianBlur stdDeviation="4.24"/></filter><filter id="c" color-interpolation-filters="sRGB"><feGaussianBlur stdDeviation="2.4"/></filter><linearGradient id="b" x1="-180" x2="-228" y1="-472" y2="-472" gradientTransform="translate(62.806 101.82)" gradientUnits="userSpaceOnUse"><stop offset="0"/><stop offset="1" stop-opacity="0"/></linearGradient></defs><g transform="translate(-106.18 276.806)"><path d="M162.18-206.81c-13.296 0-24 10.704-24 24v304c0 13.296 10.704 24 24 24h104v40c0 4.432 3.568 8 8 8h176c4.432 0 8-3.568 8-8v-40h104c13.296 0 24-10.704 24-24v-304c0-13.296-10.704-24-24-24z" filter="url(#a)" opacity=".1"/><path d="M162.18-206.81c-13.296 0-24 10.704-24 24v304c0 13.296 10.704 24 24 24h104v40c0 4.432 3.568 8 8 8h176c4.432 0 8-3.568 8-8v-40h104c13.296 0 24-10.704 24-24v-304c0-13.296-10.704-24-24-24z" filter="url(#a)" opacity=".2"/><path d="M162.18-208.81c-13.296 0-24 10.704-24 24v304c0 13.296 10.704 24 24 24h104v40c0 4.432 3.568 8 8 8h176c4.432 0 8-3.568 8-8v-40h104c13.296 0 24-10.704 24-24v-304c0-13.296-10.704-24-24-24z" opacity=".2"/><rect width="104" height="192" x="-189.19" y="-458.18" fill="#b0bec5" ry="8" transform="scale(1 -1)rotate(90)"/><rect width="104" height="192" x="-189.19" y="-458.18" fill="url(#b)" opacity=".2" ry="8" transform="scale(1 -1)rotate(90)"/><rect width="352" height="448" x="-141.19" y="-586.18" fill="#cfd8dc" rx="24" ry="24" transform="scale(1 -1)rotate(90)"/><path fill="#fff" d="M162.18-210.81c-13.296 0-24 10.704-24 24v2c0-13.296 10.704-24 24-24h400c13.296 0 24 10.704 24 24v-2c0-13.296-10.704-24-24-24z" opacity=".2"/><path fill="none" stroke="#000" stroke-width="2" d="M266.18 142.19h192" filter="url(#c)" opacity=".2"/><rect width="256" height="416" x="-63.194" y="-570.18" fill="#fff" opacity=".5" rx="4" ry="4" transform="scale(1 -1)rotate(90)"/><rect width="256" height="416" x="-61.194" y="-570.18" fill="#78909c" rx="4" ry="4" transform="scale(1 -1)rotate(90)"/><path d="M158.18-194.81c-2.216 0-4 1.784-4 4v2c0-2.216 1.784-4 4-4h408c2.216 0 4 1.784 4 4v-2c0-2.216-1.784-4-4-4z" opacity=".2"/><path fill="#37474f" d="M362.18-146.81c-22.091 0-40 17.908-40 40 0 16.568 9.93 30.713 24.286 36.785L322.18 13.19h80l-24.286-83.215c14.357-6.072 24.286-20.217 24.286-36.785 0-22.092-17.909-40-40-40" color="#000" enable-background="accumulate"/></g></svg>