<svg xmlns="http://www.w3.org/2000/svg" width="512" height="512" enable-background="new" version="1.0"><defs><filter id="a" width="1.048" height="1.048" x="-.024" y="-.024" color-interpolation-filters="sRGB"><feGaussianBlur stdDeviation="4.8"/></filter></defs><g transform="translate(-208 228)"><circle cx="464" cy="30" r="240" opacity=".2"/><circle cx="464" cy="32" r="240" filter="url(#a)" opacity=".1"/><circle cx="464" cy="32" r="240" filter="url(#a)" opacity=".2"/><circle cx="464" cy="29.172" r="240" fill="#20a4e2"/><path fill="#fff" d="M464-212A240 240 0 0 0 224 28l.041 1.172A240 240 0 0 1 464-210 240 240 0 0 1 703.959 28.828L704 28a240 240 0 0 0-240-240" opacity=".2"/><path fill="#fff" fill-rule="evenodd" d="M561.5-80.645a19.3 19.3 0 0 0-6.559 1.088L337.561-3.305c-16.139 5.664-17.495 27.962-2.161 35.54l88.596 43.766 43.765 88.596c7.579 15.333 29.876 13.978 35.54-2.162l76.253-217.38a19.32 19.32 0 0 0-4.264-19.737c-.101-.105-.21-.2-.313-.303s-.198-.212-.304-.313a19.3 19.3 0 0 0-13.178-5.352z" color="#000" enable-background="accumulate" style="isolation:auto;mix-blend-mode:normal;text-decoration-color:#000;text-decoration-line:none;text-decoration-style:solid;text-indent:0;text-transform:none;white-space:normal"/></g></svg>