<svg xmlns="http://www.w3.org/2000/svg" width="512" height="512" enable-background="new" version="1.0"><defs><filter id="a" width="1.045" height="1.052" x="-.022" y="-.026" color-interpolation-filters="sRGB"><feGaussianBlur stdDeviation="4.16"/></filter></defs><g transform="translate(-224 228)"><rect width="384" height="448" x="-224" y="-704" stroke="#000" stroke-width="8" filter="url(#a)" opacity=".1" rx="24" ry="24" transform="scale(1 -1)rotate(90)"/><rect width="384" height="448" x="-224" y="-704" filter="url(#a)" opacity=".2" rx="24" ry="24" transform="scale(1 -1)rotate(90)"/><rect width="384" height="448" x="-220" y="-704" fill="#3f3f3f" opacity=".9" rx="24" ry="24" transform="scale(1 -1)rotate(90)"/><path d="M256 194v2c0 13.296 10.704 24 24 24h400c13.296 0 24-10.704 24-24v-2c0 13.296-10.704 24-24 24H280c-13.296 0-24-10.704-24-24" opacity=".2"/><path d="M280 220c-13.296 0-24-10.704-24-24V28h224v192zM280-164c-13.296 0-24 10.704-24 24V28h224v-192z" opacity=".05"/><path fill="#fff" d="M336-84h32v8h-32z" color="#bebebe" enable-background="accumulate" opacity=".8"/><path fill="#fff" d="M304.558-128h6.915v3.913a14.3 14.3 0 0 1 5.296 2.226q2.462 1.62 4.452 4.014l-4.081 5.161-1.788-2.26q-.675-.775-1.822-1.518a7.3 7.3 0 0 0-2.395-1.045v10.153q2.733.877 4.824 1.956 2.091 1.08 3.474 2.496a9.4 9.4 0 0 1 2.125 3.205q.71 1.754.709 4.014a11.4 11.4 0 0 1-.742 4.082 11.4 11.4 0 0 1-2.16 3.508q-1.382 1.585-3.372 2.732-1.99 1.146-4.52 1.653V-80h-6.916v-3.508q-3.17-.54-6.105-2.125c-2.935-1.585-3.7-2.429-5.229-4.115l4.217-5.937 1.956 2.429q1.148 1.248 2.43 2.125 1.315.876 3.069 1.248v-12.346q-2.463-.91-4.42-2.024-1.922-1.113-3.271-2.462a10.2 10.2 0 0 1-2.024-3.036q-.708-1.686-.708-3.677 0-1.888.708-3.609a10 10 0 0 1 2.024-3.103q1.316-1.384 3.17-2.361 1.89-1.013 4.183-1.485zm6.578 37.712q1.822-.64 2.935-1.821 1.147-1.18 1.147-3.137 0-1.62-1.012-2.834-.98-1.214-3.07-1.956zm-6.24-27.288q-1.418.37-2.294 1.315t-.877 2.429q0 1.08.708 2.226.709 1.148 2.463 1.754z" opacity=".8"/><path fill="#fff" d="M556-84h32v8h-32z" color="#bebebe" enable-background="accumulate" opacity=".8"/><path fill="#fff" d="M524.558-128h6.915v3.913a14.3 14.3 0 0 1 5.296 2.226q2.462 1.62 4.452 4.014l-4.081 5.161-1.788-2.26q-.675-.775-1.822-1.518a7.3 7.3 0 0 0-2.395-1.045v10.153q2.733.877 4.824 1.956 2.091 1.08 3.474 2.496a9.4 9.4 0 0 1 2.125 3.205q.71 1.754.709 4.014a11.4 11.4 0 0 1-.742 4.082 11.4 11.4 0 0 1-2.16 3.508q-1.382 1.585-3.372 2.732-1.99 1.146-4.52 1.653V-80h-6.916v-3.508q-3.17-.54-6.105-2.125c-2.935-1.585-3.7-2.429-5.229-4.115l4.217-5.937 1.956 2.429q1.148 1.248 2.43 2.125 1.315.876 3.069 1.248v-12.346q-2.463-.91-4.42-2.024-1.922-1.113-3.271-2.462a10.2 10.2 0 0 1-2.024-3.036q-.708-1.686-.708-3.677 0-1.888.708-3.609a10 10 0 0 1 2.024-3.103q1.316-1.384 3.17-2.361 1.89-1.013 4.183-1.485zm6.578 37.712q1.822-.64 2.935-1.821 1.147-1.18 1.147-3.137 0-1.62-1.012-2.834-.98-1.214-3.07-1.956zm-6.24-27.288q-1.418.37-2.294 1.315t-.877 2.429q0 1.08.708 2.226.709 1.148 2.463 1.754z" opacity=".8"/></g></svg>