<svg xmlns="http://www.w3.org/2000/svg" width="512" height="512" enable-background="new" version="1.0"><defs><filter id="a" width="1.048" height="1.048" x="-.024" y="-.024" color-interpolation-filters="sRGB"><feGaussianBlur stdDeviation="4.405"/></filter><filter id="e" width="1.36" height="1.072" x="-.18" y="-.036" color-interpolation-filters="sRGB"><feGaussianBlur stdDeviation="2.4"/></filter><filter id="d" width="1.04" height="1.059" x="-.02" y="-.03" color-interpolation-filters="sRGB"><feGaussianBlur stdDeviation="1.253"/></filter><filter id="f" width="1.24" height="1.24" x="-.12" y="-.12" color-interpolation-filters="sRGB"><feGaussianBlur stdDeviation="2.2"/></filter><clipPath id="c"><path d="m482.16 43.278-72 124.71c-4.432 7.676-1.82 17.424 5.856 21.856s17.424 1.82 21.856-5.856l72-124.71z" opacity=".2"/></clipPath></defs><path stroke="#000" stroke-width="8" d="M240-184.73v395.99q0 .164.024.328c-.1 7.663 1.756 15.456 5.881 22.601 9.787 16.951 28.994 24.898 47.114 21.07H680V167.26H449.83L648.95 52.3l-.413-.714.445-.258-43.999-76.209-76.204 43.999-124.53 71.896 27.897-48.318 44-76.209 43.998-76.204-76.209-43.999-43.999 76.204-43.999 76.209-27.935 48.382v-231.81h-87.999z" filter="url(#a)" opacity=".1" transform="translate(-208 228)"/><path d="M240-184.73v395.99q0 .164.024.328c-.1 7.663 1.756 15.456 5.881 22.601 9.787 16.951 28.994 24.898 47.114 21.07H680V167.26H449.83L648.95 52.3l-.413-.714.445-.258-43.999-76.209-76.204 43.999-124.53 71.896 27.897-48.318 44-76.209 43.998-76.204-76.209-43.999-43.999 76.204-43.999 76.209-27.935 48.382v-231.81h-87.999z" filter="url(#a)" opacity=".2" transform="translate(-208 228)"/><path fill="#03a9f4" d="M120 436c0 24.376-19.624 44-44 44h44z"/><path fill="#81d4fa" d="M384 392v88h-88v-88z"/><path fill="#4fc3f7" d="M296 392v88h-88v-88z"/><path fill="#29b6f6" d="M208 392v88h-88v-88z"/><path fill="#b3e5fc" d="M472 392v88h-88v-88z"/><path d="M408 32v144c0 8.864 7.136 16 16 16s16-7.136 16-16V32z" clip-path="url(#c)" filter="url(#d)" opacity=".2" transform="rotate(60 671.212 -490.24)scale(2.7742)"/><path fill="#9c27b0" d="m92.14 375.86-27.953 16.141h37.266zm27.859 48.25v11.891c0 16.078-8.567 30.043-21.375 37.719l37.516-21.656zM32.03 436.579c.008.63.056 1.26.094 1.89-.032-.628-.086-1.254-.094-1.89m24.531 38.875c.136.064.27.138.406.203-.136-.064-.27-.136-.406-.203m3.766 1.64c.228.088.458.167.687.25q-.346-.122-.687-.25m3.968 1.298q.444.12.891.234c-.298-.072-.594-.154-.89-.234m22.125.328c-.324.08-.64.178-.968.25.324-.073.644-.171.968-.25m-18.094.578c.406.072.812.126 1.22.187a34 34 0 0 1-1.22-.187m14.11.187c-.413.064-.819.138-1.235.187.412-.048.823-.126 1.234-.187m-10.017.344c.66.056 1.323.072 1.985.094-.663-.024-1.329-.04-1.985-.094m6.266.048c-.695.04-1.39.085-2.094.094a39 39 0 0 0 2.094-.094"/><path fill="#ce93d8" d="M320.77 243.856c55.364 2.99 52.658 37.961 44 76.21l-76.21 44c-24.608-19.352-60.365-31.918-44-76.21z"/><path fill="#ba68c8" d="m244.56 287.856 44 76.21-76.21 44c-50.814-5.687-51.07-38.95-44-76.21z"/><path fill="#ab47bc" d="m168.35 331.86 44 76.21-76.21 44-44-76.21z"/><path fill="#e1bee7" d="m396.98 199.856 44 76.21-76.21 44-44-76.21z"/><path d="M408 32v144c0 8.864 7.136 16 16 16s16-7.136 16-16V32z" clip-path="url(#c)" opacity=".2" transform="rotate(30.001 725.936 -1590.869)scale(2.7742)"/><path fill="#d50000" d="m59.94 375.86-9.313 16.141h37.266zm60.062 34.688v25.453c0 7.605-1.913 14.74-5.281 20.969l21.422-37.109zM32.08 437.595c.024.662.04 1.325.094 1.984-.056-.656-.072-1.32-.094-1.984m.438 4.86c.064.407.115.813.187 1.218-.072-.403-.128-.811-.187-1.219m2.14 8.531c.083.23.163.459.25.687-.087-.227-.167-.458-.25-.687m1.688 4.047c.064.136.136.27.203.406-.064-.136-.138-.27-.203-.406m78.28 2.078c-.26.48-.564.937-.843 1.406.113-.19.249-.355.36-.547zm-2.843 4.484c-.105.146-.206.293-.313.438.107-.145.208-.292.313-.438m-2.625 3.344c-.222.255-.46.5-.687.75.229-.25.464-.493.687-.75M106.205 468c-.27.256-.551.502-.828.75.277-.249.556-.493.828-.75m-6.688 5.188c-.373.236-.759.462-1.14.687.383-.225.764-.45 1.14-.687m-11.422 5.109c-.561.16-1.132.285-1.703.422.569-.138 1.14-.262 1.703-.422m-8.375 1.516c-.722.056-1.455.084-2.187.11a42 42 0 0 0 2.187-.11m-6.187.064c.631.04 1.26.085 1.89.093-.635-.008-1.261-.056-1.89-.093"/><path fill="#ff8a80" d="M191.93 147.226c63.874-27.468 66.123 12.559 76.21 44l-44 76.21c-54.036 31.146-56.715-19.88-76.21-44z"/><path fill="#ff5252" d="m147.93 223.436 76.21 44-44 76.21c-38.038 7.795-62.158-9.154-76.21-44z"/><path fill="#ff1744" d="m103.93 299.646 76.21 44-44 76.21-76.21-44z"/><path d="M408 32v144c0 8.864 7.136 16 16 16s16-7.136 16-16V32z" clip-path="url(#c)" filter="url(#e)" opacity=".2" transform="translate(-1099.15 -52.65)scale(2.7742)"/><path fill="#ffc9c4" d="m235.93 71.02 76.21 44-44 76.21-76.21-44z"/><path fill="#ff9800" d="M32 392v44c0 24.376 19.624 44 44 44s44-19.624 44-44v-44c-29.333-42.346-58.667-28.748-88 0"/><path fill="#ffcc80" d="M32 128c27.494-22.074 57.949-8.615 88 0v88c-26.74 16.856-51.128 49.003-88 0z"/><path fill="#ffb74d" d="M32 216h88v88c-34.313 39.837-64.968 50.411-88 0z"/><path fill="#ffa726" d="M32 304h88v88H32z"/><path fill="#ffe0b2" d="M32 40h88v88H32z"/><path d="M306 214a22 22 0 0 1-22 22 22 22 0 0 1-22-22 22 22 0 0 1 22-22 22 22 0 0 1 22 22" filter="url(#f)" opacity=".2" transform="translate(-208 228)"/><path fill="#fff" d="M98 436a22 22 0 0 1-22 22 22 22 0 0 1-22-22 22 22 0 0 1 22-22 22 22 0 0 1 22 22"/><path fill="#fff" d="M32 40v2h88v-2zm203.94 31.016-44 76.203-44 76.219-27.938 48.391v2l27.938-48.391 44-76.219 44-76.203 75.336 43.5.867-1.5zm161.05 128.84-76.203 44-76.219 44-49.062 28.641-6.953 12.031 1.742-1.016 5.211-9.015 49.062-28.641 76.219-44 76.203-44 43.135 74.705.865-.502zm-156.91 192.14-3.467 2h235.39v-2h-176z" opacity=".2"/></svg>