<svg width="64" height="64" version="1" xmlns="http://www.w3.org/2000/svg">
 <defs>
  <filter id="filter844" x="-.06" y="-.06" width="1.12" height="1.12" color-interpolation-filters="sRGB">
   <feGaussianBlur stdDeviation="1.4"/>
  </filter>
 </defs>
 <circle cx="32" cy="33" r="28" fill="#000000" filter="url(#filter844)" opacity=".35"/>
 <circle cx="32" cy="32" r="28" fill="#d44e41"/>
 <path d="m33.407 46.052c-3.9193-1.414-5.9732-1.1036-7.5841-1.0524-1.7115 0.14785-3.3677 0.59023-5.046 1.1417-0.91967 0.26812-0.92089 0.25419-0.0616-0.70659 2.6445-2.3141 5.7155-4.2073 8.7817-4.8266 2.2261 0 3.699-1.7827 3.2231-3.2629-1.7876-2.9105-6.72-6.7098-6.72-7.7451 0-0.86663 1.5134-3.0671 3.4916-5.1562 0.87535-0.92442 2.0531-1.6638 1.78-1.9152-0.56894-0.52396-6.0252-1.529-8.5749-1.529-2.0365 0-3.8315 1.3719-3.8315 2.7169 0 0.37312 0.2497 1.4093 1.0444 2.3027l1.4449 1.6243c-0.95572 1.0899-1.364 2.2714-3.0078 2.2714-2.3576 0-2.3576-1.9087-2.3451-3.7653 0.33289-4.5464 7.2725-9.7467 13.836-9.0942 4.1516 0.41347 7.7907 0.64672 11.765 0.94426 2.2112 0.1091 3.5974-0.08293 5.6712-0.86841 1.5028-0.56922 0.54443 1.2621-1.7054 3.2587-2.706 2.4014-4.3071 3.0092-8.6414 2.6097-3.2419-0.29881-4.1289 0.33156-4.8716 2.3099-0.58938 1.57 0.85345 3.0663 3.9149 6.2614 1.5096 1.5755 2.0396 2.5932 2.0292 3.589-0.0094 0.89113-0.41145 1.7648-1.5832 3.005-1.0331 1.0935-2.424 2.1813-2.2763 2.4173 0.46359 0.74038 3.533 2.4174 5.2059 2.4174 0.88176 0 3.3454-0.55375 4.3352-1.0521 1.6742-0.84304 2.3848-0.83543 2.3848 0.02553 0 0.68178-6.0691 5.0345-9.0829 5.0266-0.54823-0.0015-2.1576-0.43557-3.5766-0.94754z" fill="#3f3f3f"/>
 <path d="m32 4a28 28 0 0 0-28 28 28 28 0 0 0 0.017578 0.49219 28 28 0 0 1 27.982-27.492 28 28 0 0 1 27.975 27.492 28 28 0 0 0 0.025391-0.49219 28 28 0 0 0-28-28z" fill="#ffffff" opacity=".2"/>
</svg>
