<svg xmlns="http://www.w3.org/2000/svg" width="64" height="64" version="1"><defs><filter id="a" width="1.12" height="1.12" x="-.06" y="-.06" color-interpolation-filters="sRGB"><feGaussianBlur stdDeviation="1.4"/></filter></defs><circle cx="32" cy="33" r="28" filter="url(#a)" opacity=".35"/><circle cx="32" cy="32" r="28" fill="#d44e41"/><path fill="#3f3f3f" d="M33.407 46.052c-3.92-1.414-5.973-1.104-7.584-1.052-1.712.147-3.368.59-5.046 1.141-.92.268-.921.254-.062-.706 2.645-2.314 5.716-4.208 8.782-4.827 2.226 0 3.699-1.783 3.223-3.263-1.787-2.91-6.72-6.71-6.72-7.745 0-.867 1.514-3.067 3.492-5.156.875-.925 2.053-1.664 1.78-1.915-.57-.524-6.025-1.53-8.575-1.53-2.037 0-3.832 1.373-3.832 2.718 0 .373.25 1.409 1.045 2.302l1.445 1.625c-.956 1.09-1.364 2.271-3.008 2.271-2.358 0-2.358-1.909-2.345-3.765.333-4.547 7.272-9.747 13.836-9.094 4.151.413 7.79.646 11.765.944 2.21.109 3.597-.083 5.67-.869 1.504-.569.545 1.262-1.704 3.26-2.706 2.4-4.308 3.008-8.642 2.609-3.242-.299-4.129.331-4.871 2.31-.59 1.57.853 3.066 3.914 6.261 1.51 1.576 2.04 2.593 2.03 3.59-.01.89-.412 1.764-1.584 3.004-1.033 1.094-2.424 2.181-2.276 2.417.464.74 3.533 2.418 5.206 2.418.882 0 3.345-.554 4.335-1.052 1.674-.843 2.385-.836 2.385.025 0 .682-6.07 5.035-9.083 5.027-.548-.002-2.157-.436-3.576-.948z"/><path fill="#fff" d="M32 4A28 28 0 0 0 4 32a28 28 0 0 0 .018.492A28 28 0 0 1 32 5a28 28 0 0 1 27.975 27.492A28 28 0 0 0 60 32 28 28 0 0 0 32 4" opacity=".2"/></svg>