<svg xmlns="http://www.w3.org/2000/svg" width="512" height="512" enable-background="new" version="1.0"><defs><filter id="a" width="1.048" height="1.048" x="-.024" y="-.024" color-interpolation-filters="sRGB"><feGaussianBlur stdDeviation="4.8"/></filter><filter id="b" width="1.048" height="1.048" x="-.024" y="-.024" color-interpolation-filters="sRGB"><feGaussianBlur stdDeviation="3.84"/></filter></defs><g transform="translate(-208 228)"><circle cx="464" cy="30" r="240" opacity=".2"/><circle cx="464" cy="32" r="240" filter="url(#a)" opacity=".1"/><circle cx="464" cy="32" r="240" filter="url(#a)" opacity=".2"/><circle cx="464" cy="28" r="240" fill="#e12949"/><circle cx="464" cy="36" r="192" filter="url(#b)" opacity=".2"/><path fill="#fff" d="M464-212A240 240 0 0 0 224 28l.041 1.172A240 240 0 0 1 464-210 240 240 0 0 1 703.959 28.828L704 28a240 240 0 0 0-240-240" opacity=".2"/><path fill="#fff" d="M464-164A192 192 0 0 0 272 28a192 192 0 0 0 192 192 192 192 0 0 0 40-4.447v-299.55h56v278a192 192 0 0 0 96-166 192 192 0 0 0-192-192z"/><path fill="#e12949" fill-rule="evenodd" d="M504 160v90.576l-123.32-89.062A8 8 0 0 0 367.996 168v208c.001 6.526 7.393 10.306 12.684 6.487L504 293.425v166.09a192 192 0 0 0 18.143-4.836l.637-.196a192 192 0 0 0 16.885-6.365 192 192 0 0 0 1.322-.554 192 192 0 0 0 15.477-7.68 192 192 0 0 0 3.538-1.922v-277.96z" color="#000" enable-background="accumulate" style="isolation:auto;mix-blend-mode:normal;text-decoration-color:#000;text-decoration-line:none;text-decoration-style:solid;text-indent:0;text-transform:none;white-space:normal" transform="translate(0 -244)"/></g></svg>