<svg xmlns="http://www.w3.org/2000/svg" width="512" height="512" enable-background="new" version="1.0"><defs><filter id="a" width="1.052" height="1.045" x="-.026" y="-.022" color-interpolation-filters="sRGB"><feGaussianBlur stdDeviation="4.16"/></filter><filter id="b" width="1.026" height="1.022" x="-.013" y="-.011" color-interpolation-filters="sRGB"><feGaussianBlur stdDeviation="1.72"/></filter></defs><g transform="translate(-208 228)"><rect width="448" height="384" x="-256" y="-656" stroke="#000" stroke-width="8" filter="url(#a)" opacity=".1" rx="24" ry="24" transform="scale(1 -1)rotate(90)"/><rect width="448" height="384" x="-256" y="-656" filter="url(#a)" opacity=".2" rx="24" ry="24" transform="scale(1 -1)rotate(90)"/><rect width="448" height="384" x="-252" y="-656" fill="#c2352a" rx="24" ry="24" transform="scale(1 -1)rotate(90)"/><path fill="#020202" d="M328-144h272c4.432 0 8 3.568 8 8v336c0 4.432-3.568 8-8 8H328c-4.432 0-8-3.568-8-8v-336c0-4.432 3.568-8 8-8" filter="url(#b)" opacity=".1"/><path fill="#fff" d="M296-196c-13.296 0-24 10.704-24 24v2c0-13.296 10.704-24 24-24h336c13.296 0 24 10.704 24 24v-2c0-13.296-10.704-24-24-24z" opacity=".1"/><path fill="#ebebeb" d="M328-148h272c4.432 0 8 3.568 8 8v336c0 4.432-3.568 8-8 8H328c-4.432 0-8-3.568-8-8v-336c0-4.432 3.568-8 8-8"/><path d="M272 220v8c0 13.296 10.704 24 24 24h336c13.296 0 24-10.704 24-24v-8c0 13.296-10.704 24-24 24H296c-13.296 0-24-10.704-24-24" opacity=".1"/><path fill="#3f3f3f" fill-rule="evenodd" d="m464 164-64-88h32v-96h-32l64-88 64 88h-32v96h32z"/><path fill-rule="evenodd" d="m464-108-64 88h3.2l60.8-84 60.801 84h3.2zM400 76l3.2 4H432v-4zm96 0v4h28.801l3.2-4z" opacity=".2"/><path fill="#fff" d="M320-136v-4c0-4.432 3.568-8 8-8h272c4.432 0 8 3.568 8 8v4c0-4.432-3.568-8-8-8H328c-4.432 0-8 3.568-8 8" opacity=".2"/></g></svg>