<svg width="512" height="512" enable-background="new" version="1.0" xmlns="http://www.w3.org/2000/svg">
 <defs>
  <filter id="a" x="-.024444" y="-.023571" width="1.0489" height="1.0471" color-interpolation-filters="sRGB">
   <feGaussianBlur stdDeviation="4.4"/>
  </filter>
  <clipPath id="c">
   <path d="m240-196v16c5.5139 0 10.77 0.19809 16 0.40625v16c-5.2302-0.208-10.486-0.40625-16-0.40625v208c5.514 0 10.77 0.19809 16 0.40625v16c-5.2303-0.208-10.486-0.40625-16-0.40625v16c224 0 208 176 432 176v-16c-5.5139 0-10.77-0.19825-16-0.40625v-16c5.2302 0.208 10.486 0.40625 16 0.40625v-208c-5.5139 0-10.77-0.19825-16-0.40625v-16c5.2302 0.208 10.486 0.40625 16 0.40625v-32c-224 0-208-160-432-160zm32 17.406c5.4912 0.46112 10.821 1.0292 16 1.7188v16c-5.1789-0.68992-10.509-1.258-16-1.7188zm32 4.2812c5.5043 1.037 10.842 2.2088 16 3.5v16c-5.1584-1.2907-10.496-2.4632-16-3.5zm32 8.0312c5.5227 1.7635 10.852 3.6805 16 5.7188v16c-5.1482-2.0382-10.477-3.9552-16-5.7188zm32 12.625c5.6128 2.6899 10.775 5.7133 16 8.6875v16c-5.225-2.9742-10.387-5.9976-16-8.6875zm32 18.344c5.4381 3.5778 10.864 7.1696 16 10.969v16c-5.1363-3.7992-10.562-7.391-16-10.969zm32 23.469c5.3922 4.3414 10.732 8.7236 16 13.156v16c-5.2678-4.4326-10.608-8.8148-16-13.156zm32 26.531c5.2678 4.4326 10.608 8.8148 16 13.156v16c-5.3922-4.3414-10.732-8.7236-16-13.156zm32 25.656c5.1363 3.7992 10.562 7.391 16 10.969v16c-5.4381-3.5778-10.864-7.1696-16-10.969zm32 20.625c5.225 2.9742 10.387 5.9976 16 8.6875v16c-5.6128-2.6899-10.775-5.7133-16-8.6875zm32 15.594c5.1482 2.0382 10.477 3.9552 16 5.7188v16c-5.5227-1.7635-10.852-3.6805-16-5.7188zm32 10.25c5.1584 1.2907 10.496 2.4632 16 3.5v16c-5.5043-1.037-10.842-2.2088-16-3.5zm32 6.0625c5.1789 0.68992 10.509 1.258 16 1.7188v16c-5.4912-0.46112-10.821-1.0292-16-1.7188zm-352 52.531c5.4912 0.46112 10.821 1.0292 16 1.7188v16c-5.1789-0.68992-10.509-1.258-16-1.7188zm32 4.2812c5.5043 1.037 10.842 2.2088 16 3.5v16c-5.1584-1.2907-10.496-2.4632-16-3.5zm32 8.0312c5.5227 1.7635 10.852 3.6805 16 5.7188v16c-5.1482-2.0382-10.477-3.9552-16-5.7188zm32 12.625c5.6128 2.6899 10.775 5.7133 16 8.6875v16c-5.225-2.9742-10.387-5.9976-16-8.6875zm32 18.344c5.4381 3.5778 10.864 7.1696 16 10.969v16c-5.1363-3.7992-10.562-7.391-16-10.969zm32 23.469c5.3922 4.3414 10.732 8.7236 16 13.156v16c-5.2678-4.4326-10.608-8.8148-16-13.156zm32 26.531c5.2678 4.4326 10.608 8.8148 16 13.156v16c-5.3922-4.3414-10.732-8.7236-16-13.156zm32 25.656c5.1363 3.7992 10.562 7.391 16 10.969v16c-5.4381-3.5778-10.864-7.1696-16-10.969zm32 20.625c5.225 2.9742 10.387 5.9976 16 8.6875v16c-5.6128-2.6899-10.775-5.7133-16-8.6875zm32 15.594c5.1482 2.0382 10.477 3.9552 16 5.7188v16c-5.5227-1.7635-10.852-3.6805-16-5.7188zm32 10.25c5.1584 1.2907 10.496 2.4632 16 3.5v16c-5.5043-1.037-10.842-2.2088-16-3.5zm32 6.0625c5.1789 0.68992 10.509 1.258 16 1.7188v16c-5.4912-0.46112-10.821-1.0292-16-1.7188z" enable-background="new" fill="#303f9f"/>
  </clipPath>
  <filter id="b" x="-.097778" y="-.15529" width="1.1956" height="1.3106" color-interpolation-filters="sRGB">
   <feGaussianBlur stdDeviation="17.6"/>
  </filter>
 </defs>
 <g transform="translate(0,212)">
  <g>
   <g transform="translate(-208,16)">
    <g>
     <path d="m240-192v16c5.5139 0 10.77 0.19809 16 0.40625v15.594h-16v208c5.514 0 10.77 0.19809 16 0.40625v15.594h-16v16c224 0 208 176 432 176v-16c-5.5139 0-10.77-0.19825-16-0.40625v-16c5.2302 0.208 10.486 0.40625 16 0.40625v-384h-16v-16h16v-16zm107.58 16h4.4238v1.5606c-1.4648-0.52656-2.93-1.0534-4.4238-1.5606zm20.424 0h16v15.518c-5.1475-2.6564-10.476-5.1921-16-7.5977zm32 0h16v16h-16zm32 0h16v16h-16zm32 0h16v16h-16zm32 0h16v16h-16zm32 0h16v16h-16zm32 0h16v16h-16zm32 0h16v16h-16zm32 0h16v16h-16zm-352 1.4062c5.4912 0.46112 10.821 1.0292 16 1.7188v12.875h-16zm32 4.2812c5.5043 1.037 10.842 2.2088 16 3.5v6.8125h-16zm32 8.0312c2.2949 0.7328 4.5484 1.4978 6.7773 2.2812h-6.7773zm-64 211.69c5.4912 0.46112 10.821 1.0292 16 1.7188v12.875h-16zm32 4.2812c5.5043 1.037 10.842 2.2088 16 3.5v6.8125h-16zm32 8.0312c2.2949 0.7328 4.5484 1.4978 6.7773 2.2812h-6.7773zm6.7773 18.281h9.2227v3.4375c-3.0089-1.1913-6.0876-2.3355-9.2227-3.4375zm25.223 0h10.65c1.7848 1.009 3.5705 2.0185 5.3496 3.0312v16c-5.225-2.9742-10.387-5.9976-16-8.6875zm32 12.688c5.4381 3.5778 10.864 7.1696 16 10.969v16c-5.1363-3.7992-10.562-7.391-16-10.969zm32 23.469c5.3922 4.3414 10.732 8.7236 16 13.156v16c-5.2678-4.4326-10.608-8.8148-16-13.156zm32 26.531c5.2678 4.4326 10.608 8.8148 16 13.156v16c-5.3922-4.3414-10.732-8.7236-16-13.156zm32 25.656c5.1363 3.7992 10.562 7.391 16 10.969v16c-5.4381-3.5778-10.864-7.1696-16-10.969zm32 20.625c5.225 2.9742 10.387 5.9976 16 8.6875v16c-5.6128-2.6899-10.775-5.7133-16-8.6875zm32 15.594c5.1482 2.0382 10.477 3.9552 16 5.7188v16c-5.5227-1.7635-10.852-3.6805-16-5.7188zm32 10.25c5.1584 1.2907 10.496 2.4632 16 3.5v16c-5.5043-1.037-10.842-2.2088-16-3.5zm32 6.0625c5.1789 0.68992 10.509 1.258 16 1.7188v16c-5.4912-0.46112-10.821-1.0292-16-1.7188z" enable-background="new" filter="url(#a)" opacity=".1"/>
     <path d="m240-192v16c5.5139 0 10.77 0.19809 16 0.40625v15.594h-16v208c5.514 0 10.77 0.19809 16 0.40625v15.594h-16v16c224 0 208 176 432 176v-16c-5.5139 0-10.77-0.19825-16-0.40625v-16c5.2302 0.208 10.486 0.40625 16 0.40625v-384h-16v-16h16v-16zm107.58 16h4.4238v1.5606c-1.4648-0.52656-2.93-1.0534-4.4238-1.5606zm20.424 0h16v15.518c-5.1475-2.6564-10.476-5.1921-16-7.5977zm32 0h16v16h-16zm32 0h16v16h-16zm32 0h16v16h-16zm32 0h16v16h-16zm32 0h16v16h-16zm32 0h16v16h-16zm32 0h16v16h-16zm32 0h16v16h-16zm-352 1.4062c5.4912 0.46112 10.821 1.0292 16 1.7188v12.875h-16zm32 4.2812c5.5043 1.037 10.842 2.2088 16 3.5v6.8125h-16zm32 8.0312c2.2949 0.7328 4.5484 1.4978 6.7773 2.2812h-6.7773zm-64 211.69c5.4912 0.46112 10.821 1.0292 16 1.7188v12.875h-16zm32 4.2812c5.5043 1.037 10.842 2.2088 16 3.5v6.8125h-16zm32 8.0312c2.2949 0.7328 4.5484 1.4978 6.7773 2.2812h-6.7773zm6.7773 18.281h9.2227v3.4375c-3.0089-1.1913-6.0876-2.3355-9.2227-3.4375zm25.223 0h10.65c1.7848 1.009 3.5705 2.0185 5.3496 3.0312v16c-5.225-2.9742-10.387-5.9976-16-8.6875zm32 12.688c5.4381 3.5778 10.864 7.1696 16 10.969v16c-5.1363-3.7992-10.562-7.391-16-10.969zm32 23.469c5.3922 4.3414 10.732 8.7236 16 13.156v16c-5.2678-4.4326-10.608-8.8148-16-13.156zm32 26.531c5.2678 4.4326 10.608 8.8148 16 13.156v16c-5.3922-4.3414-10.732-8.7236-16-13.156zm32 25.656c5.1363 3.7992 10.562 7.391 16 10.969v16c-5.4381-3.5778-10.864-7.1696-16-10.969zm32 20.625c5.225 2.9742 10.387 5.9976 16 8.6875v16c-5.6128-2.6899-10.775-5.7133-16-8.6875zm32 15.594c5.1482 2.0382 10.477 3.9552 16 5.7188v16c-5.5227-1.7635-10.852-3.6805-16-5.7188zm32 10.25c5.1584 1.2907 10.496 2.4632 16 3.5v16c-5.5043-1.037-10.842-2.2088-16-3.5zm32 6.0625c5.1789 0.68992 10.509 1.258 16 1.7188v16c-5.4912-0.46112-10.821-1.0292-16-1.7188z" enable-background="new" filter="url(#a)" opacity=".2"/>
     <path d="m240-194v16c5.5139 0 10.77 0.19809 16 0.40625v15.594h-16v208c5.514 0 10.77 0.19809 16 0.40625v15.594h-16v16c224 0 208 176 432 176v-16c-5.5139 0-10.77-0.19825-16-0.40625v-16c5.2302 0.208 10.486 0.40625 16 0.40625v-384h-16v-16h16v-16zm107.58 16h4.4238v1.5606c-1.4648-0.52656-2.93-1.0534-4.4238-1.5606zm20.424 0h16v15.518c-5.1475-2.6564-10.476-5.1921-16-7.5977zm32 0h16v16h-16zm32 0h16v16h-16zm32 0h16v16h-16zm32 0h16v16h-16zm32 0h16v16h-16zm32 0h16v16h-16zm32 0h16v16h-16zm32 0h16v16h-16zm-352 1.4062c5.4912 0.46112 10.821 1.0292 16 1.7188v12.875h-16zm32 4.2812c5.5043 1.037 10.842 2.2088 16 3.5v6.8125h-16zm32 8.0312c2.2949 0.7328 4.5484 1.4978 6.7773 2.2812h-6.7773zm-64 211.69c5.4912 0.46112 10.821 1.0292 16 1.7188v12.875h-16zm32 4.2812c5.5043 1.037 10.842 2.2088 16 3.5v6.8125h-16zm32 8.0312c2.2949 0.7328 4.5484 1.4978 6.7773 2.2812h-6.7773zm6.7773 18.281h9.2227v3.4375c-3.0089-1.1913-6.0876-2.3355-9.2227-3.4375zm25.223 0h10.65c1.7848 1.009 3.5705 2.0185 5.3496 3.0312v16c-5.225-2.9742-10.387-5.9976-16-8.6875zm32 12.688c5.4381 3.5778 10.864 7.1696 16 10.969v16c-5.1363-3.7992-10.562-7.391-16-10.969zm32 23.469c5.3922 4.3414 10.732 8.7236 16 13.156v16c-5.2678-4.4326-10.608-8.8148-16-13.156zm32 26.531c5.2678 4.4326 10.608 8.8148 16 13.156v16c-5.3922-4.3414-10.732-8.7236-16-13.156zm32 25.656c5.1363 3.7992 10.562 7.391 16 10.969v16c-5.4381-3.5778-10.864-7.1696-16-10.969zm32 20.625c5.225 2.9742 10.387 5.9976 16 8.6875v16c-5.6128-2.6899-10.775-5.7133-16-8.6875zm32 15.594c5.1482 2.0382 10.477 3.9552 16 5.7188v16c-5.5227-1.7635-10.852-3.6805-16-5.7188zm32 10.25c5.1584 1.2907 10.496 2.4632 16 3.5v16c-5.5043-1.037-10.842-2.2088-16-3.5zm32 6.0625c5.1789 0.68992 10.509 1.258 16 1.7188v16c-5.4912-0.46112-10.821-1.0292-16-1.7188z" enable-background="new" opacity=".2"/>
    </g>
    <path transform="translate(0,-244)" d="m240 48v16c5.5139 0 10.77 0.19809 16 0.40625v16c-5.2302-0.208-10.486-0.40625-16-0.40625v208c5.514 0 10.77 0.19809 16 0.40625v16c-5.2303-0.208-10.486-0.40625-16-0.40625v16c224 0 208 176 432 176v-16c-5.5139 0-10.77-0.19825-16-0.40625v-16c5.2302 0.208 10.486 0.40625 16 0.40625v-208c-5.5139 0-10.77-0.19825-16-0.40625v-16c5.2302 0.208 10.486 0.40625 16 0.40625v-32c-224 0-208-160-432-160zm32 17.406c5.4912 0.46112 10.821 1.0292 16 1.7188v16c-5.1789-0.68992-10.509-1.258-16-1.7188zm32 4.2812c5.5043 1.037 10.842 2.2088 16 3.5v16c-5.1584-1.2907-10.496-2.4632-16-3.5zm32 8.0312c5.5227 1.7635 10.852 3.6805 16 5.7188v16c-5.1482-2.0382-10.477-3.9552-16-5.7188zm32 12.625c5.6128 2.6899 10.775 5.7133 16 8.6875v16c-5.225-2.9742-10.387-5.9976-16-8.6875zm32 18.344c5.4381 3.5778 10.864 7.1696 16 10.969v16c-5.1363-3.7992-10.562-7.391-16-10.969zm32 23.469c5.3922 4.3414 10.732 8.7236 16 13.156v16c-5.2678-4.4326-10.608-8.8148-16-13.156zm32 26.531c5.2678 4.4326 10.608 8.8148 16 13.156v16c-5.3922-4.3414-10.732-8.7236-16-13.156zm32 25.656c5.1363 3.7992 10.562 7.391 16 10.969v16c-5.4381-3.5778-10.864-7.1696-16-10.969zm32 20.625c5.225 2.9742 10.387 5.9976 16 8.6875v16c-5.6128-2.6899-10.775-5.7133-16-8.6875zm32 15.594c5.1482 2.0382 10.477 3.9552 16 5.7188v16c-5.5227-1.7635-10.852-3.6805-16-5.7188zm32 10.25c5.1584 1.2907 10.496 2.4632 16 3.5v16c-5.5043-1.037-10.842-2.2088-16-3.5zm32 6.0625c5.1789 0.68992 10.509 1.258 16 1.7188v16c-5.4912-0.46112-10.821-1.0292-16-1.7188zm-352 52.531c5.4912 0.46112 10.821 1.0292 16 1.7188v16c-5.1789-0.68992-10.509-1.258-16-1.7188zm32 4.2812c5.5043 1.037 10.842 2.2088 16 3.5v16c-5.1584-1.2907-10.496-2.4632-16-3.5zm32 8.0312c5.5227 1.7635 10.852 3.6805 16 5.7188v16c-5.1482-2.0382-10.477-3.9552-16-5.7188zm32 12.625c5.6128 2.6899 10.775 5.7133 16 8.6875v16c-5.225-2.9742-10.387-5.9976-16-8.6875zm32 18.344c5.4381 3.5778 10.864 7.1696 16 10.969v16c-5.1363-3.7992-10.562-7.391-16-10.969zm32 23.469c5.3922 4.3414 10.732 8.7236 16 13.156v16c-5.2678-4.4326-10.608-8.8148-16-13.156zm32 26.531c5.2678 4.4326 10.608 8.8148 16 13.156v16c-5.3922-4.3414-10.732-8.7236-16-13.156zm32 25.656c5.1363 3.7992 10.562 7.391 16 10.969v16c-5.4381-3.5778-10.864-7.1696-16-10.969zm32 20.625c5.225 2.9742 10.387 5.9976 16 8.6875v16c-5.6128-2.6899-10.775-5.7133-16-8.6875zm32 15.594c5.1482 2.0382 10.477 3.9552 16 5.7188v16c-5.5227-1.7635-10.852-3.6805-16-5.7188zm32 10.25c5.1584 1.2907 10.496 2.4632 16 3.5v16c-5.5043-1.037-10.842-2.2088-16-3.5zm32 6.0625c5.1789 0.68992 10.509 1.258 16 1.7188v16c-5.4912-0.46112-10.821-1.0292-16-1.7188z" enable-background="new" fill="#1a237e"/>
    <path d="m240-84v104c54.644 0 94.952 18.506 128 34.344v-114.37c-33.049-14.4-73.351-23.969-128-23.969zm144 31.875v115.16c59.341 33.779 96.182 84.066 160 114.56v-125.59c-63.818-27.716-100.66-73.417-160-104.12zm176 110.44v126.22c30.022 11.854 65.815 19.469 112 19.469v-128c-46.185 0-81.978-6.9142-112-17.688z" enable-background="new" opacity=".2"/>
    <path transform="translate(0,-244)" d="m240 48v2c224 0 208 160 432 160v-2c-224 0-208-160-432-160zm0 32v2c5.5139 0 10.77 0.19825 16 0.40625v-2c-5.2302-0.208-10.486-0.40625-16-0.40625zm32 1.4062v2c5.4912 0.4608 10.821 1.0288 16 1.7188v-2c-5.1789-0.68992-10.509-1.258-16-1.7188zm32 4.2812v2c5.5043 1.0368 10.842 2.2093 16 3.5v-2c-5.1584-1.2907-10.496-2.4632-16-3.5zm32 8.0312v2c5.5227 1.7635 10.852 3.6805 16 5.7188v-2c-5.1482-2.0382-10.477-3.9552-16-5.7188zm32 12.625v2c5.6128 2.6899 10.775 5.7133 16 8.6875v-2c-5.225-2.9742-10.387-5.9976-16-8.6875zm32 18.344v2c5.4381 3.5778 10.864 7.1696 16 10.969v-2c-5.1363-3.7992-10.562-7.391-16-10.969zm32 23.469v2c5.3922 4.3414 10.732 8.7236 16 13.156v-2c-5.2678-4.4326-10.608-8.8148-16-13.156zm32 26.531v2c5.2678 4.4326 10.608 8.8148 16 13.156v-2c-5.3922-4.3414-10.732-8.7236-16-13.156zm32 25.656v2c5.1363 3.7992 10.562 7.391 16 10.969v-2c-5.4381-3.5778-10.864-7.1696-16-10.969zm32 20.625v2c5.225 2.9742 10.387 5.9976 16 8.6875v-2c-5.6128-2.6899-10.775-5.7133-16-8.6875zm32 15.594v2c5.1482 2.0382 10.477 3.9552 16 5.7188v-2c-5.5227-1.7635-10.852-3.6805-16-5.7188zm32 10.25v2c5.1584 1.2912 10.496 2.463 16 3.5v-2c-5.5043-1.037-10.842-2.2088-16-3.5zm32 6.0625v2c5.1789 0.68959 10.509 1.2576 16 1.7188v-2c-5.4912-0.46112-10.821-1.0292-16-1.7188zm32 2.7188v2c5.2302 0.208 10.486 0.40625 16 0.40625v-2c-5.5139 0-10.77-0.19825-16-0.40625zm-416 48.406v2c5.514 0 10.77 0.19825 16 0.40625v-2c-5.2303-0.208-10.486-0.40625-16-0.40625zm32 1.4062v2c5.4912 0.4608 10.821 1.0288 16 1.7188v-2c-5.1789-0.68992-10.509-1.258-16-1.7188zm32 4.2812v2c5.5043 1.0368 10.842 2.2093 16 3.5v-2c-5.1584-1.2907-10.496-2.4632-16-3.5zm32 8.0312v2c5.5227 1.7635 10.852 3.6805 16 5.7188v-2c-5.1482-2.0382-10.477-3.9552-16-5.7188zm32 12.625v2c5.6128 2.6899 10.775 5.7133 16 8.6875v-2c-5.225-2.9742-10.387-5.9976-16-8.6875zm32 18.344v2c5.4381 3.5778 10.864 7.1696 16 10.969v-2c-5.1363-3.7992-10.562-7.391-16-10.969zm32 23.469v2c5.3922 4.3414 10.732 8.7236 16 13.156v-2c-5.2678-4.4326-10.608-8.8148-16-13.156zm32 26.531v2c5.2678 4.4326 10.608 8.8148 16 13.156v-2c-5.3922-4.3414-10.732-8.7236-16-13.156zm32 25.656v2c5.1363 3.7992 10.562 7.391 16 10.969v-2c-5.4381-3.5778-10.864-7.1696-16-10.969zm32 20.625v2c5.225 2.9742 10.387 5.9976 16 8.6875v-2c-5.6128-2.6899-10.775-5.7133-16-8.6875zm32 15.594v2c5.1482 2.0382 10.477 3.9552 16 5.7188v-2c-5.5227-1.7635-10.852-3.6805-16-5.7188zm32 10.25v2c5.1584 1.2912 10.496 2.463 16 3.5v-2c-5.5043-1.037-10.842-2.2088-16-3.5zm32 6.0625v2c5.1789 0.6896 10.509 1.2576 16 1.7188v-2c-5.4912-0.46112-10.821-1.0292-16-1.7188zm32 2.7188v2c5.2302 0.208 10.486 0.40625 16 0.40625v-2c-5.5139 0-10.77-0.19825-16-0.40625z" enable-background="new" fill="#fff" opacity=".2"/>
    <path d="m240-194v16h16v16h-16v208h16v16h-16v16h432v-16h-16v-16h16v-208h-16v-16h16v-16zm32 16h16v16h-16zm32 0h16v16h-16zm32 0h16v16h-16zm32 0h16v16h-16zm32 0h16v16h-16zm32 0h16v16h-16zm32 0h16v16h-16zm32 0h16v16h-16zm32 0h16v16h-16zm32 0h16v16h-16zm32 0h16v16h-16zm32 0h16v16h-16zm-352 224h16v16h-16zm32 0h16v16h-16zm32 0h16v16h-16zm32 0h16v16h-16zm32 0h16v16h-16zm32 0h16v16h-16zm32 0h16v16h-16zm32 0h16v16h-16zm32 0h16v16h-16zm32 0h16v16h-16zm32 0h16v16h-16zm32 0h16v16h-16z" clip-path="url(#c)" enable-background="new" filter="url(#b)" opacity=".2"/>
    <path transform="translate(0,-244)" d="m240 48v16h16v16h-16v208h16v16h-16v16h432v-16h-16v-16h16v-208h-16v-16h16v-16zm32 16h16v16h-16zm32 0h16v16h-16zm32 0h16v16h-16zm32 0h16v16h-16zm32 0h16v16h-16zm32 0h16v16h-16zm32 0h16v16h-16zm32 0h16v16h-16zm32 0h16v16h-16zm32 0h16v16h-16zm32 0h16v16h-16zm32 0h16v16h-16zm-352 224h16v16h-16zm32 0h16v16h-16zm32 0h16v16h-16zm32 0h16v16h-16zm32 0h16v16h-16zm32 0h16v16h-16zm32 0h16v16h-16zm32 0h16v16h-16zm32 0h16v16h-16zm32 0h16v16h-16zm32 0h16v16h-16zm32 0h16v16h-16z" enable-background="new" fill="#3949ab"/>
    <path transform="translate(0,-244)" d="m240 96v176h112v-176zm128 0v176h176v-176zm192 0v176h112v-176z" opacity=".1"/>
    <path transform="translate(0,-244)" d="m240 48v2h432v-2zm0 32v2h16v-2zm32 0v2h16v-2zm32 0v2h16v-2zm32 0v2h16v-2zm32 0v2h16v-2zm32 0v2h16v-2zm32 0v2h16v-2zm32 0v2h16v-2zm32 0v2h16v-2zm32 0v2h16v-2zm32 0v2h16v-2zm32 0v2h16v-2zm32 0v2h16v-2zm32 0v2h16v-2zm-416 224v2h16v-2zm32 0v2h16v-2zm32 0v2h16v-2zm32 0v2h16v-2zm32 0v2h16v-2zm32 0v2h16v-2zm32 0v2h16v-2zm32 0v2h16v-2zm32 0v2h16v-2zm32 0v2h16v-2zm32 0v2h16v-2zm32 0v2h16v-2zm32 0v2h16v-2zm32 0v2h16v-2z" enable-background="new" fill="#fff" opacity=".3"/>
   </g>
  </g>
 </g>
</svg>
