<svg xmlns="http://www.w3.org/2000/svg" width="512" height="512" enable-background="new" version="1.0"><defs><filter id="a" width="1.049" height="1.047" x="-.024" y="-.024" color-interpolation-filters="sRGB"><feGaussianBlur stdDeviation="4.4"/></filter><filter id="d" width="1.196" height="1.311" x="-.098" y="-.155" color-interpolation-filters="sRGB"><feGaussianBlur stdDeviation="17.6"/></filter><clipPath id="b"><path fill="#303f9f" d="M240-196v16c5.514 0 10.77.198 16 .406v16c-5.23-.208-10.486-.406-16-.406V44c5.514 0 10.77.198 16 .406v16c-5.23-.208-10.486-.406-16-.406v16c224 0 208 176 432 176v-16c-5.514 0-10.77-.198-16-.406v-16c5.23.208 10.486.406 16 .406V12c-5.514 0-10.77-.198-16-.406v-16c5.23.208 10.486.406 16 .406v-32c-224 0-208-160-432-160m32 17.406c5.491.461 10.821 1.03 16 1.719v16a331 331 0 0 0-16-1.719zm32 4.281a277 277 0 0 1 16 3.5v16a278 278 0 0 0-16-3.5zm32 8.031a250 250 0 0 1 16 5.72v16a250 250 0 0 0-16-5.72zm32 12.625c5.613 2.69 10.775 5.714 16 8.688v16c-5.225-2.974-10.387-5.998-16-8.688zm32 18.344c5.438 3.578 10.864 7.17 16 10.97v16c-5.136-3.8-10.562-7.392-16-10.97zm32 23.47a959 959 0 0 1 16 13.155v16a957 957 0 0 0-16-13.156zm32 26.53a957 957 0 0 0 16 13.156v16a959 959 0 0 1-16-13.156zm32 25.656c5.136 3.8 10.562 7.391 16 10.97v16c-5.438-3.578-10.864-7.17-16-10.97zm32 20.625c5.225 2.975 10.387 5.998 16 8.688v16c-5.613-2.69-10.775-5.713-16-8.688zm32 15.594a250 250 0 0 0 16 5.72v16a250 250 0 0 1-16-5.72zm32 10.25a278 278 0 0 0 16 3.5v16a277 277 0 0 1-16-3.5zm32 6.063c5.179.69 10.509 1.258 16 1.719v16a331 331 0 0 1-16-1.72zm-352 52.53c5.491.462 10.821 1.03 16 1.72v16a331 331 0 0 0-16-1.72zm32 4.282a277 277 0 0 1 16 3.5v16a278 278 0 0 0-16-3.5zm32 8.031a250 250 0 0 1 16 5.72v16a250 250 0 0 0-16-5.72zm32 12.625c5.613 2.69 10.775 5.714 16 8.688v16c-5.225-2.974-10.387-5.998-16-8.688zm32 18.344c5.438 3.578 10.864 7.17 16 10.97v16c-5.136-3.8-10.562-7.392-16-10.97zm32 23.47a959 959 0 0 1 16 13.155v16a957 957 0 0 0-16-13.156zm32 26.53a957 957 0 0 0 16 13.156v16a959 959 0 0 1-16-13.156zm32 25.656c5.136 3.8 10.562 7.391 16 10.97v16c-5.438-3.578-10.864-7.17-16-10.97zm32 20.625c5.225 2.975 10.387 5.998 16 8.688v16c-5.613-2.69-10.775-5.713-16-8.688zm32 15.594a250 250 0 0 0 16 5.72v16a250 250 0 0 1-16-5.72zm32 10.25a278 278 0 0 0 16 3.5v16a277 277 0 0 1-16-3.5zm32 6.063c5.179.69 10.509 1.258 16 1.719v16a331 331 0 0 1-16-1.72z" enable-background="new"/></clipPath></defs><path d="M240-192v16c5.514 0 10.77.198 16 .406V-160h-16V48c5.514 0 10.77.198 16 .406V64h-16v16c224 0 208 176 432 176v-16c-5.514 0-10.77-.198-16-.406v-16c5.23.208 10.486.406 16 .406v-384h-16v-16h16v-16zm107.58 16h4.424v1.56c-1.465-.526-2.93-1.053-4.424-1.56m20.424 0h16v15.518a270 270 0 0 0-16-7.598zm32 0h16v16h-16zm32 0h16v16h-16zm32 0h16v16h-16zm32 0h16v16h-16zm32 0h16v16h-16zm32 0h16v16h-16zm32 0h16v16h-16zm32 0h16v16h-16zm-352 1.406c5.491.461 10.821 1.03 16 1.719V-160h-16zm32 4.281a277 277 0 0 1 16 3.5V-160h-16zm32 8.032a247 247 0 0 1 6.777 2.28h-6.777zm-64 211.69c5.491.46 10.821 1.029 16 1.718v12.875h-16zm32 4.28a277 277 0 0 1 16 3.5v6.813h-16zm32 8.032a247 247 0 0 1 6.777 2.281h-6.777zm6.777 18.281h9.223v3.438a253 253 0 0 0-9.223-3.438m25.223 0h10.65q2.679 1.513 5.35 3.031v16c-5.225-2.974-10.387-5.997-16-8.687zm32 12.688c5.438 3.578 10.864 7.17 16 10.969v16c-5.136-3.8-10.562-7.391-16-10.969zm32 23.469a959 959 0 0 1 16 13.156v16a957 957 0 0 0-16-13.156zm32 26.531a957 957 0 0 0 16 13.156v16a959 959 0 0 1-16-13.156zm32 25.656c5.137 3.8 10.562 7.391 16 10.969v16c-5.438-3.578-10.864-7.17-16-10.969zm32 20.625c5.225 2.974 10.387 5.998 16 8.688v16c-5.613-2.69-10.775-5.714-16-8.688zm32 15.594a250 250 0 0 0 16 5.719v16a250 250 0 0 1-16-5.719zm32 10.25a278 278 0 0 0 16 3.5v16a277 277 0 0 1-16-3.5zm32 6.063c5.18.69 10.51 1.258 16 1.718v16a331 331 0 0 1-16-1.718z" enable-background="new" filter="url(#a)" opacity=".1" transform="translate(-208 228)"/><path d="M240-192v16c5.514 0 10.77.198 16 .406V-160h-16V48c5.514 0 10.77.198 16 .406V64h-16v16c224 0 208 176 432 176v-16c-5.514 0-10.77-.198-16-.406v-16c5.23.208 10.486.406 16 .406v-384h-16v-16h16v-16zm107.58 16h4.424v1.56c-1.465-.526-2.93-1.053-4.424-1.56m20.424 0h16v15.518a270 270 0 0 0-16-7.598zm32 0h16v16h-16zm32 0h16v16h-16zm32 0h16v16h-16zm32 0h16v16h-16zm32 0h16v16h-16zm32 0h16v16h-16zm32 0h16v16h-16zm32 0h16v16h-16zm-352 1.406c5.491.461 10.821 1.03 16 1.719V-160h-16zm32 4.281a277 277 0 0 1 16 3.5V-160h-16zm32 8.032a247 247 0 0 1 6.777 2.28h-6.777zm-64 211.69c5.491.46 10.821 1.029 16 1.718v12.875h-16zm32 4.28a277 277 0 0 1 16 3.5v6.813h-16zm32 8.032a247 247 0 0 1 6.777 2.281h-6.777zm6.777 18.281h9.223v3.438a253 253 0 0 0-9.223-3.438m25.223 0h10.65q2.679 1.513 5.35 3.031v16c-5.225-2.974-10.387-5.997-16-8.687zm32 12.688c5.438 3.578 10.864 7.17 16 10.969v16c-5.136-3.8-10.562-7.391-16-10.969zm32 23.469a959 959 0 0 1 16 13.156v16a957 957 0 0 0-16-13.156zm32 26.531a957 957 0 0 0 16 13.156v16a959 959 0 0 1-16-13.156zm32 25.656c5.137 3.8 10.562 7.391 16 10.969v16c-5.438-3.578-10.864-7.17-16-10.969zm32 20.625c5.225 2.974 10.387 5.998 16 8.688v16c-5.613-2.69-10.775-5.714-16-8.688zm32 15.594a250 250 0 0 0 16 5.719v16a250 250 0 0 1-16-5.719zm32 10.25a278 278 0 0 0 16 3.5v16a277 277 0 0 1-16-3.5zm32 6.063c5.18.69 10.51 1.258 16 1.718v16a331 331 0 0 1-16-1.718z" enable-background="new" filter="url(#a)" opacity=".2" transform="translate(-208 228)"/><path d="M32 34v16c5.514 0 10.77.198 16 .406V66H32v208c5.514 0 10.77.198 16 .406V290H32v16c224 0 208 176 432 176v-16c-5.514 0-10.77-.198-16-.406v-16c5.23.208 10.486.406 16 .406V66h-16V50h16V34zm107.58 16h4.424v1.56c-1.465-.526-2.93-1.053-4.424-1.56m20.424 0h16v15.518a270 270 0 0 0-16-7.598zm32 0h16v16h-16zm32 0h16v16h-16zm32 0h16v16h-16zm32 0h16v16h-16zm32 0h16v16h-16zm32 0h16v16h-16zm32 0h16v16h-16zm32 0h16v16h-16zm-352 1.406c5.491.461 10.821 1.03 16 1.719V66h-16zm32 4.281a277 277 0 0 1 16 3.5V66h-16zm32 8.032a247 247 0 0 1 6.777 2.28h-6.777zm-64 211.69c5.491.46 10.821 1.029 16 1.718v12.875h-16zm32 4.28a277 277 0 0 1 16 3.5v6.813h-16zm32 8.032a247 247 0 0 1 6.777 2.281h-6.777zm6.777 18.281h9.223v3.438a253 253 0 0 0-9.223-3.438m25.223 0h10.65q2.679 1.513 5.35 3.031v16c-5.225-2.974-10.387-5.997-16-8.687zm32 12.688c5.438 3.578 10.864 7.17 16 10.969v16c-5.136-3.8-10.562-7.391-16-10.969zm32 23.469a959 959 0 0 1 16 13.156v16a957 957 0 0 0-16-13.156zm32 26.531a957 957 0 0 0 16 13.156v16a959 959 0 0 1-16-13.156zm32 25.656c5.137 3.8 10.562 7.391 16 10.969v16c-5.438-3.578-10.864-7.17-16-10.969zm32 20.625c5.225 2.974 10.387 5.998 16 8.688v16c-5.613-2.69-10.775-5.714-16-8.688zm32 15.594a250 250 0 0 0 16 5.719v16a250 250 0 0 1-16-5.719zm32 10.25a278 278 0 0 0 16 3.5v16a277 277 0 0 1-16-3.5zm32 6.063c5.18.69 10.51 1.258 16 1.718v16a331 331 0 0 1-16-1.719z" enable-background="new" opacity=".2"/><path fill="#1a237e" d="M32 32v16c5.514 0 10.77.198 16 .406v16C42.77 64.198 37.514 64 32 64v208c5.514 0 10.77.198 16 .406v16c-5.23-.208-10.486-.406-16-.406v16c224 0 208 176 432 176v-16c-5.514 0-10.77-.198-16-.406v-16c5.23.208 10.486.406 16 .406V240c-5.514 0-10.77-.198-16-.406v-16c5.23.208 10.486.406 16 .406v-32C240 192 256 32 32 32m32 17.406c5.491.461 10.821 1.03 16 1.719v16a331 331 0 0 0-16-1.719zm32 4.281a277 277 0 0 1 16 3.5v16a278 278 0 0 0-16-3.5zm32 8.031a250 250 0 0 1 16 5.72v16a250 250 0 0 0-16-5.72zm32 12.625c5.613 2.69 10.775 5.714 16 8.688v16c-5.225-2.974-10.387-5.998-16-8.688zm32 18.344c5.438 3.578 10.864 7.17 16 10.97v16c-5.136-3.8-10.562-7.392-16-10.97zm32 23.47a959 959 0 0 1 16 13.155v16a957 957 0 0 0-16-13.156zm32 26.53a957 957 0 0 0 16 13.156v16a959 959 0 0 1-16-13.156zm32 25.656c5.136 3.8 10.562 7.391 16 10.97v16c-5.438-3.578-10.864-7.17-16-10.97zm32 20.625c5.225 2.975 10.387 5.998 16 8.688v16c-5.613-2.69-10.775-5.713-16-8.688zm32 15.594a250 250 0 0 0 16 5.72v16a250 250 0 0 1-16-5.72zm32 10.25a278 278 0 0 0 16 3.5v16a277 277 0 0 1-16-3.5zm32 6.063c5.179.69 10.509 1.258 16 1.719v16a331 331 0 0 1-16-1.72zm-352 52.53c5.491.462 10.821 1.03 16 1.72v16a331 331 0 0 0-16-1.72zm32 4.282a277 277 0 0 1 16 3.5v16a278 278 0 0 0-16-3.5zm32 8.031a250 250 0 0 1 16 5.72v16a250 250 0 0 0-16-5.72zm32 12.625c5.613 2.69 10.775 5.714 16 8.688v16c-5.225-2.974-10.387-5.998-16-8.688zm32 18.344c5.438 3.578 10.864 7.17 16 10.97v16c-5.136-3.8-10.562-7.392-16-10.97zm32 23.47a959 959 0 0 1 16 13.155v16a957 957 0 0 0-16-13.156zm32 26.53a957 957 0 0 0 16 13.156v16a959 959 0 0 1-16-13.156zm32 25.656c5.136 3.8 10.562 7.391 16 10.97v16c-5.438-3.578-10.864-7.17-16-10.97zm32 20.625c5.225 2.974 10.387 5.998 16 8.688v16c-5.613-2.69-10.775-5.714-16-8.688zm32 15.594a250 250 0 0 0 16 5.72v16a250 250 0 0 1-16-5.72zm32 10.25a278 278 0 0 0 16 3.5v16a277 277 0 0 1-16-3.5zm32 6.063c5.179.69 10.509 1.258 16 1.719v16a331 331 0 0 1-16-1.72z" enable-background="new"/><path d="M32 144v104c54.644 0 94.952 18.506 128 34.344v-114.37c-33.049-14.4-73.351-23.969-128-23.969zm144 31.875v115.16c59.341 33.779 96.182 84.066 160 114.56v-125.59c-63.818-27.716-100.66-73.417-160-104.12zm176 110.44v126.22c30.022 11.854 65.815 19.469 112 19.469v-128c-46.185 0-81.978-6.914-112-17.688z" enable-background="new" opacity=".2"/><path fill="#fff" d="M32 32v2c224 0 208 160 432 160v-2C240 192 256 32 32 32m0 32v2c5.514 0 10.77.198 16 .406v-2C42.77 64.198 37.514 64 32 64m32 1.406v2c5.491.461 10.821 1.029 16 1.719v-2a331 331 0 0 0-16-1.719m32 4.281v2a278 278 0 0 1 16 3.5v-2a278 278 0 0 0-16-3.5m32 8.032v2a250 250 0 0 1 16 5.718v-2a250 250 0 0 0-16-5.718m32 12.625v2c5.613 2.69 10.775 5.713 16 8.687v-2c-5.225-2.974-10.387-5.998-16-8.687m32 18.344v2c5.438 3.577 10.864 7.17 16 10.969v-2c-5.136-3.8-10.562-7.391-16-10.97m32 23.469v2a959 959 0 0 1 16 13.156v-2a957 957 0 0 0-16-13.156m32 26.53v2a957 957 0 0 0 16 13.157v-2a959 959 0 0 1-16-13.156m32 25.657v2c5.136 3.799 10.562 7.39 16 10.969v-2c-5.438-3.578-10.864-7.17-16-10.97m32 20.625v2c5.225 2.974 10.387 5.997 16 8.687v-2c-5.613-2.69-10.775-5.713-16-8.687m32 15.594v2a250 250 0 0 0 16 5.718v-2a250 250 0 0 1-16-5.718m32 10.25v2a278 278 0 0 0 16 3.5v-2a277 277 0 0 1-16-3.5m32 6.062v2c5.179.69 10.509 1.258 16 1.719v-2a331 331 0 0 1-16-1.719m32 2.719v2c5.23.208 10.486.406 16 .406v-2c-5.514 0-10.77-.198-16-.406M32 288v2c5.514 0 10.77.198 16 .406v-2c-5.23-.208-10.486-.406-16-.406m32 1.406v2c5.491.46 10.821 1.029 16 1.719v-2a331 331 0 0 0-16-1.719m32 4.281v2a278 278 0 0 1 16 3.5v-2a278 278 0 0 0-16-3.5m32 8.031v2a250 250 0 0 1 16 5.72v-2a250 250 0 0 0-16-5.72m32 12.625v2c5.613 2.69 10.775 5.714 16 8.688v-2c-5.225-2.974-10.387-5.998-16-8.687m32 18.344v2c5.438 3.578 10.864 7.17 16 10.97v-2c-5.136-3.8-10.562-7.391-16-10.97m32 23.47v2a959 959 0 0 1 16 13.156v-2a957 957 0 0 0-16-13.156m32 26.53v2a957 957 0 0 0 16 13.156v-2a959 959 0 0 1-16-13.156m32 25.656v2c5.136 3.8 10.562 7.391 16 10.97v-2c-5.438-3.578-10.864-7.17-16-10.97m32 20.625v2c5.225 2.975 10.387 5.998 16 8.688v-2c-5.613-2.69-10.775-5.713-16-8.687m32 15.594v2a250 250 0 0 0 16 5.72v-2a250 250 0 0 1-16-5.72m32 10.25v2a278 278 0 0 0 16 3.5v-2a277 277 0 0 1-16-3.5m32 6.063v2c5.179.69 10.509 1.258 16 1.719v-2a331 331 0 0 1-16-1.719m32 2.719v2c5.23.208 10.486.406 16 .406v-2c-5.514 0-10.77-.198-16-.406" enable-background="new" opacity=".2"/><path d="M240-194v16h16v16h-16V46h16v16h-16v16h432V62h-16V46h16v-208h-16v-16h16v-16zm32 16h16v16h-16zm32 0h16v16h-16zm32 0h16v16h-16zm32 0h16v16h-16zm32 0h16v16h-16zm32 0h16v16h-16zm32 0h16v16h-16zm32 0h16v16h-16zm32 0h16v16h-16zm32 0h16v16h-16zm32 0h16v16h-16zm32 0h16v16h-16zM272 46h16v16h-16zm32 0h16v16h-16zm32 0h16v16h-16zm32 0h16v16h-16zm32 0h16v16h-16zm32 0h16v16h-16zm32 0h16v16h-16zm32 0h16v16h-16zm32 0h16v16h-16zm32 0h16v16h-16zm32 0h16v16h-16zm32 0h16v16h-16z" clip-path="url(#b)" enable-background="new" filter="url(#d)" opacity=".2" transform="translate(-208 228)"/><path fill="#3949ab" d="M32 32v16h16v16H32v208h16v16H32v16h432v-16h-16v-16h16V64h-16V48h16V32zm32 16h16v16H64zm32 0h16v16H96zm32 0h16v16h-16zm32 0h16v16h-16zm32 0h16v16h-16zm32 0h16v16h-16zm32 0h16v16h-16zm32 0h16v16h-16zm32 0h16v16h-16zm32 0h16v16h-16zm32 0h16v16h-16zm32 0h16v16h-16zM64 272h16v16H64zm32 0h16v16H96zm32 0h16v16h-16zm32 0h16v16h-16zm32 0h16v16h-16zm32 0h16v16h-16zm32 0h16v16h-16zm32 0h16v16h-16zm32 0h16v16h-16zm32 0h16v16h-16zm32 0h16v16h-16zm32 0h16v16h-16z" enable-background="new"/><path d="M32 80v176h112V80zm128 0v176h176V80zm192 0v176h112V80z" opacity=".1"/><path fill="#fff" d="M32 32v2h432v-2zm0 32v2h16v-2zm32 0v2h16v-2zm32 0v2h16v-2zm32 0v2h16v-2zm32 0v2h16v-2zm32 0v2h16v-2zm32 0v2h16v-2zm32 0v2h16v-2zm32 0v2h16v-2zm32 0v2h16v-2zm32 0v2h16v-2zm32 0v2h16v-2zm32 0v2h16v-2zm32 0v2h16v-2zM32 288v2h16v-2zm32 0v2h16v-2zm32 0v2h16v-2zm32 0v2h16v-2zm32 0v2h16v-2zm32 0v2h16v-2zm32 0v2h16v-2zm32 0v2h16v-2zm32 0v2h16v-2zm32 0v2h16v-2zm32 0v2h16v-2zm32 0v2h16v-2zm32 0v2h16v-2zm32 0v2h16v-2z" enable-background="new" opacity=".3"/></svg>