<svg xmlns="http://www.w3.org/2000/svg" width="512" height="512" enable-background="new" version="1.0"><defs><filter id="a" width="1.04" height="1.059" x="-.02" y="-.029" color-interpolation-filters="sRGB"><feGaussianBlur stdDeviation="3.78"/></filter></defs><path d="M464-132c-57.989 0-107.37 35.501-128.62 85.749-53.979 8.025-95.374 54.037-95.374 110.25 0 61.855 50.143 112 112 112h238c54.123 0 97.999-43.876 97.999-97.999 0-50.302-37.822-91.522-86.624-97.124-12.728-64.214-69.422-112.87-137.37-112.87z" filter="url(#a)" opacity=".2" transform="translate(-208 228)"/><path d="M464-132c-57.989 0-107.37 35.501-128.62 85.749-53.979 8.025-95.374 54.037-95.374 110.25 0 61.855 50.143 112 112 112h238c54.123 0 97.999-43.876 97.999-97.999 0-50.302-37.822-91.522-86.624-97.124-12.728-64.214-69.422-112.87-137.37-112.87z" filter="url(#a)" opacity=".2" transform="translate(-208 228)"/><path d="M256 94c-57.989 0-107.37 35.501-128.62 85.749-53.979 8.025-95.374 54.037-95.374 110.25 0 61.855 50.143 112 112 112h238c54.123 0 97.999-43.876 97.999-97.999 0-50.302-37.822-91.522-86.624-97.124-12.728-64.214-69.422-112.87-137.37-112.87z" opacity=".2"/><path fill="#e6e6e6" d="M256 92c-57.989 0-107.37 35.501-128.62 85.749-53.979 8.025-95.374 54.037-95.374 110.25 0 61.855 50.143 112 112 112h238c54.123 0 97.999-43.876 97.999-97.999 0-50.302-37.822-91.522-86.624-97.124-12.728-64.214-69.422-112.87-137.37-112.87z"/><path fill="#666" d="M224 175.36h64c32 0 32 32 32 32v128h-32v-48h-64v48h-32v-128c0-32 32-32 32-32m0 32v48h64v-48z" color="#bebebe"/><path fill="#fff" d="M256 92c-57.989 0-107.37 35.5-128.62 85.748-53.979 8.025-95.375 54.038-95.375 110.25 0 .322.009.642.012.963.506-55.74 41.718-101.24 95.363-109.21 21.253-50.248 70.634-85.748 128.62-85.748 67.952 0 124.65 48.659 137.37 112.87 48.47 5.563 86.1 46.264 86.61 96.1.004-.325.014-.649.014-.975 0-50.302-37.823-91.524-86.625-97.125C380.641 140.66 323.947 92.003 256 92.003z" opacity=".5"/></svg>