<svg width="512" height="512" enable-background="new" version="1.0" xmlns="http://www.w3.org/2000/svg" xmlns:xlink="http://www.w3.org/1999/xlink">
 <defs>
  <filter id="a" x="-.02025" y="-.029455" width="1.0405" height="1.0589" color-interpolation-filters="sRGB">
   <feGaussianBlur stdDeviation="3.7799535"/>
  </filter>
 </defs>
 <g transform="translate(0,212)">
  <g>
   <g transform="translate(157 278)" display="none" enable-background="new" fill="#ff5722">
    <g transform="translate(-368 -524.36)" fill="#ff5722">
     <path d="m375 529.36s-2 0-2 2.0625v9.9375c0 2 2 2 2 2h10c2 0 2-2 2-2v-10s1e-5 -2-2-2zm1.0002 2h2v8h4v-8h2v8s0 2-2 2h-4s-2 0-2-2z" color="#bebebe" fill="#ff5722"/>
    </g>
   </g>
   <g transform="translate(-208,16)">
    <g>
     <path d="m464-132c-57.989 0-107.37 35.501-128.62 85.749-53.979 8.0247-95.374 54.037-95.374 110.25 0 61.855 50.143 112 112 112h238c54.123 0 97.999-43.876 97.999-97.999 0-50.302-37.822-91.522-86.624-97.124-12.728-64.214-69.422-112.87-137.37-112.87z" filter="url(#a)" opacity=".2"/>
     <path d="m464-132c-57.989 0-107.37 35.501-128.62 85.749-53.979 8.0247-95.374 54.037-95.374 110.25 0 61.855 50.143 112 112 112h238c54.123 0 97.999-43.876 97.999-97.999 0-50.302-37.822-91.522-86.624-97.124-12.728-64.214-69.422-112.87-137.37-112.87z" filter="url(#a)" opacity=".2"/>
     <path d="m464-134c-57.989 0-107.37 35.501-128.62 85.749-53.979 8.0247-95.374 54.037-95.374 110.25 0 61.855 50.143 112 112 112h238c54.123 0 97.999-43.876 97.999-97.999 0-50.302-37.822-91.522-86.624-97.124-12.728-64.214-69.422-112.87-137.37-112.87z" opacity=".2"/>
    </g>
    <path d="m464-136c-57.989 0-107.37 35.501-128.62 85.749-53.979 8.0247-95.374 54.037-95.374 110.25 0 61.855 50.143 112 112 112h238c54.123 0 97.999-43.876 97.999-97.999 0-50.302-37.822-91.522-86.624-97.124-12.728-64.214-69.422-112.87-137.37-112.87z" fill="#e6e6e6"/>
    <g transform="matrix(16 0 0 -16 272 220)" fill="#4d4d4d">
     <g transform="translate(-368 -524.36)" fill="#4d4d4d">
      <path transform="matrix(1 0 0 -1 212 1035.4)" d="m166 494h4c2 0 2 2 2 2v8h-2v-3h-4v3h-2v-8c0-2 2-2 2-2zm0 2v3h4v-3z" color="#bebebe" fill="#666"/>
     </g>
    </g>
    <path transform="translate(0,-244)" d="m464 108c-57.989 0-107.37 35.5-128.62 85.748-53.979 8.0247-95.375 54.038-95.375 110.25 0 0.32194 9e-3 0.64159 0.0117 0.96289 0.50647-55.739 41.718-101.24 95.363-109.21 21.253-50.248 70.634-85.748 128.62-85.748 67.952 0 124.65 48.659 137.37 112.87 48.47 5.5631 86.101 46.264 86.611 96.1 3e-3 -0.32511 0.0137-0.64874 0.0137-0.97461 0-50.302-37.823-91.524-86.625-97.125-12.728-64.214-69.422-112.87-137.37-112.87z" fill="#fff" opacity=".5"/>
   </g>
  </g>
 </g>
</svg>
