<svg xmlns="http://www.w3.org/2000/svg" width="512" height="512" enable-background="new" version="1.0"><defs><filter id="a" width="1.048" height="1.048" x="-.024" y="-.024" color-interpolation-filters="sRGB"><feGaussianBlur stdDeviation="4.48"/></filter></defs><g transform="translate(-208 212)"><g transform="scale(1 -1)rotate(90)"><rect width="448" height="448" x="-256" y="-688" enable-background="new" filter="url(#a)" opacity=".2" rx="36" ry="36"/><rect width="448" height="448" x="-254" y="-688" enable-background="new" opacity=".2" rx="36" ry="36"/><rect width="448" height="448" x="-256" y="-688" stroke="#000" stroke-width="8" enable-background="new" filter="url(#a)" opacity=".1" rx="36" ry="36"/></g><rect width="448" height="448" x="-252" y="-688" fill="#f2f2f2" enable-background="new" rx="36" ry="36" transform="scale(1 -1)rotate(90)"/><path fill="#fff" d="M276-196c-19.944 0-36 16.056-36 36v2c0-19.944 16.056-36 36-36h376c19.944 0 36 16.056 36 36v-2c0-19.944-16.056-36-36-36z" enable-background="new" opacity=".2"/><path fill="#fff" d="M624-131v64h-32v-32h-96v256h48v32H384v-32h48V-99h-96v32h-32v-64z"/><path fill="#333" d="M624-132v64h-32v-32h-96v256h48v32H384v-32h48v-256h-96v32h-32v-64z"/></g></svg>