<svg xmlns="http://www.w3.org/2000/svg" width="512" height="512" enable-background="new" version="1.0"><defs><filter id="d" width="1.24" height="1.24" x="-.12" y="-.12" color-interpolation-filters="sRGB"><feGaussianBlur stdDeviation="1.2"/></filter><filter id="a" width="1.048" height="1.048" x="-.024" y="-.024" color-interpolation-filters="sRGB"><feGaussianBlur stdDeviation=".56"/></filter><clipPath id="b"><path fill="#fecd38" d="M207 224c-1.662 0-3 1.338-3 3v50c0 1.662 1.338 3 3 3h29l24-24v-29c0-1.662-1.338-3-3-3z"/></clipPath></defs><path d="M56 34c-13.296 0-24 10.704-24 24v400c0 13.296 10.704 24 24 24h232l192-192V58c0-13.296-10.704-24-24-24z" opacity=".2"/><path stroke="#000" d="M207 225c-1.662 0-3 1.338-3 3v50c0 1.662 1.338 3 3 3h29l24-24v-29c0-1.662-1.338-3-3-3z" filter="url(#a)" opacity=".1" transform="matrix(8 0 0 8 -1600 -1764)"/><path d="M207 225c-1.662 0-3 1.338-3 3v50c0 1.662 1.338 3 3 3h29l24-24v-29c0-1.662-1.338-3-3-3z" filter="url(#a)" opacity=".2" transform="matrix(8 0 0 8 -1600 -1764)"/><path fill="#4672c4" d="M56 32c-13.296 0-24 10.704-24 24v400c0 13.296 10.704 24 24 24h232l192-192V56c0-13.296-10.704-24-24-24z"/><g fill="none" stroke="#fff" stroke-width="2" opacity=".1"><path d="M95 480V32M159 480V32M223 480V32M289 480V32M352 288l1-256M416 288V32M480 96H32M480 160H32M480 224H32M480 290H32M288 353l-256 1M288 417H32M127 480V32M191 480V32M255 480V32M320 288l1-256M384 288l1-256M448 288V32M63 480V32M480 64H32M480 128H32M480 192H32M480 258H32M288 321l-256 1M288 385H32M288 449H32" opacity="1"/></g><path fill="#fff" d="M56 32c-13.296 0-24 10.704-24 24v2c0-13.296 10.704-24 24-24h400c13.296 0 24 10.704 24 24v-2c0-13.296-10.704-24-24-24z" opacity=".2"/><path d="M260 258h-21a3 3 0 0 0-3 3v21z" clip-path="url(#b)" enable-background="new" filter="url(#d)" opacity=".2" transform="matrix(8 0 0 8 -1600 -1760)"/><path fill="#bbd4ff" d="M480 288H312c-13.255 0-24 10.745-24 24v168z" enable-background="new"/><path fill="#fff" d="M312 288c-13.255 0-24 10.745-24 24v2c0-13.255 10.745-24 24-24h166l2-2z" enable-background="new" opacity=".2"/><path fill="#fff" d="M156 80c-31.795.016-60.563 18.859-73.281 48H156v64H82.781c12.709 29.12 41.446 47.959 73.219 48 31.773-.04 60.51-18.88 73.219-48h186.78v-64h-186.72c-12.718-29.141-41.486-47.984-73.281-48z"/></svg>