<svg xmlns="http://www.w3.org/2000/svg" width="512" height="512" enable-background="new" version="1.0"><defs><filter id="a" width="1.048" height="1.048" x="-.024" y="-.024" color-interpolation-filters="sRGB"><feGaussianBlur stdDeviation="4.48"/></filter></defs><rect width="448" height="448" x="-256" y="-688" stroke="#000" stroke-width="8" filter="url(#a)" opacity=".1" rx="24" ry="24" transform="matrix(0 -1 -1 0 -208 228)"/><rect width="448" height="448" x="-256" y="-688" filter="url(#a)" opacity=".2" rx="24" ry="24" transform="matrix(0 -1 -1 0 -208 228)"/><rect width="448" height="448" x="-480" y="-480" fill="#5baf30" rx="24" ry="24" transform="scale(1 -1)rotate(90)"/><path fill="#fff" d="M56 32c-13.296 0-24 10.704-24 24v2c0-13.296 10.704-24 24-24h400c13.296 0 24 10.704 24 24v-2c0-13.296-10.704-24-24-24z" opacity=".1"/><path d="M456 480c13.296 0 24-10.704 24-24v-2c0 13.296-10.704 24-24 24H56c-13.296 0-24-10.704-24-24v2c0 13.296 10.704 24 24 24z" opacity=".2"/><g stroke-width="24"><path fill="#fff" d="M232 119.98s-47.856 0-48 48v120h-24v-96h-48v108c0 35.998 36 35.998 36 35.998h36v24s.096 48 48 48h120c48.096 0 48-48 48-48v-120h-72v48h36l-72 96-72-96h36v-120h72v48h72v-48s.096-48-48-48z" opacity=".15"/><path fill="#1f691a" d="M232 112s-47.856 0-48 48v120h-24v-96h-48v108c0 35.998 36 35.998 36 35.998h36v24s.096 48 48 48h120c48.096 0 48-48 48-48v-120h-72v48h36l-72 96-72-96h36v-120h72v48h72v-48s.096-48-48-48z"/><path d="M232 112s-47.856 0-48 48v6.666c.144-46.667 48-46.666 48-46.666h120c48.096 0 48 46.666 48 46.666V160s.096-48-48-48zm-120 72v6h48v-6zm216 48v4.666h72V232zm-168 48v3.334h24V280zm60 3.334 72 93.332 72-93.332h-2.5L292 376l-69.5-92.666z" opacity=".15"/></g></svg>