<svg width="512" height="512" enable-background="new" version="1.0" xmlns="http://www.w3.org/2000/svg" xmlns:osb="http://www.openswatchbook.org/uri/2009/osb" xmlns:xlink="http://www.w3.org/1999/xlink">
 <defs>
  <filter id="b" x="-.024" y="-.024" width="1.048" height="1.048" color-interpolation-filters="sRGB">
   <feGaussianBlur stdDeviation="4.48"/>
  </filter>
  <filter id="a" x="-.024" y="-.024" width="1.048" height="1.048" color-interpolation-filters="sRGB">
   <feGaussianBlur stdDeviation="2.4"/>
  </filter>
 </defs>
 <g transform="translate(0,212)"></g>
 <g transform="translate(0,212)">
  <g>
   <g transform="translate(-208 624)">
    <g>
     <rect transform="matrix(0,-1,-1,0,0,0)" x="355" y="-688" width="448" height="448" rx="224" ry="224" enable-background="new" opacity=".2"/>
     <rect transform="matrix(0,-1,-1,0,0,32)" x="384" y="-688" width="448" height="448" rx="224" ry="224" enable-background="new" filter="url(#b)" opacity=".1" stroke="#000" stroke-width="8"/>
     <rect transform="matrix(0,-1,-1,0,0,32)" x="384" y="-688" width="448" height="448" rx="224" ry="224" enable-background="new" filter="url(#b)" opacity=".2"/>
    </g>
    <rect transform="matrix(0,-1,-1,0,0,0)" x="356" y="-688" width="448" height="448" rx="224" ry="224" enable-background="new" fill="#009688"/>
    <path d="m464.3-707.52c43.38 0 78.546 35.166 78.546 78.545s-35.166 78.546-78.546 78.546c-43.38 0-78.545-35.166-78.545-78.546s35.166-78.545 78.545-78.545zm-26.182 183.27h52.364c38.583 0 71.31 22.994 89.182 54.818-28.684 30.857-69.911 49.909-115.36 49.909-45.452 0-86.679-19.052-115.36-49.909 17.872-31.824 50.599-54.818 89.182-54.818z" color="#000000" enable-background="accumulate" fill="#fff"/>
    <path d="m464-804c-124.1 0-224 99.904-224 224 0 0.23297 0.0112 0.46332 0.0156 0.69531 0.69902-123.49 100.32-222.7 223.98-222.7 123.67 0 223.3 99.216 223.98 222.71 5e-3 -0.23849 0.0156-0.47532 0.0156-0.71484 0-124.1-99.904-224-224-224z" enable-background="new" fill="#fff" opacity=".1"/>
    <circle cx="584" cy="-456" r="120" enable-background="new" filter="url(#a)" opacity=".2"/>
    <circle cx="584" cy="-456" r="120" enable-background="new" filter="url(#a)" opacity=".1" stroke="#000" stroke-width="8"/>
    <circle cx="584" cy="-460" r="120" enable-background="new" fill="#02a8f3"/>
    <path d="m584-536a20 20 0 0 0-20 20 20 20 0 0 0 20 20 20 20 0 0 0 20-20 20 20 0 0 0-20-20zm-16 60v88h32v-88z" fill="#fff"/>
   </g>
  </g>
 </g>
</svg>
