<svg xmlns="http://www.w3.org/2000/svg" width="512" height="512" enable-background="new" version="1.0"><defs><filter id="a" width="1.045" height="1.052" x="-.022" y="-.026" color-interpolation-filters="sRGB"><feGaussianBlur stdDeviation="4.16"/></filter></defs><g transform="translate(-224 868)"><rect width="384" height="448" x="-224" y="-704" filter="url(#a)" opacity=".1" rx="24" ry="24" transform="matrix(0 -1 -1 0 0 -640)"/><rect width="384" height="448" x="-224" y="-704" filter="url(#a)" opacity=".2" rx="24" ry="24" transform="matrix(0 -1 -1 0 0 -640)"/><rect width="384" height="448" x="420" y="-704" fill="#b71c1c" rx="24" ry="24" transform="scale(1 -1)rotate(90)"/><path d="M704-444v2c0 13.296-10.704 24-24 24H280c-13.296 0-24-10.704-24-24v-2c0 13.296 10.704 24 24 24h400c13.296 0 24-10.704 24-24" opacity=".2"/><path fill="#fff" d="M280-804c-13.296 0-24 10.704-24 24v2c0-13.296 10.704-24 24-24h400c13.296 0 24 10.704 24 24v-2c0-13.296-10.704-24-24-24z" opacity=".1"/><g fill="#ffcdd2"><path d="M344-732h32v8h-32z" color="#bebebe" enable-background="accumulate"/><path d="M296-772h8v48h-8zM312-772h8v48h-8z"/><path d="M288-740h40v8h-40zM288-764h40v8h-40z" color="#bebebe" enable-background="accumulate"/></g></g><path fill="#e9e9e9" d="M736-1296H224v512h512z" enable-background="accumulate"/><g transform="translate(0 212)"><rect width="384" height="448" x="-224" y="-704" filter="url(#a)" opacity=".1" rx="24" ry="24" transform="matrix(0 -1 -1 0 0 -1280)"/><rect width="384" height="448" x="-224" y="-704" filter="url(#a)" opacity=".2" rx="24" ry="24" transform="matrix(0 -1 -1 0 0 -1280)"/><rect width="384" height="448" x="1060" y="-704" fill="#2e7d32" rx="24" ry="24" transform="scale(1 -1)rotate(90)"/><path d="M704-1084v2c0 13.296-10.704 24-24 24H280c-13.296 0-24-10.704-24-24v-2c0 13.296 10.704 24 24 24h400c13.296 0 24-10.704 24-24" opacity=".2"/><path fill="#fff" d="M280-1444c-13.296 0-24 10.704-24 24v2c0-13.296 10.704-24 24-24h400c13.296 0 24 10.704 24 24v-2c0-13.296-10.704-24-24-24z" opacity=".1"/><g fill="#76ff03"><path d="M336-1364h32v8h-32z" color="#bebebe" enable-background="accumulate"/><path d="M304-1412h8v56h-8z"/><path d="M304-1404c-6.648 0-12 5.352-12 12s5.352 12 12 12h8c2.216 0 4 1.784 4 4s-1.784 4-4 4h-19.266c1.648 4.655 6.032 8 11.266 8h8c6.648 0 12-5.352 12-12s-5.352-12-12-12h-8c-2.216 0-4-1.784-4-4s1.784-4 4-4h19.266c-1.648-4.655-6.032-8-11.266-8h-4z"/></g></g></svg>