<svg width="512" height="512" enable-background="new" version="1.0" xmlns="http://www.w3.org/2000/svg" xmlns:xlink="http://www.w3.org/1999/xlink">
 <defs>
  <filter id="a" x="-.022286" y="-.026" width="1.0446" height="1.052" color-interpolation-filters="sRGB">
   <feGaussianBlur stdDeviation="4.16"/>
  </filter>
 </defs>
 <g transform="translate(0,212)"></g>
 <g transform="translate(0,212)"></g>
 <g transform="translate(0,212)">
  <g>
   <g transform="translate(-224,1296)">
    <rect transform="matrix(0,-1,-1,0,0,-1280)" x="-224" y="-704" width="384" height="448" rx="24" ry="24" filter="url(#a)" opacity=".1"/>
    <rect transform="matrix(0,-1,-1,0,0,-1280)" x="-224" y="-704" width="384" height="448" rx="24" ry="24" filter="url(#a)" opacity=".2"/>
    <rect transform="matrix(0,-1,-1,0,0,0)" x="1060" y="-704" width="384" height="448" rx="24" ry="24" fill="#2e7d32"/>
    <path d="m704-1084v2c0 13.296-10.704 24-24 24h-400c-13.296 0-24-10.704-24-24v-2c0 13.296 10.704 24 24 24h400c13.296 0 24-10.704 24-24z" opacity=".2"/>
    <path d="m280-1444c-13.296 0-24 10.704-24 24v2c0-13.296 10.704-24 24-24h400c13.296 0 24 10.704 24 24v-2c0-13.296-10.704-24-24-24z" fill="#fff" opacity=".1"/>
    <g fill="#76ff03">
     <path d="m336-1364h32v8h-32z" color="#bebebe" enable-background="accumulate"/>
     <rect x="304" y="-1412" width="8" height="56"/>
     <path d="m304-1404c-6.648 0-12 5.352-12 12s5.352 12 12 12h8c2.216 0 4 1.784 4 4s-1.784 4-4 4h-19.266c1.648 4.6554 6.0317 8 11.266 8h8c6.648 0 12-5.352 12-12s-5.352-12-12-12h-8c-2.216 0-4-1.784-4-4s1.784-4 4-4h19.266c-1.648-4.6554-6.0317-8-11.266-8h-4z"/>
    </g>
   </g>
  </g>
 </g>
</svg>
