<svg xmlns="http://www.w3.org/2000/svg" width="512" height="512" enable-background="new" version="1.0"><defs><filter id="a" width="1.045" height="1.052" x="-.022" y="-.026" color-interpolation-filters="sRGB"><feGaussianBlur stdDeviation="4.16"/></filter></defs><g transform="translate(-208 228)"><g transform="scale(1 -1)rotate(90)"><rect width="384" height="448" x="-224" y="-688" stroke="#000" stroke-width="8" filter="url(#a)" opacity=".1" rx="24" ry="24"/><rect width="384" height="448" x="-222" y="-688" opacity=".2" rx="24" ry="24"/><rect width="384" height="448" x="-224" y="-688" filter="url(#a)" opacity=".2" rx="24" ry="24"/></g><rect width="384" height="448" x="-220" y="-688" fill="#1b5e20" rx="24" ry="24" transform="scale(1 -1)rotate(90)"/><path fill="#4caf50" d="m396-96.25-8 24-43.75 132.5L240 60v16l110 .25h5.75l1.75-5.5L395.25-43l61 205.25 7 23 8.25-22.5 32.25-86.5L688 76V60l-189.75.25h-5.5l-2 5-25.75 69.5L403.25-72z" color="#000" enable-background="new" style="text-decoration-line:none;text-indent:0;text-transform:none"/><path fill="#fff" d="M264-164c-13.296 0-24 10.704-24 24v2c0-13.296 10.704-24 24-24h400c13.296 0 24 10.704 24 24v-2c0-13.296-10.704-24-24-24z" opacity=".2"/></g></svg>