<svg xmlns="http://www.w3.org/2000/svg" width="512" height="512" enable-background="new" version="1.0"><defs><filter id="a" width="1.045" height="1.051" x="-.023" y="-.025" color-interpolation-filters="sRGB"><feGaussianBlur stdDeviation="4.24"/></filter><filter id="c" color-interpolation-filters="sRGB"><feGaussianBlur stdDeviation="2.4"/></filter><linearGradient id="b" x1="-180" x2="-228" y1="-472" y2="-472" gradientTransform="translate(14)" gradientUnits="userSpaceOnUse"><stop offset="0"/><stop offset="1" stop-opacity="0"/></linearGradient></defs><g transform="translate(-208 228)"><path d="M264-158c-13.296 0-24 10.704-24 24v304c0 13.296 10.704 24 24 24h104v40c0 4.432 3.568 8 8 8h176c4.432 0 8-3.568 8-8v-40h104c13.296 0 24-10.704 24-24v-304c0-13.296-10.704-24-24-24z" filter="url(#a)" opacity=".1"/><path d="M264-158c-13.296 0-24 10.704-24 24v304c0 13.296 10.704 24 24 24h104v40c0 4.432 3.568 8 8 8h176c4.432 0 8-3.568 8-8v-40h104c13.296 0 24-10.704 24-24v-304c0-13.296-10.704-24-24-24z" filter="url(#a)" opacity=".2"/><path d="M264-160c-13.296 0-24 10.704-24 24v304c0 13.296 10.704 24 24 24h104v40c0 4.432 3.568 8 8 8h176c4.432 0 8-3.568 8-8v-40h104c13.296 0 24-10.704 24-24v-304c0-13.296-10.704-24-24-24z" opacity=".2"/><rect width="104" height="192" x="-238" y="-560" fill="#4d4d4d" ry="8" transform="scale(1 -1)rotate(90)"/><rect width="104" height="192" x="-238" y="-560" fill="url(#b)" opacity=".2" ry="8" transform="scale(1 -1)rotate(90)"/><rect width="352" height="448" x="-190" y="-688" fill="#666" rx="24" ry="24" transform="scale(1 -1)rotate(90)"/><path fill="#fff" d="M264-162c-13.296 0-24 10.704-24 24v2c0-13.296 10.704-24 24-24h400c13.296 0 24 10.704 24 24v-2c0-13.296-10.704-24-24-24z" opacity=".2"/><path fill="none" stroke="#000" stroke-width="2" d="M368 191h192" filter="url(#c)" opacity=".2"/><rect width="254" height="416" x="-146" y="-672" fill="#c0ca33" ry="4" transform="rotate(90)"/><g color="#bebebe"><path d="M548-124c-19.882 0-36 16.118-36 36s16.118 36 36 36 36-16.118 36-36-16.118-36-36-36M368-28c-48 0-96 48-96 108.749v11.25h384s-32-96-80-96-48 48-79.998 48-80-72-128-72z" opacity=".5"/></g></g></svg>