<svg width="512" height="512" enable-background="new" version="1.0" xmlns="http://www.w3.org/2000/svg" xmlns:osb="http://www.openswatchbook.org/uri/2009/osb" xmlns:xlink="http://www.w3.org/1999/xlink">
 <defs>
  <filter id="a" x="-.022714" y="-.02544" width="1.0454" height="1.0509" color-interpolation-filters="sRGB">
   <feGaussianBlur stdDeviation="4.24"/>
  </filter>
  <filter id="d" color-interpolation-filters="sRGB">
   <feGaussianBlur stdDeviation="2.4"/>
  </filter>
  <filter id="b" x="-.024" y="-.024" width="1.048" height="1.048" color-interpolation-filters="sRGB">
   <feGaussianBlur stdDeviation="2.4"/>
  </filter>
  <linearGradient id="c" x1="-180" x2="-228" y1="-472" y2="-472" gradientTransform="translate(640)" gradientUnits="userSpaceOnUse">
   <stop offset="0"/>
   <stop stop-opacity="0" offset="1"/>
  </linearGradient>
 </defs>
 <g transform="translate(0,212)">
  <g></g>
 </g>
 <g transform="translate(0,212)">
  <g>
   <g transform="translate(-208,642)">
    <g>
     <path d="m264-784c-13.296 0-24 10.704-24 24v304c0 13.296 10.704 24 24 24h104v40c0 4.432 3.568 8 8 8h176c4.432 0 8-3.568 8-8v-40h104c13.296 0 24-10.704 24-24v-304c0-13.296-10.704-24-24-24z" filter="url(#a)" opacity=".1"/>
     <path d="m264-784c-13.296 0-24 10.704-24 24v304c0 13.296 10.704 24 24 24h104v40c0 4.432 3.568 8 8 8h176c4.432 0 8-3.568 8-8v-40h104c13.296 0 24-10.704 24-24v-304c0-13.296-10.704-24-24-24z" filter="url(#a)" opacity=".2"/>
     <path d="m264-786c-13.296 0-24 10.704-24 24v304c0 13.296 10.704 24 24 24h104v40c0 4.432 3.568 8 8 8h176c4.432 0 8-3.568 8-8v-40h104c13.296 0 24-10.704 24-24v-304c0-13.296-10.704-24-24-24z" opacity=".2"/>
    </g>
    <g>
     <rect transform="matrix(0,-1,-1,0,0,0)" x="388" y="-560" width="104" height="192" ry="8" fill="#4d4d4d"/>
     <rect transform="matrix(0,-1,-1,0,0,0)" x="388" y="-560" width="104" height="192" ry="8" fill="url(#c)" opacity=".2"/>
     <rect transform="matrix(0,-1,-1,0,0,0)" x="436" y="-688" width="352" height="448" rx="24" ry="24" fill="#666"/>
     <path d="m264-788c-13.296 0-24 10.704-24 24v2c0-13.296 10.704-24 24-24h400c13.296 0 24 10.704 24 24v-2c0-13.296-10.704-24-24-24z" fill="#fff" opacity=".2"/>
    </g>
    <path d="m368-435h192" fill="none" filter="url(#d)" opacity=".2" stroke="#000" stroke-width="2"/>
    <rect transform="rotate(90)" x="-772" y="-672" width="254" height="416" ry="4" fill="#c0ca33"/>
    <g transform="matrix(24,0,0,24,-1072,-7158)">
     <path d="m67.5 267c-0.82842 0-1.5 0.67158-1.5 1.5s0.67158 1.5 1.5 1.5 1.5-0.67158 1.5-1.5-0.67158-1.5-1.5-1.5z" color="#bebebe" opacity=".5"/>
     <path d="m60 271c-2 0-4 2-4 4.5312v0.46875h16s-1.3333-4-3.3333-4-2 2-3.3333 2c-1.3333 0-3.3333-3-5.3333-3z" color="#bebebe" opacity=".5"/>
    </g>
    <g>
     <circle cx="585" cy="-472" r="120" enable-background="new" filter="url(#b)" opacity=".2"/>
     <circle cx="585" cy="-472" r="120" enable-background="new" filter="url(#b)" opacity=".1" stroke="#000" stroke-width="8"/>
     <circle cx="585" cy="-478" r="120" enable-background="new" fill="#f44336"/>
    </g>
    <g transform="matrix(10,0,0,10,-4615,3442)">
     <rect x="512" y="-400" width="16" height="16" fill="none" opacity=".5"/>
     <g transform="translate(512 -400)" enable-background="new">
      <g transform="translate(-301 -9)">
       <path d="m304 11v12l11-6-9.8992-5.3996z" fill="#fff"/>
      </g>
     </g>
    </g>
   </g>
  </g>
 </g>
</svg>
