<svg xmlns="http://www.w3.org/2000/svg" width="512" height="512" enable-background="new" version="1.0"><defs><filter id="a" width="1.045" height="1.052" x="-.022" y="-.026" color-interpolation-filters="sRGB"><feGaussianBlur stdDeviation="4.16"/></filter></defs><g transform="translate(-224 228)"><rect width="384" height="448" x="-224" y="-704" stroke="#000" stroke-width="8" filter="url(#a)" opacity=".1" rx="24" ry="24" transform="scale(1 -1)rotate(90)"/><rect width="384" height="448" x="-224" y="-704" filter="url(#a)" opacity=".2" rx="24" ry="24" transform="scale(1 -1)rotate(90)"/><rect width="384" height="448" x="-220" y="-704" fill="#3f3f3f" rx="24" ry="24" transform="scale(1 -1)rotate(90)"/><path fill="#f9f9f9" d="M256 44v150c0 13.296 10.704 24 24 24h400c13.296 0 24-10.704 24-24V44z" opacity=".05"/><path d="M280-164s-24 0-24 24v40h448v-40s0-24-24-24z" opacity=".1"/></g><g fill="#fff"><path d="M56 64c-24 0-24 24-24 24v40h80V96L80 64z" opacity=".2"/><g fill-rule="evenodd"><path d="m172 96-32 32h40l32-32zM252 96l-32 32h40l32-32zM332 96l-32 32h40l32-32zM412 96l-32 32h40l32-32z" opacity=".2"/></g><path d="M56 64s-24 0-24 24v2c0-24 24-24 24-24h399.5S480 66 480 90v-2c0-24-24.5-24-24.5-24z" opacity=".2"/></g><path d="M32 422v2c0 13.296 10.704 24 24 24h400c13.296 0 24-10.704 24-24v-2c0 13.296-10.704 24-24 24H56c-13.296 0-24-10.704-24-24" opacity=".2"/><path d="M160 208c-8.864 0-16 7.136-16 16v96c0 8.864 7.136 16 16 16h144c8.864 0 16-7.136 16-16v-96c0-8.864-7.136-16-16-16zm160 64 64 56V216z" enable-background="new" opacity=".2"/><path d="M56 64s-24 0-24 24v8h448v-8c0-24-24.5-24-24.5-24z" opacity=".1"/><g fill="#fff" fill-rule="evenodd"><path d="m172 96-32-32h40l32 32zM252 96l-32-32h40l32 32zM332 96l-32-32h40l32 32zM412 96l-32-32h40l32 32z" opacity=".15"/></g></svg>