<svg xmlns="http://www.w3.org/2000/svg" width="512" height="512" enable-background="new" version="1.0"><defs><filter id="a" width="1.048" height="1.048" x="-.024" y="-.024" color-interpolation-filters="sRGB"><feGaussianBlur stdDeviation="4.48"/></filter></defs><g transform="translate(-208 228)"><rect width="448" height="448" x="-256" y="-688" filter="url(#a)" opacity=".1" rx="36" ry="36" transform="scale(1 -1)rotate(90)"/><rect width="448" height="448" x="-256" y="-688" filter="url(#a)" opacity=".2" rx="36" ry="36" transform="scale(1 -1)rotate(90)"/><rect width="448" height="448" x="-252" y="-688" fill="#239dcf" rx="36" ry="36" transform="scale(1 -1)rotate(90)"/><path fill="#fff" d="M276-196c-19.944 0-36 16.056-36 36v2c0-19.944 16.056-36 36-36h376c19.944 0 36 16.056 36 36v-2c0-19.944-16.056-36-36-36z" opacity=".2"/></g><g fill="none" stroke="#000" stroke-width="2.16" opacity=".2" transform="translate(-1610.7 -2630.9)scale(11.111)"><path d="M151.08 256.04h6.12l3.6 13.68 5.04-19.8 4.32 14.04 3.96-14.04 3.96 14.04h6.84"/><rect width="33.84" height="33.84" x="151.08" y="243.08" stroke-linecap="round" stroke-linejoin="round" opacity="1" rx=".72" ry=".72"/></g><g fill="none" stroke="#fff" stroke-width="2.16" transform="translate(-1610.7 -2632.9)scale(11.111)"><path d="M151.08 256.04h6.12l3.6 13.68 5.04-19.8 4.32 14.04 3.96-14.04 3.96 14.04h6.84"/><rect width="33.84" height="33.84" x="151.08" y="243.08" stroke-linecap="round" stroke-linejoin="round" rx=".72" ry=".72"/></g></svg>