<svg xmlns="http://www.w3.org/2000/svg" width="512" height="512" enable-background="new" version="1.0"><defs><filter id="a" width="1.048" height="1.048" x="-.024" y="-.024" color-interpolation-filters="sRGB"><feGaussianBlur stdDeviation="4.8"/></filter><filter id="d" width="1.108" height="1.135" x="-.054" y="-.068" color-interpolation-filters="sRGB"><feGaussianBlur stdDeviation="10.8"/></filter><clipPath id="b"><path fill="#1565c0" fill-rule="evenodd" d="M592-212 272 101.04V-116l-48 24v240l48 24 432-336z" enable-background="new"/></clipPath></defs><g fill-rule="evenodd"><path d="M592-206 395.6-13.87 272-110.003l-48 24v240l48 24 123.6-96.133L592 273.994l112-48v-384zm0 135.11v209.78L457.14 34zM272-39.044l74.666 73.043L272 107.042z" enable-background="new" filter="url(#a)" opacity=".1" transform="translate(-208 227.24)"/><path d="M592-206 395.6-13.87 272-110.003l-48 24v240l48 24 123.6-96.133L592 273.994l112-48v-384zm0 135.11v209.78L457.14 34zM272-39.044l74.666 73.043L272 107.042z" enable-background="new" filter="url(#a)" opacity=".2" transform="translate(-208 227.24)"/><path d="M384 17.24 187.6 209.37 64 113.237l-48 24v240l48 24 123.6-96.133L384 497.234l112-48v-384zm0 135.11v209.78L249.14 257.24zM64 184.196l74.666 73.043L64 330.282z" enable-background="new" opacity=".2"/><path fill="#1976d2" d="M16 375.24v-240l48-24v288z" enable-background="new"/><path fill="#1565c0" d="m384 15.24-368 360 48 24 432-336z" enable-background="new"/><path d="M592 272 224-88l48-24 432 336z" clip-path="url(#b)" enable-background="new" filter="url(#d)" opacity=".2" transform="translate(-208 227.24)"/><path fill="#fff" d="m384 15.24-368 360 1.354.676L384 17.24l110.342 47.29L496 63.24Z" enable-background="new" opacity=".2"/><path fill="#1e88e5" d="m384 495.24-368-360 48-24 432 336z" enable-background="new"/><path fill="#fff" d="m64 111.24-48 24 1.354 1.324L64 113.24l430.342 334.71 1.658-.71Z" enable-background="new" opacity=".2"/><path fill="#2196f3" d="M496 447.24v-384l-112-48v480z" enable-background="new"/><path fill="#fff" d="M384 15.24v2l112 48v-2z" enable-background="new" opacity=".2"/></g></svg>