<svg xmlns="http://www.w3.org/2000/svg" width="512" height="512" enable-background="new" version="1.0"><defs><filter id="a" width="1.048" height="1.048" x="-.024" y="-.024" color-interpolation-filters="sRGB"><feGaussianBlur stdDeviation="4.48"/></filter><filter id="b" width="1.046" height="1.051" x="-.023" y="-.025" color-interpolation-filters="sRGB"><feGaussianBlur stdDeviation="3.042"/></filter></defs><g transform="translate(-208 228)"><rect width="448" height="448" x="-256" y="-688" enable-background="new" filter="url(#a)" opacity=".1" rx="36" ry="36" transform="scale(1 -1)rotate(90)"/><rect width="448" height="448" x="-256" y="-688" enable-background="new" filter="url(#a)" opacity=".2" rx="36" ry="36" transform="scale(1 -1)rotate(90)"/><rect width="448" height="448" x="-252" y="-688" fill="#ef3938" enable-background="new" rx="36" ry="36" transform="scale(1 -1)rotate(90)"/><path fill="#fff" d="M276-196c-19.944 0-36 16.056-36 36v2c0-19.944 16.056-36 36-36h376c19.944 0 36 16.056 36 36v-2c0-19.944-16.056-36-36-36z" enable-background="new" opacity=".2"/><path d="M482.89 172.28c4.272-2.18 9.928-6.882 12.567-10.451 2.64-3.568 32.435-54.413 66.211-112.99 59.49-103.17 61.437-106.88 62.214-118.61 1.224-18.477-7.337-32.605-23.968-39.554-10.43-4.358-20.806-3.8-32.754 1.764-20.997 9.776-27.365 30.123-17.486 55.87 8.876 23.133 7.087 44.773-5.24 63.383-11.354 17.142-30.84 27.192-52.724 27.192-25.164 0-44.495-12.172-58.506-36.838-29.927-52.688-56.91-98.323-60.467-102.27-10.382-11.523-31.05-15.3-46.158-8.437-15.506 7.043-23.957 22.429-22.396 40.773.883 10.382 4.36 16.64 121.35 218.43 8.287 14.295 11.526 17.847 20.573 22.564 8.579 4.473 27.219 4.054 36.787-.827z" enable-background="new" filter="url(#b)" opacity=".2"/><path fill="#fff" d="M482.89 168.28c4.272-2.18 9.928-6.882 12.567-10.451 2.64-3.568 32.435-54.413 66.211-112.99 59.49-103.17 61.437-106.88 62.214-118.61 1.224-18.477-7.337-32.605-23.968-39.554-10.43-4.358-20.806-3.8-32.754 1.764-20.997 9.776-27.365 30.123-17.486 55.87 8.876 23.133 7.087 44.773-5.24 63.383-11.354 17.142-30.84 27.192-52.724 27.192-25.164 0-44.495-12.172-58.506-36.838-29.927-52.688-56.91-98.323-60.467-102.27-10.382-11.523-31.05-15.3-46.158-8.437-15.506 7.043-23.957 22.429-22.396 40.773.883 10.382 4.36 16.64 121.35 218.43 8.287 14.295 11.526 17.847 20.573 22.564 8.579 4.473 27.219 4.054 36.787-.827z" enable-background="new"/></g></svg>