<svg width="512" height="512" enable-background="new" version="1.0" xmlns="http://www.w3.org/2000/svg" xmlns:osb="http://www.openswatchbook.org/uri/2009/osb" xmlns:xlink="http://www.w3.org/1999/xlink">
 <defs>
  <filter id="a" x="-.024" y="-.024" width="1.048" height="1.048" color-interpolation-filters="sRGB">
   <feGaussianBlur stdDeviation="4.48"/>
  </filter>
  <filter id="b" x="-.022816" y="-.025314" width="1.0456" height="1.0506" color-interpolation-filters="sRGB">
   <feGaussianBlur stdDeviation="3.0421387"/>
  </filter>
 </defs>
 <g transform="translate(0,212)">
  <g></g>
  <g transform="translate(-208,16)">
   <rect transform="matrix(0,-1,-1,0,0,0)" x="-256" y="-688" width="448" height="448" rx="36" ry="36" enable-background="new" filter="url(#a)" opacity=".1"/>
   <rect transform="matrix(0,-1,-1,0,0,0)" x="-256" y="-688" width="448" height="448" rx="36" ry="36" enable-background="new" filter="url(#a)" opacity=".2"/>
   <rect transform="matrix(0,-1,-1,0,0,0)" x="-252" y="-688" width="448" height="448" rx="36" ry="36" enable-background="new" fill="#ef3938"/>
   <path transform="translate(0,-244)" d="m276 48c-19.944 0-36 16.056-36 36v2c0-19.944 16.056-36 36-36h376c19.944 0 36 16.056 36 36v-2c0-19.944-16.056-36-36-36z" enable-background="new" fill="#fff" opacity=".2"/>
   <path d="m482.89 172.28c4.2724-2.1796 9.9277-6.8825 12.567-10.451 2.6396-3.5684 32.435-54.413 66.211-112.99 59.49-103.17 61.437-106.88 62.214-118.61 1.2241-18.477-7.3368-32.605-23.968-39.554-10.43-4.3579-20.806-3.7991-32.754 1.7641-20.997 9.7761-27.365 30.123-17.486 55.87 8.876 23.133 7.0871 44.773-5.2394 63.383-11.355 17.142-30.841 27.192-52.725 27.192-25.164 0-44.495-12.172-58.506-36.838-29.927-52.688-56.909-98.323-60.467-102.27-10.382-11.523-31.049-15.3-46.158-8.4372-15.506 7.0433-23.957 22.429-22.396 40.773 0.88337 10.382 4.3605 16.64 121.35 218.43 8.2878 14.295 11.526 17.847 20.573 22.564 8.5793 4.4733 27.219 4.0544 36.787-0.82686z" enable-background="new" filter="url(#b)" opacity=".2"/>
   <path d="m482.89 168.28c4.2724-2.1796 9.9277-6.8825 12.567-10.451 2.6396-3.5684 32.435-54.413 66.211-112.99 59.49-103.17 61.437-106.88 62.214-118.61 1.2241-18.477-7.3368-32.605-23.968-39.554-10.43-4.3579-20.806-3.7991-32.754 1.7641-20.997 9.7761-27.365 30.123-17.486 55.87 8.876 23.133 7.0871 44.773-5.2394 63.383-11.355 17.142-30.841 27.192-52.725 27.192-25.164 0-44.495-12.172-58.506-36.838-29.927-52.688-56.909-98.323-60.467-102.27-10.382-11.523-31.049-15.3-46.158-8.4372-15.506 7.0433-23.957 22.429-22.396 40.773 0.88337 10.382 4.3605 16.64 121.35 218.43 8.2878 14.295 11.526 17.847 20.573 22.564 8.5793 4.4733 27.219 4.0544 36.787-0.82686z" enable-background="new" fill="#fff"/>
  </g>
 </g>
</svg>
