<svg width="512" height="512" enable-background="new" version="1.0" xmlns="http://www.w3.org/2000/svg">
 <defs>
  <filter id="a" x="-.024005" y="-.023995" width="1.048" height="1.048" color-interpolation-filters="sRGB">
   <feGaussianBlur stdDeviation="4.4809387"/>
  </filter>
 </defs>
 <g transform="translate(0,212)">
  <g>
   <g transform="translate(-208,16)">
    <g fill-rule="evenodd" shape-rendering="auto">
     <g>
      <path d="m464.04-192.18c-10.174-0.1144-20.548 1.6134-30.797 5.7305-6.3506 2.5542-11.184 7.871-13.123 14.436l-20.605 69.645c2e-3 4e-3 4e-3 8e-3 6e-3 0.0117-4e-3 -3e-3 -8e-3 -5e-3 -0.0117-8e-3l-51.361 173.58 13.287-44.887-13.283 44.889c-1e-3 -6.7e-4 -3e-3 -0.0013-4e-3 -2e-3l-2.9141 9.8457h-26.824c-9.0394 0.0021-17.191 5.438-20.67 13.781l-55.996 130.15c-6.147 14.752 4.6884 31.011 20.67 31.016h403.17c15.982-5e-3 26.817-16.264 20.67-31.016l-55.996-130.15c-3.4786-8.3432-11.631-13.779-20.67-13.781h-26.818l-54.281-183.42c-0.0736 0.0534-0.15056 0.10506-0.22461 0.15821 0.0688-0.0512 0.15032-0.1112 0.21875-0.16211l-20.605-69.645c-2.055-6.9484-7.3434-12.474-14.195-14.83-9.4919-3.2678-19.465-5.2223-29.639-5.3359zm90.945 179.4v2e-3c-0.0368 0.01462-0.0726 0.02646-0.10937 0.04101 0.0367-0.01457 0.0727-0.02838 0.10937-0.04296z" color="#000000" color-rendering="auto" enable-background="accumulate" filter="url(#a)" image-rendering="auto" opacity=".1" solid-color="#000000" style="isolation:auto;mix-blend-mode:normal;text-decoration-color:#000000;text-decoration-line:none;text-decoration-style:solid;text-indent:0;text-transform:none;white-space:normal"/>
      <path d="m464.04-192.18c-10.174-0.1144-20.548 1.6134-30.797 5.7305-6.3506 2.5542-11.184 7.871-13.123 14.436l-20.605 69.645c2e-3 4e-3 4e-3 8e-3 6e-3 0.0117-4e-3 -3e-3 -8e-3 -5e-3 -0.0117-8e-3l-51.361 173.58 13.287-44.887-13.283 44.889c-1e-3 -6.7e-4 -3e-3 -0.0013-4e-3 -2e-3l-2.9141 9.8457h-26.824c-9.0394 0.0021-17.191 5.438-20.67 13.781l-55.996 130.15c-6.147 14.752 4.6884 31.011 20.67 31.016h403.17c15.982-5e-3 26.817-16.264 20.67-31.016l-55.996-130.15c-3.4786-8.3432-11.631-13.779-20.67-13.781h-26.818l-54.281-183.42c-0.0736 0.0534-0.15056 0.10506-0.22461 0.15821 0.0688-0.0512 0.15032-0.1112 0.21875-0.16211l-20.605-69.645c-2.055-6.9484-7.3434-12.474-14.195-14.83-9.4919-3.2678-19.465-5.2223-29.639-5.3359zm90.945 179.4v2e-3c-0.0368 0.01462-0.0726 0.02646-0.10937 0.04101 0.0367-0.01457 0.0727-0.02838 0.10937-0.04296z" color="#000000" color-rendering="auto" enable-background="accumulate" filter="url(#a)" image-rendering="auto" opacity=".2" solid-color="#000000" style="isolation:auto;mix-blend-mode:normal;text-decoration-color:#000000;text-decoration-line:none;text-decoration-style:solid;text-indent:0;text-transform:none;white-space:normal"/>
      <path d="m464.04-194.18c-10.174-0.1144-20.548 1.6134-30.797 5.7305-6.3506 2.5542-11.184 7.871-13.123 14.436l-20.605 69.645c2e-3 4e-3 4e-3 8e-3 6e-3 0.0117-4e-3 -3e-3 -8e-3 -5e-3 -0.0117-8e-3l-51.361 173.58 13.287-44.887-13.283 44.889c-1e-3 -6.7e-4 -3e-3 -0.0013-4e-3 -2e-3l-2.9141 9.8457h-26.824c-9.0394 0.0021-17.191 5.438-20.67 13.781l-55.996 130.15c-6.147 14.752 4.6884 31.011 20.67 31.016h403.17c15.982-5e-3 26.817-16.264 20.67-31.016l-55.996-130.15c-3.4786-8.3432-11.631-13.779-20.67-13.781h-26.818l-54.281-183.42c-0.0736 0.0534-0.15056 0.10506-0.22461 0.15821 0.0688-0.0512 0.15032-0.1112 0.21875-0.16211l-20.605-69.645c-2.055-6.9484-7.3434-12.474-14.195-14.83-9.4919-3.2678-19.465-5.2223-29.639-5.3359zm90.945 179.4v2e-3c-0.0368 0.01462-0.0726 0.02646-0.10937 0.04101 0.0367-0.01457 0.0727-0.02838 0.10937-0.04296z" color="#000000" color-rendering="auto" enable-background="accumulate" image-rendering="auto" opacity=".2" solid-color="#000000" style="isolation:auto;mix-blend-mode:normal;text-decoration-color:#000000;text-decoration-line:none;text-decoration-style:solid;text-indent:0;text-transform:none;white-space:normal"/>
     </g>
     <path d="m318.41 77.057c-9.0394 0.0021-17.192 5.4369-20.67 13.78l-55.995 130.15c-6.147 14.752 4.6886 31.011 20.67 31.016h403.17c15.982-5e-3 26.817-16.264 20.67-31.016l-55.995-130.15c-3.4786-8.3432-11.631-13.778-20.67-13.78z" color="#000000" color-rendering="auto" enable-background="accumulate" fill="#f80" image-rendering="auto" solid-color="#000000" style="isolation:auto;mix-blend-mode:normal;text-decoration-color:#000000;text-decoration-line:none;text-decoration-style:solid;text-indent:0;text-transform:none;white-space:normal"/>
     <path transform="translate(0,-244)" d="m318.41 321.06c-9.0394 2e-3 -17.193 5.438-20.672 13.781l-55.984 130.14c-1.3047 3.1311-1.7677 6.3057-1.6172 9.3906 0.0976-2.4479 0.59275-4.9321 1.6172-7.3906l55.984-130.14c3.4786-8.3432 11.633-13.779 20.672-13.781h291.19c9.0394 2e-3 17.193 5.438 20.672 13.781l55.984 130.14c1.0245 2.4585 1.5196 4.9427 1.6172 7.3906 0.15052-3.0849-0.31245-6.2596-1.6172-9.3906l-55.984-130.14c-3.4786-8.3432-11.633-13.779-20.672-13.781z" color="#000000" color-rendering="auto" enable-background="accumulate" fill="#fff" image-rendering="auto" opacity=".2" solid-color="#000000" style="isolation:auto;mix-blend-mode:normal;text-decoration-color:#000000;text-decoration-line:none;text-decoration-style:solid;text-indent:0;text-transform:none;white-space:normal"/>
     <path transform="translate(0,-244)" d="m419.2 321.06-8e-3 6e-3h190.4c3.9547 9.1e-4 7.7407 1.0426 11.039 2.9121-3.3-1.8722-7.0868-2.9171-11.045-2.918zm-2.8555 2.0059-86.736 60.947 100.79 111.99h235.18c15.557-5e-3 26.232-15.412 21.117-29.838 0.96016 2.7468 1.2977 5.5142 1.166 8.2129-0.0976-2.4479-0.5927-4.9321-1.6172-7.3906l-55.984-130.14c-3.4786-8.3432-11.633-13.779-20.672-13.781zm246.12 86.652 23.777 55.27c0.15764 0.37831 0.30208 0.75737 0.43555 1.1367-0.13536-0.3795-0.27421-0.75889-0.43164-1.1367z" color="#000000" color-rendering="auto" enable-background="accumulate" image-rendering="auto" opacity=".1" solid-color="#000000" style="isolation:auto;mix-blend-mode:normal;text-decoration-color:#000000;text-decoration-line:none;text-decoration-style:solid;text-indent:0;text-transform:none;white-space:normal"/>
     <path d="m464.04-196.18c-10.174-0.1144-20.549 1.6137-30.797 5.7308-6.3506 2.5542-11.185 7.8718-13.124 14.436l-20.604 69.644c32.588 70.08 98.1 22.964 128.96 0l-20.604-69.644c-2.055-6.9484-7.3438-12.474-14.196-14.83-9.4919-3.2678-19.464-5.2234-29.638-5.337zm-91.036 179.4-24.853 83.991c8.0466 71.3 133.29 56.401 230.84-2.8598l-24.007-81.132c-61.595 24.498-86.577-46.962-181.98 0z" color="#000000" color-rendering="auto" enable-background="accumulate" fill="#f80" image-rendering="auto" solid-color="#000000" style="isolation:auto;mix-blend-mode:normal;text-decoration-color:#000000;text-decoration-line:none;text-decoration-style:solid;text-indent:0;text-transform:none;white-space:normal"/>
    </g>
    <path d="m507.36-177.33c1.6e-4 7.0923-19.773 18.808-40.09 18.808-23.781 0-44.544-11.22-44.544-20.787 1.6e-4 -9.567 15.814-16.828 39.595-16.828s45.039 9.2404 45.039 18.807z" fill="#fff" opacity=".1"/>
    <path d="m399.51-106.37-51.363 173.58 24.861-83.989c68.594 30.797 120.38 24.498 181.98 0l24.008 81.134c-97.496 59.051-206.73 17-230.85 2.8546l-17.62 59.522c-2.7317 9.2443 0.7576 19.202 8.6624 24.719 34.52 24.071 79.351 33.765 123.98 33.338 44.626-0.428 89.389-11.035 124.55-32.616 8.6274-5.3002 12.628-15.731 9.7562-25.441l-68.983-233.1c-30.885 22.398-98.09 22.398-128.97 0z" color="#000000" color-rendering="auto" enable-background="accumulate" fill="#fff" fill-rule="evenodd" image-rendering="auto" shape-rendering="auto" solid-color="#000000" style="isolation:auto;mix-blend-mode:normal;text-decoration-color:#000000;text-decoration-line:none;text-decoration-style:solid;text-indent:0;text-transform:none;white-space:normal"/>
    <path d="m507.88-176.01s-5.8946 10.204-21.48 13.649c-2.7093 0.5992-5.1744 0.94632-7.5245 1.1811-4.1908 0.708-8.6793 1.1812-13.583 1.1812-2.432 0-4.7742-0.1568-7.0869-0.3496-1.2755 4.6456-88.761 328.29-88.761 328.29 28.647 12.077 61.23 17.154 93.727 16.842 44.626-0.428 89.39-11.032 124.55-32.613 8.6274-5.3002 12.627-15.729 9.7554-25.439l-89.593-302.75z" color="#000000" color-rendering="auto" enable-background="accumulate" fill-rule="evenodd" image-rendering="auto" opacity=".1" shape-rendering="auto" solid-color="#000000" style="isolation:auto;mix-blend-mode:normal;text-decoration-color:#000000;text-decoration-line:none;text-decoration-style:solid;text-indent:0;text-transform:none;white-space:normal"/>
    <path transform="translate(0,-244)" d="m462.33 47.859c-23.781 0-39.594 7.2611-39.594 16.828 0 0.30875 0.0262 0.61838 0.0742 0.92969 1.1357-9.0328 16.634-15.758 39.52-15.758 22.828 0 43.311 8.519 44.918 17.664 0.0734-0.29038 0.1133-0.57498 0.11329-0.85156-1.6e-4 -9.567-21.25-18.812-45.031-18.812z" fill="#fff" opacity=".2"/>
   </g>
  </g>
 </g>
</svg>
