<svg xmlns="http://www.w3.org/2000/svg" width="512" height="512" enable-background="new" version="1.0"><defs><filter id="a" width="1.048" height="1.048" x="-.024" y="-.024" color-interpolation-filters="sRGB"><feGaussianBlur stdDeviation="4.481"/></filter></defs><g fill-rule="evenodd" color="#000"><path d="M464.04-192.18c-10.174-.114-20.548 1.613-30.797 5.73a22.4 22.4 0 0 0-13.123 14.436l-20.605 69.646.006.011-.012-.008-51.36 173.58 13.286-44.887-13.283 44.89-.004-.003-2.914 9.846H318.41a22.4 22.4 0 0 0-20.67 13.78l-55.996 130.15c-6.147 14.753 4.689 31.012 20.67 31.017h403.17c15.982-.005 26.817-16.264 20.67-31.016l-55.996-130.15a22.4 22.4 0 0 0-20.67-13.781H582.77l-54.28-183.42-.225.158.218-.162-20.605-69.645a22.4 22.4 0 0 0-14.195-14.83c-9.492-3.268-19.465-5.222-29.639-5.336zm90.945 179.4v.002q-.055.02-.11.041z" enable-background="accumulate" filter="url(#a)" opacity=".1" style="isolation:auto;mix-blend-mode:normal;text-decoration-color:#000;text-decoration-line:none;text-decoration-style:solid;text-indent:0;text-transform:none;white-space:normal" transform="translate(-208 228)"/><path d="M464.04-192.18c-10.174-.114-20.548 1.613-30.797 5.73a22.4 22.4 0 0 0-13.123 14.436l-20.605 69.646.006.011-.012-.008-51.36 173.58 13.286-44.887-13.283 44.89-.004-.003-2.914 9.846H318.41a22.4 22.4 0 0 0-20.67 13.78l-55.996 130.15c-6.147 14.753 4.689 31.012 20.67 31.017h403.17c15.982-.005 26.817-16.264 20.67-31.016l-55.996-130.15a22.4 22.4 0 0 0-20.67-13.781H582.77l-54.28-183.42-.225.158.218-.162-20.605-69.645a22.4 22.4 0 0 0-14.195-14.83c-9.492-3.268-19.465-5.222-29.639-5.336zm90.945 179.4v.002q-.055.02-.11.041z" enable-background="accumulate" filter="url(#a)" opacity=".2" style="isolation:auto;mix-blend-mode:normal;text-decoration-color:#000;text-decoration-line:none;text-decoration-style:solid;text-indent:0;text-transform:none;white-space:normal" transform="translate(-208 228)"/><path d="M464.04-194.18c-10.174-.114-20.548 1.613-30.797 5.73a22.4 22.4 0 0 0-13.123 14.436l-20.605 69.646.006.011-.012-.008-51.36 173.58 13.286-44.887-13.283 44.89-.004-.003-2.914 9.846H318.41a22.4 22.4 0 0 0-20.67 13.78l-55.996 130.15c-6.147 14.753 4.689 31.012 20.67 31.017h403.17c15.982-.005 26.817-16.264 20.67-31.016l-55.996-130.15a22.4 22.4 0 0 0-20.67-13.781H582.77l-54.28-183.42-.225.158.218-.162-20.605-69.645a22.4 22.4 0 0 0-14.195-14.83c-9.492-3.268-19.465-5.222-29.639-5.336zm90.945 179.4v.002q-.055.02-.11.041z" enable-background="accumulate" opacity=".2" style="isolation:auto;mix-blend-mode:normal;text-decoration-color:#000;text-decoration-line:none;text-decoration-style:solid;text-indent:0;text-transform:none;white-space:normal" transform="translate(-208 228)"/><path fill="#f80" d="M318.41 77.057a22.4 22.4 0 0 0-20.67 13.78l-55.995 130.15c-6.147 14.752 4.689 31.011 20.67 31.016h403.17c15.982-.005 26.817-16.264 20.67-31.016L630.26 90.837a22.4 22.4 0 0 0-20.67-13.78z" enable-background="accumulate" style="isolation:auto;mix-blend-mode:normal;text-decoration-color:#000;text-decoration-line:none;text-decoration-style:solid;text-indent:0;text-transform:none;white-space:normal" transform="translate(-208 228)"/><path fill="#fff" d="M318.41 321.06a22.4 22.4 0 0 0-20.672 13.781l-55.984 130.14c-1.305 3.131-1.768 6.306-1.617 9.39a21.3 21.3 0 0 1 1.617-7.39l55.984-130.14a22.4 22.4 0 0 1 20.672-13.781H609.6a22.4 22.4 0 0 1 20.672 13.781l55.984 130.14a21.3 21.3 0 0 1 1.617 7.39c.15-3.084-.312-6.259-1.617-9.39l-55.984-130.14A22.4 22.4 0 0 0 609.6 321.06z" enable-background="accumulate" opacity=".2" style="isolation:auto;mix-blend-mode:normal;text-decoration-color:#000;text-decoration-line:none;text-decoration-style:solid;text-indent:0;text-transform:none;white-space:normal" transform="translate(-208 -16)"/><path d="m419.2 321.06-.008.006h190.4c3.955 0 7.74 1.043 11.039 2.912a22.37 22.37 0 0 0-11.045-2.918zm-2.855 2.006-86.737 60.947 100.79 111.99h235.18c15.558-.005 26.233-15.412 21.118-29.838.96 2.747 1.297 5.514 1.166 8.213a21.3 21.3 0 0 0-1.618-7.39l-55.984-130.14a22.4 22.4 0 0 0-20.672-13.782zm246.12 86.652 23.777 55.27q.236.567.435 1.137c-.135-.38-.274-.76-.432-1.137z" enable-background="accumulate" opacity=".1" style="isolation:auto;mix-blend-mode:normal;text-decoration-color:#000;text-decoration-line:none;text-decoration-style:solid;text-indent:0;text-transform:none;white-space:normal" transform="translate(-208 -16)"/><path fill="#f80" d="M464.04-196.18c-10.174-.114-20.549 1.614-30.797 5.73a22.4 22.4 0 0 0-13.124 14.437l-20.604 69.644c32.588 70.08 98.1 22.964 128.96 0l-20.604-69.644a22.4 22.4 0 0 0-14.196-14.83c-9.492-3.268-19.464-5.224-29.638-5.337zm-91.036 179.4-24.853 83.991c8.047 71.3 133.29 56.401 230.84-2.86L554.984-16.78c-61.595 24.498-86.577-46.962-181.98 0z" enable-background="accumulate" style="isolation:auto;mix-blend-mode:normal;text-decoration-color:#000;text-decoration-line:none;text-decoration-style:solid;text-indent:0;text-transform:none;white-space:normal" transform="translate(-208 228)"/></g><path fill="#fff" d="M299.36 50.67c0 7.092-19.773 18.808-40.09 18.808-23.781 0-44.544-11.22-44.544-20.787s15.814-16.828 39.595-16.828 45.039 9.24 45.039 18.807" opacity=".1"/><path fill="#fff" fill-rule="evenodd" d="M399.51-106.37 348.147 67.21l24.861-83.989c68.594 30.797 120.38 24.498 181.98 0l24.008 81.134c-97.496 59.051-206.73 17-230.85 2.855l-17.62 59.522a22.4 22.4 0 0 0 8.662 24.719c34.52 24.07 79.351 33.765 123.98 33.338 44.626-.428 89.39-11.035 124.55-32.616a22.4 22.4 0 0 0 9.757-25.441l-68.983-233.1c-30.885 22.398-98.09 22.398-128.97 0z" color="#000" enable-background="accumulate" style="isolation:auto;mix-blend-mode:normal;text-decoration-color:#000;text-decoration-line:none;text-decoration-style:solid;text-indent:0;text-transform:none;white-space:normal" transform="translate(-208 228)"/><path fill-rule="evenodd" d="M507.88-176.01s-5.895 10.204-21.48 13.649c-2.71.6-5.174.946-7.524 1.181-4.191.708-8.68 1.181-13.583 1.181-2.433 0-4.775-.157-7.087-.35-1.276 4.646-88.761 328.29-88.761 328.29 28.647 12.078 61.23 17.155 93.727 16.843 44.626-.428 89.39-11.032 124.55-32.613a22.4 22.4 0 0 0 9.755-25.44l-89.593-302.75z" color="#000" enable-background="accumulate" opacity=".1" style="isolation:auto;mix-blend-mode:normal;text-decoration-color:#000;text-decoration-line:none;text-decoration-style:solid;text-indent:0;text-transform:none;white-space:normal" transform="translate(-208 228)"/><path fill="#fff" d="M254.33 31.859c-23.781 0-39.594 7.261-39.594 16.828q.001.463.074.93c1.136-9.033 16.634-15.758 39.52-15.758 22.828 0 43.311 8.519 44.918 17.664a3.5 3.5 0 0 0 .113-.852c0-9.567-21.25-18.812-45.03-18.812z" opacity=".2"/></svg>