<svg xmlns="http://www.w3.org/2000/svg" xmlns:xlink="http://www.w3.org/1999/xlink" width="512" height="512" enable-background="new" version="1.0"><defs><linearGradient id="a"><stop offset="0"/><stop offset="1" stop-opacity="0"/></linearGradient><linearGradient xlink:href="#a" id="i" x1="488" x2="488" y1="224" y2="328" gradientUnits="userSpaceOnUse"/><linearGradient xlink:href="#a" id="d" x1="544" x2="544" y1="164" y2="36" gradientUnits="userSpaceOnUse"/><filter id="b" width="1.048" height="1.048" x="-.024" y="-.024" color-interpolation-filters="sRGB"><feGaussianBlur stdDeviation="4.48"/></filter><filter id="j" width="1.092" height="1.174" x="-.046" y="-.087" color-interpolation-filters="sRGB"><feGaussianBlur stdDeviation="7.025"/></filter><filter id="e" width="1.088" height="1.188" x="-.044" y="-.094" color-interpolation-filters="sRGB"><feGaussianBlur stdDeviation="6.75"/></filter><clipPath id="c"><path fill="#ff8f15" d="M569.6 252c21.274 0 38.4-17.126 38.4-38.4V-77.6c0-21.274-17.126-38.4-38.4-38.4H278.4c-21.274 0-38.4 17.126-38.4 38.4v291.2c0 21.274 17.126 38.4 38.4 38.4zM528 172H320V-36h208z"/></clipPath><clipPath id="f"><path fill="#7fb5f3" d="M649.6 416c21.274 0 38.4-17.126 38.4-38.4V86.4c0-21.274-17.126-38.4-38.4-38.4H358.4C337.126 48 320 65.126 320 86.4V128h288v208H400V208h-80v169.6c0 21.274 17.126 38.4 38.4 38.4z"/></clipPath></defs><path d="M150.4 34C129.126 34 112 51.127 112 72.4V114H70.4C49.126 114 32 131.127 32 152.4v291.2c0 21.274 17.127 38.4 38.4 38.4h291.2c21.274 0 38.4-17.127 38.4-38.4V402h41.6c21.274 0 38.4-17.127 38.4-38.4V72.4c0-21.274-17.127-38.4-38.4-38.4zm211.2 80H400v38.4c0-21.274-17.127-38.4-38.4-38.4M192 194h128v128H192zm-80 169.6c0 21.274 17.127 38.4 38.4 38.4H112z" opacity=".2"/><path d="M358.4-192c-21.274 0-38.4 17.127-38.4 38.4v41.6h-41.6c-21.274 0-38.4 17.127-38.4 38.4v291.2c0 21.274 17.127 38.4 38.4 38.4h291.2c21.274 0 38.4-17.127 38.4-38.4V176h41.6c21.274 0 38.4-17.127 38.4-38.4v-291.2c0-21.274-17.127-38.4-38.4-38.4zm211.2 80H608v38.4c0-21.274-17.127-38.4-38.4-38.4M400-32h128V96H400zm-80 169.6c0 21.274 17.127 38.4 38.4 38.4H320z" filter="url(#b)" opacity=".1" transform="translate(-208 228)"/><path d="M358.4-192c-21.274 0-38.4 17.127-38.4 38.4v41.6h-41.6c-21.274 0-38.4 17.127-38.4 38.4v291.2c0 21.274 17.127 38.4 38.4 38.4h291.2c21.274 0 38.4-17.127 38.4-38.4V176h41.6c21.274 0 38.4-17.127 38.4-38.4v-291.2c0-21.274-17.127-38.4-38.4-38.4zm211.2 80H608v38.4c0-21.274-17.127-38.4-38.4-38.4M400-32h128V96H400zm-80 169.6c0 21.274 17.127 38.4 38.4 38.4H320z" filter="url(#b)" opacity=".2" transform="translate(-208 228)"/><path fill="#ff8f15" d="M32 296v145.6c0 21.274 17.127 38.4 38.4 38.4h291.2c21.274 0 38.4-17.127 38.4-38.4V236h-80v164H112V296z"/><path fill="#7fb5f3" d="M150.4 32C129.126 32 112 49.127 112 70.4V112h288v104h80V70.4c0-21.274-17.127-38.4-38.4-38.4zM112 192v24h80v-24z"/><path fill="url(#d)" d="M320 50v93.6c0 21.274 17.127 38.4 38.4 38.4h291.2c21.274 0 38.4-17.127 38.4-38.4V10h-80v92H400V50z" clip-path="url(#c)" filter="url(#e)" opacity=".3" transform="translate(-208 228)"/><path fill="#7fb5f3" d="M112 216v145.6c0 21.274 17.127 38.4 38.4 38.4h291.2c21.274 0 38.4-17.127 38.4-38.4V216h-80v104H192V216z"/><path fill="url(#i)" d="M278.4 138c-21.274 0-38.4 17.127-38.4 38.4V296h80v-78h208v114h80V176.4c0-21.274-17.127-38.4-38.4-38.4z" clip-path="url(#f)" filter="url(#j)" opacity=".3" transform="translate(-208 -16)"/><path fill="#ff8f15" d="M361.6 112c21.274 0 38.4 17.127 38.4 38.4V236h-80v-44H112v104H32V150.4c0-21.274 17.127-38.4 38.4-38.4z"/><path fill="#fff" d="M150.4 32C129.126 32 112 49.127 112 70.4v2c0-21.274 17.127-38.4 38.4-38.4h291.2c21.274 0 38.4 17.127 38.4 38.4v-2c0-21.274-17.127-38.4-38.4-38.4zM192 320v2h208v-2zM70.4 112C49.126 112 32 129.127 32 150.4v2c0-21.274 17.127-38.4 38.4-38.4h291.2c21.274 0 38.4 17.127 38.4 38.4v-2c0-21.274-17.127-38.4-38.4-38.4zM112 400v2h28v-2z" opacity=".2"/></svg>