<svg width="512" height="512" enable-background="new" version="1.0" xmlns="http://www.w3.org/2000/svg">
 <defs>
  <filter id="a" x="-.024" y="-.024" width="1.048" height="1.048" color-interpolation-filters="sRGB">
   <feGaussianBlur stdDeviation="4.48"/>
  </filter>
 </defs>
 <g transform="translate(0,212)">
  <g>
   <g transform="translate(-208,16)">
    <g>
     <path d="m272-192c-17.728 0-32 14.272-32 32v144c0 17.728 14.272 32 32 32s32-14.272 32-32v-67l48 48v51h64v-16c0-8.864 7.136-16 16-16h16v-64h-51l-48-48h67c17.728 0 32-14.272 32-32s-14.272-32-32-32zm240 0c-17.728 0-32 14.272-32 32s14.272 32 32 32h67l-48 48h-51v64h16c8.864 0 16 7.136 16 16v16h64v-51l48-48v67c0 17.728 14.272 32 32 32s32-14.272 32-32v-144c0-17.728-14.272-32-32-32zm-160 240v64c0 17.728 14.272 32 32 32h64v-64h-16c-8.864 0-16-7.136-16-16v-16zm160 0v16c0 8.864-7.136 16-16 16h-16v64h51l48 48h-67c-17.728 0-32 14.272-32 32s14.272 32 32 32h144c17.728 0 32-14.272 32-32v-144c0-17.728-14.272-32-32-32s-32 14.272-32 32v67l-48-48v-51z" color="#000000" enable-background="new" filter="url(#a)" opacity=".1"/>
     <path d="m272-192c-17.728 0-32 14.272-32 32v144c0 17.728 14.272 32 32 32s32-14.272 32-32v-67l48 48v51h64v-16c0-8.864 7.136-16 16-16h16v-64h-51l-48-48h67c17.728 0 32-14.272 32-32s-14.272-32-32-32zm240 0c-17.728 0-32 14.272-32 32s14.272 32 32 32h67l-48 48h-51v64h16c8.864 0 16 7.136 16 16v16h64v-51l48-48v67c0 17.728 14.272 32 32 32s32-14.272 32-32v-144c0-17.728-14.272-32-32-32zm-160 240v64c0 17.728 14.272 32 32 32h64v-64h-16c-8.864 0-16-7.136-16-16v-16zm160 0v16c0 8.864-7.136 16-16 16h-16v64h51l48 48h-67c-17.728 0-32 14.272-32 32s14.272 32 32 32h144c17.728 0 32-14.272 32-32v-144c0-17.728-14.272-32-32-32s-32 14.272-32 32v67l-48-48v-51z" color="#000000" enable-background="new" filter="url(#a)" opacity=".2"/>
     <path d="m272-194c-17.728 0-32 14.272-32 32v144c0 17.728 14.272 32 32 32s32-14.272 32-32v-67l48 48v51h64v-16c0-8.864 7.136-16 16-16h16v-64h-51l-48-48h67c17.728 0 32-14.272 32-32s-14.272-32-32-32zm240 0c-17.728 0-32 14.272-32 32s14.272 32 32 32h67l-48 48h-51v64h16c8.864 0 16 7.136 16 16v16h64v-51l48-48v67c0 17.728 14.272 32 32 32s32-14.272 32-32v-144c0-17.728-14.272-32-32-32zm-160 240v64c0 17.728 14.272 32 32 32h64v-64h-16c-8.864 0-16-7.136-16-16v-16zm160 0v16c0 8.864-7.136 16-16 16h-16v64h51l48 48h-67c-17.728 0-32 14.272-32 32s14.272 32 32 32h144c17.728 0 32-14.272 32-32v-144c0-17.728-14.272-32-32-32s-32 14.272-32 32v67l-48-48v-51z" color="#000000" enable-background="new" opacity=".2"/>
    </g>
    <path d="m272-196c-17.728 0-32 14.272-32 32v144c0 17.728 14.272 32 32 32s32-14.272 32-32v-67l48 48v51h64v-16c0-8.864 7.136-16 16-16h16v-64h-51l-48-48h67c17.728 0 32-14.272 32-32s-14.272-32-32-32zm240 0c-17.728 0-32 14.272-32 32s14.272 32 32 32h67l-48 48h-51v64h16c8.864 0 16 7.136 16 16v16h64v-51l48-48v67c0 17.728 14.272 32 32 32s32-14.272 32-32v-144c0-17.728-14.272-32-32-32zm-160 240v64c0 17.728 14.272 32 32 32h64v-64h-16c-8.864 0-16-7.136-16-16v-16zm160 0v16c0 8.864-7.136 16-16 16h-16v64h51l48 48h-67c-17.728 0-32 14.272-32 32s14.272 32 32 32h144c17.728 0 32-14.272 32-32v-144c0-17.728-14.272-32-32-32s-32 14.272-32 32v67l-48-48v-51z" color="#000000" enable-background="new" fill="#ffeb3b"/>
    <path transform="translate(0,-244)" d="m272 48c-17.728 0-32 14.272-32 32v2c0-17.728 14.272-32 32-32h144c17.393 0 31.449 13.739 31.975 31 0.01014-0.33274 0.02539-0.66471 0.02539-1 0-17.728-14.272-32-32-32zm240 0c-17.728 0-32 14.272-32 32 0 0.33529 0.0152 0.66726 0.0254 1 0.52583-17.261 14.582-31 31.975-31h144c17.728 0 32 14.272 32 32v-2c0-17.728-14.272-32-32-32zm-163 66 48 48h51v-2h-51l-46-46zm228 0-46 46h-51v2h51l48-48zm-225 174v2h64v-2zm160 0v2h64v-2zm144 0c-17.728 0-32 14.272-32 32v2c0-17.728 14.272-32 32-32s32 14.272 32 32v-2c0-17.728-14.272-32-32-32zm-240 16v2c0 8.864 7.136 16 16 16h16v-2h-16c-8.864 0-16-7.136-16-16zm96 0c0 8.864-7.136 16-16 16h-16v2h16c8.864 0 16-7.136 16-16zm64 35v2l48 48v-2zm-64 93c-17.728 0-32 14.272-32 32 0 0.33529 0.0152 0.66726 0.0254 1 0.52584-17.261 14.582-31 31.975-31h67l-2-2z" color="#000000" enable-background="new" fill="#fff" opacity=".4"/>
   </g>
  </g>
 </g>
</svg>
