<svg xmlns="http://www.w3.org/2000/svg" width="512" height="512" enable-background="new" version="1.0"><defs><filter id="a" width="1.048" height="1.048" x="-.024" y="-.024" color-interpolation-filters="sRGB"><feGaussianBlur stdDeviation="4.48"/></filter></defs><g color="#000"><path d="M272-192c-17.728 0-32 14.272-32 32v144c0 17.728 14.272 32 32 32s32-14.272 32-32v-67l48 48v51h64V0c0-8.864 7.136-16 16-16h16v-64h-51l-48-48h67c17.728 0 32-14.272 32-32s-14.272-32-32-32zm240 0c-17.728 0-32 14.272-32 32s14.272 32 32 32h67l-48 48h-51v64h16c8.864 0 16 7.136 16 16v16h64v-51l48-48v67c0 17.728 14.272 32 32 32s32-14.272 32-32v-144c0-17.728-14.272-32-32-32zM352 48v64c0 17.728 14.272 32 32 32h64V80h-16c-8.864 0-16-7.136-16-16V48zm160 0v16c0 8.864-7.136 16-16 16h-16v64h51l48 48h-67c-17.728 0-32 14.272-32 32s14.272 32 32 32h144c17.728 0 32-14.272 32-32V80c0-17.728-14.272-32-32-32s-32 14.272-32 32v67l-48-48V48z" enable-background="new" filter="url(#a)" opacity=".1" transform="translate(-208 228)"/><path d="M272-192c-17.728 0-32 14.272-32 32v144c0 17.728 14.272 32 32 32s32-14.272 32-32v-67l48 48v51h64V0c0-8.864 7.136-16 16-16h16v-64h-51l-48-48h67c17.728 0 32-14.272 32-32s-14.272-32-32-32zm240 0c-17.728 0-32 14.272-32 32s14.272 32 32 32h67l-48 48h-51v64h16c8.864 0 16 7.136 16 16v16h64v-51l48-48v67c0 17.728 14.272 32 32 32s32-14.272 32-32v-144c0-17.728-14.272-32-32-32zM352 48v64c0 17.728 14.272 32 32 32h64V80h-16c-8.864 0-16-7.136-16-16V48zm160 0v16c0 8.864-7.136 16-16 16h-16v64h51l48 48h-67c-17.728 0-32 14.272-32 32s14.272 32 32 32h144c17.728 0 32-14.272 32-32V80c0-17.728-14.272-32-32-32s-32 14.272-32 32v67l-48-48V48z" enable-background="new" filter="url(#a)" opacity=".2" transform="translate(-208 228)"/><path d="M64 34c-17.728 0-32 14.272-32 32v144c0 17.728 14.272 32 32 32s32-14.272 32-32v-67l48 48v51h64v-16c0-8.864 7.136-16 16-16h16v-64h-51l-48-48h67c17.728 0 32-14.272 32-32s-14.272-32-32-32zm240 0c-17.728 0-32 14.272-32 32s14.272 32 32 32h67l-48 48h-51v64h16c8.864 0 16 7.136 16 16v16h64v-51l48-48v67c0 17.728 14.272 32 32 32s32-14.272 32-32V66c0-17.728-14.272-32-32-32zM144 274v64c0 17.728 14.272 32 32 32h64v-64h-16c-8.864 0-16-7.136-16-16v-16zm160 0v16c0 8.864-7.136 16-16 16h-16v64h51l48 48h-67c-17.728 0-32 14.272-32 32s14.272 32 32 32h144c17.728 0 32-14.272 32-32V306c0-17.728-14.272-32-32-32s-32 14.272-32 32v67l-48-48v-51z" enable-background="new" opacity=".2"/><path fill="#ffeb3b" d="M64 32c-17.728 0-32 14.272-32 32v144c0 17.728 14.272 32 32 32s32-14.272 32-32v-67l48 48v51h64v-16c0-8.864 7.136-16 16-16h16v-64h-51l-48-48h67c17.728 0 32-14.272 32-32s-14.272-32-32-32zm240 0c-17.728 0-32 14.272-32 32s14.272 32 32 32h67l-48 48h-51v64h16c8.864 0 16 7.136 16 16v16h64v-51l48-48v67c0 17.728 14.272 32 32 32s32-14.272 32-32V64c0-17.728-14.272-32-32-32zM144 272v64c0 17.728 14.272 32 32 32h64v-64h-16c-8.864 0-16-7.136-16-16v-16zm160 0v16c0 8.864-7.136 16-16 16h-16v64h51l48 48h-67c-17.728 0-32 14.272-32 32s14.272 32 32 32h144c17.728 0 32-14.272 32-32V304c0-17.728-14.272-32-32-32s-32 14.272-32 32v67l-48-48v-51z" enable-background="new"/><path fill="#fff" d="M64 32c-17.728 0-32 14.272-32 32v2c0-17.728 14.272-32 32-32h144c17.393 0 31.449 13.739 31.975 31 .01-.333.025-.665.025-1 0-17.728-14.272-32-32-32zm240 0c-17.728 0-32 14.272-32 32 0 .335.015.667.025 1 .526-17.261 14.582-31 31.975-31h144c17.728 0 32 14.272 32 32v-2c0-17.728-14.272-32-32-32zM141 98l48 48h51v-2h-51l-46-46zm228 0-46 46h-51v2h51l48-48zM144 272v2h64v-2zm160 0v2h64v-2zm144 0c-17.728 0-32 14.272-32 32v2c0-17.728 14.272-32 32-32s32 14.272 32 32v-2c0-17.728-14.272-32-32-32m-240 16v2c0 8.864 7.136 16 16 16h16v-2h-16c-8.864 0-16-7.136-16-16m96 0c0 8.864-7.136 16-16 16h-16v2h16c8.864 0 16-7.136 16-16zm64 35v2l48 48v-2zm-64 93c-17.728 0-32 14.272-32 32 0 .335.015.667.025 1 .526-17.261 14.582-31 31.975-31h67l-2-2z" enable-background="new" opacity=".4"/></g></svg>