<svg xmlns="http://www.w3.org/2000/svg" width="512" height="512" enable-background="new" version="1.0"><defs><filter id="a" width="1.048" height="1.048" x="-.024" y="-.024" color-interpolation-filters="sRGB"><feGaussianBlur stdDeviation="4.8"/></filter><filter id="d" width="1.048" height="1.048" x="-.024" y="-.024" color-interpolation-filters="sRGB"><feGaussianBlur stdDeviation="2.56"/></filter><filter id="b" width="1.048" height="1.048" x="-.024" y="-.024" color-interpolation-filters="sRGB"><feGaussianBlur stdDeviation="3.68"/></filter></defs><g transform="translate(-208 228)"><circle cx="464" cy="30" r="240" opacity=".2"/><circle cx="464" cy="32" r="240" filter="url(#a)" opacity=".1"/><circle cx="464" cy="32" r="240" filter="url(#a)" opacity=".2"/><circle cx="464" cy="28" r="240" fill="#9c27b0"/><path fill="#fff" d="M464-212A240 240 0 0 0 224 28l.041 1.172A240 240 0 0 1 464-210 240 240 0 0 1 703.959 28.828L704 28a240 240 0 0 0-240-240" opacity=".2"/><circle cx="464" cy="34" r="184" filter="url(#b)" opacity=".15"/><rect width="256" height="256" x="-160" y="-592" enable-background="new" filter="url(#d)" opacity=".2" rx="128" ry="128" transform="matrix(0 -1 -1 0 0 0)"/><circle cx="464" cy="28" r="184" fill="#ba68c8"/><path fill="#fff" d="M464-88c-26.51 0-48 21.49-48 48v16h24a8 8 0 0 1 0 16h-24V8h24c4.418 0 8 3.582 8 8s-3.842 9.493-8 8h-24v16c0 26.51 21.49 48 48 48s44.845-21.678 48-48V24h-24c-4.418 0-8-3.582-8-8s3.749-6.796 8-8h24V-8h-24c-4.418 0-8-3.582-8-8s3.749-6.796 8-8h24v-16c0-26.51-21.49-48-48-48M368 24v16c0 47.61 34.537 86.932 80 94.5V152h32v-17.5c45.463-7.568 74.335-47.229 80-94.5V24h-32v16c0 35.346-28.654 64-64 64s-64-28.654-64-64V24z" enable-background="new"/><path fill="#fff" d="M464-156A184 184 0 0 0 280 28l.041 1.172A184 184 0 0 1 464-154 184 184 0 0 1 647.959 28.828L648 28a184 184 0 0 0-184-184" opacity=".2"/></g></svg>