<svg xmlns="http://www.w3.org/2000/svg" width="64" height="64" viewBox="0 0 16.933 16.933"><defs><linearGradient id="b" x1="30.379" x2="45.719" y1="24.664" y2="24.664" gradientUnits="userSpaceOnUse"><stop offset="0" stop-color="#b6fdfe"/><stop offset="1" stop-color="#cafefe"/></linearGradient><filter id="a" width="1.067" height="1.078" x="-.034" y="-.039" color-interpolation-filters="sRGB"><feGaussianBlur stdDeviation=".196"/></filter></defs><g filter="url(#a)" opacity=".25" transform="translate(-1.146 -318.4)scale(1.1343)"><path d="M-112.36 264.53c.737 0 1.505.666 1.503 1.403l-.022 6.612c-.002.736-.717 1.173-1.454 1.173s-1.457-.621-1.458-1.358l-.008-6.366c-.001-.737.702-1.464 1.439-1.464" style="paint-order:normal" transform="matrix(.92176 -.38775 .4003 .91639 0 0)"/><path d="M14.627 285.98c-.679-.286-1.654.027-1.947.703l-2.627 6.067c-.293.676.18 1.449.86 1.734.678.286 1.603-.099 1.899-.774l2.556-5.83c.295-.675-.062-1.614-.741-1.9" style="paint-order:normal"/><path d="M9.479 286.92c.748.973 1.31 2.108 1.726 2.824.417.715.488.866.805 1.451s1.03 1.065 1.758.334c-.065.167-.639 1.58-.928 2.164-.192.39-.318.524-.658.717-.641.362-1.618.138-1.992-.496l-3.23-5.474c1.153-.695 1.324-.837 2.519-1.52" style="paint-order:normal"/><path d="M7.521 287.46c.833.981 2.83 4.553 3.175 5.016.346.462.981.958 1.623.596.34-.192.506-.374.788-.704a20 20 0 0 0 .683-.837c-.066.166-.657 1.576-.946 2.161-.192.39-.318.524-.658.716-.642.363-1.619.14-1.993-.495l-3.23-5.474c.231-.382.313-.513.558-.979" style="paint-order:normal"/><path d="M9.711 285.37c-.802.16-1.789.93-2.238 1.514-.749.972-1.31 2.108-1.726 2.823-.417.716-.488.866-.805 1.452-.318.585-1.048 1.068-1.776.337.065.166.656 1.576.945 2.161.193.39.319.524.659.716.641.362 1.618.139 1.992-.496l3.23-5.473a7.2 7.2 0 0 1 1.05-1.347c.544-.548 1.199-.852.977-1.206-.477-.76-1.475-.652-2.277-.491z" style="paint-order:normal"/><path d="M44.643 21.932a4 4 0 0 0-.57.002c-2.72.204-6.19 3.027-7.533 4.61-3.148 3.708-11.577 18.472-12.883 20.22-1.307 1.748-3.709 3.621-6.133 2.252-1.285-.726-1.912-1.414-2.98-2.66-.858-1.001-1.817-2.174-2.56-3.149l-.018-.016c.248.63 2.482 5.958 3.574 8.17.727 1.473 1.203 1.98 2.488 2.705 2.424 1.37 6.117.525 7.532-1.873l12.205-20.688c.707-1.199 1.983-3.181 3.903-5.117 1.862-1.877 4.119-2.96 3.912-4.157-.321-.126-.546-.272-.936-.3z" style="paint-order:normal" transform="translate(0 280.07)scale(.26458)"/><path d="M5.801 287.44c-.456-.165-.829-.494-.88-1.114-.051-.619.317-1.063.743-1.042s.57.378.472.71c-.1.331-.2.457-.262.686s-.064.47-.073.76M7 286.19c-.386-.658-.283-1.404-.06-1.954.225-.55.764-1.16 1.362-1.32s1.142-.074 1.387.535c.244.608-.286 1.36-.92 1.536s-1.218.516-1.77 1.203"/><circle cx="11.342" cy="283.14" r=".677" style="paint-order:normal"/><path d="M40.379 19.467c-1.243-.001-2.518.19-3.654.418-1.427.286-3.009 1.124-4.465 2.152-1.004 1.25-1.745 2.742-1.856 4.46-.296 3.455 2.104 4.213 4.188 2.437.319-.272.498-.501.687-.713.898-.833 6.312-2.926 9.768-4.7.585-.598.873-1.146.516-1.716-1.126-1.797-3.112-2.336-5.184-2.338" style="paint-order:normal" transform="translate(0 280.07)scale(.26458)"/><path d="M44.643 21.932a4 4 0 0 0-.57.002c-2.72.204-6.19 3.027-7.534 4.61-.353.416-.779.987-1.248 1.648.964 1.455 2.68 1.677 4.395.562.592-.75 1.26-1.54 2.05-2.338 1.862-1.876 4.174-3.042 3.968-4.24a3.6 3.6 0 0 0-1.06-.244" style="paint-order:normal" transform="translate(0 280.07)scale(.26458)"/></g><g transform="translate(-1.146 -318.8)scale(1.1343)"><path fill="#01a2eb" d="M-112.36 264.53c.737 0 1.505.666 1.503 1.403l-.022 6.612c-.002.736-.717 1.173-1.454 1.173s-1.457-.621-1.458-1.358l-.008-6.366c-.001-.737.702-1.464 1.439-1.464" style="paint-order:normal" transform="matrix(.92176 -.38775 .4003 .91639 0 0)"/><path fill="#5283ee" d="M14.627 285.98c-.679-.286-1.654.027-1.947.703l-2.627 6.067c-.293.676.18 1.449.86 1.734.678.286 1.603-.099 1.899-.774l2.556-5.83c.295-.675-.062-1.614-.741-1.9" style="paint-order:normal"/><path fill="#0cc8fd" d="M9.479 286.92c.748.973 1.31 2.108 1.726 2.824.417.715.488.866.805 1.451s1.03 1.065 1.758.334c-.065.167-.639 1.58-.928 2.164-.192.39-.318.524-.658.717-.641.362-1.618.138-1.992-.496l-3.23-5.474c1.153-.695 1.324-.837 2.519-1.52" style="paint-order:normal"/><path fill="#0bb1f9" d="M7.521 287.46c.833.981 2.83 4.553 3.175 5.016.346.462.981.958 1.623.596.34-.192.506-.374.788-.704a20 20 0 0 0 .683-.837c-.066.166-.657 1.576-.946 2.161-.192.39-.318.524-.658.716-.642.363-1.619.14-1.993-.495l-3.23-5.474c.231-.382.313-.513.558-.979" style="paint-order:normal"/><path fill="#1ee1fd" d="M9.711 285.37c-.802.16-1.789.93-2.238 1.514-.749.972-1.31 2.108-1.726 2.823-.417.716-.488.866-.805 1.452-.318.585-1.048 1.068-1.776.337.065.166.656 1.576.945 2.161.193.39.319.524.659.716.641.362 1.618.139 1.992-.496l3.23-5.473a7.2 7.2 0 0 1 1.05-1.347c.544-.548 1.199-.852.977-1.206-.477-.76-1.475-.652-2.277-.491z" style="paint-order:normal"/><path fill="#17c2f9" d="M44.643 21.932a4 4 0 0 0-.57.002c-2.72.204-6.19 3.027-7.533 4.61-3.148 3.708-11.577 18.472-12.883 20.22-1.307 1.748-3.709 3.621-6.133 2.252-1.285-.726-1.912-1.414-2.98-2.66-.858-1.001-1.817-2.174-2.56-3.149l-.018-.016c.248.63 2.482 5.958 3.574 8.17.727 1.473 1.203 1.98 2.488 2.705 2.424 1.37 6.117.525 7.532-1.873l12.205-20.688c.707-1.199 1.983-3.181 3.903-5.117 1.862-1.877 4.119-2.96 3.912-4.157-.321-.126-.546-.272-.936-.3z" style="paint-order:normal" transform="translate(0 280.07)scale(.26458)"/><path fill="#6df0fe" d="M5.801 287.44c-.456-.165-.829-.494-.88-1.114-.051-.619.317-1.063.743-1.042s.57.378.472.71c-.1.331-.2.457-.262.686s-.064.47-.073.76M7 286.19c-.386-.658-.283-1.404-.06-1.954.225-.55.764-1.16 1.362-1.32s1.142-.074 1.387.535c.244.608-.286 1.36-.92 1.536s-1.218.516-1.77 1.203"/><circle cx="11.342" cy="283.14" r=".677" fill="#6df0fe" style="paint-order:normal"/><path fill="url(#b)" d="M40.379 19.467c-1.243-.001-2.518.19-3.654.418-1.427.286-3.009 1.124-4.465 2.152-1.004 1.25-1.745 2.742-1.856 4.46-.296 3.455 2.104 4.213 4.188 2.437.319-.272.498-.501.687-.713.898-.833 6.312-2.926 9.768-4.7.585-.598.873-1.146.516-1.716-1.126-1.797-3.112-2.336-5.184-2.338" style="paint-order:normal" transform="translate(0 280.07)scale(.26458)"/><path fill="#b2edfa" d="M44.643 21.932a4 4 0 0 0-.57.002c-2.72.204-6.19 3.027-7.534 4.61-.353.416-.779.987-1.248 1.648.964 1.455 2.68 1.677 4.395.562.592-.75 1.26-1.54 2.05-2.338 1.862-1.876 4.174-3.042 3.968-4.24a3.6 3.6 0 0 0-1.06-.244" style="paint-order:normal" transform="translate(0 280.07)scale(.26458)"/></g></svg>