<svg xmlns="http://www.w3.org/2000/svg" width="512" height="512" enable-background="new" version="1.0"><defs><filter id="a" width="1.048" height="1.048" x="-.024" y="-.024" color-interpolation-filters="sRGB"><feGaussianBlur stdDeviation="4.48"/></filter></defs><g transform="translate(-208 228)"><g transform="scale(1 -1)rotate(90)"><rect width="448" height="448" x="-254" y="-688" opacity=".2" rx="36" ry="36"/><rect width="448" height="448" x="-256" y="-688" filter="url(#a)" opacity=".1" rx="36" ry="36"/><rect width="448" height="448" x="-256" y="-688" filter="url(#a)" opacity=".2" rx="36" ry="36"/></g><rect width="448" height="448" x="-252" y="-688" fill="#ee4056" rx="36" ry="36" transform="scale(1 -1)rotate(90)"/><path fill="#fff" d="M276-196c-19.944 0-36 16.056-36 36v2c0-19.944 16.056-36 36-36h376c19.944 0 36 16.056 36 36v-2c0-19.944-16.056-36-36-36z" opacity=".2"/><path fill="#fff" d="M349.639-100.002c-17.675 0-31.919 14.426-31.919 32.337 0 132.672 23.955 223.18 146.288 223.656 122.334.486 146.288-90.88 146.288-223.656 0-17.911-14.243-32.337-31.918-32.337zm181.711 72.82c5.02 0 10.05 1.975 13.904 5.88 7.708 7.81 7.708 20.484 0 28.296l-65.83 66.694c-4.234 4.29-9.902 6.057-15.415 5.635-5.512.422-11.18-1.346-15.414-5.635l-65.83-66.694c-7.709-7.81-7.709-20.484 0-28.296 3.854-3.905 8.934-5.818 13.964-5.818s9.988 1.913 13.843 5.818l53.437 54.14 53.437-54.14c3.854-3.905 8.883-5.88 13.903-5.88z" color="#000" enable-background="accumulate"/></g></svg>