<svg width="512" height="512" enable-background="new" version="1.0" xmlns="http://www.w3.org/2000/svg" xmlns:osb="http://www.openswatchbook.org/uri/2009/osb" xmlns:xlink="http://www.w3.org/1999/xlink">
 <defs>
  <filter id="a" x="-.024" y="-.024" width="1.048" height="1.048" color-interpolation-filters="sRGB">
   <feGaussianBlur stdDeviation="4.48"/>
  </filter>
  <clipPath id="b">
   <rect transform="matrix(0,-1,-1,0,0,0)" x="-252" y="-688" width="448" height="448" rx="36" ry="36" fill="#636e73"/>
  </clipPath>
 </defs>
 <g transform="translate(0,212)">
  <g>
   <g>
    <rect transform="matrix(0,-1,-1,0,0,0)" x="-270" y="-480" width="448" height="448" rx="36" ry="36" opacity=".2"/>
    <rect transform="matrix(0,-1,-1,0,-208,16)" x="-256" y="-688" width="448" height="448" rx="36" ry="36" filter="url(#a)" opacity=".1"/>
    <rect transform="matrix(0,-1,-1,0,-208,16)" x="-256" y="-688" width="448" height="448" rx="36" ry="36" filter="url(#a)" opacity=".2"/>
   </g>
   <g transform="translate(-208 16)" clip-path="url(#b)" enable-background="new">
    <g>
     <rect transform="rotate(-16)" x="330.51" y="47.015" width="215.59" height="215.59" color="#000000" enable-background="accumulate" fill="#f4f1ef" stroke="#f4f1ef" stroke-width="2"/>
     <path d="m123.43 13.518c33.849-52.33 104.06-71.092 207.24-59.425l59.425 207.24c-61.099 63.704-136.29 49.896-207.24 59.425z" color="#000000" enable-background="accumulate" fill="#48c39e"/>
     <path d="m390.09 161.33 207.24-59.425c72.443 55.922 43.731 137.13 59.425 207.24l-207.24 59.425c-43.956-63.044-78.702-128.39-59.425-207.24z" color="#000000" enable-background="accumulate" fill="#d81768"/>
     <path d="m537.91-105.33c40.208-61.054 133.19-46.724 207.24-59.425l59.425 207.24c-61.494 40.671-124.77 76.452-207.24 59.425z" color="#000000" enable-background="accumulate" fill="#ecb524"/>
     <path d="m271.24-253.15 207.24-59.425c21.095 68.544 96.171 114.6 59.425 207.24l-207.24 59.425c-44.899-64.76-68.217-133.24-59.425-207.24z" color="#000000" enable-background="accumulate" fill="#81d2e0"/>
     <rect transform="rotate(-16)" x="114.92" y="262.61" width="215.59" height="215.59" color="#000000" enable-background="accumulate" fill="#390f39"/>
     <rect transform="rotate(-16)" x="114.92" y="-168.58" width="215.59" height="215.59" color="#000000" enable-background="accumulate" fill="#20a48e"/>
     <rect transform="rotate(-16)" x="546.1" y="-168.58" width="215.59" height="215.59" color="#000000" enable-background="accumulate" fill="#77971f"/>
     <rect transform="rotate(-16)" x="546.1" y="262.61" width="215.59" height="215.59" color="#000000" enable-background="accumulate" fill="#d5100d"/>
    </g>
    <path d="m523.86 60.288c-2e-4 15.386-5.0672 27.184-15.201 35.395-10.06 8.2108-24.928 12.316-44.605 12.316-13.611 0-25.446-2.2561-35.506-6.7684-9.9862-4.5122-18.123-11.798-24.41-21.858l24.078-18.419c3.5506 5.0301 6.9163 8.8026 10.097 11.318 3.1807 2.5151 6.9533 4.4753 11.318 5.8807 4.3643 1.4055 9.3943 2.1083 15.09 2.1082 8.5066 1e-4 15.127-1.4424 19.861-4.3273 4.808-2.9588 7.2121-7.4341 7.2122-13.426-1e-4 -3.4026-0.851-6.2505-2.552-8.5437-1.6275-2.293-4.1055-4.2533-7.4341-5.8807-3.3288-1.7013-9.0986-3.6245-17.309-5.7698-7.989-2.1451-15.534-4.2902-22.635-6.4355-7.0273-2.219-13.13-5.0669-18.308-8.5437-5.104-3.4765-9.1354-7.8408-12.094-13.093-2.9588-5.2519-4.4383-11.872-4.4383-19.861 0-14.572 4.9191-25.927 14.757-34.064 9.8382-8.2107 23.93-12.316 42.275-12.316 26.556 1e-4 45.344 9.0986 56.366 27.295l-23.856 18.641c-4.2164-6.5094-8.9506-11.17-14.202-13.981-5.252-2.8108-11.503-4.2162-18.752-4.2164-7.2492 2e-4 -13.167 1.3316-17.753 3.9945-4.5123 2.5891-6.7684 6.6945-6.7684 12.316 0 4.9562 2.367 8.7657 7.1013 11.429 4.7341 2.5891 12.982 5.2151 24.743 7.8779 6.5094 1.7015 12.945 3.5507 19.306 5.5479 6.3614 1.9233 12.02 4.6233 16.976 8.0998 5.0299 3.4768 9.0614 8.026 12.094 13.648 3.0327 5.6219 4.5491 12.834 4.5493 21.637" enable-background="new" fill="#5a3856"/>
   </g>
   <path d="m68-180c-19.944 0-36 16.056-36 36v2c0-19.944 16.056-36 36-36h376c19.944 0 36 16.056 36 36v-2c0-19.944-16.056-36-36-36z" fill="#fff" opacity=".2"/>
  </g>
 </g>
</svg>
