<svg width="512" height="512" enable-background="new" version="1.0" xmlns="http://www.w3.org/2000/svg">
 <defs>
  <filter id="a" x="-.024" y="-.024" width="1.048" height="1.048" color-interpolation-filters="sRGB">
   <feGaussianBlur stdDeviation="4.48"/>
  </filter>
 </defs>
 <g transform="translate(0,212)">
  <rect transform="matrix(0,-1,-1,0,-208,16)" x="-256" y="-688" width="448" height="448" rx="36" ry="36" filter="url(#a)" opacity=".2"/>
  <rect transform="matrix(0,-1,-1,0,0,0)" x="-270" y="-480" width="448" height="448" rx="36" ry="36" opacity=".2"/>
  <rect transform="matrix(0,-1,-1,0,-208,16)" x="-256" y="-688" width="448" height="448" rx="36" ry="36" filter="url(#a)" opacity=".1"/>
  <rect transform="matrix(0,-1,-1,0,-208,16)" x="-256" y="-688" width="448" height="448" rx="36" ry="36" fill="#fff" opacity=".1"/>
 </g>
 <g transform="translate(-208,224)">
  <rect transform="rotate(-16)" x="330.51" y="47.015" width="215.59" height="215.59" color="#000000" enable-background="accumulate" fill="#f4f1ef" stroke="#f4f1ef" stroke-width="2"/>
  <path transform="translate(208,-228)" d="m68.131 178.76c-12.707-0.02043-24.753 0.56762-36.131 1.7734v263.67c52.79-3.1189 105.24-8.1027 150.1-54.869l-59.426-207.24c-19.346-2.1876-37.533-3.3066-54.539-3.334z" color="#000000" enable-background="accumulate" fill="#48c39e"/>
  <path transform="translate(208,-228)" d="m389.33 329.9-207.24 59.426c-8.2479 33.737-6.5997 65 1.4219 94.67h259.56c-2.0068-55.342 0.90076-111.91-53.744-154.1z" color="#000000" enable-background="accumulate" fill="#d81768"/>
  <path transform="translate(208,-228)" d="m479.88 69.252c-59.505 4.2134-119.7 7.4466-149.97 53.418l59.426 207.24c32.91 6.7947 62.761 5.1744 90.664-1.8047v-256.11c0-0.92594-0.0472-1.8401-0.11523-2.748z" color="#000000" enable-background="accumulate" fill="#ecb524"/>
  <path transform="translate(208,-228)" d="m68 36c-1.6134 0-3.1978 0.11659-4.7539 0.32031 6.1116 50.947 27.211 99.315 59.418 145.77l207.24-59.426c13.5-34.036 11.899-61.779 3.4336-86.664z" color="#000000" enable-background="accumulate" fill="#81d2e0"/>
  <path transform="translate(208,-228)" d="m182.09 389.34-150.09 43.037v15.627c0 19.944 16.056 36 36 36h141.24z" color="#000000" enable-background="accumulate" fill="#390f39"/>
  <path transform="translate(208,-228)" d="m68 36c-19.944 0-36 16.056-36 36v136.09l90.664-25.998-41.889-146.09z" color="#000000" enable-background="accumulate" fill="#20a48e"/>
  <path transform="translate(208,-228)" d="m305.05 36 24.85 86.664 150.1-43.041v-7.623c0-19.944-16.056-36-36-36z" color="#000000" enable-background="accumulate" fill="#77971f"/>
  <path transform="translate(208,-228)" d="m480 303.91-90.67 26 44.184 154.09h10.486c19.944 0 36-16.056 36-36z" color="#000000" enable-background="accumulate" fill="#d5100d"/>
 </g>
 <path d="m315.86 288.29c-2e-4 15.386-5.0672 27.184-15.201 35.395-10.06 8.2108-24.928 12.316-44.605 12.316-13.611 0-25.446-2.2561-35.506-6.7684-9.9862-4.5122-18.123-11.798-24.41-21.858l24.078-18.419c3.5506 5.0301 6.9163 8.8026 10.097 11.318 3.1807 2.5151 6.9533 4.4753 11.318 5.8807 4.3643 1.4055 9.3943 2.1083 15.09 2.1082 8.5066 1e-4 15.127-1.4424 19.861-4.3273 4.808-2.9588 7.2121-7.4341 7.2122-13.426-1e-4 -3.4026-0.851-6.2505-2.552-8.5437-1.6275-2.293-4.1055-4.2533-7.4341-5.8807-3.3288-1.7013-9.0986-3.6245-17.309-5.7698-7.989-2.1451-15.534-4.2902-22.635-6.4355-7.0273-2.219-13.13-5.0669-18.308-8.5437-5.104-3.4765-9.1354-7.8408-12.094-13.093-2.9588-5.2519-4.4383-11.872-4.4383-19.861 0-14.572 4.9191-25.927 14.757-34.064 9.8382-8.2107 23.93-12.316 42.275-12.316 26.556 1e-4 45.344 9.0986 56.366 27.295l-23.856 18.641c-4.2164-6.5094-8.9506-11.17-14.202-13.981-5.252-2.8108-11.503-4.2162-18.752-4.2164-7.2492 2e-4 -13.167 1.3316-17.753 3.9945-4.5123 2.5891-6.7684 6.6945-6.7684 12.316 0 4.9562 2.367 8.7657 7.1013 11.429 4.7341 2.5891 12.982 5.2151 24.743 7.8779 6.5094 1.7015 12.945 3.5507 19.306 5.5479 6.3614 1.9233 12.02 4.6233 16.976 8.0998 5.0299 3.4768 9.0614 8.026 12.094 13.648 3.0327 5.6219 4.5491 12.834 4.5493 21.637" enable-background="new" fill="#5a3856"/>
 <path d="m68 32c-19.944 0-36 16.056-36 36v2c0-19.944 16.056-36 36-36h376c19.944 0 36 16.056 36 36v-2c0-19.944-16.056-36-36-36z" fill="#fff" opacity=".2"/>
</svg>
