<svg width="512" height="512" enable-background="new" version="1.0" xmlns="http://www.w3.org/2000/svg" xmlns:osb="http://www.openswatchbook.org/uri/2009/osb" xmlns:xlink="http://www.w3.org/1999/xlink">
 <defs>
  <filter id="a" x="-.024" y="-.024" width="1.048" height="1.048" color-interpolation-filters="sRGB">
   <feGaussianBlur stdDeviation="4.48"/>
  </filter>
 </defs>
 <g transform="translate(0,212)">
  <g>
   <g transform="translate(-208,16)">
    <rect transform="matrix(0,-1,-1,0,0,0)" x="-256" y="-688" width="448" height="448" rx="24" ry="24" filter="url(#a)" opacity=".1" stroke="#000" stroke-width="8"/>
    <rect transform="matrix(0,-1,-1,0,0,0)" x="-256" y="-688" width="448" height="448" rx="24" ry="24" filter="url(#a)" opacity=".2"/>
    <rect transform="matrix(0,-1,-1,0,0,0)" x="-252" y="-688" width="448" height="448" rx="24" ry="24" fill="#4101af"/>
    <path d="m264-196c-13.296 0-24 10.704-24 24v2c0-13.296 10.704-24 24-24h400c13.296 0 24 10.704 24 24v-2c0-13.296-10.704-24-24-24z" fill="#fff" opacity=".1"/>
    <path d="m664 252c13.296 0 24-10.704 24-24v-2c0 13.296-10.704 24-24 24h-400c-13.296 0-24-10.704-24-24v2c0 13.296 10.704 24 24 24z" opacity=".2"/>
    <path d="m304-5.1322c8.0062 12.064 20.841 35.039 25.205 42.583l-0.59059 31.451s2.8129-0.47046 4.6947-0.47046c2.0856 0 4.6847 0.47046 4.6847 0.47046l-0.5906-31.451c8.1439-14.288 21.583-37.595 25.275-42.583-3.5187 0.7982-6.6891 0.82472-9.8398 0-2.7766 5.1718-13.022 21.906-19.54 32.623-6.6105-10.948-14.431-23.587-19.53-32.623-4.0424 0.86214-5.7356 0.91702-9.7698 0zm314.88 0.77078c-2.345 0-4.6647 1.3788-4.6647 4.8949-1.391 17.642-2.8435 35.327-5.2252 52.162h0.01c1.4313-0.24682 2.5451 0.1168 3.6236 0.55054h0.01c2.7046-17.095 9.1267-42.692 10.771-49.94 0.23586-1.0187 0.5906-2.2271 0.5906-3.0831 0-2.5864-1.64-4.0942-4.0941-4.5045 0 0-0.61003-0.08-1.021-0.08zm-53.063 2.7227c-20.635 0-36.416 11.718-36.416 33.504 0 17.949 10.499 33.744 36.587 33.744 22.086 0 36.507-12.137 36.507-33.423 0-20.073-13.452-33.824-36.677-33.824zm-71.542 3.5335c-20.721 0-31.592 13.139-31.592 30.17 0 18.641 11.868 30.01 31.562 30.01 21.291 0 31.692-12.818 31.692-29.82 0-18.957-12.421-30.36-31.662-30.36zm71.562 0.1102c15.496 0 26.907 9.4182 26.907 30.18 0 22.569-13.798 29.89-26.877 29.89-13.973 0-26.707-8.2062-26.707-30.34 0-22.942 14.108-29.73 26.677-29.73zm-192.22 0.65066c-7.8662 19.739-16.925 42.015-25.075 58.629l0.03-0.01c3.7275-0.92526 7.2774-0.6365 9.6296 0 2.0775-5.2499 4.4502-11.204 6.8168-17.187l0.01 0.01c8.0089-0.22834 16.015-0.25952 24.024 0 2.2776 5.7283 4.5595 11.46 6.7868 17.197 3.5649-0.93074 7.1169-0.67972 9.7397-0.0206-5.8732-10.966-17.665-39.653-25.155-58.609l-0.05 0.0206 0.05-0.03c-2.4351 0.85052-4.4147 0.8014-6.8068 0zm35.475 0.03c0.85059 19.569 0.77653 39.095 0 58.599 3.1721-0.76442 6.4248-0.79824 9.7597 0h0.01c-0.48119-9.0931-0.73965-18.179-0.77079-27.257h0.01c10.924-0.1526 21.849-0.1568 32.773-0.01-0.031 9.0815-0.28942 18.171-0.77078 27.267l0.03-0.01c3.3276-0.79306 6.5743-0.75278 9.7398 0.01-0.77659-19.504-0.85065-39.03 0-58.599-3.3142 0.79368-6.5707 0.77184-9.7698 0 0.4735 9.1109 0.72682 18.221 0.76076 27.347-10.932 0.25442-21.854 0.27498-32.763 0 0.034-9.126 0.2873-18.236 0.76075-27.347-3.1991 0.77184-6.4556 0.79368-9.7698 0zm84.685 2.7628c0.1804-4e-3 0.35956 0 0.54056 0 12.671 0 21.972 8.6219 21.972 26.657 0 18.012-9.293 26.647-21.952 26.647-13.812 0-21.922-9.9021-21.922-26.597 0-18.881 10.001-26.474 21.361-26.707zm-116.77 7.3273c3.238 9.0256 6.8125 18.117 10.43 27.237l-0.03-0.01c-6.9268 0.24-13.854 0.2435-20.781 0 4.2356-10.743 8.2567-21.116 10.38-27.227zm231.68 46.997c-3.0727 0-4.6046 2.3443-4.6046 4.8649 0 2.9717 2.3706 4.4945 5.3053 4.4945 2.1225 0 4.4444-1.2844 4.4444-4.7848 0-2.8095-2.2041-4.5746-5.1452-4.5746z" enable-background="new" fill="#fff"/>
   </g>
  </g>
 </g>
</svg>
