<svg xmlns="http://www.w3.org/2000/svg" width="512" height="512" enable-background="new" version="1.0"><defs><filter id="a" width="1.048" height="1.048" x="-.024" y="-.024" color-interpolation-filters="sRGB"><feGaussianBlur stdDeviation="4.48"/></filter></defs><g transform="translate(-208 228)"><g transform="scale(1 -1)rotate(90)"><rect width="448" height="448" x="-256" y="-688" enable-background="new" filter="url(#a)" opacity=".2" rx="36" ry="36"/><rect width="448" height="448" x="-254" y="-688" enable-background="new" opacity=".2" rx="36" ry="36"/><rect width="448" height="448" x="-256" y="-688" stroke="#000" stroke-width="8" enable-background="new" filter="url(#a)" opacity=".1" rx="36" ry="36"/></g><rect width="448" height="448" x="-252" y="-688" fill="#20c05c" enable-background="new" rx="36" ry="36" transform="scale(1 -1)rotate(90)"/><path fill="#fff" d="M276-196c-19.944 0-36 16.056-36 36v2c0-19.944 16.056-36 36-36h376c19.944 0 36 16.056 36 36v-2c0-19.944-16.056-36-36-36zM529.55 25.363a64 64 0 0 0-12.362.745c1.092-8.816 4.73-19.634 17.621-19.18 14.269.49 16.269 13.977 16.32 23.112-6.017-2.682-13.466-4.392-21.578-4.677zm61.017-95.686c-2.385-12.771-9.978-19.064-16.842-21.538-7.405-2.676-22.423-5.45-41.292-7.673-15.18-1.788-33.021-1.646-43.799-1.313-1.293-8.86-7.507-16.953-14.461-19.755-18.525-7.456-47.149-5.654-54.498-3.595-5.84 1.633-12.303 4.978-15.901 10.132-2.413 3.442-3.973 7.854-3.986 14.015 0 3.488.098 11.704.186 19.003.089 7.322.184 13.87.184 13.915-.003 6.52-5.286 11.825-11.835 11.834h-30.036c-6.407 0-11.303 1.076-15.042 2.775-3.745 1.7-6.397 3.994-8.413 6.705-4.012 5.386-4.708 12.032-4.691 18.814 0 0 .059 5.542 1.394 16.27 1.11 8.3 10.11 66.283 18.66 83.917 3.316 6.862 5.524 9.72 12.037 12.742 14.51 6.213 47.654 13.124 63.189 15.103 15.506 1.984 25.238 6.155 31.037-6.005.02-.03 1.162-3.026 2.733-7.42 5.036-15.259 5.737-28.796 5.737-38.593 0-.997 1.461-1.042 1.461 0 0 6.917-1.32 31.393 17.17 37.96 7.298 2.589 22.44 4.896 37.824 6.7 13.912 1.599 24.007 7.073 24.007 42.763 0 21.714-4.56 24.691-28.402 24.691-19.328 0-26.694.5-26.694-14.854 0-12.41 12.273-11.109 21.37-11.109 4.063 0 1.115-3.022 1.115-10.678 0-7.616 4.762-12.019.257-12.13-31.454-.867-49.963-.037-49.963 39.302 0 35.713 13.667 42.345 58.31 42.345 35.005 0 47.343-1.146 61.796-45.99 2.861-8.854 9.777-35.87 13.964-81.233 2.645-28.682-2.496-115.25-6.575-137.1zm-233.69 6.301h30.052a3.115 3.115 0 0 0 3.108-3.109c0-.011-.364-25.751-.364-32.909v-.085c0-5.879 1.233-11.004 3.383-15.299l1.027-1.928a.63.63 0 0 0-.345.19l-58.352 57.865a.66.66 0 0 0-.218.34 235 235 0 0 1 3.09-1.515c5.082-2.293 11.244-3.55 18.62-3.55" enable-background="new" opacity=".2"/><path fill="#333" d="M529.55 23.363a64 64 0 0 0-12.362.745c1.092-8.816 4.73-19.634 17.621-19.18 14.269.49 16.269 13.977 16.32 23.112-6.017-2.682-13.466-4.392-21.578-4.677zm61.017-95.686c-2.385-12.771-9.978-19.064-16.842-21.538-7.405-2.676-22.423-5.45-41.292-7.673-15.18-1.788-33.021-1.646-43.799-1.313-1.293-8.86-7.507-16.953-14.461-19.755-18.525-7.456-47.149-5.654-54.498-3.595-5.84 1.633-12.303 4.978-15.901 10.132-2.413 3.442-3.973 7.854-3.986 14.015 0 3.488.098 11.704.186 19.003.089 7.322.184 13.87.184 13.915-.003 6.52-5.286 11.825-11.835 11.834h-30.036c-6.407 0-11.303 1.076-15.042 2.775-3.745 1.7-6.397 3.994-8.413 6.705-4.012 5.386-4.708 12.032-4.691 18.814 0 0 .059 5.542 1.394 16.27 1.11 8.3 10.11 66.283 18.66 83.917 3.316 6.862 5.524 9.72 12.037 12.742 14.51 6.213 47.654 13.124 63.189 15.103 15.506 1.984 25.238 6.155 31.037-6.005.02-.03 1.162-3.026 2.733-7.42 5.036-15.259 5.737-28.796 5.737-38.593 0-.997 1.461-1.042 1.461 0 0 6.917-1.32 31.393 17.17 37.96 7.298 2.589 22.44 4.896 37.824 6.7 13.912 1.599 24.007 7.073 24.007 42.763 0 21.714-4.56 24.691-28.402 24.691-19.328 0-26.694.5-26.694-14.854 0-12.41 12.273-11.109 21.37-11.109 4.063 0 1.115-3.022 1.115-10.678 0-7.616 4.762-12.019.257-12.13-31.454-.867-49.963-.037-49.963 39.302 0 35.713 13.667 42.345 58.31 42.345 35.005 0 47.343-1.146 61.796-45.99 2.861-8.854 9.777-35.87 13.964-81.233 2.645-28.682-2.496-115.25-6.575-137.1zm-233.69 6.301h30.052a3.115 3.115 0 0 0 3.108-3.109c0-.011-.364-25.751-.364-32.909v-.085c0-5.879 1.233-11.004 3.383-15.299l1.027-1.928a.63.63 0 0 0-.345.19l-58.352 57.865a.66.66 0 0 0-.218.34 235 235 0 0 1 3.09-1.515c5.082-2.293 11.244-3.55 18.62-3.55" enable-background="new"/></g></svg>