<svg width="512" height="512" enable-background="new" version="1.0" xmlns="http://www.w3.org/2000/svg" xmlns:osb="http://www.openswatchbook.org/uri/2009/osb" xmlns:xlink="http://www.w3.org/1999/xlink">
 <defs>
  <filter id="a" x="-.024" y="-.024" width="1.048" height="1.048" color-interpolation-filters="sRGB">
   <feGaussianBlur stdDeviation="4.8"/>
  </filter>
 </defs>
 <g transform="translate(0,212)">
  <g>
   <g transform="translate(-208,16)">
    <g>
     <circle cx="464" cy="30" r="240" opacity=".2"/>
     <circle cx="464" cy="32" r="240" filter="url(#a)" opacity=".1"/>
     <circle cx="464" cy="32" r="240" filter="url(#a)" opacity=".2"/>
    </g>
    <circle cx="464" cy="28" r="240" fill="#ff4500"/>
    <path transform="translate(0,-244)" d="m 464,32 a 240,240 0 0 0 -240,240 240,240 0 0 0 0.041,1.17188 A 240,240 0 0 1 464,34 240,240 0 0 1 703.95898,272.82812 240,240 0 0 0 704,272 240,240 0 0 0 464,32 Z" fill="#fff" opacity=".2"/>
    <path d="m488.54-105.62a8.321 8.321 0 0 0-0.845 0.0326 8.321 8.321 0 0 0-7.3452 5.785l-23.108 73.061-1.6251 5.1675a142.38 92.922 0 0 0-96.136 29.251 31.435 31.435 0 0 0-24.05-11.245 31.435 31.435 0 0 0-31.428 31.428 31.435 31.435 0 0 0 18.85 28.795 142.38 92.922 0 0 0-1.9176 14.43 142.38 92.922 0 0 0 142.38 92.919 142.38 92.922 0 0 0 142.38-92.919 142.38 92.922 0 0 0-1.7224-13.943 31.435 31.435 0 0 0 20.02-29.283 31.435 31.435 0 0 0-31.428-31.428 31.435 31.435 0 0 0-24.538 11.83 142.38 92.922 0 0 0-94.999-29.738l0.0651-0.25992 20.8-65.684 55.348 13.033 3.0874 0.71487a24.781 24.781 0 0 0 24.473 21.06 24.781 24.781 0 0 0 24.765-24.798 24.781 24.781 0 0 0-24.765-24.765 24.781 24.781 0 0 0-21.32 12.155l-2.4376-0.55246-62.856-14.82a8.321 8.321 0 0 0-1.6575-0.22748zm-74.556 135.4c12.646 0 22.913 10.591 22.913 23.238 0 12.647-10.266 22.913-22.913 22.913-12.646 0-23.238-10.266-23.238-22.913 0-12.646 10.591-23.238 23.238-23.238zm100.36 0c12.653 0 22.913 10.585 22.913 23.238 0 12.653-10.26 22.913-22.913 22.913-12.653 0-23.27-10.26-23.27-22.913 0-12.653 10.617-23.238 23.27-23.238zm-99.614 77.611a6.3994 6.3994 0 0 1 4.6152 1.9501c10.258 10.259 28.484 12.903 44.461 12.903a6.4026 6.4026 0 0 1 0.2601 0 6.4026 6.4026 0 0 1 0.0975 0c15.989 0 34.22-2.6395 44.493-12.903a6.3994 6.3994 0 0 1 4.4202-1.9175 6.3994 6.3994 0 0 1 4.6476 10.985c-14.554 14.541-36.346 16.64-53.561 16.64a6.4026 6.4026 0 0 1-0.26009 0 6.4026 6.4026 0 0 1-0.0975 0c-17.203 0-38.983-2.0947-53.528-16.64a6.3994 6.3994 0 0 1 4.4526-11.018z" fill="#fff"/>
   </g>
  </g>
 </g>
</svg>
