<svg width="512" height="512" enable-background="new" version="1.0" xmlns="http://www.w3.org/2000/svg" xmlns:osb="http://www.openswatchbook.org/uri/2009/osb" xmlns:xlink="http://www.w3.org/1999/xlink">
 <defs>
  <filter id="a" x="-.024" y="-.024" width="1.048" height="1.048" color-interpolation-filters="sRGB">
   <feGaussianBlur stdDeviation="4.48"/>
  </filter>
 </defs>
 <g transform="translate(0,212)">
  <g></g>
  <g transform="translate(-208,16)">
   <g>
    <rect transform="matrix(0,-1,-1,0,0,0)" x="-256" y="-688" width="448" height="448" rx="36" ry="36" enable-background="new" filter="url(#a)" opacity=".2"/>
    <rect transform="matrix(0,-1,-1,0,0,0)" x="-254" y="-688" width="448" height="448" rx="36" ry="36" enable-background="new" opacity=".2"/>
    <rect transform="matrix(0,-1,-1,0,0,0)" x="-256" y="-688" width="448" height="448" rx="36" ry="36" enable-background="new" filter="url(#a)" opacity=".1" stroke="#000" stroke-width="8"/>
   </g>
   <rect transform="matrix(0,-1,-1,0,0,0)" x="-252" y="-688" width="448" height="448" rx="36" ry="36" enable-background="new" fill="#20c05c"/>
   <path transform="translate(0,-244)" d="m276 48c-19.944 0-36 16.056-36 36v2c0-19.944 16.056-36 36-36h376c19.944 0 36 16.056 36 36v-2c0-19.944-16.056-36-36-36z" enable-background="new" fill="#fff" opacity=".2"/>
   <path d="m529.55 25.363c-4.3243-0.15133-8.4832 0.12142-12.362 0.74521 1.0919-8.8158 4.7308-19.634 17.621-19.181 14.269 0.49094 16.269 13.978 16.32 23.113-6.0171-2.6826-13.466-4.3921-21.578-4.6771zm61.017-95.686c-2.3852-12.771-9.978-19.064-16.842-21.538-7.4054-2.6764-22.423-5.4496-41.292-7.6729-15.18-1.7878-33.021-1.6462-43.799-1.3127-1.2933-8.8598-7.5075-16.953-14.461-19.755-18.525-7.4565-47.149-5.6546-54.498-3.5949-5.84 1.6321-12.303 4.9771-15.901 10.131-2.4126 3.4427-3.9733 7.8541-3.9857 14.016 0 3.4876 0.0973 11.703 0.18591 19.002 0.0883 7.3227 0.18423 13.871 0.18423 13.916-3e-3 6.5186-5.2868 11.824-11.835 11.833h-30.036c-6.4072 0-11.303 1.0769-15.042 2.7758-3.7454 1.6998-6.3979 3.9935-8.4133 6.7051-4.0118 5.3854-4.7084 12.032-4.6916 18.814 0 0 0.0591 5.542 1.3943 16.269 1.1101 8.3002 10.111 66.284 18.661 83.918 3.3152 6.8617 5.523 9.7194 12.036 12.742 14.51 6.2124 47.654 13.124 63.189 15.103 15.506 1.984 25.238 6.1547 31.037-6.0056 0.0194-0.0299 1.1622-3.0257 2.7336-7.4195 5.0352-15.259 5.7364-28.796 5.7364-38.593 0-0.99684 1.4614-1.0426 1.4614 0 0 6.9162-1.3206 31.393 17.169 37.959 7.299 2.5893 22.44 4.8971 37.825 6.6998 13.912 1.5995 24.007 7.0738 24.007 42.764 0 21.714-4.5601 24.691-28.402 24.691-19.328 0-26.694 0.50035-26.694-14.854 0-12.41 12.273-11.109 21.37-11.109 4.063 0 1.1147-3.0226 1.1147-10.678 0-7.6162 4.7625-12.019 0.25691-12.131-31.454-0.86575-49.963-0.0361-49.963 39.303 0 35.713 13.667 42.345 58.311 42.345 35.004 0 47.342-1.1462 61.795-45.991 2.8612-8.8528 9.7774-35.87 13.964-81.232 2.6456-28.682-2.496-115.25-6.5749-137.1zm-233.69 6.3013h0.0196 30.032c1.7208 0 3.1048-1.4016 3.1086-3.1093 0-0.0114-0.36424-25.751-0.36424-32.909v-0.0845c0-5.879 1.2331-11.004 3.3828-15.299l1.0269-1.9286c-0.11481 0.0194-0.22998 0.0757-0.34436 0.19004l-58.352 57.865c-0.11444 0.0941-0.18558 0.21644-0.21858 0.34049 1.207-0.5974 2.8574-1.4139 3.0904-1.5159 5.0817-2.2928 11.244-3.5492 18.62-3.5492" enable-background="new" fill="#fff" opacity=".2"/>
   <path d="m529.55 23.363c-4.3243-0.15133-8.4832 0.12142-12.362 0.74521 1.0919-8.8158 4.7308-19.634 17.621-19.181 14.269 0.49094 16.269 13.978 16.32 23.113-6.0171-2.6826-13.466-4.3921-21.578-4.6771zm61.017-95.686c-2.3852-12.771-9.978-19.064-16.842-21.538-7.4054-2.6764-22.423-5.4496-41.292-7.6729-15.18-1.7878-33.021-1.6462-43.799-1.3127-1.2933-8.8598-7.5075-16.953-14.461-19.755-18.525-7.4565-47.149-5.6546-54.498-3.5949-5.84 1.6321-12.303 4.9771-15.901 10.131-2.4126 3.4427-3.9733 7.8541-3.9857 14.016 0 3.4876 0.0973 11.703 0.18591 19.002 0.0883 7.3227 0.18423 13.871 0.18423 13.916-3e-3 6.5186-5.2868 11.824-11.835 11.833h-30.036c-6.4072 0-11.303 1.0769-15.042 2.7758-3.7454 1.6998-6.3979 3.9935-8.4133 6.7051-4.0118 5.3854-4.7084 12.032-4.6916 18.814 0 0 0.0591 5.542 1.3943 16.269 1.1101 8.3002 10.111 66.284 18.661 83.918 3.3152 6.8617 5.523 9.7194 12.036 12.742 14.51 6.2124 47.654 13.124 63.189 15.103 15.506 1.984 25.238 6.1547 31.037-6.0056 0.0194-0.0299 1.1622-3.0257 2.7336-7.4195 5.0352-15.259 5.7364-28.796 5.7364-38.593 0-0.99684 1.4614-1.0426 1.4614 0 0 6.9162-1.3206 31.393 17.169 37.959 7.299 2.5893 22.44 4.8971 37.825 6.6998 13.912 1.5995 24.007 7.0738 24.007 42.764 0 21.714-4.5601 24.691-28.402 24.691-19.328 0-26.694 0.50035-26.694-14.854 0-12.41 12.273-11.109 21.37-11.109 4.063 0 1.1147-3.0226 1.1147-10.678 0-7.6162 4.7625-12.019 0.25691-12.131-31.454-0.86575-49.963-0.0361-49.963 39.303 0 35.713 13.667 42.345 58.311 42.345 35.004 0 47.342-1.1462 61.795-45.991 2.8612-8.8528 9.7774-35.87 13.964-81.232 2.6456-28.682-2.496-115.25-6.5749-137.1zm-233.69 6.3013h0.0196 30.032c1.7208 0 3.1048-1.4016 3.1086-3.1093 0-0.0114-0.36424-25.751-0.36424-32.909v-0.0845c0-5.879 1.2331-11.004 3.3828-15.299l1.0269-1.9286c-0.11481 0.0194-0.22998 0.0757-0.34436 0.19004l-58.352 57.865c-0.11444 0.0941-0.18558 0.21644-0.21858 0.34049 1.207-0.5974 2.8574-1.4139 3.0904-1.5159 5.0817-2.2928 11.244-3.5492 18.62-3.5492" enable-background="new" fill="#333"/>
  </g>
 </g>
</svg>
