<svg xmlns="http://www.w3.org/2000/svg" width="512" height="512" enable-background="new" version="1.0"><defs><filter id="a" width="1.045" height="1.052" x="-.022" y="-.026" color-interpolation-filters="sRGB"><feGaussianBlur stdDeviation="4.136"/></filter></defs><path d="m387.91-160 .004.022-116.39 201.58-29.176 50.55 75.9 131.85.049-.085-.022.085h291.12l76.246-131.7-145.56-252.12-152.16-.181h-.017zm75.773 131.24 35.131 60.848 34.656 60.027.11.025-139.02-.144 29.136-50.4 35.217-60.857 5.08-8.742-.064-.114-.25-.642z" filter="url(#a)" opacity=".1" transform="translate(-208 228)"/><path d="m387.91-160 .004.022-116.39 201.58-29.176 50.55 75.9 131.85.049-.085-.022.085h291.12l76.246-131.7-145.56-252.12-152.16-.181h-.017zm75.773 131.24 35.131 60.848 34.656 60.027.11.025-139.02-.144 29.136-50.4 35.217-60.857 5.08-8.742-.064-.114-.25-.642z" filter="url(#a)" opacity=".2" transform="translate(-208 228)"/><path d="m179.91 66 .004.022-116.39 201.58-29.176 50.55 75.9 131.85.049-.085-.022.085h291.12l76.246-131.7-145.56-252.12-152.16-.181h-.017zm75.773 131.24 35.131 60.848 34.656 60.027.11.025-139.02-.144 29.136-50.4 35.217-60.857 5.08-8.742-.064-.114-.25-.642z" opacity=".2"/><path fill="#0ca55f" d="m179.928 64-116.4 201.6h152.174l40.275-69.6-28.8-74.4z"/><path fill="#fdd04b" d="m179.904 64 152.177.182 145.562 252.12-77.65 16.499-74.527-16.681z"/><path fill="#4186fb" d="m110.28 448 22.323-86.4 53.942-45.6 291.096.302-76.246 131.697z"/><path d="m110.28 448 76.265-132 69.297.302zM477.646 316.312l-152.177-.182L290.81 256.1zM179.904 64l76.09 132-34.815 59.909z" opacity=".1"/><path fill="#0ca55f" d="m63.528 265.6-29.174 50.549L110.254 448l105.45-182.4-63.9-38.4z"/><path fill="#fff" d="m179.91 64 .004.021-116.39 201.58-29.176 50.551.576 1.002 28.6-49.553 116.39-201.58-.004-.021h.018l152.16.182 144.98 251.12.578-.998-145.56-252.12-152.16-.182zm7.81 252-1.156 1.998 139.02.145-.11-.026-1.14-1.976z" opacity=".2"/></svg>