<svg width="512" height="512" enable-background="new" version="1.0" xmlns="http://www.w3.org/2000/svg" xmlns:osb="http://www.openswatchbook.org/uri/2009/osb" xmlns:xlink="http://www.w3.org/1999/xlink">
 <defs>
  <filter id="a" x="-.024" y="-.024" width="1.048" height="1.048" color-interpolation-filters="sRGB">
   <feGaussianBlur stdDeviation="4.48"/>
  </filter>
  <clipPath id="b">
   <path d="m81.455 87c-9.6655 0-17.455 7.889-17.455 17.684 0 72.554 13.1 122.05 80 122.31 66.9 0.26579 80-49.699 80-122.31-1e-5 -9.7951-7.789-17.684-17.455-17.684zm99.372 39.823c2.7453 0 5.4955 1.0797 7.6033 3.2153 4.2157 4.2711 4.2157 11.202 0 15.474l-36 36.473c-2.3152 2.3456-5.4152 3.312-8.4298 3.0813-3.0146 0.23069-6.1146-0.73571-8.4298-3.0813l-36-36.473c-4.2157-4.2711-4.2157-11.202 0-15.474 2.1078-2.1356 4.8855-3.1818 7.6363-3.1818 2.7509 0 5.4624 1.0462 7.5702 3.1818l29.223 29.607 29.223-29.607c2.1078-2.1356 4.858-3.2153 7.6033-3.2153z" color="#000000" enable-background="accumulate" fill="url(#linearGradient4603)"/>
  </clipPath>
 </defs>
 <g transform="translate(0,212)">
  <g>
   <g transform="translate(-208,16)">
    <g>
     <rect transform="matrix(0,-1,-1,0,0,0)" x="-254" y="-688" width="448" height="448" rx="36" ry="36" opacity=".2"/>
     <rect transform="matrix(0,-1,-1,0,0,0)" x="-256" y="-688" width="448" height="448" rx="36" ry="36" filter="url(#a)" opacity=".1"/>
     <rect transform="matrix(0,-1,-1,0,0,0)" x="-256" y="-688" width="448" height="448" rx="36" ry="36" filter="url(#a)" opacity=".2"/>
    </g>
    <rect transform="matrix(0,-1,-1,0,0,0)" x="-252" y="-688" width="448" height="448" rx="36" ry="36" fill="#ee4056"/>
    <path transform="translate(0,-244)" d="m276 48c-19.944 0-36 16.056-36 36v2c0-19.944 16.056-36 36-36h376c19.944 0 36 16.056 36 36v-2c0-19.944-16.056-36-36-36z" fill="#fff" opacity=".2"/>
    <g transform="matrix(1.8286 0 0 1.8286 200.69 -259.09)" enable-background="new" fill="#fff">
     <path d="m81.455 87c-9.6655 0-17.455 7.889-17.455 17.684 0 72.554 13.1 122.05 80 122.31 66.9 0.26579 80-49.699 80-122.31-1e-5 -9.7951-7.789-17.684-17.455-17.684zm99.372 39.823c2.7453 0 5.4955 1.0797 7.6033 3.2153 4.2157 4.2711 4.2157 11.202 0 15.474l-36 36.473c-2.3152 2.3456-5.4152 3.312-8.4298 3.0813-3.0146 0.23069-6.1146-0.73571-8.4298-3.0813l-36-36.473c-4.2157-4.2711-4.2157-11.202 0-15.474 2.1078-2.1356 4.8855-3.1818 7.6363-3.1818 2.7509 0 5.4624 1.0462 7.5702 3.1818l29.223 29.607 29.223-29.607c2.1078-2.1356 4.858-3.2153 7.6033-3.2153z" color="#000000" enable-background="accumulate" fill="#fff"/>
     <path transform="translate(0 -1.651e-6)" d="m81.455 87c-9.6655 0-17.455 7.889-17.455 17.684 0 72.554 13.1 122.05 80 122.31 66.9 0.26579 80-49.699 80-122.31-1e-5 -9.7951-7.789-17.684-17.455-17.684zm99.372 39.823c2.7453 0 5.4955 1.0797 7.6033 3.2153 4.2157 4.2711 4.2157 11.202 0 15.474l-36 36.473c-2.3152 2.3456-5.4152 3.312-8.4298 3.0813-3.0146 0.23069-6.1146-0.73571-8.4298-3.0813l-36-36.473c-4.2157-4.2711-4.2157-11.202 0-15.474 2.1078-2.1356 4.8855-3.1818 7.6363-3.1818 2.7509 0 5.4624 1.0462 7.5702 3.1818l29.223 29.607 29.223-29.607c2.1078-2.1356 4.858-3.2153 7.6033-3.2153z" clip-path="url(#b)" color="#000000" enable-background="accumulate" opacity="0" stroke-width="2.4615"/>
     <path transform="translate(0 -1.651e-6)" d="m81.455 87c-9.6655 0-17.455 7.889-17.455 17.684 0 72.554 13.1 122.05 80 122.31 66.9 0.26579 80-49.699 80-122.31-1e-5 -9.7951-7.789-17.684-17.455-17.684zm99.372 39.823c2.7453 0 5.4955 1.0797 7.6033 3.2153 4.2157 4.2711 4.2157 11.202 0 15.474l-36 36.473c-2.3152 2.3456-5.4152 3.312-8.4298 3.0813-3.0146 0.23069-6.1146-0.73571-8.4298-3.0813l-36-36.473c-4.2157-4.2711-4.2157-11.202 0-15.474 2.1078-2.1356 4.8855-3.1818 7.6363-3.1818 2.7509 0 5.4624 1.0462 7.5702 3.1818l29.223 29.607 29.223-29.607c2.1078-2.1356 4.858-3.2153 7.6033-3.2153z" clip-path="url(#b)" color="#000000" enable-background="accumulate" opacity="0" stroke-width="1.2308"/>
    </g>
   </g>
  </g>
 </g>
</svg>
