<svg width="512" height="512" enable-background="new" version="1.0" xmlns="http://www.w3.org/2000/svg" xmlns:osb="http://www.openswatchbook.org/uri/2009/osb" xmlns:xlink="http://www.w3.org/1999/xlink">
 <defs>
  <filter id="a" x="-.024" y="-.024" width="1.048" height="1.048" color-interpolation-filters="sRGB">
   <feGaussianBlur stdDeviation="4.48"/>
  </filter>
 </defs>
 <g transform="translate(0,212)">
  <g>
   <g transform="translate(-208,16)">
    <rect transform="matrix(0,-1,-1,0,0,0)" x="-256" y="-688" width="448" height="448" rx="24" ry="24" filter="url(#a)" opacity=".1" stroke="#000" stroke-width="8"/>
    <rect transform="matrix(0,-1,-1,0,0,0)" x="-256" y="-688" width="448" height="448" rx="24" ry="24" filter="url(#a)" opacity=".2"/>
    <rect transform="matrix(0,-1,-1,0,0,0)" x="-252" y="-688" width="448" height="448" rx="24" ry="24" fill="#1c2c45"/>
    <path d="m264-196c-13.296 0-24 10.704-24 24v2c0-13.296 10.704-24 24-24h400c13.296 0 24 10.704 24 24v-2c0-13.296-10.704-24-24-24z" fill="#fff" opacity=".1"/>
    <path d="m664 252c13.296 0 24-10.704 24-24v-2c0 13.296-10.704 24-24 24h-400c-13.296 0-24-10.704-24-24v2c0 13.296 10.704 24 24 24z" opacity=".2"/>
    <path d="m448.89-58.5c-23.818 0-43.06 19.243-43.06 43.06 0 9.8181 3.269 18.854 8.7808 26.09 11.957-13.839 29.605-22.628 49.308-22.628 9.6401 0 18.781 2.1468 27.018 5.9103 0.66675-3.016 1.0129-6.1527 1.0129-9.3723 0-23.817-19.243-43.06-43.061-43.06zm-56.232 19.926c-12.403 0-22.375 10.055-22.375 22.459 0 4.0159 1.035 7.8105 2.8709 11.061 7.4849-4.2224 16.138-6.6702 25.329-6.6702 0.88673 0 1.7417 0.02907 2.6176 0.08722-0.0979-1.2576-0.16959-2.5167-0.16959-3.7994 0-6.9085 1.5006-13.482 4.1373-19.419-3.5502-2.3807-7.8035-3.7152-12.412-3.7152zm106.22 15.451c-0.91677 0-1.7996 0.11145-2.7018 0.16766 0.38861 2.4606 0.67449 4.9451 0.67449 7.5144 0 3.9986-0.50878 7.8568-1.4357 11.567 10.866 6.0137 19.89 15.012 25.836 25.921 6.1669-3.2107 13.047-5.252 20.348-5.7413-1.8818-22.069-20.165-39.43-42.723-39.43zm-34.955 16.042c-33.328 0-60.284 26.954-60.284 60.284 0 33.327 26.955 60.285 60.284 60.285 33.33 0 60.285-26.958 60.285-60.285 0-33.33-26.956-60.284-60.285-60.284zm-65.435 0.25294c-25.856 0-46.775 20.919-46.775 46.776 0 15.221 7.2523 28.696 18.491 37.234 4.7377-9.138 14.254-15.367 25.245-15.367 1.3286 0 2.6034 0.16184 3.8836 0.33822-0.40121-2.9243-0.59018-5.9159-0.59018-8.95 0-14.506 4.7217-27.92 12.749-38.754-4.805-6.0127-8.2439-13.237-9.7096-21.108-1.0868-0.06784-2.1875-0.16766-3.2929-0.16766zm146.57 27.863c-7.8514 0-15.206 2.0043-21.699 5.4036 3.687 8.1671 5.7412 17.229 5.7412 26.765 0 17.855-7.1788 34.068-18.828 45.847 8.5578 9.5013 20.975 15.451 34.786 15.451 25.856 0 46.775-20.919 46.775-46.775s-20.919-46.691-46.775-46.691zm-197.91 6.1639c-23.818 0-43.145 19.157-43.145 42.976 0 23.818 19.326 43.145 43.145 43.145 9.0658 0 17.464-2.8244 24.401-7.5988-2.8665-4.4544-4.5592-9.7799-4.5592-15.451 0-2.9437 0.43319-5.7713 1.2661-8.4432-12.987-9.3857-21.446-24.659-21.446-41.878 0-4.375 0.57856-8.6055 1.6044-12.665-0.4264-0.0096-0.83827-0.08722-1.2676-0.08722zm253.21 36.981c-1.2702 0-2.5002 0.14634-3.7152 0.33725 0.0581 1.0742 0.0872 2.1175 0.0872 3.2083 0 13.734-5.4188 26.199-14.184 35.462 4.3124 5.0147 10.647 8.1899 17.815 8.1899 13.057 0 23.641-10.499 23.641-23.557 0-13.057-10.584-23.641-23.641-23.641zm-204.92 2.533c-13.057 0-23.557 10.5-23.557 23.557 0 13.056 10.5 23.641 23.557 23.641 10.008 0 18.503-6.2447 21.952-15.029-8.4171-8.5732-14.467-19.51-17.14-31.662-1.5641-0.32271-3.1516-0.50684-4.8124-0.50684z" color="#000000" enable-background="accumulate" fill="#fff" style="text-decoration-line:none;text-indent:0;text-transform:none"/>
   </g>
  </g>
 </g>
</svg>
