<svg xmlns="http://www.w3.org/2000/svg" width="512" height="512" enable-background="new" version="1.0"><defs><filter id="a" width="1.048" height="1.048" x="-.024" y="-.024" color-interpolation-filters="sRGB"><feGaussianBlur stdDeviation="4.48"/></filter></defs><g transform="translate(-208 228)"><g transform="scale(1 -1)rotate(90)"><rect width="448" height="448" x="-254" y="-688" opacity=".2" rx="36" ry="36"/><rect width="448" height="448" x="-256" y="-688" filter="url(#a)" opacity=".1" rx="36" ry="36"/><rect width="448" height="448" x="-256" y="-688" filter="url(#a)" opacity=".2" rx="36" ry="36"/></g><rect width="448" height="448" x="-252" y="-688" fill="#3b5999" rx="36" ry="36" transform="scale(1 -1)rotate(90)"/><path fill="#fff" d="M276-196c-19.944 0-36 16.056-36 36v2c0-19.944 16.056-36 36-36h376c19.944 0 36 16.056 36 36v-2c0-19.944-16.056-36-36-36z" opacity=".2"/><path fill="#fff" d="M551.82-100c-29.661 1.094-71.797 9.998-71.797 79.982l-.013 48.031L435.997 28v63.987L480.01 92l-.014 159.97h63.987L543.997 92h49.989l9.997-63.987h-59.987l.014-48.031c.006-19.996 19.996-19.996 19.996-19.996h43.99v-59.987h-43.99c-3.75 0-7.948-.156-12.185 0z" color="#000" enable-background="accumulate" style="text-decoration-line:none;text-indent:0;text-transform:none"/></g></svg>