<svg width="512" height="512" enable-background="new" version="1.0" xmlns="http://www.w3.org/2000/svg" xmlns:osb="http://www.openswatchbook.org/uri/2009/osb" xmlns:xlink="http://www.w3.org/1999/xlink">
 <defs>
  <filter id="a" x="-.024" y="-.024" width="1.048" height="1.048" color-interpolation-filters="sRGB">
   <feGaussianBlur stdDeviation="4.48"/>
  </filter>
 </defs>
 <g transform="translate(0,212)">
  <g></g>
  <g transform="translate(-208,16)">
   <g>
    <rect transform="matrix(0,-1,-1,0,0,0)" x="-254" y="-688" width="448" height="448" rx="36" ry="36" enable-background="new" opacity=".2"/>
    <rect transform="matrix(0,-1,-1,0,0,0)" x="-256" y="-688" width="448" height="448" rx="36" ry="36" enable-background="new" filter="url(#a)" opacity=".1"/>
    <rect transform="matrix(0,-1,-1,0,0,0)" x="-256" y="-688" width="448" height="448" rx="36" ry="36" enable-background="new" filter="url(#a)" opacity=".2"/>
   </g>
   <rect transform="matrix(0,-1,-1,0,0,0)" x="-252" y="-688" width="448" height="448" rx="36" ry="36" enable-background="new" fill="#fa4778"/>
   <path transform="translate(0,-244)" d="m276 48c-19.944 0-36 16.056-36 36v2c0-19.944 16.056-36 36-36h376c19.944 0 36 16.056 36 36v-2c0-19.944-16.056-36-36-36z" enable-background="new" fill="#fff" opacity=".2"/>
   <path d="m384.01-116c-8.8362 8.8e-4 -15.999 7.1638-16 16v256c5e-3 14.961 18.71 21.732 28.291 10.242l75.203-90.242h56.506c7.6265-4.7e-4 14.193-5.3832 15.689-12.861l32-160c1.9794-9.9007-5.5928-19.138-15.689-19.139zm24 32h126s6.7118-1.1468 5.2524 6.1505l-7.394 36.971s-1.342 4.8783-6.3584 4.8783h-65.5c-12 0-12 12-12 12v8s0 12 12.304 11.774l60.196 0.22633c4.418-0.28532 3.1754 4.0351 3.1754 4.0351l-8.0189 40.096c0.34348-0.1313-0.31488 3.8687-3.6565 3.8687h-48c-4.7484 5.6e-4 -9.2512 2.11-12.291 5.7578l-51.709 62.051v-187.81s0-8 8-8z" color="#000000" color-rendering="auto" enable-background="accumulate" fill="#fff" fill-rule="evenodd" image-rendering="auto" shape-rendering="auto" solid-color="#000000" style="isolation:auto;mix-blend-mode:normal;text-decoration-color:#000000;text-decoration-line:none;text-decoration-style:solid;text-indent:0;text-transform:none;white-space:normal"/>
  </g>
 </g>
</svg>
