<svg xmlns="http://www.w3.org/2000/svg" width="512" height="512" enable-background="new" version="1.0"><defs><filter id="a" width="1.048" height="1.048" x="-.024" y="-.024" color-interpolation-filters="sRGB"><feGaussianBlur stdDeviation="4.48"/></filter></defs><g transform="translate(-208 228)"><rect width="448" height="448" x="-256" y="-688" stroke="#000" stroke-width="8" filter="url(#a)" opacity=".1" rx="24" ry="24" transform="scale(1 -1)rotate(90)"/><rect width="448" height="448" x="-256" y="-688" filter="url(#a)" opacity=".2" rx="24" ry="24" transform="scale(1 -1)rotate(90)"/><rect width="448" height="448" x="-252" y="-688" fill="#0061ff" rx="24" ry="24" transform="scale(1 -1)rotate(90)"/><path fill="#fff" d="M264-196c-13.296 0-24 10.704-24 24v2c0-13.296 10.704-24 24-24h400c13.296 0 24 10.704 24 24v-2c0-13.296-10.704-24-24-24z" opacity=".1"/><path d="M664 252c13.296 0 24-10.704 24-24v-2c0 13.296-10.704 24-24 24H264c-13.296 0-24-10.704-24-24v2c0 13.296 10.704 24 24 24z" opacity=".2"/><path fill="#fff" d="m464.19-46.194-70.093 44.74 70.093 44.74-70.093 44.74-70.093-45.113 70.093-44.74-70.093-44.368 70.093-44.74zm-70.466 148.39 70.093-44.74 70.093 44.74-70.093 44.74zm70.466-59.281 70.093-44.74-70.093-44.368 69.72-44.74 70.093 44.74-70.093 44.74 70.093 44.74-70.093 44.74z" class="st0"/></g></svg>