<svg xmlns="http://www.w3.org/2000/svg" width="512" height="512" enable-background="new" version="1.0"><defs><filter id="a" width="1.048" height="1.048" x="-.024" y="-.024" color-interpolation-filters="sRGB"><feGaussianBlur stdDeviation="4.48"/></filter></defs><g transform="translate(0 212)"><rect width="448" height="448" x="-256" y="-688" filter="url(#a)" opacity=".2" rx="36" ry="36" transform="matrix(0 -1 -1 0 -208 16)"/><rect width="448" height="448" x="-270" y="-480" opacity=".2" rx="36" ry="36" transform="scale(1 -1)rotate(90)"/><rect width="448" height="448" x="-256" y="-688" filter="url(#a)" opacity=".1" rx="36" ry="36" transform="matrix(0 -1 -1 0 -208 16)"/><rect width="448" height="448" x="-256" y="-688" fill="#fff" opacity=".1" rx="36" ry="36" transform="matrix(0 -1 -1 0 -208 16)"/></g><g color="#000"><path fill="#f4f1ef" stroke="#f4f1ef" stroke-width="2" d="m122.666 178.093 207.238-59.425 59.425 207.239L182.09 385.33z" enable-background="accumulate"/><path fill="#48c39e" d="M68.131 174.76c-12.707-.02-24.753.568-36.131 1.773v263.67c52.79-3.118 105.24-8.102 150.1-54.869l-59.426-207.24c-19.346-2.187-37.533-3.306-54.539-3.334z" enable-background="accumulate"/><path fill="#d81768" d="m389.33 325.9-207.24 59.426c-8.248 33.737-6.6 65 1.422 94.67h259.56c-2.007-55.342.9-111.91-53.744-154.1z" enable-background="accumulate"/><path fill="#ecb524" d="M479.88 65.252c-59.505 4.213-119.7 7.447-149.97 53.418l59.426 207.24c32.91 6.795 62.761 5.174 90.664-1.805V67.995c0-.926-.047-1.84-.115-2.748z" enable-background="accumulate"/><path fill="#81d2e0" d="M68 32c-1.613 0-3.198.117-4.754.32 6.112 50.947 27.211 99.315 59.418 145.77l207.24-59.426c13.5-34.036 11.9-61.779 3.434-86.664z" enable-background="accumulate"/><path fill="#390f39" d="M182.09 385.34 32 428.377v15.627c0 19.944 16.056 36 36 36h141.24z" enable-background="accumulate"/><path fill="#20a48e" d="M68 32c-19.944 0-36 16.056-36 36v136.09l90.664-25.998-41.889-146.09z" enable-background="accumulate"/><path fill="#77971f" d="m305.05 32 24.85 86.664L480 75.623V68c0-19.944-16.056-36-36-36z" enable-background="accumulate"/><path fill="#d5100d" d="m480 299.91-90.67 26L433.514 480H444c19.944 0 36-16.056 36-36z" enable-background="accumulate"/></g><path fill="#5a3856" d="M315.86 288.29q0 23.079-15.201 35.395-15.09 12.315-44.605 12.316-20.416 0-35.506-6.768-14.98-6.769-24.41-21.858l24.078-18.42q5.325 7.545 10.097 11.319 4.77 3.773 11.318 5.88 6.546 2.11 15.09 2.108 12.76 0 19.861-4.327 7.212-4.438 7.212-13.426 0-5.103-2.552-8.543-2.44-3.44-7.434-5.881-4.994-2.552-17.309-5.77a759 759 0 0 1-22.635-6.435q-10.54-3.33-18.308-8.544-7.656-5.215-12.094-13.093t-4.438-19.861q0-21.858 14.757-34.064 14.757-12.316 42.275-12.316 39.834 0 56.366 27.295l-23.856 18.64q-6.325-9.764-14.202-13.98-7.878-4.216-18.752-4.217-10.875 0-17.753 3.995-6.77 3.883-6.769 12.316 0 7.434 7.102 11.429 7.101 3.883 24.743 7.878a414 414 0 0 1 19.306 5.548q9.542 2.885 16.976 8.1 7.545 5.214 12.094 13.648 4.548 8.432 4.549 21.637"/><path fill="#fff" d="M68 32c-19.944 0-36 16.056-36 36v2c0-19.944 16.056-36 36-36h376c19.944 0 36 16.056 36 36v-2c0-19.944-16.056-36-36-36z" opacity=".2"/></svg>