<svg xmlns="http://www.w3.org/2000/svg" width="512" height="512" enable-background="new" version="1.0"><defs><filter id="a" width="1.041" height="1.058" x="-.02" y="-.029" color-interpolation-filters="sRGB"><feGaussianBlur stdDeviation="4.088"/></filter><filter id="c" width="1.041" height="1.058" x="-.02" y="-.029" color-interpolation-filters="sRGB"><feGaussianBlur stdDeviation="4.088"/></filter></defs><path d="M491.1 162.831s-4.69-33.077-19.083-47.643c-18.253-19.118-38.712-19.213-48.094-20.332-67.169-4.855-167.93-4.855-167.93-4.855h-.209s-100.75 0-167.93 4.855c-9.383 1.12-29.835 1.214-48.094 20.332-14.39 14.566-19.075 47.643-19.075 47.643s-4.8 38.844-4.8 77.687v36.416c0 38.843 4.8 77.686 4.8 77.686s4.684 33.078 19.075 47.644c18.26 19.118 42.244 18.513 52.927 20.517 38.4 3.682 163.2 4.822 163.2 4.822s100.86-.152 168.03-5.007c9.383-1.12 29.842-1.214 48.094-20.332 14.393-14.566 19.083-47.644 19.083-47.644s4.794-38.843 4.794-77.686v-36.416c0-38.843-4.794-77.687-4.794-77.687" enable-background="new" opacity=".2"/><path d="M699.1-63.169s-4.69-33.077-19.083-47.643c-18.253-19.118-38.712-19.213-48.094-20.332-67.169-4.855-167.93-4.855-167.93-4.855h-.209s-100.75 0-167.93 4.855c-9.383 1.12-29.835 1.214-48.094 20.332-14.39 14.566-19.075 47.643-19.075 47.643s-4.8 38.844-4.8 77.687v36.416c0 38.843 4.8 77.686 4.8 77.686s4.684 33.078 19.075 47.644c18.26 19.118 42.244 18.513 52.927 20.517 38.4 3.682 163.2 4.822 163.2 4.822s100.86-.152 168.03-5.007c9.383-1.12 29.842-1.214 48.094-20.332 14.393-14.566 19.083-47.644 19.083-47.644s4.794-38.843 4.794-77.686V14.518c0-38.843-4.794-77.687-4.794-77.687" enable-background="new" filter="url(#a)" opacity=".1" transform="translate(-208 228)"/><path d="M699.1-63.169s-4.69-33.077-19.083-47.643c-18.253-19.118-38.712-19.213-48.094-20.332-67.169-4.855-167.93-4.855-167.93-4.855h-.209s-100.75 0-167.93 4.855c-9.383 1.12-29.835 1.214-48.094 20.332-14.39 14.566-19.075 47.643-19.075 47.643s-4.8 38.844-4.8 77.687v36.416c0 38.843 4.8 77.686 4.8 77.686s4.684 33.078 19.075 47.644c18.26 19.118 42.244 18.513 52.927 20.517 38.4 3.682 163.2 4.822 163.2 4.822s100.86-.152 168.03-5.007c9.383-1.12 29.842-1.214 48.094-20.332 14.393-14.566 19.083-47.644 19.083-47.644s4.794-38.843 4.794-77.686V14.518c0-38.843-4.794-77.687-4.794-77.687" enable-background="new" filter="url(#c)" opacity=".2" transform="translate(-208 228)"/><path fill="#e53935" d="M491.1 160.831s-4.69-33.077-19.083-47.643c-18.253-19.118-38.712-19.213-48.094-20.332-67.169-4.855-167.93-4.855-167.93-4.855h-.209s-100.75 0-167.93 4.855c-9.383 1.12-29.835 1.214-48.094 20.332-14.39 14.566-19.075 47.643-19.075 47.643s-4.8 38.844-4.8 77.687v36.416c0 38.843 4.8 77.686 4.8 77.686s4.684 33.078 19.075 47.644c18.26 19.118 42.244 18.513 52.927 20.517 38.4 3.682 163.2 4.822 163.2 4.822s100.86-.152 168.03-5.007c9.383-1.12 29.842-1.214 48.094-20.332 14.393-14.566 19.083-47.644 19.083-47.644s4.794-38.843 4.794-77.686v-36.416c0-38.843-4.794-77.687-4.794-77.687" enable-background="new"/><path fill="#fff" d="m192.02 330.61-.025-149.74 144 75.13z"/><path fill="#e3e2e0" d="M318.28 265.196 192 180.87 336 256l-17.717 9.196"/><path fill="#fff" d="M255.79 88s-100.75 0-167.93 4.856c-9.383 1.119-29.835 1.214-48.094 20.332-14.391 14.565-19.074 47.643-19.074 47.643s-4.8 38.844-4.8 77.688v2c0-38.843 4.8-77.688 4.8-77.688s4.683-33.076 19.074-47.643C58.025 96.07 78.477 95.975 87.86 94.856 155.031 90 255.79 90 255.79 90h.209s100.76 0 167.93 4.856c9.382 1.119 29.841 1.214 48.094 20.332 14.393 14.566 19.084 47.643 19.084 47.643s4.793 38.844 4.793 77.688v-2c0-38.843-4.793-77.688-4.793-77.688s-4.691-33.076-19.084-47.643c-18.253-19.118-38.711-19.213-48.094-20.332C356.76 88 255.999 88 255.999 88z" enable-background="new" opacity=".2"/></svg>