<svg xmlns="http://www.w3.org/2000/svg" width="512" height="512" enable-background="new" version="1.0"><defs><filter id="a" width="1.048" height="1.048" x="-.024" y="-.024" color-interpolation-filters="sRGB"><feGaussianBlur stdDeviation="4.48"/></filter></defs><g transform="translate(-208 228)"><g transform="scale(1 -1)rotate(90)"><rect width="448" height="448" x="-256" y="-688" filter="url(#a)" opacity=".2" rx="36" ry="36"/><rect width="448" height="448" x="-254" y="-688" opacity=".2" rx="36" ry="36"/><rect width="448" height="448" x="-256" y="-688" stroke="#000" stroke-width="8" filter="url(#a)" opacity=".1" rx="36" ry="36"/></g><rect width="448" height="448" x="-252" y="-688" fill="#b71c1c" rx="36" ry="36" transform="scale(1 -1)rotate(90)"/><path fill="#fff" d="M276-196c-19.944 0-36 16.056-36 36v2c0-19.944 16.056-36 36-36h376c19.944 0 36 16.056 36 36v-2c0-19.944-16.056-36-36-36z" opacity=".2"/><g fill="#fff"><path d="m436.761 90.782-7-19.03S418.385 84.44 401.326 84.44c-15.094 0-25.811-13.125-25.811-34.124 0-26.904 13.56-36.528 26.905-36.528 19.247 0 25.371 12.468 30.622 28.436l7 21.874c6.999 21.216 20.123 38.277 57.964 38.277 27.125 0 45.498-8.31 45.498-30.184 0-17.717-10.063-26.905-28.875-31.28l-13.999-3.062c-9.623-2.187-12.466-6.125-12.466-12.687 0-7.437 5.904-11.812 15.53-11.812 10.499 0 16.186 3.937 17.061 13.343l21.873-2.625c-1.75-19.686-15.31-27.78-37.622-27.78-19.685 0-38.934 7.438-38.934 31.28 0 14.874 7.218 24.28 25.372 28.655l14.875 3.498c11.156 2.626 14.873 7.218 14.873 13.563 0 8.091-7.874 11.373-22.748 11.373-22.092 0-31.278-11.593-36.528-27.561l-7.219-21.872c-9.185-28.436-23.842-38.935-52.934-38.935-32.153 0-49.215 20.342-49.215 54.901 0 33.249 17.062 51.184 47.686 51.184 24.713 0 36.527-11.592 36.527-11.592M343.155 80.5c-2.187.657-4.375 1.094-7.218 1.094-5.25 0-8.969-2.405-8.969-8.75v-119.22H304V78.308c0 16.405 11.376 23.188 24.718 23.188 4.375 0 8.531-.658 13.781-1.968zM619.843 76.997c-5.687 3.94-10.499 5.909-17.061 5.909-8.313 0-12.906-4.376-12.906-15.094V16.623h30.187V-1.312h-29.97v-24.283l-23.185 2.844v21.438h-14.656v17.935h14.656v55.999c0 20.128 11.592 29.748 30.405 29.748 10.281 0 19.468-1.966 26.687-6.121z"/></g></g></svg>