<svg width="512" height="512" enable-background="new" version="1.0" xmlns="http://www.w3.org/2000/svg" xmlns:osb="http://www.openswatchbook.org/uri/2009/osb" xmlns:xlink="http://www.w3.org/1999/xlink">
 <defs>
  <filter id="a" x="-.024" y="-.024" width="1.048" height="1.048" color-interpolation-filters="sRGB">
   <feGaussianBlur stdDeviation="4.48"/>
  </filter>
 </defs>
 <g transform="translate(0,212)">
  <g>
   <g transform="translate(-208,16)">
    <g>
     <rect transform="matrix(0,-1,-1,0,0,0)" x="-256" y="-688" width="448" height="448" rx="36" ry="36" filter="url(#a)" opacity=".2"/>
     <rect transform="matrix(0,-1,-1,0,0,0)" x="-254" y="-688" width="448" height="448" rx="36" ry="36" opacity=".2"/>
     <rect transform="matrix(0,-1,-1,0,0,0)" x="-256" y="-688" width="448" height="448" rx="36" ry="36" filter="url(#a)" opacity=".1" stroke="#000" stroke-width="8"/>
    </g>
    <rect transform="matrix(0,-1,-1,0,0,0)" x="-252" y="-688" width="448" height="448" rx="36" ry="36" fill="#b71c1c"/>
    <path transform="translate(0,-244)" d="m276 48c-19.944 0-36 16.056-36 36v2c0-19.944 16.056-36 36-36h376c19.944 0 36 16.056 36 36v-2c0-19.944-16.056-36-36-36z" fill="#fff" opacity=".2"/>
    <g transform="matrix(.83798 0 0 .83798 304 -47.904)" fill="#fff">
     <path d="m158.43 165.5-8.354-22.708s-13.575 15.14-33.932 15.14c-18.013 0-30.802-15.662-30.802-40.721 0-32.106 16.182-43.591 32.107-43.591 22.969 0 30.277 14.878 36.543 33.934l8.354 26.103c8.351 25.318 24.013 45.678 69.17 45.678 32.37 0 54.295-9.918 54.295-36.02 0-21.143-12.009-32.107-34.458-37.328l-16.705-3.654c-11.484-2.61-14.877-7.309-14.877-15.14 0-8.875 7.046-14.096 18.533-14.096 12.529 0 19.315 4.699 20.36 15.923l26.102-3.133c-2.088-23.492-18.271-33.15-44.896-33.15-23.491 0-46.462 8.875-46.462 37.327 0 17.75 8.614 28.975 30.277 34.195l17.752 4.175c13.312 3.133 17.748 8.614 17.748 16.185 0 9.656-9.396 13.572-27.146 13.572-26.364 0-37.325-13.834-43.591-32.89l-8.614-26.101c-10.961-33.934-28.452-46.463-63.169-46.463-38.37 0-58.731 24.275-58.731 65.517 0 39.677 20.361 61.08 56.906 61.08 29.492 0 43.59-13.834 43.59-13.834z"/>
     <path d="m46.726 153.23c-2.61 0.784-5.221 1.306-8.614 1.306-6.265 0-10.703-2.87-10.703-10.442v-142.27h-27.409v148.79c0 19.577 13.575 27.672 29.497 27.672 5.221 0 10.181-0.785 16.446-2.349z"/>
     <path d="m376.91 149.05c-6.787 4.701-12.529 7.051-20.36 7.051-9.92 0-15.401-5.221-15.401-18.012v-61.086h36.023v-21.403h-35.763v-28.978l-27.669 3.394v25.583h-17.49v21.403h17.49v66.826c0 24.02 13.834 35.5 36.284 35.5 12.269 0 23.232-2.346 31.847-7.305z"/>
    </g>
   </g>
  </g>
 </g>
</svg>
