<svg xmlns="http://www.w3.org/2000/svg" width="512" height="512" enable-background="new" version="1.0"><defs><filter id="a" width="1.048" height="1.048" x="-.024" y="-.024" color-interpolation-filters="sRGB"><feGaussianBlur stdDeviation="4.84"/></filter></defs><path d="M464-207A240 224 0 0 0 224 17a240 224 0 0 0 88 173.18v90.822l83.434-49.441A240 224 0 0 0 464 241.002a240 224 0 0 0 240-224 240 224 0 0 0-240-224z" filter="url(#a)" opacity=".2" transform="translate(-208 228)"/><path d="M256 19A240 224 0 0 0 16 243a240 224 0 0 0 88 173.18v90.822l83.434-49.441A240 224 0 0 0 256 467.002a240 224 0 0 0 240-224 240 224 0 0 0-240-224z" opacity=".2"/><path fill="#03a9f4" d="M256 17A240 224 0 0 0 16 241a240 224 0 0 0 88 173.18v90.822l83.434-49.441A240 224 0 0 0 256 465.002a240 224 0 0 0 240-224 240 224 0 0 0-240-224z"/><path fill="#fff" fill-rule="evenodd" d="m104 312 128-136 64 64 112-64-128 136-64-64z"/><path fill="#fff" d="M256 17A240 224 0 0 0 16 241a240 224 0 0 0 .045.822A240 224 0 0 1 256 19a240 224 0 0 1 239.955 223.172A240 224 0 0 0 496 241 240 224 0 0 0 256 17" opacity=".1"/></svg>