<svg xmlns="http://www.w3.org/2000/svg" width="512" height="512" enable-background="new" version="1.0"><defs><filter id="a" width="1.048" height="1.048" x="-.024" y="-.024" color-interpolation-filters="sRGB"><feGaussianBlur stdDeviation="4.48"/></filter></defs><g transform="translate(-208 228)"><rect width="448" height="448" x="-256" y="-688" stroke="#000" stroke-width="8" filter="url(#a)" opacity=".1" rx="24" ry="24" transform="scale(1 -1)rotate(90)"/><rect width="448" height="448" x="-256" y="-688" filter="url(#a)" opacity=".2" rx="24" ry="24" transform="scale(1 -1)rotate(90)"/><rect width="448" height="448" x="-252" y="-688" fill="#4101af" rx="24" ry="24" transform="scale(1 -1)rotate(90)"/><path fill="#fff" d="M264-196c-13.296 0-24 10.704-24 24v2c0-13.296 10.704-24 24-24h400c13.296 0 24 10.704 24 24v-2c0-13.296-10.704-24-24-24z" opacity=".1"/><path d="M664 252c13.296 0 24-10.704 24-24v-2c0 13.296-10.704 24-24 24H264c-13.296 0-24-10.704-24-24v2c0 13.296 10.704 24 24 24z" opacity=".2"/><path fill="#fff" d="M304-5.132c8.006 12.064 20.841 35.039 25.205 42.583l-.59 31.45s2.812-.47 4.694-.47c2.086 0 4.685.47 4.685.47l-.59-31.45c8.143-14.288 21.582-37.595 25.274-42.583-3.518.798-6.689.825-9.84 0-2.776 5.172-13.022 21.906-19.54 32.623-6.61-10.948-14.43-23.587-19.53-32.623-4.042.862-5.735.917-9.77 0zm314.88.77c-2.345 0-4.665 1.38-4.665 4.895-1.39 17.642-2.843 35.327-5.225 52.162h.01c1.431-.246 2.545.117 3.624.551h.01c2.704-17.095 9.126-42.692 10.77-49.94.237-1.019.591-2.227.591-3.083 0-2.586-1.64-4.094-4.094-4.505 0 0-.61-.08-1.02-.08zm-53.063 2.723c-20.635 0-36.416 11.718-36.416 33.504 0 17.95 10.499 33.744 36.587 33.744 22.086 0 36.507-12.137 36.507-33.423 0-20.073-13.452-33.824-36.677-33.824zm-71.542 3.534c-20.721 0-31.592 13.139-31.592 30.17 0 18.64 11.868 30.01 31.562 30.01 21.291 0 31.692-12.818 31.692-29.82 0-18.957-12.421-30.36-31.662-30.36m71.562.11c15.496 0 26.907 9.418 26.907 30.18 0 22.569-13.798 29.89-26.877 29.89-13.973 0-26.707-8.206-26.707-30.34 0-22.942 14.108-29.73 26.677-29.73m-192.22.65c-7.866 19.74-16.925 42.016-25.075 58.63l.03-.01c3.727-.926 7.277-.637 9.63 0 2.077-5.25 4.45-11.204 6.816-17.187l.01.01c8.01-.229 16.015-.26 24.024 0 2.278 5.728 4.56 11.46 6.787 17.197 3.565-.931 7.117-.68 9.74-.021-5.873-10.966-17.665-39.653-25.155-58.609l-.05.02.05-.03c-2.435.851-4.415.802-6.807 0zm35.475.03c.85 19.57.777 39.096 0 58.6a20.6 20.6 0 0 1 9.76 0h.01a552 552 0 0 1-.771-27.257h.01q16.386-.23 32.773-.01a552 552 0 0 1-.77 27.267l.03-.01a20.6 20.6 0 0 1 9.739.01c-.777-19.504-.85-39.03 0-58.6-3.314.794-6.57.772-9.77 0 .474 9.112.727 18.222.76 27.348-10.931.254-21.853.275-32.762 0a568 568 0 0 1 .76-27.347c-3.198.771-6.455.793-9.77 0zm84.685 2.763c.18-.004.36 0 .54 0 12.672 0 21.973 8.622 21.973 26.657 0 18.012-9.293 26.647-21.952 26.647-13.812 0-21.922-9.902-21.922-26.597 0-18.88 10-26.474 21.36-26.707zm-116.77 7.328c3.238 9.025 6.813 18.117 10.43 27.237l-.03-.01c-6.927.24-13.854.243-20.781 0 4.236-10.743 8.257-21.116 10.38-27.227zm231.68 46.997c-3.073 0-4.605 2.344-4.605 4.865 0 2.971 2.371 4.494 5.306 4.494 2.122 0 4.444-1.284 4.444-4.785 0-2.81-2.204-4.574-5.145-4.574z" enable-background="new"/></g></svg>