<svg xmlns="http://www.w3.org/2000/svg" width="512" height="512" enable-background="new" version="1.0"><defs><filter id="a" width="1.052" height="1.045" x="-.026" y="-.022" color-interpolation-filters="sRGB"><feGaussianBlur stdDeviation="4.16"/></filter></defs><path d="M464-192A192 192 0 0 0 272 0a192 192 0 0 0 192 192v64c29.538 0 192-108.31 192-256a192 192 0 0 0-192-192" filter="url(#a)" opacity=".2" transform="translate(-208 228)"/><path d="M256 34A192 192 0 0 0 64 226a192 192 0 0 0 192 192v64c29.538 0 192-108.31 192-256A192 192 0 0 0 256 34" opacity=".2"/><path fill="#16a05d" d="M256 32A192 192 0 0 0 64 224a192 192 0 0 0 192 192v64c29.538 0 192-108.31 192-256A192 192 0 0 0 256 32"/><g fill="#fff"><path d="M160 168v80h40v38.667c21.333 0 40-17.333 40-38.667v-80zM272 168v80h40v38.667c21.333 0 40-17.333 40-38.667v-80z"/><path d="M256 32A192 192 0 0 0 64 224l.041.828a192 192 0 0 1 191.96-190.83 192 192 0 0 1 191.99 191.71c.005-.57.014-1.14.014-1.71a192 192 0 0 0-192-192z" opacity=".2"/></g></svg>