<svg xmlns="http://www.w3.org/2000/svg" width="512" height="512" enable-background="new" version="1.0"><defs><filter id="a" width="1.048" height="1.048" x="-.024" y="-.024" color-interpolation-filters="sRGB"><feGaussianBlur stdDeviation="4.8"/></filter><filter id="c" width="1.046" height="1.05" x="-.023" y="-.025" color-interpolation-filters="sRGB"><feGaussianBlur stdDeviation="2.118"/></filter><filter id="b" width="1.12" height="1.12" x="-.06" y="-.06" color-interpolation-filters="sRGB"><feGaussianBlur stdDeviation="10"/></filter></defs><path d="M464-208A240 240 0 0 0 224 32a240 240 0 0 0 33.691 122.08L224 272l117.91-33.689A240 240 0 0 0 464 272 240 240 0 0 0 704 32a240 240 0 0 0-240-240" filter="url(#a)" opacity=".1" transform="translate(-208 228)"/><path d="M464-208A240 240 0 0 0 224 32a240 240 0 0 0 33.691 122.08L224 272l117.91-33.689A240 240 0 0 0 464 272 240 240 0 0 0 704 32a240 240 0 0 0-240-240" filter="url(#a)" opacity=".2" transform="translate(-208 228)"/><path d="M256 18A240 240 0 0 0 16 258a240 240 0 0 0 33.691 122.08L16 498l117.91-33.689A240 240 0 0 0 256 498a240 240 0 0 0 240-240A240 240 0 0 0 256 18" opacity=".2"/><path fill="#f2f2f2" d="M256 16A240 240 0 0 0 16 256a240 240 0 0 0 33.691 122.08L16 496l117.91-33.689A240 240 0 0 0 256 496a240 240 0 0 0 240-240A240 240 0 0 0 256 16"/><path d="M464-164A200 200 0 0 0 264 36a200 200 0 0 0 35.447 113.29l-20.504 71.765 71.54-20.439a200 200 0 0 0 113.52 35.382 200 200 0 0 0 200-200 200 200 0 0 0-200-200z" filter="url(#b)" opacity=".2" transform="translate(-208 228)"/><path fill="#388e3c" d="M256 58A200 200 0 0 0 56 258a200 200 0 0 0 35.447 113.29l-20.504 71.765 71.54-20.439a200 200 0 0 0 113.52 35.382 200 200 0 0 0 200-200 200 200 0 0 0-200-200z"/><path fill="#4caf50" d="M256 56A200 200 0 0 0 56 256a200 200 0 0 0 35.447 113.29l-20.504 71.765 71.54-20.439a200 200 0 0 0 113.52 35.382 200 200 0 0 0 200-200 200 200 0 0 0-200-200z"/><path d="M546.51 132.54c16.492-7.848 24.16-17.694 26.804-34.42 2.015-12.747 1.085-13.746-24.003-25.782-31.9-15.304-29.934-15.377-43.676 1.624-8.553 10.58-12.228 14.013-15.003 14.013-4.253 0-25.065-10.074-35.583-17.223-16.187-11.003-44.928-44.471-44.928-52.316 0-1.423 3.46-6.628 7.69-11.566 12.435-14.521 12.449-14.877 1.591-41.53-12.499-30.684-12.325-30.476-25.942-31.037-13.935-.575-18.339 1.632-27.155 13.609-9.122 12.39-12.379 22.36-12.304 37.659.096 19.418 6.486 35.008 24.982 60.953 31.753 44.539 62.732 68.713 107.36 83.777 27.296 9.213 44.186 9.841 60.164 2.238z" enable-background="new" filter="url(#c)" opacity=".2" transform="translate(-208 228)"/><path fill="#f2f2f2" d="M338.51 352.54c16.492-7.848 24.16-17.694 26.804-34.42 2.015-12.747 1.085-13.746-24.003-25.782-31.9-15.304-29.934-15.377-43.676 1.624-8.552 10.58-12.228 14.013-15.003 14.013-4.253 0-25.065-10.074-35.583-17.223-16.187-11.003-44.928-44.471-44.928-52.316 0-1.423 3.46-6.628 7.69-11.566 12.435-14.521 12.449-14.877 1.591-41.53-12.499-30.684-12.325-30.476-25.942-31.037-13.935-.575-18.339 1.632-27.155 13.609-9.122 12.39-12.379 22.36-12.304 37.659.096 19.418 6.486 35.008 24.982 60.953 31.753 44.539 62.732 68.713 107.36 83.777 27.296 9.213 44.186 9.841 60.164 2.238z" enable-background="new"/><g fill="#fff"><path d="M256 56A200 200 0 0 0 56 256l.043.813a200 200 0 0 1 199.96-198.81 200 200 0 0 1 199.96 199.17l.041-1.17a200 200 0 0 0-200-200zM91.05 370.69l-20.104 70.363.623-.178 19.881-69.588z" opacity=".2"/><path d="M182.96 154.23c-11.998-.187-16.385 2.455-24.65 13.684-9.122 12.391-12.378 22.359-12.303 37.658 0 .176.012.348.014.523.142-14.465 3.467-24.198 12.289-36.182 8.816-11.977 13.22-14.184 27.156-13.609 13.617.562 13.442.354 25.94 31.037 4.903 12.034 7.582 18.7 7.909 23.736.37-5.297-2.331-12.046-7.908-25.736-12.5-30.684-12.324-30.476-25.941-31.037a98 98 0 0 0-2.506-.074zm19.355 85.432c-.118.316-.19.585-.19.775 0 7.846 28.742 41.314 44.929 52.316 10.518 7.15 31.33 17.223 35.584 17.223 2.775 0 6.449-3.433 15.002-14.014 13.742-17 11.776-16.927 43.676-1.623 19.17 9.197 24.22 11.963 24.645 18.438.422-7.993-3.621-10.35-24.645-20.438-31.9-15.304-29.933-15.378-43.676 1.623-8.553 10.58-12.227 14.014-15.002 14.014-4.253 0-25.066-10.073-35.584-17.223-15.46-10.508-42.351-41.492-44.738-51.092z" enable-background="new" opacity=".5"/><path d="M256 16A240 240 0 0 0 16 256l.043.807a240 240 0 0 1 239.96-238.81 240 240 0 0 1 239.96 239.17l.041-1.172a240 240 0 0 0-240-240zM49.31 379.41 15.999 496l.623-.178 33.068-115.74-.38-.666z" opacity=".5"/></g></svg>