<svg width="512" height="512" enable-background="new" version="1.0" xmlns="http://www.w3.org/2000/svg" xmlns:osb="http://www.openswatchbook.org/uri/2009/osb" xmlns:xlink="http://www.w3.org/1999/xlink">
 <defs>
  <filter id="a" x="-.024" y="-.024" width="1.048" height="1.048" color-interpolation-filters="sRGB">
   <feGaussianBlur stdDeviation="4.48"/>
  </filter>
 </defs>
 <g transform="translate(0,212)">
  <g>
   <g transform="translate(-208,16)">
    <rect transform="matrix(0,-1,-1,0,0,0)" x="-256" y="-688" width="448" height="448" rx="24" ry="24" filter="url(#a)" opacity=".1" stroke="#000" stroke-width="8"/>
    <rect transform="matrix(0,-1,-1,0,0,0)" x="-256" y="-688" width="448" height="448" rx="24" ry="24" filter="url(#a)" opacity=".2"/>
    <rect transform="matrix(0,-1,-1,0,0,0)" x="-252" y="-688" width="448" height="448" rx="24" ry="24" fill="#fff"/>
    <path d="m264-196c-13.296 0-24 10.704-24 24v2c0-13.296 10.704-24 24-24h400c13.296 0 24 10.704 24 24v-2c0-13.296-10.704-24-24-24z" fill="#fff" opacity=".1"/>
    <path d="m664 252c13.296 0 24-10.704 24-24v-2c0 13.296-10.704 24-24 24h-400c-13.296 0-24-10.704-24-24v2c0 13.296 10.704 24 24 24z" opacity=".2"/>
    <g transform="matrix(2.1429 0 0 2.1429 155.43 -303.36)" enable-background="new" fill-rule="evenodd">
     <g transform="matrix(.43802 0 0 .43802 33.782 132.73)" fill="#fff" opacity=".2">
      <path d="m380.72 149.02c-34.999 25.797-85.729 39.561-129.41 39.561-61.243 0-116.38-22.651-158.09-60.325-3.2771-2.9625-0.34083-6.9999 3.5917-4.6928 45.014 26.191 100.67 41.947 158.17 41.947 38.775 0 81.43-8.0224 120.65-24.67 5.925-2.5168 10.88 3.8801 5.0861 8.1796"/>
      <path d="m395.27 132.37c-4.4569-5.7153-29.573-2.7003-40.846-1.3633-3.4344 0.41947-3.9587-2.5692-0.86517-4.719 20.003-14.078 52.827-10.015 56.655-5.2958 3.8276 4.7453-0.99624 37.647-19.794 53.351-2.8838 2.412-5.6366 1.1273-4.352-2.0711 4.2209-10.539 13.685-34.161 9.2021-39.902"/>
     </g>
     <g transform="matrix(.43802 0 0 .43802 33.782 131.73)" fill="#f90">
      <path d="m380.72 149.02c-34.999 25.797-85.729 39.561-129.41 39.561-61.243 0-116.38-22.651-158.09-60.325-3.2771-2.9625-0.34083-6.9999 3.5917-4.6928 45.014 26.191 100.67 41.947 158.17 41.947 38.775 0 81.43-8.0224 120.65-24.67 5.925-2.5168 10.88 3.8801 5.0861 8.1796"/>
      <path d="m395.27 132.37c-4.4569-5.7153-29.573-2.7003-40.846-1.3633-3.4344 0.41947-3.9587-2.5692-0.86517-4.719 20.003-14.078 52.827-10.015 56.655-5.2958 3.8276 4.7453-0.99624 37.647-19.794 53.351-2.8838 2.412-5.6366 1.1273-4.352-2.0711 4.2209-10.539 13.685-34.161 9.2021-39.902"/>
     </g>
     <path d="m153.08 150.81c0 6.3619 0.16076 11.667-3.0546 17.317-2.5953 4.5935-6.7064 7.4184-11.3 7.4184-6.2701 0-9.9218-4.7772-9.9218-11.828 0-13.918 12.471-16.445 24.276-16.445v3.537m16.468 39.802c-1.0795 0.96464-2.6412 1.0335-3.8585 0.39046-5.4203-4.5016-6.3849-6.5916-9.3706-10.886-8.9572 9.141-15.296 11.874-26.918 11.874-13.734 0-24.437-8.4749-24.437-25.448 0-13.252 7.1888-22.278 17.409-26.688 8.8654-3.9044 21.245-4.5935 30.707-5.6729v-2.113c0-3.8815 0.29858-8.4749-1.9752-11.828-1.9982-3.0087-5.8107-4.249-9.164-4.249-6.2241 0-11.782 3.1924-13.137 9.807-0.27562 1.4699-1.3551 2.9168-2.825 2.9858l-15.847-1.6996c-1.3321-0.29855-2.802-1.378-2.4345-3.4221 3.6518-19.201 20.992-24.988 36.518-24.988 7.9467 0 18.328 2.113 24.598 8.1304 7.9467 7.4184 7.1888 17.317 7.1888 28.089v25.448c0 7.6481 3.1695 11.001 6.1552 15.135 1.0565 1.4699 1.2862 3.2384-0.0459 4.3408-3.3302 2.779-9.2558 7.9467-12.517 10.841l-0.0459-0.0459" fill="#fff" opacity=".2"/>
     <path d="m153.08 149.81c0 6.3619 0.16076 11.667-3.0546 17.317-2.5953 4.5935-6.7064 7.4184-11.3 7.4184-6.2701 0-9.9218-4.7772-9.9218-11.828 0-13.918 12.471-16.445 24.276-16.445v3.537m16.468 39.802c-1.0795 0.96464-2.6412 1.0335-3.8585 0.39046-5.4203-4.5016-6.3849-6.5916-9.3706-10.886-8.9572 9.141-15.296 11.874-26.918 11.874-13.734 0-24.437-8.4749-24.437-25.448 0-13.252 7.1888-22.278 17.409-26.688 8.8654-3.9044 21.245-4.5935 30.707-5.6729v-2.113c0-3.8815 0.29858-8.4749-1.9752-11.828-1.9982-3.0087-5.8107-4.249-9.164-4.249-6.2241 0-11.782 3.1924-13.137 9.807-0.27562 1.4699-1.3551 2.9168-2.825 2.9858l-15.847-1.6996c-1.3321-0.29855-2.802-1.378-2.4345-3.4221 3.6518-19.201 20.992-24.988 36.518-24.988 7.9467 0 18.328 2.113 24.598 8.1304 7.9467 7.4184 7.1888 17.317 7.1888 28.089v25.448c0 7.6481 3.1695 11.001 6.1552 15.135 1.0565 1.4699 1.2862 3.2384-0.0459 4.3408-3.3302 2.779-9.2558 7.9467-12.517 10.841l-0.0459-0.0459" fill="#373737"/>
    </g>
   </g>
  </g>
 </g>
</svg>
