<svg xmlns="http://www.w3.org/2000/svg" width="512" height="512" enable-background="new" version="1.0"><defs><filter id="a" width="1.048" height="1.048" x="-.024" y="-.024" color-interpolation-filters="sRGB"><feGaussianBlur stdDeviation="4.8"/></filter></defs><g transform="translate(-208 228)"><circle cx="464" cy="30" r="240" opacity=".2"/><circle cx="464" cy="32" r="240" filter="url(#a)" opacity=".1"/><circle cx="464" cy="32" r="240" filter="url(#a)" opacity=".2"/><circle cx="464" cy="28" r="240" fill="#ff4500"/><path fill="#fff" d="M464-212A240 240 0 0 0 224 28l.041 1.172A240 240 0 0 1 464-210 240 240 0 0 1 703.959 28.828L704 28a240 240 0 0 0-240-240" opacity=".2"/><path fill="#fff" d="M488.54-105.62a8 8 0 0 0-.845.033 8.32 8.32 0 0 0-7.345 5.785l-23.108 73.06-1.625 5.168A142.38 92.922 0 0 0 359.48 7.677a31.44 31.44 0 0 0-24.05-11.245 31.435 31.435 0 0 0-31.428 31.428 31.44 31.44 0 0 0 18.85 28.795 142.38 92.922 0 0 0-1.918 14.43 142.38 92.922 0 0 0 142.38 92.92 142.38 92.922 0 0 0 142.38-92.92 142.38 92.922 0 0 0-1.722-13.943 31.435 31.435 0 0 0 20.02-29.283 31.435 31.435 0 0 0-31.428-31.428 31.44 31.44 0 0 0-24.538 11.83 142.38 92.922 0 0 0-95-29.738l.066-.26 20.8-65.684 55.348 13.033 3.087.715a24.78 24.78 0 0 0 24.473 21.06 24.78 24.78 0 0 0 24.765-24.798 24.78 24.78 0 0 0-24.765-24.765 24.78 24.78 0 0 0-21.32 12.155l-2.437-.552-62.856-14.82a8.3 8.3 0 0 0-1.658-.228zm-74.556 135.4c12.646 0 22.913 10.591 22.913 23.238s-10.266 22.913-22.913 22.913-23.238-10.266-23.238-22.913 10.591-23.238 23.238-23.238m100.36 0c12.653 0 22.913 10.585 22.913 23.238s-10.26 22.913-22.913 22.913-23.27-10.26-23.27-22.913 10.617-23.238 23.27-23.238m-99.614 77.611a6.4 6.4 0 0 1 4.615 1.95c10.258 10.26 28.484 12.903 44.461 12.903a6 6 0 0 1 .26 0h.098c15.989 0 34.22-2.64 44.493-12.903a6.4 6.4 0 0 1 4.42-1.917 6.4 6.4 0 0 1 4.648 10.985c-14.554 14.54-36.346 16.64-53.561 16.64a6 6 0 0 1-.26 0h-.098c-17.203 0-38.983-2.095-53.528-16.64a6.4 6.4 0 0 1 4.453-11.018z"/></g></svg>