<svg xmlns="http://www.w3.org/2000/svg" width="512" height="512" enable-background="new" version="1.0"><defs><filter id="a" width="1.048" height="1.048" x="-.024" y="-.024" color-interpolation-filters="sRGB"><feGaussianBlur stdDeviation="4.48"/></filter></defs><g transform="translate(-208 228)"><g transform="scale(1 -1)rotate(90)"><rect width="448" height="448" x="-254" y="-688" enable-background="new" opacity=".2" rx="36" ry="36"/><rect width="448" height="448" x="-256" y="-688" enable-background="new" filter="url(#a)" opacity=".1" rx="36" ry="36"/><rect width="448" height="448" x="-256" y="-688" enable-background="new" filter="url(#a)" opacity=".2" rx="36" ry="36"/></g><rect width="448" height="448" x="-252" y="-688" fill="#55acee" enable-background="new" rx="36" ry="36" transform="scale(1 -1)rotate(90)"/><path fill="#fff" d="M276-196c-19.944 0-36 16.056-36 36v2c0-19.944 16.056-36 36-36h376c19.944 0 36 16.056 36 36v-2c0-19.944-16.056-36-36-36z" enable-background="new" opacity=".2"/><path fill="#fff" d="M604.006-54.41a114.9 114.9 0 0 1-32.995 9.045c11.862-7.11 20.97-18.368 25.26-31.783a115 115 0 0 1-36.48 13.942c-10.48-11.165-25.41-18.142-41.931-18.142-31.727 0-57.449 25.721-57.449 57.446 0 4.502.51 8.887 1.488 13.09-47.744-2.395-90.072-25.265-118.407-60.02-4.945 8.484-7.778 18.351-7.778 28.88 0 19.93 10.142 37.513 25.556 47.815a57.2 57.2 0 0 1-26.02-7.185 40 40 0 0 0-.005.722c0 27.834 19.802 51.052 46.082 56.33a57.5 57.5 0 0 1-25.943.983c7.31 22.824 28.525 39.432 53.663 39.896-19.66 15.407-44.43 24.591-71.345 24.591-4.636 0-9.21-.271-13.703-.802 25.422 16.3 55.619 25.809 88.06 25.809 105.667 0 163.442-87.535 163.442-163.452q0-3.736-.166-7.432c11.223-8.099 20.964-18.217 28.666-29.737"/></g></svg>