<svg xmlns="http://www.w3.org/2000/svg" width="512" height="512" enable-background="new" version="1.0"><defs><filter id="a" width="1.048" height="1.048" x="-.024" y="-.024" color-interpolation-filters="sRGB"><feGaussianBlur stdDeviation="4.48"/></filter></defs><g transform="translate(-208 228)"><rect width="448" height="448" x="-256" y="-688" stroke="#000" stroke-width="8" filter="url(#a)" opacity=".1" rx="24" ry="24" transform="scale(1 -1)rotate(90)"/><rect width="448" height="448" x="-256" y="-688" filter="url(#a)" opacity=".2" rx="24" ry="24" transform="scale(1 -1)rotate(90)"/><rect width="448" height="448" x="-252" y="-688" fill="#1c2c45" rx="24" ry="24" transform="scale(1 -1)rotate(90)"/><path fill="#fff" d="M264-196c-13.296 0-24 10.704-24 24v2c0-13.296 10.704-24 24-24h400c13.296 0 24 10.704 24 24v-2c0-13.296-10.704-24-24-24z" opacity=".1"/><path d="M664 252c13.296 0 24-10.704 24-24v-2c0 13.296-10.704 24-24 24H264c-13.296 0-24-10.704-24-24v2c0 13.296 10.704 24 24 24z" opacity=".2"/><path fill="#fff" d="M448.89-58.5c-23.818 0-43.06 19.243-43.06 43.06 0 9.818 3.269 18.854 8.78 26.09 11.958-13.839 29.606-22.628 49.309-22.628 9.64 0 18.78 2.147 27.018 5.91a43.4 43.4 0 0 0 1.013-9.372c0-23.817-19.243-43.06-43.061-43.06zm-56.232 19.926c-12.403 0-22.375 10.055-22.375 22.459 0 4.016 1.035 7.81 2.87 11.061 7.486-4.222 16.139-6.67 25.33-6.67.887 0 1.742.029 2.618.087a49 49 0 0 1-.17-3.8c0-6.908 1.5-13.481 4.137-19.418-3.55-2.381-7.803-3.716-12.412-3.716zm106.22 15.451c-.917 0-1.8.111-2.702.168.389 2.46.675 4.945.675 7.514 0 3.999-.51 7.857-1.436 11.567 10.866 6.014 19.89 15.012 25.836 25.921 6.167-3.21 13.047-5.252 20.348-5.741-1.882-22.07-20.165-39.43-42.723-39.43zM463.923-7.081c-33.328 0-60.284 26.954-60.284 60.284 0 33.327 26.955 60.285 60.284 60.285s60.285-26.958 60.285-60.285c0-33.33-26.956-60.284-60.285-60.284m-65.435.253c-25.856 0-46.775 20.919-46.775 46.776 0 15.22 7.252 28.696 18.491 37.234 4.738-9.138 14.254-15.367 25.245-15.367 1.329 0 2.603.162 3.884.338a66 66 0 0 1-.59-8.95c0-14.506 4.721-27.92 12.748-38.754-4.805-6.013-8.243-13.237-9.71-21.108-1.086-.068-2.187-.167-3.292-.167zm146.57 27.863c-7.851 0-15.206 2.004-21.699 5.404a64.9 64.9 0 0 1 5.741 26.765c0 17.855-7.179 34.068-18.828 45.847 8.558 9.5 20.975 15.45 34.786 15.45 25.856 0 46.775-20.918 46.775-46.774s-20.919-46.691-46.775-46.691zm-197.91 6.164c-23.818 0-43.145 19.157-43.145 42.976s19.326 43.145 43.145 43.145c9.066 0 17.464-2.825 24.401-7.599a28.54 28.54 0 0 1-4.56-15.451c0-2.944.434-5.771 1.267-8.443-12.987-9.386-21.446-24.66-21.446-41.878 0-4.375.578-8.606 1.604-12.665-.426-.01-.838-.087-1.267-.087zm253.21 36.98c-1.27 0-2.5.147-3.715.338.058 1.074.087 2.118.087 3.208 0 13.734-5.419 26.2-14.184 35.462 4.312 5.015 10.647 8.19 17.815 8.19 13.057 0 23.641-10.499 23.641-23.557s-10.584-23.64-23.641-23.64zm-204.92 2.534a23.497 23.497 0 0 0-23.557 23.557c0 13.056 10.5 23.64 23.557 23.64 10.008 0 18.503-6.244 21.952-15.028a65.23 65.23 0 0 1-17.14-31.662 23.6 23.6 0 0 0-4.812-.507z" color="#000" enable-background="accumulate" style="text-decoration-line:none;text-indent:0;text-transform:none"/></g></svg>