<svg xmlns="http://www.w3.org/2000/svg" width="512" height="512" enable-background="new" version="1.0"><defs><filter id="a" width="1.048" height="1.048" x="-.024" y="-.024" color-interpolation-filters="sRGB"><feGaussianBlur stdDeviation="4.48"/></filter></defs><g transform="matrix(0 -1 -1 0 -208 228)"><rect width="448" height="448" x="-254" y="-688" opacity=".2" rx="36" ry="36"/><rect width="448" height="448" x="-256" y="-688" filter="url(#a)" opacity=".1" rx="36" ry="36"/><rect width="448" height="448" x="-256" y="-688" filter="url(#a)" opacity=".2" rx="36" ry="36"/></g><path fill="#f35325" d="M68 32c-19.944 0-36 16.056-36 36v188h448V68c0-19.944-16.056-36-36-36z"/><path fill="#05a6f0" d="M32 256v188c0 19.944 16.056 36 36 36h188V256z"/><path fill="#81bc06" d="M256 32v224h224V68c0-19.944-16.056-36-36-36z"/><path fill="#ffba08" d="M256 256v224h188c19.944 0 36-16.056 36-36V256z"/><path fill="#fff" d="M68 32c-19.944 0-36 16.056-36 36v2c0-19.944 16.056-36 36-36h376c19.944 0 36 16.056 36 36v-2c0-19.944-16.056-36-36-36z" opacity=".2"/></svg>