<svg xmlns="http://www.w3.org/2000/svg" width="512" height="512" enable-background="new" version="1.0"><defs><filter id="a" width="1.048" height="1.048" x="-.024" y="-.024" color-interpolation-filters="sRGB"><feGaussianBlur stdDeviation="4.48"/></filter></defs><g transform="translate(-208 228)"><rect width="448" height="448" x="-256" y="-688" stroke="#000" stroke-width="8" filter="url(#a)" opacity=".1" rx="24" ry="24" transform="scale(1 -1)rotate(90)"/><rect width="448" height="448" x="-256" y="-688" filter="url(#a)" opacity=".2" rx="24" ry="24" transform="scale(1 -1)rotate(90)"/><rect width="448" height="448" x="-252" y="-688" fill="#fff" rx="24" ry="24" transform="scale(1 -1)rotate(90)"/><path fill="#fff" d="M264-196c-13.296 0-24 10.704-24 24v2c0-13.296 10.704-24 24-24h400c13.296 0 24 10.704 24 24v-2c0-13.296-10.704-24-24-24z" opacity=".1"/><path d="M664 252c13.296 0 24-10.704 24-24v-2c0 13.296-10.704 24-24 24H264c-13.296 0-24-10.704-24-24v2c0 13.296 10.704 24 24 24z" opacity=".2"/><g fill-rule="evenodd"><g fill="#fff" opacity=".2"><path d="M585.178 120.942c-32.851 24.214-80.468 37.133-121.469 37.133-57.484 0-109.238-21.26-148.388-56.623-3.076-2.78-.32-6.57 3.371-4.404 42.252 24.583 94.492 39.372 148.464 39.372 36.395 0 76.433-7.53 113.246-23.156 5.561-2.362 10.212 3.642 4.774 7.678"/><path d="M598.835 105.314c-4.183-5.365-27.758-2.535-38.34-1.28-3.223.394-3.715-2.411-.812-4.43 18.776-13.213 49.586-9.4 53.179-4.97 3.592 4.454-.935 35.337-18.58 50.077-2.706 2.264-5.29 1.058-4.085-1.944 3.962-9.892 12.846-32.065 8.638-37.453"/></g><g fill="#f90"><path d="M585.178 118.8c-32.851 24.213-80.468 37.133-121.469 37.133-57.484 0-109.238-21.261-148.388-56.623-3.076-2.781-.32-6.57 3.371-4.405 42.252 24.583 94.492 39.373 148.464 39.373 36.395 0 76.433-7.53 113.246-23.157 5.561-2.362 10.212 3.642 4.774 7.678"/><path d="M598.835 103.171c-4.183-5.364-27.758-2.535-38.34-1.28-3.223.394-3.715-2.411-.812-4.429 18.776-13.214 49.586-9.4 53.179-4.97 3.592 4.453-.935 35.336-18.58 50.076-2.706 2.264-5.29 1.058-4.085-1.944 3.962-9.892 12.846-32.064 8.638-37.453"/></g><path fill="#fff" d="M483.465 19.81c0 13.634.345 25.002-6.546 37.11-5.561 9.843-14.37 15.896-24.214 15.896-13.437 0-21.262-10.237-21.262-25.346 0-29.825 26.724-35.24 52.021-35.24zm35.29 85.291c-2.314 2.067-5.66 2.215-8.269.837-11.615-9.647-13.682-14.125-20.08-23.328-19.194 19.589-32.778 25.445-57.683 25.445-29.43 0-52.366-18.16-52.366-54.532 0-28.398 15.405-47.74 37.306-57.19 18.998-8.367 45.526-9.844 65.802-12.157v-4.528c0-8.317.64-18.16-4.233-25.346-4.282-6.447-12.451-9.105-19.637-9.105-13.338 0-25.248 6.841-28.151 21.015-.591 3.15-2.904 6.25-6.054 6.399l-33.959-3.642c-2.854-.64-6.004-2.953-5.217-7.334 7.826-41.145 44.984-53.546 78.255-53.546 17.029 0 39.275 4.528 52.71 17.422 17.03 15.897 15.406 37.109 15.406 60.192v54.533c0 16.389 6.792 23.574 13.19 32.433 2.264 3.15 2.756 6.94-.099 9.301-7.136 5.956-19.834 17.03-26.822 23.232l-.099-.099" opacity=".2"/><path fill="#373737" d="M483.465 17.668c0 13.633.345 25.001-6.546 37.108-5.561 9.844-14.37 15.897-24.214 15.897-13.437 0-21.262-10.237-21.262-25.346 0-29.825 26.724-35.24 52.021-35.24v7.58m35.29 85.291c-2.314 2.067-5.66 2.215-8.269.837-11.615-9.646-13.682-14.125-20.08-23.328-19.194 19.589-32.778 25.445-57.683 25.445-29.43 0-52.366-18.16-52.366-54.532 0-28.398 15.405-47.74 37.306-57.19 18.998-8.367 45.526-9.843 65.802-12.157v-4.527c0-8.318.64-18.161-4.233-25.347-4.282-6.447-12.451-9.105-19.637-9.105-13.338 0-25.248 6.841-28.151 21.016-.591 3.15-2.904 6.25-6.054 6.398l-33.959-3.642c-2.854-.64-6.004-2.953-5.217-7.333 7.826-41.146 44.984-53.547 78.255-53.547 17.029 0 39.275 4.528 52.71 17.422 17.03 15.897 15.406 37.109 15.406 60.192v54.533c0 16.389 6.792 23.574 13.19 32.433 2.264 3.15 2.756 6.94-.099 9.302-7.136 5.955-19.834 17.028-26.822 23.23l-.099-.098"/></g></g></svg>