<svg width="512" height="512" enable-background="new" version="1.0" xmlns="http://www.w3.org/2000/svg" xmlns:osb="http://www.openswatchbook.org/uri/2009/osb" xmlns:xlink="http://www.w3.org/1999/xlink">
 <defs>
  <filter id="a" x="-.024" y="-.024" width="1.048" height="1.048" color-interpolation-filters="sRGB">
   <feGaussianBlur stdDeviation="4.8"/>
  </filter>
  <filter id="c" x="-.023103" y="-.02497" width="1.0462" height="1.0499" color-interpolation-filters="sRGB">
   <feGaussianBlur stdDeviation="2.1177604"/>
  </filter>
  <filter id="b" x="-.06" y="-.06" width="1.12" height="1.12" color-interpolation-filters="sRGB">
   <feGaussianBlur stdDeviation="10"/>
  </filter>
 </defs>
 <g transform="translate(0,212)">
  <g>
   <g transform="translate(-208,16)">
    <g>
     <path d="m464-208a240 240 0 0 0-240 240 240 240 0 0 0 33.691 122.08l-33.691 117.92 117.91-33.689a240 240 0 0 0 122.09 33.689 240 240 0 0 0 240-240 240 240 0 0 0-240-240z" filter="url(#a)" opacity=".1"/>
     <path d="m464-208a240 240 0 0 0-240 240 240 240 0 0 0 33.691 122.08l-33.691 117.92 117.91-33.689a240 240 0 0 0 122.09 33.689 240 240 0 0 0 240-240 240 240 0 0 0-240-240z" filter="url(#a)" opacity=".2"/>
     <path d="m464-210a240 240 0 0 0-240 240 240 240 0 0 0 33.691 122.08l-33.691 117.92 117.91-33.689a240 240 0 0 0 122.09 33.689 240 240 0 0 0 240-240 240 240 0 0 0-240-240z" opacity=".2"/>
    </g>
    <g>
     <path transform="translate(0,-244)" d="m464 32a240 240 0 0 0-240 240 240 240 0 0 0 33.691 122.08l-33.691 117.92 117.91-33.689a240 240 0 0 0 122.09 33.689 240 240 0 0 0 240-240 240 240 0 0 0-240-240z" fill="#f2f2f2"/>
     <path d="m464-164a200 200 0 0 0-200 200 200 200 0 0 0 35.447 113.29l-20.504 71.765 71.54-20.439a200 200 0 0 0 113.52 35.382 200 200 0 0 0 200-200 200 200 0 0 0-200-200z" filter="url(#b)" opacity=".2"/>
     <path d="m464-170a200 200 0 0 0-200 200 200 200 0 0 0 35.447 113.29l-20.504 71.765 71.54-20.439a200 200 0 0 0 113.52 35.382 200 200 0 0 0 200-200 200 200 0 0 0-200-200z" fill="#388e3c"/>
     <path d="m464-172a200 200 0 0 0-200 200 200 200 0 0 0 35.447 113.29l-20.504 71.765 71.54-20.439a200 200 0 0 0 113.52 35.382 200 200 0 0 0 200-200 200 200 0 0 0-200-200z" fill="#4caf50"/>
    </g>
    <path d="m546.51 132.54c16.492-7.8479 24.16-17.694 26.804-34.42 2.015-12.747 1.0847-13.746-24.003-25.782-31.9-15.304-29.934-15.377-43.676 1.6237-8.5525 10.58-12.228 14.013-15.003 14.013-4.253 0-25.065-10.074-35.583-17.223-16.187-11.003-44.928-44.471-44.928-52.316 0-1.4226 3.4603-6.6272 7.6896-11.566 12.435-14.521 12.449-14.877 1.5917-41.53-12.499-30.684-12.325-30.476-25.942-31.037-13.935-0.57426-18.339 1.6327-27.155 13.609-9.1221 12.391-12.379 22.36-12.304 37.659 0.0955 19.418 6.4854 35.008 24.982 60.953 31.753 44.539 62.732 68.713 107.36 83.777 27.296 9.2131 44.186 9.8416 60.164 2.2387z" enable-background="new" filter="url(#c)" opacity=".2"/>
    <path d="m546.51 124.54c16.492-7.8479 24.16-17.694 26.804-34.42 2.015-12.747 1.0847-13.746-24.003-25.782-31.9-15.304-29.934-15.377-43.676 1.6237-8.5525 10.58-12.228 14.013-15.003 14.013-4.253 0-25.065-10.074-35.583-17.223-16.187-11.003-44.928-44.471-44.928-52.316 0-1.4226 3.4603-6.6272 7.6896-11.566 12.435-14.521 12.449-14.877 1.5917-41.53-12.499-30.684-12.325-30.476-25.942-31.037-13.935-0.57426-18.339 1.6327-27.155 13.609-9.1221 12.391-12.379 22.36-12.304 37.659 0.0955 19.418 6.4854 35.008 24.982 60.953 31.753 44.539 62.732 68.713 107.36 83.777 27.296 9.2131 44.186 9.8416 60.164 2.2387z" enable-background="new" fill="#f2f2f2"/>
    <g fill="#fff">
     <path transform="translate(0,-244)" d="m464 72a200 200 0 0 0-200 200 200 200 0 0 0 0.043 0.8125 200 200 0 0 1 199.96-198.81 200 200 0 0 1 199.96 199.17 200 200 0 0 0 0.04102-1.1699 200 200 0 0 0-200-200zm-164.95 314.69-20.104 70.363 0.62305-0.17773 19.881-69.588a200 200 0 0 1-0.40039-0.59766z" opacity=".2"/>
     <path transform="translate(0,-244)" d="m390.96 170.23c-11.998-0.18685-16.385 2.4554-24.65 13.684-9.1221 12.391-12.378 22.359-12.303 37.658 8.7e-4 0.17648 0.0118 0.34758 0.0137 0.52344 0.14189-14.465 3.4669-24.198 12.289-36.182 8.8168-11.977 13.221-14.184 27.156-13.609 13.617 0.56116 13.442 0.35333 25.941 31.037 4.902 12.034 7.5809 18.7 7.9082 23.736 0.36977-5.2975-2.3312-12.046-7.9082-25.736-12.499-30.684-12.324-30.476-25.941-31.037-0.87095-0.0359-1.706-0.0618-2.5059-0.0742zm19.355 85.432c-0.11763 0.3164-0.18946 0.5849-0.18946 0.77539 0 7.846 28.741 41.314 44.928 52.316 10.518 7.1494 31.331 17.223 35.584 17.223 2.7754 0 6.4494-3.4334 15.002-14.014 13.742-17.001 11.776-16.927 43.676-1.623 19.171 9.197 24.221 11.963 24.645 18.438 0.42251-7.9936-3.6209-10.351-24.645-20.438-31.9-15.304-29.933-15.378-43.676 1.623-8.5525 10.58-12.227 14.014-15.002 14.014-4.253 0-25.066-10.073-35.584-17.223-15.459-10.508-42.351-41.492-44.738-51.092z" enable-background="new" opacity=".5"/>
     <path transform="translate(0,-244)" d="m464 32a240 240 0 0 0-240 240 240 240 0 0 0 0.043 0.80664 240 240 0 0 1 239.96-238.81 240 240 0 0 1 239.96 239.17 240 240 0 0 0 0.04102-1.1719 240 240 0 0 0-240-240zm-206.69 363.41-33.311 116.59 0.62305-0.17773 33.068-115.74a240 240 0 0 1-0.38086-0.66602z" opacity=".5"/>
    </g>
   </g>
  </g>
 </g>
</svg>
