<svg xmlns="http://www.w3.org/2000/svg" width="512" height="512" enable-background="new" version="1.0"><defs><filter id="a" width="1.048" height="1.048" x="-.024" y="-.024" color-interpolation-filters="sRGB"><feGaussianBlur stdDeviation="4.48"/></filter><filter id="b" width="1.15" height="1.1" x="-.075" y="-.05" color-interpolation-filters="sRGB"><feGaussianBlur stdDeviation="6.667"/></filter></defs><g transform="translate(-208 228)"><g transform="scale(1 -1)rotate(90)"><rect width="448" height="448" x="-256" y="-688" enable-background="new" filter="url(#a)" opacity=".2" rx="36" ry="36"/><rect width="448" height="448" x="-254" y="-688" enable-background="new" opacity=".2" rx="36" ry="36"/><rect width="448" height="448" x="-256" y="-688" stroke="#000" stroke-width="8" enable-background="new" filter="url(#a)" opacity=".1" rx="36" ry="36"/></g><rect width="448" height="448" x="-252" y="-688" fill="#333" enable-background="new" rx="36" ry="36" transform="scale(1 -1)rotate(90)"/><path fill="#fff" d="M276-196c-19.944 0-36 16.056-36 36v2c0-19.944 16.056-36 36-36h376c19.944 0 36 16.056 36 36v-2c0-19.944-16.056-36-36-36z" enable-background="new" opacity=".1"/><g fill-rule="evenodd"><path d="M367.33 202H474L580.67 42 474-118H367.33L474 42z" enable-background="new" filter="url(#b)" opacity=".2"/><path fill="#ff9800" d="M367.33 188H474L580.67 28 474-132H367.33L474 28z" enable-background="new"/><path fill="#fff" d="m367.33-132 1.334 2h105.33l106 159 .666-1-106.67-160zm106 161-106 159h1.334l105.33-158z" enable-background="new" opacity=".2"/></g></g></svg>