<svg xmlns="http://www.w3.org/2000/svg" width="512" height="512" enable-background="new" version="1.0"><defs><filter id="a" width="1.048" height="1.048" x="-.024" y="-.024" color-interpolation-filters="sRGB"><feGaussianBlur stdDeviation="4.48"/></filter></defs><g transform="translate(-208 228)"><rect width="448" height="448" x="-256" y="-688" stroke="#000" stroke-width="8" filter="url(#a)" opacity=".1" rx="224" ry="224" transform="scale(1 -1)rotate(90)"/><rect width="448" height="448" x="-256" y="-688" filter="url(#a)" opacity=".2" rx="224" ry="224" transform="scale(1 -1)rotate(90)"/><rect width="448" height="448" x="-252" y="-688" fill="#dc4e41" rx="224" ry="224" transform="scale(1 -1)rotate(90)"/><path fill="#fff" d="M464-196c-124.1 0-224 99.904-224 224 0 .674.003 1.336 0 2 0-124.1 99.904-224 224-224S688-94.096 688 30c-.003-.664 0-1.326 0-2 0-124.1-99.904-224-224-224" opacity=".2"/><path d="M464 252c-124.1 0-224-99.904-224-224 0-.674.003-1.336 0-2 0 124.1 99.904 224 224 224s224-99.904 224-224c-.003.664 0 1.326 0 2 0 124.1-99.904 224-224 224" opacity=".2"/></g><path fill="#fff" d="M202.67 149.333c-58.971 0-106.67 47.695-106.67 106.67 0 58.971 47.695 106.67 106.67 106.67 61.562 0 102.41-43.273 102.41-104.23 0-7.01-.782-12.345-1.696-17.679h-100.72v36.578h60.506c-2.439 15.689-18.301 46.013-60.511 46.013-36.42 0-66.13-30.171-66.13-67.352s29.71-67.351 66.13-67.351c20.724 0 34.577 8.84 42.5 16.459l28.952-27.887c-18.59-17.371-42.651-27.887-71.451-27.887zm152.38 60.952v30.476h-30.476v30.476h30.476v30.476h30.476v-30.476h30.476v-30.476h-30.476v-30.476z"/></svg>