<svg xmlns="http://www.w3.org/2000/svg" width="512" height="512" enable-background="new" version="1.0"><defs><clipPath id="b"><path d="M0 500h500V0H0z"/></clipPath><filter id="a" width="1.048" height="1.048" x="-.024" y="-.024" color-interpolation-filters="sRGB"><feGaussianBlur stdDeviation="4.48"/></filter></defs><g transform="translate(-208 228)"><rect width="448" height="448" x="-256" y="-688" stroke="#000" stroke-width="8" filter="url(#a)" opacity=".1" rx="224" ry="224" transform="scale(1 -1)rotate(90)"/><rect width="448" height="448" x="-256" y="-688" filter="url(#a)" opacity=".2" rx="224" ry="224" transform="scale(1 -1)rotate(90)"/><rect width="448" height="448" x="-252" y="-688" fill="#fff" rx="224" ry="224" transform="scale(1 -1)rotate(90)"/><path fill="#fff" d="M464-196c-124.1 0-224 99.904-224 224 0 .674.003 1.336 0 2 0-124.1 99.904-224 224-224S688-94.096 688 30c-.003-.664 0-1.326 0-2 0-124.1-99.904-224-224-224" opacity=".2"/><path d="M464 252c-124.1 0-224-99.904-224-224 0-.674.003-1.336 0-2 0 124.1 99.904 224 224 224s224-99.904 224-224c-.003.664 0 1.326 0 2 0 124.1-99.904 224-224 224" opacity=".2"/></g><g clip-path="url(#b)" transform="matrix(1.2 0 0 -1.2 -44.04 555.38)"><path fill="#3284ff" d="M372.47 250c0 8.088-.745 15.988-2.121 23.648h-117.81v-47.296h71.299c-4.626-16.372-14.354-30.373-27.363-40.04l36.789-29.273c24.249 22.879 39.207 56.044 39.207 92.961"/><path fill="#ff3424" d="M254.07 324.32c17.925 0 34.071-6.489 46.578-17.294l34.048 34.534c-21.261 20.737-49.964 33.436-82.163 33.436-47.989 0-90.779-28.187-111.61-69.213l41.798-31.867c10.686 29.38 39.085 50.404 71.345 50.404"/><path fill="#fb0" d="m141.71 192.7 40.305 32.064a74.8 74.8 0 0 0 .711 49.153l-41.798 31.867c-8.526-16.796-13.394-35.73-13.394-55.787 0-20.659 5.166-40.128 14.176-57.297"/><path fill="#26b14c" d="m182.02 224.77-40.305-32.064c21.103-40.205 63.426-67.704 110.82-67.704 31.474 0 59.616 12.125 80.724 32.039l-36.789 29.274c-11.842-8.799-26.393-14.015-42.398-14.015-33.012 0-61.974 22.012-72.056 52.47"/></g></svg>