<svg width="512" height="512" enable-background="new" version="1.0" xmlns="http://www.w3.org/2000/svg">
 <defs>
  <filter id="a" x="-.022395" y="-.025853" width="1.0448" height="1.0517" color-interpolation-filters="sRGB">
   <feGaussianBlur stdDeviation="4.1364844"/>
  </filter>
 </defs>
 <g transform="translate(0,212)">
  <g>
   <g transform="translate(-208,16)">
    <g>
     <path d="m387.91-160 4e-3 0.0215-116.39 201.58-29.176 50.551 75.9 131.85 0.0488-0.0859-0.02145 0.0859h291.12l76.246-131.7-145.56-252.12-152.16-0.18164h-0.0176zm75.773 131.24 35.131 60.848 34.656 60.027 0.10938 0.02539-139.02-0.14453 29.137-50.4 35.217-60.857 5.0801-8.7422-0.0645-0.11328-0.25-0.64258z" filter="url(#a)" opacity=".1"/>
     <path d="m387.91-160 4e-3 0.0215-116.39 201.58-29.176 50.551 75.9 131.85 0.0488-0.0859-0.02145 0.0859h291.12l76.246-131.7-145.56-252.12-152.16-0.18164h-0.0176zm75.773 131.24 35.131 60.848 34.656 60.027 0.10938 0.02539-139.02-0.14453 29.137-50.4 35.217-60.857 5.0801-8.7422-0.0645-0.11328-0.25-0.64258z" filter="url(#a)" opacity=".2"/>
     <path d="m387.91-162 4e-3 0.0215-116.39 201.58-29.176 50.551 75.9 131.85 0.0488-0.0859-0.02145 0.0859h291.12l76.246-131.7-145.56-252.12-152.16-0.18164h-0.0176zm75.773 131.24 35.131 60.848 34.656 60.027 0.10938 0.02539-139.02-0.14453 29.137-50.4 35.217-60.857 5.0801-8.7422-0.0645-0.11328-0.25-0.64258z" opacity=".2"/>
    </g>
    <g transform="matrix(2.4 0 0 2.4 897.4 -365.6)" enable-background="new">
     <path transform="translate(0,-4)" d="m-212.28 88-48.5 84h63.406l16.781-29-12-31z" fill="#0ca55f"/>
     <path d="m-212.29 84 63.407 0.07592 60.651 105.05-32.354 6.8743-31.053-6.9502z" fill="#fdd04b"/>
     <path d="m-241.3 244 9.3011-36 22.476-19 121.29 0.12571-31.769 54.874z" fill="#4186fb"/>
     <g>
      <path d="m-241.3 244 31.777-55 28.874 0.12571z" opacity=".1"/>
      <path d="m-88.231 189.13-63.407-0.0759-14.441-25.012z" opacity=".1"/>
      <path d="m-212.29 84 31.704 55-14.506 24.962z" opacity=".1"/>
     </g>
     <path transform="translate(0,-4)" d="m-260.78 172-12.156 21.062 31.625 54.938 43.938-76-26.625-16z" fill="#0ca55f"/>
    </g>
    <path transform="translate(0,-244)" d="m387.91 80 4e-3 0.02148-116.39 201.58-29.176 50.551 0.57617 1.002 28.6-49.553 116.39-201.58-0.0039-0.021484h0.0176l152.16 0.18164 144.98 251.12 0.57813-0.99805-145.56-252.12-152.16-0.18164zm7.8105 252-1.1562 1.998 139.02 0.14453-0.10938-0.0254-1.1406-1.9766z" fill="#fff" opacity=".2"/>
   </g>
  </g>
 </g>
</svg>
