<svg xmlns="http://www.w3.org/2000/svg" width="512" height="512" enable-background="new" version="1.0"><defs><filter id="a" width="1.048" height="1.048" x="-.024" y="-.024" color-interpolation-filters="sRGB"><feGaussianBlur stdDeviation="4.48"/></filter></defs><g transform="translate(-208 228)"><g transform="scale(1 -1)rotate(90)"><rect width="448" height="448" x="-254" y="-688" enable-background="new" opacity=".2" rx="36" ry="36"/><rect width="448" height="448" x="-256" y="-688" enable-background="new" filter="url(#a)" opacity=".1" rx="36" ry="36"/><rect width="448" height="448" x="-256" y="-688" enable-background="new" filter="url(#a)" opacity=".2" rx="36" ry="36"/></g><rect width="448" height="448" x="-252" y="-688" fill="#fa4778" enable-background="new" rx="36" ry="36" transform="scale(1 -1)rotate(90)"/><path fill="#fff" d="M276-196c-19.944 0-36 16.056-36 36v2c0-19.944 16.056-36 36-36h376c19.944 0 36 16.056 36 36v-2c0-19.944-16.056-36-36-36z" enable-background="new" opacity=".2"/><path fill="#fff" fill-rule="evenodd" d="M384.01-116c-8.836 0-15.999 7.164-16 16v256c.005 14.961 18.71 21.732 28.291 10.242L471.504 76h56.506a16 16 0 0 0 15.689-12.861l32-160c1.98-9.9-5.593-19.138-15.689-19.139zm24 32h126s6.712-1.147 5.252 6.15l-7.394 36.971S530.526-36 525.51-36h-65.5c-12 0-12 12-12 12v8s0 12 12.304 11.774L520.51-4c4.418-.285 3.175 4.035 3.175 4.035l-8.018 40.096C516.01 40 515.351 44 512.01 44h-48c-4.748 0-9.251 2.11-12.291 5.758l-51.709 62.05v-187.81s0-8 8-8z" color="#000" enable-background="accumulate" style="isolation:auto;mix-blend-mode:normal;text-decoration-color:#000;text-decoration-line:none;text-decoration-style:solid;text-indent:0;text-transform:none;white-space:normal"/></g></svg>