<svg xmlns="http://www.w3.org/2000/svg" width="512" height="512" version="1.0"><g transform="translate(-208 228)"><path fill="#ff5722" fill-rule="evenodd" d="M681.58 27.211a24 24 0 0 0-12.404-20.232l-377.59-208c-15.995-8.808-35.577 2.762-35.58 21.021v416c.003 18.26 19.585 29.829 35.58 21.021l377.59-208A24 24 0 0 0 681.58 27.21z" color="#000" style="isolation:auto;mix-blend-mode:normal;text-decoration-color:#000;text-decoration-line:none;text-decoration-style:solid;text-indent:0;text-transform:none;white-space:normal"/><path fill="#f9ce1d" d="M464-164c-106.04 0-192 85.961-192 192 .034 76.499 45.478 145.68 115.67 176.09L653.45 57.68a192 192 0 0 0 2.549-29.682c0-106.04-85.961-192-192-192z"/><circle cx="464" cy="28" r="112" fill="#ff9800"/><g fill="#fff"><path d="M467-36v71.875C463.835 34.74 460.555 34 457 34c-16.568 0-30 13.432-30 30s13.432 30 30 30 30-13.432 30-30V-6h30v-30z"/><path d="M464-36v71.875C460.835 34.74 457.555 34 454 34c-16.568 0-30 13.432-30 30s13.432 30 30 30 30-13.432 30-30V-6h30v-30z"/></g></g></svg>