<svg xmlns="http://www.w3.org/2000/svg" width="64" height="64" viewBox="0 0 16.933 16.933"><defs><filter id="b" width="1.152" height="1.159" x="-.076" y="-.079" color-interpolation-filters="sRGB"><feGaussianBlur stdDeviation=".272"/></filter><filter id="a" width="1.122" height="1.127" x="-.061" y="-.063" color-interpolation-filters="sRGB"><feGaussianBlur stdDeviation=".272"/></filter></defs><path fill-rule="evenodd" d="M6.427 2.646A5.369 4.954 0 0 1 11.795 7.6a5.369 4.954 0 0 1-5.368 4.954 5.369 4.954 0 0 1-2.288-.478c-.939.8-1.936.876-1.936.876.538-.614.895-1.442.903-1.461A5.369 4.954 0 0 1 1.058 7.6a5.369 4.954 0 0 1 5.369-4.954" filter="url(#a)" opacity=".15"/><path fill="#8fe25a" fill-rule="evenodd" d="M6.427 2.25a5.369 4.954 0 0 1 5.368 4.954 5.369 4.954 0 0 1-5.368 4.954 5.369 4.954 0 0 1-2.288-.478c-.939.8-1.936.876-1.936.876.538-.614.895-1.442.903-1.461a5.369 4.954 0 0 1-2.048-3.891A5.369 4.954 0 0 1 6.427 2.25"/><path fill-rule="evenodd" d="M11.582 6.838a4.293 3.961 0 0 0-4.293 3.961 4.293 3.961 0 0 0 4.293 3.962 4.293 3.961 0 0 0 1.83-.382c.75.639 1.547.7 1.547.7-.43-.49-.715-1.153-.722-1.168a4.293 3.961 0 0 0 1.638-3.112 4.293 3.961 0 0 0-4.293-3.961" filter="url(#b)" opacity=".15"/><path fill="#f2f2f2" fill-rule="evenodd" d="M11.582 6.442a4.293 3.961 0 0 0-4.293 3.961 4.293 3.961 0 0 0 4.293 3.962 4.293 3.961 0 0 0 1.83-.382c.75.639 1.547.7 1.547.7-.43-.49-.715-1.153-.722-1.168a4.293 3.961 0 0 0 1.638-3.112 4.293 3.961 0 0 0-4.293-3.961"/><circle cx="4.445" cy="5.544" r=".826" fill="#4d4d4d" fill-rule="evenodd"/><circle cx="8.296" cy="5.544" r=".826" fill="#4d4d4d" fill-rule="evenodd"/><circle cx="9.998" cy="9.087" r=".66" fill="#4d4d4d" fill-rule="evenodd"/><circle cx="13.078" cy="9.087" r=".66" fill="#4d4d4d" fill-rule="evenodd"/></svg>