<svg width="512" height="512" enable-background="new" version="1.0" xmlns="http://www.w3.org/2000/svg">
 <defs>
  <filter id="a" x="-.024" y="-.024" width="1.048" height="1.048" color-interpolation-filters="sRGB">
   <feGaussianBlur stdDeviation="4.48"/>
  </filter>
 </defs>
 <g transform="translate(0,212)">
  <g transform="translate(-208,16)">
   <rect transform="matrix(0,-1,-1,0,0,0)" x="-254" y="-688" width="448" height="448" rx="36" ry="36" opacity=".2"/>
   <rect transform="matrix(0,-1,-1,0,0,0)" x="-256" y="-688" width="448" height="448" rx="36" ry="36" filter="url(#a)" opacity=".1"/>
   <rect transform="matrix(0,-1,-1,0,0,0)" x="-256" y="-688" width="448" height="448" rx="36" ry="36" filter="url(#a)" opacity=".2"/>
   <rect transform="matrix(0,-1,-1,0,0,0)" x="-252" y="-688" width="448" height="448" rx="36" ry="36" fill="#992b2b"/>
   <path d="m276-196c-19.944 0-36 16.056-36 36v2c0-19.944 16.056-36 36-36h376c19.944 0 36 16.056 36 36v-2c0-19.944-16.056-36-36-36z" fill="#fff" opacity=".2"/>
   <g transform="matrix(5.5625 -5.5625 5.5625 5.5625 -1916.8 -483.75)" enable-background="new">
    <path transform="matrix(.089888 .089888 -.089888 .089888 150.74 193.84)" d="m464 94-83.438 83.438 83.438 83.438 83.438-83.438zm-94.562 94.562-83.438 83.438 83.438 83.438 83.438-83.438zm189.12 0-83.438 83.438 83.438 83.438 83.438-83.438zm-94.562 94.562-83.438 83.438 83.438 83.438 83.438-83.438z" fill="#fff"/>
   </g>
  </g>
 </g>
</svg>
