<svg width="512" height="512" enable-background="new" version="1.0" xmlns="http://www.w3.org/2000/svg">
 <defs>
  <filter id="a" x="-.024" y="-.024" width="1.048" height="1.048" color-interpolation-filters="sRGB">
   <feGaussianBlur stdDeviation="4.48"/>
  </filter>
  <filter id="e" x="-.06" y="-.06" width="1.12" height="1.12" color-interpolation-filters="sRGB">
   <feGaussianBlur stdDeviation="6"/>
  </filter>
  <filter id="c" x="-.024" y="-.024" width="1.048" height="1.048" color-interpolation-filters="sRGB">
   <feGaussianBlur stdDeviation="2.4"/>
  </filter>
 </defs>
 <g transform="translate(0,212)"></g>
 <g transform="translate(0,212)">
  <g transform="translate(-208 653.8)">
   <rect transform="matrix(0,-1,-1,0,0,0)" x="386" y="-688" width="448" height="448" rx="36" ry="36" opacity=".2"/>
   <rect transform="matrix(0,-1,-1,0,0,-640)" x="-256" y="-688" width="448" height="448" rx="36" ry="36" filter="url(#a)" opacity=".1"/>
   <rect transform="matrix(0,-1,-1,0,0,-640)" x="-256" y="-688" width="448" height="448" rx="36" ry="36" filter="url(#a)" opacity=".2"/>
   <rect transform="matrix(0,-1,-1,0,0,0)" x="388" y="-688" width="448" height="448" rx="36" ry="36" fill="#992b2b"/>
   <path d="m276-836c-19.944 0-36 16.056-36 36v2c0-19.944 16.056-36 36-36h376c19.944 0 36 16.056 36 36v-2c0-19.944-16.056-36-36-36z" fill="#fff" opacity=".2"/>
   <g transform="matrix(5.5625 -5.5625 5.5625 5.5625 -1916.8 -1123.8)" enable-background="new">
    <path transform="matrix(.089888 .089888 -.089888 .089888 150.74 193.84)" d="m464 94-83.438 83.438 83.438 83.438 83.438-83.438zm-94.562 94.562-83.438 83.438 83.438 83.438 83.438-83.438zm189.12 0-83.438 83.438 83.438 83.438 83.438-83.438zm-94.562 94.562-83.438 83.438 83.438 83.438 83.438-83.438z" fill="#fff"/>
   </g>
   <circle cx="584" cy="-486" r="120" enable-background="new" filter="url(#e)" opacity=".2"/>
   <circle cx="584" cy="-490" r="120" enable-background="new" filter="url(#c)" opacity=".2"/>
   <circle cx="584" cy="-492" r="120" enable-background="new" fill="#5f7c8a"/>
   <path d="m566-564-1.5859 18.965a56.571 56.571 0 0 0-16.535 9.5625l-17.236-8.1172-18 31.18 15.65 10.867a56.571 56.571 0 0 0-0.8653 9.543 56.571 56.571 0 0 0 0.8242 9.582l-15.609 10.828 18 31.18 17.197-8.0957a56.571 56.571 0 0 0 16.572 9.502l1.5879 19.004h36l1.5859-18.965a56.571 56.571 0 0 0 16.535-9.5625l17.236 8.1172 18-31.18-15.65-10.867a56.571 56.571 0 0 0 0.8653-9.543 56.571 56.571 0 0 0-0.8242-9.582l15.609-10.828-18-31.18-17.197 8.0957a56.571 56.571 0 0 0-16.572-9.502l-1.5879-19.004zm18 48a24 24 0 0 1 24 24 24 24 0 0 1-24 24 24 24 0 0 1-24-24 24 24 0 0 1 24-24z" enable-background="new" fill="#fff"/>
  </g>
 </g>
</svg>
