<svg xmlns="http://www.w3.org/2000/svg" width="512" height="512" enable-background="new" version="1.0"><defs><filter id="a" width="1.048" height="1.048" x="-.024" y="-.024" color-interpolation-filters="sRGB"><feGaussianBlur stdDeviation="4.48"/></filter><filter id="b" width="1.12" height="1.12" x="-.06" y="-.06" color-interpolation-filters="sRGB"><feGaussianBlur stdDeviation="6"/></filter><filter id="c" width="1.048" height="1.048" x="-.024" y="-.024" color-interpolation-filters="sRGB"><feGaussianBlur stdDeviation="2.4"/></filter></defs><g transform="translate(-208 865.8)"><rect width="448" height="448" x="386" y="-688" opacity=".2" rx="36" ry="36" transform="scale(1 -1)rotate(90)"/><rect width="448" height="448" x="-256" y="-688" filter="url(#a)" opacity=".1" rx="36" ry="36" transform="matrix(0 -1 -1 0 0 -640)"/><rect width="448" height="448" x="-256" y="-688" filter="url(#a)" opacity=".2" rx="36" ry="36" transform="matrix(0 -1 -1 0 0 -640)"/><rect width="448" height="448" x="388" y="-688" fill="#992b2b" rx="36" ry="36" transform="scale(1 -1)rotate(90)"/><path fill="#fff" d="M276-836c-19.944 0-36 16.056-36 36v2c0-19.944 16.056-36 36-36h376c19.944 0 36 16.056 36 36v-2c0-19.944-16.056-36-36-36z" opacity=".2"/><path fill="#fff" d="m463.928-790.056-83.438 83.438 83.438 83.439 83.438-83.439zm-94.562 94.563-83.439 83.438 83.439 83.438 83.438-83.438zm189.12 0-83.438 83.438 83.438 83.438 83.439-83.438zm-94.562 94.562-83.438 83.438 83.438 83.439 83.438-83.439z"/><circle cx="584" cy="-486" r="120" enable-background="new" filter="url(#b)" opacity=".2"/><circle cx="584" cy="-490" r="120" enable-background="new" filter="url(#c)" opacity=".2"/><circle cx="584" cy="-492" r="120" fill="#5f7c8a" enable-background="new"/><path fill="#fff" d="m566-564-1.586 18.965a56.6 56.6 0 0 0-16.535 9.563l-17.236-8.118-18 31.18 15.65 10.867a56.6 56.6 0 0 0-.865 9.543 56.6 56.6 0 0 0 .824 9.582l-15.609 10.828 18 31.18 17.197-8.095a56.6 56.6 0 0 0 16.572 9.502L566-420h36l1.586-18.965a56.6 56.6 0 0 0 16.535-9.563l17.236 8.117 18-31.18-15.65-10.867a56.6 56.6 0 0 0 .865-9.543 56.6 56.6 0 0 0-.824-9.582l15.609-10.828-18-31.18-17.197 8.096a56.6 56.6 0 0 0-16.572-9.502L602-564zm18 48a24 24 0 0 1 24 24 24 24 0 0 1-24 24 24 24 0 0 1-24-24 24 24 0 0 1 24-24" enable-background="new"/></g></svg>