<svg xmlns="http://www.w3.org/2000/svg" width="512" height="512" enable-background="new" version="1.0"><defs><filter id="a" width="1.048" height="1.048" x="-.024" y="-.024" color-interpolation-filters="sRGB"><feGaussianBlur stdDeviation="4.48"/></filter></defs><g transform="translate(-208 228)"><g transform="scale(1 -1)rotate(90)"><rect width="448" height="448" x="-254" y="-688" opacity=".2" rx="36" ry="36"/><rect width="448" height="448" x="-256" y="-688" filter="url(#a)" opacity=".1" rx="36" ry="36"/><rect width="448" height="448" x="-256" y="-688" filter="url(#a)" opacity=".2" rx="36" ry="36"/></g><rect width="448" height="448" x="-252" y="-688" fill="#2196f3" rx="36" ry="36" transform="scale(1 -1)rotate(90)"/><path fill="#fff" d="M276-196c-19.944 0-36 16.056-36 36v2c0-19.944 16.056-36 36-36h376c19.944 0 36 16.056 36 36v-2c0-19.944-16.056-36-36-36z" opacity=".2"/><path fill="#1565c0" d="M558.83-116c-103.03 7.684-157.28 69.248-182.5 127-19.372 44.354-22.368 79.448-23.167 97l-113.17-.002v32h128c8.433 0 16.087-7.734 16-16.167 0 0-.442-49.381 21.667-100 19.82-45.381 55.805-90.366 129-104.17-42.939 111.8 11.333 212.17 11.333 212.17 2.774 4.94 8.335 8.184 14 8.167h128v-32h-117.67c-9.596-19.751-46.28-105.9 3.833-200.5 2.69-5.03 2.407-11.513-.71-16.29-3.116-4.775-8.937-7.646-14.623-7.21z" color="#000" enable-background="accumulate" style="text-decoration-line:none;text-indent:0;text-transform:none"/></g></svg>