<svg xmlns="http://www.w3.org/2000/svg" width="512" height="512" enable-background="new" version="1.0"><defs><filter id="a" width="1.043" height="1.054" x="-.021" y="-.027" color-interpolation-filters="sRGB"><feGaussianBlur stdDeviation="4"/></filter><filter id="b" width="1.043" height="1.054" x="-.022" y="-.027" color-interpolation-filters="sRGB"><feGaussianBlur stdDeviation="2.232"/></filter></defs><g transform="translate(-208 852)"><rect width="352" height="448" x="-208" y="-688" filter="url(#a)" opacity=".2" rx="24" ry="24" transform="matrix(0 -1 -1 0 0 -624)"/><rect width="352" height="448" x="-208" y="-688" stroke="#000" stroke-width="8" filter="url(#a)" opacity=".1" rx="24" ry="24" transform="matrix(0 -1 -1 0 0 -624)"/><path fill="#03a9f4" d="M264-772c-13.296 0-24 10.704-24 24v304c0 13.296 10.704 24 24 24h400c13.296 0 24-10.704 24-24v-304c0-13.296-10.704-24-24-24z"/><path fill="#fff" d="M264-772c-13.296 0-24 10.704-24 24v2c0-13.296 10.704-24 24-24h400c13.296 0 24 10.704 24 24v-2c0-13.296-10.704-24-24-24z" opacity=".2"/><path d="M264-420c-13.296 0-24-10.704-24-24v-2c0 13.296 10.704 24 24 24h400c13.296 0 24-10.704 24-24v2c0 13.296-10.704 24-24 24z" opacity=".1"/><rect width="199.5" height="247" x="408" y="-712" enable-background="new" filter="url(#b)" opacity=".2" rx="7.5" ry="8" transform="matrix(0 -1 -1 0 0 16)"/><rect width="200" height="247" x="396" y="-712" fill="#eee" enable-background="new" rx="7.519" ry="8" transform="scale(1 -1)rotate(90)"/><path fill="#fff" d="M473-596c-4.432 0-8 3.354-8 7.52v2c0-4.166 3.568-7.52 8-7.52h231c4.432 0 8 3.354 8 7.52v-2c0-4.166-3.568-7.52-8-7.52z" enable-background="new" opacity=".6"/></g></svg>