<svg width="512" height="512" version="1.1" viewBox="0 0 135.46 135.46" xmlns="http://www.w3.org/2000/svg">
 <defs>
  <filter id="a" x="-.024" y="-.024" width="1.048" height="1.048" color-interpolation-filters="sRGB">
   <feGaussianBlur stdDeviation="4.8"/>
  </filter>
 </defs>
 <g transform="matrix(.26458 0 0 .26458 2.2436e-8 56.091)">
  <g transform="translate(-208,16)">
   <circle cx="464" cy="30" r="240" opacity=".2"/>
   <circle cx="464" cy="32" r="240" filter="url(#a)" opacity=".1"/>
   <circle cx="464" cy="32" r="240" filter="url(#a)" opacity=".2"/>
   <circle cx="464" cy="28" r="240" fill="#5984eb"/>
   <path transform="translate(0,-244)" d="m 464,32 a 240,240 0 0 0 -240,240 240,240 0 0 0 0.041,1.17188 A 240,240 0 0 1 464,34 240,240 0 0 1 703.95898,272.82812 240,240 0 0 0 704,272 240,240 0 0 0 464,32 Z" fill="#fff" opacity=".2"/>
  </g>
 </g>
 <path d="m25.328 42.096c-2.4356 0-3.9911 2.1867-2.9689 4.3911l24.187 52.365 2.1778 4.7111c1.0044 2.1867 2.72 4.3378 5.12 4.3822 2.4-0.0444 4.1156-2.1956 5.12-4.3822l12.276-26.578 9.7067-20.978c0.67555-1.4756 2.2489-2.9333 3.8756-2.9333h10.276c0.18667 0.0089 0.36444 0.03556 0.53333 0.07111 0.04445 0 0.08889 0.03556 0.12444 0.05333a1.9733 1.9733 0 0 1 1.2444 2.8089l-7.68 16.64-0.96889 2.08-3.84 8.32-0.96889 2.08-0.48889 1.0667-0.47111 1.0133c-0.17778 0.44445-0.36445 0.98667-0.96001 0.97778-0.60444 9e-3 -0.8-0.58667-0.96-0.97778l-3.84-8.32-0.96889-2.08-0.46222-1.0044-5.8667 12.658 6.9778 15.111c1.0133 2.1867 2.7289 4.3378 5.12 4.3733 2.4-0.0444 4.1156-2.1867 5.1289-4.3822l2.1689-4.7111 24.187-52.356c1.0222-2.2133-0.53333-4.4-2.9689-4.4h-30.72c-2.4356 0-4.8 2.1867-5.8133 4.3911l-14.089 30.498h0.0178l-0.88889 1.9022-0.95111 2.08-0.96001 2.08-0.96889 2.08-0.96 2.08c-0.16 0.39111-0.35555 0.98667-0.96 0.97778-0.58667 9e-3 -0.78222-0.53333-0.96-0.97778l-0.46222-1.0044-0.49778-1.0667-0.96-2.0889-0.96889-2.08-2.88-6.24-0.96-2.08-7.6889-16.64c-0.68444-1.4756 0.35556-2.9333 1.9822-2.9333h10.213c1.6178 0 3.2 1.4578 3.8756 2.9333l5.9289 12.836 5.8756-12.676-4.4622-9.6889c-1.0222-2.1956-3.3778-4.3822-5.8222-4.3822h-10.996z" fill="#fff" stroke-width="8.8889" style="paint-order:stroke markers fill"/>
</svg>
