<svg xmlns="http://www.w3.org/2000/svg" width="512" height="512" enable-background="new" version="1.0"><defs><filter id="a" width="1.048" height="1.048" x="-.024" y="-.024" color-interpolation-filters="sRGB"><feGaussianBlur stdDeviation="4.48"/></filter></defs><g transform="translate(-208 228)"><rect width="448" height="448" x="-254" y="-688" opacity=".2" rx="36" ry="36" transform="scale(1 -1)rotate(90)"/><rect width="448" height="448" x="-256" y="-688" filter="url(#a)" opacity=".1" rx="36" ry="36" transform="scale(1 -1)rotate(90)"/><rect width="448" height="448" x="-256" y="-688" filter="url(#a)" opacity=".2" rx="36" ry="36" transform="scale(1 -1)rotate(90)"/><rect width="448" height="448" x="-252" y="-688" fill="#2196f3" rx="36" ry="36" transform="scale(1 -1)rotate(90)"/><path fill="#fff" d="M276-196c-19.944 0-36 16.056-36 36v2c0-19.944 16.056-36 36-36h376c19.944 0 36 16.056 36 36v-2c0-19.944-16.056-36-36-36z" opacity=".2"/><path fill="none" stroke="#fff" stroke-linecap="round" stroke-linejoin="round" stroke-width="32" d="M336-68v192L464 12l128 112V-68"/></g></svg>