<svg xmlns="http://www.w3.org/2000/svg" width="512" height="512" viewBox="0 0 135.46 135.46"><defs><filter id="a" width="1.048" height="1.048" x="-.024" y="-.024" color-interpolation-filters="sRGB"><feGaussianBlur stdDeviation="4.8"/></filter></defs><g transform="translate(-55.033 60.324)scale(.26458)"><circle cx="464" cy="30" r="240" opacity=".2"/><circle cx="464" cy="32" r="240" filter="url(#a)" opacity=".1"/><circle cx="464" cy="32" r="240" filter="url(#a)" opacity=".2"/><circle cx="464" cy="28" r="240" fill="#5984eb"/><path fill="#fff" d="M464-212A240 240 0 0 0 224 28l.041 1.172A240 240 0 0 1 464-210 240 240 0 0 1 703.959 28.828L704 28a240 240 0 0 0-240-240" opacity=".2"/></g><path fill="#fff" d="M25.328 42.096c-2.436 0-3.991 2.187-2.969 4.391l24.187 52.365 2.178 4.711c1.004 2.187 2.72 4.338 5.12 4.382 2.4-.044 4.115-2.195 5.12-4.382L71.24 76.985l9.707-20.978c.675-1.475 2.248-2.933 3.875-2.933h10.276q.28.015.534.071c.044 0 .088.036.124.053A1.973 1.973 0 0 1 97 56.008l-7.68 16.64-.969 2.08-3.84 8.32-.968 2.08-.49 1.066-.47 1.013c-.178.445-.365.987-.96.978-.605.009-.8-.587-.96-.978l-3.84-8.32-.97-2.08-.462-1.004-5.866 12.658 6.978 15.11c1.013 2.188 2.728 4.339 5.12 4.374 2.4-.044 4.115-2.187 5.128-4.382l2.17-4.711 24.186-52.356c1.023-2.213-.533-4.4-2.969-4.4h-30.72c-2.435 0-4.8 2.187-5.813 4.39L59.516 76.986h.018l-.889 1.902-.951 2.08-.96 2.08-.969 2.08-.96 2.08c-.16.391-.355.987-.96.978-.587.009-.782-.533-.96-.978l-.462-1.004-.498-1.067-.96-2.089-.969-2.08-2.88-6.24-.96-2.08-7.689-16.64c-.684-1.475.356-2.933 1.982-2.933h10.213c1.618 0 3.2 1.458 3.876 2.933l5.929 12.836 5.876-12.676-4.463-9.689c-1.022-2.195-3.377-4.382-5.822-4.382H45.062z" style="paint-order:stroke markers fill"/></svg>