<svg width="512" height="512" enable-background="new" version="1.0" xmlns="http://www.w3.org/2000/svg">
 <defs>
  <filter id="a" x="-.024" y="-.024" width="1.048" height="1.048" color-interpolation-filters="sRGB">
   <feGaussianBlur stdDeviation="4.48"/>
  </filter>
 </defs>
 <g transform="translate(0,212)"></g>
 <g transform="translate(0,212)">
  <g transform="translate(-208,656)">
   <rect transform="matrix(0,-1,-1,0,0,0)" x="386" y="-688" width="448" height="448" rx="36" ry="36" opacity=".2"/>
   <rect transform="matrix(0,-1,-1,0,0,-640)" x="-256" y="-688" width="448" height="448" rx="36" ry="36" filter="url(#a)" opacity=".1"/>
   <rect transform="matrix(0,-1,-1,0,0,-640)" x="-256" y="-688" width="448" height="448" rx="36" ry="36" filter="url(#a)" opacity=".2"/>
   <rect transform="matrix(0,-1,-1,0,0,0)" x="388" y="-688" width="448" height="448" rx="36" ry="36" fill="#f57c00"/>
   <path d="m276-836c-19.944 0-36 16.056-36 36v2c0-19.944 16.056-36 36-36h376c19.944 0 36 16.056 36 36v-2c0-19.944-16.056-36-36-36z" fill="#fff" opacity=".2"/>
   <path d="m352-516v-96.085h191.84s47.957 0 47.957-47.957-47.957-47.957-47.957-47.957h-191.84" fill="none" stroke="#fff" stroke-linecap="round" stroke-linejoin="round" stroke-width="31.972"/>
  </g>
 </g>
</svg>
