<svg xmlns="http://www.w3.org/2000/svg" width="512" height="512" enable-background="new" version="1.0"><defs><filter id="a" width="1.048" height="1.048" x="-.024" y="-.024" color-interpolation-filters="sRGB"><feGaussianBlur stdDeviation="4.48"/></filter></defs><g transform="translate(-208 868)"><rect width="448" height="448" x="386" y="-688" opacity=".2" rx="36" ry="36" transform="scale(1 -1)rotate(90)"/><rect width="448" height="448" x="-256" y="-688" filter="url(#a)" opacity=".1" rx="36" ry="36" transform="matrix(0 -1 -1 0 0 -640)"/><rect width="448" height="448" x="-256" y="-688" filter="url(#a)" opacity=".2" rx="36" ry="36" transform="matrix(0 -1 -1 0 0 -640)"/><rect width="448" height="448" x="388" y="-688" fill="#f57c00" rx="36" ry="36" transform="scale(1 -1)rotate(90)"/><path fill="#fff" d="M276-836c-19.944 0-36 16.056-36 36v2c0-19.944 16.056-36 36-36h376c19.944 0 36 16.056 36 36v-2c0-19.944-16.056-36-36-36z" opacity=".2"/><path fill="none" stroke="#fff" stroke-linecap="round" stroke-linejoin="round" stroke-width="31.972" d="M352-516v-96.085h191.84s47.957 0 47.957-47.957-47.957-47.957-47.957-47.957H352"/></g></svg>