<svg xmlns="http://www.w3.org/2000/svg" width="64" height="64" viewBox="0 0 16.933 16.933"><defs><filter id="a" width="1.078" height="1.067" x="-.039" y="-.033" color-interpolation-filters="sRGB"><feGaussianBlur stdDeviation=".206"/></filter></defs><g fill-rule="evenodd"><path d="M3.44 1.354a1.32 1.32 0 0 0-1.323 1.323v12.171c0 .733.59 1.323 1.323 1.323h10.054a1.32 1.32 0 0 0 1.322-1.323V4.53l-3.175-3.175z" filter="url(#a)" opacity=".15" style="paint-order:stroke fill markers"/><path fill="#dc4c3a" d="M3.44 1.058a1.32 1.32 0 0 0-1.323 1.323v12.171c0 .733.59 1.323 1.323 1.323h10.054a1.32 1.32 0 0 0 1.322-1.323V4.233l-3.174-3.175z" style="paint-order:stroke fill markers"/><path fill="#e78275" d="m14.816 4.233-3.175-3.175V2.91c0 .733.59 1.323 1.323 1.323z" style="paint-order:stroke fill markers"/><path fill="#fff" d="M7.805 5.556a.396.396 0 0 0-.397.397v3.175a.396.396 0 1 0 .794 0V6.35h1.323a1.85 1.85 0 0 1 1.852 1.852 1.85 1.85 0 0 1-1.852 1.852h-2.91v.006a1.72 1.72 0 0 0-1.588 1.713 1.72 1.72 0 0 0 1.72 1.72h1.058c.22 0 .397-.177.397-.397v-1.323a.396.396 0 1 0-.794 0v.927h-.661a.926.926 0 0 1-.926-.927.926.926 0 0 1 .926-.926h2.778a2.646 2.646 0 0 0 2.646-2.645 2.646 2.646 0 0 0-2.646-2.646z" style="paint-order:stroke fill markers"/><path d="M11.641 2.91v.155c0 .794.59 1.433 1.323 1.433h1.852v-.265h-1.852A1.32 1.32 0 0 1 11.64 2.91" opacity=".1" style="paint-order:stroke fill markers"/></g></svg>