<svg xmlns="http://www.w3.org/2000/svg" width="512" height="512" enable-background="new" version="1.0"><defs><filter id="a" width="1.048" height="1.048" x="-.024" y="-.024" color-interpolation-filters="sRGB"><feGaussianBlur stdDeviation="4.48"/></filter></defs><g transform="translate(-208 228)"><g transform="scale(1 -1)rotate(90)"><rect width="448" height="448" x="-256" y="-688" enable-background="new" filter="url(#a)" opacity=".2" rx="36" ry="36"/><rect width="448" height="448" x="-254" y="-688" enable-background="new" opacity=".2" rx="36" ry="36"/><rect width="448" height="448" x="-256" y="-688" stroke="#000" stroke-width="8" enable-background="new" filter="url(#a)" opacity=".1" rx="36" ry="36"/></g><rect width="448" height="448" x="-252" y="-688" fill="#e53935" enable-background="new" rx="36" ry="36" transform="scale(1 -1)rotate(90)"/><path fill="#fff" d="M276-196c-19.944 0-36 16.056-36 36v2c0-19.944 16.056-36 36-36h376c19.944 0 36 16.056 36 36v-2c0-19.944-16.056-36-36-36z" enable-background="new" opacity=".2"/><path fill="#fff" d="M394.63-66.454c-.754.008-1.605.072-2.582.13-3.702.227-73.57 12.75-78.018 13.984-4.7 1.306-8.716 4.063-9.695 6.68-1.67 4.445 3.17 18.894 9.56 28.595 10.997 16.686 27.006 27.347 60.67 40.318 18.488 7.124 22.338 8.92 24.762 11.64 3.183 3.573.544 5.297-23.875 15.647-38.167 16.178-55.32 29.94-62.63 50.295-2.16 6.016-3.162 21.922-1.64 25.925 1.975 5.19 3.166 5.143 40.043-1.553 37.045-6.728 38.78-7.121 41.869-9.923 2.516-2.282 2.66-2.833 3.759-13.63.633-6.188 1.94-13.891 2.9-17.092 2.224-7.433 7.819-15.195 13.91-19.3 23.108-15.567 66.597-7.805 90.132 16.084 8.868 9 14.436 18.562 18.88 32.52 2.564 8.056 5.168 11.553 9.212 12.323 3.72.707 3.812.689 50.947-7.878 26.219-4.766 37.131-7.084 38.674-8.233 3.314-2.471 3.327-8.518.024-18.51-5.666-17.168-15.496-29.676-33.704-42.88-9.008-6.533-20.382-12.709-39.641-21.537-18.318-8.396-22.076-10.668-22.076-13.276 0-2.156 2.229-3.117 16.759-7.278 31.838-9.121 44.26-21.916 44.26-45.607 0-10.397-2.05-18.786-5.237-21.508-4.239-3.621-8.762-3.736-26.561-.654-57.055 9.876-55.409 9.491-58.064 13.603-1.404 2.174-1.343 2.685 1.239 12.567 1.478 5.666 2.669 11.659 2.66 13.303-.024 3.497-2.486 9.339-4.807 11.422-5.68 5.094-18.556 8.56-31.744 8.56-15.952 0-27.971-5.25-39.91-17.42-8.626-8.793-13.03-16.208-18.906-31.866-5.161-13.752-5.869-15.545-11.172-15.457z" enable-background="new"/></g></svg>