<svg width="512" height="512" enable-background="new" version="1.0" xmlns="http://www.w3.org/2000/svg" xmlns:osb="http://www.openswatchbook.org/uri/2009/osb" xmlns:xlink="http://www.w3.org/1999/xlink">
 <defs>
  <filter id="a" x="-.024" y="-.024" width="1.048" height="1.048" color-interpolation-filters="sRGB">
   <feGaussianBlur stdDeviation="4.48"/>
  </filter>
 </defs>
 <g transform="translate(0,212)">
  <g></g>
  <g transform="translate(-208,16)">
   <g>
    <rect transform="matrix(0,-1,-1,0,0,0)" x="-256" y="-688" width="448" height="448" rx="36" ry="36" enable-background="new" filter="url(#a)" opacity=".2"/>
    <rect transform="matrix(0,-1,-1,0,0,0)" x="-254" y="-688" width="448" height="448" rx="36" ry="36" enable-background="new" opacity=".2"/>
    <rect transform="matrix(0,-1,-1,0,0,0)" x="-256" y="-688" width="448" height="448" rx="36" ry="36" enable-background="new" filter="url(#a)" opacity=".1" stroke="#000" stroke-width="8"/>
   </g>
   <rect transform="matrix(0,-1,-1,0,0,0)" x="-252" y="-688" width="448" height="448" rx="36" ry="36" enable-background="new" fill="#e53935"/>
   <path transform="translate(0,-244)" d="m276 48c-19.944 0-36 16.056-36 36v2c0-19.944 16.056-36 36-36h376c19.944 0 36 16.056 36 36v-2c0-19.944-16.056-36-36-36z" enable-background="new" fill="#fff" opacity=".2"/>
   <path transform="translate(1.7497e-6)" d="m394.63-66.454c-0.7544 8e-3 -1.6048 0.072-2.5818 0.1304-3.7025 0.2264-73.571 12.749-78.018 13.984-4.7011 1.3053-8.7158 4.0629-9.6953 6.679-1.6703 4.4458 3.1705 18.895 9.5606 28.596 10.996 16.686 27.005 27.347 60.669 40.318 18.488 7.1234 22.338 8.9204 24.762 11.64 3.1835 3.5724 0.5448 5.2969-23.875 15.647-38.167 16.178-55.32 29.939-62.63 50.295-2.1587 6.0152-3.1618 21.922-1.6398 25.925 1.9754 5.1887 3.1661 5.1427 40.043-1.5538 37.045-6.7272 38.78-7.1209 41.869-9.9227 2.5163-2.2821 2.6602-2.8325 3.7592-13.63 0.6328-6.1874 1.9406-13.891 2.9-17.092 2.2242-7.4329 7.8186-15.195 13.911-19.3 23.107-15.567 66.596-7.8044 90.131 16.084 8.8678 9.0009 14.436 18.562 18.88 32.521 2.5642 8.0547 5.1682 11.552 9.2121 12.322 3.7202 0.7072 3.8117 0.6888 50.947-7.8783 26.219-4.7657 37.131-7.0834 38.674-8.2325 3.3143-2.4711 3.3274-8.5181 0.024-18.51-5.6662-17.168-15.496-29.676-33.704-42.881-9.0078-6.5324-20.382-12.708-39.641-21.536-18.318-8.3965-22.076-10.668-22.076-13.276 0-2.1561 2.2286-3.1168 16.759-7.2785 31.838-9.1209 44.26-21.916 44.26-45.607 0-10.397-2.0496-18.786-5.237-21.508-4.239-3.6206-8.7621-3.7352-26.561-0.6536-57.055 9.8762-55.409 9.4912-58.064 13.603-1.4042 2.1744-1.343 2.6847 1.2386 12.567 1.4784 5.6656 2.669 11.659 2.6602 13.303-0.024 3.497-2.4858 9.3389-4.8072 11.422-5.6802 5.094-18.556 8.5598-31.744 8.5598-15.952 0-27.971-5.2491-39.909-17.419-8.6265-8.7938-13.03-16.209-18.907-31.867-5.1608-13.752-5.8686-15.545-11.172-15.457z" enable-background="new" fill="#fff"/>
  </g>
 </g>
</svg>
