<svg width="64" height="64" version="1.1" xmlns="http://www.w3.org/2000/svg" xmlns:xlink="http://www.w3.org/1999/xlink">
 <defs>
  <filter id="a-3" x="-.024" y="-.024" width="1.048" height="1.048" color-interpolation-filters="sRGB">
   <feGaussianBlur stdDeviation="4.48"/>
  </filter>
 </defs>
 <rect transform="matrix(0 -.125 -.125 0 -26 28)" x="-256" y="-688" width="448" height="448" rx="36" ry="36" enable-background="new" filter="url(#a-3)" opacity=".1"/>
 <rect transform="matrix(0 -.125 -.125 0 -26 29.016)" x="-256" y="-688" width="448" height="448" rx="36" ry="36" enable-background="new" filter="url(#a-3)" opacity=".2"/>
 <g transform="translate(0 .5)" stroke-width=".125">
  <rect transform="matrix(0,-1,-1,0,0,0)" x="-59.5" y="-60" width="56" height="56" rx="4.5" ry="4.5" enable-background="new" fill="#d7dddf"/>
  <path d="m8.5 3.5c-2.493 0-4.5 2.007-4.5 4.5v0.25c0-2.493 2.007-4.5 4.5-4.5h47c2.493 0 4.5 2.007 4.5 4.5v-0.25c0-2.493-2.007-4.5-4.5-4.5z" enable-background="new" fill="#ffffff" opacity=".2"/>
 </g>
 <g transform="translate(-384.57,-499.8)" font-size="12.666px">
  <text x="730.88" y="132.19" font-family="'Droid Sans'"/>
 </g>
 <rect x="45.98" y="22.53" width=".045" height="0" fill="#000cff" opacity=".40741"/>
 <g transform="matrix(1.3125 0 0 1.3125 .5 -.15625)">
  <path d="m11.29 37.991 9.8168-12.85-10.107-14.129 6.4959 0.0054 8.0532 11.11-12.041 15.864h-2.2181zm19.214 0.009123-7.9976-11.129 12.141-15.871h2.1633l-9.8569 12.911 10.046 14.089z" fill="#3a3d40"/>
  <path d="m23.999 15.929c-0.781 0-1.6154 0.05974-2.3665 0.13098 1.3382 1.7243 2.4486 3.1844 3.7265 4.8426-0.71726-1.5249-2.1914-2.9872-1.6818-3.7392 0.50447-0.74443 1.434-0.61913 1.5048-0.61913 1.4902 0 2.9247 0.16627 4.2657 0.474l0.31435-0.42769c-1.7887-0.45489-3.7314-0.66152-5.763-0.66152zm8.071 1.3916-0.28953 0.40862c4.1318 1.5985 6.9267 4.6516 6.9267 8.1506 0 5.1524-6.0588 9.3329-13.525 9.3329-7.4664 0-13.528-4.1805-13.528-9.3329 1e-6 -2.8059 1.7975-5.3245 4.6408-7.0365l-0.87411-1.3158c-4.4601 1.8683-7.4202 5.1475-7.4202 8.8807 0 5.8086 7.1669 10.521 15.999 10.521 8.8317 0 16.001-4.712 16.001-10.521 0-3.8733-3.1874-7.2608-7.9304-9.0878z" fill="#f49239"/>
 </g>
</svg>
