<svg xmlns="http://www.w3.org/2000/svg" width="64" height="64"><defs><filter id="a" width="1.048" height="1.048" x="-.024" y="-.024" color-interpolation-filters="sRGB"><feGaussianBlur stdDeviation="4.48"/></filter></defs><rect width="448" height="448" x="-256" y="-688" enable-background="new" filter="url(#a)" opacity=".1" rx="36" ry="36" transform="matrix(0 -.125 -.125 0 -26 28)"/><rect width="448" height="448" x="-256" y="-688" enable-background="new" filter="url(#a)" opacity=".2" rx="36" ry="36" transform="matrix(0 -.125 -.125 0 -26 29.016)"/><g stroke-width=".125" transform="translate(0 .5)"><rect width="56" height="56" x="-59.5" y="-60" fill="#d7dddf" enable-background="new" rx="4.5" ry="4.5" transform="scale(1 -1)rotate(90)"/><path fill="#fff" d="M8.5 3.5A4.49 4.49 0 0 0 4 8v.25a4.49 4.49 0 0 1 4.5-4.5h47a4.49 4.49 0 0 1 4.5 4.5V8a4.49 4.49 0 0 0-4.5-4.5z" enable-background="new" opacity=".2"/></g><path fill="#3a3d40" d="M15.318 49.707 28.203 32.84 14.937 14.297l8.526.007 10.57 14.582-15.804 20.821zm25.219.012L30.04 35.112l15.935-20.83h2.839L35.877 31.226 49.062 49.72z"/><path fill="#f49239" d="M31.999 20.75c-1.025 0-2.12.079-3.106.172 1.756 2.264 3.213 4.18 4.89 6.356-.94-2.001-2.876-3.92-2.207-4.907.662-.977 1.882-.813 1.975-.813 1.956 0 3.839.218 5.6.622l.412-.561c-2.348-.597-4.898-.868-7.564-.868m10.593 1.827-.38.536c5.423 2.098 9.091 6.106 9.091 10.698 0 6.763-7.952 12.25-17.751 12.25s-17.756-5.487-17.756-12.25c0-3.683 2.36-6.988 6.091-9.235l-1.147-1.727C14.886 25.3 11 29.605 11 34.505c0 7.623 9.407 13.808 21 13.808 11.591 0 21-6.184 21-13.808 0-5.084-4.183-9.53-10.408-11.928z"/></svg>