<svg xmlns="http://www.w3.org/2000/svg" width="512" height="512" enable-background="new" version="1.0"><defs><filter id="a" width="1.045" height="1.051" x="-.023" y="-.025" color-interpolation-filters="sRGB"><feGaussianBlur stdDeviation="4.24"/></filter><filter id="b" width="1.043" height="1.054" x="-.021" y="-.027" color-interpolation-filters="sRGB"><feGaussianBlur stdDeviation="3.44"/></filter></defs><path d="M264-160c-13.296 0-24 10.704-24 24v352c0 13.296 10.704 24 24 24h400c13.296 0 24-10.704 24-24v-352c0-13.296-10.704-24-24-24z" filter="url(#a)" opacity=".1" transform="translate(-208 228)"/><path d="M264-160c-13.296 0-24 10.704-24 24v352c0 13.296 10.704 24 24 24h400c13.296 0 24-10.704 24-24v-352c0-13.296-10.704-24-24-24z" filter="url(#a)" opacity=".2" transform="translate(-208 228)"/><path d="M56 66c-13.296 0-24 10.704-24 24v352c0 13.296 10.704 24 24 24h400c13.296 0 24-10.704 24-24V90c0-13.296-10.704-24-24-24z" opacity=".2"/><path fill="#2f7f8b" d="M32 112v328c0 13.296 10.704 24 24 24h400c13.296 0 24-10.704 24-24V112z"/><path d="M64 130h384v296s0 8-8 8H72s-8 0-8-8z" opacity=".2"/><path d="M272-98h384v296s0 8-8 8H280s-8 0-8-8z" filter="url(#b)" opacity=".2" transform="translate(-208 228)"/><path fill="#81c6d5" d="M64 128h384v296s0 8-8 8H72s-8 0-8-8z"/><path fill="#4d4d4d" d="M56 64c-13.296 0-24 10.704-24 24v40h448V88c0-13.296-10.704-24-24-24z"/><path fill="#fff" d="M56 64c-13.296 0-24 10.704-24 24v2c0-13.296 10.704-24 24-24h400c13.296 0 24 10.704 24 24v-2c0-13.296-10.704-24-24-24z" opacity=".1"/><path fill="#f1f8e9" d="M104.57 348v4.014q-2.294.473-4.184 1.484-1.854.979-3.17 2.361a10 10 0 0 0-2.023 3.104 9.4 9.4 0 0 0-.709 3.61q0 1.99.71 3.677a10.2 10.2 0 0 0 2.022 3.035q1.35 1.35 3.272 2.463 1.955 1.113 4.418 2.023v12.346q-1.754-.37-3.068-1.248a14.2 14.2 0 0 1-2.43-2.125l-1.955-2.43-4.217 5.938q2.294 2.53 5.229 4.115c2.934 1.585 3.991 1.765 6.105 2.125V396h6.914v-3.71q2.53-.506 4.52-1.653c1.99-1.147 2.45-1.675 3.373-2.732a11.4 11.4 0 0 0 2.16-3.508q.742-1.956.742-4.082 0-2.26-.709-4.014a9.4 9.4 0 0 0-2.125-3.205q-1.383-1.416-3.475-2.496-2.091-1.079-4.824-1.955V358.49a7.4 7.4 0 0 1 2.397 1.047q1.145.742 1.82 1.517c.565.715 1.79 2.26 1.79 2.26l4.08-5.16q-1.99-2.396-4.452-4.016a14.3 14.3 0 0 0-5.297-2.226V348zm.336 10.424v7.725q-1.754-.608-2.461-1.754-.709-1.147-.709-2.227 0-1.485.877-2.43.877-.944 2.293-1.314m6.242 17.539q2.09.742 3.069 1.957 1.011 1.215 1.011 2.834 0 1.956-1.146 3.137-1.113 1.181-2.934 1.822zM136 392v8h32v-8z" color="#bebebe" enable-background="accumulate"/></svg>