<svg xmlns="http://www.w3.org/2000/svg" width="512" height="512" enable-background="new" version="1.0"><defs><filter id="b" width="1.12" height="1.12" x="-.06" y="-.06" color-interpolation-filters="sRGB"><feGaussianBlur stdDeviation="4.8"/></filter><filter id="a" width="1.049" height="1.047" x="-.024" y="-.024" color-interpolation-filters="sRGB"><feGaussianBlur stdDeviation="4.42"/></filter></defs><path d="M210.25 481.99c-4.749-.518-9.132-4.303-10-9l-9.25-48c-16.965-6.634-33.01-15.801-47-27l-46.5 15.75c-4.836 1.668-10.652-.594-13.25-5l-45-77.5c-.97-1.719-1.267-3.756-1.107-5.766.035.407.098.809.18 1.206.084 1.043.3 2.075.677 3.06.068-.188.15-.367.227-.549q.011.024.023.05l45 77.5c2.598 4.405 8.414 6.667 13.25 5l46.5-15.75c13.99 11.198 30.035 20.365 47 27l9.25 48c.868 4.696 5.251 8.481 10 9 .35.007.65.007 1 0h89.5c5.11-.07 10.042-3.982 11-9l9.25-48c16.965-6.635 33.01-15.802 47-27l46.5 15.75c4.836 1.667 10.652-.595 13.25-5l45-77.5.025-.05c.076.182.156.358.225.55.419-1.09.664-2.23.764-3.378q.103-.548.15-1.107c.173 2.072-.167 4.219-1.164 5.984l-45 77.5c-2.598 4.406-8.414 6.668-13.25 5L368 397.99c-13.99 11.2-30.035 20.366-47 27l-9.25 48c-.958 5.02-5.89 8.93-11 9h-89.5c-.35.008-.65.008-1 0zM38.32 324.66q-.017-.217-.025-.436.085-.5.205-.988c-.087.469-.143.945-.18 1.424m435.45-.348c-.01-.108-.005-.218-.018-.326.012.061.017.124.028.186zM78 277.236c-.72-6.328-1.25-12.695-1.25-19.25 0 .466.03.927.065 1.387.143 5.368.59 10.632 1.185 15.863l.756-.566c.083.605.154 1.212.244 1.816zm356 0-1-.75c.09-.605.16-1.212.242-1.818l.758.568c.594-5.223 1.04-10.479 1.184-15.838.036-.468.066-.938.066-1.412 0 6.555-.53 12.921-1.25 19.25zm-356-46.5-36.25-32c-1.41-1.212-2.18-2.788-2.75-4.5.167-.435.037-.985.22-1.412.55 1.481 1.286 2.842 2.53 3.912l36.25 32c.21-1.849.469-3.658.738-5.478l.262.228c-.364 2.435-.722 4.802-1 7.25m-39-36.5a7 7 0 0 1-.248-.898c.073.303.15.606.248.898m-.248-.898a12 12 0 0 1-.252-1.352c.092.484.158.918.252 1.352m395.25 37.398c-.278-2.449-.635-4.815-1-7.25l.262-.229c.269 1.82.528 3.63.738 5.479l36.25-32c1.244-1.07 1.98-2.431 2.53-3.912.184.427.053.977.22 1.412-.57 1.712-1.34 3.288-2.75 4.5z" enable-background="new" opacity=".2"/><path stroke="#000" stroke-width="8" d="M418.15-191.99c-4.749.518-8.932 4.402-9.8 9.1l-9.45 47.949c-16.965 6.634-32.909 15.75-46.899 26.949l-46.549-15.75c-4.835-1.668-10.702.493-13.3 4.9l-44.799 77.699c-2.523 4.468-1.44 10.653 2.45 14l37.1 32.549c-1.307 8.727-2.1 17.508-2.1 26.6s.794 17.872 2.1 26.599l-37.1 32.549c-3.89 3.346-4.973 9.53-2.45 14l44.8 77.698c2.598 4.406 8.463 6.567 13.3 4.9L352 172.002c13.99 11.199 29.935 20.315 46.9 26.95l9.45 47.949c.957 5.019 5.74 9.03 10.85 9.1h89.597c5.11-.065 9.892-4.081 10.85-9.1l9.45-47.95c16.965-6.634 32.909-15.75 46.899-26.95l46.549 15.75c4.836 1.668 10.702-.493 13.3-4.9l44.799-77.697c2.523-4.47 1.441-10.653-2.45-14l-37.099-32.55c1.306-8.727 2.1-17.507 2.1-26.598s-.794-17.872-2.1-26.6l37.1-32.55c3.89-3.346 4.972-9.53 2.449-14l-44.799-77.698c-2.598-4.407-8.464-6.568-13.3-4.9l-46.549 15.75c-13.99-11.2-29.935-20.315-46.899-26.95l-9.45-47.948c-.958-5.02-5.74-9.03-10.85-9.1H419.2q-.525-.012-1.05 0z" enable-background="new" filter="url(#a)" opacity=".1" transform="translate(-208 228)"/><path d="M418.15-191.99c-4.749.518-8.932 4.402-9.8 9.1l-9.45 47.949c-16.965 6.634-32.909 15.75-46.899 26.949l-46.549-15.75c-4.835-1.668-10.702.493-13.3 4.9l-44.799 77.699c-2.523 4.468-1.44 10.653 2.45 14l37.1 32.549c-1.307 8.727-2.1 17.508-2.1 26.6s.794 17.872 2.1 26.599l-37.1 32.549c-3.89 3.346-4.973 9.53-2.45 14l44.8 77.698c2.598 4.406 8.463 6.567 13.3 4.9L352 172.002c13.99 11.199 29.935 20.315 46.9 26.95l9.45 47.949c.957 5.019 5.74 9.03 10.85 9.1h89.597c5.11-.065 9.892-4.081 10.85-9.1l9.45-47.95c16.965-6.634 32.909-15.75 46.899-26.95l46.549 15.75c4.836 1.668 10.702-.493 13.3-4.9l44.799-77.697c2.523-4.47 1.441-10.653-2.45-14l-37.099-32.55c1.306-8.727 2.1-17.507 2.1-26.598s-.794-17.872-2.1-26.6l37.1-32.55c3.89-3.346 4.972-9.53 2.449-14l-44.799-77.698c-2.598-4.407-8.464-6.568-13.3-4.9l-46.549 15.75c-13.99-11.2-29.935-20.315-46.899-26.95l-9.45-47.948c-.958-5.02-5.74-9.03-10.85-9.1H419.2q-.525-.012-1.05 0z" enable-background="new" filter="url(#a)" opacity=".2" transform="translate(-208 228)"/><path fill="#4caf50" d="M210.15 32.01c-4.749.518-8.932 4.402-9.8 9.1l-9.45 47.949c-16.965 6.634-32.909 15.75-46.899 26.949l-46.549-15.75c-4.836-1.668-10.702.493-13.3 4.9l-44.799 77.699c-2.523 4.468-1.44 10.653 2.45 14l37.1 32.549c-1.307 8.727-2.1 17.508-2.1 26.6s.794 17.872 2.1 26.599l-37.1 32.549c-3.89 3.346-4.973 9.53-2.45 14l44.8 77.698c2.598 4.406 8.463 6.567 13.3 4.9L144 396.002c13.99 11.199 29.935 20.315 46.9 26.95l9.45 47.949c.957 5.019 5.74 9.03 10.85 9.1h89.597c5.11-.065 9.892-4.081 10.85-9.1l9.45-47.95c16.965-6.634 32.909-15.75 46.899-26.95l46.549 15.75c4.836 1.668 10.702-.493 13.3-4.9l44.799-77.697c2.523-4.47 1.441-10.653-2.45-14l-37.099-32.55c1.306-8.727 2.1-17.507 2.1-26.598s-.794-17.872-2.1-26.6l37.1-32.55c3.89-3.346 4.972-9.53 2.449-14l-44.799-77.698c-2.598-4.407-8.464-6.568-13.3-4.9l-46.549 15.75c-13.99-11.2-29.935-20.315-46.899-26.95l-9.45-47.948c-.958-5.02-5.74-9.03-10.85-9.1H211.2q-.525-.012-1.05 0z" enable-background="new"/><path d="M464-59.999c53.019 0 96 42.981 96 96s-42.981 96-96 96-96-42.981-96-96 42.981-96 96-96" enable-background="new" filter="url(#b)" opacity=".2" transform="translate(-208 228)"/><path fill="#fff" d="M256 160.001c53.019 0 96 42.981 96 96s-42.981 96-96 96-96-42.981-96-96 42.981-96 96-96" enable-background="new"/><path fill="#fff" d="M210.25 32c-4.749.518-9.132 4.303-10 9L191 89c-16.965 6.634-33.01 15.801-47 27l-46.5-15.75c-4.836-1.667-10.652.594-13.25 5l-45 77.5c-.97 1.719-1.267 3.756-1.107 5.766.035-.407.098-.809.18-1.205.084-1.043.3-2.076.677-3.061.068.188.15.367.227.549q.011-.024.023-.05l45-77.5c2.598-4.405 8.414-6.667 13.25-5L144 118c13.99-11.198 30.035-20.365 47-27l9.25-48c.868-4.696 5.251-8.481 10-9 .35-.007.65-.007 1 0h89.5c5.11.07 10.042 3.982 11 9L321 91c16.965 6.635 33.01 15.802 47 27l46.5-15.75c4.836-1.667 10.652.595 13.25 5l45 77.5.025.05c.076-.182.156-.358.225-.55.419 1.09.664 2.23.764 3.378q.103.548.15 1.107c.173-2.071-.167-4.219-1.164-5.984l-45-77.5c-2.598-4.406-8.414-6.668-13.25-5L368 116c-13.99-11.2-30.035-20.366-47-27l-9.25-48c-.958-5.02-5.89-8.93-11-9h-89.5c-.35-.008-.65-.008-1 0M38.32 189.33q-.017.217-.025.436.085.5.205.988a14 14 0 0 1-.18-1.424m435.45.348c-.01.108-.005.218-.018.326.012-.061.017-.124.028-.186zM78 236.754c-.72 6.328-1.25 12.695-1.25 19.25 0-.466.03-.927.065-1.387.143-5.368.59-10.632 1.185-15.863l.756.566c.083-.605.154-1.212.244-1.816zm356 0-1 .75c.09.605.16 1.212.242 1.818l.758-.568c.594 5.223 1.04 10.479 1.184 15.838.036.468.066.938.066 1.412 0-6.555-.53-12.921-1.25-19.25zm-356 46.5-36.25 32c-1.41 1.212-2.18 2.788-2.75 4.5.167.435.037.985.22 1.412.55-1.481 1.286-2.842 2.53-3.912l36.25-32c.21 1.849.469 3.658.738 5.478l.262-.228c-.364-2.435-.722-4.802-1-7.25m-39 36.5a7 7 0 0 0-.248.898c.073-.303.15-.606.248-.898m-.248.898c-.108.446-.197.897-.252 1.352.092-.484.158-.918.252-1.352m395.25-37.398c-.278 2.449-.635 4.815-1 7.25l.262.229c.269-1.82.528-3.63.738-5.479l36.25 32c1.244 1.07 1.98 2.431 2.53 3.912.184-.427.053-.977.22-1.412-.57-1.712-1.34-3.288-2.75-4.5z" enable-background="new" opacity=".2"/><path d="M210.25 479.99c-4.749-.518-9.132-4.303-10-9l-9.25-48c-16.965-6.634-33.01-15.801-47-27l-46.5 15.75c-4.836 1.668-10.652-.594-13.25-5l-45-77.5c-.97-1.719-1.267-3.756-1.107-5.766.035.407.098.809.18 1.206.084 1.043.3 2.075.677 3.06.068-.188.15-.367.227-.549q.011.024.023.05l45 77.5c2.598 4.405 8.414 6.667 13.25 5l46.5-15.75c13.99 11.198 30.035 20.365 47 27l9.25 48c.868 4.696 5.251 8.481 10 9 .35.007.65.007 1 0h89.5c5.11-.07 10.042-3.982 11-9l9.25-48c16.965-6.635 33.01-15.802 47-27l46.5 15.75c4.836 1.667 10.652-.595 13.25-5l45-77.5.025-.05c.076.182.156.358.225.55.419-1.09.664-2.23.764-3.378q.103-.548.15-1.107c.173 2.072-.167 4.219-1.164 5.984l-45 77.5c-2.598 4.406-8.414 6.668-13.25 5L368 395.99c-13.99 11.2-30.035 20.366-47 27l-9.25 48c-.958 5.02-5.89 8.93-11 9h-89.5c-.35.008-.65.008-1 0zM38.32 322.66q-.017-.217-.025-.436.085-.5.205-.988c-.087.469-.143.945-.18 1.424m435.45-.348c-.01-.108-.005-.218-.018-.326.012.061.017.124.028.186zM78 275.236c-.72-6.328-1.25-12.695-1.25-19.25 0 .466.03.927.065 1.387.143 5.368.59 10.632 1.185 15.863l.756-.566c.083.605.154 1.212.244 1.816zm356 0-1-.75c.09-.605.16-1.212.242-1.818l.758.568c.594-5.223 1.04-10.479 1.184-15.838.036-.468.066-.938.066-1.412 0 6.555-.53 12.921-1.25 19.25zm-356-46.5-36.25-32c-1.41-1.212-2.18-2.788-2.75-4.5.167-.435.037-.985.22-1.412.55 1.481 1.286 2.842 2.53 3.912l36.25 32c.21-1.849.469-3.658.738-5.478l.262.228c-.364 2.435-.722 4.802-1 7.25m-39-36.5a7 7 0 0 1-.248-.898c.073.303.15.606.248.898m-.248-.898a12 12 0 0 1-.252-1.352c.092.484.158.918.252 1.352m395.25 37.398c-.278-2.449-.635-4.815-1-7.25l.262-.229c.269 1.82.528 3.63.738 5.479l36.25-32c1.244-1.07 1.98-2.431 2.53-3.912.184.427.053.977.22 1.412-.57 1.712-1.34 3.288-2.75 4.5z" enable-background="new" opacity=".1"/></svg>