<svg width="512" height="512" enable-background="new" version="1.0" xmlns="http://www.w3.org/2000/svg">
 <title>Paper Icon Theme Template</title>
 <defs>
  <filter id="c" x="-.02044" y="-.029062" width="1.0409" height="1.0581" color-interpolation-filters="sRGB">
   <feGaussianBlur stdDeviation="4.0880076"/>
  </filter>
  <filter id="b" x="-.02044" y="-.029062" width="1.0409" height="1.0581" color-interpolation-filters="sRGB">
   <feGaussianBlur stdDeviation="4.0880076"/>
  </filter>
  <filter id="a" x="-.06" y="-.06" width="1.12" height="1.12" color-interpolation-filters="sRGB">
   <feGaussianBlur stdDeviation="6"/>
  </filter>
 </defs>
 <g transform="translate(0,212)"></g>
 <g transform="translate(0,212)">
  <g>
   <g transform="translate(-208,656)">
    <g>
     <path d="m699.1-705.17s-4.6898-33.077-19.083-47.643c-18.253-19.118-38.712-19.213-48.094-20.332-67.169-4.8552-167.93-4.8552-167.93-4.8552h-0.20866s-100.75 0-167.93 4.8552c-9.3829 1.1193-29.835 1.2143-48.094 20.332-14.391 14.566-19.075 47.643-19.075 47.643s-4.8003 38.844-4.8003 77.687v36.416c0 38.843 4.8003 77.686 4.8003 77.686s4.6833 33.078 19.075 47.644c18.259 19.118 42.244 18.513 52.927 20.517 38.4 3.6823 163.2 4.8218 163.2 4.8218s100.86-0.15181 168.03-5.007c9.3824-1.1193 29.842-1.2137 48.094-20.332 14.393-14.566 19.083-47.644 19.083-47.644s4.7932-38.843 4.7932-77.686v-36.416c0-38.843-4.7932-77.687-4.7932-77.687" enable-background="new" opacity=".2"/>
     <path d="m699.1-703.17s-4.6898-33.077-19.083-47.643c-18.253-19.118-38.712-19.213-48.094-20.332-67.169-4.8552-167.93-4.8552-167.93-4.8552h-0.20866s-100.75 0-167.93 4.8552c-9.3829 1.1193-29.835 1.2143-48.094 20.332-14.391 14.566-19.075 47.643-19.075 47.643s-4.8003 38.844-4.8003 77.687v36.416c0 38.843 4.8003 77.686 4.8003 77.686s4.6833 33.078 19.075 47.644c18.259 19.118 42.244 18.513 52.927 20.517 38.4 3.6823 163.2 4.8218 163.2 4.8218s100.86-0.15181 168.03-5.007c9.3824-1.1193 29.842-1.2137 48.094-20.332 14.393-14.566 19.083-47.644 19.083-47.644s4.7932-38.843 4.7932-77.686v-36.416c0-38.843-4.7932-77.687-4.7932-77.687" enable-background="new" filter="url(#c)" opacity=".1"/>
     <path d="m699.1-703.17s-4.6898-33.077-19.083-47.643c-18.253-19.118-38.712-19.213-48.094-20.332-67.169-4.8552-167.93-4.8552-167.93-4.8552h-0.20866s-100.75 0-167.93 4.8552c-9.3829 1.1193-29.835 1.2143-48.094 20.332-14.391 14.566-19.075 47.643-19.075 47.643s-4.8003 38.844-4.8003 77.687v36.416c0 38.843 4.8003 77.686 4.8003 77.686s4.6833 33.078 19.075 47.644c18.259 19.118 42.244 18.513 52.927 20.517 38.4 3.6823 163.2 4.8218 163.2 4.8218s100.86-0.15181 168.03-5.007c9.3824-1.1193 29.842-1.2137 48.094-20.332 14.393-14.566 19.083-47.644 19.083-47.644s4.7932-38.843 4.7932-77.686v-36.416c0-38.843-4.7932-77.687-4.7932-77.687" enable-background="new" filter="url(#b)" opacity=".2"/>
    </g>
    <g>
     <path d="m699.1-707.17s-4.6898-33.077-19.083-47.643c-18.253-19.118-38.712-19.213-48.094-20.332-67.169-4.8552-167.93-4.8552-167.93-4.8552h-0.20866s-100.75 0-167.93 4.8552c-9.3829 1.1193-29.835 1.2143-48.094 20.332-14.391 14.566-19.075 47.643-19.075 47.643s-4.8003 38.844-4.8003 77.687v36.416c0 38.843 4.8003 77.686 4.8003 77.686s4.6833 33.078 19.075 47.644c18.259 19.118 42.244 18.513 52.927 20.517 38.4 3.6823 163.2 4.8218 163.2 4.8218s100.86-0.15181 168.03-5.007c9.3824-1.1193 29.842-1.2137 48.094-20.332 14.393-14.566 19.083-47.644 19.083-47.644s4.7932-38.843 4.7932-77.686v-36.416c0-38.843-4.7932-77.687-4.7932-77.687" enable-background="new" fill="#e53935"/>
     <path d="m400.02-537.39-0.02452-149.74 144 75.13z" fill="#fff"/>
     <path d="m526.28-602.8-126.28-84.326 144 75.13-17.717 9.1956" fill="#e3e2e0"/>
     <path d="m463.79-780s-100.75 2.5e-4 -167.93 4.8555c-9.3829 1.1193-29.835 1.2143-48.094 20.332-14.391 14.566-19.074 47.643-19.074 47.643s-4.8008 38.844-4.8008 77.688v2c0-38.843 4.8008-77.688 4.8008-77.688s4.6828-33.076 19.074-47.643c18.259-19.118 38.711-19.213 48.094-20.332 67.171-4.8552 167.93-4.8555 167.93-4.8555h0.20898s100.76 2.5e-4 167.93 4.8555c9.3824 1.1193 29.841 1.2143 48.094 20.332 14.393 14.566 19.084 47.643 19.084 47.643s4.793 38.844 4.793 77.688v-2c0-38.843-4.793-77.688-4.793-77.688s-4.6913-33.076-19.084-47.643c-18.253-19.118-38.711-19.213-48.094-20.332-67.169-4.8552-167.93-4.8555-167.93-4.8555z" enable-background="new" fill="#fff" opacity=".2"/>
    </g>
    <circle transform="matrix(1,0,0,-1,-1.5e-7,-356)" cx="584" cy="144" r="120" enable-background="new" fill-rule="evenodd" filter="url(#a)" opacity=".2"/>
    <circle cx="584" cy="-508" r="120" enable-background="new" fill="#03a9f4" fill-rule="evenodd"/>
    <path d="m608-516h32l-56 62-56-62h32v-64h48zm-80 64h112v16h-112z" fill="#fff"/>
   </g>
  </g>
 </g>
</svg>
