<svg xmlns="http://www.w3.org/2000/svg" width="512" height="512" enable-background="new" version="1.0"><defs><filter id="a" width="1.041" height="1.058" x="-.02" y="-.029" color-interpolation-filters="sRGB"><feGaussianBlur stdDeviation="4.088"/></filter><filter id="b" width="1.041" height="1.058" x="-.02" y="-.029" color-interpolation-filters="sRGB"><feGaussianBlur stdDeviation="4.088"/></filter><filter id="d" width="1.12" height="1.12" x="-.06" y="-.06" color-interpolation-filters="sRGB"><feGaussianBlur stdDeviation="6"/></filter></defs><g transform="translate(-208 868)"><path d="M699.1-705.17s-4.69-33.077-19.083-47.643c-18.253-19.118-38.712-19.213-48.094-20.332C564.754-778 463.993-778 463.993-778h-.209s-100.75 0-167.93 4.855c-9.383 1.12-29.835 1.214-48.094 20.332-14.39 14.566-19.075 47.643-19.075 47.643s-4.8 38.844-4.8 77.687v36.416c0 38.843 4.8 77.686 4.8 77.686s4.684 33.078 19.075 47.644c18.26 19.118 42.244 18.513 52.927 20.517 38.4 3.682 163.2 4.822 163.2 4.822s100.86-.152 168.03-5.007c9.383-1.12 29.842-1.214 48.094-20.332 14.393-14.566 19.083-47.644 19.083-47.644s4.794-38.843 4.794-77.686v-36.416c0-38.843-4.794-77.687-4.794-77.687" enable-background="new" opacity=".2"/><path d="M699.1-703.17s-4.69-33.077-19.083-47.643c-18.253-19.118-38.712-19.213-48.094-20.332C564.754-776 463.993-776 463.993-776h-.209s-100.75 0-167.93 4.855c-9.383 1.12-29.835 1.214-48.094 20.332-14.39 14.566-19.075 47.643-19.075 47.643s-4.8 38.844-4.8 77.687v36.416c0 38.843 4.8 77.686 4.8 77.686s4.684 33.078 19.075 47.644c18.26 19.118 42.244 18.513 52.927 20.517 38.4 3.682 163.2 4.822 163.2 4.822s100.86-.152 168.03-5.007c9.383-1.12 29.842-1.214 48.094-20.332 14.393-14.566 19.083-47.644 19.083-47.644s4.794-38.843 4.794-77.686v-36.416c0-38.843-4.794-77.687-4.794-77.687" enable-background="new" filter="url(#a)" opacity=".1"/><path d="M699.1-703.17s-4.69-33.077-19.083-47.643c-18.253-19.118-38.712-19.213-48.094-20.332C564.754-776 463.993-776 463.993-776h-.209s-100.75 0-167.93 4.855c-9.383 1.12-29.835 1.214-48.094 20.332-14.39 14.566-19.075 47.643-19.075 47.643s-4.8 38.844-4.8 77.687v36.416c0 38.843 4.8 77.686 4.8 77.686s4.684 33.078 19.075 47.644c18.26 19.118 42.244 18.513 52.927 20.517 38.4 3.682 163.2 4.822 163.2 4.822s100.86-.152 168.03-5.007c9.383-1.12 29.842-1.214 48.094-20.332 14.393-14.566 19.083-47.644 19.083-47.644s4.794-38.843 4.794-77.686v-36.416c0-38.843-4.794-77.687-4.794-77.687" enable-background="new" filter="url(#b)" opacity=".2"/><path fill="#e53935" d="M699.1-707.17s-4.69-33.077-19.083-47.643c-18.253-19.118-38.712-19.213-48.094-20.332C564.754-780 463.993-780 463.993-780h-.209s-100.75 0-167.93 4.855c-9.383 1.12-29.835 1.214-48.094 20.332-14.39 14.566-19.075 47.643-19.075 47.643s-4.8 38.844-4.8 77.687v36.416c0 38.843 4.8 77.686 4.8 77.686s4.684 33.078 19.075 47.644c18.26 19.118 42.244 18.513 52.927 20.517 38.4 3.682 163.2 4.822 163.2 4.822s100.86-.152 168.03-5.007c9.383-1.12 29.842-1.214 48.094-20.332 14.393-14.566 19.083-47.644 19.083-47.644s4.794-38.843 4.794-77.686v-36.416c0-38.843-4.794-77.687-4.794-77.687" enable-background="new"/><path fill="#fff" d="m400.02-537.39-.025-149.74 144 75.13z"/><path fill="#e3e2e0" d="M526.28-602.8 400-687.126l144 75.13-17.717 9.196"/><path fill="#fff" d="M463.79-780s-100.75 0-167.93 4.856c-9.383 1.119-29.835 1.214-48.094 20.332-14.391 14.566-19.074 47.643-19.074 47.643s-4.8 38.844-4.8 77.688v2c0-38.843 4.8-77.688 4.8-77.688s4.683-33.076 19.074-47.643c18.259-19.118 38.711-19.213 48.094-20.332C363.031-778 463.79-778 463.79-778h.209s100.76 0 167.93 4.856c9.382 1.119 29.841 1.214 48.094 20.332 14.393 14.566 19.084 47.643 19.084 47.643s4.793 38.844 4.793 77.688v-2c0-38.843-4.793-77.688-4.793-77.688s-4.691-33.076-19.084-47.643c-18.253-19.118-38.711-19.213-48.094-20.332C564.76-780 463.999-780 463.999-780z" enable-background="new" opacity=".2"/><circle cx="584" cy="144" r="120" fill-rule="evenodd" enable-background="new" filter="url(#d)" opacity=".2" transform="matrix(1 0 0 -1 0 -356)"/><circle cx="584" cy="-508" r="120" fill="#03a9f4" fill-rule="evenodd" enable-background="new"/><path fill="#fff" d="M608-516h32l-56 62-56-62h32v-64h48zm-80 64h112v16H528z"/></g></svg>