<svg xmlns="http://www.w3.org/2000/svg" width="512" height="512" enable-background="new" version="1.0"><defs><filter id="a" width="1.054" height="1.043" x="-.027" y="-.021" color-interpolation-filters="sRGB"><feGaussianBlur stdDeviation="4"/></filter></defs><path d="M88 482c-13.296 0-24-10.704-24-24v-2c0 13.296 10.704 24 24 24h320c13.296 0 24-10.704 24-24v2c0 13.296-10.704 24-24 24H256z" opacity=".2"/><path stroke="#000" stroke-width="8" d="M312-192c-13.296 0-24 10.704-24 24v400c0 13.296 10.704 24 24 24h320c13.296 0 24-10.704 24-24v-400c0-13.296-10.704-24-24-24H464z" filter="url(#a)" opacity=".1" transform="matrix(-1 0 0 1 720 228)"/><path d="M296-192c-13.296 0-24 10.704-24 24v400c0 13.296 10.704 24 24 24h320c13.296 0 24-10.704 24-24v-400c0-13.296-10.704-24-24-24H464z" filter="url(#a)" opacity=".2" transform="translate(-208 228)"/><path fill="#bf360c" d="M128 32v448h280c13.296 0 24-10.704 24-24V56c0-13.296-10.704-24-24-24H256z"/><path fill="#333" d="M88 32c-13.296 0-24 10.704-24 24v400c0 13.296 10.704 24 24 24h40V32z"/><path fill="#fff" d="M88 32c-13.296 0-24 10.704-24 24v2c0-13.296 10.704-24 24-24h320c13.296 0 24 10.704 24 24v-2c0-13.296-10.704-24-24-24H256z" opacity=".2"/><path fill="#fff" fill-rule="evenodd" d="M384-100v48h122.73L384 109.34v46.659h192v-48H447.45L576-54.801v-45.205z" color="#000" enable-background="accumulate" style="isolation:auto;mix-blend-mode:normal;text-decoration-color:#000;text-decoration-line:none;text-decoration-style:solid;text-indent:0;text-transform:none;white-space:normal" transform="translate(-208 228)"/></svg>