<svg width="512" height="512" enable-background="new" version="1.0" xmlns="http://www.w3.org/2000/svg">
 <defs>
  <filter id="a" x="-.025639" y="-.022558" width="1.0513" height="1.0451" color-interpolation-filters="sRGB">
   <feGaussianBlur stdDeviation="4.4440882"/>
  </filter>
 </defs>
 <g transform="translate(0,212)">
  <g>
   <g transform="translate(-208,16)" shape-rendering="auto">
    <g>
     <path d="m464.57-204.4c-4.4912-0.11556-8.9246 1.0284-12.815 3.2754l-183.52 105.96c-7.5758 4.3744-12.242 12.458-12.241 21.206v211.92c-1e-3 8.7479 4.6651 16.832 12.241 21.206l183.52 105.96c7.5748 4.3727 16.907 4.3727 24.482 0l183.52-105.96c7.5758-4.3745 12.242-12.458 12.241-21.206v-211.92c1e-3 -8.748-4.6651-16.832-12.241-21.206l-183.52-105.96c-3.5532-2.0522-7.565-3.1785-11.667-3.2754z" color="#000000" color-rendering="auto" enable-background="accumulate" filter="url(#a)" image-rendering="auto" opacity=".1" solid-color="#000000" style="isolation:auto;mix-blend-mode:normal;text-decoration-color:#000000;text-decoration-line:none;text-decoration-style:solid;text-indent:0;text-transform:none;white-space:normal"/>
     <path d="m464.57-204.4c-4.4912-0.11556-8.9246 1.0284-12.815 3.2754l-183.52 105.96c-7.5758 4.3744-12.242 12.458-12.241 21.206v211.92c-1e-3 8.7479 4.6651 16.832 12.241 21.206l183.52 105.96c7.5748 4.3727 16.907 4.3727 24.482 0l183.52-105.96c7.5758-4.3745 12.242-12.458 12.241-21.206v-211.92c1e-3 -8.748-4.6651-16.832-12.241-21.206l-183.52-105.96c-3.5532-2.0522-7.565-3.1785-11.667-3.2754z" color="#000000" color-rendering="auto" enable-background="accumulate" filter="url(#a)" image-rendering="auto" opacity=".2" solid-color="#000000" style="isolation:auto;mix-blend-mode:normal;text-decoration-color:#000000;text-decoration-line:none;text-decoration-style:solid;text-indent:0;text-transform:none;white-space:normal"/>
     <path d="m464.57-206.4c-4.4912-0.11556-8.9246 1.0284-12.815 3.2754l-183.52 105.96c-7.5758 4.3744-12.242 12.458-12.241 21.206v211.92c-1e-3 8.7479 4.6651 16.832 12.241 21.206l183.52 105.96c7.5748 4.3727 16.907 4.3727 24.482 0l183.52-105.96c7.5758-4.3745 12.242-12.458 12.241-21.206v-211.92c1e-3 -8.748-4.6651-16.832-12.241-21.206l-183.52-105.96c-3.5532-2.0522-7.565-3.1785-11.667-3.2754z" color="#000000" color-rendering="auto" enable-background="accumulate" image-rendering="auto" opacity=".2" solid-color="#000000" style="isolation:auto;mix-blend-mode:normal;text-decoration-color:#000000;text-decoration-line:none;text-decoration-style:solid;text-indent:0;text-transform:none;white-space:normal"/>
    </g>
    <path d="m464.57-208.4c-4.4912-0.11556-8.9246 1.0284-12.815 3.2754l-183.52 105.96c-7.5758 4.3744-12.242 12.458-12.241 21.206v211.92c-1e-3 8.7479 4.6651 16.832 12.241 21.206l183.52 105.96c7.5748 4.3727 16.907 4.3727 24.482 0l183.52-105.96c7.5758-4.3745 12.242-12.458 12.241-21.206v-211.92c1e-3 -8.748-4.6651-16.832-12.241-21.206l-183.52-105.96c-3.5532-2.0522-7.565-3.1785-11.667-3.2754z" color="#000000" color-rendering="auto" enable-background="accumulate" fill="#ececec" image-rendering="auto" solid-color="#000000" style="isolation:auto;mix-blend-mode:normal;text-decoration-color:#000000;text-decoration-line:none;text-decoration-style:solid;text-indent:0;text-transform:none;white-space:normal"/>
    <path transform="translate(0,-244)" d="m464.57 35.596c-4.4912-0.11556-8.9243 1.0284-12.814 3.2754l-183.52 105.96c-7.5758 4.3744-12.241 12.459-12.24 21.207v2c-1e-3 -8.748 4.6644-16.833 12.24-21.207l183.52-105.96c3.8902-2.247 8.3233-3.391 12.814-3.2754 4.1021 0.09695 8.1128 1.2232 11.666 3.2754l183.52 105.96c7.5758 4.3744 12.241 12.459 12.24 21.207v-2c1e-3 -8.748-4.6644-16.833-12.24-21.207l-183.52-105.96c-3.5532-2.0522-7.5639-3.1784-11.666-3.2754z" color="#000000" color-rendering="auto" enable-background="accumulate" fill="#fff" image-rendering="auto" opacity=".5" solid-color="#000000" style="isolation:auto;mix-blend-mode:normal;text-decoration-color:#000000;text-decoration-line:none;text-decoration-style:solid;text-indent:0;text-transform:none;white-space:normal"/>
    <path d="m352-100v64h126.06l-126.06 141.84v50.156h224v-64h-126.06l126.06-141.84v-50.156z" color="#000000" color-rendering="auto" enable-background="accumulate" fill="#dd2c00" fill-rule="evenodd" image-rendering="auto" solid-color="#000000" style="isolation:auto;mix-blend-mode:normal;text-decoration-color:#000000;text-decoration-line:none;text-decoration-style:solid;text-indent:0;text-transform:none;white-space:normal"/>
    <path transform="translate(0,-244)" d="m352 144v2h224v-2zm124.29 66-124.29 139.84v2l126.06-141.84zm-24.57 126-1.7773 2h126.06v-2z" color="#000000" color-rendering="auto" enable-background="accumulate" fill-rule="evenodd" image-rendering="auto" opacity=".2" solid-color="#000000" style="isolation:auto;mix-blend-mode:normal;text-decoration-color:#000000;text-decoration-line:none;text-decoration-style:solid;text-indent:0;text-transform:none;white-space:normal"/>
   </g>
  </g>
 </g>
</svg>
