<svg width="512" height="512" enable-background="new" version="1.0" xmlns="http://www.w3.org/2000/svg" xmlns:osb="http://www.openswatchbook.org/uri/2009/osb" xmlns:xlink="http://www.w3.org/1999/xlink">
 <defs>
  <filter id="a" x="-.024" y="-.024" width="1.048" height="1.048" color-interpolation-filters="sRGB">
   <feGaussianBlur stdDeviation="4.8"/>
  </filter>
  <filter id="e" x="-.12" y="-.12" width="1.24" height="1.24" color-interpolation-filters="sRGB">
   <feGaussianBlur stdDeviation="4.7874622"/>
  </filter>
  <filter id="d" x="-.12" y="-.12" width="1.24" height="1.24" color-interpolation-filters="sRGB">
   <feGaussianBlur stdDeviation="4.7874622"/>
  </filter>
  <filter id="c" x="-.12" y="-.12" width="1.24" height="1.24" color-interpolation-filters="sRGB">
   <feGaussianBlur stdDeviation="4.7874622"/>
  </filter>
  <filter id="b" x="-.12" y="-.12" width="1.24" height="1.24" color-interpolation-filters="sRGB">
   <feGaussianBlur stdDeviation="4.7874622"/>
  </filter>
 </defs>
 <g transform="translate(0,212)">
  <g>
   <g transform="translate(-208,16)">
    <g>
     <circle cx="464" cy="30" r="240" opacity=".2"/>
     <circle cx="464" cy="32" r="240" filter="url(#a)" opacity=".1"/>
     <circle cx="464" cy="32" r="240" filter="url(#a)" opacity=".2"/>
    </g>
    <circle cx="464" cy="29.172" r="240" fill="#b4b5bb"/>
    <g fill="none" stroke="#000" stroke-linecap="round" stroke-width="127.51">
     <path d="m336.48 34.057 127.51-95.749" opacity=".1"/>
     <path d="m336.48 30.057 127.51-95.749" opacity=".2"/>
     <path d="m464 129.69 127.51-95.636" opacity=".1"/>
    </g>
    <path transform="translate(0,-244)" d="m 464,32 a 240,240 0 0 0 -240,240 240,240 0 0 0 0.041,1.17188 A 240,240 0 0 1 464,34 240,240 0 0 1 703.95898,272.82812 240,240 0 0 0 704,272 240,240 0 0 0 464,32 Z" fill="#fff" opacity=".5"/>
    <path d="m464 125.69 127.51-95.636" fill="none" opacity=".2" stroke="#000" stroke-linecap="round" stroke-width="127.51"/>
    <path d="m336.48 32.057 127.51-95.749" fill="none" stroke="#d3d4d6" stroke-linecap="round" stroke-width="127.51"/>
    <circle cx="336.54" cy="40.057" r="47.875" filter="url(#c)" opacity=".2"/>
    <circle cx="336.54" cy="32.057" r="47.875" fill="#b9b7e4"/>
    <path d="m464 127.69 127.51-95.636" fill="none" stroke="#d3d4d6" stroke-linecap="round" stroke-width="127.51"/>
    <g>
     <circle transform="matrix(-1,0,0,1,0,4)" cx="-464" cy="-61.692" r="47.875" filter="url(#d)" opacity=".2"/>
     <circle cx="464" cy="-63.692" r="47.875" fill="#b9b7e4"/>
     <circle cx="464" cy="131.64" r="47.875" filter="url(#e)" opacity=".4"/>
     <circle cx="464" cy="127.64" r="47.875" fill="#5c45ae"/>
     <circle cx="591.51" cy="40.113" r="47.875" filter="url(#b)" opacity=".4"/>
     <circle cx="591.51" cy="32.113" r="47.875" fill="#5c45ae"/>
    </g>
   </g>
  </g>
 </g>
</svg>
