<svg xmlns="http://www.w3.org/2000/svg" width="512" height="512" enable-background="new" version="1.0"><defs><filter id="a" width="1.048" height="1.048" x="-.024" y="-.024" color-interpolation-filters="sRGB"><feGaussianBlur stdDeviation="4.8"/></filter><filter id="e" width="1.24" height="1.24" x="-.12" y="-.12" color-interpolation-filters="sRGB"><feGaussianBlur stdDeviation="4.787"/></filter><filter id="d" width="1.24" height="1.24" x="-.12" y="-.12" color-interpolation-filters="sRGB"><feGaussianBlur stdDeviation="4.787"/></filter><filter id="b" width="1.24" height="1.24" x="-.12" y="-.12" color-interpolation-filters="sRGB"><feGaussianBlur stdDeviation="4.787"/></filter><filter id="f" width="1.24" height="1.24" x="-.12" y="-.12" color-interpolation-filters="sRGB"><feGaussianBlur stdDeviation="4.787"/></filter></defs><g transform="translate(-208 228)"><circle cx="464" cy="30" r="240" opacity=".2"/><circle cx="464" cy="32" r="240" filter="url(#a)" opacity=".1"/><circle cx="464" cy="32" r="240" filter="url(#a)" opacity=".2"/><circle cx="464" cy="29.172" r="240" fill="#b4b5bb"/><g fill="none" stroke="#000" stroke-linecap="round" stroke-width="127.51"><path d="m336.48 34.057 127.51-95.749" opacity=".1"/><path d="m336.48 30.057 127.51-95.749" opacity=".2"/><path d="m464 129.69 127.51-95.636" opacity=".1"/></g><path fill="#fff" d="M464-212A240 240 0 0 0 224 28l.041 1.172A240 240 0 0 1 464-210 240 240 0 0 1 703.959 28.828L704 28a240 240 0 0 0-240-240" opacity=".5"/><path fill="none" stroke="#000" stroke-linecap="round" stroke-width="127.51" d="m464 125.69 127.51-95.636" opacity=".2"/><path fill="none" stroke="#d3d4d6" stroke-linecap="round" stroke-width="127.51" d="m336.48 32.057 127.51-95.749"/><circle cx="336.54" cy="40.057" r="47.875" filter="url(#b)" opacity=".2"/><circle cx="336.54" cy="32.057" r="47.875" fill="#b9b7e4"/><path fill="none" stroke="#d3d4d6" stroke-linecap="round" stroke-width="127.51" d="m464 127.69 127.51-95.636"/><circle cx="-464" cy="-61.692" r="47.875" filter="url(#d)" opacity=".2" transform="matrix(-1 0 0 1 0 4)"/><circle cx="464" cy="-63.692" r="47.875" fill="#b9b7e4"/><circle cx="464" cy="131.64" r="47.875" filter="url(#e)" opacity=".4"/><circle cx="464" cy="127.64" r="47.875" fill="#5c45ae"/><circle cx="591.51" cy="40.113" r="47.875" filter="url(#f)" opacity=".4"/><circle cx="591.51" cy="32.113" r="47.875" fill="#5c45ae"/></g></svg>