<?xml version="1.0" encoding="UTF-8" standalone="no"?>
<!-- Created with Inkscape (http://www.inkscape.org/) -->

<svg
   xmlns:dc="http://purl.org/dc/elements/1.1/"
   xmlns:cc="http://creativecommons.org/ns#"
   xmlns:rdf="http://www.w3.org/1999/02/22-rdf-syntax-ns#"
   xmlns:svg="http://www.w3.org/2000/svg"
   xmlns="http://www.w3.org/2000/svg"
   xmlns:sodipodi="http://sodipodi.sourceforge.net/DTD/sodipodi-0.dtd"
   xmlns:inkscape="http://www.inkscape.org/namespaces/inkscape"
   width="64"
   height="64"
   id="svg2"
   version="1.1"
   inkscape:version="0.91 r13725"
   sodipodi:docname="default-folder-saved-search.svg"
   inkscape:export-filename="/media/Data/Main/Visuals/Icons/Numix/Desktop/repos/numix-wiki/Gjorgi/Numix-folders/48/New/folder-144.png"
   inkscape:export-xdpi="270"
   inkscape:export-ydpi="270">
  <defs
     id="defs4">
    <filter
       inkscape:collect="always"
       style="color-interpolation-filters:sRGB"
       id="filter4148"
       x="-0.09599993"
       width="1.1919999"
       y="-0.09600007"
       height="1.1920001">
      <feGaussianBlur
         inkscape:collect="always"
         stdDeviation="1.1200003"
         id="feGaussianBlur4150" />
    </filter>
    <filter
       inkscape:collect="always"
       style="color-interpolation-filters:sRGB"
       id="filter4417"
       x="-0.018449999"
       width="1.0369"
       y="-0.73799998"
       height="2.4760001">
      <feGaussianBlur
         inkscape:collect="always"
         stdDeviation="0.3075"
         id="feGaussianBlur4419" />
    </filter>
  </defs>
  <sodipodi:namedview
     id="base"
     pagecolor="#ffffff"
     bordercolor="#666666"
     borderopacity="1.0"
     inkscape:pageopacity="0.0"
     inkscape:pageshadow="2"
     inkscape:zoom="8.5701345"
     inkscape:cx="42.48076"
     inkscape:cy="32.027236"
     inkscape:document-units="px"
     inkscape:current-layer="layer1"
     showgrid="true"
     inkscape:window-width="1301"
     inkscape:window-height="744"
     inkscape:window-x="65"
     inkscape:window-y="24"
     inkscape:window-maximized="1"
     showguides="true"
     inkscape:guide-bbox="true">
    <inkscape:grid
       type="xygrid"
       id="grid2985"
       empspacing="5"
       visible="true"
       enabled="true"
       snapvisiblegridlinesonly="true" />
  </sodipodi:namedview>
  <metadata
     id="metadata7">
    <rdf:RDF>
      <cc:Work
         rdf:about="">
        <dc:format>image/svg+xml</dc:format>
        <dc:type
           rdf:resource="http://purl.org/dc/dcmitype/StillImage" />
        <dc:title />
      </cc:Work>
    </rdf:RDF>
  </metadata>
  <g
     inkscape:label="Layer 1"
     inkscape:groupmode="layer"
     id="layer1"
     transform="translate(0,-988.3622)">
    <g
       id="g3357">
      <g
         id="g4480"
         transform="matrix(1.409091,0,0,1.4391892,-1.8181819,985.03788)">
        <g
           transform="translate(-1.4903225e-6,-1.3896726)"
           id="g4468"
           style="fill:#d0a15c;fill-opacity:1">
          <rect
             ry="2"
             y="8.5633802"
             x="7.6774206"
             height="5"
             width="14.193547"
             id="rect4470"
             style="fill:#d0a15c;fill-opacity:1" />
          <rect
             style="fill:#d0a15c;fill-opacity:1"
             id="rect4472"
             width="39.741932"
             height="6.9483566"
             x="4.1290336"
             y="10.647887"
             ry="2.0845075" />
          <rect
             ry="2.0845075"
             y="12.037559"
             x="5.5483885"
             height="5.5586858"
             width="36.903221"
             id="rect4474"
             style="fill:#d0a15c;fill-opacity:1" />
          <rect
             ry="2.0845084"
             y="14.8169"
             x="2"
             height="29.1831"
             width="44"
             id="rect4476"
             style="fill:#d0a15c;fill-opacity:1" />
          <rect
             transform="matrix(0.96349486,0,0,1.0157945,0.76751525,0.59577865)"
             ry="0"
             y="13"
             x="4"
             height="1"
             width="40"
             id="rect4478"
             style="opacity:0.1;fill:#d0a15c;fill-opacity:1;filter:url(#filter4417)" />
        </g>
        <g
           id="g4442"
           transform="translate(-1.4903225e-6,-2.0845083)">
          <rect
             style="fill:#d0a15c;fill-opacity:1"
             id="rect3537"
             width="14.193547"
             height="5"
             x="7.6774206"
             y="8.5633802"
             ry="2" />
          <rect
             ry="2.0845075"
             y="10.647887"
             x="4.1290336"
             height="6.9483566"
             width="39.741932"
             id="rect3535"
             style="fill:#d0a15c;fill-opacity:1" />
          <rect
             style="fill:#ffffff;fill-opacity:1"
             id="rect4421"
             width="35.483868"
             height="4.8638496"
             x="6.2580657"
             y="12.732394"
             ry="1.8239439" />
          <rect
             style="fill:#f4be70;fill-opacity:1"
             id="rect3525"
             width="44"
             height="29.1831"
             x="2"
             y="14.8169"
             ry="2.0845084" />
          <rect
             style="opacity:0.1;fill:#000000;fill-opacity:1;filter:url(#filter4417)"
             id="rect3539"
             width="40"
             height="1"
             x="4"
             y="13"
             ry="0"
             transform="matrix(0.96349486,0,0,1.0157945,0.76751525,0.59577865)" />
        </g>
      </g>
      <g
         style="opacity:0.35;fill:#2b1100;filter:url(#filter4148)"
         id="g3874">
        <rect
           style="opacity:1;fill:#2b1100;fill-opacity:1;stroke:none"
           id="rect3055"
           width="4"
           height="16"
           x="746.37506"
           y="706.08826"
           rx="2"
           ry="1.9999999"
           transform="matrix(0.70710678,0.70710678,-0.70710678,0.70710678,0,0)" />
        <path
           style="opacity:1;fill:#2b1100;fill-opacity:1;stroke:none"
           d="M 36 24 C 30.477153 24 26 28.477152 26 34 C 26 39.522848 30.477153 44 36 44 C 41.522847 44 46 39.522848 46 34 C 46 28.477152 41.522847 24 36 24 z M 36 27 C 39.865993 27 43 30.134007 43 34 C 43 37.865993 39.865993 41 36 41 C 32.134007 41 29 37.865993 29 34 C 29 30.134007 32.134007 27 36 27 z "
           transform="translate(0,988.3622)"
           id="path3869" />
      </g>
      <g
         id="g4152"
         style="opacity:1;fill:#ffffff">
        <rect
           transform="matrix(0.70710678,0.70710678,-0.70710678,0.70710678,0,0)"
           ry="1.9999999"
           rx="2"
           y="706.08826"
           x="746.37506"
           height="16"
           width="4"
           id="rect4154"
           style="opacity:1;fill:#ffffff;fill-opacity:1;stroke:none" />
        <path
           id="path4156"
           transform="translate(0,988.3622)"
           d="M 36 24 C 30.477153 24 26 28.477152 26 34 C 26 39.522848 30.477153 44 36 44 C 41.522847 44 46 39.522848 46 34 C 46 28.477152 41.522847 24 36 24 z M 36 27 C 39.865993 27 43 30.134007 43 34 C 43 37.865993 39.865993 41 36 41 C 32.134007 41 29 37.865993 29 34 C 29 30.134007 32.134007 27 36 27 z "
           style="opacity:1;fill:#ffffff;fill-opacity:1;stroke:none" />
      </g>
    </g>
  </g>
</svg>
