<?xml version="1.0" encoding="UTF-8" standalone="no"?>
<!-- Created with Inkscape (http://www.inkscape.org/) -->

<svg
   xmlns:dc="http://purl.org/dc/elements/1.1/"
   xmlns:cc="http://creativecommons.org/ns#"
   xmlns:rdf="http://www.w3.org/1999/02/22-rdf-syntax-ns#"
   xmlns:svg="http://www.w3.org/2000/svg"
   xmlns="http://www.w3.org/2000/svg"
   xmlns:sodipodi="http://sodipodi.sourceforge.net/DTD/sodipodi-0.dtd"
   xmlns:inkscape="http://www.inkscape.org/namespaces/inkscape"
   width="64"
   height="64"
   id="svg2"
   version="1.1"
   inkscape:version="0.91 r13725"
   sodipodi:docname="default-folder-projects.svg"
   inkscape:export-filename="/media/Data/Main/Visuals/Icons/Numix/Desktop/repos/numix-wiki/Gjorgi/Numix-folders/48/New/folder-144.png"
   inkscape:export-xdpi="270"
   inkscape:export-ydpi="270">
  <defs
     id="defs4">
    <filter
       inkscape:collect="always"
       style="color-interpolation-filters:sRGB"
       id="filter4417"
       x="-0.018449999"
       width="1.0369"
       y="-0.73799998"
       height="2.4760001">
      <feGaussianBlur
         inkscape:collect="always"
         stdDeviation="0.3075"
         id="feGaussianBlur4419" />
    </filter>
    <filter
       inkscape:collect="always"
       style="color-interpolation-filters:sRGB"
       id="filter4189"
       x="-0.092159339"
       width="1.1843187"
       y="-0.10017469"
       height="1.2003494">
      <feGaussianBlur
         inkscape:collect="always"
         stdDeviation="0.92159339"
         id="feGaussianBlur4191" />
    </filter>
  </defs>
  <sodipodi:namedview
     id="base"
     pagecolor="#ffffff"
     bordercolor="#666666"
     borderopacity="1.0"
     inkscape:pageopacity="0.0"
     inkscape:pageshadow="2"
     inkscape:zoom="10.551073"
     inkscape:cx="35.438419"
     inkscape:cy="23.295189"
     inkscape:document-units="px"
     inkscape:current-layer="layer1"
     showgrid="false"
     inkscape:window-width="1301"
     inkscape:window-height="744"
     inkscape:window-x="65"
     inkscape:window-y="24"
     inkscape:window-maximized="1"
     showguides="true"
     inkscape:guide-bbox="true">
    <inkscape:grid
       type="xygrid"
       id="grid2985"
       empspacing="5"
       visible="true"
       enabled="true"
       snapvisiblegridlinesonly="true" />
  </sodipodi:namedview>
  <metadata
     id="metadata7">
    <rdf:RDF>
      <cc:Work
         rdf:about="">
        <dc:format>image/svg+xml</dc:format>
        <dc:type
           rdf:resource="http://purl.org/dc/dcmitype/StillImage" />
        <dc:title />
      </cc:Work>
    </rdf:RDF>
  </metadata>
  <g
     inkscape:label="Layer 1"
     inkscape:groupmode="layer"
     id="layer1"
     transform="translate(0,-988.3622)">
    <g
       id="g3357">
      <g
         id="g4480"
         transform="matrix(1.409091,0,0,1.4391892,-1.8181819,985.03788)">
        <g
           transform="translate(-1.4903225e-6,-1.3896726)"
           id="g4468"
           style="fill:#d0a15c;fill-opacity:1">
          <rect
             ry="2"
             y="8.5633802"
             x="7.6774206"
             height="5"
             width="14.193547"
             id="rect4470"
             style="fill:#d0a15c;fill-opacity:1" />
          <rect
             style="fill:#d0a15c;fill-opacity:1"
             id="rect4472"
             width="39.741932"
             height="6.9483566"
             x="4.1290336"
             y="10.647887"
             ry="2.0845075" />
          <rect
             ry="2.0845075"
             y="12.037559"
             x="5.5483885"
             height="5.5586858"
             width="36.903221"
             id="rect4474"
             style="fill:#d0a15c;fill-opacity:1" />
          <rect
             ry="2.0845084"
             y="14.8169"
             x="2"
             height="29.1831"
             width="44"
             id="rect4476"
             style="fill:#d0a15c;fill-opacity:1" />
          <rect
             transform="matrix(0.96349486,0,0,1.0157945,0.76751525,0.59577865)"
             ry="0"
             y="13"
             x="4"
             height="1"
             width="40"
             id="rect4478"
             style="opacity:0.1;fill:#d0a15c;fill-opacity:1;filter:url(#filter4417)" />
        </g>
        <g
           id="g4442"
           transform="translate(-1.4903225e-6,-2.0845083)">
          <rect
             style="fill:#d0a15c;fill-opacity:1"
             id="rect3537"
             width="14.193547"
             height="5"
             x="7.6774206"
             y="8.5633802"
             ry="2" />
          <rect
             ry="2.0845075"
             y="10.647887"
             x="4.1290336"
             height="6.9483566"
             width="39.741932"
             id="rect3535"
             style="fill:#d0a15c;fill-opacity:1" />
          <rect
             style="fill:#ffffff;fill-opacity:1"
             id="rect4421"
             width="35.483868"
             height="4.8638496"
             x="6.2580657"
             y="12.732394"
             ry="1.8239439" />
          <rect
             style="fill:#f4be70;fill-opacity:1"
             id="rect3525"
             width="44"
             height="29.1831"
             x="2"
             y="14.8169"
             ry="2.0845084" />
          <rect
             style="opacity:0.1;fill:#000000;fill-opacity:1;filter:url(#filter4417)"
             id="rect3539"
             width="40"
             height="1"
             x="4"
             y="13"
             ry="0"
             transform="matrix(0.96349486,0,0,1.0157945,0.76751525,0.59577865)" />
        </g>
      </g>
      <g
         style="opacity:0.35;fill:#2b1100;filter:url(#filter4189)"
         id="g3347">
        <path
           style="opacity:1;fill:#2b1100;fill-opacity:1;fill-rule:nonzero;stroke:none"
           d="m 21.302668,1015.2842 c -0.77086,0.024 -1.499358,0.096 -2.232892,0.3506 -0.23063,1.5648 0.14958,3.1884 0.569168,4.688 1.067318,3.4402 3.048365,6.705 5.954375,8.8948 0.10652,0.102 0.25798,0.124 0.218904,0.3066 -0.0154,0.7622 -0.0015,1.5582 0,2.3226 0.03126,1.336 0.835442,2.6124 2.013974,3.2422 1.398731,0.7368 2.794467,1.4202 4.203085,2.1468 0.648442,0.3438 1.547758,-0.05 1.751288,-0.7446 0.12384,-0.457 0.03722,-0.9362 0.04378,-1.4022 -0.0048,-0.9816 -0.12558,-1.9668 -0.08756,-2.936 1.281999,-0.158 2.570829,-0.7804 3.327443,-1.84 0.674342,-0.9038 0.914484,-2.0742 0.831862,-3.1986 1.371492,-0.2446 2.784809,-0.4524 4.159301,-0.701 0.813506,-0.164 1.16628,-1.2216 0.656734,-1.8842 -0.999728,-1.2678 -2.004598,-2.5094 -3.020969,-3.7684 -0.820552,-0.9808 -2.105726,-1.5252 -3.371224,-1.3584 -0.858202,0.138 -1.736952,0.3226 -2.583147,0.4826 -2.732666,-2.6052 -6.406045,-4.049 -10.113675,-4.4692 -0.761404,-0.07 -1.549595,-0.144 -2.320455,-0.132 z m 4.640907,2.8478 c 0.895714,-0.08 1.794086,0.168 2.539365,0.7888 1.490552,1.2424 1.722734,3.4594 0.481604,4.9512 -1.241137,1.4916 -3.456827,1.724 -4.947383,0.4816 -1.490552,-1.2418 -1.722737,-3.459 -0.481604,-4.9512 0.620566,-0.7456 1.5123,-1.1884 2.408018,-1.2704 z m 14.316766,10.7352 c -0.306682,-0.028 -0.612434,0.2048 -0.656736,0.5258 -0.39086,1.7778 -1.653944,3.3224 -3.327436,4.031 -0.43575,0.138 -0.533062,0.7218 -0.17514,1.0076 0.734476,0.6122 1.58298,1.3198 2.320452,1.9282 0.358844,0.3054 0.82584,-0.026 0.831864,-0.4818 -0.0116,-0.3732 -0.05398,-0.7714 -0.08758,-1.1394 0.914422,0.196 1.809667,0.4568 2.714493,0.6572 0.42639,0.088 0.830254,-0.4258 0.656732,-0.8324 -0.357706,-0.8582 -0.72725,-1.6876 -1.094554,-2.5414 0.370248,-0.044 0.72626,-0.074 1.094554,-0.132 0.45586,-0.09 0.634124,-0.7542 0.262692,-1.0516 -0.73868,-0.6216 -1.484614,-1.223 -2.23289,-1.8402 -0.08754,-0.07 -0.204243,-0.122 -0.306477,-0.132 z"
           id="path10643"
           inkscape:connector-curvature="0"
           sodipodi:nodetypes="cccccccccccccccccccccccccccccccccccccccccc" />
        <path
           sodipodi:type="arc"
           style="opacity:1;fill:#2b1100;fill-opacity:1;fill-rule:evenodd;stroke:none"
           id="path3002"
           sodipodi:cx="27"
           sodipodi:cy="33"
           sodipodi:rx="2"
           sodipodi:ry="2"
           d="m 29,33 a 2,2 0 0 1 -2,2 2,2 0 0 1 -2,-2 2,2 0 0 1 2,-2 2,2 0 0 1 2,2 z"
           transform="translate(-0.66828031,988.69392)" />
      </g>
      <g
         id="g4193"
         style="opacity:1;fill:#ffffff">
        <path
           sodipodi:nodetypes="cccccccccccccccccccccccccccccccccccccccccc"
           inkscape:connector-curvature="0"
           id="path4195"
           d="m 21.302668,1015.2842 c -0.77086,0.024 -1.499358,0.096 -2.232892,0.3506 -0.23063,1.5648 0.14958,3.1884 0.569168,4.688 1.067318,3.4402 3.048365,6.705 5.954375,8.8948 0.10652,0.102 0.25798,0.124 0.218904,0.3066 -0.0154,0.7622 -0.0015,1.5582 0,2.3226 0.03126,1.336 0.835442,2.6124 2.013974,3.2422 1.398731,0.7368 2.794467,1.4202 4.203085,2.1468 0.648442,0.3438 1.547758,-0.05 1.751288,-0.7446 0.12384,-0.457 0.03722,-0.9362 0.04378,-1.4022 -0.0048,-0.9816 -0.12558,-1.9668 -0.08756,-2.936 1.281999,-0.158 2.570829,-0.7804 3.327443,-1.84 0.674342,-0.9038 0.914484,-2.0742 0.831862,-3.1986 1.371492,-0.2446 2.784809,-0.4524 4.159301,-0.701 0.813506,-0.164 1.16628,-1.2216 0.656734,-1.8842 -0.999728,-1.2678 -2.004598,-2.5094 -3.020969,-3.7684 -0.820552,-0.9808 -2.105726,-1.5252 -3.371224,-1.3584 -0.858202,0.138 -1.736952,0.3226 -2.583147,0.4826 -2.732666,-2.6052 -6.406045,-4.049 -10.113675,-4.4692 -0.761404,-0.07 -1.549595,-0.144 -2.320455,-0.132 z m 4.640907,2.8478 c 0.895714,-0.08 1.794086,0.168 2.539365,0.7888 1.490552,1.2424 1.722734,3.4594 0.481604,4.9512 -1.241137,1.4916 -3.456827,1.724 -4.947383,0.4816 -1.490552,-1.2418 -1.722737,-3.459 -0.481604,-4.9512 0.620566,-0.7456 1.5123,-1.1884 2.408018,-1.2704 z m 14.316766,10.7352 c -0.306682,-0.028 -0.612434,0.2048 -0.656736,0.5258 -0.39086,1.7778 -1.653944,3.3224 -3.327436,4.031 -0.43575,0.138 -0.533062,0.7218 -0.17514,1.0076 0.734476,0.6122 1.58298,1.3198 2.320452,1.9282 0.358844,0.3054 0.82584,-0.026 0.831864,-0.4818 -0.0116,-0.3732 -0.05398,-0.7714 -0.08758,-1.1394 0.914422,0.196 1.809667,0.4568 2.714493,0.6572 0.42639,0.088 0.830254,-0.4258 0.656732,-0.8324 -0.357706,-0.8582 -0.72725,-1.6876 -1.094554,-2.5414 0.370248,-0.044 0.72626,-0.074 1.094554,-0.132 0.45586,-0.09 0.634124,-0.7542 0.262692,-1.0516 -0.73868,-0.6216 -1.484614,-1.223 -2.23289,-1.8402 -0.08754,-0.07 -0.204243,-0.122 -0.306477,-0.132 z"
           style="opacity:1;fill:#ffffff;fill-opacity:1;fill-rule:nonzero;stroke:none" />
        <path
           transform="translate(-0.66828031,988.69392)"
           d="m 29,33 a 2,2 0 0 1 -2,2 2,2 0 0 1 -2,-2 2,2 0 0 1 2,-2 2,2 0 0 1 2,2 z"
           sodipodi:ry="2"
           sodipodi:rx="2"
           sodipodi:cy="33"
           sodipodi:cx="27"
           id="path4197"
           style="opacity:1;fill:#ffffff;fill-opacity:1;fill-rule:evenodd;stroke:none"
           sodipodi:type="arc" />
      </g>
    </g>
  </g>
</svg>
