<?xml version="1.0" encoding="UTF-8" standalone="no"?>
<svg
   xmlns:dc="http://purl.org/dc/elements/1.1/"
   xmlns:cc="http://creativecommons.org/ns#"
   xmlns:rdf="http://www.w3.org/1999/02/22-rdf-syntax-ns#"
   xmlns:svg="http://www.w3.org/2000/svg"
   xmlns="http://www.w3.org/2000/svg"
   xmlns:sodipodi="http://sodipodi.sourceforge.net/DTD/sodipodi-0.dtd"
   xmlns:inkscape="http://www.inkscape.org/namespaces/inkscape"
   width="64"
   height="64"
   viewBox="0 0 64 64"
   id="svg2"
   version="1.1"
   inkscape:version="0.91 r13725"
   sodipodi:docname="gnome-fs-loading-icon.svg">
  <metadata
     id="metadata12">
    <rdf:RDF>
      <cc:Work
         rdf:about="">
        <dc:format>image/svg+xml</dc:format>
        <dc:type
           rdf:resource="http://purl.org/dc/dcmitype/StillImage" />
        <dc:title></dc:title>
      </cc:Work>
    </rdf:RDF>
  </metadata>
  <defs
     id="defs10">
    <filter
       inkscape:collect="always"
       style="color-interpolation-filters:sRGB"
       id="filter4197"
       x="-0.096"
       width="1.192"
       y="-0.096"
       height="1.192">
      <feGaussianBlur
         inkscape:collect="always"
         stdDeviation="1.76"
         id="feGaussianBlur4199" />
    </filter>
  </defs>
  <sodipodi:namedview
     pagecolor="#ffffff"
     bordercolor="#666666"
     borderopacity="1"
     objecttolerance="10"
     gridtolerance="10"
     guidetolerance="10"
     inkscape:pageopacity="0"
     inkscape:pageshadow="2"
     inkscape:window-width="1301"
     inkscape:window-height="744"
     id="namedview8"
     showgrid="true"
     inkscape:zoom="5.6568542"
     inkscape:cx="46.276964"
     inkscape:cy="27.759663"
     inkscape:window-x="65"
     inkscape:window-y="24"
     inkscape:window-maximized="1"
     inkscape:current-layer="svg2"
     inkscape:snap-bbox="true"
     inkscape:bbox-nodes="true"
     inkscape:bbox-paths="true"
     inkscape:snap-bbox-edge-midpoints="true"
     inkscape:snap-bbox-midpoints="true"
     inkscape:object-paths="true"
     inkscape:snap-intersection-paths="true"
     inkscape:object-nodes="true"
     inkscape:snap-smooth-nodes="true"
     inkscape:snap-midpoints="true"
     showguides="true"
     inkscape:guide-bbox="true">
    <inkscape:grid
       type="xygrid"
       id="grid4134" />
    <sodipodi:guide
       position="32,52"
       orientation="1,0"
       id="guide4186" />
    <sodipodi:guide
       position="32,32"
       orientation="0,1"
       id="guide4188" />
  </sodipodi:namedview>
  <rect
     ry="3"
     y="6"
     x="5"
     height="54"
     width="54"
     id="rect4225"
     style="opacity:1;fill:#d0a15c;fill-opacity:1" />
  <rect
     style="opacity:1;fill:#f4be70;fill-opacity:1"
     id="rect4136"
     width="54"
     height="54"
     x="5"
     y="5"
     ry="3" />
  <g
     id="g4192"
     style="fill:#2b1100;opacity:0.35;filter:url(#filter4197)">
    <g
       id="g4176"
       style="fill:#2b1100">
      <path
         style="opacity:1;fill:#2b1100;fill-opacity:1"
         d="m 13.299838,10.000004 c 0,0 -3.299838,0 -3.299838,3.299839 l 0,2.200966 4.401934,0 0,-1.098871 1.098871,0 0,-4.398711 z m 15.400323,0 0,4.401934 6.599678,0 0,-4.401934 z m 10.998389,0 0,4.401934 5.500806,0 0,-4.401934 z m 8.800645,0.0032 0,4.398711 1.098872,0 0,1.098871 4.401933,0 0,-2.200967 C 54,13.299838 54,10 50.700162,10 Z m -29.698551,-0.0032 0,4.401934 5.500807,0 0,-4.401934 z m 30.797423,8.800645 0,5.497581 L 54,24.301504 54,18.8007 Z m -39.598067,0 0,5.500804 4.401934,0 0,-5.500804 z m 39.598067,9.899515 0,7.698548 4.401933,0 0,-7.698548 z m 0,12.097258 0,4.401934 4.401933,0 0,-4.398709 z M 10,28.700164 l 0,6.599676 4.401934,0 0,-6.599676 z m 0,10.998387 0,5.500805 4.401934,0 0,-5.500805 z m 0,8.800644 0,2.200966 C 10,54 13.299838,54 13.299838,54 l 2.200967,0 0,-4.401934 -1.098871,0 0,-1.098871 z m 39.598067,0 0,1.098871 -1.098872,0 0,4.401934 2.200967,0 C 54,54 54,50.700161 54,50.700161 l 0,-2.200966 z m -30.797423,1.098871 0,4.401934 5.500807,0 0,-4.401934 z m 9.899517,0 0,4.401934 6.599678,0 0,-4.401934 z m 10.998389,0 0,4.401934 5.500806,0 0,-4.401934 z"
         id="path4"
         inkscape:connector-curvature="0" />
    </g>
    <path
       inkscape:connector-curvature="0"
       id="path4190"
       d="m 32,19 0,13 8,7 -8,-7 z"
       style="fill:#2b1100;fill-rule:evenodd;stroke:#2b1100;stroke-width:2;stroke-linecap:butt;stroke-linejoin:round;stroke-opacity:1;stroke-miterlimit:4;stroke-dasharray:none" />
  </g>
  <g
     style="fill:#ffffff;opacity:1"
     id="g4201">
    <g
       style="fill:#ffffff"
       id="g4203">
      <path
         inkscape:connector-curvature="0"
         id="path4205"
         d="m 13.299838,10.000004 c 0,0 -3.299838,0 -3.299838,3.299839 l 0,2.200966 4.401934,0 0,-1.098871 1.098871,0 0,-4.398711 z m 15.400323,0 0,4.401934 6.599678,0 0,-4.401934 z m 10.998389,0 0,4.401934 5.500806,0 0,-4.401934 z m 8.800645,0.0032 0,4.398711 1.098872,0 0,1.098871 4.401933,0 0,-2.200967 C 54,13.299838 54,10 50.700162,10 Z m -29.698551,-0.0032 0,4.401934 5.500807,0 0,-4.401934 z m 30.797423,8.800645 0,5.497581 L 54,24.301504 54,18.8007 Z m -39.598067,0 0,5.500804 4.401934,0 0,-5.500804 z m 39.598067,9.899515 0,7.698548 4.401933,0 0,-7.698548 z m 0,12.097258 0,4.401934 4.401933,0 0,-4.398709 z M 10,28.700164 l 0,6.599676 4.401934,0 0,-6.599676 z m 0,10.998387 0,5.500805 4.401934,0 0,-5.500805 z m 0,8.800644 0,2.200966 C 10,54 13.299838,54 13.299838,54 l 2.200967,0 0,-4.401934 -1.098871,0 0,-1.098871 z m 39.598067,0 0,1.098871 -1.098872,0 0,4.401934 2.200967,0 C 54,54 54,50.700161 54,50.700161 l 0,-2.200966 z m -30.797423,1.098871 0,4.401934 5.500807,0 0,-4.401934 z m 9.899517,0 0,4.401934 6.599678,0 0,-4.401934 z m 10.998389,0 0,4.401934 5.500806,0 0,-4.401934 z"
         style="opacity:1;fill:#ffffff;fill-opacity:1" />
    </g>
    <path
       style="fill:#ffffff;fill-rule:evenodd;stroke:#ffffff;stroke-width:2;stroke-linecap:butt;stroke-linejoin:round;stroke-opacity:1;stroke-miterlimit:4;stroke-dasharray:none"
       d="m 32,19 0,13 8,7 -8,-7 z"
       id="path4207"
       inkscape:connector-curvature="0" />
  </g>
</svg>
