<?xml version="1.0" encoding="UTF-8" standalone="no"?>
<svg
   xmlns:dc="http://purl.org/dc/elements/1.1/"
   xmlns:cc="http://creativecommons.org/ns#"
   xmlns:rdf="http://www.w3.org/1999/02/22-rdf-syntax-ns#"
   xmlns:svg="http://www.w3.org/2000/svg"
   xmlns="http://www.w3.org/2000/svg"
   xmlns:sodipodi="http://sodipodi.sourceforge.net/DTD/sodipodi-0.dtd"
   xmlns:inkscape="http://www.inkscape.org/namespaces/inkscape"
   width="64"
   height="64"
   viewBox="0 0 64 64"
   id="svg2"
   version="1.1"
   inkscape:version="0.91 r13725"
   sodipodi:docname="user-bookmarks.svg">
  <metadata
     id="metadata10">
    <rdf:RDF>
      <cc:Work
         rdf:about="">
        <dc:format>image/svg+xml</dc:format>
        <dc:type
           rdf:resource="http://purl.org/dc/dcmitype/StillImage" />
        <dc:title></dc:title>
      </cc:Work>
    </rdf:RDF>
  </metadata>
  <defs
     id="defs8">
    <filter
       inkscape:collect="always"
       style="color-interpolation-filters:sRGB"
       id="filter4139"
       x="-0.092800876"
       width="1.1856018"
       y="-0.099427566"
       height="1.1988551">
      <feGaussianBlur
         inkscape:collect="always"
         stdDeviation="1.159988"
         id="feGaussianBlur4141" />
    </filter>
  </defs>
  <sodipodi:namedview
     pagecolor="#ffffff"
     bordercolor="#666666"
     borderopacity="1"
     objecttolerance="10"
     gridtolerance="10"
     guidetolerance="10"
     inkscape:pageopacity="0"
     inkscape:pageshadow="2"
     inkscape:window-width="1301"
     inkscape:window-height="744"
     id="namedview6"
     showgrid="true"
     inkscape:zoom="4.1052245"
     inkscape:cx="66.390828"
     inkscape:cy="34.021009"
     inkscape:window-x="65"
     inkscape:window-y="24"
     inkscape:window-maximized="1"
     inkscape:current-layer="svg2"
     inkscape:snap-bbox="true"
     inkscape:object-nodes="false"
     inkscape:bbox-nodes="true">
    <inkscape:grid
       type="xygrid"
       id="grid3333" />
  </sodipodi:namedview>
  <g
     id="g4143">
    <path
       inkscape:connector-curvature="0"
       id="path4"
       d="m 31.999996,3.9994518 c -0.08855,0 -0.151044,0.02084 -0.239589,0.041668 -0.281255,0.02084 -0.541678,0.1093757 -0.796891,0.2343796 0,0 -0.02604,0.02084 -0.04688,0.041668 -0.713557,0.2760471 -1.145858,0.70314 -1.489616,1.1041897 -0.50001,0.5781375 -0.953143,1.2344018 -1.406278,1.979208 -0.932312,1.5104482 -1.880247,3.4219469 -2.854226,5.3386539 -0.97398,1.932331 -1.947959,3.864663 -2.729225,5.354277 -0.385424,0.744808 -0.755223,1.359404 -1.03648,1.786496 -0.06249,0.125003 -0.151044,0.192714 -0.218754,0.276049 -0.104175,0.04166 -0.192712,0.06249 -0.343758,0.104162 -0.494796,0.109383 -1.213561,0.276053 -2.057327,0.406264 -1.682328,0.276047 -3.869873,0.510427 -6.031377,0.828142 -2.187546,0.317715 -4.307382,0.682305 -6.0574185,1.062523 -0.8646008,0.192712 -1.6458677,0.36459 -2.3385902,0.640639 -0.3645902,0.145835 -0.7135561,0.296881 -1.0781478,0.552094 -0.3697984,0.255213 -0.8646007,0.614596 -1.1250235,1.421904 -0.2812551,0.828143 -0.109377,1.427114 0.041668,1.848998 0.1510444,0.427092 0.3229241,0.744807 0.5208441,1.062522 0.3906335,0.619804 0.9062696,1.2344 1.4896151,1.895872 1.192733,1.317735 2.7500574,2.828185 4.3073806,4.312591 1.5781582,1.510447 3.1563162,2.958394 4.3698832,4.145919 0.604179,0.598972 1.125023,1.151066 1.447948,1.531282 0.109375,0.109375 0.130215,0.171879 0.192712,0.276048 0,0.109375 0,0.192712 0,0.317715 -0.04166,0.489593 -0.104177,1.192733 -0.23438,2.020875 -0.260423,1.661494 -0.671889,3.786537 -1.041689,5.911582 -0.364591,2.10421 -0.713556,4.229255 -0.885435,5.974082 -0.08854,0.869811 -0.151045,1.614618 -0.08854,2.359426 0.02604,0.359382 0.08854,0.765639 0.239588,1.187525 0.130212,0.427091 0.322924,0.979186 1.015646,1.489613 0.713558,0.489594 1.343779,0.510428 1.796914,0.489594 0.432299,0 0.802099,-0.04166 1.166691,-0.125002 0.73439,-0.192714 1.473988,-0.489595 2.291715,-0.833351 1.645865,-0.697932 3.635492,-1.635452 5.583449,-2.635473 1.947957,-1.00002 3.849038,-2.041709 5.385528,-2.80735 0.755225,-0.380216 1.447948,-0.677097 1.927123,-0.869809 0.130217,-0.06249 0.213548,-0.06249 0.322925,-0.08334 0.109376,0.02084 0.192711,0.02084 0.322924,0.08334 0.479175,0.192712 1.171899,0.489593 1.927123,0.869809 1.536491,0.765641 3.437571,1.80733 5.385528,2.80735 1.947959,1.000021 3.937584,1.937541 5.58345,2.635473 0.817727,0.343756 1.557325,0.640637 2.291715,0.833351 0.364591,0.08334 0.734391,0.125002 1.16669,0.125002 0.453135,0.02084 1.083356,0 1.796914,-0.489594 0.692722,-0.510427 0.885434,-1.062522 1.015647,-1.489613 0.151044,-0.421886 0.213545,-0.828143 0.239587,-1.187525 0.06249,-0.744808 0,-1.489615 -0.08855,-2.359426 -0.171873,-1.744827 -0.520837,-3.869872 -0.885429,-5.974082 -0.3698,-2.125045 -0.781265,-4.250088 -1.041688,-5.911582 -0.130217,-0.828142 -0.192712,-1.531282 -0.23438,-2.020875 0,-0.125003 0,-0.208338 0,-0.317715 0.06249,-0.104176 0.08334,-0.16667 0.192712,-0.276048 0.322924,-0.380216 0.843768,-0.93231 1.447948,-1.531282 1.213566,-1.187525 2.791724,-2.635472 4.369883,-4.145919 1.557323,-1.484406 3.114647,-2.994856 4.30738,-4.312591 0.583346,-0.661472 1.098981,-1.276068 1.489616,-1.895872 0.197919,-0.317715 0.369799,-0.63543 0.520844,-1.062522 0.151044,-0.421884 0.322922,-1.020855 0.04166,-1.848998 -0.260422,-0.807308 -0.755225,-1.166691 -1.125023,-1.421904 -0.364592,-0.255214 -0.713559,-0.40626 -1.078149,-0.552095 -0.692722,-0.276049 -1.473989,-0.447927 -2.33859,-0.640639 -1.750037,-0.380218 -3.869873,-0.744808 -6.057419,-1.062523 -2.161504,-0.317715 -4.349049,-0.552095 -6.031376,-0.828142 -0.843767,-0.130216 -1.562531,-0.296881 -2.057334,-0.406259 -0.130215,-0.04167 -0.239588,-0.0625 -0.343758,-0.104163 -0.06771,-0.08333 -0.156252,-0.151045 -0.218754,-0.276048 C 42.317916,19.452904 41.948118,18.838308 41.562692,18.0935 40.78143,16.603881 39.80745,14.671549 38.833472,12.739218 37.859493,10.822511 36.911557,8.9110121 35.979246,7.4005641 35.526111,6.6557579 35.072977,5.9994936 34.572966,5.4213561 34.098998,4.8484282 33.729198,3.9994518 31.999996,3.9994518 Z"
       style="fill:#ff8080;fill-opacity:1" />
    <path
       inkscape:connector-curvature="0"
       id="path3337"
       d="m 31.999997,18 c -0.04427,0 -0.07552,0.01042 -0.119792,0.02083 -0.140625,0.01042 -0.270833,0.05469 -0.398437,0.117188 0,0 -0.01302,0.01042 -0.02344,0.02083 -0.356772,0.13802 -0.572918,0.351563 -0.744794,0.552084 -0.25,0.289063 -0.476562,0.617188 -0.703125,0.989584 -0.466147,0.75521 -0.940105,1.71094 -1.427085,2.669275 -0.48698,0.966147 -0.97396,1.932294 -1.364586,2.677086 -0.192708,0.372397 -0.377604,0.679689 -0.51823,0.893231 -0.03125,0.0625 -0.07552,0.09636 -0.109374,0.138022 -0.05209,0.02083 -0.09635,0.03125 -0.171876,0.05208 -0.247393,0.05469 -0.606768,0.138023 -1.028643,0.203128 -0.841148,0.13802 -1.934899,0.255208 -3.01563,0.414062 -1.093751,0.158855 -2.153649,0.341146 -3.02865,0.531252 -0.432291,0.09635 -0.822917,0.182291 -1.169272,0.320312 -0.182291,0.07292 -0.356771,0.148438 -0.539063,0.276042 -0.184896,0.127604 -0.432292,0.307292 -0.562501,0.710938 -0.140625,0.414064 -0.05469,0.713544 0.02083,0.924481 0.07552,0.213542 0.161459,0.372397 0.260417,0.531251 0.195313,0.309896 0.453126,0.617188 0.744793,0.947917 0.596355,0.658855 1.375002,1.414065 2.153648,2.156253 0.789064,0.755209 1.578127,1.479168 2.184899,2.07292 0.302084,0.29948 0.5625,0.575521 0.72396,0.765626 0.05469,0.05469 0.06511,0.08594 0.09635,0.138021 0,0.05469 0,0.09635 0,0.158854 -0.02083,0.244792 -0.05209,0.596355 -0.117188,1.010418 -0.130208,0.830731 -0.335938,1.893231 -0.520834,2.955733 -0.182292,1.052084 -0.356771,2.114586 -0.442709,2.986982 -0.04427,0.434898 -0.07552,0.807294 -0.04427,1.17969 0.01302,0.179688 0.04427,0.382812 0.119792,0.593751 0.06511,0.213541 0.161458,0.489584 0.507813,0.744792 0.356772,0.244793 0.671876,0.255209 0.898439,0.244793 0.216146,0 0.401042,-0.02083 0.583334,-0.0625 0.367188,-0.09636 0.73698,-0.244793 1.145836,-0.416668 0.822916,-0.348959 1.81771,-0.81771 2.791669,-1.31771 0.973959,-0.5 1.924481,-1.020835 2.692711,-1.403648 0.377606,-0.190104 0.72396,-0.338542 0.963543,-0.434896 0.06511,-0.03125 0.106772,-0.03125 0.161459,-0.04167 0.05469,0.01042 0.09635,0.01042 0.161459,0.04167 0.239583,0.09635 0.585938,0.244792 0.963543,0.434896 0.76823,0.382813 1.718752,0.903648 2.692711,1.403648 0.973961,0.5 1.968753,0.968751 2.791671,1.31771 0.408855,0.171875 0.778647,0.320312 1.145834,0.416668 0.182292,0.04167 0.367189,0.0625 0.583334,0.0625 0.226563,0.01042 0.541668,0 0.89844,-0.244793 0.346354,-0.255208 0.442708,-0.531251 0.507813,-0.744792 0.07552,-0.210939 0.106771,-0.414063 0.119791,-0.593751 0.03125,-0.372396 0,-0.744792 -0.04427,-1.17969 -0.08593,-0.872396 -0.260413,-1.934898 -0.442706,-2.986982 -0.184897,-1.062502 -0.390625,-2.125002 -0.520834,-2.955733 -0.06511,-0.414063 -0.09635,-0.765626 -0.117187,-1.010418 0,-0.0625 0,-0.104167 0,-0.158854 0.03125,-0.05209 0.04167,-0.08333 0.09635,-0.138021 0.161458,-0.190105 0.421876,-0.466146 0.72396,-0.765626 0.60677,-0.593752 1.395834,-1.317711 2.184898,-2.07292 0.778646,-0.742188 1.557293,-1.497398 2.153648,-2.156253 0.291667,-0.330729 0.54948,-0.638021 0.744794,-0.947917 0.09896,-0.158854 0.184895,-0.317709 0.260416,-0.531251 0.07552,-0.210937 0.161458,-0.510417 0.02083,-0.924481 -0.130208,-0.403646 -0.377605,-0.583334 -0.5625,-0.710938 -0.182293,-0.127604 -0.356773,-0.203126 -0.539064,-0.276042 -0.346355,-0.138022 -0.73698,-0.223959 -1.169272,-0.320313 -0.875002,-0.190105 -1.934899,-0.372397 -3.028651,-0.531251 -1.08073,-0.158854 -2.174482,-0.276042 -3.015628,-0.414063 -0.421876,-0.06511 -0.781251,-0.148438 -1.028647,-0.203125 -0.06511,-0.02083 -0.119792,-0.03125 -0.171876,-0.05208 -0.03385,-0.04167 -0.07813,-0.07552 -0.109375,-0.138022 -0.140625,-0.213542 -0.32552,-0.520834 -0.51823,-0.89323 -0.390623,-0.744795 -0.877604,-1.710942 -1.364583,-2.677089 -0.48698,-0.958335 -0.960939,-1.914065 -1.427085,-2.669275 C 33.76302,19.328127 33.536458,19.000001 33.286457,18.710938 33.049478,18.42448 32.864582,18 31.999997,18 Z"
       style="fill:#800000;fill-opacity:1;opacity:0.35;filter:url(#filter4139)" />
    <path
       style="fill:#ffffff;fill-opacity:1"
       d="m 31.999997,18 c -0.04427,0 -0.07552,0.01042 -0.119792,0.02083 -0.140625,0.01042 -0.270833,0.05469 -0.398437,0.117188 0,0 -0.01302,0.01042 -0.02344,0.02083 -0.356772,0.13802 -0.572918,0.351563 -0.744794,0.552084 -0.25,0.289063 -0.476562,0.617188 -0.703125,0.989584 -0.466147,0.75521 -0.940105,1.71094 -1.427085,2.669275 -0.48698,0.966147 -0.97396,1.932294 -1.364586,2.677086 -0.192708,0.372397 -0.377604,0.679689 -0.51823,0.893231 -0.03125,0.0625 -0.07552,0.09636 -0.109374,0.138022 -0.05209,0.02083 -0.09635,0.03125 -0.171876,0.05208 -0.247393,0.05469 -0.606768,0.138023 -1.028643,0.203128 -0.841148,0.13802 -1.934899,0.255208 -3.01563,0.414062 -1.093751,0.158855 -2.153649,0.341146 -3.02865,0.531252 -0.432291,0.09635 -0.822917,0.182291 -1.169272,0.320312 -0.182291,0.07292 -0.356771,0.148438 -0.539063,0.276042 -0.184896,0.127604 -0.432292,0.307292 -0.562501,0.710938 -0.140625,0.414064 -0.05469,0.713544 0.02083,0.924481 0.07552,0.213542 0.161459,0.372397 0.260417,0.531251 0.195313,0.309896 0.453126,0.617188 0.744793,0.947917 0.596355,0.658855 1.375002,1.414065 2.153648,2.156253 0.789064,0.755209 1.578127,1.479168 2.184899,2.07292 0.302084,0.29948 0.5625,0.575521 0.72396,0.765626 0.05469,0.05469 0.06511,0.08594 0.09635,0.138021 0,0.05469 0,0.09635 0,0.158854 -0.02083,0.244792 -0.05209,0.596355 -0.117188,1.010418 -0.130208,0.830731 -0.335938,1.893231 -0.520834,2.955733 -0.182292,1.052084 -0.356771,2.114586 -0.442709,2.986982 -0.04427,0.434898 -0.07552,0.807294 -0.04427,1.17969 0.01302,0.179688 0.04427,0.382812 0.119792,0.593751 0.06511,0.213541 0.161458,0.489584 0.507813,0.744792 0.356772,0.244793 0.671876,0.255209 0.898439,0.244793 0.216146,0 0.401042,-0.02083 0.583334,-0.0625 0.367188,-0.09636 0.73698,-0.244793 1.145836,-0.416668 0.822916,-0.348959 1.81771,-0.81771 2.791669,-1.31771 0.973959,-0.5 1.924481,-1.020835 2.692711,-1.403648 0.377606,-0.190104 0.72396,-0.338542 0.963543,-0.434896 0.06511,-0.03125 0.106772,-0.03125 0.161459,-0.04167 0.05469,0.01042 0.09635,0.01042 0.161459,0.04167 0.239583,0.09635 0.585938,0.244792 0.963543,0.434896 0.76823,0.382813 1.718752,0.903648 2.692711,1.403648 0.973961,0.5 1.968753,0.968751 2.791671,1.31771 0.408855,0.171875 0.778647,0.320312 1.145834,0.416668 0.182292,0.04167 0.367189,0.0625 0.583334,0.0625 0.226563,0.01042 0.541668,0 0.89844,-0.244793 0.346354,-0.255208 0.442708,-0.531251 0.507813,-0.744792 0.07552,-0.210939 0.106771,-0.414063 0.119791,-0.593751 0.03125,-0.372396 0,-0.744792 -0.04427,-1.17969 -0.08593,-0.872396 -0.260413,-1.934898 -0.442706,-2.986982 -0.184897,-1.062502 -0.390625,-2.125002 -0.520834,-2.955733 -0.06511,-0.414063 -0.09635,-0.765626 -0.117187,-1.010418 0,-0.0625 0,-0.104167 0,-0.158854 0.03125,-0.05209 0.04167,-0.08333 0.09635,-0.138021 0.161458,-0.190105 0.421876,-0.466146 0.72396,-0.765626 0.60677,-0.593752 1.395834,-1.317711 2.184898,-2.07292 0.778646,-0.742188 1.557293,-1.497398 2.153648,-2.156253 0.291667,-0.330729 0.54948,-0.638021 0.744794,-0.947917 0.09896,-0.158854 0.184895,-0.317709 0.260416,-0.531251 0.07552,-0.210937 0.161458,-0.510417 0.02083,-0.924481 -0.130208,-0.403646 -0.377605,-0.583334 -0.5625,-0.710938 -0.182293,-0.127604 -0.356773,-0.203126 -0.539064,-0.276042 -0.346355,-0.138022 -0.73698,-0.223959 -1.169272,-0.320313 -0.875002,-0.190105 -1.934899,-0.372397 -3.028651,-0.531251 -1.08073,-0.158854 -2.174482,-0.276042 -3.015628,-0.414063 -0.421876,-0.06511 -0.781251,-0.148438 -1.028647,-0.203125 -0.06511,-0.02083 -0.119792,-0.03125 -0.171876,-0.05208 -0.03385,-0.04167 -0.07813,-0.07552 -0.109375,-0.138022 -0.140625,-0.213542 -0.32552,-0.520834 -0.51823,-0.89323 -0.390623,-0.744795 -0.877604,-1.710942 -1.364583,-2.677089 -0.48698,-0.958335 -0.960939,-1.914065 -1.427085,-2.669275 C 33.76302,19.328127 33.536458,19.000001 33.286457,18.710938 33.049478,18.42448 32.864582,18 31.999997,18 Z"
       id="path3335"
       inkscape:connector-curvature="0" />
  </g>
</svg>
