<svg xmlns="http://www.w3.org/2000/svg" xmlns:xlink="http://www.w3.org/1999/xlink" width="64" height="64"><defs><linearGradient id="a"><stop offset="0"/><stop offset="1" stop-opacity="0"/></linearGradient><linearGradient xlink:href="#a" id="d" x1="31" x2="31" y1="1005.4" y2="1003.4" gradientTransform="matrix(.92593 0 0 1 2.37 -.002)" gradientUnits="userSpaceOnUse"/><radialGradient xlink:href="#a" id="e" cx="32" cy="1021.9" r="25" gradientTransform="matrix(-1 0 0 -.08 64 1126.098)" gradientUnits="userSpaceOnUse"/><filter id="f" width="1.072" height="1.072" x="-.036" y="-.036" style="color-interpolation-filters:sRGB"><feGaussianBlur stdDeviation=".299"/></filter></defs><g transform="translate(0 -988.36)"><g stroke-width="1.424" transform="translate(0 -.002)"><path fill="#eee" d="M13 996.362c-1.108 0-2 .892-2 2H8.785c-.99 0-1.785.892-1.785 2v6c0 1.108.796 2 1.785 2h46.43c.99 0 1.785-.892 1.785-2v-6c0-1.108-.795-2-1.785-2H31c0-1.108-.892-2-2-2z"/><path d="M13 996.362c-1.108 0-2 .892-2 2H8.785c-.99 0-1.785.892-1.785 2v6c0 1.108.796 2 1.785 2h46.43c.99 0 1.785-.892 1.785-2v-6c0-1.108-.795-2-1.785-2H31c0-1.108-.892-2-2-2z" opacity=".15"/><rect width="44" height="7" x="10" y="1001.4" fill="gray" rx=".88" ry="1"/></g><rect width="50" height="2" x="7" y="1003.398" fill="url(#c)" opacity=".1" ry="0" style="fill:url(#d)"/><rect width="50" height="5" x="7" y="1044.398" fill="url(#b)" opacity=".1" ry="0" style="fill:url(#e)"/><rect width="56" height="39" x="4" y="1005.398" fill="#eee" rx="2" ry="2"/><path d="M4 1041.397v1c0 1.108.892 2 2 2h52c1.108 0 2-.892 2-2v-1c0 1.108-.892 2-2 2H6c-1.108 0-2-.892-2-2" opacity=".15"/><path d="M41.857 1027.646v7.792l7.143-3.896-6.428-3.506zm-5.428-8.286s-.11.011-.26.034a1.3 1.3 0 0 0-.675.29q-.047.036-.092.078-.042.045-.078.092a1.3 1.3 0 0 0-.29.676c-.028.15-.034.259-.034.259v17.143c0 1.428 1.429 1.428 1.429 1.428H53.57s1.429 0 1.429-1.428v-17.143s-.006-.109-.033-.26a1.3 1.3 0 0 0-.29-.675 1 1 0 0 0-.079-.092 1 1 0 0 0-.092-.078 1.3 1.3 0 0 0-.675-.29c-.152-.028-.26-.034-.26-.034zm1.428 7.143h14.286v10H37.857Z" class="ColorScheme-Text" style="color:#565656;opacity:.15;fill:#000;stroke-width:.64935;filter:url(#f)"/><path d="M41.857 1027.646v7.792l7.143-3.896-6.428-3.506zm-5.428-8.286s-.11.011-.26.034a1.3 1.3 0 0 0-.675.29q-.047.036-.092.078-.042.045-.078.092a1.3 1.3 0 0 0-.29.676c-.028.15-.034.259-.034.259v17.143c0 1.428 1.429 1.428 1.429 1.428H53.57s1.429 0 1.429-1.428v-17.143s-.006-.109-.033-.26a1.3 1.3 0 0 0-.29-.675 1 1 0 0 0-.079-.092 1 1 0 0 0-.092-.078 1.3 1.3 0 0 0-.675-.29c-.152-.028-.26-.034-.26-.034zm1.428 7.143h14.286v10H37.857Z" class="ColorScheme-Text" style="color:#565656;fill:gray;stroke-width:.64935"/></g></svg>