<svg xmlns="http://www.w3.org/2000/svg" width="64" height="64"><defs><radialGradient id="a" cx="32" cy="1021.9" r="25" gradientTransform="matrix(-1 0 0 -.08 64 137.7)" gradientUnits="userSpaceOnUse"><stop offset="0"/><stop offset="1" stop-opacity="0"/></radialGradient></defs><g fill-rule="evenodd"><rect width="56" height="48" x="4" y="8" fill="#ddd" rx="3" ry="3" style="paint-order:fill markers stroke"/><path d="M15 50h34c.554 0 .752.504 1 1l1 2c.248.496 0 1-1 1H14c-1 0-1.248-.504-1-1l1-2c.248-.496.446-1 1-1" opacity=".15" style="paint-order:fill markers stroke"/><path fill="gray" d="M7 8c-1.662 0-3 1.338-3 3v3h56v-3c0-1.662-1.338-3-3-3z" style="paint-order:fill markers stroke"/><g fill="gray" transform="translate(1.995)"><rect width="6" height="6" x="15.005" y="46" rx="1" ry="1" style="paint-order:fill markers stroke"/><rect width="6" height="6" x="23.005" y="46" rx="1" ry="1" style="paint-order:fill markers stroke"/><rect width="6" height="6" x="31.005" y="46" rx="1" ry="1" style="paint-order:fill markers stroke"/><rect width="6" height="6" x="39.005" y="46" rx="1" ry="1" style="paint-order:fill markers stroke"/></g><path fill="#fff" d="M7 8c-1.662 0-3 1.338-3 3v.5C4 10.115 5.338 9 7 9h50c1.662 0 3 1.115 3 2.5V11c0-1.662-1.338-3-3-3z" opacity=".1" style="paint-order:fill markers stroke"/><path d="M4 52.062V53c0 1.661 1.338 3 3 3h50c1.662 0 3-1.339 3-3v-.938C60 53.689 58.662 55 57 55H7c-1.662 0-3-1.31-3-2.938" opacity=".1" style="paint-order:fill markers stroke"/></g><rect width="50" height="5" x="7" y="56" fill="url(#a)" opacity=".15" ry="0"/></svg>