<svg xmlns="http://www.w3.org/2000/svg" xmlns:xlink="http://www.w3.org/1999/xlink" width="64" height="64"><defs><linearGradient id="a"><stop offset="0"/><stop offset="1" stop-opacity="0"/></linearGradient><linearGradient xlink:href="#a" id="b" x1="31" x2="31" y1="1005.4" y2="1003.4" gradientTransform="matrix(.92593 0 0 1 2.37 -988.36)" gradientUnits="userSpaceOnUse"/><radialGradient xlink:href="#a" id="c" cx="32" cy="1021.9" r="25" gradientTransform="matrix(-1 0 0 -.08 64 137.74)" gradientUnits="userSpaceOnUse"/><filter id="d" width="1.078" height="1.067" x="-.039" y="-.033" color-interpolation-filters="sRGB"><feGaussianBlur stdDeviation=".292"/></filter></defs><g stroke-width="1.424" transform="translate(0 -988.36)"><path fill="#eee" d="M13 996.362c-1.108 0-2 .892-2 2H8.785c-.99 0-1.785.892-1.785 2v6c0 1.108.796 2 1.785 2h46.43c.99 0 1.785-.892 1.785-2v-6c0-1.108-.795-2-1.785-2H31c0-1.108-.892-2-2-2z"/><path d="M13 996.362c-1.108 0-2 .892-2 2H8.785c-.99 0-1.785.892-1.785 2v6c0 1.108.796 2 1.785 2h46.43c.99 0 1.785-.892 1.785-2v-6c0-1.108-.795-2-1.785-2H31c0-1.108-.892-2-2-2z" opacity=".15"/><rect width="44" height="7" x="10" y="1001.4" fill="gray" rx=".88" ry="1"/></g><rect width="50" height="2" x="7" y="15.04" fill="url(#b)" opacity=".1" ry="0"/><rect width="50" height="5" x="7" y="56.04" fill="url(#c)" opacity=".1" ry="0"/><rect width="56" height="39" x="4" y="17.04" fill="#eee" rx="2" ry="2"/><path d="M4 53.039v1c0 1.108.892 2 2 2h52c1.108 0 2-.892 2-2v-1c0 1.108-.892 2-2 2H6c-1.108 0-2-.892-2-2" opacity=".15"/><path d="M43.298 30.34c-3.324 0-6 2.732-6 6.094v2.906h-1.5c-.831 0-1.5.669-1.5 1.5v9c0 .831.669 1.5 1.5 1.5h15c.831 0 1.5-.669 1.5-1.5v-9c0-.831-.669-1.5-1.5-1.5h-1.5v-2.906c0-3.36-2.676-6.094-6-6.094m0 3c1.662 0 3 1.338 3 3v3h-6v-3c0-1.662 1.338-3 3-3" color="#000" filter="url(#d)" opacity=".15"/><path fill="gray" d="M43 30.04c-3.324 0-6 2.732-6 6.094v2.906h-1.5c-.831 0-1.5.669-1.5 1.5v9c0 .831.669 1.5 1.5 1.5h15c.831 0 1.5-.669 1.5-1.5v-9c0-.831-.669-1.5-1.5-1.5H49v-2.906c0-3.36-2.676-6.094-6-6.094m0 3c1.662 0 3 1.338 3 3v3h-6v-3c0-1.662 1.338-3 3-3" color="#000"/></svg>