<svg xmlns="http://www.w3.org/2000/svg" xmlns:xlink="http://www.w3.org/1999/xlink" width="64" height="64"><defs><linearGradient id="a"><stop offset="0"/><stop offset="1" stop-opacity="0"/></linearGradient><linearGradient xlink:href="#a" id="b" x1="31" x2="31" y1="1005.4" y2="1003.4" gradientTransform="matrix(.92593 0 0 1 2.37 -988.36)" gradientUnits="userSpaceOnUse"/><radialGradient xlink:href="#a" id="c" cx="32" cy="1021.9" r="25" gradientTransform="matrix(-1 0 0 -.08 64 137.74)" gradientUnits="userSpaceOnUse"/><filter id="d" width="1.062" height="1.087" x="-.031" y="-.043" color-interpolation-filters="sRGB"><feGaussianBlur stdDeviation=".307"/></filter></defs><g stroke-width="1.424" transform="translate(0 -988.36)"><path fill="#eee" d="M13 996.362c-1.108 0-2 .892-2 2H8.785c-.99 0-1.785.892-1.785 2v6c0 1.108.796 2 1.785 2h46.43c.99 0 1.785-.892 1.785-2v-6c0-1.108-.795-2-1.785-2H31c0-1.108-.892-2-2-2z"/><path d="M13 996.362c-1.108 0-2 .892-2 2H8.785c-.99 0-1.785.892-1.785 2v6c0 1.108.796 2 1.785 2h46.43c.99 0 1.785-.892 1.785-2v-6c0-1.108-.795-2-1.785-2H31c0-1.108-.892-2-2-2z" opacity=".15"/><rect width="44" height="7" x="10" y="1001.4" fill="gray" rx=".88" ry="1"/></g><rect width="50" height="2" x="7" y="15.04" fill="url(#b)" opacity=".1" ry="0"/><rect width="50" height="5" x="7" y="56.04" fill="url(#c)" opacity=".1" ry="0"/><rect width="56" height="39" x="4" y="17.04" fill="#eee" rx="2" ry="2"/><path d="M4 53.039v1c0 1.108.892 2 2 2h52c1.108 0 2-.892 2-2v-1c0 1.108-.892 2-2 2H6c-1.108 0-2-.892-2-2" opacity=".15"/><path d="M40.262 34.24c-3.107 0-5.752 1.96-6.89 4.733-2.892.443-5.11 2.983-5.11 6.085 0 3.414 2.686 6.182 6 6.182h12.75c2.9 0 5.25-2.422 5.25-5.41 0-2.776-2.026-5.05-4.64-5.36-.682-3.544-3.72-6.23-7.36-6.23" enable-background="new" filter="url(#d)" opacity=".15"/><path fill="gray" d="M40 34.04c-3.107 0-5.752 1.96-6.89 4.733-2.892.443-5.11 2.982-5.11 6.085 0 3.414 2.686 6.182 6 6.182h12.75c2.9 0 5.25-2.422 5.25-5.41 0-2.776-2.026-5.05-4.64-5.36-.682-3.544-3.72-6.23-7.36-6.23" enable-background="new"/></svg>