<svg xmlns="http://www.w3.org/2000/svg" xmlns:xlink="http://www.w3.org/1999/xlink" width="64" height="64"><defs><linearGradient id="a"><stop offset="0"/><stop offset="1" stop-opacity="0"/></linearGradient><linearGradient xlink:href="#a" id="d" x1="31" x2="31" y1="1005.4" y2="1003.4" gradientTransform="matrix(.92593 0 0 1 2.37 -.002)" gradientUnits="userSpaceOnUse"/><radialGradient xlink:href="#a" id="e" cx="32" cy="1021.9" r="25" gradientTransform="matrix(-1 0 0 -.08 64 1126.098)" gradientUnits="userSpaceOnUse"/><filter id="f" width="1.062" height="1.085" x="-.031" y="-.043" style="color-interpolation-filters:sRGB"><feGaussianBlur stdDeviation=".285"/></filter></defs><g transform="translate(0 -988.36)"><g stroke-width="1.424" transform="translate(0 -.002)"><path fill="#eee" d="M13 996.362c-1.108 0-2 .892-2 2H8.785c-.99 0-1.785.892-1.785 2v6c0 1.108.796 2 1.785 2h46.43c.99 0 1.785-.892 1.785-2v-6c0-1.108-.795-2-1.785-2H31c0-1.108-.892-2-2-2z"/><path d="M13 996.362c-1.108 0-2 .892-2 2H8.785c-.99 0-1.785.892-1.785 2v6c0 1.108.796 2 1.785 2h46.43c.99 0 1.785-.892 1.785-2v-6c0-1.108-.795-2-1.785-2H31c0-1.108-.892-2-2-2z" opacity=".15"/><rect width="44" height="7" x="10" y="1001.4" fill="gray" rx=".88" ry="1"/></g><rect width="50" height="2" x="7" y="1003.398" fill="url(#c)" opacity=".1" ry="0" style="fill:url(#d)"/><rect width="50" height="5" x="7" y="1044.398" fill="url(#b)" opacity=".1" ry="0" style="fill:url(#e)"/><rect width="56" height="39" x="4" y="1005.398" fill="#eee" rx="2" ry="2"/><path d="M4 1041.397v1c0 1.108.892 2 2 2h52c1.108 0 2-.892 2-2v-1c0 1.108-.892 2-2 2H6c-1.108 0-2-.892-2-2" opacity=".15"/><path d="M37.314 1021.66a4.58 4.58 0 0 0-4.536 3.927l-1.248 8.772a2.914 2.914 0 0 0 4.947 2.473l2.588-2.576h6.87l2.577 2.576c.55.55 1.294.859 2.062.859a2.916 2.916 0 0 0 2.896-3.332l-1.248-8.772a4.58 4.58 0 0 0-4.536-3.927zm8.368 2.7a1.582 1.582 0 1 1-.002 3.165 1.582 1.582 0 0 1 .002-3.166m-8.049.044h1.532v3.064h3.064V1029h-3.064v3.064h-1.532V1029h-3.061v-1.532h3.061zm11.167 3.39a1.582 1.582 0 1 1 .002 3.165 1.582 1.582 0 0 1-.002-3.164" class="ColorScheme-Text" style="color:#727272;opacity:.15;fill:#000;stroke-width:1.14507;filter:url(#f)"/><path d="M37.314 1021.66a4.58 4.58 0 0 0-4.536 3.927l-1.248 8.772a2.914 2.914 0 0 0 4.947 2.473l2.588-2.576h6.87l2.577 2.576c.55.55 1.294.859 2.062.859a2.916 2.916 0 0 0 2.896-3.332l-1.248-8.772a4.58 4.58 0 0 0-4.536-3.927zm8.368 2.7a1.582 1.582 0 1 1-.002 3.165 1.582 1.582 0 0 1 .002-3.166m-8.049.044h1.532v3.064h3.064V1029h-3.064v3.064h-1.532V1029h-3.061v-1.532h3.061zm11.167 3.39a1.582 1.582 0 1 1 .002 3.165 1.582 1.582 0 0 1-.002-3.164" class="ColorScheme-Text" style="color:#727272;fill:gray;stroke-width:1.14507"/></g></svg>