<svg width="64" height="64" version="1.1" id="svg6" xmlns:xlink="http://www.w3.org/1999/xlink" xmlns="http://www.w3.org/2000/svg" xmlns:svg="http://www.w3.org/2000/svg">
 <defs id="defs2">
  <linearGradient id="a">
   <stop offset="0" id="stop1" />
   <stop stop-opacity="0" offset="1" id="stop2" />
  </linearGradient>
  <linearGradient id="c" x1="31" x2="31" y1="1005.4" y2="1003.4" gradientTransform="matrix(0.92593,0,0,1,2.3704,-988.36)" gradientUnits="userSpaceOnUse" xlink:href="#a" />
  <radialGradient id="b" cx="32" cy="1021.9" r="25" gradientTransform="matrix(-1,0,0,-0.080001,64,137.74)" gradientUnits="userSpaceOnUse" xlink:href="#a" />
  <filter style="color-interpolation-filters:sRGB" id="filter8" x="-0.0359148" y="-0.0359148" width="1.0718296" height="1.0718296">
   <feGaussianBlur stdDeviation="0.359148" id="feGaussianBlur8" />
  </filter>
 </defs>
 <g id="g6">
  <g transform="translate(0,-988.36)" stroke-width="1.4241" id="g3">
   <path transform="translate(0,988.36)" d="m 13,8.002 c -1.108,0 -2,0.892 -2,2 H 8.7852 C 7.79592,10.002 7,10.894 7,12.002 v 6 c 0,1.108 0.79588,2 1.7852,2 h 46.43 c 0.98928,0 1.7852,-0.892 1.7852,-2 v -6 c 0,-1.108 -0.79588,-2 -1.7852,-2 h -24.215 c 0,-1.108 -0.892,-2 -2,-2 h -16 z" fill="#f0544c" id="path2" />
   <path transform="translate(0,988.36)" d="m 13,8.002 c -1.108,0 -2,0.892 -2,2 H 8.7852 C 7.79592,10.002 7,10.894 7,12.002 v 6 c 0,1.108 0.79588,2 1.7852,2 h 46.43 c 0.98928,0 1.7852,-0.892 1.7852,-2 v -6 c 0,-1.108 -0.79588,-2 -1.7852,-2 h -24.215 c 0,-1.108 -0.892,-2 -2,-2 h -16 z" opacity="0.15" id="path3" />
   <rect x="10" y="1001.4" width="44" height="7" rx="0.88" ry="1" fill="#ffffff" id="rect3" />
  </g>
  <rect x="7" y="15.04" width="50" height="2" ry="0" fill="url(#c)" opacity="0.1" stroke-width="1.4088" id="rect4" style="fill:url(#c)" />
  <rect x="7" y="56.040001" width="50" height="5" ry="0" fill="url(#b)" opacity="0.1" stroke-width="1.4088" id="rect5" style="fill:url(#b)" />
  <rect x="4" y="17.040001" width="56" height="39" rx="2" ry="2.0000999" fill="#f0544c" stroke-width="1.4241" id="rect6" />
  <path d="m 4,53.039 v 1 c 0,1.1081 0.892,2 2,2 h 52 c 1.108,0 2,-0.89194 2,-2 v -1 c 0,1.108 -0.892,2 -2,2 H 6 c -1.108,0 -2,-0.892 -2,-2 z" opacity="0.15" stroke-width="1.4241" id="path6" />
  <path id="path7" class="ColorScheme-Text" d="M 32,25 A 12,12 0 0 0 20,37 12,12 0 0 0 32,49 12,12 0 0 0 44,37 12,12 0 0 0 32,25 Z m 0,3 a 9,9 0 0 1 9,9 9,9 0 0 1 -9,9 9,9 0 0 1 -9,-9 9,9 0 0 1 9,-9 z m -1.5,3 h 3 v 7.5 h -3 z m 1.5,9 c 0.828,0 1.5,0.672 1.5,1.5 0,0.828 -0.672,1.5 -1.5,1.5 -0.828,0 -1.5,-0.672 -1.5,-1.5 0,-0.828 0.672,-1.5 1.5,-1.5 z" style="color:#727272;opacity:0.15;fill:#000000;fill-opacity:1;stroke-width:1.5;filter:url(#filter8)" />
  <path id="path8" class="ColorScheme-Text" d="M 32,25 A 12,12 0 0 0 20,37 12,12 0 0 0 32,49 12,12 0 0 0 44,37 12,12 0 0 0 32,25 Z m 0,3 a 9,9 0 0 1 9,9 9,9 0 0 1 -9,9 9,9 0 0 1 -9,-9 9,9 0 0 1 9,-9 z m -1.5,3 h 3 v 7.5 h -3 z m 1.5,9 c 0.828,0 1.5,0.672 1.5,1.5 0,0.828 -0.672,1.5 -1.5,1.5 -0.828,0 -1.5,-0.672 -1.5,-1.5 0,-0.828 0.672,-1.5 1.5,-1.5 z" style="color:#727272;fill:#ffffff;fill-opacity:1;stroke-width:1.5" />
 </g>
</svg>
