<svg width="64" height="64" version="1.1" xmlns="http://www.w3.org/2000/svg">
 <defs>
  <filter id="a" x="-.036" y="-.036" width="1.072" height="1.072" color-interpolation-filters="sRGB">
   <feGaussianBlur stdDeviation="0.81"/>
  </filter>
 </defs>
 <rect transform="matrix(0 -1 -1 0 .056 1.056)" x="-59" y="-59" width="54" height="54" rx="27" ry="27" enable-background="new" filter="url(#a)" opacity=".15"/>
 <rect transform="matrix(0,-1,-1,0,0,0)" x="-59" y="-59" width="54" height="54" rx="27" ry="27" enable-background="new" fill="#3f51b5"/>
 <g fill="none" stroke="#fff">
  <circle cx="32" cy="32" r="18.62" stroke-linecap="round" stroke-linejoin="round" stroke-width="2"/>
  <path d="m13.38 32.01h37.221" stroke-width="2"/>
  <path d="m32 13.381a18.62 18.62 0 0 0-15.068 7.7129c3.4337 2.1069 8.8472 3.4727 14.957 3.4727 6.2009 0 11.683-1.4057 15.107-3.5664a18.62 18.62 0 0 0-14.996-7.6191zm-0.11133 26.041c-6.1112 0-11.525 1.3669-14.959 3.4746a18.62 18.62 0 0 0 15.07 7.7227 18.62 18.62 0 0 0 15.004-7.625c-3.4237-2.1636-8.9094-3.5723-15.115-3.5723z" stroke-linecap="round" stroke-linejoin="round" stroke-width="2"/>
  <path d="m31.99 13.399v37.221" stroke-width="2"/>
  <ellipse cx="32" cy="32.01" rx="9.3103" ry="18.611" stroke-linecap="round" stroke-linejoin="round" stroke-width="2"/>
 </g>
</svg>
