<svg xmlns="http://www.w3.org/2000/svg" xmlns:xlink="http://www.w3.org/1999/xlink" width="64" height="64"><defs><linearGradient id="a"><stop offset="0"/><stop offset="1" stop-opacity="0"/></linearGradient><linearGradient xlink:href="#a" id="b" x1="31" x2="31" y1="1005.4" y2="1003.4" gradientTransform="matrix(.92593 0 0 1 2.37 -988.36)" gradientUnits="userSpaceOnUse"/><radialGradient xlink:href="#a" id="c" cx="32" cy="1021.9" r="25" gradientTransform="matrix(-1 0 0 -.08 64 137.74)" gradientUnits="userSpaceOnUse"/><filter id="e" width="1.072" height="1.072" x="-.036" y="-.036" color-interpolation-filters="sRGB"><feGaussianBlur stdDeviation=".315"/></filter></defs><g stroke-width="1.424" transform="translate(0 -988.36)"><rect width="20" height="7" x="11" y="996.36" fill="#d0a15c" rx="2" ry="2"/><rect width="50" height="10" x="7" y="998.36" fill="#d0a15c" rx="1.786" ry="2"/><rect width="44" height="7" x="10" y="1001.4" fill="#fff" rx=".88" ry="1"/></g><rect width="56" height="39" x="4" y="17.04" fill="#d0a15c" rx="2" ry="2"/><rect width="50" height="2" x="7" y="15.04" fill="url(#b)" opacity=".1" ry="0"/><rect width="56" height="38" x="4" y="17.04" fill="#f4be70" rx="2" ry="2"/><rect width="50" height="5" x="7" y="56.04" fill="url(#c)" opacity=".1" ry="0"/><path d="M38.244 30.244v12.281a4.4 4.4 0 0 0-1.5-.281 4.5 4.5 0 1 0 4.5 4.5v-10.5h9v6.281a4.4 4.4 0 0 0-1.5-.281 4.5 4.5 0 1 0 4.5 4.5v-16.5h-1.5z" filter="url(#e)" opacity=".15"/><path fill="#fff" d="M38 30v12.281A4.4 4.4 0 0 0 36.5 42a4.5 4.5 0 1 0 4.5 4.5V36h9v6.281A4.4 4.4 0 0 0 48.5 42a4.5 4.5 0 1 0 4.5 4.5V30h-1.5z"/></svg>