<svg xmlns="http://www.w3.org/2000/svg" xmlns:xlink="http://www.w3.org/1999/xlink" width="64" height="64"><defs><linearGradient id="a"><stop offset="0"/><stop offset="1" stop-opacity="0"/></linearGradient><linearGradient xlink:href="#a" id="b" x1="31" x2="31" y1="1005.4" y2="1003.4" gradientTransform="matrix(.92593 0 0 1 2.37 -988.4)" gradientUnits="userSpaceOnUse"/><radialGradient xlink:href="#a" id="c" cx="32" cy="1021.9" r="25" gradientTransform="matrix(-1 0 0 -.08 64 137.7)" gradientUnits="userSpaceOnUse"/><filter id="d" width="1.072" height="1.072" x="-.036" y="-.036" style="color-interpolation-filters:sRGB"><feGaussianBlur stdDeviation=".299"/></filter></defs><path fill="#f4be70" d="M13 8c-1.108 0-2 .892-2 2H9c-.99 0-2 .892-2 2v5H6c-1.108 0-2 .892-2 2v35c0 1.108.892 2 2 2h52c1.108 0 2-.892 2-2V19c0-1.108-.892-2-2-2h-1v-5c0-1.108-1.01-2-2-2H31c0-1.108-.892-2-2-2Z"/><path d="M13 8c-1.108 0-2 .892-2 2H9c-.99 0-2 .892-2 2v5h50v-5c0-1.108-1.01-2-2-2H31c0-1.108-.892-2-2-2Z" opacity=".2"/><path d="M11 12c-1.108 0-2 .892-2 2v3h46v-3c0-1.108-.892-2-2-2z" opacity=".06"/><path fill="#fff" d="M11 13c-.554 0-1 .446-1 1v3h44v-3c0-.554-.446-1-1-1z"/><rect width="50" height="2" x="7" y="15" fill="url(#b)" opacity=".1" ry="0" style="fill:url(#b)"/><rect width="50" height="5" x="7" y="56" fill="url(#c)" opacity=".1" ry="0" style="fill:url(#c)"/><path fill="#fff" d="M6 17c-1.108 0-2 .892-2 2v1c0-1.108.892-2 2-2h52c1.108 0 2 .892 2 2v-1c0-1.108-.892-2-2-2zM13 8c-1.108 0-2 .892-2 2H9c-.99 0-2 .892-2 2v1c0-1.108 1.01-2 2-2h2c0-1.108.892-2 2-2h16c1.108 0 2 .892 2 2h24c.99 0 2 .892 2 2v-1c0-1.108-1.01-2-2-2H31c0-1.108-.892-2-2-2Z" opacity=".15"/><path d="M6 56c-1.108 0-2-.892-2-2v-1c0 1.108.892 2 2 2h52c1.108 0 2-.892 2-2v1c0 1.108-.892 2-2 2z" opacity=".15"/><path d="M41.857 39.286v7.792L49 43.182l-6.428-3.507zM36.43 31s-.11.011-.26.034a1.3 1.3 0 0 0-.675.29q-.047.036-.092.078-.042.045-.078.092a1.3 1.3 0 0 0-.29.676c-.028.15-.034.259-.034.259v17.143C35 51 36.429 51 36.429 51H53.57S55 51 55 49.572V32.429s-.006-.109-.033-.26a1.3 1.3 0 0 0-.29-.675 1 1 0 0 0-.079-.092 1 1 0 0 0-.092-.078 1.3 1.3 0 0 0-.675-.29c-.152-.028-.26-.034-.26-.034Zm1.428 7.143h14.286v10H37.857Z" class="ColorScheme-Text" style="color:#565656;opacity:.15;fill:#000;stroke-width:.64935;filter:url(#d)"/><path d="M41.857 39.286v7.792L49 43.182l-6.428-3.507zM36.43 31s-.11.011-.26.034a1.3 1.3 0 0 0-.675.29q-.047.036-.092.078-.042.045-.078.092a1.3 1.3 0 0 0-.29.676c-.028.15-.034.259-.034.259v17.143C35 51 36.429 51 36.429 51H53.57S55 51 55 49.572V32.429s-.006-.109-.033-.26a1.3 1.3 0 0 0-.29-.675 1 1 0 0 0-.079-.092 1 1 0 0 0-.092-.078 1.3 1.3 0 0 0-.675-.29c-.152-.028-.26-.034-.26-.034Zm1.428 7.143h14.286v10H37.857Z" class="ColorScheme-Text" style="color:#565656;fill:#fff;stroke-width:.64935"/></svg>