<svg xmlns="http://www.w3.org/2000/svg" xmlns:xlink="http://www.w3.org/1999/xlink" width="64" height="64"><defs><linearGradient id="a"><stop offset="0"/><stop offset="1" stop-opacity="0"/></linearGradient><linearGradient xlink:href="#a" id="b" x1="31" x2="31" y1="1005.4" y2="1003.4" gradientTransform="matrix(.92593 0 0 1 2.37 0)" gradientUnits="userSpaceOnUse"/><radialGradient xlink:href="#a" id="d" cx="32" cy="1021.9" r="25" gradientTransform="matrix(-1 0 0 -.08 64 1126.1)" gradientUnits="userSpaceOnUse"/><filter id="e" width="1.078" height="1.067" x="-.039" y="-.033" color-interpolation-filters="sRGB"><feGaussianBlur stdDeviation=".292"/></filter></defs><g transform="translate(0 -988.36)"><g stroke-width="1.424"><rect width="20" height="7" x="11" y="996.36" fill="#d0a15c" rx="2" ry="2"/><rect width="50" height="10" x="7" y="998.36" fill="#d0a15c" rx="1.786" ry="2"/><rect width="44" height="7" x="10" y="1001.4" fill="#fff" rx=".88" ry="1"/></g><rect width="56" height="39" x="4" y="1005.4" fill="#d0a15c" rx="2" ry="2"/><rect width="50" height="2" x="7" y="1003.4" fill="url(#b)" opacity=".1" ry="0"/><rect width="56" height="38" x="4" y="1005.4" fill="#f4be70" rx="2" ry="2"/><rect width="50" height="5" x="7" y="1044.4" fill="url(#d)" opacity=".1" ry="0"/><path d="M43.298 1018.7c-3.324 0-6 2.732-6 6.094v2.906h-1.5c-.831 0-1.5.669-1.5 1.5v9c0 .831.669 1.5 1.5 1.5h15c.831 0 1.5-.669 1.5-1.5v-9c0-.831-.669-1.5-1.5-1.5h-1.5v-2.906c0-3.36-2.676-6.094-6-6.094m0 3c1.662 0 3 1.338 3 3v3h-6v-3c0-1.662 1.338-3 3-3" color="#000" filter="url(#e)" opacity=".15"/><path fill="#fff" d="M43 1018.4c-3.324 0-6 2.732-6 6.094v2.906h-1.5c-.831 0-1.5.669-1.5 1.5v9c0 .831.669 1.5 1.5 1.5h15c.831 0 1.5-.669 1.5-1.5v-9c0-.831-.669-1.5-1.5-1.5H49v-2.906c0-3.36-2.676-6.094-6-6.094m0 3c1.662 0 3 1.338 3 3v3h-6v-3c0-1.662 1.338-3 3-3" color="#000"/></g></svg>