<svg xmlns="http://www.w3.org/2000/svg" xmlns:xlink="http://www.w3.org/1999/xlink" width="64" height="64"><defs><linearGradient id="a"><stop offset="0"/><stop offset="1" stop-opacity="0"/></linearGradient><linearGradient xlink:href="#a" id="b" x1="31" x2="31" y1="1005.4" y2="1003.4" gradientTransform="matrix(.92593 0 0 1 2.37 -988.36)" gradientUnits="userSpaceOnUse"/><linearGradient xlink:href="#a" id="c" x1="31" x2="31" y1="1005.4" y2="1003.4" gradientTransform="matrix(.92593 0 0 1 2.37 -988.4)" gradientUnits="userSpaceOnUse"/><radialGradient xlink:href="#a" id="d" cx="32" cy="1021.9" r="25" gradientTransform="matrix(-1 0 0 -.08 64 137.74)" gradientUnits="userSpaceOnUse"/><radialGradient xlink:href="#a" id="e" cx="32" cy="1021.9" r="25" gradientTransform="matrix(-1 0 0 -.08 64 137.7)" gradientUnits="userSpaceOnUse"/><filter id="f" width="1.077" height="1.068" x="-.039" y="-.034" color-interpolation-filters="sRGB"><feGaussianBlur stdDeviation=".338"/></filter></defs><path fill="#f4be70" d="M13 8c-1.108 0-2 .892-2 2H9c-.99 0-2 .892-2 2v5H6c-1.108 0-2 .892-2 2v35c0 1.108.892 2 2 2h52c1.108 0 2-.892 2-2V19c0-1.108-.892-2-2-2h-1v-5c0-1.108-1.01-2-2-2H31c0-1.108-.892-2-2-2Z"/><path d="M13 8c-1.108 0-2 .892-2 2H9c-.99 0-2 .892-2 2v5h50v-5c0-1.108-1.01-2-2-2H31c0-1.108-.892-2-2-2Z" opacity=".2"/><path d="M11 12c-1.108 0-2 .892-2 2v3h46v-3c0-1.108-.892-2-2-2z" opacity=".06"/><path fill="#fff" d="M11 13c-.554 0-1 .446-1 1v3h44v-3c0-.554-.446-1-1-1z"/><rect width="50" height="2" x="7" y="15" fill="url(#b)" opacity=".1" ry="0" style="fill:url(#c)"/><rect width="50" height="5" x="7" y="56" fill="url(#d)" opacity=".1" ry="0" style="fill:url(#e)"/><path fill="#fff" d="M6 17c-1.108 0-2 .892-2 2v1c0-1.108.892-2 2-2h52c1.108 0 2 .892 2 2v-1c0-1.108-.892-2-2-2zM13 8c-1.108 0-2 .892-2 2H9c-.99 0-2 .892-2 2v1c0-1.108 1.01-2 2-2h2c0-1.108.892-2 2-2h16c1.108 0 2 .892 2 2h24c.99 0 2 .892 2 2v-1c0-1.108-1.01-2-2-2H31c0-1.108-.892-2-2-2Z" opacity=".15"/><path d="M6 56c-1.108 0-2-.892-2-2v-1c0 1.108.892 2 2 2h52c1.108 0 2-.892 2-2v1c0 1.108-.892 2-2 2z" opacity=".15"/><path d="M42.422 27.84v3h-1.5c-.831 0-1.5.669-1.5 1.5v6l.809.808-5.113 8.948-.196 3.744 2.804-2.256 1.084-1.898a12 12 0 0 0 5.112 1.154c1.768 0 3.512-.4 5.11-1.157l1.086 1.901 2.804 2.256-.196-3.744-1.152-2.016a12 12 0 0 0 4.348-9.24h-3a9 9 0 0 1-2.868 6.577l-2.44-4.268.808-.809v-6c0-.831-.669-1.5-1.5-1.5h-1.5v-3zm1.5 6c.831 0 1.5.669 1.5 1.5s-.669 1.5-1.5 1.5-1.5-.669-1.5-1.5.669-1.5 1.5-1.5m-1.488 7.506c.942.46 1.898.797 2.98 0l2.126 3.723a9 9 0 0 1-3.618.771 8.9 8.9 0 0 1-3.615-.77z" enable-background="new" filter="url(#f)" opacity=".15"/><path fill="#fff" d="M42 27.04v3h-1.5c-.831 0-1.5.669-1.5 1.5v6l.809.808-5.113 8.948-.196 3.744 2.804-2.256 1.084-1.898A12 12 0 0 0 43.5 48.04c1.768 0 3.512-.4 5.11-1.157l1.086 1.901L52.5 51.04l-.196-3.744-1.152-2.016a12 12 0 0 0 4.348-9.24h-3a9 9 0 0 1-2.868 6.577l-2.44-4.268.808-.809v-6c0-.831-.669-1.5-1.5-1.5H45v-3zm1.5 6c.831 0 1.5.669 1.5 1.5s-.669 1.5-1.5 1.5-1.5-.669-1.5-1.5.669-1.5 1.5-1.5m-1.488 7.506c.942.46 1.898.797 2.98 0l2.126 3.723a9 9 0 0 1-3.618.771 8.9 8.9 0 0 1-3.615-.77z" enable-background="new"/></svg>