<svg width="64" height="64" version="1.1" xmlns="http://www.w3.org/2000/svg" xmlns:xlink="http://www.w3.org/1999/xlink">
 <defs>
  <linearGradient id="a">
   <stop offset="0"/>
   <stop stop-opacity="0" offset="1"/>
  </linearGradient>
  <linearGradient id="c" x1="31" x2="31" y1="1005.4" y2="1003.4" gradientTransform="matrix(.92593 0 0 1 2.3704 0)" gradientUnits="userSpaceOnUse" xlink:href="#a"/>
  <radialGradient id="b" cx="32" cy="1021.9" r="25" gradientTransform="matrix(-1 0 0 -.080001 64 1126.1)" gradientUnits="userSpaceOnUse" xlink:href="#a"/>
  <filter id="d" x="-.033429" y="-.039" width="1.0669" height="1.078" color-interpolation-filters="sRGB">
   <feGaussianBlur stdDeviation="0.2925"/>
  </filter>
 </defs>
 <g transform="translate(0 -988.36)">
  <g stroke-width="1.4241">
   <rect x="11" y="996.36" width="20" height="7" rx="2" ry="2" fill="#d0a15c"/>
   <rect x="7" y="998.36" width="50" height="10" rx="1.7857" ry="2" fill="#d0a15c"/>
   <rect x="10" y="1001.4" width="44" height="7" rx=".88" ry="1" fill="#fff"/>
  </g>
  <rect x="4" y="1005.4" width="56" height="39" rx="2" ry="2.0001" fill="#d0a15c" stroke-width="1.4241"/>
  <rect x="7" y="1003.4" width="50" height="2" ry="0" fill="url(#c)" opacity=".1" stroke-width="1.4088"/>
  <rect x="4" y="1005.4" width="56" height="38" rx="2" ry="2" fill="#f4be70" stroke-width="1.4241"/>
  <rect x="7" y="1044.4" width="50" height="5" ry="0" fill="url(#b)" opacity=".1" stroke-width="1.4088"/>
  <path d="m32.798 1019.7c-1.5 0-1.5 1.5-1.5 1.5v15c0 1.5 1.5 1.5 1.5 1.5h18s1.5 0 1.5-1.5v-15c0-1.5-1.5-1.5-1.5-1.5zm5.25 6.8438 4.9688 5.625 3.1875-3.0938 3.0938 3.0938v2.5312h-15v-3.75z" color="#000000" enable-background="new" filter="url(#d)" opacity=".15" style="text-decoration-line:none;text-indent:0;text-transform:none"/>
  <path d="m32.5 1019.4c-1.5 0-1.5 1.5-1.5 1.5v15c0 1.5 1.5 1.5 1.5 1.5h18s1.5 0 1.5-1.5v-15c0-1.5-1.5-1.5-1.5-1.5zm5.25 6.8438 4.9688 5.625 3.1875-3.0938 3.0938 3.0938v2.5312h-15v-3.75z" color="#000000" enable-background="new" fill="#fff" style="text-decoration-line:none;text-indent:0;text-transform:none"/>
 </g>
</svg>
