<svg width="64" height="64" version="1.1" xmlns="http://www.w3.org/2000/svg">
 <defs>
  <radialGradient id="b" cx="32" cy="1021.9" r="25" gradientTransform="matrix(-1 0 0 -.080001 64 137.7)" gradientUnits="userSpaceOnUse">
   <stop offset="0"/>
   <stop stop-opacity="0" offset="1"/>
  </radialGradient>
 </defs>
 <g fill-rule="evenodd">
  <rect x="4" y="8" width="56" height="48" rx="3" ry="3" fill="#666" style="paint-order:fill markers stroke"/>
  <path d="m15 50h34c0.554 0 0.75224 0.50449 1 1l1 2c0.24776 0.49551 0 1-1 1h-36c-1 0-1.2478-0.50449-1-1l1-2c0.24776-0.49551 0.446-1 1-1z" fill="#fff" opacity=".2" style="paint-order:fill markers stroke"/>
  <path d="m7 8c-1.662 0-3 1.338-3 3v3h56v-3c0-1.662-1.338-3-3-3z" fill="#4d4d4d" style="paint-order:fill markers stroke"/>
  <path d="m7 8c-1.662 0-3 1.338-3 3v0.5c0-1.385 1.338-2.5 3-2.5h50c1.662 0 3 1.115 3 2.5v-0.5c0-1.662-1.338-3-3-3z" fill="#fff" opacity=".1" style="paint-order:fill markers stroke"/>
  <path d="m4 52.062v0.9375c0 1.662 1.338 3 3 3h50c1.662 0 3-1.338 3-3v-0.9375c0 1.6274-1.338 2.9375-3 2.9375h-50c-1.662 0-3-1.3101-3-2.9375z" opacity=".2" style="paint-order:fill markers stroke"/>
  <g transform="translate(1.9954)" fill="#b3b3b3">
   <rect x="15.005" y="46" width="6" height="6" rx="1" ry="1" style="paint-order:fill markers stroke"/>
   <rect x="23.005" y="46" width="6" height="6" rx="1" ry="1" style="paint-order:fill markers stroke"/>
   <rect x="31.005" y="46" width="6" height="6" rx="1" ry="1" style="paint-order:fill markers stroke"/>
   <rect x="39.005" y="46" width="6" height="6" rx="1" ry="1" style="paint-order:fill markers stroke"/>
  </g>
 </g>
 <rect x="7" y="56" width="50" height="5" ry="0" fill="url(#b)" opacity=".15" stroke-width="1.4088"/>
</svg>
