<svg xmlns="http://www.w3.org/2000/svg" xmlns:xlink="http://www.w3.org/1999/xlink" width="64" height="64"><defs><linearGradient id="a"><stop offset="0"/><stop offset="1" stop-opacity="0"/></linearGradient><linearGradient xlink:href="#a" id="d" x1="31" x2="31" y1="1005.4" y2="1003.4" gradientTransform="matrix(.92593 0 0 1 2.37 -3.002)" gradientUnits="userSpaceOnUse"/><radialGradient xlink:href="#a" id="e" cx="32" cy="1021.9" r="25" gradientTransform="matrix(-1 0 0 -.08 64 1123.098)" gradientUnits="userSpaceOnUse"/><filter id="f" width="1.069" height="1.075" x="-.035" y="-.037" style="color-interpolation-filters:sRGB"><feGaussianBlur stdDeviation=".325"/></filter></defs><g transform="translate(0 -988.36)"><g stroke-width="1.424" transform="translate(0 -3.002)"><path fill="#f4be70" d="M13 996.362c-1.108 0-2 .892-2 2H8.785c-.99 0-1.785.892-1.785 2v6c0 1.108.796 2 1.785 2h46.43c.99 0 1.785-.892 1.785-2v-6c0-1.108-.795-2-1.785-2H31c0-1.108-.892-2-2-2z"/><path d="M13 996.362c-1.108 0-2 .892-2 2H8.785c-.99 0-1.785.892-1.785 2v6c0 1.108.796 2 1.785 2h46.43c.99 0 1.785-.892 1.785-2v-6c0-1.108-.795-2-1.785-2H31c0-1.108-.892-2-2-2z" opacity=".15"/><rect width="44" height="7" x="10" y="1001.4" fill="#fff" rx=".88" ry="1"/></g><rect width="50" height="2" x="7" y="1000.398" fill="url(#c)" opacity=".1" ry="0" style="fill:url(#d)"/><rect width="50" height="5" x="7" y="1041.398" fill="url(#b)" opacity=".1" ry="0" style="fill:url(#e)"/><rect width="56" height="39" x="4" y="1002.398" fill="#f4be70" rx="2" ry="2"/><path d="M4 1038.397v1c0 1.108.892 2 2 2h52c1.108 0 2-.892 2-2v-1c0 1.108-.892 2-2 2H6c-1.108 0-2-.892-2-2" opacity=".15"/><path d="M35.321 1018.36v3.214H48.18v-3.214zm-3.214 4.822c-.803 0-1.607.803-1.607 1.606v6.43c0 .803.804 1.606 1.607 1.606h1.607v-3.214h16.072v3.214h1.607c.803 0 1.607-.803 1.607-1.607v-6.429c0-.803-.804-1.606-1.607-1.606zm3.214 8.035v8.036H48.18v-8.036z" class="ColorScheme-Text" style="color:#565656;opacity:.15;fill:#000;stroke-width:1.60715;filter:url(#f)"/><path d="M35.321 1018.36v3.214H48.18v-3.214zm-3.214 4.822c-.803 0-1.607.803-1.607 1.606v6.43c0 .803.804 1.606 1.607 1.606h1.607v-3.214h16.072v3.214h1.607c.803 0 1.607-.803 1.607-1.607v-6.429c0-.803-.804-1.606-1.607-1.606zm3.214 8.035v8.036H48.18v-8.036z" class="ColorScheme-Text" style="color:#565656;fill:#fff;stroke-width:1.60715"/></g></svg>