<svg xmlns="http://www.w3.org/2000/svg" xmlns:xlink="http://www.w3.org/1999/xlink" width="64" height="64"><defs><linearGradient id="a"><stop offset="0"/><stop offset="1" stop-opacity="0"/></linearGradient><linearGradient xlink:href="#a" id="b" x1="31" x2="31" y1="1005.4" y2="1003.4" gradientTransform="matrix(.92593 0 0 1 2.37 0)" gradientUnits="userSpaceOnUse"/><radialGradient xlink:href="#a" id="d" cx="32" cy="1021.9" r="25" gradientTransform="matrix(-1 0 0 -.08 64 1126.1)" gradientUnits="userSpaceOnUse"/><filter id="e" width="1.077" height="1.067" x="-.039" y="-.034" color-interpolation-filters="sRGB"><feGaussianBlur stdDeviation=".338"/></filter></defs><g transform="translate(0 -988.36)"><g stroke-width="1.424"><rect width="20" height="7" x="11" y="996.36" fill="#d0a15c" rx="2" ry="2"/><rect width="50" height="10" x="7" y="998.36" fill="#d0a15c" rx="1.786" ry="2"/><rect width="44" height="7" x="10" y="1001.4" fill="#fff" rx=".88" ry="1"/></g><rect width="56" height="39" x="4" y="1005.4" fill="#d0a15c" rx="2" ry="2"/><rect width="50" height="2" x="7" y="1003.4" fill="url(#b)" opacity=".1" ry="0"/><rect width="56" height="38" x="4" y="1005.4" fill="#f4be70" rx="2" ry="2"/><rect width="50" height="5" x="7" y="1044.4" fill="url(#d)" opacity=".1" ry="0"/><path d="M42.422 1016.2v3h-1.5c-.831 0-1.5.669-1.5 1.5v6l.809.808-5.113 8.948-.196 3.744 2.804-2.256 1.084-1.898a12 12 0 0 0 5.112 1.154c1.768 0 3.512-.4 5.11-1.157l1.086 1.901 2.804 2.256-.196-3.744-1.152-2.016a12 12 0 0 0 4.348-9.24h-3a9 9 0 0 1-2.868 6.577l-2.44-4.268.808-.809v-6c0-.831-.669-1.5-1.5-1.5h-1.5v-3zm1.5 6c.831 0 1.5.669 1.5 1.5s-.669 1.5-1.5 1.5-1.5-.669-1.5-1.5.669-1.5 1.5-1.5m-1.488 7.506c.942.46 1.898.797 2.98 0l2.126 3.723a9 9 0 0 1-3.618.771 8.9 8.9 0 0 1-3.615-.77z" enable-background="new" filter="url(#e)" opacity=".15"/><path fill="#fff" d="M42 1015.4v3h-1.5c-.831 0-1.5.669-1.5 1.5v6l.809.808-5.113 8.948-.196 3.744 2.804-2.256 1.084-1.898a12 12 0 0 0 5.112 1.154c1.768 0 3.512-.4 5.11-1.157l1.086 1.901 2.804 2.256-.196-3.744-1.152-2.016a12 12 0 0 0 4.348-9.24h-3a9 9 0 0 1-2.868 6.577l-2.44-4.268.808-.809v-6c0-.831-.669-1.5-1.5-1.5H45v-3zm1.5 6c.831 0 1.5.669 1.5 1.5s-.669 1.5-1.5 1.5-1.5-.669-1.5-1.5.669-1.5 1.5-1.5m-1.488 7.506c.942.46 1.898.797 2.98 0l2.126 3.723a9 9 0 0 1-3.618.771 8.9 8.9 0 0 1-3.615-.77z" enable-background="new"/></g></svg>