<svg width="64" height="64" version="1.1" id="svg9" xmlns:xlink="http://www.w3.org/1999/xlink" xmlns="http://www.w3.org/2000/svg" xmlns:svg="http://www.w3.org/2000/svg">
 <defs id="defs2">
  <linearGradient id="a">
   <stop offset="0" id="stop1" />
   <stop stop-opacity="0" offset="1" id="stop2" />
  </linearGradient>
  <filter style="color-interpolation-filters:sRGB" id="filter1" x="-0.034632082" y="-0.03729619" width="1.0692642" height="1.0745924">
   <feGaussianBlur stdDeviation="0.32467578" id="feGaussianBlur1" />
  </filter>
  <radialGradient id="b-7" cx="32" cy="1021.9" r="25" gradientTransform="matrix(-1,0,0,-0.080001,64,1123.098)" gradientUnits="userSpaceOnUse" xlink:href="#a" />
  <linearGradient id="c-0" x1="31" x2="31" y1="1005.4" y2="1003.4" gradientTransform="matrix(0.92593,0,0,1,2.3704,-3.002)" gradientUnits="userSpaceOnUse" xlink:href="#a" />
 </defs>
 <g transform="translate(0,-988.36)" id="g9">
  <g transform="translate(0,-3.002)" stroke-width="1.4241" id="g3">
   <path transform="translate(0,988.36)" d="m 13,8.002 c -1.108,0 -2,0.892 -2,2 H 8.7852 C 7.79592,10.002 7,10.894 7,12.002 v 6 c 0,1.108 0.79588,2 1.7852,2 h 46.43 c 0.98928,0 1.7852,-0.892 1.7852,-2 v -6 c 0,-1.108 -0.79588,-2 -1.7852,-2 h -24.215 c 0,-1.108 -0.892,-2 -2,-2 h -16 z" fill="#f4be70" id="path2" />
   <path transform="translate(0,988.36)" d="m 13,8.002 c -1.108,0 -2,0.892 -2,2 H 8.7852 C 7.79592,10.002 7,10.894 7,12.002 v 6 c 0,1.108 0.79588,2 1.7852,2 h 46.43 c 0.98928,0 1.7852,-0.892 1.7852,-2 v -6 c 0,-1.108 -0.79588,-2 -1.7852,-2 h -24.215 c 0,-1.108 -0.892,-2 -2,-2 h -16 z" opacity="0.15" id="path3" />
   <rect x="10" y="1001.4" width="44" height="7" rx="0.88" ry="1" fill="#ffffff" id="rect3" />
  </g>
  <rect x="7" y="1000.398" width="50" height="2" ry="0" fill="url(#c)" opacity="0.1" stroke-width="1.4088" id="rect4" style="fill:url(#c-0)" />
  <rect x="7" y="1041.3979" width="50" height="5" ry="0" fill="url(#b)" opacity="0.1" stroke-width="1.4088" id="rect5-9" style="fill:url(#b-7)" />
  <rect x="4" y="1002.398" width="56" height="39" rx="2" ry="2.0000999" fill="#f4be70" stroke-width="1.4241" id="rect6-2" />
  <path d="m 4,1038.397 v 1 c 0,1.1081 0.892,2 2,2 h 52 c 1.108,0 2,-0.8919 2,-2 v -1 c 0,1.108 -0.892,2 -2,2 H 6 c -1.108,0 -2,-0.892 -2,-2 z" opacity="0.15" stroke-width="1.4241" id="path6" />
  <path style="color:#565656;opacity:0.15;fill:#000000;stroke-width:1.60715;filter:url(#filter1)" class="ColorScheme-Text" d="m 35.321427,1018.36 v 3.2143 h 12.857145 v -3.2143 z m -3.214285,4.8216 c -0.803569,0 -1.607142,0.8035 -1.607142,1.6069 v 6.4288 c 0,0.8035 0.803573,1.6069 1.607142,1.6069 h 1.607143 v -3.2142 h 16.07143 v 3.2142 h 1.607142 c 0.80357,0 1.607143,-0.8034 1.607143,-1.6069 v -6.4288 c 0,-0.8034 -0.803573,-1.6069 -1.607143,-1.6069 z m 3.214285,8.0357 v 8.0355 h 12.857145 v -8.0355 z" id="path9" />
  <path style="color:#565656;fill:#ffffff;stroke-width:1.60715" class="ColorScheme-Text" d="m 35.321427,1018.36 v 3.2143 h 12.857145 v -3.2143 z m -3.214285,4.8216 c -0.803569,0 -1.607142,0.8035 -1.607142,1.6069 v 6.4288 c 0,0.8035 0.803573,1.6069 1.607142,1.6069 h 1.607143 v -3.2142 h 16.07143 v 3.2142 h 1.607142 c 0.80357,0 1.607143,-0.8034 1.607143,-1.6069 v -6.4288 c 0,-0.8034 -0.803573,-1.6069 -1.607143,-1.6069 z m 3.214285,8.0357 v 8.0355 h 12.857145 v -8.0355 z" id="path1" />
 </g>
</svg>
