<svg xmlns="http://www.w3.org/2000/svg" width="64" height="64"><defs><filter id="a" width="1.072" height="1.072" x="-.036" y="-.036" color-interpolation-filters="sRGB"><feGaussianBlur stdDeviation=".81"/></filter></defs><rect width="54" height="54" x="-59" y="-59" enable-background="new" filter="url(#a)" opacity=".15" rx="27" ry="27" transform="matrix(0 -1 -1 0 .056 1.056)"/><rect width="54" height="54" x="-59" y="-59" fill="#3f51b5" enable-background="new" rx="27" ry="27" transform="rotate(90)scale(-1 1)"/><g fill="none" stroke="#fff" stroke-width="2"><circle cx="32" cy="32" r="18.62" stroke-linecap="round" stroke-linejoin="round"/><path d="M13.38 32.01h37.221"/><path stroke-linecap="round" stroke-linejoin="round" d="M32 13.381a18.62 18.62 0 0 0-15.068 7.713c3.434 2.107 8.847 3.473 14.957 3.473 6.2 0 11.683-1.406 15.107-3.567A18.62 18.62 0 0 0 32 13.381m-.111 26.041c-6.112 0-11.525 1.367-14.96 3.475A18.62 18.62 0 0 0 32 50.619a18.62 18.62 0 0 0 15.005-7.625c-3.424-2.163-8.91-3.572-15.115-3.572"/><path d="M31.99 13.399V50.62"/><ellipse cx="32" cy="32.01" stroke-linecap="round" stroke-linejoin="round" rx="9.31" ry="18.611"/></g></svg>