<svg xmlns="http://www.w3.org/2000/svg" xmlns:xlink="http://www.w3.org/1999/xlink" width="64" height="64"><defs><linearGradient id="a"><stop offset="0"/><stop offset="1" stop-opacity="0"/></linearGradient><linearGradient xlink:href="#a" id="b" x1="31" x2="31" y1="1005.4" y2="1003.4" gradientTransform="matrix(.92593 0 0 1 2.37 -988.4)" gradientUnits="userSpaceOnUse"/><radialGradient xlink:href="#a" id="c" cx="32" cy="1021.9" r="25" gradientTransform="matrix(-1 0 0 -.08 64 137.7)" gradientUnits="userSpaceOnUse"/><filter id="d" width="1.062" height="1.085" x="-.031" y="-.043" style="color-interpolation-filters:sRGB"><feGaussianBlur stdDeviation=".285"/></filter></defs><path fill="#f4be70" d="M13 8c-1.108 0-2 .892-2 2H9c-.99 0-2 .892-2 2v5H6c-1.108 0-2 .892-2 2v35c0 1.108.892 2 2 2h52c1.108 0 2-.892 2-2V19c0-1.108-.892-2-2-2h-1v-5c0-1.108-1.01-2-2-2H31c0-1.108-.892-2-2-2Z"/><path d="M13 8c-1.108 0-2 .892-2 2H9c-.99 0-2 .892-2 2v5h50v-5c0-1.108-1.01-2-2-2H31c0-1.108-.892-2-2-2Z" opacity=".2"/><path d="M11 12c-1.108 0-2 .892-2 2v3h46v-3c0-1.108-.892-2-2-2z" opacity=".06"/><path fill="#fff" d="M11 13c-.554 0-1 .446-1 1v3h44v-3c0-.554-.446-1-1-1z"/><rect width="50" height="2" x="7" y="15" fill="url(#b)" opacity=".1" ry="0" style="fill:url(#b)"/><rect width="50" height="5" x="7" y="56" fill="url(#c)" opacity=".1" ry="0" style="fill:url(#c)"/><path fill="#fff" d="M6 17c-1.108 0-2 .892-2 2v1c0-1.108.892-2 2-2h52c1.108 0 2 .892 2 2v-1c0-1.108-.892-2-2-2zM13 8c-1.108 0-2 .892-2 2H9c-.99 0-2 .892-2 2v1c0-1.108 1.01-2 2-2h2c0-1.108.892-2 2-2h16c1.108 0 2 .892 2 2h24c.99 0 2 .892 2 2v-1c0-1.108-1.01-2-2-2H31c0-1.108-.892-2-2-2Z" opacity=".15"/><path d="M6 56c-1.108 0-2-.892-2-2v-1c0 1.108.892 2 2 2h52c1.108 0 2-.892 2-2v1c0 1.108-.892 2-2 2z" opacity=".15"/><path d="M37.314 33.3a4.58 4.58 0 0 0-4.536 3.927L31.53 46a2.914 2.914 0 0 0 4.947 2.473l2.588-2.576h6.87l2.577 2.576c.55.55 1.294.859 2.062.859a2.916 2.916 0 0 0 2.896-3.332l-1.248-8.772a4.58 4.58 0 0 0-4.536-3.927Zm8.368 2.7a1.582 1.582 0 1 1-.002 3.165 1.582 1.582 0 0 1 .002-3.166m-8.049.044h1.532v3.064h3.064v1.532h-3.064v3.064h-1.532V40.64h-3.061v-1.532h3.061zm11.167 3.39a1.582 1.582 0 1 1 .002 3.165 1.582 1.582 0 0 1-.002-3.164" class="ColorScheme-Text" style="color:#727272;opacity:.15;fill:#000;stroke-width:1.14507;filter:url(#d)"/><path d="M37.314 33.3a4.58 4.58 0 0 0-4.536 3.927L31.53 46a2.914 2.914 0 0 0 4.947 2.473l2.588-2.576h6.87l2.577 2.576c.55.55 1.294.859 2.062.859a2.916 2.916 0 0 0 2.896-3.332l-1.248-8.772a4.58 4.58 0 0 0-4.536-3.927Zm8.368 2.7a1.582 1.582 0 1 1-.002 3.165 1.582 1.582 0 0 1 .002-3.166m-8.049.044h1.532v3.064h3.064v1.532h-3.064v3.064h-1.532V40.64h-3.061v-1.532h3.061zm11.167 3.39a1.582 1.582 0 1 1 .002 3.165 1.582 1.582 0 0 1-.002-3.164" class="ColorScheme-Text" style="color:#727272;fill:#fff;stroke-width:1.14507"/></svg>