<svg xmlns="http://www.w3.org/2000/svg" xmlns:xlink="http://www.w3.org/1999/xlink" width="64" height="64"><defs><linearGradient id="a"><stop offset="0"/><stop offset="1" stop-opacity="0"/></linearGradient><linearGradient xlink:href="#a" id="b" x1="31" x2="31" y1="1005.4" y2="1003.4" gradientTransform="matrix(.92593 0 0 1 2.37 -988.4)" gradientUnits="userSpaceOnUse"/><radialGradient xlink:href="#a" id="c" cx="32" cy="1021.9" r="25" gradientTransform="matrix(-1 0 0 -.08 64 137.7)" gradientUnits="userSpaceOnUse"/><filter id="d" width="1.065" height="1.081" x="-.032" y="-.04" style="color-interpolation-filters:sRGB"><feGaussianBlur stdDeviation=".303"/></filter></defs><path fill="#f4be70" d="M13 8c-1.108 0-2 .892-2 2H9c-.99 0-2 .892-2 2v5H6c-1.108 0-2 .892-2 2v35c0 1.108.892 2 2 2h52c1.108 0 2-.892 2-2V19c0-1.108-.892-2-2-2h-1v-5c0-1.108-1.01-2-2-2H31c0-1.108-.892-2-2-2Z"/><path d="M13 8c-1.108 0-2 .892-2 2H9c-.99 0-2 .892-2 2v5h50v-5c0-1.108-1.01-2-2-2H31c0-1.108-.892-2-2-2Z" opacity=".2"/><path d="M11 12c-1.108 0-2 .892-2 2v3h46v-3c0-1.108-.892-2-2-2z" opacity=".06"/><path fill="#fff" d="M11 13c-.554 0-1 .446-1 1v3h44v-3c0-.554-.446-1-1-1z"/><rect width="50" height="2" x="7" y="15" fill="url(#b)" opacity=".1" ry="0" style="fill:url(#b)"/><rect width="50" height="5" x="7" y="56" fill="url(#c)" opacity=".1" ry="0" style="fill:url(#c)"/><path fill="#fff" d="M6 17c-1.108 0-2 .892-2 2v1c0-1.108.892-2 2-2h52c1.108 0 2 .892 2 2v-1c0-1.108-.892-2-2-2zM13 8c-1.108 0-2 .892-2 2H9c-.99 0-2 .892-2 2v1c0-1.108 1.01-2 2-2h2c0-1.108.892-2 2-2h16c1.108 0 2 .892 2 2h24c.99 0 2 .892 2 2v-1c0-1.108-1.01-2-2-2H31c0-1.108-.892-2-2-2Z" opacity=".15"/><path d="M6 56c-1.108 0-2-.892-2-2v-1c0 1.108.892 2 2 2h52c1.108 0 2-.892 2-2v1c0 1.108-.892 2-2 2z" opacity=".15"/><path d="M52.25 35.25h-9L41 33h-6.75a2.247 2.247 0 0 0-2.238 2.25L32 48.75A2.257 2.257 0 0 0 34.25 51h18a2.257 2.257 0 0 0 2.25-2.25V37.5a2.257 2.257 0 0 0-2.25-2.25M50 42h-2.25v2.25H50v2.25h-2.25v2.25H45.5V46.5h2.25v-2.25H45.5V42h2.25v-2.25H45.5V37.5h2.25v2.25H50z" style="opacity:.15;fill:#000;stroke-width:1.125;filter:url(#d)"/><path d="M52.25 35.25h-9L41 33h-6.75a2.247 2.247 0 0 0-2.239 2.25L32 48.75A2.257 2.257 0 0 0 34.25 51h18a2.257 2.257 0 0 0 2.25-2.25V37.5a2.257 2.257 0 0 0-2.25-2.25zM50 42h-2.25v2.25H50v2.25h-2.25v2.25H45.5V46.5h2.25v-2.25H45.5V42h2.25v-2.25H45.5V37.5h2.25v2.25H50z" style="fill:#fff;stroke-width:1.125"/></svg>