<svg xmlns="http://www.w3.org/2000/svg" xmlns:xlink="http://www.w3.org/1999/xlink" width="64" height="64"><defs><linearGradient xlink:href="#a" id="c" x1="31" x2="31" y1="1005.4" y2="1003.4" gradientTransform="matrix(.92593 0 0 1 2.37 -978.44)" gradientUnits="userSpaceOnUse"/><linearGradient id="a"><stop offset="0"/><stop offset="1" stop-opacity="0"/></linearGradient><radialGradient xlink:href="#a" id="e" cx="32" cy="1021.9" r="25" gradientTransform="matrix(-1 0 0 -.08 64 137.7)" gradientUnits="userSpaceOnUse"/><filter id="b" width="1.094" height="1.058" x="-.047" y="-.029" color-interpolation-filters="sRGB"><feGaussianBlur stdDeviation=".312"/></filter></defs><path fill="#f4be70" d="M13 8c-1.108 0-2 .892-2 2H8.785C7.795 10 7 10.891 7 11.998V37c0 1.107.796 1.998 1.785 1.998h46.43c.99 0 1.785-.891 1.785-1.998V11.998C57 10.891 56.205 10 55.215 10H31c0-1.108-.892-2-2-2z"/><path d="M13 8c-1.108 0-2 .892-2 2H8.785C7.795 10 7 10.891 7 11.998V37c0 1.107.796 1.998 1.785 1.998h46.43c.99 0 1.785-.891 1.785-1.998V11.998C57 10.891 56.205 10 55.215 10H31c0-1.108-.892-2-2-2z" opacity=".15"/><g filter="url(#b)" opacity=".15" transform="matrix(1.25 0 0 1.1538 2.063 -1151.5)"><rect width="8" height="19.067" x="20" y="1016.3" ry="0"/><path d="M22.4 1017.2H16l8-7.8 8 7.8h-5.6l-2.4 2.2z"/></g><g fill="#fff" transform="matrix(1.25 0 0 1.1538 2 -1151.6)"><rect width="8" height="19.067" x="20" y="1016.3" ry="0"/><path d="M22.4 1017.16H16l8-7.8 8 7.8h-5.6l-2.4 2.2z"/></g><rect width="50" height="2" x="7" y="25" fill="url(#c)" opacity=".1" ry="0" style="fill:url(#c)"/><rect width="50" height="5" x="7" y="56" fill="url(#e)" opacity=".1" ry="0" style="fill:url(#e)"/><rect width="56" height="29" x="4" y="27" fill="#f4be70" rx="2" ry="2"/><path d="M4 52.959V54c0 1.108.892 2 2 2h52c1.108 0 2-.892 2-2v-1.041c0 1.108-.892 2-2 2H6c-1.108 0-2-.892-2-2" opacity=".15"/><path d="M6 27c-1.108 0-2 .892-2 2v1c0-1.108.892-2 2-2h52c1.108 0 2 .892 2 2v-1c0-1.108-.892-2-2-2zM13 8c-1.108 0-2 .892-2 2H8.785C7.795 10 7 10.891 7 11.998v1C7 11.891 7.796 11 8.785 11H11c0-1.108.892-2 2-2h16c1.108 0 2 .892 2 2h24.215c.99 0 1.785.891 1.785 1.998v-1C57 10.891 56.204 10 55.215 10H31c0-1.108-.892-2-2-2z" style="fill:#fff;opacity:.15"/></svg>