<svg xmlns="http://www.w3.org/2000/svg" xmlns:xlink="http://www.w3.org/1999/xlink" width="64" height="64"><defs><linearGradient id="a"><stop offset="0"/><stop offset="1" stop-opacity="0"/></linearGradient><linearGradient xlink:href="#a" id="b" x1="31" x2="31" y1="1005.4" y2="1003.4" gradientTransform="matrix(.92593 0 0 1 2.37 0)" gradientUnits="userSpaceOnUse"/><radialGradient xlink:href="#a" id="c" cx="32" cy="1021.9" r="25" gradientTransform="matrix(-1 0 0 -.08 64 1126.1)" gradientUnits="userSpaceOnUse"/><filter id="e" width="1.069" height="1.075" x="-.034" y="-.038" color-interpolation-filters="sRGB"><feGaussianBlur stdDeviation=".11"/></filter></defs><g transform="translate(0 -988.36)"><g stroke-width="1.424"><rect width="20" height="7" x="11" y="996.36" fill="#d0a15c" rx="2" ry="2"/><rect width="50" height="10" x="7" y="998.36" fill="#d0a15c" rx="1.786" ry="2"/><rect width="44" height="7" x="10" y="1001.4" fill="#fff" rx=".88" ry="1"/></g><rect width="56" height="39" x="4" y="1005.4" fill="#d0a15c" rx="2" ry="2"/><rect width="50" height="2" x="7" y="1003.4" fill="url(#b)" opacity=".1" ry="0"/><rect width="56" height="38" x="4" y="1005.4" fill="#f4be70" rx="2" ry="2"/><rect width="50" height="5" x="7" y="1044.4" fill="url(#c)" opacity=".1" ry="0"/><g stroke-width=".5" color="#000" filter="url(#e)" opacity=".15" transform="matrix(3 0 0 3.0011 -164.29 9324.6)"><path d="m67.833-2764.7-2.333 2 2.333 1.999c-.002 0 0-.667 0-1h2v-1.999h-2zm3-3 2.333 2-2.333 1.999c.002 0 0-.667 0-1h-2v-1.999h2z"/></g><path fill="#fff" stroke-width=".5" d="m38.999 1027.259-7 6.002 7 5.999c-.006 0 0-2.001 0-3.001h6v-5.999h-6zm9-9.003 7 6.002-7 5.998c.006 0 0-2 0-3h-6v-6h6z" color="#000"/></g></svg>