<svg width="64" height="64" version="1.1" xmlns="http://www.w3.org/2000/svg">
 <defs>
  <radialGradient id="a-1" cx="32" cy="1021.9" r="25" gradientTransform="matrix(-1 0 0 -.08 64 137.7)" gradientUnits="userSpaceOnUse">
   <stop offset="0"/>
   <stop stop-opacity="0" offset="1"/>
  </radialGradient>
 </defs>
 <rect x="7" y="56" width="50" height="5" ry="0" fill="url(#a-1)" opacity=".15"/>
 <rect x="4" y="8" width="56" height="48" rx="3" ry="3" fill="#666666"/>
 <path d="m15 50h34c0.554 0 0.752 0.504 1 1l1 2c0.248 0.496 0 1-1 1h-36c-1 0-1.248-0.504-1-1l1-2c0.248-0.496 0.446-1 1-1" fill="#ffffff" opacity=".2"/>
 <path d="m7 8c-1.662 0-3 1.338-3 3v3h56v-3c0-1.662-1.338-3-3-3z" fill="#4d4d4d"/>
 <path d="m7 8c-1.662 0-3 1.338-3 3v0.5c0-1.385 1.338-2.5 3-2.5h50c1.662 0 3 1.115 3 2.5v-0.5c0-1.662-1.338-3-3-3z" fill="#ffffff" opacity=".1"/>
 <path d="m4 52.062v0.938c0 1.661 1.338 3 3 3h50c1.662 0 3-1.339 3-3v-0.938c0 1.627-1.338 2.938-3 2.938h-50c-1.662 0-3-1.31-3-2.938" fill="#000000" opacity=".2"/>
 <g transform="translate(1.995)" fill="#b3b3b3">
  <rect x="15" y="46" width="6" height="6" rx="1" ry="1"/>
  <rect x="23" y="46" width="6" height="6" rx="1" ry="1"/>
  <rect x="31" y="46" width="6" height="6" rx="1" ry="1"/>
  <rect x="39" y="46" width="6" height="6" rx="1" ry="1"/>
 </g>
 <rect x="4" y="8" width="56" height="48" rx="3" ry="3" fill="#f4be70" opacity=".1" style="mix-blend-mode:overlay;paint-order:fill markers stroke"/>
</svg>
