<svg xmlns="http://www.w3.org/2000/svg" xmlns:xlink="http://www.w3.org/1999/xlink" width="64" height="64"><defs><linearGradient xlink:href="#a" id="c" x1="31" x2="31" y1="1005.4" y2="1003.4" gradientTransform="matrix(.92593 0 0 1 2.37 9.964)" gradientUnits="userSpaceOnUse"/><linearGradient id="a"><stop offset="0"/><stop offset="1" stop-opacity="0"/></linearGradient><radialGradient xlink:href="#a" id="e" cx="32" cy="1021.9" r="25" gradientTransform="matrix(-1 0 0 -.08 64 1126.1)" gradientUnits="userSpaceOnUse"/><filter id="b" width="1.094" height="1.058" x="-.047" y="-.029" color-interpolation-filters="sRGB"><feGaussianBlur stdDeviation=".312"/></filter></defs><g transform="translate(0 -988.36)"><g fill="#d0a15c" stroke-width="1.424"><rect width="20" height="7" x="11" y="996.36" rx="2" ry="2"/><rect width="50" height="28.998" x="7" y="998.36" rx="1.786" ry="1.998"/><rect width="56" height="29.04" x="4" y="1015.4" rx="2" ry="2"/></g><g filter="url(#b)" opacity=".15" transform="matrix(1.25 0 0 1.1538 2.063 -163.15)"><rect width="8" height="19.067" x="20" y="1016.3" ry="0"/><path d="M22.4 1017.2H16l8-7.8 8 7.8h-5.6l-2.4 2.2z"/></g><g fill="#fff" transform="matrix(1.25 0 0 1.1538 2 -163.29)"><rect width="8" height="19.067" x="20" y="1016.3" ry="0"/><path d="M22.4 1017.2H16l8-7.8 8 7.8h-5.6l-2.4 2.2z"/></g><rect width="50" height="2" x="7" y="1013.4" fill="url(#c)" opacity=".1" ry="0"/><rect width="56" height="28" x="4" y="1015.4" fill="#f4be70" rx="2" ry="2"/><rect width="50" height="5" x="7" y="1044.4" fill="url(#e)" opacity=".1" ry="0"/></g></svg>