<svg xmlns="http://www.w3.org/2000/svg" xmlns:xlink="http://www.w3.org/1999/xlink" width="64" height="64"><defs><linearGradient id="a"><stop offset="0"/><stop offset="1" stop-opacity="0"/></linearGradient><linearGradient xlink:href="#a" id="b" x1="31" x2="31" y1="1005.4" y2="1003.4" gradientTransform="matrix(.92593 0 0 1 2.37 0)" gradientUnits="userSpaceOnUse"/><radialGradient xlink:href="#a" id="c" cx="32" cy="1021.9" r="25" gradientTransform="matrix(-1 0 0 -.08 64 1126.1)" gradientUnits="userSpaceOnUse"/><filter id="e" width="1.076" height="1.068" x="-.038" y="-.034" color-interpolation-filters="sRGB"><feGaussianBlur stdDeviation=".285"/></filter></defs><g transform="translate(0 -988.36)"><g stroke-width="1.424"><rect width="20" height="7" x="11" y="996.36" fill="#d0a15c" rx="2" ry="2"/><rect width="50" height="10" x="7" y="998.36" fill="#d0a15c" rx="1.786" ry="2"/><rect width="44" height="7" x="10" y="1001.4" fill="#fff" rx=".88" ry="1"/></g><rect width="56" height="39" x="4" y="1005.4" fill="#d0a15c" rx="2" ry="2"/><rect width="50" height="2" x="7" y="1003.4" fill="url(#b)" opacity=".1" ry="0"/><rect width="56" height="38" x="4" y="1005.4" fill="#f4be70" rx="2" ry="2"/><rect width="50" height="5" x="7" y="1044.4" fill="url(#c)" opacity=".1" ry="0"/><path d="M43.316 1019.7a4.5 4.5 0 1 1 0 9 4.5 4.5 0 0 1 0-9m0 12c9 0 9 6.005 9 6.005v1.995h-18v-1.995s0-6 9-6.005" color="#000" filter="url(#e)" opacity=".15" style="text-decoration-line:none;text-indent:0;text-transform:none"/><path fill="#fff" d="M43 1019.4a4.5 4.5 0 1 1 0 9 4.5 4.5 0 0 1 0-9m0 12c9 0 9 6.005 9 6.005v1.995H34v-1.995s0-6 9-6.005" color="#000" style="text-decoration-line:none;text-indent:0;text-transform:none"/></g></svg>