<svg xmlns="http://www.w3.org/2000/svg" xmlns:xlink="http://www.w3.org/1999/xlink" width="64" height="64">
 <defs>
  <linearGradient id="a">
   <stop offset="0"/>
   <stop stop-opacity="0" offset="1"/>
  </linearGradient>
  <linearGradient id="b" x1="31" x2="31" y1="1005.4" y2="1003.4" gradientTransform="matrix(.92593 0 0 1 2.37 -988.4)" gradientUnits="userSpaceOnUse" xlink:href="#a"/>
  <radialGradient id="d" cx="32" cy="33.5" r="25" gradientTransform="matrix(1 0 0 .1 0 52.65)" gradientUnits="userSpaceOnUse" xlink:href="#a"/>
 </defs>
 <path d="M13 8c-1.108 0-2 .892-2 2H9c-.99 0-2 .892-2 2v5H6c-1.108 0-2 .892-2 2v35c0 1.108.892 2 2 2h52c1.108 0 2-.892 2-2V19c0-1.108-.892-2-2-2h-1v-5c0-1.108-1.01-2-2-2H31c0-1.108-.892-2-2-2z" style="fill:#3bad7e"/><path d="M13 8c-1.108 0-2 .892-2 2H9c-.99 0-2 .892-2 2v5h50v-5c0-1.108-1.01-2-2-2H31c0-1.108-.892-2-2-2z" opacity=".2"/><path d="M11 12c-1.108 0-2 .892-2 2v3h46v-3c0-1.108-.892-2-2-2z" opacity=".06"/><path fill="#fff" d="M11 13c-.554 0-1 .446-1 1v3h44v-3c0-.554-.446-1-1-1z"/><rect width="50" height="2" x="7" y="15" fill="url(#b)" opacity=".1" ry="0"/><rect width="50" height="5" x="7" y="56" fill="url(#d)" opacity=".1" ry="0"/><path fill="#fff" d="M6 17c-1.108 0-2 .892-2 2v1c0-1.108.892-2 2-2h52c1.108 0 2 .892 2 2v-1c0-1.108-.892-2-2-2zm7-9c-1.108 0-2 .892-2 2H9c-.99 0-2 .892-2 2v1c0-1.108 1.01-2 2-2h2c0-1.108.892-2 2-2h16c1.108 0 2 .892 2 2h24c.99 0 2 .892 2 2v-1c0-1.108-1.01-2-2-2H31c0-1.108-.892-2-2-2z" opacity=".15"/><path d="M6 56c-1.108 0-2-.892-2-2v-1c0 1.108.892 2 2 2h52c1.108 0 2-.892 2-2v1c0 1.108-.892 2-2 2z" opacity=".15"/><path d="M30.01 25.875c.604.252 1.109.708 1.486 1.361l2.693 4.684-1.685.955 5.463.078 2.67-4.787-1.66.984-1.538-2.619c-.252-.428-.68-.656-1.234-.656zm-1.434.227c-.956 0-1.739.453-2.217 1.285l-2.29 3.953 4.808 2.795 2.973-5.137-.858-1.436c-.578-.98-1.384-1.46-2.416-1.46M41.164 33l-4.809 2.744 2.971 5.139h1.662c.528 0 1.057-.128 1.436-.33.805-.453 1.385-1.41 1.385-2.317 0-.436-.127-.88-.354-1.283zm-15.482 1.16-5.49.104 1.687.955-1.512 2.644a1.5 1.5 0 0 0-.176.68c0 .227.075.479.176.654l3.149 5.412a3 3 0 0 1-.026-.4c0-.429.202-1.11.453-1.563h-.002l2.696-4.658 1.713.983zm9.966 5.361-2.818 4.71 2.818 4.708V47h2.948c.528 0 .98-.252 1.232-.68l3.123-5.437c-.528.402-1.157.603-1.912.603h-5.39zm-10.322 1.916-.805 1.434c-.251.428-.427 1.109-.427 1.529 0 1.418 1.182 2.602 2.617 2.602h4.584v-5.565z" class="ColorScheme-Text" style="fill:#fff"/></svg>