<svg xmlns="http://www.w3.org/2000/svg" xmlns:xlink="http://www.w3.org/1999/xlink" width="64" height="64"><defs><linearGradient id="a"><stop offset="0"/><stop offset="1" stop-opacity="0"/></linearGradient><linearGradient xlink:href="#a" id="b" x1="31" x2="31" y1="1005.4" y2="1003.4" gradientTransform="matrix(.92593 0 0 1 2.37 -988.4)" gradientUnits="userSpaceOnUse"/></defs><path fill="#d0a15c" d="M13 8c-1.108 0-2 .892-2 2H9c-.99 0-2 .892-2 2v6c0 1.108 1.01 2 2 2h46c.99 0 2-.892 2-2v-6c0-1.108-1.01-2-2-2H31c0-1.108-.892-2-2-2z"/><rect width="46" height="9" x="9" y="12" opacity=".06" rx="2" ry="2"/><rect width="44" height="7" x="10" y="13" fill="#fff" rx="1" ry="1"/><rect width="56" height="39" x="4" y="17" fill="#d0a15c" rx="2" ry="2"/><rect width="50" height="2" x="7" y="15" fill="url(#b)" opacity=".1" ry="0"/><rect width="56" height="38" x="4" y="17" fill="#f4be70" rx="2" ry="2"/><rect width="50" height="5" x="7" y="56" fill="url(#d)" opacity=".1" ry="0"/><path fill="#fff" d="M6 17c-1.108 0-2 .892-2 2v1c0-1.108.892-2 2-2h52c1.108 0 2 .892 2 2v-1c0-1.108-.892-2-2-2zm7-9c-1.108 0-2 .892-2 2H9c-.99 0-2 .892-2 2v1c0-1.108 1.01-2 2-2h2c0-1.108.892-2 2-2h16c1.108 0 2 .892 2 2h24c.99 0 2 .892 2 2v-1c0-1.108-1.01-2-2-2H31c0-1.108-.892-2-2-2z" opacity=".15"/><path d="M31.887 21.97a.92.92 0 0 0-.922.917v.838a3.71 3.71 0 0 0-2.809 3.609c0 1.219.582 2.304 1.49 2.986a.65.65 0 0 1 .157.42q.002.07-.006.137l-4.037 8.557h-1.67a.495.495 0 0 0-.496.492v.002c0 .272.223.492.496.492h1.205l-3.117 6.607c-.197.42-.099.904.209 1.217l-1.201 2.44 1.898-2.057a1.1 1.1 0 0 0 1.271-.592l3.594-7.615h3.158v.654c0 .416.34.752.758.752h.041c.42 0 .76-.336.76-.752v-.654h3.23l3.592 7.615c.226.487.769.724 1.27.592l1.898 2.057-1.197-2.44c.305-.313.403-.795.207-1.217l-3.117-6.607h1.13a.493.493 0 1 0 0-.986h-1.595l-4.035-8.557q-.008-.066-.006-.137a.67.67 0 0 1 .152-.42 3.73 3.73 0 0 0 1.494-2.986c0-1.765-1.23-3.232-2.882-3.629v-.818a.916.916 0 0 0-.92-.916m.877 3.38a2.153 2.153 0 0 1-.84 4.138 2.154 2.154 0 0 1-2.162-2.154c0-.864.513-1.604 1.254-1.947.11.382.45.668.87.668.433 0 .78-.304.878-.705m-.858 7.154h.035c.118 0 .221.055.286.137l3.205 6.793h-2.766v-.795a.757.757 0 0 0-.76-.756h-.04a.757.757 0 0 0-.759.756v.795h-2.693l3.205-6.793a.36.36 0 0 1 .287-.137" class="ColorScheme-Text" style="fill:#fff"/></svg>