<?xml version="1.0" encoding="UTF-8"?>
<svg xmlns="http://www.w3.org/2000/svg" viewBox="0 0 64 64">
 <defs>
  <linearGradient id="a">
   <stop offset="0"/>
   <stop stop-opacity="0" offset="1"/>
  </linearGradient>
  <linearGradient id="b" x1="31" x2="31" y1="1005.4" y2="1003.4" gradientTransform="matrix(.92593 0 0 1 2.37 -988.4)" gradientUnits="userSpaceOnUse" xlink:href="#a"/>
  <radialGradient id="d" cx="32" cy="1021.9" r="25" gradientTransform="matrix(-1 0 0 -.08 64 137.7)" gradientUnits="userSpaceOnUse" xlink:href="#a"/>
 </defs>
 <path style="fill:#cf000f" d="M13 8c-1.108 0-2 .892-2 2H9c-.99 0-2 .892-2 2v5H6c-1.108 0-2 .892-2 2v35c0 1.108.892 2 2 2h52c1.108 0 2-.892 2-2V19c0-1.108-.892-2-2-2h-1v-5c0-1.108-1.01-2-2-2H31c0-1.108-.892-2-2-2z"/>
 <path d="M13 8c-1.108 0-2 .892-2 2H9c-.99 0-2 .892-2 2v5h50v-5c0-1.108-1.01-2-2-2H31c0-1.108-.892-2-2-2z" opacity=".2"/>
 <path d="M11 12c-1.108 0-2 .892-2 2v3h46v-3c0-1.108-.892-2-2-2z" opacity=".06"/>
 <path d="M11 13c-.554 0-1 .446-1 1v3h44v-3c0-.554-.446-1-1-1z" fill="#fff"/>
 <rect x="7" y="15" width="50" height="2" ry="0" fill="url(#b)" opacity=".1"/>
 <rect x="7" y="56" width="50" height="5" ry="0" fill="url(#d)" opacity=".1"/>
 <path d="M6 17c-1.108 0-2 .892-2 2v1c0-1.108.892-2 2-2h52c1.108 0 2 .892 2 2v-1c0-1.108-.892-2-2-2zM13 8c-1.108 0-2 .892-2 2H9c-.99 0-2 .892-2 2v1c0-1.108 1.01-2 2-2h2c0-1.108.892-2 2-2h16c1.108 0 2 .892 2 2h24c.99 0 2 .892 2 2v-1c0-1.108-1.01-2-2-2H31c0-1.108-.892-2-2-2z" fill="#fff" opacity=".15"/>
 <path d="M6 56c-1.108 0-2-.892-2-2v-1c0 1.108.892 2 2 2h52c1.108 0 2-.892 2-2v1c0 1.108-.892 2-2 2z" opacity=".15"/>
 <path style="fill:#ffffff" d="m 31.522358,30.009969 c -5.56998,0.238889 -10.16697,4.734583 -10.5,10.5 -0.08829,1.518649 0.13041,2.98508 0.593705,4.337338 l 0.941337,-0.337613 c -0.420649,-1.228726 -0.615351,-2.560383 -0.535117,-3.940146 0.325956,-5.605908 5.058668,-9.881957 10.571477,-9.550485 5.512809,0.33146 9.717833,5.146083 9.391877,10.75199 -0.0327,0.562094 -0.120612,1.106362 -0.238263,1.638418 l 0.972583,0.230372 c 0.130191,-0.587219 0.227575,-1.188691 0.263653,-1.80921 0.358553,-6.166496 -4.267183,-11.461789 -10.33126,-11.826397 -0.379006,-0.02279 -0.755538,-0.02586 -1.126869,-0.01 z m 1.009689,2.04157 c -0.807629,-0.04555 -1.617662,0.01976 -2.408023,0.194624 l 0.18358,1.000924 c 0.710037,-0.160524 1.437595,-0.220338 2.163901,-0.180723 4.410251,0.265175 7.773882,4.114501 7.513111,8.59921 -0.0217,0.339402 -0.06509,0.676984 -0.128896,1.010854 l 1.001878,0.06157 c 0.0602,-0.334389 0.103725,-0.671726 0.126944,-1.010854 0.293368,-5.045318 -3.490965,-9.377278 -8.452495,-9.6756 z m -5.001579,1.203491 c -1.60688,0.933881 -2.890079,2.348109 -3.67746,4.051361 l 0.869075,0.526279 c 0.686019,-1.536707 1.82525,-2.81898 3.259523,-3.668069 z m 4.59536,6.118747 c -0.953356,0.03492 -1.909269,0.700153 -2.003757,1.771475 -0.06519,1.121188 0.776208,2.082514 1.878766,2.14881 0.738435,0.04403 1.439402,-0.328672 1.824083,-0.971135 -0.008,0.01362 -0.01574,0.02629 -0.02344,0.03972 L 41.601681,45 l 0.31443,-0.965177 -7.802153,-2.637356 v -0.01192 c -0.08482,-1.451082 -1.034775,-2.046698 -1.988132,-2.011777 z m -8.999329,0.345556 c -0.0523,0.306711 -0.08806,0.616919 -0.109367,0.927444 -0.0177,0.33933 -0.0186,0.677542 0,1.016812 l 1.009691,0.06157 c -0.0254,-0.339179 -0.02832,-0.679052 -0.01172,-1.018799 0.0149,-0.239561 0.04017,-0.479689 0.07616,-0.716931 z m 9.050106,0.530251 c 0.55129,0.03315 0.971981,0.513816 0.939384,1.074405 -0.0326,0.560568 -0.505284,0.988395 -1.056562,0.955247 -0.551289,-0.03315 -0.971981,-0.513816 -0.939383,-1.074404 0.0326,-0.560599 0.505282,-0.988396 1.056561,-0.955248 z" class="ColorScheme-Text"/>
</svg>
