<svg xmlns="http://www.w3.org/2000/svg" xmlns:xlink="http://www.w3.org/1999/xlink" width="64" height="64"><defs><linearGradient id="a"><stop offset="0"/><stop offset="1" stop-opacity="0"/></linearGradient><linearGradient xlink:href="#a" id="b" x1="31" x2="31" y1="1005.4" y2="1003.4" gradientTransform="matrix(.92593 0 0 1 2.37 -988.4)" gradientUnits="userSpaceOnUse"/></defs><path fill="#d0a15c" d="M13 8c-1.108 0-2 .892-2 2H9c-.99 0-2 .892-2 2v6c0 1.108 1.01 2 2 2h46c.99 0 2-.892 2-2v-6c0-1.108-1.01-2-2-2H31c0-1.108-.892-2-2-2z"/><rect width="46" height="9" x="9" y="12" opacity=".06" rx="2" ry="2"/><rect width="44" height="7" x="10" y="13" fill="#fff" rx="1" ry="1"/><rect width="56" height="39" x="4" y="17" fill="#d0a15c" rx="2" ry="2"/><rect width="50" height="2" x="7" y="15" fill="url(#b)" opacity=".1" ry="0"/><rect width="56" height="38" x="4" y="17" fill="#f4be70" rx="2" ry="2"/><rect width="50" height="5" x="7" y="56" fill="url(#d)" opacity=".1" ry="0"/><path fill="#fff" d="M6 17c-1.108 0-2 .892-2 2v1c0-1.108.892-2 2-2h52c1.108 0 2 .892 2 2v-1c0-1.108-.892-2-2-2zm7-9c-1.108 0-2 .892-2 2H9c-.99 0-2 .892-2 2v1c0-1.108 1.01-2 2-2h2c0-1.108.892-2 2-2h16c1.108 0 2 .892 2 2h24c.99 0 2 .892 2 2v-1c0-1.108-1.01-2-2-2H31c0-1.108-.892-2-2-2z" opacity=".15"/><path d="M32 27h-1c-.7.1-1.4.2-2 .4-3.1 1-5.6 3.5-6.6 6.6-.2.6-.3 1.3-.4 2v2c.1.7.2 1.3.4 2 1 3.1 3.5 5.6 6.6 6.6.6.1 1.3.3 2 .3.3.1.6.1 1 .1.3 0 .7 0 1-.1.7 0 1.3-.2 2-.3.6-.2 1.2-.5 1.8-.8 2.2-1.3 4-3.3 4.8-5.8.1-.7.3-1.3.3-2 .1-.3.1-.7.1-1 0-.4 0-.7-.1-1 0-.7-.2-1.4-.3-2-.4-1.2-1.1-2.4-1.88-3.4-.22-.2-.42-.4-.72-.7-.8-.9-1.9-1.6-3.1-2.1-.3-.1-.6-.3-.9-.4-.7-.2-1.3-.3-2-.4zm0 1c1.5 0 2.9.4 4.2 1 0 0 0 .1.1.09 0 .01 0 .11.04.11.06 0 .06 0 .06.05.1.05.1.05.1.125 0 .025-.1.025-.16.125-.04.1-.04.1-.04.16 0 .04 0 .04.04.09-.04.05-.04.05-.04.15.1.1.2 0 .3 0 .2-.1.3 0 .4-.1 0-.1.1-.1.16-.2.04.1.14.1.18.2-.04 0-.14 0-.14.04-.1.06-.1.06-.2.16 0 0 0 .09-.1.09s-.2-.09-.21-.09c-.09.1-.09.1-.1.2-.09.031-.29-.1-.37.05.08.104.18.05.28.125.1.036.2.225.19.285.01.047.01.24 0 .24-.059.2-.21.1-.377.1-.046 0-.113.1-.113 0-.3 0-.6 0-.7.16.009.14 0 .24 0 .34-.025.1-.1.2-.125.3.002 0 .125.1.125.2 0 0-.1 0-.031.09.047.11.131-.01.251 0 .079.01.18.11.18.21 0 .076-.1.2-.1.3-.067.082-.2 0-.331.12-.069.053-.169.18-.169.28-.1.1-.2.1-.1.3-.094.1-.2.2-.36.3-.04 0-.14.1-.15.12-.09.024-.09.08-.09.12-.1.075-.19.16-.225.16-.026.042.025.1-.035.2-.04 0-.14.1-.14.2-.036 0-.08.1-.11.1-.09.137-.09.2-.09.3 0 .102.1.1.09.2.01.044-.09.1-.09.125 0 .075.1.075.09.175.01.1-.065.2-.09.3-.013.006.01.053 0 .09-.022.065-.123.105-.1.21-.027.031.1.083.1.1-.027.117-.073.168-.1.22.058.097.242.235.32.28.102.135.203.203.249.3.031.105.054.256.121.325.056.05.155.072.21.125.076.05.164.072.2.125.142.087.292.263.469.225.092.018.177-.02.281 0 .107-.056.25-.1.34-.1.11.009.11.068.25.1.095-.043.213-.086.32-.131.176-.078.453-.269.715-.169.225 0 .225.236.345.3.159.04.278-.006.405 0 .096.049.21.23.215.306.013.094-.04.094-.04.184-.044.11-.063.249-.08.316-.016.053-.034.104-.02.194 0 .01.063.12.112.2.088 0 .147.116.188.2.164.153.22.36.3.6.036.013-.01.024 0 .09-.027.303-.131.503-.331.81-.069.14-.19.27-.169.406-.026.327.152.496.1.814.005.424.04.49.006.68.144.11.073.324-.006.5-.024.155-.084.199-.1.32a.32.32 0 0 0 .2.03A9 9 0 0 1 32 46a9.1 9.1 0 0 1-3.4-.66c.022.002.028-.026 0-.028.12-.04.3.07.369-.062.034-.064-.046-.186 0-.25.032-.044.245-.083.331-.094.078-.016.177.004.2-.006a.34.34 0 0 0 .16-.3c-.009-.028-.056-.053-.06-.1-.072-.04-.045-.089-.1-.125-.012-.064-.076-.095-.094-.175.131-.038.311.134.5.1.09-.044.24-.216.294-.3 0-.026-.027-.125 0-.16.004-.03.044-.04.05-.04.013-.068-.01-.082 0-.11.033-.095.133-.154.15-.221.08-.051.124-.104.2-.157.006-.056.027-.075.06-.112.024-.178-.106-.305-.07-.45.047-.164.283-.27.41-.344.086-.025.142-.077.2-.093.097-.039.23-.027.3-.063.202-.062.26-.25.34-.41.044-.069.09-.131.06-.18.045-.051.029-.105 0-.16.047-.054.054-.096.1-.16-.011-.074 0-.222 0-.34 0-.041-.03-.06 0-.1-.044-.261.038-.271.125-.4.044-.064.063-.173.095-.2.146-.237.392-.344.37-.7-.003-.084-.041-.315-.121-.35-.046-.02-.152-.006-.219-.03-.215-.081-.37-.327-.59-.32-.051-.027-.076-.023-.16 0-.056-.027-.152-.108-.25-.1-.062-.026-.182 0-.25 0-.025-.046-.017-.144-.1-.2.001 0-.062-.017-.1 0a.5.5 0 0 0-.3-.1c-.001-.002-.089.005-.125 0-.056-.009-.104-.061-.155-.094a.5.5 0 0 1-.13-.106c.064-.215-.144-.248-.184-.4-.018-.015.018-.103 0-.15-.023-.067-.081-.1-.156-.16-.13-.098-.25-.191-.437-.215-.084-.009-.182.007-.313 0a.5.5 0 0 1-.28-.155c-.078-.09-.09-.178-.12-.22-.101-.04-.213-.052-.26-.094-.016-.018-.01-.052-.027-.106-.033-.053-.103-.064-.063-.14-.073-.04-.047.042-.125.03-.07-.1-.121-.158-.285-.09-.069-.023-.13.086-.24.09-.046 0-.101-.115-.194-.09-.07-.047-.17.036-.206 0-.09.01-.098-.084-.2-.131-.021-.035-.127-.127-.16-.129-.087.006-.152.196-.24.129-.1-.078.067-.084-.01-.157-.05-.054-.078.003-.121.028-.051.038-.1.078-.157.06-.125.085-.214.08-.312.1-.09.079-.104.157-.16.25-.038.076-.12.184-.18.15-.08.043-.153-.058-.26-.1-.172-.078-.29.073-.5.1-.122-.023-.345-.28-.3-.431-.033-.093.014-.23 0-.344.034-.09.117-.166.12-.225 0-.136-.179-.231-.251-.24-.171-.025-.4.073-.569 0-.061-.066.047-.1.1-.16-.019-.035-.044-.056 0-.094-.01-.058.066-.094.09-.156.024-.047.015-.13.035-.25.024-.003.088-.046.095-.094.006-.062-.046-.147-.095-.186-.15.008-.256.022-.325.08-.215.07-.164.326-.4.4-.03.01-.136.037-.2.05q.176-.982.6-1.875c.05.013.109.057.2.025.136.05.143-.077.3-.15.123.02.196-.014.3 0 .112.009.237.12.306.125.058.002.07-.072.094-.062.086.008.178.122.2.187-.003.082-.067.16-.04.25.082.087.25.137.34.15.111-.028.044-.18 0-.3.03-.017.036-.062 0-.1.022-.065 0-.131 0-.187 0-.26.2-.367.4-.473.05-.04.128-.12.19-.15.096-.048.146-.053.223-.1a2.2 2.2 0 0 0 .377-.25c.047-.114-.008-.255 0-.34.047-.062.07-.026.11 0 .096-.05.121-.172.169-.2.027-.046.123-.054.156-.08.084-.067.084-.16.175-.22.007.022.066.01.106 0 .055-.015.132-.063.194-.094.081-.02.222-.01.24-.031.031-.027-.003-.146 0-.175.047-.218.351-.225.535-.294.127-.049.264-.152.425-.106-.046.08-.167.05-.14.2.027.134.22-.07.24-.094.148-.047.36-.072.506-.106.128-.064.339-.153.194-.3-.075-.007-.106.089-.194.1-.106.034-.074-.003-.106-.01-.068.002-.095.044-.14.01-.053.016-.121-.073-.16-.131.011-.153.188-.2.25-.309-.042-.142-.227-.012-.344-.07.013-.078.06-.167.094-.184.14-.012.328.025.375.094.027-.008-.01.055.031.09.048.046.126.013.184 0 .026-.1-.14-.054-.121-.09.123-.111.349-.074.531-.094.056-.012.14-.083.22-.106.071-.06.141-.12.18-.05.06.075-.015.118-.06.156a1.6 1.6 0 0 0-.34.407c.036.065.137.018.25.027.044.009.11.028.156.035.055.009.113-.009.194 0 .039.018.042.125.12.125.122 0 .132-.104.08-.187.003-.086.043-.16 0-.223-.044-.109-.258.022-.3-.09.024-.122.124-.15.16-.2-.018-.193.14-.204.14-.4-.028-.028-.098-.026-.14-.087-.027-.033-.039-.102-.07-.113-.09-.092-.267-.079-.277-.231-.005-.091.012-.152 0-.249-.013-.094-.108-.358-.188-.38-.102-.018-.16.166-.285.26-.062-.007-.179.007-.25-.01-.04-.005-.116-.038-.121-.121-.005-.048.01-.065.031-.094.005-.007-.005-.024 0-.035A9.2 9.2 0 0 1 32 28m-3.7.8c-.107.297-.364.459-.71.45-.08.08-.045.233-.09.34a.27.27 0 0 1-.25.16c-.067-.005-.25-.093-.25-.16 0-.048.113-.107.125-.19.368-.2.754-.404 1.175-.6m7.6.325c.004.006-.027.014-.06.035-.065.038-.069.101-.12.14-.076.009-.178.008-.22.075.022.056.096.074.09.125-.024.067-.075.074-.09.16.093.147.323-.002.4-.06.088.01.135.033.1-.01.093-.045.07-.146.09-.215.03-.076.107-.058.11-.125-.02-.067-.15-.136-.3-.125M26 30.3c.098.062.154.179 0 .2.013.04-.206.072-.25.1a1 1 0 0 1-.03-.1c.094-.062.212-.13.28-.2m.3.29c.025.006.055.094.106.1.05.002.127-.043.194-.03.039.016.067.159-.01.24-.056-.018-.078-.097-.121-.1-.124.034-.158.27-.249.2-.089.053-.153-.124-.06-.2-.002-.042-.039-.058-.035-.11.027-.037.083-.102.175-.1m-.4.07s-.003-.015.006 0c-.012.093-.05.107-.106.14a.7.7 0 0 0-.3.36c.019.045-.126.196-.187.18-.144-.027.06-.298.093-.34.037-.046.083-.074.094-.1.073-.076.085-.183.1-.21.069-.033.199-.037.3-.03m12.3.246c.131-.009.203.163.269.254.054.067.223.166.331.215.032.027.081.068.1.094a.7.7 0 0 1 .26.121 1 1 0 0 1 .14.21c-.017.07-.06.114-.05.2.063-.021.096-.085.125-.16.236.34.436.699.625 1.066-.038.024-.055.047-.1.094.02.102.096.232-.06.25-.093.013-.207-.096-.34-.125-.054-.013-.144.014-.187 0-.1-.035-.071-.159-.153-.219a1.2 1.2 0 0 0-.254-.106c-.049.008-.074.02-.106 0-.08.006-.187.012-.2 0-.087-.05-.212-.102-.225-.14-.02-.071.153-.166.125-.26.035-.006-.022-.022-.031-.087-.007-.04.009-.1 0-.113-.013-.06-.082-.104-.157-.11-.065 0-.13.035-.187.035-.08.002-.244-.04-.325-.035-.079.009-.119.031-.2.035-.133.013-.226-.009-.35 0-.09.005-.26.056-.344.095-.042.019-.07.065-.106.093-.044.012-.08.016-.11.027-.053.027-.14.085-.19.06-.07.056-.152.032-.28 0-.094.043-.25.023-.22-.087-.033-.17.278-.096.4-.113.098-.025.121-.096.19-.2.038.042.065.022.1 0 .052-.038.145-.113.15-.16.01-.036-.033-.092-.04-.12.02-.04.088-.077.1-.13.114-.073.162-.166.26-.215.06-.035.186-.043.215-.075.007-.077-.002-.091 0-.14.04-.04.03-.059.025-.07.136-.018.235.04.35.035.05-.002.104.004.156-.035A.3.3 0 0 0 38 31c.079-.026.13-.09.2-.094M26.72 31c.023-.004.063.003.08 0 .054-.002.092 0 .1 0 .083 0 .144-.018.1 0 .033.12-.25.075-.34 0-.001.009.035.004.06 0m-.345.22c.03 0 .061-.014.094 0-.084.07-.199.11-.344.155-.07.022-.175.045-.225-.035.023-.09.1-.081.1-.09.142-.009.282-.03.375-.03m11.845 0c-.061.019-.09.139 0 .155.04-.025.041-.08.03-.155-.024-.027-.013-.008-.03 0m-.02.249c-.042.009-.075-.002-.11.031.006.102.024.16 0 .25.062.113.193.045.222-.03.035-.19-.037-.275-.112-.251m.769.531c-.08-.035-.14-.007-.169 0 .049.14.174.16.325.2.054-.053.037-.162.075-.2-.078 0-.12-.027-.2 0zM23.09 35.8c.068.094.137.189.223.2.045.055.098.05.156 0 .047.072.08.11.121.125.1.033.24.028.316.075.117.038.184.242.294.3-.008.058-.03.113 0 .16.035.06.13.08.206.14.093.032.132.16.194.2.056.013.103-.014.15 0 .12.036.146.218.25.2.067-.033.083-.135.09-.2.05-.05.089-.1.16-.1.113-.027.146.114.15.225.061.062.115.122.1.188.059.112.055.432 0 .487.002.096-.118.14-.187.2a1 1 0 0 1-.093.16c-.045.05-.093.072-.13.14-.014.009-.011.068-.09.106.008.117-.077.204 0 .344-.013.056 0 .12 0 .15 0 .117-.112.138-.1.225-.034.064.049.196.1.281-.017.064.087.115.125.194.064.033.13.122.188.2.114.189.168.402.277.575.01.09.183.155.21.225.032.072-.006.169 0 .2.078.16.396.315.54.4.073.022.128.045.16.1.128.036.326.146.4.2.019.108.047.284.069.406.027.16-.007.296 0 .469.005.094.031.155.031.225 0 .058.002.117 0 .15-.002.113.009.23 0 .34a2 2 0 0 0 0 .21c.005.038.059.057 0 .106.067.053-.006.115 0 .194.013.077.134.17.16.3.014.059.038.25.04.35-.02.053-.036.13-.04.15-.009.083.003.12 0 .2C24.665 42.962 23 40.181 23 37c0-.408.041-.794.09-1.2m3.41.92c.119-.041.102.113 0 .12-.036.013-.034-.09 0-.12" class="ColorScheme-Text" style="fill:#fff"/></svg>