<?xml version="1.0" encoding="UTF-8"?>
<svg xmlns="http://www.w3.org/2000/svg" viewBox="0 0 64 64">
 <defs>
  <linearGradient id="a">
   <stop offset="0"/>
   <stop stop-opacity="0" offset="1"/>
  </linearGradient>
  <linearGradient id="b" x1="31" x2="31" y1="1005.4" y2="1003.4" gradientTransform="matrix(.92593 0 0 1 2.37 -988.4)" gradientUnits="userSpaceOnUse" xlink:href="#a"/>
  <radialGradient id="d" cx="32" cy="1021.9" r="25" gradientTransform="matrix(-1 0 0 -.08 64 137.7)" gradientUnits="userSpaceOnUse" xlink:href="#a"/>
 </defs>
 <path d="M13 8c-1.108 0-2 .892-2 2H9c-.99 0-2 .892-2 2v6c0 1.108 1.01 2 2 2h46c.99 0 2-.892 2-2v-6c0-1.108-1.01-2-2-2H31c0-1.108-.892-2-2-2z" fill="#d0a15c"/>
 <rect x="9" y="12" width="46" height="9" rx="2" ry="2" opacity=".06"/>
 <rect x="10" y="13" width="44" height="7" rx="1" ry="1" fill="#fff"/>
 <rect x="4" y="17" width="56" height="39" rx="2" ry="2" fill="#d0a15c"/>
 <rect x="7" y="15" width="50" height="2" ry="0" fill="url(#b)" opacity=".1"/>
 <rect x="4" y="17" width="56" height="38" rx="2" ry="2" fill="#f4be70"/>
 <rect x="7" y="56" width="50" height="5" ry="0" fill="url(#d)" opacity=".1"/>
 <path d="M6 17c-1.108 0-2 .892-2 2v1c0-1.108.892-2 2-2h52c1.108 0 2 .892 2 2v-1c0-1.108-.892-2-2-2zM13 8c-1.108 0-2 .892-2 2H9c-.99 0-2 .892-2 2v1c0-1.108 1.01-2 2-2h2c0-1.108.892-2 2-2h16c1.108 0 2 .892 2 2h24c.99 0 2 .892 2 2v-1c0-1.108-1.01-2-2-2H31c0-1.108-.892-2-2-2z" fill="#fff" opacity=".15"/>
 <path style="fill:#ffffff" d="M 40 30 L 32 30 L 27.56 37.7 L 26 35 L 24 35 L 24 36 L 25.431641 36 L 27.6 39.7 L 32.6 31 L 39 31 L 39 32 L 40 32 L 40 30 z M 35 33 C 33.338 33 32 34.3 32 36 C 32 37.7 33.338 39 35 39 C 35.773 39 36.5 38.7 37 38.2 L 37 39 L 38 39 L 38 33 L 37 33 L 37 33.8 C 36.469 33.3 35.773 33 35 33 z M 35 34 C 36.108 34 37 34.9 37 36 C 37 37.1 36.108 38 35 38 C 33.892 38 33 37.1 33 36 C 33 34.9 33.892 34 35 34 z M 23 41 C 23 41 23 41.223 23 41.5 C 23 41.777 23 42 23 42 L 41 42 C 41 42 41 41.777 41 41.5 C 41 41.223 41 41 41 41 L 23 41 z M 31 44 C 31 44 31 44.223 31 44.5 C 31 44.777 31 45 31 45 L 33 45 C 33 45 33 44.777 33 44.5 C 33 44.223 33 44 33 44 L 31 44 z " class="ColorScheme-Text"/>
</svg>
