<svg xmlns="http://www.w3.org/2000/svg" xmlns:xlink="http://www.w3.org/1999/xlink" width="64" height="64"><defs><linearGradient id="a"><stop offset="0"/><stop offset="1" stop-opacity="0"/></linearGradient><linearGradient xlink:href="#a" id="b" x1="31" x2="31" y1="1005.4" y2="1003.4" gradientTransform="matrix(.92593 0 0 1 2.37 -988.4)" gradientUnits="userSpaceOnUse"/></defs><path fill="#d0a15c" d="M13 8c-1.108 0-2 .892-2 2H9c-.99 0-2 .892-2 2v6c0 1.108 1.01 2 2 2h46c.99 0 2-.892 2-2v-6c0-1.108-1.01-2-2-2H31c0-1.108-.892-2-2-2z"/><rect width="46" height="9" x="9" y="12" opacity=".06" rx="2" ry="2"/><rect width="44" height="7" x="10" y="13" fill="#fff" rx="1" ry="1"/><rect width="56" height="39" x="4" y="17" fill="#d0a15c" rx="2" ry="2"/><rect width="50" height="2" x="7" y="15" fill="url(#b)" opacity=".1" ry="0"/><rect width="56" height="38" x="4" y="17" fill="#f4be70" rx="2" ry="2"/><rect width="50" height="5" x="7" y="56" fill="url(#d)" opacity=".1" ry="0"/><path fill="#fff" d="M6 17c-1.108 0-2 .892-2 2v1c0-1.108.892-2 2-2h52c1.108 0 2 .892 2 2v-1c0-1.108-.892-2-2-2zm7-9c-1.108 0-2 .892-2 2H9c-.99 0-2 .892-2 2v1c0-1.108 1.01-2 2-2h2c0-1.108.892-2 2-2h16c1.108 0 2 .892 2 2h24c.99 0 2 .892 2 2v-1c0-1.108-1.01-2-2-2H31c0-1.108-.892-2-2-2z" opacity=".15"/><path d="m39.758 24.96-.31 1.061a5 5 0 0 0-1.887.206l-.53-.97-1.756.96.53.969a5 5 0 0 0-1.194 1.476l-1.056-.308-.563 1.917 1.06.311a5 5 0 0 0 .204 1.889l-.969.529.96 1.756.968-.531c.412.489.914.895 1.478 1.195l-.31 1.057 1.92.562.31-1.06a5 5 0 0 0 1.887-.206l.531.97 1.754-.96-.53-.969a5 5 0 0 0 1.194-1.476l1.057.308.562-1.917-1.06-.311a5 5 0 0 0-.203-1.889l.968-.529-.959-1.756-.968.531a5 5 0 0 0-1.479-1.195l.31-1.057zm-.988 2.05a4 4 0 0 1 1.386.152 4 4 0 1 1-1.386-.152m-13.33 2.922-1.99.195.107 1.1c-.61.188-1.178.49-1.674.892l-.856-.701-1.27 1.545.854.701a5 5 0 0 0-.554 1.818l-1.096.108.195 1.99 1.1-.107c.188.61.49 1.177.892 1.673l-.7.856 1.544 1.27.701-.854a5 5 0 0 0 1.819.555l.107 1.095 1.99-.195-.107-1.1a5 5 0 0 0 1.674-.892l.855.701 1.27-1.545-.854-.701a5 5 0 0 0 .555-1.818l1.096-.108-.196-1.99-1.1.107a5 5 0 0 0-.892-1.673l.701-.856-1.545-1.27-.7.854a5 5 0 0 0-1.82-.555zm-.028 2.086a4.004 4.004 0 0 1 3.598 3.591 4 4 0 1 1-3.598-3.591M34.03 36v1.105a5 5 0 0 0-1.754.727l-.78-.781-1.415 1.414.781.781a5 5 0 0 0-.73 1.754h-1.102v2h1.106c.128.626.374 1.22.726 1.754l-.78.781 1.413 1.414.781-.781a5 5 0 0 0 1.754.73V48h2v-1.105a5 5 0 0 0 1.754-.727l.781.781 1.415-1.414-.782-.781a5 5 0 0 0 .73-1.754h1.102v-2h-1.105a5 5 0 0 0-.727-1.754l.782-.781-1.415-1.414-.78.781a5 5 0 0 0-1.755-.73V36zm1 2a4.001 4.001 0 0 1 2.87 6.787A4.001 4.001 0 1 1 35.028 38" class="ColorScheme-Text" style="fill:#fff"/></svg>