<?xml version="1.0" encoding="UTF-8"?>
<svg xmlns="http://www.w3.org/2000/svg" viewBox="0 0 64 64">
 <defs>
  <linearGradient id="a">
   <stop offset="0"/>
   <stop stop-opacity="0" offset="1"/>
  </linearGradient>
  <linearGradient id="b" x1="31" x2="31" y1="1005.4" y2="1003.4" gradientTransform="matrix(.92593 0 0 1 2.37 -988.4)" gradientUnits="userSpaceOnUse" xlink:href="#a"/>
  <radialGradient id="d" cx="32" cy="1021.9" r="25" gradientTransform="matrix(-1 0 0 -.08 64 137.7)" gradientUnits="userSpaceOnUse" xlink:href="#a"/>
 </defs>
 <path d="M13 8c-1.108 0-2 .892-2 2H9c-.99 0-2 .892-2 2v6c0 1.108 1.01 2 2 2h46c.99 0 2-.892 2-2v-6c0-1.108-1.01-2-2-2H31c0-1.108-.892-2-2-2z" fill="#d0a15c"/>
 <rect x="9" y="12" width="46" height="9" rx="2" ry="2" opacity=".06"/>
 <rect x="10" y="13" width="44" height="7" rx="1" ry="1" fill="#fff"/>
 <rect x="4" y="17" width="56" height="39" rx="2" ry="2" fill="#d0a15c"/>
 <rect x="7" y="15" width="50" height="2" ry="0" fill="url(#b)" opacity=".1"/>
 <rect x="4" y="17" width="56" height="38" rx="2" ry="2" fill="#f4be70"/>
 <rect x="7" y="56" width="50" height="5" ry="0" fill="url(#d)" opacity=".1"/>
 <path d="M6 17c-1.108 0-2 .892-2 2v1c0-1.108.892-2 2-2h52c1.108 0 2 .892 2 2v-1c0-1.108-.892-2-2-2zM13 8c-1.108 0-2 .892-2 2H9c-.99 0-2 .892-2 2v1c0-1.108 1.01-2 2-2h2c0-1.108.892-2 2-2h16c1.108 0 2 .892 2 2h24c.99 0 2 .892 2 2v-1c0-1.108-1.01-2-2-2H31c0-1.108-.892-2-2-2z" fill="#fff" opacity=".15"/>
 <path style="fill:#ffffff" d="M 45.7 20.8 C 43.9 21 29.5 36.1 29.5 36.1 L 24.9 41.2 C 24.3 41.4 23.152 41.222 22.5 41.5 C 20.9 42.1 19.9 42.779 19.1 45 C 18.4 46.9 20.4 50.16 22.1 49.6 C 21.3 49.6 20.3 48.5 20.8 47.7 C 21.8 45.8 25.75 46.217 25.6 42 L 30.6 37.3 C 30.6 37.3 46.9 22 45.9 21 L 45.8 21 L 45.7 20.8 z M 40.4 36.1 C 39.8 36.1 38.8 37.1 36.8 40.1 C 34.9 43.3 29.9 45.5 30.2 42.4 C 30.3 41.6 28.4 41.9 26.6 41.9 C 26.6 47.3 23.531172 45.9 21.7 48.2 C 21.5 50 29.9 51.077 34.4 48 C 39.8 44.3 40.9 39.3 41 37.6 C 41 36.7 40.8 36.1 40.4 36.1 z M 33.3 40 C 33.3 40.3 32.6 40.1 32.3 40.3 C 31.6 40.7 31.276 41.299219 31.5 41.7 C 31.7 42.1 32.4 42.1 33.1 41.7 C 33.8 41.3 34.124391 40.7 33.9 40.3 C 33.8 40.1 33.6 40 33.3 40 z " class="ColorScheme-Text"/>
</svg>
