<svg xmlns="http://www.w3.org/2000/svg" xmlns:xlink="http://www.w3.org/1999/xlink" width="64" height="64"><defs><linearGradient id="a"><stop offset="0"/><stop offset="1" stop-opacity="0"/></linearGradient><linearGradient xlink:href="#a" id="b" x1="31" x2="31" y1="1005.4" y2="1003.4" gradientTransform="matrix(.92593 0 0 1 2.37 -988.4)" gradientUnits="userSpaceOnUse"/></defs><path fill="#5c5c5c" d="M13 8c-1.108 0-2 .892-2 2H9c-.99 0-2 .892-2 2v5H6c-1.108 0-2 .892-2 2v35c0 1.108.892 2 2 2h52c1.108 0 2-.892 2-2V19c0-1.108-.892-2-2-2h-1v-5c0-1.108-1.01-2-2-2H31c0-1.108-.892-2-2-2z"/><path d="M13 8c-1.108 0-2 .892-2 2H9c-.99 0-2 .892-2 2v5h50v-5c0-1.108-1.01-2-2-2H31c0-1.108-.892-2-2-2z" opacity=".2"/><path d="M11 12c-1.108 0-2 .892-2 2v3h46v-3c0-1.108-.892-2-2-2z" opacity=".06"/><path fill="#fff" d="M11 13c-.554 0-1 .446-1 1v3h44v-3c0-.554-.446-1-1-1z"/><rect width="50" height="2" x="7" y="15" fill="url(#b)" opacity=".1" ry="0"/><rect width="50" height="5" x="7" y="56" fill="url(#d)" opacity=".1" ry="0"/><path fill="#fff" d="M6 17c-1.108 0-2 .892-2 2v1c0-1.108.892-2 2-2h52c1.108 0 2 .892 2 2v-1c0-1.108-.892-2-2-2zm7-9c-1.108 0-2 .892-2 2H9c-.99 0-2 .892-2 2v1c0-1.108 1.01-2 2-2h2c0-1.108.892-2 2-2h16c1.108 0 2 .892 2 2h24c.99 0 2 .892 2 2v-1c0-1.108-1.01-2-2-2H31c0-1.108-.892-2-2-2z" opacity=".15"/><path d="M6 56c-1.108 0-2-.892-2-2v-1c0 1.108.892 2 2 2h52c1.108 0 2-.892 2-2v1c0 1.108-.892 2-2 2z" opacity=".15"/><path d="M6 17v4h4v-4zm4 4v4h4v-4zm4 0h4v-4h-4zm4 0v4h4v-4zm4 0h4v-4h-4zm4 0v4h4v-4zm4 0h4v-4h-4zm4 0v4h4v-4zm4 0h4v-4h-4zm4 0v4h4v-4zm4 0h4v-4h-4zm4 0v4h4v-4zm4 0h4v-4h-4zm4 0v4h2v-4zm0 4h-4v4h4zm-8 0h-4v4h4zm-8 0h-4v4h4zm-8 0h-4v4h4zm-8 0h-4v4h4zm-8 0h-4v4h4zm-8 0H6v4h4zm-4 0v-4H4v4z" opacity=".2"/><path fill="#fff" d="M32 27c-2.77 0-5 2.23-5 5v1h1v-1c0-2.4 1.9-4 4-4 2 0 4 1.6 4 4v5H24v10h16V37h-3v-5c0-2.77-2.23-5-5-5m-7 11h14v8H25z" class="ColorScheme-Text"/></svg>