<?xml version="1.0" encoding="UTF-8"?>
<svg xmlns="http://www.w3.org/2000/svg" viewBox="0 0 64 64">
 <defs>
  <linearGradient id="a">
   <stop offset="0"/>
   <stop stop-opacity="0" offset="1"/>
  </linearGradient>
  <linearGradient id="b" x1="31" x2="31" y1="1005.4" y2="1003.4" gradientTransform="matrix(.92593 0 0 1 2.37 -988.4)" gradientUnits="userSpaceOnUse" xlink:href="#a"/>
  <radialGradient id="d" cx="32" cy="1021.9" r="25" gradientTransform="matrix(-1 0 0 -.08 64 137.7)" gradientUnits="userSpaceOnUse" xlink:href="#a"/>
 </defs>
 <path style="fill:#ff8b23" d="M13 8c-1.108 0-2 .892-2 2H9c-.99 0-2 .892-2 2v5H6c-1.108 0-2 .892-2 2v35c0 1.108.892 2 2 2h52c1.108 0 2-.892 2-2V19c0-1.108-.892-2-2-2h-1v-5c0-1.108-1.01-2-2-2H31c0-1.108-.892-2-2-2z"/>
 <path d="M13 8c-1.108 0-2 .892-2 2H9c-.99 0-2 .892-2 2v5h50v-5c0-1.108-1.01-2-2-2H31c0-1.108-.892-2-2-2z" opacity=".2"/>
 <path d="M11 12c-1.108 0-2 .892-2 2v3h46v-3c0-1.108-.892-2-2-2z" opacity=".06"/>
 <path d="M11 13c-.554 0-1 .446-1 1v3h44v-3c0-.554-.446-1-1-1z" fill="#fff"/>
 <rect x="7" y="15" width="50" height="2" ry="0" fill="url(#b)" opacity=".1"/>
 <rect x="7" y="56" width="50" height="5" ry="0" fill="url(#d)" opacity=".1"/>
 <path d="M6 17c-1.108 0-2 .892-2 2v1c0-1.108.892-2 2-2h52c1.108 0 2 .892 2 2v-1c0-1.108-.892-2-2-2zM13 8c-1.108 0-2 .892-2 2H9c-.99 0-2 .892-2 2v1c0-1.108 1.01-2 2-2h2c0-1.108.892-2 2-2h16c1.108 0 2 .892 2 2h24c.99 0 2 .892 2 2v-1c0-1.108-1.01-2-2-2H31c0-1.108-.892-2-2-2z" fill="#fff" opacity=".15"/>
 <path d="M6 56c-1.108 0-2-.892-2-2v-1c0 1.108.892 2 2 2h52c1.108 0 2-.892 2-2v1c0 1.108-.892 2-2 2z" opacity=".15"/>
 <path style="fill:#ffffff" d="m 30,26 v 6 h 1 v -6 z m 4,2 v 3 h 1 v -3 z m -8,1 v 4 h 1 v -4 z m -3,5 v 7 c 0,3.324 2.676,6 6,6 h -5 v 1 h 14 v -1 h -5 c 2.621,0 4.831,-1.667 5.652,-4 H 40.5 c 1.385,0 2.5,-1.115 2.5,-2.5 v -2 C 43,37.115 41.885,36 40.5,36 H 39 v -2 z m 1,1 h 14 v 6 c 0,2.77 -2.23,5 -5,5 h -4 c -2.77,0 -5,-2.23 -5,-5 z m 15,2 h 1.672 C 41.408,37 42,37.592 42,38.328 v 2.344 C 42,41.408 41.408,42 40.672,42 H 38.91 C 38.964,41.674 39,41.342 39,41 Z" class="ColorScheme-Text"/>
</svg>
