<?xml version="1.0" encoding="UTF-8"?>
<svg xmlns="http://www.w3.org/2000/svg" viewBox="0 0 64 64">
 <defs>
  <linearGradient id="a">
   <stop offset="0"/>
   <stop stop-opacity="0" offset="1"/>
  </linearGradient>
  <linearGradient id="b" x1="31" x2="31" y1="1005.4" y2="1003.4" gradientTransform="matrix(.92593 0 0 1 2.37 -988.4)" gradientUnits="userSpaceOnUse" xlink:href="#a"/>
  <radialGradient id="d" cx="32" cy="1021.9" r="25" gradientTransform="matrix(-1 0 0 -.08 64 137.7)" gradientUnits="userSpaceOnUse" xlink:href="#a"/>
 </defs>
 <path d="M13 8c-1.108 0-2 .892-2 2H9c-.99 0-2 .892-2 2v6c0 1.108 1.01 2 2 2h46c.99 0 2-.892 2-2v-6c0-1.108-1.01-2-2-2H31c0-1.108-.892-2-2-2z" fill="#d0a15c"/>
 <rect x="9" y="12" width="46" height="9" rx="2" ry="2" opacity=".06"/>
 <rect x="10" y="13" width="44" height="7" rx="1" ry="1" fill="#fff"/>
 <rect x="4" y="17" width="56" height="39" rx="2" ry="2" fill="#d0a15c"/>
 <rect x="7" y="15" width="50" height="2" ry="0" fill="url(#b)" opacity=".1"/>
 <rect x="4" y="17" width="56" height="38" rx="2" ry="2" fill="#f4be70"/>
 <rect x="7" y="56" width="50" height="5" ry="0" fill="url(#d)" opacity=".1"/>
 <path d="M6 17c-1.108 0-2 .892-2 2v1c0-1.108.892-2 2-2h52c1.108 0 2 .892 2 2v-1c0-1.108-.892-2-2-2zM13 8c-1.108 0-2 .892-2 2H9c-.99 0-2 .892-2 2v1c0-1.108 1.01-2 2-2h2c0-1.108.892-2 2-2h16c1.108 0 2 .892 2 2h24c.99 0 2 .892 2 2v-1c0-1.108-1.01-2-2-2H31c0-1.108-.892-2-2-2z" fill="#fff" opacity=".15"/>
 <path style="fill:#ffffff" d="M 38.9 27 A 2 2 0 0 0 36.9 29 A 2 2 0 0 0 38.9 31 A 2 2 0 0 0 40.9 29 A 2 2 0 0 0 38.9 27 z M 35.4 30 A 0.5 0.5 0 0 0 34.9 30.5 A 0.5 0.5 0 0 0 35.4 31 A 0.5 0.5 0 0 0 35.9 30.5 A 0.5 0.5 0 0 0 35.4 30 z M 32.4 32 A 0.5 0.5 0 0 0 31.9 32.5 A 0.5 0.5 0 0 0 32.4 33 A 0.5 0.5 0 0 0 32.9 32.5 A 0.5 0.5 0 0 0 32.4 32 z M 29.4 34 A 0.5 0.5 0 0 0 28.9 34.5 A 0.5 0.5 0 0 0 29.4 35 A 0.5 0.5 0 0 0 29.9 34.5 A 0.5 0.5 0 0 0 29.4 34 z M 24.9 35 A 2 2 0 0 0 22.9 37 A 2 2 0 0 0 24.9 39 A 2 2 0 0 0 26.9 37 A 2 2 0 0 0 24.9 35 z M 29.4 39 A 0.5 0.5 0 0 0 28.9 39.5 A 0.5 0.5 0 0 0 29.4 40 A 0.5 0.5 0 0 0 29.9 39.5 A 0.5 0.5 0 0 0 29.4 39 z M 32.4 41 A 0.5 0.5 0 0 0 31.9 41.5 A 0.5 0.5 0 0 0 32.4 42 A 0.5 0.5 0 0 0 32.9 41.5 A 0.5 0.5 0 0 0 32.4 41 z M 35.4 43 A 0.5 0.5 0 0 0 34.9 43.5 A 0.5 0.5 0 0 0 35.4 44 A 0.5 0.5 0 0 0 35.9 43.5 A 0.5 0.5 0 0 0 35.4 43 z M 38.9 43 A 2 2 0 0 0 36.9 45 A 2 2 0 0 0 38.9 47 A 2 2 0 0 0 40.9 45 A 2 2 0 0 0 38.9 43 z " class="ColorScheme-Text"/>
</svg>
