<?xml version="1.0" encoding="UTF-8"?>
<svg xmlns="http://www.w3.org/2000/svg" viewBox="0 0 64 64">
 <defs>
  <linearGradient id="a">
   <stop offset="0"/>
   <stop stop-opacity="0" offset="1"/>
  </linearGradient>
  <linearGradient id="b" x1="31" x2="31" y1="1005.4" y2="1003.4" gradientTransform="matrix(.92593 0 0 1 2.37 -988.4)" gradientUnits="userSpaceOnUse" xlink:href="#a"/>
  <radialGradient id="d" cx="32" cy="1021.9" r="25" gradientTransform="matrix(-1 0 0 -.08 64 137.7)" gradientUnits="userSpaceOnUse" xlink:href="#a"/>
 </defs>
 <path style="fill:#3bad7e" d="M13 8c-1.108 0-2 .892-2 2H9c-.99 0-2 .892-2 2v5H6c-1.108 0-2 .892-2 2v35c0 1.108.892 2 2 2h52c1.108 0 2-.892 2-2V19c0-1.108-.892-2-2-2h-1v-5c0-1.108-1.01-2-2-2H31c0-1.108-.892-2-2-2z"/>
 <path d="M13 8c-1.108 0-2 .892-2 2H9c-.99 0-2 .892-2 2v5h50v-5c0-1.108-1.01-2-2-2H31c0-1.108-.892-2-2-2z" opacity=".2"/>
 <path d="M11 12c-1.108 0-2 .892-2 2v3h46v-3c0-1.108-.892-2-2-2z" opacity=".06"/>
 <path d="M11 13c-.554 0-1 .446-1 1v3h44v-3c0-.554-.446-1-1-1z" fill="#fff"/>
 <rect x="7" y="15" width="50" height="2" ry="0" fill="url(#b)" opacity=".1"/>
 <rect x="7" y="56" width="50" height="5" ry="0" fill="url(#d)" opacity=".1"/>
 <path d="M6 17c-1.108 0-2 .892-2 2v1c0-1.108.892-2 2-2h52c1.108 0 2 .892 2 2v-1c0-1.108-.892-2-2-2zM13 8c-1.108 0-2 .892-2 2H9c-.99 0-2 .892-2 2v1c0-1.108 1.01-2 2-2h2c0-1.108.892-2 2-2h16c1.108 0 2 .892 2 2h24c.99 0 2 .892 2 2v-1c0-1.108-1.01-2-2-2H31c0-1.108-.892-2-2-2z" fill="#fff" opacity=".15"/>
 <path d="M6 56c-1.108 0-2-.892-2-2v-1c0 1.108.892 2 2 2h52c1.108 0 2-.892 2-2v1c0 1.108-.892 2-2 2z" opacity=".15"/>
 <path style="fill:#ffffff" d="M 30.009766 25.875 C 30.614328 26.126965 31.118789 26.582608 31.496094 27.236328 L 34.189453 31.919922 L 32.503906 32.875 L 37.966797 32.953125 L 40.636719 28.166016 L 38.976562 29.150391 L 37.439453 26.53125 C 37.186715 26.102729 36.759196 25.875 36.205078 25.875 L 30.009766 25.875 z M 28.576172 26.101562 C 27.620042 26.101563 26.837311 26.5549 26.359375 27.386719 L 24.068359 31.339844 L 28.876953 34.134766 L 31.849609 28.998047 L 30.992188 27.5625 C 30.413619 26.581663 29.608225 26.101562 28.576172 26.101562 z M 41.164062 33 L 36.355469 35.744141 L 39.326172 40.882812 L 40.988281 40.882812 C 41.515632 40.882813 42.045494 40.755284 42.423828 40.552734 C 43.228624 40.10002 43.808594 39.143043 43.808594 38.236328 C 43.808594 37.8 43.682336 37.356167 43.455078 36.953125 L 41.164062 33 z M 25.681641 34.160156 L 20.191406 34.263672 L 21.878906 35.21875 L 20.367188 37.863281 C 20.266553 38.039322 20.191406 38.315712 20.191406 38.542969 C 20.191406 38.76997 20.266299 39.021739 20.367188 39.197266 L 23.515625 44.609375 C 23.490915 44.433848 23.490234 44.308584 23.490234 44.208984 C 23.490234 43.780206 23.691651 43.098683 23.943359 42.646484 L 23.941406 42.646484 L 26.636719 37.988281 L 28.349609 38.970703 L 25.681641 34.160156 z M 35.648438 39.521484 L 32.830078 44.230469 L 35.648438 48.939453 L 35.648438 47 L 38.595703 47 C 39.124341 47 39.576418 46.748061 39.828125 46.320312 L 42.951172 40.882812 C 42.422791 41.284824 41.793672 41.486328 41.039062 41.486328 L 35.648438 41.486328 L 35.648438 39.521484 z M 25.326172 41.4375 L 24.521484 42.871094 C 24.269776 43.298843 24.09375 43.979771 24.09375 44.4 C 24.09375 45.817907 25.275842 47.001953 26.710938 47.001953 L 31.294922 47.001953 L 31.294922 41.4375 L 25.326172 41.4375 z " class="ColorScheme-Text"/>
</svg>
