<svg xmlns="http://www.w3.org/2000/svg" xmlns:xlink="http://www.w3.org/1999/xlink" width="64" height="64"><defs><linearGradient id="a"><stop offset="0"/><stop offset="1" stop-opacity="0"/></linearGradient><linearGradient xlink:href="#a" id="b" x1="31" x2="31" y1="1005.4" y2="1003.4" gradientTransform="matrix(.92593 0 0 1 2.37 -988.4)" gradientUnits="userSpaceOnUse"/></defs><path fill="#d0a15c" d="M13 8c-1.108 0-2 .892-2 2H9c-.99 0-2 .892-2 2v6c0 1.108 1.01 2 2 2h46c.99 0 2-.892 2-2v-6c0-1.108-1.01-2-2-2H31c0-1.108-.892-2-2-2z"/><rect width="46" height="9" x="9" y="12" opacity=".06" rx="2" ry="2"/><rect width="44" height="7" x="10" y="13" fill="#fff" rx="1" ry="1"/><rect width="56" height="39" x="4" y="17" fill="#d0a15c" rx="2" ry="2"/><rect width="50" height="2" x="7" y="15" fill="url(#b)" opacity=".1" ry="0"/><rect width="56" height="38" x="4" y="17" fill="#f4be70" rx="2" ry="2"/><rect width="50" height="5" x="7" y="56" fill="url(#d)" opacity=".1" ry="0"/><path fill="#fff" d="M6 17c-1.108 0-2 .892-2 2v1c0-1.108.892-2 2-2h52c1.108 0 2 .892 2 2v-1c0-1.108-.892-2-2-2zm7-9c-1.108 0-2 .892-2 2H9c-.99 0-2 .892-2 2v1c0-1.108 1.01-2 2-2h2c0-1.108.892-2 2-2h16c1.108 0 2 .892 2 2h24c.99 0 2 .892 2 2v-1c0-1.108-1.01-2-2-2H31c0-1.108-.892-2-2-2z" opacity=".15"/><path d="M31.1 28H28v3h3zm.9 0v3h3v-3zm8.5 2.5c-1 .8-1.5 2.1-1.2 3.3.4 1.2 1.4 2.1 2.7 2.2.4 1.2 1.5 2 2.8 2s2.4-.8 2.8-2c-.4-1.2-1.5-2-2.8-2-.6 0-1.2.2-1.7.5.231-.5.2-1.2.1-1.8-.3-1.2-1.4-2.1-2.7-2.2M42 36H18c0 6.6 5.4 10 12 10s12-3.4 12-10m-16-4h-3v3h3zm4 0h-3v3h3zm4 0h-3v3h3zm4 0h-3v3h3zm-15 6c.5 0 1 .4 1 1 0 .5-.5 1-1 1-.6 0-1-.5-1-1 0-.6.4-1 1-1" class="ColorScheme-Text" style="fill:#fff"/></svg>