<?xml version="1.0" encoding="UTF-8"?>
<svg xmlns="http://www.w3.org/2000/svg" viewBox="0 0 64 64">
 <defs>
  <linearGradient id="a">
   <stop offset="0"/>
   <stop stop-opacity="0" offset="1"/>
  </linearGradient>
  <linearGradient id="b" x1="31" x2="31" y1="1005.4" y2="1003.4" gradientTransform="matrix(.92593 0 0 1 2.37 -988.4)" gradientUnits="userSpaceOnUse" xlink:href="#a"/>
  <radialGradient id="d" cx="32" cy="1021.9" r="25" gradientTransform="matrix(-1 0 0 -.08 64 137.7)" gradientUnits="userSpaceOnUse" xlink:href="#a"/>
 </defs>
 <path d="M13 8c-1.108 0-2 .892-2 2H9c-.99 0-2 .892-2 2v6c0 1.108 1.01 2 2 2h46c.99 0 2-.892 2-2v-6c0-1.108-1.01-2-2-2H31c0-1.108-.892-2-2-2z" fill="#d0a15c"/>
 <rect x="9" y="12" width="46" height="9" rx="2" ry="2" opacity=".06"/>
 <rect x="10" y="13" width="44" height="7" rx="1" ry="1" fill="#fff"/>
 <rect x="4" y="17" width="56" height="39" rx="2" ry="2" fill="#d0a15c"/>
 <rect x="7" y="15" width="50" height="2" ry="0" fill="url(#b)" opacity=".1"/>
 <rect x="4" y="17" width="56" height="38" rx="2" ry="2" fill="#f4be70"/>
 <rect x="7" y="56" width="50" height="5" ry="0" fill="url(#d)" opacity=".1"/>
 <path d="M6 17c-1.108 0-2 .892-2 2v1c0-1.108.892-2 2-2h52c1.108 0 2 .892 2 2v-1c0-1.108-.892-2-2-2zM13 8c-1.108 0-2 .892-2 2H9c-.99 0-2 .892-2 2v1c0-1.108 1.01-2 2-2h2c0-1.108.892-2 2-2h16c1.108 0 2 .892 2 2h24c.99 0 2 .892 2 2v-1c0-1.108-1.01-2-2-2H31c0-1.108-.892-2-2-2z" fill="#fff" opacity=".15"/>
 <path style="fill:#ffffff" d="m 32,25 a 11,3 0 0 0 -11,3 v 16 a 11,3 0 0 0 11,3 11,3 0 0 0 11,-3 V 28 A 11,3 0 0 0 32,25 m 0,1 A 10,2 0 0 1 42,28 10,2 0 0 1 32,30 10,2 0 0 1 22,28 10,2 0 0 1 32,26 M 22,29.24219 A 11,3 0 0 0 32,31 11,3 0 0 0 42,29.24219 v 3.758 a 10,2 0 0 1 -10,2 10,2 0 0 1 -10,-2 z m 0,5 A 11,3 0 0 0 32,36 11,3 0 0 0 42,34.24219 v 4.758 a 10,2 0 0 1 -10,2 10,2 0 0 1 -10,-2 z m 0,6 A 11,3 0 0 0 32,42 11,3 0 0 0 42,40.24219 v 3.758 a 10,2 0 0 1 -10,2 10,2 0 0 1 -10,-2 v -1 z" class="ColorScheme-Text"/>
</svg>
