<svg xmlns="http://www.w3.org/2000/svg" xmlns:xlink="http://www.w3.org/1999/xlink" width="64" height="64"><defs><linearGradient id="a"><stop offset="0"/><stop offset="1" stop-opacity="0"/></linearGradient><linearGradient xlink:href="#a" id="b" x1="31" x2="31" y1="1005.4" y2="1003.4" gradientTransform="matrix(.92593 0 0 1 2.37 -988.4)" gradientUnits="userSpaceOnUse"/></defs><path d="M13 8c-1.108 0-2 .892-2 2H9c-.99 0-2 .892-2 2v5H6c-1.108 0-2 .892-2 2v35c0 1.108.892 2 2 2h52c1.108 0 2-.892 2-2V19c0-1.108-.892-2-2-2h-1v-5c0-1.108-1.01-2-2-2H31c0-1.108-.892-2-2-2z" class="ColorScheme-Accent" style="fill:#f62459"/><path d="M13 8c-1.108 0-2 .892-2 2H9c-.99 0-2 .892-2 2v5h50v-5c0-1.108-1.01-2-2-2H31c0-1.108-.892-2-2-2z" opacity=".2"/><path d="M11 12c-1.108 0-2 .892-2 2v3h46v-3c0-1.108-.892-2-2-2z" opacity=".06"/><path fill="#fff" d="M11 13c-.554 0-1 .446-1 1v3h44v-3c0-.554-.446-1-1-1z"/><rect width="50" height="2" x="7" y="15" fill="url(#b)" opacity=".1" ry="0"/><rect width="50" height="5" x="7" y="56" fill="url(#d)" opacity=".1" ry="0"/><path fill="#fff" d="M6 17c-1.108 0-2 .892-2 2v1c0-1.108.892-2 2-2h52c1.108 0 2 .892 2 2v-1c0-1.108-.892-2-2-2zm7-9c-1.108 0-2 .892-2 2H9c-.99 0-2 .892-2 2v1c0-1.108 1.01-2 2-2h2c0-1.108.892-2 2-2h16c1.108 0 2 .892 2 2h24c.99 0 2 .892 2 2v-1c0-1.108-1.01-2-2-2H31c0-1.108-.892-2-2-2z" opacity=".15"/><path d="M6 56c-1.108 0-2-.892-2-2v-1c0 1.108.892 2 2 2h52c1.108 0 2-.892 2-2v1c0 1.108-.892 2-2 2z" opacity=".15"/><path d="M33.5 47.9c-1.2-.2-2.9-.9-3.9-1.55-2.3-1.5-3.805-3.169-4.736-5.251-.3-.7-.478-1.2-1-3-.1-.45-.27-.954-.332-1.111-.106-.265-.11-.355-.064-1.239.043-.8.2-2 .3-2.096.015-.023.05-.029.077-.012.094.056.181-.202.266-.79.047-.323.12-.661.164-.752a4 4 0 0 0 .162-.446c.106-.354.25-.627.698-1.316.197-.302.401-.632.454-.732.063-.118.131-.176.194-.164.06.011.16-.065.265-.203.455-.6 2.597-2.371 2.795-2.31.054.016.28-.059.502-.166.402-.194.58-.24.58-.147 0 .027-.059.087-.13.134-.124.083-.122.084.072.04.11-.026.296-.063.413-.082q.214-.034.183-.108c-.017-.043.024-.087.103-.107.198-.05.505-.042.505.014 0 .067-.176.135-.315.122-.095-.01-.1-.001-.029.045.071.047.072.057.005.058-.045 0-.066.015-.048.032s.137-.02.265-.083c.129-.062.363-.14.522-.173.196-.04.289-.087.289-.145 0-.074.09-.08.703-.049.386.02.97.079 1.295.13.594.093.594.093.815-.03.265-.146.692-.165.804-.035a1 1 0 0 0 .25.173c.159.079.17.079.102.001-.127-.147 0-.143.49.015 1.58.508 2.869 1.412 3.825 2.686.227.301.24.437.026.253l-.123-.105.094.176a.8.8 0 0 1 .093.242c0 .037.152.304.338.595.419.655.536.876.508.957-.012.035-.198-.196-.412-.513a14 14 0 0 0-.706-.948c-.26-.306-.327-.359-.38-.293a.34.34 0 0 1-.192.097l-.128.018.126.238c.07.13.136.21.147.178.06-.173.342.055.47.382.04.106.151.324.244.485.094.16.158.303.144.317s-.1-.03-.19-.098l-.162-.123.111.183c.061.1.163.224.227.274.08.062.118.16.122.313.007.282.175.615.266.527.143-.137.172-.052.136.396-.026.33-.012.548.05.779.096.35.075.437-.064.273-.089-.104-.09-.104-.05.004.085.232.148.579.13.715-.032.254-.132.148-.166-.177l-.033-.318-.01.338c-.005.186-.05.545-.101.799-.051.255-.077.565-.058.697.035.247.01.257-.205.08-.088-.073-.103-.058-.164.156-.05.181-.05.284.002.435a.9.9 0 0 1 .049.329c-.025.165-.163.217-.163.06 0-.195-.078-.125-.316.284-.642 1.106-1.657 1.962-2.807 2.366-.678.238-1.132.327-1.896.369l-.689.037.34.101c.275.081.436.093.832.063.52-.04 1.13-.149 1.406-.25q.166-.06.223-.006c.09.087-.709.426-1.183.503-.807.13-1.887-.01-2.84-.372-.647-.245-1.607-.883-1.46-.97.028-.017.21.066.406.185.25.151.355.191.355.134 0-.108.037-.103.235.033.18.122.73.35 1.127.465.433.125.265-.027-.315-.286-1.835-.821-2.597-1.642-2.977-3.209-.139-.574.01-1.833.264-2.228.064-.1.117-.222.117-.273 0-.218.38-.794.768-1.167.685-.658 1.398-.931 2.323-.89.447.02.638.057 1.01.2.422.16.954.498.791.502a2 2 0 0 1-.373-.12c-.253-.102-.416-.122-.991-.124-.808-.003-1.203.107-1.778.495-.816.55-1.27 1.185-1.43 2-.108.546-.11.697-.027 1.24.049.312.083.403.144.38.05-.018.08.01.08.077 0 .193.438.979.743 1.33.732.845 1.917 1.384 3.042 1.384.584 0 1.055-.108 1.49-.34.174-.093.394-.207.489-.253.334-.162.541-.348.783-.701.135-.197.281-.358.326-.358.065 0 .062.029-.016.152-.256.405.345-.332.656-.805l.349-.53-.038-.348c-.037-.335-.031-.355.135-.523.161-.162.176-.21.194-.642.017-.388.005-.468-.066-.468-.066 0-.095-.103-.123-.441-.038-.448-.418-1.956-.506-2.009-.027-.015-.101-.16-.165-.322-.216-.544-.594-1.068-1.184-1.638-.848-.821-1.917-1.455-2.926-1.736-.859-.239-2.317-.152-3.356.2-.507.172-1.006.399-1.09.496-.039.045-.094.067-.124.049s-.022-.068.02-.117c.192-.222-.443.183-.852.543-.247.218-.458.402-.469.41-.01.009.037.001.107-.017.116-.029.121-.02.058.092-.04.072-.25.203-.508.315-.433.188-.713.396-.936.692-.089.118-.094.144-.024.118.05-.018.09-.007.09.025 0 .158-.149.333-.37.436-.488.228-1.346 1.444-1.806 2.56-.204.498-.201.48-.09.48.118 0 .11.129-.052.816-.235 1.001-.235.97.02 2.377.313 1.717.495 2.29.84 2.645.082.083.161.26.196.439a.87.87 0 0 0 .245.486c.12.122.16.197.114.213-.09.031.193.438.452.647.13.105.227.14.332.121.23-.042.463.085.822.447.373.375.41.476.163.441-.16-.022-.163-.018-.084.097.045.066.21.224.369.352.222.18.28.258.251.342-.04.121.074.234.333.329.16.059.212.186.091.224-.036.012.19.235.502.496.352.294.59.455.623.424.09-.083.204-.058.206.045.002.113.103.231.467.547.23.2.288.225.429.188.13-.034.21-.012.392.106.363.235.583.33.772.33.185 0 .212.05.115.223-.05.091-.04.106.077.106.075 0 .287.05.47.11.417.138.591.148.487.027-.155-.179.009-.13.56.167.771.415 1.161.462 2.696.327.227-.02.301-.008.301.048 0 .048-.197.12-.56.203-.475.11-.73.132-1.706.144-.769.009-1.294-.01-1.595-.061zm-.785-8.252a.6.6 0 0 0-.157-.113l-.158-.093.135.114c.132.11.18.135.18.092m7.898-5.77q-.029-.063-.035.034c-.003.058.011.09.03.072.02-.018.021-.065.004-.105zm-13.017-5.772c.071-.088.07-.09-.022-.021-.055.041-.1.085-.1.096 0 .045.047.016.122-.075m.652-.51c.058-.06.091-.11.076-.11a.5.5 0 0 0-.133.11c-.057.061-.09.11-.075.11a.4.4 0 0 0 .132-.11m.722-.387c.19-.061.297-.072.337-.034.04.039.188.016.463-.07.223-.07.394-.138.382-.15s-.196.034-.407.102c-.29.093-.395.106-.428.056-.054-.085-.576.083-.8.257l-.154.12.165-.095c.09-.053.29-.136.442-.186m1.654-.14c.167-.047.293-.095.28-.107-.026-.026-.62.138-.62.17 0 .034.006.033.34-.062m.951-.3.23-.04-.201-.005a.76.76 0 0 0-.344.08q-.14.082-.029.045c.063-.022.218-.057.344-.08m.456-.103c.018-.028-.02-.037-.083-.021-.134.033-.15.07-.032.07.046 0 .097-.022.115-.05m1.852.016c-.02-.018-.069-.02-.11-.004q-.067.027.035.034c.06.002.094-.011.075-.03m-.343-.06a.5.5 0 0 0-.2 0c-.056.014-.01.026.1.026s.155-.011.1-.025m-.572-.056a3 3 0 0 0-.46 0c-.134.01-.038.02.214.02.253 0 .363-.008.246-.02m-.749-.049c-.019-.018-.068-.02-.11-.004q-.066.027.035.034c.06.002.094-.011.075-.03m-.388 13.231c-.584-.402-.8-.61-.8-.769 0-.084.02-.153.044-.153.082 0 1.059.978 1.038 1.04-.013.036-.13-.014-.282-.118m-.3-1.02c-.304-.294-.401-.452-.279-.452.074 0 .639.62.639.7 0 .039-.007.07-.016.07s-.164-.143-.345-.318m3.357-1.205c-.16-.062-.06-.177.2-.23.15-.031.389-.106.53-.167.141-.06.267-.1.28-.088.012.012-.052.134-.143.272-.164.248-.166.25-.48.245a2 2 0 0 1-.387-.032m1.72-1.23c-.154-.06-.16-.162-.031-.508.11-.298.226-.356.162-.083-.023.098-.054.24-.069.317l-.026.137.114-.125c.068-.074.131-.248.154-.426.022-.165.062-.287.09-.27.071.041.064.477-.013.77-.067.255-.127.285-.38.187M23.036 35.6c-.02-.048-.035-.236-.035-.417 0-.24.02-.324.072-.308.085.027.135.812.051.812-.03 0-.069-.039-.088-.087m13.799-1.287c-.09-.116-.117-.207-.091-.304.052-.199.187-.17.288.06.155.358.02.526-.197.244m-13.811-.874c-.004-.312 0-.322.144-.317.122.004.152.035.166.174.016.156-.161.465-.266.465-.022 0-.042-.145-.044-.322m14.868-6.767c.008-.493.095-.66.162-.315.047.24-.013.665-.104.737-.05.04-.064-.068-.058-.422m-7.537-.296c.023-.066.815-.377.96-.377.172 0-.135.202-.49.322-.396.134-.501.146-.47.055" class="ColorScheme-Text" style="fill:#fff"/></svg>