<?xml version="1.0" encoding="UTF-8"?>
<svg xmlns="http://www.w3.org/2000/svg" viewBox="0 0 64 64">
 <defs>
  <linearGradient id="a">
   <stop offset="0"/>
   <stop stop-opacity="0" offset="1"/>
  </linearGradient>
  <linearGradient id="b" x1="31" x2="31" y1="1005.4" y2="1003.4" gradientTransform="matrix(.92593 0 0 1 2.37 -988.4)" gradientUnits="userSpaceOnUse" xlink:href="#a"/>
  <radialGradient id="d" cx="32" cy="1021.9" r="25" gradientTransform="matrix(-1 0 0 -.08 64 137.7)" gradientUnits="userSpaceOnUse" xlink:href="#a"/>
 </defs>
 <path d="M13 8c-1.108 0-2 .892-2 2H9c-.99 0-2 .892-2 2v6c0 1.108 1.01 2 2 2h46c.99 0 2-.892 2-2v-6c0-1.108-1.01-2-2-2H31c0-1.108-.892-2-2-2z" fill="#d0a15c"/>
 <rect x="9" y="12" width="46" height="9" rx="2" ry="2" opacity=".06"/>
 <rect x="10" y="13" width="44" height="7" rx="1" ry="1" fill="#fff"/>
 <rect x="4" y="17" width="56" height="39" rx="2" ry="2" fill="#d0a15c"/>
 <rect x="7" y="15" width="50" height="2" ry="0" fill="url(#b)" opacity=".1"/>
 <rect x="4" y="17" width="56" height="38" rx="2" ry="2" fill="#f4be70"/>
 <rect x="7" y="56" width="50" height="5" ry="0" fill="url(#d)" opacity=".1"/>
 <path d="M6 17c-1.108 0-2 .892-2 2v1c0-1.108.892-2 2-2h52c1.108 0 2 .892 2 2v-1c0-1.108-.892-2-2-2zM13 8c-1.108 0-2 .892-2 2H9c-.99 0-2 .892-2 2v1c0-1.108 1.01-2 2-2h2c0-1.108.892-2 2-2h16c1.108 0 2 .892 2 2h24c.99 0 2 .892 2 2v-1c0-1.108-1.01-2-2-2H31c0-1.108-.892-2-2-2z" fill="#fff" opacity=".15"/>
 <path style="fill:#ffffff" d="M 22 26 C 21.446 26 21 26.446 21 27 L 21 47 C 21 47.554 21.446 48 22 48 L 42 48 C 42.554 48 43 47.554 43 47 L 43 27 C 43 26.446 42.554 26 42 26 L 22 26 z M 22 27 L 42 27 L 42 47 L 22 47 L 22 27 z M 34 29 L 34 33 L 38 33 C 38 30.8 36.2 29 34 29 z M 32 30 A 5 5 0 0 0 27 35 A 5 5 0 0 0 32 40 A 5 5 0 0 0 37 35 A 5 5 0 0 0 36.9 34 L 33 34 L 33 30.1 A 5 5 0 0 0 32 30 z M 32 31 L 32 35 L 36 35 A 4 4 0 0 1 32 39 A 4 4 0 0 1 28 35 A 4 4 0 0 1 32 31 z M 24 42 L 24 43 L 40 43 L 40 42 L 24 42 z M 24 44 L 24 45 L 40 45 L 40 44 L 24 44 z " class="ColorScheme-Text"/>
</svg>
