<svg xmlns="http://www.w3.org/2000/svg" xmlns:xlink="http://www.w3.org/1999/xlink" width="64" height="64">
 <defs>
  <linearGradient id="a">
   <stop offset="0"/>
   <stop stop-opacity="0" offset="1"/>
  </linearGradient>
  <linearGradient id="b" x1="31" x2="31" y1="1005.4" y2="1003.4" gradientTransform="matrix(.92593 0 0 1 2.37 -988.4)" gradientUnits="userSpaceOnUse" xlink:href="#a"/>
  <radialGradient id="d" cx="32" cy="33.5" r="25" gradientTransform="matrix(1 0 0 .1 0 52.65)" gradientUnits="userSpaceOnUse" xlink:href="#a"/>
 </defs>
 <path d="M13 8c-1.108 0-2 .892-2 2H9c-.99 0-2 .892-2 2v5H6c-1.108 0-2 .892-2 2v35c0 1.108.892 2 2 2h52c1.108 0 2-.892 2-2V19c0-1.108-.892-2-2-2h-1v-5c0-1.108-1.01-2-2-2H31c0-1.108-.892-2-2-2z" style="fill:#cf000f"/><path d="M13 8c-1.108 0-2 .892-2 2H9c-.99 0-2 .892-2 2v5h50v-5c0-1.108-1.01-2-2-2H31c0-1.108-.892-2-2-2z" opacity=".2"/><path d="M11 12c-1.108 0-2 .892-2 2v3h46v-3c0-1.108-.892-2-2-2z" opacity=".06"/><path fill="#fff" d="M11 13c-.554 0-1 .446-1 1v3h44v-3c0-.554-.446-1-1-1z"/><rect width="50" height="2" x="7" y="15" fill="url(#b)" opacity=".1" ry="0"/><rect width="50" height="5" x="7" y="56" fill="url(#d)" opacity=".1" ry="0"/><path fill="#fff" d="M6 17c-1.108 0-2 .892-2 2v1c0-1.108.892-2 2-2h52c1.108 0 2 .892 2 2v-1c0-1.108-.892-2-2-2zm7-9c-1.108 0-2 .892-2 2H9c-.99 0-2 .892-2 2v1c0-1.108 1.01-2 2-2h2c0-1.108.892-2 2-2h16c1.108 0 2 .892 2 2h24c.99 0 2 .892 2 2v-1c0-1.108-1.01-2-2-2H31c0-1.108-.892-2-2-2z" opacity=".15"/><path d="M6 56c-1.108 0-2-.892-2-2v-1c0 1.108.892 2 2 2h52c1.108 0 2-.892 2-2v1c0 1.108-.892 2-2 2z" opacity=".15"/><path d="M31.522 30.01c-5.57.239-10.167 4.735-10.5 10.5a11.3 11.3 0 0 0 .594 4.337l.941-.337a10.3 10.3 0 0 1-.535-3.94c.326-5.606 5.059-9.882 10.572-9.55 5.513.33 9.718 5.145 9.392 10.751a10.3 10.3 0 0 1-.239 1.638l.973.23c.13-.586.228-1.188.264-1.808.358-6.167-4.268-11.462-10.332-11.827a11 11 0 0 0-1.127-.01zm1.01 2.042a8.8 8.8 0 0 0-2.408.194l.184 1.001c.71-.16 1.437-.22 2.164-.18 4.41.265 7.773 4.114 7.513 8.599q-.033.51-.13 1.01l1.003.062q.09-.502.127-1.01c.293-5.046-3.491-9.378-8.453-9.676m-5.002 1.203a9.1 9.1 0 0 0-3.677 4.051l.87.527a8.1 8.1 0 0 1 3.259-3.668zm4.596 6.119c-.954.035-1.91.7-2.004 1.771-.065 1.121.776 2.083 1.879 2.15a1.99 1.99 0 0 0 1.824-.972l-.024.04 7.8 2.637.315-.965-7.802-2.638v-.011c-.085-1.452-1.035-2.047-1.988-2.012m-9 .345a9 9 0 0 0-.109.928 10 10 0 0 0 0 1.017l1.01.061a8 8 0 0 1-.012-1.019q.022-.36.076-.717zm9.05.53c.552.034.973.514.94 1.075s-.505.988-1.057.955a1.01 1.01 0 0 1-.939-1.074c.033-.56.505-.989 1.057-.955" class="ColorScheme-Text" style="fill:#fff"/></svg>