<svg xmlns="http://www.w3.org/2000/svg" xmlns:xlink="http://www.w3.org/1999/xlink" width="64" height="64">
 <defs>
  <linearGradient id="a">
   <stop offset="0"/>
   <stop stop-opacity="0" offset="1"/>
  </linearGradient>
  <linearGradient id="b" x1="31" x2="31" y1="1005.4" y2="1003.4" gradientTransform="matrix(.92593 0 0 1 2.37 -988.4)" gradientUnits="userSpaceOnUse" xlink:href="#a"/>
  <radialGradient id="d" cx="32" cy="33.5" r="25" gradientTransform="matrix(1 0 0 .1 0 52.65)" gradientUnits="userSpaceOnUse" xlink:href="#a"/>
 </defs>
<path fill="#f4be70" d="M13 8c-1.108 0-2 .892-2 2H9c-.99 0-2 .892-2 2v5H6c-1.108 0-2 .892-2 2v35c0 1.108.892 2 2 2h52c1.108 0 2-.892 2-2V19c0-1.108-.892-2-2-2h-1v-5c0-1.108-1.01-2-2-2H31c0-1.108-.892-2-2-2z"/><path d="M13 8c-1.108 0-2 .892-2 2H9c-.99 0-2 .892-2 2v5h50v-5c0-1.108-1.01-2-2-2H31c0-1.108-.892-2-2-2z" opacity=".2"/><path d="M11 12c-1.108 0-2 .892-2 2v3h46v-3c0-1.108-.892-2-2-2z" opacity=".06"/><path fill="#fff" d="M11 13c-.554 0-1 .446-1 1v3h44v-3c0-.554-.446-1-1-1z"/><rect width="50" height="2" x="7" y="15" fill="url(#b)" opacity=".1" ry="0"/><rect width="50" height="5" x="7" y="56" fill="url(#d)" opacity=".1" ry="0"/><path fill="#fff" d="M6 17c-1.108 0-2 .892-2 2v1c0-1.108.892-2 2-2h52c1.108 0 2 .892 2 2v-1c0-1.108-.892-2-2-2zM13 8c-1.108 0-2 .892-2 2H9c-.99 0-2 .892-2 2v1c0-1.108 1.01-2 2-2h2c0-1.108.892-2 2-2h16c1.108 0 2 .892 2 2h24c.99 0 2 .892 2 2v-1c0-1.108-1.01-2-2-2H31c0-1.108-.892-2-2-2z" opacity=".15"/><path d="M6 56c-1.108 0-2-.892-2-2v-1c0 1.108.892 2 2 2h52c1.108 0 2-.892 2-2v1c0 1.108-.892 2-2 2z" opacity=".15"/><path d="M45.7 20.8c-1.8.2-16.2 15.3-16.2 15.3l-4.6 5.1c-.6.2-1.748.022-2.4.3-1.6.6-2.6 1.279-3.4 3.5-.7 1.9 1.3 5.16 3 4.6-.8 0-1.8-1.1-1.3-1.9 1-1.9 4.95-1.483 4.8-5.7l5-4.7S46.9 22 45.9 21h-.1zm-5.3 15.3c-.6 0-1.6 1-3.6 4-1.9 3.2-6.9 5.4-6.6 2.3.1-.8-1.8-.5-3.6-.5 0 5.4-3.069 4-4.9 6.3-.2 1.8 8.2 2.877 12.7-.2 5.4-3.7 6.5-8.7 6.6-10.4 0-.9-.2-1.5-.6-1.5M33.3 40c0 .3-.7.1-1 .3-.7.4-1.024 1-.8 1.4.2.4.9.4 1.6 0s1.024-1 .8-1.4q-.15-.3-.6-.3" class="ColorScheme-Text" style="fill:#fff"/></svg>