<?xml version="1.0" encoding="UTF-8"?>
<svg xmlns="http://www.w3.org/2000/svg" viewBox="0 0 64 64">
 <defs>
  <linearGradient id="a">
   <stop offset="0"/>
   <stop stop-opacity="0" offset="1"/>
  </linearGradient>
  <linearGradient id="b" x1="31" x2="31" y1="1005.4" y2="1003.4" gradientTransform="matrix(.92593 0 0 1 2.37 -988.4)" gradientUnits="userSpaceOnUse" xlink:href="#a"/>
  <radialGradient id="d" cx="32" cy="1021.9" r="25" gradientTransform="matrix(-1 0 0 -.08 64 137.7)" gradientUnits="userSpaceOnUse" xlink:href="#a"/>
 </defs>
 <path d="M13 8c-1.108 0-2 .892-2 2H9c-.99 0-2 .892-2 2v6c0 1.108 1.01 2 2 2h46c.99 0 2-.892 2-2v-6c0-1.108-1.01-2-2-2H31c0-1.108-.892-2-2-2z" fill="#d0a15c"/>
 <rect x="9" y="12" width="46" height="9" rx="2" ry="2" opacity=".06"/>
 <rect x="10" y="13" width="44" height="7" rx="1" ry="1" fill="#fff"/>
 <rect x="4" y="17" width="56" height="39" rx="2" ry="2" fill="#d0a15c"/>
 <rect x="7" y="15" width="50" height="2" ry="0" fill="url(#b)" opacity=".1"/>
 <rect x="4" y="17" width="56" height="38" rx="2" ry="2" fill="#f4be70"/>
 <rect x="7" y="56" width="50" height="5" ry="0" fill="url(#d)" opacity=".1"/>
 <path d="M6 17c-1.108 0-2 .892-2 2v1c0-1.108.892-2 2-2h52c1.108 0 2 .892 2 2v-1c0-1.108-.892-2-2-2zM13 8c-1.108 0-2 .892-2 2H9c-.99 0-2 .892-2 2v1c0-1.108 1.01-2 2-2h2c0-1.108.892-2 2-2h16c1.108 0 2 .892 2 2h24c.99 0 2 .892 2 2v-1c0-1.108-1.01-2-2-2H31c0-1.108-.892-2-2-2z" fill="#fff" opacity=".15"/>
 <path style="fill:#ffffff" d="m 30,26 v 4 H 28 L 32,34.367188 36,30 h -2 v -4 z m 1,10 v 1.101562 c -0.626,0.129 -1.220906,0.377469 -1.753906,0.730469 l -0.78125,-0.78125 -1.414063,1.414063 0.78125,0.78125 C 27.480031,39.779094 27.233469,40.374 27.105469,41 H 26 v 2 h 1.101562 c 0.129001,0.626 0.377469,1.220906 0.730469,1.753906 l -0.78125,0.78125 1.414063,1.414063 0.78125,-0.78125 c 0.533,0.352 1.127906,0.598562 1.753906,0.726562 V 48 h 2 v -1.101562 c 0.626,-0.129 1.220906,-0.377469 1.753906,-0.730469 l 0.78125,0.78125 1.414063,-1.414063 -0.78125,-0.78125 C 36.519969,44.220906 36.766531,43.626 36.894531,43 H 38 v -2 h -1.101562 c -0.129,-0.626 -0.377469,-1.220906 -0.730469,-1.753906 l 0.78125,-0.78125 -1.414063,-1.414063 -0.78125,0.78125 C 34.220906,37.480031 33.626,37.233469 33,37.105469 V 36 Z m 1,3 c 1.656854,0 3,1.343146 3,3 0,1.656854 -1.343146,3 -3,3 -1.656854,0 -3,-1.343146 -3,-3 0,-1.656854 1.343146,-3 3,-3 z" class="ColorScheme-Text"/>
</svg>
