<svg xmlns="http://www.w3.org/2000/svg" xmlns:xlink="http://www.w3.org/1999/xlink" width="64" height="64">
 <defs>
  <linearGradient id="a">
   <stop offset="0"/>
   <stop stop-opacity="0" offset="1"/>
  </linearGradient>
  <linearGradient id="b" x1="31" x2="31" y1="1005.4" y2="1003.4" gradientTransform="matrix(.92593 0 0 1 2.37 -988.4)" gradientUnits="userSpaceOnUse" xlink:href="#a"/>
  <radialGradient id="d" cx="32" cy="33.5" r="25" gradientTransform="matrix(1 0 0 .1 0 52.65)" gradientUnits="userSpaceOnUse" xlink:href="#a"/>
 </defs>
<path fill="#f4be70" d="M13 8c-1.108 0-2 .892-2 2H9c-.99 0-2 .892-2 2v5H6c-1.108 0-2 .892-2 2v35c0 1.108.892 2 2 2h52c1.108 0 2-.892 2-2V19c0-1.108-.892-2-2-2h-1v-5c0-1.108-1.01-2-2-2H31c0-1.108-.892-2-2-2z"/><path d="M13 8c-1.108 0-2 .892-2 2H9c-.99 0-2 .892-2 2v5h50v-5c0-1.108-1.01-2-2-2H31c0-1.108-.892-2-2-2z" opacity=".2"/><path d="M11 12c-1.108 0-2 .892-2 2v3h46v-3c0-1.108-.892-2-2-2z" opacity=".06"/><path fill="#fff" d="M11 13c-.554 0-1 .446-1 1v3h44v-3c0-.554-.446-1-1-1z"/><rect width="50" height="2" x="7" y="15" fill="url(#b)" opacity=".1" ry="0"/><rect width="50" height="5" x="7" y="56" fill="url(#d)" opacity=".1" ry="0"/><path fill="#fff" d="M6 17c-1.108 0-2 .892-2 2v1c0-1.108.892-2 2-2h52c1.108 0 2 .892 2 2v-1c0-1.108-.892-2-2-2zM13 8c-1.108 0-2 .892-2 2H9c-.99 0-2 .892-2 2v1c0-1.108 1.01-2 2-2h2c0-1.108.892-2 2-2h16c1.108 0 2 .892 2 2h24c.99 0 2 .892 2 2v-1c0-1.108-1.01-2-2-2H31c0-1.108-.892-2-2-2z" opacity=".15"/><path d="M6 56c-1.108 0-2-.892-2-2v-1c0 1.108.892 2 2 2h52c1.108 0 2-.892 2-2v1c0 1.108-.892 2-2 2z" opacity=".15"/><path d="M41.855 21.533a.76.76 0 0 0-.417.123c-.073.05-.386.426-.694.836l-.56.754-.204-.139c-.284-.187-.558-.229-.814-.113-.177.08-.591.615-3.31 4.23-1.717 2.28-3.112 4.163-3.108 4.192.004.024.7.568 1.543 1.201l1.541 1.158 2.027-2.7c1.116-1.487 2.045-2.69 2.067-2.673.072.054.203 1.22.178 1.596-.01.205-.087.572-.167.816-.14.437-.156.462-2.67 3.82-1.39 1.858-2.547 3.435-2.568 3.497-.06.172.007.493.137.678.217.31.755.409 1.06.187.211-.154 5.19-6.855 5.348-7.205.463-.997.558-2.273.266-3.53a8 8 0 0 0-.414-1.318c-.043-.093.028-.212.494-.838.44-.597.54-.765.549-.92.017-.329-.084-.512-.407-.763l-.3-.235.597-.802c.49-.664.596-.838.604-.992a.805.805 0 0 0-.778-.86M31.787 32.666c-.015.002-1.843 2.432-4.066 5.393-3.576 4.767-4.085 5.473-4.414 6.08-.656 1.207-1.369 3.048-1.842 4.73-.307 1.079-.323.981.105.752 1.32-.713 3.044-1.87 4.047-2.72.981-.833 1.148-1.045 5.303-6.579l3.996-5.328-1.553-1.166c-.854-.641-1.561-1.164-1.576-1.162m.45 12.34a2.3 2.3 0 0 0-.53.021v.002c-.621.131-1.312.67-1.646 1.29-.09.16-.234.525-.323.8-.084.28-.162.514-.168.52-.048.06-1.235.345-1.933.465-1.641.287-2.09.394-2.25.543-.316.292-.071.586.377.455a16 16 0 0 1 1.115-.221c.49-.084 1.235-.24 1.658-.334.424-.101.783-.168.8-.15.019.018-.052.357-.165.757l-.203.717-.45.197a6 6 0 0 0-.78.418c-.562.37-.67.835-.276 1.133.215.161.812.155 1.182-.006.328-.149.512-.357.77-.9q.203-.422.327-.447c.066-.018.659-.138 1.315-.276a79 79 0 0 0 1.33-.275c.125-.03.137-.018.101.096a3.3 3.3 0 0 1-.246.466c-.113.185-.203.405-.203.494 0 .185.156.37.281.323a.5.5 0 0 1 .143-.035c.03 0 .162-.096.293-.215.245-.221.836-1.303.836-1.53 0-.113.09-.141.142-.052.018.03.154.084.303.119.21.054.27.094.27.19 0 .184.305.454.574.507.209.036.478-.006.764-.125.1-.042.107-.03.072.125-.024.096-.198.4-.383.682-.394.585-.871 1.515-.996 1.927-.101.352-.06.616.125.74.167.108.44.06.584-.097.125-.137.807-1.574 1.057-2.23.179-.46.261-.586.667-1.016.334-.352.444-.436.372-.299-.12.257-.114.453.017.572.28.257.686.007 1.04-.638.208-.382.364-.495 1.14-.86l.404-.185-.04.22c-.025.12-.163.46-.306.752-.28.591-.333.968-.166 1.29.113.22.233.228.782.037.764-.257 1.76-.85 2.02-1.19.351-.478.46-.937.245-1.092-.22-.16-.346-.095-.627.317-.376.56-.84.998-1.289 1.219-.209.107-.394.178-.412.16-.024-.024.453-1.307.71-1.91.053-.125.097-.281.097-.346 0-.167-.21-.358-.389-.358-.084 0-.479.16-.873.364-.818.406-.764.441-.555-.323.125-.47.084-.597-.203-.627-.275-.03-.382.061-.633.508-.16.304-.375.556-.787.938-.543.5-.567.518-.693.43-.191-.138-.299-.12-.764.113-.454.227-.603.257-.716.119-.096-.113.054-.173.884-.334.806-.155.907-.198.907-.365 0-.27-.222-.525-.616-.698-.68-.304-.756-.323-1.054-.246-.322.084-.8.543-.866.83-.066.3-.27.21-.27-.119 0-.137-.167-.483-.263-.543-.203-.137-.53.162-.781.711l-.197.424-.442.096c-.573.125-2.238.459-2.459.502-.143.024-.166.011-.136-.073.024-.06.095-.32.166-.59.185-.74.24-.836.507-.931.322-.113 1.41-.58 1.69-.723a3.6 3.6 0 0 0 .596-.447c.603-.56.697-1.08.267-1.463a2 2 0 0 0-.346-.238 2 2 0 0 0-.496-.082m-.602.697c.083-.005.18-.001.304.006.316.018.443.048.532.143.119.119.118.124.011.351-.072.143-.238.311-.447.455-.364.251-1.505.71-1.54.627-.049-.137.317-.956.55-1.219.232-.264.341-.349.59-.363m-3.065 4.998q.068.005.008.117c-.078.15-.281.257-.394.215-.131-.054-.096-.124.113-.232q.206-.104.273-.1" class="ColorScheme-Text" style="fill:#fff"/></svg>