<svg width="64" height="64" version="1.1" xmlns="http://www.w3.org/2000/svg" xmlns:xlink="http://www.w3.org/1999/xlink">
 <g id="a" transform="matrix(4,0,0,4,-222,-1043)" stroke-width=".5">
  <rect transform="matrix(0,-1,-1,0,0,0)" x="-266.5" y="-70.5" width="4.5" height="14" rx=".5" ry=".5" fill="#787878"/>
  <path d="m58.74 263.11a0.25 0.25 0 0 0-0.19092 0.10986l-1.0039 1.5059a0.25 0.25 0 0 0 0.068359 0.34766 0.25 0.25 0 0 0 0.34766-0.07031l1.0039-1.5059a0.25 0.25 0 0 0-0.070313-0.34571 0.25 0.25 0 0 0-0.15478-0.0415zm1.5 0a0.25 0.25 0 0 0-0.19092 0.10986l-1.0039 1.5059a0.25 0.25 0 0 0 0.068359 0.34766 0.25 0.25 0 0 0 0.34766-0.07031l1.0039-1.5059a0.25 0.25 0 0 0-0.070313-0.34571 0.25 0.25 0 0 0-0.15478-0.0415zm1.5 0a0.25 0.25 0 0 0-0.19092 0.10986l-1.0039 1.5059a0.25 0.25 0 0 0 0.068359 0.34766 0.25 0.25 0 0 0 0.34766-0.07031l1.0039-1.5059a0.25 0.25 0 0 0-0.070313-0.34571 0.25 0.25 0 0 0-0.15478-0.0415zm1.5 0a0.25 0.25 0 0 0-0.19092 0.10986l-1.0039 1.5059a0.25 0.25 0 0 0 0.068359 0.34766 0.25 0.25 0 0 0 0.34766-0.07031l1.0039-1.5059a0.25 0.25 0 0 0-0.070313-0.34571 0.25 0.25 0 0 0-0.15478-0.0415z" fill="#000000" opacity=".25"/>
  <rect x="65.5" y="263.5" width="1" height="1" ry=".5" fill="#76ff03"/>
  <rect x="67" y="263.5" width="1" height="1" ry=".5" fill="#ffff00"/>
  <rect x="68.5" y="263.5" width="1" height="1" ry=".5" fill="#ffcd40"/>
  <path d="m57 262c-0.277 0-0.5 0.223-0.5 0.5v0.222c0-0.261 0.223-0.472 0.5-0.472h13c0.277 0 0.5 0.21 0.5 0.472v-0.222c0-0.277-0.223-0.5-0.5-0.5z" fill="#ffffff" opacity=".15"/>
  <path d="m57 266.5a0.5 0.5 0 0 1-0.5-0.5v-0.222c0 0.261 0.223 0.472 0.5 0.472h13c0.277 0 0.5-0.21 0.5-0.472v0.222c0 0.277-0.223 0.5-0.5 0.5z" opacity=".15"/>
  <rect transform="matrix(0,-1,-1,0,0,0)" x="-266.5" y="-70.5" width="4.5" height="14" rx=".5" ry=".5" fill="#f4be70" opacity=".1" style="mix-blend-mode:overlay"/>
 </g>
 <use transform="translate(0,18)" width="100%" height="100%" xlink:href="#a"/>
 <use transform="translate(0,36)" width="100%" height="100%" xlink:href="#a"/>
</svg>
