<svg xmlns="http://www.w3.org/2000/svg" xmlns:xlink="http://www.w3.org/1999/xlink" width="64" height="64" viewBox="0 0 64 64"><g stroke-width=".5" transform="translate(0 1)"><g id="a" stroke-width=".5" transform="matrix(4 0 0 4 -222 -1044)"><rect width="4.5" height="14" x="-266.5" y="-70.5" fill="#787c82" rx=".5" ry=".5" transform="rotate(90)scale(-1 1)"/><path fill="none" stroke="#545454" stroke-linecap="round" d="m61.756 263.36-1.004 1.506M60.256 263.36l-1.004 1.506M58.756 263.36l-1.004 1.506"/><rect width="1" height="1" x="65.5" y="263.5" fill="#76ff03" ry=".5"/><rect width="1" height="1" x="67" y="263.5" fill="#ff0" ry=".5"/><rect width="1" height="1" x="68.5" y="263.5" fill="#ffcd40" ry=".5"/><path fill="none" stroke="#545454" stroke-linecap="round" d="m63.256 263.36-1.004 1.506"/><path fill="#fff" d="M57 262c-.277 0-.5.223-.5.5v.222c0-.261.223-.472.5-.472h13c.277 0 .5.21.5.472v-.222c0-.277-.223-.5-.5-.5z" opacity=".15"/><path d="M57 266.5a.5.5 0 0 1-.5-.5v-.222c0 .261.223.472.5.472h13c.277 0 .5-.21.5-.472V266c0 .277-.223.5-.5.5z" opacity=".15"/></g><use xlink:href="#a" width="100%" height="100%" transform="translate(0 18)"/><use xlink:href="#a" width="100%" height="100%" transform="translate(0 36)"/></g></svg>