<svg xmlns="http://www.w3.org/2000/svg" width="64" height="64"><path d="m41 5-6 6 11 11-11 11 6 6 17-17z" style="color:#fcfcfc;fill:currentColor;fill-rule:evenodd"/><path d="M18.9 6c-1.8 0-3.15 1.4-3.15 3.125a3.13 3.13 0 0 0 3.15 3.125c1.7 0 3.1-1.45 3.1-3.125C22 7.4 20.6 6 18.9 6" style="fill:#fa8865"/><path d="M10.5 25.5C8 25.5 6 27.5 6 30s2 4.5 4.5 4.5 4.5-2 4.5-4.5-2-4.5-4.5-4.5" style="fill:#63c605"/><path d="M25.5 45c-3.6 0-6.5 2.9-6.5 6.5s2.9 6.5 6.5 6.5 6.5-2.9 6.5-6.5-2.9-6.5-6.5-6.5" style="fill:#1b89f3"/></svg>