<svg xmlns="http://www.w3.org/2000/svg" width="64" height="64"><defs><filter id="d" width="1.144" height="1.72" x="-.072" y="-.36" color-interpolation-filters="sRGB"><feGaussianBlur stdDeviation="4.8"/></filter><filter id="b" width="1.055" height="1.105" x="-.027" y="-.052" color-interpolation-filters="sRGB"><feGaussianBlur stdDeviation=".525"/></filter><filter id="a" width="1.072" height="1.072" x="-.036" y="-.036" color-interpolation-filters="sRGB"><feGaussianBlur stdDeviation=".84"/></filter></defs><path d="M8.98 3.996c-1.662 0-3 1.434-3 3.215v9.977A2.99 2.99 0 0 0 4 20v37c0 1.662 1.338 3 3 3h50c1.662 0 3-1.338 3-3V20c0-1.662-1.338-3-3-3H30.178L35 11.57h20c1.662 0 2.98 1.131 2.98 2.912v-.267c0-1.781-1.337-3.215-3-3.215H35l-6.019-7.004h-20z" enable-background="new" filter="url(#a)" opacity=".25"/><path fill="#f4be70" d="M5.98 41.502V7.21c0-1.781 1.338-3.215 3-3.215h20L35 11h19.98c1.662 0 3 1.434 3 3.215v27.288c0 1.78-1.338 3.215-3 3.215h-46c-1.662 0-3-1.434-3-3.215z" enable-background="new"/><path d="M8.98 3.996c-1.662 0-3 1.434-3 3.215v13.434c0-1.781 1.338-3.215 3-3.215h20l6-6.43H35l-6.02-7.004z" enable-background="new" opacity=".25"/><path fill="#fff" d="M8.98 4c-1.662 0-3 1.434-3 3.215v.268C5.98 5.702 7.34 5.06 9 5h20l5.509 6.505.471-.505-6-7z" enable-background="new" opacity=".2"/><path fill="#f4be70" d="M57.98 54.936V14.215c0-1.781-1.338-3.215-3-3.215h-20l-6 6.43h-20c-1.662 0-3 1.434-3 3.215v34.292c0 1.78 1.338 3.215 3 3.215h46c1.662 0 3-1.434 3-3.215z" enable-background="new"/><path d="M57.98 54.936V14.215c0-1.781-1.338-3.215-3-3.215h-20l-6 6.43h-20c-1.662 0-3 1.434-3 3.215v34.292c0 1.78 1.338 3.215 3 3.215h46c1.662 0 3-1.434 3-3.215z" enable-background="new" opacity=".15"/><rect width="46" height="24" x="9" y="13.26" fill-rule="evenodd" enable-background="new" filter="url(#b)" opacity=".15" rx="1" ry="1" style="paint-order:fill markers stroke"/><rect width="46" height="24" x="9" y="14" fill="#fff" fill-rule="evenodd" enable-background="new" rx="1" ry="1" style="paint-order:fill markers stroke"/><path fill="#fff" d="m34.98 11-6 6.43-20 .153c-1.662.013-3 1.28-3 3.062v.267c0-1.78 1.338-2.568 3-2.568l20 .003L35 11.57h20c1.661 0 2.98 1.132 2.98 2.913v-.268c0-1.781-1.338-3.215-3-3.215z" enable-background="new" opacity=".2"/><rect width="43" height="56" x="-60" y="-60" fill="#f4be70" enable-background="new" rx="3" ry="3" transform="rotate(90)scale(-1 1)"/><rect width="160" height="32" x="-38.074" y="-18.628" enable-background="new" filter="url(#d)" opacity=".2" rx="0" ry="8" transform="matrix(.125 0 0 .13395 26.759 28.038)"/><rect width="20" height="4" x="22" y="25" fill="#fff" enable-background="new" rx="1" ry="1"/><path fill="#fff" d="M7 17c-1.662 0-3 1.338-3 3v.93C4 19.306 5.338 18 7 18h50c1.662 0 3 1.306 3 2.93V20c0-1.662-1.338-3-3-3z" enable-background="new" opacity=".35"/><path d="M7 60c-1.662 0-3-1.338-3-3v-.93C4 57.694 5.338 59 7 59h50c1.662 0 3-1.306 3-2.93V57c0 1.662-1.338 3-3 3z" enable-background="new" opacity=".15"/></svg>