<svg width="64" height="64" version="1.1" xmlns="http://www.w3.org/2000/svg" xmlns:xlink="http://www.w3.org/1999/xlink">
 <defs>
  <filter id="a" x="-.072" y="-.36" width="1.144" height="1.72" color-interpolation-filters="sRGB">
   <feGaussianBlur stdDeviation="4.8"/>
  </filter>
  <filter id="c" x="-.027391" y="-.0525" width="1.0548" height="1.105" color-interpolation-filters="sRGB">
   <feGaussianBlur stdDeviation="0.525"/>
  </filter>
  <filter id="b" x="-.036001" y="-.035999" width="1.072" height="1.072" color-interpolation-filters="sRGB">
   <feGaussianBlur stdDeviation="0.8400293"/>
  </filter>
 </defs>
 <g>
  <path d="m8.9805 3.9961c-1.662-1e-7 -3 1.4338-3 3.2148v9.9766c-1.1546 0.41688-1.9805 1.5106-1.9805 2.8125v37c0 1.662 1.338 3 3 3h50c1.662 0 3-1.338 3-3v-37c0-1.662-1.338-3-3-3h-26.822l4.8223-5.4297h20c1.662 0 2.9805 1.1311 2.9805 2.9121v-0.26758c0-1.781-1.338-3.2148-3-3.2148h-19.98l-6.0195-7.0039h-20z" enable-background="new" filter="url(#b)" opacity=".25"/>
  <path d="m5.9805 41.502v-34.292c0-1.781 1.338-3.2148 3-3.2148h20l6.0195 7.0039h19.98c1.662 0 3 1.4338 3 3.2148v27.288c0 1.781-1.338 3.2148-3 3.2148h-46c-1.662 0-3-1.4338-3-3.2148z" enable-background="new" fill="#f4be70"/>
  <path d="m8.9805 3.9961c-1.662-1e-7 -3 1.4338-3 3.2148v13.434c-1e-7 -1.781 1.338-3.2148 3-3.2148h20l6-6.4297h0.019531l-6.0195-7.0039z" enable-background="new" opacity=".25"/>
  <path d="m8.9805 4c-1.662 0-3 1.4338-3 3.2148v0.2679c0-1.781 1.3586-2.4219 3.0195-2.4827h20l5.5085 6.5049 0.47193-0.50486-6-7z" enable-background="new" fill="#fff" opacity=".2"/>
  <path d="m57.98 54.936v-40.721c0-1.781-1.338-3.2148-3-3.2148h-20l-6 6.4297h-20c-1.662 0-3 1.4338-3 3.2148v34.292c0 1.781 1.338 3.2148 3 3.2148h46c1.662 0 3-1.4338 3-3.2148z" enable-background="new" fill="#f4be70"/>
  <path d="m57.98 54.936v-40.721c0-1.781-1.338-3.2148-3-3.2148h-20l-6 6.4297h-20c-1.662 0-3 1.4338-3 3.2148v34.292c0 1.781 1.338 3.2148 3 3.2148h46c1.662 0 3-1.4338 3-3.2148z" enable-background="new" opacity=".15"/>
  <rect x="9" y="13.26" width="46" height="24" rx="1" ry="1" enable-background="new" fill-rule="evenodd" filter="url(#c)" opacity=".15" style="paint-order:fill markers stroke"/>
  <rect x="9" y="14" width="46" height="24" rx="1" ry="1" enable-background="new" fill="#fff" fill-rule="evenodd" style="paint-order:fill markers stroke"/>
  <path d="m34.98 11-6 6.4297-20 0.15314c-1.662 0.01272-3 1.2807-3 3.0617v0.2679c0-1.781 1.338-2.5685 3-2.5682l20 0.003126 6.0195-6.7769h20c1.662 0 2.9805 1.1314 2.9805 2.9124v-0.2679c0-1.781-1.338-3.2148-3-3.2148z" enable-background="new" fill="#fff" opacity=".2"/>
  <rect transform="matrix(0,-1,-1,0,0,0)" x="-60" y="-60" width="43" height="56" rx="3" ry="3" enable-background="new" fill="#f4be70"/>
  <rect transform="matrix(.125 0 0 .13395 26.759 28.038)" x="-38.074" y="-18.628" width="160" height="32" rx="0" ry="8" enable-background="new" filter="url(#a)" opacity=".2"/>
  <rect x="22" y="25" width="20" height="4" rx="1" ry="1" enable-background="new" fill="#fff"/>
  <path d="m7 17c-1.662 0-3 1.338-3 3v0.92969c0-1.6233 1.338-2.9297 3-2.9297h50c1.662 0 3 1.3063 3 2.9297v-0.92969c0-1.662-1.338-3-3-3h-50z" enable-background="new" fill="#fff" opacity=".35"/>
  <path d="m7 60c-1.662 0-3-1.338-3-3v-0.92969c0 1.6233 1.338 2.9297 3 2.9297h50c1.662 0 3-1.3063 3-2.9297v0.92969c0 1.662-1.338 3-3 3z" enable-background="new" opacity=".15"/>
 </g>
</svg>
