<svg xmlns="http://www.w3.org/2000/svg" width="64" height="64" viewBox="0 0 64 64"><defs><filter id="b" width="1.076" height="1.068" x="-.038" y="-.034" color-interpolation-filters="sRGB"><feGaussianBlur stdDeviation="2.28"/></filter><filter id="c" width="1.069" height="1.075" x="-.035" y="-.037" color-interpolation-filters="sRGB"><feGaussianBlur stdDeviation=".205"/></filter><radialGradient id="a" cx="33" cy="59" r="27" gradientTransform="matrix(1.1473 0 0 .21246 -5.86 45.943)" gradientUnits="userSpaceOnUse"><stop offset="0"/><stop offset="1" stop-opacity="0"/></radialGradient></defs><ellipse cx="32" cy="58.478" fill="url(#a)" opacity=".35" rx="30.977" ry="5.736"/><path d="m117 111 8-152H-19l8 152c.233 4.426 3.568 8 8 8h112c4.432 0 8-3.568 8-8" enable-background="new" filter="url(#b)" opacity=".15" transform="translate(14.372 19.137)scale(.34106)"/><path fill="#fff" d="m53.828 56.682 2.729-51.841H7.444l2.729 51.841c.08 1.51 1.217 2.729 2.728 2.729H51.1a2.723 2.723 0 0 0 2.729-2.729" enable-background="new"/><path fill="#fff" d="m7.444 4.84.018.342h49.076l.018-.341z" enable-background="new" opacity=".3"/><g filter="url(#c)" opacity=".15" transform="translate(-34.365 -18.581)scale(2.1191)"><path d="m30.342 31.238-.004-3.824h-2.621l-3.129-.567 2.063 3.7c.101.18.707.691 1.73.691z"/><path d="m27.717 27.414.672-1.207.86.512-.61-1.762-.61-1.758-1.78.332-1.778.332.719.43-.586 1.047c-.278.5-.328.95-.016 1.508l2.063 3.699c.05.09.23.262.523.414-1-.723-.422-1.848.543-3.547M26.588 21.723l3.203 1.914q.657-1.178 1.309-2.355l2.043-2.516h-4.13c-.202 0-.933.285-1.445 1.2z"/><path d="m31.1 21.285.676 1.207-.86.516 1.782.332 1.777.332.613-1.758.61-1.762-.72.43-.585-1.05c-.277-.5-.629-.767-1.25-.767h-4.129c-.102 0-.336.07-.61.258 1.102-.531 1.758.547 2.696 2.262zM37.233 23.176l-3.316 1.914q.655 1.138 1.316 2.27l1.07 2.992 2.172-3.637c.106-.176.246-.957-.262-1.844z"/><path d="m35.233 27.359-1.387.02.016-1-2.438 2.82 1.176 1.37 1.18 1.376.012-.836 1.203-.02c.57-.007.98-.187 1.308-.738l2.172-3.637c.055-.09.117-.328.098-.66-.125 1.227-1.387 1.29-3.34 1.305z"/></g><path fill="#f55" d="m29.599 47.078-.009-8.103h-5.554l-6.63-1.2 4.37 7.838c.216.381 1.499 1.465 3.667 1.465z" opacity=".75"/><path fill="#faa" d="m24.036 38.975 1.424-2.558 1.821 1.085-1.291-3.734-1.292-3.725-3.774.704-3.767.704 1.524.91-1.242 2.219c-.588 1.06-.695 2.011-.033 3.195l4.37 7.839c.108.19.489.554 1.11.877-2.12-1.531-.894-3.915 1.15-7.516z"/><path fill="#f55" d="m21.644 26.915 6.787 4.056c.927-1.663 1.855-3.327 2.773-4.991l4.33-5.331h-8.75c-.43 0-1.978.604-3.063 2.541z" opacity=".75"/><path fill="#faa" d="m31.205 25.987 1.432 2.558-1.821 1.092 3.774.704 3.767.704 1.3-3.725 1.29-3.734-1.522.911-1.242-2.227c-.588-1.06-1.333-1.622-2.649-1.622h-8.75c-.215 0-.711.149-1.29.546 2.334-1.126 3.724 1.16 5.71 4.793z"/><path fill="#f55" d="m44.201 29.994-7.027 4.056a911 911 0 0 0 2.79 4.81l2.267 6.34 4.603-7.706c.223-.373.521-2.028-.555-3.907z" opacity=".75"/><path fill="#faa" d="m39.963 38.858-2.938.042.033-2.12-5.165 5.977 2.491 2.906 2.5 2.914.025-1.772 2.55-.041c1.208-.017 2.077-.398 2.772-1.565l4.603-7.706c.116-.19.248-.696.207-1.4-.265 2.6-2.939 2.732-7.078 2.765z"/></svg>