<svg width="64" height="64" version="1.1" xmlns="http://www.w3.org/2000/svg" xmlns:xlink="http://www.w3.org/1999/xlink">
 <defs>
  <linearGradient id="a">
   <stop offset="0"/>
   <stop stop-opacity="0" offset="1"/>
  </linearGradient>
  <filter id="d" x="-.038571" y="-.03375" width="1.0771" height="1.0675" color-interpolation-filters="sRGB">
   <feGaussianBlur stdDeviation="0.3375006"/>
  </filter>
  <linearGradient id="b" x1="31" x2="31" y1="1005.4" y2="1003.4" gradientTransform="matrix(.92593 0 0 1 2.3704 -988.36)" gradientUnits="userSpaceOnUse" xlink:href="#a"/>
  <radialGradient id="c" cx="32" cy="1021.9" r="25" gradientTransform="matrix(-1 0 0 -.080001 64 137.74)" gradientUnits="userSpaceOnUse" xlink:href="#a"/>
 </defs>
 <g transform="translate(0 -988.36)" stroke-width="1.4241">
  <path transform="translate(0 988.36)" d="m13 8.002c-1.108 0-2 0.892-2 2h-2.2148c-0.98928 0-1.7852 0.892-1.7852 2v6c0 1.108 0.79588 2 1.7852 2h46.43c0.98928 0 1.7852-0.892 1.7852-2v-6c0-1.108-0.79588-2-1.7852-2h-24.215c0-1.108-0.892-2-2-2z" fill="#2eb398"/>
  <path transform="translate(0 988.36)" d="m13 8.002c-1.108 0-2 0.892-2 2h-2.2148c-0.98928 0-1.7852 0.892-1.7852 2v6c0 1.108 0.79588 2 1.7852 2h46.43c0.98928 0 1.7852-0.892 1.7852-2v-6c0-1.108-0.79588-2-1.7852-2h-24.215c0-1.108-0.892-2-2-2z" opacity=".15"/>
  <rect x="10" y="1001.4" width="44" height="7" rx=".88" ry="1" fill="#fff"/>
 </g>
 <rect x="7" y="15.04" width="50" height="2" ry="0" fill="url(#b)" opacity=".1" stroke-width="1.4088"/>
 <rect x="7" y="56.04" width="50" height="5" ry="0" fill="url(#c)" opacity=".1" stroke-width="1.4088"/>
 <rect x="4" y="17.04" width="56" height="39" rx="2" ry="2.0001" fill="#2eb398" stroke-width="1.4241"/>
 <path d="m4 53.039v1c0 1.1081 0.892 2 2 2h52c1.108 0 2-0.89194 2-2v-1c0 1.108-0.892 2-2 2h-52c-1.108 0-2-0.892-2-2z" opacity=".15" stroke-width="1.4241"/>
 <path d="m42.422 27.84v3h-1.5c-0.83102 0-1.5 0.669-1.5 1.5v6l0.80858 0.8084-5.1123 8.9476-0.1962 3.744 2.8037-2.256 1.084-1.8984c1.5982 0.757 3.344 1.1508 5.1123 1.1544 1.7676 0 3.5123-0.4 5.1094-1.1574l1.0869 1.9014 2.8037 2.256-0.1962-3.744-1.1514-2.0156c2.7529-2.2792 4.3467-5.6666 4.3477-9.2404h-3c-4e-3 2.4954-1.0417 4.877-2.8682 6.5772l-2.4404-4.2684 0.8086-0.8088v-6c0-0.831-0.669-1.5-1.5-1.5h-1.5v-3zm1.5 6c0.831 0 1.5 0.669 1.5 1.5s-0.669 1.5-1.5 1.5c-0.83102 0-1.5-0.669-1.5-1.5s0.66898-1.5 1.5-1.5zm-1.4883 7.506c0.9419 0.4598 1.8979 0.7974 2.9795 0l2.1269 3.7234c-1.1397 0.5046-2.3718 0.767-3.6181 0.7706-1.2454 0-2.4765-0.267-3.6152-0.7706z" enable-background="new" filter="url(#d)" opacity=".15"/>
 <path d="m42 27.04v3h-1.5c-0.83102 0-1.5 0.669-1.5 1.5v6l0.80858 0.8084-5.1123 8.9476-0.1962 3.744 2.8037-2.256 1.084-1.8984c1.5982 0.757 3.344 1.1508 5.1123 1.1544 1.7676 0 3.5123-0.4 5.1094-1.1574l1.0869 1.9014 2.8037 2.256-0.1962-3.744-1.1514-2.0156c2.7529-2.2792 4.3467-5.6666 4.3477-9.2404h-3c-4e-3 2.4954-1.0417 4.877-2.8682 6.5772l-2.4404-4.2684 0.8086-0.8088v-6c0-0.831-0.669-1.5-1.5-1.5h-1.5v-3zm1.5 6c0.831 0 1.5 0.669 1.5 1.5s-0.669 1.5-1.5 1.5c-0.83102 0-1.5-0.669-1.5-1.5s0.66898-1.5 1.5-1.5zm-1.4883 7.506c0.9419 0.4598 1.8979 0.7974 2.9795 0l2.1269 3.7234c-1.1397 0.5046-2.3718 0.767-3.6181 0.7706-1.2454 0-2.4765-0.267-3.6152-0.7706z" enable-background="new" fill="#fff"/>
</svg>
