<?xml version="1.0" encoding="UTF-8" standalone="no"?>
<svg
   xmlns:dc="http://purl.org/dc/elements/1.1/"
   xmlns:cc="http://creativecommons.org/ns#"
   xmlns:rdf="http://www.w3.org/1999/02/22-rdf-syntax-ns#"
   xmlns:svg="http://www.w3.org/2000/svg"
   xmlns="http://www.w3.org/2000/svg"
   xmlns:sodipodi="http://sodipodi.sourceforge.net/DTD/sodipodi-0.dtd"
   xmlns:inkscape="http://www.inkscape.org/namespaces/inkscape"
   width="64px"
   height="64px"
   viewBox="0 0 64 64"
   version="1.1"
   id="svg2"
   inkscape:version="0.91 r13725"
   sodipodi:docname="application-pdf.svg">
  <metadata
     id="metadata21">
    <rdf:RDF>
      <cc:Work
         rdf:about="">
        <dc:format>image/svg+xml</dc:format>
        <dc:type
           rdf:resource="http://purl.org/dc/dcmitype/StillImage" />
      </cc:Work>
    </rdf:RDF>
  </metadata>
  <defs
     id="defs19">
    <filter
       inkscape:collect="always"
       style="color-interpolation-filters:sRGB"
       id="filter4185"
       x="-0.096041703"
       width="1.1920834"
       y="-0.095958333"
       height="1.1919167">
      <feGaussianBlur
         inkscape:collect="always"
         stdDeviation="0.7196875"
         id="feGaussianBlur4187" />
    </filter>
    <filter
       inkscape:collect="always"
       style="color-interpolation-filters:sRGB"
       id="filter4223"
       x="-0.096000629"
       width="1.1920013"
       y="-0.095999371"
       height="1.1919987">
      <feGaussianBlur
         inkscape:collect="always"
         stdDeviation="1.2799114"
         id="feGaussianBlur4225" />
    </filter>
  </defs>
  <sodipodi:namedview
     pagecolor="#ffffff"
     bordercolor="#666666"
     borderopacity="1"
     objecttolerance="10"
     gridtolerance="10"
     guidetolerance="10"
     inkscape:pageopacity="0"
     inkscape:pageshadow="2"
     inkscape:window-width="1301"
     inkscape:window-height="744"
     id="namedview17"
     showgrid="true"
     inkscape:snap-bbox="true"
     inkscape:snap-bbox-edge-midpoints="true"
     inkscape:bbox-paths="true"
     inkscape:bbox-nodes="true"
     inkscape:snap-bbox-midpoints="true"
     inkscape:zoom="5.2149125"
     inkscape:cx="19.128155"
     inkscape:cy="28.983633"
     inkscape:window-x="65"
     inkscape:window-y="24"
     inkscape:window-maximized="1"
     inkscape:current-layer="svg2">
    <inkscape:grid
       type="xygrid"
       id="grid4158" />
  </sodipodi:namedview>
  <g
     id="g3350">
    <path
       style="fill:#de1717;fill-opacity:1;fill-rule:nonzero;stroke:none"
       d="M 10.671875,0 C 9.296875,0 8,1.355469 8,2.789062 L 8,61.210938 C 8,62.566406 9.375,64 10.671875,64 l 42.65625,0 C 54.625,64 56,62.566406 56,61.210938 L 56,18 38,0 Z m 0,0"
       id="path5"
       inkscape:connector-curvature="0" />
    <path
       inkscape:connector-curvature="0"
       id="path4183"
       d="m 37.72725,1.2727492 0,15.2265618 c 0,1.347657 1.410156,2.773438 2.757812,2.773438 l 15.226563,0 -1,-1 -13.984375,0 c -1.108,0 -2,-0.892 -2,-2 l 0,-13.9999998 -1,-1 z"
       style="opacity:0.35;fill:#000000;fill-opacity:1;fill-rule:nonzero;stroke:none;filter:url(#filter4185)" />
    <path
       style="fill:#ffffff;fill-opacity:0.39215687;fill-rule:nonzero;stroke:none"
       d="M 38,0 55.984375,18 40.757812,18 C 39.410156,18 38,16.574219 38,15.226562 Z m 0,0"
       id="path9"
       inkscape:connector-curvature="0" />
    <g
       style="fill:#000000;opacity:0.35;filter:url(#filter4223)"
       id="g4215">
      <path
         style="fill:#000000;fill-opacity:1;fill-rule:nonzero;stroke:none"
         d="m 31.375,21.351562 c 0,0 0.921875,8.492188 -5.585938,19.710938 -6.507812,11.210938 -8.421874,9.703125 -9.101562,9.320312 -0.6875,-0.390624 -1.570312,-1.65625 1.320312,-4.179687 2.882813,-2.523437 4.007813,-2.476563 4.007813,-2.476563 0,0 -2.640625,1.601563 -3.664063,3.15625 -1.03125,1.554688 -1.859374,2.523438 -1.617187,2.960938 0.242187,0.4375 3.195313,-1.789062 4.414063,-3.679688 1.945312,-3.007812 5.617187,-8.601562 7.328124,-13.9375 1.710938,-5.34375 2.898438,-10.875 2.898438,-10.875 z m 0,0"
         id="path4217"
         inkscape:connector-curvature="0" />
      <path
         style="fill:#000000;fill-opacity:1;fill-rule:nonzero;stroke:none"
         d="m 47.414062,41.007812 c 0,0 -0.148437,0.390626 -1.859374,0.25 C 43.84375,41.109375 37.1875,39.023438 33.617188,34.75 30.046875,30.476562 29.75,24.601562 29.507812,21.546875 c -0.25,-3.054687 1.109376,-2.203125 1.304688,-1.820313 0.304688,0.257813 0.453125,1.09375 0.453125,1.09375 0,0 -0.109375,-1.25 -0.648437,-1.789062 C 30.078125,18.5 29.601562,18.492188 29.0625,19.414062 c -0.539062,0.921876 -0.78125,3.492188 -0.34375,5.96875 0.445312,2.476563 2.257812,8.15625 4.507812,10.773438 2.25,2.625 6.75,4.90625 10.078126,5.585938 3.328124,0.679687 4.109374,-0.726563 4.109374,-0.726563 z m 0,0"
         id="path4219"
         inkscape:connector-curvature="0" />
      <path
         style="fill:#000000;fill-opacity:1;fill-rule:nonzero;stroke:none"
         d="m 25.734375,42.125 c 0,0 6.460937,-2.085938 12.578125,-2.664062 6.117188,-0.585938 8.226562,0.04687 8.757812,0.484374 0.539063,0.4375 0.539063,0.921876 0.539063,0.921876 0,0 0.6875,-0.679688 0.234375,-1.367188 -0.382812,-0.71875 -0.96875,-1.304688 -5.8125,-1.15625 -4.84375,0.140625 -5.1875,0.335938 -9.640625,1.164062 C 27.9375,40.335938 25.734375,42.125 25.734375,42.125 Z m 0,0"
         id="path4221"
         inkscape:connector-curvature="0" />
    </g>
    <g
       id="g4210">
      <path
         inkscape:connector-curvature="0"
         id="path11"
         d="m 31.375,21.351562 c 0,0 0.921875,8.492188 -5.585938,19.710938 -6.507812,11.210938 -8.421874,9.703125 -9.101562,9.320312 -0.6875,-0.390624 -1.570312,-1.65625 1.320312,-4.179687 2.882813,-2.523437 4.007813,-2.476563 4.007813,-2.476563 0,0 -2.640625,1.601563 -3.664063,3.15625 -1.03125,1.554688 -1.859374,2.523438 -1.617187,2.960938 0.242187,0.4375 3.195313,-1.789062 4.414063,-3.679688 1.945312,-3.007812 5.617187,-8.601562 7.328124,-13.9375 1.710938,-5.34375 2.898438,-10.875 2.898438,-10.875 z m 0,0"
         style="fill:#ffffff;fill-opacity:1;fill-rule:nonzero;stroke:none" />
      <path
         inkscape:connector-curvature="0"
         id="path13"
         d="m 47.414062,41.007812 c 0,0 -0.148437,0.390626 -1.859374,0.25 C 43.84375,41.109375 37.1875,39.023438 33.617188,34.75 30.046875,30.476562 29.75,24.601562 29.507812,21.546875 c -0.25,-3.054687 1.109376,-2.203125 1.304688,-1.820313 0.304688,0.257813 0.453125,1.09375 0.453125,1.09375 0,0 -0.109375,-1.25 -0.648437,-1.789062 C 30.078125,18.5 29.601562,18.492188 29.0625,19.414062 c -0.539062,0.921876 -0.78125,3.492188 -0.34375,5.96875 0.445312,2.476563 2.257812,8.15625 4.507812,10.773438 2.25,2.625 6.75,4.90625 10.078126,5.585938 3.328124,0.679687 4.109374,-0.726563 4.109374,-0.726563 z m 0,0"
         style="fill:#ffffff;fill-opacity:1;fill-rule:nonzero;stroke:none" />
      <path
         inkscape:connector-curvature="0"
         id="path15"
         d="m 25.734375,42.125 c 0,0 6.460937,-2.085938 12.578125,-2.664062 6.117188,-0.585938 8.226562,0.04687 8.757812,0.484374 0.539063,0.4375 0.539063,0.921876 0.539063,0.921876 0,0 0.6875,-0.679688 0.234375,-1.367188 -0.382812,-0.71875 -0.96875,-1.304688 -5.8125,-1.15625 -4.84375,0.140625 -5.1875,0.335938 -9.640625,1.164062 C 27.9375,40.335938 25.734375,42.125 25.734375,42.125 Z m 0,0"
         style="fill:#ffffff;fill-opacity:1;fill-rule:nonzero;stroke:none" />
    </g>
    <path
       inkscape:connector-curvature="0"
       id="path4160"
       d="M 10.671875,0 C 9.296875,0 8,1.3554695 8,2.7890625 l 0,1 C 8,2.3554695 9.296875,1 10.671875,1 L 38,1 38,0 10.671875,0 Z"
       style="opacity:0.5;fill:#ffffff;fill-opacity:1;fill-rule:nonzero;stroke:none" />
    <path
       inkscape:connector-curvature="0"
       id="path4178"
       d="m 8,60.210938 0,1 C 8,62.566406 9.375,64 10.671875,64 L 53.32812,64 C 54.62499,64 56,62.566406 56,61.210938 l 0,-1 C 56,61.566406 54.62499,63 53.32812,63 L 10.671875,63 C 9.375,63 8,61.566406 8,60.210938 Z"
       style="opacity:0.15;fill:#000000;fill-opacity:1;fill-rule:nonzero;stroke:none" />
  </g>
</svg>
