<?xml version="1.0" encoding="UTF-8" standalone="no"?>
<svg
   xmlns:dc="http://purl.org/dc/elements/1.1/"
   xmlns:cc="http://creativecommons.org/ns#"
   xmlns:rdf="http://www.w3.org/1999/02/22-rdf-syntax-ns#"
   xmlns:svg="http://www.w3.org/2000/svg"
   xmlns="http://www.w3.org/2000/svg"
   xmlns:sodipodi="http://sodipodi.sourceforge.net/DTD/sodipodi-0.dtd"
   xmlns:inkscape="http://www.inkscape.org/namespaces/inkscape"
   width="64px"
   height="64px"
   viewBox="0 0 64 64"
   version="1.1"
   id="svg2"
   inkscape:version="0.91 r13725"
   sodipodi:docname="application-archive.svg">
  <metadata
     id="metadata27">
    <rdf:RDF>
      <cc:Work
         rdf:about="">
        <dc:format>image/svg+xml</dc:format>
        <dc:type
           rdf:resource="http://purl.org/dc/dcmitype/StillImage" />
      </cc:Work>
    </rdf:RDF>
  </metadata>
  <defs
     id="defs25">
    <clipPath
       clipPathUnits="userSpaceOnUse"
       id="clipPath4278">
      <path
         sodipodi:nodetypes="ssssssccs"
         style="fill:#e1e1e1;fill-opacity:1;stroke:none"
         d="m 300,196 c -2.216,0 -4,1.784 -4,4 l 0,72 c 0,2.216 1.784,4 4,4 l 56,0 c 2.216,0 4,-1.784 4,-4 l 0,-52 -24,-24 z"
         id="path4280"
         inkscape:connector-curvature="0" />
    </clipPath>
    <filter
       inkscape:collect="always"
       id="filter4293"
       x="-0.1225"
       width="1.245"
       y="-0.1176"
       height="1.2352">
      <feGaussianBlur
         inkscape:collect="always"
         stdDeviation="1.225"
         id="feGaussianBlur4295" />
    </filter>
    <filter
       inkscape:collect="always"
       style="color-interpolation-filters:sRGB"
       id="filter4272"
       x="-0.50943933"
       width="2.0188787"
       y="-0.052993072"
       height="1.1059861">
      <feGaussianBlur
         inkscape:collect="always"
         stdDeviation="0.87784738"
         id="feGaussianBlur4274" />
    </filter>
  </defs>
  <sodipodi:namedview
     pagecolor="#ffffff"
     bordercolor="#666666"
     borderopacity="1"
     objecttolerance="10"
     gridtolerance="10"
     guidetolerance="10"
     inkscape:pageopacity="0"
     inkscape:pageshadow="2"
     inkscape:window-width="1301"
     inkscape:window-height="744"
     id="namedview23"
     showgrid="false"
     inkscape:zoom="7.375"
     inkscape:cx="14.318503"
     inkscape:cy="34.9556"
     inkscape:window-x="65"
     inkscape:window-y="24"
     inkscape:window-maximized="1"
     inkscape:current-layer="svg2" />
  <g
     id="g3383">
    <g
       id="g4306">
      <g
         transform="matrix(0.4,0,0,0.4,-163.2,-43.2)"
         style="display:inline;enable-background:new"
         id="g4904">
        <path
           sodipodi:nodetypes="sssssscccs"
           inkscape:connector-curvature="0"
           id="rect3322"
           d="m 432,108 c -4.432,0 -8,3.568 -8,8 l 0,144 c 0,4.432 3.568,8 8,8 l 112,0 c 4.432,0 8,-3.568 8,-8 l 0,-104 -44,-4 -4,-44 z"
           style="fill:#bf9451;fill-opacity:1;stroke:none" />
        <path
           transform="matrix(2,0,0,2,-168.00009,-284)"
           id="path4285"
           d="m 336,196 0,21 c 0,2.20914 1.79086,4 4,4 l 20,0 0,-1 z"
           style="opacity:0.2;fill:#000000;fill-opacity:1;stroke:none;filter:url(#filter4293)"
           inkscape:connector-curvature="0"
           sodipodi:nodetypes="cssccc"
           clip-path="url(#clipPath4278)" />
        <path
           inkscape:connector-curvature="0"
           style="fill:#f0d2a1;fill-opacity:1;stroke:none"
           d="m 503.99991,108 0,40 c 0,4.41828 3.58172,8 8,8 l 40,0 -48,-48 z"
           id="path4287" />
        <path
           sodipodi:nodetypes="sscsccs"
           inkscape:connector-curvature="0"
           id="path4300"
           d="m 432,108 c -4.432,0 -8,3.568 -8,8 l 0,1 c 0,-4.432 3.568,-8 8,-8 l 72,0 0,-1 z"
           style="opacity:0.35;fill:#ffffff;fill-opacity:1;stroke:none" />
        <path
           style="opacity:0.15;fill:#000000;fill-opacity:1;stroke:none"
           d="m 424,259 0,1 c 0,4.432 3.568,8 8,8 l 112,0 c 4.432,0 8,-3.568 8,-8 l 0,-1 c 0,4.432 -3.568,8 -8,8 l -112,0 c -4.432,0 -8,-3.568 -8,-8 z"
           id="path14320"
           inkscape:connector-curvature="0" />
      </g>
      <g
         id="g4234"
         style="opacity:0.35;fill:#000000;fill-opacity:1;filter:url(#filter4272)"
         transform="translate(0,1.0847458)">
        <path
           inkscape:connector-curvature="0"
           id="path4236"
           d="m 26,0 2.067797,0 0,2.0677966 -2.067797,0 z m 0,0"
           style="fill:#000000;fill-opacity:1;fill-rule:evenodd;stroke:none" />
        <path
           inkscape:connector-curvature="0"
           id="path4238"
           d="m 28.067797,2.0677966 2.067796,0 0,2.0677966 -2.067796,0 z m 0,0"
           style="fill:#000000;fill-opacity:1;fill-rule:evenodd;stroke:none" />
        <path
           inkscape:connector-curvature="0"
           id="path4240"
           d="m 26,4.1355932 2.067797,0 0,2.0677966 -2.067797,0 z m 0,0"
           style="fill:#000000;fill-opacity:1;fill-rule:evenodd;stroke:none" />
        <path
           inkscape:connector-curvature="0"
           id="path4242"
           d="m 28.067797,6.2033898 2.067796,0 0,2.0677966 -2.067796,0 z m 0,0"
           style="fill:#000000;fill-opacity:1;fill-rule:evenodd;stroke:none" />
        <path
           inkscape:connector-curvature="0"
           id="path4244"
           d="m 26,8.2711864 2.067797,0 0,2.0677966 -2.067797,0 z m 0,0"
           style="fill:#000000;fill-opacity:1;fill-rule:evenodd;stroke:none" />
        <path
           inkscape:connector-curvature="0"
           id="path4246"
           d="m 26,35.621183 4.135593,0 0,4.135593 -4.135593,0 z m 0,0"
           style="fill:#000000;fill-opacity:1;fill-rule:evenodd;stroke:none" />
        <path
           style="fill:#000000;fill-opacity:1;fill-rule:evenodd;stroke:none"
           d="m 28.067797,10.271186 2.067796,0 0,2.067797 -2.067796,0 z m 0,0"
           id="path4248"
           inkscape:connector-curvature="0" />
        <path
           style="fill:#000000;fill-opacity:1;fill-rule:evenodd;stroke:none"
           d="m 26,12.338983 2.067797,0 0,2.067797 -2.067797,0 z m 0,0"
           id="path4250"
           inkscape:connector-curvature="0" />
        <path
           style="fill:#000000;fill-opacity:1;fill-rule:evenodd;stroke:none"
           d="m 28.067797,14.40678 2.067796,0 0,2.067796 -2.067796,0 z m 0,0"
           id="path4252"
           inkscape:connector-curvature="0" />
        <path
           style="fill:#000000;fill-opacity:1;fill-rule:evenodd;stroke:none"
           d="m 26,16.474576 2.067797,0 0,2.067797 -2.067797,0 z m 0,0"
           id="path4254"
           inkscape:connector-curvature="0" />
        <path
           inkscape:connector-curvature="0"
           id="path4256"
           d="m 28.067797,18.576271 2.067796,0 0,2.067797 -2.067796,0 z m 0,0"
           style="fill:#000000;fill-opacity:1;fill-rule:evenodd;stroke:none" />
        <path
           inkscape:connector-curvature="0"
           id="path4258"
           d="m 26,20.644068 2.067797,0 0,2.067797 -2.067797,0 z m 0,0"
           style="fill:#000000;fill-opacity:1;fill-rule:evenodd;stroke:none" />
        <path
           inkscape:connector-curvature="0"
           id="path4260"
           d="m 28.067797,22.711865 2.067796,0 0,2.067796 -2.067796,0 z m 0,0"
           style="fill:#000000;fill-opacity:1;fill-rule:evenodd;stroke:none" />
        <path
           inkscape:connector-curvature="0"
           id="path4262"
           d="m 26,24.779661 2.067797,0 0,2.067797 -2.067797,0 z m 0,0"
           style="fill:#000000;fill-opacity:1;fill-rule:evenodd;stroke:none" />
        <path
           style="fill:#000000;fill-opacity:1;fill-rule:evenodd;stroke:none"
           d="m 28.067797,26.847457 2.067796,0 0,2.067797 -2.067796,0 z m 0,0"
           id="path4264"
           inkscape:connector-curvature="0" />
        <path
           style="fill:#000000;fill-opacity:1;fill-rule:evenodd;stroke:none"
           d="m 26,28.915254 2.067797,0 0,2.067797 -2.067797,0 z m 0,0"
           id="path4266"
           inkscape:connector-curvature="0" />
        <path
           style="fill:#000000;fill-opacity:1;fill-rule:evenodd;stroke:none"
           d="m 28.067797,30.983051 2.067796,0 0,2.067796 -2.067796,0 z m 0,0"
           id="path4268"
           inkscape:connector-curvature="0" />
        <path
           style="fill:#000000;fill-opacity:1;fill-rule:evenodd;stroke:none"
           d="m 26,33.050847 2.067797,0 0,2.067797 -2.067797,0 z m 0,0"
           id="path4270"
           inkscape:connector-curvature="0" />
      </g>
      <g
         id="g4214">
        <path
           style="fill:#f8f8f8;fill-opacity:1;fill-rule:evenodd;stroke:none"
           d="m 26,0 2.067797,0 0,2.0677966 -2.067797,0 z m 0,0"
           id="path11"
           inkscape:connector-curvature="0" />
        <path
           style="fill:#f8f8f8;fill-opacity:1;fill-rule:evenodd;stroke:none"
           d="m 28.067797,2.0677966 2.067796,0 0,2.0677966 -2.067796,0 z m 0,0"
           id="path13"
           inkscape:connector-curvature="0" />
        <path
           style="fill:#f8f8f8;fill-opacity:1;fill-rule:evenodd;stroke:none"
           d="m 26,4.1355932 2.067797,0 0,2.0677966 -2.067797,0 z m 0,0"
           id="path15"
           inkscape:connector-curvature="0" />
        <path
           style="fill:#f8f8f8;fill-opacity:1;fill-rule:evenodd;stroke:none"
           d="m 28.067797,6.2033898 2.067796,0 0,2.0677966 -2.067796,0 z m 0,0"
           id="path17"
           inkscape:connector-curvature="0" />
        <path
           style="fill:#f8f8f8;fill-opacity:1;fill-rule:evenodd;stroke:none"
           d="m 26,8.2711864 2.067797,0 0,2.0677966 -2.067797,0 z m 0,0"
           id="path19"
           inkscape:connector-curvature="0" />
        <path
           style="fill:#f8f8f8;fill-opacity:1;fill-rule:evenodd;stroke:none"
           d="m 26,36.502539 4.135593,0 0,4.135593 -4.135593,0 z m 0,0"
           id="path21"
           inkscape:connector-curvature="0" />
        <path
           inkscape:connector-curvature="0"
           id="path4190"
           d="m 28.067797,10.271186 2.067796,0 0,2.067797 -2.067796,0 z m 0,0"
           style="fill:#f8f8f8;fill-opacity:1;fill-rule:evenodd;stroke:none" />
        <path
           inkscape:connector-curvature="0"
           id="path4192"
           d="m 26,12.338983 2.067797,0 0,2.067797 -2.067797,0 z m 0,0"
           style="fill:#f8f8f8;fill-opacity:1;fill-rule:evenodd;stroke:none" />
        <path
           inkscape:connector-curvature="0"
           id="path4194"
           d="m 28.067797,14.40678 2.067796,0 0,2.067796 -2.067796,0 z m 0,0"
           style="fill:#f8f8f8;fill-opacity:1;fill-rule:evenodd;stroke:none" />
        <path
           inkscape:connector-curvature="0"
           id="path4196"
           d="m 26,16.474576 2.067797,0 0,2.067797 -2.067797,0 z m 0,0"
           style="fill:#f8f8f8;fill-opacity:1;fill-rule:evenodd;stroke:none" />
        <path
           style="fill:#f8f8f8;fill-opacity:1;fill-rule:evenodd;stroke:none"
           d="m 28.067797,18.576271 2.067796,0 0,2.067797 -2.067796,0 z m 0,0"
           id="path4198"
           inkscape:connector-curvature="0" />
        <path
           style="fill:#f8f8f8;fill-opacity:1;fill-rule:evenodd;stroke:none"
           d="m 26,20.644068 2.067797,0 0,2.067797 -2.067797,0 z m 0,0"
           id="path4200"
           inkscape:connector-curvature="0" />
        <path
           style="fill:#f8f8f8;fill-opacity:1;fill-rule:evenodd;stroke:none"
           d="m 28.067797,22.711865 2.067796,0 0,2.067796 -2.067796,0 z m 0,0"
           id="path4202"
           inkscape:connector-curvature="0" />
        <path
           style="fill:#f8f8f8;fill-opacity:1;fill-rule:evenodd;stroke:none"
           d="m 26,24.779661 2.067797,0 0,2.067797 -2.067797,0 z m 0,0"
           id="path4204"
           inkscape:connector-curvature="0" />
        <path
           inkscape:connector-curvature="0"
           id="path4206"
           d="m 28.067797,26.847457 2.067796,0 0,2.067797 -2.067796,0 z m 0,0"
           style="fill:#f8f8f8;fill-opacity:1;fill-rule:evenodd;stroke:none" />
        <path
           inkscape:connector-curvature="0"
           id="path4208"
           d="m 26,28.915254 2.067797,0 0,2.067797 -2.067797,0 z m 0,0"
           style="fill:#f8f8f8;fill-opacity:1;fill-rule:evenodd;stroke:none" />
        <path
           inkscape:connector-curvature="0"
           id="path4210"
           d="m 28.067797,30.983051 2.067796,0 0,2.067796 -2.067796,0 z m 0,0"
           style="fill:#f8f8f8;fill-opacity:1;fill-rule:evenodd;stroke:none" />
        <path
           inkscape:connector-curvature="0"
           id="path4212"
           d="m 26,33.050847 2.067797,0 0,2.067797 -2.067797,0 z m 0,0"
           style="fill:#f8f8f8;fill-opacity:1;fill-rule:evenodd;stroke:none" />
      </g>
    </g>
  </g>
</svg>
