<?xml version="1.0" encoding="UTF-8" standalone="no"?>
<svg
   xmlns:dc="http://purl.org/dc/elements/1.1/"
   xmlns:cc="http://creativecommons.org/ns#"
   xmlns:rdf="http://www.w3.org/1999/02/22-rdf-syntax-ns#"
   xmlns:svg="http://www.w3.org/2000/svg"
   xmlns="http://www.w3.org/2000/svg"
   xmlns:sodipodi="http://sodipodi.sourceforge.net/DTD/sodipodi-0.dtd"
   xmlns:inkscape="http://www.inkscape.org/namespaces/inkscape"
   width="64px"
   height="64px"
   viewBox="0 0 64 64"
   version="1.1"
   id="svg2"
   inkscape:version="0.91 r13725"
   sodipodi:docname="application-x-theme.svg">
  <metadata
     id="metadata17">
    <rdf:RDF>
      <cc:Work
         rdf:about="">
        <dc:format>image/svg+xml</dc:format>
        <dc:type
           rdf:resource="http://purl.org/dc/dcmitype/StillImage" />
      </cc:Work>
    </rdf:RDF>
  </metadata>
  <defs
     id="defs15">
    <filter
       inkscape:collect="always"
       style="color-interpolation-filters:sRGB"
       id="filter4185"
       x="-0.096041702"
       width="1.1920834"
       y="-0.09595833"
       height="1.1919167">
      <feGaussianBlur
         inkscape:collect="always"
         stdDeviation="0.7196875"
         id="feGaussianBlur4187" />
    </filter>
    <filter
       inkscape:collect="always"
       style="color-interpolation-filters:sRGB"
       id="filter4182"
       x="-0.087592266"
       width="1.1751845"
       y="-0.10619318"
       height="1.2123864">
      <feGaussianBlur
         inkscape:collect="always"
         stdDeviation="0.97343752"
         id="feGaussianBlur4184" />
    </filter>
  </defs>
  <sodipodi:namedview
     pagecolor="#ffffff"
     bordercolor="#666666"
     borderopacity="1"
     objecttolerance="10"
     gridtolerance="10"
     guidetolerance="10"
     inkscape:pageopacity="0"
     inkscape:pageshadow="2"
     inkscape:window-width="1301"
     inkscape:window-height="744"
     id="namedview13"
     showgrid="true"
     inkscape:snap-bbox="true"
     inkscape:bbox-paths="true"
     inkscape:bbox-nodes="true"
     inkscape:snap-bbox-edge-midpoints="true"
     inkscape:snap-bbox-midpoints="true"
     inkscape:object-paths="true"
     inkscape:snap-intersection-paths="true"
     inkscape:object-nodes="true"
     inkscape:zoom="5.2149125"
     inkscape:cx="48.416792"
     inkscape:cy="29.710478"
     inkscape:window-x="65"
     inkscape:window-y="24"
     inkscape:window-maximized="1"
     inkscape:current-layer="svg2">
    <inkscape:grid
       type="xygrid"
       id="grid4164" />
  </sodipodi:namedview>
  <path
     inkscape:connector-curvature="0"
     id="path5"
     d="M 10.671875,0 C 9.296875,0 8,1.355469 8,2.789062 L 8,61.210938 C 8,62.566406 9.375,64 10.671875,64 l 42.65625,0 C 54.625,64 56,62.566406 56,61.210938 L 56,18 38,0 Z m 0,0"
     style="fill:#dc302e;fill-opacity:1;fill-rule:nonzero;stroke:none" />
  <path
     style="opacity:0.35;fill:#000000;fill-opacity:1;fill-rule:nonzero;stroke:none;filter:url(#filter4185)"
     d="m 37.72725,1.2727492 0,15.2265618 c 0,1.347657 1.410156,2.773438 2.757812,2.773438 l 15.226563,0 -1,-1 -13.984375,0 c -1.108,0 -2,-0.892 -2,-2 l 0,-13.9999998 -1,-1 z"
     id="path4183"
     inkscape:connector-curvature="0" />
  <path
     inkscape:connector-curvature="0"
     id="path9"
     d="M 38,0 55.984375,18 40.757812,18 C 39.410156,18 38,16.574219 38,15.226562 Z m 0,0"
     style="fill:#ffffff;fill-opacity:0.39215698;fill-rule:nonzero;stroke:none" />
  <path
     style="fill:#000000;fill-opacity:1;fill-rule:nonzero;stroke:none;filter:url(#filter4182);opacity:0.35"
     d="M 24,48 24,33.25 21.140625,35.632812 18.664062,30.742188 24.519531,26 28,26 c 2.273438,1.421875 6.0625,1.203125 8,0 l 3.335938,0 6,4.523438 -2.46875,4.882812 L 40,32.882812 40,48 Z m 0,0"
     id="path4172"
     inkscape:connector-curvature="0" />
  <path
     inkscape:connector-curvature="0"
     id="path11"
     d="M 24,48 24,33.25 21.140625,35.632812 18.664062,30.742188 24.519531,26 28,26 c 2.273438,1.421875 6.0625,1.203125 8,0 l 3.335938,0 6,4.523438 -2.46875,4.882812 L 40,32.882812 40,48 Z m 0,0"
     style="fill:#ffffff;fill-opacity:1;fill-rule:nonzero;stroke:none" />
  <path
     style="opacity:0.5;fill:#ffffff;fill-opacity:1;fill-rule:nonzero;stroke:none"
     d="M 10.671875,0 C 9.2968754,0 8.0000004,1.3554695 8.0000004,2.7890625 l 0,1 C 8.0000004,2.3554695 9.2968754,1 10.671875,1 L 38,1 38,0 10.671875,0 Z"
     id="path4160"
     inkscape:connector-curvature="0" />
  <path
     style="opacity:0.15;fill:#000000;fill-opacity:1;fill-rule:nonzero;stroke:none"
     d="m 8.0000004,60.210938 0,1 c 0,1.355468 1.375,2.789062 2.6718746,2.789062 L 53.32812,64 C 54.62499,64 56,62.566406 56,61.210938 l 0,-1 C 56,61.566406 54.62499,63 53.32812,63 L 10.671875,63 C 9.3750004,63 8.0000004,61.566406 8.0000004,60.210938 Z"
     id="path4178"
     inkscape:connector-curvature="0" />
</svg>
