<?xml version="1.0" encoding="UTF-8" standalone="no"?>
<svg
   xmlns:dc="http://purl.org/dc/elements/1.1/"
   xmlns:cc="http://creativecommons.org/ns#"
   xmlns:rdf="http://www.w3.org/1999/02/22-rdf-syntax-ns#"
   xmlns:svg="http://www.w3.org/2000/svg"
   xmlns="http://www.w3.org/2000/svg"
   xmlns:sodipodi="http://sodipodi.sourceforge.net/DTD/sodipodi-0.dtd"
   xmlns:inkscape="http://www.inkscape.org/namespaces/inkscape"
   width="64px"
   height="64px"
   viewBox="0 0 64 64"
   version="1.1"
   id="svg2"
   inkscape:version="0.91 r13725"
   sodipodi:docname="application-vnd.oasis.opendocument.formula.svg">
  <metadata
     id="metadata25">
    <rdf:RDF>
      <cc:Work
         rdf:about="">
        <dc:format>image/svg+xml</dc:format>
        <dc:type
           rdf:resource="http://purl.org/dc/dcmitype/StillImage" />
      </cc:Work>
    </rdf:RDF>
  </metadata>
  <defs
     id="defs23">
    <filter
       inkscape:collect="always"
       style="color-interpolation-filters:sRGB"
       id="filter4185-75"
       x="-0.096041702"
       width="1.1920834"
       y="-0.09595833"
       height="1.1919167">
      <feGaussianBlur
         inkscape:collect="always"
         stdDeviation="0.7196875"
         id="feGaussianBlur4187-85" />
    </filter>
    <filter
       inkscape:collect="always"
       style="color-interpolation-filters:sRGB"
       id="filter4206"
       x="-0.11261998"
       width="1.22524"
       y="-0.083654605"
       height="1.1673092">
      <feGaussianBlur
         inkscape:collect="always"
         stdDeviation="1.3245312"
         id="feGaussianBlur4208" />
    </filter>
  </defs>
  <sodipodi:namedview
     pagecolor="#ffffff"
     bordercolor="#666666"
     borderopacity="1"
     objecttolerance="10"
     gridtolerance="10"
     guidetolerance="10"
     inkscape:pageopacity="0"
     inkscape:pageshadow="2"
     inkscape:window-width="1301"
     inkscape:window-height="744"
     id="namedview21"
     showgrid="false"
     inkscape:zoom="3.6875"
     inkscape:cx="32"
     inkscape:cy="32"
     inkscape:window-x="65"
     inkscape:window-y="24"
     inkscape:window-maximized="1"
     inkscape:current-layer="svg2" />
  <g
     id="g3355">
    <g
       transform="translate(-332.69401,-253.98082)"
       id="g3904">
      <g
         id="g3906">
        <g
           id="g3908"
           transform="translate(332,253.98082)">
          <path
             inkscape:connector-curvature="0"
             id="path3910"
             d="M 10.671875,0 C 9.296875,0 8,1.355469 8,2.789062 L 8,61.210938 C 8,62.566406 9.375,64 10.671875,64 l 42.65625,0 C 54.625,64 56,62.566406 56,61.210938 L 56,18 38,0 Z m 0,0"
             style="fill:#78598a;fill-opacity:1;fill-rule:nonzero;stroke:none" />
          <path
             transform="matrix(1,0,0,0.96709914,0,0.63408999)"
             style="opacity:0.35;fill:#000000;fill-opacity:1;fill-rule:nonzero;stroke:none;filter:url(#filter4185-75)"
             d="m 37.72725,1.2727492 0,15.2265618 c 0,1.347657 1.410156,2.773438 2.757812,2.773438 l 15.226563,0 -1,-1 -13.984375,0 c -1.108,0 -2,-0.892 -2,-2 l 0,-13.9999998 -1,-1 z"
             id="path3912"
             inkscape:connector-curvature="0" />
          <path
             inkscape:connector-curvature="0"
             id="path3914"
             d="M 38,0 55.984375,18 40.757812,18 C 39.410156,18 38,16.574219 38,15.226562 Z m 0,0"
             style="fill:#ad9ab8;fill-opacity:1;fill-rule:nonzero;stroke:none" />
          <path
             style="opacity:0.5;fill:#ffffff;fill-opacity:1;fill-rule:nonzero;stroke:none"
             d="M 10.671875,2.0000001e-8 C 9.2968752,2.0000001e-8 8.0000002,1.3554695 8.0000002,2.7890625 l 0,1 C 8.0000002,2.3554695 9.2968752,1 10.671875,1 L 38,1 38,2e-8 l -27.328125,0 z"
             id="path3916"
             inkscape:connector-curvature="0" />
          <path
             style="opacity:0.15;fill:#000000;fill-opacity:1;fill-rule:nonzero;stroke:none"
             d="m 8.0000002,60.210938 0,1 c 0,1.355468 1.375,2.789062 2.6718748,2.789062 L 53.32812,64 C 54.62499,64 56,62.566406 56,61.210938 l 0,-1 C 56,61.566406 54.62499,63 53.32812,63 L 10.671875,63 C 9.3750002,63 8.0000002,61.566406 8.0000002,60.210938 Z"
             id="path3918"
             inkscape:connector-curvature="0" />
        </g>
        <path
           inkscape:connector-curvature="0"
           id="path3920"
           d="m 339.94915,301.94915 0,13.33594 c 0,1.29687 1.375,2.66406 2.66406,2.66406 l 42.67188,0 c 1.28906,0 2.66406,-1.36719 2.66406,-2.66406 l 0,-13.33594 z m 0,0"
           style="fill:#000000;fill-opacity:0.19607801;fill-rule:nonzero;stroke:none" />
      </g>
    </g>
    <g
       transform="translate(0.113281,0)"
       style="opacity:0.35;fill:#000000;filter:url(#filter4206)"
       id="g4196">
      <path
         inkscape:connector-curvature="0"
         style="fill:#000000;fill-opacity:1;fill-rule:nonzero;stroke:none"
         d="m 20.269531,56.351562 c 0,0.53125 0.01563,1.027344 0.05859,1.488282 0.05859,0.457031 0.148437,0.851562 0.28125,1.191406 0.148437,0.339844 0.347656,0.605469 0.59375,0.800781 0.257813,0.199219 0.597656,0.300781 1.019531,0.300781 0.414063,0 0.742188,-0.101562 1,-0.300781 0.265625,-0.195312 0.460938,-0.460937 0.59375,-0.800781 0.148438,-0.355469 0.242188,-0.75 0.28125,-1.207031 0.05078,-0.453125 0.08203,-0.941407 0.08203,-1.472657 0,-0.519531 -0.03125,-1.007812 -0.08203,-1.460937 -0.03906,-0.472656 -0.132812,-0.867187 -0.28125,-1.207031 -0.132812,-0.339844 -0.320312,-0.605469 -0.578125,-0.804688 -0.246093,-0.195312 -0.585937,-0.296875 -1.015625,-0.296875 -0.421875,0 -0.761718,0.101563 -1.019531,0.296875 -0.246094,0.199219 -0.445313,0.472656 -0.59375,0.820313 -0.132813,0.339843 -0.222656,0.734375 -0.28125,1.191406 -0.04297,0.453125 -0.05859,0.941406 -0.05859,1.460937 m -2.496093,0 c 0,-1.859374 0.398437,-3.265624 1.183593,-4.207031 0.785157,-0.957031 1.867188,-1.429687 3.265625,-1.429687 1.453125,0 2.554688,0.472656 3.3125,1.429687 0.753906,0.941407 1.132813,2.347657 1.132813,4.207031 0,1.871094 -0.378907,3.277344 -1.15625,4.234376 C 24.742188,61.527344 23.652344,62 22.246094,62 c -1.453125,0 -2.5625,-0.472656 -3.332032,-1.414062 -0.761718,-0.957032 -1.140624,-2.363282 -1.140624,-4.234376"
         id="path4198" />
      <path
         inkscape:connector-curvature="0"
         style="fill:#000000;fill-opacity:1;fill-rule:nonzero;stroke:none"
         d="m 30.738281,60.023438 c 0.06641,0.01562 0.140625,0.01562 0.222657,0.01562 0.07422,0 0.148437,0 0.214843,0 0.5625,0 1.023438,-0.08984 1.398438,-0.28125 0.386719,-0.179687 0.691406,-0.4375 0.917969,-0.765624 0.238281,-0.324219 0.402343,-0.710938 0.496093,-1.152344 0.105469,-0.453125 0.164063,-0.949219 0.164063,-1.488282 0,-0.460937 -0.04297,-0.917968 -0.125,-1.363281 -0.07422,-0.4375 -0.214844,-0.828125 -0.414063,-1.164062 -0.195312,-0.339844 -0.46875,-0.605469 -0.816406,-0.804688 -0.347656,-0.214843 -0.792969,-0.3125 -1.339844,-0.3125 -0.109375,0 -0.222656,0 -0.355469,0.01563 -0.132812,0 -0.257812,0.0078 -0.363281,0.03516 l 0,7.265626 m 5.902344,-3.671876 c 0,1.003907 -0.140625,1.863282 -0.4375,2.574219 -0.28125,0.703125 -0.671875,1.273438 -1.175781,1.710938 -0.503906,0.445312 -1.105469,0.769531 -1.816406,0.976562 -0.6875,0.195313 -1.457032,0.296875 -2.292969,0.296875 -0.4375,0 -0.867188,-0.01953 -1.296875,-0.06641 -0.414063,-0.03516 -0.859375,-0.101562 -1.332032,-0.191406 l 0,-10.558594 c 0.554688,-0.105469 1.085938,-0.171875 1.570313,-0.207031 0.496094,-0.03125 0.953125,-0.05469 1.382813,-0.05469 0.808593,0 1.546874,0.105469 2.207031,0.3125 0.679687,0.214844 1.257812,0.546875 1.71875,1 0.464843,0.4375 0.828125,1.015625 1.074219,1.710938 0.265624,0.6875 0.398437,1.523437 0.398437,2.496093"
         id="path4200" />
      <path
         inkscape:connector-curvature="0"
         style="fill:#000000;fill-opacity:1;fill-rule:nonzero;stroke:none"
         d="m 38.433594,61.769531 0,-10.816406 7.566406,0 0,1.785156 -5.109375,0 0,2.621094 4.464844,0 0,1.777344 -4.464844,0 0,4.632812 -2.457031,0"
         id="path4202" />
      <path
         inkscape:connector-curvature="0"
         style="fill:#000000;fill-opacity:1;fill-rule:nonzero;stroke:none"
         d="m 24,24 0,12 -4,0 4,8 2,0 0,-18 c 5.90625,0 12.296875,0 18,0 l 0,-2 z m 7.238281,3.761719 -2.828125,2.953125 4.957032,5.164062 -4.957032,5.167969 L 31.238281,44 36.195312,38.832031 41.152344,44 l 2.832031,-2.953125 -4.957031,-5.167969 4.957031,-5.164062 -2.832031,-2.953125 -4.957032,5.164062 z m 0,0"
         id="path4204" />
    </g>
    <g
       id="surface1">
      <path
         id="path13"
         d="M 20.269531 56.351562 C 20.269531 56.882812 20.285156 57.378906 20.328125 57.839844 C 20.386719 58.296875 20.476562 58.691406 20.609375 59.03125 C 20.757812 59.371094 20.957031 59.636719 21.203125 59.832031 C 21.460938 60.03125 21.800781 60.132812 22.222656 60.132812 C 22.636719 60.132812 22.964844 60.03125 23.222656 59.832031 C 23.488281 59.636719 23.683594 59.371094 23.816406 59.03125 C 23.964844 58.675781 24.058594 58.28125 24.097656 57.824219 C 24.148438 57.371094 24.179688 56.882812 24.179688 56.351562 C 24.179688 55.832031 24.148438 55.34375 24.097656 54.890625 C 24.058594 54.417969 23.964844 54.023438 23.816406 53.683594 C 23.683594 53.34375 23.496094 53.078125 23.238281 52.878906 C 22.992188 52.683594 22.652344 52.582031 22.222656 52.582031 C 21.800781 52.582031 21.460938 52.683594 21.203125 52.878906 C 20.957031 53.078125 20.757812 53.351562 20.609375 53.699219 C 20.476562 54.039062 20.386719 54.433594 20.328125 54.890625 C 20.285156 55.34375 20.269531 55.832031 20.269531 56.351562 M 17.773438 56.351562 C 17.773438 54.492188 18.171875 53.085938 18.957031 52.144531 C 19.742188 51.1875 20.824219 50.714844 22.222656 50.714844 C 23.675781 50.714844 24.777344 51.1875 25.535156 52.144531 C 26.289062 53.085938 26.667969 54.492188 26.667969 56.351562 C 26.667969 58.222656 26.289062 59.628906 25.511719 60.585938 C 24.742188 61.527344 23.652344 62 22.246094 62 C 20.792969 62 19.683594 61.527344 18.914062 60.585938 C 18.152344 59.628906 17.773438 58.222656 17.773438 56.351562 "
         style=" stroke:none;fill-rule:nonzero;fill:rgb(100%,100%,100%);fill-opacity:1;" />
      <path
         id="path15"
         d="M 30.738281 60.023438 C 30.804688 60.039062 30.878906 60.039062 30.960938 60.039062 C 31.035156 60.039062 31.109375 60.039062 31.175781 60.039062 C 31.738281 60.039062 32.199219 59.949219 32.574219 59.757812 C 32.960938 59.578125 33.265625 59.320312 33.492188 58.992188 C 33.730469 58.667969 33.894531 58.28125 33.988281 57.839844 C 34.09375 57.386719 34.152344 56.890625 34.152344 56.351562 C 34.152344 55.890625 34.109375 55.433594 34.027344 54.988281 C 33.953125 54.550781 33.8125 54.160156 33.613281 53.824219 C 33.417969 53.484375 33.144531 53.21875 32.796875 53.019531 C 32.449219 52.804688 32.003906 52.707031 31.457031 52.707031 C 31.347656 52.707031 31.234375 52.707031 31.101562 52.722656 C 30.96875 52.722656 30.84375 52.730469 30.738281 52.757812 L 30.738281 60.023438 M 36.640625 56.351562 C 36.640625 57.355469 36.5 58.214844 36.203125 58.925781 C 35.921875 59.628906 35.53125 60.199219 35.027344 60.636719 C 34.523438 61.082031 33.921875 61.40625 33.210938 61.613281 C 32.523438 61.808594 31.753906 61.910156 30.917969 61.910156 C 30.480469 61.910156 30.050781 61.890625 29.621094 61.84375 C 29.207031 61.808594 28.761719 61.742188 28.289062 61.652344 L 28.289062 51.09375 C 28.84375 50.988281 29.375 50.921875 29.859375 50.886719 C 30.355469 50.855469 30.8125 50.832031 31.242188 50.832031 C 32.050781 50.832031 32.789062 50.9375 33.449219 51.144531 C 34.128906 51.359375 34.707031 51.691406 35.167969 52.144531 C 35.632812 52.582031 35.996094 53.160156 36.242188 53.855469 C 36.507812 54.542969 36.640625 55.378906 36.640625 56.351562 "
         style=" stroke:none;fill-rule:nonzero;fill:rgb(100%,100%,100%);fill-opacity:1;" />
      <path
         id="path17"
         d="M 38.433594 61.769531 L 38.433594 50.953125 L 46 50.953125 L 46 52.738281 L 40.890625 52.738281 L 40.890625 55.359375 L 45.355469 55.359375 L 45.355469 57.136719 L 40.890625 57.136719 L 40.890625 61.769531 L 38.433594 61.769531 "
         style=" stroke:none;fill-rule:nonzero;fill:rgb(100%,100%,100%);fill-opacity:1;" />
      <path
         id="path19"
         d="M 24 24 L 24 36 L 20 36 L 24 44 L 26 44 L 26 26 C 31.90625 26 38.296875 26 44 26 L 44 24 Z M 31.238281 27.761719 L 28.410156 30.714844 L 33.367188 35.878906 L 28.410156 41.046875 L 31.238281 44 L 36.195312 38.832031 L 41.152344 44 L 43.984375 41.046875 L 39.027344 35.878906 L 43.984375 30.714844 L 41.152344 27.761719 L 36.195312 32.925781 Z M 31.238281 27.761719 "
         style=" stroke:none;fill-rule:nonzero;fill:rgb(100%,100%,100%);fill-opacity:1;" />
    </g>
  </g>
</svg>
