<?xml version="1.0" encoding="UTF-8" standalone="no"?>
<svg
   xmlns:dc="http://purl.org/dc/elements/1.1/"
   xmlns:cc="http://creativecommons.org/ns#"
   xmlns:rdf="http://www.w3.org/1999/02/22-rdf-syntax-ns#"
   xmlns:svg="http://www.w3.org/2000/svg"
   xmlns="http://www.w3.org/2000/svg"
   xmlns:sodipodi="http://sodipodi.sourceforge.net/DTD/sodipodi-0.dtd"
   xmlns:inkscape="http://www.inkscape.org/namespaces/inkscape"
   width="64px"
   height="64px"
   viewBox="0 0 64 64"
   version="1.1"
   id="svg2"
   inkscape:version="0.91 r13725"
   sodipodi:docname="application-vnd.oasis.opendocument.text-web-template.svg">
  <metadata
     id="metadata33">
    <rdf:RDF>
      <cc:Work
         rdf:about="">
        <dc:format>image/svg+xml</dc:format>
        <dc:type
           rdf:resource="http://purl.org/dc/dcmitype/StillImage" />
      </cc:Work>
    </rdf:RDF>
  </metadata>
  <defs
     id="defs31">
    <filter
       inkscape:collect="always"
       style="color-interpolation-filters:sRGB"
       id="filter4197"
       x="-0.37862909"
       width="1.7572582"
       y="-0.29576323"
       height="1.5915265">
      <feGaussianBlur
         inkscape:collect="always"
         stdDeviation="1.3989062"
         id="feGaussianBlur4199" />
    </filter>
    <filter
       inkscape:collect="always"
       style="color-interpolation-filters:sRGB"
       id="filter4201"
       x="-0.37565034"
       width="1.7513007"
       y="-0.30861329"
       height="1.6172266">
      <feGaussianBlur
         inkscape:collect="always"
         stdDeviation="1.3989062"
         id="feGaussianBlur4203" />
    </filter>
    <filter
       inkscape:collect="always"
       style="color-interpolation-filters:sRGB"
       id="filter4205"
       x="-0.41202686"
       width="1.8240537"
       y="-0.30861329"
       height="1.6172266">
      <feGaussianBlur
         inkscape:collect="always"
         stdDeviation="1.3989062"
         id="feGaussianBlur4207" />
    </filter>
    <filter
       inkscape:collect="always"
       style="color-interpolation-filters:sRGB"
       id="filter4209"
       x="-0.15116253"
       width="1.3023251"
       y="-0.15115476"
       height="1.3023095">
      <feGaussianBlur
         inkscape:collect="always"
         stdDeviation="1.1465674"
         id="feGaussianBlur4211" />
    </filter>
    <filter
       inkscape:collect="always"
       style="color-interpolation-filters:sRGB"
       id="filter4213"
       x="-0.16786875"
       width="1.3357375"
       y="-1.6786875"
       height="4.3573749">
      <feGaussianBlur
         inkscape:collect="always"
         stdDeviation="1.3989062"
         id="feGaussianBlur4215" />
    </filter>
    <filter
       inkscape:collect="always"
       style="color-interpolation-filters:sRGB"
       id="filter4217"
       x="-0.15115864"
       width="1.3023173"
       y="-1.5078733"
       height="4.0157466">
      <feGaussianBlur
         inkscape:collect="always"
         stdDeviation="1.3989062"
         id="feGaussianBlur4219" />
    </filter>
    <filter
       inkscape:collect="always"
       style="color-interpolation-filters:sRGB"
       id="filter4221"
       x="-0.16786875"
       width="1.3357375"
       y="-1.6786875"
       height="4.3573749">
      <feGaussianBlur
         inkscape:collect="always"
         stdDeviation="1.3989062"
         id="feGaussianBlur4223" />
    </filter>
    <filter
       inkscape:collect="always"
       style="color-interpolation-filters:sRGB"
       id="filter4225"
       x="-1.9227916"
       width="4.8455833"
       y="-0.15115864"
       height="1.3023173">
      <feGaussianBlur
         inkscape:collect="always"
         stdDeviation="1.3989062"
         id="feGaussianBlur4227" />
    </filter>
    <filter
       inkscape:collect="always"
       style="color-interpolation-filters:sRGB"
       id="filter4229"
       x="-2.0176295"
       width="5.0352589"
       y="-0.1678645"
       height="1.335729">
      <feGaussianBlur
         inkscape:collect="always"
         stdDeviation="1.2594062"
         id="feGaussianBlur4231" />
    </filter>
    <filter
       inkscape:collect="always"
       style="color-interpolation-filters:sRGB"
       id="filter4233"
       x="-2.0105503"
       width="5.0211006"
       y="-0.1678645"
       height="1.335729">
      <feGaussianBlur
         inkscape:collect="always"
         stdDeviation="1.2594062"
         id="feGaussianBlur4235" />
    </filter>
  </defs>
  <sodipodi:namedview
     pagecolor="#ffffff"
     bordercolor="#666666"
     borderopacity="1"
     objecttolerance="10"
     gridtolerance="10"
     guidetolerance="10"
     inkscape:pageopacity="0"
     inkscape:pageshadow="2"
     inkscape:window-width="1301"
     inkscape:window-height="744"
     id="namedview29"
     showgrid="false"
     inkscape:zoom="7.375"
     inkscape:cx="12.552698"
     inkscape:cy="27.850534"
     inkscape:window-x="65"
     inkscape:window-y="24"
     inkscape:window-maximized="1"
     inkscape:current-layer="svg2" />
  <g
     id="g3380">
    <g
       id="surface1">
      <path
         id="path5"
         d="M 10.6875 0 C 9.3125 0 8 1.378906 8 2.8125 L 8 61.1875 C 8 62.539062 9.390625 64 10.6875 64 L 53.3125 64 C 54.609375 64 56 62.539062 56 61.1875 L 56 2.75 C 56 1.402344 54.597656 0 53.25 0 Z M 10.6875 0 "
         style=" stroke:none;fill-rule:nonzero;fill:rgb(43.921569%,60%,76.470588%);fill-opacity:1;" />
      <g
         style="opacity:0.35"
         id="g4241">
        <path
           style="fill:none;stroke-width:1.821;stroke-linecap:round;stroke-linejoin:miter;stroke:#000000;stroke-opacity:1;stroke-miterlimit:4;filter:url(#filter4209)"
           d="M 33.054316 27.317611 C 33.054316 32.344297 28.978747 36.420075 23.952319 36.420075 C 18.925891 36.420075 14.850322 32.344297 14.850322 27.317611 C 14.850322 22.290924 18.925891 18.215146 23.952319 18.215146 C 28.978747 18.215146 33.054316 22.290924 33.054316 27.317611 Z M 33.054316 27.317611 "
           transform="matrix(1.220113,0,0,1.220051,2.990299,-1.543714)"
           id="path4171" />
        <path
           style="stroke:none;fill-rule:nonzero;fill:#000000;fill-opacity:1;filter:url(#filter4197)"
           d="M 20.011719 56.554688 C 20.011719 57.085938 20.035156 57.585938 20.070312 58.050781 C 20.128906 58.507812 20.21875 58.90625 20.351562 59.246094 C 20.492188 59.589844 20.691406 59.855469 20.941406 60.054688 C 21.199219 60.253906 21.53125 60.351562 21.957031 60.351562 C 22.371094 60.351562 22.707031 60.253906 22.953125 60.054688 C 23.222656 59.855469 23.421875 59.589844 23.554688 59.246094 C 23.695312 58.890625 23.785156 58.492188 23.828125 58.035156 C 23.878906 57.574219 23.910156 57.085938 23.910156 56.554688 C 23.910156 56.027344 23.878906 55.539062 23.828125 55.082031 C 23.785156 54.605469 23.695312 54.207031 23.554688 53.867188 C 23.421875 53.527344 23.230469 53.261719 22.972656 53.058594 C 22.722656 52.859375 22.382812 52.761719 21.957031 52.761719 C 21.53125 52.761719 21.199219 52.859375 20.941406 53.058594 C 20.691406 53.261719 20.492188 53.535156 20.351562 53.882812 C 20.21875 54.222656 20.128906 54.625 20.070312 55.082031 C 20.035156 55.539062 20.011719 56.027344 20.011719 56.554688 M 17.523438 56.554688 C 17.523438 54.683594 17.914062 53.269531 18.695312 52.320312 C 19.480469 51.355469 20.566406 50.882812 21.957031 50.882812 C 23.402344 50.882812 24.5 51.355469 25.257812 52.320312 C 26.015625 53.269531 26.390625 54.683594 26.390625 56.554688 C 26.390625 58.433594 26.007812 59.847656 25.242188 60.8125 C 24.46875 61.757812 23.386719 62.234375 21.980469 62.234375 C 20.535156 62.234375 19.429688 61.757812 18.664062 60.8125 C 17.90625 59.847656 17.523438 58.433594 17.523438 56.554688 "
           id="path4173" />
        <path
           style="stroke:none;fill-rule:nonzero;fill:#000000;fill-opacity:1;filter:url(#filter4201)"
           d="M 36.367188 51.121094 L 36.367188 52.917969 L 33.132812 52.917969 L 33.132812 62 L 30.664062 62 L 30.664062 52.917969 L 27.429688 52.917969 L 27.429688 51.121094 L 36.367188 51.121094 "
           id="path4175" />
        <path
           style="stroke:none;fill-rule:nonzero;fill:#000000;fill-opacity:1;filter:url(#filter4205)"
           d="M 45.914062 51.121094 L 45.914062 62 L 43.46875 62 L 43.46875 57.210938 L 40.210938 57.210938 L 40.210938 62 L 37.765625 62 L 37.765625 51.121094 L 40.210938 51.121094 L 40.210938 55.414062 L 43.46875 55.414062 L 43.46875 51.121094 L 45.914062 51.121094 "
           id="path4177" />
        <path
           id="path4185"
           d="M 22 26 L 22 28 L 42 28 L 42 26 Z M 22 26 "
           style="stroke:#000000;fill-rule:nonzero;fill:rgb(100%, 100%, 100%);fill-opacity:1;stroke-opacity:1;filter:url(#filter4213)" />
        <path
           id="path4187"
           d="M 21.109375 30.671875 L 21.109375 32.898438 L 43.320312 32.898438 L 43.320312 30.671875 Z M 21.109375 30.671875 "
           style="stroke:#000000;fill-rule:nonzero;fill:rgb(100%, 100%, 100%);fill-opacity:1;stroke-opacity:1;filter:url(#filter4217)" />
        <path
           id="path4189"
           d="M 22 36 L 22 38 L 42 38 L 42 36 Z M 22 36 "
           style="stroke:#000000;fill-rule:nonzero;fill:rgb(100%, 100%, 100%);fill-opacity:1;stroke-opacity:1;filter:url(#filter4221)" />
        <path
           id="path4191"
           d="M 31.34375 20.679688 L 31.34375 42.890625 L 33.089844 42.890625 L 33.089844 20.679688 Z M 31.34375 20.679688 "
           style="stroke:#000000;fill-rule:nonzero;fill:rgb(100%, 100%, 100%);fill-opacity:1;stroke-opacity:1;filter:url(#filter4225)" />
        <path
           id="path4193"
           transform="matrix(1.110795,0,0,1.110738,5.55697,5.126947)"
           d="M 20.440082 33.00346 C 18.442639 27.000275 18.442639 21.000605 20.440082 14.99742 "
           style="fill:none;stroke-width:2;stroke-linecap:butt;stroke-linejoin:miter;stroke:#000000;stroke-opacity:1;stroke-miterlimit:4;filter:url(#filter4229)" />
        <path
           id="path4195"
           transform="matrix(1.110795,0,0,1.110738,5.55697,5.126947)"
           d="M 27.466297 33.00346 C 29.470773 28.002564 29.470773 21.000605 27.466297 14.99742 "
           style="fill:none;stroke-width:2;stroke-linecap:butt;stroke-linejoin:miter;stroke:#000000;stroke-opacity:1;stroke-miterlimit:4;filter:url(#filter4233)" />
      </g>
      <path
         id="path7"
         d="M 22 26 L 22 28 L 42 28 L 42 26 Z M 22 26 "
         style=" stroke:none;fill-rule:nonzero;fill:rgb(100%,100%,100%);fill-opacity:1;" />
      <path
         id="path9"
         d="M 21.109375 30.671875 L 21.109375 32.898438 L 43.320312 32.898438 L 43.320312 30.671875 Z M 21.109375 30.671875 "
         style=" stroke:none;fill-rule:nonzero;fill:rgb(100%,100%,100%);fill-opacity:1;" />
      <path
         id="path11"
         d="M 22 36 L 22 38 L 42 38 L 42 36 Z M 22 36 "
         style=" stroke:none;fill-rule:nonzero;fill:rgb(100%,100%,100%);fill-opacity:1;" />
      <path
         id="path13"
         d="M 31.34375 20.679688 L 31.34375 42.890625 L 33.089844 42.890625 L 33.089844 20.679688 Z M 31.34375 20.679688 "
         style=" stroke:none;fill-rule:nonzero;fill:rgb(100%,100%,100%);fill-opacity:1;" />
      <path
         id="path15"
         transform="matrix(1.110795,0,0,1.110738,5.55697,5.126947)"
         d="M 20.440082 33.00346 C 18.442639 27.000275 18.442639 21.000605 20.440082 14.99742 "
         style="fill:none;stroke-width:2;stroke-linecap:butt;stroke-linejoin:miter;stroke:rgb(100%,100%,100%);stroke-opacity:1;stroke-miterlimit:4;" />
      <path
         id="path17"
         transform="matrix(1.110795,0,0,1.110738,5.55697,5.126947)"
         d="M 27.466297 33.00346 C 29.470773 28.002564 29.470773 21.000605 27.466297 14.99742 "
         style="fill:none;stroke-width:2;stroke-linecap:butt;stroke-linejoin:miter;stroke:rgb(100%,100%,100%);stroke-opacity:1;stroke-miterlimit:4;" />
      <path
         id="path19"
         transform="matrix(1.220113,0,0,1.220051,2.990299,-1.543714)"
         d="M 33.054316 27.317611 C 33.054316 32.344297 28.978747 36.420075 23.952319 36.420075 C 18.925891 36.420075 14.850322 32.344297 14.850322 27.317611 C 14.850322 22.290924 18.925891 18.215146 23.952319 18.215146 C 28.978747 18.215146 33.054316 22.290924 33.054316 27.317611 Z M 33.054316 27.317611 "
         style="fill:none;stroke-width:1.821;stroke-linecap:round;stroke-linejoin:miter;stroke:rgb(100%,100%,100%);stroke-opacity:1;stroke-miterlimit:4;" />
      <path
         id="path21"
         d="M 8 48 L 8 61.335938 C 8 62.632812 9.375 64 10.664062 64 L 53.335938 64 C 54.625 64 56 62.632812 56 61.335938 L 56 48 Z M 8 48 "
         style=" stroke:none;fill-rule:nonzero;fill:rgb(0%,0%,0%);fill-opacity:0.196078;" />
      <path
         id="path23"
         d="M 20.011719 56.554688 C 20.011719 57.085938 20.035156 57.585938 20.070312 58.050781 C 20.128906 58.507812 20.21875 58.90625 20.351562 59.246094 C 20.492188 59.589844 20.691406 59.855469 20.941406 60.054688 C 21.199219 60.253906 21.53125 60.351562 21.957031 60.351562 C 22.371094 60.351562 22.707031 60.253906 22.953125 60.054688 C 23.222656 59.855469 23.421875 59.589844 23.554688 59.246094 C 23.695312 58.890625 23.785156 58.492188 23.828125 58.035156 C 23.878906 57.574219 23.910156 57.085938 23.910156 56.554688 C 23.910156 56.027344 23.878906 55.539062 23.828125 55.082031 C 23.785156 54.605469 23.695312 54.207031 23.554688 53.867188 C 23.421875 53.527344 23.230469 53.261719 22.972656 53.058594 C 22.722656 52.859375 22.382812 52.761719 21.957031 52.761719 C 21.53125 52.761719 21.199219 52.859375 20.941406 53.058594 C 20.691406 53.261719 20.492188 53.535156 20.351562 53.882812 C 20.21875 54.222656 20.128906 54.625 20.070312 55.082031 C 20.035156 55.539062 20.011719 56.027344 20.011719 56.554688 M 17.523438 56.554688 C 17.523438 54.683594 17.914062 53.269531 18.695312 52.320312 C 19.480469 51.355469 20.566406 50.882812 21.957031 50.882812 C 23.402344 50.882812 24.5 51.355469 25.257812 52.320312 C 26.015625 53.269531 26.390625 54.683594 26.390625 56.554688 C 26.390625 58.433594 26.007812 59.847656 25.242188 60.8125 C 24.46875 61.757812 23.386719 62.234375 21.980469 62.234375 C 20.535156 62.234375 19.429688 61.757812 18.664062 60.8125 C 17.90625 59.847656 17.523438 58.433594 17.523438 56.554688 "
         style=" stroke:none;fill-rule:nonzero;fill:rgb(100%,100%,100%);fill-opacity:1;" />
      <path
         id="path25"
         d="M 36.367188 51.121094 L 36.367188 52.917969 L 33.132812 52.917969 L 33.132812 62 L 30.664062 62 L 30.664062 52.917969 L 27.429688 52.917969 L 27.429688 51.121094 L 36.367188 51.121094 "
         style=" stroke:none;fill-rule:nonzero;fill:rgb(100%,100%,100%);fill-opacity:1;" />
      <path
         id="path27"
         d="M 45.914062 51.121094 L 45.914062 62 L 43.46875 62 L 43.46875 57.210938 L 40.210938 57.210938 L 40.210938 62 L 37.765625 62 L 37.765625 51.121094 L 40.210938 51.121094 L 40.210938 55.414062 L 43.46875 55.414062 L 43.46875 51.121094 L 45.914062 51.121094 "
         style=" stroke:none;fill-rule:nonzero;fill:rgb(100%,100%,100%);fill-opacity:1;" />
      <g
         id="g4179" />
    </g>
    <g
       id="g4161">
      <path
         inkscape:connector-curvature="0"
         id="path4178"
         d="m 7.9999995,60.210938 0,1 c 0,1.355468 1.375,2.789062 2.6718755,2.789062 l 42.656244,0 C 54.624989,64 56,62.566406 56,61.210938 l 0,-1 C 56,61.566406 54.624989,63 53.328119,63 L 10.671875,63 C 9.3749995,63 7.9999995,61.566406 7.9999995,60.210938 Z"
         style="opacity:0.15;fill:#000000;fill-opacity:1;fill-rule:nonzero;stroke:none" />
      <path
         style="opacity:0.5;fill:#ffffff;fill-opacity:1;fill-rule:nonzero;stroke:none"
         d="m 7.9999998,3.789062 0,-1 C 7.9999998,1.433594 9.3749999,0 10.671875,0 L 53.328119,0 C 54.624989,0 56,1.433594 56,2.789062 l 0,1 C 56,2.433594 54.624989,1 53.328119,1 L 10.671875,1 C 9.3749998,1 7.9999998,2.433594 7.9999998,3.789062 Z"
         id="path4159"
         inkscape:connector-curvature="0" />
    </g>
  </g>
</svg>
