<?xml version="1.0" encoding="UTF-8" standalone="no"?>
<svg
   xmlns:dc="http://purl.org/dc/elements/1.1/"
   xmlns:cc="http://creativecommons.org/ns#"
   xmlns:rdf="http://www.w3.org/1999/02/22-rdf-syntax-ns#"
   xmlns:svg="http://www.w3.org/2000/svg"
   xmlns="http://www.w3.org/2000/svg"
   xmlns:sodipodi="http://sodipodi.sourceforge.net/DTD/sodipodi-0.dtd"
   xmlns:inkscape="http://www.inkscape.org/namespaces/inkscape"
   width="64px"
   height="64px"
   viewBox="0 0 64 64"
   version="1.1"
   id="svg2"
   inkscape:version="0.91 r13725"
   sodipodi:docname="application-rtf.svg">
  <metadata
     id="metadata37">
    <rdf:RDF>
      <cc:Work
         rdf:about="">
        <dc:format>image/svg+xml</dc:format>
        <dc:type
           rdf:resource="http://purl.org/dc/dcmitype/StillImage" />
      </cc:Work>
    </rdf:RDF>
  </metadata>
  <defs
     id="defs35">
    <filter
       inkscape:collect="always"
       style="color-interpolation-filters:sRGB"
       id="filter4185-96"
       x="-0.096041702"
       width="1.1920834"
       y="-0.09595833"
       height="1.1919167">
      <feGaussianBlur
         inkscape:collect="always"
         stdDeviation="0.7196875"
         id="feGaussianBlur4187-26" />
    </filter>
    <filter
       inkscape:collect="always"
       style="color-interpolation-filters:sRGB"
       id="filter4228"
       x="-0.11657143"
       width="1.2331429"
       y="-0.0816"
       height="1.1632">
      <feGaussianBlur
         inkscape:collect="always"
         stdDeviation="1.36"
         id="feGaussianBlur4230" />
    </filter>
  </defs>
  <sodipodi:namedview
     pagecolor="#ffffff"
     bordercolor="#666666"
     borderopacity="1"
     objecttolerance="10"
     gridtolerance="10"
     guidetolerance="10"
     inkscape:pageopacity="0"
     inkscape:pageshadow="2"
     inkscape:window-width="1301"
     inkscape:window-height="744"
     id="namedview33"
     showgrid="true"
     inkscape:zoom="3.6875"
     inkscape:cx="26.507358"
     inkscape:cy="8.894074"
     inkscape:window-x="65"
     inkscape:window-y="24"
     inkscape:window-maximized="1"
     inkscape:current-layer="svg2">
    <inkscape:grid
       type="xygrid"
       id="grid4202" />
  </sodipodi:namedview>
  <g
     id="g3369">
    <g
       transform="translate(-8.9814869,-341)"
       id="g4815">
      <g
         transform="translate(9.015625,341)"
         id="g4786">
        <path
           style="fill:#3366cc;fill-opacity:1;fill-rule:nonzero;stroke:none"
           d="M 10.671875,0 C 9.296875,0 8,1.355469 8,2.789062 L 8,61.210938 C 8,62.566406 9.375,64 10.671875,64 l 42.65625,0 C 54.625,64 56,62.566406 56,61.210938 L 56,18 38,0 Z m 0,0"
           id="path4788"
           inkscape:connector-curvature="0" />
        <path
           inkscape:connector-curvature="0"
           id="path4790"
           d="m 37.72725,1.2727492 0,15.2265618 c 0,1.347657 1.410156,2.773438 2.757812,2.773438 l 15.226563,0 -1,-1 -13.984375,0 c -1.108,0 -2,-0.892 -2,-2 l 0,-13.9999998 -1,-1 z"
           style="opacity:0.35;fill:#000000;fill-opacity:1;fill-rule:nonzero;stroke:none;filter:url(#filter4185-96)"
           transform="matrix(1,0,0,0.95722054,0,0.82447778)" />
        <path
           style="fill:#83a2e0;fill-opacity:1;fill-rule:nonzero;stroke:none"
           d="M 38,0 55.984375,18 40.757812,18 C 39.410156,18 38,16.574219 38,15.226562 Z m 0,0"
           id="path4792"
           inkscape:connector-curvature="0" />
        <path
           inkscape:connector-curvature="0"
           id="path4794"
           d="M 10.671875,2.0000001e-8 C 9.2968752,2.0000001e-8 8.0000002,1.3554695 8.0000002,2.7890625 l 0,1 C 8.0000002,2.3554695 9.2968752,1 10.671875,1 L 38,1 38,2e-8 l -27.328125,0 z"
           style="opacity:0.5;fill:#ffffff;fill-opacity:1;fill-rule:nonzero;stroke:none" />
        <path
           inkscape:connector-curvature="0"
           id="path4796"
           d="m 8.0000002,60.210938 0,1 c 0,1.355468 1.375,2.789062 2.6718748,2.789062 L 53.32812,64 C 54.62499,64 56,62.566406 56,61.210938 l 0,-1 C 56,61.566406 54.62499,63 53.32812,63 L 10.671875,63 C 9.3750002,63 8.0000002,61.566406 8.0000002,60.210938 Z"
           style="opacity:0.15;fill:#000000;fill-opacity:1;fill-rule:nonzero;stroke:none" />
      </g>
      <path
         inkscape:connector-curvature="0"
         style="fill:#000000;fill-opacity:0.19607801;fill-rule:nonzero;stroke:none"
         d="m 17,389 0,13.33594 C 17,403.63281 18.375,405 19.664062,405 l 42.671876,0 C 63.625,405 65,403.63281 65,402.33594 L 65,389 Z m 0,0"
         id="path4798" />
    </g>
    <g
       style="fill:#000000;opacity:0.35;filter:url(#filter4228)"
       id="g4204">
      <g
         style="fill:#000000"
         id="g4206">
        <path
           id="path4208"
           d="M 20 22 L 32 22 L 32 32 L 20 32 Z M 20 22 "
           style="stroke:none;fill-rule:evenodd;fill:#000000;fill-opacity:1" />
        <path
           id="path4210"
           d="M 34 22 L 44 22 L 44 24 L 34 24 Z M 34 22 "
           style="stroke:none;fill-rule:evenodd;fill:#000000;fill-opacity:1" />
        <path
           id="path4212"
           d="M 34 26 L 44 26 L 44 28 L 34 28 Z M 34 26 "
           style="stroke:none;fill-rule:evenodd;fill:#000000;fill-opacity:1" />
        <path
           id="path4214"
           d="M 21.230469 50.804688 C 21.945312 50.804688 22.585938 50.871094 23.167969 51.019531 C 23.742188 51.15625 24.242188 51.378906 24.660156 51.683594 C 25.078125 51.976562 25.390625 52.355469 25.601562 52.824219 C 25.832031 53.273438 25.949219 53.816406 25.949219 54.429688 C 25.949219 55.078125 25.800781 55.660156 25.503906 56.183594 C 25.210938 56.710938 24.71875 57.113281 24.035156 57.382812 C 24.265625 57.695312 24.503906 58.039062 24.757812 58.425781 C 25.011719 58.792969 25.265625 59.1875 25.503906 59.605469 C 25.75 60.007812 25.980469 60.417969 26.191406 60.835938 C 26.421875 61.246094 26.613281 61.632812 26.777344 62 L 24.175781 62 C 23.863281 61.285156 23.503906 60.597656 23.085938 59.941406 C 22.683594 59.277344 22.25 58.605469 21.773438 57.925781 L 20.484375 57.925781 L 20.484375 62 L 18 62 L 18 51.09375 C 18.246094 51.042969 18.507812 51 18.789062 50.960938 C 19.082031 50.910156 19.378906 50.886719 19.671875 50.871094 C 19.976562 50.847656 20.253906 50.828125 20.527344 50.820312 C 20.796875 50.804688 21.027344 50.804688 21.230469 50.804688 M 23.429688 54.414062 C 23.429688 53.832031 23.222656 53.40625 22.824219 53.125 C 22.421875 52.855469 21.886719 52.714844 21.230469 52.714844 C 21.132812 52.714844 21.019531 52.722656 20.886719 52.730469 C 20.753906 52.730469 20.617188 52.75 20.484375 52.773438 L 20.484375 56.09375 L 21.027344 56.09375 C 21.871094 56.09375 22.484375 55.957031 22.863281 55.667969 C 23.242188 55.375 23.429688 54.953125 23.429688 54.414062 "
           style="stroke:none;fill-rule:nonzero;fill:#000000;fill-opacity:1" />
        <path
           id="path4216"
           d="M 36.578125 50.929688 L 36.578125 52.75 L 33.289062 52.75 L 33.289062 62 L 30.785156 62 L 30.785156 52.75 L 27.503906 52.75 L 27.503906 50.929688 L 36.578125 50.929688 "
           style="stroke:none;fill-rule:nonzero;fill:#000000;fill-opacity:1" />
        <path
           id="path4218"
           d="M 38.355469 62 L 38.355469 50.929688 L 46 50.929688 L 46 52.75 L 40.832031 52.75 L 40.832031 55.4375 L 45.351562 55.4375 L 45.351562 57.257812 L 40.832031 57.257812 L 40.832031 62 L 38.355469 62 "
           style="stroke:none;fill-rule:nonzero;fill:#000000;fill-opacity:1" />
        <path
           id="path4220"
           d="M 34 30 L 44 30 L 44 32 L 34 32 Z M 34 30 "
           style="stroke:none;fill-rule:evenodd;fill:#000000;fill-opacity:1" />
        <path
           id="path4222"
           d="M 20 34 L 44 34 L 44 36 L 20 36 Z M 20 34 "
           style="stroke:none;fill-rule:evenodd;fill:#000000;fill-opacity:1" />
        <path
           id="path4224"
           d="M 20 38 L 44 38 L 44 40 L 20 40 Z M 20 38 "
           style="stroke:none;fill-rule:evenodd;fill:#000000;fill-opacity:1" />
        <path
           id="path4226"
           d="M 20 42 L 44 42 L 44 44 L 20 44 Z M 20 42 "
           style="stroke:none;fill-rule:evenodd;fill:#000000;fill-opacity:1" />
      </g>
    </g>
    <g
       id="g4165">
      <g
         id="surface1">
        <path
           style=" stroke:none;fill-rule:evenodd;fill:rgb(97.647059%,97.647059%,97.647059%);fill-opacity:1;"
           d="M 20 22 L 32 22 L 32 32 L 20 32 Z M 20 22 "
           id="path11" />
        <path
           style=" stroke:none;fill-rule:evenodd;fill:rgb(97.647059%,97.647059%,97.647059%);fill-opacity:1;"
           d="M 34 22 L 44 22 L 44 24 L 34 24 Z M 34 22 "
           id="path13" />
        <path
           style=" stroke:none;fill-rule:evenodd;fill:rgb(97.647059%,97.647059%,97.647059%);fill-opacity:1;"
           d="M 34 26 L 44 26 L 44 28 L 34 28 Z M 34 26 "
           id="path17" />
        <path
           style=" stroke:none;fill-rule:nonzero;fill:rgb(100%,100%,100%);fill-opacity:1;"
           d="M 21.230469 50.804688 C 21.945312 50.804688 22.585938 50.871094 23.167969 51.019531 C 23.742188 51.15625 24.242188 51.378906 24.660156 51.683594 C 25.078125 51.976562 25.390625 52.355469 25.601562 52.824219 C 25.832031 53.273438 25.949219 53.816406 25.949219 54.429688 C 25.949219 55.078125 25.800781 55.660156 25.503906 56.183594 C 25.210938 56.710938 24.71875 57.113281 24.035156 57.382812 C 24.265625 57.695312 24.503906 58.039062 24.757812 58.425781 C 25.011719 58.792969 25.265625 59.1875 25.503906 59.605469 C 25.75 60.007812 25.980469 60.417969 26.191406 60.835938 C 26.421875 61.246094 26.613281 61.632812 26.777344 62 L 24.175781 62 C 23.863281 61.285156 23.503906 60.597656 23.085938 59.941406 C 22.683594 59.277344 22.25 58.605469 21.773438 57.925781 L 20.484375 57.925781 L 20.484375 62 L 18 62 L 18 51.09375 C 18.246094 51.042969 18.507812 51 18.789062 50.960938 C 19.082031 50.910156 19.378906 50.886719 19.671875 50.871094 C 19.976562 50.847656 20.253906 50.828125 20.527344 50.820312 C 20.796875 50.804688 21.027344 50.804688 21.230469 50.804688 M 23.429688 54.414062 C 23.429688 53.832031 23.222656 53.40625 22.824219 53.125 C 22.421875 52.855469 21.886719 52.714844 21.230469 52.714844 C 21.132812 52.714844 21.019531 52.722656 20.886719 52.730469 C 20.753906 52.730469 20.617188 52.75 20.484375 52.773438 L 20.484375 56.09375 L 21.027344 56.09375 C 21.871094 56.09375 22.484375 55.957031 22.863281 55.667969 C 23.242188 55.375 23.429688 54.953125 23.429688 54.414062 "
           id="path19" />
        <path
           style=" stroke:none;fill-rule:nonzero;fill:rgb(100%,100%,100%);fill-opacity:1;"
           d="M 36.578125 50.929688 L 36.578125 52.75 L 33.289062 52.75 L 33.289062 62 L 30.785156 62 L 30.785156 52.75 L 27.503906 52.75 L 27.503906 50.929688 L 36.578125 50.929688 "
           id="path21" />
        <path
           style=" stroke:none;fill-rule:nonzero;fill:rgb(100%,100%,100%);fill-opacity:1;"
           d="M 38.355469 62 L 38.355469 50.929688 L 46 50.929688 L 46 52.75 L 40.832031 52.75 L 40.832031 55.4375 L 45.351562 55.4375 L 45.351562 57.257812 L 40.832031 57.257812 L 40.832031 62 L 38.355469 62 "
           id="path23" />
        <path
           style=" stroke:none;fill-rule:evenodd;fill:rgb(97.647059%,97.647059%,97.647059%);fill-opacity:1;"
           d="M 34 30 L 44 30 L 44 32 L 34 32 Z M 34 30 "
           id="path25" />
        <path
           style=" stroke:none;fill-rule:evenodd;fill:rgb(97.647059%,97.647059%,97.647059%);fill-opacity:1;"
           d="M 20 34 L 44 34 L 44 36 L 20 36 Z M 20 34 "
           id="path27" />
        <path
           style=" stroke:none;fill-rule:evenodd;fill:rgb(97.647059%,97.647059%,97.647059%);fill-opacity:1;"
           d="M 20 38 L 44 38 L 44 40 L 20 40 Z M 20 38 "
           id="path29" />
        <path
           style=" stroke:none;fill-rule:evenodd;fill:rgb(97.647059%,97.647059%,97.647059%);fill-opacity:1;"
           d="M 20 42 L 44 42 L 44 44 L 20 44 Z M 20 42 "
           id="path31" />
      </g>
    </g>
  </g>
</svg>
