<?xml version="1.0" encoding="UTF-8" standalone="no"?>
<svg
   xmlns:dc="http://purl.org/dc/elements/1.1/"
   xmlns:cc="http://creativecommons.org/ns#"
   xmlns:rdf="http://www.w3.org/1999/02/22-rdf-syntax-ns#"
   xmlns:svg="http://www.w3.org/2000/svg"
   xmlns="http://www.w3.org/2000/svg"
   xmlns:sodipodi="http://sodipodi.sourceforge.net/DTD/sodipodi-0.dtd"
   xmlns:inkscape="http://www.inkscape.org/namespaces/inkscape"
   width="64px"
   height="64px"
   viewBox="0 0 64 64"
   version="1.1"
   id="svg2"
   inkscape:version="0.91 r13725"
   sodipodi:docname="application-images.svg">
  <metadata
     id="metadata17">
    <rdf:RDF>
      <cc:Work
         rdf:about="">
        <dc:format>image/svg+xml</dc:format>
        <dc:type
           rdf:resource="http://purl.org/dc/dcmitype/StillImage" />
      </cc:Work>
    </rdf:RDF>
  </metadata>
  <defs
     id="defs15">
    <clipPath
       clipPathUnits="userSpaceOnUse"
       id="clipPath4278">
      <path
         sodipodi:nodetypes="ssssssccs"
         style="fill:#e1e1e1;fill-opacity:1;stroke:none"
         d="m 300,196 c -2.216,0 -4,1.784 -4,4 l 0,72 c 0,2.216 1.784,4 4,4 l 56,0 c 2.216,0 4,-1.784 4,-4 l 0,-52 -24,-24 z"
         id="path4280"
         inkscape:connector-curvature="0" />
    </clipPath>
    <filter
       inkscape:collect="always"
       id="filter4293"
       x="-0.1225"
       width="1.245"
       y="-0.1176"
       height="1.2352">
      <feGaussianBlur
         inkscape:collect="always"
         stdDeviation="1.225"
         id="feGaussianBlur4295" />
    </filter>
    <filter
       inkscape:collect="always"
       style="color-interpolation-filters:sRGB"
       id="filter4175"
       x="-0.095999136"
       width="1.1919983"
       y="-0.096000864"
       height="1.1920017">
      <feGaussianBlur
         inkscape:collect="always"
         stdDeviation="0.96001067"
         id="feGaussianBlur4177" />
    </filter>
  </defs>
  <sodipodi:namedview
     pagecolor="#ffffff"
     bordercolor="#666666"
     borderopacity="1"
     objecttolerance="10"
     gridtolerance="10"
     guidetolerance="10"
     inkscape:pageopacity="0"
     inkscape:pageshadow="2"
     inkscape:window-width="1301"
     inkscape:window-height="744"
     id="namedview13"
     showgrid="false"
     inkscape:zoom="2.6074563"
     inkscape:cx="46.754695"
     inkscape:cy="6.9719576"
     inkscape:window-x="65"
     inkscape:window-y="24"
     inkscape:window-maximized="1"
     inkscape:current-layer="svg2" />
  <g
     id="g3347">
    <g
       id="g3346">
      <g
         transform="matrix(0.4,0,0,0.4,-163.2,-43.2)"
         style="display:inline;enable-background:new"
         id="g4904">
        <path
           sodipodi:nodetypes="sssssscccs"
           inkscape:connector-curvature="0"
           id="rect3322"
           d="m 432,108 c -4.432,0 -8,3.568 -8,8 l 0,144 c 0,4.432 3.568,8 8,8 l 112,0 c 4.432,0 8,-3.568 8,-8 l 0,-104 -44,-4 -4,-44 z"
           style="fill:#35a14c;fill-opacity:1;stroke:none" />
        <path
           transform="matrix(2,0,0,2,-168.00009,-284)"
           id="path4285"
           d="m 336,196 0,21 c 0,2.20914 1.79086,4 4,4 l 20,0 0,-1 z"
           style="opacity:0.2;fill:#000000;fill-opacity:1;stroke:none;filter:url(#filter4293)"
           inkscape:connector-curvature="0"
           sodipodi:nodetypes="cssccc"
           clip-path="url(#clipPath4278)" />
        <path
           inkscape:connector-curvature="0"
           style="fill:#84c692;fill-opacity:1;stroke:none"
           d="m 503.99991,108 0,40 c 0,4.41828 3.58172,8 8,8 l 40,0 -48,-48 z"
           id="path4287" />
        <path
           sodipodi:nodetypes="sscsccs"
           inkscape:connector-curvature="0"
           id="path4300"
           d="m 432,108 c -4.432,0 -8,3.568 -8,8 l 0,1 c 0,-4.432 3.568,-8 8,-8 l 72,0 0,-1 z"
           style="opacity:0.5;fill:#ffffff;fill-opacity:1;stroke:none" />
        <path
           style="opacity:0.15;fill:#000000;fill-opacity:1;stroke:none"
           d="m 424,259 0,1 c 0,4.432 3.568,8 8,8 l 112,0 c 4.432,0 8,-3.568 8,-8 l 0,-1 c 0,4.432 -3.568,8 -8,8 l -112,0 c -4.432,0 -8,-3.568 -8,-8 z"
           id="path14320"
           inkscape:connector-curvature="0" />
      </g>
      <path
         style="fill:#000000;fill-opacity:1;fill-rule:nonzero;stroke:none;filter:url(#filter4175);opacity:0.35"
         d="M 21.546875,24 C 20.703125,24.07813 19.984375,24.976562 20,25.925781 l 0,20.195313 C 20.0078,47.113281 20.800781,48.007812 21.6875,48 l 20.667969,0 C 43.226562,47.984375 43.992188,47.105469 44,46.121094 L 44,25.925781 C 44.015625,24.921875 43.242188,24.007812 42.355469,24 Z M 22,26 42,26 42,40 35.957031,33.703125 34.539062,35.0625 32.378906,37.03125 31.058594,35.714844 27.667969,31.128906 22,38 Z m 0,0"
         id="path4173"
         inkscape:connector-curvature="0" />
      <path
         inkscape:connector-curvature="0"
         id="path11"
         d="M 21.546875,24 C 20.703125,24.07813 19.984375,24.976562 20,25.925781 l 0,20.195313 C 20.0078,47.113281 20.800781,48.007812 21.6875,48 l 20.667969,0 C 43.226562,47.984375 43.992188,47.105469 44,46.121094 L 44,25.925781 C 44.015625,24.921875 43.242188,24.007812 42.355469,24 Z M 22,26 42,26 42,40 35.957031,33.703125 34.539062,35.0625 32.378906,37.03125 31.058594,35.714844 27.667969,31.128906 22,38 Z m 0,0"
         style="fill:#ffffff;fill-opacity:1;fill-rule:nonzero;stroke:none" />
    </g>
  </g>
</svg>
