<?xml version="1.0" encoding="UTF-8" standalone="no"?>
<svg
   xmlns:dc="http://purl.org/dc/elements/1.1/"
   xmlns:cc="http://creativecommons.org/ns#"
   xmlns:rdf="http://www.w3.org/1999/02/22-rdf-syntax-ns#"
   xmlns:svg="http://www.w3.org/2000/svg"
   xmlns="http://www.w3.org/2000/svg"
   xmlns:sodipodi="http://sodipodi.sourceforge.net/DTD/sodipodi-0.dtd"
   xmlns:inkscape="http://www.inkscape.org/namespaces/inkscape"
   width="64px"
   height="64px"
   viewBox="0 0 64 64"
   version="1.1"
   id="svg2"
   inkscape:version="0.91 r13725"
   sodipodi:docname="application-vnd.oasis.opendocument.drawing.svg">
  <metadata
     id="metadata25">
    <rdf:RDF>
      <cc:Work
         rdf:about="">
        <dc:format>image/svg+xml</dc:format>
        <dc:type
           rdf:resource="http://purl.org/dc/dcmitype/StillImage" />
      </cc:Work>
    </rdf:RDF>
  </metadata>
  <defs
     id="defs23">
    <filter
       inkscape:collect="always"
       style="color-interpolation-filters:sRGB"
       id="filter4185-75"
       x="-0.096041702"
       width="1.1920834"
       y="-0.09595833"
       height="1.1919167">
      <feGaussianBlur
         inkscape:collect="always"
         stdDeviation="0.7196875"
         id="feGaussianBlur4187-85" />
    </filter>
    <filter
       inkscape:collect="always"
       style="color-interpolation-filters:sRGB"
       id="filter4206"
       x="-0.1161909"
       width="1.2323818"
       y="-0.0817875"
       height="1.163575">
      <feGaussianBlur
         inkscape:collect="always"
         stdDeviation="1.363125"
         id="feGaussianBlur4208" />
    </filter>
  </defs>
  <sodipodi:namedview
     pagecolor="#ffffff"
     bordercolor="#666666"
     borderopacity="1"
     objecttolerance="10"
     gridtolerance="10"
     guidetolerance="10"
     inkscape:pageopacity="0"
     inkscape:pageshadow="2"
     inkscape:window-width="1301"
     inkscape:window-height="744"
     id="namedview21"
     showgrid="false"
     inkscape:zoom="3.6875"
     inkscape:cx="32"
     inkscape:cy="32"
     inkscape:window-x="65"
     inkscape:window-y="24"
     inkscape:window-maximized="1"
     inkscape:current-layer="svg2" />
  <g
     id="g3355">
    <g
       id="g3823"
       transform="translate(-332.69401,-253.98082)">
      <g
         id="g3825">
        <g
           transform="translate(332,253.98082)"
           id="g3827">
          <path
             style="fill:#ebae00;fill-opacity:1;fill-rule:nonzero;stroke:none"
             d="M 10.671875,0 C 9.296875,0 8,1.355469 8,2.789062 L 8,61.210938 C 8,62.566406 9.375,64 10.671875,64 l 42.65625,0 C 54.625,64 56,62.566406 56,61.210938 L 56,18 38,0 Z m 0,0"
             id="path3829"
             inkscape:connector-curvature="0" />
          <path
             inkscape:connector-curvature="0"
             id="path3831"
             d="m 37.72725,1.2727492 0,15.2265618 c 0,1.347657 1.410156,2.773438 2.757812,2.773438 l 15.226563,0 -1,-1 -13.984375,0 c -1.108,0 -2,-0.892 -2,-2 l 0,-13.9999998 -1,-1 z"
             style="opacity:0.35;fill:#000000;fill-opacity:1;fill-rule:nonzero;stroke:none;filter:url(#filter4185-75)"
             transform="matrix(1,0,0,0.96709914,0,0.63408999)" />
          <path
             style="fill:#f3ce64;fill-opacity:1;fill-rule:nonzero;stroke:none"
             d="M 38,0 55.984375,18 40.757812,18 C 39.410156,18 38,16.574219 38,15.226562 Z m 0,0"
             id="path3833"
             inkscape:connector-curvature="0" />
          <path
             inkscape:connector-curvature="0"
             id="path3835"
             d="M 10.671875,2.0000001e-8 C 9.2968752,2.0000001e-8 8.0000002,1.3554695 8.0000002,2.7890625 l 0,1 C 8.0000002,2.3554695 9.2968752,1 10.671875,1 L 38,1 38,2e-8 l -27.328125,0 z"
             style="opacity:0.5;fill:#ffffff;fill-opacity:1;fill-rule:nonzero;stroke:none" />
          <path
             inkscape:connector-curvature="0"
             id="path3837"
             d="m 8.0000002,60.210938 0,1 c 0,1.355468 1.375,2.789062 2.6718748,2.789062 L 53.32812,64 C 54.62499,64 56,62.566406 56,61.210938 l 0,-1 C 56,61.566406 54.62499,63 53.32812,63 L 10.671875,63 C 9.3750002,63 8.0000002,61.566406 8.0000002,60.210938 Z"
             style="opacity:0.15;fill:#000000;fill-opacity:1;fill-rule:nonzero;stroke:none" />
        </g>
        <path
           style="fill:#000000;fill-opacity:0.19607801;fill-rule:nonzero;stroke:none"
           d="m 339.94915,301.94915 0,13.33594 c 0,1.29687 1.375,2.66406 2.66406,2.66406 l 42.67188,0 c 1.28906,0 2.66406,-1.36719 2.66406,-2.66406 l 0,-13.33594 z m 0,0"
           id="path3839"
           inkscape:connector-curvature="0" />
      </g>
    </g>
    <g
       style="fill:#000000;opacity:0.35;filter:url(#filter4206)"
       id="g4196">
      <path
         style="stroke:none;fill-rule:nonzero;fill:#000000;fill-opacity:1"
         d="M 20 44 L 20 22 L 44 22 L 44 44 L 30 44 L 30 32 L 36 32 L 36 36 L 34 36 L 34 40 L 40 40 L 40 26 L 24 26 L 24 44 Z M 20 44 "
         id="path4198" />
      <path
         style="stroke:none;fill-rule:nonzero;fill:#000000;fill-opacity:1"
         d="M 20.292969 56.367188 C 20.292969 56.894531 20.316406 57.390625 20.351562 57.851562 C 20.410156 58.304688 20.5 58.699219 20.632812 59.039062 C 20.773438 59.378906 20.96875 59.640625 21.21875 59.839844 C 21.464844 60.039062 21.792969 60.136719 22.214844 60.136719 C 22.617188 60.136719 22.949219 60.039062 23.195312 59.839844 C 23.453125 59.640625 23.648438 59.378906 23.78125 59.039062 C 23.921875 58.683594 24.019531 58.289062 24.054688 57.835938 C 24.113281 57.382812 24.136719 56.894531 24.136719 56.367188 C 24.136719 55.847656 24.113281 55.359375 24.054688 54.90625 C 24.019531 54.4375 23.921875 54.042969 23.78125 53.703125 C 23.648438 53.363281 23.460938 53.101562 23.210938 52.902344 C 22.964844 52.707031 22.636719 52.605469 22.214844 52.605469 C 21.792969 52.605469 21.464844 52.707031 21.21875 52.902344 C 20.96875 53.101562 20.773438 53.375 20.632812 53.71875 C 20.5 54.058594 20.410156 54.453125 20.351562 54.90625 C 20.316406 55.359375 20.292969 55.847656 20.292969 56.367188 M 17.84375 56.367188 C 17.84375 54.511719 18.230469 53.109375 19 52.167969 C 19.773438 51.210938 20.847656 50.742188 22.214844 50.742188 C 23.640625 50.742188 24.722656 51.210938 25.464844 52.167969 C 26.214844 53.109375 26.585938 54.511719 26.585938 56.367188 C 26.585938 58.230469 26.207031 59.632812 25.449219 60.589844 C 24.6875 61.53125 23.617188 62 22.230469 62 C 20.8125 62 19.722656 61.53125 18.964844 60.589844 C 18.214844 59.632812 17.84375 58.230469 17.84375 56.367188 "
         id="path4200" />
      <path
         style="stroke:none;fill-rule:nonzero;fill:#000000;fill-opacity:1"
         d="M 30.578125 60.027344 C 30.644531 60.046875 30.71875 60.046875 30.792969 60.046875 C 30.875 60.046875 30.949219 60.046875 31.015625 60.046875 C 31.558594 60.046875 32.011719 59.953125 32.382812 59.765625 C 32.761719 59.582031 33.058594 59.328125 33.28125 58.996094 C 33.523438 58.675781 33.679688 58.289062 33.769531 57.851562 C 33.875 57.398438 33.925781 56.902344 33.925781 56.367188 C 33.925781 55.90625 33.894531 55.453125 33.808594 55.007812 C 33.734375 54.570312 33.597656 54.179688 33.398438 53.84375 C 33.207031 53.503906 32.9375 53.242188 32.597656 53.042969 C 32.261719 52.828125 31.824219 52.730469 31.285156 52.730469 C 31.179688 52.730469 31.0625 52.730469 30.933594 52.746094 C 30.800781 52.746094 30.683594 52.753906 30.578125 52.78125 L 30.578125 60.027344 M 36.375 56.367188 C 36.375 57.363281 36.234375 58.222656 35.945312 58.933594 C 35.675781 59.632812 35.285156 60.203125 34.792969 60.640625 C 34.296875 61.085938 33.703125 61.40625 33.011719 61.613281 C 32.324219 61.808594 31.574219 61.910156 30.757812 61.910156 C 30.320312 61.910156 29.902344 61.894531 29.480469 61.84375 C 29.078125 61.808594 28.640625 61.746094 28.167969 61.652344 L 28.167969 51.121094 C 28.722656 51.015625 29.234375 50.949219 29.71875 50.914062 C 30.199219 50.882812 30.652344 50.859375 31.074219 50.859375 C 31.863281 50.859375 32.589844 50.964844 33.242188 51.171875 C 33.910156 51.386719 34.46875 51.714844 34.933594 52.167969 C 35.386719 52.605469 35.742188 53.183594 35.988281 53.875 C 36.25 54.5625 36.375 55.394531 36.375 56.367188 "
         id="path4202" />
      <path
         style="stroke:none;fill-rule:nonzero;fill:#000000;fill-opacity:1"
         d="M 43.023438 52.605469 C 42.445312 52.605469 41.957031 52.695312 41.570312 52.886719 C 41.175781 53.066406 40.855469 53.332031 40.589844 53.671875 C 40.34375 53.992188 40.160156 54.386719 40.046875 54.847656 C 39.9375 55.304688 39.890625 55.816406 39.890625 56.367188 C 39.890625 57.660156 40.113281 58.609375 40.574219 59.230469 C 41.027344 59.832031 41.703125 60.136719 42.585938 60.136719 C 42.734375 60.136719 42.890625 60.128906 43.054688 60.121094 C 43.230469 60.101562 43.386719 60.085938 43.527344 60.0625 L 43.527344 56.128906 L 45.941406 56.128906 L 45.941406 61.511719 C 45.652344 61.605469 45.199219 61.710938 44.589844 61.828125 C 43.988281 61.941406 43.253906 62 42.394531 62 C 41.636719 62 40.953125 61.882812 40.335938 61.652344 C 39.730469 61.40625 39.222656 61.050781 38.792969 60.589844 C 38.355469 60.113281 38.023438 59.527344 37.785156 58.824219 C 37.554688 58.117188 37.4375 57.300781 37.4375 56.367188 C 37.4375 55.453125 37.570312 54.644531 37.851562 53.949219 C 38.125 53.242188 38.496094 52.648438 38.964844 52.167969 C 39.433594 51.691406 39.988281 51.335938 40.632812 51.105469 C 41.265625 50.859375 41.957031 50.742188 42.683594 50.742188 C 43.15625 50.742188 43.574219 50.777344 43.9375 50.839844 C 44.316406 50.898438 44.648438 50.972656 44.917969 51.054688 C 45.191406 51.136719 45.414062 51.222656 45.585938 51.3125 C 45.769531 51.410156 45.910156 51.476562 46 51.527344 L 45.375 53.234375 C 45.085938 53.066406 44.730469 52.929688 44.308594 52.796875 C 43.898438 52.671875 43.460938 52.605469 43.023438 52.605469 "
         id="path4204" />
    </g>
    <g
       id="surface1">
      <path
         id="path13"
         d="M 20 44 L 20 22 L 44 22 L 44 44 L 30 44 L 30 32 L 36 32 L 36 36 L 34 36 L 34 40 L 40 40 L 40 26 L 24 26 L 24 44 Z M 20 44 "
         style=" stroke:none;fill-rule:nonzero;fill:rgb(100%,100%,100%);fill-opacity:1;" />
      <path
         id="path15"
         d="M 20.292969 56.367188 C 20.292969 56.894531 20.316406 57.390625 20.351562 57.851562 C 20.410156 58.304688 20.5 58.699219 20.632812 59.039062 C 20.773438 59.378906 20.96875 59.640625 21.21875 59.839844 C 21.464844 60.039062 21.792969 60.136719 22.214844 60.136719 C 22.617188 60.136719 22.949219 60.039062 23.195312 59.839844 C 23.453125 59.640625 23.648438 59.378906 23.78125 59.039062 C 23.921875 58.683594 24.019531 58.289062 24.054688 57.835938 C 24.113281 57.382812 24.136719 56.894531 24.136719 56.367188 C 24.136719 55.847656 24.113281 55.359375 24.054688 54.90625 C 24.019531 54.4375 23.921875 54.042969 23.78125 53.703125 C 23.648438 53.363281 23.460938 53.101562 23.210938 52.902344 C 22.964844 52.707031 22.636719 52.605469 22.214844 52.605469 C 21.792969 52.605469 21.464844 52.707031 21.21875 52.902344 C 20.96875 53.101562 20.773438 53.375 20.632812 53.71875 C 20.5 54.058594 20.410156 54.453125 20.351562 54.90625 C 20.316406 55.359375 20.292969 55.847656 20.292969 56.367188 M 17.84375 56.367188 C 17.84375 54.511719 18.230469 53.109375 19 52.167969 C 19.773438 51.210938 20.847656 50.742188 22.214844 50.742188 C 23.640625 50.742188 24.722656 51.210938 25.464844 52.167969 C 26.214844 53.109375 26.585938 54.511719 26.585938 56.367188 C 26.585938 58.230469 26.207031 59.632812 25.449219 60.589844 C 24.6875 61.53125 23.617188 62 22.230469 62 C 20.8125 62 19.722656 61.53125 18.964844 60.589844 C 18.214844 59.632812 17.84375 58.230469 17.84375 56.367188 "
         style=" stroke:none;fill-rule:nonzero;fill:rgb(100%,100%,100%);fill-opacity:1;" />
      <path
         id="path17"
         d="M 30.578125 60.027344 C 30.644531 60.046875 30.71875 60.046875 30.792969 60.046875 C 30.875 60.046875 30.949219 60.046875 31.015625 60.046875 C 31.558594 60.046875 32.011719 59.953125 32.382812 59.765625 C 32.761719 59.582031 33.058594 59.328125 33.28125 58.996094 C 33.523438 58.675781 33.679688 58.289062 33.769531 57.851562 C 33.875 57.398438 33.925781 56.902344 33.925781 56.367188 C 33.925781 55.90625 33.894531 55.453125 33.808594 55.007812 C 33.734375 54.570312 33.597656 54.179688 33.398438 53.84375 C 33.207031 53.503906 32.9375 53.242188 32.597656 53.042969 C 32.261719 52.828125 31.824219 52.730469 31.285156 52.730469 C 31.179688 52.730469 31.0625 52.730469 30.933594 52.746094 C 30.800781 52.746094 30.683594 52.753906 30.578125 52.78125 L 30.578125 60.027344 M 36.375 56.367188 C 36.375 57.363281 36.234375 58.222656 35.945312 58.933594 C 35.675781 59.632812 35.285156 60.203125 34.792969 60.640625 C 34.296875 61.085938 33.703125 61.40625 33.011719 61.613281 C 32.324219 61.808594 31.574219 61.910156 30.757812 61.910156 C 30.320312 61.910156 29.902344 61.894531 29.480469 61.84375 C 29.078125 61.808594 28.640625 61.746094 28.167969 61.652344 L 28.167969 51.121094 C 28.722656 51.015625 29.234375 50.949219 29.71875 50.914062 C 30.199219 50.882812 30.652344 50.859375 31.074219 50.859375 C 31.863281 50.859375 32.589844 50.964844 33.242188 51.171875 C 33.910156 51.386719 34.46875 51.714844 34.933594 52.167969 C 35.386719 52.605469 35.742188 53.183594 35.988281 53.875 C 36.25 54.5625 36.375 55.394531 36.375 56.367188 "
         style=" stroke:none;fill-rule:nonzero;fill:rgb(100%,100%,100%);fill-opacity:1;" />
      <path
         id="path19"
         d="M 43.023438 52.605469 C 42.445312 52.605469 41.957031 52.695312 41.570312 52.886719 C 41.175781 53.066406 40.855469 53.332031 40.589844 53.671875 C 40.34375 53.992188 40.160156 54.386719 40.046875 54.847656 C 39.9375 55.304688 39.890625 55.816406 39.890625 56.367188 C 39.890625 57.660156 40.113281 58.609375 40.574219 59.230469 C 41.027344 59.832031 41.703125 60.136719 42.585938 60.136719 C 42.734375 60.136719 42.890625 60.128906 43.054688 60.121094 C 43.230469 60.101562 43.386719 60.085938 43.527344 60.0625 L 43.527344 56.128906 L 45.941406 56.128906 L 45.941406 61.511719 C 45.652344 61.605469 45.199219 61.710938 44.589844 61.828125 C 43.988281 61.941406 43.253906 62 42.394531 62 C 41.636719 62 40.953125 61.882812 40.335938 61.652344 C 39.730469 61.40625 39.222656 61.050781 38.792969 60.589844 C 38.355469 60.113281 38.023438 59.527344 37.785156 58.824219 C 37.554688 58.117188 37.4375 57.300781 37.4375 56.367188 C 37.4375 55.453125 37.570312 54.644531 37.851562 53.949219 C 38.125 53.242188 38.496094 52.648438 38.964844 52.167969 C 39.433594 51.691406 39.988281 51.335938 40.632812 51.105469 C 41.265625 50.859375 41.957031 50.742188 42.683594 50.742188 C 43.15625 50.742188 43.574219 50.777344 43.9375 50.839844 C 44.316406 50.898438 44.648438 50.972656 44.917969 51.054688 C 45.191406 51.136719 45.414062 51.222656 45.585938 51.3125 C 45.769531 51.410156 45.910156 51.476562 46 51.527344 L 45.375 53.234375 C 45.085938 53.066406 44.730469 52.929688 44.308594 52.796875 C 43.898438 52.671875 43.460938 52.605469 43.023438 52.605469 "
         style=" stroke:none;fill-rule:nonzero;fill:rgb(100%,100%,100%);fill-opacity:1;" />
    </g>
  </g>
</svg>
