<?xml version="1.0" encoding="UTF-8" standalone="no"?>
<svg
   xmlns:dc="http://purl.org/dc/elements/1.1/"
   xmlns:cc="http://creativecommons.org/ns#"
   xmlns:rdf="http://www.w3.org/1999/02/22-rdf-syntax-ns#"
   xmlns:svg="http://www.w3.org/2000/svg"
   xmlns="http://www.w3.org/2000/svg"
   xmlns:sodipodi="http://sodipodi.sourceforge.net/DTD/sodipodi-0.dtd"
   xmlns:inkscape="http://www.inkscape.org/namespaces/inkscape"
   width="64px"
   height="64px"
   viewBox="0 0 64 64"
   version="1.1"
   id="svg2"
   inkscape:version="0.91 r13725"
   sodipodi:docname="application-software.svg">
  <metadata
     id="metadata15">
    <rdf:RDF>
      <cc:Work
         rdf:about="">
        <dc:format>image/svg+xml</dc:format>
        <dc:type
           rdf:resource="http://purl.org/dc/dcmitype/StillImage" />
      </cc:Work>
    </rdf:RDF>
  </metadata>
  <defs
     id="defs13">
    <filter
       inkscape:collect="always"
       style="color-interpolation-filters:sRGB"
       id="filter4163"
       x="-0.168"
       width="1.336"
       y="-0.0672"
       height="1.1344">
      <feGaussianBlur
         inkscape:collect="always"
         stdDeviation="0.56"
         id="feGaussianBlur4165" />
    </filter>
  </defs>
  <sodipodi:namedview
     pagecolor="#ffffff"
     bordercolor="#666666"
     borderopacity="1"
     objecttolerance="10"
     gridtolerance="10"
     guidetolerance="10"
     inkscape:pageopacity="0"
     inkscape:pageshadow="2"
     inkscape:window-width="1301"
     inkscape:window-height="744"
     id="namedview11"
     showgrid="true"
     inkscape:zoom="3.6875"
     inkscape:cx="35.961528"
     inkscape:cy="26.371887"
     inkscape:window-x="65"
     inkscape:window-y="24"
     inkscape:window-maximized="1"
     inkscape:current-layer="svg2">
    <inkscape:grid
       type="xygrid"
       id="grid4153" />
  </sodipodi:namedview>
  <g
     id="g3342">
    <g
       id="surface1">
      <path
         inkscape:connector-curvature="0"
         style="fill:#f2c683;fill-opacity:1;fill-rule:nonzero;stroke:none"
         d="M 10.742188,7 C 9.375,7 8,8.375 8,9.742188 l 0,42.59375 C 8,53.625 9.375,55 10.664062,55 l 42.671876,0 C 54.625,55 56,53.625 56,52.335938 L 56,9.664062 C 56,8.375 54.625,7 53.335938,7 Z m 0,0"
         id="path4155" />
      <path
         inkscape:connector-curvature="0"
         style="fill:#997439;fill-opacity:1;fill-rule:nonzero;stroke:none"
         d="M 10.742188,9 C 9.375,9 8,10.375 8,11.742188 l 0,42.59375 C 8,55.625 9.375,57 10.664062,57 l 42.671876,0 C 54.625,57 56,55.625 56,54.335938 L 56,11.664062 C 56,10.375 54.625,9 53.335938,9 Z m 0,0"
         id="path4151" />
      <path
         id="path5"
         d="M 10.742188 8 C 9.375 8 8 9.375 8 10.742188 L 8 53.335938 C 8 54.625 9.375 56 10.664062 56 L 53.335938 56 C 54.625 56 56 54.625 56 53.335938 L 56 10.664062 C 56 9.375 54.625 8 53.335938 8 Z M 10.742188 8 "
         style=" stroke:none;fill-rule:nonzero;fill:rgb(75.686275%,58.431373%,32.54902%);fill-opacity:1;" />
      <path
         id="path7"
         d="M 10.742188 8 C 9.375 8 8 9.375 8 10.742188 L 8 24 C 13.335938 24 50.664062 24 56 24 L 56 10.664062 C 56 9.375 54.625 8 53.335938 8 Z M 10.742188 8 "
         style=" stroke:none;fill-rule:nonzero;fill:rgb(100%,100%,100%);fill-opacity:0.196078;" />
      <path
         style="stroke:none;fill-rule:nonzero;fill:#a05a2c;fill-opacity:1;opacity:0.5;filter:url(#filter4163)"
         d="M 28 14 L 28 34 L 36 34 L 36 14 Z M 28 14 "
         id="path4157" />
      <path
         id="path9"
         d="M 28 14 L 28 34 L 36 34 L 36 14 Z M 28 14 "
         style="stroke:none;fill-rule:nonzero;fill:#ffffff;fill-opacity:1" />
    </g>
  </g>
</svg>
