<?xml version="1.0" encoding="UTF-8" standalone="no"?>
<svg
   xmlns:dc="http://purl.org/dc/elements/1.1/"
   xmlns:cc="http://creativecommons.org/ns#"
   xmlns:rdf="http://www.w3.org/1999/02/22-rdf-syntax-ns#"
   xmlns:svg="http://www.w3.org/2000/svg"
   xmlns="http://www.w3.org/2000/svg"
   xmlns:sodipodi="http://sodipodi.sourceforge.net/DTD/sodipodi-0.dtd"
   xmlns:inkscape="http://www.inkscape.org/namespaces/inkscape"
   width="64px"
   height="64px"
   viewBox="0 0 64 64"
   version="1.1"
   id="svg2"
   inkscape:version="0.91 r13725"
   sodipodi:docname="application-x-krita.svg">
  <metadata
     id="metadata17">
    <rdf:RDF>
      <cc:Work
         rdf:about="">
        <dc:format>image/svg+xml</dc:format>
        <dc:type
           rdf:resource="http://purl.org/dc/dcmitype/StillImage" />
      </cc:Work>
    </rdf:RDF>
  </metadata>
  <defs
     id="defs15">
    <filter
       inkscape:collect="always"
       style="color-interpolation-filters:sRGB"
       id="filter4185-0"
       x="-0.096041702"
       width="1.1920834"
       y="-0.09595833"
       height="1.1919167">
      <feGaussianBlur
         inkscape:collect="always"
         stdDeviation="0.7196875"
         id="feGaussianBlur4187-3" />
    </filter>
    <filter
       inkscape:collect="always"
       style="color-interpolation-filters:sRGB"
       id="filter4160"
       x="-0.095999982"
       width="1.192"
       y="-0.096000018"
       height="1.192">
      <feGaussianBlur
         inkscape:collect="always"
         stdDeviation="1.1199998"
         id="feGaussianBlur4162" />
    </filter>
  </defs>
  <sodipodi:namedview
     pagecolor="#ffffff"
     bordercolor="#666666"
     borderopacity="1"
     objecttolerance="10"
     gridtolerance="10"
     guidetolerance="10"
     inkscape:pageopacity="0"
     inkscape:pageshadow="2"
     inkscape:window-width="1301"
     inkscape:window-height="744"
     id="namedview13"
     showgrid="false"
     inkscape:zoom="5.6568542"
     inkscape:cx="29.402364"
     inkscape:cy="6.8784135"
     inkscape:window-x="65"
     inkscape:window-y="24"
     inkscape:window-maximized="1"
     inkscape:current-layer="svg2">
    <inkscape:grid
       type="xygrid"
       id="grid3351" />
  </sodipodi:namedview>
  <g
     transform="translate(-0.71943709,0)"
     id="g4149">
    <path
       style="fill:#bf9451;fill-opacity:1;fill-rule:nonzero;stroke:none"
       d="M 10.671875,0 C 9.296875,0 8,1.355469 8,2.789062 L 8,61.210938 C 8,62.566406 9.375,64 10.671875,64 l 42.65625,0 C 54.625,64 56,62.566406 56,61.210938 L 56,18 38,0 Z m 0,0"
       id="path5-6"
       inkscape:connector-curvature="0" />
    <path
       transform="matrix(1,0,0,0.96969658,0,0.58403026)"
       inkscape:connector-curvature="0"
       id="path4183-4"
       d="m 37.72725,1.2727492 0,15.2265618 c 0,1.347657 1.410156,2.773438 2.757812,2.773438 l 15.226563,0 -1,-1 -13.984375,0 c -1.108,0 -2,-0.892 -2,-2 l 0,-13.9999998 -1,-1 z"
       style="opacity:0.35;fill:#000000;fill-opacity:1;fill-rule:nonzero;stroke:none;filter:url(#filter4185-0)" />
    <path
       style="fill:#f0d2a1;fill-opacity:1;fill-rule:nonzero;stroke:none"
       d="M 38,0 55.984375,18 40.757812,18 C 39.410156,18 38,16.574219 38,15.226562 Z m 0,0"
       id="path9-7"
       inkscape:connector-curvature="0" />
    <path
       inkscape:connector-curvature="0"
       id="path4160-2"
       d="M 10.671875,2.0000001e-8 C 9.2968752,2.0000001e-8 8.0000002,1.3554695 8.0000002,2.7890625 l 0,1 C 8.0000002,2.3554695 9.2968752,1 10.671875,1 L 38,1 38,2e-8 l -27.328125,0 z"
       style="opacity:0.5;fill:#ffffff;fill-opacity:1;fill-rule:nonzero;stroke:none" />
    <path
       inkscape:connector-curvature="0"
       id="path4178-0"
       d="m 8.0000002,60.210938 0,1 c 0,1.355468 1.375,2.789062 2.6718748,2.789062 L 53.32812,64 C 54.62499,64 56,62.566406 56,61.210938 l 0,-1 C 56,61.566406 54.62499,63 53.32812,63 L 10.671875,63 C 9.3750002,63 8.0000002,61.566406 8.0000002,60.210938 Z"
       style="opacity:0.15;fill:#000000;fill-opacity:1;fill-rule:nonzero;stroke:none" />
  </g>
  <g
     id="surface1" />
  <path
     sodipodi:nodetypes="cscccccsccccccccss"
     inkscape:connector-curvature="0"
     id="path4158"
     d="m 21.184504,22.000011 c -1.639821,0 -4.118733,3.230856 -2.822775,4.388841 l 6.763243,6.0432 c 0.255631,-0.510306 0.583445,-1.03292 1.038826,-1.528574 0.496995,-0.538387 0.975715,-0.890102 1.416829,-1.186765 l -5.09351,-6.748695 c -0.533396,-0.57081 -0.62813,-0.968007 -1.302613,-0.968007 z m 12.449593,7.68389 c -0.353126,0 -0.72649,0.01218 -1.079617,0.02187 -1.472713,0.0085 -3.016656,0.265208 -4.383738,0.765654 -0.977699,0.793717 -1.656318,1.668772 -2.303361,2.715338 -1.291238,3.572144 0.247404,9.589293 5.90934,10.987141 6.418129,1.578533 6.760949,-0.128184 9.509878,1.755536 2.763195,1.878857 1.216098,4.726015 2.52636,3.934917 0.672962,-0.400431 2.806624,-3.393955 2.012383,-8.277271 -0.859633,-5.231255 -3.098733,-8.017421 -5.351854,-9.920693 -1.746617,-1.478419 -4.33743,-1.982492 -6.83667,-1.982492 z"
     style="fill:#000000;fill-opacity:1;fill-rule:nonzero;stroke:none;opacity:0.35;filter:url(#filter4160)" />
  <path
     style="fill:#ffffff;fill-opacity:1;fill-rule:nonzero;stroke:none"
     d="m 21.184504,22.000011 c -1.639821,0 -4.118733,3.230856 -2.822775,4.388841 l 6.763243,6.0432 c 0.255631,-0.510306 0.583445,-1.03292 1.038826,-1.528574 0.496995,-0.538387 0.975715,-0.890102 1.416829,-1.186765 l -5.09351,-6.748695 c -0.533396,-0.57081 -0.62813,-0.968007 -1.302613,-0.968007 z m 12.449593,7.68389 c -0.353126,0 -0.72649,0.01218 -1.079617,0.02187 -1.472713,0.0085 -3.016656,0.265208 -4.383738,0.765654 -0.977699,0.793717 -1.656318,1.668772 -2.303361,2.715338 -1.291238,3.572144 0.247404,9.589293 5.90934,10.987141 6.418129,1.578533 6.760949,-0.128184 9.509878,1.755536 2.763195,1.878857 1.216098,4.726015 2.52636,3.934917 0.672962,-0.400431 2.806624,-3.393955 2.012383,-8.277271 -0.859633,-5.231255 -3.098733,-8.017421 -5.351854,-9.920693 -1.746617,-1.478419 -4.33743,-1.982492 -6.83667,-1.982492 z"
     id="path47"
     inkscape:connector-curvature="0"
     sodipodi:nodetypes="cscccccsccccccccss" />
</svg>
