<?xml version="1.0" encoding="UTF-8" standalone="no"?>
<svg
   xmlns:dc="http://purl.org/dc/elements/1.1/"
   xmlns:cc="http://creativecommons.org/ns#"
   xmlns:rdf="http://www.w3.org/1999/02/22-rdf-syntax-ns#"
   xmlns:svg="http://www.w3.org/2000/svg"
   xmlns="http://www.w3.org/2000/svg"
   xmlns:sodipodi="http://sodipodi.sourceforge.net/DTD/sodipodi-0.dtd"
   xmlns:inkscape="http://www.inkscape.org/namespaces/inkscape"
   width="64px"
   height="64px"
   viewBox="0 0 64 64"
   version="1.1"
   id="svg2"
   inkscape:version="0.91 r13725"
   sodipodi:docname="application-epub+zip.svg">
  <metadata
     id="metadata17">
    <rdf:RDF>
      <cc:Work
         rdf:about="">
        <dc:format>image/svg+xml</dc:format>
        <dc:type
           rdf:resource="http://purl.org/dc/dcmitype/StillImage" />
      </cc:Work>
    </rdf:RDF>
  </metadata>
  <defs
     id="defs15">
    <clipPath
       clipPathUnits="userSpaceOnUse"
       id="clipPath4278">
      <path
         sodipodi:nodetypes="ssssssccs"
         style="fill:#e1e1e1;fill-opacity:1;stroke:none"
         d="m 300,196 c -2.216,0 -4,1.784 -4,4 l 0,72 c 0,2.216 1.784,4 4,4 l 56,0 c 2.216,0 4,-1.784 4,-4 l 0,-52 -24,-24 z"
         id="path4280"
         inkscape:connector-curvature="0" />
    </clipPath>
    <filter
       inkscape:collect="always"
       id="filter4293"
       x="-0.1225"
       width="1.245"
       y="-0.1176"
       height="1.2352">
      <feGaussianBlur
         inkscape:collect="always"
         stdDeviation="1.225"
         id="feGaussianBlur4295" />
    </filter>
    <filter
       inkscape:collect="always"
       style="color-interpolation-filters:sRGB"
       id="filter4171"
       x="-0.095993529"
       width="1.1919871"
       y="-0.096006472"
       height="1.1920129">
      <feGaussianBlur
         inkscape:collect="always"
         stdDeviation="1.1590625"
         id="feGaussianBlur4173" />
    </filter>
  </defs>
  <sodipodi:namedview
     pagecolor="#ffffff"
     bordercolor="#666666"
     borderopacity="1"
     objecttolerance="10"
     gridtolerance="10"
     guidetolerance="10"
     inkscape:pageopacity="0"
     inkscape:pageshadow="2"
     inkscape:window-width="1301"
     inkscape:window-height="744"
     id="namedview13"
     showgrid="false"
     inkscape:zoom="7.375"
     inkscape:cx="40.824731"
     inkscape:cy="29.799946"
     inkscape:window-x="65"
     inkscape:window-y="24"
     inkscape:window-maximized="1"
     inkscape:current-layer="svg2" />
  <g
     id="g3347">
    <g
       id="g4904"
       style="display:inline;enable-background:new"
       transform="matrix(0.4,0,0,0.4,-163.2,-43.2)">
      <path
         style="fill:#35a14c;fill-opacity:1;stroke:none"
         d="m 432,108 c -4.432,0 -8,3.568 -8,8 l 0,144 c 0,4.432 3.568,8 8,8 l 112,0 c 4.432,0 8,-3.568 8,-8 l 0,-104 -44,-4 -4,-44 z"
         id="rect3322"
         inkscape:connector-curvature="0"
         sodipodi:nodetypes="sssssscccs" />
      <path
         clip-path="url(#clipPath4278)"
         sodipodi:nodetypes="cssccc"
         inkscape:connector-curvature="0"
         style="opacity:0.2;fill:#000000;fill-opacity:1;stroke:none;filter:url(#filter4293)"
         d="m 336,196 0,21 c 0,2.20914 1.79086,4 4,4 l 20,0 0,-1 z"
         id="path4285"
         transform="matrix(2,0,0,2,-168.00009,-284)" />
      <path
         id="path4287"
         d="m 503.99991,108 0,40 c 0,4.41828 3.58172,8 8,8 l 40,0 -48,-48 z"
         style="fill:#84c692;fill-opacity:1;stroke:none"
         inkscape:connector-curvature="0" />
      <path
         style="opacity:0.5;fill:#ffffff;fill-opacity:1;stroke:none"
         d="m 432,108 c -4.432,0 -8,3.568 -8,8 l 0,1 c 0,-4.432 3.568,-8 8,-8 l 72,0 0,-1 z"
         id="path4300"
         inkscape:connector-curvature="0"
         sodipodi:nodetypes="sscsccs" />
      <path
         inkscape:connector-curvature="0"
         id="path14320"
         d="m 424,259 0,1 c 0,4.432 3.568,8 8,8 l 112,0 c 4.432,0 8,-3.568 8,-8 l 0,-1 c 0,4.432 -3.568,8 -8,8 l -112,0 c -4.432,0 -8,-3.568 -8,-8 z"
         style="opacity:0.15;fill:#000000;fill-opacity:1;stroke:none" />
    </g>
    <g
       id="surface1">
      <path
         style="stroke:none;fill-rule:nonzero;fill:#000000;fill-opacity:1;opacity:0.35;filter:url(#filter4171)"
         d="M 32 43.773438 L 22.890625 34.664062 L 32 25.5625 L 35.039062 28.59375 L 28.960938 34.664062 L 32 37.703125 L 41.109375 28.59375 L 33.171875 20.664062 C 32.527344 20.019531 31.472656 20.019531 30.828125 20.664062 L 18 33.492188 C 17.347656 34.136719 17.347656 35.191406 18 35.84375 L 30.828125 48.671875 C 31.472656 49.316406 32.527344 49.316406 33.171875 48.671875 L 46 35.84375 C 46.652344 35.191406 46.652344 34.136719 46 33.492188 L 44.140625 31.632812 Z M 32 43.773438 "
         id="path4169" />
      <path
         id="path11"
         d="M 32 43.773438 L 22.890625 34.664062 L 32 25.5625 L 35.039062 28.59375 L 28.960938 34.664062 L 32 37.703125 L 41.109375 28.59375 L 33.171875 20.664062 C 32.527344 20.019531 31.472656 20.019531 30.828125 20.664062 L 18 33.492188 C 17.347656 34.136719 17.347656 35.191406 18 35.84375 L 30.828125 48.671875 C 31.472656 49.316406 32.527344 49.316406 33.171875 48.671875 L 46 35.84375 C 46.652344 35.191406 46.652344 34.136719 46 33.492188 L 44.140625 31.632812 Z M 32 43.773438 "
         style=" stroke:none;fill-rule:nonzero;fill:rgb(100%,100%,100%);fill-opacity:1;" />
    </g>
  </g>
</svg>
