<?xml version="1.0" encoding="UTF-8" standalone="no"?>
<svg
   xmlns:dc="http://purl.org/dc/elements/1.1/"
   xmlns:cc="http://creativecommons.org/ns#"
   xmlns:rdf="http://www.w3.org/1999/02/22-rdf-syntax-ns#"
   xmlns:svg="http://www.w3.org/2000/svg"
   xmlns="http://www.w3.org/2000/svg"
   xmlns:sodipodi="http://sodipodi.sourceforge.net/DTD/sodipodi-0.dtd"
   xmlns:inkscape="http://www.inkscape.org/namespaces/inkscape"
   width="64px"
   height="64px"
   viewBox="0 0 64 64"
   version="1.1"
   id="svg2"
   inkscape:version="0.91 r13725"
   sodipodi:docname="application-octet-stream.svg">
  <metadata
     id="metadata17">
    <rdf:RDF>
      <cc:Work
         rdf:about="">
        <dc:format>image/svg+xml</dc:format>
        <dc:type
           rdf:resource="http://purl.org/dc/dcmitype/StillImage" />
      </cc:Work>
    </rdf:RDF>
  </metadata>
  <defs
     id="defs15">
    <filter
       inkscape:collect="always"
       style="color-interpolation-filters:sRGB"
       id="filter4185"
       x="-0.096041702"
       width="1.1920834"
       y="-0.09595833"
       height="1.1919167">
      <feGaussianBlur
         inkscape:collect="always"
         stdDeviation="0.7196875"
         id="feGaussianBlur4187" />
    </filter>
    <filter
       inkscape:collect="always"
       style="color-interpolation-filters:sRGB"
       id="filter4186"
       x="-0.12266667"
       width="1.2453333"
       y="-0.078857143"
       height="1.1577143">
      <feGaussianBlur
         inkscape:collect="always"
         stdDeviation="0.92"
         id="feGaussianBlur4188" />
    </filter>
  </defs>
  <sodipodi:namedview
     pagecolor="#ffffff"
     bordercolor="#666666"
     borderopacity="1"
     objecttolerance="10"
     gridtolerance="10"
     guidetolerance="10"
     inkscape:pageopacity="0"
     inkscape:pageshadow="2"
     inkscape:window-width="1301"
     inkscape:window-height="744"
     id="namedview13"
     showgrid="false"
     inkscape:zoom="5.2149125"
     inkscape:cx="41.224918"
     inkscape:cy="14.022902"
     inkscape:window-x="65"
     inkscape:window-y="24"
     inkscape:window-maximized="1"
     inkscape:current-layer="svg2" />
  <g
     id="g3346">
    <g
       id="g4140"
       transform="translate(-0.71943709,0)">
      <path
         inkscape:connector-curvature="0"
         id="path5"
         d="M 10.671875,0 C 9.296875,0 8,1.355469 8,2.789062 L 8,61.210938 C 8,62.566406 9.375,64 10.671875,64 l 42.65625,0 C 54.625,64 56,62.566406 56,61.210938 L 56,18 38,0 Z m 0,0"
         style="fill:#dcdcdc;fill-opacity:1;fill-rule:nonzero;stroke:none" />
      <path
         style="opacity:0.35;fill:#000000;fill-opacity:1;fill-rule:nonzero;stroke:none;filter:url(#filter4185)"
         d="m 37.72725,1.2727492 0,15.2265618 c 0,1.347657 1.410156,2.773438 2.757812,2.773438 l 15.226563,0 -1,-1 -13.984375,0 c -1.108,0 -2,-0.892 -2,-2 l 0,-13.9999998 -1,-1 z"
         id="path4183"
         inkscape:connector-curvature="0"
         transform="matrix(1,0,0,0.95722054,0,0.82447778)" />
      <path
         inkscape:connector-curvature="0"
         id="path9"
         d="M 38,0 55.984375,18 40.757812,18 C 39.410156,18 38,16.574219 38,15.226562 Z m 0,0"
         style="fill:#f2f2f2;fill-opacity:1;fill-rule:nonzero;stroke:none" />
      <path
         style="opacity:0.5;fill:#ffffff;fill-opacity:1;fill-rule:nonzero;stroke:none"
         d="M 10.671875,2.0000001e-8 C 9.2968752,2.0000001e-8 8.0000002,1.3554695 8.0000002,2.7890625 l 0,1 C 8.0000002,2.3554695 9.2968752,1 10.671875,1 L 38,1 38,2e-8 l -27.328125,0 z"
         id="path4160"
         inkscape:connector-curvature="0" />
      <path
         style="opacity:0.15;fill:#000000;fill-opacity:1;fill-rule:nonzero;stroke:none"
         d="m 8.0000002,60.210938 0,1 c 0,1.355468 1.375,2.789062 2.6718748,2.789062 L 53.32812,64 C 54.62499,64 56,62.566406 56,61.210938 l 0,-1 C 56,61.566406 54.62499,63 53.32812,63 L 10.671875,63 C 9.3750002,63 8.0000002,61.566406 8.0000002,60.210938 Z"
         id="path4178"
         inkscape:connector-curvature="0" />
    </g>
    <g
       style="fill:#000000;opacity:0.35;filter:url(#filter4186)"
       id="g4165">
      <path
         style="stroke:none;fill-rule:evenodd;fill:#000000;fill-opacity:1"
         d="M 20 22 L 20 24 L 22 24 L 22 30 L 24 30 L 24 22 Z M 20 32 L 20 34 L 22 34 L 22 40 L 24 40 L 24 32 Z M 26 32 L 26 40 L 32 40 L 32 32 Z M 28 34 L 30 34 L 30 38 L 28 38 Z M 20 42 L 20 44 L 22 44 L 22 50 L 24 50 L 24 42 Z M 26 42 L 26 50 L 32 50 L 32 42 Z M 34 42 L 34 44 L 36 44 L 36 50 L 38 50 L 38 42 Z M 28 44 L 30 44 L 30 48 L 28 48 Z M 28 44 "
         id="path4167" />
    </g>
    <g
       id="surface1">
      <path
         id="path11"
         d="M 20 22 L 20 24 L 22 24 L 22 30 L 24 30 L 24 22 Z M 20 32 L 20 34 L 22 34 L 22 40 L 24 40 L 24 32 Z M 26 32 L 26 40 L 32 40 L 32 32 Z M 28 34 L 30 34 L 30 38 L 28 38 Z M 20 42 L 20 44 L 22 44 L 22 50 L 24 50 L 24 42 Z M 26 42 L 26 50 L 32 50 L 32 42 Z M 34 42 L 34 44 L 36 44 L 36 50 L 38 50 L 38 42 Z M 28 44 L 30 44 L 30 48 L 28 48 Z M 28 44 "
         style=" stroke:none;fill-rule:evenodd;fill:rgb(32.941176%,32.941176%,32.941176%);fill-opacity:1;" />
    </g>
  </g>
</svg>
