<?xml version="1.0" encoding="UTF-8" standalone="no"?>
<svg
   xmlns:dc="http://purl.org/dc/elements/1.1/"
   xmlns:cc="http://creativecommons.org/ns#"
   xmlns:rdf="http://www.w3.org/1999/02/22-rdf-syntax-ns#"
   xmlns:svg="http://www.w3.org/2000/svg"
   xmlns="http://www.w3.org/2000/svg"
   xmlns:sodipodi="http://sodipodi.sourceforge.net/DTD/sodipodi-0.dtd"
   xmlns:inkscape="http://www.inkscape.org/namespaces/inkscape"
   width="64px"
   height="64px"
   viewBox="0 0 64 64"
   version="1.1"
   id="svg2"
   inkscape:version="0.91 r13725"
   sodipodi:docname="application-word-template.svg">
  <metadata
     id="metadata27">
    <rdf:RDF>
      <cc:Work
         rdf:about="">
        <dc:format>image/svg+xml</dc:format>
        <dc:type
           rdf:resource="http://purl.org/dc/dcmitype/StillImage" />
      </cc:Work>
    </rdf:RDF>
  </metadata>
  <defs
     id="defs25">
    <filter
       inkscape:collect="always"
       style="color-interpolation-filters:sRGB"
       id="filter4183"
       x="-0.1"
       width="1.2"
       y="-0.092307692"
       height="1.1846154">
      <feGaussianBlur
         inkscape:collect="always"
         stdDeviation="1"
         id="feGaussianBlur4185" />
    </filter>
  </defs>
  <sodipodi:namedview
     pagecolor="#ffffff"
     bordercolor="#666666"
     borderopacity="1"
     objecttolerance="10"
     gridtolerance="10"
     guidetolerance="10"
     inkscape:pageopacity="0"
     inkscape:pageshadow="2"
     inkscape:window-width="1301"
     inkscape:window-height="744"
     id="namedview23"
     showgrid="false"
     inkscape:zoom="7.375"
     inkscape:cx="17.602084"
     inkscape:cy="26.839758"
     inkscape:window-x="65"
     inkscape:window-y="24"
     inkscape:window-maximized="1"
     inkscape:current-layer="svg2" />
  <g
     id="g4157">
    <g
       id="surface1">
      <path
         id="path5"
         d="M 10.6875 0 C 9.3125 0 8 1.378906 8 2.8125 L 8 61.1875 C 8 62.539062 9.390625 64 10.6875 64 L 53.3125 64 C 54.609375 64 56 62.539062 56 61.1875 L 56 2.75 C 56 1.402344 54.597656 0 53.25 0 Z M 10.6875 0 "
         style=" stroke:none;fill-rule:nonzero;fill:rgb(20.392157%,40.784314%,80.784314%);fill-opacity:1;" />
      <g
         style="fill:#000000;opacity:0.35;filter:url(#filter4183)"
         id="g4165">
        <path
           id="path4167"
           d="M 20 20 L 32 20 L 32 30 L 20 30 Z M 20 20 "
           style="stroke:none;fill-rule:evenodd;fill:#000000;fill-opacity:1" />
        <path
           id="path4169"
           d="M 34 20 L 44 20 L 44 22 L 34 22 Z M 34 20 "
           style="stroke:none;fill-rule:evenodd;fill:#000000;fill-opacity:1" />
        <path
           id="path4171"
           d="M 34 24 L 44 24 L 44 26 L 34 26 Z M 34 24 "
           style="stroke:none;fill-rule:evenodd;fill:#000000;fill-opacity:1" />
        <path
           id="path4173"
           d="M 34 28 L 44 28 L 44 30 L 34 30 Z M 34 28 "
           style="stroke:none;fill-rule:evenodd;fill:#000000;fill-opacity:1" />
        <path
           id="path4175"
           d="M 20 32 L 44 32 L 44 34 L 20 34 Z M 20 32 "
           style="stroke:none;fill-rule:evenodd;fill:#000000;fill-opacity:1" />
        <path
           id="path4177"
           d="M 20 36 L 44 36 L 44 38 L 20 38 Z M 20 36 "
           style="stroke:none;fill-rule:evenodd;fill:#000000;fill-opacity:1" />
        <path
           id="path4179"
           d="M 20 40 L 44 40 L 44 42 L 20 42 Z M 20 40 "
           style="stroke:none;fill-rule:evenodd;fill:#000000;fill-opacity:1" />
        <path
           id="path4181"
           d="M 20 44 L 44 44 L 44 46 L 20 46 Z M 20 44 "
           style="stroke:none;fill-rule:evenodd;fill:#000000;fill-opacity:1" />
      </g>
      <g
         id="g4155">
        <path
           style=" stroke:none;fill-rule:evenodd;fill:rgb(97.647059%,97.647059%,97.647059%);fill-opacity:1;"
           d="M 20 20 L 32 20 L 32 30 L 20 30 Z M 20 20 "
           id="path7" />
        <path
           style=" stroke:none;fill-rule:evenodd;fill:rgb(97.647059%,97.647059%,97.647059%);fill-opacity:1;"
           d="M 34 20 L 44 20 L 44 22 L 34 22 Z M 34 20 "
           id="path9" />
        <path
           style=" stroke:none;fill-rule:evenodd;fill:rgb(97.647059%,97.647059%,97.647059%);fill-opacity:1;"
           d="M 34 24 L 44 24 L 44 26 L 34 26 Z M 34 24 "
           id="path11" />
        <path
           style=" stroke:none;fill-rule:evenodd;fill:rgb(97.647059%,97.647059%,97.647059%);fill-opacity:1;"
           d="M 34 28 L 44 28 L 44 30 L 34 30 Z M 34 28 "
           id="path13" />
        <path
           style=" stroke:none;fill-rule:evenodd;fill:rgb(97.647059%,97.647059%,97.647059%);fill-opacity:1;"
           d="M 20 32 L 44 32 L 44 34 L 20 34 Z M 20 32 "
           id="path15" />
        <path
           style=" stroke:none;fill-rule:evenodd;fill:rgb(97.647059%,97.647059%,97.647059%);fill-opacity:1;"
           d="M 20 36 L 44 36 L 44 38 L 20 38 Z M 20 36 "
           id="path17" />
        <path
           style=" stroke:none;fill-rule:evenodd;fill:rgb(97.647059%,97.647059%,97.647059%);fill-opacity:1;"
           d="M 20 40 L 44 40 L 44 42 L 20 42 Z M 20 40 "
           id="path19" />
        <path
           style=" stroke:none;fill-rule:evenodd;fill:rgb(97.647059%,97.647059%,97.647059%);fill-opacity:1;"
           d="M 20 44 L 44 44 L 44 46 L 20 46 Z M 20 44 "
           id="path21" />
      </g>
    </g>
    <g
       id="g4161">
      <path
         inkscape:connector-curvature="0"
         id="path4178"
         d="m 7.9999995,60.210938 0,1 c 0,1.355468 1.375,2.789062 2.6718755,2.789062 l 42.656244,0 C 54.624989,64 56,62.566406 56,61.210938 l 0,-1 C 56,61.566406 54.624989,63 53.328119,63 L 10.671875,63 C 9.3749995,63 7.9999995,61.566406 7.9999995,60.210938 Z"
         style="opacity:0.15;fill:#000000;fill-opacity:1;fill-rule:nonzero;stroke:none" />
      <path
         style="opacity:0.5;fill:#ffffff;fill-opacity:1;fill-rule:nonzero;stroke:none"
         d="m 7.9999998,3.789062 0,-1 C 7.9999998,1.433594 9.3749999,0 10.671875,0 L 53.328119,0 C 54.624989,0 56,1.433594 56,2.789062 l 0,1 C 56,2.433594 54.624989,1 53.328119,1 L 10.671875,1 C 9.3749998,1 7.9999998,2.433594 7.9999998,3.789062 Z"
         id="path4159"
         inkscape:connector-curvature="0" />
    </g>
  </g>
</svg>
