<?xml version="1.0" encoding="UTF-8" standalone="no"?>
<svg
   xmlns:dc="http://purl.org/dc/elements/1.1/"
   xmlns:cc="http://creativecommons.org/ns#"
   xmlns:rdf="http://www.w3.org/1999/02/22-rdf-syntax-ns#"
   xmlns:svg="http://www.w3.org/2000/svg"
   xmlns="http://www.w3.org/2000/svg"
   xmlns:sodipodi="http://sodipodi.sourceforge.net/DTD/sodipodi-0.dtd"
   xmlns:inkscape="http://www.inkscape.org/namespaces/inkscape"
   width="64px"
   height="64px"
   viewBox="0 0 64 64"
   version="1.1"
   id="svg2"
   inkscape:version="0.91 r13725"
   sodipodi:docname="application-executable.svg">
  <metadata
     id="metadata15">
    <rdf:RDF>
      <cc:Work
         rdf:about="">
        <dc:format>image/svg+xml</dc:format>
        <dc:type
           rdf:resource="http://purl.org/dc/dcmitype/StillImage" />
      </cc:Work>
    </rdf:RDF>
  </metadata>
  <defs
     id="defs13">
    <filter
       inkscape:collect="always"
       style="color-interpolation-filters:sRGB"
       id="filter4151"
       x="-0.098091396"
       width="1.1961828"
       y="-0.093995923"
       height="1.1879918">
      <feGaussianBlur
         inkscape:collect="always"
         stdDeviation="1.2533579"
         id="feGaussianBlur4153" />
    </filter>
  </defs>
  <sodipodi:namedview
     pagecolor="#ffffff"
     bordercolor="#666666"
     borderopacity="1"
     objecttolerance="10"
     gridtolerance="10"
     guidetolerance="10"
     inkscape:pageopacity="0"
     inkscape:pageshadow="2"
     inkscape:window-width="1301"
     inkscape:window-height="744"
     id="namedview11"
     showgrid="false"
     inkscape:zoom="7.375"
     inkscape:cx="20.990014"
     inkscape:cy="41.229001"
     inkscape:window-x="65"
     inkscape:window-y="24"
     inkscape:window-maximized="1"
     inkscape:current-layer="svg2" />
  <g
     id="g3339">
    <g
       id="g4162">
      <path
         inkscape:connector-curvature="0"
         id="path5"
         d="M 10.742188,8 C 9.375,8 8,9.375 8,10.742188 l 0,42.59375 C 8,54.625 9.375,56 10.664062,56 l 42.671876,0 C 54.625,56 56,54.625 56,53.335938 L 56,10.664062 C 56,9.375 54.625,8 53.335938,8 Z m 0,0"
         style="fill:#eeeeee;fill-opacity:1;fill-rule:nonzero;stroke:#878787;stroke-width:2;stroke-miterlimit:4;stroke-dasharray:none;stroke-opacity:1" />
      <path
         inkscape:connector-curvature="0"
         style="opacity:0.35;fill:#000000;fill-opacity:1;fill-rule:nonzero;stroke:none;filter:url(#filter4151)"
         d="M 31.101562,16.140625 C 28.429688,17 30.773438,20.976562 26.945312,22.921875 22.578125,25.148438 20.40625,19.53125 17.78125,23.539062 c -2.625,4.015626 3.617188,3.390626 3.445312,8.117188 -0.179687,4.71875 -6.359374,3.71875 -4.039062,7.882812 2.320312,4.164063 4.898438,-1.304687 9.09375,1.195313 4.195312,2.492187 0.179688,7.109375 5.125,7.265625 4.945312,0.148438 1.273438,-4.695312 5.648438,-6.921875 4.367187,-2.226563 6.539062,3.390625 9.164062,-0.617187 2.625,-4.015626 -3.617188,-3.390626 -3.445312,-8.109376 0.179687,-4.726562 6.359374,-3.71875 4.039062,-7.890624 -2.320312,-4.164063 -4.898438,1.304687 -9.09375,-1.1875 -4.195312,-2.5 -0.179688,-7.117188 -5.125,-7.265626 -0.617188,-0.02344 -1.109375,0.01563 -1.492188,0.132813 z m 0.04688,12.023437 c 2.210937,-0.453124 4.375,0.898438 4.84375,3.023438 0.46875,2.117188 -0.9375,4.203125 -3.140626,4.648438 -2.210937,0.453124 -4.375,-0.898438 -4.84375,-3.023438 -0.46875,-2.117188 0.9375,-4.195312 3.140626,-4.648438 z m 0,0"
         id="path4145" />
      <path
         inkscape:connector-curvature="0"
         id="path7"
         d="M 31.101562,16.140625 C 28.429688,17 30.773438,20.976562 26.945312,22.921875 22.578125,25.148438 20.40625,19.53125 17.78125,23.539062 c -2.625,4.015626 3.617188,3.390626 3.445312,8.117188 -0.179687,4.71875 -6.359374,3.71875 -4.039062,7.882812 2.320312,4.164063 4.898438,-1.304687 9.09375,1.195313 4.195312,2.492187 0.179688,7.109375 5.125,7.265625 4.945312,0.148438 1.273438,-4.695312 5.648438,-6.921875 4.367187,-2.226563 6.539062,3.390625 9.164062,-0.617187 2.625,-4.015626 -3.617188,-3.390626 -3.445312,-8.109376 0.179687,-4.726562 6.359374,-3.71875 4.039062,-7.890624 -2.320312,-4.164063 -4.898438,1.304687 -9.09375,-1.1875 -4.195312,-2.5 -0.179688,-7.117188 -5.125,-7.265626 -0.617188,-0.02344 -1.109375,0.01563 -1.492188,0.132813 z m 0.04688,12.023437 c 2.210937,-0.453124 4.375,0.898438 4.84375,3.023438 0.46875,2.117188 -0.9375,4.203125 -3.140626,4.648438 -2.210937,0.453124 -4.375,-0.898438 -4.84375,-3.023438 -0.46875,-2.117188 0.9375,-4.195312 3.140626,-4.648438 z m 0,0"
         style="fill:#878787;fill-opacity:1;fill-rule:nonzero;stroke:none" />
      <path
         inkscape:connector-curvature="0"
         style="fill:none;fill-opacity:1;fill-rule:nonzero;stroke:#ffffff;stroke-width:1.01095319;stroke-miterlimit:4;stroke-dasharray:none;stroke-opacity:1"
         d="m 11.663228,9.0398514 c -1.307952,0 -2.6233766,1.3154246 -2.6233766,2.6233766 l 0,40.748285 c 0,1.233211 1.3154246,2.548635 2.5486356,2.548635 l 40.823026,0 c 1.233211,0 2.548635,-1.315424 2.548635,-2.548635 l 0,-40.823026 c 0,-1.233211 -1.315424,-2.5486356 -2.548635,-2.5486356 z m 0,0"
         id="path4155" />
    </g>
  </g>
</svg>
