<?xml version="1.0" encoding="UTF-8" standalone="no"?>
<svg
   xmlns:dc="http://purl.org/dc/elements/1.1/"
   xmlns:cc="http://creativecommons.org/ns#"
   xmlns:rdf="http://www.w3.org/1999/02/22-rdf-syntax-ns#"
   xmlns:svg="http://www.w3.org/2000/svg"
   xmlns="http://www.w3.org/2000/svg"
   xmlns:sodipodi="http://sodipodi.sourceforge.net/DTD/sodipodi-0.dtd"
   xmlns:inkscape="http://www.inkscape.org/namespaces/inkscape"
   width="64px"
   height="64px"
   viewBox="0 0 64 64"
   version="1.1"
   id="svg2"
   inkscape:version="0.91 r13725"
   sodipodi:docname="application-x-desktop.svg">
  <metadata
     id="metadata17">
    <rdf:RDF>
      <cc:Work
         rdf:about="">
        <dc:format>image/svg+xml</dc:format>
        <dc:type
           rdf:resource="http://purl.org/dc/dcmitype/StillImage" />
      </cc:Work>
    </rdf:RDF>
  </metadata>
  <defs
     id="defs15">
    <filter
       inkscape:collect="always"
       style="color-interpolation-filters:sRGB"
       id="filter4185"
       x="-0.096041702"
       width="1.1920834"
       y="-0.09595833"
       height="1.1919167">
      <feGaussianBlur
         inkscape:collect="always"
         stdDeviation="0.7196875"
         id="feGaussianBlur4187" />
    </filter>
    <filter
       inkscape:collect="always"
       style="color-interpolation-filters:sRGB"
       id="filter4175"
       x="-0.098087592"
       width="1.1961752"
       y="-0.093999416"
       height="1.1879988">
      <feGaussianBlur
         inkscape:collect="always"
         stdDeviation="1.2533093"
         id="feGaussianBlur4177" />
    </filter>
  </defs>
  <sodipodi:namedview
     pagecolor="#ffffff"
     bordercolor="#666666"
     borderopacity="1"
     objecttolerance="10"
     gridtolerance="10"
     guidetolerance="10"
     inkscape:pageopacity="0"
     inkscape:pageshadow="2"
     inkscape:window-width="1301"
     inkscape:window-height="744"
     id="namedview13"
     showgrid="true"
     inkscape:zoom="7.375"
     inkscape:cx="1.4048558"
     inkscape:cy="1.8588744"
     inkscape:window-x="65"
     inkscape:window-y="24"
     inkscape:window-maximized="1"
     inkscape:current-layer="svg2">
    <inkscape:grid
       type="xygrid"
       id="grid4165" />
  </sodipodi:namedview>
  <g
     id="g4147">
    <g
       id="g4140"
       transform="translate(-0.14416378,0)">
      <path
         inkscape:connector-curvature="0"
         id="path5"
         d="M 10.671875,0 C 9.296875,0 8,1.355469 8,2.789062 L 8,61.210938 C 8,62.566406 9.375,64 10.671875,64 l 42.65625,0 C 54.625,64 56,62.566406 56,61.210938 L 56,18 38,0 Z m 0,0"
         style="fill:#dcdcdc;fill-opacity:1;fill-rule:nonzero;stroke:none" />
      <path
         style="opacity:0.35;fill:#000000;fill-opacity:1;fill-rule:nonzero;stroke:none;filter:url(#filter4185)"
         d="m 37.72725,1.2727492 0,15.2265618 c 0,1.347657 1.410156,2.773438 2.757812,2.773438 l 15.226563,0 -1,-1 -13.984375,0 c -1.108,0 -2,-0.892 -2,-2 l 0,-13.9999998 -1,-1 z"
         id="path4183"
         inkscape:connector-curvature="0"
         transform="matrix(1,0,0,0.95722054,0,0.82447778)" />
      <path
         inkscape:connector-curvature="0"
         id="path9"
         d="M 38,0 55.984375,18 40.757812,18 C 39.410156,18 38,16.574219 38,15.226562 Z m 0,0"
         style="fill:#f2f2f2;fill-opacity:1;fill-rule:nonzero;stroke:none" />
      <path
         style="opacity:0.5;fill:#ffffff;fill-opacity:1;fill-rule:nonzero;stroke:none"
         d="M 10.671875,2.0000001e-8 C 9.2968752,2.0000001e-8 8.0000002,1.3554695 8.0000002,2.7890625 l 0,1 C 8.0000002,2.3554695 9.2968752,1 10.671875,1 L 38,1 38,2e-8 l -27.328125,0 z"
         id="path4160"
         inkscape:connector-curvature="0" />
      <path
         style="opacity:0.15;fill:#000000;fill-opacity:1;fill-rule:nonzero;stroke:none"
         d="m 8.0000002,60.210938 0,1 c 0,1.355468 1.375,2.789062 2.6718748,2.789062 L 53.32812,64 C 54.62499,64 56,62.566406 56,61.210938 l 0,-1 C 56,61.566406 54.62499,63 53.32812,63 L 10.671875,63 C 9.3750002,63 8.0000002,61.566406 8.0000002,60.210938 Z"
         id="path4178"
         inkscape:connector-curvature="0" />
    </g>
    <g
       style="fill:#000000;opacity:0.35;filter:url(#filter4175)"
       id="g4167">
      <path
         style="stroke:none;fill-rule:nonzero;fill:#000000;fill-opacity:1"
         d="M 31.101562 18.8125 C 28.429688 19.664062 30.773438 23.640625 26.945312 25.585938 C 22.578125 27.8125 20.40625 22.195312 17.78125 26.210938 C 15.15625 30.21875 21.398438 29.601562 21.226562 34.320312 C 21.046875 39.039062 14.867188 38.039062 17.1875 42.203125 C 19.507812 46.367188 22.085938 40.90625 26.28125 43.398438 C 30.476562 45.890625 26.460938 50.507812 31.40625 50.664062 C 36.351562 50.820312 32.679688 45.96875 37.054688 43.742188 C 41.421875 41.515625 43.59375 47.140625 46.21875 43.125 C 48.84375 39.117188 42.601562 39.734375 42.773438 35.015625 C 42.953125 30.296875 49.132812 31.296875 46.8125 27.132812 C 44.492188 22.960938 41.914062 28.429688 37.71875 25.9375 C 33.523438 23.445312 37.539062 18.828125 32.59375 18.671875 C 31.976562 18.65625 31.484375 18.6875 31.101562 18.8125 Z M 31.148438 30.828125 C 33.359375 30.382812 35.523438 31.734375 35.992188 33.851562 C 36.460938 35.96875 35.054688 38.054688 32.851562 38.507812 C 30.640625 38.953125 28.476562 37.601562 28.007812 35.484375 C 27.539062 33.367188 28.945312 31.28125 31.148438 30.828125 Z M 31.148438 30.828125 "
         id="path4169" />
    </g>
    <g
       id="surface1">
      <path
         id="path11"
         d="M 31.101562 18.8125 C 28.429688 19.664062 30.773438 23.640625 26.945312 25.585938 C 22.578125 27.8125 20.40625 22.195312 17.78125 26.210938 C 15.15625 30.21875 21.398438 29.601562 21.226562 34.320312 C 21.046875 39.039062 14.867188 38.039062 17.1875 42.203125 C 19.507812 46.367188 22.085938 40.90625 26.28125 43.398438 C 30.476562 45.890625 26.460938 50.507812 31.40625 50.664062 C 36.351562 50.820312 32.679688 45.96875 37.054688 43.742188 C 41.421875 41.515625 43.59375 47.140625 46.21875 43.125 C 48.84375 39.117188 42.601562 39.734375 42.773438 35.015625 C 42.953125 30.296875 49.132812 31.296875 46.8125 27.132812 C 44.492188 22.960938 41.914062 28.429688 37.71875 25.9375 C 33.523438 23.445312 37.539062 18.828125 32.59375 18.671875 C 31.976562 18.65625 31.484375 18.6875 31.101562 18.8125 Z M 31.148438 30.828125 C 33.359375 30.382812 35.523438 31.734375 35.992188 33.851562 C 36.460938 35.96875 35.054688 38.054688 32.851562 38.507812 C 30.640625 38.953125 28.476562 37.601562 28.007812 35.484375 C 27.539062 33.367188 28.945312 31.28125 31.148438 30.828125 Z M 31.148438 30.828125 "
         style=" stroke:none;fill-rule:nonzero;fill:rgb(53.333333%,53.333333%,53.333333%);fill-opacity:1;" />
    </g>
  </g>
</svg>
