<?xml version="1.0" encoding="UTF-8" standalone="no"?>
<svg
   xmlns:dc="http://purl.org/dc/elements/1.1/"
   xmlns:cc="http://creativecommons.org/ns#"
   xmlns:rdf="http://www.w3.org/1999/02/22-rdf-syntax-ns#"
   xmlns:svg="http://www.w3.org/2000/svg"
   xmlns="http://www.w3.org/2000/svg"
   xmlns:sodipodi="http://sodipodi.sourceforge.net/DTD/sodipodi-0.dtd"
   xmlns:inkscape="http://www.inkscape.org/namespaces/inkscape"
   width="64px"
   height="64px"
   viewBox="0 0 64 64"
   version="1.1"
   id="svg2"
   inkscape:version="0.91 r13725"
   sodipodi:docname="application-vnd.oasis.opendocument.drawing-template.svg">
  <metadata
     id="metadata21">
    <rdf:RDF>
      <cc:Work
         rdf:about="">
        <dc:format>image/svg+xml</dc:format>
        <dc:type
           rdf:resource="http://purl.org/dc/dcmitype/StillImage" />
      </cc:Work>
    </rdf:RDF>
  </metadata>
  <defs
     id="defs19">
    <filter
       inkscape:collect="always"
       style="color-interpolation-filters:sRGB"
       id="filter4168"
       x="-0.14442188"
       width="1.2888438"
       y="-0.14442188"
       height="1.2888438">
      <feGaussianBlur
         inkscape:collect="always"
         stdDeviation="1.4442188"
         id="feGaussianBlur4170" />
    </filter>
    <filter
       inkscape:collect="always"
       style="color-interpolation-filters:sRGB"
       id="filter4172"
       x="-0.39879907"
       width="1.7975981"
       y="-0.3097131"
       height="1.6194262">
      <feGaussianBlur
         inkscape:collect="always"
         stdDeviation="1.4442188"
         id="feGaussianBlur4174" />
    </filter>
    <filter
       inkscape:collect="always"
       style="color-interpolation-filters:sRGB"
       id="filter4176"
       x="-0.39542246"
       width="1.7908449"
       y="-0.32325247"
       height="1.6465049">
      <feGaussianBlur
         inkscape:collect="always"
         stdDeviation="1.4442188"
         id="feGaussianBlur4178" />
    </filter>
    <filter
       inkscape:collect="always"
       style="color-interpolation-filters:sRGB"
       id="filter4180"
       x="-0.40721798"
       width="1.814436"
       y="-0.3097131"
       height="1.6194262">
      <feGaussianBlur
         inkscape:collect="always"
         stdDeviation="1.4442188"
         id="feGaussianBlur4182" />
    </filter>
  </defs>
  <sodipodi:namedview
     pagecolor="#ffffff"
     bordercolor="#666666"
     borderopacity="1"
     objecttolerance="10"
     gridtolerance="10"
     guidetolerance="10"
     inkscape:pageopacity="0"
     inkscape:pageshadow="2"
     inkscape:window-width="1301"
     inkscape:window-height="744"
     id="namedview17"
     showgrid="false"
     inkscape:zoom="3.6875"
     inkscape:cx="93.528926"
     inkscape:cy="43.560711"
     inkscape:window-x="65"
     inkscape:window-y="24"
     inkscape:window-maximized="1"
     inkscape:current-layer="svg2" />
  <g
     id="g3354">
    <g
       id="surface1">
      <path
         id="path5"
         d="M 10.6875 0 C 9.3125 0 8 1.378906 8 2.8125 L 8 61.1875 C 8 62.539062 9.390625 64 10.6875 64 L 53.3125 64 C 54.609375 64 56 62.539062 56 61.1875 L 56 2.75 C 56 1.402344 54.597656 0 53.25 0 Z M 10.6875 0 "
         style=" stroke:none;fill-rule:nonzero;fill:rgb(92.941176%,68.627451%,0.784314%);fill-opacity:1;" />
      <path
         id="path7"
         d="M 8 48 L 8 61.335938 C 8 62.632812 9.375 64 10.664062 64 L 53.335938 64 C 54.625 64 56 62.632812 56 61.335938 L 56 48 Z M 8 48 "
         style=" stroke:none;fill-rule:nonzero;fill:rgb(0%,0%,0%);fill-opacity:0.196078;" />
      <path
         style="stroke:none;fill-rule:nonzero;fill:#000000;fill-opacity:1;filter:url(#filter4168);opacity:0.35"
         d="M 20 42 L 20 18 L 44 18 L 44 42 L 30 42 L 30 30 L 36 30 L 36 34 L 34 34 L 34 38 L 40 38 L 40 22 L 24 22 L 24 42 Z M 20 42 "
         id="path4160" />
      <path
         id="path9"
         d="M 20 42 L 20 18 L 44 18 L 44 42 L 30 42 L 30 30 L 36 30 L 36 34 L 34 34 L 34 38 L 40 38 L 40 22 L 24 22 L 24 42 Z M 20 42 "
         style=" stroke:none;fill-rule:nonzero;fill:rgb(100%,100%,100%);fill-opacity:1;" />
      <path
         style="stroke:none;fill-rule:nonzero;fill:#000000;fill-opacity:1;filter:url(#filter4172);opacity:0.35"
         d="M 20.441406 56.617188 C 20.441406 57.144531 20.46875 57.636719 20.5 58.09375 C 20.558594 58.546875 20.648438 58.9375 20.777344 59.273438 C 20.917969 59.613281 21.117188 59.875 21.359375 60.070312 C 21.605469 60.265625 21.933594 60.367188 22.351562 60.367188 C 22.753906 60.367188 23.082031 60.265625 23.328125 60.070312 C 23.582031 59.875 23.78125 59.613281 23.910156 59.273438 C 24.050781 58.921875 24.148438 58.527344 24.183594 58.078125 C 24.238281 57.628906 24.265625 57.144531 24.265625 56.617188 C 24.265625 56.101562 24.238281 55.617188 24.183594 55.167969 C 24.148438 54.699219 24.050781 54.304688 23.910156 53.96875 C 23.78125 53.632812 23.589844 53.371094 23.34375 53.175781 C 23.097656 52.976562 22.773438 52.878906 22.351562 52.878906 C 21.933594 52.878906 21.605469 52.976562 21.359375 53.175781 C 21.117188 53.371094 20.917969 53.640625 20.777344 53.988281 C 20.648438 54.324219 20.558594 54.714844 20.5 55.167969 C 20.46875 55.617188 20.441406 56.101562 20.441406 56.617188 M 18.007812 56.617188 C 18.007812 54.773438 18.394531 53.378906 19.15625 52.445312 C 19.925781 51.496094 20.992188 51.027344 22.351562 51.027344 C 23.773438 51.027344 24.847656 51.496094 25.582031 52.445312 C 26.328125 53.378906 26.699219 54.773438 26.699219 56.617188 C 26.699219 58.472656 26.320312 59.867188 25.566406 60.816406 C 24.8125 61.75 23.746094 62.21875 22.371094 62.21875 C 20.960938 62.21875 19.878906 61.75 19.121094 60.816406 C 18.375 59.867188 18.007812 58.472656 18.007812 56.617188 "
         id="path4162" />
      <path
         id="path11"
         d="M 20.441406 56.617188 C 20.441406 57.144531 20.46875 57.636719 20.5 58.09375 C 20.558594 58.546875 20.648438 58.9375 20.777344 59.273438 C 20.917969 59.613281 21.117188 59.875 21.359375 60.070312 C 21.605469 60.265625 21.933594 60.367188 22.351562 60.367188 C 22.753906 60.367188 23.082031 60.265625 23.328125 60.070312 C 23.582031 59.875 23.78125 59.613281 23.910156 59.273438 C 24.050781 58.921875 24.148438 58.527344 24.183594 58.078125 C 24.238281 57.628906 24.265625 57.144531 24.265625 56.617188 C 24.265625 56.101562 24.238281 55.617188 24.183594 55.167969 C 24.148438 54.699219 24.050781 54.304688 23.910156 53.96875 C 23.78125 53.632812 23.589844 53.371094 23.34375 53.175781 C 23.097656 52.976562 22.773438 52.878906 22.351562 52.878906 C 21.933594 52.878906 21.605469 52.976562 21.359375 53.175781 C 21.117188 53.371094 20.917969 53.640625 20.777344 53.988281 C 20.648438 54.324219 20.558594 54.714844 20.5 55.167969 C 20.46875 55.617188 20.441406 56.101562 20.441406 56.617188 M 18.007812 56.617188 C 18.007812 54.773438 18.394531 53.378906 19.15625 52.445312 C 19.925781 51.496094 20.992188 51.027344 22.351562 51.027344 C 23.773438 51.027344 24.847656 51.496094 25.582031 52.445312 C 26.328125 53.378906 26.699219 54.773438 26.699219 56.617188 C 26.699219 58.472656 26.320312 59.867188 25.566406 60.816406 C 24.8125 61.75 23.746094 62.21875 22.371094 62.21875 C 20.960938 62.21875 19.878906 61.75 19.121094 60.816406 C 18.375 59.867188 18.007812 58.472656 18.007812 56.617188 "
         style=" stroke:none;fill-rule:nonzero;fill:rgb(100%,100%,100%);fill-opacity:1;" />
      <path
         style="stroke:none;fill-rule:nonzero;fill:#000000;fill-opacity:1;filter:url(#filter4176);opacity:0.35"
         d="M 36.472656 51.265625 L 36.472656 53.035156 L 33.300781 53.035156 L 33.300781 61.988281 L 30.878906 61.988281 L 30.878906 53.035156 L 27.707031 53.035156 L 27.707031 51.265625 L 36.472656 51.265625 "
         id="path4164" />
      <path
         id="path13"
         d="M 36.472656 51.265625 L 36.472656 53.035156 L 33.300781 53.035156 L 33.300781 61.988281 L 30.878906 61.988281 L 30.878906 53.035156 L 27.707031 53.035156 L 27.707031 51.265625 L 36.472656 51.265625 "
         style=" stroke:none;fill-rule:nonzero;fill:rgb(100%,100%,100%);fill-opacity:1;" />
      <path
         style="stroke:none;fill-rule:nonzero;fill:#000000;fill-opacity:1;filter:url(#filter4180);opacity:0.35"
         d="M 43.039062 52.878906 C 42.464844 52.878906 41.980469 52.96875 41.597656 53.160156 C 41.203125 53.339844 40.882812 53.601562 40.621094 53.9375 C 40.375 54.257812 40.195312 54.652344 40.082031 55.109375 C 39.972656 55.5625 39.925781 56.070312 39.925781 56.617188 C 39.925781 57.90625 40.144531 58.847656 40.605469 59.464844 C 41.054688 60.0625 41.726562 60.367188 42.605469 60.367188 C 42.753906 60.367188 42.910156 60.359375 43.074219 60.347656 C 43.246094 60.332031 43.402344 60.316406 43.539062 60.292969 L 43.539062 56.382812 L 45.941406 56.382812 L 45.941406 61.734375 C 45.65625 61.824219 45.203125 61.933594 44.597656 62.046875 C 44 62.160156 43.269531 62.21875 42.417969 62.21875 C 41.664062 62.21875 40.980469 62.105469 40.367188 61.875 C 39.769531 61.628906 39.261719 61.277344 38.832031 60.816406 C 38.398438 60.339844 38.070312 59.757812 37.832031 59.0625 C 37.605469 58.355469 37.488281 57.546875 37.488281 56.617188 C 37.488281 55.707031 37.621094 54.90625 37.898438 54.214844 C 38.167969 53.511719 38.539062 52.921875 39.007812 52.445312 C 39.472656 51.96875 40.023438 51.617188 40.664062 51.386719 C 41.292969 51.140625 41.980469 51.027344 42.703125 51.027344 C 43.171875 51.027344 43.589844 51.058594 43.949219 51.125 C 44.328125 51.183594 44.65625 51.257812 44.925781 51.339844 C 45.195312 51.421875 45.417969 51.503906 45.589844 51.59375 C 45.769531 51.691406 45.910156 51.757812 46 51.804688 L 45.375 53.503906 C 45.089844 53.339844 44.738281 53.199219 44.320312 53.070312 C 43.910156 52.945312 43.476562 52.878906 43.039062 52.878906 "
         id="path4166" />
      <path
         id="path15"
         d="M 43.039062 52.878906 C 42.464844 52.878906 41.980469 52.96875 41.597656 53.160156 C 41.203125 53.339844 40.882812 53.601562 40.621094 53.9375 C 40.375 54.257812 40.195312 54.652344 40.082031 55.109375 C 39.972656 55.5625 39.925781 56.070312 39.925781 56.617188 C 39.925781 57.90625 40.144531 58.847656 40.605469 59.464844 C 41.054688 60.0625 41.726562 60.367188 42.605469 60.367188 C 42.753906 60.367188 42.910156 60.359375 43.074219 60.347656 C 43.246094 60.332031 43.402344 60.316406 43.539062 60.292969 L 43.539062 56.382812 L 45.941406 56.382812 L 45.941406 61.734375 C 45.65625 61.824219 45.203125 61.933594 44.597656 62.046875 C 44 62.160156 43.269531 62.21875 42.417969 62.21875 C 41.664062 62.21875 40.980469 62.105469 40.367188 61.875 C 39.769531 61.628906 39.261719 61.277344 38.832031 60.816406 C 38.398438 60.339844 38.070312 59.757812 37.832031 59.0625 C 37.605469 58.355469 37.488281 57.546875 37.488281 56.617188 C 37.488281 55.707031 37.621094 54.90625 37.898438 54.214844 C 38.167969 53.511719 38.539062 52.921875 39.007812 52.445312 C 39.472656 51.96875 40.023438 51.617188 40.664062 51.386719 C 41.292969 51.140625 41.980469 51.027344 42.703125 51.027344 C 43.171875 51.027344 43.589844 51.058594 43.949219 51.125 C 44.328125 51.183594 44.65625 51.257812 44.925781 51.339844 C 45.195312 51.421875 45.417969 51.503906 45.589844 51.59375 C 45.769531 51.691406 45.910156 51.757812 46 51.804688 L 45.375 53.503906 C 45.089844 53.339844 44.738281 53.199219 44.320312 53.070312 C 43.910156 52.945312 43.476562 52.878906 43.039062 52.878906 "
         style=" stroke:none;fill-rule:nonzero;fill:rgb(100%,100%,100%);fill-opacity:1;" />
    </g>
    <g
       id="g4161">
      <path
         inkscape:connector-curvature="0"
         id="path4178"
         d="m 7.9999995,60.210938 0,1 c 0,1.355468 1.375,2.789062 2.6718755,2.789062 l 42.656244,0 C 54.624989,64 56,62.566406 56,61.210938 l 0,-1 C 56,61.566406 54.624989,63 53.328119,63 L 10.671875,63 C 9.3749995,63 7.9999995,61.566406 7.9999995,60.210938 Z"
         style="opacity:0.15;fill:#000000;fill-opacity:1;fill-rule:nonzero;stroke:none" />
      <path
         style="opacity:0.5;fill:#ffffff;fill-opacity:1;fill-rule:nonzero;stroke:none"
         d="m 7.9999998,3.789062 0,-1 C 7.9999998,1.433594 9.3749999,0 10.671875,0 L 53.328119,0 C 54.624989,0 56,1.433594 56,2.789062 l 0,1 C 56,2.433594 54.624989,1 53.328119,1 L 10.671875,1 C 9.3749998,1 7.9999998,2.433594 7.9999998,3.789062 Z"
         id="path4159"
         inkscape:connector-curvature="0" />
    </g>
  </g>
</svg>
