<?xml version="1.0" encoding="UTF-8" standalone="no"?>
<svg
   xmlns:dc="http://purl.org/dc/elements/1.1/"
   xmlns:cc="http://creativecommons.org/ns#"
   xmlns:rdf="http://www.w3.org/1999/02/22-rdf-syntax-ns#"
   xmlns:svg="http://www.w3.org/2000/svg"
   xmlns="http://www.w3.org/2000/svg"
   xmlns:sodipodi="http://sodipodi.sourceforge.net/DTD/sodipodi-0.dtd"
   xmlns:inkscape="http://www.inkscape.org/namespaces/inkscape"
   width="64px"
   height="64px"
   viewBox="0 0 64 64"
   version="1.1"
   id="svg2"
   inkscape:version="0.48.4 r9939"
   sodipodi:docname="stock_smart-playlist.svg">
  <metadata
     id="metadata25">
    <rdf:RDF>
      <cc:Work
         rdf:about="">
        <dc:format>image/svg+xml</dc:format>
        <dc:type
           rdf:resource="http://purl.org/dc/dcmitype/StillImage" />
      </cc:Work>
    </rdf:RDF>
  </metadata>
  <defs
     id="defs23">
    <filter
       color-interpolation-filters="sRGB"
       inkscape:collect="always"
       id="filter4185-9"
       x="-0.096041702"
       width="1.1920834"
       y="-0.09595833"
       height="1.1919167">
      <feGaussianBlur
         inkscape:collect="always"
         stdDeviation="0.7196875"
         id="feGaussianBlur4187-8" />
    </filter>
    <filter
       inkscape:collect="always"
       id="filter3824"
       x="-0.085220788"
       width="1.1704416"
       y="-0.10990089"
       height="1.2198018">
      <feGaussianBlur
         inkscape:collect="always"
         stdDeviation="1.0178808"
         id="feGaussianBlur3826" />
    </filter>
  </defs>
  <sodipodi:namedview
     pagecolor="#ffffff"
     bordercolor="#666666"
     borderopacity="1"
     objecttolerance="10"
     gridtolerance="10"
     guidetolerance="10"
     inkscape:pageopacity="0"
     inkscape:pageshadow="2"
     inkscape:window-width="1301"
     inkscape:window-height="744"
     id="namedview21"
     showgrid="true"
     inkscape:zoom="5.2149125"
     inkscape:cx="-10.663594"
     inkscape:cy="18.322019"
     inkscape:window-x="65"
     inkscape:window-y="24"
     inkscape:window-maximized="1"
     inkscape:current-layer="svg2">
    <inkscape:grid
       type="xygrid"
       id="grid3042" />
  </sodipodi:namedview>
  <g
     id="g3828">
    <g
       transform="translate(0.28406803,0)"
       id="g4527">
      <path
         style="fill:#994a85;fill-opacity:1;fill-rule:nonzero;stroke:none"
         d="M 10.671875,0 C 9.296875,0 8,1.355469 8,2.789062 L 8,61.210938 C 8,62.566406 9.375,64 10.671875,64 l 42.65625,0 C 54.625,64 56,62.566406 56,61.210938 L 56,18 38,0 z m 0,0"
         id="path4529"
         inkscape:connector-curvature="0" />
      <path
         transform="matrix(1.0025082,0,0,0.97195189,-0.11718099,0.56622908)"
         inkscape:connector-curvature="0"
         id="path4531"
         d="m 37.72725,1.2727492 0,15.2265618 c 0,1.347657 1.410156,2.773438 2.757812,2.773438 l 15.226563,0 -1,-1 -13.984375,0 c -1.108,0 -2,-0.892 -2,-2 l 0,-13.9999998 -1,-1 z"
         style="opacity:0.35;fill:#000000;fill-opacity:1;fill-rule:nonzero;stroke:none;filter:url(#filter4185-9)" />
      <path
         style="fill:#ee88d3;fill-opacity:1;fill-rule:nonzero;stroke:none"
         d="M 38,0 55.984375,18 40.757812,18 C 39.410156,18 38,16.574219 38,15.226562 z m 0,0"
         id="path4533"
         inkscape:connector-curvature="0" />
      <path
         inkscape:connector-curvature="0"
         id="path4535"
         d="M 10.671875,0 C 9.2968754,0 8.0000004,1.3554695 8.0000004,2.7890625 l 0,1 C 8.0000004,2.3554695 9.2968754,1 10.671875,1 L 38,1 38,0 10.671875,0 z"
         style="opacity:0.5;fill:#ffffff;fill-opacity:1;fill-rule:nonzero;stroke:none" />
      <path
         inkscape:connector-curvature="0"
         id="path4537"
         d="m 8.0000004,60.210938 0,1 c 0,1.355468 1.375,2.789062 2.6718746,2.789062 L 53.32812,64 C 54.62499,64 56,62.566406 56,61.210938 l 0,-1 C 56,61.566406 54.62499,63 53.32812,63 L 10.671875,63 C 9.3750004,63 8.0000004,61.566406 8.0000004,60.210938 z"
         style="opacity:0.15;fill:#000000;fill-opacity:1;fill-rule:nonzero;stroke:none" />
    </g>
    <g
       style="fill:#000000;opacity:0.34999999999999998;filter:url(#filter3824)"
       id="g3044">
      <path
         style="stroke:none;fill-rule:nonzero;fill:#000000;fill-opacity:1"
         d="M 26.9375 26.90625 C 25.382812 27.296875 24.078125 28.726562 24.078125 28.726562 L 24.117188 28.765625 L 26.609375 38.015625 C 24.828125 37.046875 22.289062 37.289062 20.1875 38.8125 C 17.46875 40.773438 16.523438 44.117188 18.09375 46.273438 C 19.671875 48.4375 23.140625 48.585938 25.859375 46.625 C 28 45.070312 29.1875 42.632812 28.757812 40.632812 C 28.75 40.570312 28.726562 40.507812 28.710938 40.445312 L 26.320312 31.203125 C 26.375 31.125 27.078125 30.804688 29.328125 30.648438 C 31.71875 30.492188 33.335938 26.664062 33.335938 26.664062 C 33.335938 26.664062 30.648438 27.695312 28.539062 26.953125 C 28.007812 26.765625 27.453125 26.773438 26.9375 26.90625 Z M 26.9375 26.90625 "
         id="path3046" />
      <path
         style="stroke:none;fill-rule:nonzero;fill:#000000;fill-opacity:1"
         d="M 32 38 L 32 40 L 46 40 L 46 38 Z M 32 38 "
         id="path3048" />
      <path
         style="stroke:none;fill-rule:nonzero;fill:#000000;fill-opacity:1"
         d="M 32 42 L 32 44 L 46 44 L 46 42 Z M 32 42 "
         id="path3050" />
      <path
         style="stroke:none;fill-rule:nonzero;fill:#000000;fill-opacity:1"
         d="M 30 46 L 30 48 L 46 48 L 46 46 Z M 30 46 "
         id="path3052" />
      <path
         style="stroke:none;fill-rule:nonzero;fill:#000000;fill-opacity:1"
         d="M 39.445312 25.773438 C 39.195312 25.773438 39 25.976562 39 26.21875 L 39 27.21875 C 38.554688 27.320312 38.140625 27.5 37.765625 27.734375 L 37.054688 27.023438 C 36.882812 26.851562 36.601562 26.851562 36.429688 27.023438 L 35.804688 27.648438 C 35.632812 27.828125 35.632812 28.101562 35.804688 28.273438 L 36.515625 28.984375 C 36.273438 29.359375 36.101562 29.773438 36 30.21875 L 35 30.21875 C 34.75 30.21875 34.554688 30.421875 34.554688 30.664062 L 34.554688 31.554688 C 34.554688 31.796875 34.75 32 35 32 L 36 32 C 36.101562 32.445312 36.273438 32.859375 36.515625 33.234375 L 35.804688 33.945312 C 35.632812 34.117188 35.632812 34.390625 35.804688 34.570312 L 36.429688 35.195312 C 36.601562 35.367188 36.882812 35.367188 37.054688 35.195312 L 37.765625 34.484375 C 38.140625 34.71875 38.554688 34.898438 39 35 L 39 36 C 39 36.242188 39.195312 36.445312 39.445312 36.445312 L 40.335938 36.445312 C 40.578125 36.445312 40.773438 36.242188 40.773438 36 L 40.773438 35 C 41.226562 34.898438 41.640625 34.71875 42.015625 34.484375 L 42.71875 35.195312 C 42.898438 35.367188 43.171875 35.367188 43.34375 35.195312 L 43.96875 34.570312 C 44.148438 34.390625 44.148438 34.117188 43.96875 33.945312 L 43.265625 33.234375 C 43.5 32.859375 43.671875 32.445312 43.773438 32 L 44.773438 32 C 45.023438 32 45.21875 31.796875 45.21875 31.554688 L 45.21875 30.664062 C 45.21875 30.421875 45.023438 30.21875 44.773438 30.21875 L 43.773438 30.21875 C 43.671875 29.773438 43.5 29.359375 43.265625 28.984375 L 43.96875 28.273438 C 44.148438 28.101562 44.148438 27.828125 43.96875 27.648438 L 43.34375 27.023438 C 43.171875 26.851562 42.898438 26.851562 42.71875 27.023438 L 42.015625 27.734375 C 41.640625 27.5 41.226562 27.320312 40.773438 27.21875 L 40.773438 26.21875 C 40.773438 25.976562 40.578125 25.773438 40.335938 25.773438 Z M 39.890625 29.328125 C 40.867188 29.328125 41.664062 30.125 41.664062 31.109375 C 41.664062 32.09375 40.867188 32.890625 39.890625 32.890625 C 38.90625 32.890625 38.109375 32.09375 38.109375 31.109375 C 38.109375 30.125 38.90625 29.328125 39.890625 29.328125 Z M 39.890625 29.328125 "
         id="path3054" />
    </g>
    <g
       id="surface1">
      <path
         id="path11"
         d="M 26.9375 26.90625 C 25.382812 27.296875 24.078125 28.726562 24.078125 28.726562 L 24.117188 28.765625 L 26.609375 38.015625 C 24.828125 37.046875 22.289062 37.289062 20.1875 38.8125 C 17.46875 40.773438 16.523438 44.117188 18.09375 46.273438 C 19.671875 48.4375 23.140625 48.585938 25.859375 46.625 C 28 45.070312 29.1875 42.632812 28.757812 40.632812 C 28.75 40.570312 28.726562 40.507812 28.710938 40.445312 L 26.320312 31.203125 C 26.375 31.125 27.078125 30.804688 29.328125 30.648438 C 31.71875 30.492188 33.335938 26.664062 33.335938 26.664062 C 33.335938 26.664062 30.648438 27.695312 28.539062 26.953125 C 28.007812 26.765625 27.453125 26.773438 26.9375 26.90625 Z M 26.9375 26.90625 "
         style=" stroke:none;fill-rule:nonzero;fill:rgb(100%,100%,100%);fill-opacity:1;" />
      <path
         id="path13"
         d="M 32 38 L 32 40 L 46 40 L 46 38 Z M 32 38 "
         style=" stroke:none;fill-rule:nonzero;fill:rgb(100%,100%,100%);fill-opacity:1;" />
      <path
         id="path15"
         d="M 32 42 L 32 44 L 46 44 L 46 42 Z M 32 42 "
         style=" stroke:none;fill-rule:nonzero;fill:rgb(100%,100%,100%);fill-opacity:1;" />
      <path
         id="path17"
         d="M 30 46 L 30 48 L 46 48 L 46 46 Z M 30 46 "
         style=" stroke:none;fill-rule:nonzero;fill:rgb(100%,100%,100%);fill-opacity:1;" />
      <path
         id="path19"
         d="M 39.445312 25.773438 C 39.195312 25.773438 39 25.976562 39 26.21875 L 39 27.21875 C 38.554688 27.320312 38.140625 27.5 37.765625 27.734375 L 37.054688 27.023438 C 36.882812 26.851562 36.601562 26.851562 36.429688 27.023438 L 35.804688 27.648438 C 35.632812 27.828125 35.632812 28.101562 35.804688 28.273438 L 36.515625 28.984375 C 36.273438 29.359375 36.101562 29.773438 36 30.21875 L 35 30.21875 C 34.75 30.21875 34.554688 30.421875 34.554688 30.664062 L 34.554688 31.554688 C 34.554688 31.796875 34.75 32 35 32 L 36 32 C 36.101562 32.445312 36.273438 32.859375 36.515625 33.234375 L 35.804688 33.945312 C 35.632812 34.117188 35.632812 34.390625 35.804688 34.570312 L 36.429688 35.195312 C 36.601562 35.367188 36.882812 35.367188 37.054688 35.195312 L 37.765625 34.484375 C 38.140625 34.71875 38.554688 34.898438 39 35 L 39 36 C 39 36.242188 39.195312 36.445312 39.445312 36.445312 L 40.335938 36.445312 C 40.578125 36.445312 40.773438 36.242188 40.773438 36 L 40.773438 35 C 41.226562 34.898438 41.640625 34.71875 42.015625 34.484375 L 42.71875 35.195312 C 42.898438 35.367188 43.171875 35.367188 43.34375 35.195312 L 43.96875 34.570312 C 44.148438 34.390625 44.148438 34.117188 43.96875 33.945312 L 43.265625 33.234375 C 43.5 32.859375 43.671875 32.445312 43.773438 32 L 44.773438 32 C 45.023438 32 45.21875 31.796875 45.21875 31.554688 L 45.21875 30.664062 C 45.21875 30.421875 45.023438 30.21875 44.773438 30.21875 L 43.773438 30.21875 C 43.671875 29.773438 43.5 29.359375 43.265625 28.984375 L 43.96875 28.273438 C 44.148438 28.101562 44.148438 27.828125 43.96875 27.648438 L 43.34375 27.023438 C 43.171875 26.851562 42.898438 26.851562 42.71875 27.023438 L 42.015625 27.734375 C 41.640625 27.5 41.226562 27.320312 40.773438 27.21875 L 40.773438 26.21875 C 40.773438 25.976562 40.578125 25.773438 40.335938 25.773438 Z M 39.890625 29.328125 C 40.867188 29.328125 41.664062 30.125 41.664062 31.109375 C 41.664062 32.09375 40.867188 32.890625 39.890625 32.890625 C 38.90625 32.890625 38.109375 32.09375 38.109375 31.109375 C 38.109375 30.125 38.90625 29.328125 39.890625 29.328125 Z M 39.890625 29.328125 "
         style=" stroke:none;fill-rule:nonzero;fill:rgb(100%,100%,100%);fill-opacity:1;" />
    </g>
  </g>
</svg>
