<?xml version="1.0" encoding="UTF-8" standalone="no"?>
<svg
   xmlns:dc="http://purl.org/dc/elements/1.1/"
   xmlns:cc="http://creativecommons.org/ns#"
   xmlns:rdf="http://www.w3.org/1999/02/22-rdf-syntax-ns#"
   xmlns:svg="http://www.w3.org/2000/svg"
   xmlns="http://www.w3.org/2000/svg"
   xmlns:sodipodi="http://sodipodi.sourceforge.net/DTD/sodipodi-0.dtd"
   xmlns:inkscape="http://www.inkscape.org/namespaces/inkscape"
   width="64px"
   height="64px"
   viewBox="0 0 64 64"
   version="1.1"
   id="svg2"
   inkscape:version="0.91 r13725"
   sodipodi:docname="extension.svg">
  <metadata
     id="metadata21">
    <rdf:RDF>
      <cc:Work
         rdf:about="">
        <dc:format>image/svg+xml</dc:format>
        <dc:type
           rdf:resource="http://purl.org/dc/dcmitype/StillImage" />
      </cc:Work>
    </rdf:RDF>
  </metadata>
  <defs
     id="defs19">
    <filter
       inkscape:collect="always"
       style="color-interpolation-filters:sRGB"
       id="filter4185-96"
       x="-0.096041702"
       width="1.1920834"
       y="-0.09595833"
       height="1.1919167">
      <feGaussianBlur
         inkscape:collect="always"
         stdDeviation="0.7196875"
         id="feGaussianBlur4187-26" />
    </filter>
    <filter
       inkscape:collect="always"
       style="color-interpolation-filters:sRGB"
       id="filter4200"
       x="-0.096"
       width="1.192"
       y="-0.096"
       height="1.192">
      <feGaussianBlur
         inkscape:collect="always"
         stdDeviation="0.85343752"
         id="feGaussianBlur4202" />
    </filter>
  </defs>
  <sodipodi:namedview
     pagecolor="#ffffff"
     bordercolor="#666666"
     borderopacity="1"
     objecttolerance="10"
     gridtolerance="10"
     guidetolerance="10"
     inkscape:pageopacity="0"
     inkscape:pageshadow="2"
     inkscape:window-width="652"
     inkscape:window-height="480"
     id="namedview17"
     showgrid="false"
     inkscape:zoom="3.6875"
     inkscape:cx="18.123863"
     inkscape:cy="26.203243"
     inkscape:window-x="411"
     inkscape:window-y="204"
     inkscape:window-maximized="0"
     inkscape:current-layer="svg2" />
  <g
     transform="translate(-0.71943709,0)"
     id="g4260">
    <path
       style="fill:#878787;fill-opacity:1;fill-rule:nonzero;stroke:none"
       d="M 10.671875,0 C 9.296875,0 8,1.355469 8,2.789062 L 8,61.210938 C 8,62.566406 9.375,64 10.671875,64 l 42.65625,0 C 54.625,64 56,62.566406 56,61.210938 L 56,18 38,0 Z m 0,0"
       id="path4263"
       inkscape:connector-curvature="0" />
    <path
       inkscape:connector-curvature="0"
       id="path4265"
       d="m 37.72725,1.2727492 0,15.2265618 c 0,1.347657 1.410156,2.773438 2.757812,2.773438 l 15.226563,0 -1,-1 -13.984375,0 c -1.108,0 -2,-0.892 -2,-2 l 0,-13.9999998 -1,-1 z"
       style="opacity:0.35;fill:#000000;fill-opacity:1;fill-rule:nonzero;stroke:none;filter:url(#filter4185-96)"
       transform="matrix(1,0,0,0.95722054,0,0.82447778)" />
    <path
       style="fill:#b6b6b6;fill-opacity:1;fill-rule:nonzero;stroke:none"
       d="M 38,0 55.984375,18 40.757812,18 C 39.410156,18 38,16.574219 38,15.226562 Z m 0,0"
       id="path4267"
       inkscape:connector-curvature="0" />
    <path
       inkscape:connector-curvature="0"
       id="path4269"
       d="M 10.671875,2.0000001e-8 C 9.2968752,2.0000001e-8 8.0000002,1.3554695 8.0000002,2.7890625 l 0,1 C 8.0000002,2.3554695 9.2968752,1 10.671875,1 L 38,1 38,2e-8 l -27.328125,0 z"
       style="opacity:0.5;fill:#ffffff;fill-opacity:1;fill-rule:nonzero;stroke:none" />
    <path
       inkscape:connector-curvature="0"
       id="path4271"
       d="m 8.0000002,60.210938 0,1 c 0,1.355468 1.375,2.789062 2.6718748,2.789062 L 53.32812,64 C 54.62499,64 56,62.566406 56,61.210938 l 0,-1 C 56,61.566406 54.62499,63 53.32812,63 L 10.671875,63 C 9.3750002,63 8.0000002,61.566406 8.0000002,60.210938 Z"
       style="opacity:0.15;fill:#000000;fill-opacity:1;fill-rule:nonzero;stroke:none" />
  </g>
  <g
     id="g4184"
     style="fill:#000000;opacity:0.35;filter:url(#filter4200)">
    <path
       id="path4186"
       d="M 24 30 L 24 38 C 24 36.523438 25.195312 35.328125 26.664062 35.328125 C 28.140625 35.328125 29.335938 36.523438 29.335938 38 C 29.335938 39.46875 28.140625 40.664062 26.664062 40.664062 C 25.195312 40.664062 24 39.46875 24 38 L 24 46 L 32 46 C 30.523438 46 29.335938 44.804688 29.335938 43.328125 C 29.335938 41.859375 30.523438 40.664062 32 40.664062 C 33.476562 40.664062 34.664062 41.859375 34.664062 43.328125 C 34.664062 44.804688 33.476562 46 32 46 L 40 46 L 40 30 Z M 24 30 "
       style="stroke:none;fill-rule:nonzero;fill:#000000;fill-opacity:1" />
    <path
       id="path4188"
       d="M 34.664062 27.328125 C 34.664062 28.804688 33.46875 30 32 30 C 30.523438 30 29.335938 28.804688 29.335938 27.328125 C 29.335938 25.859375 30.523438 24.664062 32 24.664062 C 33.46875 24.664062 34.664062 25.859375 34.664062 27.328125 Z M 34.664062 27.328125 "
       style="stroke:none;fill-rule:nonzero;fill:#000000;fill-opacity:1" />
    <path
       id="path4190"
       d="M 45.335938 38 C 45.335938 39.46875 44.140625 40.664062 42.664062 40.664062 C 41.195312 40.664062 40 39.46875 40 38 C 40 36.523438 41.195312 35.328125 42.664062 35.328125 C 44.140625 35.328125 45.335938 36.523438 45.335938 38 Z M 45.335938 38 "
       style="stroke:none;fill-rule:nonzero;fill:#000000;fill-opacity:1" />
  </g>
  <g
     id="surface1">
    <path
       style=" stroke:none;fill-rule:nonzero;fill:rgb(100%,100%,100%);fill-opacity:1;"
       d="M 24 30 L 24 38 C 24 36.523438 25.195312 35.328125 26.664062 35.328125 C 28.140625 35.328125 29.335938 36.523438 29.335938 38 C 29.335938 39.46875 28.140625 40.664062 26.664062 40.664062 C 25.195312 40.664062 24 39.46875 24 38 L 24 46 L 32 46 C 30.523438 46 29.335938 44.804688 29.335938 43.328125 C 29.335938 41.859375 30.523438 40.664062 32 40.664062 C 33.476562 40.664062 34.664062 41.859375 34.664062 43.328125 C 34.664062 44.804688 33.476562 46 32 46 L 40 46 L 40 30 Z M 24 30 "
       id="path11" />
    <path
       style=" stroke:none;fill-rule:nonzero;fill:rgb(100%,100%,100%);fill-opacity:1;"
       d="M 34.664062 27.328125 C 34.664062 28.804688 33.46875 30 32 30 C 30.523438 30 29.335938 28.804688 29.335938 27.328125 C 29.335938 25.859375 30.523438 24.664062 32 24.664062 C 33.46875 24.664062 34.664062 25.859375 34.664062 27.328125 Z M 34.664062 27.328125 "
       id="path13" />
    <path
       style=" stroke:none;fill-rule:nonzero;fill:rgb(100%,100%,100%);fill-opacity:1;"
       d="M 45.335938 38 C 45.335938 39.46875 44.140625 40.664062 42.664062 40.664062 C 41.195312 40.664062 40 39.46875 40 38 C 40 36.523438 41.195312 35.328125 42.664062 35.328125 C 44.140625 35.328125 45.335938 36.523438 45.335938 38 Z M 45.335938 38 "
       id="path15" />
  </g>
</svg>
