<?xml version="1.0" encoding="UTF-8" standalone="no"?>
<svg
   xmlns:dc="http://purl.org/dc/elements/1.1/"
   xmlns:cc="http://creativecommons.org/ns#"
   xmlns:rdf="http://www.w3.org/1999/02/22-rdf-syntax-ns#"
   xmlns:svg="http://www.w3.org/2000/svg"
   xmlns="http://www.w3.org/2000/svg"
   xmlns:sodipodi="http://sodipodi.sourceforge.net/DTD/sodipodi-0.dtd"
   xmlns:inkscape="http://www.inkscape.org/namespaces/inkscape"
   width="64px"
   height="64px"
   viewBox="0 0 64 64"
   version="1.1"
   id="svg2"
   inkscape:version="0.48.4 r9939"
   sodipodi:docname="libreoffice-extension.svg">
  <metadata
     id="metadata29">
    <rdf:RDF>
      <cc:Work
         rdf:about="">
        <dc:format>image/svg+xml</dc:format>
        <dc:type
           rdf:resource="http://purl.org/dc/dcmitype/StillImage" />
      </cc:Work>
    </rdf:RDF>
  </metadata>
  <defs
     id="defs27">
    <filter
       color-interpolation-filters="sRGB"
       inkscape:collect="always"
       id="filter4185-96"
       x="-0.096041702"
       width="1.1920834"
       y="-0.09595833"
       height="1.1919167">
      <feGaussianBlur
         inkscape:collect="always"
         stdDeviation="0.7196875"
         id="feGaussianBlur4187-26" />
    </filter>
    <filter
       inkscape:collect="always"
       id="filter3884"
       x="-0.11846978"
       width="1.2369396"
       y="-0.080694868"
       height="1.1613897">
      <feGaussianBlur
         inkscape:collect="always"
         stdDeviation="1.3971875"
         id="feGaussianBlur3886" />
    </filter>
  </defs>
  <sodipodi:namedview
     pagecolor="#ffffff"
     bordercolor="#666666"
     borderopacity="1"
     objecttolerance="10"
     gridtolerance="10"
     guidetolerance="10"
     inkscape:pageopacity="0"
     inkscape:pageshadow="2"
     inkscape:window-width="1301"
     inkscape:window-height="744"
     id="namedview25"
     showgrid="true"
     inkscape:zoom="10.429825"
     inkscape:cx="42.4593"
     inkscape:cy="30.109477"
     inkscape:window-x="65"
     inkscape:window-y="24"
     inkscape:window-maximized="1"
     inkscape:current-layer="svg2">
    <inkscape:grid
       type="xygrid"
       id="grid3100" />
  </sodipodi:namedview>
  <g
     id="g3888">
    <g
       transform="translate(-8.9602189,-341)"
       id="g3454">
      <g
         id="g3456">
        <g
           transform="translate(9.015625,341)"
           id="g3458">
          <path
             style="fill:#878787;fill-opacity:1;fill-rule:nonzero;stroke:none"
             d="M 10.671875,0 C 9.296875,0 8,1.355469 8,2.789062 L 8,61.210938 C 8,62.566406 9.375,64 10.671875,64 l 42.65625,0 C 54.625,64 56,62.566406 56,61.210938 L 56,18 38,0 z m 0,0"
             id="path3460"
             inkscape:connector-curvature="0" />
          <path
             inkscape:connector-curvature="0"
             id="path3462"
             d="m 37.72725,1.2727492 0,15.2265618 c 0,1.347657 1.410156,2.773438 2.757812,2.773438 l 15.226563,0 -1,-1 -13.984375,0 c -1.108,0 -2,-0.892 -2,-2 l 0,-13.9999998 -1,-1 z"
             style="opacity:0.35;fill:#000000;fill-opacity:1;fill-rule:nonzero;stroke:none;filter:url(#filter4185-96)"
             transform="matrix(1,0,0,0.95722054,0,0.82447778)" />
          <path
             style="fill:#b6b6b6;fill-opacity:1;fill-rule:nonzero;stroke:none"
             d="M 38,0 55.984375,18 40.757812,18 C 39.410156,18 38,16.574219 38,15.226562 z m 0,0"
             id="path3464"
             inkscape:connector-curvature="0" />
          <path
             inkscape:connector-curvature="0"
             id="path3466"
             d="M 10.671875,2.0000001e-8 C 9.2968752,2.0000001e-8 8.0000002,1.3554695 8.0000002,2.7890625 l 0,1 C 8.0000002,2.3554695 9.2968752,1 10.671875,1 L 38,1 38,2e-8 l -27.328125,0 z"
             style="opacity:0.5;fill:#ffffff;fill-opacity:1;fill-rule:nonzero;stroke:none" />
          <path
             inkscape:connector-curvature="0"
             id="path3468"
             d="m 8.0000002,60.210938 0,1 c 0,1.355468 1.375,2.789062 2.6718748,2.789062 L 53.32812,64 C 54.62499,64 56,62.566406 56,61.210938 l 0,-1 C 56,61.566406 54.62499,63 53.32812,63 L 10.671875,63 C 9.3750002,63 8.0000002,61.566406 8.0000002,60.210938 z"
             style="opacity:0.15;fill:#000000;fill-opacity:1;fill-rule:nonzero;stroke:none" />
        </g>
        <path
           inkscape:connector-curvature="0"
           style="fill:#000000;fill-opacity:0.19607801;fill-rule:nonzero;stroke:none"
           d="m 17,389 0,13.33594 C 17,403.63281 18.375,405 19.664062,405 l 42.671876,0 C 63.625,405 65,403.63281 65,402.33594 L 65,389 z m 0,0"
           id="path3470" />
      </g>
    </g>
    <g
       style="fill:#000000;opacity:0.34999999999999998;filter:url(#filter3884)"
       id="g3102">
      <path
         style="stroke:none;fill-rule:nonzero;fill:#000000;fill-opacity:1"
         d="M 24 26 L 24 34 C 24 32.523438 25.195312 31.328125 26.664062 31.328125 C 28.140625 31.328125 29.335938 32.523438 29.335938 34 C 29.335938 35.46875 28.140625 36.664062 26.664062 36.664062 C 25.195312 36.664062 24 35.46875 24 34 L 24 42 L 32 42 C 30.523438 42 29.335938 40.804688 29.335938 39.328125 C 29.335938 37.859375 30.523438 36.664062 32 36.664062 C 33.476562 36.664062 34.664062 37.859375 34.664062 39.328125 C 34.664062 40.804688 33.476562 42 32 42 L 40 42 L 40 26 Z M 24 26 "
         id="path3104" />
      <path
         style="stroke:none;fill-rule:nonzero;fill:#000000;fill-opacity:1"
         d="M 34.664062 23.328125 C 34.664062 24.804688 33.46875 26 32 26 C 30.523438 26 29.335938 24.804688 29.335938 23.328125 C 29.335938 21.859375 30.523438 20.664062 32 20.664062 C 33.46875 20.664062 34.664062 21.859375 34.664062 23.328125 Z M 34.664062 23.328125 "
         id="path3106" />
      <path
         style="stroke:none;fill-rule:nonzero;fill:#000000;fill-opacity:1"
         d="M 45.335938 34 C 45.335938 35.46875 44.140625 36.664062 42.664062 36.664062 C 41.195312 36.664062 40 35.46875 40 34 C 40 32.523438 41.195312 31.328125 42.664062 31.328125 C 44.140625 31.328125 45.335938 32.523438 45.335938 34 Z M 45.335938 34 "
         id="path3108" />
      <path
         style="stroke:none;fill-rule:nonzero;fill:#000000;fill-opacity:1"
         d="M 20.140625 56.554688 C 20.140625 57.085938 20.15625 57.585938 20.199219 58.046875 C 20.25 58.503906 20.339844 58.902344 20.472656 59.242188 C 20.613281 59.582031 20.8125 59.847656 21.0625 60.046875 C 21.308594 60.246094 21.640625 60.34375 22.054688 60.34375 C 22.460938 60.34375 22.785156 60.246094 23.035156 60.046875 C 23.292969 59.847656 23.492188 59.582031 23.625 59.242188 C 23.765625 58.886719 23.855469 58.488281 23.898438 58.03125 C 23.945312 57.574219 23.972656 57.085938 23.972656 56.554688 C 23.972656 56.035156 23.945312 55.542969 23.898438 55.089844 C 23.855469 54.617188 23.765625 54.21875 23.625 53.878906 C 23.492188 53.539062 23.300781 53.273438 23.050781 53.074219 C 22.800781 52.875 22.472656 52.777344 22.054688 52.777344 C 21.640625 52.777344 21.308594 52.875 21.0625 53.074219 C 20.8125 53.273438 20.613281 53.546875 20.472656 53.894531 C 20.339844 54.234375 20.25 54.632812 20.199219 55.089844 C 20.15625 55.542969 20.140625 56.035156 20.140625 56.554688 M 17.695312 56.554688 C 17.695312 54.691406 18.085938 53.28125 18.847656 52.335938 C 19.617188 51.375 20.6875 50.902344 22.054688 50.902344 C 23.472656 50.902344 24.558594 51.375 25.296875 52.335938 C 26.042969 53.28125 26.417969 54.691406 26.417969 56.554688 C 26.417969 58.429688 26.035156 59.839844 25.28125 60.800781 C 24.527344 61.746094 23.457031 62.21875 22.074219 62.21875 C 20.65625 62.21875 19.570312 61.746094 18.816406 60.800781 C 18.070312 59.839844 17.695312 58.429688 17.695312 56.554688 "
         id="path3110" />
      <path
         style="stroke:none;fill-rule:nonzero;fill:#000000;fill-opacity:1"
         d="M 33.902344 61.988281 C 33.65625 61.398438 33.347656 60.734375 32.984375 60.011719 C 32.628906 59.285156 32.253906 58.5625 31.863281 57.839844 C 31.492188 58.53125 31.109375 59.242188 30.738281 59.996094 C 30.355469 60.726562 30.03125 61.398438 29.757812 61.988281 L 27.15625 61.988281 C 27.289062 61.671875 27.476562 61.296875 27.726562 60.851562 C 27.984375 60.410156 28.265625 59.929688 28.566406 59.417969 C 28.878906 58.902344 29.203125 58.371094 29.542969 57.839844 C 29.882812 57.285156 30.207031 56.761719 30.519531 56.257812 L 27.355469 51.140625 L 29.949219 51.140625 L 31.863281 54.617188 L 33.878906 51.140625 L 36.300781 51.140625 L 33.214844 56.207031 C 33.5625 56.714844 33.910156 57.234375 34.253906 57.78125 C 34.59375 58.332031 34.90625 58.871094 35.1875 59.398438 C 35.488281 59.914062 35.753906 60.394531 35.96875 60.851562 C 36.191406 61.296875 36.367188 61.671875 36.5 61.988281 L 33.902344 61.988281 "
         id="path3112" />
      <path
         style="stroke:none;fill-rule:nonzero;fill:#000000;fill-opacity:1"
         d="M 46 51.140625 L 46 52.933594 L 42.808594 52.933594 L 42.808594 61.988281 L 40.386719 61.988281 L 40.386719 52.933594 L 37.203125 52.933594 L 37.203125 51.140625 L 46 51.140625 "
         id="path3114" />
    </g>
    <g
       id="surface1">
      <path
         id="path11"
         d="M 24 26 L 24 34 C 24 32.523438 25.195312 31.328125 26.664062 31.328125 C 28.140625 31.328125 29.335938 32.523438 29.335938 34 C 29.335938 35.46875 28.140625 36.664062 26.664062 36.664062 C 25.195312 36.664062 24 35.46875 24 34 L 24 42 L 32 42 C 30.523438 42 29.335938 40.804688 29.335938 39.328125 C 29.335938 37.859375 30.523438 36.664062 32 36.664062 C 33.476562 36.664062 34.664062 37.859375 34.664062 39.328125 C 34.664062 40.804688 33.476562 42 32 42 L 40 42 L 40 26 Z M 24 26 "
         style=" stroke:none;fill-rule:nonzero;fill:rgb(100%,100%,100%);fill-opacity:1;" />
      <path
         id="path13"
         d="M 34.664062 23.328125 C 34.664062 24.804688 33.46875 26 32 26 C 30.523438 26 29.335938 24.804688 29.335938 23.328125 C 29.335938 21.859375 30.523438 20.664062 32 20.664062 C 33.46875 20.664062 34.664062 21.859375 34.664062 23.328125 Z M 34.664062 23.328125 "
         style=" stroke:none;fill-rule:nonzero;fill:rgb(100%,100%,100%);fill-opacity:1;" />
      <path
         id="path15"
         d="M 45.335938 34 C 45.335938 35.46875 44.140625 36.664062 42.664062 36.664062 C 41.195312 36.664062 40 35.46875 40 34 C 40 32.523438 41.195312 31.328125 42.664062 31.328125 C 44.140625 31.328125 45.335938 32.523438 45.335938 34 Z M 45.335938 34 "
         style=" stroke:none;fill-rule:nonzero;fill:rgb(100%,100%,100%);fill-opacity:1;" />
      <path
         id="path19"
         d="M 20.140625 56.554688 C 20.140625 57.085938 20.15625 57.585938 20.199219 58.046875 C 20.25 58.503906 20.339844 58.902344 20.472656 59.242188 C 20.613281 59.582031 20.8125 59.847656 21.0625 60.046875 C 21.308594 60.246094 21.640625 60.34375 22.054688 60.34375 C 22.460938 60.34375 22.785156 60.246094 23.035156 60.046875 C 23.292969 59.847656 23.492188 59.582031 23.625 59.242188 C 23.765625 58.886719 23.855469 58.488281 23.898438 58.03125 C 23.945312 57.574219 23.972656 57.085938 23.972656 56.554688 C 23.972656 56.035156 23.945312 55.542969 23.898438 55.089844 C 23.855469 54.617188 23.765625 54.21875 23.625 53.878906 C 23.492188 53.539062 23.300781 53.273438 23.050781 53.074219 C 22.800781 52.875 22.472656 52.777344 22.054688 52.777344 C 21.640625 52.777344 21.308594 52.875 21.0625 53.074219 C 20.8125 53.273438 20.613281 53.546875 20.472656 53.894531 C 20.339844 54.234375 20.25 54.632812 20.199219 55.089844 C 20.15625 55.542969 20.140625 56.035156 20.140625 56.554688 M 17.695312 56.554688 C 17.695312 54.691406 18.085938 53.28125 18.847656 52.335938 C 19.617188 51.375 20.6875 50.902344 22.054688 50.902344 C 23.472656 50.902344 24.558594 51.375 25.296875 52.335938 C 26.042969 53.28125 26.417969 54.691406 26.417969 56.554688 C 26.417969 58.429688 26.035156 59.839844 25.28125 60.800781 C 24.527344 61.746094 23.457031 62.21875 22.074219 62.21875 C 20.65625 62.21875 19.570312 61.746094 18.816406 60.800781 C 18.070312 59.839844 17.695312 58.429688 17.695312 56.554688 "
         style=" stroke:none;fill-rule:nonzero;fill:rgb(100%,100%,100%);fill-opacity:1;" />
      <path
         id="path21"
         d="M 33.902344 61.988281 C 33.65625 61.398438 33.347656 60.734375 32.984375 60.011719 C 32.628906 59.285156 32.253906 58.5625 31.863281 57.839844 C 31.492188 58.53125 31.109375 59.242188 30.738281 59.996094 C 30.355469 60.726562 30.03125 61.398438 29.757812 61.988281 L 27.15625 61.988281 C 27.289062 61.671875 27.476562 61.296875 27.726562 60.851562 C 27.984375 60.410156 28.265625 59.929688 28.566406 59.417969 C 28.878906 58.902344 29.203125 58.371094 29.542969 57.839844 C 29.882812 57.285156 30.207031 56.761719 30.519531 56.257812 L 27.355469 51.140625 L 29.949219 51.140625 L 31.863281 54.617188 L 33.878906 51.140625 L 36.300781 51.140625 L 33.214844 56.207031 C 33.5625 56.714844 33.910156 57.234375 34.253906 57.78125 C 34.59375 58.332031 34.90625 58.871094 35.1875 59.398438 C 35.488281 59.914062 35.753906 60.394531 35.96875 60.851562 C 36.191406 61.296875 36.367188 61.671875 36.5 61.988281 L 33.902344 61.988281 "
         style=" stroke:none;fill-rule:nonzero;fill:rgb(100%,100%,100%);fill-opacity:1;" />
      <path
         id="path23"
         d="M 46 51.140625 L 46 52.933594 L 42.808594 52.933594 L 42.808594 61.988281 L 40.386719 61.988281 L 40.386719 52.933594 L 37.203125 52.933594 L 37.203125 51.140625 L 46 51.140625 "
         style=" stroke:none;fill-rule:nonzero;fill:rgb(100%,100%,100%);fill-opacity:1;" />
    </g>
  </g>
</svg>
