<?xml version="1.0" encoding="UTF-8" standalone="no"?>
<svg
   xmlns:dc="http://purl.org/dc/elements/1.1/"
   xmlns:cc="http://creativecommons.org/ns#"
   xmlns:rdf="http://www.w3.org/1999/02/22-rdf-syntax-ns#"
   xmlns:svg="http://www.w3.org/2000/svg"
   xmlns="http://www.w3.org/2000/svg"
   xmlns:sodipodi="http://sodipodi.sourceforge.net/DTD/sodipodi-0.dtd"
   xmlns:inkscape="http://www.inkscape.org/namespaces/inkscape"
   width="64px"
   height="64px"
   viewBox="0 0 64 64"
   version="1.1"
   id="svg2"
   inkscape:version="0.91 r13725"
   sodipodi:docname="text-x-readme.svg">
  <metadata
     id="metadata21">
    <rdf:RDF>
      <cc:Work
         rdf:about="">
        <dc:format>image/svg+xml</dc:format>
        <dc:type
           rdf:resource="http://purl.org/dc/dcmitype/StillImage" />
      </cc:Work>
    </rdf:RDF>
  </metadata>
  <defs
     id="defs19">
    <filter
       inkscape:collect="always"
       style="color-interpolation-filters:sRGB"
       id="filter4185"
       x="-0.096041702"
       width="1.1920834"
       y="-0.09595833"
       height="1.1919167">
      <feGaussianBlur
         inkscape:collect="always"
         stdDeviation="0.7196875"
         id="feGaussianBlur4187" />
    </filter>
    <filter
       inkscape:collect="always"
       style="color-interpolation-filters:sRGB"
       id="filter4177"
       x="-0.096"
       width="1.192"
       y="-0.096"
       height="1.192">
      <feGaussianBlur
         inkscape:collect="always"
         stdDeviation="1.12"
         id="feGaussianBlur4179" />
    </filter>
  </defs>
  <sodipodi:namedview
     pagecolor="#ffffff"
     bordercolor="#666666"
     borderopacity="1"
     objecttolerance="10"
     gridtolerance="10"
     guidetolerance="10"
     inkscape:pageopacity="0"
     inkscape:pageshadow="2"
     inkscape:window-width="1301"
     inkscape:window-height="744"
     id="namedview17"
     showgrid="false"
     inkscape:zoom="7.375"
     inkscape:cx="47.504737"
     inkscape:cy="23.276758"
     inkscape:window-x="65"
     inkscape:window-y="24"
     inkscape:window-maximized="1"
     inkscape:current-layer="svg2" />
  <g
     transform="translate(-0.71943709,0)"
     id="g4140">
    <path
       style="fill:#dcdcdc;fill-opacity:1;fill-rule:nonzero;stroke:none"
       d="M 10.671875,0 C 9.296875,0 8,1.355469 8,2.789062 L 8,61.210938 C 8,62.566406 9.375,64 10.671875,64 l 42.65625,0 C 54.625,64 56,62.566406 56,61.210938 L 56,18 38,0 Z m 0,0"
       id="path5"
       inkscape:connector-curvature="0" />
    <path
       transform="matrix(1,0,0,0.95722054,0,0.82447778)"
       inkscape:connector-curvature="0"
       id="path4183"
       d="m 37.72725,1.2727492 0,15.2265618 c 0,1.347657 1.410156,2.773438 2.757812,2.773438 l 15.226563,0 -1,-1 -13.984375,0 c -1.108,0 -2,-0.892 -2,-2 l 0,-13.9999998 -1,-1 z"
       style="opacity:0.35;fill:#000000;fill-opacity:1;fill-rule:nonzero;stroke:none;filter:url(#filter4185)" />
    <path
       style="fill:#f2f2f2;fill-opacity:1;fill-rule:nonzero;stroke:none"
       d="M 38,0 55.984375,18 40.757812,18 C 39.410156,18 38,16.574219 38,15.226562 Z m 0,0"
       id="path9"
       inkscape:connector-curvature="0" />
    <path
       inkscape:connector-curvature="0"
       id="path4160"
       d="M 10.671875,2.0000001e-8 C 9.2968752,2.0000001e-8 8.0000002,1.3554695 8.0000002,2.7890625 l 0,1 C 8.0000002,2.3554695 9.2968752,1 10.671875,1 L 38,1 38,2e-8 l -27.328125,0 z"
       style="opacity:0.5;fill:#ffffff;fill-opacity:1;fill-rule:nonzero;stroke:none" />
    <path
       inkscape:connector-curvature="0"
       id="path4178"
       d="m 8.0000002,60.210938 0,1 c 0,1.355468 1.375,2.789062 2.6718748,2.789062 L 53.32812,64 C 54.62499,64 56,62.566406 56,61.210938 l 0,-1 C 56,61.566406 54.62499,63 53.32812,63 L 10.671875,63 C 9.3750002,63 8.0000002,61.566406 8.0000002,60.210938 Z"
       style="opacity:0.15;fill:#000000;fill-opacity:1;fill-rule:nonzero;stroke:none" />
  </g>
  <g
     id="g4169"
     style="fill:#000000;opacity:0.35;filter:url(#filter4177)">
    <path
       id="path4171"
       d="M 32 24 C 24.265625 24 18 30.269531 18 37.996094 C 18 45.730469 24.265625 52 32 52 C 39.734375 52 46 45.730469 46 37.996094 C 46 30.269531 39.734375 24 32 24 Z M 32 26.796875 C 38.183594 26.796875 43.195312 31.808594 43.195312 37.996094 C 43.195312 44.183594 38.183594 49.203125 32 49.203125 C 25.816406 49.203125 20.804688 44.183594 20.804688 37.996094 C 20.804688 31.808594 25.816406 26.796875 32 26.796875 Z M 32 26.796875 "
       style="stroke:none;fill-rule:nonzero;fill:#000000;fill-opacity:1" />
    <path
       id="path4173"
       d="M 34.796875 32.402344 C 34.796875 33.941406 33.542969 35.199219 32 35.199219 C 30.449219 35.199219 29.203125 33.941406 29.203125 32.402344 C 29.203125 30.851562 30.449219 29.59375 32 29.59375 C 33.542969 29.59375 34.796875 30.851562 34.796875 32.402344 Z M 34.796875 32.402344 "
       style="stroke:none;fill-rule:nonzero;fill:#000000;fill-opacity:1" />
    <path
       id="path4175"
       d="M 30.597656 36.601562 L 33.402344 36.601562 C 34.796875 36.601562 34.796875 36.59375 34.796875 37.996094 L 34.796875 45.003906 C 34.796875 46.398438 34.804688 46.398438 33.402344 46.398438 L 30.597656 46.398438 C 29.203125 46.398438 29.203125 46.40625 29.203125 45.003906 L 29.203125 37.996094 C 29.203125 36.601562 29.195312 36.601562 30.597656 36.601562 Z M 30.597656 36.601562 "
       style="stroke:none;fill-rule:nonzero;fill:#000000;fill-opacity:1" />
  </g>
  <g
     id="surface1">
    <path
       style=" stroke:none;fill-rule:nonzero;fill:rgb(53.333333%,53.333333%,53.333333%);fill-opacity:1;"
       d="M 32 24 C 24.265625 24 18 30.269531 18 37.996094 C 18 45.730469 24.265625 52 32 52 C 39.734375 52 46 45.730469 46 37.996094 C 46 30.269531 39.734375 24 32 24 Z M 32 26.796875 C 38.183594 26.796875 43.195312 31.808594 43.195312 37.996094 C 43.195312 44.183594 38.183594 49.203125 32 49.203125 C 25.816406 49.203125 20.804688 44.183594 20.804688 37.996094 C 20.804688 31.808594 25.816406 26.796875 32 26.796875 Z M 32 26.796875 "
       id="path11" />
    <path
       style=" stroke:none;fill-rule:nonzero;fill:rgb(53.333333%,53.333333%,53.333333%);fill-opacity:1;"
       d="M 34.796875 32.402344 C 34.796875 33.941406 33.542969 35.199219 32 35.199219 C 30.449219 35.199219 29.203125 33.941406 29.203125 32.402344 C 29.203125 30.851562 30.449219 29.59375 32 29.59375 C 33.542969 29.59375 34.796875 30.851562 34.796875 32.402344 Z M 34.796875 32.402344 "
       id="path13" />
    <path
       style=" stroke:none;fill-rule:nonzero;fill:rgb(53.333333%,53.333333%,53.333333%);fill-opacity:1;"
       d="M 30.597656 36.601562 L 33.402344 36.601562 C 34.796875 36.601562 34.796875 36.59375 34.796875 37.996094 L 34.796875 45.003906 C 34.796875 46.398438 34.804688 46.398438 33.402344 46.398438 L 30.597656 46.398438 C 29.203125 46.398438 29.203125 46.40625 29.203125 45.003906 L 29.203125 37.996094 C 29.203125 36.601562 29.195312 36.601562 30.597656 36.601562 Z M 30.597656 36.601562 "
       id="path15" />
  </g>
</svg>
