<?xml version="1.0" encoding="UTF-8" standalone="no"?>
<svg
   xmlns:dc="http://purl.org/dc/elements/1.1/"
   xmlns:cc="http://creativecommons.org/ns#"
   xmlns:rdf="http://www.w3.org/1999/02/22-rdf-syntax-ns#"
   xmlns:svg="http://www.w3.org/2000/svg"
   xmlns="http://www.w3.org/2000/svg"
   xmlns:sodipodi="http://sodipodi.sourceforge.net/DTD/sodipodi-0.dtd"
   xmlns:inkscape="http://www.inkscape.org/namespaces/inkscape"
   width="64px"
   height="64px"
   viewBox="0 0 64 64"
   version="1.1"
   id="svg2"
   inkscape:version="0.91 r13725"
   sodipodi:docname="application-x-extension-html.svg">
  <metadata
     id="metadata29">
    <rdf:RDF>
      <cc:Work
         rdf:about="">
        <dc:format>image/svg+xml</dc:format>
        <dc:type
           rdf:resource="http://purl.org/dc/dcmitype/StillImage" />
      </cc:Work>
    </rdf:RDF>
  </metadata>
  <defs
     id="defs27">
    <filter
       inkscape:collect="always"
       style="color-interpolation-filters:sRGB"
       id="filter4185"
       x="-0.096041702"
       width="1.1920834"
       y="-0.09595833"
       height="1.1919167">
      <feGaussianBlur
         inkscape:collect="always"
         stdDeviation="0.7196875"
         id="feGaussianBlur4187" />
    </filter>
    <filter
       inkscape:collect="always"
       style="color-interpolation-filters:sRGB"
       id="filter4228"
       x="-0.096000013"
       width="1.192"
       y="-0.095999987"
       height="1.192">
      <feGaussianBlur
         inkscape:collect="always"
         stdDeviation="1.0181254"
         id="feGaussianBlur4230" />
    </filter>
  </defs>
  <sodipodi:namedview
     pagecolor="#ffffff"
     bordercolor="#666666"
     borderopacity="1"
     objecttolerance="10"
     gridtolerance="10"
     guidetolerance="10"
     inkscape:pageopacity="0"
     inkscape:pageshadow="2"
     inkscape:window-width="1301"
     inkscape:window-height="744"
     id="namedview25"
     showgrid="false"
     inkscape:zoom="5.2149125"
     inkscape:cx="28.718883"
     inkscape:cy="23.098012"
     inkscape:window-x="65"
     inkscape:window-y="24"
     inkscape:window-maximized="1"
     inkscape:current-layer="svg2" />
  <g
     transform="translate(-0.71943709,0.22725036)"
     id="g4173">
    <path
       style="fill:#6e99c2;fill-opacity:1;fill-rule:nonzero;stroke:none"
       d="M 10.671875,0 C 9.296875,0 8,1.355469 8,2.789062 L 8,61.210938 C 8,62.566406 9.375,64 10.671875,64 l 42.65625,0 C 54.625,64 56,62.566406 56,61.210938 L 56,18 38,0 Z m 0,0"
       id="path5"
       inkscape:connector-curvature="0" />
    <path
       inkscape:connector-curvature="0"
       id="path4183"
       d="m 37.72725,1.2727492 0,15.2265618 c 0,1.347657 1.410156,2.773438 2.757812,2.773438 l 15.226563,0 -1,-1 -13.984375,0 c -1.108,0 -2,-0.892 -2,-2 l 0,-13.9999998 -1,-1 z"
       style="opacity:0.35;fill:#000000;fill-opacity:1;fill-rule:nonzero;stroke:none;filter:url(#filter4185)" />
    <path
       style="fill:#a7c1da;fill-opacity:1;fill-rule:nonzero;stroke:none"
       d="M 38,0 55.984375,18 40.757812,18 C 39.410156,18 38,16.574219 38,15.226562 Z m 0,0"
       id="path9"
       inkscape:connector-curvature="0" />
    <path
       inkscape:connector-curvature="0"
       id="path4160"
       d="M 10.671875,2.0000001e-8 C 9.2968752,2.0000001e-8 8.0000002,1.3554695 8.0000002,2.7890625 l 0,1 C 8.0000002,2.3554695 9.2968752,1 10.671875,1 L 38,1 38,2e-8 l -27.328125,0 z"
       style="opacity:0.5;fill:#ffffff;fill-opacity:1;fill-rule:nonzero;stroke:none" />
    <path
       inkscape:connector-curvature="0"
       id="path4178"
       d="m 8.0000002,60.210938 0,1 c 0,1.355468 1.375,2.789062 2.6718748,2.789062 L 53.32812,64 C 54.62499,64 56,62.566406 56,61.210938 l 0,-1 C 56,61.566406 54.62499,63 53.32812,63 L 10.671875,63 C 9.3750002,63 8.0000002,61.566406 8.0000002,60.210938 Z"
       style="opacity:0.15;fill:#000000;fill-opacity:1;fill-rule:nonzero;stroke:none" />
  </g>
  <g
     id="g4212"
     style="stroke:#000000;stroke-opacity:1;filter:url(#filter4228);opacity:0.35">
    <path
       id="path4214"
       d="M 20.59375 30 L 20.59375 32 L 43.511719 32 L 43.511719 30 Z M 20.59375 30 "
       style="stroke:#000000;fill-rule:nonzero;fill:rgb(100%, 100%, 100%);fill-opacity:1;stroke-opacity:1" />
    <path
       id="path4216"
       d="M 19.273438 34.722656 L 19.273438 37.277344 L 44.726562 37.277344 L 44.726562 34.722656 Z M 19.273438 34.722656 "
       style="stroke:#000000;fill-rule:nonzero;fill:rgb(100%, 100%, 100%);fill-opacity:1;stroke-opacity:1" />
    <path
       id="path4218"
       d="M 20.539062 40 L 20.539062 42 L 43.460938 42 L 43.460938 40 Z M 20.539062 40 "
       style="stroke:#000000;fill-rule:nonzero;fill:rgb(100%, 100%, 100%);fill-opacity:1;stroke-opacity:1" />
    <path
       id="path4220"
       d="M 31 23.273438 L 31 48.726562 L 33 48.726562 L 33 23.273438 Z M 31 23.273438 "
       style="stroke:#000000;fill-rule:nonzero;fill:rgb(100%, 100%, 100%);fill-opacity:1;stroke-opacity:1" />
    <path
       id="path4222"
       transform="matrix(1.273038,0,0,1.272972,1.447732,5.449158)"
       d="M 20.440103 33.002904 C 18.442543 27.000711 18.442543 20.998518 20.440103 14.999393 "
       style="fill:none;stroke-width:2;stroke-linecap:butt;stroke-linejoin:miter;stroke:#000000;stroke-opacity:1;stroke-miterlimit:4" />
    <path
       id="path4224"
       transform="matrix(1.273038,0,0,1.272972,1.447732,5.449158)"
       d="M 27.46685 33.002904 C 29.470547 28.004145 29.470547 20.998518 27.46685 14.999393 "
       style="fill:none;stroke-width:2;stroke-linecap:butt;stroke-linejoin:miter;stroke:#000000;stroke-opacity:1;stroke-miterlimit:4" />
    <path
       id="path4226"
       transform="matrix(1.398322,0,0,1.398251,-1.493826,-2.195816)"
       d="M 33.054171 27.316859 C 33.054171 32.34267 28.98121 36.418634 23.952863 36.418634 C 18.92731 36.418634 14.851556 32.34267 14.851556 27.316859 C 14.851556 22.291048 18.92731 18.215084 23.952863 18.215084 C 28.98121 18.215084 33.054171 22.291048 33.054171 27.316859 Z M 33.054171 27.316859 "
       style="fill:none;stroke-width:1.821;stroke-linecap:round;stroke-linejoin:miter;stroke:#000000;stroke-opacity:1;stroke-miterlimit:4" />
  </g>
  <g
     id="surface1">
    <path
       style=" stroke:none;fill-rule:nonzero;fill:rgb(100%,100%,100%);fill-opacity:1;"
       d="M 20.59375 30 L 20.59375 32 L 43.511719 32 L 43.511719 30 Z M 20.59375 30 "
       id="path11" />
    <path
       style=" stroke:none;fill-rule:nonzero;fill:rgb(100%,100%,100%);fill-opacity:1;"
       d="M 19.273438 34.722656 L 19.273438 37.277344 L 44.726562 37.277344 L 44.726562 34.722656 Z M 19.273438 34.722656 "
       id="path13" />
    <path
       style=" stroke:none;fill-rule:nonzero;fill:rgb(100%,100%,100%);fill-opacity:1;"
       d="M 20.539062 40 L 20.539062 42 L 43.460938 42 L 43.460938 40 Z M 20.539062 40 "
       id="path15" />
    <path
       style=" stroke:none;fill-rule:nonzero;fill:rgb(100%,100%,100%);fill-opacity:1;"
       d="M 31 23.273438 L 31 48.726562 L 33 48.726562 L 33 23.273438 Z M 31 23.273438 "
       id="path17" />
    <path
       style="fill:none;stroke-width:2;stroke-linecap:butt;stroke-linejoin:miter;stroke:rgb(100%,100%,100%);stroke-opacity:1;stroke-miterlimit:4;"
       d="M 20.440103 33.002904 C 18.442543 27.000711 18.442543 20.998518 20.440103 14.999393 "
       transform="matrix(1.273038,0,0,1.272972,1.447732,5.449158)"
       id="path19" />
    <path
       style="fill:none;stroke-width:2;stroke-linecap:butt;stroke-linejoin:miter;stroke:rgb(100%,100%,100%);stroke-opacity:1;stroke-miterlimit:4;"
       d="M 27.46685 33.002904 C 29.470547 28.004145 29.470547 20.998518 27.46685 14.999393 "
       transform="matrix(1.273038,0,0,1.272972,1.447732,5.449158)"
       id="path21" />
    <path
       style="fill:none;stroke-width:1.821;stroke-linecap:round;stroke-linejoin:miter;stroke:rgb(100%,100%,100%);stroke-opacity:1;stroke-miterlimit:4;"
       d="M 33.054171 27.316859 C 33.054171 32.34267 28.98121 36.418634 23.952863 36.418634 C 18.92731 36.418634 14.851556 32.34267 14.851556 27.316859 C 14.851556 22.291048 18.92731 18.215084 23.952863 18.215084 C 28.98121 18.215084 33.054171 22.291048 33.054171 27.316859 Z M 33.054171 27.316859 "
       transform="matrix(1.398322,0,0,1.398251,-1.493826,-2.195816)"
       id="path23" />
  </g>
</svg>
