<?xml version="1.0" encoding="UTF-8" standalone="no"?>
<svg
   xmlns:dc="http://purl.org/dc/elements/1.1/"
   xmlns:cc="http://creativecommons.org/ns#"
   xmlns:rdf="http://www.w3.org/1999/02/22-rdf-syntax-ns#"
   xmlns:svg="http://www.w3.org/2000/svg"
   xmlns="http://www.w3.org/2000/svg"
   xmlns:sodipodi="http://sodipodi.sourceforge.net/DTD/sodipodi-0.dtd"
   xmlns:inkscape="http://www.inkscape.org/namespaces/inkscape"
   width="64px"
   height="64px"
   viewBox="0 0 64 64"
   version="1.1"
   id="svg2"
   inkscape:version="0.91 r13725"
   sodipodi:docname="unknown.svg">
  <metadata
     id="metadata17">
    <rdf:RDF>
      <cc:Work
         rdf:about="">
        <dc:format>image/svg+xml</dc:format>
        <dc:type
           rdf:resource="http://purl.org/dc/dcmitype/StillImage" />
      </cc:Work>
    </rdf:RDF>
  </metadata>
  <defs
     id="defs15">
    <filter
       inkscape:collect="always"
       style="color-interpolation-filters:sRGB"
       id="filter4185"
       x="-0.096041702"
       width="1.1920834"
       y="-0.09595833"
       height="1.1919167">
      <feGaussianBlur
         inkscape:collect="always"
         stdDeviation="0.7196875"
         id="feGaussianBlur4187" />
    </filter>
    <filter
       inkscape:collect="always"
       style="color-interpolation-filters:sRGB"
       id="filter4169"
       x="-0.12799219"
       width="1.2559844"
       y="-0.076802813"
       height="1.1536056">
      <feGaussianBlur
         inkscape:collect="always"
         stdDeviation="0.85328124"
         id="feGaussianBlur4171" />
    </filter>
  </defs>
  <sodipodi:namedview
     pagecolor="#ffffff"
     bordercolor="#666666"
     borderopacity="1"
     objecttolerance="10"
     gridtolerance="10"
     guidetolerance="10"
     inkscape:pageopacity="0"
     inkscape:pageshadow="2"
     inkscape:window-width="1301"
     inkscape:window-height="744"
     id="namedview13"
     showgrid="false"
     inkscape:zoom="3.6875"
     inkscape:cx="-7.8644068"
     inkscape:cy="32"
     inkscape:window-x="65"
     inkscape:window-y="24"
     inkscape:window-maximized="1"
     inkscape:current-layer="svg2" />
  <g
     transform="translate(-0.71943709,0)"
     id="g4140">
    <path
       style="fill:#dcdcdc;fill-opacity:1;fill-rule:nonzero;stroke:none"
       d="M 10.671875,0 C 9.296875,0 8,1.355469 8,2.789062 L 8,61.210938 C 8,62.566406 9.375,64 10.671875,64 l 42.65625,0 C 54.625,64 56,62.566406 56,61.210938 L 56,18 38,0 Z m 0,0"
       id="path5"
       inkscape:connector-curvature="0" />
    <path
       transform="matrix(1,0,0,0.95722054,0,0.82447778)"
       inkscape:connector-curvature="0"
       id="path4183"
       d="m 37.72725,1.2727492 0,15.2265618 c 0,1.347657 1.410156,2.773438 2.757812,2.773438 l 15.226563,0 -1,-1 -13.984375,0 c -1.108,0 -2,-0.892 -2,-2 l 0,-13.9999998 -1,-1 z"
       style="opacity:0.35;fill:#000000;fill-opacity:1;fill-rule:nonzero;stroke:none;filter:url(#filter4185)" />
    <path
       style="fill:#f2f2f2;fill-opacity:1;fill-rule:nonzero;stroke:none"
       d="M 38,0 55.984375,18 40.757812,18 C 39.410156,18 38,16.574219 38,15.226562 Z m 0,0"
       id="path9"
       inkscape:connector-curvature="0" />
    <path
       inkscape:connector-curvature="0"
       id="path4160"
       d="M 10.671875,2.0000001e-8 C 9.2968752,2.0000001e-8 8.0000002,1.3554695 8.0000002,2.7890625 l 0,1 C 8.0000002,2.3554695 9.2968752,1 10.671875,1 L 38,1 38,2e-8 l -27.328125,0 z"
       style="opacity:0.5;fill:#ffffff;fill-opacity:1;fill-rule:nonzero;stroke:none" />
    <path
       inkscape:connector-curvature="0"
       id="path4178"
       d="m 8.0000002,60.210938 0,1 c 0,1.355468 1.375,2.789062 2.6718748,2.789062 L 53.32812,64 C 54.62499,64 56,62.566406 56,61.210938 l 0,-1 C 56,61.566406 54.62499,63 53.32812,63 L 10.671875,63 C 9.3750002,63 8.0000002,61.566406 8.0000002,60.210938 Z"
       style="opacity:0.15;fill:#000000;fill-opacity:1;fill-rule:nonzero;stroke:none" />
  </g>
  <g
     id="g4165"
     style="fill:#000000;opacity:0.35;filter:url(#filter4169)">
    <path
       id="path4167"
       d="M 29.25 42.382812 L 29.25 41.429688 C 29.25 40.054688 29.492188 38.921875 29.976562 38.039062 C 30.453125 37.148438 31.351562 36.210938 32.664062 35.21875 C 34.476562 33.867188 35.625 32.851562 36.09375 32.171875 C 36.570312 31.484375 36.8125 30.664062 36.8125 29.703125 C 36.8125 28.5 36.367188 27.578125 35.492188 26.929688 C 34.617188 26.273438 33.367188 25.945312 31.71875 25.945312 C 30.664062 25.945312 29.632812 26.054688 28.632812 26.28125 C 27.632812 26.492188 26.476562 26.882812 25.179688 27.460938 L 24 25.078125 C 26.523438 23.914062 29.164062 23.335938 31.921875 23.335938 C 34.476562 23.335938 36.460938 23.882812 37.875 24.992188 C 39.289062 26.09375 40 27.65625 40 29.664062 C 40 30.523438 39.867188 31.28125 39.601562 31.9375 C 39.34375 32.585938 38.960938 33.203125 38.453125 33.789062 C 37.945312 34.367188 36.851562 35.304688 35.171875 36.59375 C 33.820312 37.609375 32.921875 38.445312 32.484375 39.117188 C 32.054688 39.789062 31.835938 40.679688 31.835938 41.796875 L 31.835938 42.382812 L 29.25 42.382812 M 28.273438 47.617188 C 28.273438 46.023438 29.070312 45.21875 30.679688 45.21875 C 31.453125 45.21875 32.046875 45.429688 32.460938 45.835938 C 32.890625 46.25 33.101562 46.84375 33.101562 47.617188 C 33.101562 48.375 32.890625 48.960938 32.460938 49.382812 C 32.03125 49.796875 31.4375 50 30.679688 50 C 29.984375 50 29.40625 49.820312 28.953125 49.453125 C 28.5 49.078125 28.273438 48.46875 28.273438 47.617188 "
       style="stroke:none;fill-rule:nonzero;fill:#000000;fill-opacity:1" />
  </g>
  <g
     id="surface1">
    <path
       style=" stroke:none;fill-rule:nonzero;fill:rgb(53.333333%,53.333333%,53.333333%);fill-opacity:1;"
       d="M 29.25 42.382812 L 29.25 41.429688 C 29.25 40.054688 29.492188 38.921875 29.976562 38.039062 C 30.453125 37.148438 31.351562 36.210938 32.664062 35.21875 C 34.476562 33.867188 35.625 32.851562 36.09375 32.171875 C 36.570312 31.484375 36.8125 30.664062 36.8125 29.703125 C 36.8125 28.5 36.367188 27.578125 35.492188 26.929688 C 34.617188 26.273438 33.367188 25.945312 31.71875 25.945312 C 30.664062 25.945312 29.632812 26.054688 28.632812 26.28125 C 27.632812 26.492188 26.476562 26.882812 25.179688 27.460938 L 24 25.078125 C 26.523438 23.914062 29.164062 23.335938 31.921875 23.335938 C 34.476562 23.335938 36.460938 23.882812 37.875 24.992188 C 39.289062 26.09375 40 27.65625 40 29.664062 C 40 30.523438 39.867188 31.28125 39.601562 31.9375 C 39.34375 32.585938 38.960938 33.203125 38.453125 33.789062 C 37.945312 34.367188 36.851562 35.304688 35.171875 36.59375 C 33.820312 37.609375 32.921875 38.445312 32.484375 39.117188 C 32.054688 39.789062 31.835938 40.679688 31.835938 41.796875 L 31.835938 42.382812 L 29.25 42.382812 M 28.273438 47.617188 C 28.273438 46.023438 29.070312 45.21875 30.679688 45.21875 C 31.453125 45.21875 32.046875 45.429688 32.460938 45.835938 C 32.890625 46.25 33.101562 46.84375 33.101562 47.617188 C 33.101562 48.375 32.890625 48.960938 32.460938 49.382812 C 32.03125 49.796875 31.4375 50 30.679688 50 C 29.984375 50 29.40625 49.820312 28.953125 49.453125 C 28.5 49.078125 28.273438 48.46875 28.273438 47.617188 "
       id="path11" />
  </g>
</svg>
