<?xml version="1.0" encoding="UTF-8" standalone="no"?>
<svg
   xmlns:dc="http://purl.org/dc/elements/1.1/"
   xmlns:cc="http://creativecommons.org/ns#"
   xmlns:rdf="http://www.w3.org/1999/02/22-rdf-syntax-ns#"
   xmlns:svg="http://www.w3.org/2000/svg"
   xmlns="http://www.w3.org/2000/svg"
   xmlns:sodipodi="http://sodipodi.sourceforge.net/DTD/sodipodi-0.dtd"
   xmlns:inkscape="http://www.inkscape.org/namespaces/inkscape"
   width="64px"
   height="64px"
   viewBox="0 0 64 64"
   version="1.1"
   id="svg2"
   inkscape:version="0.91 r13725"
   sodipodi:docname="wps-office-ppt.svg">
  <metadata
     id="metadata31">
    <rdf:RDF>
      <cc:Work
         rdf:about="">
        <dc:format>image/svg+xml</dc:format>
        <dc:type
           rdf:resource="http://purl.org/dc/dcmitype/StillImage" />
      </cc:Work>
    </rdf:RDF>
  </metadata>
  <defs
     id="defs29">
    <filter
       inkscape:collect="always"
       style="color-interpolation-filters:sRGB"
       id="filter4185-75"
       x="-0.096041702"
       width="1.1920834"
       y="-0.09595833"
       height="1.1919167">
      <feGaussianBlur
         inkscape:collect="always"
         stdDeviation="0.7196875"
         id="feGaussianBlur4187-85" />
    </filter>
    <filter
       inkscape:collect="always"
       style="color-interpolation-filters:sRGB"
       id="filter4199"
       x="-0.10802344"
       width="1.2160469"
       y="-0.086385006"
       height="1.17277">
      <feGaussianBlur
         inkscape:collect="always"
         stdDeviation="1.4403125"
         id="feGaussianBlur4201" />
    </filter>
  </defs>
  <sodipodi:namedview
     pagecolor="#ffffff"
     bordercolor="#666666"
     borderopacity="1"
     objecttolerance="10"
     gridtolerance="10"
     guidetolerance="10"
     inkscape:pageopacity="0"
     inkscape:pageshadow="2"
     inkscape:window-width="1301"
     inkscape:window-height="744"
     id="namedview27"
     showgrid="false"
     inkscape:zoom="14.75"
     inkscape:cx="30.774725"
     inkscape:cy="25.001326"
     inkscape:window-x="65"
     inkscape:window-y="24"
     inkscape:window-maximized="1"
     inkscape:current-layer="svg2" />
  <g
     id="g6522"
     transform="translate(-332.69401,-253.98082)">
    <g
       id="g6524"
       transform="translate(332,253.98082)">
      <path
         inkscape:connector-curvature="0"
         id="path6526"
         d="M 10.671875,0 C 9.296875,0 8,1.355469 8,2.789062 L 8,61.210938 C 8,62.566406 9.375,64 10.671875,64 l 42.65625,0 C 54.625,64 56,62.566406 56,61.210938 L 56,18 38,0 Z m 0,0"
         style="fill:#cf4523;fill-opacity:1;fill-rule:nonzero;stroke:none" />
      <path
         transform="matrix(1,0,0,0.96709914,0,0.63408999)"
         style="opacity:0.35;fill:#000000;fill-opacity:1;fill-rule:nonzero;stroke:none;filter:url(#filter4185-75)"
         d="m 37.72725,1.2727492 0,15.2265618 c 0,1.347657 1.410156,2.773438 2.757812,2.773438 l 15.226563,0 -1,-1 -13.984375,0 c -1.108,0 -2,-0.892 -2,-2 l 0,-13.9999998 -1,-1 z"
         id="path6528"
         inkscape:connector-curvature="0" />
      <path
         inkscape:connector-curvature="0"
         id="path6530"
         d="M 38,0 55.984375,18 40.757812,18 C 39.410156,18 38,16.574219 38,15.226562 Z m 0,0"
         style="fill:#e28e79;fill-opacity:1;fill-rule:nonzero;stroke:none" />
      <path
         style="opacity:0.5;fill:#ffffff;fill-opacity:1;fill-rule:nonzero;stroke:none"
         d="M 10.671875,2.0000001e-8 C 9.2968752,2.0000001e-8 8.0000002,1.3554695 8.0000002,2.7890625 l 0,1 C 8.0000002,2.3554695 9.2968752,1 10.671875,1 L 38,1 38,2e-8 l -27.328125,0 z"
         id="path6532"
         inkscape:connector-curvature="0" />
      <path
         style="opacity:0.15;fill:#000000;fill-opacity:1;fill-rule:nonzero;stroke:none"
         d="m 8.0000002,60.210938 0,1 c 0,1.355468 1.375,2.789062 2.6718748,2.789062 L 53.32812,64 C 54.62499,64 56,62.566406 56,61.210938 l 0,-1 C 56,61.566406 54.62499,63 53.32812,63 L 10.671875,63 C 9.3750002,63 8.0000002,61.566406 8.0000002,60.210938 Z"
         id="path6534"
         inkscape:connector-curvature="0" />
    </g>
    <path
       inkscape:connector-curvature="0"
       id="path6536"
       d="m 339.94915,301.94915 0,13.33594 c 0,1.29687 1.375,2.66406 2.66406,2.66406 l 42.67188,0 c 1.28906,0 2.66406,-1.36719 2.66406,-2.66406 l 0,-13.33594 z m 0,0"
       style="fill:#000000;fill-opacity:0.19607801;fill-rule:nonzero;stroke:none" />
  </g>
  <g
     id="g4183"
     style="fill:#000000;opacity:0.35;filter:url(#filter4199)">
    <path
       id="path4185"
       d="M 16 24 L 26 24 L 26 30 L 16 30 Z M 16 24 "
       style="stroke:none;fill-rule:nonzero;fill:#000000;fill-opacity:1" />
    <path
       id="path4187"
       d="M 21.355469 50.804688 C 22.90625 50.804688 24.101562 51.09375 24.953125 51.683594 C 25.808594 52.25 26.234375 53.191406 26.234375 54.503906 C 26.234375 55.832031 25.808594 56.792969 24.9375 57.382812 C 24.085938 57.972656 22.871094 58.261719 21.289062 58.261719 L 20.425781 58.261719 L 20.425781 62 L 18 62 L 18 51.066406 C 18.238281 51.027344 18.5 50.976562 18.789062 50.945312 C 19.089844 50.910156 19.394531 50.886719 19.699219 50.871094 C 20 50.847656 20.296875 50.828125 20.582031 50.820312 C 20.871094 50.804688 21.125 50.804688 21.355469 50.804688 M 21.625 52.714844 C 21.484375 52.714844 21.28125 52.722656 21.019531 52.730469 C 20.765625 52.730469 20.566406 52.75 20.425781 52.773438 L 20.425781 56.347656 L 21.410156 56.347656 C 22.183594 56.347656 22.773438 56.210938 23.167969 55.9375 C 23.5625 55.652344 23.757812 55.167969 23.757812 54.488281 C 23.757812 53.839844 23.5625 53.386719 23.167969 53.125 C 22.78125 52.855469 22.273438 52.714844 21.625 52.714844 "
       style="stroke:none;fill-rule:nonzero;fill:#000000;fill-opacity:1" />
    <path
       id="path4189"
       d="M 31.203125 50.804688 C 32.753906 50.804688 33.953125 51.09375 34.804688 51.683594 C 35.65625 52.25 36.085938 53.191406 36.085938 54.503906 C 36.085938 55.832031 35.65625 56.792969 34.789062 57.382812 C 33.9375 57.972656 32.722656 58.261719 31.148438 58.261719 L 30.277344 58.261719 L 30.277344 62 L 27.851562 62 L 27.851562 51.066406 C 28.085938 51.027344 28.351562 50.976562 28.636719 50.945312 C 28.941406 50.910156 29.246094 50.886719 29.546875 50.871094 C 29.851562 50.847656 30.144531 50.828125 30.433594 50.820312 C 30.71875 50.804688 30.984375 50.804688 31.203125 50.804688 M 31.476562 52.714844 C 31.335938 52.714844 31.128906 52.722656 30.867188 52.730469 C 30.613281 52.730469 30.417969 52.75 30.277344 52.773438 L 30.277344 56.347656 L 31.261719 56.347656 C 32.03125 56.347656 32.625 56.210938 33.015625 55.9375 C 33.410156 55.652344 33.609375 55.167969 33.609375 54.488281 C 33.609375 53.839844 33.410156 53.386719 33.015625 53.125 C 32.632812 52.855469 32.121094 52.714844 31.476562 52.714844 "
       style="stroke:none;fill-rule:nonzero;fill:#000000;fill-opacity:1" />
    <path
       id="path4191"
       d="M 46 50.929688 L 46 52.75 L 42.785156 52.75 L 42.785156 62 L 40.339844 62 L 40.339844 52.75 L 37.132812 52.75 L 37.132812 50.929688 L 46 50.929688 "
       style="stroke:none;fill-rule:nonzero;fill:#000000;fill-opacity:1" />
    <path
       id="path4193"
       d="M 16 34 L 26 34 L 26 40 L 16 40 Z M 16 34 "
       style="stroke:none;fill-rule:nonzero;fill:#000000;fill-opacity:1" />
    <path
       id="path4195"
       d="M 40 21.984375 L 40 30 L 48 30 C 48 25.570312 44.417969 21.984375 40 21.984375 Z M 40 21.984375 "
       style="stroke:none;fill-rule:nonzero;fill:#000000;fill-opacity:1" />
    <path
       id="path4197"
       d="M 38.003906 24 C 33.585938 24 30 27.578125 30 32 C 30 36.421875 33.585938 40 38.003906 40 C 42.421875 40 46 36.421875 46 32 L 38.003906 32 Z M 38.003906 24 "
       style="stroke:none;fill-rule:nonzero;fill:#000000;fill-opacity:1" />
  </g>
  <g
     id="surface1">
    <path
       style=" stroke:none;fill-rule:nonzero;fill:rgb(100%,100%,100%);fill-opacity:1;"
       d="M 16 24 L 26 24 L 26 30 L 16 30 Z M 16 24 "
       id="path13" />
    <path
       style=" stroke:none;fill-rule:nonzero;fill:rgb(100%,100%,100%);fill-opacity:1;"
       d="M 21.355469 50.804688 C 22.90625 50.804688 24.101562 51.09375 24.953125 51.683594 C 25.808594 52.25 26.234375 53.191406 26.234375 54.503906 C 26.234375 55.832031 25.808594 56.792969 24.9375 57.382812 C 24.085938 57.972656 22.871094 58.261719 21.289062 58.261719 L 20.425781 58.261719 L 20.425781 62 L 18 62 L 18 51.066406 C 18.238281 51.027344 18.5 50.976562 18.789062 50.945312 C 19.089844 50.910156 19.394531 50.886719 19.699219 50.871094 C 20 50.847656 20.296875 50.828125 20.582031 50.820312 C 20.871094 50.804688 21.125 50.804688 21.355469 50.804688 M 21.625 52.714844 C 21.484375 52.714844 21.28125 52.722656 21.019531 52.730469 C 20.765625 52.730469 20.566406 52.75 20.425781 52.773438 L 20.425781 56.347656 L 21.410156 56.347656 C 22.183594 56.347656 22.773438 56.210938 23.167969 55.9375 C 23.5625 55.652344 23.757812 55.167969 23.757812 54.488281 C 23.757812 53.839844 23.5625 53.386719 23.167969 53.125 C 22.78125 52.855469 22.273438 52.714844 21.625 52.714844 "
       id="path15" />
    <path
       style=" stroke:none;fill-rule:nonzero;fill:rgb(100%,100%,100%);fill-opacity:1;"
       d="M 31.203125 50.804688 C 32.753906 50.804688 33.953125 51.09375 34.804688 51.683594 C 35.65625 52.25 36.085938 53.191406 36.085938 54.503906 C 36.085938 55.832031 35.65625 56.792969 34.789062 57.382812 C 33.9375 57.972656 32.722656 58.261719 31.148438 58.261719 L 30.277344 58.261719 L 30.277344 62 L 27.851562 62 L 27.851562 51.066406 C 28.085938 51.027344 28.351562 50.976562 28.636719 50.945312 C 28.941406 50.910156 29.246094 50.886719 29.546875 50.871094 C 29.851562 50.847656 30.144531 50.828125 30.433594 50.820312 C 30.71875 50.804688 30.984375 50.804688 31.203125 50.804688 M 31.476562 52.714844 C 31.335938 52.714844 31.128906 52.722656 30.867188 52.730469 C 30.613281 52.730469 30.417969 52.75 30.277344 52.773438 L 30.277344 56.347656 L 31.261719 56.347656 C 32.03125 56.347656 32.625 56.210938 33.015625 55.9375 C 33.410156 55.652344 33.609375 55.167969 33.609375 54.488281 C 33.609375 53.839844 33.410156 53.386719 33.015625 53.125 C 32.632812 52.855469 32.121094 52.714844 31.476562 52.714844 "
       id="path17" />
    <path
       style=" stroke:none;fill-rule:nonzero;fill:rgb(100%,100%,100%);fill-opacity:1;"
       d="M 46 50.929688 L 46 52.75 L 42.785156 52.75 L 42.785156 62 L 40.339844 62 L 40.339844 52.75 L 37.132812 52.75 L 37.132812 50.929688 L 46 50.929688 "
       id="path19" />
    <path
       style=" stroke:none;fill-rule:nonzero;fill:rgb(100%,100%,100%);fill-opacity:1;"
       d="M 16 34 L 26 34 L 26 40 L 16 40 Z M 16 34 "
       id="path21" />
    <path
       style=" stroke:none;fill-rule:nonzero;fill:rgb(100%,100%,100%);fill-opacity:1;"
       d="M 40 21.984375 L 40 30 L 48 30 C 48 25.570312 44.417969 21.984375 40 21.984375 Z M 40 21.984375 "
       id="path23" />
    <path
       style=" stroke:none;fill-rule:nonzero;fill:rgb(100%,100%,100%);fill-opacity:1;"
       d="M 38.003906 24 C 33.585938 24 30 27.578125 30 32 C 30 36.421875 33.585938 40 38.003906 40 C 42.421875 40 46 36.421875 46 32 L 38.003906 32 Z M 38.003906 24 "
       id="path25" />
  </g>
</svg>
