<?xml version="1.0" encoding="UTF-8" standalone="no"?>
<svg
   xmlns:dc="http://purl.org/dc/elements/1.1/"
   xmlns:cc="http://creativecommons.org/ns#"
   xmlns:rdf="http://www.w3.org/1999/02/22-rdf-syntax-ns#"
   xmlns:svg="http://www.w3.org/2000/svg"
   xmlns="http://www.w3.org/2000/svg"
   xmlns:sodipodi="http://sodipodi.sourceforge.net/DTD/sodipodi-0.dtd"
   xmlns:inkscape="http://www.inkscape.org/namespaces/inkscape"
   width="64px"
   height="64px"
   viewBox="0 0 64 64"
   version="1.1"
   id="svg2"
   inkscape:version="0.91 r13725"
   sodipodi:docname="wps-office-dps.svg">
  <metadata
     id="metadata31">
    <rdf:RDF>
      <cc:Work
         rdf:about="">
        <dc:format>image/svg+xml</dc:format>
        <dc:type
           rdf:resource="http://purl.org/dc/dcmitype/StillImage" />
      </cc:Work>
    </rdf:RDF>
  </metadata>
  <defs
     id="defs29">
    <filter
       inkscape:collect="always"
       style="color-interpolation-filters:sRGB"
       id="filter4185-75"
       x="-0.096041702"
       width="1.1920834"
       y="-0.09595833"
       height="1.1919167">
      <feGaussianBlur
         inkscape:collect="always"
         stdDeviation="0.7196875"
         id="feGaussianBlur4187-85" />
    </filter>
    <filter
       inkscape:collect="always"
       style="color-interpolation-filters:sRGB"
       id="filter4199"
       x="-0.10835156"
       width="1.2167031"
       y="-0.086176311"
       height="1.1723526">
      <feGaussianBlur
         inkscape:collect="always"
         stdDeviation="1.4446875"
         id="feGaussianBlur4201" />
    </filter>
  </defs>
  <sodipodi:namedview
     pagecolor="#ffffff"
     bordercolor="#666666"
     borderopacity="1"
     objecttolerance="10"
     gridtolerance="10"
     guidetolerance="10"
     inkscape:pageopacity="0"
     inkscape:pageshadow="2"
     inkscape:window-width="1301"
     inkscape:window-height="744"
     id="namedview27"
     showgrid="false"
     inkscape:zoom="7.375"
     inkscape:cx="40.038428"
     inkscape:cy="21.110974"
     inkscape:window-x="65"
     inkscape:window-y="24"
     inkscape:window-maximized="1"
     inkscape:current-layer="svg2" />
  <g
     id="g6522"
     transform="translate(-332.69401,-253.98082)">
    <g
       id="g6524"
       transform="translate(332,253.98082)">
      <path
         inkscape:connector-curvature="0"
         id="path6526"
         d="M 10.671875,0 C 9.296875,0 8,1.355469 8,2.789062 L 8,61.210938 C 8,62.566406 9.375,64 10.671875,64 l 42.65625,0 C 54.625,64 56,62.566406 56,61.210938 L 56,18 38,0 Z m 0,0"
         style="fill:#cf4523;fill-opacity:1;fill-rule:nonzero;stroke:none" />
      <path
         transform="matrix(1,0,0,0.96709914,0,0.63408999)"
         style="opacity:0.35;fill:#000000;fill-opacity:1;fill-rule:nonzero;stroke:none;filter:url(#filter4185-75)"
         d="m 37.72725,1.2727492 0,15.2265618 c 0,1.347657 1.410156,2.773438 2.757812,2.773438 l 15.226563,0 -1,-1 -13.984375,0 c -1.108,0 -2,-0.892 -2,-2 l 0,-13.9999998 -1,-1 z"
         id="path6528"
         inkscape:connector-curvature="0" />
      <path
         inkscape:connector-curvature="0"
         id="path6530"
         d="M 38,0 55.984375,18 40.757812,18 C 39.410156,18 38,16.574219 38,15.226562 Z m 0,0"
         style="fill:#e28e79;fill-opacity:1;fill-rule:nonzero;stroke:none" />
      <path
         style="opacity:0.5;fill:#ffffff;fill-opacity:1;fill-rule:nonzero;stroke:none"
         d="M 10.671875,2.0000001e-8 C 9.2968752,2.0000001e-8 8.0000002,1.3554695 8.0000002,2.7890625 l 0,1 C 8.0000002,2.3554695 9.2968752,1 10.671875,1 L 38,1 38,2e-8 l -27.328125,0 z"
         id="path6532"
         inkscape:connector-curvature="0" />
      <path
         style="opacity:0.15;fill:#000000;fill-opacity:1;fill-rule:nonzero;stroke:none"
         d="m 8.0000002,60.210938 0,1 c 0,1.355468 1.375,2.789062 2.6718748,2.789062 L 53.32812,64 C 54.62499,64 56,62.566406 56,61.210938 l 0,-1 C 56,61.566406 54.62499,63 53.32812,63 L 10.671875,63 C 9.3750002,63 8.0000002,61.566406 8.0000002,60.210938 Z"
         id="path6534"
         inkscape:connector-curvature="0" />
    </g>
    <path
       inkscape:connector-curvature="0"
       id="path6536"
       d="m 339.94915,301.94915 0,13.33594 c 0,1.29687 1.375,2.66406 2.66406,2.66406 l 42.67188,0 c 1.28906,0 2.66406,-1.36719 2.66406,-2.66406 l 0,-13.33594 z m 0,0"
       style="fill:#000000;fill-opacity:0.19607801;fill-rule:nonzero;stroke:none" />
  </g>
  <g
     id="g4183"
     style="fill:#000000;opacity:0.35;filter:url(#filter4199)">
    <path
       id="path4185"
       d="M 16 24 L 26 24 L 26 30 L 16 30 Z M 16 24 "
       style="stroke:none;fill-rule:nonzero;fill:#000000;fill-opacity:1" />
    <path
       id="path4187"
       d="M 20.453125 60.257812 C 20.515625 60.277344 20.589844 60.277344 20.671875 60.277344 C 20.746094 60.277344 20.820312 60.277344 20.886719 60.277344 C 21.445312 60.277344 21.910156 60.183594 22.28125 59.996094 C 22.664062 59.816406 22.96875 59.5625 23.199219 59.234375 C 23.4375 58.914062 23.601562 58.539062 23.699219 58.09375 C 23.804688 57.644531 23.855469 57.152344 23.855469 56.617188 C 23.855469 56.160156 23.8125 55.707031 23.738281 55.265625 C 23.65625 54.832031 23.519531 54.445312 23.320312 54.109375 C 23.117188 53.773438 22.847656 53.511719 22.5 53.3125 C 22.15625 53.101562 21.714844 53.003906 21.164062 53.003906 C 21.058594 53.003906 20.945312 53.003906 20.8125 53.019531 C 20.671875 53.019531 20.558594 53.027344 20.453125 53.050781 L 20.453125 60.257812 M 26.347656 56.617188 C 26.347656 57.609375 26.199219 58.464844 25.902344 59.167969 C 25.625 59.867188 25.230469 60.429688 24.730469 60.867188 C 24.222656 61.308594 23.625 61.628906 22.917969 61.832031 C 22.230469 62.03125 21.46875 62.128906 20.632812 62.128906 C 20.1875 62.128906 19.761719 62.113281 19.335938 62.0625 C 18.925781 62.03125 18.484375 61.964844 18 61.875 L 18 51.402344 C 18.558594 51.296875 19.082031 51.230469 19.574219 51.199219 C 20.066406 51.164062 20.523438 51.140625 20.953125 51.140625 C 21.753906 51.140625 22.492188 51.246094 23.15625 51.453125 C 23.839844 51.667969 24.402344 51.996094 24.871094 52.445312 C 25.339844 52.878906 25.691406 53.453125 25.945312 54.140625 C 26.207031 54.824219 26.347656 55.652344 26.347656 56.617188 "
       style="stroke:none;fill-rule:nonzero;fill:#000000;fill-opacity:1" />
    <path
       id="path4189"
       d="M 31.339844 51.140625 C 32.90625 51.140625 34.121094 51.429688 34.980469 51.996094 C 35.839844 52.550781 36.277344 53.460938 36.277344 54.734375 C 36.277344 56.011719 35.839844 56.945312 34.964844 57.519531 C 34.101562 58.085938 32.875 58.375 31.28125 58.375 L 30.40625 58.375 L 30.40625 61.988281 L 27.953125 61.988281 L 27.953125 51.402344 C 28.191406 51.363281 28.460938 51.320312 28.75 51.28125 C 29.0625 51.25 29.363281 51.222656 29.667969 51.214844 C 29.972656 51.191406 30.273438 51.175781 30.5625 51.167969 C 30.855469 51.148438 31.109375 51.140625 31.339844 51.140625 M 31.617188 53.003906 C 31.472656 53.003906 31.265625 53.003906 31.003906 53.019531 C 30.75 53.019531 30.554688 53.027344 30.40625 53.050781 L 30.40625 56.519531 L 31.398438 56.519531 C 32.183594 56.519531 32.773438 56.378906 33.167969 56.117188 C 33.570312 55.839844 33.765625 55.371094 33.765625 54.714844 C 33.765625 54.09375 33.570312 53.652344 33.167969 53.394531 C 32.785156 53.132812 32.265625 53.003906 31.617188 53.003906 "
       style="stroke:none;fill-rule:nonzero;fill:#000000;fill-opacity:1" />
    <path
       id="path4191"
       d="M 41.449219 60.429688 C 41.859375 60.429688 42.203125 60.398438 42.464844 60.332031 C 42.746094 60.25 42.96875 60.144531 43.121094 60.019531 C 43.277344 59.882812 43.386719 59.726562 43.441406 59.570312 C 43.507812 59.390625 43.539062 59.21875 43.539062 59.046875 C 43.539062 58.824219 43.46875 58.628906 43.320312 58.457031 C 43.179688 58.28125 42.992188 58.136719 42.761719 58.003906 C 42.539062 57.863281 42.285156 57.75 42.007812 57.644531 C 41.730469 57.527344 41.449219 57.421875 41.171875 57.332031 C 40.800781 57.21875 40.417969 57.085938 40.015625 56.929688 C 39.621094 56.78125 39.253906 56.59375 38.925781 56.363281 C 38.605469 56.125 38.34375 55.847656 38.128906 55.511719 C 37.917969 55.167969 37.808594 54.742188 37.808594 54.234375 C 37.808594 53.222656 38.179688 52.4375 38.925781 51.871094 C 39.679688 51.304688 40.710938 51.027344 42.03125 51.027344 C 42.785156 51.027344 43.441406 51.101562 44 51.25 C 44.566406 51.394531 45.050781 51.566406 45.433594 51.75 L 44.714844 53.394531 C 44.386719 53.230469 44.015625 53.101562 43.597656 52.976562 C 43.203125 52.863281 42.738281 52.804688 42.203125 52.804688 C 40.910156 52.804688 40.253906 53.214844 40.253906 54.035156 C 40.253906 54.25 40.328125 54.429688 40.457031 54.59375 C 40.589844 54.742188 40.753906 54.878906 40.949219 55.011719 C 41.164062 55.125 41.402344 55.234375 41.648438 55.324219 C 41.917969 55.414062 42.171875 55.503906 42.425781 55.578125 C 42.8125 55.707031 43.210938 55.855469 43.621094 56.011719 C 44.050781 56.167969 44.425781 56.371094 44.777344 56.636719 C 45.132812 56.890625 45.425781 57.21875 45.648438 57.609375 C 45.878906 57.988281 45.992188 58.472656 45.992188 59.0625 C 45.992188 60.070312 45.617188 60.847656 44.851562 61.40625 C 44.113281 61.949219 42.976562 62.21875 41.449219 62.21875 C 40.433594 62.21875 39.613281 62.128906 39.007812 61.941406 C 38.390625 61.742188 37.933594 61.5625 37.628906 61.40625 L 38.34375 59.667969 C 38.703125 59.855469 39.128906 60.03125 39.621094 60.195312 C 40.121094 60.347656 40.738281 60.429688 41.449219 60.429688 "
       style="stroke:none;fill-rule:nonzero;fill:#000000;fill-opacity:1" />
    <path
       id="path4193"
       d="M 16 34 L 26 34 L 26 40 L 16 40 Z M 16 34 "
       style="stroke:none;fill-rule:nonzero;fill:#000000;fill-opacity:1" />
    <path
       id="path4195"
       d="M 40 21.984375 L 40 30 L 48 30 C 48 25.570312 44.417969 21.984375 40 21.984375 Z M 40 21.984375 "
       style="stroke:none;fill-rule:nonzero;fill:#000000;fill-opacity:1" />
    <path
       id="path4197"
       d="M 38.003906 24 C 33.585938 24 30 27.578125 30 32 C 30 36.421875 33.585938 40 38.003906 40 C 42.421875 40 46 36.421875 46 32 L 38.003906 32 Z M 38.003906 24 "
       style="stroke:none;fill-rule:nonzero;fill:#000000;fill-opacity:1" />
  </g>
  <g
     id="surface1">
    <path
       style=" stroke:none;fill-rule:nonzero;fill:rgb(100%,100%,100%);fill-opacity:1;"
       d="M 16 24 L 26 24 L 26 30 L 16 30 Z M 16 24 "
       id="path13" />
    <path
       style=" stroke:none;fill-rule:nonzero;fill:rgb(100%,100%,100%);fill-opacity:1;"
       d="M 20.453125 60.257812 C 20.515625 60.277344 20.589844 60.277344 20.671875 60.277344 C 20.746094 60.277344 20.820312 60.277344 20.886719 60.277344 C 21.445312 60.277344 21.910156 60.183594 22.28125 59.996094 C 22.664062 59.816406 22.96875 59.5625 23.199219 59.234375 C 23.4375 58.914062 23.601562 58.539062 23.699219 58.09375 C 23.804688 57.644531 23.855469 57.152344 23.855469 56.617188 C 23.855469 56.160156 23.8125 55.707031 23.738281 55.265625 C 23.65625 54.832031 23.519531 54.445312 23.320312 54.109375 C 23.117188 53.773438 22.847656 53.511719 22.5 53.3125 C 22.15625 53.101562 21.714844 53.003906 21.164062 53.003906 C 21.058594 53.003906 20.945312 53.003906 20.8125 53.019531 C 20.671875 53.019531 20.558594 53.027344 20.453125 53.050781 L 20.453125 60.257812 M 26.347656 56.617188 C 26.347656 57.609375 26.199219 58.464844 25.902344 59.167969 C 25.625 59.867188 25.230469 60.429688 24.730469 60.867188 C 24.222656 61.308594 23.625 61.628906 22.917969 61.832031 C 22.230469 62.03125 21.46875 62.128906 20.632812 62.128906 C 20.1875 62.128906 19.761719 62.113281 19.335938 62.0625 C 18.925781 62.03125 18.484375 61.964844 18 61.875 L 18 51.402344 C 18.558594 51.296875 19.082031 51.230469 19.574219 51.199219 C 20.066406 51.164062 20.523438 51.140625 20.953125 51.140625 C 21.753906 51.140625 22.492188 51.246094 23.15625 51.453125 C 23.839844 51.667969 24.402344 51.996094 24.871094 52.445312 C 25.339844 52.878906 25.691406 53.453125 25.945312 54.140625 C 26.207031 54.824219 26.347656 55.652344 26.347656 56.617188 "
       id="path15" />
    <path
       style=" stroke:none;fill-rule:nonzero;fill:rgb(100%,100%,100%);fill-opacity:1;"
       d="M 31.339844 51.140625 C 32.90625 51.140625 34.121094 51.429688 34.980469 51.996094 C 35.839844 52.550781 36.277344 53.460938 36.277344 54.734375 C 36.277344 56.011719 35.839844 56.945312 34.964844 57.519531 C 34.101562 58.085938 32.875 58.375 31.28125 58.375 L 30.40625 58.375 L 30.40625 61.988281 L 27.953125 61.988281 L 27.953125 51.402344 C 28.191406 51.363281 28.460938 51.320312 28.75 51.28125 C 29.0625 51.25 29.363281 51.222656 29.667969 51.214844 C 29.972656 51.191406 30.273438 51.175781 30.5625 51.167969 C 30.855469 51.148438 31.109375 51.140625 31.339844 51.140625 M 31.617188 53.003906 C 31.472656 53.003906 31.265625 53.003906 31.003906 53.019531 C 30.75 53.019531 30.554688 53.027344 30.40625 53.050781 L 30.40625 56.519531 L 31.398438 56.519531 C 32.183594 56.519531 32.773438 56.378906 33.167969 56.117188 C 33.570312 55.839844 33.765625 55.371094 33.765625 54.714844 C 33.765625 54.09375 33.570312 53.652344 33.167969 53.394531 C 32.785156 53.132812 32.265625 53.003906 31.617188 53.003906 "
       id="path17" />
    <path
       style=" stroke:none;fill-rule:nonzero;fill:rgb(100%,100%,100%);fill-opacity:1;"
       d="M 41.449219 60.429688 C 41.859375 60.429688 42.203125 60.398438 42.464844 60.332031 C 42.746094 60.25 42.96875 60.144531 43.121094 60.019531 C 43.277344 59.882812 43.386719 59.726562 43.441406 59.570312 C 43.507812 59.390625 43.539062 59.21875 43.539062 59.046875 C 43.539062 58.824219 43.46875 58.628906 43.320312 58.457031 C 43.179688 58.28125 42.992188 58.136719 42.761719 58.003906 C 42.539062 57.863281 42.285156 57.75 42.007812 57.644531 C 41.730469 57.527344 41.449219 57.421875 41.171875 57.332031 C 40.800781 57.21875 40.417969 57.085938 40.015625 56.929688 C 39.621094 56.78125 39.253906 56.59375 38.925781 56.363281 C 38.605469 56.125 38.34375 55.847656 38.128906 55.511719 C 37.917969 55.167969 37.808594 54.742188 37.808594 54.234375 C 37.808594 53.222656 38.179688 52.4375 38.925781 51.871094 C 39.679688 51.304688 40.710938 51.027344 42.03125 51.027344 C 42.785156 51.027344 43.441406 51.101562 44 51.25 C 44.566406 51.394531 45.050781 51.566406 45.433594 51.75 L 44.714844 53.394531 C 44.386719 53.230469 44.015625 53.101562 43.597656 52.976562 C 43.203125 52.863281 42.738281 52.804688 42.203125 52.804688 C 40.910156 52.804688 40.253906 53.214844 40.253906 54.035156 C 40.253906 54.25 40.328125 54.429688 40.457031 54.59375 C 40.589844 54.742188 40.753906 54.878906 40.949219 55.011719 C 41.164062 55.125 41.402344 55.234375 41.648438 55.324219 C 41.917969 55.414062 42.171875 55.503906 42.425781 55.578125 C 42.8125 55.707031 43.210938 55.855469 43.621094 56.011719 C 44.050781 56.167969 44.425781 56.371094 44.777344 56.636719 C 45.132812 56.890625 45.425781 57.21875 45.648438 57.609375 C 45.878906 57.988281 45.992188 58.472656 45.992188 59.0625 C 45.992188 60.070312 45.617188 60.847656 44.851562 61.40625 C 44.113281 61.949219 42.976562 62.21875 41.449219 62.21875 C 40.433594 62.21875 39.613281 62.128906 39.007812 61.941406 C 38.390625 61.742188 37.933594 61.5625 37.628906 61.40625 L 38.34375 59.667969 C 38.703125 59.855469 39.128906 60.03125 39.621094 60.195312 C 40.121094 60.347656 40.738281 60.429688 41.449219 60.429688 "
       id="path19" />
    <path
       style=" stroke:none;fill-rule:nonzero;fill:rgb(100%,100%,100%);fill-opacity:1;"
       d="M 16 34 L 26 34 L 26 40 L 16 40 Z M 16 34 "
       id="path21" />
    <path
       style=" stroke:none;fill-rule:nonzero;fill:rgb(100%,100%,100%);fill-opacity:1;"
       d="M 40 21.984375 L 40 30 L 48 30 C 48 25.570312 44.417969 21.984375 40 21.984375 Z M 40 21.984375 "
       id="path23" />
    <path
       style=" stroke:none;fill-rule:nonzero;fill:rgb(100%,100%,100%);fill-opacity:1;"
       d="M 38.003906 24 C 33.585938 24 30 27.578125 30 32 C 30 36.421875 33.585938 40 38.003906 40 C 42.421875 40 46 36.421875 46 32 L 38.003906 32 Z M 38.003906 24 "
       id="path25" />
  </g>
</svg>
