<?xml version="1.0" encoding="UTF-8" standalone="no"?>
<svg
   xmlns:dc="http://purl.org/dc/elements/1.1/"
   xmlns:cc="http://creativecommons.org/ns#"
   xmlns:rdf="http://www.w3.org/1999/02/22-rdf-syntax-ns#"
   xmlns:svg="http://www.w3.org/2000/svg"
   xmlns="http://www.w3.org/2000/svg"
   xmlns:sodipodi="http://sodipodi.sourceforge.net/DTD/sodipodi-0.dtd"
   xmlns:inkscape="http://www.inkscape.org/namespaces/inkscape"
   width="64px"
   height="64px"
   viewBox="0 0 64 64"
   version="1.1"
   id="svg2"
   inkscape:version="0.91 r13725"
   sodipodi:docname="wps-office-dpt.svg">
  <metadata
     id="metadata27">
    <rdf:RDF>
      <cc:Work
         rdf:about="">
        <dc:format>image/svg+xml</dc:format>
        <dc:type
           rdf:resource="http://purl.org/dc/dcmitype/StillImage" />
      </cc:Work>
    </rdf:RDF>
  </metadata>
  <defs
     id="defs25">
    <filter
       inkscape:collect="always"
       style="color-interpolation-filters:sRGB"
       id="filter4191"
       x="-0.11122266"
       width="1.2224453"
       y="-0.084442632"
       height="1.1688853">
      <feGaussianBlur
         inkscape:collect="always"
         stdDeviation="1.4829687"
         id="feGaussianBlur4193" />
    </filter>
  </defs>
  <sodipodi:namedview
     pagecolor="#ffffff"
     bordercolor="#666666"
     borderopacity="1"
     objecttolerance="10"
     gridtolerance="10"
     guidetolerance="10"
     inkscape:pageopacity="0"
     inkscape:pageshadow="2"
     inkscape:window-width="1301"
     inkscape:window-height="744"
     id="namedview23"
     showgrid="false"
     inkscape:zoom="7.375"
     inkscape:cx="28.102648"
     inkscape:cy="28.03087"
     inkscape:window-x="65"
     inkscape:window-y="24"
     inkscape:window-maximized="1"
     inkscape:current-layer="svg2" />
  <g
     id="surface1">
    <path
       style=" stroke:none;fill-rule:nonzero;fill:rgb(81.960784%,27.45098%,14.901961%);fill-opacity:1;"
       d="M 10.6875 0 C 9.3125 0 8 1.378906 8 2.8125 L 8 61.1875 C 8 62.539062 9.390625 64 10.6875 64 L 53.3125 64 C 54.609375 64 56 62.539062 56 61.1875 L 56 2.75 C 56 1.402344 54.597656 0 53.25 0 Z M 10.6875 0 "
       id="path5" />
    <path
       style=" stroke:none;fill-rule:nonzero;fill:rgb(0%,0%,0%);fill-opacity:0.196078;"
       d="M 8 48 L 8 61.335938 C 8 62.632812 9.375 64 10.664062 64 L 53.335938 64 C 54.625 64 56 62.632812 56 61.335938 L 56 48 Z M 8 48 "
       id="path7" />
    <g
       id="g4174"
       style="fill:#000000;opacity:0.35;filter:url(#filter4191)">
      <path
         style="stroke:none;fill-rule:nonzero;fill:#000000;fill-opacity:1"
         d="M 16 22 L 26 22 L 26 28 L 16 28 Z M 16 22 "
         id="path4176" />
      <path
         style="stroke:none;fill-rule:nonzero;fill:#000000;fill-opacity:1"
         d="M 16 32 L 26 32 L 26 38 L 16 38 Z M 16 32 "
         id="path4179" />
      <path
         style="stroke:none;fill-rule:nonzero;fill:#000000;fill-opacity:1"
         d="M 40 19.984375 L 40 28 L 48 28 C 48 23.570312 44.417969 19.984375 40 19.984375 Z M 40 19.984375 "
         id="path4181" />
      <path
         style="stroke:none;fill-rule:nonzero;fill:#000000;fill-opacity:1"
         d="M 20.425781 60.222656 C 20.492188 60.238281 20.566406 60.246094 20.640625 60.246094 C 20.722656 60.246094 20.796875 60.246094 20.863281 60.246094 C 21.410156 60.246094 21.871094 60.148438 22.238281 59.960938 C 22.617188 59.769531 22.921875 59.515625 23.140625 59.179688 C 23.378906 58.851562 23.542969 58.464844 23.632812 58.015625 C 23.742188 57.554688 23.796875 57.054688 23.796875 56.515625 C 23.796875 56.046875 23.757812 55.589844 23.675781 55.136719 C 23.601562 54.695312 23.460938 54.300781 23.265625 53.957031 C 23.070312 53.613281 22.796875 53.339844 22.453125 53.144531 C 22.117188 52.929688 21.675781 52.824219 21.132812 52.824219 C 21.027344 52.824219 20.910156 52.832031 20.78125 52.839844 C 20.648438 52.839844 20.535156 52.855469 20.425781 52.882812 L 20.425781 60.222656 M 26.257812 56.515625 C 26.257812 57.53125 26.109375 58.394531 25.824219 59.113281 C 25.546875 59.820312 25.160156 60.394531 24.660156 60.84375 C 24.160156 61.289062 23.570312 61.625 22.871094 61.828125 C 22.183594 62.035156 21.429688 62.132812 20.601562 62.132812 C 20.171875 62.132812 19.746094 62.109375 19.320312 62.058594 C 18.917969 62.027344 18.476562 61.960938 18 61.871094 L 18 51.199219 C 18.558594 51.09375 19.074219 51.019531 19.558594 50.988281 C 20.042969 50.953125 20.5 50.9375 20.917969 50.9375 C 21.722656 50.9375 22.445312 51.042969 23.101562 51.25 C 23.773438 51.460938 24.339844 51.800781 24.800781 52.257812 C 25.257812 52.710938 25.609375 53.285156 25.867188 53.988281 C 26.128906 54.6875 26.257812 55.53125 26.257812 56.515625 "
         id="path4183" />
      <path
         style="stroke:none;fill-rule:nonzero;fill:#000000;fill-opacity:1"
         d="M 31.203125 50.9375 C 32.753906 50.9375 33.953125 51.226562 34.804688 51.800781 C 35.65625 52.363281 36.085938 53.300781 36.085938 54.585938 C 36.085938 55.898438 35.65625 56.84375 34.789062 57.433594 C 33.9375 58.007812 32.722656 58.300781 31.148438 58.300781 L 30.277344 58.300781 L 30.277344 61.992188 L 27.851562 61.992188 L 27.851562 51.199219 C 28.085938 51.152344 28.351562 51.109375 28.636719 51.078125 C 28.941406 51.042969 29.246094 51.019531 29.546875 51.003906 C 29.851562 50.980469 30.144531 50.960938 30.433594 50.953125 C 30.71875 50.9375 30.976562 50.9375 31.203125 50.9375 M 31.476562 52.824219 C 31.335938 52.824219 31.128906 52.832031 30.867188 52.839844 C 30.613281 52.839844 30.417969 52.855469 30.277344 52.882812 L 30.277344 56.40625 L 31.261719 56.40625 C 32.03125 56.40625 32.625 56.277344 33.015625 56.007812 C 33.410156 55.71875 33.609375 55.242188 33.609375 54.570312 C 33.609375 53.941406 33.410156 53.488281 33.015625 53.234375 C 32.632812 52.964844 32.121094 52.824219 31.476562 52.824219 "
         id="path4185" />
      <path
         style="stroke:none;fill-rule:nonzero;fill:#000000;fill-opacity:1"
         d="M 46 51.0625 L 46 52.855469 L 42.785156 52.855469 L 42.785156 61.992188 L 40.339844 61.992188 L 40.339844 52.855469 L 37.132812 52.855469 L 37.132812 51.0625 L 46 51.0625 "
         id="path4187" />
      <path
         style="stroke:none;fill-rule:nonzero;fill:#000000;fill-opacity:1"
         d="M 38.003906 22 C 33.585938 22 30 25.578125 30 30 C 30 34.421875 33.585938 38 38.003906 38 C 42.421875 38 46 34.421875 46 30 L 38.003906 30 Z M 38.003906 22 "
         id="path4189" />
    </g>
    <g
       id="g4165">
      <path
         id="path9"
         d="M 16 22 L 26 22 L 26 28 L 16 28 Z M 16 22 "
         style=" stroke:none;fill-rule:nonzero;fill:rgb(100%,100%,100%);fill-opacity:1;" />
      <path
         id="path11"
         d="M 16 32 L 26 32 L 26 38 L 16 38 Z M 16 32 "
         style=" stroke:none;fill-rule:nonzero;fill:rgb(100%,100%,100%);fill-opacity:1;" />
      <path
         id="path13"
         d="M 40 19.984375 L 40 28 L 48 28 C 48 23.570312 44.417969 19.984375 40 19.984375 Z M 40 19.984375 "
         style=" stroke:none;fill-rule:nonzero;fill:rgb(100%,100%,100%);fill-opacity:1;" />
      <path
         id="path15"
         d="M 20.425781 60.222656 C 20.492188 60.238281 20.566406 60.246094 20.640625 60.246094 C 20.722656 60.246094 20.796875 60.246094 20.863281 60.246094 C 21.410156 60.246094 21.871094 60.148438 22.238281 59.960938 C 22.617188 59.769531 22.921875 59.515625 23.140625 59.179688 C 23.378906 58.851562 23.542969 58.464844 23.632812 58.015625 C 23.742188 57.554688 23.796875 57.054688 23.796875 56.515625 C 23.796875 56.046875 23.757812 55.589844 23.675781 55.136719 C 23.601562 54.695312 23.460938 54.300781 23.265625 53.957031 C 23.070312 53.613281 22.796875 53.339844 22.453125 53.144531 C 22.117188 52.929688 21.675781 52.824219 21.132812 52.824219 C 21.027344 52.824219 20.910156 52.832031 20.78125 52.839844 C 20.648438 52.839844 20.535156 52.855469 20.425781 52.882812 L 20.425781 60.222656 M 26.257812 56.515625 C 26.257812 57.53125 26.109375 58.394531 25.824219 59.113281 C 25.546875 59.820312 25.160156 60.394531 24.660156 60.84375 C 24.160156 61.289062 23.570312 61.625 22.871094 61.828125 C 22.183594 62.035156 21.429688 62.132812 20.601562 62.132812 C 20.171875 62.132812 19.746094 62.109375 19.320312 62.058594 C 18.917969 62.027344 18.476562 61.960938 18 61.871094 L 18 51.199219 C 18.558594 51.09375 19.074219 51.019531 19.558594 50.988281 C 20.042969 50.953125 20.5 50.9375 20.917969 50.9375 C 21.722656 50.9375 22.445312 51.042969 23.101562 51.25 C 23.773438 51.460938 24.339844 51.800781 24.800781 52.257812 C 25.257812 52.710938 25.609375 53.285156 25.867188 53.988281 C 26.128906 54.6875 26.257812 55.53125 26.257812 56.515625 "
         style=" stroke:none;fill-rule:nonzero;fill:rgb(100%,100%,100%);fill-opacity:1;" />
      <path
         id="path17"
         d="M 31.203125 50.9375 C 32.753906 50.9375 33.953125 51.226562 34.804688 51.800781 C 35.65625 52.363281 36.085938 53.300781 36.085938 54.585938 C 36.085938 55.898438 35.65625 56.84375 34.789062 57.433594 C 33.9375 58.007812 32.722656 58.300781 31.148438 58.300781 L 30.277344 58.300781 L 30.277344 61.992188 L 27.851562 61.992188 L 27.851562 51.199219 C 28.085938 51.152344 28.351562 51.109375 28.636719 51.078125 C 28.941406 51.042969 29.246094 51.019531 29.546875 51.003906 C 29.851562 50.980469 30.144531 50.960938 30.433594 50.953125 C 30.71875 50.9375 30.976562 50.9375 31.203125 50.9375 M 31.476562 52.824219 C 31.335938 52.824219 31.128906 52.832031 30.867188 52.839844 C 30.613281 52.839844 30.417969 52.855469 30.277344 52.882812 L 30.277344 56.40625 L 31.261719 56.40625 C 32.03125 56.40625 32.625 56.277344 33.015625 56.007812 C 33.410156 55.71875 33.609375 55.242188 33.609375 54.570312 C 33.609375 53.941406 33.410156 53.488281 33.015625 53.234375 C 32.632812 52.964844 32.121094 52.824219 31.476562 52.824219 "
         style=" stroke:none;fill-rule:nonzero;fill:rgb(100%,100%,100%);fill-opacity:1;" />
      <path
         id="path19"
         d="M 46 51.0625 L 46 52.855469 L 42.785156 52.855469 L 42.785156 61.992188 L 40.339844 61.992188 L 40.339844 52.855469 L 37.132812 52.855469 L 37.132812 51.0625 L 46 51.0625 "
         style=" stroke:none;fill-rule:nonzero;fill:rgb(100%,100%,100%);fill-opacity:1;" />
      <path
         id="path21"
         d="M 38.003906 22 C 33.585938 22 30 25.578125 30 30 C 30 34.421875 33.585938 38 38.003906 38 C 42.421875 38 46 34.421875 46 30 L 38.003906 30 Z M 38.003906 22 "
         style=" stroke:none;fill-rule:nonzero;fill:rgb(100%,100%,100%);fill-opacity:1;" />
    </g>
  </g>
  <g
     id="g4161">
    <path
       style="opacity:0.15;fill:#000000;fill-opacity:1;fill-rule:nonzero;stroke:none"
       d="m 7.9999995,60.210938 0,1 c 0,1.355468 1.375,2.789062 2.6718755,2.789062 l 42.656244,0 C 54.624989,64 56,62.566406 56,61.210938 l 0,-1 C 56,61.566406 54.624989,63 53.328119,63 L 10.671875,63 C 9.3749995,63 7.9999995,61.566406 7.9999995,60.210938 Z"
       id="path4178"
       inkscape:connector-curvature="0" />
    <path
       inkscape:connector-curvature="0"
       id="path4159"
       d="m 7.9999998,3.789062 0,-1 C 7.9999998,1.433594 9.3749999,0 10.671875,0 L 53.328119,0 C 54.624989,0 56,1.433594 56,2.789062 l 0,1 C 56,2.433594 54.624989,1 53.328119,1 L 10.671875,1 C 9.3749998,1 7.9999998,2.433594 7.9999998,3.789062 Z"
       style="opacity:0.5;fill:#ffffff;fill-opacity:1;fill-rule:nonzero;stroke:none" />
  </g>
</svg>
