<?xml version="1.0" encoding="UTF-8" standalone="no"?>
<svg
   xmlns:dc="http://purl.org/dc/elements/1.1/"
   xmlns:cc="http://creativecommons.org/ns#"
   xmlns:rdf="http://www.w3.org/1999/02/22-rdf-syntax-ns#"
   xmlns:svg="http://www.w3.org/2000/svg"
   xmlns="http://www.w3.org/2000/svg"
   xmlns:sodipodi="http://sodipodi.sourceforge.net/DTD/sodipodi-0.dtd"
   xmlns:inkscape="http://www.inkscape.org/namespaces/inkscape"
   width="64px"
   height="64px"
   viewBox="0 0 64 64"
   version="1.1"
   id="svg2"
   inkscape:version="0.91 r13725"
   sodipodi:docname="wps-office-ett.svg">
  <metadata
     id="metadata21">
    <rdf:RDF>
      <cc:Work
         rdf:about="">
        <dc:format>image/svg+xml</dc:format>
        <dc:type
           rdf:resource="http://purl.org/dc/dcmitype/StillImage" />
      </cc:Work>
    </rdf:RDF>
  </metadata>
  <defs
     id="defs19">
    <filter
       inkscape:collect="always"
       style="color-interpolation-filters:sRGB"
       id="filter4175"
       x="-0.12342857"
       width="1.2468571"
       y="-0.078545455"
       height="1.1570909">
      <feGaussianBlur
         inkscape:collect="always"
         stdDeviation="1.44"
         id="feGaussianBlur4177" />
    </filter>
  </defs>
  <sodipodi:namedview
     pagecolor="#ffffff"
     bordercolor="#666666"
     borderopacity="1"
     objecttolerance="10"
     gridtolerance="10"
     guidetolerance="10"
     inkscape:pageopacity="0"
     inkscape:pageshadow="2"
     inkscape:window-width="1301"
     inkscape:window-height="744"
     id="namedview17"
     showgrid="false"
     inkscape:zoom="5.2149125"
     inkscape:cx="32.157791"
     inkscape:cy="43.595285"
     inkscape:window-x="65"
     inkscape:window-y="24"
     inkscape:window-maximized="1"
     inkscape:current-layer="svg2" />
  <g
     id="surface1">
    <path
       style=" stroke:none;fill-rule:nonzero;fill:rgb(12.54902%,44.313725%,27.058824%);fill-opacity:1;"
       d="M 10.6875 0 C 9.3125 0 8 1.378906 8 2.8125 L 8 61.1875 C 8 62.539062 9.390625 64 10.6875 64 L 53.3125 64 C 54.609375 64 56 62.539062 56 61.1875 L 56 2.75 C 56 1.402344 54.597656 0 53.25 0 Z M 10.6875 0 "
       id="path5" />
    <path
       style=" stroke:none;fill-rule:nonzero;fill:rgb(0%,0%,0%);fill-opacity:0.196078;"
       d="M 8 48 L 8 61.335938 C 8 62.632812 9.375 64 10.664062 64 L 53.335938 64 C 54.625 64 56 62.632812 56 61.335938 L 56 48 Z M 8 48 "
       id="path9" />
    <g
       id="g4165"
       style="fill:#000000;opacity:0.35;filter:url(#filter4175)">
      <path
         style="stroke:none;fill-rule:nonzero;fill:#000000;fill-opacity:1"
         d="M 46 18 L 46 44 L 18 44 L 18 18 Z M 44 20 L 30 20 L 30 26 L 44 26 Z M 28 20 L 20 20 L 20 26 L 28 26 Z M 44 28 L 30 28 L 30 34 L 44 34 Z M 28 28 L 20 28 L 20 34 L 28 34 Z M 44 36 L 30 36 L 30 42 L 44 42 Z M 28 36 L 20 36 L 20 42 L 28 42 Z M 28 36 "
         id="path4167" />
      <path
         style="stroke:none;fill-rule:nonzero;fill:#000000;fill-opacity:1"
         d="M 18 62 L 18 50.804688 L 25.4375 50.804688 L 25.4375 52.648438 L 20.445312 52.648438 L 20.445312 55.160156 L 24.78125 55.160156 L 24.78125 57.003906 L 20.445312 57.003906 L 20.445312 60.15625 L 25.875 60.15625 L 25.875 62 L 18 62 "
         id="path4169" />
      <path
         style="stroke:none;fill-rule:nonzero;fill:#000000;fill-opacity:1"
         d="M 36.085938 50.804688 L 36.085938 52.648438 L 32.851562 52.648438 L 32.851562 62 L 30.390625 62 L 30.390625 52.648438 L 27.160156 52.648438 L 27.160156 50.804688 L 36.085938 50.804688 "
         id="path4171" />
      <path
         style="stroke:none;fill-rule:nonzero;fill:#000000;fill-opacity:1"
         d="M 46 50.804688 L 46 52.648438 L 42.769531 52.648438 L 42.769531 62 L 40.308594 62 L 40.308594 52.648438 L 37.078125 52.648438 L 37.078125 50.804688 L 46 50.804688 "
         id="path4173" />
    </g>
    <g
       id="g4159">
      <path
         id="path7"
         d="M 46 18 L 46 44 L 18 44 L 18 18 Z M 44 20 L 30 20 L 30 26 L 44 26 Z M 28 20 L 20 20 L 20 26 L 28 26 Z M 44 28 L 30 28 L 30 34 L 44 34 Z M 28 28 L 20 28 L 20 34 L 28 34 Z M 44 36 L 30 36 L 30 42 L 44 42 Z M 28 36 L 20 36 L 20 42 L 28 42 Z M 28 36 "
         style=" stroke:none;fill-rule:nonzero;fill:rgb(100%,100%,100%);fill-opacity:1;" />
      <path
         id="path11"
         d="M 18 62 L 18 50.804688 L 25.4375 50.804688 L 25.4375 52.648438 L 20.445312 52.648438 L 20.445312 55.160156 L 24.78125 55.160156 L 24.78125 57.003906 L 20.445312 57.003906 L 20.445312 60.15625 L 25.875 60.15625 L 25.875 62 L 18 62 "
         style=" stroke:none;fill-rule:nonzero;fill:rgb(100%,100%,100%);fill-opacity:1;" />
      <path
         id="path13"
         d="M 36.085938 50.804688 L 36.085938 52.648438 L 32.851562 52.648438 L 32.851562 62 L 30.390625 62 L 30.390625 52.648438 L 27.160156 52.648438 L 27.160156 50.804688 L 36.085938 50.804688 "
         style=" stroke:none;fill-rule:nonzero;fill:rgb(100%,100%,100%);fill-opacity:1;" />
      <path
         id="path15"
         d="M 46 50.804688 L 46 52.648438 L 42.769531 52.648438 L 42.769531 62 L 40.308594 62 L 40.308594 52.648438 L 37.078125 52.648438 L 37.078125 50.804688 L 46 50.804688 "
         style=" stroke:none;fill-rule:nonzero;fill:rgb(100%,100%,100%);fill-opacity:1;" />
    </g>
  </g>
  <g
     id="g4161">
    <path
       style="opacity:0.15;fill:#000000;fill-opacity:1;fill-rule:nonzero;stroke:none"
       d="m 7.9999995,60.210938 0,1 c 0,1.355468 1.375,2.789062 2.6718755,2.789062 l 42.656244,0 C 54.624989,64 56,62.566406 56,61.210938 l 0,-1 C 56,61.566406 54.624989,63 53.328119,63 L 10.671875,63 C 9.3749995,63 7.9999995,61.566406 7.9999995,60.210938 Z"
       id="path4178"
       inkscape:connector-curvature="0" />
    <path
       inkscape:connector-curvature="0"
       id="path4159"
       d="m 7.9999998,3.789062 0,-1 C 7.9999998,1.433594 9.3749999,0 10.671875,0 L 53.328119,0 C 54.624989,0 56,1.433594 56,2.789062 l 0,1 C 56,2.433594 54.624989,1 53.328119,1 L 10.671875,1 C 9.3749998,1 7.9999998,2.433594 7.9999998,3.789062 Z"
       style="opacity:0.5;fill:#ffffff;fill-opacity:1;fill-rule:nonzero;stroke:none" />
  </g>
</svg>
