<svg width="22" height="22" version="1.1" xmlns="http://www.w3.org/2000/svg">
 <defs>
  <style id="current-color-scheme" type="text/css">.ColorScheme-Text { color:#727272; } .ColorScheme-Highlight { color:#5294e2; }</style>
 </defs>
 <g transform="translate(2.9998 -3)" class="ColorScheme-Text" fill="currentColor">
  <path d="m2.5 8c-0.831 0-1.5 0.669-1.5 1.5v8.5c0 1.108 0.892 2 2 2h10c1.108 0 2-0.892 2-2v-6c0-1.108-0.892-2-2-2h-5l-2-2zm0.5 4h10v6h-10z"/>
  <path d="m1.8906 14c-0.45434 0-0.86174 0.11528-1.2402 0.38281-0.18925 0.13377-0.37889 0.31458-0.51367 0.5918s-0.17903 0.67176-0.070312 1.0039l0.87305 2.666c0.20672 0.63155 0.91553 1.3555 1.8242 1.3555h10.473c0.90869 0 1.6175-0.72392 1.8242-1.3555l0.87305-2.666c0.10872-0.33215 0.06447-0.72669-0.07031-1.0039-0.13479-0.27722-0.32442-0.45803-0.51367-0.5918-0.37849-0.26753-0.78589-0.38281-1.2402-0.38281z"/>
 </g>
</svg>
