<svg width="22" height="22" version="1.1" viewBox="0 0 22 22" xmlns="http://www.w3.org/2000/svg">
 <defs>
  <style id="current-color-scheme" type="text/css">.ColorScheme-Text { color:#727272; } .ColorScheme-Highlight { color:#5294e2; }</style>
 </defs>
 <g transform="translate(3,3)" class="ColorScheme-Text" fill="currentColor">
  <path d="m2.5 2c-0.831 0-1.5 0.669-1.5 1.5v8.5c0 1.108 0.892 2 2 2h10c1.108 0 2-0.892 2-2v-6c0-1.108-0.892-2-2-2h-5l-2-2zm0.5 4h10v6h-10z" />
  <rect x="4" y="8" width="1" height="1" />
  <rect x="6" y="8" width="1" height="1" />
  <rect x="8" y="8" width="1" height="1" />
  <rect x="10" y="8" width="1" height="1" />
  <rect x="5" y="9" width="1" height="1" opacity=".75"/>
  <rect x="7" y="9" width="1" height="1" opacity=".75"/>
  <rect x="9" y="9" width="1" height="1" opacity=".75"/>
  <rect x="11" y="9" width="1" height="1" opacity=".75"/>
  <rect x="4" y="10" width="1" height="1" opacity=".5"/>
  <rect x="6" y="10" width="1" height="1" opacity=".5"/>
  <rect x="8" y="10" width="1" height="1" opacity=".5"/>
  <rect x="10" y="10" width="1" height="1" opacity=".5"/>
  <rect x="5" y="11" width="1" height="1" opacity=".25"/>
  <rect x="7" y="11" width="1" height="1" opacity=".25"/>
  <rect x="9" y="11" width="1" height="1" opacity=".25"/>
  <rect x="11" y="11" width="1" height="1" opacity=".25"/>
 </g>
</svg>
