<svg width="64" height="64" version="1.1" xmlns="http://www.w3.org/2000/svg" xmlns:xlink="http://www.w3.org/1999/xlink">
 <defs>
  <linearGradient id="a">
   <stop offset="0"/>
   <stop stop-opacity="0" offset="1"/>
  </linearGradient>
  <filter id="d" x="-.038" y="-.0342" width="1.076" height="1.0684" color-interpolation-filters="sRGB">
   <feGaussianBlur stdDeviation="0.285"/>
  </filter>
  <linearGradient id="b" x1="31" x2="31" y1="1005.4" y2="1003.4" gradientTransform="matrix(.92593 0 0 1 2.3704 -988.36)" gradientUnits="userSpaceOnUse" xlink:href="#a"/>
  <radialGradient id="c" cx="32" cy="1021.9" r="25" gradientTransform="matrix(-1 0 0 -.080001 64 137.74)" gradientUnits="userSpaceOnUse" xlink:href="#a"/>
 </defs>
 <g transform="translate(0 -988.36)" stroke-width="1.4241">
  <path transform="translate(0 988.36)" d="m13 8.002c-1.108 0-2 0.892-2 2h-2.2148c-0.98928 0-1.7852 0.892-1.7852 2v6c0 1.108 0.79588 2 1.7852 2h46.43c0.98928 0 1.7852-0.892 1.7852-2v-6c0-1.108-0.79588-2-1.7852-2h-24.215c0-1.108-0.892-2-2-2z" fill="#686868"/>
  <path transform="translate(0 988.36)" d="m13 8.002c-1.108 0-2 0.892-2 2h-2.2148c-0.98928 0-1.7852 0.892-1.7852 2v6c0 1.108 0.79588 2 1.7852 2h46.43c0.98928 0 1.7852-0.892 1.7852-2v-6c0-1.108-0.79588-2-1.7852-2h-24.215c0-1.108-0.892-2-2-2z" opacity=".15"/>
  <rect x="10" y="1001.4" width="44" height="7" rx=".88" ry="1" fill="#fff"/>
 </g>
 <rect x="7" y="15.04" width="50" height="2" ry="0" fill="url(#b)" opacity=".1" stroke-width="1.4088"/>
 <rect x="7" y="56.04" width="50" height="5" ry="0" fill="url(#c)" opacity=".1" stroke-width="1.4088"/>
 <rect x="4" y="17.04" width="56" height="39" rx="2" ry="2.0001" fill="#686868" stroke-width="1.4241"/>
 <path d="m4 53.039v1c0 1.1081 0.892 2 2 2h52c1.108 0 2-0.89194 2-2v-1c0 1.108-0.892 2-2 2h-52c-1.108 0-2-0.892-2-2z" opacity=".15" stroke-width="1.4241"/>
 <path d="m43.316 31.34c2.4853 0 4.5 2.0148 4.5 4.5s-2.0147 4.5-4.5 4.5-4.5-2.0148-4.5-4.5 2.0147-4.5 4.5-4.5zm3.45e-4 12c8.9997 0 8.9997 6.0051 8.9997 6.0051v1.9949h-18v-1.9949s0-6 9.0003-6.0051z" color="#000000" filter="url(#d)" opacity=".15" style="text-decoration-line:none;text-indent:0;text-transform:none"/>
 <path d="m43 31.04c2.4853 0 4.5 2.0148 4.5 4.5s-2.0147 4.5-4.5 4.5-4.5-2.0148-4.5-4.5 2.0147-4.5 4.5-4.5zm3.45e-4 12c8.9997 0 8.9997 6.0051 8.9997 6.0051v1.9949h-18v-1.9949s0-6 9.0003-6.0051z" color="#000000" fill="#fff" style="text-decoration-line:none;text-indent:0;text-transform:none"/>
</svg>
