<svg width="64" height="64" version="1.1" id="svg9" xmlns:xlink="http://www.w3.org/1999/xlink" xmlns="http://www.w3.org/2000/svg" xmlns:svg="http://www.w3.org/2000/svg">
 <defs id="defs2">
  <linearGradient id="a">
   <stop offset="0" id="stop1" />
   <stop stop-opacity="0" offset="1" id="stop2" />
  </linearGradient>
  <filter style="color-interpolation-filters:sRGB" id="filter1" x="-0.03591507" y="-0.03591453" width="1.0718301" height="1.0718291">
   <feGaussianBlur stdDeviation="0.29929224" id="feGaussianBlur1" />
  </filter>
  <radialGradient id="b-7" cx="32" cy="1021.9" r="25" gradientTransform="matrix(-1,0,0,-0.080001,64,1126.098)" gradientUnits="userSpaceOnUse" xlink:href="#a" />
  <linearGradient id="c-0" x1="31" x2="31" y1="1005.4" y2="1003.4" gradientTransform="matrix(0.92593,0,0,1,2.3704,-0.002)" gradientUnits="userSpaceOnUse" xlink:href="#a" />
 </defs>
 <g transform="translate(0,-988.36)" id="g9">
  <g transform="translate(0,-0.002)" stroke-width="1.4241" id="g3">
   <path transform="translate(0,988.36)" d="m 13,8.002 c -1.108,0 -2,0.892 -2,2 H 8.7852 C 7.79592,10.002 7,10.894 7,12.002 v 6 c 0,1.108 0.79588,2 1.7852,2 h 46.43 c 0.98928,0 1.7852,-0.892 1.7852,-2 v -6 c 0,-1.108 -0.79588,-2 -1.7852,-2 h -24.215 c 0,-1.108 -0.892,-2 -2,-2 h -16 z" fill="#4285f4" id="path4" />
   <path transform="translate(0,988.36)" d="m 13,8.002 c -1.108,0 -2,0.892 -2,2 H 8.7852 C 7.79592,10.002 7,10.894 7,12.002 v 6 c 0,1.108 0.79588,2 1.7852,2 h 46.43 c 0.98928,0 1.7852,-0.892 1.7852,-2 v -6 c 0,-1.108 -0.79588,-2 -1.7852,-2 h -24.215 c 0,-1.108 -0.892,-2 -2,-2 h -16 z" opacity="0.15" id="path3" />
   <rect x="10" y="1001.4" width="44" height="7" rx="0.88" ry="1" fill="#ffffff" id="rect3" />
  </g>
  <rect x="7" y="1003.398" width="50" height="2" ry="0" fill="url(#c)" opacity="0.1" stroke-width="1.4088" id="rect4" style="fill:url(#c-0)" />
  <rect x="7" y="1044.3979" width="50" height="5" ry="0" fill="url(#b)" opacity="0.1" stroke-width="1.4088" id="rect5-9" style="fill:url(#b-7)" />
  <rect x="4" y="1005.398" width="56" height="39" rx="2" ry="2.0000999" fill="#4285f4" stroke-width="1.4241" id="rect6-2" />
  <path d="m 4,1041.397 v 1 c 0,1.1081 0.892,2 2,2 h 52 c 1.108,0 2,-0.8919 2,-2 v -1 c 0,1.108 -0.892,2 -2,2 H 6 c -1.108,0 -2,-0.892 -2,-2 z" opacity="0.15" stroke-width="1.4241" id="path6" />
  <path id="path2" style="color:#565656;opacity:0.15;fill:#000000;stroke-width:0.64935;filter:url(#filter1)" class="ColorScheme-Text" d="m 41.857141,1027.6461 v 7.7922 l 7.142857,-3.8961 -6.427558,-3.5067 z m -5.428572,-8.2857 c 0,0 -0.108912,0.011 -0.259487,0.034 -0.291714,0.043 -0.512365,0.1476 -0.675223,0.2901 -0.03158,0.024 -0.06208,0.05 -0.09208,0.078 -0.028,0.03 -0.05399,0.061 -0.07813,0.092 -0.142429,0.1629 -0.247036,0.3836 -0.290179,0.6752 C 35.0059,1020.6801 35,1020.789 35,1020.789 v 17.1428 c 0,1.4285 1.428571,1.4285 1.428571,1.4285 h 17.142857 c 0,0 1.428571,0 1.428571,-1.4285 v -17.1428 c 0,0 -0.0063,-0.1089 -0.03349,-0.2596 -0.04429,-0.2917 -0.147321,-0.5123 -0.290177,-0.6751 -0.02429,-0.032 -0.05099,-0.062 -0.07813,-0.092 -0.03,-0.028 -0.06064,-0.055 -0.09208,-0.078 -0.162855,-0.1426 -0.383792,-0.2471 -0.675221,-0.2903 -0.151428,-0.028 -0.259485,-0.034 -0.259485,-0.034 z m 1.428571,7.1429 h 14.285716 v 9.9999 H 37.85714 Z" />
  <path id="path1" style="color:#565656;fill:#ffffff;stroke-width:0.64935" class="ColorScheme-Text" d="m 41.857141,1027.6461 v 7.7922 l 7.142857,-3.8961 -6.427558,-3.5067 z m -5.428572,-8.2857 c 0,0 -0.108912,0.011 -0.259487,0.034 -0.291714,0.043 -0.512365,0.1476 -0.675223,0.2901 -0.03158,0.024 -0.06208,0.05 -0.09208,0.078 -0.028,0.03 -0.05399,0.061 -0.07813,0.092 -0.142429,0.1629 -0.247036,0.3836 -0.290179,0.6752 C 35.0059,1020.6801 35,1020.789 35,1020.789 v 17.1428 c 0,1.4285 1.428571,1.4285 1.428571,1.4285 h 17.142857 c 0,0 1.428571,0 1.428571,-1.4285 v -17.1428 c 0,0 -0.0063,-0.1089 -0.03349,-0.2596 -0.04429,-0.2917 -0.147321,-0.5123 -0.290177,-0.6751 -0.02429,-0.032 -0.05099,-0.062 -0.07813,-0.092 -0.03,-0.028 -0.06064,-0.055 -0.09208,-0.078 -0.162855,-0.1426 -0.383792,-0.2471 -0.675221,-0.2903 -0.151428,-0.028 -0.259485,-0.034 -0.259485,-0.034 z m 1.428571,7.1429 h 14.285716 v 9.9999 H 37.85714 Z" />
 </g>
</svg>
