<svg width="64" height="64" version="1.1" id="svg9" xmlns:xlink="http://www.w3.org/1999/xlink" xmlns="http://www.w3.org/2000/svg" xmlns:svg="http://www.w3.org/2000/svg">
 <defs id="defs2">
  <linearGradient id="a">
   <stop offset="0" id="stop1" />
   <stop stop-opacity="0" offset="1" id="stop2" />
  </linearGradient>
  <filter style="color-interpolation-filters:sRGB" id="filter1" x="-0.031042645" y="-0.042601048" width="1.0620853" height="1.0852021">
   <feGaussianBlur stdDeviation="0.28455726" id="feGaussianBlur1" />
  </filter>
  <radialGradient id="b-7" cx="32" cy="1021.9" r="25" gradientTransform="matrix(-1,0,0,-0.080001,64,1126.098)" gradientUnits="userSpaceOnUse" xlink:href="#a" />
  <linearGradient id="c-0" x1="31" x2="31" y1="1005.4" y2="1003.4" gradientTransform="matrix(0.92593,0,0,1,2.3704,-0.002)" gradientUnits="userSpaceOnUse" xlink:href="#a" />
 </defs>
 <g transform="translate(0,-988.36)" id="g9">
  <g transform="translate(0,-0.002)" stroke-width="1.4241" id="g3">
   <path transform="translate(0,988.36)" d="m 13,8.002 c -1.108,0 -2,0.892 -2,2 H 8.7852 C 7.79592,10.002 7,10.894 7,12.002 v 6 c 0,1.108 0.79588,2 1.7852,2 h 46.43 c 0.98928,0 1.7852,-0.892 1.7852,-2 v -6 c 0,-1.108 -0.79588,-2 -1.7852,-2 h -24.215 c 0,-1.108 -0.892,-2 -2,-2 h -16 z" fill="#f0544c" id="path2" />
   <path transform="translate(0,988.36)" d="m 13,8.002 c -1.108,0 -2,0.892 -2,2 H 8.7852 C 7.79592,10.002 7,10.894 7,12.002 v 6 c 0,1.108 0.79588,2 1.7852,2 h 46.43 c 0.98928,0 1.7852,-0.892 1.7852,-2 v -6 c 0,-1.108 -0.79588,-2 -1.7852,-2 h -24.215 c 0,-1.108 -0.892,-2 -2,-2 h -16 z" opacity="0.15" id="path3" />
   <rect x="10" y="1001.4" width="44" height="7" rx="0.88" ry="1" fill="#ffffff" id="rect3" />
  </g>
  <rect x="7" y="1003.398" width="50" height="2" ry="0" fill="url(#c)" opacity="0.1" stroke-width="1.4088" id="rect4" style="fill:url(#c-0)" />
  <rect x="7" y="1044.3979" width="50" height="5" ry="0" fill="url(#b)" opacity="0.1" stroke-width="1.4088" id="rect5-9" style="fill:url(#b-7)" />
  <rect x="4" y="1005.398" width="56" height="39" rx="2" ry="2.0000999" fill="#f0544c" stroke-width="1.4241" id="rect6-2" />
  <path d="m 4,1041.397 v 1 c 0,1.1081 0.892,2 2,2 h 52 c 1.108,0 2,-0.8919 2,-2 v -1 c 0,1.108 -0.892,2 -2,2 H 6 c -1.108,0 -2,-0.892 -2,-2 z" opacity="0.15" stroke-width="1.4241" id="path6" />
  <path id="path4" style="color:#727272;opacity:0.15;fill:#000000;stroke-width:1.14507;filter:url(#filter1)" class="ColorScheme-Text" d="m 37.313607,1021.66 c -2.278698,0 -4.214947,1.6714 -4.535568,3.9272 l -1.247952,8.7714 c -0.251916,1.7634 1.110185,3.3324 2.88505,3.3324 0.778651,0 1.512393,-0.3092 2.062028,-0.8588 l 2.5876,-2.5764 h 6.870446 l 2.576417,2.5764 c 0.549636,0.5496 1.294829,0.8588 2.062028,0.8588 1.786316,0 3.14815,-1.569 2.896233,-3.3324 l -1.247952,-8.7714 c -0.320621,-2.2558 -2.256869,-3.9272 -4.535567,-3.9272 z m 8.368883,2.6994 c 0.873953,0 1.581186,0.7073 1.581186,1.5812 0,0.8739 -0.707233,1.5834 -1.581186,1.5834 -0.873954,0 -1.583424,-0.7095 -1.583424,-1.5834 0,-0.8739 0.70947,-1.5812 1.583424,-1.5812 z m -8.049068,0.045 h 1.531985 v 3.064 h 3.063968 v 1.532 h -3.063968 v 3.0639 h -1.531985 v -3.0639 h -3.061731 v -1.532 h 3.061731 z m 11.166711,3.3905 c 0.873953,0 1.583424,0.7073 1.583424,1.5812 0,0.8739 -0.709471,1.5834 -1.583424,1.5834 -0.873954,0 -1.581186,-0.7095 -1.581186,-1.5834 0,-0.8739 0.707232,-1.5812 1.581186,-1.5812 z" />
  <path id="path1" style="color:#727272;fill:#ffffff;stroke-width:1.14507" class="ColorScheme-Text" d="m 37.313607,1021.66 c -2.278698,0 -4.214947,1.6714 -4.535568,3.9272 l -1.247952,8.7714 c -0.251916,1.7634 1.110185,3.3324 2.88505,3.3324 0.778651,0 1.512393,-0.3092 2.062028,-0.8588 l 2.5876,-2.5764 h 6.870446 l 2.576417,2.5764 c 0.549636,0.5496 1.294829,0.8588 2.062028,0.8588 1.786316,0 3.14815,-1.569 2.896233,-3.3324 l -1.247952,-8.7714 c -0.320621,-2.2558 -2.256869,-3.9272 -4.535567,-3.9272 z m 8.368883,2.6994 c 0.873953,0 1.581186,0.7073 1.581186,1.5812 0,0.8739 -0.707233,1.5834 -1.581186,1.5834 -0.873954,0 -1.583424,-0.7095 -1.583424,-1.5834 0,-0.8739 0.70947,-1.5812 1.583424,-1.5812 z m -8.049068,0.045 h 1.531985 v 3.064 h 3.063968 v 1.532 h -3.063968 v 3.0639 h -1.531985 v -3.0639 h -3.061731 v -1.532 h 3.061731 z m 11.166711,3.3905 c 0.873953,0 1.583424,0.7073 1.583424,1.5812 0,0.8739 -0.709471,1.5834 -1.583424,1.5834 -0.873954,0 -1.581186,-0.7095 -1.581186,-1.5834 0,-0.8739 0.707232,-1.5812 1.581186,-1.5812 z" />
 </g>
</svg>
