<?xml version="1.0" encoding="UTF-8" standalone="no"?>
<!-- Created with Inkscape (http://www.inkscape.org/) -->

<svg
   xmlns:dc="http://purl.org/dc/elements/1.1/"
   xmlns:cc="http://creativecommons.org/ns#"
   xmlns:rdf="http://www.w3.org/1999/02/22-rdf-syntax-ns#"
   xmlns:svg="http://www.w3.org/2000/svg"
   xmlns="http://www.w3.org/2000/svg"
   xmlns:sodipodi="http://sodipodi.sourceforge.net/DTD/sodipodi-0.dtd"
   xmlns:inkscape="http://www.inkscape.org/namespaces/inkscape"
   width="64"
   height="64"
   id="svg2"
   version="1.1"
   inkscape:version="0.91 r13725"
   sodipodi:docname="default-folder-music.svg"
   inkscape:export-filename="/media/Data/Main/Visuals/Icons/Numix/Desktop/repos/numix-wiki/Gjorgi/Numix-folders/48/New/folder-144.png"
   inkscape:export-xdpi="270"
   inkscape:export-ydpi="270">
  <defs
     id="defs4">
    <filter
       inkscape:collect="always"
       style="color-interpolation-filters:sRGB"
       id="filter4417"
       x="-0.018449999"
       width="1.0369"
       y="-0.73799998"
       height="2.4760001">
      <feGaussianBlur
         inkscape:collect="always"
         stdDeviation="0.3075"
         id="feGaussianBlur4419" />
    </filter>
    <filter
       inkscape:collect="always"
       style="color-interpolation-filters:sRGB"
       id="filter4189"
       x="-0.096000107"
       width="1.1920002"
       y="-0.095999893"
       height="1.1919998">
      <feGaussianBlur
         inkscape:collect="always"
         stdDeviation="0.96000107"
         id="feGaussianBlur4191" />
    </filter>
  </defs>
  <sodipodi:namedview
     id="base"
     pagecolor="#ffffff"
     bordercolor="#666666"
     borderopacity="1.0"
     inkscape:pageopacity="0.0"
     inkscape:pageshadow="2"
     inkscape:zoom="3.7303676"
     inkscape:cx="9.592334"
     inkscape:cy="40.878018"
     inkscape:document-units="px"
     inkscape:current-layer="layer1"
     showgrid="true"
     inkscape:window-width="1301"
     inkscape:window-height="744"
     inkscape:window-x="65"
     inkscape:window-y="24"
     inkscape:window-maximized="1"
     showguides="true"
     inkscape:guide-bbox="true">
    <inkscape:grid
       type="xygrid"
       id="grid2985"
       empspacing="5"
       visible="true"
       enabled="true"
       snapvisiblegridlinesonly="true" />
  </sodipodi:namedview>
  <metadata
     id="metadata7">
    <rdf:RDF>
      <cc:Work
         rdf:about="">
        <dc:format>image/svg+xml</dc:format>
        <dc:type
           rdf:resource="http://purl.org/dc/dcmitype/StillImage" />
        <dc:title />
      </cc:Work>
    </rdf:RDF>
  </metadata>
  <g
     inkscape:label="Layer 1"
     inkscape:groupmode="layer"
     id="layer1"
     transform="translate(0,-988.3622)">
    <g
       id="g3363">
      <g
         id="g4480"
         transform="matrix(1.409091,0,0,1.4391892,-1.8181819,985.03788)">
        <g
           transform="translate(-1.4903225e-6,-1.3896726)"
           id="g4468"
           style="fill:#d0a15c;fill-opacity:1">
          <rect
             ry="2"
             y="8.5633802"
             x="7.6774206"
             height="5"
             width="14.193547"
             id="rect4470"
             style="fill:#d0a15c;fill-opacity:1" />
          <rect
             style="fill:#d0a15c;fill-opacity:1"
             id="rect4472"
             width="39.741932"
             height="6.9483566"
             x="4.1290336"
             y="10.647887"
             ry="2.0845075" />
          <rect
             ry="2.0845075"
             y="12.037559"
             x="5.5483885"
             height="5.5586858"
             width="36.903221"
             id="rect4474"
             style="fill:#d0a15c;fill-opacity:1" />
          <rect
             ry="2.0845084"
             y="14.8169"
             x="2"
             height="29.1831"
             width="44"
             id="rect4476"
             style="fill:#d0a15c;fill-opacity:1" />
          <rect
             transform="matrix(0.96349486,0,0,1.0157945,0.76751525,0.59577865)"
             ry="0"
             y="13"
             x="4"
             height="1"
             width="40"
             id="rect4478"
             style="opacity:0.1;fill:#d0a15c;fill-opacity:1;filter:url(#filter4417)" />
        </g>
        <g
           id="g4442"
           transform="translate(-1.4903225e-6,-2.0845083)">
          <rect
             style="fill:#d0a15c;fill-opacity:1"
             id="rect3537"
             width="14.193547"
             height="5"
             x="7.6774206"
             y="8.5633802"
             ry="2" />
          <rect
             ry="2.0845075"
             y="10.647887"
             x="4.1290336"
             height="6.9483566"
             width="39.741932"
             id="rect3535"
             style="fill:#d0a15c;fill-opacity:1" />
          <rect
             style="fill:#ffffff;fill-opacity:1"
             id="rect4421"
             width="35.483868"
             height="4.8638496"
             x="6.2580657"
             y="12.732394"
             ry="1.8239439" />
          <rect
             style="fill:#f4be70;fill-opacity:1"
             id="rect3525"
             width="44"
             height="29.1831"
             x="2"
             y="14.8169"
             ry="2.0845084" />
          <rect
             style="opacity:0.1;fill:#000000;fill-opacity:1;filter:url(#filter4417)"
             id="rect3539"
             width="40"
             height="1"
             x="4"
             y="13"
             ry="0"
             transform="matrix(0.96349486,0,0,1.0157945,0.76751525,0.59577865)" />
        </g>
      </g>
      <g
         transform="translate(0.99999962,0)"
         style="opacity:0.35;fill:#28170b;filter:url(#filter4189)"
         id="g4064">
        <path
           sodipodi:type="arc"
           style="fill:#28170b;fill-opacity:1;stroke:none"
           id="path3001"
           sodipodi:cx="-6.8228297"
           sodipodi:cy="8.2585173"
           sodipodi:rx="1.8228298"
           sodipodi:ry="1.7414824"
           d="M -4.9999999,8.2585173 A 1.8228298,1.7414824 0 0 1 -6.8228297,9.9999996 1.8228298,1.7414824 0 0 1 -8.6456596,8.2585173 1.8228298,1.7414824 0 0 1 -6.8228297,6.5170349 1.8228298,1.7414824 0 0 1 -4.9999999,8.2585173 Z"
           transform="matrix(2.1943902,0,0,2.2968937,37.971951,1015.3933)" />
        <path
           transform="matrix(2.1943902,0,0,2.2968937,53.971951,1015.3933)"
           d="M -4.9999999,8.2585173 A 1.8228298,1.7414824 0 0 1 -6.8228297,9.9999996 1.8228298,1.7414824 0 0 1 -8.6456596,8.2585173 1.8228298,1.7414824 0 0 1 -6.8228297,6.5170349 1.8228298,1.7414824 0 0 1 -4.9999999,8.2585173 Z"
           sodipodi:ry="1.7414824"
           sodipodi:rx="1.8228298"
           sodipodi:cy="8.2585173"
           sodipodi:cx="-6.8228297"
           id="path3003"
           style="fill:#28170b;fill-opacity:1;stroke:none"
           sodipodi:type="arc" />
        <rect
           style="fill:#28170b;fill-opacity:1;stroke:none"
           id="rect3005"
           width="4"
           height="19.000017"
           x="23"
           y="1017.3622"
           rx="1.9174446"
           ry="2" />
        <rect
           ry="2"
           rx="2"
           y="1016.3622"
           x="39"
           height="20.000017"
           width="4"
           id="rect3007"
           style="fill:#28170b;fill-opacity:1;stroke:none" />
        <rect
           style="fill:#28170b;fill-opacity:1;stroke:none"
           id="rect3009"
           width="20"
           height="8.0000172"
           x="23"
           y="1014.3622"
           rx="4"
           ry="3.8968058" />
      </g>
      <g
         id="g4193"
         style="opacity:1;fill:#ffffff"
         transform="translate(0.99999962,0)">
        <path
           transform="matrix(2.1943902,0,0,2.2968937,37.971951,1015.3933)"
           d="M -4.9999999,8.2585173 A 1.8228298,1.7414824 0 0 1 -6.8228297,9.9999996 1.8228298,1.7414824 0 0 1 -8.6456596,8.2585173 1.8228298,1.7414824 0 0 1 -6.8228297,6.5170349 1.8228298,1.7414824 0 0 1 -4.9999999,8.2585173 Z"
           sodipodi:ry="1.7414824"
           sodipodi:rx="1.8228298"
           sodipodi:cy="8.2585173"
           sodipodi:cx="-6.8228297"
           id="path4195"
           style="fill:#ffffff;fill-opacity:1;stroke:none"
           sodipodi:type="arc" />
        <path
           sodipodi:type="arc"
           style="fill:#ffffff;fill-opacity:1;stroke:none"
           id="path4197"
           sodipodi:cx="-6.8228297"
           sodipodi:cy="8.2585173"
           sodipodi:rx="1.8228298"
           sodipodi:ry="1.7414824"
           d="M -4.9999999,8.2585173 A 1.8228298,1.7414824 0 0 1 -6.8228297,9.9999996 1.8228298,1.7414824 0 0 1 -8.6456596,8.2585173 1.8228298,1.7414824 0 0 1 -6.8228297,6.5170349 1.8228298,1.7414824 0 0 1 -4.9999999,8.2585173 Z"
           transform="matrix(2.1943902,0,0,2.2968937,53.971951,1015.3933)" />
        <rect
           ry="2"
           rx="1.9174446"
           y="1017.3622"
           x="23"
           height="19.000017"
           width="4"
           id="rect4199"
           style="fill:#ffffff;fill-opacity:1;stroke:none" />
        <rect
           style="fill:#ffffff;fill-opacity:1;stroke:none"
           id="rect4201"
           width="4"
           height="20.000017"
           x="39"
           y="1016.3622"
           rx="2"
           ry="2" />
        <rect
           ry="3.8968058"
           rx="4"
           y="1014.3622"
           x="23"
           height="8.0000172"
           width="20"
           id="rect4203"
           style="fill:#ffffff;fill-opacity:1;stroke:none" />
      </g>
    </g>
  </g>
</svg>
