<?xml version="1.0" encoding="UTF-8" standalone="no"?>
<!-- Created with Inkscape (http://www.inkscape.org/) -->

<svg
   xmlns:dc="http://purl.org/dc/elements/1.1/"
   xmlns:cc="http://creativecommons.org/ns#"
   xmlns:rdf="http://www.w3.org/1999/02/22-rdf-syntax-ns#"
   xmlns:svg="http://www.w3.org/2000/svg"
   xmlns="http://www.w3.org/2000/svg"
   xmlns:sodipodi="http://sodipodi.sourceforge.net/DTD/sodipodi-0.dtd"
   xmlns:inkscape="http://www.inkscape.org/namespaces/inkscape"
   width="64"
   height="64"
   id="svg2"
   version="1.1"
   inkscape:version="0.91 r13725"
   sodipodi:docname="default-folder-system.svg"
   inkscape:export-filename="/media/Data/Main/Visuals/Icons/Numix/Desktop/repos/numix-wiki/Gjorgi/Numix-folders/48/New/folder-144.png"
   inkscape:export-xdpi="270"
   inkscape:export-ydpi="270">
  <defs
     id="defs4">
    <filter
       inkscape:collect="always"
       style="color-interpolation-filters:sRGB"
       id="filter4146"
       x="-0.096"
       width="1.192"
       y="-0.096"
       height="1.192">
      <feGaussianBlur
         inkscape:collect="always"
         stdDeviation="0.96"
         id="feGaussianBlur4148" />
    </filter>
    <filter
       inkscape:collect="always"
       style="color-interpolation-filters:sRGB"
       id="filter4417"
       x="-0.018449999"
       width="1.0369"
       y="-0.73799998"
       height="2.4760001">
      <feGaussianBlur
         inkscape:collect="always"
         stdDeviation="0.3075"
         id="feGaussianBlur4419" />
    </filter>
  </defs>
  <sodipodi:namedview
     id="base"
     pagecolor="#ffffff"
     bordercolor="#666666"
     borderopacity="1.0"
     inkscape:pageopacity="0.0"
     inkscape:pageshadow="2"
     inkscape:zoom="10.551073"
     inkscape:cx="17.086928"
     inkscape:cy="32.53902"
     inkscape:document-units="px"
     inkscape:current-layer="layer1"
     showgrid="true"
     inkscape:window-width="1301"
     inkscape:window-height="744"
     inkscape:window-x="65"
     inkscape:window-y="24"
     inkscape:window-maximized="1"
     showguides="true"
     inkscape:guide-bbox="true">
    <inkscape:grid
       type="xygrid"
       id="grid2985"
       empspacing="5"
       visible="true"
       enabled="true"
       snapvisiblegridlinesonly="true" />
  </sodipodi:namedview>
  <metadata
     id="metadata7">
    <rdf:RDF>
      <cc:Work
         rdf:about="">
        <dc:format>image/svg+xml</dc:format>
        <dc:type
           rdf:resource="http://purl.org/dc/dcmitype/StillImage" />
        <dc:title />
      </cc:Work>
    </rdf:RDF>
  </metadata>
  <g
     inkscape:label="Layer 1"
     inkscape:groupmode="layer"
     id="layer1"
     transform="translate(0,-988.3622)">
    <g
       id="g3353">
      <g
         id="g4480"
         transform="matrix(1.409091,0,0,1.4391892,-1.8181819,985.03788)">
        <g
           transform="translate(-1.4903225e-6,-1.3896726)"
           id="g4468"
           style="fill:#d0a15c;fill-opacity:1">
          <rect
             ry="2"
             y="8.5633802"
             x="7.6774206"
             height="5"
             width="14.193547"
             id="rect4470"
             style="fill:#d0a15c;fill-opacity:1" />
          <rect
             style="fill:#d0a15c;fill-opacity:1"
             id="rect4472"
             width="39.741932"
             height="6.9483566"
             x="4.1290336"
             y="10.647887"
             ry="2.0845075" />
          <rect
             ry="2.0845075"
             y="12.037559"
             x="5.5483885"
             height="5.5586858"
             width="36.903221"
             id="rect4474"
             style="fill:#d0a15c;fill-opacity:1" />
          <rect
             ry="2.0845084"
             y="14.8169"
             x="2"
             height="29.1831"
             width="44"
             id="rect4476"
             style="fill:#d0a15c;fill-opacity:1" />
          <rect
             transform="matrix(0.96349486,0,0,1.0157945,0.76751525,0.59577865)"
             ry="0"
             y="13"
             x="4"
             height="1"
             width="40"
             id="rect4478"
             style="opacity:0.1;fill:#d0a15c;fill-opacity:1;filter:url(#filter4417)" />
        </g>
        <g
           id="g4442"
           transform="translate(-1.4903225e-6,-2.0845083)">
          <rect
             style="fill:#d0a15c;fill-opacity:1"
             id="rect3537"
             width="14.193547"
             height="5"
             x="7.6774206"
             y="8.5633802"
             ry="2" />
          <rect
             ry="2.0845075"
             y="10.647887"
             x="4.1290336"
             height="6.9483566"
             width="39.741932"
             id="rect3535"
             style="fill:#d0a15c;fill-opacity:1" />
          <rect
             style="fill:#ffffff;fill-opacity:1"
             id="rect4421"
             width="35.483868"
             height="4.8638496"
             x="6.2580657"
             y="12.732394"
             ry="1.8239439" />
          <rect
             style="fill:#f4be70;fill-opacity:1"
             id="rect3525"
             width="44"
             height="29.1831"
             x="2"
             y="14.8169"
             ry="2.0845084" />
          <rect
             style="opacity:0.1;fill:#000000;fill-opacity:1;filter:url(#filter4417)"
             id="rect3539"
             width="40"
             height="1"
             x="4"
             y="13"
             ry="0"
             transform="matrix(0.96349486,0,0,1.0157945,0.76751525,0.59577865)" />
        </g>
      </g>
      <path
         inkscape:connector-curvature="0"
         style="line-height:normal;opacity:0.35;color:#000000;fill:#2b1100;fill-opacity:1;display:block;filter:url(#filter4146)"
         d="m 30.111111,1014.3622 c -0.665545,0 -1.222224,0.5289 -1.222224,1.1946 v 1.5555 c -0.420796,0.1425 -0.82911,0.3054 -1.222219,0.4998 l -1.083378,-1.0831 c -0.470613,-0.4706 -1.223822,-0.4706 -1.694399,0 l -2.722224,2.6943 c -0.470614,0.4707 -0.470614,1.224 0,1.6944 l 1.083377,1.0834 c -0.199413,0.3999 -0.356117,0.8213 -0.5,1.2498 h -1.52782 C 20.556674,1023.2509 20,1023.78 20,1024.4455 v 3.8334 c 0,0.6656 0.556674,1.1946 1.222224,1.1946 h 1.52782 c 0.143865,0.4286 0.300596,0.8499 0.5,1.2498 l -1.083377,1.0835 c -0.470614,0.4707 -0.470614,1.2237 0,1.6944 l 2.722224,2.6943 c 0.470613,0.4705 1.223822,0.4705 1.694399,0 l 1.083378,-1.0832 c 0.393109,0.195 0.801423,0.3584 1.222219,0.4998 v 1.5555 c 0,0.6657 0.556688,1.1946 1.222224,1.1946 h 3.805509 c 0.665547,0 1.194491,-0.5289 1.194491,-1.1946 v -1.5555 c 0.42873,-0.144 0.850063,-0.3006 1.249955,-0.4998 l 1.083379,1.0832 c 0.470612,0.4705 1.223824,0.4705 1.6944,0 l 2.722224,-2.6943 c 0.470613,-0.4707 0.470602,-1.224 0,-1.6944 l -1.111112,-1.1111 c 0.194744,-0.3931 0.358772,-0.8014 0.5,-1.2222 h 1.555555 c 0.665547,0 1.194488,-0.529 1.194488,-1.1946 v -3.8334 c 10e-7,-0.6655 -0.528908,-1.1946 -1.194488,-1.1946 h -1.555555 c -0.141225,-0.4207 -0.305253,-0.829 -0.5,-1.2222 l 1.111112,-1.111 c 0.470613,-0.4707 0.470613,-1.2237 0,-1.6944 l -2.722224,-2.6943 c -0.470615,-0.4706 -1.223824,-0.4706 -1.6944,0 l -1.083379,1.0831 c -0.399935,-0.1998 -0.821272,-0.3558 -1.249955,-0.4998 v -1.5555 c 0,-0.6657 -0.528906,-1.1946 -1.194491,-1.1946 h -3.805509 z m 1.888887,8.8887 c 1.717334,0 3.111113,1.394 3.111113,3.1115 0,1.7172 -1.393779,3.1111 -3.111113,3.1111 -1.717334,0 -3.111111,-1.3939 -3.111111,-3.1111 0,-1.7175 1.393777,-3.1115 3.111111,-3.1115 z"
         id="path3002" />
      <path
         id="path4150"
         d="m 30.111111,1014.3622 c -0.665545,0 -1.222224,0.5289 -1.222224,1.1946 v 1.5555 c -0.420796,0.1425 -0.82911,0.3054 -1.222219,0.4998 l -1.083378,-1.0831 c -0.470613,-0.4706 -1.223822,-0.4706 -1.694399,0 l -2.722224,2.6943 c -0.470614,0.4707 -0.470614,1.224 0,1.6944 l 1.083377,1.0834 c -0.199413,0.3999 -0.356117,0.8213 -0.5,1.2498 h -1.52782 C 20.556674,1023.2509 20,1023.78 20,1024.4455 v 3.8334 c 0,0.6656 0.556674,1.1946 1.222224,1.1946 h 1.52782 c 0.143865,0.4286 0.300596,0.8499 0.5,1.2498 l -1.083377,1.0835 c -0.470614,0.4707 -0.470614,1.2237 0,1.6944 l 2.722224,2.6943 c 0.470613,0.4705 1.223822,0.4705 1.694399,0 l 1.083378,-1.0832 c 0.393109,0.195 0.801423,0.3584 1.222219,0.4998 v 1.5555 c 0,0.6657 0.556688,1.1946 1.222224,1.1946 h 3.805509 c 0.665547,0 1.194491,-0.5289 1.194491,-1.1946 v -1.5555 c 0.42873,-0.144 0.850063,-0.3006 1.249955,-0.4998 l 1.083379,1.0832 c 0.470612,0.4705 1.223824,0.4705 1.6944,0 l 2.722224,-2.6943 c 0.470613,-0.4707 0.470602,-1.224 0,-1.6944 l -1.111112,-1.1111 c 0.194744,-0.3931 0.358772,-0.8014 0.5,-1.2222 h 1.555555 c 0.665547,0 1.194488,-0.529 1.194488,-1.1946 v -3.8334 c 10e-7,-0.6655 -0.528908,-1.1946 -1.194488,-1.1946 h -1.555555 c -0.141225,-0.4207 -0.305253,-0.829 -0.5,-1.2222 l 1.111112,-1.111 c 0.470613,-0.4707 0.470613,-1.2237 0,-1.6944 l -2.722224,-2.6943 c -0.470615,-0.4706 -1.223824,-0.4706 -1.6944,0 l -1.083379,1.0831 c -0.399935,-0.1998 -0.821272,-0.3558 -1.249955,-0.4998 v -1.5555 c 0,-0.6657 -0.528906,-1.1946 -1.194491,-1.1946 h -3.805509 z m 1.888887,8.8887 c 1.717334,0 3.111113,1.394 3.111113,3.1115 0,1.7172 -1.393779,3.1111 -3.111113,3.1111 -1.717334,0 -3.111111,-1.3939 -3.111111,-3.1111 0,-1.7175 1.393777,-3.1115 3.111111,-3.1115 z"
         style="line-height:normal;opacity:1;color:#000000;fill:#ffffff;fill-opacity:1;display:block"
         inkscape:connector-curvature="0" />
    </g>
  </g>
</svg>
