<?xml version="1.0" encoding="UTF-8" standalone="no"?>
<!-- Created with Inkscape (http://www.inkscape.org/) -->

<svg
   xmlns:dc="http://purl.org/dc/elements/1.1/"
   xmlns:cc="http://creativecommons.org/ns#"
   xmlns:rdf="http://www.w3.org/1999/02/22-rdf-syntax-ns#"
   xmlns:svg="http://www.w3.org/2000/svg"
   xmlns="http://www.w3.org/2000/svg"
   xmlns:sodipodi="http://sodipodi.sourceforge.net/DTD/sodipodi-0.dtd"
   xmlns:inkscape="http://www.inkscape.org/namespaces/inkscape"
   width="64"
   height="64"
   id="svg2"
   version="1.1"
   inkscape:version="0.91 r13725"
   sodipodi:docname="default-folder-recent.svg"
   inkscape:export-filename="/media/Data/Main/Visuals/Icons/Numix/Desktop/repos/numix-wiki/Gjorgi/Numix-folders/48/New/folder-144.png"
   inkscape:export-xdpi="270"
   inkscape:export-ydpi="270">
  <defs
     id="defs4">
    <filter
       inkscape:collect="always"
       style="color-interpolation-filters:sRGB"
       id="filter4149"
       x="-0.096"
       width="1.192"
       y="-0.096"
       height="1.192">
      <feGaussianBlur
         inkscape:collect="always"
         stdDeviation="1.12"
         id="feGaussianBlur4151" />
    </filter>
    <filter
       inkscape:collect="always"
       style="color-interpolation-filters:sRGB"
       id="filter4417"
       x="-0.018449999"
       width="1.0369"
       y="-0.73799998"
       height="2.4760001">
      <feGaussianBlur
         inkscape:collect="always"
         stdDeviation="0.3075"
         id="feGaussianBlur4419" />
    </filter>
  </defs>
  <sodipodi:namedview
     id="base"
     pagecolor="#ffffff"
     bordercolor="#666666"
     borderopacity="1.0"
     inkscape:pageopacity="0.0"
     inkscape:pageshadow="2"
     inkscape:zoom="4.92"
     inkscape:cx="4.1248427"
     inkscape:cy="28.628405"
     inkscape:document-units="px"
     inkscape:current-layer="layer1"
     showgrid="true"
     inkscape:window-width="1301"
     inkscape:window-height="744"
     inkscape:window-x="65"
     inkscape:window-y="24"
     inkscape:window-maximized="1"
     showguides="true"
     inkscape:guide-bbox="true">
    <inkscape:grid
       type="xygrid"
       id="grid2985"
       empspacing="5"
       visible="true"
       enabled="true"
       snapvisiblegridlinesonly="true" />
  </sodipodi:namedview>
  <metadata
     id="metadata7">
    <rdf:RDF>
      <cc:Work
         rdf:about="">
        <dc:format>image/svg+xml</dc:format>
        <dc:type
           rdf:resource="http://purl.org/dc/dcmitype/StillImage" />
        <dc:title />
      </cc:Work>
    </rdf:RDF>
  </metadata>
  <g
     inkscape:label="Layer 1"
     inkscape:groupmode="layer"
     id="layer1"
     transform="translate(0,-988.3622)">
    <g
       id="g3359">
      <g
         id="g4480"
         transform="matrix(1.409091,0,0,1.4391892,-1.8181819,985.03788)">
        <g
           transform="translate(-1.4903225e-6,-1.3896726)"
           id="g4468"
           style="fill:#d0a15c;fill-opacity:1">
          <rect
             ry="2"
             y="8.5633802"
             x="7.6774206"
             height="5"
             width="14.193547"
             id="rect4470"
             style="fill:#d0a15c;fill-opacity:1" />
          <rect
             style="fill:#d0a15c;fill-opacity:1"
             id="rect4472"
             width="39.741932"
             height="6.9483566"
             x="4.1290336"
             y="10.647887"
             ry="2.0845075" />
          <rect
             ry="2.0845075"
             y="12.037559"
             x="5.5483885"
             height="5.5586858"
             width="36.903221"
             id="rect4474"
             style="fill:#d0a15c;fill-opacity:1" />
          <rect
             ry="2.0845084"
             y="14.8169"
             x="2"
             height="29.1831"
             width="44"
             id="rect4476"
             style="fill:#d0a15c;fill-opacity:1" />
          <rect
             transform="matrix(0.96349486,0,0,1.0157945,0.76751525,0.59577865)"
             ry="0"
             y="13"
             x="4"
             height="1"
             width="40"
             id="rect4478"
             style="opacity:0.1;fill:#d0a15c;fill-opacity:1;filter:url(#filter4417)" />
        </g>
        <g
           id="g4442"
           transform="translate(-1.4903225e-6,-2.0845083)">
          <rect
             style="fill:#d0a15c;fill-opacity:1"
             id="rect3537"
             width="14.193547"
             height="5"
             x="7.6774206"
             y="8.5633802"
             ry="2" />
          <rect
             ry="2.0845075"
             y="10.647887"
             x="4.1290336"
             height="6.9483566"
             width="39.741932"
             id="rect3535"
             style="fill:#d0a15c;fill-opacity:1" />
          <rect
             style="fill:#ffffff;fill-opacity:1"
             id="rect4421"
             width="35.483868"
             height="4.8638496"
             x="6.2580657"
             y="12.732394"
             ry="1.8239439" />
          <rect
             style="fill:#f4be70;fill-opacity:1"
             id="rect3525"
             width="44"
             height="29.1831"
             x="2"
             y="14.8169"
             ry="2.0845084" />
          <rect
             style="opacity:0.1;fill:#000000;fill-opacity:1;filter:url(#filter4417)"
             id="rect3539"
             width="40"
             height="1"
             x="4"
             y="13"
             ry="0"
             transform="matrix(0.96349486,0,0,1.0157945,0.76751525,0.59577865)" />
        </g>
      </g>
      <g
         style="opacity:0.35;fill:#2b1100;filter:url(#filter4149)"
         id="g4034">
        <path
           style="opacity:1;fill:#2b1100;fill-opacity:1;stroke:none"
           d="M 32 24 C 26.816127 24 22.295011 26.812856 19.875 31 L 23.5 31 C 25.517562 28.55528 28.582738 27 32 27 C 38.075132 27 43 31.924868 43 38 C 43 44.075132 38.075132 49 32 49 C 25.924868 49 21 44.075132 21 38 C 21 37.662363 21.032724 37.329883 21.0625 37 L 18.03125 37 C 18.007972 37.330072 18 37.664005 18 38 C 18 45.731986 24.268014 52 32 52 C 39.731986 52 46 45.731986 46 38 C 46 30.268014 39.731986 24 32 24 z "
           transform="translate(0,988.3622)"
           id="path4017" />
        <path
           style="fill:#2b1100;fill-opacity:1;stroke:none"
           d="m 18,1012.3622 0,10 10,0 z"
           id="path4025"
           inkscape:connector-curvature="0"
           sodipodi:nodetypes="cccc" />
        <path
           inkscape:connector-curvature="0"
           style="line-height:normal;opacity:1;color:#000000;fill:#2b1100;fill-opacity:1"
           d="m 31.812825,1017.2996 a 2.0002,2.0002 0 0 0 -0.25,0.062 2.0002,2.0002 0 0 0 -1.5625,2 l 0,7.375 a 2.0002,2.0002 0 0 0 0,0.188 2.0002,2.0002 0 0 0 0.25,1.5 2.0002,2.0002 0 0 0 0.0625,0.062 2.0002,2.0002 0 0 0 0.0625,0.124 2.0002,2.0002 0 0 0 0.0625,0.062 2.0002,2.0002 0 0 0 0.0625,0.062 2.0002,2.0002 0 0 0 0.0625,0.062 2.0002,2.0002 0 0 0 0.0625,0.062 2.0002,2.0002 0 0 0 0.125,0.062 2.0002,2.0002 0 0 0 0.0625,0.062 2.0002,2.0002 0 0 0 0.0625,0.062 2.0002,2.0002 0 0 0 0.125,0.062 2.0002,2.0002 0 0 0 0.25,0.124 l 4.937497,2.875 a 2.0155644,2.0155644 0 1 0 2,-3.5 l -4.187499,-2.4376 0,-6.8124 a 2.0002,2.0002 0 0 0 -2.187498,-2.0626 z"
           id="path4105" />
      </g>
      <g
         id="g4153"
         style="opacity:1;fill:#ffffff">
        <path
           id="path4155"
           transform="translate(0,988.3622)"
           d="M 32 24 C 26.816127 24 22.295011 26.812856 19.875 31 L 23.5 31 C 25.517562 28.55528 28.582738 27 32 27 C 38.075132 27 43 31.924868 43 38 C 43 44.075132 38.075132 49 32 49 C 25.924868 49 21 44.075132 21 38 C 21 37.662363 21.032724 37.329883 21.0625 37 L 18.03125 37 C 18.007972 37.330072 18 37.664005 18 38 C 18 45.731986 24.268014 52 32 52 C 39.731986 52 46 45.731986 46 38 C 46 30.268014 39.731986 24 32 24 z "
           style="opacity:1;fill:#ffffff;fill-opacity:1;stroke:none" />
        <path
           sodipodi:nodetypes="cccc"
           inkscape:connector-curvature="0"
           id="path4157"
           d="m 18,1012.3622 0,10 10,0 z"
           style="fill:#ffffff;fill-opacity:1;stroke:none" />
        <path
           id="path4159"
           d="m 31.812825,1017.2996 a 2.0002,2.0002 0 0 0 -0.25,0.062 2.0002,2.0002 0 0 0 -1.5625,2 l 0,7.375 a 2.0002,2.0002 0 0 0 0,0.188 2.0002,2.0002 0 0 0 0.25,1.5 2.0002,2.0002 0 0 0 0.0625,0.062 2.0002,2.0002 0 0 0 0.0625,0.124 2.0002,2.0002 0 0 0 0.0625,0.062 2.0002,2.0002 0 0 0 0.0625,0.062 2.0002,2.0002 0 0 0 0.0625,0.062 2.0002,2.0002 0 0 0 0.0625,0.062 2.0002,2.0002 0 0 0 0.125,0.062 2.0002,2.0002 0 0 0 0.0625,0.062 2.0002,2.0002 0 0 0 0.0625,0.062 2.0002,2.0002 0 0 0 0.125,0.062 2.0002,2.0002 0 0 0 0.25,0.124 l 4.937497,2.875 a 2.0155644,2.0155644 0 1 0 2,-3.5 l -4.187499,-2.4376 0,-6.8124 a 2.0002,2.0002 0 0 0 -2.187498,-2.0626 z"
           style="line-height:normal;opacity:1;color:#000000;fill:#ffffff;fill-opacity:1"
           inkscape:connector-curvature="0" />
      </g>
    </g>
  </g>
</svg>
