<?xml version="1.0" encoding="UTF-8" standalone="no"?>
<!-- Created with Inkscape (http://www.inkscape.org/) -->

<svg
   xmlns:dc="http://purl.org/dc/elements/1.1/"
   xmlns:cc="http://creativecommons.org/ns#"
   xmlns:rdf="http://www.w3.org/1999/02/22-rdf-syntax-ns#"
   xmlns:svg="http://www.w3.org/2000/svg"
   xmlns="http://www.w3.org/2000/svg"
   xmlns:sodipodi="http://sodipodi.sourceforge.net/DTD/sodipodi-0.dtd"
   xmlns:inkscape="http://www.inkscape.org/namespaces/inkscape"
   width="64"
   height="64"
   id="svg2"
   version="1.1"
   inkscape:version="0.91 r13725"
   sodipodi:docname="default-folder-wine.svg"
   inkscape:export-filename="/media/Data/Main/Visuals/Icons/Numix/Desktop/repos/numix-wiki/Gjorgi/Numix-folders/48/New/folder-144.png"
   inkscape:export-xdpi="270"
   inkscape:export-ydpi="270">
  <defs
     id="defs4">
    <filter
       inkscape:collect="always"
       style="color-interpolation-filters:sRGB"
       id="filter4153"
       x="-0.089142983"
       width="1.178286"
       y="-0.10399983"
       height="1.2079997">
      <feGaussianBlur
         inkscape:collect="always"
         stdDeviation="1.0400015"
         id="feGaussianBlur4155" />
    </filter>
    <filter
       inkscape:collect="always"
       style="color-interpolation-filters:sRGB"
       id="filter4417"
       x="-0.018449999"
       width="1.0369"
       y="-0.73799998"
       height="2.4760001">
      <feGaussianBlur
         inkscape:collect="always"
         stdDeviation="0.3075"
         id="feGaussianBlur4419" />
    </filter>
  </defs>
  <sodipodi:namedview
     id="base"
     pagecolor="#ffffff"
     bordercolor="#666666"
     borderopacity="1.0"
     inkscape:pageopacity="0.0"
     inkscape:pageshadow="2"
     inkscape:zoom="6.0565413"
     inkscape:cx="37.944283"
     inkscape:cy="36.668984"
     inkscape:document-units="px"
     inkscape:current-layer="layer1"
     showgrid="true"
     inkscape:window-width="1301"
     inkscape:window-height="744"
     inkscape:window-x="65"
     inkscape:window-y="24"
     inkscape:window-maximized="1"
     showguides="true"
     inkscape:guide-bbox="true">
    <inkscape:grid
       type="xygrid"
       id="grid2985"
       empspacing="5"
       visible="true"
       enabled="true"
       snapvisiblegridlinesonly="true" />
  </sodipodi:namedview>
  <metadata
     id="metadata7">
    <rdf:RDF>
      <cc:Work
         rdf:about="">
        <dc:format>image/svg+xml</dc:format>
        <dc:type
           rdf:resource="http://purl.org/dc/dcmitype/StillImage" />
        <dc:title />
      </cc:Work>
    </rdf:RDF>
  </metadata>
  <g
     inkscape:label="Layer 1"
     inkscape:groupmode="layer"
     id="layer1"
     transform="translate(0,-988.3622)">
    <g
       id="g3359">
      <g
         id="g4480"
         transform="matrix(1.409091,0,0,1.4391892,-1.8181819,985.03788)">
        <g
           transform="translate(-1.4903225e-6,-1.3896726)"
           id="g4468"
           style="fill:#d0a15c;fill-opacity:1">
          <rect
             ry="2"
             y="8.5633802"
             x="7.6774206"
             height="5"
             width="14.193547"
             id="rect4470"
             style="fill:#d0a15c;fill-opacity:1" />
          <rect
             style="fill:#d0a15c;fill-opacity:1"
             id="rect4472"
             width="39.741932"
             height="6.9483566"
             x="4.1290336"
             y="10.647887"
             ry="2.0845075" />
          <rect
             ry="2.0845075"
             y="12.037559"
             x="5.5483885"
             height="5.5586858"
             width="36.903221"
             id="rect4474"
             style="fill:#d0a15c;fill-opacity:1" />
          <rect
             ry="2.0845084"
             y="14.8169"
             x="2"
             height="29.1831"
             width="44"
             id="rect4476"
             style="fill:#d0a15c;fill-opacity:1" />
          <rect
             transform="matrix(0.96349486,0,0,1.0157945,0.76751525,0.59577865)"
             ry="0"
             y="13"
             x="4"
             height="1"
             width="40"
             id="rect4478"
             style="opacity:0.1;fill:#d0a15c;fill-opacity:1;filter:url(#filter4417)" />
        </g>
        <g
           id="g4442"
           transform="translate(-1.4903225e-6,-2.0845083)">
          <rect
             style="fill:#d0a15c;fill-opacity:1"
             id="rect3537"
             width="14.193547"
             height="5"
             x="7.6774206"
             y="8.5633802"
             ry="2" />
          <rect
             ry="2.0845075"
             y="10.647887"
             x="4.1290336"
             height="6.9483566"
             width="39.741932"
             id="rect3535"
             style="fill:#d0a15c;fill-opacity:1" />
          <rect
             style="fill:#ffffff;fill-opacity:1"
             id="rect4421"
             width="35.483868"
             height="4.8638496"
             x="6.2580657"
             y="12.732394"
             ry="1.8239439" />
          <rect
             style="fill:#f4be70;fill-opacity:1"
             id="rect3525"
             width="44"
             height="29.1831"
             x="2"
             y="14.8169"
             ry="2.0845084" />
          <rect
             style="opacity:0.1;fill:#000000;fill-opacity:1;filter:url(#filter4417)"
             id="rect3539"
             width="40"
             height="1"
             x="4"
             y="13"
             ry="0"
             transform="matrix(0.96349486,0,0,1.0157945,0.76751525,0.59577865)" />
        </g>
      </g>
      <g
         style="opacity:0.35;fill:#2b1100;filter:url(#filter4153)"
         id="g3348">
        <path
           style="line-height:normal;opacity:1;color:#000000;fill:#2b1100;fill-opacity:1"
           id="path3974"
           d="m 41.039627,1014.3638 c -1.036385,0.016 -2.055945,0.6534 -2.219114,1.8413 -0.261072,1.901 1.69697,1.1881 3.263403,1.1881 1.566433,0 2.088577,3.089 1.69697,4.7522 -0.391609,1.6634 -4.555157,5.5921 -13.967367,1.6634 -7.749224,-3.2346 -11.618268,1.0721 -11.813519,1.1583 0.733373,6.4261 6.712706,13.3951 13.967365,13.3951 7.75001,0 14.032635,-7.6782 14.032635,-14.7317 0,-0.8101 -0.102604,-1.6079 -0.261073,-2.376 -0.144098,-0.3883 -0.285812,-0.7756 -0.391607,-1.1287 -0.189645,-0.6328 -0.403808,-1.1667 -0.587414,-1.6634 -0.0079,-0.016 0.0081,-0.043 0,-0.06 -0.741858,-1.4995 -1.781976,-2.8551 -3.067598,-3.9801 -0.0059,-0.013 -0.02686,0.014 -0.03264,0 -0.200904,-0.047 -0.412769,-0.062 -0.620047,-0.06 z"
           inkscape:connector-curvature="0" />
        <path
           style="line-height:normal;opacity:1;color:#000000;fill:#2b1100;fill-opacity:1"
           id="path3976"
           d="m 38,1020.3624 c 0,1.1046 -0.89543,1.9998 -2,1.9998 -1.10457,0 -2,-0.8952 -2,-1.9998 0,-1.1046 0.89543,-2.0002 2,-2.0002 1.10457,0 2,0.8956 2,2.0002 z"
           inkscape:connector-curvature="0" />
        <path
           style="line-height:normal;opacity:1;color:#000000;fill:#2b1100;fill-opacity:1"
           id="path3978"
           d="m 32,1017.3622 c 0,0.5524 -0.447716,1 -1,1 -0.552284,0 -1,-0.4476 -1,-1 0,-0.5524 0.447716,-1 1,-1 0.552284,0 1,0.4476 1,1 z"
           inkscape:connector-curvature="0" />
      </g>
      <g
         id="g4157"
         style="opacity:1;fill:#ffffff;">
        <path
           inkscape:connector-curvature="0"
           d="m 41.039627,1014.3638 c -1.036385,0.016 -2.055945,0.6534 -2.219114,1.8413 -0.261072,1.901 1.69697,1.1881 3.263403,1.1881 1.566433,0 2.088577,3.089 1.69697,4.7522 -0.391609,1.6634 -4.555157,5.5921 -13.967367,1.6634 -7.749224,-3.2346 -11.618268,1.0721 -11.813519,1.1583 0.733373,6.4261 6.712706,13.3951 13.967365,13.3951 7.75001,0 14.032635,-7.6782 14.032635,-14.7317 0,-0.8101 -0.102604,-1.6079 -0.261073,-2.376 -0.144098,-0.3883 -0.285812,-0.7756 -0.391607,-1.1287 -0.189645,-0.6328 -0.403808,-1.1667 -0.587414,-1.6634 -0.0079,-0.016 0.0081,-0.043 0,-0.06 -0.741858,-1.4995 -1.781976,-2.8551 -3.067598,-3.9801 -0.0059,-0.013 -0.02686,0.014 -0.03264,0 -0.200904,-0.047 -0.412769,-0.062 -0.620047,-0.06 z"
           id="path4159"
           style="line-height:normal;opacity:1;color:#000000;fill:#ffffff;fill-opacity:1" />
        <path
           inkscape:connector-curvature="0"
           d="m 38,1020.3624 c 0,1.1046 -0.89543,1.9998 -2,1.9998 -1.10457,0 -2,-0.8952 -2,-1.9998 0,-1.1046 0.89543,-2.0002 2,-2.0002 1.10457,0 2,0.8956 2,2.0002 z"
           id="path4161"
           style="line-height:normal;opacity:1;color:#000000;fill:#ffffff;fill-opacity:1" />
        <path
           inkscape:connector-curvature="0"
           d="m 32,1017.3622 c 0,0.5524 -0.447716,1 -1,1 -0.552284,0 -1,-0.4476 -1,-1 0,-0.5524 0.447716,-1 1,-1 0.552284,0 1,0.4476 1,1 z"
           id="path4163"
           style="line-height:normal;opacity:1;color:#000000;fill:#ffffff;fill-opacity:1" />
      </g>
    </g>
  </g>
</svg>
