<?xml version="1.0" encoding="UTF-8" standalone="no"?>
<!-- Created with Inkscape (http://www.inkscape.org/) -->

<svg
   xmlns:dc="http://purl.org/dc/elements/1.1/"
   xmlns:cc="http://creativecommons.org/ns#"
   xmlns:rdf="http://www.w3.org/1999/02/22-rdf-syntax-ns#"
   xmlns:svg="http://www.w3.org/2000/svg"
   xmlns="http://www.w3.org/2000/svg"
   xmlns:sodipodi="http://sodipodi.sourceforge.net/DTD/sodipodi-0.dtd"
   xmlns:inkscape="http://www.inkscape.org/namespaces/inkscape"
   width="64"
   height="64"
   id="svg2"
   version="1.1"
   inkscape:version="0.91 r13725"
   sodipodi:docname="default-folder-ubuntu.svg"
   inkscape:export-filename="/media/Data/Main/Visuals/Icons/Numix/Desktop/repos/numix-wiki/Gjorgi/Numix-folders/48/New/folder-144.png"
   inkscape:export-xdpi="270"
   inkscape:export-ydpi="270">
  <defs
     id="defs4">
    <filter
       inkscape:collect="always"
       style="color-interpolation-filters:sRGB"
       id="filter4155"
       x="-0.090181818"
       width="1.1803636"
       y="-0.10262069"
       height="1.2052414">
      <feGaussianBlur
         inkscape:collect="always"
         stdDeviation="1.24"
         id="feGaussianBlur4157" />
    </filter>
    <filter
       inkscape:collect="always"
       style="color-interpolation-filters:sRGB"
       id="filter4417"
       x="-0.018449999"
       width="1.0369"
       y="-0.73799998"
       height="2.4760001">
      <feGaussianBlur
         inkscape:collect="always"
         stdDeviation="0.3075"
         id="feGaussianBlur4419" />
    </filter>
  </defs>
  <sodipodi:namedview
     id="base"
     pagecolor="#ffffff"
     bordercolor="#666666"
     borderopacity="1.0"
     inkscape:pageopacity="0.0"
     inkscape:pageshadow="2"
     inkscape:zoom="6.9611122"
     inkscape:cx="29.189931"
     inkscape:cy="11.551037"
     inkscape:document-units="px"
     inkscape:current-layer="layer1"
     showgrid="true"
     inkscape:window-width="1301"
     inkscape:window-height="744"
     inkscape:window-x="65"
     inkscape:window-y="24"
     inkscape:window-maximized="1"
     showguides="true"
     inkscape:guide-bbox="true">
    <inkscape:grid
       type="xygrid"
       id="grid2985"
       empspacing="5"
       visible="true"
       enabled="true"
       snapvisiblegridlinesonly="true" />
  </sodipodi:namedview>
  <metadata
     id="metadata7">
    <rdf:RDF>
      <cc:Work
         rdf:about="">
        <dc:format>image/svg+xml</dc:format>
        <dc:type
           rdf:resource="http://purl.org/dc/dcmitype/StillImage" />
        <dc:title />
      </cc:Work>
    </rdf:RDF>
  </metadata>
  <g
     inkscape:label="Layer 1"
     inkscape:groupmode="layer"
     id="layer1"
     transform="translate(0,-988.3622)">
    <g
       id="g3361">
      <g
         id="g4480"
         transform="matrix(1.409091,0,0,1.4391892,-1.8181819,985.03788)">
        <g
           transform="translate(-1.4903225e-6,-1.3896726)"
           id="g4468"
           style="fill:#d0a15c;fill-opacity:1">
          <rect
             ry="2"
             y="8.5633802"
             x="7.6774206"
             height="5"
             width="14.193547"
             id="rect4470"
             style="fill:#d0a15c;fill-opacity:1" />
          <rect
             style="fill:#d0a15c;fill-opacity:1"
             id="rect4472"
             width="39.741932"
             height="6.9483566"
             x="4.1290336"
             y="10.647887"
             ry="2.0845075" />
          <rect
             ry="2.0845075"
             y="12.037559"
             x="5.5483885"
             height="5.5586858"
             width="36.903221"
             id="rect4474"
             style="fill:#d0a15c;fill-opacity:1" />
          <rect
             ry="2.0845084"
             y="14.8169"
             x="2"
             height="29.1831"
             width="44"
             id="rect4476"
             style="fill:#d0a15c;fill-opacity:1" />
          <rect
             transform="matrix(0.96349486,0,0,1.0157945,0.76751525,0.59577865)"
             ry="0"
             y="13"
             x="4"
             height="1"
             width="40"
             id="rect4478"
             style="opacity:0.1;fill:#d0a15c;fill-opacity:1;filter:url(#filter4417)" />
        </g>
        <g
           id="g4442"
           transform="translate(-1.4903225e-6,-2.0845083)">
          <rect
             style="fill:#d0a15c;fill-opacity:1"
             id="rect3537"
             width="14.193547"
             height="5"
             x="7.6774206"
             y="8.5633802"
             ry="2" />
          <rect
             ry="2.0845075"
             y="10.647887"
             x="4.1290336"
             height="6.9483566"
             width="39.741932"
             id="rect3535"
             style="fill:#d0a15c;fill-opacity:1" />
          <rect
             style="fill:#ffffff;fill-opacity:1"
             id="rect4421"
             width="35.483868"
             height="4.8638496"
             x="6.2580657"
             y="12.732394"
             ry="1.8239439" />
          <rect
             style="fill:#f4be70;fill-opacity:1"
             id="rect3525"
             width="44"
             height="29.1831"
             x="2"
             y="14.8169"
             ry="2.0845084" />
          <rect
             style="opacity:0.1;fill:#000000;fill-opacity:1;filter:url(#filter4417)"
             id="rect3539"
             width="40"
             height="1"
             x="4"
             y="13"
             ry="0"
             transform="matrix(0.96349486,0,0,1.0157945,0.76751525,0.59577865)" />
        </g>
      </g>
      <g
         style="opacity:0.35;fill:#2b1100;filter:url(#filter4155)"
         id="g3349">
        <path
           transform="translate(2,987.3622)"
           d="m 17,38 a 3,3 0 0 1 -3,3 3,3 0 0 1 -3,-3 3,3 0 0 1 3,-3 3,3 0 0 1 3,3 z"
           sodipodi:ry="3"
           sodipodi:rx="3"
           sodipodi:cy="38"
           sodipodi:cx="14"
           id="path3007"
           style="opacity:1;fill:#2b1100;fill-opacity:1;stroke:none"
           sodipodi:type="arc" />
        <path
           style="opacity:1;fill:#2b1100;fill-opacity:1;stroke:none"
           d="m 32,1013.3622 c -2.292014,0 -4.429897,0.6326 -6.25,1.75 l 2.96875,2.9688 c 1.001591,-0.4513 2.11141,-0.7188 3.28125,-0.7188 4.078288,0 7.443689,3.0556 7.9375,7 l 4,0 c -0.162454,-1.9196 -0.761202,-3.7254 -1.71875,-5.2812 -0.375707,0.1693 -0.779895,0.2812 -1.21875,0.2812 -1.656854,0 -3,-1.3431 -3,-3 0,-0.4389 0.111916,-0.843 0.28125,-1.2187 -1.826963,-1.1244 -3.978641,-1.7813 -6.28125,-1.7813 z m -7.84375,2.9688 c -1.878982,1.6382 -3.265889,3.8313 -3.84375,6.3437 0.995283,0.4882 1.6875,1.5041 1.6875,2.6875 0,1.1834 -0.692217,2.1993 -1.6875,2.6875 0.622565,2.7067 2.141743,5.0828 4.25,6.75 l 2.875,-2.875 C 25.362257,1030.4794 24,1028.0829 24,1025.3622 c 0,-2.5103 1.159812,-4.752 2.96875,-6.2187 l -2.8125,-2.8125 z m 15.78125,10.0312 c -0.493811,3.9444 -3.859212,7 -7.9375,7 -0.945788,0 -1.845306,-0.1987 -2.6875,-0.5 l -3.03125,3.0313 c 1.701923,0.9299 3.642787,1.4687 5.71875,1.4687 1.512741,0 2.948232,-0.2704 4.28125,-0.7812 C 36.111916,1036.2052 36,1035.8011 36,1035.3622 c 0,-1.6569 1.343146,-3 3,-3 0.804062,0 1.523858,0.3288 2.0625,0.8438 1.620473,-1.8708 2.659256,-4.2313 2.875,-6.8438 l -4,0 z"
           id="path3030"
           inkscape:connector-curvature="0" />
        <path
           sodipodi:type="arc"
           style="opacity:1;fill:#2b1100;fill-opacity:1;stroke:none"
           id="path3046"
           sodipodi:cx="14"
           sodipodi:cy="38"
           sodipodi:rx="3"
           sodipodi:ry="3"
           d="m 17,38 a 3,3 0 0 1 -3,3 3,3 0 0 1 -3,-3 3,3 0 0 1 3,-3 3,3 0 0 1 3,3 z"
           transform="translate(29,976.3622)" />
        <path
           sodipodi:type="arc"
           style="opacity:1;fill:#2b1100;fill-opacity:1;stroke:none"
           id="path3050"
           sodipodi:cx="14"
           sodipodi:cy="38"
           sodipodi:rx="3"
           sodipodi:ry="3"
           d="m 17,38 a 3,3 0 0 1 -3,3 3,3 0 0 1 -3,-3 3,3 0 0 1 3,-3 3,3 0 0 1 3,3 z"
           transform="translate(27,999.3622)" />
      </g>
      <g
         id="g4159"
         style="opacity:1;fill:#ffffff">
        <path
           sodipodi:type="arc"
           style="opacity:1;fill:#ffffff;fill-opacity:1;stroke:none"
           id="path4161"
           sodipodi:cx="14"
           sodipodi:cy="38"
           sodipodi:rx="3"
           sodipodi:ry="3"
           d="m 17,38 a 3,3 0 0 1 -3,3 3,3 0 0 1 -3,-3 3,3 0 0 1 3,-3 3,3 0 0 1 3,3 z"
           transform="translate(2,987.3622)" />
        <path
           inkscape:connector-curvature="0"
           id="path4163"
           d="m 32,1013.3622 c -2.292014,0 -4.429897,0.6326 -6.25,1.75 l 2.96875,2.9688 c 1.001591,-0.4513 2.11141,-0.7188 3.28125,-0.7188 4.078288,0 7.443689,3.0556 7.9375,7 l 4,0 c -0.162454,-1.9196 -0.761202,-3.7254 -1.71875,-5.2812 -0.375707,0.1693 -0.779895,0.2812 -1.21875,0.2812 -1.656854,0 -3,-1.3431 -3,-3 0,-0.4389 0.111916,-0.843 0.28125,-1.2187 -1.826963,-1.1244 -3.978641,-1.7813 -6.28125,-1.7813 z m -7.84375,2.9688 c -1.878982,1.6382 -3.265889,3.8313 -3.84375,6.3437 0.995283,0.4882 1.6875,1.5041 1.6875,2.6875 0,1.1834 -0.692217,2.1993 -1.6875,2.6875 0.622565,2.7067 2.141743,5.0828 4.25,6.75 l 2.875,-2.875 C 25.362257,1030.4794 24,1028.0829 24,1025.3622 c 0,-2.5103 1.159812,-4.752 2.96875,-6.2187 l -2.8125,-2.8125 z m 15.78125,10.0312 c -0.493811,3.9444 -3.859212,7 -7.9375,7 -0.945788,0 -1.845306,-0.1987 -2.6875,-0.5 l -3.03125,3.0313 c 1.701923,0.9299 3.642787,1.4687 5.71875,1.4687 1.512741,0 2.948232,-0.2704 4.28125,-0.7812 C 36.111916,1036.2052 36,1035.8011 36,1035.3622 c 0,-1.6569 1.343146,-3 3,-3 0.804062,0 1.523858,0.3288 2.0625,0.8438 1.620473,-1.8708 2.659256,-4.2313 2.875,-6.8438 l -4,0 z"
           style="opacity:1;fill:#ffffff;fill-opacity:1;stroke:none" />
        <path
           transform="translate(29,976.3622)"
           d="m 17,38 a 3,3 0 0 1 -3,3 3,3 0 0 1 -3,-3 3,3 0 0 1 3,-3 3,3 0 0 1 3,3 z"
           sodipodi:ry="3"
           sodipodi:rx="3"
           sodipodi:cy="38"
           sodipodi:cx="14"
           id="path4165"
           style="opacity:1;fill:#ffffff;fill-opacity:1;stroke:none"
           sodipodi:type="arc" />
        <path
           transform="translate(27,999.3622)"
           d="m 17,38 a 3,3 0 0 1 -3,3 3,3 0 0 1 -3,-3 3,3 0 0 1 3,-3 3,3 0 0 1 3,3 z"
           sodipodi:ry="3"
           sodipodi:rx="3"
           sodipodi:cy="38"
           sodipodi:cx="14"
           id="path4167"
           style="opacity:1;fill:#ffffff;fill-opacity:1;stroke:none"
           sodipodi:type="arc" />
      </g>
    </g>
  </g>
</svg>
