<?xml version="1.0" encoding="UTF-8" standalone="no"?>
<!-- Created with Inkscape (http://www.inkscape.org/) -->

<svg
   xmlns:dc="http://purl.org/dc/elements/1.1/"
   xmlns:cc="http://creativecommons.org/ns#"
   xmlns:rdf="http://www.w3.org/1999/02/22-rdf-syntax-ns#"
   xmlns:svg="http://www.w3.org/2000/svg"
   xmlns="http://www.w3.org/2000/svg"
   xmlns:sodipodi="http://sodipodi.sourceforge.net/DTD/sodipodi-0.dtd"
   xmlns:inkscape="http://www.inkscape.org/namespaces/inkscape"
   width="64"
   height="64"
   id="svg2"
   version="1.1"
   inkscape:version="0.91 r13725"
   sodipodi:docname="default-folder-art.svg"
   inkscape:export-filename="/media/Data/Main/Visuals/Icons/Numix/Desktop/repos/numix-wiki/Gjorgi/Numix-folders/48/New/folder-144.png"
   inkscape:export-xdpi="270"
   inkscape:export-ydpi="270">
  <defs
     id="defs4">
    <filter
       inkscape:collect="always"
       style="color-interpolation-filters:sRGB"
       id="filter4417"
       x="-0.018449999"
       width="1.0369"
       y="-0.73799998"
       height="2.4760001">
      <feGaussianBlur
         inkscape:collect="always"
         stdDeviation="0.3075"
         id="feGaussianBlur4419" />
    </filter>
    <filter
       inkscape:collect="always"
       style="color-interpolation-filters:sRGB"
       id="filter4184"
       x="-0.088"
       width="1.176"
       y="-0.1056"
       height="1.2112">
      <feGaussianBlur
         inkscape:collect="always"
         stdDeviation="0.88"
         id="feGaussianBlur4186" />
    </filter>
  </defs>
  <sodipodi:namedview
     id="base"
     pagecolor="#ffffff"
     bordercolor="#666666"
     borderopacity="1.0"
     inkscape:pageopacity="0.0"
     inkscape:pageshadow="2"
     inkscape:zoom="5.2755365"
     inkscape:cx="31.06718"
     inkscape:cy="33.004545"
     inkscape:document-units="px"
     inkscape:current-layer="layer1"
     showgrid="true"
     inkscape:window-width="1301"
     inkscape:window-height="744"
     inkscape:window-x="65"
     inkscape:window-y="24"
     inkscape:window-maximized="1"
     showguides="true"
     inkscape:guide-bbox="true">
    <inkscape:grid
       type="xygrid"
       id="grid2985"
       empspacing="5"
       visible="true"
       enabled="true"
       snapvisiblegridlinesonly="true" />
  </sodipodi:namedview>
  <metadata
     id="metadata7">
    <rdf:RDF>
      <cc:Work
         rdf:about="">
        <dc:format>image/svg+xml</dc:format>
        <dc:type
           rdf:resource="http://purl.org/dc/dcmitype/StillImage" />
        <dc:title />
      </cc:Work>
    </rdf:RDF>
  </metadata>
  <g
     inkscape:label="Layer 1"
     inkscape:groupmode="layer"
     id="layer1"
     transform="translate(0,-988.3622)">
    <g
       transform="matrix(1.409091,0,0,1.4391892,-1.8181819,985.03788)"
       id="g4480">
      <g
         style="fill:#d0a15c;fill-opacity:1"
         id="g4468"
         transform="translate(-1.4903225e-6,-1.3896726)">
        <rect
           style="fill:#d0a15c;fill-opacity:1"
           id="rect4470"
           width="14.193547"
           height="5"
           x="7.6774206"
           y="8.5633802"
           ry="2" />
        <rect
           ry="2.0845075"
           y="10.647887"
           x="4.1290336"
           height="6.9483566"
           width="39.741932"
           id="rect4472"
           style="fill:#d0a15c;fill-opacity:1" />
        <rect
           style="fill:#d0a15c;fill-opacity:1"
           id="rect4474"
           width="36.903221"
           height="5.5586858"
           x="5.5483885"
           y="12.037559"
           ry="2.0845075" />
        <rect
           style="fill:#d0a15c;fill-opacity:1"
           id="rect4476"
           width="44"
           height="29.1831"
           x="2"
           y="14.8169"
           ry="2.0845084" />
        <rect
           style="opacity:0.1;fill:#d0a15c;fill-opacity:1;filter:url(#filter4417)"
           id="rect4478"
           width="40"
           height="1"
           x="4"
           y="13"
           ry="0"
           transform="matrix(0.96349486,0,0,1.0157945,0.76751525,0.59577865)" />
      </g>
      <g
         transform="translate(-1.4903225e-6,-2.0845083)"
         id="g4442">
        <rect
           ry="2"
           y="8.5633802"
           x="7.6774206"
           height="5"
           width="14.193547"
           id="rect3537"
           style="fill:#d0a15c;fill-opacity:1" />
        <rect
           style="fill:#d0a15c;fill-opacity:1"
           id="rect3535"
           width="39.741932"
           height="6.9483566"
           x="4.1290336"
           y="10.647887"
           ry="2.0845075" />
        <rect
           ry="1.8239439"
           y="12.732394"
           x="6.2580657"
           height="4.8638496"
           width="35.483868"
           id="rect4421"
           style="fill:#ffffff;fill-opacity:1" />
        <rect
           ry="2.0845084"
           y="14.8169"
           x="2"
           height="29.1831"
           width="44"
           id="rect3525"
           style="fill:#f4be70;fill-opacity:1" />
        <rect
           transform="matrix(0.96349486,0,0,1.0157945,0.76751525,0.59577865)"
           ry="0"
           y="13"
           x="4"
           height="1"
           width="40"
           id="rect3539"
           style="opacity:0.1;fill:#000000;fill-opacity:1;filter:url(#filter4417)" />
      </g>
    </g>
    <path
       style="opacity:0.35;fill:#2b1100;fill-opacity:1;stroke:none;filter:url(#filter4184)"
       d="m 30.5,1017.3622 c -5.990796,0.14 -10.5,4.3396 -10.5,8.625 0,4.2858 3,4.25 4.5,4.25 1.5,0 3,-0.046 3,2.8125 0,2.8568 1.5,4.3125 4.5,4.3125 10.5,0 12,-7.143 12,-10 0,-4.2854 -4.5,-10 -13.5,-10 z m -3,2 c 0.828427,0 1.5,0.6716 1.5,1.5 0,0.8284 -0.671573,1.5 -1.5,1.5 -0.828427,0 -1.5,-0.6716 -1.5,-1.5 0,-0.8284 0.671573,-1.5 1.5,-1.5 z m 6,0 c 0.828427,0 1.5,0.6716 1.5,1.5 0,0.8284 -0.671573,1.5 -1.5,1.5 -0.828427,0 -1.5,-0.6716 -1.5,-1.5 0,-0.8284 0.671573,-1.5 1.5,-1.5 z m 6,4 c 0.828427,0 1.5,0.6716 1.5,1.5 0,0.8284 -0.671573,1.5 -1.5,1.5 -0.828427,0 -1.5,-0.6716 -1.5,-1.5 0,-0.8284 0.671573,-1.5 1.5,-1.5 z m -16,1 c 0.828427,0 1.5,0.6716 1.5,1.5 0,0.8284 -0.671573,1.5 -1.5,1.5 -0.828427,0 -1.5,-0.6716 -1.5,-1.5 0,-0.8284 0.671573,-1.5 1.5,-1.5 z m 9,6 c 1.380712,0 2.5,1.1193 2.5,2.5 0,1.3807 -1.119288,2.5 -2.5,2.5 -1.380712,0 -2.5,-1.1193 -2.5,-2.5 0,-1.3807 1.119288,-2.5 2.5,-2.5 z"
       id="path3843"
       inkscape:connector-curvature="0" />
    <path
       inkscape:connector-curvature="0"
       id="path4188"
       d="m 30.5,1017.3622 c -5.990796,0.14 -10.5,4.3396 -10.5,8.625 0,4.2858 3,4.25 4.5,4.25 1.5,0 3,-0.046 3,2.8125 0,2.8568 1.5,4.3125 4.5,4.3125 10.5,0 12,-7.143 12,-10 0,-4.2854 -4.5,-10 -13.5,-10 z m -3,2 c 0.828427,0 1.5,0.6716 1.5,1.5 0,0.8284 -0.671573,1.5 -1.5,1.5 -0.828427,0 -1.5,-0.6716 -1.5,-1.5 0,-0.8284 0.671573,-1.5 1.5,-1.5 z m 6,0 c 0.828427,0 1.5,0.6716 1.5,1.5 0,0.8284 -0.671573,1.5 -1.5,1.5 -0.828427,0 -1.5,-0.6716 -1.5,-1.5 0,-0.8284 0.671573,-1.5 1.5,-1.5 z m 6,4 c 0.828427,0 1.5,0.6716 1.5,1.5 0,0.8284 -0.671573,1.5 -1.5,1.5 -0.828427,0 -1.5,-0.6716 -1.5,-1.5 0,-0.8284 0.671573,-1.5 1.5,-1.5 z m -16,1 c 0.828427,0 1.5,0.6716 1.5,1.5 0,0.8284 -0.671573,1.5 -1.5,1.5 -0.828427,0 -1.5,-0.6716 -1.5,-1.5 0,-0.8284 0.671573,-1.5 1.5,-1.5 z m 9,6 c 1.380712,0 2.5,1.1193 2.5,2.5 0,1.3807 -1.119288,2.5 -2.5,2.5 -1.380712,0 -2.5,-1.1193 -2.5,-2.5 0,-1.3807 1.119288,-2.5 2.5,-2.5 z"
       style="opacity:1;fill:#ffffff;fill-opacity:1;stroke:none" />
  </g>
</svg>
