<?xml version="1.0" encoding="UTF-8" standalone="no"?>
<svg
   xmlns:dc="http://purl.org/dc/elements/1.1/"
   xmlns:cc="http://creativecommons.org/ns#"
   xmlns:rdf="http://www.w3.org/1999/02/22-rdf-syntax-ns#"
   xmlns:svg="http://www.w3.org/2000/svg"
   xmlns="http://www.w3.org/2000/svg"
   xmlns:sodipodi="http://sodipodi.sourceforge.net/DTD/sodipodi-0.dtd"
   xmlns:inkscape="http://www.inkscape.org/namespaces/inkscape"
   width="64"
   height="64"
   viewBox="0 0 64 64"
   id="svg2"
   version="1.1"
   inkscape:version="0.91 r13725"
   sodipodi:docname="gnome-mime-x-directory-nfs-server.svg">
  <metadata
     id="metadata22">
    <rdf:RDF>
      <cc:Work
         rdf:about="">
        <dc:format>image/svg+xml</dc:format>
        <dc:type
           rdf:resource="http://purl.org/dc/dcmitype/StillImage" />
      </cc:Work>
    </rdf:RDF>
  </metadata>
  <defs
     id="defs20">
    <filter
       inkscape:collect="always"
       style="color-interpolation-filters:sRGB"
       id="filter4196"
       x="-0.087652174"
       width="1.1753043"
       y="-0.10610526"
       height="1.2122105">
      <feGaussianBlur
         inkscape:collect="always"
         stdDeviation="1.68"
         id="feGaussianBlur4198" />
    </filter>
  </defs>
  <sodipodi:namedview
     pagecolor="#ffffff"
     bordercolor="#666666"
     borderopacity="1"
     objecttolerance="10"
     gridtolerance="10"
     guidetolerance="10"
     inkscape:pageopacity="0"
     inkscape:pageshadow="2"
     inkscape:window-width="1301"
     inkscape:window-height="744"
     id="namedview18"
     showgrid="true"
     inkscape:zoom="4.6675735"
     inkscape:cx="30.974526"
     inkscape:cy="14.496583"
     inkscape:window-x="65"
     inkscape:window-y="24"
     inkscape:window-maximized="1"
     inkscape:current-layer="svg2"
     showguides="true"
     inkscape:guide-bbox="true">
    <inkscape:grid
       type="xygrid"
       id="grid3051" />
  </sodipodi:namedview>
  <rect
     y="37.5"
     x="28"
     height="7.000001"
     width="8"
     id="rect3804"
     style="fill:#d0a15c;fill-opacity:1;stroke:none" />
  <rect
     style="fill:#d0a15c;fill-opacity:1;stroke:none"
     id="rect3802"
     width="8"
     height="7.000001"
     x="28"
     y="21.5" />
  <g
     id="g4280"
     style="fill:#bf965b;fill-opacity:1"
     transform="translate(0.11362008,0.98470738)">
    <rect
       style="fill:#bf965b;fill-opacity:1;stroke:none"
       id="rect4236"
       width="52"
       height="12"
       x="6"
       y="43"
       rx="2.5"
       ry="2.5000005" />
    <rect
       ry="2.5000005"
       rx="2.5"
       y="27"
       x="6"
       height="12"
       width="52"
       id="rect4238"
       style="fill:#bf965b;fill-opacity:1;stroke:none" />
    <rect
       style="fill:#bf965b;fill-opacity:1;stroke:none"
       id="rect4240"
       width="52"
       height="12"
       x="6"
       y="11"
       rx="2.5"
       ry="2.5000005" />
  </g>
  <rect
     style="fill:#f4be70;fill-opacity:1;stroke:none"
     id="rect3000"
     width="52"
     height="12"
     x="6"
     y="43"
     rx="2.5"
     ry="2.5000005" />
  <rect
     ry="2.5000005"
     rx="2.5"
     y="27"
     x="6"
     height="12"
     width="52"
     id="rect2998"
     style="fill:#f4be70;fill-opacity:1;stroke:none" />
  <rect
     style="fill:#f4be70;fill-opacity:1;stroke:none"
     id="rect2992"
     width="52"
     height="12"
     x="6"
     y="11"
     rx="2.5"
     ry="2.5000005" />
  <g
     id="g4185"
     style="fill:#2b1100;opacity:0.35;filter:url(#filter4196)">
    <rect
       y="14.000021"
       x="9"
       height="5.999979"
       width="26"
       id="rect3806"
       style="fill:#2b1100;fill-opacity:1;stroke:none" />
    <path
       transform="matrix(1.5000001,0,0,1.5,53.5,-8.5)"
       d="m -5,17 a 2,2 0 1 1 -4,0 2,2 0 1 1 4,0 z"
       sodipodi:ry="2"
       sodipodi:rx="2"
       sodipodi:cy="17"
       sodipodi:cx="-7"
       id="path3808"
       style="fill:#2b1100;fill-opacity:1;stroke:none"
       sodipodi:type="arc" />
    <path
       sodipodi:type="arc"
       style="fill:#2b1100;fill-opacity:1;stroke:none"
       id="path3810"
       sodipodi:cx="-7"
       sodipodi:cy="17"
       sodipodi:rx="2"
       sodipodi:ry="2"
       d="m -5,17 a 2,2 0 1 1 -4,0 2,2 0 1 1 4,0 z"
       transform="matrix(1.5,0,0,1.5,62.5,-8.5)" />
    <rect
       style="fill:#2b1100;fill-opacity:1;stroke:none"
       id="rect3812"
       width="25.999998"
       height="5.999979"
       x="10"
       y="46" />
    <rect
       y="30"
       x="9"
       height="5.9999809"
       width="26"
       id="rect3818"
       style="fill:#2b1100;fill-opacity:1;stroke:none" />
    <path
       sodipodi:type="arc"
       style="fill:#2b1100;fill-opacity:1;stroke:none"
       id="path3053"
       sodipodi:cx="-7"
       sodipodi:cy="17"
       sodipodi:rx="2"
       sodipodi:ry="2"
       d="m -5,17 a 2,2 0 1 1 -4,0 2,2 0 1 1 4,0 z"
       transform="matrix(1.5000001,0,0,1.5,53.5,7.5)" />
    <path
       transform="matrix(1.5,0,0,1.5,62.5,7.5)"
       d="m -5,17 a 2,2 0 1 1 -4,0 2,2 0 1 1 4,0 z"
       sodipodi:ry="2"
       sodipodi:rx="2"
       sodipodi:cy="17"
       sodipodi:cx="-7"
       id="path3055"
       style="fill:#2b1100;fill-opacity:1;stroke:none"
       sodipodi:type="arc" />
    <path
       transform="matrix(1.5000001,0,0,1.5,53.5,23.5)"
       d="m -5,17 a 2,2 0 1 1 -4,0 2,2 0 1 1 4,0 z"
       sodipodi:ry="2"
       sodipodi:rx="2"
       sodipodi:cy="17"
       sodipodi:cx="-7"
       id="path3057"
       style="fill:#2b1100;fill-opacity:1;stroke:none"
       sodipodi:type="arc" />
    <path
       sodipodi:type="arc"
       style="fill:#2b1100;fill-opacity:1;stroke:none"
       id="path3059"
       sodipodi:cx="-7"
       sodipodi:cy="17"
       sodipodi:rx="2"
       sodipodi:ry="2"
       d="m -5,17 a 2,2 0 1 1 -4,0 2,2 0 1 1 4,0 z"
       transform="matrix(1.5,0,0,1.5,62.5,23.5)" />
  </g>
  <g
     style="fill:#ffffff;opacity:1"
     id="g4200">
    <rect
       style="fill:#ffffff;fill-opacity:1;stroke:none"
       id="rect4202"
       width="26"
       height="5.999979"
       x="9"
       y="14.000021" />
    <path
       sodipodi:type="arc"
       style="fill:#ffffff;fill-opacity:1;stroke:none"
       id="path4204"
       sodipodi:cx="-7"
       sodipodi:cy="17"
       sodipodi:rx="2"
       sodipodi:ry="2"
       d="m -5,17 a 2,2 0 1 1 -4,0 2,2 0 1 1 4,0 z"
       transform="matrix(1.5000001,0,0,1.5,53.5,-8.5)" />
    <path
       transform="matrix(1.5,0,0,1.5,62.5,-8.5)"
       d="m -5,17 a 2,2 0 1 1 -4,0 2,2 0 1 1 4,0 z"
       sodipodi:ry="2"
       sodipodi:rx="2"
       sodipodi:cy="17"
       sodipodi:cx="-7"
       id="path4206"
       style="fill:#ffffff;fill-opacity:1;stroke:none"
       sodipodi:type="arc" />
    <rect
       y="46"
       x="10"
       height="5.999979"
       width="25.999998"
       id="rect4208"
       style="fill:#ffffff;fill-opacity:1;stroke:none" />
    <rect
       style="fill:#ffffff;fill-opacity:1;stroke:none"
       id="rect4210"
       width="26"
       height="5.9999809"
       x="9"
       y="30" />
    <path
       transform="matrix(1.5000001,0,0,1.5,53.5,7.5)"
       d="m -5,17 a 2,2 0 1 1 -4,0 2,2 0 1 1 4,0 z"
       sodipodi:ry="2"
       sodipodi:rx="2"
       sodipodi:cy="17"
       sodipodi:cx="-7"
       id="path4212"
       style="fill:#ffffff;fill-opacity:1;stroke:none"
       sodipodi:type="arc" />
    <path
       sodipodi:type="arc"
       style="fill:#ffffff;fill-opacity:1;stroke:none"
       id="path4214"
       sodipodi:cx="-7"
       sodipodi:cy="17"
       sodipodi:rx="2"
       sodipodi:ry="2"
       d="m -5,17 a 2,2 0 1 1 -4,0 2,2 0 1 1 4,0 z"
       transform="matrix(1.5,0,0,1.5,62.5,7.5)" />
    <path
       sodipodi:type="arc"
       style="fill:#ffffff;fill-opacity:1;stroke:none"
       id="path4216"
       sodipodi:cx="-7"
       sodipodi:cy="17"
       sodipodi:rx="2"
       sodipodi:ry="2"
       d="m -5,17 a 2,2 0 1 1 -4,0 2,2 0 1 1 4,0 z"
       transform="matrix(1.5000001,0,0,1.5,53.5,23.5)" />
    <path
       transform="matrix(1.5,0,0,1.5,62.5,23.5)"
       d="m -5,17 a 2,2 0 1 1 -4,0 2,2 0 1 1 4,0 z"
       sodipodi:ry="2"
       sodipodi:rx="2"
       sodipodi:cy="17"
       sodipodi:cx="-7"
       id="path4218"
       style="fill:#ffffff;fill-opacity:1;stroke:none"
       sodipodi:type="arc" />
  </g>
</svg>
