<svg width="64" height="64" version="1.1" xmlns="http://www.w3.org/2000/svg">
 <g fill-rule="evenodd">
  <rect x="4" y="8" width="56" height="48" rx="3" ry="3" fill="#666" style="paint-order:fill markers stroke"/>
  <path d="m15 50h34c0.554 0 0.75224 0.50449 1 1l1 2c0.24776 0.49551 0 1-1 1h-36c-1 0-1.2478-0.50449-1-1l1-2c0.24776-0.49551 0.446-1 1-1z" fill="#fff" opacity=".2" style="paint-order:fill markers stroke"/>
  <path d="m7 8c-1.662 0-3 1.338-3 3v3h56v-3c0-1.662-1.338-3-3-3z" fill="#4d4d4d" style="paint-order:fill markers stroke"/>
 </g>
 <g transform="translate(1.9954)" fill="#b3b3b3" fill-rule="evenodd">
  <rect x="15.005" y="46" width="6" height="6" rx="1" ry="1" style="paint-order:fill markers stroke"/>
  <rect x="23.005" y="46" width="6" height="6" rx="1" ry="1" style="paint-order:fill markers stroke"/>
  <rect x="31.005" y="46" width="6" height="6" rx="1" ry="1" style="paint-order:fill markers stroke"/>
  <rect x="39.005" y="46" width="6" height="6" rx="1" ry="1" style="paint-order:fill markers stroke"/>
 </g>
</svg>
