<svg width="64" height="64" version="1.1" viewBox="0 0 64 64" xmlns="http://www.w3.org/2000/svg" xmlns:xlink="http://www.w3.org/1999/xlink">
 <defs>
  <radialGradient id="a" cx="33" cy="59" r="27" gradientTransform="matrix(1.1473 0 0 .21246 -5.8604 45.943)" gradientUnits="userSpaceOnUse">
   <stop offset="0"/>
   <stop stop-opacity="0" offset="1"/>
  </radialGradient>
  <filter id="c" x="-.034704" y="-.037397" width="1.0694" height="1.0748" color-interpolation-filters="sRGB">
   <feGaussianBlur stdDeviation="0.20536451"/>
  </filter>
  <filter id="b" x="-.038" y="-.0342" width="1.076" height="1.0684" color-interpolation-filters="sRGB">
   <feGaussianBlur stdDeviation="2.28"/>
  </filter>
 </defs>
 <g>
  <ellipse cx="32" cy="58.478" rx="30.977" ry="5.7364" fill="url(#a)" opacity=".35"/>
  <path transform="matrix(.34106 0 0 .34106 14.372 19.137)" d="m117 111 8-152h-144l8 152c0.2328 4.4259 3.568 8 8 8h112c4.432 0 8-3.568 8-8z" enable-background="new" filter="url(#b)" opacity=".15"/>
  <path d="m53.828 56.682 2.7285-51.841h-49.112l2.7285 51.841c0.07939 1.5095 1.2169 2.7285 2.7285 2.7285h38.198c1.5116 0 2.7285-1.2169 2.7285-2.7285z" enable-background="new" fill="#fff"/>
  <path d="m7.4439 4.8409 0.017966 0.34106h49.076l0.01801-0.34106h-49.112z" enable-background="new" fill="#fff" opacity=".3"/>
 </g>
 <g transform="matrix(2.1191 0 0 2.1191 -34.365 -18.581)" filter="url(#c)" opacity=".15">
  <path d="m30.342 31.238-0.0039-3.8242h-2.6211l-3.1289-0.56641 2.0625 3.6992c0.10156 0.17969 0.70703 0.69141 1.7305 0.69141z"/>
  <path d="m27.717 27.414 0.67188-1.207 0.85938 0.51172-0.60938-1.7617-0.60938-1.7578-1.7812 0.33203-1.7773 0.33203 0.71875 0.42969-0.58594 1.0469c-0.27734 0.5-0.32812 0.94922-0.01563 1.5078l2.0625 3.6992c0.05078 0.08984 0.23047 0.26172 0.52344 0.41406-1-0.72266-0.42188-1.8477 0.54297-3.5469z"/>
  <path d="m26.588 21.723 3.2031 1.9141c0.4375-0.78516 0.875-1.5703 1.3086-2.3555l2.043-2.5156h-4.1289c-0.20312 0-0.93359 0.28516-1.4453 1.1992z"/>
  <path d="m31.1 21.285 0.67578 1.207-0.85938 0.51562 1.7812 0.33203 1.7773 0.33203 0.61328-1.7578 0.60938-1.7617-0.71875 0.42969-0.58594-1.0508c-0.27734-0.5-0.62891-0.76562-1.25-0.76562h-4.1289c-0.10156 0-0.33594 0.07031-0.60938 0.25781 1.1016-0.53125 1.7578 0.54688 2.6953 2.2617z"/>
  <path d="m37.233 23.176-3.3164 1.9141c0.4375 0.75781 0.875 1.5156 1.3164 2.2695l1.0703 2.9922 2.1719-3.6367c0.10547-0.17578 0.24609-0.95703-0.26172-1.8438z"/>
  <path d="m35.233 27.359-1.3867 0.01953 0.01563-1-2.4375 2.8203 1.1758 1.3711 1.1797 1.375 0.01172-0.83594 1.2031-0.01953c0.57031-0.0078 0.98047-0.1875 1.3086-0.73828l2.1719-3.6367c0.05469-0.08984 0.11719-0.32813 0.09766-0.66016-0.125 1.2266-1.3867 1.2891-3.3398 1.3047z"/>
 </g>
 <g transform="matrix(2.1191 0 0 2.1191 -34.699 -19.118)">
  <path d="m30.342 31.238-0.0039-3.8242h-2.6211l-3.1289-0.56641 2.0625 3.6992c0.10156 0.17969 0.70703 0.69141 1.7305 0.69141z" fill="#888"/>
  <path d="m27.717 27.414 0.67188-1.207 0.85938 0.51172-0.60938-1.7617-0.60938-1.7578-1.7812 0.33203-1.7773 0.33203 0.71875 0.42969-0.58594 1.0469c-0.27734 0.5-0.32812 0.94922-0.01563 1.5078l2.0625 3.6992c0.05078 0.08984 0.23047 0.26172 0.52344 0.41406-1-0.72266-0.42188-1.8477 0.54297-3.5469z" fill="#bebebe"/>
  <path d="m26.588 21.723 3.2031 1.9141c0.4375-0.78516 0.875-1.5703 1.3086-2.3555l2.043-2.5156h-4.1289c-0.20312 0-0.93359 0.28516-1.4453 1.1992z" fill="#888"/>
  <path d="m31.1 21.285 0.67578 1.207-0.85938 0.51562 1.7812 0.33203 1.7773 0.33203 0.61328-1.7578 0.60938-1.7617-0.71875 0.42969-0.58594-1.0508c-0.27734-0.5-0.62891-0.76562-1.25-0.76562h-4.1289c-0.10156 0-0.33594 0.07031-0.60938 0.25781 1.1016-0.53125 1.7578 0.54688 2.6953 2.2617z" fill="#bebebe"/>
  <path d="m37.233 23.176-3.3164 1.9141c0.4375 0.75781 0.875 1.5156 1.3164 2.2695l1.0703 2.9922 2.1719-3.6367c0.10547-0.17578 0.24609-0.95703-0.26172-1.8438z" fill="#888"/>
  <path d="m35.233 27.359-1.3867 0.01953 0.01563-1-2.4375 2.8203 1.1758 1.3711 1.1797 1.375 0.01172-0.83594 1.2031-0.01953c0.57031-0.0078 0.98047-0.1875 1.3086-0.73828l2.1719-3.6367c0.05469-0.08984 0.11719-0.32813 0.09766-0.66016-0.125 1.2266-1.3867 1.2891-3.3398 1.3047z" fill="#bebebe"/>
 </g>
</svg>
