<svg width="512" height="512" enable-background="new" version="1.0" xmlns="http://www.w3.org/2000/svg">
 <defs>
  <filter id="a" x="-.027273" y="-.021429" width="1.0545" height="1.0429" color-interpolation-filters="sRGB">
   <feGaussianBlur stdDeviation="4"/>
  </filter>
 </defs>
 <g transform="translate(0,212)">
  <g>
   <g transform="translate(-208,16)">
    <g>
     <path d="m464-192c-70.912 0-128 57.088-128 128v48h-25.594c-12.41 0-22.406 9.9966-22.406 22.406v227.19c0 12.41 9.9966 22.406 22.406 22.406h307.19c12.41 0 22.406-9.9966 22.406-22.406v-227.19c0-12.41-9.9966-22.406-22.406-22.406h-25.594v-48c0-70.912-57.088-128-128-128zm0 48c44.32 0 80 35.68 80 80v48h-160v-48c0-44.32 35.68-80 80-80z" filter="url(#a)" opacity=".1"/>
     <path d="m464-194c-70.912 0-128 57.088-128 128v48h-25.594c-12.41 0-22.406 9.9966-22.406 22.406v227.19c0 12.41 9.9966 22.406 22.406 22.406h307.19c12.41 0 22.406-9.9966 22.406-22.406v-227.19c0-12.41-9.9966-22.406-22.406-22.406h-25.594v-48c0-70.912-57.088-128-128-128zm0 48c44.32 0 80 35.68 80 80v48h-160v-48c0-44.32 35.68-80 80-80z" opacity=".2"/>
     <path d="m464-192c-70.912 0-128 57.088-128 128v48h-25.594c-12.41 0-22.406 9.9966-22.406 22.406v227.19c0 12.41 9.9966 22.406 22.406 22.406h307.19c12.41 0 22.406-9.9966 22.406-22.406v-227.19c0-12.41-9.9966-22.406-22.406-22.406h-25.594v-48c0-70.912-57.088-128-128-128zm0 48c44.32 0 80 35.68 80 80v48h-160v-48c0-44.32 35.68-80 80-80z" filter="url(#a)" opacity=".2"/>
    </g>
    <path d="m464-196c-70.912 0-128 57.088-128 128v48h48v-48c0-44.32 35.68-80 80-80s80 35.68 80 80v48h48v-48c0-70.912-57.088-128-128-128z" fill="#666"/>
    <rect transform="matrix(0,-1,-1,0,0,0)" x="-252" y="-640" width="272" height="352" rx="22.4" ry="22.4" fill="#f9ce1d"/>
    <rect x="288" y="28" width="352" height="176" rx="0" ry="0" fill="#fadd60"/>
   </g>
  </g>
 </g>
 <g transform="translate(0,212)"></g>
</svg>
