<svg width="512" height="512" enable-background="new" version="1.0" xmlns="http://www.w3.org/2000/svg">
 <title>Paper Icon Theme</title>
 <defs>
  <filter id="a" x="-.028364" y="-.0208" width="1.0567" height="1.0416" color-interpolation-filters="sRGB">
   <feGaussianBlur stdDeviation="4.16"/>
  </filter>
 </defs>
 <g transform="translate(0,212)"></g>
 <g transform="translate(0,212)">
  <g>
   <g transform="translate(-208,656)">
    <g>
     <path d="m464-848c-70.912 0-128 57.088-128 128v32h48v-32c0-44.32 35.68-80 80-80s80 35.68 80 80v80h-233.6c-12.41 0-22.4 9.9908-22.4 22.4v227.2c0 12.41 9.9908 22.4 22.4 22.4h307.2c12.41 0 22.4-9.9908 22.4-22.4v-227.2c0-12.41-9.9908-22.4-22.4-22.4h-25.6v-80c0-70.912-57.088-128-128-128z" filter="url(#a)" opacity=".1"/>
     <path d="m464-848c-70.912 0-128 57.088-128 128v32h48v-32c0-44.32 35.68-80 80-80s80 35.68 80 80v80h-233.6c-12.41 0-22.4 9.9908-22.4 22.4v227.2c0 12.41 9.9908 22.4 22.4 22.4h307.2c12.41 0 22.4-9.9908 22.4-22.4v-227.2c0-12.41-9.9908-22.4-22.4-22.4h-25.6v-80c0-70.912-57.088-128-128-128z" filter="url(#a)" opacity=".2"/>
     <path d="m464-850c-70.912 0-128 57.088-128 128v32h48v-32c0-44.32 35.68-80 80-80s80 35.68 80 80v80h-233.6c-12.41 0-22.4 9.9908-22.4 22.4v227.2c0 12.41 9.9908 22.4 22.4 22.4h307.2c12.41 0 22.4-9.9908 22.4-22.4v-227.2c0-12.41-9.9908-22.4-22.4-22.4h-25.6v-80c0-70.912-57.088-128-128-128z" opacity=".2"/>
    </g>
    <path d="m464-852c-70.912 0-128 57.088-128 128v32h48v-32c0-44.32 35.68-80 80-80s80 35.68 80 80v108h48v-108c0-70.912-57.088-128-128-128z" fill="#666"/>
    <rect transform="matrix(0,-1,-1,0,0,0)" x="372" y="-640" width="272" height="352" rx="22.4" ry="22.4" fill="#f9ce1d"/>
    <rect x="288" y="-596" width="352" height="176" rx="0" ry="0" fill="#fadd60"/>
   </g>
  </g>
 </g>
</svg>
