<svg width="512" height="512" enable-background="new" version="1.0" xmlns="http://www.w3.org/2000/svg" xmlns:osb="http://www.openswatchbook.org/uri/2009/osb" xmlns:xlink="http://www.w3.org/1999/xlink">
 <defs>
  <filter id="a" x="-.023005" y="-.025085" width="1.046" height="1.0502" color-interpolation-filters="sRGB">
   <feGaussianBlur stdDeviation="4.4483011"/>
  </filter>
 </defs>
 <g transform="translate(0,212)">
  <g>
   <g transform="translate(-208,16)">
    <g fill-rule="evenodd" shape-rendering="auto">
     <path d="m463.21-201.58c-8.4595 0.27823-16.147 4.9914-20.232 12.404l-208 377.59c-8.8077 15.995 2.7617 35.577 21.021 35.58h416c18.26-3e-3 29.829-19.585 21.021-35.58l-208-377.59c-4.3582-7.9081-12.786-12.701-21.811-12.404z" color="#000000" color-rendering="auto" enable-background="accumulate" filter="url(#a)" image-rendering="auto" opacity=".1" solid-color="#000000" stroke="#000" stroke-linejoin="round" stroke-width="8" style="isolation:auto;mix-blend-mode:normal;text-decoration-color:#000000;text-decoration-line:none;text-decoration-style:solid;text-indent:0;text-transform:none;white-space:normal"/>
     <path d="m463.21-201.58c-8.4595 0.27823-16.147 4.9914-20.232 12.404l-208 377.59c-8.8077 15.995 2.7617 35.577 21.021 35.58h416c18.26-3e-3 29.829-19.585 21.021-35.58l-208-377.59c-4.3582-7.9081-12.786-12.701-21.811-12.404z" color="#000000" color-rendering="auto" enable-background="accumulate" filter="url(#a)" image-rendering="auto" opacity=".2" solid-color="#000000" style="isolation:auto;mix-blend-mode:normal;text-decoration-color:#000000;text-decoration-line:none;text-decoration-style:solid;text-indent:0;text-transform:none;white-space:normal"/>
     <path d="m463.21-205.58c-8.4595 0.27823-16.147 4.9914-20.232 12.404l-208 377.59c-8.8077 15.995 2.7617 35.577 21.021 35.58h416c18.26-3e-3 29.829-19.585 21.021-35.58l-208-377.59c-4.3582-7.9081-12.786-12.701-21.811-12.404z" color="#000000" color-rendering="auto" enable-background="accumulate" fill="#ff9800" image-rendering="auto" solid-color="#000000" style="isolation:auto;mix-blend-mode:normal;text-decoration-color:#000000;text-decoration-line:none;text-decoration-style:solid;text-indent:0;text-transform:none;white-space:normal"/>
    </g>
    <path d="m448-100v192h32v-192zm0 224v32h32v-32z" enable-background="new" fill="#fff"/>
    <path transform="translate(0,-244)" d="m463.21 38.422c-8.4595 0.27823-16.147 4.9914-20.232 12.404l-208 377.59c-2.2446 4.0762-3.1581 8.3843-2.9824 12.543 0.15144-3.5272 1.096-7.1172 2.9824-10.543l208-377.59c4.0853-7.4129 11.773-12.126 20.232-12.404 9.0246-0.29686 17.452 4.4962 21.811 12.404l208 377.59c1.8864 3.4257 2.831 7.0158 2.9824 10.543 0.17566-4.1587-0.73785-8.4667-2.9824-12.543l-208-377.59c-4.3582-7.9081-12.786-12.701-21.811-12.404z" color="#000000" color-rendering="auto" enable-background="accumulate" fill="#fff" fill-rule="evenodd" image-rendering="auto" opacity=".2" shape-rendering="auto" solid-color="#000000" style="isolation:auto;mix-blend-mode:normal;text-decoration-color:#000000;text-decoration-line:none;text-decoration-style:solid;text-indent:0;text-transform:none;white-space:normal"/>
    <path d="m695.96 196.89c-0.47778 12.889-11.057 23.097-23.955 23.113h-416c-12.86-0.0176-23.421-10.167-23.949-23.016-0.57585 13.629 10.308 24.998 23.949 25.016h416c13.684-0.0123 24.588-11.444 23.955-25.113z" color="#000000" color-rendering="auto" enable-background="accumulate" fill-rule="evenodd" image-rendering="auto" opacity=".1" shape-rendering="auto" solid-color="#000000" style="isolation:auto;mix-blend-mode:normal;text-decoration-color:#000000;text-decoration-line:none;text-decoration-style:solid;text-indent:0;text-transform:none;white-space:normal"/>
   </g>
  </g>
 </g>
</svg>
