<svg width="512" height="512" enable-background="new" version="1.0" xmlns="http://www.w3.org/2000/svg" xmlns:osb="http://www.openswatchbook.org/uri/2009/osb" xmlns:xlink="http://www.w3.org/1999/xlink">
 <defs>
  <filter id="a" x="-.024" y="-.024" width="1.048" height="1.048" color-interpolation-filters="sRGB">
   <feGaussianBlur stdDeviation="4.7999638"/>
  </filter>
 </defs>
 <g transform="translate(0,212)">
  <g>
   <g transform="translate(-208,16)">
    <g fill-rule="evenodd" shape-rendering="auto">
     <path d="m463.53-208c-8.3228 0.1229-16.27 3.4836-22.156 9.3691l-208 208c-12.494 12.497-12.494 32.757 0 45.254l208 208c12.497 12.494 32.756 12.494 45.254 0l208-208c12.494-12.497 12.494-32.757 0-45.254l-208-208c-6.1167-6.1162-14.449-9.4959-23.098-9.3691z" color="#000000" color-rendering="auto" enable-background="accumulate" filter="url(#a)" image-rendering="auto" opacity=".1" solid-color="#000000" stroke="#000" stroke-linejoin="round" stroke-width="8" style="isolation:auto;mix-blend-mode:normal;text-decoration-color:#000000;text-decoration-line:none;text-decoration-style:solid;text-indent:0;text-transform:none;white-space:normal"/>
     <path d="m463.53-208c-8.3228 0.1229-16.27 3.4836-22.156 9.3691l-208 208c-12.494 12.497-12.494 32.757 0 45.254l208 208c12.497 12.494 32.756 12.494 45.254 0l208-208c12.494-12.497 12.494-32.757 0-45.254l-208-208c-6.1167-6.1162-14.449-9.4959-23.098-9.3691z" color="#000000" color-rendering="auto" enable-background="accumulate" filter="url(#a)" image-rendering="auto" opacity=".2" solid-color="#000000" style="isolation:auto;mix-blend-mode:normal;text-decoration-color:#000000;text-decoration-line:none;text-decoration-style:solid;text-indent:0;text-transform:none;white-space:normal"/>
     <path d="m463.53-212c-8.3228 0.1229-16.27 3.4836-22.156 9.3691l-208 208c-12.494 12.497-12.494 32.757 0 45.254l208 208c12.497 12.494 32.756 12.494 45.254 0l208-208c12.494-12.497 12.494-32.757 0-45.254l-208-208c-6.1167-6.1162-14.449-9.4959-23.098-9.3691z" color="#000000" color-rendering="auto" enable-background="accumulate" fill="#5c6bc0" image-rendering="auto" solid-color="#000000" style="isolation:auto;mix-blend-mode:normal;text-decoration-color:#000000;text-decoration-line:none;text-decoration-style:solid;text-indent:0;text-transform:none;white-space:normal"/>
    </g>
    <path d="m464-99.934c-40.689 0-73.713 31.839-75.799 72h32.207c2.0702-22.3 20.779-40 43.592-40 24.182 0 44 19.818 44 44 0 12.067-4.851 23.13-13.01 31.068l-24.74 25.141h-2e-3c-13.703 13.893-22.248 32.882-22.248 53.791v6h32.17c0.86985-27.901 10.469-41.299 24.371-55.396l18-18.4 0.0156-0.01562 0.0156-0.01563c10.672-10.672 17.428-25.663 17.428-42.172 0-42.04-33.96-76-76-76zm-16 224v32h32v-32z" enable-background="new" fill="#fff"/>
    <path transform="translate(0,-244)" d="m463.53 32.004c-8.3228 0.1229-16.27 3.4836-22.156 9.3691l-208 208c-6.5015 6.5031-9.6124 15.108-9.3477 23.627 0.24398-7.8526 3.3548-15.633 9.3477-21.627l208-208c5.886-5.8855 13.833-9.2462 22.156-9.3691 8.649-0.12674 16.981 3.253 23.098 9.3691l208 208c5.9929 5.9943 9.1037 13.774 9.3477 21.627 0.26469-8.5192-2.8461-17.124-9.3477-23.627l-208-208c-6.1167-6.1162-14.449-9.4959-23.098-9.3691z" color="#000000" color-rendering="auto" enable-background="accumulate" fill="#fff" fill-rule="evenodd" image-rendering="auto" opacity=".2" shape-rendering="auto" solid-color="#000000" style="isolation:auto;mix-blend-mode:normal;text-decoration-color:#000000;text-decoration-line:none;text-decoration-style:solid;text-indent:0;text-transform:none;white-space:normal"/>
   </g>
  </g>
 </g>
</svg>
