<svg width="512" height="512" enable-background="new" version="1.0" xmlns="http://www.w3.org/2000/svg" xmlns:xlink="http://www.w3.org/1999/xlink">
 <defs>
  <filter id="a" x="-.022286" y="-.026" width="1.0446" height="1.052" color-interpolation-filters="sRGB">
   <feGaussianBlur stdDeviation="4.16"/>
  </filter>
 </defs>
 <g transform="translate(0,212)">
  <g>
   <g transform="translate(-208,16)">
    <rect transform="rotate(90)" x="-160" y="-688" width="384" height="448" rx="24" ry="24" filter="url(#a)" opacity=".1" stroke="#000" stroke-width="8"/>
    <rect transform="rotate(90)" x="-160" y="-688" width="384" height="448" rx="24" ry="24" filter="url(#a)" opacity=".2"/>
    <rect transform="rotate(90)" x="-164" y="-688" width="384" height="448" rx="24" ry="24" fill="#e6e6e6"/>
    <path transform="translate(0,76)" d="m264-240c-13.296 0-24 10.704-24 24v2c0-13.296 10.704-24 24-24h400c13.296 0 24 10.704 24 24v-2c0-13.296-10.704-24-24-24z" fill="#fff" opacity=".2"/>
    <path d="m264 220c-13.296 0-24-10.704-24-24v-2c0 13.296 10.704 24 24 24h400c13.296 0 24-10.704 24-24v2c0 13.296-10.704 24-24 24z" opacity=".1"/>
    <path d="m560 59.95a32 32 0 0 0 32-32 32 32 0 0 0-32-32 32 32 0 0 0-32 32 32 32 0 0 0 32 32zm-96 0a32 32 0 0 0 32-32 32 32 0 0 0-32-32 32 32 0 0 0-32 32 32 32 0 0 0 32 32zm-96 0a32 32 0 0 0 32-32 32 32 0 0 0-32-32 32 32 0 0 0-32 32 32 32 0 0 0 32 32z" color="#000000" color-rendering="auto" enable-background="accumulate" fill="#b3b3b3" fill-rule="evenodd" image-rendering="auto" shape-rendering="auto" solid-color="#000000" style="isolation:auto;mix-blend-mode:normal"/>
   </g>
  </g>
 </g>
</svg>
