<svg width="512" height="512" enable-background="new" version="1.0" xmlns="http://www.w3.org/2000/svg" xmlns:xlink="http://www.w3.org/1999/xlink">
 <defs>
  <clipPath id="d">
   <path d="m207 224c-1.662 0-3 1.338-3 3v50c0 1.662 1.338 3 3 3h29l24-24v-29c0-1.662-1.338-3-3-3z" fill="#fecd38"/>
  </clipPath>
  <filter id="c" x="-.022286" y="-.026" width="1.0446" height="1.052" color-interpolation-filters="sRGB">
   <feGaussianBlur stdDeviation="4.16"/>
  </filter>
  <filter id="b" x="-.022286" y="-.026" width="1.0446" height="1.052" color-interpolation-filters="sRGB">
   <feGaussianBlur stdDeviation="4.16"/>
  </filter>
  <filter id="a" x="-.06" y="-.06" width="1.12" height="1.12" color-interpolation-filters="sRGB">
   <feGaussianBlur stdDeviation="0.6"/>
  </filter>
 </defs>
 <g transform="translate(0,212)">
  <g>
   <g transform="translate(-200,16)">
    <path d="m256-160c-13.296 0-24 10.704-24 24v336c0 13.296 10.704 24 24 24h232l192-192v-168c0-13.296-10.704-24-24-24z" filter="url(#c)" opacity=".1" stroke="#000" stroke-width="8"/>
    <path d="m256-160c-13.296 0-24 10.704-24 24v336c0 13.296 10.704 24 24 24h232l192-192v-168c0-13.296-10.704-24-24-24z" filter="url(#b)" opacity=".2"/>
    <path d="m256-164c-13.296 0-24 10.704-24 24v336c0 13.296 10.704 24 24 24h232l192-192v-168c0-13.296-10.704-24-24-24z" fill="#d8d8d8"/>
    <path d="m376-18 106 120 68-66 33 33 1 39-56 48h-232v-80z" color="#000000" enable-background="new" opacity=".1" style="text-decoration-line:none;text-indent:0;text-transform:none"/>
    <path transform="matrix(8 0 0 8 -1400 -2020)" d="m260 258h-21c-1.6568 0-3 1.3432-3 3v21z" clip-path="url(#d)" enable-background="new" filter="url(#a)" opacity=".2"/>
    <path d="m680 28h-168c-13.255 0-24 10.745-24 24v168z" enable-background="new" fill="#ebebeb"/>
    <path transform="translate(0,76)" d="m512-48c-13.255 0-24 10.745-24 24v2c0-13.255 10.745-24 24-24h166l2-2z" enable-background="new" fill="#fff" opacity=".1"/>
    <path transform="translate(0,76)" d="m256-240c-13.296 0-24 10.704-24 24v2c0-13.296 10.704-24 24-24h400c13.296 0 24 10.704 24 24v-2c0-13.296-10.704-24-24-24z" fill="#fff" opacity=".2"/>
   </g>
  </g>
 </g>
</svg>
