<svg width="512" height="512" enable-background="new" version="1.0" xmlns="http://www.w3.org/2000/svg" xmlns:osb="http://www.openswatchbook.org/uri/2009/osb">
 <defs>
  <clipPath id="c">
   <path d="m160 238-19.09 14.324c-0.0411 0.0267-0.0783 0.0583-0.11719 0.0879l-0.0234 0.0176v2e-3c-0.46561 0.36548-0.76957 0.92777-0.76957 1.5683v24c0 1.108 0.892 2 2 2h36c1.108 0 2-0.892 2-2v-24c0-0.65501-0.31697-1.2294-0.80078-1.5938l8e-3 -0.0117z" fill="#fe9700"/>
  </clipPath>
  <filter id="e" x="-.10285" y="-.14401" width="1.2057" height="1.288" color-interpolation-filters="sRGB">
   <feGaussianBlur stdDeviation="1.8005944"/>
  </filter>
  <filter id="d" x="-.051427" y="-.072004" width="1.1029" height="1.144" color-interpolation-filters="sRGB">
   <feGaussianBlur stdDeviation="0.90029722"/>
  </filter>
  <clipPath id="g">
   <path d="m232 221.2-26.726 20.054c-0.0575 0.0374-0.10962 0.0816-0.16407 0.12306l-0.0328 0.0247v3e-3c-0.65181 0.5118-1.0774 1.299-1.0774 2.1957v33.6c0 1.5512 1.2488 2.8 2.8 2.8h50.4c1.5512 0 2.8-1.2488 2.8-2.8v-33.6c0-0.91702-0.44376-1.7211-1.1211-2.2312l0.0112-0.0164-26.89-20.152z" fill="#fe9700"/>
  </clipPath>
  <filter id="f" x="-.054545" y="-.066667" width="1.1091" height="1.1333" color-interpolation-filters="sRGB">
   <feGaussianBlur stdDeviation="0.99999981"/>
  </filter>
  <filter id="b" x="-.0246" y="-.023429" width="1.0492" height="1.0469" color-interpolation-filters="sRGB">
   <feGaussianBlur stdDeviation="4.5920024"/>
  </filter>
  <filter id="a" x="-.024" y="-.024" width="1.048" height="1.048" color-interpolation-filters="sRGB">
   <feGaussianBlur stdDeviation="2.4"/>
  </filter>
 </defs>
 <g transform="translate(0,212)"></g>
 <g transform="translate(0,212)"></g>
 <g transform="translate(0,212)">
  <g>
   <g transform="translate(-208 1296)">
    <g>
     <path d="m464-1494.4-213.81 160.43c-0.46 0.2992-0.8769 0.6527-1.3125 0.9844l-0.26172 0.1973v0.025c-5.214 4.094-8.6185 10.392-8.6191 17.564v267.2c0 20.958 17.077 23.612 22.473 23.949l-0.072 0.051h403.2l-0.07-0.049c22.456-1.0068 22.471-23.951 22.471-23.951v-267.2 0c-7e-4 -7.3353-3.5506-13.767-8.9688-17.848l0.09-0.1309-215.12-161.22z" filter="url(#b)" opacity=".1" stroke="#000" stroke-width="8"/>
     <path d="m464-1494.4-213.81 160.43c-0.46 0.2992-0.8769 0.6527-1.3125 0.9844l-0.26172 0.1973v0.025c-5.214 4.094-8.6185 10.392-8.6191 17.564v267.2c0 20.958 17.077 23.612 22.473 23.949l-0.072 0.051h403.2l-0.07-0.049c22.456-1.0068 22.471-23.951 22.471-23.951v-267.2 0c-7e-4 -7.3353-3.5506-13.767-8.9688-17.848l0.09-0.1309-215.12-161.22z" filter="url(#b)" opacity=".2"/>
     <path d="m464-1496.4-213.81 160.43c-0.46 0.2992-0.8769 0.6527-1.3125 0.9844l-0.26172 0.1973v0.025c-5.214 4.094-8.6185 10.392-8.6191 17.564v267.2c0 20.958 17.077 23.612 22.473 23.949l-0.072 0.051h403.2l-0.07-0.049c22.456-1.0068 22.471-23.951 22.471-23.951v-267.2 0c-7e-4 -7.3353-3.5506-13.767-8.9688-17.848l0.09-0.1309-215.12-161.22z" opacity=".2"/>
    </g>
    <g>
     <path d="m464-1498.4-213.81 160.43c-0.46 0.2992-0.87696 0.6528-1.3126 0.9844l-0.2624 0.1976v0.024c-5.2145 4.0944-8.6189 10.392-8.6189 17.566v236.8c0 12.41 9.9904 22.4 22.4 22.4h403.2c12.41 0 22.4-9.9905 22.4-22.4v-236.8c0-7.3362-3.5501-13.769-8.9687-17.85l0.09-0.1312-215.12-161.22z" fill="#90a4ae"/>
     <path d="m464-1498.4-213.81 160.43c-0.46 0.2992-0.8769 0.6527-1.3125 0.9844l-0.26172 0.1973v0.025c-5.2145 4.0944-8.6191 10.391-8.6191 17.564v2c0-7.1737 3.4047-13.47 8.6191-17.564v-0.025l0.26172-0.1973c0.4356-0.3317 0.8525-0.6852 1.3125-0.9844l213.81-160.43 215.12 161.22-0.09 0.1309c5.4186 4.081 8.9687 10.513 8.9687 17.85v-2c0-7.3362-3.5501-13.769-8.9688-17.85l0.09-0.1309z" fill="#fff" opacity=".2"/>
     <rect transform="matrix(8 0 0 8 -1392 -3268)" x="210" y="227" width="44" height="36" rx="3" ry="2.9976" clip-path="url(#g)" filter="url(#f)" opacity=".2"/>
     <rect x="288" y="-1460" width="352" height="368" rx="24" ry="23.981" fill="#f2f2f2"/>
     <path transform="matrix(11.2 0 0 11.2 -1328 -4164)" d="m140 254 38 26-40 4c-1.1025 0.11025-2.1567-0.90314-2-2z" clip-path="url(#c)" filter="url(#e)" opacity=".2"/>
     <path d="m240-1319.2 425.6 291.2h-401.6c-1.5999 0-24 0-24-24z" fill="#b0bec5"/>
     <path transform="matrix(-11.2 0 0 11.2 2256 -4164)" d="m140 254 38 26-40 4c-1.1025 0.11025-2.1567-0.90314-2-2z" clip-path="url(#c)" filter="url(#d)" opacity=".1"/>
     <path d="m664-1028c24 0 24-24 24-24v-267.2l-425.6 291.2z" fill="#cfd8dc"/>
     <path d="m240-1319.2v2l224 153.26 224-153.26v-2l-224 153.26z" fill="#fff" opacity=".2"/>
     <path d="m464-1411.9c-24.853 0-45 20.147-45 45 0 18.64 11.17 34.552 27.321 41.384l-27.321 89.616h90l-27.322-89.616c16.151-6.8314 27.322-22.744 27.322-41.384 0-24.853-20.147-45-45-45z" color="#000000" enable-background="accumulate" fill="#b3b3b3"/>
     <circle cx="584" cy="-1126" r="120" enable-background="new" filter="url(#a)" opacity=".2"/>
     <circle cx="584" cy="-1126" r="120" enable-background="new" filter="url(#a)" opacity=".1" stroke="#000" stroke-width="8"/>
     <circle cx="584" cy="-1132" r="120" enable-background="new" fill="#4caf50"/>
    </g>
    <g transform="matrix(12,0,0,12,-376,-4396)" enable-background="new" fill="none">
     <rect x="72" y="264" width="16" height="16" rx=".14409" ry=".15129" color="#bebebe" enable-background="new"/>
     <path d="m75 273 3 3 7-8" stroke="#fff" stroke-linecap="square" stroke-width="2"/>
    </g>
   </g>
  </g>
 </g>
</svg>
