<svg width="512" height="512" enable-background="new" version="1.0" xmlns="http://www.w3.org/2000/svg" xmlns:osb="http://www.openswatchbook.org/uri/2009/osb">
 <defs>
  <filter id="b" x="-.022714" y="-.02544" width="1.0454" height="1.0509" color-interpolation-filters="sRGB">
   <feGaussianBlur stdDeviation="4.24"/>
  </filter>
  <filter id="a" x="-.024" y="-.024" width="1.048" height="1.048" color-interpolation-filters="sRGB">
   <feGaussianBlur stdDeviation="2.4"/>
  </filter>
 </defs>
 <g transform="translate(0,212)"></g>
 <g transform="translate(0,212)"></g>
 <g transform="translate(0,212)"></g>
 <g transform="translate(0,212)"></g>
 <g transform="translate(0,212)">
  <g>
   <g transform="translate(-208,2576)">
    <path d="m336-2720v96h-72c-13.296 0-24 10.704-24 24v144c0 13.296 10.704 24 24 24h72v112h256v-112h72c13.296 0 24-10.704 24-24v-144c0-13.296-10.704-24-24-24h-72v-96z" filter="url(#b)" opacity=".1" stroke="#000" stroke-width="8"/>
    <path d="m336-2720v96h-72c-13.296 0-24 10.704-24 24v144c0 13.296 10.704 24 24 24h72v112h256v-112h72c13.296 0 24-10.704 24-24v-144c0-13.296-10.704-24-24-24h-72v-96z" filter="url(#b)" opacity=".2"/>
    <rect transform="matrix(0,-1,-1,0,0,0)" x="2436" y="-688" width="192" height="448" rx="24" ry="24" fill="#4d4d4d"/>
    <path d="m336-2628h256v-95.999h-256z" fill="#ececec"/>
    <path d="m240-2462v2c0 13.296 10.704 24 24 24h400c13.296 0 24-10.704 24-24v-2c0 13.296-10.704 24-24 24h-400c-13.296 0-24-10.704-24-24z" opacity=".2"/>
    <path d="m336-2324h256v-192h-256z" fill="#ececec"/>
    <rect x="280" y="-2588" width="24" height="24" rx="0" ry="12" fill="#f9ce1d"/>
    <path d="m336-2724v2h256v-2z" fill="#fff" opacity=".4"/>
    <path d="m240-2602v-2c0-13.296 10.704-24 24-24h400c13.296 0 24 10.704 24 24v2c0-13.296-10.704-24-24-24h-400c-13.296 0-24 10.704-24 24z" fill="#fff" opacity=".2"/>
    <circle cx="584" cy="-2406" r="120" enable-background="new" filter="url(#a)" opacity=".2"/>
    <circle cx="584" cy="-2406" r="120" enable-background="new" filter="url(#a)" opacity=".1" stroke="#000" stroke-width="8"/>
    <circle cx="584" cy="-2412" r="120" enable-background="new" fill="#2196f3"/>
    <path d="m584-2476c-8.8366 0-16 7.1635-16 16s7.1634 16 16 16 16-7.1635 16-16-7.1634-16-16-16zm-12 56v72h24v-72z" enable-background="new" fill="#fff"/>
   </g>
  </g>
 </g>
 <g transform="translate(0,212)"></g>
</svg>
