<svg width="512" height="512" enable-background="new" version="1.0" xmlns="http://www.w3.org/2000/svg">
 <defs>
  <filter id="a" x="-.026933" y="-.021643" width="1.0539" height="1.0433" color-interpolation-filters="sRGB">
   <feGaussianBlur stdDeviation="4.04"/>
  </filter>
 </defs>
 <g transform="translate(0,212)">
  <g>
   <g transform="translate(-208,16)">
    <g>
     <path d="m464-194-176 59.442v209.07c0 61.873 43.248 105.18 84.125 133.47 40.877 28.282 91.875 46.025 91.875 46.025s51.13-18.419 91.875-46.958c40.745-28.539 83.541-71.479 84.125-132.53v-209.07z" color="#bebebe" enable-background="accumulate" opacity=".2" style="text-decoration-line:none;text-indent:0;text-transform:none"/>
     <path d="m464-192-176 59.442v209.07c0 61.873 43.248 105.18 84.125 133.47 40.877 28.282 91.875 46.025 91.875 46.025s51.13-18.419 91.875-46.958c40.745-28.539 84.125-71.476 84.125-132.53v-209.07z" color="#bebebe" enable-background="accumulate" filter="url(#a)" opacity=".2" style="text-decoration-line:none;text-indent:0;text-transform:none"/>
     <path d="m464-192-176 59.442v209.07c0 61.873 43.248 105.18 84.125 133.47 40.877 28.282 91.875 46.025 91.875 46.025s51.13-18.419 91.875-46.958c40.745-28.539 83.541-71.479 84.125-132.53v-209.07z" color="#bebebe" enable-background="accumulate" filter="url(#a)" opacity=".1" style="text-decoration-line:none;text-indent:0;text-transform:none"/>
    </g>
    <path d="m464-196-176 59.442v209.07c0 61.873 43.248 105.18 84.125 133.47 40.877 28.282 91.875 46.025 91.875 46.025s51.13-18.419 91.875-46.958c40.745-28.539 83.541-71.479 84.125-132.53v-209.07z" color="#bebebe" enable-background="accumulate" fill="#ef5350" style="text-decoration-line:none;text-indent:0;text-transform:none"/>
    <path d="m464-196 176 59.441v2l-176-59.441-176 59.441v-2z" color="#bebebe" enable-background="accumulate" fill="#fff" opacity=".2" style="text-decoration-line:none;text-indent:0;text-transform:none"/>
    <path d="m384-52 160 160" fill="none" stroke="#fff" stroke-width="48"/>
    <path d="m384 108 160-160" fill="none" stroke="#fff" stroke-width="48"/>
    <path d="m464-196v448s51.13-18.42 91.875-46.959c40.745-28.539 83.541-71.479 84.125-132.53v-209.07z" color="#bebebe" enable-background="accumulate" opacity=".1" style="text-decoration-line:none;text-indent:0;text-transform:none"/>
   </g>
  </g>
 </g>
 <g transform="translate(0,212)"></g>
 <g transform="translate(0,212)"></g>
</svg>
