<svg width="64" height="64" version="1.1" xmlns="http://www.w3.org/2000/svg">
 <defs>
  <filter id="a" x="-.036" y="-.036" width="1.072" height="1.072" color-interpolation-filters="sRGB">
   <feGaussianBlur stdDeviation="0.45"/>
  </filter>
 </defs>
 <g transform="matrix(2 0 0 2 0 -2181)">
  <g stroke-width="1.04">
   <circle transform="scale(1,-1)" cx="16" cy="-1107" r="15" opacity=".15"/>
   <circle transform="scale(1,-1)" cx="16" cy="-1106.5" r="15" filter="url(#a)" opacity=".15"/>
   <circle transform="scale(1,-1)" cx="16" cy="-1106.5" r="15" fill="#81c784"/>
  </g>
  <g fill="#fff" stroke-linecap="round" stroke-linejoin="round" stroke-width="2">
   <path d="m14.52 1107a0.5 0.5 0 0 1 0.48 0.5v2h7c0.277 0 0.5 0.223 0.5 0.5v2c0 0.276-0.223 0.5-0.5 0.5h-7v2a0.5 0.5 0 0 1-0.806 0.394l-4.5-3.5a0.5 0.5 0 0 1 0-0.79l4.5-3.499a0.503 0.503 0 0 1 0.326-0.105zm2.96-9a0.5 0.5 0 0 0-0.48 0.5v2h-7c-0.277 0-0.5 0.223-0.5 0.5v2c0 0.277 0.223 0.5 0.5 0.5h7v2a0.5 0.5 0 0 0 0.806 0.394l4.5-3.5a0.5 0.5 0 0 0 0-0.789l-4.5-3.5a0.503 0.503 0 0 0-0.326-0.105z"/>
  </g>
 </g>
</svg>
