<svg width="64" height="64" version="1.1" xmlns="http://www.w3.org/2000/svg">
 <defs>
  <filter id="a" x="-.036" y="-.036" width="1.072" height="1.072" color-interpolation-filters="sRGB">
   <feGaussianBlur stdDeviation="0.45"/>
  </filter>
 </defs>
 <g transform="matrix(2 0 0 2 0 -2181)" filter="url(#a)" opacity=".15">
  <circle cx="16" cy="1106.5" r="15" stroke-width="1.04"/>
  <path d="m16.667 1100.5a0.665 0.665 0 0 0-0.667 0.666v2c0 0.37 0.297 0.667 0.667 0.667h3.333l-4 3.333v2.667c0 0.37 0.297 0.667 0.667 0.667h6.666c0.37 0 0.667-0.298 0.667-0.667v-2a0.665 0.665 0 0 0-0.667-0.667h-3.333l4-3.333v-2.667a0.665 0.665 0 0 0-0.667-0.666zm-8 6a0.665 0.665 0 0 0-0.667 0.666v0.667c0 0.37 0.298 0.685 0.667 0.667h1.333l-2 2v1.333c0 0.37 0.297 0.667 0.667 0.667h3.333c0.37 0 0.667-0.298 0.667-0.667v-0.667a0.665 0.665 0 0 0-0.667-0.666h-1.333l2-2v-1.334a0.665 0.665 0 0 0-0.667-0.666z" stroke-linecap="round" stroke-linejoin="round" stroke-opacity=".528" stroke-width="2"/>
 </g>
 <g transform="matrix(2 0 0 2 0 -2181)">
  <circle cx="16" cy="1107" r="15" opacity=".15" stroke-width="1.04"/>
  <circle cx="16" cy="1106.5" r="15" fill="#9575cd" stroke-width="1.04"/>
  <path d="m16.667 1100.5a0.665 0.665 0 0 0-0.667 0.666v2c0 0.37 0.297 0.667 0.667 0.667h3.333l-4 3.333v2.667c0 0.37 0.297 0.667 0.667 0.667h6.666c0.37 0 0.667-0.298 0.667-0.667v-2a0.665 0.665 0 0 0-0.667-0.667h-3.333l4-3.333v-2.667a0.665 0.665 0 0 0-0.667-0.666zm-8 6a0.665 0.665 0 0 0-0.667 0.666v0.667c0 0.37 0.298 0.685 0.667 0.667h1.333l-2 2v1.333c0 0.37 0.297 0.667 0.667 0.667h3.333c0.37 0 0.667-0.298 0.667-0.667v-0.667a0.665 0.665 0 0 0-0.667-0.666h-1.333l2-2v-1.334a0.665 0.665 0 0 0-0.667-0.666z" fill="#fff" stroke-linecap="round" stroke-linejoin="round" stroke-opacity=".528" stroke-width="2"/>
 </g>
</svg>
