<?xml version="1.0" encoding="UTF-8" standalone="no"?>
<svg
   xmlns:dc="http://purl.org/dc/elements/1.1/"
   xmlns:cc="http://creativecommons.org/ns#"
   xmlns:rdf="http://www.w3.org/1999/02/22-rdf-syntax-ns#"
   xmlns:svg="http://www.w3.org/2000/svg"
   xmlns="http://www.w3.org/2000/svg"
   xmlns:sodipodi="http://sodipodi.sourceforge.net/DTD/sodipodi-0.dtd"
   xmlns:inkscape="http://www.inkscape.org/namespaces/inkscape"
   width="64px"
   height="64px"
   viewBox="0 0 64 64"
   version="1.1"
   id="svg2"
   inkscape:version="0.91 r13725"
   sodipodi:docname="application-x-php.svg">
  <metadata
     id="metadata23">
    <rdf:RDF>
      <cc:Work
         rdf:about="">
        <dc:format>image/svg+xml</dc:format>
        <dc:type
           rdf:resource="http://purl.org/dc/dcmitype/StillImage" />
      </cc:Work>
    </rdf:RDF>
  </metadata>
  <defs
     id="defs21">
    <filter
       inkscape:collect="always"
       style="color-interpolation-filters:sRGB"
       id="filter4185-45-8"
       x="-0.096041702"
       width="1.1920834"
       y="-0.09595833"
       height="1.1919167">
      <feGaussianBlur
         inkscape:collect="always"
         stdDeviation="0.7196875"
         id="feGaussianBlur4187-2-3" />
    </filter>
    <filter
       inkscape:collect="always"
       style="color-interpolation-filters:sRGB"
       id="filter4200"
       x="-0.081"
       width="1.162"
       y="-0.11781818"
       height="1.2356364">
      <feGaussianBlur
         inkscape:collect="always"
         stdDeviation="1.08"
         id="feGaussianBlur4202" />
    </filter>
  </defs>
  <sodipodi:namedview
     pagecolor="#ffffff"
     bordercolor="#666666"
     borderopacity="1"
     objecttolerance="10"
     gridtolerance="10"
     guidetolerance="10"
     inkscape:pageopacity="0"
     inkscape:pageshadow="2"
     inkscape:window-width="1301"
     inkscape:window-height="744"
     id="namedview19"
     showgrid="false"
     inkscape:zoom="5.2149125"
     inkscape:cx="19.705298"
     inkscape:cy="22.732262"
     inkscape:window-x="65"
     inkscape:window-y="24"
     inkscape:window-maximized="1"
     inkscape:current-layer="svg2" />
  <g
     transform="translate(-0.7129958,0)"
     id="g4173-24-5">
    <path
       style="fill:#687da8;fill-opacity:1;fill-rule:nonzero;stroke:none"
       d="M 10.671875,0 C 9.296875,0 8,1.355469 8,2.789062 L 8,61.210938 C 8,62.566406 9.375,64 10.671875,64 l 42.65625,0 C 54.625,64 56,62.566406 56,61.210938 L 56,18 38,0 Z m 0,0"
       id="path5-3-4"
       inkscape:connector-curvature="0" />
    <path
       inkscape:connector-curvature="0"
       id="path4183-02-9"
       d="m 37.72725,1.2727492 0,15.2265618 c 0,1.347657 1.410156,2.773438 2.757812,2.773438 l 15.226563,0 -1,-1 -13.984375,0 c -1.108,0 -2,-0.892 -2,-2 l 0,-13.9999998 -1,-1 z"
       style="opacity:0.35;fill:#000000;fill-opacity:1;fill-rule:nonzero;stroke:none;filter:url(#filter4185-45-8)"
       transform="matrix(0.9987982,0,0,0.97072022,0.05614747,0.5539655)" />
    <path
       style="fill:#a3b0ca;fill-opacity:1;fill-rule:nonzero;stroke:none"
       d="M 38,0 55.984375,18 40.757812,18 C 39.410156,18 38,16.574219 38,15.226562 Z m 0,0"
       id="path9-99-0"
       inkscape:connector-curvature="0" />
    <path
       inkscape:connector-curvature="0"
       id="path4160-1-7"
       d="M 10.671875,2.0000001e-8 C 9.2968752,2.0000001e-8 8.0000002,1.3554695 8.0000002,2.7890625 l 0,1 C 8.0000002,2.3554695 9.2968752,1 10.671875,1 L 38,1 38,2e-8 l -27.328125,0 z"
       style="opacity:0.5;fill:#ffffff;fill-opacity:1;fill-rule:nonzero;stroke:none" />
    <path
       inkscape:connector-curvature="0"
       id="path4178-08-3"
       d="m 8.0000002,60.210938 0,1 c 0,1.355468 1.375,2.789062 2.6718748,2.789062 L 53.32812,64 C 54.62499,64 56,62.566406 56,61.210938 l 0,-1 C 56,61.566406 54.62499,63 53.32812,63 L 10.671875,63 C 9.3750002,63 8.0000002,61.566406 8.0000002,60.210938 Z"
       style="opacity:0.15;fill:#000000;fill-opacity:1;fill-rule:nonzero;stroke:none" />
  </g>
  <g
     id="g4192"
     style="fill:#000000;opacity:0.35;filter:url(#filter4200)">
    <path
       id="path4194"
       d="M 32 26 C 23.164062 26 16 30.921875 16 37 C 16 43.078125 23.164062 48 32 48 C 40.835938 48 48 43.078125 48 37 C 48 30.921875 40.835938 26 32 26 z M 30.804688 30.125 L 32.914062 30.125 C 32.726562 30.933594 32.585938 31.550781 32.492188 31.988281 C 32.390625 32.421875 32.195312 33.117188 31.890625 34.066406 L 31.945312 34.066406 C 32.234375 33.71875 32.554688 33.445312 32.914062 33.238281 C 33.265625 33.027344 33.679688 32.921875 34.148438 32.921875 C 34.789062 32.921875 35.289062 33.117188 35.640625 33.488281 C 35.992188 33.855469 36.171875 34.390625 36.171875 35.089844 C 36.171875 35.208937 36.157336 35.349864 36.142578 35.490234 L 36.679688 33.066406 L 38.289062 33.066406 L 38.171875 34.203125 L 38.234375 34.203125 C 38.882812 33.347656 39.625 32.921875 40.460938 32.921875 C 41.140625 32.921875 41.679688 33.164062 42.070312 33.648438 C 42.46875 34.132812 42.664062 34.800781 42.664062 35.664062 C 42.664062 36.515625 42.507812 37.347656 42.179688 38.136719 C 41.867188 38.925781 41.429688 39.546875 40.875 40.015625 C 40.3125 40.472656 39.703125 40.707031 39.039062 40.707031 C 38.648438 40.707031 38.3125 40.625 38.03125 40.457031 C 37.75 40.296875 37.492188 40.015625 37.257812 39.609375 L 37.195312 39.609375 C 37.140625 40.328125 37.039062 40.980469 36.898438 41.59375 L 36.390625 43.875 L 34.28125 43.875 L 35.013672 40.570312 L 32.96875 40.570312 L 33.929688 36.1875 C 34 35.878906 34.039062 35.613281 34.039062 35.386719 C 34.039062 34.839844 33.789062 34.566406 33.28125 34.566406 C 32.851562 34.566406 32.460938 34.816406 32.109375 35.332031 C 31.757812 35.839844 31.484375 36.546875 31.28125 37.46875 L 30.601562 40.570312 L 28.484375 40.570312 L 28.859375 38.880859 C 28.595919 39.325478 28.286742 39.707287 27.921875 40.015625 C 27.367188 40.472656 26.757812 40.707031 26.085938 40.707031 C 25.695312 40.707031 25.367188 40.625 25.085938 40.457031 C 24.804688 40.296875 24.546875 40.015625 24.304688 39.609375 L 24.25 39.609375 C 24.195312 40.328125 24.09375 40.980469 23.945312 41.59375 L 23.445312 43.875 L 21.335938 43.875 L 23.734375 33.066406 L 25.34375 33.066406 L 25.226562 34.203125 L 25.289062 34.203125 C 25.929688 33.347656 26.671875 32.921875 27.507812 32.921875 C 28.1875 32.921875 28.726562 33.164062 29.125 33.648438 C 29.433879 34.031447 29.620816 34.533955 29.6875 35.152344 L 30.804688 30.125 z M 26.664062 34.566406 C 26.34375 34.566406 26.03125 34.710938 25.734375 35.019531 C 25.4375 35.316406 25.203125 35.71875 25.023438 36.226562 C 24.84375 36.726562 24.757812 37.28125 24.757812 37.894531 C 24.757812 38.25 24.84375 38.539062 25.015625 38.757812 C 25.1875 38.964844 25.421875 39.078125 25.726562 39.078125 C 26.039062 39.078125 26.34375 38.917969 26.625 38.613281 C 26.914062 38.304688 27.140625 37.878906 27.3125 37.347656 C 27.492188 36.796875 27.578125 36.265625 27.578125 35.742188 C 27.578125 34.953125 27.273438 34.566406 26.664062 34.566406 z M 39.609375 34.566406 C 39.289062 34.566406 38.984375 34.710938 38.6875 35.019531 C 38.390625 35.316406 38.148438 35.71875 37.96875 36.226562 C 37.789062 36.726562 37.703125 37.28125 37.703125 37.894531 C 37.703125 38.25 37.789062 38.539062 37.960938 38.757812 C 38.132812 38.964844 38.375 39.078125 38.679688 39.078125 C 38.992188 39.078125 39.289062 38.917969 39.578125 38.613281 C 39.859375 38.304688 40.085938 37.878906 40.265625 37.347656 C 40.4375 36.796875 40.53125 36.265625 40.53125 35.742188 C 40.53125 34.953125 40.21875 34.566406 39.609375 34.566406 z "
       style="stroke:none;fill-rule:evenodd;fill:#000000;fill-opacity:1" />
  </g>
  <g
     id="surface1">
    <path
       style=" stroke:none;fill-rule:evenodd;fill:rgb(100%,100%,100%);fill-opacity:1;"
       d="M 32 26 C 23.164062 26 16 30.921875 16 37 C 16 43.078125 23.164062 48 32 48 C 40.835938 48 48 43.078125 48 37 C 48 30.921875 40.835938 26 32 26 z M 30.804688 30.125 L 32.914062 30.125 C 32.726562 30.933594 32.585938 31.550781 32.492188 31.988281 C 32.390625 32.421875 32.195312 33.117188 31.890625 34.066406 L 31.945312 34.066406 C 32.234375 33.71875 32.554688 33.445312 32.914062 33.238281 C 33.265625 33.027344 33.679688 32.921875 34.148438 32.921875 C 34.789062 32.921875 35.289062 33.117188 35.640625 33.488281 C 35.992188 33.855469 36.171875 34.390625 36.171875 35.089844 C 36.171875 35.208937 36.157336 35.349864 36.142578 35.490234 L 36.679688 33.066406 L 38.289062 33.066406 L 38.171875 34.203125 L 38.234375 34.203125 C 38.882812 33.347656 39.625 32.921875 40.460938 32.921875 C 41.140625 32.921875 41.679688 33.164062 42.070312 33.648438 C 42.46875 34.132812 42.664062 34.800781 42.664062 35.664062 C 42.664062 36.515625 42.507812 37.347656 42.179688 38.136719 C 41.867188 38.925781 41.429688 39.546875 40.875 40.015625 C 40.3125 40.472656 39.703125 40.707031 39.039062 40.707031 C 38.648438 40.707031 38.3125 40.625 38.03125 40.457031 C 37.75 40.296875 37.492188 40.015625 37.257812 39.609375 L 37.195312 39.609375 C 37.140625 40.328125 37.039062 40.980469 36.898438 41.59375 L 36.390625 43.875 L 34.28125 43.875 L 35.013672 40.570312 L 32.96875 40.570312 L 33.929688 36.1875 C 34 35.878906 34.039062 35.613281 34.039062 35.386719 C 34.039062 34.839844 33.789062 34.566406 33.28125 34.566406 C 32.851562 34.566406 32.460938 34.816406 32.109375 35.332031 C 31.757812 35.839844 31.484375 36.546875 31.28125 37.46875 L 30.601562 40.570312 L 28.484375 40.570312 L 28.859375 38.880859 C 28.595919 39.325478 28.286742 39.707287 27.921875 40.015625 C 27.367188 40.472656 26.757812 40.707031 26.085938 40.707031 C 25.695312 40.707031 25.367188 40.625 25.085938 40.457031 C 24.804688 40.296875 24.546875 40.015625 24.304688 39.609375 L 24.25 39.609375 C 24.195312 40.328125 24.09375 40.980469 23.945312 41.59375 L 23.445312 43.875 L 21.335938 43.875 L 23.734375 33.066406 L 25.34375 33.066406 L 25.226562 34.203125 L 25.289062 34.203125 C 25.929688 33.347656 26.671875 32.921875 27.507812 32.921875 C 28.1875 32.921875 28.726562 33.164062 29.125 33.648438 C 29.433879 34.031447 29.620816 34.533955 29.6875 35.152344 L 30.804688 30.125 z M 26.664062 34.566406 C 26.34375 34.566406 26.03125 34.710938 25.734375 35.019531 C 25.4375 35.316406 25.203125 35.71875 25.023438 36.226562 C 24.84375 36.726562 24.757812 37.28125 24.757812 37.894531 C 24.757812 38.25 24.84375 38.539062 25.015625 38.757812 C 25.1875 38.964844 25.421875 39.078125 25.726562 39.078125 C 26.039062 39.078125 26.34375 38.917969 26.625 38.613281 C 26.914062 38.304688 27.140625 37.878906 27.3125 37.347656 C 27.492188 36.796875 27.578125 36.265625 27.578125 35.742188 C 27.578125 34.953125 27.273438 34.566406 26.664062 34.566406 z M 39.609375 34.566406 C 39.289062 34.566406 38.984375 34.710938 38.6875 35.019531 C 38.390625 35.316406 38.148438 35.71875 37.96875 36.226562 C 37.789062 36.726562 37.703125 37.28125 37.703125 37.894531 C 37.703125 38.25 37.789062 38.539062 37.960938 38.757812 C 38.132812 38.964844 38.375 39.078125 38.679688 39.078125 C 38.992188 39.078125 39.289062 38.917969 39.578125 38.613281 C 39.859375 38.304688 40.085938 37.878906 40.265625 37.347656 C 40.4375 36.796875 40.53125 36.265625 40.53125 35.742188 C 40.53125 34.953125 40.21875 34.566406 39.609375 34.566406 z "
       id="path11" />
  </g>
</svg>
