<?xml version="1.0" encoding="UTF-8" standalone="no"?>
<svg
   xmlns:dc="http://purl.org/dc/elements/1.1/"
   xmlns:cc="http://creativecommons.org/ns#"
   xmlns:rdf="http://www.w3.org/1999/02/22-rdf-syntax-ns#"
   xmlns:svg="http://www.w3.org/2000/svg"
   xmlns="http://www.w3.org/2000/svg"
   xmlns:sodipodi="http://sodipodi.sourceforge.net/DTD/sodipodi-0.dtd"
   xmlns:inkscape="http://www.inkscape.org/namespaces/inkscape"
   width="64px"
   height="64px"
   viewBox="0 0 64 64"
   version="1.1"
   id="svg2"
   inkscape:version="0.91 r13725"
   sodipodi:docname="application-certificate.svg">
  <metadata
     id="metadata17">
    <rdf:RDF>
      <cc:Work
         rdf:about="">
        <dc:format>image/svg+xml</dc:format>
        <dc:type
           rdf:resource="http://purl.org/dc/dcmitype/StillImage" />
      </cc:Work>
    </rdf:RDF>
  </metadata>
  <defs
     id="defs15">
    <filter
       inkscape:collect="always"
       style="color-interpolation-filters:sRGB"
       id="filter4185"
       x="-0.096041702"
       width="1.1920834"
       y="-0.09595833"
       height="1.1919167">
      <feGaussianBlur
         inkscape:collect="always"
         stdDeviation="0.7196875"
         id="feGaussianBlur4187" />
    </filter>
    <filter
       inkscape:collect="always"
       style="color-interpolation-filters:sRGB"
       id="filter4186"
       x="-0.11551649"
       width="1.231033"
       y="-0.082124998"
       height="1.16425">
      <feGaussianBlur
         inkscape:collect="always"
         stdDeviation="1.0265625"
         id="feGaussianBlur4188" />
    </filter>
  </defs>
  <sodipodi:namedview
     pagecolor="#ffffff"
     bordercolor="#666666"
     borderopacity="1"
     objecttolerance="10"
     gridtolerance="10"
     guidetolerance="10"
     inkscape:pageopacity="0"
     inkscape:pageshadow="2"
     inkscape:window-width="1301"
     inkscape:window-height="744"
     id="namedview13"
     showgrid="false"
     inkscape:zoom="5.2149125"
     inkscape:cx="40.816582"
     inkscape:cy="24.295419"
     inkscape:window-x="65"
     inkscape:window-y="24"
     inkscape:window-maximized="1"
     inkscape:current-layer="svg2" />
  <g
     id="g3346">
    <g
       id="g4173"
       transform="translate(-0.71943709,0.22725036)">
      <path
         inkscape:connector-curvature="0"
         id="path5"
         d="M 10.671875,0 C 9.296875,0 8,1.355469 8,2.789062 L 8,61.210938 C 8,62.566406 9.375,64 10.671875,64 l 42.65625,0 C 54.625,64 56,62.566406 56,61.210938 L 56,18 38,0 Z m 0,0"
         style="fill:#cc681e;fill-opacity:1;fill-rule:nonzero;stroke:none" />
      <path
         style="opacity:0.35;fill:#000000;fill-opacity:1;fill-rule:nonzero;stroke:none;filter:url(#filter4185)"
         d="m 37.72725,1.2727492 0,15.2265618 c 0,1.347657 1.410156,2.773438 2.757812,2.773438 l 15.226563,0 -1,-1 -13.984375,0 c -1.108,0 -2,-0.892 -2,-2 l 0,-13.9999998 -1,-1 z"
         id="path4183"
         inkscape:connector-curvature="0" />
      <path
         inkscape:connector-curvature="0"
         id="path9"
         d="M 38,0 55.984375,18 40.757812,18 C 39.410156,18 38,16.574219 38,15.226562 Z m 0,0"
         style="fill:#e0a376;fill-opacity:1;fill-rule:nonzero;stroke:none" />
      <path
         style="opacity:0.5;fill:#ffffff;fill-opacity:1;fill-rule:nonzero;stroke:none"
         d="M 10.671875,2.0000001e-8 C 9.2968752,2.0000001e-8 8.0000002,1.3554695 8.0000002,2.7890625 l 0,1 C 8.0000002,2.3554695 9.2968752,1 10.671875,1 L 38,1 38,2e-8 l -27.328125,0 z"
         id="path4160"
         inkscape:connector-curvature="0" />
      <path
         style="opacity:0.15;fill:#000000;fill-opacity:1;fill-rule:nonzero;stroke:none"
         d="m 8.0000002,60.210938 0,1 c 0,1.355468 1.375,2.789062 2.6718748,2.789062 L 53.32812,64 C 54.62499,64 56,62.566406 56,61.210938 l 0,-1 C 56,61.566406 54.62499,63 53.32812,63 L 10.671875,63 C 9.3750002,63 8.0000002,61.566406 8.0000002,60.210938 Z"
         id="path4178"
         inkscape:connector-curvature="0" />
    </g>
    <g
       style="fill:#000000;filter:url(#filter4186);opacity:0.35"
       id="g4178">
      <path
         style="stroke:none;fill-rule:nonzero;fill:#000000;fill-opacity:1"
         d="M 32 20 C 30.914062 20 30 20.625 29.585938 21.503906 C 28.757812 20.933594 27.609375 20.832031 26.664062 21.351562 C 25.734375 21.855469 25.242188 22.84375 25.335938 23.796875 C 24.328125 23.707031 23.289062 24.179688 22.75 25.066406 C 22.210938 25.953125 22.320312 27.046875 22.914062 27.828125 C 21.984375 28.222656 21.335938 29.09375 21.335938 30.121094 C 21.335938 31.152344 21.984375 32.015625 22.914062 32.414062 C 22.320312 33.199219 22.210938 34.285156 22.75 35.179688 C 23.289062 36.066406 24.328125 36.53125 25.335938 36.441406 C 25.242188 37.402344 25.734375 38.382812 26.664062 38.894531 C 27.085938 39.125 27.546875 39.214844 28 39.214844 L 28 50 L 32 46.203125 L 36 50 L 36 39.214844 C 36.453125 39.214844 36.914062 39.125 37.335938 38.894531 C 38.265625 38.382812 38.757812 37.402344 38.664062 36.441406 C 39.671875 36.53125 40.710938 36.066406 41.25 35.179688 C 41.789062 34.285156 41.679688 33.199219 41.085938 32.414062 C 42.015625 32.015625 42.664062 31.152344 42.664062 30.121094 C 42.664062 29.09375 42.015625 28.222656 41.085938 27.828125 C 41.679688 27.046875 41.789062 25.953125 41.25 25.066406 C 40.710938 24.179688 39.671875 23.707031 38.664062 23.796875 C 38.757812 22.84375 38.265625 21.855469 37.335938 21.351562 C 36.390625 20.832031 35.242188 20.933594 34.414062 21.503906 C 34 20.625 33.085938 20 32 20 Z M 32 23.753906 C 35.679688 23.753906 38.664062 26.589844 38.664062 30.082031 C 38.664062 33.574219 35.679688 36.402344 32 36.402344 C 28.320312 36.402344 25.335938 33.574219 25.335938 30.082031 C 25.335938 26.589844 28.320312 23.753906 32 23.753906 Z M 32 25.023438 C 29.054688 25.023438 26.664062 27.285156 26.664062 30.082031 C 26.664062 32.871094 29.054688 35.140625 32 35.140625 C 34.945312 35.140625 37.335938 32.871094 37.335938 30.082031 C 37.335938 27.285156 34.945312 25.023438 32 25.023438 Z M 32 25.023438 "
         id="path4180" />
    </g>
    <g
       id="surface1">
      <path
         id="path11"
         d="M 32 20 C 30.914062 20 30 20.625 29.585938 21.503906 C 28.757812 20.933594 27.609375 20.832031 26.664062 21.351562 C 25.734375 21.855469 25.242188 22.84375 25.335938 23.796875 C 24.328125 23.707031 23.289062 24.179688 22.75 25.066406 C 22.210938 25.953125 22.320312 27.046875 22.914062 27.828125 C 21.984375 28.222656 21.335938 29.09375 21.335938 30.121094 C 21.335938 31.152344 21.984375 32.015625 22.914062 32.414062 C 22.320312 33.199219 22.210938 34.285156 22.75 35.179688 C 23.289062 36.066406 24.328125 36.53125 25.335938 36.441406 C 25.242188 37.402344 25.734375 38.382812 26.664062 38.894531 C 27.085938 39.125 27.546875 39.214844 28 39.214844 L 28 50 L 32 46.203125 L 36 50 L 36 39.214844 C 36.453125 39.214844 36.914062 39.125 37.335938 38.894531 C 38.265625 38.382812 38.757812 37.402344 38.664062 36.441406 C 39.671875 36.53125 40.710938 36.066406 41.25 35.179688 C 41.789062 34.285156 41.679688 33.199219 41.085938 32.414062 C 42.015625 32.015625 42.664062 31.152344 42.664062 30.121094 C 42.664062 29.09375 42.015625 28.222656 41.085938 27.828125 C 41.679688 27.046875 41.789062 25.953125 41.25 25.066406 C 40.710938 24.179688 39.671875 23.707031 38.664062 23.796875 C 38.757812 22.84375 38.265625 21.855469 37.335938 21.351562 C 36.390625 20.832031 35.242188 20.933594 34.414062 21.503906 C 34 20.625 33.085938 20 32 20 Z M 32 23.753906 C 35.679688 23.753906 38.664062 26.589844 38.664062 30.082031 C 38.664062 33.574219 35.679688 36.402344 32 36.402344 C 28.320312 36.402344 25.335938 33.574219 25.335938 30.082031 C 25.335938 26.589844 28.320312 23.753906 32 23.753906 Z M 32 25.023438 C 29.054688 25.023438 26.664062 27.285156 26.664062 30.082031 C 26.664062 32.871094 29.054688 35.140625 32 35.140625 C 34.945312 35.140625 37.335938 32.871094 37.335938 30.082031 C 37.335938 27.285156 34.945312 25.023438 32 25.023438 Z M 32 25.023438 "
         style=" stroke:none;fill-rule:nonzero;fill:rgb(100%,100%,100%);fill-opacity:1;" />
    </g>
  </g>
</svg>
