<?xml version="1.0" encoding="UTF-8" standalone="no"?>
<svg
   xmlns:dc="http://purl.org/dc/elements/1.1/"
   xmlns:cc="http://creativecommons.org/ns#"
   xmlns:rdf="http://www.w3.org/1999/02/22-rdf-syntax-ns#"
   xmlns:svg="http://www.w3.org/2000/svg"
   xmlns="http://www.w3.org/2000/svg"
   xmlns:sodipodi="http://sodipodi.sourceforge.net/DTD/sodipodi-0.dtd"
   xmlns:inkscape="http://www.inkscape.org/namespaces/inkscape"
   width="64px"
   height="64px"
   viewBox="0 0 64 64"
   version="1.1"
   id="svg2"
   inkscape:version="0.91 r13725"
   sodipodi:docname="application-x-ms-dos-executable.svg">
  <metadata
     id="metadata21">
    <rdf:RDF>
      <cc:Work
         rdf:about="">
        <dc:format>image/svg+xml</dc:format>
        <dc:type
           rdf:resource="http://purl.org/dc/dcmitype/StillImage" />
      </cc:Work>
    </rdf:RDF>
  </metadata>
  <defs
     id="defs19">
    <filter
       inkscape:collect="always"
       style="color-interpolation-filters:sRGB"
       id="filter4177"
       x="-0.096"
       width="1.192"
       y="-0.096"
       height="1.192">
      <feGaussianBlur
         inkscape:collect="always"
         stdDeviation="1.28"
         id="feGaussianBlur4179" />
    </filter>
  </defs>
  <sodipodi:namedview
     pagecolor="#ffffff"
     bordercolor="#666666"
     borderopacity="1"
     objecttolerance="10"
     gridtolerance="10"
     guidetolerance="10"
     inkscape:pageopacity="0"
     inkscape:pageshadow="2"
     inkscape:window-width="1301"
     inkscape:window-height="744"
     id="namedview17"
     showgrid="false"
     inkscape:zoom="7.375"
     inkscape:cx="51.600993"
     inkscape:cy="26.687798"
     inkscape:window-x="65"
     inkscape:window-y="24"
     inkscape:window-maximized="1"
     inkscape:current-layer="svg2" />
  <g
     id="g4162">
    <path
       style="fill:#eeeeee;fill-opacity:1;fill-rule:nonzero;stroke:#878787;stroke-width:2;stroke-miterlimit:4;stroke-dasharray:none;stroke-opacity:1"
       d="M 10.742188,8 C 9.375,8 8,9.375 8,10.742188 l 0,42.59375 C 8,54.625 9.375,56 10.664062,56 l 42.671876,0 C 54.625,56 56,54.625 56,53.335938 L 56,10.664062 C 56,9.375 54.625,8 53.335938,8 Z m 0,0"
       id="path5"
       inkscape:connector-curvature="0" />
    <path
       id="path4155"
       d="m 11.663228,9.0398514 c -1.307952,0 -2.6233766,1.3154246 -2.6233766,2.6233766 l 0,40.748285 c 0,1.233211 1.3154246,2.548635 2.5486356,2.548635 l 40.823026,0 c 1.233211,0 2.548635,-1.315424 2.548635,-2.548635 l 0,-40.823026 c 0,-1.233211 -1.315424,-2.5486356 -2.548635,-2.5486356 z m 0,0"
       style="fill:none;fill-opacity:1;fill-rule:nonzero;stroke:#ffffff;stroke-width:1.01095319;stroke-miterlimit:4;stroke-dasharray:none;stroke-opacity:1"
       inkscape:connector-curvature="0" />
  </g>
  <g
     id="g4167"
     style="fill:#000000;opacity:0.35;filter:url(#filter4177)">
    <path
       id="path4169"
       d="M 16 32 L 23.109375 24.890625 L 30.21875 32 L 23.109375 39.109375 Z M 16 32 "
       style="stroke:none;fill-rule:nonzero;fill:#000000;fill-opacity:1" />
    <path
       id="path4171"
       d="M 24.890625 23.109375 L 32 16 L 39.109375 23.109375 L 32 30.21875 Z M 24.890625 23.109375 "
       style="stroke:none;fill-rule:nonzero;fill:#000000;fill-opacity:1" />
    <path
       id="path4173"
       d="M 33.78125 32 L 40.890625 24.890625 L 48 32 L 40.890625 39.109375 Z M 33.78125 32 "
       style="stroke:none;fill-rule:nonzero;fill:#000000;fill-opacity:1" />
    <path
       id="path4175"
       d="M 24.890625 40.890625 L 32 33.78125 L 39.109375 40.890625 L 32 48 Z M 24.890625 40.890625 "
       style="stroke:none;fill-rule:nonzero;fill:#000000;fill-opacity:1" />
  </g>
  <g
     id="surface1">
    <path
       style=" stroke:none;fill-rule:nonzero;fill:rgb(53.333333%,53.333333%,53.333333%);fill-opacity:1;"
       d="M 16 32 L 23.109375 24.890625 L 30.21875 32 L 23.109375 39.109375 Z M 16 32 "
       id="path7" />
    <path
       style=" stroke:none;fill-rule:nonzero;fill:rgb(53.333333%,53.333333%,53.333333%);fill-opacity:1;"
       d="M 24.890625 23.109375 L 32 16 L 39.109375 23.109375 L 32 30.21875 Z M 24.890625 23.109375 "
       id="path9" />
    <path
       style=" stroke:none;fill-rule:nonzero;fill:rgb(53.333333%,53.333333%,53.333333%);fill-opacity:1;"
       d="M 33.78125 32 L 40.890625 24.890625 L 48 32 L 40.890625 39.109375 Z M 33.78125 32 "
       id="path11" />
    <path
       style=" stroke:none;fill-rule:nonzero;fill:rgb(53.333333%,53.333333%,53.333333%);fill-opacity:1;"
       d="M 24.890625 40.890625 L 32 33.78125 L 39.109375 40.890625 L 32 48 Z M 24.890625 40.890625 "
       id="path13" />
  </g>
</svg>
