<?xml version="1.0" encoding="UTF-8" standalone="no"?>
<svg
   xmlns:dc="http://purl.org/dc/elements/1.1/"
   xmlns:cc="http://creativecommons.org/ns#"
   xmlns:rdf="http://www.w3.org/1999/02/22-rdf-syntax-ns#"
   xmlns:svg="http://www.w3.org/2000/svg"
   xmlns="http://www.w3.org/2000/svg"
   xmlns:sodipodi="http://sodipodi.sourceforge.net/DTD/sodipodi-0.dtd"
   xmlns:inkscape="http://www.inkscape.org/namespaces/inkscape"
   width="64px"
   height="64px"
   viewBox="0 0 64 64"
   version="1.1"
   id="svg2"
   inkscape:version="0.91 r13725"
   sodipodi:docname="application-archive-zip.svg">
  <metadata
     id="metadata35">
    <rdf:RDF>
      <cc:Work
         rdf:about="">
        <dc:format>image/svg+xml</dc:format>
        <dc:type
           rdf:resource="http://purl.org/dc/dcmitype/StillImage" />
        <dc:title />
      </cc:Work>
    </rdf:RDF>
  </metadata>
  <defs
     id="defs33">
    <clipPath
       clipPathUnits="userSpaceOnUse"
       id="clipPath4278">
      <path
         sodipodi:nodetypes="ssssssccs"
         style="fill:#e1e1e1;fill-opacity:1;stroke:none"
         d="m 300,196 c -2.216,0 -4,1.784 -4,4 l 0,72 c 0,2.216 1.784,4 4,4 l 56,0 c 2.216,0 4,-1.784 4,-4 l 0,-52 -24,-24 z"
         id="path4280"
         inkscape:connector-curvature="0" />
    </clipPath>
    <filter
       inkscape:collect="always"
       id="filter4293"
       x="-0.1225"
       width="1.245"
       y="-0.1176"
       height="1.2352">
      <feGaussianBlur
         inkscape:collect="always"
         stdDeviation="1.225"
         id="feGaussianBlur4295" />
    </filter>
    <filter
       inkscape:collect="always"
       style="color-interpolation-filters:sRGB"
       id="filter4272"
       x="-0.50943935"
       width="2.0188787"
       y="-0.05299307"
       height="1.1059861">
      <feGaussianBlur
         inkscape:collect="always"
         stdDeviation="0.87784738"
         id="feGaussianBlur4274" />
    </filter>
    <filter
       inkscape:collect="always"
       style="color-interpolation-filters:sRGB"
       id="filter4207"
       x="-0.23482788"
       width="1.4696558"
       y="-0.16994778"
       height="1.3398956">
      <feGaussianBlur
         inkscape:collect="always"
         stdDeviation="0.78390624"
         id="feGaussianBlur4209" />
    </filter>
    <filter
       inkscape:collect="always"
       style="color-interpolation-filters:sRGB"
       id="filter4211"
       x="-0.24374089"
       width="1.4874818"
       y="-0.16994778"
       height="1.3398956">
      <feGaussianBlur
         inkscape:collect="always"
         stdDeviation="0.78390624"
         id="feGaussianBlur4213" />
    </filter>
    <filter
       inkscape:collect="always"
       style="color-interpolation-filters:sRGB"
       id="filter4215"
       x="-0.22913034"
       width="1.4582607"
       y="-0.16805025"
       height="1.3361005">
      <feGaussianBlur
         inkscape:collect="always"
         stdDeviation="0.78390624"
         id="feGaussianBlur4217" />
    </filter>
  </defs>
  <sodipodi:namedview
     pagecolor="#ffffff"
     bordercolor="#666666"
     borderopacity="1"
     objecttolerance="10"
     gridtolerance="10"
     guidetolerance="10"
     inkscape:pageopacity="0"
     inkscape:pageshadow="2"
     inkscape:window-width="1301"
     inkscape:window-height="744"
     id="namedview31"
     showgrid="true"
     inkscape:zoom="10.429825"
     inkscape:cx="13.7828"
     inkscape:cy="17.204213"
     inkscape:window-x="65"
     inkscape:window-y="24"
     inkscape:window-maximized="1"
     inkscape:current-layer="svg2">
    <inkscape:grid
       type="xygrid"
       id="grid4281" />
  </sodipodi:namedview>
  <g
     transform="translate(0,-0.03132897)"
     id="g4306">
    <g
       id="g4904"
       style="display:inline;enable-background:new"
       transform="matrix(0.4,0,0,0.4,-163.2,-43.2)">
      <path
         style="fill:#bf9451;fill-opacity:1;stroke:none"
         d="m 432,108 c -4.432,0 -8,3.568 -8,8 l 0,144 c 0,4.432 3.568,8 8,8 l 112,0 c 4.432,0 8,-3.568 8,-8 l 0,-104 -44,-4 -4,-44 z"
         id="rect3322"
         inkscape:connector-curvature="0"
         sodipodi:nodetypes="sssssscccs" />
      <path
         clip-path="url(#clipPath4278)"
         sodipodi:nodetypes="cssccc"
         inkscape:connector-curvature="0"
         style="opacity:0.2;fill:#000000;fill-opacity:1;stroke:none;filter:url(#filter4293)"
         d="m 336,196 0,21 c 0,2.20914 1.79086,4 4,4 l 20,0 0,-1 z"
         id="path4285"
         transform="matrix(2,0,0,2,-168.00009,-284)" />
      <path
         id="path4287"
         d="m 503.99991,108 0,40 c 0,4.41828 3.58172,8 8,8 l 40,0 -48,-48 z"
         style="fill:#f0d2a1;fill-opacity:1;stroke:none"
         inkscape:connector-curvature="0" />
      <path
         style="opacity:0.35;fill:#ffffff;fill-opacity:1;stroke:none"
         d="m 432,108 c -4.432,0 -8,3.568 -8,8 l 0,1 c 0,-4.432 3.568,-8 8,-8 l 72,0 0,-1 z"
         id="path4300"
         inkscape:connector-curvature="0"
         sodipodi:nodetypes="sscsccs" />
      <path
         inkscape:connector-curvature="0"
         id="path14320"
         d="m 424,259 0,1 c 0,4.432 3.568,8 8,8 l 112,0 c 4.432,0 8,-3.568 8,-8 l 0,-1 c 0,4.432 -3.568,8 -8,8 l -112,0 c -4.432,0 -8,-3.568 -8,-8 z"
         style="opacity:0.15;fill:#000000;fill-opacity:1;stroke:none" />
    </g>
    <g
       transform="translate(0,1.0847458)"
       style="opacity:0.35;fill:#000000;fill-opacity:1;filter:url(#filter4272)"
       id="g4234">
      <path
         style="fill:#000000;fill-opacity:1;fill-rule:evenodd;stroke:none"
         d="m 26,0 2.067797,0 0,2.0677966 -2.067797,0 z m 0,0"
         id="path4236"
         inkscape:connector-curvature="0" />
      <path
         style="fill:#000000;fill-opacity:1;fill-rule:evenodd;stroke:none"
         d="m 28.067797,2.0677966 2.067796,0 0,2.0677966 -2.067796,0 z m 0,0"
         id="path4238"
         inkscape:connector-curvature="0" />
      <path
         style="fill:#000000;fill-opacity:1;fill-rule:evenodd;stroke:none"
         d="m 26,4.1355932 2.067797,0 0,2.0677966 -2.067797,0 z m 0,0"
         id="path4240"
         inkscape:connector-curvature="0" />
      <path
         style="fill:#000000;fill-opacity:1;fill-rule:evenodd;stroke:none"
         d="m 28.067797,6.2033898 2.067796,0 0,2.0677966 -2.067796,0 z m 0,0"
         id="path4242"
         inkscape:connector-curvature="0" />
      <path
         style="fill:#000000;fill-opacity:1;fill-rule:evenodd;stroke:none"
         d="m 26,8.2711864 2.067797,0 0,2.0677966 -2.067797,0 z m 0,0"
         id="path4244"
         inkscape:connector-curvature="0" />
      <path
         style="fill:#000000;fill-opacity:1;fill-rule:evenodd;stroke:none"
         d="m 26,35.621183 4.135593,0 0,4.135593 -4.135593,0 z m 0,0"
         id="path4246"
         inkscape:connector-curvature="0" />
      <path
         inkscape:connector-curvature="0"
         id="path4248"
         d="m 28.067797,10.271186 2.067796,0 0,2.067797 -2.067796,0 z m 0,0"
         style="fill:#000000;fill-opacity:1;fill-rule:evenodd;stroke:none" />
      <path
         inkscape:connector-curvature="0"
         id="path4250"
         d="m 26,12.338983 2.067797,0 0,2.067797 -2.067797,0 z m 0,0"
         style="fill:#000000;fill-opacity:1;fill-rule:evenodd;stroke:none" />
      <path
         inkscape:connector-curvature="0"
         id="path4252"
         d="m 28.067797,14.40678 2.067796,0 0,2.067796 -2.067796,0 z m 0,0"
         style="fill:#000000;fill-opacity:1;fill-rule:evenodd;stroke:none" />
      <path
         inkscape:connector-curvature="0"
         id="path4254"
         d="m 26,16.474576 2.067797,0 0,2.067797 -2.067797,0 z m 0,0"
         style="fill:#000000;fill-opacity:1;fill-rule:evenodd;stroke:none" />
      <path
         style="fill:#000000;fill-opacity:1;fill-rule:evenodd;stroke:none"
         d="m 28.067797,18.576271 2.067796,0 0,2.067797 -2.067796,0 z m 0,0"
         id="path4256"
         inkscape:connector-curvature="0" />
      <path
         style="fill:#000000;fill-opacity:1;fill-rule:evenodd;stroke:none"
         d="m 26,20.644068 2.067797,0 0,2.067797 -2.067797,0 z m 0,0"
         id="path4258"
         inkscape:connector-curvature="0" />
      <path
         style="fill:#000000;fill-opacity:1;fill-rule:evenodd;stroke:none"
         d="m 28.067797,22.711865 2.067796,0 0,2.067796 -2.067796,0 z m 0,0"
         id="path4260"
         inkscape:connector-curvature="0" />
      <path
         style="fill:#000000;fill-opacity:1;fill-rule:evenodd;stroke:none"
         d="m 26,24.779661 2.067797,0 0,2.067797 -2.067797,0 z m 0,0"
         id="path4262"
         inkscape:connector-curvature="0" />
      <path
         inkscape:connector-curvature="0"
         id="path4264"
         d="m 28.067797,26.847457 2.067796,0 0,2.067797 -2.067796,0 z m 0,0"
         style="fill:#000000;fill-opacity:1;fill-rule:evenodd;stroke:none" />
      <path
         inkscape:connector-curvature="0"
         id="path4266"
         d="m 26,28.915254 2.067797,0 0,2.067797 -2.067797,0 z m 0,0"
         style="fill:#000000;fill-opacity:1;fill-rule:evenodd;stroke:none" />
      <path
         inkscape:connector-curvature="0"
         id="path4268"
         d="m 28.067797,30.983051 2.067796,0 0,2.067796 -2.067796,0 z m 0,0"
         style="fill:#000000;fill-opacity:1;fill-rule:evenodd;stroke:none" />
      <path
         inkscape:connector-curvature="0"
         id="path4270"
         d="m 26,33.050847 2.067797,0 0,2.067797 -2.067797,0 z m 0,0"
         style="fill:#000000;fill-opacity:1;fill-rule:evenodd;stroke:none" />
    </g>
    <g
       id="g4214">
      <path
         inkscape:connector-curvature="0"
         id="path11"
         d="m 26,0 2.067797,0 0,2.0677966 -2.067797,0 z m 0,0"
         style="fill:#f8f8f8;fill-opacity:1;fill-rule:evenodd;stroke:none" />
      <path
         inkscape:connector-curvature="0"
         id="path13-4"
         d="m 28.067797,2.0677966 2.067796,0 0,2.0677966 -2.067796,0 z m 0,0"
         style="fill:#f8f8f8;fill-opacity:1;fill-rule:evenodd;stroke:none" />
      <path
         inkscape:connector-curvature="0"
         id="path15"
         d="m 26,4.1355932 2.067797,0 0,2.0677966 -2.067797,0 z m 0,0"
         style="fill:#f8f8f8;fill-opacity:1;fill-rule:evenodd;stroke:none" />
      <path
         inkscape:connector-curvature="0"
         id="path17-9"
         d="m 28.067797,6.2033898 2.067796,0 0,2.0677966 -2.067796,0 z m 0,0"
         style="fill:#f8f8f8;fill-opacity:1;fill-rule:evenodd;stroke:none" />
      <path
         inkscape:connector-curvature="0"
         id="path19"
         d="m 26,8.2711864 2.067797,0 0,2.0677966 -2.067797,0 z m 0,0"
         style="fill:#f8f8f8;fill-opacity:1;fill-rule:evenodd;stroke:none" />
      <path
         inkscape:connector-curvature="0"
         id="path21-1"
         d="m 26,36.502539 4.135593,0 0,4.135593 -4.135593,0 z m 0,0"
         style="fill:#f8f8f8;fill-opacity:1;fill-rule:evenodd;stroke:none" />
      <path
         style="fill:#f8f8f8;fill-opacity:1;fill-rule:evenodd;stroke:none"
         d="m 28.067797,10.271186 2.067796,0 0,2.067797 -2.067796,0 z m 0,0"
         id="path4190"
         inkscape:connector-curvature="0" />
      <path
         style="fill:#f8f8f8;fill-opacity:1;fill-rule:evenodd;stroke:none"
         d="m 26,12.338983 2.067797,0 0,2.067797 -2.067797,0 z m 0,0"
         id="path4192"
         inkscape:connector-curvature="0" />
      <path
         style="fill:#f8f8f8;fill-opacity:1;fill-rule:evenodd;stroke:none"
         d="m 28.067797,14.40678 2.067796,0 0,2.067796 -2.067796,0 z m 0,0"
         id="path4194"
         inkscape:connector-curvature="0" />
      <path
         style="fill:#f8f8f8;fill-opacity:1;fill-rule:evenodd;stroke:none"
         d="m 26,16.474576 2.067797,0 0,2.067797 -2.067797,0 z m 0,0"
         id="path4196"
         inkscape:connector-curvature="0" />
      <path
         inkscape:connector-curvature="0"
         id="path4198"
         d="m 28.067797,18.576271 2.067796,0 0,2.067797 -2.067796,0 z m 0,0"
         style="fill:#f8f8f8;fill-opacity:1;fill-rule:evenodd;stroke:none" />
      <path
         inkscape:connector-curvature="0"
         id="path4200"
         d="m 26,20.644068 2.067797,0 0,2.067797 -2.067797,0 z m 0,0"
         style="fill:#f8f8f8;fill-opacity:1;fill-rule:evenodd;stroke:none" />
      <path
         inkscape:connector-curvature="0"
         id="path4202"
         d="m 28.067797,22.711865 2.067796,0 0,2.067796 -2.067796,0 z m 0,0"
         style="fill:#f8f8f8;fill-opacity:1;fill-rule:evenodd;stroke:none" />
      <path
         inkscape:connector-curvature="0"
         id="path4204"
         d="m 26,24.779661 2.067797,0 0,2.067797 -2.067797,0 z m 0,0"
         style="fill:#f8f8f8;fill-opacity:1;fill-rule:evenodd;stroke:none" />
      <path
         style="fill:#f8f8f8;fill-opacity:1;fill-rule:evenodd;stroke:none"
         d="m 28.067797,26.847457 2.067796,0 0,2.067797 -2.067796,0 z m 0,0"
         id="path4206"
         inkscape:connector-curvature="0" />
      <path
         style="fill:#f8f8f8;fill-opacity:1;fill-rule:evenodd;stroke:none"
         d="m 26,28.915254 2.067797,0 0,2.067797 -2.067797,0 z m 0,0"
         id="path4208"
         inkscape:connector-curvature="0" />
      <path
         style="fill:#f8f8f8;fill-opacity:1;fill-rule:evenodd;stroke:none"
         d="m 28.067797,30.983051 2.067796,0 0,2.067796 -2.067796,0 z m 0,0"
         id="path4210"
         inkscape:connector-curvature="0" />
      <path
         style="fill:#f8f8f8;fill-opacity:1;fill-rule:evenodd;stroke:none"
         d="m 26,33.050847 2.067797,0 0,2.067797 -2.067797,0 z m 0,0"
         id="path4212"
         inkscape:connector-curvature="0" />
    </g>
  </g>
  <g
     id="surface1"
     transform="matrix(1.0559294,0,0,1.0559294,-1.6938603,-3.9949536)">
    <path
       style="fill:#000000;fill-opacity:0.19607801;fill-rule:nonzero;stroke:none"
       d="m 7.6821984,48 0,13.335938 C 7.6821984,62.632812 9.0699804,64 10.371026,64 l 43.068558,0 c 1.301045,0 2.688827,-1.367188 2.688827,-2.664062 l 0,-13.335938 z m 0,0"
       id="path9"
       inkscape:connector-curvature="0" />
    <g
       id="g4219">
      <path
         style="fill:#000000;fill-opacity:1;fill-rule:nonzero;stroke:none;filter:url(#filter4207);opacity:0.35"
         d="m 25.832031,52.46875 c -0.558593,0.78125 -1.074219,1.527344 -1.550781,2.214844 -0.464844,0.691406 -0.910156,1.355468 -1.3125,1.984375 -0.410156,0.625 -0.792969,1.222656 -1.15625,1.804687 -0.351562,0.574219 -0.695312,1.140625 -1.023438,1.707032 l 5.222657,0 0,1.820312 L 18,62 18,60.730469 c 0.285156,-0.511719 0.597656,-1.050781 0.925781,-1.609375 0.328125,-0.574219 0.691407,-1.179688 1.101563,-1.828125 0.398437,-0.640625 0.84375,-1.335938 1.3125,-2.09375 0.480468,-0.746094 1.015625,-1.566407 1.589844,-2.449219 l -4.675782,0 0,-1.820312 7.578125,0 0,1.539062"
         id="path4189"
         inkscape:connector-curvature="0" />
      <path
         style="fill:#000000;fill-opacity:1;fill-rule:nonzero;stroke:none;filter:url(#filter4211);opacity:0.35"
         d="m 27.972656,62 0,-1.820312 2.648438,0 0,-7.429688 -2.648438,0 0,-1.820312 7.71875,0 0,1.820312 -2.632812,0 0,7.429688 2.632812,0 0,1.820312 -7.71875,0"
         id="path4191"
         inkscape:connector-curvature="0" />
      <path
         style="fill:#000000;fill-opacity:1;fill-rule:nonzero;stroke:none;filter:url(#filter4215);opacity:0.35"
         d="m 41.128906,50.804688 c 1.542969,0 2.738282,0.289062 3.589844,0.878906 C 45.574219,52.25 46,53.191406 46,54.503906 c 0,1.328125 -0.433594,2.289063 -1.296875,2.878906 -0.851563,0.589844 -2.066406,0.878907 -3.632813,0.878907 l -0.859374,0 0,3.738281 -2.421876,0 0,-10.933594 c 0.238282,-0.03906 0.5,-0.08984 0.789063,-0.121094 0.304687,-0.03516 0.597656,-0.05859 0.902344,-0.07422 0.304687,-0.02344 0.597656,-0.04297 0.886719,-0.05078 0.285156,-0.01562 0.539062,-0.01562 0.761718,-0.01562 m 0.277344,1.910156 c -0.148438,0 -0.351562,0.0078 -0.613281,0.01563 -0.246094,0 -0.445313,0.01953 -0.582031,0.04297 l 0,3.574218 0.976562,0 c 0.769531,0 1.351562,-0.136718 1.746094,-0.410156 0.394531,-0.285156 0.589844,-0.769531 0.589844,-1.449219 0,-0.648437 -0.195313,-1.101562 -0.589844,-1.363281 -0.378906,-0.269531 -0.886719,-0.410156 -1.527344,-0.410156"
         id="path4193"
         inkscape:connector-curvature="0" />
    </g>
    <path
       style="fill:#ffffff;fill-opacity:1;fill-rule:nonzero;stroke:none"
       d="m 25.832031,52.46875 c -0.558593,0.78125 -1.074219,1.527344 -1.550781,2.214844 -0.464844,0.691406 -0.910156,1.355468 -1.3125,1.984375 -0.410156,0.625 -0.792969,1.222656 -1.15625,1.804687 -0.351562,0.574219 -0.695312,1.140625 -1.023438,1.707032 l 5.222657,0 0,1.820312 L 18,62 18,60.730469 c 0.285156,-0.511719 0.597656,-1.050781 0.925781,-1.609375 0.328125,-0.574219 0.691407,-1.179688 1.101563,-1.828125 0.398437,-0.640625 0.84375,-1.335938 1.3125,-2.09375 0.480468,-0.746094 1.015625,-1.566407 1.589844,-2.449219 l -4.675782,0 0,-1.820312 7.578125,0 0,1.539062"
       id="path13"
       inkscape:connector-curvature="0" />
    <path
       style="fill:#ffffff;fill-opacity:1;fill-rule:nonzero;stroke:none"
       d="m 27.972656,62 0,-1.820312 2.648438,0 0,-7.429688 -2.648438,0 0,-1.820312 7.71875,0 0,1.820312 -2.632812,0 0,7.429688 2.632812,0 0,1.820312 -7.71875,0"
       id="path17"
       inkscape:connector-curvature="0" />
    <path
       style="fill:#ffffff;fill-opacity:1;fill-rule:nonzero;stroke:none"
       d="m 41.128906,50.804688 c 1.542969,0 2.738282,0.289062 3.589844,0.878906 C 45.574219,52.25 46,53.191406 46,54.503906 c 0,1.328125 -0.433594,2.289063 -1.296875,2.878906 -0.851563,0.589844 -2.066406,0.878907 -3.632813,0.878907 l -0.859374,0 0,3.738281 -2.421876,0 0,-10.933594 c 0.238282,-0.03906 0.5,-0.08984 0.789063,-0.121094 0.304687,-0.03516 0.597656,-0.05859 0.902344,-0.07422 0.304687,-0.02344 0.597656,-0.04297 0.886719,-0.05078 0.285156,-0.01562 0.539062,-0.01562 0.761718,-0.01562 m 0.277344,1.910156 c -0.148438,0 -0.351562,0.0078 -0.613281,0.01563 -0.246094,0 -0.445313,0.01953 -0.582031,0.04297 l 0,3.574218 0.976562,0 c 0.769531,0 1.351562,-0.136718 1.746094,-0.410156 0.394531,-0.285156 0.589844,-0.769531 0.589844,-1.449219 0,-0.648437 -0.195313,-1.101562 -0.589844,-1.363281 -0.378906,-0.269531 -0.886719,-0.410156 -1.527344,-0.410156"
       id="path21"
       inkscape:connector-curvature="0" />
  </g>
</svg>
