<?xml version="1.0" encoding="UTF-8" standalone="no"?>
<svg
   xmlns:dc="http://purl.org/dc/elements/1.1/"
   xmlns:cc="http://creativecommons.org/ns#"
   xmlns:rdf="http://www.w3.org/1999/02/22-rdf-syntax-ns#"
   xmlns:svg="http://www.w3.org/2000/svg"
   xmlns="http://www.w3.org/2000/svg"
   xmlns:sodipodi="http://sodipodi.sourceforge.net/DTD/sodipodi-0.dtd"
   xmlns:inkscape="http://www.inkscape.org/namespaces/inkscape"
   width="64px"
   height="64px"
   viewBox="0 0 64 64"
   version="1.1"
   id="svg2"
   inkscape:version="0.91 r13725"
   sodipodi:docname="application-vnd.oasis.opendocument.text-web.svg">
  <metadata
     id="metadata37">
    <rdf:RDF>
      <cc:Work
         rdf:about="">
        <dc:format>image/svg+xml</dc:format>
        <dc:type
           rdf:resource="http://purl.org/dc/dcmitype/StillImage" />
      </cc:Work>
    </rdf:RDF>
  </metadata>
  <defs
     id="defs35">
    <filter
       inkscape:collect="always"
       style="color-interpolation-filters:sRGB"
       id="filter4185-96"
       x="-0.096041702"
       width="1.1920834"
       y="-0.09595833"
       height="1.1919167">
      <feGaussianBlur
         inkscape:collect="always"
         stdDeviation="0.7196875"
         id="feGaussianBlur4187-26" />
    </filter>
    <filter
       inkscape:collect="always"
       style="color-interpolation-filters:sRGB"
       id="filter4240"
       x="-0.11487507"
       width="1.2297501"
       y="-0.0824523"
       height="1.1649046">
      <feGaussianBlur
         inkscape:collect="always"
         stdDeviation="1.3589062"
         id="feGaussianBlur4242" />
    </filter>
  </defs>
  <sodipodi:namedview
     pagecolor="#ffffff"
     bordercolor="#666666"
     borderopacity="1"
     objecttolerance="10"
     gridtolerance="10"
     guidetolerance="10"
     inkscape:pageopacity="0"
     inkscape:pageshadow="2"
     inkscape:window-width="1301"
     inkscape:window-height="744"
     id="namedview33"
     showgrid="false"
     inkscape:zoom="7.375"
     inkscape:cx="57.062523"
     inkscape:cy="30.552464"
     inkscape:window-x="65"
     inkscape:window-y="24"
     inkscape:window-maximized="1"
     inkscape:current-layer="svg2" />
  <g
     id="g3367">
    <g
       id="g4096"
       transform="translate(-9.7272496,-341)">
      <g
         id="g4098">
        <g
           id="g4100"
           transform="translate(9.015625,341)">
          <path
             inkscape:connector-curvature="0"
             id="path4102"
             d="M 10.671875,0 C 9.296875,0 8,1.355469 8,2.789062 L 8,61.210938 C 8,62.566406 9.375,64 10.671875,64 l 42.65625,0 C 54.625,64 56,62.566406 56,61.210938 L 56,18 38,0 Z m 0,0"
             style="fill:#6e99c2;fill-opacity:1;fill-rule:nonzero;stroke:none" />
          <path
             transform="matrix(1,0,0,0.95722054,0,0.82447778)"
             style="opacity:0.35;fill:#000000;fill-opacity:1;fill-rule:nonzero;stroke:none;filter:url(#filter4185-96)"
             d="m 37.72725,1.2727492 0,15.2265618 c 0,1.347657 1.410156,2.773438 2.757812,2.773438 l 15.226563,0 -1,-1 -13.984375,0 c -1.108,0 -2,-0.892 -2,-2 l 0,-13.9999998 -1,-1 z"
             id="path4104"
             inkscape:connector-curvature="0" />
          <path
             inkscape:connector-curvature="0"
             id="path4106"
             d="M 38,0 55.984375,18 40.757812,18 C 39.410156,18 38,16.574219 38,15.226562 Z m 0,0"
             style="fill:#a7c1da;fill-opacity:1;fill-rule:nonzero;stroke:none" />
          <path
             style="opacity:0.5;fill:#ffffff;fill-opacity:1;fill-rule:nonzero;stroke:none"
             d="M 10.671875,2.0000001e-8 C 9.2968752,2.0000001e-8 8.0000002,1.3554695 8.0000002,2.7890625 l 0,1 C 8.0000002,2.3554695 9.2968752,1 10.671875,1 L 38,1 38,2e-8 l -27.328125,0 z"
             id="path4108"
             inkscape:connector-curvature="0" />
          <path
             style="opacity:0.15;fill:#000000;fill-opacity:1;fill-rule:nonzero;stroke:none"
             d="m 8.0000002,60.210938 0,1 c 0,1.355468 1.375,2.789062 2.6718748,2.789062 L 53.32812,64 C 54.62499,64 56,62.566406 56,61.210938 l 0,-1 C 56,61.566406 54.62499,63 53.32812,63 L 10.671875,63 C 9.3750002,63 8.0000002,61.566406 8.0000002,60.210938 Z"
             id="path4110"
             inkscape:connector-curvature="0" />
        </g>
        <path
           id="path4112"
           d="m 17,389 0,13.33594 C 17,403.63281 18.375,405 19.664062,405 l 42.671876,0 C 63.625,405 65,403.63281 65,402.33594 L 65,389 Z m 0,0"
           style="fill:#000000;fill-opacity:0.19607801;fill-rule:nonzero;stroke:none"
           inkscape:connector-curvature="0" />
      </g>
    </g>
    <g
       style="fill:#000000;opacity:0.35;filter:url(#filter4240)"
       id="g4214">
      <path
         style="stroke:none;fill-rule:nonzero;fill:#000000;fill-opacity:1"
         d="M 22 28 L 22 30 L 42 30 L 42 28 Z M 22 28 "
         id="path4216" />
      <path
         style="stroke:none;fill-rule:nonzero;fill:#000000;fill-opacity:1"
         d="M 21.109375 32.671875 L 21.109375 34.898438 L 43.320312 34.898438 L 43.320312 32.671875 Z M 21.109375 32.671875 "
         id="path4218" />
      <path
         style="stroke:none;fill-rule:nonzero;fill:#000000;fill-opacity:1"
         d="M 22 38 L 22 40 L 42 40 L 42 38 Z M 22 38 "
         id="path4220" />
      <path
         style="stroke:none;fill-rule:nonzero;fill:#000000;fill-opacity:1"
         d="M 31.34375 22.679688 L 31.34375 44.890625 L 33.089844 44.890625 L 33.089844 22.679688 Z M 31.34375 22.679688 "
         id="path4222" />
      <path
         style="fill:#000000;stroke-width:2;stroke-linecap:butt;stroke-linejoin:miter;stroke:rgb(100%, 100%, 100%);stroke-opacity:1;stroke-miterlimit:4"
         d="M 20.440081 33.003461 C 18.442639 27.000275 18.442639 21.000606 20.440081 14.99742 "
         transform="matrix(1.110795,0,0,1.110738,5.55697,7.126947)"
         id="path4224" />
      <path
         style="fill:#000000;stroke-width:2;stroke-linecap:butt;stroke-linejoin:miter;stroke:rgb(100%, 100%, 100%);stroke-opacity:1;stroke-miterlimit:4"
         d="M 27.466297 33.003461 C 29.470772 28.002564 29.470772 21.000606 27.466297 14.99742 "
         transform="matrix(1.110795,0,0,1.110738,5.55697,7.126947)"
         id="path4226" />
      <path
         style="fill:#000000;stroke-width:1.821;stroke-linecap:round;stroke-linejoin:miter;stroke:#000000;stroke-opacity:1;stroke-miterlimit:4"
         d="M 33.054316 27.317611 C 33.054316 32.344297 28.978747 36.420076 23.952319 36.420076 C 18.925891 36.420076 14.850322 32.344297 14.850322 27.317611 C 14.850322 22.290924 18.925891 18.215146 23.952319 18.215146 C 28.978747 18.215146 33.054316 22.290924 33.054316 27.317611 Z M 33.054316 27.317611 "
         transform="matrix(1.220113,0,0,1.220051,2.990299,0.456286)"
         id="path4228" />
      <path
         style="stroke:none;fill-rule:nonzero;fill:#000000;fill-opacity:1"
         d="M 20.105469 56.554688 C 20.105469 57.085938 20.128906 57.585938 20.164062 58.050781 C 20.222656 58.507812 20.3125 58.90625 20.445312 59.246094 C 20.585938 59.589844 20.785156 59.855469 21.035156 60.054688 C 21.292969 60.253906 21.625 60.351562 22.050781 60.351562 C 22.464844 60.351562 22.796875 60.253906 23.046875 60.054688 C 23.3125 59.855469 23.515625 59.589844 23.648438 59.246094 C 23.789062 58.890625 23.878906 58.492188 23.921875 58.035156 C 23.972656 57.574219 24.003906 57.085938 24.003906 56.554688 C 24.003906 56.027344 23.972656 55.539062 23.921875 55.082031 C 23.878906 54.605469 23.789062 54.207031 23.648438 53.867188 C 23.515625 53.527344 23.324219 53.261719 23.066406 53.058594 C 22.816406 52.859375 22.472656 52.761719 22.050781 52.761719 C 21.625 52.761719 21.292969 52.859375 21.035156 53.058594 C 20.785156 53.261719 20.585938 53.535156 20.445312 53.882812 C 20.3125 54.222656 20.222656 54.625 20.164062 55.082031 C 20.128906 55.539062 20.105469 56.027344 20.105469 56.554688 M 17.617188 56.554688 C 17.617188 54.683594 18.007812 53.269531 18.789062 52.320312 C 19.570312 51.355469 20.660156 50.882812 22.050781 50.882812 C 23.496094 50.882812 24.59375 51.355469 25.351562 52.320312 C 26.109375 53.269531 26.484375 54.683594 26.484375 56.554688 C 26.484375 58.433594 26.101562 59.847656 25.335938 60.8125 C 24.5625 61.757812 23.480469 62.234375 22.074219 62.234375 C 20.628906 62.234375 19.523438 61.757812 18.757812 60.8125 C 18 59.847656 17.617188 58.433594 17.617188 56.554688 "
         id="path4230" />
      <path
         style="stroke:none;fill-rule:nonzero;fill:#000000;fill-opacity:1"
         d="M 36.460938 51.121094 L 36.460938 52.917969 L 33.226562 52.917969 L 33.226562 62 L 30.757812 62 L 30.757812 52.917969 L 27.523438 52.917969 L 27.523438 51.121094 L 36.460938 51.121094 "
         id="path4232" />
      <path
         style="stroke:none;fill-rule:nonzero;fill:#000000;fill-opacity:1"
         d="M 46.007812 51.121094 L 46.007812 62 L 43.5625 62 L 43.5625 57.210938 L 40.304688 57.210938 L 40.304688 62 L 37.859375 62 L 37.859375 51.121094 L 40.304688 51.121094 L 40.304688 55.414062 L 43.5625 55.414062 L 43.5625 51.121094 L 46.007812 51.121094 "
         id="path4234" />
    </g>
    <g
       id="surface1">
      <path
         id="path11"
         d="M 22 28 L 22 30 L 42 30 L 42 28 Z M 22 28 "
         style=" stroke:none;fill-rule:nonzero;fill:rgb(100%,100%,100%);fill-opacity:1;" />
      <path
         id="path13"
         d="M 21.109375 32.671875 L 21.109375 34.898438 L 43.320312 34.898438 L 43.320312 32.671875 Z M 21.109375 32.671875 "
         style=" stroke:none;fill-rule:nonzero;fill:rgb(100%,100%,100%);fill-opacity:1;" />
      <path
         id="path15"
         d="M 22 38 L 22 40 L 42 40 L 42 38 Z M 22 38 "
         style=" stroke:none;fill-rule:nonzero;fill:rgb(100%,100%,100%);fill-opacity:1;" />
      <path
         id="path17"
         d="M 31.34375 22.679688 L 31.34375 44.890625 L 33.089844 44.890625 L 33.089844 22.679688 Z M 31.34375 22.679688 "
         style=" stroke:none;fill-rule:nonzero;fill:rgb(100%,100%,100%);fill-opacity:1;" />
      <path
         id="path19"
         transform="matrix(1.110795,0,0,1.110738,5.55697,7.126947)"
         d="M 20.440081 33.003461 C 18.442639 27.000275 18.442639 21.000606 20.440081 14.99742 "
         style="fill:none;stroke-width:2;stroke-linecap:butt;stroke-linejoin:miter;stroke:rgb(100%,100%,100%);stroke-opacity:1;stroke-miterlimit:4;" />
      <path
         id="path21"
         transform="matrix(1.110795,0,0,1.110738,5.55697,7.126947)"
         d="M 27.466297 33.003461 C 29.470772 28.002564 29.470772 21.000606 27.466297 14.99742 "
         style="fill:none;stroke-width:2;stroke-linecap:butt;stroke-linejoin:miter;stroke:rgb(100%,100%,100%);stroke-opacity:1;stroke-miterlimit:4;" />
      <path
         id="path23"
         transform="matrix(1.220113,0,0,1.220051,2.990299,0.456286)"
         d="M 33.054316 27.317611 C 33.054316 32.344297 28.978747 36.420076 23.952319 36.420076 C 18.925891 36.420076 14.850322 32.344297 14.850322 27.317611 C 14.850322 22.290924 18.925891 18.215146 23.952319 18.215146 C 28.978747 18.215146 33.054316 22.290924 33.054316 27.317611 Z M 33.054316 27.317611 "
         style="fill:none;stroke-width:1.821;stroke-linecap:round;stroke-linejoin:miter;stroke:rgb(100%,100%,100%);stroke-opacity:1;stroke-miterlimit:4;" />
      <path
         id="path27"
         d="M 20.105469 56.554688 C 20.105469 57.085938 20.128906 57.585938 20.164062 58.050781 C 20.222656 58.507812 20.3125 58.90625 20.445312 59.246094 C 20.585938 59.589844 20.785156 59.855469 21.035156 60.054688 C 21.292969 60.253906 21.625 60.351562 22.050781 60.351562 C 22.464844 60.351562 22.796875 60.253906 23.046875 60.054688 C 23.3125 59.855469 23.515625 59.589844 23.648438 59.246094 C 23.789062 58.890625 23.878906 58.492188 23.921875 58.035156 C 23.972656 57.574219 24.003906 57.085938 24.003906 56.554688 C 24.003906 56.027344 23.972656 55.539062 23.921875 55.082031 C 23.878906 54.605469 23.789062 54.207031 23.648438 53.867188 C 23.515625 53.527344 23.324219 53.261719 23.066406 53.058594 C 22.816406 52.859375 22.472656 52.761719 22.050781 52.761719 C 21.625 52.761719 21.292969 52.859375 21.035156 53.058594 C 20.785156 53.261719 20.585938 53.535156 20.445312 53.882812 C 20.3125 54.222656 20.222656 54.625 20.164062 55.082031 C 20.128906 55.539062 20.105469 56.027344 20.105469 56.554688 M 17.617188 56.554688 C 17.617188 54.683594 18.007812 53.269531 18.789062 52.320312 C 19.570312 51.355469 20.660156 50.882812 22.050781 50.882812 C 23.496094 50.882812 24.59375 51.355469 25.351562 52.320312 C 26.109375 53.269531 26.484375 54.683594 26.484375 56.554688 C 26.484375 58.433594 26.101562 59.847656 25.335938 60.8125 C 24.5625 61.757812 23.480469 62.234375 22.074219 62.234375 C 20.628906 62.234375 19.523438 61.757812 18.757812 60.8125 C 18 59.847656 17.617188 58.433594 17.617188 56.554688 "
         style=" stroke:none;fill-rule:nonzero;fill:rgb(100%,100%,100%);fill-opacity:1;" />
      <path
         id="path29"
         d="M 36.460938 51.121094 L 36.460938 52.917969 L 33.226562 52.917969 L 33.226562 62 L 30.757812 62 L 30.757812 52.917969 L 27.523438 52.917969 L 27.523438 51.121094 L 36.460938 51.121094 "
         style=" stroke:none;fill-rule:nonzero;fill:rgb(100%,100%,100%);fill-opacity:1;" />
      <path
         id="path31"
         d="M 46.007812 51.121094 L 46.007812 62 L 43.5625 62 L 43.5625 57.210938 L 40.304688 57.210938 L 40.304688 62 L 37.859375 62 L 37.859375 51.121094 L 40.304688 51.121094 L 40.304688 55.414062 L 43.5625 55.414062 L 43.5625 51.121094 L 46.007812 51.121094 "
         style=" stroke:none;fill-rule:nonzero;fill:rgb(100%,100%,100%);fill-opacity:1;" />
    </g>
  </g>
</svg>
