<?xml version="1.0" encoding="UTF-8" standalone="no"?>
<svg
   xmlns:dc="http://purl.org/dc/elements/1.1/"
   xmlns:cc="http://creativecommons.org/ns#"
   xmlns:rdf="http://www.w3.org/1999/02/22-rdf-syntax-ns#"
   xmlns:svg="http://www.w3.org/2000/svg"
   xmlns="http://www.w3.org/2000/svg"
   xmlns:sodipodi="http://sodipodi.sourceforge.net/DTD/sodipodi-0.dtd"
   xmlns:inkscape="http://www.inkscape.org/namespaces/inkscape"
   width="64px"
   height="64px"
   viewBox="0 0 64 64"
   version="1.1"
   id="svg2"
   inkscape:version="0.91 r13725"
   sodipodi:docname="application-vnd.oasis.opendocument.presentation.svg">
  <metadata
     id="metadata31">
    <rdf:RDF>
      <cc:Work
         rdf:about="">
        <dc:format>image/svg+xml</dc:format>
        <dc:type
           rdf:resource="http://purl.org/dc/dcmitype/StillImage" />
      </cc:Work>
    </rdf:RDF>
  </metadata>
  <defs
     id="defs29">
    <filter
       inkscape:collect="always"
       style="color-interpolation-filters:sRGB"
       id="filter4185-75"
       x="-0.096041702"
       width="1.1920834"
       y="-0.09595833"
       height="1.1919167">
      <feGaussianBlur
         inkscape:collect="always"
         stdDeviation="0.7196875"
         id="feGaussianBlur4187-85" />
    </filter>
    <filter
       inkscape:collect="always"
       style="color-interpolation-filters:sRGB"
       id="filter4199"
       x="-0.10802344"
       width="1.2160469"
       y="-0.086385006"
       height="1.17277">
      <feGaussianBlur
         inkscape:collect="always"
         stdDeviation="1.4403125"
         id="feGaussianBlur4201" />
    </filter>
  </defs>
  <sodipodi:namedview
     pagecolor="#ffffff"
     bordercolor="#666666"
     borderopacity="1"
     objecttolerance="10"
     gridtolerance="10"
     guidetolerance="10"
     inkscape:pageopacity="0"
     inkscape:pageshadow="2"
     inkscape:window-width="1301"
     inkscape:window-height="744"
     id="namedview27"
     showgrid="false"
     inkscape:zoom="3.6875"
     inkscape:cx="32"
     inkscape:cy="32"
     inkscape:window-x="65"
     inkscape:window-y="24"
     inkscape:window-maximized="1"
     inkscape:current-layer="svg2" />
  <g
     id="g3360">
    <g
       transform="translate(-332.69401,-253.98082)"
       id="g6522">
      <g
         transform="translate(332,253.98082)"
         id="g6524">
        <path
           style="fill:#cf4523;fill-opacity:1;fill-rule:nonzero;stroke:none"
           d="M 10.671875,0 C 9.296875,0 8,1.355469 8,2.789062 L 8,61.210938 C 8,62.566406 9.375,64 10.671875,64 l 42.65625,0 C 54.625,64 56,62.566406 56,61.210938 L 56,18 38,0 Z m 0,0"
           id="path6526"
           inkscape:connector-curvature="0" />
        <path
           inkscape:connector-curvature="0"
           id="path6528"
           d="m 37.72725,1.2727492 0,15.2265618 c 0,1.347657 1.410156,2.773438 2.757812,2.773438 l 15.226563,0 -1,-1 -13.984375,0 c -1.108,0 -2,-0.892 -2,-2 l 0,-13.9999998 -1,-1 z"
           style="opacity:0.35;fill:#000000;fill-opacity:1;fill-rule:nonzero;stroke:none;filter:url(#filter4185-75)"
           transform="matrix(1,0,0,0.96709914,0,0.63408999)" />
        <path
           style="fill:#e28e79;fill-opacity:1;fill-rule:nonzero;stroke:none"
           d="M 38,0 55.984375,18 40.757812,18 C 39.410156,18 38,16.574219 38,15.226562 Z m 0,0"
           id="path6530"
           inkscape:connector-curvature="0" />
        <path
           inkscape:connector-curvature="0"
           id="path6532"
           d="M 10.671875,2.0000001e-8 C 9.2968752,2.0000001e-8 8.0000002,1.3554695 8.0000002,2.7890625 l 0,1 C 8.0000002,2.3554695 9.2968752,1 10.671875,1 L 38,1 38,2e-8 l -27.328125,0 z"
           style="opacity:0.5;fill:#ffffff;fill-opacity:1;fill-rule:nonzero;stroke:none" />
        <path
           inkscape:connector-curvature="0"
           id="path6534"
           d="m 8.0000002,60.210938 0,1 c 0,1.355468 1.375,2.789062 2.6718748,2.789062 L 53.32812,64 C 54.62499,64 56,62.566406 56,61.210938 l 0,-1 C 56,61.566406 54.62499,63 53.32812,63 L 10.671875,63 C 9.3750002,63 8.0000002,61.566406 8.0000002,60.210938 Z"
           style="opacity:0.15;fill:#000000;fill-opacity:1;fill-rule:nonzero;stroke:none" />
      </g>
      <path
         style="fill:#000000;fill-opacity:0.19607801;fill-rule:nonzero;stroke:none"
         d="m 339.94915,301.94915 0,13.33594 c 0,1.29687 1.375,2.66406 2.66406,2.66406 l 42.67188,0 c 1.28906,0 2.66406,-1.36719 2.66406,-2.66406 l 0,-13.33594 z m 0,0"
         id="path6536"
         inkscape:connector-curvature="0" />
    </g>
    <g
       style="fill:#000000;opacity:0.35;filter:url(#filter4199)"
       id="g4183">
      <path
         style="stroke:none;fill-rule:nonzero;fill:#000000;fill-opacity:1"
         d="M 16 24 L 26 24 L 26 30 L 16 30 Z M 16 24 "
         id="path4185" />
      <path
         style="stroke:none;fill-rule:nonzero;fill:#000000;fill-opacity:1"
         d="M 20.304688 56.371094 C 20.304688 56.898438 20.324219 57.394531 20.363281 57.855469 C 20.414062 58.308594 20.503906 58.703125 20.636719 59.042969 C 20.777344 59.378906 20.972656 59.644531 21.222656 59.839844 C 21.46875 60.039062 21.796875 60.136719 22.210938 60.136719 C 22.613281 60.136719 22.933594 60.039062 23.183594 59.839844 C 23.445312 59.644531 23.636719 59.378906 23.765625 59.042969 C 23.90625 58.6875 24 58.292969 24.039062 57.839844 C 24.089844 57.386719 24.121094 56.898438 24.121094 56.371094 C 24.121094 55.851562 24.089844 55.367188 24.039062 54.914062 C 24 54.445312 23.90625 54.046875 23.765625 53.710938 C 23.636719 53.371094 23.445312 53.109375 23.207031 52.910156 C 22.960938 52.714844 22.621094 52.613281 22.210938 52.613281 C 21.796875 52.613281 21.46875 52.714844 21.222656 52.910156 C 20.972656 53.109375 20.777344 53.378906 20.636719 53.726562 C 20.503906 54.066406 20.414062 54.460938 20.363281 54.914062 C 20.324219 55.367188 20.304688 55.851562 20.304688 56.371094 M 17.867188 56.371094 C 17.867188 54.519531 18.253906 53.117188 19.019531 52.175781 C 19.789062 51.222656 20.851562 50.75 22.210938 50.75 C 23.628906 50.75 24.699219 51.222656 25.441406 52.175781 C 26.183594 53.117188 26.550781 54.519531 26.550781 56.371094 C 26.550781 58.234375 26.171875 59.636719 25.421875 60.589844 C 24.671875 61.53125 23.601562 62 22.226562 62 C 20.816406 62 19.730469 61.53125 18.980469 60.589844 C 18.238281 59.636719 17.867188 58.234375 17.867188 56.371094 "
         id="path4187" />
      <path
         style="stroke:none;fill-rule:nonzero;fill:#000000;fill-opacity:1"
         d="M 30.523438 60.03125 C 30.589844 60.046875 30.65625 60.046875 30.738281 60.046875 C 30.8125 60.046875 30.886719 60.046875 30.953125 60.046875 C 31.496094 60.046875 31.949219 59.957031 32.3125 59.773438 C 32.691406 59.585938 32.988281 59.328125 33.210938 59.007812 C 33.441406 58.679688 33.605469 58.300781 33.695312 57.855469 C 33.796875 57.402344 33.855469 56.90625 33.855469 56.371094 C 33.855469 55.910156 33.8125 55.457031 33.738281 55.019531 C 33.65625 54.574219 33.523438 54.1875 33.328125 53.851562 C 33.128906 53.511719 32.863281 53.25 32.527344 53.050781 C 32.1875 52.835938 31.753906 52.738281 31.226562 52.738281 C 31.117188 52.738281 31.003906 52.738281 30.871094 52.753906 C 30.746094 52.753906 30.625 52.761719 30.523438 52.789062 L 30.523438 60.03125 M 36.285156 56.371094 C 36.285156 57.378906 36.144531 58.226562 35.855469 58.933594 C 35.585938 59.636719 35.195312 60.203125 34.710938 60.640625 C 34.214844 61.085938 33.621094 61.40625 32.9375 61.621094 C 32.261719 61.808594 31.511719 61.910156 30.699219 61.910156 C 30.269531 61.910156 29.847656 61.894531 29.429688 61.84375 C 29.03125 61.808594 28.597656 61.746094 28.125 61.652344 L 28.125 51.132812 C 28.671875 51.03125 29.191406 50.957031 29.667969 50.925781 C 30.144531 50.890625 30.589844 50.867188 31.011719 50.867188 C 31.800781 50.867188 32.519531 50.972656 33.167969 51.1875 C 33.828125 51.394531 34.390625 51.722656 34.84375 52.175781 C 35.296875 52.621094 35.648438 53.191406 35.898438 53.882812 C 36.152344 54.566406 36.285156 55.398438 36.285156 56.371094 "
         id="path4189" />
      <path
         style="stroke:none;fill-rule:nonzero;fill:#000000;fill-opacity:1"
         d="M 41.171875 50.867188 C 42.703125 50.867188 43.890625 51.15625 44.730469 51.722656 C 45.570312 52.285156 46 53.199219 46 54.476562 C 46 55.761719 45.570312 56.703125 44.714844 57.277344 C 43.867188 57.847656 42.671875 58.136719 41.113281 58.136719 L 40.257812 58.136719 L 40.257812 61.777344 L 37.859375 61.777344 L 37.859375 51.132812 C 38.097656 51.089844 38.351562 51.046875 38.640625 51.007812 C 38.9375 50.972656 39.234375 50.949219 39.53125 50.941406 C 39.835938 50.917969 40.125 50.898438 40.414062 50.890625 C 40.691406 50.875 40.949219 50.867188 41.171875 50.867188 M 41.441406 52.738281 C 41.304688 52.738281 41.097656 52.738281 40.839844 52.753906 C 40.59375 52.753906 40.398438 52.761719 40.257812 52.789062 L 40.257812 56.273438 L 41.230469 56.273438 C 41.996094 56.273438 42.570312 56.132812 42.960938 55.867188 C 43.347656 55.589844 43.542969 55.121094 43.542969 54.460938 C 43.542969 53.832031 43.347656 53.390625 42.960938 53.132812 C 42.589844 52.871094 42.078125 52.738281 41.441406 52.738281 "
         id="path4191" />
      <path
         style="stroke:none;fill-rule:nonzero;fill:#000000;fill-opacity:1"
         d="M 16 34 L 26 34 L 26 40 L 16 40 Z M 16 34 "
         id="path4193" />
      <path
         style="stroke:none;fill-rule:nonzero;fill:#000000;fill-opacity:1"
         d="M 40 21.984375 L 40 30 L 48 30 C 48 25.570312 44.417969 21.984375 40 21.984375 Z M 40 21.984375 "
         id="path4195" />
      <path
         style="stroke:none;fill-rule:nonzero;fill:#000000;fill-opacity:1"
         d="M 38.003906 24 C 33.585938 24 30 27.578125 30 32 C 30 36.421875 33.585938 40 38.003906 40 C 42.421875 40 46 36.421875 46 32 L 38.003906 32 Z M 38.003906 24 "
         id="path4197" />
    </g>
    <g
       id="surface1">
      <path
         id="path13"
         d="M 16 24 L 26 24 L 26 30 L 16 30 Z M 16 24 "
         style=" stroke:none;fill-rule:nonzero;fill:rgb(100%,100%,100%);fill-opacity:1;" />
      <path
         id="path15"
         d="M 20.304688 56.371094 C 20.304688 56.898438 20.324219 57.394531 20.363281 57.855469 C 20.414062 58.308594 20.503906 58.703125 20.636719 59.042969 C 20.777344 59.378906 20.972656 59.644531 21.222656 59.839844 C 21.46875 60.039062 21.796875 60.136719 22.210938 60.136719 C 22.613281 60.136719 22.933594 60.039062 23.183594 59.839844 C 23.445312 59.644531 23.636719 59.378906 23.765625 59.042969 C 23.90625 58.6875 24 58.292969 24.039062 57.839844 C 24.089844 57.386719 24.121094 56.898438 24.121094 56.371094 C 24.121094 55.851562 24.089844 55.367188 24.039062 54.914062 C 24 54.445312 23.90625 54.046875 23.765625 53.710938 C 23.636719 53.371094 23.445312 53.109375 23.207031 52.910156 C 22.960938 52.714844 22.621094 52.613281 22.210938 52.613281 C 21.796875 52.613281 21.46875 52.714844 21.222656 52.910156 C 20.972656 53.109375 20.777344 53.378906 20.636719 53.726562 C 20.503906 54.066406 20.414062 54.460938 20.363281 54.914062 C 20.324219 55.367188 20.304688 55.851562 20.304688 56.371094 M 17.867188 56.371094 C 17.867188 54.519531 18.253906 53.117188 19.019531 52.175781 C 19.789062 51.222656 20.851562 50.75 22.210938 50.75 C 23.628906 50.75 24.699219 51.222656 25.441406 52.175781 C 26.183594 53.117188 26.550781 54.519531 26.550781 56.371094 C 26.550781 58.234375 26.171875 59.636719 25.421875 60.589844 C 24.671875 61.53125 23.601562 62 22.226562 62 C 20.816406 62 19.730469 61.53125 18.980469 60.589844 C 18.238281 59.636719 17.867188 58.234375 17.867188 56.371094 "
         style=" stroke:none;fill-rule:nonzero;fill:rgb(100%,100%,100%);fill-opacity:1;" />
      <path
         id="path17"
         d="M 30.523438 60.03125 C 30.589844 60.046875 30.65625 60.046875 30.738281 60.046875 C 30.8125 60.046875 30.886719 60.046875 30.953125 60.046875 C 31.496094 60.046875 31.949219 59.957031 32.3125 59.773438 C 32.691406 59.585938 32.988281 59.328125 33.210938 59.007812 C 33.441406 58.679688 33.605469 58.300781 33.695312 57.855469 C 33.796875 57.402344 33.855469 56.90625 33.855469 56.371094 C 33.855469 55.910156 33.8125 55.457031 33.738281 55.019531 C 33.65625 54.574219 33.523438 54.1875 33.328125 53.851562 C 33.128906 53.511719 32.863281 53.25 32.527344 53.050781 C 32.1875 52.835938 31.753906 52.738281 31.226562 52.738281 C 31.117188 52.738281 31.003906 52.738281 30.871094 52.753906 C 30.746094 52.753906 30.625 52.761719 30.523438 52.789062 L 30.523438 60.03125 M 36.285156 56.371094 C 36.285156 57.378906 36.144531 58.226562 35.855469 58.933594 C 35.585938 59.636719 35.195312 60.203125 34.710938 60.640625 C 34.214844 61.085938 33.621094 61.40625 32.9375 61.621094 C 32.261719 61.808594 31.511719 61.910156 30.699219 61.910156 C 30.269531 61.910156 29.847656 61.894531 29.429688 61.84375 C 29.03125 61.808594 28.597656 61.746094 28.125 61.652344 L 28.125 51.132812 C 28.671875 51.03125 29.191406 50.957031 29.667969 50.925781 C 30.144531 50.890625 30.589844 50.867188 31.011719 50.867188 C 31.800781 50.867188 32.519531 50.972656 33.167969 51.1875 C 33.828125 51.394531 34.390625 51.722656 34.84375 52.175781 C 35.296875 52.621094 35.648438 53.191406 35.898438 53.882812 C 36.152344 54.566406 36.285156 55.398438 36.285156 56.371094 "
         style=" stroke:none;fill-rule:nonzero;fill:rgb(100%,100%,100%);fill-opacity:1;" />
      <path
         id="path19"
         d="M 41.171875 50.867188 C 42.703125 50.867188 43.890625 51.15625 44.730469 51.722656 C 45.570312 52.285156 46 53.199219 46 54.476562 C 46 55.761719 45.570312 56.703125 44.714844 57.277344 C 43.867188 57.847656 42.671875 58.136719 41.113281 58.136719 L 40.257812 58.136719 L 40.257812 61.777344 L 37.859375 61.777344 L 37.859375 51.132812 C 38.097656 51.089844 38.351562 51.046875 38.640625 51.007812 C 38.9375 50.972656 39.234375 50.949219 39.53125 50.941406 C 39.835938 50.917969 40.125 50.898438 40.414062 50.890625 C 40.691406 50.875 40.949219 50.867188 41.171875 50.867188 M 41.441406 52.738281 C 41.304688 52.738281 41.097656 52.738281 40.839844 52.753906 C 40.59375 52.753906 40.398438 52.761719 40.257812 52.789062 L 40.257812 56.273438 L 41.230469 56.273438 C 41.996094 56.273438 42.570312 56.132812 42.960938 55.867188 C 43.347656 55.589844 43.542969 55.121094 43.542969 54.460938 C 43.542969 53.832031 43.347656 53.390625 42.960938 53.132812 C 42.589844 52.871094 42.078125 52.738281 41.441406 52.738281 "
         style=" stroke:none;fill-rule:nonzero;fill:rgb(100%,100%,100%);fill-opacity:1;" />
      <path
         id="path21"
         d="M 16 34 L 26 34 L 26 40 L 16 40 Z M 16 34 "
         style=" stroke:none;fill-rule:nonzero;fill:rgb(100%,100%,100%);fill-opacity:1;" />
      <path
         id="path23"
         d="M 40 21.984375 L 40 30 L 48 30 C 48 25.570312 44.417969 21.984375 40 21.984375 Z M 40 21.984375 "
         style=" stroke:none;fill-rule:nonzero;fill:rgb(100%,100%,100%);fill-opacity:1;" />
      <path
         id="path25"
         d="M 38.003906 24 C 33.585938 24 30 27.578125 30 32 C 30 36.421875 33.585938 40 38.003906 40 C 42.421875 40 46 36.421875 46 32 L 38.003906 32 Z M 38.003906 24 "
         style=" stroke:none;fill-rule:nonzero;fill:rgb(100%,100%,100%);fill-opacity:1;" />
    </g>
  </g>
</svg>
