<?xml version="1.0" encoding="UTF-8" standalone="no"?>
<svg
   xmlns:dc="http://purl.org/dc/elements/1.1/"
   xmlns:cc="http://creativecommons.org/ns#"
   xmlns:rdf="http://www.w3.org/1999/02/22-rdf-syntax-ns#"
   xmlns:svg="http://www.w3.org/2000/svg"
   xmlns="http://www.w3.org/2000/svg"
   xmlns:sodipodi="http://sodipodi.sourceforge.net/DTD/sodipodi-0.dtd"
   xmlns:inkscape="http://www.inkscape.org/namespaces/inkscape"
   width="64px"
   height="64px"
   viewBox="0 0 64 64"
   version="1.1"
   id="svg2"
   inkscape:version="0.91 r13725"
   sodipodi:docname="application-vnd.oasis.opendocument.master-document.svg">
  <metadata
     id="metadata31">
    <rdf:RDF>
      <cc:Work
         rdf:about="">
        <dc:format>image/svg+xml</dc:format>
        <dc:type
           rdf:resource="http://purl.org/dc/dcmitype/StillImage" />
      </cc:Work>
    </rdf:RDF>
  </metadata>
  <defs
     id="defs29">
    <filter
       inkscape:collect="always"
       style="color-interpolation-filters:sRGB"
       id="filter4185-96"
       x="-0.096041702"
       width="1.1920834"
       y="-0.09595833"
       height="1.1919167">
      <feGaussianBlur
         inkscape:collect="always"
         stdDeviation="0.7196875"
         id="feGaussianBlur4187-26" />
    </filter>
    <filter
       inkscape:collect="always"
       style="color-interpolation-filters:sRGB"
       id="filter4221"
       x="-0.11550676"
       width="1.2310135"
       y="-0.082129916"
       height="1.1642598">
      <feGaussianBlur
         inkscape:collect="always"
         stdDeviation="1.3767187"
         id="feGaussianBlur4223" />
    </filter>
  </defs>
  <sodipodi:namedview
     pagecolor="#ffffff"
     bordercolor="#666666"
     borderopacity="1"
     objecttolerance="10"
     gridtolerance="10"
     guidetolerance="10"
     inkscape:pageopacity="0"
     inkscape:pageshadow="2"
     inkscape:window-width="1301"
     inkscape:window-height="744"
     id="namedview27"
     showgrid="false"
     inkscape:zoom="3.6875"
     inkscape:cx="32"
     inkscape:cy="32"
     inkscape:window-x="65"
     inkscape:window-y="24"
     inkscape:window-maximized="1"
     inkscape:current-layer="svg2" />
  <g
     id="g3361">
    <g
       transform="translate(-9.7272496,-341)"
       id="g3969">
      <g
         id="g3971">
        <g
           transform="translate(9.015625,341)"
           id="g3973">
          <path
             style="fill:#35669e;fill-opacity:1;fill-rule:nonzero;stroke:none"
             d="M 10.671875,0 C 9.296875,0 8,1.355469 8,2.789062 L 8,61.210938 C 8,62.566406 9.375,64 10.671875,64 l 42.65625,0 C 54.625,64 56,62.566406 56,61.210938 L 56,18 38,0 Z m 0,0"
             id="path3975"
             inkscape:connector-curvature="0" />
          <path
             inkscape:connector-curvature="0"
             id="path3977"
             d="m 37.72725,1.2727492 0,15.2265618 c 0,1.347657 1.410156,2.773438 2.757812,2.773438 l 15.226563,0 -1,-1 -13.984375,0 c -1.108,0 -2,-0.892 -2,-2 l 0,-13.9999998 -1,-1 z"
             style="opacity:0.35;fill:#000000;fill-opacity:1;fill-rule:nonzero;stroke:none;filter:url(#filter4185-96)"
             transform="matrix(1,0,0,0.95722054,0,0.82447778)" />
          <path
             style="fill:#84a2c4;fill-opacity:1;fill-rule:nonzero;stroke:none"
             d="M 38,0 55.984375,18 40.757812,18 C 39.410156,18 38,16.574219 38,15.226562 Z m 0,0"
             id="path3979"
             inkscape:connector-curvature="0" />
          <path
             inkscape:connector-curvature="0"
             id="path3981"
             d="M 10.671875,2.0000001e-8 C 9.2968752,2.0000001e-8 8.0000002,1.3554695 8.0000002,2.7890625 l 0,1 C 8.0000002,2.3554695 9.2968752,1 10.671875,1 L 38,1 38,2e-8 l -27.328125,0 z"
             style="opacity:0.5;fill:#ffffff;fill-opacity:1;fill-rule:nonzero;stroke:none" />
          <path
             inkscape:connector-curvature="0"
             id="path3983"
             d="m 8.0000002,60.210938 0,1 c 0,1.355468 1.375,2.789062 2.6718748,2.789062 L 53.32812,64 C 54.62499,64 56,62.566406 56,61.210938 l 0,-1 C 56,61.566406 54.62499,63 53.32812,63 L 10.671875,63 C 9.3750002,63 8.0000002,61.566406 8.0000002,60.210938 Z"
             style="opacity:0.15;fill:#000000;fill-opacity:1;fill-rule:nonzero;stroke:none" />
        </g>
        <path
           inkscape:connector-curvature="0"
           style="fill:#000000;fill-opacity:0.19607801;fill-rule:nonzero;stroke:none"
           d="m 17,389 0,13.33594 C 17,403.63281 18.375,405 19.664062,405 l 42.671876,0 C 63.625,405 65,403.63281 65,402.33594 L 65,389 Z m 0,0"
           id="path3985" />
      </g>
    </g>
    <g
       style="fill:#000000;opacity:0.35;filter:url(#filter4221)"
       id="g4205">
      <path
         style="stroke:none;fill-rule:nonzero;fill:#000000;fill-opacity:1"
         d="M 21.996094 21.996094 L 22 30 L 24 30 L 24 24 L 30 24 L 30 22 Z M 21.996094 21.996094 "
         id="path4207" />
      <path
         style="stroke:none;fill-rule:nonzero;fill:#000000;fill-opacity:1"
         d="M 42.003906 21.996094 L 42 30 L 40 30 L 40 24 L 34 24 L 34 22 Z M 42.003906 21.996094 "
         id="path4209" />
      <path
         style="stroke:none;fill-rule:nonzero;fill:#000000;fill-opacity:1"
         d="M 20.097656 56.503906 C 20.097656 57.039062 20.113281 57.542969 20.15625 58.011719 C 20.207031 58.472656 20.296875 58.875 20.433594 59.21875 C 20.574219 59.5625 20.769531 59.832031 21.019531 60.03125 C 21.269531 60.230469 21.605469 60.332031 22.023438 60.332031 C 22.433594 60.332031 22.761719 60.230469 23.011719 60.03125 C 23.273438 59.832031 23.472656 59.5625 23.609375 59.21875 C 23.75 58.859375 23.84375 58.457031 23.882812 57.996094 C 23.933594 57.535156 23.960938 57.039062 23.960938 56.503906 C 23.960938 55.976562 23.933594 55.480469 23.882812 55.019531 C 23.84375 54.542969 23.75 54.140625 23.609375 53.796875 C 23.472656 53.453125 23.28125 53.1875 23.03125 52.984375 C 22.785156 52.785156 22.445312 52.683594 22.023438 52.683594 C 21.605469 52.683594 21.269531 52.785156 21.019531 52.984375 C 20.769531 53.1875 20.574219 53.460938 20.433594 53.816406 C 20.296875 54.15625 20.207031 54.558594 20.15625 55.019531 C 20.113281 55.480469 20.097656 55.976562 20.097656 56.503906 M 17.625 56.503906 C 17.625 54.617188 18.019531 53.195312 18.789062 52.238281 C 19.570312 51.269531 20.640625 50.789062 22.023438 50.789062 C 23.457031 50.789062 24.554688 51.269531 25.300781 52.238281 C 26.046875 53.195312 26.421875 54.617188 26.421875 56.503906 C 26.421875 58.398438 26.046875 59.820312 25.285156 60.792969 C 24.519531 61.75 23.441406 62.226562 22.050781 62.226562 C 20.617188 62.226562 19.519531 61.75 18.757812 60.792969 C 18.003906 59.820312 17.625 58.398438 17.625 56.503906 "
         id="path4211" />
      <path
         style="stroke:none;fill-rule:nonzero;fill:#000000;fill-opacity:1"
         d="M 30.445312 60.222656 C 30.511719 60.242188 30.585938 60.242188 30.664062 60.242188 C 30.746094 60.242188 30.8125 60.242188 30.878906 60.242188 C 31.433594 60.242188 31.894531 60.148438 32.261719 59.957031 C 32.648438 59.769531 32.949219 59.511719 33.167969 59.175781 C 33.410156 58.851562 33.570312 58.464844 33.660156 58.011719 C 33.769531 57.550781 33.820312 57.046875 33.820312 56.503906 C 33.820312 56.035156 33.777344 55.574219 33.703125 55.121094 C 33.621094 54.675781 33.484375 54.285156 33.285156 53.941406 C 33.09375 53.597656 32.824219 53.328125 32.480469 53.128906 C 32.136719 52.910156 31.699219 52.808594 31.15625 52.808594 C 31.054688 52.808594 30.929688 52.808594 30.804688 52.824219 C 30.671875 52.824219 30.554688 52.835938 30.445312 52.859375 L 30.445312 60.222656 M 36.285156 56.503906 C 36.285156 57.527344 36.140625 58.390625 35.847656 59.109375 C 35.570312 59.820312 35.1875 60.398438 34.691406 60.84375 C 34.1875 61.296875 33.59375 61.621094 32.890625 61.832031 C 32.210938 62.035156 31.449219 62.132812 30.628906 62.132812 C 30.191406 62.132812 29.765625 62.117188 29.347656 62.066406 C 28.9375 62.035156 28.492188 61.964844 28.023438 61.875 L 28.023438 51.175781 C 28.574219 51.066406 29.09375 51 29.582031 50.964844 C 30.066406 50.933594 30.519531 50.90625 30.9375 50.90625 C 31.742188 50.90625 32.472656 51.015625 33.132812 51.234375 C 33.804688 51.445312 34.367188 51.777344 34.824219 52.238281 C 35.285156 52.691406 35.640625 53.269531 35.890625 53.972656 C 36.15625 54.667969 36.285156 55.515625 36.285156 56.503906 "
         id="path4213" />
      <path
         style="stroke:none;fill-rule:nonzero;fill:#000000;fill-opacity:1"
         d="M 39.996094 51.03125 C 40.085938 51.285156 40.195312 51.601562 40.332031 51.988281 C 40.472656 52.382812 40.625 52.800781 40.78125 53.246094 C 40.941406 53.699219 41.101562 54.148438 41.253906 54.609375 C 41.410156 55.070312 41.5625 55.5 41.710938 55.882812 C 41.863281 55.449219 42.03125 55.003906 42.199219 54.542969 C 42.375 54.066406 42.535156 53.621094 42.691406 53.195312 C 42.851562 52.757812 42.996094 52.347656 43.128906 51.972656 C 43.261719 51.59375 43.378906 51.285156 43.480469 51.03125 L 45.5 51.03125 C 45.59375 51.988281 45.675781 52.925781 45.75 53.832031 C 45.84375 54.746094 45.917969 55.640625 45.96875 56.546875 C 46.035156 57.425781 46.085938 58.320312 46.128906 59.234375 C 46.167969 60.132812 46.203125 61.054688 46.230469 62 L 44 62 L 44.117188 53.480469 L 42.617188 58.121094 L 40.839844 58.121094 L 39.402344 53.480469 L 39.5 62 L 37.273438 62 C 37.3125 61.09375 37.347656 60.164062 37.390625 59.203125 C 37.441406 58.230469 37.5 57.265625 37.550781 56.3125 C 37.597656 55.355469 37.65625 54.425781 37.726562 53.53125 C 37.800781 52.632812 37.890625 51.804688 37.984375 51.03125 L 39.996094 51.03125 "
         id="path4215" />
      <path
         style="stroke:none;fill-rule:nonzero;fill:#000000;fill-opacity:1"
         d="M 42.003906 42.003906 L 42 34 L 40 34 L 40 40 L 34 40 L 34 42 Z M 42.003906 42.003906 "
         id="path4217" />
      <path
         style="stroke:none;fill-rule:nonzero;fill:#000000;fill-opacity:1"
         d="M 21.996094 42.003906 L 22 34 L 24 34 L 24 40 L 30 40 L 30 42 Z M 21.996094 42.003906 "
         id="path4219" />
    </g>
    <g
       id="surface1">
      <path
         id="path11"
         d="M 21.996094 21.996094 L 22 30 L 24 30 L 24 24 L 30 24 L 30 22 Z M 21.996094 21.996094 "
         style=" stroke:none;fill-rule:nonzero;fill:rgb(100%,100%,100%);fill-opacity:1;" />
      <path
         id="path13"
         d="M 42.003906 21.996094 L 42 30 L 40 30 L 40 24 L 34 24 L 34 22 Z M 42.003906 21.996094 "
         style=" stroke:none;fill-rule:nonzero;fill:rgb(100%,100%,100%);fill-opacity:1;" />
      <path
         id="path17"
         d="M 20.097656 56.503906 C 20.097656 57.039062 20.113281 57.542969 20.15625 58.011719 C 20.207031 58.472656 20.296875 58.875 20.433594 59.21875 C 20.574219 59.5625 20.769531 59.832031 21.019531 60.03125 C 21.269531 60.230469 21.605469 60.332031 22.023438 60.332031 C 22.433594 60.332031 22.761719 60.230469 23.011719 60.03125 C 23.273438 59.832031 23.472656 59.5625 23.609375 59.21875 C 23.75 58.859375 23.84375 58.457031 23.882812 57.996094 C 23.933594 57.535156 23.960938 57.039062 23.960938 56.503906 C 23.960938 55.976562 23.933594 55.480469 23.882812 55.019531 C 23.84375 54.542969 23.75 54.140625 23.609375 53.796875 C 23.472656 53.453125 23.28125 53.1875 23.03125 52.984375 C 22.785156 52.785156 22.445312 52.683594 22.023438 52.683594 C 21.605469 52.683594 21.269531 52.785156 21.019531 52.984375 C 20.769531 53.1875 20.574219 53.460938 20.433594 53.816406 C 20.296875 54.15625 20.207031 54.558594 20.15625 55.019531 C 20.113281 55.480469 20.097656 55.976562 20.097656 56.503906 M 17.625 56.503906 C 17.625 54.617188 18.019531 53.195312 18.789062 52.238281 C 19.570312 51.269531 20.640625 50.789062 22.023438 50.789062 C 23.457031 50.789062 24.554688 51.269531 25.300781 52.238281 C 26.046875 53.195312 26.421875 54.617188 26.421875 56.503906 C 26.421875 58.398438 26.046875 59.820312 25.285156 60.792969 C 24.519531 61.75 23.441406 62.226562 22.050781 62.226562 C 20.617188 62.226562 19.519531 61.75 18.757812 60.792969 C 18.003906 59.820312 17.625 58.398438 17.625 56.503906 "
         style=" stroke:none;fill-rule:nonzero;fill:rgb(100%,100%,100%);fill-opacity:1;" />
      <path
         id="path19"
         d="M 30.445312 60.222656 C 30.511719 60.242188 30.585938 60.242188 30.664062 60.242188 C 30.746094 60.242188 30.8125 60.242188 30.878906 60.242188 C 31.433594 60.242188 31.894531 60.148438 32.261719 59.957031 C 32.648438 59.769531 32.949219 59.511719 33.167969 59.175781 C 33.410156 58.851562 33.570312 58.464844 33.660156 58.011719 C 33.769531 57.550781 33.820312 57.046875 33.820312 56.503906 C 33.820312 56.035156 33.777344 55.574219 33.703125 55.121094 C 33.621094 54.675781 33.484375 54.285156 33.285156 53.941406 C 33.09375 53.597656 32.824219 53.328125 32.480469 53.128906 C 32.136719 52.910156 31.699219 52.808594 31.15625 52.808594 C 31.054688 52.808594 30.929688 52.808594 30.804688 52.824219 C 30.671875 52.824219 30.554688 52.835938 30.445312 52.859375 L 30.445312 60.222656 M 36.285156 56.503906 C 36.285156 57.527344 36.140625 58.390625 35.847656 59.109375 C 35.570312 59.820312 35.1875 60.398438 34.691406 60.84375 C 34.1875 61.296875 33.59375 61.621094 32.890625 61.832031 C 32.210938 62.035156 31.449219 62.132812 30.628906 62.132812 C 30.191406 62.132812 29.765625 62.117188 29.347656 62.066406 C 28.9375 62.035156 28.492188 61.964844 28.023438 61.875 L 28.023438 51.175781 C 28.574219 51.066406 29.09375 51 29.582031 50.964844 C 30.066406 50.933594 30.519531 50.90625 30.9375 50.90625 C 31.742188 50.90625 32.472656 51.015625 33.132812 51.234375 C 33.804688 51.445312 34.367188 51.777344 34.824219 52.238281 C 35.285156 52.691406 35.640625 53.269531 35.890625 53.972656 C 36.15625 54.667969 36.285156 55.515625 36.285156 56.503906 "
         style=" stroke:none;fill-rule:nonzero;fill:rgb(100%,100%,100%);fill-opacity:1;" />
      <path
         id="path21"
         d="M 39.996094 51.03125 C 40.085938 51.285156 40.195312 51.601562 40.332031 51.988281 C 40.472656 52.382812 40.625 52.800781 40.78125 53.246094 C 40.941406 53.699219 41.101562 54.148438 41.253906 54.609375 C 41.410156 55.070312 41.5625 55.5 41.710938 55.882812 C 41.863281 55.449219 42.03125 55.003906 42.199219 54.542969 C 42.375 54.066406 42.535156 53.621094 42.691406 53.195312 C 42.851562 52.757812 42.996094 52.347656 43.128906 51.972656 C 43.261719 51.59375 43.378906 51.285156 43.480469 51.03125 L 45.5 51.03125 C 45.59375 51.988281 45.675781 52.925781 45.75 53.832031 C 45.84375 54.746094 45.917969 55.640625 45.96875 56.546875 C 46.035156 57.425781 46.085938 58.320312 46.128906 59.234375 C 46.167969 60.132812 46.203125 61.054688 46.230469 62 L 44 62 L 44.117188 53.480469 L 42.617188 58.121094 L 40.839844 58.121094 L 39.402344 53.480469 L 39.5 62 L 37.273438 62 C 37.3125 61.09375 37.347656 60.164062 37.390625 59.203125 C 37.441406 58.230469 37.5 57.265625 37.550781 56.3125 C 37.597656 55.355469 37.65625 54.425781 37.726562 53.53125 C 37.800781 52.632812 37.890625 51.804688 37.984375 51.03125 L 39.996094 51.03125 "
         style=" stroke:none;fill-rule:nonzero;fill:rgb(100%,100%,100%);fill-opacity:1;" />
      <path
         id="path23"
         d="M 42.003906 42.003906 L 42 34 L 40 34 L 40 40 L 34 40 L 34 42 Z M 42.003906 42.003906 "
         style=" stroke:none;fill-rule:nonzero;fill:rgb(100%,100%,100%);fill-opacity:1;" />
      <path
         id="path25"
         d="M 21.996094 42.003906 L 22 34 L 24 34 L 24 40 L 30 40 L 30 42 Z M 21.996094 42.003906 "
         style=" stroke:none;fill-rule:nonzero;fill:rgb(100%,100%,100%);fill-opacity:1;" />
    </g>
  </g>
</svg>
