<?xml version="1.0" encoding="UTF-8" standalone="no"?>
<svg
   xmlns:dc="http://purl.org/dc/elements/1.1/"
   xmlns:cc="http://creativecommons.org/ns#"
   xmlns:rdf="http://www.w3.org/1999/02/22-rdf-syntax-ns#"
   xmlns:svg="http://www.w3.org/2000/svg"
   xmlns="http://www.w3.org/2000/svg"
   xmlns:sodipodi="http://sodipodi.sourceforge.net/DTD/sodipodi-0.dtd"
   xmlns:inkscape="http://www.inkscape.org/namespaces/inkscape"
   width="64px"
   height="64px"
   viewBox="0 0 64 64"
   version="1.1"
   id="svg2"
   inkscape:version="0.91 r13725"
   sodipodi:docname="application-script-blank.svg">
  <metadata
     id="metadata19">
    <rdf:RDF>
      <cc:Work
         rdf:about="">
        <dc:format>image/svg+xml</dc:format>
        <dc:type
           rdf:resource="http://purl.org/dc/dcmitype/StillImage" />
      </cc:Work>
    </rdf:RDF>
  </metadata>
  <defs
     id="defs17">
    <filter
       inkscape:collect="always"
       style="color-interpolation-filters:sRGB"
       id="filter4185"
       x="-0.096041702"
       width="1.1920834"
       y="-0.09595833"
       height="1.1919167">
      <feGaussianBlur
         inkscape:collect="always"
         stdDeviation="0.7196875"
         id="feGaussianBlur4187" />
    </filter>
    <filter
       inkscape:collect="always"
       style="color-interpolation-filters:sRGB"
       id="filter4173"
       x="-0.093897322"
       width="1.1877946"
       y="-0.098199007"
       height="1.196398">
      <feGaussianBlur
         inkscape:collect="always"
         stdDeviation="1.0954688"
         id="feGaussianBlur4175" />
    </filter>
  </defs>
  <sodipodi:namedview
     pagecolor="#ffffff"
     bordercolor="#666666"
     borderopacity="1"
     objecttolerance="10"
     gridtolerance="10"
     guidetolerance="10"
     inkscape:pageopacity="0"
     inkscape:pageshadow="2"
     inkscape:window-width="1301"
     inkscape:window-height="744"
     id="namedview15"
     showgrid="false"
     inkscape:zoom="3.6875"
     inkscape:cx="32"
     inkscape:cy="32"
     inkscape:window-x="65"
     inkscape:window-y="24"
     inkscape:window-maximized="1"
     inkscape:current-layer="svg2" />
  <g
     id="g3348">
    <g
       id="g4140"
       transform="translate(-0.71943709,0)">
      <path
         inkscape:connector-curvature="0"
         id="path5"
         d="M 10.671875,0 C 9.296875,0 8,1.355469 8,2.789062 L 8,61.210938 C 8,62.566406 9.375,64 10.671875,64 l 42.65625,0 C 54.625,64 56,62.566406 56,61.210938 L 56,18 38,0 Z m 0,0"
         style="fill:#dcdcdc;fill-opacity:1;fill-rule:nonzero;stroke:none" />
      <path
         style="opacity:0.35;fill:#000000;fill-opacity:1;fill-rule:nonzero;stroke:none;filter:url(#filter4185)"
         d="m 37.72725,1.2727492 0,15.2265618 c 0,1.347657 1.410156,2.773438 2.757812,2.773438 l 15.226563,0 -1,-1 -13.984375,0 c -1.108,0 -2,-0.892 -2,-2 l 0,-13.9999998 -1,-1 z"
         id="path4183"
         inkscape:connector-curvature="0"
         transform="matrix(1,0,0,0.95722054,0,0.82447778)" />
      <path
         inkscape:connector-curvature="0"
         id="path9"
         d="M 38,0 55.984375,18 40.757812,18 C 39.410156,18 38,16.574219 38,15.226562 Z m 0,0"
         style="fill:#f2f2f2;fill-opacity:1;fill-rule:nonzero;stroke:none" />
      <path
         style="opacity:0.5;fill:#ffffff;fill-opacity:1;fill-rule:nonzero;stroke:none"
         d="M 10.671875,2.0000001e-8 C 9.2968752,2.0000001e-8 8.0000002,1.3554695 8.0000002,2.7890625 l 0,1 C 8.0000002,2.3554695 9.2968752,1 10.671875,1 L 38,1 38,2e-8 l -27.328125,0 z"
         id="path4160"
         inkscape:connector-curvature="0" />
      <path
         style="opacity:0.15;fill:#000000;fill-opacity:1;fill-rule:nonzero;stroke:none"
         d="m 8.0000002,60.210938 0,1 c 0,1.355468 1.375,2.789062 2.6718748,2.789062 L 53.32812,64 C 54.62499,64 56,62.566406 56,61.210938 l 0,-1 C 56,61.566406 54.62499,63 53.32812,63 L 10.671875,63 C 9.3750002,63 8.0000002,61.566406 8.0000002,60.210938 Z"
         id="path4178"
         inkscape:connector-curvature="0" />
    </g>
    <g
       style="fill:#000000;opacity:0.35;filter:url(#filter4173)"
       id="g4167">
      <path
         style="stroke:none;fill-rule:nonzero;fill:#000000;fill-opacity:1"
         d="M 23.90625 43.015625 C 23.90625 44.035156 24.183594 44.769531 24.726562 45.230469 C 25.292969 45.691406 26.113281 45.9375 27.191406 45.957031 L 27.191406 48.054688 C 25.382812 48.035156 23.980469 47.59375 22.996094 46.75 C 22 45.898438 21.507812 44.703125 21.507812 43.164062 L 21.507812 38.625 C 21.507812 37.585938 21.210938 36.847656 20.605469 36.40625 C 20.011719 35.957031 19.136719 35.730469 18 35.730469 L 18 33.613281 C 19.230469 33.59375 20.125 33.359375 20.675781 32.898438 C 21.230469 32.4375 21.507812 31.730469 21.507812 30.769531 L 21.507812 26.183594 C 21.507812 24.632812 22.019531 23.429688 23.046875 22.566406 C 24.070312 21.710938 25.457031 21.28125 27.191406 21.28125 L 27.191406 23.367188 C 24.996094 23.429688 23.90625 24.417969 23.90625 26.347656 L 23.90625 30.769531 C 23.90625 32.917969 22.839844 34.183594 20.71875 34.574219 L 20.71875 34.761719 C 22.839844 35.144531 23.90625 36.417969 23.90625 38.566406 L 23.90625 43.015625 "
         id="path4169" />
      <path
         style="stroke:none;fill-rule:nonzero;fill:#000000;fill-opacity:1"
         d="M 43.25 34.574219 C 41.128906 34.183594 40.0625 32.917969 40.0625 30.769531 L 40.0625 26.347656 C 40.0625 24.417969 38.984375 23.429688 36.820312 23.367188 L 36.820312 21.28125 C 38.574219 21.28125 39.949219 21.710938 40.953125 22.585938 C 41.957031 23.457031 42.460938 24.652344 42.460938 26.183594 L 42.460938 30.769531 C 42.460938 31.742188 42.738281 32.457031 43.300781 32.90625 C 43.867188 33.359375 44.769531 33.59375 46 33.613281 L 46 35.730469 C 44.839844 35.730469 43.957031 35.957031 43.363281 36.40625 C 42.757812 36.847656 42.460938 37.585938 42.460938 38.625 L 42.460938 43.164062 C 42.460938 44.691406 41.96875 45.878906 40.996094 46.730469 C 40.019531 47.59375 38.636719 48.035156 36.820312 48.054688 L 36.820312 45.957031 C 37.875 45.9375 38.6875 45.691406 39.242188 45.230469 C 39.785156 44.769531 40.0625 44.035156 40.0625 43.015625 L 40.0625 38.566406 C 40.0625 37.429688 40.328125 36.554688 40.851562 35.957031 C 41.375 35.359375 42.175781 34.957031 43.25 34.761719 L 43.25 34.574219 "
         id="path4171" />
    </g>
    <g
       id="surface1">
      <path
         id="path11"
         d="M 23.90625 43.015625 C 23.90625 44.035156 24.183594 44.769531 24.726562 45.230469 C 25.292969 45.691406 26.113281 45.9375 27.191406 45.957031 L 27.191406 48.054688 C 25.382812 48.035156 23.980469 47.59375 22.996094 46.75 C 22 45.898438 21.507812 44.703125 21.507812 43.164062 L 21.507812 38.625 C 21.507812 37.585938 21.210938 36.847656 20.605469 36.40625 C 20.011719 35.957031 19.136719 35.730469 18 35.730469 L 18 33.613281 C 19.230469 33.59375 20.125 33.359375 20.675781 32.898438 C 21.230469 32.4375 21.507812 31.730469 21.507812 30.769531 L 21.507812 26.183594 C 21.507812 24.632812 22.019531 23.429688 23.046875 22.566406 C 24.070312 21.710938 25.457031 21.28125 27.191406 21.28125 L 27.191406 23.367188 C 24.996094 23.429688 23.90625 24.417969 23.90625 26.347656 L 23.90625 30.769531 C 23.90625 32.917969 22.839844 34.183594 20.71875 34.574219 L 20.71875 34.761719 C 22.839844 35.144531 23.90625 36.417969 23.90625 38.566406 L 23.90625 43.015625 "
         style=" stroke:none;fill-rule:nonzero;fill:rgb(32.941176%,32.941176%,32.941176%);fill-opacity:1;" />
      <path
         id="path13"
         d="M 43.25 34.574219 C 41.128906 34.183594 40.0625 32.917969 40.0625 30.769531 L 40.0625 26.347656 C 40.0625 24.417969 38.984375 23.429688 36.820312 23.367188 L 36.820312 21.28125 C 38.574219 21.28125 39.949219 21.710938 40.953125 22.585938 C 41.957031 23.457031 42.460938 24.652344 42.460938 26.183594 L 42.460938 30.769531 C 42.460938 31.742188 42.738281 32.457031 43.300781 32.90625 C 43.867188 33.359375 44.769531 33.59375 46 33.613281 L 46 35.730469 C 44.839844 35.730469 43.957031 35.957031 43.363281 36.40625 C 42.757812 36.847656 42.460938 37.585938 42.460938 38.625 L 42.460938 43.164062 C 42.460938 44.691406 41.96875 45.878906 40.996094 46.730469 C 40.019531 47.59375 38.636719 48.035156 36.820312 48.054688 L 36.820312 45.957031 C 37.875 45.9375 38.6875 45.691406 39.242188 45.230469 C 39.785156 44.769531 40.0625 44.035156 40.0625 43.015625 L 40.0625 38.566406 C 40.0625 37.429688 40.328125 36.554688 40.851562 35.957031 C 41.375 35.359375 42.175781 34.957031 43.25 34.761719 L 43.25 34.574219 "
         style=" stroke:none;fill-rule:nonzero;fill:rgb(32.941176%,32.941176%,32.941176%);fill-opacity:1;" />
    </g>
  </g>
</svg>
