<?xml version="1.0" encoding="UTF-8" standalone="no"?>
<svg
   xmlns:dc="http://purl.org/dc/elements/1.1/"
   xmlns:cc="http://creativecommons.org/ns#"
   xmlns:rdf="http://www.w3.org/1999/02/22-rdf-syntax-ns#"
   xmlns:svg="http://www.w3.org/2000/svg"
   xmlns="http://www.w3.org/2000/svg"
   xmlns:sodipodi="http://sodipodi.sourceforge.net/DTD/sodipodi-0.dtd"
   xmlns:inkscape="http://www.inkscape.org/namespaces/inkscape"
   width="64px"
   height="64px"
   viewBox="0 0 64 64"
   version="1.1"
   id="svg2"
   inkscape:version="0.91 r13725"
   sodipodi:docname="application-vnd.oasis.opendocument.formula-template.svg">
  <metadata
     id="metadata21">
    <rdf:RDF>
      <cc:Work
         rdf:about="">
        <dc:format>image/svg+xml</dc:format>
        <dc:type
           rdf:resource="http://purl.org/dc/dcmitype/StillImage" />
      </cc:Work>
    </rdf:RDF>
  </metadata>
  <defs
     id="defs19">
    <filter
       inkscape:collect="always"
       style="color-interpolation-filters:sRGB"
       id="filter4187"
       x="-0.11602104"
       width="1.2320421"
       y="-0.081871874"
       height="1.1637437">
      <feGaussianBlur
         inkscape:collect="always"
         stdDeviation="1.3645312"
         id="feGaussianBlur4189" />
    </filter>
  </defs>
  <sodipodi:namedview
     pagecolor="#ffffff"
     bordercolor="#666666"
     borderopacity="1"
     objecttolerance="10"
     gridtolerance="10"
     guidetolerance="10"
     inkscape:pageopacity="0"
     inkscape:pageshadow="2"
     inkscape:window-width="1301"
     inkscape:window-height="744"
     id="namedview17"
     showgrid="false"
     inkscape:zoom="10.429825"
     inkscape:cx="29.007665"
     inkscape:cy="23.738792"
     inkscape:window-x="65"
     inkscape:window-y="24"
     inkscape:window-maximized="1"
     inkscape:current-layer="svg2" />
  <g
     id="g3350">
    <g
       id="surface1">
      <path
         id="path5"
         d="M 10.6875 0 C 9.3125 0 8 1.378906 8 2.8125 L 8 61.1875 C 8 62.539062 9.390625 64 10.6875 64 L 53.3125 64 C 54.609375 64 56 62.539062 56 61.1875 L 56 2.75 C 56 1.402344 54.597656 0 53.25 0 Z M 10.6875 0 "
         style=" stroke:none;fill-rule:nonzero;fill:rgb(47.058824%,35.294118%,54.509804%);fill-opacity:1;" />
      <path
         id="path7"
         d="M 8 48 L 8 61.335938 C 8 62.632812 9.375 64 10.664062 64 L 53.335938 64 C 54.625 64 56 62.632812 56 61.335938 L 56 48 Z M 8 48 "
         style=" stroke:none;fill-rule:nonzero;fill:rgb(0%,0%,0%);fill-opacity:0.196078;" />
      <g
         style="fill:#000000;opacity:0.35;filter:url(#filter4187)"
         id="g4165">
        <path
           id="path4167"
           d="M 24 22 L 24 34 L 20 34 L 24 42 L 26 42 L 26 24 C 31.90625 24 38.296875 24 44 24 L 44 22 Z M 31.238281 25.761719 L 28.410156 28.714844 L 33.367188 33.878906 L 28.410156 39.046875 L 31.238281 42 L 36.195312 36.832031 L 41.152344 42 L 43.984375 39.046875 L 39.027344 33.878906 L 43.984375 28.714844 L 41.152344 25.761719 L 36.195312 30.925781 Z M 31.238281 25.761719 "
           style="stroke:none;fill-rule:nonzero;fill:#000000;fill-opacity:1" />
        <path
           id="path4169"
           d="M 20.269531 56.351562 C 20.269531 56.882812 20.285156 57.378906 20.328125 57.839844 C 20.386719 58.296875 20.476562 58.691406 20.609375 59.03125 C 20.757812 59.371094 20.957031 59.636719 21.203125 59.832031 C 21.460938 60.03125 21.800781 60.132812 22.222656 60.132812 C 22.636719 60.132812 22.964844 60.03125 23.222656 59.832031 C 23.488281 59.636719 23.683594 59.371094 23.816406 59.03125 C 23.964844 58.675781 24.058594 58.28125 24.097656 57.824219 C 24.148438 57.371094 24.179688 56.882812 24.179688 56.351562 C 24.179688 55.832031 24.148438 55.34375 24.097656 54.890625 C 24.058594 54.417969 23.964844 54.023438 23.816406 53.683594 C 23.683594 53.34375 23.496094 53.078125 23.238281 52.878906 C 22.992188 52.683594 22.652344 52.582031 22.222656 52.582031 C 21.800781 52.582031 21.460938 52.683594 21.203125 52.878906 C 20.957031 53.078125 20.757812 53.351562 20.609375 53.699219 C 20.476562 54.039062 20.386719 54.433594 20.328125 54.890625 C 20.285156 55.34375 20.269531 55.832031 20.269531 56.351562 M 17.773438 56.351562 C 17.773438 54.492188 18.171875 53.085938 18.957031 52.144531 C 19.742188 51.1875 20.824219 50.714844 22.222656 50.714844 C 23.675781 50.714844 24.777344 51.1875 25.535156 52.144531 C 26.289062 53.085938 26.667969 54.492188 26.667969 56.351562 C 26.667969 58.222656 26.289062 59.628906 25.511719 60.585938 C 24.742188 61.527344 23.652344 62 22.246094 62 C 20.792969 62 19.683594 61.527344 18.914062 60.585938 C 18.152344 59.628906 17.773438 58.222656 17.773438 56.351562 "
           style="stroke:none;fill-rule:nonzero;fill:#000000;fill-opacity:1" />
        <path
           id="path4171"
           d="M 36.683594 50.953125 L 36.683594 52.738281 L 33.433594 52.738281 L 33.433594 61.769531 L 30.960938 61.769531 L 30.960938 52.738281 L 27.710938 52.738281 L 27.710938 50.953125 L 36.683594 50.953125 "
           style="stroke:none;fill-rule:nonzero;fill:#000000;fill-opacity:1" />
        <path
           id="path4173"
           d="M 38.433594 61.769531 L 38.433594 50.953125 L 46 50.953125 L 46 52.738281 L 40.890625 52.738281 L 40.890625 55.359375 L 45.355469 55.359375 L 45.355469 57.136719 L 40.890625 57.136719 L 40.890625 61.769531 L 38.433594 61.769531 "
           style="stroke:none;fill-rule:nonzero;fill:#000000;fill-opacity:1" />
      </g>
      <g
         id="g4159">
        <path
           style=" stroke:none;fill-rule:nonzero;fill:rgb(100%,100%,100%);fill-opacity:1;"
           d="M 24 22 L 24 34 L 20 34 L 24 42 L 26 42 L 26 24 C 31.90625 24 38.296875 24 44 24 L 44 22 Z M 31.238281 25.761719 L 28.410156 28.714844 L 33.367188 33.878906 L 28.410156 39.046875 L 31.238281 42 L 36.195312 36.832031 L 41.152344 42 L 43.984375 39.046875 L 39.027344 33.878906 L 43.984375 28.714844 L 41.152344 25.761719 L 36.195312 30.925781 Z M 31.238281 25.761719 "
           id="path9" />
        <path
           style=" stroke:none;fill-rule:nonzero;fill:rgb(100%,100%,100%);fill-opacity:1;"
           d="M 20.269531 56.351562 C 20.269531 56.882812 20.285156 57.378906 20.328125 57.839844 C 20.386719 58.296875 20.476562 58.691406 20.609375 59.03125 C 20.757812 59.371094 20.957031 59.636719 21.203125 59.832031 C 21.460938 60.03125 21.800781 60.132812 22.222656 60.132812 C 22.636719 60.132812 22.964844 60.03125 23.222656 59.832031 C 23.488281 59.636719 23.683594 59.371094 23.816406 59.03125 C 23.964844 58.675781 24.058594 58.28125 24.097656 57.824219 C 24.148438 57.371094 24.179688 56.882812 24.179688 56.351562 C 24.179688 55.832031 24.148438 55.34375 24.097656 54.890625 C 24.058594 54.417969 23.964844 54.023438 23.816406 53.683594 C 23.683594 53.34375 23.496094 53.078125 23.238281 52.878906 C 22.992188 52.683594 22.652344 52.582031 22.222656 52.582031 C 21.800781 52.582031 21.460938 52.683594 21.203125 52.878906 C 20.957031 53.078125 20.757812 53.351562 20.609375 53.699219 C 20.476562 54.039062 20.386719 54.433594 20.328125 54.890625 C 20.285156 55.34375 20.269531 55.832031 20.269531 56.351562 M 17.773438 56.351562 C 17.773438 54.492188 18.171875 53.085938 18.957031 52.144531 C 19.742188 51.1875 20.824219 50.714844 22.222656 50.714844 C 23.675781 50.714844 24.777344 51.1875 25.535156 52.144531 C 26.289062 53.085938 26.667969 54.492188 26.667969 56.351562 C 26.667969 58.222656 26.289062 59.628906 25.511719 60.585938 C 24.742188 61.527344 23.652344 62 22.246094 62 C 20.792969 62 19.683594 61.527344 18.914062 60.585938 C 18.152344 59.628906 17.773438 58.222656 17.773438 56.351562 "
           id="path11" />
        <path
           style=" stroke:none;fill-rule:nonzero;fill:rgb(100%,100%,100%);fill-opacity:1;"
           d="M 36.683594 50.953125 L 36.683594 52.738281 L 33.433594 52.738281 L 33.433594 61.769531 L 30.960938 61.769531 L 30.960938 52.738281 L 27.710938 52.738281 L 27.710938 50.953125 L 36.683594 50.953125 "
           id="path13" />
        <path
           style=" stroke:none;fill-rule:nonzero;fill:rgb(100%,100%,100%);fill-opacity:1;"
           d="M 38.433594 61.769531 L 38.433594 50.953125 L 46 50.953125 L 46 52.738281 L 40.890625 52.738281 L 40.890625 55.359375 L 45.355469 55.359375 L 45.355469 57.136719 L 40.890625 57.136719 L 40.890625 61.769531 L 38.433594 61.769531 "
           id="path15" />
      </g>
    </g>
    <g
       id="g4161">
      <path
         inkscape:connector-curvature="0"
         id="path4178"
         d="m 7.9999995,60.210938 0,1 c 0,1.355468 1.375,2.789062 2.6718755,2.789062 l 42.656244,0 C 54.624989,64 56,62.566406 56,61.210938 l 0,-1 C 56,61.566406 54.624989,63 53.328119,63 L 10.671875,63 C 9.3749995,63 7.9999995,61.566406 7.9999995,60.210938 Z"
         style="opacity:0.15;fill:#000000;fill-opacity:1;fill-rule:nonzero;stroke:none" />
      <path
         style="opacity:0.5;fill:#ffffff;fill-opacity:1;fill-rule:nonzero;stroke:none"
         d="m 7.9999998,3.789062 0,-1 C 7.9999998,1.433594 9.3749999,0 10.671875,0 L 53.328119,0 C 54.624989,0 56,1.433594 56,2.789062 l 0,1 C 56,2.433594 54.624989,1 53.328119,1 L 10.671875,1 C 9.3749998,1 7.9999998,2.433594 7.9999998,3.789062 Z"
         id="path4159"
         inkscape:connector-curvature="0" />
    </g>
  </g>
</svg>
