<?xml version="1.0" encoding="UTF-8" standalone="no"?>
<svg
   xmlns:dc="http://purl.org/dc/elements/1.1/"
   xmlns:cc="http://creativecommons.org/ns#"
   xmlns:rdf="http://www.w3.org/1999/02/22-rdf-syntax-ns#"
   xmlns:svg="http://www.w3.org/2000/svg"
   xmlns="http://www.w3.org/2000/svg"
   xmlns:sodipodi="http://sodipodi.sourceforge.net/DTD/sodipodi-0.dtd"
   xmlns:inkscape="http://www.inkscape.org/namespaces/inkscape"
   width="64px"
   height="64px"
   viewBox="0 0 64 64"
   version="1.1"
   id="svg2"
   inkscape:version="0.91 r13725"
   sodipodi:docname="application-x-jar.svg">
  <metadata
     id="metadata39">
    <rdf:RDF>
      <cc:Work
         rdf:about="">
        <dc:format>image/svg+xml</dc:format>
        <dc:type
           rdf:resource="http://purl.org/dc/dcmitype/StillImage" />
      </cc:Work>
    </rdf:RDF>
  </metadata>
  <defs
     id="defs37">
    <filter
       inkscape:collect="always"
       style="color-interpolation-filters:sRGB"
       id="filter4185-75"
       x="-0.096041702"
       width="1.1920834"
       y="-0.09595833"
       height="1.1919167">
      <feGaussianBlur
         inkscape:collect="always"
         stdDeviation="0.7196875"
         id="feGaussianBlur4187-85" />
    </filter>
    <filter
       inkscape:collect="always"
       style="color-interpolation-filters:sRGB"
       id="filter4215"
       x="-0.117773"
       width="1.235546"
       y="-0.081021371"
       height="1.1620427">
      <feGaussianBlur
         inkscape:collect="always"
         stdDeviation="1.4253906"
         id="feGaussianBlur4217" />
    </filter>
  </defs>
  <sodipodi:namedview
     pagecolor="#ffffff"
     bordercolor="#666666"
     borderopacity="1"
     objecttolerance="10"
     gridtolerance="10"
     guidetolerance="10"
     inkscape:pageopacity="0"
     inkscape:pageshadow="2"
     inkscape:window-width="1301"
     inkscape:window-height="744"
     id="namedview35"
     showgrid="false"
     inkscape:zoom="7.375"
     inkscape:cx="14.063717"
     inkscape:cy="9.6776384"
     inkscape:window-x="65"
     inkscape:window-y="24"
     inkscape:window-maximized="1"
     inkscape:current-layer="svg2" />
  <g
     id="g4168">
    <g
       id="g6175"
       transform="translate(-332.69401,-253.98082)">
      <g
         id="g6137"
         transform="translate(332,253.98082)">
        <path
           inkscape:connector-curvature="0"
           id="path6139"
           d="M 10.671875,0 C 9.296875,0 8,1.355469 8,2.789062 L 8,61.210938 C 8,62.566406 9.375,64 10.671875,64 l 42.65625,0 C 54.625,64 56,62.566406 56,61.210938 L 56,18 38,0 Z m 0,0"
           style="fill:#ff6300;fill-opacity:1;fill-rule:nonzero;stroke:none" />
        <path
           transform="matrix(1,0,0,0.96709914,0,0.63408999)"
           style="opacity:0.35;fill:#000000;fill-opacity:1;fill-rule:nonzero;stroke:none;filter:url(#filter4185-75)"
           d="m 37.72725,1.2727492 0,15.2265618 c 0,1.347657 1.410156,2.773438 2.757812,2.773438 l 15.226563,0 -1,-1 -13.984375,0 c -1.108,0 -2,-0.892 -2,-2 l 0,-13.9999998 -1,-1 z"
           id="path6141"
           inkscape:connector-curvature="0" />
        <path
           inkscape:connector-curvature="0"
           id="path6143"
           d="M 38,0 55.984375,18 40.757812,18 C 39.410156,18 38,16.574219 38,15.226562 Z m 0,0"
           style="fill:#ffa064;fill-opacity:1;fill-rule:nonzero;stroke:none" />
        <path
           style="opacity:0.5;fill:#ffffff;fill-opacity:1;fill-rule:nonzero;stroke:none"
           d="M 10.671875,2.0000001e-8 C 9.2968752,2.0000001e-8 8.0000002,1.3554695 8.0000002,2.7890625 l 0,1 C 8.0000002,2.3554695 9.2968752,1 10.671875,1 L 38,1 38,2e-8 l -27.328125,0 z"
           id="path6145"
           inkscape:connector-curvature="0" />
        <path
           style="opacity:0.15;fill:#000000;fill-opacity:1;fill-rule:nonzero;stroke:none"
           d="m 8.0000002,60.210938 0,1 c 0,1.355468 1.375,2.789062 2.6718748,2.789062 L 53.32812,64 C 54.62499,64 56,62.566406 56,61.210938 l 0,-1 C 56,61.566406 54.62499,63 53.32812,63 L 10.671875,63 C 9.3750002,63 8.0000002,61.566406 8.0000002,60.210938 Z"
           id="path6147"
           inkscape:connector-curvature="0" />
      </g>
      <path
         inkscape:connector-curvature="0"
         id="path6164"
         d="m 339.94915,301.94915 0,13.33594 c 0,1.29687 1.375,2.66406 2.66406,2.66406 l 42.67188,0 c 1.28906,0 2.66406,-1.36719 2.66406,-2.66406 l 0,-13.33594 z m 0,0"
         style="fill:#000000;fill-opacity:0.19607801;fill-rule:nonzero;stroke:none" />
    </g>
    <g
       style="fill:#000000;opacity:0.35;filter:url(#filter4215)"
       id="g4191">
      <path
         style="stroke:none;fill-rule:evenodd;fill:#000000;fill-opacity:1"
         d="M 28.679688 38.5625 C 28.679688 38.5625 27.710938 39.09375 29.367188 39.273438 C 31.375 39.492188 32.398438 39.460938 34.609375 39.0625 C 34.609375 39.0625 35.1875 39.40625 36 39.710938 C 31.046875 41.71875 24.789062 39.59375 28.679688 38.5625 "
         id="path4193" />
      <path
         style="stroke:none;fill-rule:evenodd;fill:#000000;fill-opacity:1"
         d="M 28.070312 35.929688 C 28.070312 35.929688 26.984375 36.695312 28.640625 36.859375 C 30.789062 37.070312 32.476562 37.085938 35.40625 36.546875 C 35.40625 36.546875 35.8125 36.9375 36.445312 37.148438 C 30.460938 38.8125 23.78125 37.28125 28.070312 35.929688 "
         id="path4195" />
      <path
         style="stroke:none;fill-rule:evenodd;fill:#000000;fill-opacity:1"
         d="M 33.179688 31.476562 C 34.398438 32.804688 32.851562 34.007812 32.851562 34.007812 C 32.851562 34.007812 35.953125 32.492188 34.53125 30.59375 C 33.203125 28.820312 32.179688 27.9375 37.703125 24.898438 C 37.703125 24.898438 29.039062 26.953125 33.179688 31.476562 "
         id="path4197" />
      <path
         style="stroke:none;fill-rule:evenodd;fill:#000000;fill-opacity:1"
         d="M 39.726562 40.507812 C 39.726562 40.507812 40.445312 41.0625 38.9375 41.492188 C 36.078125 42.320312 27.039062 42.5625 24.523438 41.53125 C 23.625 41.15625 25.3125 40.640625 25.851562 40.53125 C 26.40625 40.414062 26.71875 40.4375 26.71875 40.4375 C 25.71875 39.765625 20.226562 41.757812 23.9375 42.328125 C 34.039062 43.875 42.351562 41.625 39.726562 40.507812 "
         id="path4199" />
      <path
         style="stroke:none;fill-rule:evenodd;fill:#000000;fill-opacity:1"
         d="M 29.140625 33.210938 C 29.140625 33.210938 24.539062 34.25 27.515625 34.625 C 28.765625 34.78125 31.265625 34.742188 33.601562 34.5625 C 35.5 34.40625 37.414062 34.085938 37.414062 34.085938 C 37.414062 34.085938 36.742188 34.359375 36.257812 34.671875 C 31.585938 35.835938 22.5625 35.296875 25.15625 34.101562 C 27.359375 33.09375 29.140625 33.210938 29.140625 33.210938 "
         id="path4201" />
      <path
         style="stroke:none;fill-rule:evenodd;fill:#000000;fill-opacity:1"
         d="M 37.390625 37.585938 C 42.140625 35.242188 39.945312 32.992188 38.414062 33.296875 C 38.039062 33.375 37.875 33.4375 37.875 33.4375 C 37.875 33.4375 38.007812 33.226562 38.28125 33.140625 C 41.3125 32.132812 43.640625 36.125 37.296875 37.703125 C 37.296875 37.703125 37.375 37.640625 37.390625 37.585938 "
         id="path4203" />
      <path
         style="stroke:none;fill-rule:evenodd;fill:#000000;fill-opacity:1"
         d="M 34.53125 20 C 34.53125 20 37.164062 22.492188 32.039062 26.328125 C 27.929688 29.40625 31.101562 31.164062 32.039062 33.164062 C 29.640625 31.117188 27.875 29.304688 29.054688 27.625 C 30.789062 25.15625 35.59375 23.960938 34.53125 20 "
         id="path4205" />
      <path
         style="stroke:none;fill-rule:evenodd;fill:#000000;fill-opacity:1"
         d="M 29.609375 43.921875 C 34.164062 44.203125 41.164062 43.773438 41.335938 41.726562 C 41.335938 41.726562 41.015625 42.5 37.5625 43.117188 C 33.671875 43.8125 28.875 43.726562 26.03125 43.289062 C 26.03125 43.28125 26.617188 43.742188 29.609375 43.921875 "
         id="path4207" />
      <path
         style="stroke:none;fill-rule:nonzero;fill:#000000;fill-opacity:1"
         d="M 25.898438 58.222656 C 25.898438 58.765625 25.820312 59.285156 25.660156 59.769531 C 25.511719 60.246094 25.257812 60.671875 24.890625 61.039062 C 24.550781 61.402344 24.09375 61.691406 23.53125 61.914062 C 22.96875 62.117188 22.289062 62.222656 21.480469 62.222656 C 20.636719 62.222656 19.941406 62.128906 19.378906 61.929688 C 18.816406 61.734375 18.339844 61.496094 17.949219 61.214844 L 18.894531 59.4375 C 19.234375 59.632812 19.601562 59.820312 20 60 C 20.417969 60.1875 20.832031 60.273438 21.269531 60.273438 C 21.90625 60.273438 22.425781 60.128906 22.808594 59.820312 C 23.207031 59.507812 23.410156 58.929688 23.410156 58.09375 L 23.410156 52.589844 L 19.257812 52.589844 L 19.257812 50.734375 L 25.898438 50.734375 L 25.898438 58.222656 "
         id="path4209" />
      <path
         style="stroke:none;fill-rule:nonzero;fill:#000000;fill-opacity:1"
         d="M 34.355469 61.984375 L 33.765625 59.386719 L 30.457031 59.386719 L 29.894531 61.984375 L 27.324219 61.984375 C 27.914062 59.769531 28.507812 57.746094 29.113281 55.933594 C 29.71875 54.101562 30.296875 52.367188 30.855469 50.734375 L 33.546875 50.734375 C 34.132812 52.375 34.71875 54.128906 35.289062 55.984375 C 35.886719 57.832031 36.445312 59.828125 37 61.984375 L 34.355469 61.984375 M 32.140625 52.914062 C 32.003906 53.335938 31.878906 53.746094 31.757812 54.128906 C 31.65625 54.503906 31.546875 54.878906 31.4375 55.261719 C 31.34375 55.617188 31.25 55.992188 31.15625 56.367188 C 31.078125 56.742188 31 57.132812 30.917969 57.53125 L 33.351562 57.53125 C 33.265625 57.132812 33.1875 56.742188 33.101562 56.367188 C 33.027344 55.992188 32.933594 55.617188 32.824219 55.261719 C 32.730469 54.878906 32.625 54.503906 32.507812 54.128906 C 32.398438 53.746094 32.277344 53.335938 32.140625 52.914062 "
         id="path4211" />
      <path
         style="stroke:none;fill-rule:nonzero;fill:#000000;fill-opacity:1"
         d="M 41.476562 50.605469 C 42.183594 50.605469 42.828125 50.675781 43.398438 50.820312 C 43.976562 50.964844 44.472656 51.195312 44.886719 51.492188 C 45.304688 51.796875 45.621094 52.1875 45.832031 52.65625 C 46.0625 53.117188 46.171875 53.660156 46.171875 54.289062 C 46.171875 54.945312 46.027344 55.542969 45.730469 56.078125 C 45.433594 56.605469 44.949219 57.011719 44.265625 57.292969 C 44.496094 57.609375 44.734375 57.957031 44.988281 58.347656 C 45.246094 58.722656 45.492188 59.125 45.730469 59.550781 C 45.96875 59.957031 46.199219 60.375 46.410156 60.800781 C 46.640625 61.214844 46.835938 61.609375 46.996094 61.984375 L 44.402344 61.984375 C 44.097656 61.257812 43.738281 60.5625 43.320312 59.890625 C 42.921875 59.21875 42.488281 58.527344 42.019531 57.839844 L 40.734375 57.839844 L 40.734375 61.984375 L 38.269531 61.984375 L 38.269531 50.894531 C 38.507812 50.84375 38.761719 50.800781 39.050781 50.769531 C 39.339844 50.71875 39.636719 50.691406 39.925781 50.675781 C 40.226562 50.648438 40.503906 50.632812 40.769531 50.625 C 41.042969 50.605469 41.273438 50.605469 41.476562 50.605469 M 43.664062 54.273438 C 43.664062 53.679688 43.457031 53.246094 43.058594 52.964844 C 42.660156 52.691406 42.132812 52.546875 41.476562 52.546875 C 41.382812 52.546875 41.273438 52.554688 41.136719 52.5625 C 41 52.5625 40.863281 52.582031 40.734375 52.605469 L 40.734375 55.984375 L 41.273438 55.984375 C 42.113281 55.984375 42.726562 55.839844 43.101562 55.550781 C 43.476562 55.242188 43.664062 54.816406 43.664062 54.273438 "
         id="path4213" />
    </g>
    <g
       id="surface1">
      <path
         id="path11"
         d="M 28.679688 38.5625 C 28.679688 38.5625 27.710938 39.09375 29.367188 39.273438 C 31.375 39.492188 32.398438 39.460938 34.609375 39.0625 C 34.609375 39.0625 35.1875 39.40625 36 39.710938 C 31.046875 41.71875 24.789062 39.59375 28.679688 38.5625 "
         style=" stroke:none;fill-rule:evenodd;fill:rgb(100%,100%,100%);fill-opacity:1;" />
      <path
         id="path13"
         d="M 28.070312 35.929688 C 28.070312 35.929688 26.984375 36.695312 28.640625 36.859375 C 30.789062 37.070312 32.476562 37.085938 35.40625 36.546875 C 35.40625 36.546875 35.8125 36.9375 36.445312 37.148438 C 30.460938 38.8125 23.78125 37.28125 28.070312 35.929688 "
         style=" stroke:none;fill-rule:evenodd;fill:rgb(100%,100%,100%);fill-opacity:1;" />
      <path
         id="path15"
         d="M 33.179688 31.476562 C 34.398438 32.804688 32.851562 34.007812 32.851562 34.007812 C 32.851562 34.007812 35.953125 32.492188 34.53125 30.59375 C 33.203125 28.820312 32.179688 27.9375 37.703125 24.898438 C 37.703125 24.898438 29.039062 26.953125 33.179688 31.476562 "
         style=" stroke:none;fill-rule:evenodd;fill:rgb(100%,100%,100%);fill-opacity:1;" />
      <path
         id="path17"
         d="M 39.726562 40.507812 C 39.726562 40.507812 40.445312 41.0625 38.9375 41.492188 C 36.078125 42.320312 27.039062 42.5625 24.523438 41.53125 C 23.625 41.15625 25.3125 40.640625 25.851562 40.53125 C 26.40625 40.414062 26.71875 40.4375 26.71875 40.4375 C 25.71875 39.765625 20.226562 41.757812 23.9375 42.328125 C 34.039062 43.875 42.351562 41.625 39.726562 40.507812 "
         style=" stroke:none;fill-rule:evenodd;fill:rgb(100%,100%,100%);fill-opacity:1;" />
      <path
         id="path19"
         d="M 29.140625 33.210938 C 29.140625 33.210938 24.539062 34.25 27.515625 34.625 C 28.765625 34.78125 31.265625 34.742188 33.601562 34.5625 C 35.5 34.40625 37.414062 34.085938 37.414062 34.085938 C 37.414062 34.085938 36.742188 34.359375 36.257812 34.671875 C 31.585938 35.835938 22.5625 35.296875 25.15625 34.101562 C 27.359375 33.09375 29.140625 33.210938 29.140625 33.210938 "
         style=" stroke:none;fill-rule:evenodd;fill:rgb(100%,100%,100%);fill-opacity:1;" />
      <path
         id="path21"
         d="M 37.390625 37.585938 C 42.140625 35.242188 39.945312 32.992188 38.414062 33.296875 C 38.039062 33.375 37.875 33.4375 37.875 33.4375 C 37.875 33.4375 38.007812 33.226562 38.28125 33.140625 C 41.3125 32.132812 43.640625 36.125 37.296875 37.703125 C 37.296875 37.703125 37.375 37.640625 37.390625 37.585938 "
         style=" stroke:none;fill-rule:evenodd;fill:rgb(100%,100%,100%);fill-opacity:1;" />
      <path
         id="path23"
         d="M 34.53125 20 C 34.53125 20 37.164062 22.492188 32.039062 26.328125 C 27.929688 29.40625 31.101562 31.164062 32.039062 33.164062 C 29.640625 31.117188 27.875 29.304688 29.054688 27.625 C 30.789062 25.15625 35.59375 23.960938 34.53125 20 "
         style=" stroke:none;fill-rule:evenodd;fill:rgb(100%,100%,100%);fill-opacity:1;" />
      <path
         id="path25"
         d="M 29.609375 43.921875 C 34.164062 44.203125 41.164062 43.773438 41.335938 41.726562 C 41.335938 41.726562 41.015625 42.5 37.5625 43.117188 C 33.671875 43.8125 28.875 43.726562 26.03125 43.289062 C 26.03125 43.28125 26.617188 43.742188 29.609375 43.921875 "
         style=" stroke:none;fill-rule:evenodd;fill:rgb(100%,100%,100%);fill-opacity:1;" />
      <path
         id="path29"
         d="M 25.898438 58.222656 C 25.898438 58.765625 25.820312 59.285156 25.660156 59.769531 C 25.511719 60.246094 25.257812 60.671875 24.890625 61.039062 C 24.550781 61.402344 24.09375 61.691406 23.53125 61.914062 C 22.96875 62.117188 22.289062 62.222656 21.480469 62.222656 C 20.636719 62.222656 19.941406 62.128906 19.378906 61.929688 C 18.816406 61.734375 18.339844 61.496094 17.949219 61.214844 L 18.894531 59.4375 C 19.234375 59.632812 19.601562 59.820312 20 60 C 20.417969 60.1875 20.832031 60.273438 21.269531 60.273438 C 21.90625 60.273438 22.425781 60.128906 22.808594 59.820312 C 23.207031 59.507812 23.410156 58.929688 23.410156 58.09375 L 23.410156 52.589844 L 19.257812 52.589844 L 19.257812 50.734375 L 25.898438 50.734375 L 25.898438 58.222656 "
         style=" stroke:none;fill-rule:nonzero;fill:rgb(100%,100%,100%);fill-opacity:1;" />
      <path
         id="path31"
         d="M 34.355469 61.984375 L 33.765625 59.386719 L 30.457031 59.386719 L 29.894531 61.984375 L 27.324219 61.984375 C 27.914062 59.769531 28.507812 57.746094 29.113281 55.933594 C 29.71875 54.101562 30.296875 52.367188 30.855469 50.734375 L 33.546875 50.734375 C 34.132812 52.375 34.71875 54.128906 35.289062 55.984375 C 35.886719 57.832031 36.445312 59.828125 37 61.984375 L 34.355469 61.984375 M 32.140625 52.914062 C 32.003906 53.335938 31.878906 53.746094 31.757812 54.128906 C 31.65625 54.503906 31.546875 54.878906 31.4375 55.261719 C 31.34375 55.617188 31.25 55.992188 31.15625 56.367188 C 31.078125 56.742188 31 57.132812 30.917969 57.53125 L 33.351562 57.53125 C 33.265625 57.132812 33.1875 56.742188 33.101562 56.367188 C 33.027344 55.992188 32.933594 55.617188 32.824219 55.261719 C 32.730469 54.878906 32.625 54.503906 32.507812 54.128906 C 32.398438 53.746094 32.277344 53.335938 32.140625 52.914062 "
         style=" stroke:none;fill-rule:nonzero;fill:rgb(100%,100%,100%);fill-opacity:1;" />
      <path
         id="path33"
         d="M 41.476562 50.605469 C 42.183594 50.605469 42.828125 50.675781 43.398438 50.820312 C 43.976562 50.964844 44.472656 51.195312 44.886719 51.492188 C 45.304688 51.796875 45.621094 52.1875 45.832031 52.65625 C 46.0625 53.117188 46.171875 53.660156 46.171875 54.289062 C 46.171875 54.945312 46.027344 55.542969 45.730469 56.078125 C 45.433594 56.605469 44.949219 57.011719 44.265625 57.292969 C 44.496094 57.609375 44.734375 57.957031 44.988281 58.347656 C 45.246094 58.722656 45.492188 59.125 45.730469 59.550781 C 45.96875 59.957031 46.199219 60.375 46.410156 60.800781 C 46.640625 61.214844 46.835938 61.609375 46.996094 61.984375 L 44.402344 61.984375 C 44.097656 61.257812 43.738281 60.5625 43.320312 59.890625 C 42.921875 59.21875 42.488281 58.527344 42.019531 57.839844 L 40.734375 57.839844 L 40.734375 61.984375 L 38.269531 61.984375 L 38.269531 50.894531 C 38.507812 50.84375 38.761719 50.800781 39.050781 50.769531 C 39.339844 50.71875 39.636719 50.691406 39.925781 50.675781 C 40.226562 50.648438 40.503906 50.632812 40.769531 50.625 C 41.042969 50.605469 41.273438 50.605469 41.476562 50.605469 M 43.664062 54.273438 C 43.664062 53.679688 43.457031 53.246094 43.058594 52.964844 C 42.660156 52.691406 42.132812 52.546875 41.476562 52.546875 C 41.382812 52.546875 41.273438 52.554688 41.136719 52.5625 C 41 52.5625 40.863281 52.582031 40.734375 52.605469 L 40.734375 55.984375 L 41.273438 55.984375 C 42.113281 55.984375 42.726562 55.839844 43.101562 55.550781 C 43.476562 55.242188 43.664062 54.816406 43.664062 54.273438 "
         style=" stroke:none;fill-rule:nonzero;fill:rgb(100%,100%,100%);fill-opacity:1;" />
    </g>
  </g>
</svg>
