<?xml version="1.0" encoding="UTF-8" standalone="no"?>
<svg
   xmlns:dc="http://purl.org/dc/elements/1.1/"
   xmlns:cc="http://creativecommons.org/ns#"
   xmlns:rdf="http://www.w3.org/1999/02/22-rdf-syntax-ns#"
   xmlns:svg="http://www.w3.org/2000/svg"
   xmlns="http://www.w3.org/2000/svg"
   xmlns:sodipodi="http://sodipodi.sourceforge.net/DTD/sodipodi-0.dtd"
   xmlns:inkscape="http://www.inkscape.org/namespaces/inkscape"
   width="64px"
   height="64px"
   viewBox="0 0 64 64"
   version="1.1"
   id="svg2"
   inkscape:version="0.91 r13725"
   sodipodi:docname="application-flash.svg">
  <metadata
     id="metadata17">
    <rdf:RDF>
      <cc:Work
         rdf:about="">
        <dc:format>image/svg+xml</dc:format>
        <dc:type
           rdf:resource="http://purl.org/dc/dcmitype/StillImage" />
      </cc:Work>
    </rdf:RDF>
  </metadata>
  <defs
     id="defs15">
    <filter
       inkscape:collect="always"
       style="color-interpolation-filters:sRGB"
       id="filter4185"
       x="-0.096041702"
       width="1.1920834"
       y="-0.09595833"
       height="1.1919167">
      <feGaussianBlur
         inkscape:collect="always"
         stdDeviation="0.7196875"
         id="feGaussianBlur4187" />
    </filter>
    <filter
       inkscape:collect="always"
       style="color-interpolation-filters:sRGB"
       id="filter4167"
       x="-0.10200943"
       width="1.2040189"
       y="-0.090659216"
       height="1.1813184">
      <feGaussianBlur
         inkscape:collect="always"
         stdDeviation="1.0677452"
         id="feGaussianBlur4169" />
    </filter>
  </defs>
  <sodipodi:namedview
     pagecolor="#ffffff"
     bordercolor="#666666"
     borderopacity="1"
     objecttolerance="10"
     gridtolerance="10"
     guidetolerance="10"
     inkscape:pageopacity="0"
     inkscape:pageshadow="2"
     inkscape:window-width="1301"
     inkscape:window-height="744"
     id="namedview13"
     showgrid="false"
     inkscape:zoom="7.375"
     inkscape:cx="23.189063"
     inkscape:cy="21.391797"
     inkscape:window-x="65"
     inkscape:window-y="24"
     inkscape:window-maximized="1"
     inkscape:current-layer="svg2" />
  <g
     id="g3345">
    <g
       id="g4140"
       transform="translate(-0.73288068,0)">
      <path
         inkscape:connector-curvature="0"
         id="path5"
         d="M 10.671875,0 C 9.296875,0 8,1.355469 8,2.789062 L 8,61.210938 C 8,62.566406 9.375,64 10.671875,64 l 42.65625,0 C 54.625,64 56,62.566406 56,61.210938 L 56,18 38,0 Z m 0,0"
         style="fill:#dc302e;fill-opacity:1;fill-rule:nonzero;stroke:none" />
      <path
         style="opacity:0.35;fill:#000000;fill-opacity:1;fill-rule:nonzero;stroke:none;filter:url(#filter4185)"
         d="m 37.72725,1.2727492 0,15.2265618 c 0,1.347657 1.410156,2.773438 2.757812,2.773438 l 15.226563,0 -1,-1 -13.984375,0 c -1.108,0 -2,-0.892 -2,-2 l 0,-13.9999998 -1,-1 z"
         id="path4183"
         inkscape:connector-curvature="0"
         transform="matrix(1.0025082,0,0,0.97195189,-0.11718099,0.56622908)" />
      <path
         inkscape:connector-curvature="0"
         id="path9"
         d="M 38,0 55.984375,18 40.757812,18 C 39.410156,18 38,16.574219 38,15.226562 Z m 0,0"
         style="fill:#ea8180;fill-opacity:1;fill-rule:nonzero;stroke:none" />
      <path
         style="opacity:0.5;fill:#ffffff;fill-opacity:1;fill-rule:nonzero;stroke:none"
         d="M 10.671875,0 C 9.2968754,0 8.0000004,1.3554695 8.0000004,2.7890625 l 0,1 C 8.0000004,2.3554695 9.2968754,1 10.671875,1 L 38,1 38,0 10.671875,0 Z"
         id="path4160"
         inkscape:connector-curvature="0" />
      <path
         style="opacity:0.15;fill:#000000;fill-opacity:1;fill-rule:nonzero;stroke:none"
         d="m 8.0000004,60.210938 0,1 c 0,1.355468 1.375,2.789062 2.6718746,2.789062 L 53.32812,64 C 54.62499,64 56,62.566406 56,61.210938 l 0,-1 C 56,61.566406 54.62499,63 53.32812,63 L 10.671875,63 C 9.3750004,63 8.0000004,61.566406 8.0000004,60.210938 Z"
         id="path4178"
         inkscape:connector-curvature="0" />
    </g>
    <g
       id="surface1">
      <path
         style="stroke:none;fill-rule:evenodd;fill:#000000;fill-opacity:1;opacity:0.35;filter:url(#filter4167)"
         d="M 19.390625 44.941406 L 20.089844 50.296875 C 20.089844 50.296875 29.308594 53.207031 33.9375 40 L 42 40 L 42 34.101562 L 36.976562 34.101562 C 36.976562 34.101562 39.320312 27.953125 44.511719 27.429688 C 44.511719 27.300781 43.949219 22.332031 43.949219 22.332031 C 43.949219 22.332031 35.394531 21.152344 30.191406 33.835938 C 25.703125 46.25 19.390625 44.941406 19.390625 44.941406 Z M 19.390625 44.941406 "
         id="path4165" />
      <path
         id="path7"
         d="M 19.390625 44.941406 L 20.089844 50.296875 C 20.089844 50.296875 29.308594 53.207031 33.9375 40 L 42 40 L 42 34.101562 L 36.976562 34.101562 C 36.976562 34.101562 39.320312 27.953125 44.511719 27.429688 C 44.511719 27.300781 43.949219 22.332031 43.949219 22.332031 C 43.949219 22.332031 35.394531 21.152344 30.191406 33.835938 C 25.703125 46.25 19.390625 44.941406 19.390625 44.941406 Z M 19.390625 44.941406 "
         style=" stroke:none;fill-rule:evenodd;fill:rgb(100%,100%,100%);fill-opacity:1;" />
    </g>
  </g>
</svg>
