<?xml version="1.0" encoding="UTF-8" standalone="no"?>
<svg
   xmlns:dc="http://purl.org/dc/elements/1.1/"
   xmlns:cc="http://creativecommons.org/ns#"
   xmlns:rdf="http://www.w3.org/1999/02/22-rdf-syntax-ns#"
   xmlns:svg="http://www.w3.org/2000/svg"
   xmlns="http://www.w3.org/2000/svg"
   xmlns:sodipodi="http://sodipodi.sourceforge.net/DTD/sodipodi-0.dtd"
   xmlns:inkscape="http://www.inkscape.org/namespaces/inkscape"
   width="64px"
   height="64px"
   viewBox="0 0 64 64"
   version="1.1"
   id="svg2"
   inkscape:version="0.91 r13725"
   sodipodi:docname="application-vnd.oasis.opendocument.chart.svg">
  <metadata
     id="metadata31">
    <rdf:RDF>
      <cc:Work
         rdf:about="">
        <dc:format>image/svg+xml</dc:format>
        <dc:type
           rdf:resource="http://purl.org/dc/dcmitype/StillImage" />
      </cc:Work>
    </rdf:RDF>
  </metadata>
  <defs
     id="defs29">
    <filter
       inkscape:collect="always"
       style="color-interpolation-filters:sRGB"
       id="filter4185-75"
       x="-0.096041702"
       width="1.1920834"
       y="-0.09595833"
       height="1.1919167">
      <feGaussianBlur
         inkscape:collect="always"
         stdDeviation="0.7196875"
         id="feGaussianBlur4187-85" />
    </filter>
    <filter
       inkscape:collect="always"
       style="color-interpolation-filters:sRGB"
       id="filter4221"
       x="-0.11853382"
       width="1.2370676"
       y="-0.080665179"
       height="1.1613304">
      <feGaussianBlur
         inkscape:collect="always"
         stdDeviation="1.4116406"
         id="feGaussianBlur4223" />
    </filter>
  </defs>
  <sodipodi:namedview
     pagecolor="#ffffff"
     bordercolor="#666666"
     borderopacity="1"
     objecttolerance="10"
     gridtolerance="10"
     guidetolerance="10"
     inkscape:pageopacity="0"
     inkscape:pageshadow="2"
     inkscape:window-width="1301"
     inkscape:window-height="744"
     id="namedview27"
     showgrid="false"
     inkscape:zoom="3.6875"
     inkscape:cx="44.065106"
     inkscape:cy="-3.2814929"
     inkscape:window-x="65"
     inkscape:window-y="24"
     inkscape:window-maximized="1"
     inkscape:current-layer="svg2" />
  <g
     id="g3361">
    <g
       transform="translate(-332.69401,-253.98082)"
       id="g3768">
      <g
         id="g3770">
        <g
           id="g3772"
           transform="translate(332,253.98082)">
          <path
             inkscape:connector-curvature="0"
             id="path3774"
             d="M 10.671875,0 C 9.296875,0 8,1.355469 8,2.789062 L 8,61.210938 C 8,62.566406 9.375,64 10.671875,64 l 42.65625,0 C 54.625,64 56,62.566406 56,61.210938 L 56,18 38,0 Z m 0,0"
             style="fill:#b8c200;fill-opacity:1;fill-rule:nonzero;stroke:none" />
          <path
             transform="matrix(1,0,0,0.96709914,0,0.63408999)"
             style="opacity:0.35;fill:#000000;fill-opacity:1;fill-rule:nonzero;stroke:none;filter:url(#filter4185-75)"
             d="m 37.72725,1.2727492 0,15.2265618 c 0,1.347657 1.410156,2.773438 2.757812,2.773438 l 15.226563,0 -1,-1 -13.984375,0 c -1.108,0 -2,-0.892 -2,-2 l 0,-13.9999998 -1,-1 z"
             id="path3776"
             inkscape:connector-curvature="0" />
          <path
             inkscape:connector-curvature="0"
             id="path3778"
             d="M 38,0 55.984375,18 40.757812,18 C 39.410156,18 38,16.574219 38,15.226562 Z m 0,0"
             style="fill:#d4da64;fill-opacity:1;fill-rule:nonzero;stroke:none" />
          <path
             style="opacity:0.5;fill:#ffffff;fill-opacity:1;fill-rule:nonzero;stroke:none"
             d="M 10.671875,2.0000001e-8 C 9.2968752,2.0000001e-8 8.0000002,1.3554695 8.0000002,2.7890625 l 0,1 C 8.0000002,2.3554695 9.2968752,1 10.671875,1 L 38,1 38,2e-8 l -27.328125,0 z"
             id="path3780"
             inkscape:connector-curvature="0" />
          <path
             style="opacity:0.15;fill:#000000;fill-opacity:1;fill-rule:nonzero;stroke:none"
             d="m 8.0000002,60.210938 0,1 c 0,1.355468 1.375,2.789062 2.6718748,2.789062 L 53.32812,64 C 54.62499,64 56,62.566406 56,61.210938 l 0,-1 C 56,61.566406 54.62499,63 53.32812,63 L 10.671875,63 C 9.3750002,63 8.0000002,61.566406 8.0000002,60.210938 Z"
             id="path3782"
             inkscape:connector-curvature="0" />
        </g>
        <path
           inkscape:connector-curvature="0"
           id="path3784"
           d="m 339.94915,301.94915 0,13.33594 c 0,1.29687 1.375,2.66406 2.66406,2.66406 l 42.67188,0 c 1.28906,0 2.66406,-1.36719 2.66406,-2.66406 l 0,-13.33594 z m 0,0"
           style="fill:#000000;fill-opacity:0.19607801;fill-rule:nonzero;stroke:none" />
      </g>
    </g>
    <g
       style="fill:#000000;opacity:0.35;filter:url(#filter4221)"
       id="g3405">
      <path
         style="stroke:none;fill-rule:nonzero;fill:#000000;fill-opacity:1"
         d="M 20.328125 56.28125 C 20.328125 56.816406 20.355469 57.320312 20.386719 57.789062 C 20.445312 58.25 20.539062 58.652344 20.664062 58.996094 C 20.816406 59.335938 21.007812 59.605469 21.257812 59.804688 C 21.511719 60.007812 21.855469 60.109375 22.273438 60.109375 C 22.683594 60.109375 23.015625 60.007812 23.269531 59.804688 C 23.527344 59.605469 23.730469 59.335938 23.863281 58.996094 C 24.003906 58.632812 24.097656 58.230469 24.140625 57.773438 C 24.191406 57.3125 24.214844 56.816406 24.214844 56.28125 C 24.214844 55.753906 24.191406 55.261719 24.140625 54.800781 C 24.097656 54.324219 24.003906 53.921875 23.863281 53.578125 C 23.730469 53.234375 23.535156 52.964844 23.285156 52.765625 C 23.035156 52.5625 22.699219 52.464844 22.273438 52.464844 C 21.855469 52.464844 21.511719 52.5625 21.257812 52.765625 C 21.007812 52.964844 20.816406 53.242188 20.664062 53.59375 C 20.539062 53.9375 20.445312 54.339844 20.386719 54.800781 C 20.355469 55.261719 20.328125 55.753906 20.328125 56.28125 M 17.851562 56.28125 C 17.851562 54.398438 18.246094 52.972656 19.023438 52.019531 C 19.800781 51.046875 20.890625 50.570312 22.273438 50.570312 C 23.710938 50.570312 24.808594 51.046875 25.5625 52.019531 C 26.316406 52.972656 26.691406 54.398438 26.691406 56.28125 C 26.691406 58.171875 26.308594 59.597656 25.546875 60.566406 C 24.777344 61.523438 23.695312 62 22.296875 62 C 20.855469 62 19.753906 61.523438 18.980469 60.566406 C 18.226562 59.597656 17.851562 58.171875 17.851562 56.28125 "
         id="path3407" />
      <path
         style="stroke:none;fill-rule:nonzero;fill:#000000;fill-opacity:1"
         d="M 30.738281 60 C 30.804688 60.015625 30.878906 60.015625 30.953125 60.015625 C 31.03125 60.015625 31.105469 60.015625 31.171875 60.015625 C 31.726562 60.015625 32.195312 59.921875 32.5625 59.730469 C 32.9375 59.546875 33.25 59.289062 33.476562 58.953125 C 33.710938 58.625 33.875 58.242188 33.96875 57.789062 C 34.070312 57.328125 34.128906 56.824219 34.128906 56.28125 C 34.128906 55.8125 34.085938 55.351562 34.011719 54.898438 C 33.925781 54.457031 33.785156 54.0625 33.59375 53.71875 C 33.390625 53.375 33.125 53.109375 32.78125 52.90625 C 32.4375 52.691406 31.992188 52.589844 31.449219 52.589844 C 31.347656 52.589844 31.222656 52.589844 31.097656 52.605469 C 30.964844 52.605469 30.847656 52.613281 30.738281 52.640625 L 30.738281 60 M 36.605469 56.28125 C 36.605469 57.292969 36.457031 58.164062 36.171875 58.886719 C 35.886719 59.597656 35.5 60.175781 35 60.617188 C 34.496094 61.070312 33.894531 61.398438 33.191406 61.605469 C 32.503906 61.808594 31.75 61.90625 30.914062 61.90625 C 30.476562 61.90625 30.050781 61.890625 29.625 61.839844 C 29.214844 61.808594 28.777344 61.742188 28.300781 61.648438 L 28.300781 50.957031 C 28.851562 50.847656 29.371094 50.78125 29.867188 50.746094 C 30.351562 50.714844 30.8125 50.6875 31.230469 50.6875 C 32.035156 50.6875 32.769531 50.796875 33.433594 51.007812 C 34.101562 51.226562 34.671875 51.558594 35.132812 52.019531 C 35.601562 52.472656 35.953125 53.050781 36.203125 53.753906 C 36.472656 54.449219 36.605469 55.292969 36.605469 56.28125 "
         id="path3409" />
      <path
         style="stroke:none;fill-rule:nonzero;fill:#000000;fill-opacity:1"
         d="M 43.003906 62 C 41.269531 62 39.953125 61.507812 39.042969 60.507812 C 38.128906 59.523438 37.667969 58.113281 37.667969 56.28125 C 37.667969 55.378906 37.8125 54.566406 38.089844 53.863281 C 38.363281 53.148438 38.75 52.554688 39.234375 52.070312 C 39.738281 51.578125 40.332031 51.207031 41 50.957031 C 41.6875 50.695312 42.433594 50.570312 43.246094 50.570312 C 43.679688 50.570312 44.066406 50.605469 44.410156 50.671875 C 44.769531 50.730469 45.078125 50.804688 45.339844 50.890625 C 45.605469 50.972656 45.824219 51.058594 46 51.148438 C 46.183594 51.25 46.316406 51.316406 46.410156 51.367188 L 45.78125 53.101562 C 45.472656 52.925781 45.105469 52.773438 44.667969 52.65625 C 44.25 52.53125 43.757812 52.464844 43.203125 52.464844 C 42.820312 52.464844 42.441406 52.53125 42.074219 52.65625 C 41.714844 52.773438 41.394531 52.984375 41.101562 53.277344 C 40.824219 53.558594 40.589844 53.945312 40.40625 54.421875 C 40.238281 54.910156 40.148438 55.511719 40.148438 56.230469 C 40.148438 57.480469 40.390625 58.441406 40.867188 59.113281 C 41.351562 59.773438 42.148438 60.109375 43.246094 60.109375 C 43.875 60.109375 44.402344 60.039062 44.8125 59.914062 C 45.230469 59.78125 45.566406 59.65625 45.816406 59.523438 L 46.433594 61.238281 C 46.09375 61.429688 45.625 61.605469 45.027344 61.773438 C 44.441406 61.925781 43.773438 62 43.003906 62 "
         id="path3411" />
      <path
         style="stroke:none;fill-rule:nonzero;fill:#000000;fill-opacity:1"
         d="M 34 42 L 34 26 L 38 26 L 38 42 Z M 34 42 "
         id="path3413" />
      <path
         style="stroke:none;fill-rule:nonzero;fill:#000000;fill-opacity:1"
         d="M 28 42 L 28 20 L 32 20 L 32 42 Z M 28 42 "
         id="path3415" />
      <path
         style="stroke:none;fill-rule:nonzero;fill:#000000;fill-opacity:1"
         d="M 22 42 L 22 30 L 26 30 L 26 42 Z M 22 42 "
         id="path3417" />
      <path
         style="stroke:none;fill-rule:nonzero;fill:#000000;fill-opacity:1"
         d="M 40 42 L 40 36 L 44 36 L 44 42 Z M 40 42 "
         id="path3419" />
    </g>
    <g
       id="surface1">
      <path
         id="path13"
         d="M 20.328125 56.28125 C 20.328125 56.816406 20.355469 57.320312 20.386719 57.789062 C 20.445312 58.25 20.539062 58.652344 20.664062 58.996094 C 20.816406 59.335938 21.007812 59.605469 21.257812 59.804688 C 21.511719 60.007812 21.855469 60.109375 22.273438 60.109375 C 22.683594 60.109375 23.015625 60.007812 23.269531 59.804688 C 23.527344 59.605469 23.730469 59.335938 23.863281 58.996094 C 24.003906 58.632812 24.097656 58.230469 24.140625 57.773438 C 24.191406 57.3125 24.214844 56.816406 24.214844 56.28125 C 24.214844 55.753906 24.191406 55.261719 24.140625 54.800781 C 24.097656 54.324219 24.003906 53.921875 23.863281 53.578125 C 23.730469 53.234375 23.535156 52.964844 23.285156 52.765625 C 23.035156 52.5625 22.699219 52.464844 22.273438 52.464844 C 21.855469 52.464844 21.511719 52.5625 21.257812 52.765625 C 21.007812 52.964844 20.816406 53.242188 20.664062 53.59375 C 20.539062 53.9375 20.445312 54.339844 20.386719 54.800781 C 20.355469 55.261719 20.328125 55.753906 20.328125 56.28125 M 17.851562 56.28125 C 17.851562 54.398438 18.246094 52.972656 19.023438 52.019531 C 19.800781 51.046875 20.890625 50.570312 22.273438 50.570312 C 23.710938 50.570312 24.808594 51.046875 25.5625 52.019531 C 26.316406 52.972656 26.691406 54.398438 26.691406 56.28125 C 26.691406 58.171875 26.308594 59.597656 25.546875 60.566406 C 24.777344 61.523438 23.695312 62 22.296875 62 C 20.855469 62 19.753906 61.523438 18.980469 60.566406 C 18.226562 59.597656 17.851562 58.171875 17.851562 56.28125 "
         style=" stroke:none;fill-rule:nonzero;fill:rgb(100%,100%,100%);fill-opacity:1;" />
      <path
         id="path15"
         d="M 30.738281 60 C 30.804688 60.015625 30.878906 60.015625 30.953125 60.015625 C 31.03125 60.015625 31.105469 60.015625 31.171875 60.015625 C 31.726562 60.015625 32.195312 59.921875 32.5625 59.730469 C 32.9375 59.546875 33.25 59.289062 33.476562 58.953125 C 33.710938 58.625 33.875 58.242188 33.96875 57.789062 C 34.070312 57.328125 34.128906 56.824219 34.128906 56.28125 C 34.128906 55.8125 34.085938 55.351562 34.011719 54.898438 C 33.925781 54.457031 33.785156 54.0625 33.59375 53.71875 C 33.390625 53.375 33.125 53.109375 32.78125 52.90625 C 32.4375 52.691406 31.992188 52.589844 31.449219 52.589844 C 31.347656 52.589844 31.222656 52.589844 31.097656 52.605469 C 30.964844 52.605469 30.847656 52.613281 30.738281 52.640625 L 30.738281 60 M 36.605469 56.28125 C 36.605469 57.292969 36.457031 58.164062 36.171875 58.886719 C 35.886719 59.597656 35.5 60.175781 35 60.617188 C 34.496094 61.070312 33.894531 61.398438 33.191406 61.605469 C 32.503906 61.808594 31.75 61.90625 30.914062 61.90625 C 30.476562 61.90625 30.050781 61.890625 29.625 61.839844 C 29.214844 61.808594 28.777344 61.742188 28.300781 61.648438 L 28.300781 50.957031 C 28.851562 50.847656 29.371094 50.78125 29.867188 50.746094 C 30.351562 50.714844 30.8125 50.6875 31.230469 50.6875 C 32.035156 50.6875 32.769531 50.796875 33.433594 51.007812 C 34.101562 51.226562 34.671875 51.558594 35.132812 52.019531 C 35.601562 52.472656 35.953125 53.050781 36.203125 53.753906 C 36.472656 54.449219 36.605469 55.292969 36.605469 56.28125 "
         style=" stroke:none;fill-rule:nonzero;fill:rgb(100%,100%,100%);fill-opacity:1;" />
      <path
         id="path17"
         d="M 43.003906 62 C 41.269531 62 39.953125 61.507812 39.042969 60.507812 C 38.128906 59.523438 37.667969 58.113281 37.667969 56.28125 C 37.667969 55.378906 37.8125 54.566406 38.089844 53.863281 C 38.363281 53.148438 38.75 52.554688 39.234375 52.070312 C 39.738281 51.578125 40.332031 51.207031 41 50.957031 C 41.6875 50.695312 42.433594 50.570312 43.246094 50.570312 C 43.679688 50.570312 44.066406 50.605469 44.410156 50.671875 C 44.769531 50.730469 45.078125 50.804688 45.339844 50.890625 C 45.605469 50.972656 45.824219 51.058594 46 51.148438 C 46.183594 51.25 46.316406 51.316406 46.410156 51.367188 L 45.78125 53.101562 C 45.472656 52.925781 45.105469 52.773438 44.667969 52.65625 C 44.25 52.53125 43.757812 52.464844 43.203125 52.464844 C 42.820312 52.464844 42.441406 52.53125 42.074219 52.65625 C 41.714844 52.773438 41.394531 52.984375 41.101562 53.277344 C 40.824219 53.558594 40.589844 53.945312 40.40625 54.421875 C 40.238281 54.910156 40.148438 55.511719 40.148438 56.230469 C 40.148438 57.480469 40.390625 58.441406 40.867188 59.113281 C 41.351562 59.773438 42.148438 60.109375 43.246094 60.109375 C 43.875 60.109375 44.402344 60.039062 44.8125 59.914062 C 45.230469 59.78125 45.566406 59.65625 45.816406 59.523438 L 46.433594 61.238281 C 46.09375 61.429688 45.625 61.605469 45.027344 61.773438 C 44.441406 61.925781 43.773438 62 43.003906 62 "
         style=" stroke:none;fill-rule:nonzero;fill:rgb(100%,100%,100%);fill-opacity:1;" />
      <path
         id="path19"
         d="M 34 42 L 34 26 L 38 26 L 38 42 Z M 34 42 "
         style=" stroke:none;fill-rule:nonzero;fill:rgb(100%,100%,100%);fill-opacity:1;" />
      <path
         id="path21"
         d="M 28 42 L 28 20 L 32 20 L 32 42 Z M 28 42 "
         style=" stroke:none;fill-rule:nonzero;fill:rgb(100%,100%,100%);fill-opacity:1;" />
      <path
         id="path23"
         d="M 22 42 L 22 30 L 26 30 L 26 42 Z M 22 42 "
         style=" stroke:none;fill-rule:nonzero;fill:rgb(100%,100%,100%);fill-opacity:1;" />
      <path
         id="path25"
         d="M 40 42 L 40 36 L 44 36 L 44 42 Z M 40 42 "
         style=" stroke:none;fill-rule:nonzero;fill:rgb(100%,100%,100%);fill-opacity:1;" />
    </g>
  </g>
</svg>
