<?xml version="1.0" encoding="UTF-8" standalone="no"?>
<svg
   xmlns:dc="http://purl.org/dc/elements/1.1/"
   xmlns:cc="http://creativecommons.org/ns#"
   xmlns:rdf="http://www.w3.org/1999/02/22-rdf-syntax-ns#"
   xmlns:svg="http://www.w3.org/2000/svg"
   xmlns="http://www.w3.org/2000/svg"
   xmlns:sodipodi="http://sodipodi.sourceforge.net/DTD/sodipodi-0.dtd"
   xmlns:inkscape="http://www.inkscape.org/namespaces/inkscape"
   width="64px"
   height="64px"
   viewBox="0 0 64 64"
   version="1.1"
   id="svg2"
   inkscape:version="0.91 r13725"
   sodipodi:docname="application-presentation.svg">
  <metadata
     id="metadata25">
    <rdf:RDF>
      <cc:Work
         rdf:about="">
        <dc:format>image/svg+xml</dc:format>
        <dc:type
           rdf:resource="http://purl.org/dc/dcmitype/StillImage" />
      </cc:Work>
    </rdf:RDF>
  </metadata>
  <defs
     id="defs23">
    <filter
       inkscape:collect="always"
       style="color-interpolation-filters:sRGB"
       id="filter4185-75"
       x="-0.096041702"
       width="1.1920834"
       y="-0.09595833"
       height="1.1919167">
      <feGaussianBlur
         inkscape:collect="always"
         stdDeviation="0.7196875"
         id="feGaussianBlur4187-85" />
    </filter>
    <filter
       inkscape:collect="always"
       style="color-interpolation-filters:sRGB"
       id="filter4206"
       x="-0.084023438"
       width="1.1680469"
       y="-0.11195836"
       height="1.2239167">
      <feGaussianBlur
         inkscape:collect="always"
         stdDeviation="1.1203125"
         id="feGaussianBlur4208" />
    </filter>
  </defs>
  <sodipodi:namedview
     pagecolor="#ffffff"
     bordercolor="#666666"
     borderopacity="1"
     objecttolerance="10"
     gridtolerance="10"
     guidetolerance="10"
     inkscape:pageopacity="0"
     inkscape:pageshadow="2"
     inkscape:window-width="1301"
     inkscape:window-height="744"
     id="namedview21"
     showgrid="false"
     inkscape:zoom="5.2149125"
     inkscape:cx="33.270859"
     inkscape:cy="15.274821"
     inkscape:window-x="65"
     inkscape:window-y="24"
     inkscape:window-maximized="1"
     inkscape:current-layer="svg2" />
  <g
     id="g3354">
    <g
       transform="translate(-0.71943709,0.22725036)"
       id="g4928">
      <path
         style="fill:#cf4523;fill-opacity:1;fill-rule:nonzero;stroke:none"
         d="M 10.671875,0 C 9.296875,0 8,1.355469 8,2.789062 L 8,61.210938 C 8,62.566406 9.375,64 10.671875,64 l 42.65625,0 C 54.625,64 56,62.566406 56,61.210938 L 56,18 38,0 Z m 0,0"
         id="path4930"
         inkscape:connector-curvature="0" />
      <path
         inkscape:connector-curvature="0"
         id="path4932"
         d="m 37.72725,1.2727492 0,15.2265618 c 0,1.347657 1.410156,2.773438 2.757812,2.773438 l 15.226563,0 -1,-1 -13.984375,0 c -1.108,0 -2,-0.892 -2,-2 l 0,-13.9999998 -1,-1 z"
         style="opacity:0.35;fill:#000000;fill-opacity:1;fill-rule:nonzero;stroke:none;filter:url(#filter4185-75)" />
      <path
         style="fill:#e28e79;fill-opacity:1;fill-rule:nonzero;stroke:none"
         d="M 38,0 55.984375,18 40.757812,18 C 39.410156,18 38,16.574219 38,15.226562 Z m 0,0"
         id="path4934"
         inkscape:connector-curvature="0" />
      <path
         inkscape:connector-curvature="0"
         id="path4936"
         d="M 10.671875,2.0000001e-8 C 9.2968752,2.0000001e-8 8.0000002,1.3554695 8.0000002,2.7890625 l 0,1 C 8.0000002,2.3554695 9.2968752,1 10.671875,1 L 38,1 38,2e-8 l -27.328125,0 z"
         style="opacity:0.5;fill:#ffffff;fill-opacity:1;fill-rule:nonzero;stroke:none" />
      <path
         inkscape:connector-curvature="0"
         id="path4938"
         d="m 8.0000002,60.210938 0,1 c 0,1.355468 1.375,2.789062 2.6718748,2.789062 L 53.32812,64 C 54.62499,64 56,62.566406 56,61.210938 l 0,-1 C 56,61.566406 54.62499,63 53.32812,63 L 10.671875,63 C 9.3750002,63 8.0000002,61.566406 8.0000002,60.210938 Z"
         style="opacity:0.15;fill:#000000;fill-opacity:1;fill-rule:nonzero;stroke:none" />
    </g>
    <g
       style="fill:#000000;opacity:0.35;filter:url(#filter4206)"
       id="g4190">
      <path
         style="stroke:none;fill-rule:nonzero;fill:#000000;fill-opacity:1"
         d="M 16 24 L 26 24 L 26 30 L 16 30 Z M 16 24 "
         id="path4192" />
      <path
         style="stroke:none;fill-rule:nonzero;fill:#000000;fill-opacity:1"
         d="M 16 34 L 26 34 L 26 40 L 16 40 Z M 16 34 "
         id="path4194" />
      <path
         style="stroke:none;fill-rule:nonzero;fill:#000000;fill-opacity:1"
         d="M 16 44 L 48 44 L 48 46 L 16 46 Z M 16 44 "
         id="path4196" />
      <path
         style="stroke:none;fill-rule:nonzero;fill:#000000;fill-opacity:1"
         d="M 40 21.984375 L 40 30 L 48 30 C 48 25.570312 44.417969 21.984375 40 21.984375 Z M 40 21.984375 "
         id="path4198" />
      <path
         style="stroke:none;fill-rule:nonzero;fill:#000000;fill-opacity:1"
         d="M 38.003906 24 C 33.585938 24 30 27.578125 30 32 C 30 36.421875 33.585938 40 38.003906 40 C 42.421875 40 46 36.421875 46 32 L 38.003906 32 Z M 38.003906 24 "
         id="path4200" />
    </g>
    <g
       id="surface1">
      <path
         id="path11"
         d="M 16 24 L 26 24 L 26 30 L 16 30 Z M 16 24 "
         style=" stroke:none;fill-rule:nonzero;fill:rgb(100%,100%,100%);fill-opacity:1;" />
      <path
         id="path13"
         d="M 16 34 L 26 34 L 26 40 L 16 40 Z M 16 34 "
         style=" stroke:none;fill-rule:nonzero;fill:rgb(100%,100%,100%);fill-opacity:1;" />
      <path
         id="path15"
         d="M 16 44 L 48 44 L 48 46 L 16 46 Z M 16 44 "
         style=" stroke:none;fill-rule:nonzero;fill:rgb(100%,100%,100%);fill-opacity:1;" />
      <path
         id="path17"
         d="M 40 21.984375 L 40 30 L 48 30 C 48 25.570312 44.417969 21.984375 40 21.984375 Z M 40 21.984375 "
         style=" stroke:none;fill-rule:nonzero;fill:rgb(100%,100%,100%);fill-opacity:1;" />
      <path
         id="path19"
         d="M 38.003906 24 C 33.585938 24 30 27.578125 30 32 C 30 36.421875 33.585938 40 38.003906 40 C 42.421875 40 46 36.421875 46 32 L 38.003906 32 Z M 38.003906 24 "
         style=" stroke:none;fill-rule:nonzero;fill:rgb(100%,100%,100%);fill-opacity:1;" />
    </g>
  </g>
</svg>
