<?xml version="1.0" encoding="UTF-8" standalone="no"?>
<svg
   xmlns:dc="http://purl.org/dc/elements/1.1/"
   xmlns:cc="http://creativecommons.org/ns#"
   xmlns:rdf="http://www.w3.org/1999/02/22-rdf-syntax-ns#"
   xmlns:svg="http://www.w3.org/2000/svg"
   xmlns="http://www.w3.org/2000/svg"
   xmlns:sodipodi="http://sodipodi.sourceforge.net/DTD/sodipodi-0.dtd"
   xmlns:inkscape="http://www.inkscape.org/namespaces/inkscape"
   width="64px"
   height="64px"
   viewBox="0 0 64 64"
   version="1.1"
   id="svg2"
   inkscape:version="0.91 r13725"
   sodipodi:docname="application-audio-playlist.svg">
  <metadata
     id="metadata29">
    <rdf:RDF>
      <cc:Work
         rdf:about="">
        <dc:format>image/svg+xml</dc:format>
        <dc:type
           rdf:resource="http://purl.org/dc/dcmitype/StillImage" />
      </cc:Work>
    </rdf:RDF>
  </metadata>
  <defs
     id="defs27">
    <clipPath
       clipPathUnits="userSpaceOnUse"
       id="clipPath4278">
      <path
         sodipodi:nodetypes="ssssssccs"
         style="fill:#e1e1e1;fill-opacity:1;stroke:none"
         d="m 300,196 c -2.216,0 -4,1.784 -4,4 l 0,72 c 0,2.216 1.784,4 4,4 l 56,0 c 2.216,0 4,-1.784 4,-4 l 0,-52 -24,-24 z"
         id="path4280"
         inkscape:connector-curvature="0" />
    </clipPath>
    <filter
       inkscape:collect="always"
       id="filter4293"
       x="-0.1225"
       width="1.245"
       y="-0.1176"
       height="1.2352">
      <feGaussianBlur
         inkscape:collect="always"
         stdDeviation="1.225"
         id="feGaussianBlur4295" />
    </filter>
    <filter
       inkscape:collect="always"
       style="color-interpolation-filters:sRGB"
       id="filter4261"
       x="-0.084841406"
       width="1.1696828"
       y="-0.11053833"
       height="1.2210767">
      <feGaussianBlur
         inkscape:collect="always"
         stdDeviation="1.0133495"
         id="feGaussianBlur4263" />
    </filter>
  </defs>
  <sodipodi:namedview
     pagecolor="#ffffff"
     bordercolor="#666666"
     borderopacity="1"
     objecttolerance="10"
     gridtolerance="10"
     guidetolerance="10"
     inkscape:pageopacity="0"
     inkscape:pageshadow="2"
     inkscape:window-width="1301"
     inkscape:window-height="744"
     id="namedview25"
     showgrid="true"
     inkscape:zoom="3.6875"
     inkscape:cx="52.162109"
     inkscape:cy="31.790156"
     inkscape:window-x="65"
     inkscape:window-y="24"
     inkscape:window-maximized="1"
     inkscape:current-layer="svg2">
    <inkscape:grid
       type="xygrid"
       id="grid4185" />
  </sodipodi:namedview>
  <g
     id="g3361">
    <g
       id="g4904"
       style="display:inline;enable-background:new"
       transform="matrix(0.4,0,0,0.4,-163.2,-43.2)">
      <path
         style="fill:#994a85;fill-opacity:1;stroke:none"
         d="m 432,108 c -4.432,0 -8,3.568 -8,8 l 0,144 c 0,4.432 3.568,8 8,8 l 112,0 c 4.432,0 8,-3.568 8,-8 l 0,-104 -44,-4 -4,-44 z"
         id="rect3322"
         inkscape:connector-curvature="0"
         sodipodi:nodetypes="sssssscccs" />
      <path
         clip-path="url(#clipPath4278)"
         sodipodi:nodetypes="cssccc"
         inkscape:connector-curvature="0"
         style="opacity:0.2;fill:#000000;fill-opacity:1;stroke:none;filter:url(#filter4293)"
         d="m 336,196 0,21 c 0,2.20914 1.79086,4 4,4 l 20,0 0,-1 z"
         id="path4285"
         transform="matrix(2,0,0,2,-168.00009,-284)" />
      <path
         id="path4287"
         d="m 503.99991,108 0,40 c 0,4.41828 3.58172,8 8,8 l 40,0 -48,-48 z"
         style="fill:#ee88d3;fill-opacity:1;stroke:none"
         inkscape:connector-curvature="0" />
      <path
         style="opacity:0.1;fill:#ffffff;fill-opacity:1;stroke:none"
         d="m 432,108 c -4.432,0 -8,3.568 -8,8 l 0,1 c 0,-4.432 3.568,-8 8,-8 l 72,0 0,-1 z"
         id="path4300"
         inkscape:connector-curvature="0"
         sodipodi:nodetypes="sscsccs" />
      <path
         inkscape:connector-curvature="0"
         id="path14320"
         d="m 424,259 0,1 c 0,4.432 3.568,8 8,8 l 112,0 c 4.432,0 8,-3.568 8,-8 l 0,-1 c 0,4.432 -3.568,8 -8,8 l -112,0 c -4.432,0 -8,-3.568 -8,-8 z"
         style="opacity:0.1;fill:#000000;fill-opacity:1;stroke:none" />
    </g>
    <g
       style="fill:#000000;opacity:0.35;filter:url(#filter4261)"
       id="g4245">
      <path
         style="fill:#000000;fill-opacity:1;fill-rule:nonzero;stroke:none"
         d="m 26.9375,26.90625 c -1.554688,0.390625 -2.859375,1.820312 -2.859375,1.820312 l 0.03906,0.03906 2.492187,9.25 c -1.78125,-0.96875 -4.320313,-0.726563 -6.421875,0.796875 -2.71875,1.960938 -3.664062,5.304688 -2.09375,7.460938 1.578125,2.164062 5.046875,2.3125 7.765625,0.351562 C 28,45.070312 29.1875,42.632812 28.757812,40.632812 c -0.0078,-0.0625 -0.03125,-0.125 -0.04687,-0.1875 l -2.390626,-9.242187 c 0.05469,-0.07813 0.757813,-0.398437 3.007813,-0.554687 2.390625,-0.15625 4.007813,-3.984376 4.007813,-3.984376 0,0 -2.6875,1.03125 -4.796876,0.289063 -0.53125,-0.1875 -1.085937,-0.179687 -1.601562,-0.04687 z m 0,0"
         id="path4247"
         inkscape:connector-curvature="0" />
      <path
         style="fill:#000000;fill-opacity:1;fill-rule:nonzero;stroke:none"
         d="m 36,28 0,-2 10,0 0,2 z m 0,0"
         id="path4249"
         inkscape:connector-curvature="0" />
      <path
         style="fill:#000000;fill-opacity:1;fill-rule:nonzero;stroke:none"
         d="m 30,34 0,2 16,0 0,-2 z m 0,0"
         id="path4251"
         inkscape:connector-curvature="0" />
      <path
         style="fill:#000000;fill-opacity:1;fill-rule:nonzero;stroke:none"
         d="m 34,32 0,-2 12,0 0,2 z m 0,0"
         id="path4253"
         inkscape:connector-curvature="0" />
      <path
         style="fill:#000000;fill-opacity:1;fill-rule:nonzero;stroke:none"
         d="m 32,38 0,2 14,0 0,-2 z m 0,0"
         id="path4255"
         inkscape:connector-curvature="0" />
      <path
         style="fill:#000000;fill-opacity:1;fill-rule:nonzero;stroke:none"
         d="m 32,42 0,2 14,0 0,-2 z m 0,0"
         id="path4257"
         inkscape:connector-curvature="0" />
      <path
         style="fill:#000000;fill-opacity:1;fill-rule:nonzero;stroke:none"
         d="m 30,46 0,2 16,0 0,-2 z m 0,0"
         id="path4259"
         inkscape:connector-curvature="0" />
    </g>
    <g
       id="g4236">
      <path
         inkscape:connector-curvature="0"
         id="path11"
         d="m 26.9375,26.90625 c -1.554688,0.390625 -2.859375,1.820312 -2.859375,1.820312 l 0.03906,0.03906 2.492187,9.25 c -1.78125,-0.96875 -4.320313,-0.726563 -6.421875,0.796875 -2.71875,1.960938 -3.664062,5.304688 -2.09375,7.460938 1.578125,2.164062 5.046875,2.3125 7.765625,0.351562 C 28,45.070312 29.1875,42.632812 28.757812,40.632812 c -0.0078,-0.0625 -0.03125,-0.125 -0.04687,-0.1875 l -2.390626,-9.242187 c 0.05469,-0.07813 0.757813,-0.398437 3.007813,-0.554687 2.390625,-0.15625 4.007813,-3.984376 4.007813,-3.984376 0,0 -2.6875,1.03125 -4.796876,0.289063 -0.53125,-0.1875 -1.085937,-0.179687 -1.601562,-0.04687 z m 0,0"
         style="fill:#ffffff;fill-opacity:1;fill-rule:nonzero;stroke:none" />
      <path
         inkscape:connector-curvature="0"
         id="path13"
         d="m 36,28 0,-2 10,0 0,2 z m 0,0"
         style="fill:#ffffff;fill-opacity:1;fill-rule:nonzero;stroke:none" />
      <path
         inkscape:connector-curvature="0"
         id="path15"
         d="m 30,34 0,2 16,0 0,-2 z m 0,0"
         style="fill:#ffffff;fill-opacity:1;fill-rule:nonzero;stroke:none" />
      <path
         inkscape:connector-curvature="0"
         id="path17"
         d="m 34,32 0,-2 12,0 0,2 z m 0,0"
         style="fill:#ffffff;fill-opacity:1;fill-rule:nonzero;stroke:none" />
      <path
         inkscape:connector-curvature="0"
         id="path19"
         d="m 32,38 0,2 14,0 0,-2 z m 0,0"
         style="fill:#ffffff;fill-opacity:1;fill-rule:nonzero;stroke:none" />
      <path
         inkscape:connector-curvature="0"
         id="path21"
         d="m 32,42 0,2 14,0 0,-2 z m 0,0"
         style="fill:#ffffff;fill-opacity:1;fill-rule:nonzero;stroke:none" />
      <path
         inkscape:connector-curvature="0"
         id="path23"
         d="m 30,46 0,2 16,0 0,-2 z m 0,0"
         style="fill:#ffffff;fill-opacity:1;fill-rule:nonzero;stroke:none" />
    </g>
  </g>
</svg>
