<?xml version="1.0" encoding="UTF-8" standalone="no"?>
<svg
   xmlns:dc="http://purl.org/dc/elements/1.1/"
   xmlns:cc="http://creativecommons.org/ns#"
   xmlns:rdf="http://www.w3.org/1999/02/22-rdf-syntax-ns#"
   xmlns:svg="http://www.w3.org/2000/svg"
   xmlns="http://www.w3.org/2000/svg"
   xmlns:sodipodi="http://sodipodi.sourceforge.net/DTD/sodipodi-0.dtd"
   xmlns:inkscape="http://www.inkscape.org/namespaces/inkscape"
   width="64px"
   height="64px"
   viewBox="0 0 64 64"
   version="1.1"
   id="svg2"
   inkscape:version="0.91 r13725"
   sodipodi:docname="application-database.svg">
  <metadata
     id="metadata21">
    <rdf:RDF>
      <cc:Work
         rdf:about="">
        <dc:format>image/svg+xml</dc:format>
        <dc:type
           rdf:resource="http://purl.org/dc/dcmitype/StillImage" />
      </cc:Work>
    </rdf:RDF>
  </metadata>
  <defs
     id="defs19">
    <filter
       inkscape:collect="always"
       style="color-interpolation-filters:sRGB"
       id="filter4185"
       x="-0.096041702"
       width="1.1920834"
       y="-0.09595833"
       height="1.1919167">
      <feGaussianBlur
         inkscape:collect="always"
         stdDeviation="0.7196875"
         id="feGaussianBlur4187" />
    </filter>
    <filter
       inkscape:collect="always"
       style="color-interpolation-filters:sRGB"
       id="filter4183"
       x="-0.096015624"
       width="1.1920312"
       y="-0.095984381"
       height="1.1919688">
      <feGaussianBlur
         inkscape:collect="always"
         stdDeviation="0.96015624"
         id="feGaussianBlur4185" />
    </filter>
  </defs>
  <sodipodi:namedview
     pagecolor="#ffffff"
     bordercolor="#666666"
     borderopacity="1"
     objecttolerance="10"
     gridtolerance="10"
     guidetolerance="10"
     inkscape:pageopacity="0"
     inkscape:pageshadow="2"
     inkscape:window-width="1301"
     inkscape:window-height="744"
     id="namedview17"
     showgrid="false"
     inkscape:zoom="7.375"
     inkscape:cx="16.674023"
     inkscape:cy="21.565334"
     inkscape:window-x="65"
     inkscape:window-y="24"
     inkscape:window-maximized="1"
     inkscape:current-layer="svg2" />
  <g
     id="g3351">
    <g
       id="g4140"
       transform="translate(-0.73288068,0)">
      <path
         inkscape:connector-curvature="0"
         id="path5"
         d="M 10.671875,0 C 9.296875,0 8,1.355469 8,2.789062 L 8,61.210938 C 8,62.566406 9.375,64 10.671875,64 l 42.65625,0 C 54.625,64 56,62.566406 56,61.210938 L 56,18 38,0 Z m 0,0"
         style="fill:#dc302e;fill-opacity:1;fill-rule:nonzero;stroke:none" />
      <path
         style="opacity:0.35;fill:#000000;fill-opacity:1;fill-rule:nonzero;stroke:none;filter:url(#filter4185)"
         d="m 37.72725,1.2727492 0,15.2265618 c 0,1.347657 1.410156,2.773438 2.757812,2.773438 l 15.226563,0 -1,-1 -13.984375,0 c -1.108,0 -2,-0.892 -2,-2 l 0,-13.9999998 -1,-1 z"
         id="path4183"
         inkscape:connector-curvature="0"
         transform="matrix(1.0025082,0,0,0.97195189,-0.11718099,0.56622908)" />
      <path
         inkscape:connector-curvature="0"
         id="path9"
         d="M 38,0 55.984375,18 40.757812,18 C 39.410156,18 38,16.574219 38,15.226562 Z m 0,0"
         style="fill:#ea8180;fill-opacity:1;fill-rule:nonzero;stroke:none" />
      <path
         style="opacity:0.5;fill:#ffffff;fill-opacity:1;fill-rule:nonzero;stroke:none"
         d="M 10.671875,0 C 9.2968754,0 8.0000004,1.3554695 8.0000004,2.7890625 l 0,1 C 8.0000004,2.3554695 9.2968754,1 10.671875,1 L 38,1 38,0 10.671875,0 Z"
         id="path4160"
         inkscape:connector-curvature="0" />
      <path
         style="opacity:0.15;fill:#000000;fill-opacity:1;fill-rule:nonzero;stroke:none"
         d="m 8.0000004,60.210938 0,1 c 0,1.355468 1.375,2.789062 2.6718746,2.789062 L 53.32812,64 C 54.62499,64 56,62.566406 56,61.210938 l 0,-1 C 56,61.566406 54.62499,63 53.32812,63 L 10.671875,63 C 9.3750004,63 8.0000004,61.566406 8.0000004,60.210938 Z"
         id="path4178"
         inkscape:connector-curvature="0" />
    </g>
    <g
       id="surface1">
      <g
         style="fill:#000000;filter:url(#filter4183);opacity:0.35"
         id="g4174">
        <path
           id="path4176"
           d="M 32 23.992188 C 25.371094 23.992188 20 25.671875 20 27.746094 L 20 30.742188 C 20 32.816406 25.371094 34.496094 32 34.496094 C 38.628906 34.496094 44 32.816406 44 30.742188 L 44 27.746094 C 44 25.671875 38.628906 23.992188 32 23.992188 Z M 32 23.992188 "
           style="stroke:none;fill-rule:nonzero;fill:#000000;fill-opacity:1" />
        <path
           id="path4179"
           d="M 31.964844 35.992188 C 26.585938 35.992188 22.058594 34.890625 20.527344 33.371094 C 20.167969 33.722656 20 34.101562 20 34.496094 L 20 37.496094 C 20 39.570312 25.371094 41.25 32 41.25 C 38.628906 41.25 44 39.570312 44 37.496094 L 44 34.496094 C 44 34.101562 43.789062 33.722656 43.4375 33.371094 C 41.90625 34.890625 37.335938 35.992188 31.964844 35.992188 Z M 31.964844 35.992188 "
           style="stroke:none;fill-rule:nonzero;fill:#000000;fill-opacity:1" />
        <path
           id="path4181"
           d="M 31.964844 42.742188 C 26.585938 42.742188 22.058594 41.644531 20.527344 40.125 C 20.167969 40.476562 20 40.851562 20 41.25 L 20 44.246094 C 20 46.320312 25.371094 48 32 48 C 38.628906 48 44 46.320312 44 44.246094 L 44 41.25 C 44 40.851562 43.789062 40.476562 43.4375 40.125 C 41.90625 41.644531 37.335938 42.742188 31.964844 42.742188 Z M 31.964844 42.742188 "
           style="stroke:none;fill-rule:nonzero;fill:#000000;fill-opacity:1" />
      </g>
      <g
         id="g4169">
        <path
           style=" stroke:none;fill-rule:nonzero;fill:rgb(100%,100%,100%);fill-opacity:1;"
           d="M 32 23.992188 C 25.371094 23.992188 20 25.671875 20 27.746094 L 20 30.742188 C 20 32.816406 25.371094 34.496094 32 34.496094 C 38.628906 34.496094 44 32.816406 44 30.742188 L 44 27.746094 C 44 25.671875 38.628906 23.992188 32 23.992188 Z M 32 23.992188 "
           id="path11" />
        <path
           style=" stroke:none;fill-rule:nonzero;fill:rgb(100%,100%,100%);fill-opacity:1;"
           d="M 31.964844 35.992188 C 26.585938 35.992188 22.058594 34.890625 20.527344 33.371094 C 20.167969 33.722656 20 34.101562 20 34.496094 L 20 37.496094 C 20 39.570312 25.371094 41.25 32 41.25 C 38.628906 41.25 44 39.570312 44 37.496094 L 44 34.496094 C 44 34.101562 43.789062 33.722656 43.4375 33.371094 C 41.90625 34.890625 37.335938 35.992188 31.964844 35.992188 Z M 31.964844 35.992188 "
           id="path13" />
        <path
           style=" stroke:none;fill-rule:nonzero;fill:rgb(100%,100%,100%);fill-opacity:1;"
           d="M 31.964844 42.742188 C 26.585938 42.742188 22.058594 41.644531 20.527344 40.125 C 20.167969 40.476562 20 40.851562 20 41.25 L 20 44.246094 C 20 46.320312 25.371094 48 32 48 C 38.628906 48 44 46.320312 44 44.246094 L 44 41.25 C 44 40.851562 43.789062 40.476562 43.4375 40.125 C 41.90625 41.644531 37.335938 42.742188 31.964844 42.742188 Z M 31.964844 42.742188 "
           id="path15" />
      </g>
    </g>
  </g>
</svg>
