<?xml version="1.0" encoding="UTF-8" standalone="no"?>
<svg
   xmlns:dc="http://purl.org/dc/elements/1.1/"
   xmlns:cc="http://creativecommons.org/ns#"
   xmlns:rdf="http://www.w3.org/1999/02/22-rdf-syntax-ns#"
   xmlns:svg="http://www.w3.org/2000/svg"
   xmlns="http://www.w3.org/2000/svg"
   xmlns:sodipodi="http://sodipodi.sourceforge.net/DTD/sodipodi-0.dtd"
   xmlns:inkscape="http://www.inkscape.org/namespaces/inkscape"
   width="64px"
   height="64px"
   viewBox="0 0 64 64"
   version="1.1"
   id="svg2"
   inkscape:version="0.91 r13725"
   sodipodi:docname="application-audio.svg">
  <metadata
     id="metadata17">
    <rdf:RDF>
      <cc:Work
         rdf:about="">
        <dc:format>image/svg+xml</dc:format>
        <dc:type
           rdf:resource="http://purl.org/dc/dcmitype/StillImage" />
      </cc:Work>
    </rdf:RDF>
  </metadata>
  <defs
     id="defs15">
    <clipPath
       clipPathUnits="userSpaceOnUse"
       id="clipPath4278">
      <path
         sodipodi:nodetypes="ssssssccs"
         style="fill:#e1e1e1;fill-opacity:1;stroke:none"
         d="m 300,196 c -2.216,0 -4,1.784 -4,4 l 0,72 c 0,2.216 1.784,4 4,4 l 56,0 c 2.216,0 4,-1.784 4,-4 l 0,-52 -24,-24 z"
         id="path4280"
         inkscape:connector-curvature="0" />
    </clipPath>
    <filter
       inkscape:collect="always"
       id="filter4293"
       x="-0.1225"
       width="1.245"
       y="-0.1176"
       height="1.2352">
      <feGaussianBlur
         inkscape:collect="always"
         stdDeviation="1.225"
         id="feGaussianBlur4295" />
    </filter>
    <filter
       inkscape:collect="always"
       style="color-interpolation-filters:sRGB"
       id="filter4402"
       x="-0.11200656"
       width="1.2240131"
       y="-0.083996308"
       height="1.1679926">
      <feGaussianBlur
         inkscape:collect="always"
         stdDeviation="0.74678707"
         id="feGaussianBlur4404" />
    </filter>
  </defs>
  <sodipodi:namedview
     pagecolor="#ffffff"
     bordercolor="#666666"
     borderopacity="1"
     objecttolerance="10"
     gridtolerance="10"
     guidetolerance="10"
     inkscape:pageopacity="0"
     inkscape:pageshadow="2"
     inkscape:window-width="1301"
     inkscape:window-height="744"
     id="namedview13"
     showgrid="false"
     inkscape:zoom="10.429825"
     inkscape:cx="36.55273"
     inkscape:cy="23.559025"
     inkscape:window-x="65"
     inkscape:window-y="24"
     inkscape:window-maximized="1"
     inkscape:current-layer="svg2" />
  <g
     id="g4148">
    <g
       id="g4904"
       style="display:inline;enable-background:new"
       transform="matrix(0.4,0,0,0.4,-163.2,-43.2)">
      <path
         style="fill:#b431b4;fill-opacity:1;stroke:none"
         d="m 432,108 c -4.432,0 -8,3.568 -8,8 l 0,144 c 0,4.432 3.568,8 8,8 l 112,0 c 4.432,0 8,-3.568 8,-8 l 0,-104 -44,-4 -4,-44 z"
         id="rect3322"
         inkscape:connector-curvature="0"
         sodipodi:nodetypes="sssssscccs" />
      <path
         clip-path="url(#clipPath4278)"
         sodipodi:nodetypes="cssccc"
         inkscape:connector-curvature="0"
         style="opacity:0.2;fill:#000000;fill-opacity:1;stroke:none;filter:url(#filter4293)"
         d="m 336,196 0,21 c 0,2.20914 1.79086,4 4,4 l 20,0 0,-1 z"
         id="path4285"
         transform="matrix(2,0,0,2,-168.00009,-284)" />
      <path
         id="path4287"
         d="m 503.99991,108 0,40 c 0,4.41828 3.58172,8 8,8 l 40,0 -48,-48 z"
         style="fill:#fd8bfd;fill-opacity:1;stroke:none"
         inkscape:connector-curvature="0" />
      <path
         style="opacity:0.1;fill:#ffffff;fill-opacity:1;stroke:none"
         d="m 432,108 c -4.432,0 -8,3.568 -8,8 l 0,1 c 0,-4.432 3.568,-8 8,-8 l 72,0 0,-1 z"
         id="path4300"
         inkscape:connector-curvature="0"
         sodipodi:nodetypes="sscsccs" />
      <path
         inkscape:connector-curvature="0"
         id="path14320"
         d="m 424,259 0,1 c 0,4.432 3.568,8 8,8 l 112,0 c 4.432,0 8,-3.568 8,-8 l 0,-1 c 0,4.432 -3.568,8 -8,8 l -112,0 c -4.432,0 -8,-3.568 -8,-8 z"
         style="opacity:0.1;fill:#000000;fill-opacity:1;stroke:none" />
    </g>
    <g
       style="fill:#000000;fill-opacity:1;opacity:0.35;filter:url(#filter4402)"
       id="g4169">
      <path
         style="stroke:none;fill-rule:nonzero;fill:#000000;fill-opacity:1"
         d="M 33.601562 26.90625 C 32.046875 27.296875 30.742188 28.726562 30.742188 28.726562 L 30.789062 28.765625 L 33.273438 38.015625 C 31.492188 37.046875 28.953125 37.289062 26.851562 38.8125 C 24.132812 40.773438 23.1875 44.117188 24.757812 46.273438 C 26.335938 48.4375 29.804688 48.585938 32.523438 46.625 C 34.664062 45.070312 35.859375 42.632812 35.429688 40.632812 C 35.414062 40.570312 35.390625 40.507812 35.375 40.445312 L 32.992188 31.203125 C 33.046875 31.125 33.742188 30.804688 36 30.648438 C 38.382812 30.492188 40 26.664062 40 26.664062 C 40 26.664062 37.3125 27.695312 35.203125 26.953125 C 34.671875 26.765625 34.117188 26.773438 33.601562 26.90625 Z M 33.601562 26.90625 "
         id="path4171" />
    </g>
    <g
       id="surface1">
      <path
         id="path11"
         d="M 33.601562 26.90625 C 32.046875 27.296875 30.742188 28.726562 30.742188 28.726562 L 30.789062 28.765625 L 33.273438 38.015625 C 31.492188 37.046875 28.953125 37.289062 26.851562 38.8125 C 24.132812 40.773438 23.1875 44.117188 24.757812 46.273438 C 26.335938 48.4375 29.804688 48.585938 32.523438 46.625 C 34.664062 45.070312 35.859375 42.632812 35.429688 40.632812 C 35.414062 40.570312 35.390625 40.507812 35.375 40.445312 L 32.992188 31.203125 C 33.046875 31.125 33.742188 30.804688 36 30.648438 C 38.382812 30.492188 40 26.664062 40 26.664062 C 40 26.664062 37.3125 27.695312 35.203125 26.953125 C 34.671875 26.765625 34.117188 26.773438 33.601562 26.90625 Z M 33.601562 26.90625 "
         style=" stroke:none;fill-rule:nonzero;fill:rgb(100%,100%,100%);fill-opacity:1;" />
    </g>
  </g>
</svg>
