<?xml version="1.0" encoding="UTF-8" standalone="no"?>
<svg
   xmlns:dc="http://purl.org/dc/elements/1.1/"
   xmlns:cc="http://creativecommons.org/ns#"
   xmlns:rdf="http://www.w3.org/1999/02/22-rdf-syntax-ns#"
   xmlns:svg="http://www.w3.org/2000/svg"
   xmlns="http://www.w3.org/2000/svg"
   xmlns:sodipodi="http://sodipodi.sourceforge.net/DTD/sodipodi-0.dtd"
   xmlns:inkscape="http://www.inkscape.org/namespaces/inkscape"
   width="64px"
   height="64px"
   viewBox="0 0 64 64"
   version="1.1"
   id="svg2"
   inkscape:version="0.91 r13725"
   sodipodi:docname="application-x-deb.svg">
  <metadata
     id="metadata21">
    <rdf:RDF>
      <cc:Work
         rdf:about="">
        <dc:format>image/svg+xml</dc:format>
        <dc:type
           rdf:resource="http://purl.org/dc/dcmitype/StillImage" />
      </cc:Work>
    </rdf:RDF>
  </metadata>
  <defs
     id="defs19">
    <filter
       inkscape:collect="always"
       style="color-interpolation-filters:sRGB"
       id="filter4163"
       x="-0.168"
       width="1.336"
       y="-0.067199998"
       height="1.1344">
      <feGaussianBlur
         inkscape:collect="always"
         stdDeviation="0.56"
         id="feGaussianBlur4165" />
    </filter>
    <filter
       inkscape:collect="always"
       style="color-interpolation-filters:sRGB"
       id="filter4179"
       x="-0.067191563"
       width="1.1343831"
       y="-0.16805276"
       height="1.3361055">
      <feGaussianBlur
         inkscape:collect="always"
         stdDeviation="0.74671876"
         id="feGaussianBlur4181" />
    </filter>
  </defs>
  <sodipodi:namedview
     pagecolor="#ffffff"
     bordercolor="#666666"
     borderopacity="1"
     objecttolerance="10"
     gridtolerance="10"
     guidetolerance="10"
     inkscape:pageopacity="0"
     inkscape:pageshadow="2"
     inkscape:window-width="1301"
     inkscape:window-height="744"
     id="namedview17"
     showgrid="false"
     inkscape:zoom="7.375"
     inkscape:cx="18.76682"
     inkscape:cy="27.029656"
     inkscape:window-x="65"
     inkscape:window-y="24"
     inkscape:window-maximized="1"
     inkscape:current-layer="svg2" />
  <g
     id="g4151">
    <g
       id="surface1-0">
      <path
         inkscape:connector-curvature="0"
         style="fill:#f2c683;fill-opacity:1;fill-rule:nonzero;stroke:none"
         d="M 10.742188,7 C 9.375,7 8,8.375 8,9.742188 l 0,42.59375 C 8,53.625 9.375,55 10.664062,55 l 42.671876,0 C 54.625,55 56,53.625 56,52.335938 L 56,9.664062 C 56,8.375 54.625,7 53.335938,7 Z m 0,0"
         id="path4155" />
      <path
         inkscape:connector-curvature="0"
         style="fill:#997439;fill-opacity:1;fill-rule:nonzero;stroke:none"
         d="M 10.742188,9 C 9.375,9 8,10.375 8,11.742188 l 0,42.59375 C 8,55.625 9.375,57 10.664062,57 l 42.671876,0 C 54.625,57 56,55.625 56,54.335938 L 56,11.664062 C 56,10.375 54.625,9 53.335938,9 Z m 0,0"
         id="path4151" />
      <path
         id="path5"
         d="M 10.742188,8 C 9.375,8 8,9.375 8,10.742188 l 0,42.59375 C 8,54.625 9.375,56 10.664062,56 l 42.671876,0 C 54.625,56 56,54.625 56,53.335938 L 56,10.664062 C 56,9.375 54.625,8 53.335938,8 Z m 0,0"
         style="fill:#bf9451;fill-opacity:1;fill-rule:nonzero;stroke:none"
         inkscape:connector-curvature="0" />
      <path
         id="path7"
         d="M 10.742188,8 C 9.375,8 8,9.375 8,10.742188 L 8,24 c 5.335938,0 42.664062,0 48,0 L 56,10.664062 C 56,9.375 54.625,8 53.335938,8 Z m 0,0"
         style="fill:#ffffff;fill-opacity:0.19607801;fill-rule:nonzero;stroke:none"
         inkscape:connector-curvature="0" />
      <path
         style="opacity:0.5;fill:#a05a2c;fill-opacity:1;fill-rule:nonzero;stroke:none;filter:url(#filter4163)"
         d="m 28,14 0,20 8,0 0,-20 z m 0,0"
         id="path4157"
         inkscape:connector-curvature="0" />
      <path
         id="path9"
         d="m 28,14 0,20 8,0 0,-20 z m 0,0"
         style="fill:#ffffff;fill-opacity:1;fill-rule:nonzero;stroke:none"
         inkscape:connector-curvature="0" />
    </g>
    <g
       style="fill:#000000;opacity:0.35;filter:url(#filter4179)"
       id="g4171">
      <path
         style="stroke:none;fill-rule:nonzero;fill:#000000;fill-opacity:1"
         d="M 20.984375 48.851562 C 21.046875 48.859375 21.117188 48.867188 21.195312 48.867188 C 21.265625 48.867188 21.335938 48.867188 21.398438 48.867188 C 21.929688 48.867188 22.367188 48.773438 22.71875 48.59375 C 23.085938 48.414062 23.375 48.171875 23.585938 47.859375 C 23.8125 47.539062 23.96875 47.171875 24.054688 46.75 C 24.15625 46.3125 24.210938 45.835938 24.210938 45.320312 C 24.210938 44.867188 24.171875 44.429688 24.09375 44.007812 C 24.015625 43.578125 23.890625 43.203125 23.695312 42.875 C 23.507812 42.554688 23.25 42.296875 22.929688 42.101562 C 22.601562 41.898438 22.179688 41.796875 21.664062 41.796875 C 21.5625 41.796875 21.453125 41.804688 21.320312 41.820312 C 21.195312 41.820312 21.085938 41.828125 20.984375 41.851562 L 20.984375 48.851562 M 26.5625 45.320312 C 26.5625 46.28125 26.421875 47.101562 26.148438 47.789062 C 25.882812 48.460938 25.515625 49.015625 25.039062 49.4375 C 24.5625 49.867188 23.984375 50.179688 23.320312 50.382812 C 22.671875 50.570312 21.945312 50.664062 21.15625 50.664062 C 20.742188 50.664062 20.328125 50.640625 19.929688 50.601562 C 19.539062 50.5625 19.117188 50.507812 18.664062 50.414062 L 18.664062 40.25 C 19.195312 40.148438 19.6875 40.085938 20.15625 40.046875 C 20.617188 40.015625 21.054688 40 21.453125 40 C 22.21875 40 22.921875 40.101562 23.546875 40.304688 C 24.1875 40.507812 24.726562 40.828125 25.171875 41.265625 C 25.609375 41.6875 25.945312 42.234375 26.1875 42.914062 C 26.4375 43.570312 26.5625 44.375 26.5625 45.320312 "
         id="path4173" />
      <path
         style="stroke:none;fill-rule:nonzero;fill:#000000;fill-opacity:1"
         d="M 28.257812 50.53125 L 28.257812 40.117188 L 35.328125 40.117188 L 35.328125 41.835938 L 30.578125 41.835938 L 30.578125 44.171875 L 34.703125 44.171875 L 34.703125 45.890625 L 30.578125 45.890625 L 30.578125 48.8125 L 35.742188 48.8125 L 35.742188 50.53125 L 28.257812 50.53125 "
         id="path4175" />
      <path
         style="stroke:none;fill-rule:nonzero;fill:#000000;fill-opacity:1"
         d="M 45.335938 47.382812 C 45.335938 48.015625 45.210938 48.539062 44.976562 48.96875 C 44.734375 49.382812 44.40625 49.71875 43.992188 49.976562 C 43.59375 50.226562 43.109375 50.40625 42.546875 50.515625 C 41.992188 50.617188 41.398438 50.664062 40.757812 50.664062 C 40.242188 50.664062 39.703125 50.640625 39.148438 50.585938 C 38.601562 50.539062 38.054688 50.460938 37.515625 50.367188 L 37.515625 40.25 C 37.953125 40.1875 38.4375 40.132812 38.960938 40.085938 C 39.492188 40.03125 40.015625 40 40.53125 40 C 41.40625 40 42.125 40.085938 42.679688 40.25 C 43.226562 40.40625 43.664062 40.625 43.976562 40.890625 C 44.289062 41.148438 44.507812 41.4375 44.617188 41.765625 C 44.726562 42.09375 44.789062 42.414062 44.789062 42.742188 C 44.789062 43.234375 44.648438 43.671875 44.375 44.054688 C 44.109375 44.4375 43.75 44.742188 43.296875 44.960938 C 44.085938 45.21875 44.625 45.570312 44.898438 46.007812 C 45.1875 46.445312 45.335938 46.90625 45.335938 47.382812 M 39.828125 45.96875 L 39.828125 48.796875 C 39.992188 48.820312 40.171875 48.835938 40.359375 48.851562 C 40.5625 48.859375 40.757812 48.867188 40.945312 48.867188 C 41.203125 48.867188 41.460938 48.851562 41.71875 48.8125 C 41.96875 48.773438 42.1875 48.695312 42.375 48.59375 C 42.578125 48.484375 42.742188 48.335938 42.867188 48.140625 C 42.992188 47.9375 43.054688 47.6875 43.054688 47.382812 C 43.054688 46.882812 42.867188 46.523438 42.507812 46.3125 C 42.15625 46.085938 41.679688 45.96875 41.078125 45.96875 L 39.828125 45.96875 M 40.734375 44.257812 C 41.328125 44.257812 41.773438 44.140625 42.070312 43.921875 C 42.375 43.6875 42.523438 43.367188 42.523438 42.960938 C 42.523438 42.710938 42.484375 42.515625 42.390625 42.375 C 42.304688 42.21875 42.1875 42.09375 42.039062 42.015625 C 41.882812 41.929688 41.710938 41.875 41.507812 41.851562 C 41.304688 41.820312 41.101562 41.796875 40.882812 41.796875 C 40.710938 41.796875 40.53125 41.804688 40.335938 41.820312 C 40.148438 41.828125 39.984375 41.84375 39.828125 41.867188 L 39.828125 44.257812 L 40.734375 44.257812 "
         id="path4177" />
    </g>
    <g
       id="surface1">
      <path
         id="path11"
         d="M 20.984375 48.851562 C 21.046875 48.859375 21.117188 48.867188 21.195312 48.867188 C 21.265625 48.867188 21.335938 48.867188 21.398438 48.867188 C 21.929688 48.867188 22.367188 48.773438 22.71875 48.59375 C 23.085938 48.414062 23.375 48.171875 23.585938 47.859375 C 23.8125 47.539062 23.96875 47.171875 24.054688 46.75 C 24.15625 46.3125 24.210938 45.835938 24.210938 45.320312 C 24.210938 44.867188 24.171875 44.429688 24.09375 44.007812 C 24.015625 43.578125 23.890625 43.203125 23.695312 42.875 C 23.507812 42.554688 23.25 42.296875 22.929688 42.101562 C 22.601562 41.898438 22.179688 41.796875 21.664062 41.796875 C 21.5625 41.796875 21.453125 41.804688 21.320312 41.820312 C 21.195312 41.820312 21.085938 41.828125 20.984375 41.851562 L 20.984375 48.851562 M 26.5625 45.320312 C 26.5625 46.28125 26.421875 47.101562 26.148438 47.789062 C 25.882812 48.460938 25.515625 49.015625 25.039062 49.4375 C 24.5625 49.867188 23.984375 50.179688 23.320312 50.382812 C 22.671875 50.570312 21.945312 50.664062 21.15625 50.664062 C 20.742188 50.664062 20.328125 50.640625 19.929688 50.601562 C 19.539062 50.5625 19.117188 50.507812 18.664062 50.414062 L 18.664062 40.25 C 19.195312 40.148438 19.6875 40.085938 20.15625 40.046875 C 20.617188 40.015625 21.054688 40 21.453125 40 C 22.21875 40 22.921875 40.101562 23.546875 40.304688 C 24.1875 40.507812 24.726562 40.828125 25.171875 41.265625 C 25.609375 41.6875 25.945312 42.234375 26.1875 42.914062 C 26.4375 43.570312 26.5625 44.375 26.5625 45.320312 "
         style=" stroke:none;fill-rule:nonzero;fill:rgb(100%,100%,100%);fill-opacity:1;" />
      <path
         id="path13"
         d="M 28.257812 50.53125 L 28.257812 40.117188 L 35.328125 40.117188 L 35.328125 41.835938 L 30.578125 41.835938 L 30.578125 44.171875 L 34.703125 44.171875 L 34.703125 45.890625 L 30.578125 45.890625 L 30.578125 48.8125 L 35.742188 48.8125 L 35.742188 50.53125 L 28.257812 50.53125 "
         style=" stroke:none;fill-rule:nonzero;fill:rgb(100%,100%,100%);fill-opacity:1;" />
      <path
         id="path15"
         d="M 45.335938 47.382812 C 45.335938 48.015625 45.210938 48.539062 44.976562 48.96875 C 44.734375 49.382812 44.40625 49.71875 43.992188 49.976562 C 43.59375 50.226562 43.109375 50.40625 42.546875 50.515625 C 41.992188 50.617188 41.398438 50.664062 40.757812 50.664062 C 40.242188 50.664062 39.703125 50.640625 39.148438 50.585938 C 38.601562 50.539062 38.054688 50.460938 37.515625 50.367188 L 37.515625 40.25 C 37.953125 40.1875 38.4375 40.132812 38.960938 40.085938 C 39.492188 40.03125 40.015625 40 40.53125 40 C 41.40625 40 42.125 40.085938 42.679688 40.25 C 43.226562 40.40625 43.664062 40.625 43.976562 40.890625 C 44.289062 41.148438 44.507812 41.4375 44.617188 41.765625 C 44.726562 42.09375 44.789062 42.414062 44.789062 42.742188 C 44.789062 43.234375 44.648438 43.671875 44.375 44.054688 C 44.109375 44.4375 43.75 44.742188 43.296875 44.960938 C 44.085938 45.21875 44.625 45.570312 44.898438 46.007812 C 45.1875 46.445312 45.335938 46.90625 45.335938 47.382812 M 39.828125 45.96875 L 39.828125 48.796875 C 39.992188 48.820312 40.171875 48.835938 40.359375 48.851562 C 40.5625 48.859375 40.757812 48.867188 40.945312 48.867188 C 41.203125 48.867188 41.460938 48.851562 41.71875 48.8125 C 41.96875 48.773438 42.1875 48.695312 42.375 48.59375 C 42.578125 48.484375 42.742188 48.335938 42.867188 48.140625 C 42.992188 47.9375 43.054688 47.6875 43.054688 47.382812 C 43.054688 46.882812 42.867188 46.523438 42.507812 46.3125 C 42.15625 46.085938 41.679688 45.96875 41.078125 45.96875 L 39.828125 45.96875 M 40.734375 44.257812 C 41.328125 44.257812 41.773438 44.140625 42.070312 43.921875 C 42.375 43.6875 42.523438 43.367188 42.523438 42.960938 C 42.523438 42.710938 42.484375 42.515625 42.390625 42.375 C 42.304688 42.21875 42.1875 42.09375 42.039062 42.015625 C 41.882812 41.929688 41.710938 41.875 41.507812 41.851562 C 41.304688 41.820312 41.101562 41.796875 40.882812 41.796875 C 40.710938 41.796875 40.53125 41.804688 40.335938 41.820312 C 40.148438 41.828125 39.984375 41.84375 39.828125 41.867188 L 39.828125 44.257812 L 40.734375 44.257812 "
         style=" stroke:none;fill-rule:nonzero;fill:rgb(100%,100%,100%);fill-opacity:1;" />
    </g>
  </g>
</svg>
