<?xml version="1.0" encoding="UTF-8" standalone="no"?>
<svg
   xmlns:dc="http://purl.org/dc/elements/1.1/"
   xmlns:cc="http://creativecommons.org/ns#"
   xmlns:rdf="http://www.w3.org/1999/02/22-rdf-syntax-ns#"
   xmlns:svg="http://www.w3.org/2000/svg"
   xmlns="http://www.w3.org/2000/svg"
   xmlns:sodipodi="http://sodipodi.sourceforge.net/DTD/sodipodi-0.dtd"
   xmlns:inkscape="http://www.inkscape.org/namespaces/inkscape"
   width="64px"
   height="64px"
   viewBox="0 0 64 64"
   version="1.1"
   id="svg2"
   inkscape:version="0.91 r13725"
   sodipodi:docname="application-torrent.svg">
  <metadata
     id="metadata17">
    <rdf:RDF>
      <cc:Work
         rdf:about="">
        <dc:format>image/svg+xml</dc:format>
        <dc:type
           rdf:resource="http://purl.org/dc/dcmitype/StillImage" />
      </cc:Work>
    </rdf:RDF>
  </metadata>
  <defs
     id="defs15">
    <filter
       inkscape:collect="always"
       style="color-interpolation-filters:sRGB"
       id="filter4185-5"
       x="-0.096041702"
       width="1.1920834"
       y="-0.09595833"
       height="1.1919167">
      <feGaussianBlur
         inkscape:collect="always"
         stdDeviation="0.7196875"
         id="feGaussianBlur4187-88" />
    </filter>
    <filter
       inkscape:collect="always"
       style="color-interpolation-filters:sRGB"
       id="filter4169"
       x="-0.096001268"
       width="1.1920025"
       y="-0.095998732"
       height="1.1919975">
      <feGaussianBlur
         inkscape:collect="always"
         stdDeviation="1.1200441"
         id="feGaussianBlur4171" />
    </filter>
  </defs>
  <sodipodi:namedview
     pagecolor="#ffffff"
     bordercolor="#666666"
     borderopacity="1"
     objecttolerance="10"
     gridtolerance="10"
     guidetolerance="10"
     inkscape:pageopacity="0"
     inkscape:pageshadow="2"
     inkscape:window-width="1301"
     inkscape:window-height="744"
     id="namedview13"
     showgrid="false"
     inkscape:zoom="7.375"
     inkscape:cx="30.771277"
     inkscape:cy="19.819189"
     inkscape:window-x="65"
     inkscape:window-y="24"
     inkscape:window-maximized="1"
     inkscape:current-layer="svg2" />
  <g
     id="g3346">
    <g
       transform="translate(-0.71943709,0)"
       id="g4515">
      <path
         style="fill:#35a14c;fill-opacity:1;fill-rule:nonzero;stroke:none"
         d="M 10.671875,0 C 9.296875,0 8,1.355469 8,2.789062 L 8,61.210938 C 8,62.566406 9.375,64 10.671875,64 l 42.65625,0 C 54.625,64 56,62.566406 56,61.210938 L 56,18 38,0 Z m 0,0"
         id="path4517"
         inkscape:connector-curvature="0" />
      <path
         inkscape:connector-curvature="0"
         id="path4519"
         d="m 37.72725,1.2727492 0,15.2265618 c 0,1.347657 1.410156,2.773438 2.757812,2.773438 l 15.226563,0 -1,-1 -13.984375,0 c -1.108,0 -2,-0.892 -2,-2 l 0,-13.9999998 -1,-1 z"
         style="opacity:0.35;fill:#000000;fill-opacity:1;fill-rule:nonzero;stroke:none;filter:url(#filter4185-5)"
         transform="matrix(1,0,0,0.97551114,0,0.47196773)" />
      <path
         style="fill:#84c692;fill-opacity:1;fill-rule:nonzero;stroke:none"
         d="M 38,0 55.984375,18 40.757812,18 C 39.410156,18 38,16.574219 38,15.226562 Z m 0,0"
         id="path4521"
         inkscape:connector-curvature="0" />
      <path
         inkscape:connector-curvature="0"
         id="path4523"
         d="M 10.671875,2.0000001e-8 C 9.2968752,2.0000001e-8 8.0000002,1.3554695 8.0000002,2.7890625 l 0,1 C 8.0000002,2.3554695 9.2968752,1 10.671875,1 L 38,1 38,2e-8 l -27.328125,0 z"
         style="opacity:0.5;fill:#ffffff;fill-opacity:1;fill-rule:nonzero;stroke:none" />
      <path
         inkscape:connector-curvature="0"
         id="path4525"
         d="m 8.0000002,60.210938 0,1 c 0,1.355468 1.375,2.789062 2.6718748,2.789062 L 53.32812,64 C 54.62499,64 56,62.566406 56,61.210938 l 0,-1 C 56,61.566406 54.62499,63 53.32812,63 L 10.671875,63 C 9.3750002,63 8.0000002,61.566406 8.0000002,60.210938 Z"
         style="opacity:0.15;fill:#000000;fill-opacity:1;fill-rule:nonzero;stroke:none" />
    </g>
    <g
       style="fill:#000000;opacity:0.35;filter:url(#filter4169)"
       id="g4165">
      <path
         style="stroke:none;fill-rule:nonzero;fill:#000000;fill-opacity:1"
         d="M 38.683594 48.277344 L 33.523438 48.277344 C 31.957031 48.277344 30.414062 48.304688 28.921875 47.730469 C 27.699219 47.257812 26.550781 46.539062 25.640625 45.582031 C 22.621094 42.425781 22.21875 37.414062 24.957031 33.933594 C 26.625 31.8125 29.195312 30.453125 31.917969 30.453125 C 32.65625 30.453125 34.214844 30.335938 34.527344 31.210938 C 34.691406 31.65625 34.351562 32.167969 33.886719 32.25 C 33.449219 32.320312 32.949219 32.101562 32.503906 32.09375 C 31.199219 32.074219 30.023438 32.257812 28.828125 32.796875 C 24.398438 34.800781 23.296875 41.296875 26.914062 44.585938 C 27.855469 45.445312 28.910156 46.089844 30.140625 46.410156 C 31.226562 46.703125 32.347656 46.636719 33.460938 46.636719 L 40.167969 46.636719 C 40.453125 46.636719 40.851562 46.710938 41.117188 46.621094 C 41.328125 46.546875 41.5 46.328125 41.644531 46.171875 C 42.011719 45.808594 42.558594 45.40625 42.765625 44.925781 L 34.34375 44.925781 C 33.332031 44.925781 32.265625 45.023438 31.253906 44.878906 C 30.070312 44.707031 29.011719 44.148438 28.136719 43.339844 C 27.679688 42.921875 27.316406 42.382812 27.042969 41.835938 C 25.375 38.492188 27.515625 34.5 31.164062 33.863281 C 31.792969 33.742188 32.476562 33.78125 33.09375 33.90625 C 33.714844 34.027344 34.488281 34.253906 34.972656 34.671875 C 35.320312 34.972656 35.355469 35.464844 35.054688 35.8125 C 34.617188 36.3125 34.171875 36.003906 33.6875 35.792969 C 33.3125 35.628906 32.921875 35.511719 32.511719 35.457031 C 30.753906 35.246094 29.058594 36.230469 28.382812 37.851562 C 27.527344 39.894531 28.601562 42.347656 30.699219 43.074219 C 31.710938 43.421875 32.867188 43.285156 33.925781 43.285156 L 42.695312 43.285156 C 43.039062 43.285156 43.625 43.394531 43.941406 43.257812 C 44.070312 43.210938 44.132812 43.03125 44.199219 42.921875 L 44.71875 41.898438 C 45.335938 40.476562 45.757812 39.027344 45.921875 37.488281 C 46.613281 31.0625 42.695312 24.941406 36.613281 22.769531 C 31.863281 21.074219 26.339844 22.242188 22.613281 25.613281 C 20.878906 27.191406 19.632812 29.148438 18.8125 31.335938 C 17.726562 34.246094 17.726562 37.808594 18.828125 40.714844 C 19.074219 41.378906 19.339844 42.035156 19.6875 42.65625 C 19.777344 42.820312 19.894531 43.195312 20.085938 43.257812 C 20.488281 43.414062 20.152344 42.527344 20.113281 42.390625 C 19.839844 41.289062 19.75 40.195312 19.75 39.066406 C 19.75 34.253906 23.003906 29.832031 27.378906 27.992188 C 28.691406 27.445312 30.195312 27.089844 31.617188 27.089844 C 31.820312 27.089844 32.046875 27.0625 32.246094 27.125 C 32.695312 27.28125 32.96875 27.800781 32.738281 28.246094 C 32.4375 28.839844 31.828125 28.695312 31.289062 28.738281 C 30.125 28.859375 28.992188 29.085938 27.910156 29.542969 C 24.78125 30.855469 22.339844 33.699219 21.636719 37.03125 C 20.625 41.761719 22.886719 46.710938 27.242188 48.898438 C 29.085938 49.820312 31.097656 50.109375 33.132812 49.964844 C 34.5625 49.863281 35.976562 49.527344 37.308594 48.988281 C 37.71875 48.816406 38.390625 48.625 38.683594 48.277344 Z M 38.683594 48.277344 "
         id="path4167" />
    </g>
    <g
       id="surface1">
      <path
         id="path11"
         d="M 38.683594 48.277344 L 33.523438 48.277344 C 31.957031 48.277344 30.414062 48.304688 28.921875 47.730469 C 27.699219 47.257812 26.550781 46.539062 25.640625 45.582031 C 22.621094 42.425781 22.21875 37.414062 24.957031 33.933594 C 26.625 31.8125 29.195312 30.453125 31.917969 30.453125 C 32.65625 30.453125 34.214844 30.335938 34.527344 31.210938 C 34.691406 31.65625 34.351562 32.167969 33.886719 32.25 C 33.449219 32.320312 32.949219 32.101562 32.503906 32.09375 C 31.199219 32.074219 30.023438 32.257812 28.828125 32.796875 C 24.398438 34.800781 23.296875 41.296875 26.914062 44.585938 C 27.855469 45.445312 28.910156 46.089844 30.140625 46.410156 C 31.226562 46.703125 32.347656 46.636719 33.460938 46.636719 L 40.167969 46.636719 C 40.453125 46.636719 40.851562 46.710938 41.117188 46.621094 C 41.328125 46.546875 41.5 46.328125 41.644531 46.171875 C 42.011719 45.808594 42.558594 45.40625 42.765625 44.925781 L 34.34375 44.925781 C 33.332031 44.925781 32.265625 45.023438 31.253906 44.878906 C 30.070312 44.707031 29.011719 44.148438 28.136719 43.339844 C 27.679688 42.921875 27.316406 42.382812 27.042969 41.835938 C 25.375 38.492188 27.515625 34.5 31.164062 33.863281 C 31.792969 33.742188 32.476562 33.78125 33.09375 33.90625 C 33.714844 34.027344 34.488281 34.253906 34.972656 34.671875 C 35.320312 34.972656 35.355469 35.464844 35.054688 35.8125 C 34.617188 36.3125 34.171875 36.003906 33.6875 35.792969 C 33.3125 35.628906 32.921875 35.511719 32.511719 35.457031 C 30.753906 35.246094 29.058594 36.230469 28.382812 37.851562 C 27.527344 39.894531 28.601562 42.347656 30.699219 43.074219 C 31.710938 43.421875 32.867188 43.285156 33.925781 43.285156 L 42.695312 43.285156 C 43.039062 43.285156 43.625 43.394531 43.941406 43.257812 C 44.070312 43.210938 44.132812 43.03125 44.199219 42.921875 L 44.71875 41.898438 C 45.335938 40.476562 45.757812 39.027344 45.921875 37.488281 C 46.613281 31.0625 42.695312 24.941406 36.613281 22.769531 C 31.863281 21.074219 26.339844 22.242188 22.613281 25.613281 C 20.878906 27.191406 19.632812 29.148438 18.8125 31.335938 C 17.726562 34.246094 17.726562 37.808594 18.828125 40.714844 C 19.074219 41.378906 19.339844 42.035156 19.6875 42.65625 C 19.777344 42.820312 19.894531 43.195312 20.085938 43.257812 C 20.488281 43.414062 20.152344 42.527344 20.113281 42.390625 C 19.839844 41.289062 19.75 40.195312 19.75 39.066406 C 19.75 34.253906 23.003906 29.832031 27.378906 27.992188 C 28.691406 27.445312 30.195312 27.089844 31.617188 27.089844 C 31.820312 27.089844 32.046875 27.0625 32.246094 27.125 C 32.695312 27.28125 32.96875 27.800781 32.738281 28.246094 C 32.4375 28.839844 31.828125 28.695312 31.289062 28.738281 C 30.125 28.859375 28.992188 29.085938 27.910156 29.542969 C 24.78125 30.855469 22.339844 33.699219 21.636719 37.03125 C 20.625 41.761719 22.886719 46.710938 27.242188 48.898438 C 29.085938 49.820312 31.097656 50.109375 33.132812 49.964844 C 34.5625 49.863281 35.976562 49.527344 37.308594 48.988281 C 37.71875 48.816406 38.390625 48.625 38.683594 48.277344 Z M 38.683594 48.277344 "
         style=" stroke:none;fill-rule:nonzero;fill:rgb(100%,100%,100%);fill-opacity:1;" />
    </g>
  </g>
</svg>
