<?xml version="1.0" encoding="UTF-8" standalone="no"?>
<svg
   xmlns:dc="http://purl.org/dc/elements/1.1/"
   xmlns:cc="http://creativecommons.org/ns#"
   xmlns:rdf="http://www.w3.org/1999/02/22-rdf-syntax-ns#"
   xmlns:svg="http://www.w3.org/2000/svg"
   xmlns="http://www.w3.org/2000/svg"
   xmlns:sodipodi="http://sodipodi.sourceforge.net/DTD/sodipodi-0.dtd"
   xmlns:inkscape="http://www.inkscape.org/namespaces/inkscape"
   width="64px"
   height="64px"
   viewBox="0 0 64 64"
   version="1.1"
   id="svg2"
   inkscape:version="0.91 r13725"
   sodipodi:docname="application-presentation-template.svg">
  <metadata
     id="metadata21">
    <rdf:RDF>
      <cc:Work
         rdf:about="">
        <dc:format>image/svg+xml</dc:format>
        <dc:type
           rdf:resource="http://purl.org/dc/dcmitype/StillImage" />
      </cc:Work>
    </rdf:RDF>
  </metadata>
  <defs
     id="defs19">
    <filter
       inkscape:collect="always"
       style="color-interpolation-filters:sRGB"
       id="filter4188"
       x="-0.084023438"
       width="1.1680469"
       y="-0.11195836"
       height="1.2239167">
      <feGaussianBlur
         inkscape:collect="always"
         stdDeviation="1.1203125"
         id="feGaussianBlur4190" />
    </filter>
  </defs>
  <sodipodi:namedview
     pagecolor="#ffffff"
     bordercolor="#666666"
     borderopacity="1"
     objecttolerance="10"
     gridtolerance="10"
     guidetolerance="10"
     inkscape:pageopacity="0"
     inkscape:pageshadow="2"
     inkscape:window-width="1301"
     inkscape:window-height="744"
     id="namedview17"
     showgrid="false"
     inkscape:zoom="5.2149125"
     inkscape:cx="47.684291"
     inkscape:cy="26.38286"
     inkscape:window-x="65"
     inkscape:window-y="24"
     inkscape:window-maximized="1"
     inkscape:current-layer="svg2" />
  <g
     id="g3351">
    <g
       id="surface1">
      <path
         id="path5"
         d="M 10.6875 0 C 9.3125 0 8 1.378906 8 2.8125 L 8 61.1875 C 8 62.539062 9.390625 64 10.6875 64 L 53.3125 64 C 54.609375 64 56 62.539062 56 61.1875 L 56 2.75 C 56 1.402344 54.597656 0 53.25 0 Z M 10.6875 0 "
         style=" stroke:none;fill-rule:nonzero;fill:rgb(81.960784%,27.45098%,14.901961%);fill-opacity:1;" />
      <g
         style="fill:#000000;opacity:0.35;filter:url(#filter4188)"
         id="g4168">
        <path
           id="path4170"
           d="M 16 22 L 26 22 L 26 28 L 16 28 Z M 16 22 "
           style="stroke:none;fill-rule:nonzero;fill:#000000;fill-opacity:1" />
        <path
           id="path4172"
           d="M 16 32 L 26 32 L 26 38 L 16 38 Z M 16 32 "
           style="stroke:none;fill-rule:nonzero;fill:#000000;fill-opacity:1" />
        <path
           id="path4174"
           d="M 16 42 L 48 42 L 48 44 L 16 44 Z M 16 42 "
           style="stroke:none;fill-rule:nonzero;fill:#000000;fill-opacity:1" />
        <path
           id="path4176"
           d="M 40 19.984375 L 40 28 L 48 28 C 48 23.570312 44.417969 19.984375 40 19.984375 Z M 40 19.984375 "
           style="stroke:none;fill-rule:nonzero;fill:#000000;fill-opacity:1" />
        <path
           id="path4178"
           d="M 38.003906 22 C 33.585938 22 30 25.578125 30 30 C 30 34.421875 33.585938 38 38.003906 38 C 42.421875 38 46 34.421875 46 30 L 38.003906 30 Z M 38.003906 22 "
           style="stroke:none;fill-rule:nonzero;fill:#000000;fill-opacity:1" />
      </g>
      <g
         id="g4161">
        <path
           style=" stroke:none;fill-rule:nonzero;fill:rgb(100%,100%,100%);fill-opacity:1;"
           d="M 16 22 L 26 22 L 26 28 L 16 28 Z M 16 22 "
           id="path7" />
        <path
           style=" stroke:none;fill-rule:nonzero;fill:rgb(100%,100%,100%);fill-opacity:1;"
           d="M 16 32 L 26 32 L 26 38 L 16 38 Z M 16 32 "
           id="path9" />
        <path
           style=" stroke:none;fill-rule:nonzero;fill:rgb(100%,100%,100%);fill-opacity:1;"
           d="M 16 42 L 48 42 L 48 44 L 16 44 Z M 16 42 "
           id="path11" />
        <path
           style=" stroke:none;fill-rule:nonzero;fill:rgb(100%,100%,100%);fill-opacity:1;"
           d="M 40 19.984375 L 40 28 L 48 28 C 48 23.570312 44.417969 19.984375 40 19.984375 Z M 40 19.984375 "
           id="path13" />
        <path
           style=" stroke:none;fill-rule:nonzero;fill:rgb(100%,100%,100%);fill-opacity:1;"
           d="M 38.003906 22 C 33.585938 22 30 25.578125 30 30 C 30 34.421875 33.585938 38 38.003906 38 C 42.421875 38 46 34.421875 46 30 L 38.003906 30 Z M 38.003906 22 "
           id="path15" />
      </g>
    </g>
    <g
       transform="translate(-1e-7,-8.4067798)"
       id="g4157">
      <path
         inkscape:connector-curvature="0"
         id="path4178-43"
         d="m 8.0000002,68.617718 0,1 c 0,1.355468 1.375,2.789062 2.6718758,2.789062 l 42.656243,0 C 54.624989,72.40678 56,70.973186 56,69.617718 l 0,-1 c 0,1.355468 -1.375011,2.789062 -2.671881,2.789062 l -42.656243,0 c -1.2968758,0 -2.6718758,-1.433594 -2.6718758,-2.789062 z"
         style="opacity:0.15;fill:#000000;fill-opacity:1;fill-rule:nonzero;stroke:none" />
      <path
         style="opacity:0.5;fill:#ffffff;fill-opacity:1;fill-rule:nonzero;stroke:none"
         d="m 8.0000004,12.195842 0,-1 c 0,-1.3554683 1.3750001,-2.7890623 2.6718756,-2.7890623 l 42.656243,0 C 54.624989,8.4067797 56,9.8403737 56,11.195842 l 0,1 C 56,10.840374 54.624989,9.4067797 53.328119,9.4067797 l -42.656243,0 c -1.2968756,0 -2.6718756,1.4335943 -2.6718756,2.7890623 z"
         id="path4159"
         inkscape:connector-curvature="0" />
    </g>
  </g>
</svg>
