<?xml version="1.0" encoding="UTF-8" standalone="no"?>
<svg
   xmlns:dc="http://purl.org/dc/elements/1.1/"
   xmlns:cc="http://creativecommons.org/ns#"
   xmlns:rdf="http://www.w3.org/1999/02/22-rdf-syntax-ns#"
   xmlns:svg="http://www.w3.org/2000/svg"
   xmlns="http://www.w3.org/2000/svg"
   xmlns:sodipodi="http://sodipodi.sourceforge.net/DTD/sodipodi-0.dtd"
   xmlns:inkscape="http://www.inkscape.org/namespaces/inkscape"
   width="64px"
   height="64px"
   viewBox="0 0 64 64"
   version="1.1"
   id="svg2"
   inkscape:version="0.91 r13725"
   sodipodi:docname="application-vnd.oasis.opendocument.chart-template.svg">
  <metadata
     id="metadata27">
    <rdf:RDF>
      <cc:Work
         rdf:about="">
        <dc:format>image/svg+xml</dc:format>
        <dc:type
           rdf:resource="http://purl.org/dc/dcmitype/StillImage" />
      </cc:Work>
    </rdf:RDF>
  </metadata>
  <defs
     id="defs25">
    <filter
       inkscape:collect="always"
       style="color-interpolation-filters:sRGB"
       id="filter4191"
       x="-0.11853382"
       width="1.2370676"
       y="-0.080665179"
       height="1.1613304">
      <feGaussianBlur
         inkscape:collect="always"
         stdDeviation="1.4116406"
         id="feGaussianBlur4193" />
    </filter>
  </defs>
  <sodipodi:namedview
     pagecolor="#ffffff"
     bordercolor="#666666"
     borderopacity="1"
     objecttolerance="10"
     gridtolerance="10"
     guidetolerance="10"
     inkscape:pageopacity="0"
     inkscape:pageshadow="2"
     inkscape:window-width="1301"
     inkscape:window-height="744"
     id="namedview23"
     showgrid="false"
     inkscape:zoom="7.375"
     inkscape:cx="27.120581"
     inkscape:cy="35.336004"
     inkscape:window-x="65"
     inkscape:window-y="24"
     inkscape:window-maximized="1"
     inkscape:current-layer="svg2" />
  <g
     id="g3356">
    <g
       id="surface1">
      <path
         id="path5"
         d="M 10.6875 0 C 9.3125 0 8 1.378906 8 2.8125 L 8 61.1875 C 8 62.539062 9.390625 64 10.6875 64 L 53.3125 64 C 54.609375 64 56 62.539062 56 61.1875 L 56 2.75 C 56 1.402344 54.597656 0 53.25 0 Z M 10.6875 0 "
         style=" stroke:none;fill-rule:nonzero;fill:rgb(72.156863%,76.470588%,0%);fill-opacity:1;" />
      <path
         id="path7"
         d="M 8 48 L 8 61.335938 C 8 62.632812 9.375 64 10.664062 64 L 53.335938 64 C 54.625 64 56 62.632812 56 61.335938 L 56 48 Z M 8 48 "
         style=" stroke:none;fill-rule:nonzero;fill:rgb(0%,0%,0%);fill-opacity:0.196078;" />
      <g
         style="fill:#000000;opacity:0.35;filter:url(#filter4191)"
         id="g4174">
        <path
           id="path4176"
           d="M 34 42 L 34 26 L 38 26 L 38 42 Z M 34 42 "
           style="stroke:none;fill-rule:nonzero;fill:#000000;fill-opacity:1" />
        <path
           id="path4179"
           d="M 28 42 L 28 20 L 32 20 L 32 42 Z M 28 42 "
           style="stroke:none;fill-rule:nonzero;fill:#000000;fill-opacity:1" />
        <path
           id="path4181"
           d="M 22 42 L 22 30 L 26 30 L 26 42 Z M 22 42 "
           style="stroke:none;fill-rule:nonzero;fill:#000000;fill-opacity:1" />
        <path
           id="path4183"
           d="M 40 42 L 40 36 L 44 36 L 44 42 Z M 40 42 "
           style="stroke:none;fill-rule:nonzero;fill:#000000;fill-opacity:1" />
        <path
           id="path4185"
           d="M 20.328125 56.28125 C 20.328125 56.816406 20.355469 57.320312 20.386719 57.789062 C 20.445312 58.25 20.539062 58.652344 20.664062 58.996094 C 20.816406 59.335938 21.007812 59.605469 21.257812 59.804688 C 21.511719 60.007812 21.855469 60.109375 22.273438 60.109375 C 22.683594 60.109375 23.015625 60.007812 23.269531 59.804688 C 23.527344 59.605469 23.730469 59.335938 23.863281 58.996094 C 24.003906 58.632812 24.097656 58.230469 24.140625 57.773438 C 24.191406 57.3125 24.214844 56.816406 24.214844 56.28125 C 24.214844 55.753906 24.191406 55.261719 24.140625 54.800781 C 24.097656 54.324219 24.003906 53.921875 23.863281 53.578125 C 23.730469 53.234375 23.535156 52.964844 23.285156 52.765625 C 23.035156 52.5625 22.699219 52.464844 22.273438 52.464844 C 21.855469 52.464844 21.511719 52.5625 21.257812 52.765625 C 21.007812 52.964844 20.816406 53.242188 20.664062 53.59375 C 20.539062 53.9375 20.445312 54.339844 20.386719 54.800781 C 20.355469 55.261719 20.328125 55.753906 20.328125 56.28125 M 17.851562 56.28125 C 17.851562 54.398438 18.246094 52.972656 19.023438 52.019531 C 19.800781 51.046875 20.890625 50.570312 22.273438 50.570312 C 23.710938 50.570312 24.808594 51.046875 25.5625 52.019531 C 26.316406 52.972656 26.691406 54.398438 26.691406 56.28125 C 26.691406 58.171875 26.308594 59.597656 25.546875 60.566406 C 24.777344 61.523438 23.695312 62 22.296875 62 C 20.855469 62 19.753906 61.523438 18.980469 60.566406 C 18.226562 59.597656 17.851562 58.171875 17.851562 56.28125 "
           style="stroke:none;fill-rule:nonzero;fill:#000000;fill-opacity:1" />
        <path
           id="path4187"
           d="M 36.640625 50.8125 L 36.640625 52.621094 L 33.417969 52.621094 L 33.417969 61.773438 L 30.953125 61.773438 L 30.953125 52.621094 L 27.722656 52.621094 L 27.722656 50.8125 L 36.640625 50.8125 "
           style="stroke:none;fill-rule:nonzero;fill:#000000;fill-opacity:1" />
        <path
           id="path4189"
           d="M 43.003906 62 C 41.269531 62 39.953125 61.507812 39.042969 60.507812 C 38.128906 59.523438 37.667969 58.113281 37.667969 56.28125 C 37.667969 55.378906 37.8125 54.566406 38.089844 53.863281 C 38.363281 53.148438 38.75 52.554688 39.234375 52.070312 C 39.738281 51.578125 40.332031 51.207031 41 50.957031 C 41.6875 50.695312 42.433594 50.570312 43.246094 50.570312 C 43.679688 50.570312 44.066406 50.605469 44.410156 50.671875 C 44.769531 50.730469 45.078125 50.804688 45.339844 50.890625 C 45.605469 50.972656 45.824219 51.058594 46 51.148438 C 46.183594 51.25 46.316406 51.316406 46.410156 51.367188 L 45.78125 53.101562 C 45.472656 52.925781 45.105469 52.773438 44.667969 52.65625 C 44.25 52.53125 43.757812 52.464844 43.203125 52.464844 C 42.820312 52.464844 42.441406 52.53125 42.074219 52.65625 C 41.714844 52.773438 41.394531 52.984375 41.101562 53.277344 C 40.824219 53.558594 40.589844 53.945312 40.40625 54.421875 C 40.238281 54.910156 40.148438 55.511719 40.148438 56.230469 C 40.148438 57.480469 40.390625 58.441406 40.867188 59.113281 C 41.351562 59.773438 42.148438 60.109375 43.246094 60.109375 C 43.875 60.109375 44.402344 60.039062 44.8125 59.914062 C 45.230469 59.78125 45.566406 59.65625 45.816406 59.523438 L 46.433594 61.238281 C 46.09375 61.429688 45.625 61.605469 45.027344 61.773438 C 44.441406 61.925781 43.773438 62 43.003906 62 "
           style="stroke:none;fill-rule:nonzero;fill:#000000;fill-opacity:1" />
      </g>
      <g
         id="g4165">
        <path
           style=" stroke:none;fill-rule:nonzero;fill:rgb(100%,100%,100%);fill-opacity:1;"
           d="M 34 42 L 34 26 L 38 26 L 38 42 Z M 34 42 "
           id="path9" />
        <path
           style=" stroke:none;fill-rule:nonzero;fill:rgb(100%,100%,100%);fill-opacity:1;"
           d="M 28 42 L 28 20 L 32 20 L 32 42 Z M 28 42 "
           id="path11" />
        <path
           style=" stroke:none;fill-rule:nonzero;fill:rgb(100%,100%,100%);fill-opacity:1;"
           d="M 22 42 L 22 30 L 26 30 L 26 42 Z M 22 42 "
           id="path13" />
        <path
           style=" stroke:none;fill-rule:nonzero;fill:rgb(100%,100%,100%);fill-opacity:1;"
           d="M 40 42 L 40 36 L 44 36 L 44 42 Z M 40 42 "
           id="path15" />
        <path
           style=" stroke:none;fill-rule:nonzero;fill:rgb(100%,100%,100%);fill-opacity:1;"
           d="M 20.328125 56.28125 C 20.328125 56.816406 20.355469 57.320312 20.386719 57.789062 C 20.445312 58.25 20.539062 58.652344 20.664062 58.996094 C 20.816406 59.335938 21.007812 59.605469 21.257812 59.804688 C 21.511719 60.007812 21.855469 60.109375 22.273438 60.109375 C 22.683594 60.109375 23.015625 60.007812 23.269531 59.804688 C 23.527344 59.605469 23.730469 59.335938 23.863281 58.996094 C 24.003906 58.632812 24.097656 58.230469 24.140625 57.773438 C 24.191406 57.3125 24.214844 56.816406 24.214844 56.28125 C 24.214844 55.753906 24.191406 55.261719 24.140625 54.800781 C 24.097656 54.324219 24.003906 53.921875 23.863281 53.578125 C 23.730469 53.234375 23.535156 52.964844 23.285156 52.765625 C 23.035156 52.5625 22.699219 52.464844 22.273438 52.464844 C 21.855469 52.464844 21.511719 52.5625 21.257812 52.765625 C 21.007812 52.964844 20.816406 53.242188 20.664062 53.59375 C 20.539062 53.9375 20.445312 54.339844 20.386719 54.800781 C 20.355469 55.261719 20.328125 55.753906 20.328125 56.28125 M 17.851562 56.28125 C 17.851562 54.398438 18.246094 52.972656 19.023438 52.019531 C 19.800781 51.046875 20.890625 50.570312 22.273438 50.570312 C 23.710938 50.570312 24.808594 51.046875 25.5625 52.019531 C 26.316406 52.972656 26.691406 54.398438 26.691406 56.28125 C 26.691406 58.171875 26.308594 59.597656 25.546875 60.566406 C 24.777344 61.523438 23.695312 62 22.296875 62 C 20.855469 62 19.753906 61.523438 18.980469 60.566406 C 18.226562 59.597656 17.851562 58.171875 17.851562 56.28125 "
           id="path17" />
        <path
           style=" stroke:none;fill-rule:nonzero;fill:rgb(100%,100%,100%);fill-opacity:1;"
           d="M 36.640625 50.8125 L 36.640625 52.621094 L 33.417969 52.621094 L 33.417969 61.773438 L 30.953125 61.773438 L 30.953125 52.621094 L 27.722656 52.621094 L 27.722656 50.8125 L 36.640625 50.8125 "
           id="path19" />
        <path
           style=" stroke:none;fill-rule:nonzero;fill:rgb(100%,100%,100%);fill-opacity:1;"
           d="M 43.003906 62 C 41.269531 62 39.953125 61.507812 39.042969 60.507812 C 38.128906 59.523438 37.667969 58.113281 37.667969 56.28125 C 37.667969 55.378906 37.8125 54.566406 38.089844 53.863281 C 38.363281 53.148438 38.75 52.554688 39.234375 52.070312 C 39.738281 51.578125 40.332031 51.207031 41 50.957031 C 41.6875 50.695312 42.433594 50.570312 43.246094 50.570312 C 43.679688 50.570312 44.066406 50.605469 44.410156 50.671875 C 44.769531 50.730469 45.078125 50.804688 45.339844 50.890625 C 45.605469 50.972656 45.824219 51.058594 46 51.148438 C 46.183594 51.25 46.316406 51.316406 46.410156 51.367188 L 45.78125 53.101562 C 45.472656 52.925781 45.105469 52.773438 44.667969 52.65625 C 44.25 52.53125 43.757812 52.464844 43.203125 52.464844 C 42.820312 52.464844 42.441406 52.53125 42.074219 52.65625 C 41.714844 52.773438 41.394531 52.984375 41.101562 53.277344 C 40.824219 53.558594 40.589844 53.945312 40.40625 54.421875 C 40.238281 54.910156 40.148438 55.511719 40.148438 56.230469 C 40.148438 57.480469 40.390625 58.441406 40.867188 59.113281 C 41.351562 59.773438 42.148438 60.109375 43.246094 60.109375 C 43.875 60.109375 44.402344 60.039062 44.8125 59.914062 C 45.230469 59.78125 45.566406 59.65625 45.816406 59.523438 L 46.433594 61.238281 C 46.09375 61.429688 45.625 61.605469 45.027344 61.773438 C 44.441406 61.925781 43.773438 62 43.003906 62 "
           id="path21" />
      </g>
    </g>
    <g
       id="g4161">
      <path
         inkscape:connector-curvature="0"
         id="path4178"
         d="m 7.9999995,60.210938 0,1 c 0,1.355468 1.375,2.789062 2.6718755,2.789062 l 42.656244,0 C 54.624989,64 56,62.566406 56,61.210938 l 0,-1 C 56,61.566406 54.624989,63 53.328119,63 L 10.671875,63 C 9.3749995,63 7.9999995,61.566406 7.9999995,60.210938 Z"
         style="opacity:0.15;fill:#000000;fill-opacity:1;fill-rule:nonzero;stroke:none" />
      <path
         style="opacity:0.5;fill:#ffffff;fill-opacity:1;fill-rule:nonzero;stroke:none"
         d="m 7.9999998,3.789062 0,-1 C 7.9999998,1.433594 9.3749999,0 10.671875,0 L 53.328119,0 C 54.624989,0 56,1.433594 56,2.789062 l 0,1 C 56,2.433594 54.624989,1 53.328119,1 L 10.671875,1 C 9.3749998,1 7.9999998,2.433594 7.9999998,3.789062 Z"
         id="path4159"
         inkscape:connector-curvature="0" />
    </g>
  </g>
</svg>
