<?xml version="1.0" encoding="UTF-8" standalone="no"?>
<svg
   xmlns:dc="http://purl.org/dc/elements/1.1/"
   xmlns:cc="http://creativecommons.org/ns#"
   xmlns:rdf="http://www.w3.org/1999/02/22-rdf-syntax-ns#"
   xmlns:svg="http://www.w3.org/2000/svg"
   xmlns="http://www.w3.org/2000/svg"
   xmlns:sodipodi="http://sodipodi.sourceforge.net/DTD/sodipodi-0.dtd"
   xmlns:inkscape="http://www.inkscape.org/namespaces/inkscape"
   width="64px"
   height="64px"
   viewBox="0 0 64 64"
   version="1.1"
   id="svg2"
   inkscape:version="0.91 r13725"
   sodipodi:docname="application-vnd.oasis.opendocument.spreadsheet-template.svg">
  <metadata
     id="metadata21">
    <rdf:RDF>
      <cc:Work
         rdf:about="">
        <dc:format>image/svg+xml</dc:format>
        <dc:type
           rdf:resource="http://purl.org/dc/dcmitype/StillImage" />
      </cc:Work>
    </rdf:RDF>
  </metadata>
  <defs
     id="defs19">
    <filter
       inkscape:collect="always"
       style="color-interpolation-filters:sRGB"
       id="filter4175"
       x="-0.11771915"
       width="1.2354383"
       y="-0.081046875"
       height="1.1620938">
      <feGaussianBlur
         inkscape:collect="always"
         stdDeviation="1.4858594"
         id="feGaussianBlur4177" />
    </filter>
  </defs>
  <sodipodi:namedview
     pagecolor="#ffffff"
     bordercolor="#666666"
     borderopacity="1"
     objecttolerance="10"
     gridtolerance="10"
     guidetolerance="10"
     inkscape:pageopacity="0"
     inkscape:pageshadow="2"
     inkscape:window-width="1301"
     inkscape:window-height="744"
     id="namedview17"
     showgrid="false"
     inkscape:zoom="7.375"
     inkscape:cx="23.295678"
     inkscape:cy="26.66562"
     inkscape:window-x="65"
     inkscape:window-y="24"
     inkscape:window-maximized="1"
     inkscape:current-layer="svg2" />
  <g
     id="g3350">
    <g
       id="surface1">
      <path
         id="path5"
         d="M 10.6875 0 C 9.3125 0 8 1.378906 8 2.8125 L 8 61.1875 C 8 62.539062 9.390625 64 10.6875 64 L 53.3125 64 C 54.609375 64 56 62.539062 56 61.1875 L 56 2.75 C 56 1.402344 54.597656 0 53.25 0 Z M 10.6875 0 "
         style=" stroke:none;fill-rule:nonzero;fill:rgb(12.54902%,44.313725%,27.058824%);fill-opacity:1;" />
      <path
         id="path9"
         d="M 8 48 L 8 61.335938 C 8 62.632812 9.375 64 10.664062 64 L 53.335938 64 C 54.625 64 56 62.632812 56 61.335938 L 56 48 Z M 8 48 "
         style=" stroke:none;fill-rule:nonzero;fill:rgb(0%,0%,0%);fill-opacity:0.196078;" />
      <g
         style="fill:#000000;filter:url(#filter4175);opacity:0.35"
         id="g4165">
        <path
           id="path4167"
           d="M 46 18 L 46 44 L 18 44 L 18 18 Z M 44 20 L 30 20 L 30 26 L 44 26 Z M 28 20 L 20 20 L 20 26 L 28 26 Z M 44 28 L 30 28 L 30 34 L 44 34 Z M 28 28 L 20 28 L 20 34 L 28 34 Z M 44 36 L 30 36 L 30 42 L 44 42 Z M 28 36 L 20 36 L 20 42 L 28 42 Z M 28 36 "
           style="stroke:none;fill-rule:nonzero;fill:#000000;fill-opacity:1" />
        <path
           id="path4169"
           d="M 20.472656 55.941406 C 20.472656 56.507812 20.488281 57.039062 20.535156 57.535156 C 20.597656 58.023438 20.695312 58.449219 20.835938 58.816406 C 20.988281 59.179688 21.199219 59.460938 21.464844 59.675781 C 21.730469 59.886719 22.097656 59.996094 22.546875 59.996094 C 22.984375 59.996094 23.328125 59.886719 23.605469 59.675781 C 23.878906 59.460938 24.09375 59.179688 24.234375 58.816406 C 24.394531 58.433594 24.492188 58.007812 24.527344 57.519531 C 24.589844 57.03125 24.617188 56.507812 24.617188 55.941406 C 24.617188 55.378906 24.589844 54.855469 24.527344 54.371094 C 24.492188 53.863281 24.394531 53.4375 24.234375 53.074219 C 24.09375 52.710938 23.886719 52.425781 23.621094 52.214844 C 23.355469 52 22.992188 51.894531 22.546875 51.894531 C 22.097656 51.894531 21.730469 52 21.464844 52.214844 C 21.199219 52.425781 20.988281 52.71875 20.835938 53.089844 C 20.695312 53.457031 20.597656 53.882812 20.535156 54.371094 C 20.488281 54.855469 20.472656 55.378906 20.472656 55.941406 M 17.828125 55.941406 C 17.828125 53.941406 18.246094 52.433594 19.078125 51.421875 C 19.914062 50.394531 21.066406 49.886719 22.546875 49.886719 C 24.082031 49.886719 25.246094 50.394531 26.054688 51.421875 C 26.851562 52.433594 27.261719 53.941406 27.261719 55.941406 C 27.261719 57.945312 26.851562 59.453125 26.035156 60.484375 C 25.210938 61.496094 24.058594 62 22.566406 62 C 21.03125 62 19.851562 61.496094 19.035156 60.484375 C 18.234375 59.453125 17.828125 57.945312 17.828125 55.941406 "
           style="stroke:none;fill-rule:nonzero;fill:#000000;fill-opacity:1" />
        <path
           id="path4171"
           d="M 37.863281 50.144531 L 37.863281 52.0625 L 34.421875 52.0625 L 34.421875 61.761719 L 31.804688 61.761719 L 31.804688 52.0625 L 28.359375 52.0625 L 28.359375 50.144531 L 37.863281 50.144531 "
           style="stroke:none;fill-rule:nonzero;fill:#000000;fill-opacity:1" />
        <path
           id="path4173"
           d="M 43.300781 60.066406 C 43.738281 60.066406 44.09375 60.03125 44.375 59.960938 C 44.667969 59.871094 44.910156 59.753906 45.078125 59.621094 C 45.246094 59.472656 45.351562 59.300781 45.414062 59.132812 C 45.484375 58.949219 45.519531 58.753906 45.519531 58.566406 C 45.519531 58.328125 45.441406 58.121094 45.289062 57.925781 C 45.128906 57.742188 44.933594 57.582031 44.695312 57.4375 C 44.457031 57.296875 44.191406 57.164062 43.886719 57.050781 C 43.59375 56.925781 43.300781 56.808594 43 56.710938 C 42.609375 56.585938 42.203125 56.445312 41.777344 56.277344 C 41.351562 56.117188 40.96875 55.914062 40.613281 55.664062 C 40.277344 55.40625 39.992188 55.105469 39.769531 54.742188 C 39.539062 54.371094 39.433594 53.90625 39.433594 53.359375 C 39.433594 52.265625 39.824219 51.414062 40.613281 50.800781 C 41.421875 50.191406 42.511719 49.886719 43.914062 49.886719 C 44.714844 49.886719 45.414062 49.96875 46 50.128906 C 46.613281 50.289062 47.117188 50.472656 47.527344 50.667969 L 46.761719 52.453125 C 46.417969 52.273438 46.019531 52.132812 45.582031 52 C 45.15625 51.875 44.667969 51.8125 44.101562 51.8125 C 42.71875 51.8125 42.035156 52.257812 42.035156 53.144531 C 42.035156 53.375 42.105469 53.570312 42.246094 53.75 C 42.378906 53.90625 42.558594 54.058594 42.769531 54.199219 C 42.992188 54.324219 43.242188 54.441406 43.507812 54.539062 C 43.789062 54.636719 44.066406 54.734375 44.332031 54.820312 C 44.738281 54.953125 45.164062 55.113281 45.601562 55.28125 C 46.054688 55.453125 46.460938 55.671875 46.824219 55.957031 C 47.207031 56.234375 47.515625 56.585938 47.757812 57.011719 C 47.996094 57.421875 48.121094 57.945312 48.121094 58.582031 C 48.121094 59.675781 47.710938 60.519531 46.914062 61.121094 C 46.125 61.707031 44.917969 62 43.300781 62 C 42.210938 62 41.351562 61.902344 40.703125 61.699219 C 40.054688 61.484375 39.566406 61.289062 39.238281 61.121094 L 40 59.242188 C 40.382812 59.445312 40.835938 59.632812 41.351562 59.808594 C 41.890625 59.976562 42.539062 60.066406 43.300781 60.066406 "
           style="stroke:none;fill-rule:nonzero;fill:#000000;fill-opacity:1" />
      </g>
      <g
         id="g4159">
        <path
           style=" stroke:none;fill-rule:nonzero;fill:rgb(100%,100%,100%);fill-opacity:1;"
           d="M 46 18 L 46 44 L 18 44 L 18 18 Z M 44 20 L 30 20 L 30 26 L 44 26 Z M 28 20 L 20 20 L 20 26 L 28 26 Z M 44 28 L 30 28 L 30 34 L 44 34 Z M 28 28 L 20 28 L 20 34 L 28 34 Z M 44 36 L 30 36 L 30 42 L 44 42 Z M 28 36 L 20 36 L 20 42 L 28 42 Z M 28 36 "
           id="path7" />
        <path
           style=" stroke:none;fill-rule:nonzero;fill:rgb(100%,100%,100%);fill-opacity:1;"
           d="M 20.472656 55.941406 C 20.472656 56.507812 20.488281 57.039062 20.535156 57.535156 C 20.597656 58.023438 20.695312 58.449219 20.835938 58.816406 C 20.988281 59.179688 21.199219 59.460938 21.464844 59.675781 C 21.730469 59.886719 22.097656 59.996094 22.546875 59.996094 C 22.984375 59.996094 23.328125 59.886719 23.605469 59.675781 C 23.878906 59.460938 24.09375 59.179688 24.234375 58.816406 C 24.394531 58.433594 24.492188 58.007812 24.527344 57.519531 C 24.589844 57.03125 24.617188 56.507812 24.617188 55.941406 C 24.617188 55.378906 24.589844 54.855469 24.527344 54.371094 C 24.492188 53.863281 24.394531 53.4375 24.234375 53.074219 C 24.09375 52.710938 23.886719 52.425781 23.621094 52.214844 C 23.355469 52 22.992188 51.894531 22.546875 51.894531 C 22.097656 51.894531 21.730469 52 21.464844 52.214844 C 21.199219 52.425781 20.988281 52.71875 20.835938 53.089844 C 20.695312 53.457031 20.597656 53.882812 20.535156 54.371094 C 20.488281 54.855469 20.472656 55.378906 20.472656 55.941406 M 17.828125 55.941406 C 17.828125 53.941406 18.246094 52.433594 19.078125 51.421875 C 19.914062 50.394531 21.066406 49.886719 22.546875 49.886719 C 24.082031 49.886719 25.246094 50.394531 26.054688 51.421875 C 26.851562 52.433594 27.261719 53.941406 27.261719 55.941406 C 27.261719 57.945312 26.851562 59.453125 26.035156 60.484375 C 25.210938 61.496094 24.058594 62 22.566406 62 C 21.03125 62 19.851562 61.496094 19.035156 60.484375 C 18.234375 59.453125 17.828125 57.945312 17.828125 55.941406 "
           id="path11" />
        <path
           style=" stroke:none;fill-rule:nonzero;fill:rgb(100%,100%,100%);fill-opacity:1;"
           d="M 37.863281 50.144531 L 37.863281 52.0625 L 34.421875 52.0625 L 34.421875 61.761719 L 31.804688 61.761719 L 31.804688 52.0625 L 28.359375 52.0625 L 28.359375 50.144531 L 37.863281 50.144531 "
           id="path13" />
        <path
           style=" stroke:none;fill-rule:nonzero;fill:rgb(100%,100%,100%);fill-opacity:1;"
           d="M 43.300781 60.066406 C 43.738281 60.066406 44.09375 60.03125 44.375 59.960938 C 44.667969 59.871094 44.910156 59.753906 45.078125 59.621094 C 45.246094 59.472656 45.351562 59.300781 45.414062 59.132812 C 45.484375 58.949219 45.519531 58.753906 45.519531 58.566406 C 45.519531 58.328125 45.441406 58.121094 45.289062 57.925781 C 45.128906 57.742188 44.933594 57.582031 44.695312 57.4375 C 44.457031 57.296875 44.191406 57.164062 43.886719 57.050781 C 43.59375 56.925781 43.300781 56.808594 43 56.710938 C 42.609375 56.585938 42.203125 56.445312 41.777344 56.277344 C 41.351562 56.117188 40.96875 55.914062 40.613281 55.664062 C 40.277344 55.40625 39.992188 55.105469 39.769531 54.742188 C 39.539062 54.371094 39.433594 53.90625 39.433594 53.359375 C 39.433594 52.265625 39.824219 51.414062 40.613281 50.800781 C 41.421875 50.191406 42.511719 49.886719 43.914062 49.886719 C 44.714844 49.886719 45.414062 49.96875 46 50.128906 C 46.613281 50.289062 47.117188 50.472656 47.527344 50.667969 L 46.761719 52.453125 C 46.417969 52.273438 46.019531 52.132812 45.582031 52 C 45.15625 51.875 44.667969 51.8125 44.101562 51.8125 C 42.71875 51.8125 42.035156 52.257812 42.035156 53.144531 C 42.035156 53.375 42.105469 53.570312 42.246094 53.75 C 42.378906 53.90625 42.558594 54.058594 42.769531 54.199219 C 42.992188 54.324219 43.242188 54.441406 43.507812 54.539062 C 43.789062 54.636719 44.066406 54.734375 44.332031 54.820312 C 44.738281 54.953125 45.164062 55.113281 45.601562 55.28125 C 46.054688 55.453125 46.460938 55.671875 46.824219 55.957031 C 47.207031 56.234375 47.515625 56.585938 47.757812 57.011719 C 47.996094 57.421875 48.121094 57.945312 48.121094 58.582031 C 48.121094 59.675781 47.710938 60.519531 46.914062 61.121094 C 46.125 61.707031 44.917969 62 43.300781 62 C 42.210938 62 41.351562 61.902344 40.703125 61.699219 C 40.054688 61.484375 39.566406 61.289062 39.238281 61.121094 L 40 59.242188 C 40.382812 59.445312 40.835938 59.632812 41.351562 59.808594 C 41.890625 59.976562 42.539062 60.066406 43.300781 60.066406 "
           id="path15" />
      </g>
    </g>
    <g
       id="g4161">
      <path
         inkscape:connector-curvature="0"
         id="path4178"
         d="m 7.9999995,60.210938 0,1 c 0,1.355468 1.375,2.789062 2.6718755,2.789062 l 42.656244,0 C 54.624989,64 56,62.566406 56,61.210938 l 0,-1 C 56,61.566406 54.624989,63 53.328119,63 L 10.671875,63 C 9.3749995,63 7.9999995,61.566406 7.9999995,60.210938 Z"
         style="opacity:0.15;fill:#000000;fill-opacity:1;fill-rule:nonzero;stroke:none" />
      <path
         style="opacity:0.5;fill:#ffffff;fill-opacity:1;fill-rule:nonzero;stroke:none"
         d="m 7.9999998,3.789062 0,-1 C 7.9999998,1.433594 9.3749999,0 10.671875,0 L 53.328119,0 C 54.624989,0 56,1.433594 56,2.789062 l 0,1 C 56,2.433594 54.624989,1 53.328119,1 L 10.671875,1 C 9.3749998,1 7.9999998,2.433594 7.9999998,3.789062 Z"
         id="path4159"
         inkscape:connector-curvature="0" />
    </g>
  </g>
</svg>
