<?xml version="1.0" encoding="UTF-8" standalone="no"?>
<svg
   xmlns:dc="http://purl.org/dc/elements/1.1/"
   xmlns:cc="http://creativecommons.org/ns#"
   xmlns:rdf="http://www.w3.org/1999/02/22-rdf-syntax-ns#"
   xmlns:svg="http://www.w3.org/2000/svg"
   xmlns="http://www.w3.org/2000/svg"
   xmlns:sodipodi="http://sodipodi.sourceforge.net/DTD/sodipodi-0.dtd"
   xmlns:inkscape="http://www.inkscape.org/namespaces/inkscape"
   width="64px"
   height="64px"
   viewBox="0 0 64 64"
   version="1.1"
   id="svg2"
   inkscape:version="0.91 r13725"
   sodipodi:docname="application-table-template.svg">
  <metadata
     id="metadata13">
    <rdf:RDF>
      <cc:Work
         rdf:about="">
        <dc:format>image/svg+xml</dc:format>
        <dc:type
           rdf:resource="http://purl.org/dc/dcmitype/StillImage" />
      </cc:Work>
    </rdf:RDF>
  </metadata>
  <defs
     id="defs11">
    <filter
       inkscape:collect="always"
       style="color-interpolation-filters:sRGB"
       id="filter4165"
       x="-0.092571429"
       width="1.1851429"
       y="-0.099692308"
       height="1.1993846">
      <feGaussianBlur
         inkscape:collect="always"
         stdDeviation="1.08"
         id="feGaussianBlur4167" />
    </filter>
  </defs>
  <sodipodi:namedview
     pagecolor="#ffffff"
     bordercolor="#666666"
     borderopacity="1"
     objecttolerance="10"
     gridtolerance="10"
     guidetolerance="10"
     inkscape:pageopacity="0"
     inkscape:pageshadow="2"
     inkscape:window-width="643"
     inkscape:window-height="480"
     id="namedview9"
     showgrid="false"
     inkscape:zoom="7.375"
     inkscape:cx="39.364453"
     inkscape:cy="27.682227"
     inkscape:window-x="473"
     inkscape:window-y="257"
     inkscape:window-maximized="0"
     inkscape:current-layer="svg2" />
  <g
     id="surface1">
    <path
       style=" stroke:none;fill-rule:nonzero;fill:rgb(12.54902%,44.313725%,27.058824%);fill-opacity:1;"
       d="M 10.6875 0 C 9.3125 0 8 1.378906 8 2.8125 L 8 61.1875 C 8 62.539062 9.390625 64 10.6875 64 L 53.3125 64 C 54.609375 64 56 62.539062 56 61.1875 L 56 2.75 C 56 1.402344 54.597656 0 53.25 0 Z M 10.6875 0 "
       id="path5" />
    <path
       id="path4151"
       d="M 46 22 L 46 48 L 18 48 L 18 22 Z M 44 24 L 30 24 L 30 30 L 44 30 Z M 28 24 L 20 24 L 20 30 L 28 30 Z M 44 32 L 30 32 L 30 38 L 44 38 Z M 28 32 L 20 32 L 20 38 L 28 38 Z M 44 40 L 30 40 L 30 46 L 44 46 Z M 28 40 L 20 40 L 20 46 L 28 46 Z M 28 40 "
       style="stroke:none;fill-rule:nonzero;fill:#000000;fill-opacity:1;opacity:0.35;filter:url(#filter4165)" />
    <path
       style=" stroke:none;fill-rule:nonzero;fill:rgb(100%,100%,100%);fill-opacity:1;"
       d="M 46 22 L 46 48 L 18 48 L 18 22 Z M 44 24 L 30 24 L 30 30 L 44 30 Z M 28 24 L 20 24 L 20 30 L 28 30 Z M 44 32 L 30 32 L 30 38 L 44 38 Z M 28 32 L 20 32 L 20 38 L 28 38 Z M 44 40 L 30 40 L 30 46 L 44 46 Z M 28 40 L 20 40 L 20 46 L 28 46 Z M 28 40 "
       id="path7" />
  </g>
  <g
     transform="translate(-162,-193.78906)"
     id="g5123">
    <path
       style="opacity:0.15;fill:#000000;fill-opacity:1;fill-rule:nonzero;stroke:none"
       d="m 170,254 0,1 c 0,1.35547 1.375,2.78906 2.67187,2.78906 l 42.65625,0 C 216.62499,257.78906 218,256.35547 218,255 l 0,-1 c 0,1.35547 -1.37501,2.78906 -2.67188,2.78906 l -42.65625,0 C 171.375,256.78906 170,255.35547 170,254 Z"
       id="path4178-43"
       inkscape:connector-curvature="0" />
    <path
       inkscape:connector-curvature="0"
       id="path4159"
       d="m 170,197.57812 0,-1 c 0,-1.35547 1.375,-2.78906 2.67187,-2.78906 l 42.65625,0 c 1.29687,0 2.67188,1.43359 2.67188,2.78906 l 0,1 c 0,-1.35547 -1.37501,-2.78906 -2.67188,-2.78906 l -42.65625,0 c -1.29687,0 -2.67187,1.43359 -2.67187,2.78906 z"
       style="opacity:0.5;fill:#ffffff;fill-opacity:1;fill-rule:nonzero;stroke:none" />
  </g>
</svg>
