<?xml version="1.0" encoding="UTF-8" standalone="no"?>
<svg
   xmlns:dc="http://purl.org/dc/elements/1.1/"
   xmlns:cc="http://creativecommons.org/ns#"
   xmlns:rdf="http://www.w3.org/1999/02/22-rdf-syntax-ns#"
   xmlns:svg="http://www.w3.org/2000/svg"
   xmlns="http://www.w3.org/2000/svg"
   xmlns:sodipodi="http://sodipodi.sourceforge.net/DTD/sodipodi-0.dtd"
   xmlns:inkscape="http://www.inkscape.org/namespaces/inkscape"
   width="64px"
   height="64px"
   viewBox="0 0 64 64"
   version="1.1"
   id="svg2"
   inkscape:version="0.91 r13725"
   sodipodi:docname="application-vnd.oasis.opendocument.image-template.svg">
  <metadata
     id="metadata21">
    <rdf:RDF>
      <cc:Work
         rdf:about="">
        <dc:format>image/svg+xml</dc:format>
        <dc:type
           rdf:resource="http://purl.org/dc/dcmitype/StillImage" />
      </cc:Work>
    </rdf:RDF>
  </metadata>
  <defs
     id="defs19">
    <filter
       inkscape:collect="always"
       style="color-interpolation-filters:sRGB"
       id="filter4175"
       x="-0.12330599"
       width="1.246612"
       y="-0.078595177"
       height="1.1571904">
      <feGaussianBlur
         inkscape:collect="always"
         stdDeviation="1.4482031"
         id="feGaussianBlur4177" />
    </filter>
  </defs>
  <sodipodi:namedview
     pagecolor="#ffffff"
     bordercolor="#666666"
     borderopacity="1"
     objecttolerance="10"
     gridtolerance="10"
     guidetolerance="10"
     inkscape:pageopacity="0"
     inkscape:pageshadow="2"
     inkscape:window-width="1301"
     inkscape:window-height="744"
     id="namedview17"
     showgrid="false"
     inkscape:zoom="7.375"
     inkscape:cx="42.453503"
     inkscape:cy="36.595857"
     inkscape:window-x="65"
     inkscape:window-y="24"
     inkscape:window-maximized="1"
     inkscape:current-layer="svg2" />
  <g
     id="g3350">
    <g
       id="surface1">
      <path
         id="path5"
         d="M 10.6875 0 C 9.3125 0 8 1.378906 8 2.8125 L 8 61.1875 C 8 62.539062 9.390625 64 10.6875 64 L 53.3125 64 C 54.609375 64 56 62.539062 56 61.1875 L 56 2.75 C 56 1.402344 54.597656 0 53.25 0 Z M 10.6875 0 "
         style=" stroke:none;fill-rule:nonzero;fill:rgb(92.941176%,68.627451%,0.784314%);fill-opacity:1;" />
      <path
         id="path7"
         d="M 8 48 L 8 61.335938 C 8 62.632812 9.375 64 10.664062 64 L 53.335938 64 C 54.625 64 56 62.632812 56 61.335938 L 56 48 Z M 8 48 "
         style=" stroke:none;fill-rule:nonzero;fill:rgb(0%,0%,0%);fill-opacity:0.196078;" />
      <g
         style="filter:url(#filter4175);opacity:0.35;fill:#000000"
         id="g4165">
        <path
           id="path4167"
           d="M 20 42 L 20 18 L 44 18 L 44 42 L 30 42 L 30 30 L 36 30 L 36 34 L 34 34 L 34 38 L 40 38 L 40 22 L 24 22 L 24 42 Z M 20 42 "
           style="stroke:none;fill-rule:nonzero;fill:#000000;fill-opacity:1" />
        <path
           id="path4169"
           d="M 20.296875 56.585938 C 20.296875 57.113281 20.3125 57.609375 20.355469 58.070312 C 20.40625 58.523438 20.503906 58.921875 20.636719 59.257812 C 20.777344 59.597656 20.976562 59.863281 21.230469 60.058594 C 21.476562 60.257812 21.816406 60.355469 22.238281 60.355469 C 22.652344 60.355469 22.980469 60.257812 23.238281 60.058594 C 23.5 59.863281 23.699219 59.597656 23.832031 59.257812 C 23.972656 58.902344 24.070312 58.507812 24.105469 58.054688 C 24.160156 57.601562 24.1875 57.113281 24.1875 56.585938 C 24.1875 56.0625 24.160156 55.578125 24.105469 55.121094 C 24.070312 54.652344 23.972656 54.253906 23.832031 53.917969 C 23.699219 53.578125 23.5 53.316406 23.253906 53.117188 C 23.003906 52.917969 22.667969 52.820312 22.238281 52.820312 C 21.816406 52.820312 21.476562 52.917969 21.230469 53.117188 C 20.976562 53.316406 20.777344 53.585938 20.636719 53.933594 C 20.503906 54.273438 20.40625 54.667969 20.355469 55.121094 C 20.3125 55.578125 20.296875 56.0625 20.296875 56.585938 M 17.8125 56.585938 C 17.8125 54.726562 18.207031 53.324219 18.984375 52.382812 C 19.769531 51.421875 20.851562 50.953125 22.238281 50.953125 C 23.683594 50.953125 24.78125 51.421875 25.53125 52.382812 C 26.292969 53.324219 26.664062 54.726562 26.664062 56.585938 C 26.664062 58.449219 26.285156 59.855469 25.515625 60.8125 C 24.746094 61.753906 23.667969 62.222656 22.261719 62.222656 C 20.816406 62.222656 19.710938 61.753906 18.945312 60.8125 C 18.191406 59.855469 17.8125 58.449219 17.8125 56.585938 "
           style="stroke:none;fill-rule:nonzero;fill:#000000;fill-opacity:1" />
        <path
           id="path4171"
           d="M 36.628906 51.191406 L 36.628906 52.976562 L 33.390625 52.976562 L 33.390625 62 L 30.933594 62 L 30.933594 52.976562 L 27.695312 52.976562 L 27.695312 51.191406 L 36.628906 51.191406 "
           style="stroke:none;fill-rule:nonzero;fill:#000000;fill-opacity:1" />
        <path
           id="path4173"
           d="M 38.199219 62 L 38.199219 60.21875 L 40.871094 60.21875 L 40.871094 52.976562 L 38.199219 52.976562 L 38.199219 51.191406 L 46 51.191406 L 46 52.976562 L 43.339844 52.976562 L 43.339844 60.21875 L 46 60.21875 L 46 62 L 38.199219 62 "
           style="stroke:none;fill-rule:nonzero;fill:#000000;fill-opacity:1" />
      </g>
      <g
         id="g4159">
        <path
           style=" stroke:none;fill-rule:nonzero;fill:rgb(100%,100%,100%);fill-opacity:1;"
           d="M 20 42 L 20 18 L 44 18 L 44 42 L 30 42 L 30 30 L 36 30 L 36 34 L 34 34 L 34 38 L 40 38 L 40 22 L 24 22 L 24 42 Z M 20 42 "
           id="path9" />
        <path
           style=" stroke:none;fill-rule:nonzero;fill:rgb(100%,100%,100%);fill-opacity:1;"
           d="M 20.296875 56.585938 C 20.296875 57.113281 20.3125 57.609375 20.355469 58.070312 C 20.40625 58.523438 20.503906 58.921875 20.636719 59.257812 C 20.777344 59.597656 20.976562 59.863281 21.230469 60.058594 C 21.476562 60.257812 21.816406 60.355469 22.238281 60.355469 C 22.652344 60.355469 22.980469 60.257812 23.238281 60.058594 C 23.5 59.863281 23.699219 59.597656 23.832031 59.257812 C 23.972656 58.902344 24.070312 58.507812 24.105469 58.054688 C 24.160156 57.601562 24.1875 57.113281 24.1875 56.585938 C 24.1875 56.0625 24.160156 55.578125 24.105469 55.121094 C 24.070312 54.652344 23.972656 54.253906 23.832031 53.917969 C 23.699219 53.578125 23.5 53.316406 23.253906 53.117188 C 23.003906 52.917969 22.667969 52.820312 22.238281 52.820312 C 21.816406 52.820312 21.476562 52.917969 21.230469 53.117188 C 20.976562 53.316406 20.777344 53.585938 20.636719 53.933594 C 20.503906 54.273438 20.40625 54.667969 20.355469 55.121094 C 20.3125 55.578125 20.296875 56.0625 20.296875 56.585938 M 17.8125 56.585938 C 17.8125 54.726562 18.207031 53.324219 18.984375 52.382812 C 19.769531 51.421875 20.851562 50.953125 22.238281 50.953125 C 23.683594 50.953125 24.78125 51.421875 25.53125 52.382812 C 26.292969 53.324219 26.664062 54.726562 26.664062 56.585938 C 26.664062 58.449219 26.285156 59.855469 25.515625 60.8125 C 24.746094 61.753906 23.667969 62.222656 22.261719 62.222656 C 20.816406 62.222656 19.710938 61.753906 18.945312 60.8125 C 18.191406 59.855469 17.8125 58.449219 17.8125 56.585938 "
           id="path11" />
        <path
           style=" stroke:none;fill-rule:nonzero;fill:rgb(100%,100%,100%);fill-opacity:1;"
           d="M 36.628906 51.191406 L 36.628906 52.976562 L 33.390625 52.976562 L 33.390625 62 L 30.933594 62 L 30.933594 52.976562 L 27.695312 52.976562 L 27.695312 51.191406 L 36.628906 51.191406 "
           id="path13" />
        <path
           style=" stroke:none;fill-rule:nonzero;fill:rgb(100%,100%,100%);fill-opacity:1;"
           d="M 38.199219 62 L 38.199219 60.21875 L 40.871094 60.21875 L 40.871094 52.976562 L 38.199219 52.976562 L 38.199219 51.191406 L 46 51.191406 L 46 52.976562 L 43.339844 52.976562 L 43.339844 60.21875 L 46 60.21875 L 46 62 L 38.199219 62 "
           id="path15" />
      </g>
    </g>
    <g
       id="g4161">
      <path
         inkscape:connector-curvature="0"
         id="path4178"
         d="m 7.9999995,60.210938 0,1 c 0,1.355468 1.375,2.789062 2.6718755,2.789062 l 42.656244,0 C 54.624989,64 56,62.566406 56,61.210938 l 0,-1 C 56,61.566406 54.624989,63 53.328119,63 L 10.671875,63 C 9.3749995,63 7.9999995,61.566406 7.9999995,60.210938 Z"
         style="opacity:0.15;fill:#000000;fill-opacity:1;fill-rule:nonzero;stroke:none" />
      <path
         style="opacity:0.5;fill:#ffffff;fill-opacity:1;fill-rule:nonzero;stroke:none"
         d="m 7.9999998,3.789062 0,-1 C 7.9999998,1.433594 9.3749999,0 10.671875,0 L 53.328119,0 C 54.624989,0 56,1.433594 56,2.789062 l 0,1 C 56,2.433594 54.624989,1 53.328119,1 L 10.671875,1 C 9.3749998,1 7.9999998,2.433594 7.9999998,3.789062 Z"
         id="path4159"
         inkscape:connector-curvature="0" />
    </g>
  </g>
</svg>
