<?xml version="1.0" encoding="UTF-8" standalone="no"?>
<svg
   xmlns:dc="http://purl.org/dc/elements/1.1/"
   xmlns:cc="http://creativecommons.org/ns#"
   xmlns:rdf="http://www.w3.org/1999/02/22-rdf-syntax-ns#"
   xmlns:svg="http://www.w3.org/2000/svg"
   xmlns="http://www.w3.org/2000/svg"
   xmlns:sodipodi="http://sodipodi.sourceforge.net/DTD/sodipodi-0.dtd"
   xmlns:inkscape="http://www.inkscape.org/namespaces/inkscape"
   width="64"
   height="64"
   viewBox="0 0 64 64"
   id="svg2"
   version="1.1"
   inkscape:version="0.91 r13725"
   sodipodi:docname="application-pgp-encrypted.svg">
  <metadata
     id="metadata14">
    <rdf:RDF>
      <cc:Work
         rdf:about="">
        <dc:format>image/svg+xml</dc:format>
        <dc:type
           rdf:resource="http://purl.org/dc/dcmitype/StillImage" />
      </cc:Work>
    </rdf:RDF>
  </metadata>
  <defs
     id="defs12">
    <filter
       inkscape:collect="always"
       style="color-interpolation-filters:sRGB"
       id="filter4185"
       x="-0.096041702"
       width="1.1920834"
       y="-0.09595833"
       height="1.1919167">
      <feGaussianBlur
         inkscape:collect="always"
         stdDeviation="0.7196875"
         id="feGaussianBlur4187" />
    </filter>
    <filter
       inkscape:collect="always"
       style="color-interpolation-filters:sRGB"
       id="filter4159"
       x="-0.10803242"
       width="1.2160648"
       y="-0.086379261"
       height="1.1727585">
      <feGaussianBlur
         inkscape:collect="always"
         stdDeviation="1.0803262"
         id="feGaussianBlur4161" />
    </filter>
  </defs>
  <sodipodi:namedview
     pagecolor="#ffffff"
     bordercolor="#666666"
     borderopacity="1"
     objecttolerance="10"
     gridtolerance="10"
     guidetolerance="10"
     inkscape:pageopacity="0"
     inkscape:pageshadow="2"
     inkscape:window-width="1301"
     inkscape:window-height="744"
     id="namedview10"
     showgrid="true"
     inkscape:zoom="7.375"
     inkscape:cx="23.677939"
     inkscape:cy="27.245018"
     inkscape:window-x="65"
     inkscape:window-y="24"
     inkscape:window-maximized="1"
     inkscape:current-layer="svg2">
    <inkscape:grid
       type="xygrid"
       id="grid2991"
       empspacing="5"
       visible="true"
       enabled="true"
       snapvisiblegridlinesonly="true" />
  </sodipodi:namedview>
  <g
     transform="translate(-0.71943709,0)"
     id="g4140">
    <path
       style="fill:#dcdcdc;fill-opacity:1;fill-rule:nonzero;stroke:none"
       d="M 10.671875,0 C 9.296875,0 8,1.355469 8,2.789062 L 8,61.210938 C 8,62.566406 9.375,64 10.671875,64 l 42.65625,0 C 54.625,64 56,62.566406 56,61.210938 L 56,18 38,0 Z m 0,0"
       id="path5"
       inkscape:connector-curvature="0" />
    <path
       transform="matrix(1,0,0,0.95722054,0,0.82447778)"
       inkscape:connector-curvature="0"
       id="path4183"
       d="m 37.72725,1.2727492 0,15.2265618 c 0,1.347657 1.410156,2.773438 2.757812,2.773438 l 15.226563,0 -1,-1 -13.984375,0 c -1.108,0 -2,-0.892 -2,-2 l 0,-13.9999998 -1,-1 z"
       style="opacity:0.35;fill:#000000;fill-opacity:1;fill-rule:nonzero;stroke:none;filter:url(#filter4185)" />
    <path
       style="fill:#f2f2f2;fill-opacity:1;fill-rule:nonzero;stroke:none"
       d="M 38,0 55.984375,18 40.757812,18 C 39.410156,18 38,16.574219 38,15.226562 Z m 0,0"
       id="path9"
       inkscape:connector-curvature="0" />
    <path
       inkscape:connector-curvature="0"
       id="path4160"
       d="M 10.671875,2.0000001e-8 C 9.2968752,2.0000001e-8 8.0000002,1.3554695 8.0000002,2.7890625 l 0,1 C 8.0000002,2.3554695 9.2968752,1 10.671875,1 L 38,1 38,2e-8 l -27.328125,0 z"
       style="opacity:0.5;fill:#ffffff;fill-opacity:1;fill-rule:nonzero;stroke:none" />
    <path
       inkscape:connector-curvature="0"
       id="path4178"
       d="m 8.0000002,60.210938 0,1 c 0,1.355468 1.375,2.789062 2.6718748,2.789062 L 53.32812,64 C 54.62499,64 56,62.566406 56,61.210938 l 0,-1 C 56,61.566406 54.62499,63 53.32812,63 L 10.671875,63 C 9.3750002,63 8.0000002,61.566406 8.0000002,60.210938 Z"
       style="opacity:0.15;fill:#000000;fill-opacity:1;fill-rule:nonzero;stroke:none" />
  </g>
  <path
     sodipodi:nodetypes="cccsccccsccccsccsc"
     d="m 32.000042,22 c 0,0 9.990822,-0.63309 9.999958,6 l 0,6 c 0,0 2.000046,0.13168 2.000042,1.6363 l -4.4e-5,13.977212 C 43.999862,50.875686 42.774932,51.999863 41.428568,52 l -18.85715,0 c -1.346354,-1.37e-4 -2.571294,-1.124314 -2.57142,-2.386488 L 20.000042,35.6363 C 20.000046,34.131672 22,34 22,34 l 0,-6 c 0,-6 10.00005,-6 10.000042,-6 z m 0,4.090889 c 0,0 -6.000042,-0.231922 -6.000042,4.748736 L 26,34 l 12,0 0,-3.136404 c 0,-4.98066 -5.999958,-4.772707 -5.999958,-4.772707 z"
     id="path4157"
     inkscape:connector-curvature="0"
     style="color:#000000;fill:#000000;fill-opacity:1;opacity:0.35;filter:url(#filter4159)" />
  <path
     style="color:#000000;fill:#888888;fill-opacity:1"
     inkscape:connector-curvature="0"
     id="path30"
     d="m 32.000042,22 c 0,0 9.990822,-0.63309 9.999958,6 l 0,6 c 0,0 2.000046,0.13168 2.000042,1.6363 l -4.4e-5,13.977212 C 43.999862,50.875686 42.774932,51.999863 41.428568,52 l -18.85715,0 c -1.346354,-1.37e-4 -2.571294,-1.124314 -2.57142,-2.386488 L 20.000042,35.6363 C 20.000046,34.131672 22,34 22,34 l 0,-6 c 0,-6 10.00005,-6 10.000042,-6 z m 0,4.090889 c 0,0 -6.000042,-0.231922 -6.000042,4.748736 L 26,34 l 12,0 0,-3.136404 c 0,-4.98066 -5.999958,-4.772707 -5.999958,-4.772707 z"
     sodipodi:nodetypes="cccsccccsccccsccsc" />
</svg>
