<?xml version="1.0" encoding="UTF-8" standalone="no"?>
<svg
   xmlns:dc="http://purl.org/dc/elements/1.1/"
   xmlns:cc="http://creativecommons.org/ns#"
   xmlns:rdf="http://www.w3.org/1999/02/22-rdf-syntax-ns#"
   xmlns:svg="http://www.w3.org/2000/svg"
   xmlns="http://www.w3.org/2000/svg"
   xmlns:sodipodi="http://sodipodi.sourceforge.net/DTD/sodipodi-0.dtd"
   xmlns:inkscape="http://www.inkscape.org/namespaces/inkscape"
   width="64px"
   height="64px"
   viewBox="0 0 64 64"
   version="1.1"
   id="svg2"
   inkscape:version="0.91 r13725"
   sodipodi:docname="image-x-xcf.svg">
  <metadata
     id="metadata17">
    <rdf:RDF>
      <cc:Work
         rdf:about="">
        <dc:format>image/svg+xml</dc:format>
        <dc:type
           rdf:resource="http://purl.org/dc/dcmitype/StillImage" />
      </cc:Work>
    </rdf:RDF>
  </metadata>
  <defs
     id="defs15">
    <filter
       inkscape:collect="always"
       style="color-interpolation-filters:sRGB"
       id="filter4185-0"
       x="-0.096041702"
       width="1.1920834"
       y="-0.09595833"
       height="1.1919167">
      <feGaussianBlur
         inkscape:collect="always"
         stdDeviation="0.7196875"
         id="feGaussianBlur4187-3" />
    </filter>
    <filter
       inkscape:collect="always"
       style="color-interpolation-filters:sRGB"
       id="filter4177"
       x="-0.086403432"
       width="1.1728069"
       y="-0.10799464"
       height="1.2159893">
      <feGaussianBlur
         inkscape:collect="always"
         stdDeviation="1.1520194"
         id="feGaussianBlur4179" />
    </filter>
  </defs>
  <sodipodi:namedview
     pagecolor="#ffffff"
     bordercolor="#666666"
     borderopacity="1"
     objecttolerance="10"
     gridtolerance="10"
     guidetolerance="10"
     inkscape:pageopacity="0"
     inkscape:pageshadow="2"
     inkscape:window-width="649"
     inkscape:window-height="480"
     id="namedview13"
     showgrid="false"
     inkscape:zoom="7.375"
     inkscape:cx="38.690479"
     inkscape:cy="23.333324"
     inkscape:window-x="487"
     inkscape:window-y="272"
     inkscape:window-maximized="0"
     inkscape:current-layer="svg2" />
  <g
     transform="translate(-0.71943709,0)"
     id="g4149">
    <path
       style="fill:#bf9451;fill-opacity:1;fill-rule:nonzero;stroke:none"
       d="M 10.671875,0 C 9.296875,0 8,1.355469 8,2.789062 L 8,61.210938 C 8,62.566406 9.375,64 10.671875,64 l 42.65625,0 C 54.625,64 56,62.566406 56,61.210938 L 56,18 38,0 Z m 0,0"
       id="path5-6"
       inkscape:connector-curvature="0" />
    <path
       transform="matrix(1,0,0,0.96969658,0,0.58403026)"
       inkscape:connector-curvature="0"
       id="path4183-4"
       d="m 37.72725,1.2727492 0,15.2265618 c 0,1.347657 1.410156,2.773438 2.757812,2.773438 l 15.226563,0 -1,-1 -13.984375,0 c -1.108,0 -2,-0.892 -2,-2 l 0,-13.9999998 -1,-1 z"
       style="opacity:0.35;fill:#000000;fill-opacity:1;fill-rule:nonzero;stroke:none;filter:url(#filter4185-0)" />
    <path
       style="fill:#f0d2a1;fill-opacity:1;fill-rule:nonzero;stroke:none"
       d="M 38,0 55.984375,18 40.757812,18 C 39.410156,18 38,16.574219 38,15.226562 Z m 0,0"
       id="path9-7"
       inkscape:connector-curvature="0" />
    <path
       inkscape:connector-curvature="0"
       id="path4160-2"
       d="M 10.671875,2.0000001e-8 C 9.2968752,2.0000001e-8 8.0000002,1.3554695 8.0000002,2.7890625 l 0,1 C 8.0000002,2.3554695 9.2968752,1 10.671875,1 L 38,1 38,2e-8 l -27.328125,0 z"
       style="opacity:0.5;fill:#ffffff;fill-opacity:1;fill-rule:nonzero;stroke:none" />
    <path
       inkscape:connector-curvature="0"
       id="path4178-0"
       d="m 8.0000002,60.210938 0,1 c 0,1.355468 1.375,2.789062 2.6718748,2.789062 L 53.32812,64 C 54.62499,64 56,62.566406 56,61.210938 l 0,-1 C 56,61.566406 54.62499,63 53.32812,63 L 10.671875,63 C 9.3750002,63 8.0000002,61.566406 8.0000002,60.210938 Z"
       style="opacity:0.15;fill:#000000;fill-opacity:1;fill-rule:nonzero;stroke:none" />
  </g>
  <g
     id="g4165"
     style="fill:#000000;opacity:0.35;filter:url(#filter4177)">
    <path
       id="path4167"
       d="M 44.0625 23.886719 C 43.941406 23.953125 43.828125 24.148438 43.726562 24.460938 C 43.453125 25.304688 41.503906 31.132812 30.453125 31.414062 C 25.1875 31.554688 22.945312 26.851562 22.945312 26.851562 L 22.8125 32.894531 C 22.8125 32.894531 23.375 34.246094 22.25 35.652344 C 22.1875 35.558594 22.148438 35.445312 22.082031 35.351562 C 21.679688 34.78125 21.203125 34.300781 20.695312 33.9375 C 20.113281 33.523438 19.503906 33.25 18.90625 33.167969 C 18.222656 33.0625 17.546875 33.214844 17.023438 33.597656 C 16.488281 33.992188 16.179688 34.582031 16.054688 35.285156 C 15.953125 35.886719 15.992188 36.542969 16.195312 37.234375 C 16.367188 37.835938 16.648438 38.445312 17.050781 39.015625 C 17.480469 39.617188 18.015625 40.148438 18.578125 40.523438 C 19.207031 40.945312 19.871094 41.191406 20.527344 41.226562 C 20.734375 41.246094 20.941406 41.191406 21.128906 41.164062 C 25.363281 44.574219 33.78125 47.761719 39.359375 44.125 C 39.480469 44.160156 39.601562 44.207031 39.722656 44.253906 C 39.722656 44.3125 39.703125 44.367188 39.722656 44.425781 L 39.984375 44.320312 C 40.03125 44.339844 40.070312 44.378906 40.117188 44.386719 C 40.125 44.394531 40.144531 44.386719 40.15625 44.386719 L 40.25 44.488281 L 42.769531 45.398438 C 42.667969 46.28125 43.097656 47.292969 44.195312 47.714844 C 46.164062 48.484375 48 49.46875 48 49.46875 C 47.054688 46.222656 46.714844 43.628906 44.261719 43.851562 C 43.800781 43.898438 43.453125 44.085938 43.199219 44.359375 L 40.980469 42.914062 L 40.886719 42.914062 L 40.847656 42.878906 C 43.839844 39.898438 45.582031 34.28125 44.523438 24.523438 C 44.457031 24.039062 44.261719 23.792969 44.0625 23.886719 Z M 44.0625 23.886719 "
       style="stroke:none;fill-rule:nonzero;fill:#000000;fill-opacity:1" />
  </g>
  <g
     id="surface1">
    <path
       style=" stroke:none;fill-rule:nonzero;fill:rgb(100%,100%,100%);fill-opacity:1;"
       d="M 44.0625 23.886719 C 43.941406 23.953125 43.828125 24.148438 43.726562 24.460938 C 43.453125 25.304688 41.503906 31.132812 30.453125 31.414062 C 25.1875 31.554688 22.945312 26.851562 22.945312 26.851562 L 22.8125 32.894531 C 22.8125 32.894531 23.375 34.246094 22.25 35.652344 C 22.1875 35.558594 22.148438 35.445312 22.082031 35.351562 C 21.679688 34.78125 21.203125 34.300781 20.695312 33.9375 C 20.113281 33.523438 19.503906 33.25 18.90625 33.167969 C 18.222656 33.0625 17.546875 33.214844 17.023438 33.597656 C 16.488281 33.992188 16.179688 34.582031 16.054688 35.285156 C 15.953125 35.886719 15.992188 36.542969 16.195312 37.234375 C 16.367188 37.835938 16.648438 38.445312 17.050781 39.015625 C 17.480469 39.617188 18.015625 40.148438 18.578125 40.523438 C 19.207031 40.945312 19.871094 41.191406 20.527344 41.226562 C 20.734375 41.246094 20.941406 41.191406 21.128906 41.164062 C 25.363281 44.574219 33.78125 47.761719 39.359375 44.125 C 39.480469 44.160156 39.601562 44.207031 39.722656 44.253906 C 39.722656 44.3125 39.703125 44.367188 39.722656 44.425781 L 39.984375 44.320312 C 40.03125 44.339844 40.070312 44.378906 40.117188 44.386719 C 40.125 44.394531 40.144531 44.386719 40.15625 44.386719 L 40.25 44.488281 L 42.769531 45.398438 C 42.667969 46.28125 43.097656 47.292969 44.195312 47.714844 C 46.164062 48.484375 48 49.46875 48 49.46875 C 47.054688 46.222656 46.714844 43.628906 44.261719 43.851562 C 43.800781 43.898438 43.453125 44.085938 43.199219 44.359375 L 40.980469 42.914062 L 40.886719 42.914062 L 40.847656 42.878906 C 43.839844 39.898438 45.582031 34.28125 44.523438 24.523438 C 44.457031 24.039062 44.261719 23.792969 44.0625 23.886719 Z M 44.0625 23.886719 "
       id="path11" />
  </g>
</svg>
