<?xml version="1.0" encoding="UTF-8" standalone="no"?>
<svg
   xmlns:dc="http://purl.org/dc/elements/1.1/"
   xmlns:cc="http://creativecommons.org/ns#"
   xmlns:rdf="http://www.w3.org/1999/02/22-rdf-syntax-ns#"
   xmlns:svg="http://www.w3.org/2000/svg"
   xmlns="http://www.w3.org/2000/svg"
   xmlns:sodipodi="http://sodipodi.sourceforge.net/DTD/sodipodi-0.dtd"
   xmlns:inkscape="http://www.inkscape.org/namespaces/inkscape"
   width="64px"
   height="64px"
   viewBox="0 0 64 64"
   version="1.1"
   id="svg2"
   inkscape:version="0.91 r13725"
   sodipodi:docname="text-x-lua.svg">
  <metadata
     id="metadata15">
    <rdf:RDF>
      <cc:Work
         rdf:about="">
        <dc:format>image/svg+xml</dc:format>
        <dc:type
           rdf:resource="http://purl.org/dc/dcmitype/StillImage" />
        <dc:title />
      </cc:Work>
    </rdf:RDF>
  </metadata>
  <defs
     id="defs13">
    <clipPath
       id="clipPath-889157936">
      <g
         transform="translate(0,-1004.3622)"
         id="g17">
        <path
           style="fill:#1890d0"
           inkscape:connector-curvature="0"
           d="m -24,13 c 0,1.105 -0.672,2 -1.5,2 -0.828,0 -1.5,-0.895 -1.5,-2 0,-1.105 0.672,-2 1.5,-2 0.828,0 1.5,0.895 1.5,2 z"
           transform="matrix(15.333333,0,0,11.5,414.99999,878.8622)"
           id="path19" />
      </g>
    </clipPath>
    <filter
       inkscape:collect="always"
       style="color-interpolation-filters:sRGB"
       id="filter4185-96"
       x="-0.096041702"
       width="1.1920834"
       y="-0.09595833"
       height="1.1919167">
      <feGaussianBlur
         inkscape:collect="always"
         stdDeviation="0.7196875"
         id="feGaussianBlur4187-26" />
    </filter>
    <filter
       inkscape:collect="always"
       style="color-interpolation-filters:sRGB"
       id="filter4166"
       x="-0.096"
       width="1.192"
       y="-0.096"
       height="1.192">
      <feGaussianBlur
         inkscape:collect="always"
         stdDeviation="0.96"
         id="feGaussianBlur4168" />
    </filter>
  </defs>
  <sodipodi:namedview
     pagecolor="#ffffff"
     bordercolor="#666666"
     borderopacity="1"
     objecttolerance="10"
     gridtolerance="10"
     guidetolerance="10"
     inkscape:pageopacity="0"
     inkscape:pageshadow="2"
     inkscape:window-width="1301"
     inkscape:window-height="744"
     id="namedview11"
     showgrid="false"
     inkscape:zoom="5.6568542"
     inkscape:cx="20.775624"
     inkscape:cy="15.544521"
     inkscape:window-x="65"
     inkscape:window-y="24"
     inkscape:window-maximized="1"
     inkscape:current-layer="svg2">
    <inkscape:grid
       type="xygrid"
       id="grid3019" />
  </sodipodi:namedview>
  <g
     transform="translate(-9.7350621,-341)"
     id="g4824">
    <g
       transform="translate(9.015625,341)"
       id="g4826">
      <path
         style="fill:#3366cc;fill-opacity:1;fill-rule:nonzero;stroke:none"
         d="M 10.671875,0 C 9.296875,0 8,1.355469 8,2.789062 L 8,61.210938 C 8,62.566406 9.375,64 10.671875,64 l 42.65625,0 C 54.625,64 56,62.566406 56,61.210938 L 56,18 38,0 Z m 0,0"
         id="path4828"
         inkscape:connector-curvature="0" />
      <path
         inkscape:connector-curvature="0"
         id="path4830"
         d="m 37.72725,1.2727492 0,15.2265618 c 0,1.347657 1.410156,2.773438 2.757812,2.773438 l 15.226563,0 -1,-1 -13.984375,0 c -1.108,0 -2,-0.892 -2,-2 l 0,-13.9999998 -1,-1 z"
         style="opacity:0.35;fill:#000000;fill-opacity:1;fill-rule:nonzero;stroke:none;filter:url(#filter4185-96)"
         transform="matrix(1,0,0,0.95722054,0,0.82447778)" />
      <path
         style="fill:#83a2e0;fill-opacity:1;fill-rule:nonzero;stroke:none"
         d="M 38,0 55.984375,18 40.757812,18 C 39.410156,18 38,16.574219 38,15.226562 Z m 0,0"
         id="path4832"
         inkscape:connector-curvature="0" />
      <path
         inkscape:connector-curvature="0"
         id="path4834"
         d="M 10.671875,2.0000001e-8 C 9.2968752,2.0000001e-8 8.0000002,1.3554695 8.0000002,2.7890625 l 0,1 C 8.0000002,2.3554695 9.2968752,1 10.671875,1 L 38,1 38,2e-8 l -27.328125,0 z"
         style="opacity:0.5;fill:#ffffff;fill-opacity:1;fill-rule:nonzero;stroke:none" />
      <path
         inkscape:connector-curvature="0"
         id="path4836"
         d="m 8.0000002,60.210938 0,1 c 0,1.355468 1.375,2.789062 2.6718748,2.789062 L 53.32812,64 C 54.62499,64 56,62.566406 56,61.210938 l 0,-1 C 56,61.566406 54.62499,63 53.32812,63 L 10.671875,63 C 9.3750002,63 8.0000002,61.566406 8.0000002,60.210938 Z"
         style="opacity:0.15;fill:#000000;fill-opacity:1;fill-rule:nonzero;stroke:none" />
    </g>
  </g>
  <g
     id="g53"
     clip-path="url(#clipPath-889157936)"
     transform="matrix(1.3333062,0,0,1.3333062,1.6336238e-4,3.9985596)">
    <!-- color: #aade54 -->
    <g
       id="g55" />
  </g>
  <path
     inkscape:connector-curvature="0"
     id="path4164"
     d="m 41,26 a 3,3 0 0 0 -3,3 3,3 0 0 0 3,3 3,3 0 0 0 3,-3 3,3 0 0 0 -3,-3 z M 30,30 A 10,10 0 0 0 20,40 10,10 0 0 0 30,50 10,10 0 0 0 40,40 10,10 0 0 0 30,30 Z m 3,4 a 3,3 0 0 1 3,3 3,3 0 0 1 -3,3 3,3 0 0 1 -3,-3 3,3 0 0 1 3,-3 z"
     style="fill:#000000;fill-opacity:1;fill-rule:evenodd;stroke:none;stroke-width:1px;stroke-linecap:butt;stroke-linejoin:miter;stroke-opacity:1;opacity:0.35;filter:url(#filter4166)" />
  <path
     style="fill:#ffffff;fill-opacity:1;fill-rule:evenodd;stroke:none;stroke-width:1px;stroke-linecap:butt;stroke-linejoin:miter;stroke-opacity:1"
     d="m 41,26 a 3,3 0 0 0 -3,3 3,3 0 0 0 3,3 3,3 0 0 0 3,-3 3,3 0 0 0 -3,-3 z M 30,30 A 10,10 0 0 0 20,40 10,10 0 0 0 30,50 10,10 0 0 0 40,40 10,10 0 0 0 30,30 Z m 3,4 a 3,3 0 0 1 3,3 3,3 0 0 1 -3,3 3,3 0 0 1 -3,-3 3,3 0 0 1 3,-3 z"
     id="path3358"
     inkscape:connector-curvature="0" />
</svg>
