<?xml version="1.0" encoding="UTF-8" standalone="no"?>
<svg
   xmlns:dc="http://purl.org/dc/elements/1.1/"
   xmlns:cc="http://creativecommons.org/ns#"
   xmlns:rdf="http://www.w3.org/1999/02/22-rdf-syntax-ns#"
   xmlns:svg="http://www.w3.org/2000/svg"
   xmlns="http://www.w3.org/2000/svg"
   xmlns:sodipodi="http://sodipodi.sourceforge.net/DTD/sodipodi-0.dtd"
   xmlns:inkscape="http://www.inkscape.org/namespaces/inkscape"
   width="64px"
   height="64px"
   viewBox="0 0 64 64"
   version="1.1"
   id="svg2"
   inkscape:version="0.91 r13725"
   sodipodi:docname="text-x-python.svg">
  <metadata
     id="metadata19">
    <rdf:RDF>
      <cc:Work
         rdf:about="">
        <dc:format>image/svg+xml</dc:format>
        <dc:type
           rdf:resource="http://purl.org/dc/dcmitype/StillImage" />
      </cc:Work>
    </rdf:RDF>
  </metadata>
  <defs
     id="defs17">
    <filter
       inkscape:collect="always"
       style="color-interpolation-filters:sRGB"
       id="filter4185-45-8"
       x="-0.096041702"
       width="1.1920834"
       y="-0.09595833"
       height="1.1919167">
      <feGaussianBlur
         inkscape:collect="always"
         stdDeviation="0.7196875"
         id="feGaussianBlur4187-2-3" />
    </filter>
    <filter
       inkscape:collect="always"
       style="color-interpolation-filters:sRGB"
       id="filter4177"
       x="-0.1010531"
       width="1.2021062"
       y="-0.091428188"
       height="1.1828564">
      <feGaussianBlur
         inkscape:collect="always"
         stdDeviation="1.0667027"
         id="feGaussianBlur4179" />
    </filter>
  </defs>
  <sodipodi:namedview
     pagecolor="#ffffff"
     bordercolor="#666666"
     borderopacity="1"
     objecttolerance="10"
     gridtolerance="10"
     guidetolerance="10"
     inkscape:pageopacity="0"
     inkscape:pageshadow="2"
     inkscape:window-width="649"
     inkscape:window-height="480"
     id="namedview15"
     showgrid="false"
     inkscape:zoom="7.375"
     inkscape:cx="53.854907"
     inkscape:cy="23.694543"
     inkscape:window-x="586"
     inkscape:window-y="291"
     inkscape:window-maximized="0"
     inkscape:current-layer="svg2" />
  <g
     transform="translate(-0.7129958,0)"
     id="g4173-24-5">
    <path
       style="fill:#687da8;fill-opacity:1;fill-rule:nonzero;stroke:none"
       d="M 10.671875,0 C 9.296875,0 8,1.355469 8,2.789062 L 8,61.210938 C 8,62.566406 9.375,64 10.671875,64 l 42.65625,0 C 54.625,64 56,62.566406 56,61.210938 L 56,18 38,0 Z m 0,0"
       id="path5-3-4"
       inkscape:connector-curvature="0" />
    <path
       inkscape:connector-curvature="0"
       id="path4183-02-9"
       d="m 37.72725,1.2727492 0,15.2265618 c 0,1.347657 1.410156,2.773438 2.757812,2.773438 l 15.226563,0 -1,-1 -13.984375,0 c -1.108,0 -2,-0.892 -2,-2 l 0,-13.9999998 -1,-1 z"
       style="opacity:0.35;fill:#000000;fill-opacity:1;fill-rule:nonzero;stroke:none;filter:url(#filter4185-45-8)"
       transform="matrix(0.9987982,0,0,0.97072022,0.05614747,0.5539655)" />
    <path
       style="fill:#a3b0ca;fill-opacity:1;fill-rule:nonzero;stroke:none"
       d="M 38,0 55.984375,18 40.757812,18 C 39.410156,18 38,16.574219 38,15.226562 Z m 0,0"
       id="path9-99-0"
       inkscape:connector-curvature="0" />
    <path
       inkscape:connector-curvature="0"
       id="path4160-1-7"
       d="M 10.671875,2.0000001e-8 C 9.2968752,2.0000001e-8 8.0000002,1.3554695 8.0000002,2.7890625 l 0,1 C 8.0000002,2.3554695 9.2968752,1 10.671875,1 L 38,1 38,2e-8 l -27.328125,0 z"
       style="opacity:0.5;fill:#ffffff;fill-opacity:1;fill-rule:nonzero;stroke:none" />
    <path
       inkscape:connector-curvature="0"
       id="path4178-08-3"
       d="m 8.0000002,60.210938 0,1 c 0,1.355468 1.375,2.789062 2.6718748,2.789062 L 53.32812,64 C 54.62499,64 56,62.566406 56,61.210938 l 0,-1 C 56,61.566406 54.62499,63 53.32812,63 L 10.671875,63 C 9.3750002,63 8.0000002,61.566406 8.0000002,60.210938 Z"
       style="opacity:0.15;fill:#000000;fill-opacity:1;fill-rule:nonzero;stroke:none" />
  </g>
  <g
     id="g4167"
     style="fill:#000000;opacity:0.35;filter:url(#filter4177)">
    <path
       id="path4169"
       d="M 32.289062 22 C 31.203125 22.007812 30.15625 22.09375 29.242188 22.25 C 26.5625 22.71875 25.992188 22.859375 25.992188 24.664062 L 25.992188 28.664062 L 32.664062 28.664062 L 32.664062 30 L 23.320312 30 C 21.484375 30 20.28125 31.125 19.78125 33.210938 C 19.195312 35.601562 19.171875 37.085938 19.78125 39.585938 C 20.226562 41.4375 21.484375 43.335938 23.320312 43.335938 L 24.65625 43.335938 L 24.65625 39.335938 C 24.65625 37.265625 26.515625 35.335938 28.65625 35.335938 L 35.328125 35.335938 C 37.09375 35.335938 38 34.421875 38 32.664062 L 38 26 C 38 24.296875 37.296875 22.53125 35.578125 22.25 C 34.492188 22.070312 33.367188 21.992188 32.289062 22 Z M 29.992188 24.664062 C 30.734375 24.664062 31.328125 25.265625 31.328125 26 C 31.328125 26.734375 30.734375 27.335938 29.992188 27.335938 C 29.257812 27.335938 28.65625 26.734375 28.65625 26 C 28.65625 25.265625 29.257812 24.664062 29.992188 24.664062 Z M 29.992188 24.664062 "
       style="stroke:none;fill-rule:nonzero;fill:#000000;fill-opacity:1" />
    <path
       id="path4171"
       d="M 31.710938 50 C 32.796875 49.992188 33.84375 49.90625 34.757812 49.75 C 37.4375 49.28125 38.007812 49.140625 38.007812 47.335938 L 38.007812 43.335938 L 31.335938 43.335938 L 31.335938 42 L 40.679688 42 C 42.515625 42 43.71875 40.875 44.21875 38.789062 C 44.804688 36.398438 44.828125 34.914062 44.21875 32.414062 C 43.773438 30.5625 42.515625 28.664062 40.679688 28.664062 L 39.34375 28.664062 L 39.34375 32.664062 C 39.34375 34.734375 37.484375 36.664062 35.34375 36.664062 L 28.671875 36.664062 C 26.90625 36.664062 26 37.578125 26 39.335938 L 26 46 C 26 47.703125 26.703125 49.46875 28.421875 49.75 C 29.507812 49.929688 30.632812 50.007812 31.710938 50 Z M 34.007812 47.335938 C 33.265625 47.335938 32.671875 46.734375 32.671875 46 C 32.671875 45.265625 33.265625 44.664062 34.007812 44.664062 C 34.742188 44.664062 35.34375 45.265625 35.34375 46 C 35.34375 46.734375 34.742188 47.335938 34.007812 47.335938 Z M 34.007812 47.335938 "
       style="stroke:none;fill-rule:nonzero;fill:#000000;fill-opacity:1" />
  </g>
  <g
     id="surface1">
    <path
       style=" stroke:none;fill-rule:nonzero;fill:rgb(100%,100%,100%);fill-opacity:1;"
       d="M 32.289062 22 C 31.203125 22.007812 30.15625 22.09375 29.242188 22.25 C 26.5625 22.71875 25.992188 22.859375 25.992188 24.664062 L 25.992188 28.664062 L 32.664062 28.664062 L 32.664062 30 L 23.320312 30 C 21.484375 30 20.28125 31.125 19.78125 33.210938 C 19.195312 35.601562 19.171875 37.085938 19.78125 39.585938 C 20.226562 41.4375 21.484375 43.335938 23.320312 43.335938 L 24.65625 43.335938 L 24.65625 39.335938 C 24.65625 37.265625 26.515625 35.335938 28.65625 35.335938 L 35.328125 35.335938 C 37.09375 35.335938 38 34.421875 38 32.664062 L 38 26 C 38 24.296875 37.296875 22.53125 35.578125 22.25 C 34.492188 22.070312 33.367188 21.992188 32.289062 22 Z M 29.992188 24.664062 C 30.734375 24.664062 31.328125 25.265625 31.328125 26 C 31.328125 26.734375 30.734375 27.335938 29.992188 27.335938 C 29.257812 27.335938 28.65625 26.734375 28.65625 26 C 28.65625 25.265625 29.257812 24.664062 29.992188 24.664062 Z M 29.992188 24.664062 "
       id="path11" />
    <path
       style=" stroke:none;fill-rule:nonzero;fill:rgb(100%,100%,100%);fill-opacity:1;"
       d="M 31.710938 50 C 32.796875 49.992188 33.84375 49.90625 34.757812 49.75 C 37.4375 49.28125 38.007812 49.140625 38.007812 47.335938 L 38.007812 43.335938 L 31.335938 43.335938 L 31.335938 42 L 40.679688 42 C 42.515625 42 43.71875 40.875 44.21875 38.789062 C 44.804688 36.398438 44.828125 34.914062 44.21875 32.414062 C 43.773438 30.5625 42.515625 28.664062 40.679688 28.664062 L 39.34375 28.664062 L 39.34375 32.664062 C 39.34375 34.734375 37.484375 36.664062 35.34375 36.664062 L 28.671875 36.664062 C 26.90625 36.664062 26 37.578125 26 39.335938 L 26 46 C 26 47.703125 26.703125 49.46875 28.421875 49.75 C 29.507812 49.929688 30.632812 50.007812 31.710938 50 Z M 34.007812 47.335938 C 33.265625 47.335938 32.671875 46.734375 32.671875 46 C 32.671875 45.265625 33.265625 44.664062 34.007812 44.664062 C 34.742188 44.664062 35.34375 45.265625 35.34375 46 C 35.34375 46.734375 34.742188 47.335938 34.007812 47.335938 Z M 34.007812 47.335938 "
       id="path13" />
  </g>
</svg>
