<?xml version="1.0" encoding="UTF-8" standalone="no"?>
<svg
   xmlns:dc="http://purl.org/dc/elements/1.1/"
   xmlns:cc="http://creativecommons.org/ns#"
   xmlns:rdf="http://www.w3.org/1999/02/22-rdf-syntax-ns#"
   xmlns:svg="http://www.w3.org/2000/svg"
   xmlns="http://www.w3.org/2000/svg"
   xmlns:sodipodi="http://sodipodi.sourceforge.net/DTD/sodipodi-0.dtd"
   xmlns:inkscape="http://www.inkscape.org/namespaces/inkscape"
   width="64px"
   height="64px"
   viewBox="0 0 64 64"
   version="1.1"
   id="svg2"
   inkscape:version="0.91 r13725"
   sodipodi:docname="text-x-tex.svg">
  <metadata
     id="metadata15">
    <rdf:RDF>
      <cc:Work
         rdf:about="">
        <dc:format>image/svg+xml</dc:format>
        <dc:type
           rdf:resource="http://purl.org/dc/dcmitype/StillImage" />
      </cc:Work>
    </rdf:RDF>
  </metadata>
  <defs
     id="defs13">
    <clipPath
       id="clipPath-889157936">
      <g
         transform="translate(0,-1004.3622)"
         id="g17">
        <path
           style="fill:#1890d0"
           inkscape:connector-curvature="0"
           d="m -24,13 c 0,1.105 -0.672,2 -1.5,2 -0.828,0 -1.5,-0.895 -1.5,-2 0,-1.105 0.672,-2 1.5,-2 0.828,0 1.5,0.895 1.5,2 z"
           transform="matrix(15.333333,0,0,11.5,414.99999,878.8622)"
           id="path19" />
      </g>
    </clipPath>
    <filter
       inkscape:collect="always"
       style="color-interpolation-filters:sRGB"
       id="filter4185"
       x="-0.096041702"
       width="1.1920834"
       y="-0.09595833"
       height="1.1919167">
      <feGaussianBlur
         inkscape:collect="always"
         stdDeviation="0.7196875"
         id="feGaussianBlur4187" />
    </filter>
    <filter
       inkscape:collect="always"
       style="color-interpolation-filters:sRGB"
       id="filter4174"
       x="-0.073852687"
       width="1.1477054"
       y="-0.13712033"
       height="1.2742407">
      <feGaussianBlur
         inkscape:collect="always"
         stdDeviation="0.80004"
         id="feGaussianBlur4176" />
    </filter>
  </defs>
  <sodipodi:namedview
     pagecolor="#ffffff"
     bordercolor="#666666"
     borderopacity="1"
     objecttolerance="10"
     gridtolerance="10"
     guidetolerance="10"
     inkscape:pageopacity="0"
     inkscape:pageshadow="2"
     inkscape:window-width="1301"
     inkscape:window-height="744"
     id="namedview11"
     showgrid="true"
     inkscape:zoom="5.2149125"
     inkscape:cx="48.701035"
     inkscape:cy="30.957479"
     inkscape:window-x="65"
     inkscape:window-y="24"
     inkscape:window-maximized="1"
     inkscape:current-layer="svg2">
    <inkscape:grid
       type="xygrid"
       id="grid3019" />
  </sodipodi:namedview>
  <g
     id="g4140"
     transform="translate(-0.71943709,0)">
    <path
       style="fill:#dcdcdc;fill-opacity:1;fill-rule:nonzero;stroke:none"
       d="M 10.671875,0 C 9.296875,0 8,1.355469 8,2.789062 L 8,61.210938 C 8,62.566406 9.375,64 10.671875,64 l 42.65625,0 C 54.625,64 56,62.566406 56,61.210938 L 56,18 38,0 Z m 0,0"
       id="path5"
       inkscape:connector-curvature="0" />
    <path
       transform="matrix(1,0,0,0.95722054,0,0.82447778)"
       inkscape:connector-curvature="0"
       id="path4183"
       d="m 37.72725,1.2727492 0,15.2265618 c 0,1.347657 1.410156,2.773438 2.757812,2.773438 l 15.226563,0 -1,-1 -13.984375,0 c -1.108,0 -2,-0.892 -2,-2 l 0,-13.9999998 -1,-1 z"
       style="opacity:0.35;fill:#000000;fill-opacity:1;fill-rule:nonzero;stroke:none;filter:url(#filter4185)" />
    <path
       style="fill:#f2f2f2;fill-opacity:1;fill-rule:nonzero;stroke:none"
       d="M 38,0 55.984375,18 40.757812,18 C 39.410156,18 38,16.574219 38,15.226562 Z m 0,0"
       id="path9"
       inkscape:connector-curvature="0" />
    <path
       inkscape:connector-curvature="0"
       id="path4160"
       d="M 10.671875,2.0000001e-8 C 9.2968752,2.0000001e-8 8.0000002,1.3554695 8.0000002,2.7890625 l 0,1 C 8.0000002,2.3554695 9.2968752,1 10.671875,1 L 38,1 38,2e-8 l -27.328125,0 z"
       style="opacity:0.5;fill:#ffffff;fill-opacity:1;fill-rule:nonzero;stroke:none" />
    <path
       inkscape:connector-curvature="0"
       id="path4178"
       d="m 8.0000002,60.210938 0,1 c 0,1.355468 1.375,2.789062 2.6718748,2.789062 L 53.32812,64 C 54.62499,64 56,62.566406 56,61.210938 l 0,-1 C 56,61.566406 54.62499,63 53.32812,63 L 10.671875,63 C 9.3750002,63 8.0000002,61.566406 8.0000002,60.210938 Z"
       style="opacity:0.15;fill:#000000;fill-opacity:1;fill-rule:nonzero;stroke:none" />
  </g>
  <g
     transform="matrix(1.3333062,0,0,1.3333062,1.6336238e-4,3.9985596)"
     clip-path="url(#clipPath-889157936)"
     id="g4164"
     style="fill:#000000;opacity:0.35;filter:url(#filter4174)">
    <!-- color: #aade54 -->
    <g
       id="g4166"
       style="fill:#000000">
      <path
         style="fill:#000000;fill-opacity:1;fill-rule:nonzero;stroke:none"
         inkscape:connector-curvature="0"
         d="m 20.2,17.02 -8.938,0 -0.262,3.441 0.277,0 c 0.199,-2.578 0.422,-3.03 2.82,-3.03 0.277,0 0.73,0 0.855,0 0.297,0.047 0.297,0.238 0.297,0.594 l 0,8.473 c 0,0.566 -0.047,0.734 -1.352,0.734 l -0.441,0 0,0.375 c 0.746,-0.016 1.52,-0.031 2.277,-0.031 0.758,0 1.535,0.023 2.277,0.031 l 0,-0.375 -0.441,0 c -1.285,0 -1.332,-0.172 -1.332,-0.734 l 0,-8.473 c 0,-0.344 0,-0.527 0.281,-0.594 l 0.848,0 c 2.367,0 2.605,0.449 2.809,3.03 l 0.27,0"
         id="path4168" />
      <path
         style="fill:#000000;fill-opacity:1;fill-rule:nonzero;stroke:none"
         inkscape:connector-curvature="0"
         d="m 27.969,27.07 -0.277,0 c -0.34,2.309 -0.543,3.563 -3.266,3.563 l -2.148,0 c -0.617,0 -0.645,-0.078 -0.645,-0.613 l 0,-4.352 1.457,0 c 1.461,0 1.602,0.539 1.602,1.852 l 0.25,0 0,-4.047 -0.25,0 c 0,1.289 -0.141,1.82 -1.602,1.82 l -1.457,0 0,-3.859 c 0,-0.523 0.027,-0.602 0.645,-0.602 l 2.117,0 c 2.395,0 2.676,0.957 2.891,3.01 l 0.281,0 -0.371,-3.441 -7.84,0 0,0.43 c 1.098,0 1.273,0 1.273,0.699 l 0,8.398 c 0,0.699 -0.176,0.699 -1.273,0.699 l 0,0.375 8.05,0"
         id="path4170" />
      <path
         style="fill:#000000;fill-opacity:1;fill-rule:nonzero;stroke:none"
         inkscape:connector-curvature="0"
         d="m 32.14,21.719 2.289,-3.328 c 0.23,-0.324 0.699,-0.996 1.969,-1.016 l 0,-0.375 c -0.355,0.031 -0.945,0.031 -1.316,0.031 -0.508,0 -1.145,0 -1.531,-0.031 l 0,0.375 c 0.496,0.047 0.621,0.359 0.621,0.609 0,0.188 -0.078,0.313 -0.188,0.465 l -2.043,2.98 -2.289,-3.367 c -0.109,-0.172 -0.125,-0.219 -0.125,-0.266 0,-0.141 0.168,-0.406 0.684,-0.422 l 0,-0.375 c -0.496,0.031 -1.25,0.031 -1.766,0.031 -0.398,0 -1.172,0 -1.547,-0.031 l 0,0.375 c 0.852,0 1.129,0.031 1.469,0.516 l 2.988,4.41 -2.695,3.957 c -0.664,0.965 -1.668,0.984 -1.965,0.984 l 0,0.375 c 0.355,-0.031 0.941,-0.031 1.316,-0.031 0.414,0 1.145,0 1.527,0.031 l 0,-0.375 c -0.477,-0.047 -0.617,-0.359 -0.617,-0.609 0,-0.203 0.078,-0.313 0.156,-0.422 l 2.477,-3.633 2.691,3.977 c 0.121,0.172 0.121,0.219 0.121,0.266 0,0.125 -0.137,0.391 -0.68,0.422 l 0,0.379 c 0.496,-0.031 1.25,-0.031 1.762,-0.031 0.402,0 1.176,0 1.551,0.031 l 0,-0.379 c -0.992,0 -1.148,-0.074 -1.453,-0.516"
         id="path4172" />
    </g>
  </g>
  <g
     id="g53"
     clip-path="url(#clipPath-889157936)"
     transform="matrix(1.3333062,0,0,1.3333062,1.6336238e-4,3.9985596)">
    <!-- color: #aade54 -->
    <g
       id="g55">
      <path
         id="path57"
         d="m 20.2,17.02 -8.938,0 -0.262,3.441 0.277,0 c 0.199,-2.578 0.422,-3.03 2.82,-3.03 0.277,0 0.73,0 0.855,0 0.297,0.047 0.297,0.238 0.297,0.594 l 0,8.473 c 0,0.566 -0.047,0.734 -1.352,0.734 l -0.441,0 0,0.375 c 0.746,-0.016 1.52,-0.031 2.277,-0.031 0.758,0 1.535,0.023 2.277,0.031 l 0,-0.375 -0.441,0 c -1.285,0 -1.332,-0.172 -1.332,-0.734 l 0,-8.473 c 0,-0.344 0,-0.527 0.281,-0.594 l 0.848,0 c 2.367,0 2.605,0.449 2.809,3.03 l 0.27,0"
         inkscape:connector-curvature="0"
         style="fill:#2d2d2d;fill-opacity:1;fill-rule:nonzero;stroke:none" />
      <path
         id="path59"
         d="m 27.969,27.07 -0.277,0 c -0.34,2.309 -0.543,3.563 -3.266,3.563 l -2.148,0 c -0.617,0 -0.645,-0.078 -0.645,-0.613 l 0,-4.352 1.457,0 c 1.461,0 1.602,0.539 1.602,1.852 l 0.25,0 0,-4.047 -0.25,0 c 0,1.289 -0.141,1.82 -1.602,1.82 l -1.457,0 0,-3.859 c 0,-0.523 0.027,-0.602 0.645,-0.602 l 2.117,0 c 2.395,0 2.676,0.957 2.891,3.01 l 0.281,0 -0.371,-3.441 -7.84,0 0,0.43 c 1.098,0 1.273,0 1.273,0.699 l 0,8.398 c 0,0.699 -0.176,0.699 -1.273,0.699 l 0,0.375 8.05,0"
         inkscape:connector-curvature="0"
         style="fill:#2d2d2d;fill-opacity:1;fill-rule:nonzero;stroke:none" />
      <path
         id="path61"
         d="m 32.14,21.719 2.289,-3.328 c 0.23,-0.324 0.699,-0.996 1.969,-1.016 l 0,-0.375 c -0.355,0.031 -0.945,0.031 -1.316,0.031 -0.508,0 -1.145,0 -1.531,-0.031 l 0,0.375 c 0.496,0.047 0.621,0.359 0.621,0.609 0,0.188 -0.078,0.313 -0.188,0.465 l -2.043,2.98 -2.289,-3.367 c -0.109,-0.172 -0.125,-0.219 -0.125,-0.266 0,-0.141 0.168,-0.406 0.684,-0.422 l 0,-0.375 c -0.496,0.031 -1.25,0.031 -1.766,0.031 -0.398,0 -1.172,0 -1.547,-0.031 l 0,0.375 c 0.852,0 1.129,0.031 1.469,0.516 l 2.988,4.41 -2.695,3.957 c -0.664,0.965 -1.668,0.984 -1.965,0.984 l 0,0.375 c 0.355,-0.031 0.941,-0.031 1.316,-0.031 0.414,0 1.145,0 1.527,0.031 l 0,-0.375 c -0.477,-0.047 -0.617,-0.359 -0.617,-0.609 0,-0.203 0.078,-0.313 0.156,-0.422 l 2.477,-3.633 2.691,3.977 c 0.121,0.172 0.121,0.219 0.121,0.266 0,0.125 -0.137,0.391 -0.68,0.422 l 0,0.379 c 0.496,-0.031 1.25,-0.031 1.762,-0.031 0.402,0 1.176,0 1.551,0.031 l 0,-0.379 c -0.992,0 -1.148,-0.074 -1.453,-0.516"
         inkscape:connector-curvature="0"
         style="fill:#2d2d2d;fill-opacity:1;fill-rule:nonzero;stroke:none" />
    </g>
  </g>
</svg>
