<?xml version="1.0" encoding="UTF-8" standalone="no"?>
<svg
   xmlns:dc="http://purl.org/dc/elements/1.1/"
   xmlns:cc="http://creativecommons.org/ns#"
   xmlns:rdf="http://www.w3.org/1999/02/22-rdf-syntax-ns#"
   xmlns:svg="http://www.w3.org/2000/svg"
   xmlns="http://www.w3.org/2000/svg"
   xmlns:sodipodi="http://sodipodi.sourceforge.net/DTD/sodipodi-0.dtd"
   xmlns:inkscape="http://www.inkscape.org/namespaces/inkscape"
   width="64px"
   height="64px"
   viewBox="0 0 64 64"
   version="1.1"
   id="svg2"
   inkscape:version="0.91 r13725"
   sodipodi:docname="text-x-c.svg">
  <metadata
     id="metadata17">
    <rdf:RDF>
      <cc:Work
         rdf:about="">
        <dc:format>image/svg+xml</dc:format>
        <dc:type
           rdf:resource="http://purl.org/dc/dcmitype/StillImage" />
      </cc:Work>
    </rdf:RDF>
  </metadata>
  <defs
     id="defs15">
    <filter
       inkscape:collect="always"
       style="color-interpolation-filters:sRGB"
       id="filter4185"
       x="-0.096041702"
       width="1.1920834"
       y="-0.09595833"
       height="1.1919167">
      <feGaussianBlur
         inkscape:collect="always"
         stdDeviation="0.7196875"
         id="feGaussianBlur4187" />
    </filter>
    <filter
       inkscape:collect="always"
       style="color-interpolation-filters:sRGB"
       id="filter4182"
       x="-0.1"
       width="1.2"
       y="-0.092307692"
       height="1.1846154">
      <feGaussianBlur
         inkscape:collect="always"
         stdDeviation="1"
         id="feGaussianBlur4184" />
    </filter>
  </defs>
  <sodipodi:namedview
     pagecolor="#ffffff"
     bordercolor="#666666"
     borderopacity="1"
     objecttolerance="10"
     gridtolerance="10"
     guidetolerance="10"
     inkscape:pageopacity="0"
     inkscape:pageshadow="2"
     inkscape:window-width="1301"
     inkscape:window-height="744"
     id="namedview13"
     showgrid="false"
     inkscape:zoom="5.2149125"
     inkscape:cx="34.073111"
     inkscape:cy="55.346066"
     inkscape:window-x="65"
     inkscape:window-y="24"
     inkscape:window-maximized="1"
     inkscape:current-layer="svg2" />
  <g
     transform="translate(-0.71943709,0.00691138)"
     id="g4173">
    <path
       style="fill:#2b2b2b;fill-opacity:1;fill-rule:nonzero;stroke:none"
       d="M 10.671875,0 C 9.296875,0 8,1.355469 8,2.789062 L 8,61.210938 C 8,62.566406 9.375,64 10.671875,64 l 42.65625,0 C 54.625,64 56,62.566406 56,61.210938 L 56,18 38,0 Z m 0,0"
       id="path5"
       inkscape:connector-curvature="0" />
    <path
       inkscape:connector-curvature="0"
       id="path4183"
       d="m 37.72725,1.2727492 0,15.2265618 c 0,1.347657 1.410156,2.773438 2.757812,2.773438 l 15.226563,0 -1,-1 -13.984375,0 c -1.108,0 -2,-0.892 -2,-2 l 0,-13.9999998 -1,-1 z"
       style="opacity:0.35;fill:#000000;fill-opacity:1;fill-rule:nonzero;stroke:none;filter:url(#filter4185)" />
    <path
       style="fill:#7e7e7e;fill-opacity:1;fill-rule:nonzero;stroke:none"
       d="M 38,0 55.984375,18 40.757812,18 C 39.410156,18 38,16.574219 38,15.226562 Z m 0,0"
       id="path9"
       inkscape:connector-curvature="0" />
    <path
       inkscape:connector-curvature="0"
       id="path4160"
       d="M 10.671875,2.0000001e-8 C 9.2968752,2.0000001e-8 8.0000002,1.3554695 8.0000002,2.7890625 l 0,1 C 8.0000002,2.3554695 9.2968752,1 10.671875,1 L 38,1 38,2e-8 l -27.328125,0 z"
       style="opacity:0.5;fill:#ffffff;fill-opacity:1;fill-rule:nonzero;stroke:none" />
    <path
       inkscape:connector-curvature="0"
       id="path4178"
       d="m 8.0000002,60.210938 0,1 c 0,1.355468 1.375,2.789062 2.6718748,2.789062 L 53.32812,64 C 54.62499,64 56,62.566406 56,61.210938 l 0,-1 C 56,61.566406 54.62499,63 53.32812,63 L 10.671875,63 C 9.3750002,63 8.0000002,61.566406 8.0000002,60.210938 Z"
       style="opacity:0.15;fill:#000000;fill-opacity:1;fill-rule:nonzero;stroke:none" />
  </g>
  <g
     id="g4178"
     style="fill:#000000;filter:url(#filter4182);opacity:0.35">
    <path
       id="path4180"
       d="M 20 36.785156 C 20 35.222656 20.300781 33.683594 20.886719 32.160156 C 21.484375 30.625 22.339844 29.253906 23.453125 28.046875 C 24.597656 26.847656 25.976562 25.867188 27.613281 25.125 C 29.238281 24.378906 31.101562 24 33.203125 24 C 35.664062 24 37.785156 24.523438 39.578125 25.550781 C 41.390625 26.589844 42.714844 27.941406 43.578125 29.597656 L 39.453125 32.234375 C 39.148438 31.511719 38.742188 30.910156 38.25 30.425781 C 37.757812 29.921875 37.222656 29.53125 36.625 29.234375 C 36.054688 28.949219 35.453125 28.742188 34.839844 28.625 C 34.214844 28.484375 33.617188 28.40625 33.046875 28.40625 C 31.78125 28.40625 30.664062 28.664062 29.707031 29.167969 C 28.746094 29.675781 27.945312 30.332031 27.296875 31.148438 C 26.679688 31.949219 26.199219 32.863281 25.863281 33.902344 C 25.554688 34.910156 25.398438 35.917969 25.398438 36.929688 C 25.398438 38.0625 25.574219 39.15625 25.941406 40.214844 C 26.328125 41.25 26.855469 42.164062 27.535156 42.953125 C 28.230469 43.753906 29.0625 44.390625 30.023438 44.867188 C 30.980469 45.355469 32.027344 45.59375 33.167969 45.59375 C 33.757812 45.59375 34.375 45.527344 34.988281 45.382812 C 35.613281 45.230469 36.210938 45 36.773438 44.6875 C 37.371094 44.382812 37.917969 43.984375 38.410156 43.496094 C 38.902344 42.992188 39.304688 42.394531 39.613281 41.699219 L 44 44.039062 C 43.585938 45 42.980469 45.859375 42.179688 46.609375 C 41.398438 47.324219 40.511719 47.945312 39.5 48.449219 C 38.488281 48.953125 37.425781 49.332031 36.308594 49.601562 C 35.199219 49.867188 34.101562 50 33.011719 50 C 31.09375 50 29.335938 49.621094 27.726562 48.847656 C 26.144531 48.078125 24.773438 47.078125 23.613281 45.847656 C 22.46875 44.59375 21.574219 43.183594 20.933594 41.621094 C 20.308594 40.03125 20 38.421875 20 36.785156 "
       style="stroke:none;fill-rule:nonzero;fill:#000000;fill-opacity:1" />
  </g>
  <g
     id="surface1">
    <path
       style=" stroke:none;fill-rule:nonzero;fill:rgb(86.27451%,86.27451%,86.27451%);fill-opacity:1;"
       d="M 20 36.785156 C 20 35.222656 20.300781 33.683594 20.886719 32.160156 C 21.484375 30.625 22.339844 29.253906 23.453125 28.046875 C 24.597656 26.847656 25.976562 25.867188 27.613281 25.125 C 29.238281 24.378906 31.101562 24 33.203125 24 C 35.664062 24 37.785156 24.523438 39.578125 25.550781 C 41.390625 26.589844 42.714844 27.941406 43.578125 29.597656 L 39.453125 32.234375 C 39.148438 31.511719 38.742188 30.910156 38.25 30.425781 C 37.757812 29.921875 37.222656 29.53125 36.625 29.234375 C 36.054688 28.949219 35.453125 28.742188 34.839844 28.625 C 34.214844 28.484375 33.617188 28.40625 33.046875 28.40625 C 31.78125 28.40625 30.664062 28.664062 29.707031 29.167969 C 28.746094 29.675781 27.945312 30.332031 27.296875 31.148438 C 26.679688 31.949219 26.199219 32.863281 25.863281 33.902344 C 25.554688 34.910156 25.398438 35.917969 25.398438 36.929688 C 25.398438 38.0625 25.574219 39.15625 25.941406 40.214844 C 26.328125 41.25 26.855469 42.164062 27.535156 42.953125 C 28.230469 43.753906 29.0625 44.390625 30.023438 44.867188 C 30.980469 45.355469 32.027344 45.59375 33.167969 45.59375 C 33.757812 45.59375 34.375 45.527344 34.988281 45.382812 C 35.613281 45.230469 36.210938 45 36.773438 44.6875 C 37.371094 44.382812 37.917969 43.984375 38.410156 43.496094 C 38.902344 42.992188 39.304688 42.394531 39.613281 41.699219 L 44 44.039062 C 43.585938 45 42.980469 45.859375 42.179688 46.609375 C 41.398438 47.324219 40.511719 47.945312 39.5 48.449219 C 38.488281 48.953125 37.425781 49.332031 36.308594 49.601562 C 35.199219 49.867188 34.101562 50 33.011719 50 C 31.09375 50 29.335938 49.621094 27.726562 48.847656 C 26.144531 48.078125 24.773438 47.078125 23.613281 45.847656 C 22.46875 44.59375 21.574219 43.183594 20.933594 41.621094 C 20.308594 40.03125 20 38.421875 20 36.785156 "
       id="path11" />
  </g>
</svg>
