<?xml version="1.0" encoding="UTF-8" standalone="no"?>
<svg
   xmlns:dc="http://purl.org/dc/elements/1.1/"
   xmlns:cc="http://creativecommons.org/ns#"
   xmlns:rdf="http://www.w3.org/1999/02/22-rdf-syntax-ns#"
   xmlns:svg="http://www.w3.org/2000/svg"
   xmlns="http://www.w3.org/2000/svg"
   xmlns:sodipodi="http://sodipodi.sourceforge.net/DTD/sodipodi-0.dtd"
   xmlns:inkscape="http://www.inkscape.org/namespaces/inkscape"
   width="64px"
   height="64px"
   viewBox="0 0 64 64"
   version="1.1"
   id="svg2"
   inkscape:version="0.91 r13725"
   sodipodi:docname="wps-office-wpt.svg">
  <metadata
     id="metadata33">
    <rdf:RDF>
      <cc:Work
         rdf:about="">
        <dc:format>image/svg+xml</dc:format>
        <dc:type
           rdf:resource="http://purl.org/dc/dcmitype/StillImage" />
      </cc:Work>
    </rdf:RDF>
  </metadata>
  <defs
     id="defs31">
    <filter
       inkscape:collect="always"
       style="color-interpolation-filters:sRGB"
       id="filter4205"
       x="-0.11984964"
       width="1.2396993"
       y="-0.080066965"
       height="1.1601339">
      <feGaussianBlur
         inkscape:collect="always"
         stdDeviation="1.4011719"
         id="feGaussianBlur4207" />
    </filter>
  </defs>
  <sodipodi:namedview
     pagecolor="#ffffff"
     bordercolor="#666666"
     borderopacity="1"
     objecttolerance="10"
     gridtolerance="10"
     guidetolerance="10"
     inkscape:pageopacity="0"
     inkscape:pageshadow="2"
     inkscape:window-width="1301"
     inkscape:window-height="744"
     id="namedview29"
     showgrid="false"
     inkscape:zoom="10.429825"
     inkscape:cx="24.24576"
     inkscape:cy="35.56437"
     inkscape:window-x="65"
     inkscape:window-y="24"
     inkscape:window-maximized="1"
     inkscape:current-layer="svg2" />
  <g
     id="surface1">
    <path
       style=" stroke:none;fill-rule:nonzero;fill:rgb(20.392157%,40.784314%,80.784314%);fill-opacity:1;"
       d="M 10.6875 0 C 9.3125 0 8 1.378906 8 2.8125 L 8 61.1875 C 8 62.539062 9.390625 64 10.6875 64 L 53.3125 64 C 54.609375 64 56 62.539062 56 61.1875 L 56 2.75 C 56 1.402344 54.597656 0 53.25 0 Z M 10.6875 0 "
       id="path5" />
    <path
       style=" stroke:none;fill-rule:nonzero;fill:rgb(0%,0%,0%);fill-opacity:0.196078;"
       d="M 8 48 L 8 61.335938 C 8 62.632812 9.375 64 10.664062 64 L 53.335938 64 C 54.625 64 56 62.632812 56 61.335938 L 56 48 Z M 8 48 "
       id="path21" />
    <g
       id="g4183"
       style="fill:#000000;filter:url(#filter4205);opacity:0.35">
      <path
         style="stroke:none;fill-rule:evenodd;fill:#000000;fill-opacity:1"
         d="M 20 20 L 32 20 L 32 30 L 20 30 Z M 20 20 "
         id="path4185" />
      <path
         style="stroke:none;fill-rule:evenodd;fill:#000000;fill-opacity:1"
         d="M 34 20 L 44 20 L 44 22 L 34 22 Z M 34 20 "
         id="path4187" />
      <path
         style="stroke:none;fill-rule:evenodd;fill:#000000;fill-opacity:1"
         d="M 34 24 L 44 24 L 44 26 L 34 26 Z M 34 24 "
         id="path4189" />
      <path
         style="stroke:none;fill-rule:evenodd;fill:#000000;fill-opacity:1"
         d="M 34 28 L 44 28 L 44 30 L 34 30 Z M 34 28 "
         id="path4191" />
      <path
         style="stroke:none;fill-rule:evenodd;fill:#000000;fill-opacity:1"
         d="M 20 32 L 44 32 L 44 34 L 20 34 Z M 20 32 "
         id="path4193" />
      <path
         style="stroke:none;fill-rule:evenodd;fill:#000000;fill-opacity:1"
         d="M 20 36 L 44 36 L 44 38 L 20 38 Z M 20 36 "
         id="path4195" />
      <path
         style="stroke:none;fill-rule:evenodd;fill:#000000;fill-opacity:1"
         d="M 20 40 L 44 40 L 44 42 L 20 42 Z M 20 40 "
         id="path4197" />
      <path
         style="stroke:none;fill-rule:nonzero;fill:#000000;fill-opacity:1"
         d="M 23.21875 54.832031 C 23.269531 55.054688 23.351562 55.335938 23.449219 55.671875 C 23.554688 56.007812 23.664062 56.378906 23.777344 56.78125 C 23.910156 57.191406 24.039062 57.628906 24.1875 58.097656 C 24.335938 58.554688 24.484375 59.035156 24.632812 59.527344 C 24.632812 58.902344 24.625 58.246094 24.609375 57.539062 C 24.601562 56.824219 24.582031 56.089844 24.574219 55.351562 C 24.558594 54.613281 24.550781 53.863281 24.535156 53.109375 C 24.519531 52.34375 24.519531 51.613281 24.519531 50.90625 L 26.71875 50.90625 C 26.679688 51.808594 26.636719 52.753906 26.597656 53.714844 C 26.5625 54.675781 26.515625 55.632812 26.464844 56.585938 C 26.417969 57.527344 26.351562 58.464844 26.277344 59.386719 C 26.210938 60.308594 26.128906 61.179688 26.039062 62 L 24.074219 62 C 23.785156 61.242188 23.507812 60.4375 23.21875 59.582031 C 22.941406 58.703125 22.652344 57.875 22.371094 57.085938 C 22.085938 57.839844 21.789062 58.664062 21.484375 59.542969 C 21.171875 60.429688 20.886719 61.242188 20.628906 62 L 18.65625 62 C 18.558594 61.179688 18.46875 60.308594 18.386719 59.386719 C 18.3125 58.449219 18.238281 57.511719 18.179688 56.566406 C 18.125 55.613281 18.082031 54.652344 18.042969 53.699219 C 18 52.730469 17.96875 51.800781 17.941406 50.90625 L 20.144531 50.90625 C 20.136719 51.613281 20.121094 52.335938 20.113281 53.089844 C 20.097656 53.847656 20.078125 54.59375 20.070312 55.351562 C 20.054688 56.089844 20.046875 56.824219 20.03125 57.539062 C 20.023438 58.246094 20.015625 58.902344 20.015625 59.527344 C 20.128906 59.140625 20.261719 58.730469 20.398438 58.269531 C 20.554688 57.816406 20.695312 57.375 20.828125 56.929688 C 20.96875 56.484375 21.097656 56.082031 21.214844 55.703125 C 21.328125 55.335938 21.417969 55.046875 21.484375 54.832031 L 23.21875 54.832031 "
         id="path4199" />
      <path
         style="stroke:none;fill-rule:nonzero;fill:#000000;fill-opacity:1"
         d="M 31.488281 50.78125 C 33.007812 50.78125 34.191406 51.070312 35.019531 51.660156 C 35.859375 52.230469 36.277344 53.171875 36.277344 54.488281 C 36.277344 55.820312 35.851562 56.78125 35.003906 57.375 C 34.164062 57.964844 32.972656 58.253906 31.429688 58.253906 L 30.582031 58.253906 L 30.582031 62 L 28.207031 62 L 28.207031 51.046875 C 28.4375 51.003906 28.691406 50.953125 28.980469 50.921875 C 29.277344 50.890625 29.570312 50.863281 29.867188 50.847656 C 30.164062 50.824219 30.449219 50.808594 30.738281 50.796875 C 31.019531 50.78125 31.273438 50.78125 31.488281 50.78125 M 31.757812 52.695312 C 31.617188 52.695312 31.421875 52.707031 31.15625 52.714844 C 30.910156 52.714844 30.722656 52.730469 30.582031 52.753906 L 30.582031 56.335938 L 31.542969 56.335938 C 32.308594 56.335938 32.875 56.199219 33.261719 55.925781 C 33.65625 55.640625 33.84375 55.152344 33.84375 54.472656 C 33.84375 53.824219 33.65625 53.371094 33.261719 53.109375 C 32.890625 52.835938 32.390625 52.695312 31.757812 52.695312 "
         id="path4201" />
      <path
         style="stroke:none;fill-rule:nonzero;fill:#000000;fill-opacity:1"
         d="M 46 50.90625 L 46 52.730469 L 42.84375 52.730469 L 42.84375 62 L 40.453125 62 L 40.453125 52.730469 L 37.304688 52.730469 L 37.304688 50.90625 L 46 50.90625 "
         id="path4203" />
    </g>
    <g
       id="g4171">
      <path
         id="path7"
         d="M 20 20 L 32 20 L 32 30 L 20 30 Z M 20 20 "
         style=" stroke:none;fill-rule:evenodd;fill:rgb(97.647059%,97.647059%,97.647059%);fill-opacity:1;" />
      <path
         id="path9"
         d="M 34 20 L 44 20 L 44 22 L 34 22 Z M 34 20 "
         style=" stroke:none;fill-rule:evenodd;fill:rgb(97.647059%,97.647059%,97.647059%);fill-opacity:1;" />
      <path
         id="path11"
         d="M 34 24 L 44 24 L 44 26 L 34 26 Z M 34 24 "
         style=" stroke:none;fill-rule:evenodd;fill:rgb(97.647059%,97.647059%,97.647059%);fill-opacity:1;" />
      <path
         id="path13"
         d="M 34 28 L 44 28 L 44 30 L 34 30 Z M 34 28 "
         style=" stroke:none;fill-rule:evenodd;fill:rgb(97.647059%,97.647059%,97.647059%);fill-opacity:1;" />
      <path
         id="path15"
         d="M 20 32 L 44 32 L 44 34 L 20 34 Z M 20 32 "
         style=" stroke:none;fill-rule:evenodd;fill:rgb(97.647059%,97.647059%,97.647059%);fill-opacity:1;" />
      <path
         id="path17"
         d="M 20 36 L 44 36 L 44 38 L 20 38 Z M 20 36 "
         style=" stroke:none;fill-rule:evenodd;fill:rgb(97.647059%,97.647059%,97.647059%);fill-opacity:1;" />
      <path
         id="path19"
         d="M 20 40 L 44 40 L 44 42 L 20 42 Z M 20 40 "
         style=" stroke:none;fill-rule:evenodd;fill:rgb(97.647059%,97.647059%,97.647059%);fill-opacity:1;" />
      <path
         id="path23"
         d="M 23.21875 54.832031 C 23.269531 55.054688 23.351562 55.335938 23.449219 55.671875 C 23.554688 56.007812 23.664062 56.378906 23.777344 56.78125 C 23.910156 57.191406 24.039062 57.628906 24.1875 58.097656 C 24.335938 58.554688 24.484375 59.035156 24.632812 59.527344 C 24.632812 58.902344 24.625 58.246094 24.609375 57.539062 C 24.601562 56.824219 24.582031 56.089844 24.574219 55.351562 C 24.558594 54.613281 24.550781 53.863281 24.535156 53.109375 C 24.519531 52.34375 24.519531 51.613281 24.519531 50.90625 L 26.71875 50.90625 C 26.679688 51.808594 26.636719 52.753906 26.597656 53.714844 C 26.5625 54.675781 26.515625 55.632812 26.464844 56.585938 C 26.417969 57.527344 26.351562 58.464844 26.277344 59.386719 C 26.210938 60.308594 26.128906 61.179688 26.039062 62 L 24.074219 62 C 23.785156 61.242188 23.507812 60.4375 23.21875 59.582031 C 22.941406 58.703125 22.652344 57.875 22.371094 57.085938 C 22.085938 57.839844 21.789062 58.664062 21.484375 59.542969 C 21.171875 60.429688 20.886719 61.242188 20.628906 62 L 18.65625 62 C 18.558594 61.179688 18.46875 60.308594 18.386719 59.386719 C 18.3125 58.449219 18.238281 57.511719 18.179688 56.566406 C 18.125 55.613281 18.082031 54.652344 18.042969 53.699219 C 18 52.730469 17.96875 51.800781 17.941406 50.90625 L 20.144531 50.90625 C 20.136719 51.613281 20.121094 52.335938 20.113281 53.089844 C 20.097656 53.847656 20.078125 54.59375 20.070312 55.351562 C 20.054688 56.089844 20.046875 56.824219 20.03125 57.539062 C 20.023438 58.246094 20.015625 58.902344 20.015625 59.527344 C 20.128906 59.140625 20.261719 58.730469 20.398438 58.269531 C 20.554688 57.816406 20.695312 57.375 20.828125 56.929688 C 20.96875 56.484375 21.097656 56.082031 21.214844 55.703125 C 21.328125 55.335938 21.417969 55.046875 21.484375 54.832031 L 23.21875 54.832031 "
         style=" stroke:none;fill-rule:nonzero;fill:rgb(100%,100%,100%);fill-opacity:1;" />
      <path
         id="path25"
         d="M 31.488281 50.78125 C 33.007812 50.78125 34.191406 51.070312 35.019531 51.660156 C 35.859375 52.230469 36.277344 53.171875 36.277344 54.488281 C 36.277344 55.820312 35.851562 56.78125 35.003906 57.375 C 34.164062 57.964844 32.972656 58.253906 31.429688 58.253906 L 30.582031 58.253906 L 30.582031 62 L 28.207031 62 L 28.207031 51.046875 C 28.4375 51.003906 28.691406 50.953125 28.980469 50.921875 C 29.277344 50.890625 29.570312 50.863281 29.867188 50.847656 C 30.164062 50.824219 30.449219 50.808594 30.738281 50.796875 C 31.019531 50.78125 31.273438 50.78125 31.488281 50.78125 M 31.757812 52.695312 C 31.617188 52.695312 31.421875 52.707031 31.15625 52.714844 C 30.910156 52.714844 30.722656 52.730469 30.582031 52.753906 L 30.582031 56.335938 L 31.542969 56.335938 C 32.308594 56.335938 32.875 56.199219 33.261719 55.925781 C 33.65625 55.640625 33.84375 55.152344 33.84375 54.472656 C 33.84375 53.824219 33.65625 53.371094 33.261719 53.109375 C 32.890625 52.835938 32.390625 52.695312 31.757812 52.695312 "
         style=" stroke:none;fill-rule:nonzero;fill:rgb(100%,100%,100%);fill-opacity:1;" />
      <path
         id="path27"
         d="M 46 50.90625 L 46 52.730469 L 42.84375 52.730469 L 42.84375 62 L 40.453125 62 L 40.453125 52.730469 L 37.304688 52.730469 L 37.304688 50.90625 L 46 50.90625 "
         style=" stroke:none;fill-rule:nonzero;fill:rgb(100%,100%,100%);fill-opacity:1;" />
    </g>
  </g>
  <g
     id="g4161">
    <path
       style="opacity:0.15;fill:#000000;fill-opacity:1;fill-rule:nonzero;stroke:none"
       d="m 7.9999995,60.210938 0,1 c 0,1.355468 1.375,2.789062 2.6718755,2.789062 l 42.656244,0 C 54.624989,64 56,62.566406 56,61.210938 l 0,-1 C 56,61.566406 54.624989,63 53.328119,63 L 10.671875,63 C 9.3749995,63 7.9999995,61.566406 7.9999995,60.210938 Z"
       id="path4178"
       inkscape:connector-curvature="0" />
    <path
       inkscape:connector-curvature="0"
       id="path4159"
       d="m 7.9999998,3.789062 0,-1 C 7.9999998,1.433594 9.3749999,0 10.671875,0 L 53.328119,0 C 54.624989,0 56,1.433594 56,2.789062 l 0,1 C 56,2.433594 54.624989,1 53.328119,1 L 10.671875,1 C 9.3749998,1 7.9999998,2.433594 7.9999998,3.789062 Z"
       style="opacity:0.5;fill:#ffffff;fill-opacity:1;fill-rule:nonzero;stroke:none" />
  </g>
</svg>
