<?xml version="1.0" encoding="UTF-8" standalone="no"?>
<svg
   xmlns:dc="http://purl.org/dc/elements/1.1/"
   xmlns:cc="http://creativecommons.org/ns#"
   xmlns:rdf="http://www.w3.org/1999/02/22-rdf-syntax-ns#"
   xmlns:svg="http://www.w3.org/2000/svg"
   xmlns="http://www.w3.org/2000/svg"
   xmlns:sodipodi="http://sodipodi.sourceforge.net/DTD/sodipodi-0.dtd"
   xmlns:inkscape="http://www.inkscape.org/namespaces/inkscape"
   width="64px"
   height="64px"
   viewBox="0 0 64 64"
   version="1.1"
   id="svg2"
   inkscape:version="0.91 r13725"
   sodipodi:docname="wps-office-xlt.svg">
  <metadata
     id="metadata21">
    <rdf:RDF>
      <cc:Work
         rdf:about="">
        <dc:format>image/svg+xml</dc:format>
        <dc:type
           rdf:resource="http://purl.org/dc/dcmitype/StillImage" />
      </cc:Work>
    </rdf:RDF>
  </metadata>
  <defs
     id="defs19">
    <filter
       inkscape:collect="always"
       style="color-interpolation-filters:sRGB"
       id="filter4174"
       x="-0.12342857"
       width="1.2468571"
       y="-0.078545455"
       height="1.1570909">
      <feGaussianBlur
         inkscape:collect="always"
         stdDeviation="1.44"
         id="feGaussianBlur4176" />
    </filter>
  </defs>
  <sodipodi:namedview
     pagecolor="#ffffff"
     bordercolor="#666666"
     borderopacity="1"
     objecttolerance="10"
     gridtolerance="10"
     guidetolerance="10"
     inkscape:pageopacity="0"
     inkscape:pageshadow="2"
     inkscape:window-width="1301"
     inkscape:window-height="744"
     id="namedview17"
     showgrid="false"
     inkscape:zoom="7.375"
     inkscape:cx="23.131577"
     inkscape:cy="25.533059"
     inkscape:window-x="65"
     inkscape:window-y="24"
     inkscape:window-maximized="1"
     inkscape:current-layer="svg2" />
  <g
     id="surface1">
    <path
       style=" stroke:none;fill-rule:nonzero;fill:rgb(12.54902%,44.313725%,27.058824%);fill-opacity:1;"
       d="M 10.6875 0 C 9.3125 0 8 1.378906 8 2.8125 L 8 61.1875 C 8 62.539062 9.390625 64 10.6875 64 L 53.3125 64 C 54.609375 64 56 62.539062 56 61.1875 L 56 2.75 C 56 1.402344 54.597656 0 53.25 0 Z M 10.6875 0 "
       id="path5" />
    <g
       id="g4168"
       style="filter:url(#filter4174);opacity:0.35;fill:#000000">
      <path
         style="stroke:none;fill-rule:nonzero;fill:#000000;fill-opacity:1"
         d="M 46 18 L 46 44 L 18 44 L 18 18 Z M 44 20 L 30 20 L 30 26 L 44 26 Z M 28 20 L 20 20 L 20 26 L 28 26 Z M 44 28 L 30 28 L 30 34 L 44 34 Z M 28 28 L 20 28 L 20 34 L 28 34 Z M 44 36 L 30 36 L 30 42 L 44 42 Z M 28 36 L 20 36 L 20 42 L 28 42 Z M 28 36 "
         id="path4160" />
      <path
         style="stroke:none;fill-rule:nonzero;fill:#000000;fill-opacity:1"
         d="M 24.601562 62 C 24.355469 61.386719 24.0625 60.703125 23.699219 59.957031 C 23.355469 59.210938 22.996094 58.457031 22.609375 57.710938 C 22.238281 58.425781 21.871094 59.164062 21.503906 59.941406 C 21.132812 60.695312 20.8125 61.386719 20.542969 62 L 18 62 C 18.132812 61.671875 18.3125 61.285156 18.558594 60.828125 C 18.8125 60.367188 19.082031 59.867188 19.378906 59.34375 C 19.691406 58.808594 20 58.269531 20.335938 57.710938 C 20.664062 57.144531 20.984375 56.601562 21.289062 56.085938 L 18.195312 50.804688 L 20.738281 50.804688 L 22.609375 54.378906 L 24.578125 50.804688 L 26.949219 50.804688 L 23.929688 56.027344 C 24.273438 56.546875 24.609375 57.09375 24.945312 57.660156 C 25.273438 58.226562 25.578125 58.777344 25.867188 59.328125 C 26.152344 59.851562 26.40625 60.351562 26.628906 60.828125 C 26.839844 61.285156 27.011719 61.671875 27.144531 62 L 24.601562 62 "
         id="path4162" />
      <path
         style="stroke:none;fill-rule:nonzero;fill:#000000;fill-opacity:1"
         d="M 36.148438 62 L 28.710938 62 L 28.710938 50.804688 L 31.082031 50.804688 L 31.082031 60.15625 L 36.148438 60.15625 L 36.148438 62 "
         id="path4164" />
      <path
         style="stroke:none;fill-rule:nonzero;fill:#000000;fill-opacity:1"
         d="M 46 50.804688 L 46 52.648438 L 42.882812 52.648438 L 42.882812 62 L 40.511719 62 L 40.511719 52.648438 L 37.386719 52.648438 L 37.386719 50.804688 L 46 50.804688 "
         id="path4166" />
    </g>
    <path
       style=" stroke:none;fill-rule:nonzero;fill:rgb(100%,100%,100%);fill-opacity:1;"
       d="M 46 18 L 46 44 L 18 44 L 18 18 Z M 44 20 L 30 20 L 30 26 L 44 26 Z M 28 20 L 20 20 L 20 26 L 28 26 Z M 44 28 L 30 28 L 30 34 L 44 34 Z M 28 28 L 20 28 L 20 34 L 28 34 Z M 44 36 L 30 36 L 30 42 L 44 42 Z M 28 36 L 20 36 L 20 42 L 28 42 Z M 28 36 "
       id="path7" />
    <path
       style=" stroke:none;fill-rule:nonzero;fill:rgb(0%,0%,0%);fill-opacity:0.196078;"
       d="M 8 48 L 8 61.335938 C 8 62.632812 9.375 64 10.664062 64 L 53.335938 64 C 54.625 64 56 62.632812 56 61.335938 L 56 48 Z M 8 48 "
       id="path9" />
    <path
       style=" stroke:none;fill-rule:nonzero;fill:rgb(100%,100%,100%);fill-opacity:1;"
       d="M 24.601562 62 C 24.355469 61.386719 24.0625 60.703125 23.699219 59.957031 C 23.355469 59.210938 22.996094 58.457031 22.609375 57.710938 C 22.238281 58.425781 21.871094 59.164062 21.503906 59.941406 C 21.132812 60.695312 20.8125 61.386719 20.542969 62 L 18 62 C 18.132812 61.671875 18.3125 61.285156 18.558594 60.828125 C 18.8125 60.367188 19.082031 59.867188 19.378906 59.34375 C 19.691406 58.808594 20 58.269531 20.335938 57.710938 C 20.664062 57.144531 20.984375 56.601562 21.289062 56.085938 L 18.195312 50.804688 L 20.738281 50.804688 L 22.609375 54.378906 L 24.578125 50.804688 L 26.949219 50.804688 L 23.929688 56.027344 C 24.273438 56.546875 24.609375 57.09375 24.945312 57.660156 C 25.273438 58.226562 25.578125 58.777344 25.867188 59.328125 C 26.152344 59.851562 26.40625 60.351562 26.628906 60.828125 C 26.839844 61.285156 27.011719 61.671875 27.144531 62 L 24.601562 62 "
       id="path11" />
    <path
       style=" stroke:none;fill-rule:nonzero;fill:rgb(100%,100%,100%);fill-opacity:1;"
       d="M 36.148438 62 L 28.710938 62 L 28.710938 50.804688 L 31.082031 50.804688 L 31.082031 60.15625 L 36.148438 60.15625 L 36.148438 62 "
       id="path13" />
    <path
       style=" stroke:none;fill-rule:nonzero;fill:rgb(100%,100%,100%);fill-opacity:1;"
       d="M 46 50.804688 L 46 52.648438 L 42.882812 52.648438 L 42.882812 62 L 40.511719 62 L 40.511719 52.648438 L 37.386719 52.648438 L 37.386719 50.804688 L 46 50.804688 "
       id="path15" />
  </g>
  <g
     id="g4161">
    <path
       style="opacity:0.15;fill:#000000;fill-opacity:1;fill-rule:nonzero;stroke:none"
       d="m 7.9999995,60.210938 0,1 c 0,1.355468 1.375,2.789062 2.6718755,2.789062 l 42.656244,0 C 54.624989,64 56,62.566406 56,61.210938 l 0,-1 C 56,61.566406 54.624989,63 53.328119,63 L 10.671875,63 C 9.3749995,63 7.9999995,61.566406 7.9999995,60.210938 Z"
       id="path4178"
       inkscape:connector-curvature="0" />
    <path
       inkscape:connector-curvature="0"
       id="path4159"
       d="m 7.9999998,3.789062 0,-1 C 7.9999998,1.433594 9.3749999,0 10.671875,0 L 53.328119,0 C 54.624989,0 56,1.433594 56,2.789062 l 0,1 C 56,2.433594 54.624989,1 53.328119,1 L 10.671875,1 C 9.3749998,1 7.9999998,2.433594 7.9999998,3.789062 Z"
       style="opacity:0.5;fill:#ffffff;fill-opacity:1;fill-rule:nonzero;stroke:none" />
  </g>
</svg>
